<?xml version="1.0" encoding="UTF-8" standalone="no"?>
<!DOCTYPE svg PUBLIC "-//W3C//DTD SVG 1.1//EN"
 "http://www.w3.org/Graphics/SVG/1.1/DTD/svg11.dtd">
<!-- Generated by graphviz version 2.43.0 (0)
 -->
<!-- Title: drake/systems/framework/abstract_values.h Pages: 1 -->
<!--zoomable 352 -->
<svg id="main" version="1.1" xmlns="http://www.w3.org/2000/svg" xmlns:xlink="http://www.w3.org/1999/xlink" xml:space="preserve" onload="init(evt)">
<style type="text/css"><![CDATA[
.edge:hover path { stroke: red; }
.edge:hover polygon { stroke: red; fill: red; }
]]></style>
<script type="text/javascript"><![CDATA[
var edges = document.getElementsByTagName('g');
if (edges && edges.length) {
  for (var i=0;i<edges.length;i++) {
    if (edges[i].id.substr(0,4)=='edge') {
      edges[i].setAttribute('class','edge');
    }
  }
}
]]></script>
        <defs>
                <circle id="rim" cx="0" cy="0" r="7"/>
                <circle id="rim2" cx="0" cy="0" r="3.5"/>
                <g id="zoomPlus">
                        <use xlink:href="#rim" fill="#404040">
                                <set attributeName="fill" to="#808080" begin="zoomplus.mouseover" end="zoomplus.mouseout"/>
                        </use>
                        <path d="M-4,0h8M0,-4v8" fill="none" stroke="white" stroke-width="1.5" pointer-events="none"/>
                </g>
                <g id="zoomMin">
                        <use xlink:href="#rim" fill="#404040">
                                <set attributeName="fill" to="#808080" begin="zoomminus.mouseover" end="zoomminus.mouseout"/>
                        </use>
                        <path d="M-4,0h8" fill="none" stroke="white" stroke-width="1.5" pointer-events="none"/>
                </g>
                <g id="dirArrow">
                        <path fill="none" stroke="white" stroke-width="1.5" d="M0,-3.0v7 M-2.5,-0.5L0,-3.0L2.5,-0.5"/>
                </g>
               <g id="resetDef">
                       <use xlink:href="#rim2" fill="#404040">
                               <set attributeName="fill" to="#808080" begin="reset.mouseover" end="reset.mouseout"/>
                       </use>
               </g>
        </defs>

<script type="text/javascript">
var viewWidth = 1785;
var viewHeight = 352;
var sectionId = 'dynsection-0';
</script>
<script xlink:href="svgpan.js"/>
<svg id="graph" class="graph">
<g id="viewport">
<title>drake/systems/framework/abstract_values.h</title>
<polygon fill="white" stroke="transparent" points="-4,4 -4,-348 1780.96,-348 1780.96,4 -4,4"/>
<!-- Node0 -->
<g id="node1" class="node">
<title>Node0</title>
<g id="a_node1"><a xlink:title=" ">
<polygon fill="#bfbfbf" stroke="black" points="500.5,-313.5 500.5,-343.5 644.5,-343.5 644.5,-313.5 500.5,-313.5"/>
<text text-anchor="start" x="508.5" y="-331.5" font-family="Helvetica,sans-Serif" font-size="10.00">drake/systems/framework</text>
<text text-anchor="middle" x="572.5" y="-320.5" font-family="Helvetica,sans-Serif" font-size="10.00">/abstract_values.h</text>
</a>
</g>
</g>
<!-- Node1 -->
<g id="node2" class="node">
<title>Node1</title>
<g id="a_node2"><a xlink:title=" ">
<polygon fill="white" stroke="#bfbfbf" points="257.5,-129 257.5,-148 315.5,-148 315.5,-129 257.5,-129"/>
<text text-anchor="middle" x="286.5" y="-136" font-family="Helvetica,sans-Serif" font-size="10.00">memory</text>
</a>
</g>
</g>
<!-- Node0&#45;&gt;Node1 -->
<g id="edge1" class="edge">
<title>Node0&#45;&gt;Node1</title>
<path fill="none" stroke="midnightblue" d="M500.34,-321.35C384.1,-309.77 163.62,-280.39 116.5,-221 78.62,-173.25 185.81,-151.84 247.06,-143.72"/>
<polygon fill="midnightblue" stroke="midnightblue" points="247.7,-147.17 257.19,-142.44 246.83,-140.22 247.7,-147.17"/>
</g>
<!-- Node2 -->
<g id="node3" class="node">
<title>Node2</title>
<g id="a_node3"><a xlink:title=" ">
<polygon fill="white" stroke="#bfbfbf" points="1100,-129 1100,-148 1147,-148 1147,-129 1100,-129"/>
<text text-anchor="middle" x="1123.5" y="-136" font-family="Helvetica,sans-Serif" font-size="10.00">vector</text>
</a>
</g>
</g>
<!-- Node0&#45;&gt;Node2 -->
<g id="edge2" class="edge">
<title>Node0&#45;&gt;Node2</title>
<path fill="none" stroke="midnightblue" d="M615.93,-313.43C704.57,-284.59 912.55,-216.22 1085.5,-154 1087.61,-153.24 1089.77,-152.45 1091.95,-151.64"/>
<polygon fill="midnightblue" stroke="midnightblue" points="1093.32,-154.87 1101.45,-148.08 1090.86,-148.32 1093.32,-154.87"/>
</g>
<!-- Node3 -->
<g id="node4" class="node">
<title>Node3</title>
<g id="a_node4"><a xlink:href="drake__assert_8h.html" target="_top" xlink:title="Provides Drake&#39;s assertion implementation.">
<polygon fill="white" stroke="black" points="1552,-56.5 1552,-86.5 1671,-86.5 1671,-56.5 1552,-56.5"/>
<text text-anchor="start" x="1560" y="-74.5" font-family="Helvetica,sans-Serif" font-size="10.00">drake/common/drake</text>
<text text-anchor="middle" x="1611.5" y="-63.5" font-family="Helvetica,sans-Serif" font-size="10.00">_assert.h</text>
</a>
</g>
</g>
<!-- Node0&#45;&gt;Node3 -->
<g id="edge3" class="edge">
<title>Node0&#45;&gt;Node3</title>
<path fill="none" stroke="midnightblue" d="M644.71,-322.48C892.14,-304.54 1694.63,-240.08 1768.5,-154 1799.3,-118.11 1736.22,-95.9 1681.08,-83.91"/>
<polygon fill="midnightblue" stroke="midnightblue" points="1681.75,-80.48 1671.25,-81.86 1680.32,-87.33 1681.75,-80.48"/>
</g>
<!-- Node5 -->
<g id="node6" class="node">
<title>Node5</title>
<g id="a_node6"><a xlink:href="drake__copyable_8h.html" target="_top" xlink:title="Provides careful macros to selectively enable or disable the special member functions for copy&#45;constr...">
<polygon fill="white" stroke="black" points="0,-56.5 0,-86.5 119,-86.5 119,-56.5 0,-56.5"/>
<text text-anchor="start" x="8" y="-74.5" font-family="Helvetica,sans-Serif" font-size="10.00">drake/common/drake</text>
<text text-anchor="middle" x="59.5" y="-63.5" font-family="Helvetica,sans-Serif" font-size="10.00">_copyable.h</text>
</a>
</g>
</g>
<!-- Node0&#45;&gt;Node5 -->
<g id="edge5" class="edge">
<title>Node0&#45;&gt;Node5</title>
<path fill="none" stroke="midnightblue" d="M500.25,-328.26C418.09,-326.91 281.14,-317.85 171.5,-277 129.45,-261.33 115.36,-256.17 87.5,-221 58.94,-184.94 56.36,-128.62 57.58,-96.7"/>
<polygon fill="midnightblue" stroke="midnightblue" points="61.09,-96.68 58.13,-86.51 54.1,-96.3 61.09,-96.68"/>
</g>
<!-- Node6 -->
<g id="node7" class="node">
<title>Node6</title>
<g id="a_node7"><a xlink:href="value_8h.html" target="_top" xlink:title=" ">
<polygon fill="white" stroke="black" points="508.5,-257.5 508.5,-276.5 636.5,-276.5 636.5,-257.5 508.5,-257.5"/>
<text text-anchor="middle" x="572.5" y="-264.5" font-family="Helvetica,sans-Serif" font-size="10.00">drake/common/value.h</text>
</a>
</g>
</g>
<!-- Node0&#45;&gt;Node6 -->
<g id="edge6" class="edge">
<title>Node0&#45;&gt;Node6</title>
<path fill="none" stroke="midnightblue" d="M572.5,-313.4C572.5,-305.47 572.5,-295.46 572.5,-286.86"/>
<polygon fill="midnightblue" stroke="midnightblue" points="576,-286.66 572.5,-276.66 569,-286.66 576,-286.66"/>
</g>
<!-- Node4 -->
<g id="node5" class="node">
<title>Node4</title>
<g id="a_node5"><a xlink:title=" ">
<polygon fill="white" stroke="#bfbfbf" points="870,-0.5 870,-19.5 939,-19.5 939,-0.5 870,-0.5"/>
<text text-anchor="middle" x="904.5" y="-7.5" font-family="Helvetica,sans-Serif" font-size="10.00">type_traits</text>
</a>
</g>
</g>
<!-- Node3&#45;&gt;Node4 -->
<g id="edge4" class="edge">
<title>Node3&#45;&gt;Node4</title>
<path fill="none" stroke="midnightblue" d="M1551.83,-65.48C1413.22,-53.81 1071.96,-25.09 949.31,-14.77"/>
<polygon fill="midnightblue" stroke="midnightblue" points="949.41,-11.27 939.15,-13.92 948.82,-18.24 949.41,-11.27"/>
</g>
<!-- Node6&#45;&gt;Node1 -->
<g id="edge7" class="edge">
<title>Node6&#45;&gt;Node1</title>
<path fill="none" stroke="midnightblue" d="M508.22,-263.65C462.79,-259.48 401.97,-248.62 355.5,-221 329.04,-205.27 307.87,-175.65 296.27,-156.79"/>
<polygon fill="midnightblue" stroke="midnightblue" points="299.19,-154.86 291.09,-148.03 293.17,-158.42 299.19,-154.86"/>
</g>
<!-- Node6&#45;&gt;Node4 -->
<g id="edge10" class="edge">
<title>Node6&#45;&gt;Node4</title>
<path fill="none" stroke="midnightblue" d="M583.12,-257.49C592.76,-249.19 606.63,-235.7 614.5,-221 650.06,-154.57 598.78,-107.81 653.5,-56 682.51,-28.54 795.34,-17.43 859.4,-13.27"/>
<polygon fill="midnightblue" stroke="midnightblue" points="859.86,-16.75 869.63,-12.64 859.43,-9.76 859.86,-16.75"/>
</g>
<!-- Node6&#45;&gt;Node5 -->
<g id="edge22" class="edge">
<title>Node6&#45;&gt;Node5</title>
<path fill="none" stroke="midnightblue" d="M508.33,-263.37C390.07,-257.99 146.99,-244.24 116.5,-221 77.26,-191.09 65.03,-130.6 61.22,-96.78"/>
<polygon fill="midnightblue" stroke="midnightblue" points="64.7,-96.43 60.26,-86.81 57.73,-97.1 64.7,-96.43"/>
</g>
<!-- Node7 -->
<g id="node8" class="node">
<title>Node7</title>
<g id="a_node8"><a xlink:title=" ">
<polygon fill="white" stroke="#bfbfbf" points="540,-196 540,-215 605,-215 605,-196 540,-196"/>
<text text-anchor="middle" x="572.5" y="-203" font-family="Helvetica,sans-Serif" font-size="10.00">stdexcept</text>
</a>
</g>
</g>
<!-- Node6&#45;&gt;Node7 -->
<g id="edge8" class="edge">
<title>Node6&#45;&gt;Node7</title>
<path fill="none" stroke="midnightblue" d="M572.5,-257.48C572.5,-249.08 572.5,-235.98 572.5,-225.16"/>
<polygon fill="midnightblue" stroke="midnightblue" points="576,-225.01 572.5,-215.01 569,-225.01 576,-225.01"/>
</g>
<!-- Node8 -->
<g id="node9" class="node">
<title>Node8</title>
<g id="a_node9"><a xlink:title=" ">
<polygon fill="white" stroke="#bfbfbf" points="803.5,-62 803.5,-81 847.5,-81 847.5,-62 803.5,-62"/>
<text text-anchor="middle" x="825.5" y="-69" font-family="Helvetica,sans-Serif" font-size="10.00">string</text>
</a>
</g>
</g>
<!-- Node6&#45;&gt;Node8 -->
<g id="edge9" class="edge">
<title>Node6&#45;&gt;Node8</title>
<path fill="none" stroke="midnightblue" d="M596.88,-257.45C617.29,-249.66 646.67,-236.95 669.5,-221 719.99,-185.72 722.47,-165.03 767.5,-123 780.54,-110.83 795.76,-97.61 807.34,-87.75"/>
<polygon fill="midnightblue" stroke="midnightblue" points="809.67,-90.36 815.04,-81.23 805.15,-85.02 809.67,-90.36"/>
</g>
<!-- Node9 -->
<g id="node10" class="node">
<title>Node9</title>
<g id="a_node10"><a xlink:title=" ">
<polygon fill="white" stroke="#bfbfbf" points="334,-129 334,-148 391,-148 391,-129 334,-129"/>
<text text-anchor="middle" x="362.5" y="-136" font-family="Helvetica,sans-Serif" font-size="10.00">typeinfo</text>
</a>
</g>
</g>
<!-- Node6&#45;&gt;Node9 -->
<g id="edge11" class="edge">
<title>Node6&#45;&gt;Node9</title>
<path fill="none" stroke="midnightblue" d="M508.26,-259.55C456.88,-253 390.53,-240.92 372.5,-221 357.29,-204.2 357.11,-176.83 359.17,-158.5"/>
<polygon fill="midnightblue" stroke="midnightblue" points="362.66,-158.83 360.62,-148.43 355.73,-157.83 362.66,-158.83"/>
</g>
<!-- Node10 -->
<g id="node11" class="node">
<title>Node10</title>
<g id="a_node11"><a xlink:title=" ">
<polygon fill="white" stroke="#bfbfbf" points="662,-62 662,-81 707,-81 707,-62 662,-62"/>
<text text-anchor="middle" x="684.5" y="-69" font-family="Helvetica,sans-Serif" font-size="10.00">utility</text>
</a>
</g>
</g>
<!-- Node6&#45;&gt;Node10 -->
<g id="edge12" class="edge">
<title>Node6&#45;&gt;Node10</title>
<path fill="none" stroke="midnightblue" d="M596.24,-257.49C613,-250.28 634.67,-238.33 647.5,-221 676.67,-181.6 683.01,-121.85 684.28,-91.56"/>
<polygon fill="midnightblue" stroke="midnightblue" points="687.79,-91.26 684.56,-81.17 680.79,-91.07 687.79,-91.26"/>
</g>
<!-- Node11 -->
<g id="node12" class="node">
<title>Node11</title>
<g id="a_node12"><a xlink:href="copyable__unique__ptr_8h.html" target="_top" xlink:title=" ">
<polygon fill="white" stroke="black" points="738,-190.5 738,-220.5 875,-220.5 875,-190.5 738,-190.5"/>
<text text-anchor="start" x="746" y="-208.5" font-family="Helvetica,sans-Serif" font-size="10.00">drake/common/copyable</text>
<text text-anchor="middle" x="806.5" y="-197.5" font-family="Helvetica,sans-Serif" font-size="10.00">_unique_ptr.h</text>
</a>
</g>
</g>
<!-- Node6&#45;&gt;Node11 -->
<g id="edge13" class="edge">
<title>Node6&#45;&gt;Node11</title>
<path fill="none" stroke="midnightblue" d="M606.03,-257.48C641.27,-248.51 697.61,-234.19 741.6,-223"/>
<polygon fill="midnightblue" stroke="midnightblue" points="742.52,-226.38 751.35,-220.52 740.8,-219.6 742.52,-226.38"/>
</g>
<!-- Node16 -->
<g id="node17" class="node">
<title>Node16</title>
<g id="a_node17"><a xlink:href="hash_8h.html" target="_top" xlink:title=" ">
<polygon fill="white" stroke="black" points="1198,-196 1198,-215 1323,-215 1323,-196 1198,-196"/>
<text text-anchor="middle" x="1260.5" y="-203" font-family="Helvetica,sans-Serif" font-size="10.00">drake/common/hash.h</text>
</a>
</g>
</g>
<!-- Node6&#45;&gt;Node16 -->
<g id="edge23" class="edge">
<title>Node6&#45;&gt;Node16</title>
<path fill="none" stroke="midnightblue" d="M636.61,-260.46C764.87,-249.36 1052.32,-224.5 1187.55,-212.81"/>
<polygon fill="midnightblue" stroke="midnightblue" points="1188.14,-216.27 1197.8,-211.92 1187.53,-209.3 1188.14,-216.27"/>
</g>
<!-- Node24 -->
<g id="node25" class="node">
<title>Node24</title>
<g id="a_node25"><a xlink:href="is__cloneable_8h.html" target="_top" xlink:title=" ">
<polygon fill="white" stroke="black" points="125.5,-196 125.5,-215 287.5,-215 287.5,-196 125.5,-196"/>
<text text-anchor="middle" x="206.5" y="-203" font-family="Helvetica,sans-Serif" font-size="10.00">drake/common/is_cloneable.h</text>
</a>
</g>
</g>
<!-- Node6&#45;&gt;Node24 -->
<g id="edge39" class="edge">
<title>Node6&#45;&gt;Node24</title>
<path fill="none" stroke="midnightblue" d="M520.06,-257.48C453.75,-246.69 339.7,-228.15 268.95,-216.65"/>
<polygon fill="midnightblue" stroke="midnightblue" points="269.27,-213.16 258.84,-215.01 268.15,-220.07 269.27,-213.16"/>
</g>
<!-- Node25 -->
<g id="node26" class="node">
<title>Node25</title>
<g id="a_node26"><a xlink:href="nice__type__name_8h.html" target="_top" xlink:title=" ">
<polygon fill="white" stroke="black" points="381.5,-190.5 381.5,-220.5 521.5,-220.5 521.5,-190.5 381.5,-190.5"/>
<text text-anchor="start" x="389.5" y="-208.5" font-family="Helvetica,sans-Serif" font-size="10.00">drake/common/nice_type</text>
<text text-anchor="middle" x="451.5" y="-197.5" font-family="Helvetica,sans-Serif" font-size="10.00">_name.h</text>
</a>
</g>
</g>
<!-- Node6&#45;&gt;Node25 -->
<g id="edge42" class="edge">
<title>Node6&#45;&gt;Node25</title>
<path fill="none" stroke="midnightblue" d="M555.16,-257.48C538.01,-249.04 511.2,-235.86 489.14,-225.01"/>
<polygon fill="midnightblue" stroke="midnightblue" points="490.54,-221.79 480.02,-220.52 487.45,-228.08 490.54,-221.79"/>
</g>
<!-- Node11&#45;&gt;Node1 -->
<g id="edge15" class="edge">
<title>Node11&#45;&gt;Node1</title>
<path fill="none" stroke="midnightblue" d="M737.62,-199.41C623.95,-190.66 402.04,-171.94 325.5,-154 322.43,-153.28 319.28,-152.39 316.16,-151.4"/>
<polygon fill="midnightblue" stroke="midnightblue" points="317.04,-148 306.44,-148.01 314.74,-154.61 317.04,-148"/>
</g>
<!-- Node11&#45;&gt;Node3 -->
<g id="edge17" class="edge">
<title>Node11&#45;&gt;Node3</title>
<path fill="none" stroke="midnightblue" d="M875.23,-199.06C926.12,-193.01 996.11,-180.34 1052.5,-154 1072.56,-144.63 1070.97,-131.3 1091.5,-123 1171.45,-90.68 1419.53,-78.51 1541.86,-74.39"/>
<polygon fill="midnightblue" stroke="midnightblue" points="1541.99,-77.89 1551.87,-74.06 1541.76,-70.89 1541.99,-77.89"/>
</g>
<!-- Node11&#45;&gt;Node10 -->
<g id="edge16" class="edge">
<title>Node11&#45;&gt;Node10</title>
<path fill="none" stroke="midnightblue" d="M793.44,-190.37C770.59,-165.65 723.49,-114.68 699.4,-88.62"/>
<polygon fill="midnightblue" stroke="midnightblue" points="701.8,-86.07 692.45,-81.1 696.66,-90.82 701.8,-86.07"/>
</g>
<!-- Node12 -->
<g id="node13" class="node">
<title>Node12</title>
<g id="a_node13"><a xlink:title=" ">
<polygon fill="white" stroke="#bfbfbf" points="776,-129 776,-148 829,-148 829,-129 776,-129"/>
<text text-anchor="middle" x="802.5" y="-136" font-family="Helvetica,sans-Serif" font-size="10.00">cstddef</text>
</a>
</g>
</g>
<!-- Node11&#45;&gt;Node12 -->
<g id="edge14" class="edge">
<title>Node11&#45;&gt;Node12</title>
<path fill="none" stroke="midnightblue" d="M805.63,-190.4C805.05,-180.96 804.28,-168.45 803.65,-158.19"/>
<polygon fill="midnightblue" stroke="midnightblue" points="807.14,-157.96 803.04,-148.19 800.16,-158.39 807.14,-157.96"/>
</g>
<!-- Node13 -->
<g id="node14" class="node">
<title>Node13</title>
<g id="a_node14"><a xlink:href="fmt_8h.html" target="_top" xlink:title=" ">
<polygon fill="white" stroke="black" points="924,-129 924,-148 1043,-148 1043,-129 924,-129"/>
<text text-anchor="middle" x="983.5" y="-136" font-family="Helvetica,sans-Serif" font-size="10.00">drake/common/fmt.h</text>
</a>
</g>
</g>
<!-- Node11&#45;&gt;Node13 -->
<g id="edge18" class="edge">
<title>Node11&#45;&gt;Node13</title>
<path fill="none" stroke="midnightblue" d="M844.91,-190.4C876.51,-178.79 920.83,-162.51 950.77,-151.52"/>
<polygon fill="midnightblue" stroke="midnightblue" points="952.15,-154.74 960.33,-148.01 949.74,-148.17 952.15,-154.74"/>
</g>
<!-- Node13&#45;&gt;Node8 -->
<g id="edge19" class="edge">
<title>Node13&#45;&gt;Node8</title>
<path fill="none" stroke="midnightblue" d="M962.52,-128.87C935.25,-117.65 887.43,-97.98 856.11,-85.09"/>
<polygon fill="midnightblue" stroke="midnightblue" points="857.15,-81.74 846.57,-81.17 854.48,-88.21 857.15,-81.74"/>
</g>
<!-- Node14 -->
<g id="node15" class="node">
<title>Node14</title>
<g id="a_node15"><a xlink:title=" ">
<polygon fill="white" stroke="#bfbfbf" points="994,-62 994,-81 1067,-81 1067,-62 994,-62"/>
<text text-anchor="middle" x="1030.5" y="-69" font-family="Helvetica,sans-Serif" font-size="10.00">string_view</text>
</a>
</g>
</g>
<!-- Node13&#45;&gt;Node14 -->
<g id="edge20" class="edge">
<title>Node13&#45;&gt;Node14</title>
<path fill="none" stroke="midnightblue" d="M989.84,-128.73C997.1,-118.7 1009.16,-102.01 1018.26,-89.42"/>
<polygon fill="midnightblue" stroke="midnightblue" points="1021.24,-91.28 1024.26,-81.13 1015.57,-87.18 1021.24,-91.28"/>
</g>
<!-- Node15 -->
<g id="node16" class="node">
<title>Node15</title>
<g id="a_node16"><a xlink:title=" ">
<polygon fill="white" stroke="#bfbfbf" points="897,-62 897,-81 976,-81 976,-62 897,-62"/>
<text text-anchor="middle" x="936.5" y="-69" font-family="Helvetica,sans-Serif" font-size="10.00">fmt/format.h</text>
</a>
</g>
</g>
<!-- Node13&#45;&gt;Node15 -->
<g id="edge21" class="edge">
<title>Node13&#45;&gt;Node15</title>
<path fill="none" stroke="midnightblue" d="M977.16,-128.73C969.9,-118.7 957.84,-102.01 948.74,-89.42"/>
<polygon fill="midnightblue" stroke="midnightblue" points="951.43,-87.18 942.74,-81.13 945.76,-91.28 951.43,-87.18"/>
</g>
<!-- Node16&#45;&gt;Node2 -->
<g id="edge34" class="edge">
<title>Node16&#45;&gt;Node2</title>
<path fill="none" stroke="midnightblue" d="M1242.31,-195.87C1218.97,-184.8 1178.27,-165.49 1151.11,-152.6"/>
<polygon fill="midnightblue" stroke="midnightblue" points="1152.3,-149.29 1141.77,-148.17 1149.3,-155.62 1152.3,-149.29"/>
</g>
<!-- Node16&#45;&gt;Node3 -->
<g id="edge35" class="edge">
<title>Node16&#45;&gt;Node3</title>
<path fill="none" stroke="midnightblue" d="M1323.21,-203.12C1408.37,-199.91 1554.35,-189.28 1592.5,-154 1608.03,-139.64 1612.04,-115.25 1612.61,-96.88"/>
<polygon fill="midnightblue" stroke="midnightblue" points="1616.11,-96.63 1612.6,-86.63 1609.11,-96.63 1616.11,-96.63"/>
</g>
<!-- Node16&#45;&gt;Node4 -->
<g id="edge32" class="edge">
<title>Node16&#45;&gt;Node4</title>
<path fill="none" stroke="midnightblue" d="M1248.92,-195.66C1235.86,-185.65 1214.02,-168.82 1195.5,-154 1142,-111.2 1137.51,-87.18 1076.5,-56 1035.97,-35.29 985.07,-23.51 949.19,-17.24"/>
<polygon fill="midnightblue" stroke="midnightblue" points="949.47,-13.74 939.03,-15.54 948.32,-20.64 949.47,-13.74"/>
</g>
<!-- Node16&#45;&gt;Node8 -->
<g id="edge31" class="edge">
<title>Node16&#45;&gt;Node8</title>
<path fill="none" stroke="midnightblue" d="M1197.86,-199.72C1112.4,-192.46 964.3,-177.01 915.5,-154 898.59,-146.03 861.92,-109.99 840.98,-88.6"/>
<polygon fill="midnightblue" stroke="midnightblue" points="843.28,-85.94 833.8,-81.2 838.26,-90.81 843.28,-85.94"/>
</g>
<!-- Node16&#45;&gt;Node10 -->
<g id="edge33" class="edge">
<title>Node16&#45;&gt;Node10</title>
<path fill="none" stroke="midnightblue" d="M1197.81,-200.79C1103.44,-194.46 929.92,-179.69 873.5,-154 854.59,-145.39 856.52,-133.34 838.5,-123 799.52,-100.64 749.24,-86.52 716.93,-79.07"/>
<polygon fill="midnightblue" stroke="midnightblue" points="717.63,-75.64 707.1,-76.88 716.1,-82.47 717.63,-75.64"/>
</g>
<!-- Node16&#45;&gt;Node12 -->
<g id="edge25" class="edge">
<title>Node16&#45;&gt;Node12</title>
<path fill="none" stroke="midnightblue" d="M1197.94,-201.21C1115.71,-195.92 967.22,-183 843.5,-154 840.27,-153.24 836.93,-152.32 833.63,-151.3"/>
<polygon fill="midnightblue" stroke="midnightblue" points="834.53,-147.91 823.94,-148.08 832.32,-154.56 834.53,-147.91"/>
</g>
<!-- Node17 -->
<g id="node18" class="node">
<title>Node17</title>
<g id="a_node18"><a xlink:title=" ">
<polygon fill="white" stroke="#bfbfbf" points="1204,-129 1204,-148 1251,-148 1251,-129 1204,-129"/>
<text text-anchor="middle" x="1227.5" y="-136" font-family="Helvetica,sans-Serif" font-size="10.00">cmath</text>
</a>
</g>
</g>
<!-- Node16&#45;&gt;Node17 -->
<g id="edge24" class="edge">
<title>Node16&#45;&gt;Node17</title>
<path fill="none" stroke="midnightblue" d="M1256.05,-195.73C1251.05,-185.89 1242.81,-169.66 1236.47,-157.16"/>
<polygon fill="midnightblue" stroke="midnightblue" points="1239.53,-155.46 1231.88,-148.13 1233.29,-158.63 1239.53,-155.46"/>
</g>
<!-- Node18 -->
<g id="node19" class="node">
<title>Node18</title>
<g id="a_node19"><a xlink:title=" ">
<polygon fill="white" stroke="#bfbfbf" points="1269.5,-129 1269.5,-148 1319.5,-148 1319.5,-129 1269.5,-129"/>
<text text-anchor="middle" x="1294.5" y="-136" font-family="Helvetica,sans-Serif" font-size="10.00">cstdint</text>
</a>
</g>
</g>
<!-- Node16&#45;&gt;Node18 -->
<g id="edge26" class="edge">
<title>Node16&#45;&gt;Node18</title>
<path fill="none" stroke="midnightblue" d="M1265.09,-195.73C1270.23,-185.89 1278.72,-169.66 1285.26,-157.16"/>
<polygon fill="midnightblue" stroke="midnightblue" points="1288.45,-158.61 1289.99,-148.13 1282.25,-155.37 1288.45,-158.61"/>
</g>
<!-- Node19 -->
<g id="node20" class="node">
<title>Node19</title>
<g id="a_node20"><a xlink:title=" ">
<polygon fill="white" stroke="#bfbfbf" points="1338,-129 1338,-148 1403,-148 1403,-129 1338,-129"/>
<text text-anchor="middle" x="1370.5" y="-136" font-family="Helvetica,sans-Serif" font-size="10.00">functional</text>
</a>
</g>
</g>
<!-- Node16&#45;&gt;Node19 -->
<g id="edge27" class="edge">
<title>Node16&#45;&gt;Node19</title>
<path fill="none" stroke="midnightblue" d="M1275.34,-195.73C1293.81,-184.82 1325.57,-166.05 1347.28,-153.22"/>
<polygon fill="midnightblue" stroke="midnightblue" points="1349.07,-156.23 1355.9,-148.13 1345.51,-150.2 1349.07,-156.23"/>
</g>
<!-- Node20 -->
<g id="node21" class="node">
<title>Node20</title>
<g id="a_node21"><a xlink:title=" ">
<polygon fill="white" stroke="#bfbfbf" points="1421.5,-129 1421.5,-148 1459.5,-148 1459.5,-129 1421.5,-129"/>
<text text-anchor="middle" x="1440.5" y="-136" font-family="Helvetica,sans-Serif" font-size="10.00">map</text>
</a>
</g>
</g>
<!-- Node16&#45;&gt;Node20 -->
<g id="edge28" class="edge">
<title>Node16&#45;&gt;Node20</title>
<path fill="none" stroke="midnightblue" d="M1290.72,-195.99C1321.77,-186.89 1371.25,-171.41 1412.5,-154 1413.53,-153.56 1414.58,-153.1 1415.63,-152.63"/>
<polygon fill="midnightblue" stroke="midnightblue" points="1417.55,-155.59 1425.01,-148.07 1414.49,-149.3 1417.55,-155.59"/>
</g>
<!-- Node21 -->
<g id="node22" class="node">
<title>Node21</title>
<g id="a_node22"><a xlink:title=" ">
<polygon fill="white" stroke="#bfbfbf" points="1477.5,-129 1477.5,-148 1533.5,-148 1533.5,-129 1477.5,-129"/>
<text text-anchor="middle" x="1505.5" y="-136" font-family="Helvetica,sans-Serif" font-size="10.00">optional</text>
</a>
</g>
</g>
<!-- Node16&#45;&gt;Node21 -->
<g id="edge29" class="edge">
<title>Node16&#45;&gt;Node21</title>
<path fill="none" stroke="midnightblue" d="M1302.79,-195.99C1345.15,-187.06 1411.98,-171.85 1468.5,-154 1470.78,-153.28 1473.11,-152.49 1475.45,-151.66"/>
<polygon fill="midnightblue" stroke="midnightblue" points="1476.79,-154.9 1484.93,-148.13 1474.34,-148.34 1476.79,-154.9"/>
</g>
<!-- Node22 -->
<g id="node23" class="node">
<title>Node22</title>
<g id="a_node23"><a xlink:title=" ">
<polygon fill="white" stroke="#bfbfbf" points="1551.5,-129 1551.5,-148 1583.5,-148 1583.5,-129 1551.5,-129"/>
<text text-anchor="middle" x="1567.5" y="-136" font-family="Helvetica,sans-Serif" font-size="10.00">set</text>
</a>
</g>
</g>
<!-- Node16&#45;&gt;Node22 -->
<g id="edge30" class="edge">
<title>Node16&#45;&gt;Node22</title>
<path fill="none" stroke="midnightblue" d="M1323.19,-199.57C1381.44,-193.53 1469.88,-180.62 1542.5,-154 1543.54,-153.62 1544.58,-153.2 1545.62,-152.74"/>
<polygon fill="midnightblue" stroke="midnightblue" points="1547.4,-155.76 1554.69,-148.07 1544.19,-149.54 1547.4,-155.76"/>
</g>
<!-- Node23 -->
<g id="node24" class="node">
<title>Node23</title>
<g id="a_node24"><a xlink:href="drake__throw_8h.html" target="_top" xlink:title="Provides a convenient wrapper to throw an exception when a condition is unmet.">
<polygon fill="white" stroke="black" points="1640,-123.5 1640,-153.5 1759,-153.5 1759,-123.5 1640,-123.5"/>
<text text-anchor="start" x="1648" y="-141.5" font-family="Helvetica,sans-Serif" font-size="10.00">drake/common/drake</text>
<text text-anchor="middle" x="1699.5" y="-130.5" font-family="Helvetica,sans-Serif" font-size="10.00">_throw.h</text>
</a>
</g>
</g>
<!-- Node16&#45;&gt;Node23 -->
<g id="edge36" class="edge">
<title>Node16&#45;&gt;Node23</title>
<path fill="none" stroke="midnightblue" d="M1323.31,-196.9C1396.17,-187.82 1519.81,-171.65 1625.5,-154 1626.95,-153.76 1628.42,-153.51 1629.9,-153.25"/>
<polygon fill="midnightblue" stroke="midnightblue" points="1630.54,-156.69 1639.78,-151.5 1629.32,-149.8 1630.54,-156.69"/>
</g>
<!-- Node23&#45;&gt;Node3 -->
<g id="edge38" class="edge">
<title>Node23&#45;&gt;Node3</title>
<path fill="none" stroke="midnightblue" d="M1680.41,-123.4C1668.18,-114.37 1652.13,-102.51 1638.6,-92.52"/>
<polygon fill="midnightblue" stroke="midnightblue" points="1640.68,-89.7 1630.56,-86.58 1636.52,-95.33 1640.68,-89.7"/>
</g>
<!-- Node23&#45;&gt;Node4 -->
<g id="edge37" class="edge">
<title>Node23&#45;&gt;Node4</title>
<path fill="none" stroke="midnightblue" d="M1700.82,-123.42C1701.71,-104.82 1700.06,-72.47 1680.5,-56 1624.56,-8.9 1106.97,-9.3 949.64,-10.53"/>
<polygon fill="midnightblue" stroke="midnightblue" points="949.35,-7.03 939.38,-10.61 949.41,-14.03 949.35,-7.03"/>
</g>
<!-- Node24&#45;&gt;Node1 -->
<g id="edge40" class="edge">
<title>Node24&#45;&gt;Node1</title>
<path fill="none" stroke="midnightblue" d="M217.29,-195.73C230.24,-185.21 252.19,-167.38 267.89,-154.62"/>
<polygon fill="midnightblue" stroke="midnightblue" points="270.33,-157.15 275.88,-148.13 265.91,-151.72 270.33,-157.15"/>
</g>
<!-- Node24&#45;&gt;Node4 -->
<g id="edge41" class="edge">
<title>Node24&#45;&gt;Node4</title>
<path fill="none" stroke="midnightblue" d="M208.53,-195.96C212.9,-179.39 224.8,-142.8 248.5,-123 342.06,-44.84 727.16,-19.43 859.55,-12.92"/>
<polygon fill="midnightblue" stroke="midnightblue" points="859.92,-16.4 869.74,-12.43 859.59,-9.41 859.92,-16.4"/>
</g>
<!-- Node25&#45;&gt;Node1 -->
<g id="edge43" class="edge">
<title>Node25&#45;&gt;Node1</title>
<path fill="none" stroke="midnightblue" d="M415.7,-190.4C386.49,-178.89 345.64,-162.8 317.74,-151.81"/>
<polygon fill="midnightblue" stroke="midnightblue" points="318.68,-148.42 308.09,-148.01 316.12,-154.93 318.68,-148.42"/>
</g>
<!-- Node25&#45;&gt;Node2 -->
<g id="edge47" class="edge">
<title>Node25&#45;&gt;Node2</title>
<path fill="none" stroke="midnightblue" d="M521.67,-191.33C524.99,-190.85 528.28,-190.4 531.5,-190 761.82,-161.26 822.51,-185.29 1052.5,-154 1064.84,-152.32 1078.26,-149.77 1090.07,-147.28"/>
<polygon fill="midnightblue" stroke="midnightblue" points="1090.94,-150.67 1099.97,-145.12 1089.45,-143.83 1090.94,-150.67"/>
</g>
<!-- Node25&#45;&gt;Node8 -->
<g id="edge44" class="edge">
<title>Node25&#45;&gt;Node8</title>
<path fill="none" stroke="midnightblue" d="M491.17,-190.5C565.74,-164.18 725.42,-107.82 793.59,-83.76"/>
<polygon fill="midnightblue" stroke="midnightblue" points="795.07,-86.95 803.34,-80.32 792.74,-80.35 795.07,-86.95"/>
</g>
<!-- Node25&#45;&gt;Node9 -->
<g id="edge45" class="edge">
<title>Node25&#45;&gt;Node9</title>
<path fill="none" stroke="midnightblue" d="M432.19,-190.4C417.54,-179.7 397.46,-165.03 382.62,-154.19"/>
<polygon fill="midnightblue" stroke="midnightblue" points="384.29,-151.08 374.15,-148.01 380.16,-156.73 384.29,-151.08"/>
</g>
<!-- Node25&#45;&gt;Node10 -->
<g id="edge46" class="edge">
<title>Node25&#45;&gt;Node10</title>
<path fill="none" stroke="midnightblue" d="M477.41,-190.35C494.92,-180.57 518.43,-167.02 538.5,-154 558.27,-141.18 561.3,-135.12 581.5,-123 605.53,-108.59 634.27,-94.76 655.27,-85.23"/>
<polygon fill="midnightblue" stroke="midnightblue" points="656.92,-88.32 664.62,-81.04 654.06,-81.94 656.92,-88.32"/>
</g>
<!-- Node26 -->
<g id="node27" class="node">
<title>Node26</title>
<g id="a_node27"><a xlink:href="never__destroyed_8h.html" target="_top" xlink:title=" ">
<polygon fill="white" stroke="black" points="409.5,-123.5 409.5,-153.5 529.5,-153.5 529.5,-123.5 409.5,-123.5"/>
<text text-anchor="start" x="417.5" y="-141.5" font-family="Helvetica,sans-Serif" font-size="10.00">drake/common/never</text>
<text text-anchor="middle" x="469.5" y="-130.5" font-family="Helvetica,sans-Serif" font-size="10.00">_destroyed.h</text>
</a>
</g>
</g>
<!-- Node25&#45;&gt;Node26 -->
<g id="edge48" class="edge">
<title>Node25&#45;&gt;Node26</title>
<path fill="none" stroke="midnightblue" d="M455.41,-190.4C457.6,-182.47 460.4,-172.38 462.92,-163.27"/>
<polygon fill="midnightblue" stroke="midnightblue" points="466.31,-164.15 465.6,-153.58 459.56,-162.28 466.31,-164.15"/>
</g>
<!-- Node26&#45;&gt;Node4 -->
<g id="edge50" class="edge">
<title>Node26&#45;&gt;Node4</title>
<path fill="none" stroke="midnightblue" d="M468.48,-123.23C468.01,-104.71 470.32,-72.79 489.5,-56 516.95,-31.97 758,-17.9 859.63,-12.99"/>
<polygon fill="midnightblue" stroke="midnightblue" points="860.05,-16.47 869.88,-12.5 859.72,-9.48 860.05,-16.47"/>
</g>
<!-- Node26&#45;&gt;Node5 -->
<g id="edge52" class="edge">
<title>Node26&#45;&gt;Node5</title>
<path fill="none" stroke="midnightblue" d="M409.33,-124.63C406.35,-124.07 403.39,-123.52 400.5,-123 307.06,-106.28 198.51,-90.89 129.44,-81.61"/>
<polygon fill="midnightblue" stroke="midnightblue" points="129.5,-78.08 119.12,-80.22 128.57,-85.02 129.5,-78.08"/>
</g>
<!-- Node26&#45;&gt;Node10 -->
<g id="edge51" class="edge">
<title>Node26&#45;&gt;Node10</title>
<path fill="none" stroke="midnightblue" d="M515.89,-123.48C556.9,-111.08 615.67,-93.31 651.9,-82.36"/>
<polygon fill="midnightblue" stroke="midnightblue" points="653.37,-85.57 661.93,-79.32 651.34,-78.87 653.37,-85.57"/>
</g>
<!-- Node27 -->
<g id="node28" class="node">
<title>Node27</title>
<g id="a_node28"><a xlink:title=" ">
<polygon fill="white" stroke="#bfbfbf" points="498,-62 498,-81 535,-81 535,-62 498,-62"/>
<text text-anchor="middle" x="516.5" y="-69" font-family="Helvetica,sans-Serif" font-size="10.00">new</text>
</a>
</g>
</g>
<!-- Node26&#45;&gt;Node27 -->
<g id="edge49" class="edge">
<title>Node26&#45;&gt;Node27</title>
<path fill="none" stroke="midnightblue" d="M479.7,-123.4C486.88,-113.46 496.54,-100.11 504.16,-89.57"/>
<polygon fill="midnightblue" stroke="midnightblue" points="507.19,-91.35 510.21,-81.19 501.52,-87.25 507.19,-91.35"/>
</g>
</g>
</svg>
        <g id="navigator" transform="translate(0 0)" fill="#404254">
                <rect fill="#f2f5e9" fill-opacity="0.5" stroke="#606060" stroke-width=".5" x="0" y="0" width="60" height="60"/>
                <use id="zoomplus" xlink:href="#zoomPlus" x="17" y="9" onmousedown="handleZoom(evt,'in')"/>
                <use id="zoomminus" xlink:href="#zoomMin" x="42" y="9" onmousedown="handleZoom(evt,'out')"/>
                <use id="reset" xlink:href="#resetDef" x="30" y="36" onmousedown="handleReset()"/>
                <g id="arrowUp" xlink:href="#dirArrow" transform="translate(30 24)" onmousedown="handlePan(0,-1)">
                  <use xlink:href="#rim" fill="#404040">
                        <set attributeName="fill" to="#808080" begin="arrowUp.mouseover" end="arrowUp.mouseout"/>
                  </use>
                  <path fill="none" stroke="white" stroke-width="1.5" d="M0,-3.0v7 M-2.5,-0.5L0,-3.0L2.5,-0.5"/>
                </g>
                <g id="arrowRight" xlink:href="#dirArrow" transform="rotate(90) translate(36 -43)" onmousedown="handlePan(1,0)">
                  <use xlink:href="#rim" fill="#404040">
                        <set attributeName="fill" to="#808080" begin="arrowRight.mouseover" end="arrowRight.mouseout"/>
                  </use>
                  <path fill="none" stroke="white" stroke-width="1.5" d="M0,-3.0v7 M-2.5,-0.5L0,-3.0L2.5,-0.5"/>
                </g>
                <g id="arrowDown" xlink:href="#dirArrow" transform="rotate(180) translate(-30 -48)" onmousedown="handlePan(0,1)">
                  <use xlink:href="#rim" fill="#404040">
                        <set attributeName="fill" to="#808080" begin="arrowDown.mouseover" end="arrowDown.mouseout"/>
                  </use>
                  <path fill="none" stroke="white" stroke-width="1.5" d="M0,-3.0v7 M-2.5,-0.5L0,-3.0L2.5,-0.5"/>
                </g>
                <g id="arrowLeft" xlink:href="#dirArrow" transform="rotate(270) translate(-36 17)" onmousedown="handlePan(-1,0)">
                  <use xlink:href="#rim" fill="#404040">
                        <set attributeName="fill" to="#808080" begin="arrowLeft.mouseover" end="arrowLeft.mouseout"/>
                  </use>
                  <path fill="none" stroke="white" stroke-width="1.5" d="M0,-3.0v7 M-2.5,-0.5L0,-3.0L2.5,-0.5"/>
                </g>
        </g>
        <svg viewBox="0 0 15 15" width="100%" height="30px" preserveAspectRatio="xMaxYMin meet">
         <g id="arrow_out" transform="scale(0.3 0.3)">
          <a xlink:href="abstract__values_8h__incl_org.svg" target="_base">
           <rect id="button" ry="5" rx="5" y="6" x="6" height="38" width="38"
                fill="#f2f5e9" fill-opacity="0.5" stroke="#606060" stroke-width="1.0"/>
           <path id="arrow"
             d="M 11.500037,31.436501 C 11.940474,20.09759 22.043105,11.32322 32.158766,21.979434 L 37.068811,17.246167 C 37.068811,17.246167 37.088388,32 37.088388,32 L 22.160133,31.978069 C 22.160133,31.978069 26.997745,27.140456 26.997745,27.140456 C 18.528582,18.264221 13.291696,25.230495 11.500037,31.436501 z"
             style="fill:#404040;"/>
          </a>
         </g>
        </svg>
</svg>
