<?xml version="1.0" encoding="UTF-8" standalone="no"?>
<!DOCTYPE svg PUBLIC "-//W3C//DTD SVG 1.1//EN"
 "http://www.w3.org/Graphics/SVG/1.1/DTD/svg11.dtd">
<!-- Generated by graphviz version 2.43.0 (0)
 -->
<!-- Title: drake/systems/framework/abstract_values.h Pages: 1 -->
<!--zoomable 352 -->
<svg id="main" version="1.1" xmlns="http://www.w3.org/2000/svg" xmlns:xlink="http://www.w3.org/1999/xlink" xml:space="preserve" onload="init(evt)">
<style type="text/css"><![CDATA[
.edge:hover path { stroke: red; }
.edge:hover polygon { stroke: red; fill: red; }
]]></style>
<script type="text/javascript"><![CDATA[
var edges = document.getElementsByTagName('g');
if (edges && edges.length) {
  for (var i=0;i<edges.length;i++) {
    if (edges[i].id.substr(0,4)=='edge') {
      edges[i].setAttribute('class','edge');
    }
  }
}
]]></script>
        <defs>
                <circle id="rim" cx="0" cy="0" r="7"/>
                <circle id="rim2" cx="0" cy="0" r="3.5"/>
                <g id="zoomPlus">
                        <use xlink:href="#rim" fill="#404040">
                                <set attributeName="fill" to="#808080" begin="zoomplus.mouseover" end="zoomplus.mouseout"/>
                        </use>
                        <path d="M-4,0h8M0,-4v8" fill="none" stroke="white" stroke-width="1.5" pointer-events="none"/>
                </g>
                <g id="zoomMin">
                        <use xlink:href="#rim" fill="#404040">
                                <set attributeName="fill" to="#808080" begin="zoomminus.mouseover" end="zoomminus.mouseout"/>
                        </use>
                        <path d="M-4,0h8" fill="none" stroke="white" stroke-width="1.5" pointer-events="none"/>
                </g>
                <g id="dirArrow">
                        <path fill="none" stroke="white" stroke-width="1.5" d="M0,-3.0v7 M-2.5,-0.5L0,-3.0L2.5,-0.5"/>
                </g>
               <g id="resetDef">
                       <use xlink:href="#rim2" fill="#404040">
                               <set attributeName="fill" to="#808080" begin="reset.mouseover" end="reset.mouseout"/>
                       </use>
               </g>
        </defs>

<script type="text/javascript">
var viewWidth = 1895;
var viewHeight = 352;
var sectionId = 'dynsection-0';
</script>
<script xlink:href="svgpan.js"/>
<svg id="graph" class="graph">
<g id="viewport">
<title>drake/systems/framework/abstract_values.h</title>
<polygon fill="white" stroke="transparent" points="-4,4 -4,-348 1891.46,-348 1891.46,4 -4,4"/>
<!-- Node0 -->
<g id="node1" class="node">
<title>Node0</title>
<g id="a_node1"><a xlink:title=" ">
<polygon fill="#bfbfbf" stroke="black" points="1156.5,-313.5 1156.5,-343.5 1300.5,-343.5 1300.5,-313.5 1156.5,-313.5"/>
<text text-anchor="start" x="1164.5" y="-331.5" font-family="Helvetica,sans-Serif" font-size="10.00">drake/systems/framework</text>
<text text-anchor="middle" x="1228.5" y="-320.5" font-family="Helvetica,sans-Serif" font-size="10.00">/abstract_values.h</text>
</a>
</g>
</g>
<!-- Node1 -->
<g id="node2" class="node">
<title>Node1</title>
<g id="a_node2"><a xlink:title=" ">
<polygon fill="white" stroke="#bfbfbf" points="1654.5,-129 1654.5,-148 1712.5,-148 1712.5,-129 1654.5,-129"/>
<text text-anchor="middle" x="1683.5" y="-136" font-family="Helvetica,sans-Serif" font-size="10.00">memory</text>
</a>
</g>
</g>
<!-- Node0&#45;&gt;Node1 -->
<g id="edge1" class="edge">
<title>Node0&#45;&gt;Node1</title>
<path fill="none" stroke="midnightblue" d="M1264.91,-313.37C1316.44,-293.28 1413.48,-255.13 1495.5,-221 1552.24,-197.39 1618.02,-168.53 1654.79,-152.26"/>
<polygon fill="midnightblue" stroke="midnightblue" points="1656.64,-155.27 1664.36,-148.02 1653.8,-148.87 1656.64,-155.27"/>
</g>
<!-- Node2 -->
<g id="node3" class="node">
<title>Node2</title>
<g id="a_node3"><a xlink:title=" ">
<polygon fill="white" stroke="#bfbfbf" points="764,-129 764,-148 811,-148 811,-129 764,-129"/>
<text text-anchor="middle" x="787.5" y="-136" font-family="Helvetica,sans-Serif" font-size="10.00">vector</text>
</a>
</g>
</g>
<!-- Node0&#45;&gt;Node2 -->
<g id="edge2" class="edge">
<title>Node0&#45;&gt;Node2</title>
<path fill="none" stroke="midnightblue" d="M1165.02,-313.47C1096.77,-296.92 986.27,-265.89 898.5,-221 862.39,-202.53 825.4,-172.76 804.55,-154.77"/>
<polygon fill="midnightblue" stroke="midnightblue" points="806.72,-152.02 796.89,-148.06 802.11,-157.28 806.72,-152.02"/>
</g>
<!-- Node3 -->
<g id="node4" class="node">
<title>Node3</title>
<g id="a_node4"><a xlink:href="drake__assert_8h.html" target="_top" xlink:title="Provides Drake&#39;s assertion implementation.">
<polygon fill="white" stroke="black" points="164,-56.5 164,-86.5 283,-86.5 283,-56.5 164,-56.5"/>
<text text-anchor="start" x="172" y="-74.5" font-family="Helvetica,sans-Serif" font-size="10.00">drake/common/drake</text>
<text text-anchor="middle" x="223.5" y="-63.5" font-family="Helvetica,sans-Serif" font-size="10.00">_assert.h</text>
</a>
</g>
</g>
<!-- Node0&#45;&gt;Node3 -->
<g id="edge3" class="edge">
<title>Node0&#45;&gt;Node3</title>
<path fill="none" stroke="midnightblue" d="M1156.19,-327.22C960.24,-325.24 423.9,-311.49 276.5,-221 234.4,-195.15 225.32,-131.95 223.62,-96.9"/>
<polygon fill="midnightblue" stroke="midnightblue" points="227.11,-96.48 223.3,-86.6 220.12,-96.7 227.11,-96.48"/>
</g>
<!-- Node5 -->
<g id="node6" class="node">
<title>Node5</title>
<g id="a_node6"><a xlink:href="drake__copyable_8h.html" target="_top" xlink:title="Provides careful macros to selectively enable or disable the special member functions for copy&#45;constr...">
<polygon fill="white" stroke="black" points="1738,-56.5 1738,-86.5 1857,-86.5 1857,-56.5 1738,-56.5"/>
<text text-anchor="start" x="1746" y="-74.5" font-family="Helvetica,sans-Serif" font-size="10.00">drake/common/drake</text>
<text text-anchor="middle" x="1797.5" y="-63.5" font-family="Helvetica,sans-Serif" font-size="10.00">_copyable.h</text>
</a>
</g>
</g>
<!-- Node0&#45;&gt;Node5 -->
<g id="edge5" class="edge">
<title>Node0&#45;&gt;Node5</title>
<path fill="none" stroke="midnightblue" d="M1300.58,-323.04C1434.65,-313.27 1715.07,-285.52 1784.5,-221 1818.37,-189.52 1811.3,-129.65 1803.93,-96.35"/>
<polygon fill="midnightblue" stroke="midnightblue" points="1807.31,-95.45 1801.58,-86.54 1800.51,-97.08 1807.31,-95.45"/>
</g>
<!-- Node6 -->
<g id="node7" class="node">
<title>Node6</title>
<g id="a_node7"><a xlink:href="drake__deprecated_8h.html" target="_top" xlink:title="Provides a portable macro for use in generating compile&#45;time warnings for use of code that is permitt...">
<polygon fill="white" stroke="black" points="1052,-123.5 1052,-153.5 1171,-153.5 1171,-123.5 1052,-123.5"/>
<text text-anchor="start" x="1060" y="-141.5" font-family="Helvetica,sans-Serif" font-size="10.00">drake/common/drake</text>
<text text-anchor="middle" x="1111.5" y="-130.5" font-family="Helvetica,sans-Serif" font-size="10.00">_deprecated.h</text>
</a>
</g>
</g>
<!-- Node0&#45;&gt;Node6 -->
<g id="edge6" class="edge">
<title>Node0&#45;&gt;Node6</title>
<path fill="none" stroke="midnightblue" d="M1213.72,-313.34C1204.12,-303.67 1191.71,-290.24 1182.5,-277 1156.54,-239.68 1133.88,-191.62 1121.5,-163.32"/>
<polygon fill="midnightblue" stroke="midnightblue" points="1124.58,-161.65 1117.41,-153.85 1118.16,-164.42 1124.58,-161.65"/>
</g>
<!-- Node7 -->
<g id="node8" class="node">
<title>Node7</title>
<g id="a_node8"><a xlink:href="value_8h.html" target="_top" xlink:title=" ">
<polygon fill="white" stroke="black" points="1191.5,-257.5 1191.5,-276.5 1319.5,-276.5 1319.5,-257.5 1191.5,-257.5"/>
<text text-anchor="middle" x="1255.5" y="-264.5" font-family="Helvetica,sans-Serif" font-size="10.00">drake/common/value.h</text>
</a>
</g>
</g>
<!-- Node0&#45;&gt;Node7 -->
<g id="edge7" class="edge">
<title>Node0&#45;&gt;Node7</title>
<path fill="none" stroke="midnightblue" d="M1234.9,-313.4C1238.62,-305.2 1243.35,-294.78 1247.33,-285.99"/>
<polygon fill="midnightblue" stroke="midnightblue" points="1250.63,-287.21 1251.57,-276.66 1244.25,-284.32 1250.63,-287.21"/>
</g>
<!-- Node4 -->
<g id="node5" class="node">
<title>Node4</title>
<g id="a_node5"><a xlink:title=" ">
<polygon fill="white" stroke="#bfbfbf" points="977,-0.5 977,-19.5 1046,-19.5 1046,-0.5 977,-0.5"/>
<text text-anchor="middle" x="1011.5" y="-7.5" font-family="Helvetica,sans-Serif" font-size="10.00">type_traits</text>
</a>
</g>
</g>
<!-- Node3&#45;&gt;Node4 -->
<g id="edge4" class="edge">
<title>Node3&#45;&gt;Node4</title>
<path fill="none" stroke="midnightblue" d="M283.05,-66C434.56,-54.56 832.15,-24.54 966.45,-14.4"/>
<polygon fill="midnightblue" stroke="midnightblue" points="967.06,-17.87 976.77,-13.62 966.53,-10.89 967.06,-17.87"/>
</g>
<!-- Node7&#45;&gt;Node1 -->
<g id="edge8" class="edge">
<title>Node7&#45;&gt;Node1</title>
<path fill="none" stroke="midnightblue" d="M1285.24,-257.46C1309.8,-249.77 1345.12,-237.17 1373.5,-221 1392.74,-210.04 1392.22,-198.88 1412.5,-190 1508.08,-148.14 1543.53,-180.32 1644.5,-154 1647.32,-153.27 1650.22,-152.4 1653.1,-151.47"/>
<polygon fill="midnightblue" stroke="midnightblue" points="1654.41,-154.72 1662.7,-148.12 1652.1,-148.11 1654.41,-154.72"/>
</g>
<!-- Node7&#45;&gt;Node4 -->
<g id="edge11" class="edge">
<title>Node7&#45;&gt;Node4</title>
<path fill="none" stroke="midnightblue" d="M1319.68,-263.77C1451.95,-258.71 1745.78,-244.91 1784.5,-221 1854.17,-177.97 1922.86,-115.41 1866.5,-56 1838.39,-26.38 1228.41,-14.45 1056.33,-11.67"/>
<polygon fill="midnightblue" stroke="midnightblue" points="1056.16,-8.17 1046.11,-11.51 1056.05,-15.16 1056.16,-8.17"/>
</g>
<!-- Node7&#45;&gt;Node5 -->
<g id="edge25" class="edge">
<title>Node7&#45;&gt;Node5</title>
<path fill="none" stroke="midnightblue" d="M1319.68,-264.35C1447.98,-260.48 1726.66,-248.92 1759.5,-221 1795.57,-190.33 1799.86,-130.58 1799.12,-96.97"/>
<polygon fill="midnightblue" stroke="midnightblue" points="1802.6,-96.51 1798.71,-86.66 1795.61,-96.79 1802.6,-96.51"/>
</g>
<!-- Node8 -->
<g id="node9" class="node">
<title>Node8</title>
<g id="a_node9"><a xlink:title=" ">
<polygon fill="white" stroke="#bfbfbf" points="1422,-196 1422,-215 1487,-215 1487,-196 1422,-196"/>
<text text-anchor="middle" x="1454.5" y="-203" font-family="Helvetica,sans-Serif" font-size="10.00">stdexcept</text>
</a>
</g>
</g>
<!-- Node7&#45;&gt;Node8 -->
<g id="edge9" class="edge">
<title>Node7&#45;&gt;Node8</title>
<path fill="none" stroke="midnightblue" d="M1284.67,-257.47C1315.29,-248.49 1364.82,-233.9 1407.5,-221 1410.61,-220.06 1413.83,-219.08 1417.06,-218.09"/>
<polygon fill="midnightblue" stroke="midnightblue" points="1418.15,-221.42 1426.68,-215.14 1416.09,-214.73 1418.15,-221.42"/>
</g>
<!-- Node9 -->
<g id="node10" class="node">
<title>Node9</title>
<g id="a_node10"><a xlink:title=" ">
<polygon fill="white" stroke="#bfbfbf" points="825.5,-62 825.5,-81 869.5,-81 869.5,-62 825.5,-62"/>
<text text-anchor="middle" x="847.5" y="-69" font-family="Helvetica,sans-Serif" font-size="10.00">string</text>
</a>
</g>
</g>
<!-- Node7&#45;&gt;Node9 -->
<g id="edge10" class="edge">
<title>Node7&#45;&gt;Node9</title>
<path fill="none" stroke="midnightblue" d="M1191.35,-266.23C1061.21,-265.8 757.15,-260.24 505.5,-221 386.32,-202.42 316.52,-249.24 242.5,-154 234.05,-143.12 233.17,-133.14 242.5,-123 281.51,-80.6 695.31,-73.79 815.15,-72.7"/>
<polygon fill="midnightblue" stroke="midnightblue" points="815.53,-76.2 825.5,-72.62 815.47,-69.2 815.53,-76.2"/>
</g>
<!-- Node10 -->
<g id="node11" class="node">
<title>Node10</title>
<g id="a_node11"><a xlink:title=" ">
<polygon fill="white" stroke="#bfbfbf" points="829,-129 829,-148 886,-148 886,-129 829,-129"/>
<text text-anchor="middle" x="857.5" y="-136" font-family="Helvetica,sans-Serif" font-size="10.00">typeinfo</text>
</a>
</g>
</g>
<!-- Node7&#45;&gt;Node10 -->
<g id="edge12" class="edge">
<title>Node7&#45;&gt;Node10</title>
<path fill="none" stroke="midnightblue" d="M1191.36,-261.27C1113.37,-254.73 986.91,-241.39 944.5,-221 913.1,-205.9 885.38,-175.42 870.07,-156.31"/>
<polygon fill="midnightblue" stroke="midnightblue" points="872.67,-153.95 863.77,-148.2 867.14,-158.24 872.67,-153.95"/>
</g>
<!-- Node11 -->
<g id="node12" class="node">
<title>Node11</title>
<g id="a_node12"><a xlink:title=" ">
<polygon fill="white" stroke="#bfbfbf" points="1177,-62 1177,-81 1222,-81 1222,-62 1177,-62"/>
<text text-anchor="middle" x="1199.5" y="-69" font-family="Helvetica,sans-Serif" font-size="10.00">utility</text>
</a>
</g>
</g>
<!-- Node7&#45;&gt;Node11 -->
<g id="edge13" class="edge">
<title>Node7&#45;&gt;Node11</title>
<path fill="none" stroke="midnightblue" d="M1245.84,-257.4C1237.13,-249.03 1224.76,-235.48 1218.5,-221 1199.67,-177.4 1198.04,-120.37 1198.65,-91.31"/>
<polygon fill="midnightblue" stroke="midnightblue" points="1202.15,-91.42 1198.98,-81.31 1195.15,-91.19 1202.15,-91.42"/>
</g>
<!-- Node12 -->
<g id="node13" class="node">
<title>Node12</title>
<g id="a_node13"><a xlink:href="copyable__unique__ptr_8h.html" target="_top" xlink:title=" ">
<polygon fill="white" stroke="black" points="1228,-190.5 1228,-220.5 1365,-220.5 1365,-190.5 1228,-190.5"/>
<text text-anchor="start" x="1236" y="-208.5" font-family="Helvetica,sans-Serif" font-size="10.00">drake/common/copyable</text>
<text text-anchor="middle" x="1296.5" y="-197.5" font-family="Helvetica,sans-Serif" font-size="10.00">_unique_ptr.h</text>
</a>
</g>
</g>
<!-- Node7&#45;&gt;Node12 -->
<g id="edge14" class="edge">
<title>Node7&#45;&gt;Node12</title>
<path fill="none" stroke="midnightblue" d="M1261.37,-257.48C1266.51,-250.02 1274.21,-238.85 1281.09,-228.87"/>
<polygon fill="midnightblue" stroke="midnightblue" points="1284.05,-230.74 1286.84,-220.52 1278.28,-226.77 1284.05,-230.74"/>
</g>
<!-- Node18 -->
<g id="node19" class="node">
<title>Node18</title>
<g id="a_node19"><a xlink:href="hash_8h.html" target="_top" xlink:title=" ">
<polygon fill="white" stroke="black" points="515,-196 515,-215 640,-215 640,-196 515,-196"/>
<text text-anchor="middle" x="577.5" y="-203" font-family="Helvetica,sans-Serif" font-size="10.00">drake/common/hash.h</text>
</a>
</g>
</g>
<!-- Node7&#45;&gt;Node18 -->
<g id="edge26" class="edge">
<title>Node7&#45;&gt;Node18</title>
<path fill="none" stroke="midnightblue" d="M1191.41,-260.38C1064.81,-249.27 783.43,-224.57 650.17,-212.88"/>
<polygon fill="midnightblue" stroke="midnightblue" points="650.33,-209.38 640.06,-211.99 649.72,-216.35 650.33,-209.38"/>
</g>
<!-- Node26 -->
<g id="node27" class="node">
<title>Node26</title>
<g id="a_node27"><a xlink:href="is__cloneable_8h.html" target="_top" xlink:title=" ">
<polygon fill="white" stroke="black" points="1588.5,-196 1588.5,-215 1750.5,-215 1750.5,-196 1588.5,-196"/>
<text text-anchor="middle" x="1669.5" y="-203" font-family="Helvetica,sans-Serif" font-size="10.00">drake/common/is_cloneable.h</text>
</a>
</g>
</g>
<!-- Node7&#45;&gt;Node26 -->
<g id="edge42" class="edge">
<title>Node7&#45;&gt;Node26</title>
<path fill="none" stroke="midnightblue" d="M1314.82,-257.48C1390.29,-246.63 1520.42,-227.93 1600.32,-216.44"/>
<polygon fill="midnightblue" stroke="midnightblue" points="1600.89,-219.9 1610.29,-215.01 1599.9,-212.97 1600.89,-219.9"/>
</g>
<!-- Node27 -->
<g id="node28" class="node">
<title>Node27</title>
<g id="a_node28"><a xlink:href="nice__type__name_8h.html" target="_top" xlink:title=" ">
<polygon fill="white" stroke="black" points="953.5,-190.5 953.5,-220.5 1093.5,-220.5 1093.5,-190.5 953.5,-190.5"/>
<text text-anchor="start" x="961.5" y="-208.5" font-family="Helvetica,sans-Serif" font-size="10.00">drake/common/nice_type</text>
<text text-anchor="middle" x="1023.5" y="-197.5" font-family="Helvetica,sans-Serif" font-size="10.00">_name.h</text>
</a>
</g>
</g>
<!-- Node7&#45;&gt;Node27 -->
<g id="edge45" class="edge">
<title>Node7&#45;&gt;Node27</title>
<path fill="none" stroke="midnightblue" d="M1222.26,-257.48C1187.39,-248.53 1131.7,-234.25 1088.12,-223.07"/>
<polygon fill="midnightblue" stroke="midnightblue" points="1088.73,-219.62 1078.18,-220.52 1086.99,-226.4 1088.73,-219.62"/>
</g>
<!-- Node12&#45;&gt;Node1 -->
<g id="edge16" class="edge">
<title>Node12&#45;&gt;Node1</title>
<path fill="none" stroke="midnightblue" d="M1365.31,-192.27C1370.11,-191.48 1374.87,-190.72 1379.5,-190 1496.95,-171.77 1529.2,-182.89 1644.5,-154 1647.49,-153.25 1650.56,-152.35 1653.61,-151.37"/>
<polygon fill="midnightblue" stroke="midnightblue" points="1654.84,-154.65 1663.12,-148.04 1652.53,-148.04 1654.84,-154.65"/>
</g>
<!-- Node12&#45;&gt;Node3 -->
<g id="edge19" class="edge">
<title>Node12&#45;&gt;Node3</title>
<path fill="none" stroke="midnightblue" d="M1282.14,-190.4C1261.46,-171.12 1221.18,-137.3 1179.5,-123 1096.45,-94.5 499.16,-78.64 293.14,-73.97"/>
<polygon fill="midnightblue" stroke="midnightblue" points="293.13,-70.47 283.05,-73.75 292.97,-77.47 293.13,-70.47"/>
</g>
<!-- Node12&#45;&gt;Node6 -->
<g id="edge20" class="edge">
<title>Node12&#45;&gt;Node6</title>
<path fill="none" stroke="midnightblue" d="M1256.36,-190.4C1228.48,-180.6 1191.14,-167.48 1161.35,-157.02"/>
<polygon fill="midnightblue" stroke="midnightblue" points="1162.16,-153.59 1151.56,-153.58 1159.84,-160.19 1162.16,-153.59"/>
</g>
<!-- Node12&#45;&gt;Node11 -->
<g id="edge18" class="edge">
<title>Node12&#45;&gt;Node11</title>
<path fill="none" stroke="midnightblue" d="M1290.32,-190.48C1282.55,-173.61 1268.18,-144.84 1251.5,-123 1241.62,-110.06 1228.44,-97.3 1217.82,-87.84"/>
<polygon fill="midnightblue" stroke="midnightblue" points="1219.81,-84.94 1209.97,-81.02 1215.22,-90.22 1219.81,-84.94"/>
</g>
<!-- Node13 -->
<g id="node14" class="node">
<title>Node13</title>
<g id="a_node14"><a xlink:title=" ">
<polygon fill="white" stroke="#bfbfbf" points="904,-129 904,-148 957,-148 957,-129 904,-129"/>
<text text-anchor="middle" x="930.5" y="-136" font-family="Helvetica,sans-Serif" font-size="10.00">cstddef</text>
</a>
</g>
</g>
<!-- Node12&#45;&gt;Node13 -->
<g id="edge15" class="edge">
<title>Node12&#45;&gt;Node13</title>
<path fill="none" stroke="midnightblue" d="M1227.66,-192.27C1150.34,-178.54 1027.75,-156.77 967.04,-145.99"/>
<polygon fill="midnightblue" stroke="midnightblue" points="967.6,-142.53 957.15,-144.23 966.38,-149.43 967.6,-142.53"/>
</g>
<!-- Node14 -->
<g id="node15" class="node">
<title>Node14</title>
<g id="a_node15"><a xlink:title=" ">
<polygon fill="white" stroke="#bfbfbf" points="1442,-129 1442,-148 1499,-148 1499,-129 1442,-129"/>
<text text-anchor="middle" x="1470.5" y="-136" font-family="Helvetica,sans-Serif" font-size="10.00">ostream</text>
</a>
</g>
</g>
<!-- Node12&#45;&gt;Node14 -->
<g id="edge17" class="edge">
<title>Node12&#45;&gt;Node14</title>
<path fill="none" stroke="midnightblue" d="M1334.64,-190.44C1361.92,-180.36 1399.5,-166.42 1432.5,-154 1434.38,-153.29 1436.32,-152.56 1438.27,-151.82"/>
<polygon fill="midnightblue" stroke="midnightblue" points="1439.9,-154.94 1448.01,-148.12 1437.42,-148.4 1439.9,-154.94"/>
</g>
<!-- Node15 -->
<g id="node16" class="node">
<title>Node15</title>
<g id="a_node16"><a xlink:href="fmt_8h.html" target="_top" xlink:title=" ">
<polygon fill="white" stroke="black" points="1517,-129 1517,-148 1636,-148 1636,-129 1517,-129"/>
<text text-anchor="middle" x="1576.5" y="-136" font-family="Helvetica,sans-Serif" font-size="10.00">drake/common/fmt.h</text>
</a>
</g>
</g>
<!-- Node12&#45;&gt;Node15 -->
<g id="edge21" class="edge">
<title>Node12&#45;&gt;Node15</title>
<path fill="none" stroke="midnightblue" d="M1356.91,-190.48C1408.73,-178.45 1482.34,-161.36 1529.76,-150.35"/>
<polygon fill="midnightblue" stroke="midnightblue" points="1530.81,-153.7 1539.76,-148.03 1529.23,-146.88 1530.81,-153.7"/>
</g>
<!-- Node15&#45;&gt;Node9 -->
<g id="edge22" class="edge">
<title>Node15&#45;&gt;Node9</title>
<path fill="none" stroke="midnightblue" d="M1540.13,-128.93C1529.65,-126.71 1518.16,-124.52 1507.5,-123 1267.87,-88.8 975.77,-76.69 879.76,-73.47"/>
<polygon fill="midnightblue" stroke="midnightblue" points="879.66,-69.97 869.55,-73.14 879.43,-76.97 879.66,-69.97"/>
</g>
<!-- Node16 -->
<g id="node17" class="node">
<title>Node16</title>
<g id="a_node17"><a xlink:title=" ">
<polygon fill="white" stroke="#bfbfbf" points="1584,-62 1584,-81 1657,-81 1657,-62 1584,-62"/>
<text text-anchor="middle" x="1620.5" y="-69" font-family="Helvetica,sans-Serif" font-size="10.00">string_view</text>
</a>
</g>
</g>
<!-- Node15&#45;&gt;Node16 -->
<g id="edge23" class="edge">
<title>Node15&#45;&gt;Node16</title>
<path fill="none" stroke="midnightblue" d="M1582.43,-128.73C1589.23,-118.7 1600.52,-102.01 1609.05,-89.42"/>
<polygon fill="midnightblue" stroke="midnightblue" points="1611.95,-91.37 1614.66,-81.13 1606.16,-87.45 1611.95,-91.37"/>
</g>
<!-- Node17 -->
<g id="node18" class="node">
<title>Node17</title>
<g id="a_node18"><a xlink:title=" ">
<polygon fill="white" stroke="#bfbfbf" points="1487,-62 1487,-81 1566,-81 1566,-62 1487,-62"/>
<text text-anchor="middle" x="1526.5" y="-69" font-family="Helvetica,sans-Serif" font-size="10.00">fmt/format.h</text>
</a>
</g>
</g>
<!-- Node15&#45;&gt;Node17 -->
<g id="edge24" class="edge">
<title>Node15&#45;&gt;Node17</title>
<path fill="none" stroke="midnightblue" d="M1569.76,-128.73C1561.96,-118.6 1548.95,-101.69 1539.24,-89.06"/>
<polygon fill="midnightblue" stroke="midnightblue" points="1542.01,-86.92 1533.14,-81.13 1536.46,-91.19 1542.01,-86.92"/>
</g>
<!-- Node18&#45;&gt;Node2 -->
<g id="edge37" class="edge">
<title>Node18&#45;&gt;Node2</title>
<path fill="none" stroke="midnightblue" d="M609.44,-195.94C644.15,-186.44 701.13,-170.3 749.5,-154 751.76,-153.24 754.08,-152.43 756.41,-151.59"/>
<polygon fill="midnightblue" stroke="midnightblue" points="757.74,-154.83 765.9,-148.08 755.31,-148.27 757.74,-154.83"/>
</g>
<!-- Node18&#45;&gt;Node3 -->
<g id="edge38" class="edge">
<title>Node18&#45;&gt;Node3</title>
<path fill="none" stroke="midnightblue" d="M514.95,-203.22C429.13,-200.15 281.12,-189.67 242.5,-154 226.96,-139.65 222.95,-115.26 222.38,-96.89"/>
<polygon fill="midnightblue" stroke="midnightblue" points="225.88,-96.64 222.39,-86.63 218.88,-96.63 225.88,-96.64"/>
</g>
<!-- Node18&#45;&gt;Node4 -->
<g id="edge35" class="edge">
<title>Node18&#45;&gt;Node4</title>
<path fill="none" stroke="midnightblue" d="M588.87,-195.82C601.66,-185.96 622.93,-169.25 640.5,-154 655.7,-140.81 656.85,-134.3 673.5,-123 766.8,-59.7 898.72,-29.74 966.87,-17.75"/>
<polygon fill="midnightblue" stroke="midnightblue" points="967.58,-21.18 976.85,-16.05 966.4,-14.28 967.58,-21.18"/>
</g>
<!-- Node18&#45;&gt;Node9 -->
<g id="edge34" class="edge">
<title>Node18&#45;&gt;Node9</title>
<path fill="none" stroke="midnightblue" d="M595.1,-195.84C614.55,-186.12 646.67,-169.68 673.5,-154 695.43,-141.19 698.94,-134.67 721.5,-123 752.36,-107.04 789.47,-92.71 815.39,-83.43"/>
<polygon fill="midnightblue" stroke="midnightblue" points="816.81,-86.64 825.08,-80.01 814.48,-80.04 816.81,-86.64"/>
</g>
<!-- Node18&#45;&gt;Node11 -->
<g id="edge36" class="edge">
<title>Node18&#45;&gt;Node11</title>
<path fill="none" stroke="midnightblue" d="M606.69,-195.96C634.5,-187.27 677.11,-172.46 711.5,-154 732.26,-142.86 732.52,-131.49 754.5,-123 830.03,-93.81 1077.23,-78.69 1166.75,-74.07"/>
<polygon fill="midnightblue" stroke="midnightblue" points="1167.06,-77.56 1176.87,-73.55 1166.7,-70.56 1167.06,-77.56"/>
</g>
<!-- Node18&#45;&gt;Node13 -->
<g id="edge28" class="edge">
<title>Node18&#45;&gt;Node13</title>
<path fill="none" stroke="midnightblue" d="M640.04,-198.73C704.63,-191.81 807.9,-178.01 894.5,-154 896.94,-153.32 899.45,-152.53 901.94,-151.67"/>
<polygon fill="midnightblue" stroke="midnightblue" points="903.21,-154.93 911.35,-148.14 900.75,-148.38 903.21,-154.93"/>
</g>
<!-- Node19 -->
<g id="node20" class="node">
<title>Node19</title>
<g id="a_node20"><a xlink:title=" ">
<polygon fill="white" stroke="#bfbfbf" points="376,-129 376,-148 423,-148 423,-129 376,-129"/>
<text text-anchor="middle" x="399.5" y="-136" font-family="Helvetica,sans-Serif" font-size="10.00">cmath</text>
</a>
</g>
</g>
<!-- Node18&#45;&gt;Node19 -->
<g id="edge27" class="edge">
<title>Node18&#45;&gt;Node19</title>
<path fill="none" stroke="midnightblue" d="M551.08,-195.99C521.84,-186.42 473.43,-170.09 432.5,-154 430.9,-153.37 429.26,-152.71 427.61,-152.03"/>
<polygon fill="midnightblue" stroke="midnightblue" points="428.81,-148.74 418.24,-148.04 426.07,-155.18 428.81,-148.74"/>
</g>
<!-- Node20 -->
<g id="node21" class="node">
<title>Node20</title>
<g id="a_node21"><a xlink:title=" ">
<polygon fill="white" stroke="#bfbfbf" points="441.5,-129 441.5,-148 491.5,-148 491.5,-129 441.5,-129"/>
<text text-anchor="middle" x="466.5" y="-136" font-family="Helvetica,sans-Serif" font-size="10.00">cstdint</text>
</a>
</g>
</g>
<!-- Node18&#45;&gt;Node20 -->
<g id="edge29" class="edge">
<title>Node18&#45;&gt;Node20</title>
<path fill="none" stroke="midnightblue" d="M562.53,-195.73C543.89,-184.82 511.84,-166.05 489.93,-153.22"/>
<polygon fill="midnightblue" stroke="midnightblue" points="491.63,-150.16 481.23,-148.13 488.09,-156.2 491.63,-150.16"/>
</g>
<!-- Node21 -->
<g id="node22" class="node">
<title>Node21</title>
<g id="a_node22"><a xlink:title=" ">
<polygon fill="white" stroke="#bfbfbf" points="510,-129 510,-148 575,-148 575,-129 510,-129"/>
<text text-anchor="middle" x="542.5" y="-136" font-family="Helvetica,sans-Serif" font-size="10.00">functional</text>
</a>
</g>
</g>
<!-- Node18&#45;&gt;Node21 -->
<g id="edge30" class="edge">
<title>Node18&#45;&gt;Node21</title>
<path fill="none" stroke="midnightblue" d="M572.78,-195.73C567.48,-185.89 558.74,-169.66 552.01,-157.16"/>
<polygon fill="midnightblue" stroke="midnightblue" points="554.97,-155.27 547.15,-148.13 548.8,-158.59 554.97,-155.27"/>
</g>
<!-- Node22 -->
<g id="node23" class="node">
<title>Node22</title>
<g id="a_node23"><a xlink:title=" ">
<polygon fill="white" stroke="#bfbfbf" points="593.5,-129 593.5,-148 631.5,-148 631.5,-129 593.5,-129"/>
<text text-anchor="middle" x="612.5" y="-136" font-family="Helvetica,sans-Serif" font-size="10.00">map</text>
</a>
</g>
</g>
<!-- Node18&#45;&gt;Node22 -->
<g id="edge31" class="edge">
<title>Node18&#45;&gt;Node22</title>
<path fill="none" stroke="midnightblue" d="M582.22,-195.73C587.52,-185.89 596.26,-169.66 602.99,-157.16"/>
<polygon fill="midnightblue" stroke="midnightblue" points="606.2,-158.59 607.85,-148.13 600.03,-155.27 606.2,-158.59"/>
</g>
<!-- Node23 -->
<g id="node24" class="node">
<title>Node23</title>
<g id="a_node24"><a xlink:title=" ">
<polygon fill="white" stroke="#bfbfbf" points="251.5,-129 251.5,-148 307.5,-148 307.5,-129 251.5,-129"/>
<text text-anchor="middle" x="279.5" y="-136" font-family="Helvetica,sans-Serif" font-size="10.00">optional</text>
</a>
</g>
</g>
<!-- Node18&#45;&gt;Node23 -->
<g id="edge32" class="edge">
<title>Node18&#45;&gt;Node23</title>
<path fill="none" stroke="midnightblue" d="M516.89,-195.99C463.52,-187.73 383.99,-173.57 316.5,-154 313.92,-153.25 311.26,-152.39 308.62,-151.48"/>
<polygon fill="midnightblue" stroke="midnightblue" points="309.83,-148.2 299.24,-148 307.4,-154.76 309.83,-148.2"/>
</g>
<!-- Node24 -->
<g id="node25" class="node">
<title>Node24</title>
<g id="a_node25"><a xlink:title=" ">
<polygon fill="white" stroke="#bfbfbf" points="325.5,-129 325.5,-148 357.5,-148 357.5,-129 325.5,-129"/>
<text text-anchor="middle" x="341.5" y="-136" font-family="Helvetica,sans-Serif" font-size="10.00">set</text>
</a>
</g>
</g>
<!-- Node18&#45;&gt;Node24 -->
<g id="edge33" class="edge">
<title>Node18&#45;&gt;Node24</title>
<path fill="none" stroke="midnightblue" d="M522.84,-195.93C479.43,-188.06 417.74,-174.48 366.5,-154 365.62,-153.65 364.74,-153.27 363.86,-152.87"/>
<polygon fill="midnightblue" stroke="midnightblue" points="365.12,-149.58 354.63,-148.07 361.88,-155.79 365.12,-149.58"/>
</g>
<!-- Node25 -->
<g id="node26" class="node">
<title>Node25</title>
<g id="a_node26"><a xlink:href="drake__throw_8h.html" target="_top" xlink:title="Provides a convenient wrapper to throw an exception when a condition is unmet.">
<polygon fill="white" stroke="black" points="0,-123.5 0,-153.5 119,-153.5 119,-123.5 0,-123.5"/>
<text text-anchor="start" x="8" y="-141.5" font-family="Helvetica,sans-Serif" font-size="10.00">drake/common/drake</text>
<text text-anchor="middle" x="59.5" y="-130.5" font-family="Helvetica,sans-Serif" font-size="10.00">_throw.h</text>
</a>
</g>
</g>
<!-- Node18&#45;&gt;Node25 -->
<g id="edge39" class="edge">
<title>Node18&#45;&gt;Node25</title>
<path fill="none" stroke="midnightblue" d="M514.76,-196.63C417.5,-184.42 230.98,-161.02 129.48,-148.28"/>
<polygon fill="midnightblue" stroke="midnightblue" points="129.69,-144.78 119.33,-147.01 128.82,-151.73 129.69,-144.78"/>
</g>
<!-- Node25&#45;&gt;Node3 -->
<g id="edge41" class="edge">
<title>Node25&#45;&gt;Node3</title>
<path fill="none" stroke="midnightblue" d="M95.09,-123.4C119.59,-113.69 152.33,-100.71 178.62,-90.29"/>
<polygon fill="midnightblue" stroke="midnightblue" points="179.98,-93.51 187.98,-86.58 177.4,-87.01 179.98,-93.51"/>
</g>
<!-- Node25&#45;&gt;Node4 -->
<g id="edge40" class="edge">
<title>Node25&#45;&gt;Node4</title>
<path fill="none" stroke="midnightblue" d="M70.58,-123.42C86.69,-104.16 118.59,-70.37 154.5,-56 230.04,-25.76 800.71,-14.36 966.48,-11.67"/>
<polygon fill="midnightblue" stroke="midnightblue" points="966.86,-15.16 976.8,-11.5 966.75,-8.16 966.86,-15.16"/>
</g>
<!-- Node26&#45;&gt;Node1 -->
<g id="edge43" class="edge">
<title>Node26&#45;&gt;Node1</title>
<path fill="none" stroke="midnightblue" d="M1671.39,-195.73C1673.47,-186.09 1676.87,-170.3 1679.54,-157.91"/>
<polygon fill="midnightblue" stroke="midnightblue" points="1682.96,-158.64 1681.64,-148.13 1676.11,-157.17 1682.96,-158.64"/>
</g>
<!-- Node26&#45;&gt;Node4 -->
<g id="edge44" class="edge">
<title>Node26&#45;&gt;Node4</title>
<path fill="none" stroke="midnightblue" d="M1683.61,-195.68C1696.22,-186.88 1713.85,-172.08 1721.5,-154 1741.04,-107.8 1710.19,-78.79 1665.5,-56 1611.59,-28.5 1195.76,-15.63 1056.66,-12.07"/>
<polygon fill="midnightblue" stroke="midnightblue" points="1056.45,-8.56 1046.36,-11.81 1056.27,-15.56 1056.45,-8.56"/>
</g>
<!-- Node27&#45;&gt;Node1 -->
<g id="edge46" class="edge">
<title>Node27&#45;&gt;Node1</title>
<path fill="none" stroke="midnightblue" d="M1093.5,-199.32C1250.27,-187.66 1617.97,-159.89 1644.5,-154 1647.57,-153.32 1650.73,-152.45 1653.86,-151.47"/>
<polygon fill="midnightblue" stroke="midnightblue" points="1655.27,-154.69 1663.58,-148.11 1652.98,-148.07 1655.27,-154.69"/>
</g>
<!-- Node27&#45;&gt;Node2 -->
<g id="edge50" class="edge">
<title>Node27&#45;&gt;Node2</title>
<path fill="none" stroke="midnightblue" d="M953.18,-190.42C913.43,-181.64 863.1,-169.13 819.5,-154 817.84,-153.42 816.14,-152.79 814.44,-152.12"/>
<polygon fill="midnightblue" stroke="midnightblue" points="815.44,-148.75 804.87,-148.07 812.71,-155.19 815.44,-148.75"/>
</g>
<!-- Node27&#45;&gt;Node9 -->
<g id="edge47" class="edge">
<title>Node27&#45;&gt;Node9</title>
<path fill="none" stroke="midnightblue" d="M1016.54,-190.3C1007.16,-172.44 988.89,-141.85 965.5,-123 940.03,-102.48 904.98,-88.89 879.7,-81.03"/>
<polygon fill="midnightblue" stroke="midnightblue" points="880.45,-77.6 869.86,-78.1 878.45,-84.31 880.45,-77.6"/>
</g>
<!-- Node27&#45;&gt;Node10 -->
<g id="edge48" class="edge">
<title>Node27&#45;&gt;Node10</title>
<path fill="none" stroke="midnightblue" d="M987.48,-190.4C957.97,-178.84 916.64,-162.66 888.56,-151.66"/>
<polygon fill="midnightblue" stroke="midnightblue" points="889.81,-148.39 879.23,-148.01 887.26,-154.91 889.81,-148.39"/>
</g>
<!-- Node27&#45;&gt;Node11 -->
<g id="edge49" class="edge">
<title>Node27&#45;&gt;Node11</title>
<path fill="none" stroke="midnightblue" d="M1022.83,-190.49C1022.75,-172.56 1025.37,-141.59 1042.5,-123 1074.58,-88.17 1130.74,-77.26 1166.48,-73.91"/>
<polygon fill="midnightblue" stroke="midnightblue" points="1167.17,-77.37 1176.86,-73.09 1166.62,-70.39 1167.17,-77.37"/>
</g>
<!-- Node28 -->
<g id="node29" class="node">
<title>Node28</title>
<g id="a_node29"><a xlink:href="never__destroyed_8h.html" target="_top" xlink:title=" ">
<polygon fill="white" stroke="black" points="1303.5,-123.5 1303.5,-153.5 1423.5,-153.5 1423.5,-123.5 1303.5,-123.5"/>
<text text-anchor="start" x="1311.5" y="-141.5" font-family="Helvetica,sans-Serif" font-size="10.00">drake/common/never</text>
<text text-anchor="middle" x="1363.5" y="-130.5" font-family="Helvetica,sans-Serif" font-size="10.00">_destroyed.h</text>
</a>
</g>
</g>
<!-- Node27&#45;&gt;Node28 -->
<g id="edge51" class="edge">
<title>Node27&#45;&gt;Node28</title>
<path fill="none" stroke="midnightblue" d="M1093.54,-191.11C1152.06,-179.92 1235.11,-164.04 1293.6,-152.86"/>
<polygon fill="midnightblue" stroke="midnightblue" points="1294.33,-156.29 1303.5,-150.97 1293.02,-149.41 1294.33,-156.29"/>
</g>
<!-- Node28&#45;&gt;Node4 -->
<g id="edge53" class="edge">
<title>Node28&#45;&gt;Node4</title>
<path fill="none" stroke="midnightblue" d="M1364.45,-123.31C1364.84,-104.87 1362.46,-73.05 1343.5,-56 1302.11,-18.78 1137.02,-12.06 1056.34,-11.04"/>
<polygon fill="midnightblue" stroke="midnightblue" points="1056.04,-7.54 1046,-10.93 1055.96,-14.54 1056.04,-7.54"/>
</g>
<!-- Node28&#45;&gt;Node5 -->
<g id="edge55" class="edge">
<title>Node28&#45;&gt;Node5</title>
<path fill="none" stroke="midnightblue" d="M1423.66,-124.6C1426.65,-124.04 1429.61,-123.5 1432.5,-123 1534.83,-105.19 1654.18,-89.66 1727.8,-80.68"/>
<polygon fill="midnightblue" stroke="midnightblue" points="1728.37,-84.13 1737.87,-79.46 1727.53,-77.19 1728.37,-84.13"/>
</g>
<!-- Node28&#45;&gt;Node11 -->
<g id="edge54" class="edge">
<title>Node28&#45;&gt;Node11</title>
<path fill="none" stroke="midnightblue" d="M1327.91,-123.4C1298.88,-111.89 1258.28,-95.8 1230.55,-84.81"/>
<polygon fill="midnightblue" stroke="midnightblue" points="1231.55,-81.44 1220.96,-81.01 1228.97,-87.95 1231.55,-81.44"/>
</g>
<!-- Node29 -->
<g id="node30" class="node">
<title>Node29</title>
<g id="a_node30"><a xlink:title=" ">
<polygon fill="white" stroke="#bfbfbf" points="1298,-62 1298,-81 1335,-81 1335,-62 1298,-62"/>
<text text-anchor="middle" x="1316.5" y="-69" font-family="Helvetica,sans-Serif" font-size="10.00">new</text>
</a>
</g>
</g>
<!-- Node28&#45;&gt;Node29 -->
<g id="edge52" class="edge">
<title>Node28&#45;&gt;Node29</title>
<path fill="none" stroke="midnightblue" d="M1353.3,-123.4C1346.12,-113.46 1336.46,-100.11 1328.84,-89.57"/>
<polygon fill="midnightblue" stroke="midnightblue" points="1331.48,-87.25 1322.79,-81.19 1325.81,-91.35 1331.48,-87.25"/>
</g>
</g>
</svg>
        <g id="navigator" transform="translate(0 0)" fill="#404254">
                <rect fill="#f2f5e9" fill-opacity="0.5" stroke="#606060" stroke-width=".5" x="0" y="0" width="60" height="60"/>
                <use id="zoomplus" xlink:href="#zoomPlus" x="17" y="9" onmousedown="handleZoom(evt,'in')"/>
                <use id="zoomminus" xlink:href="#zoomMin" x="42" y="9" onmousedown="handleZoom(evt,'out')"/>
                <use id="reset" xlink:href="#resetDef" x="30" y="36" onmousedown="handleReset()"/>
                <g id="arrowUp" xlink:href="#dirArrow" transform="translate(30 24)" onmousedown="handlePan(0,-1)">
                  <use xlink:href="#rim" fill="#404040">
                        <set attributeName="fill" to="#808080" begin="arrowUp.mouseover" end="arrowUp.mouseout"/>
                  </use>
                  <path fill="none" stroke="white" stroke-width="1.5" d="M0,-3.0v7 M-2.5,-0.5L0,-3.0L2.5,-0.5"/>
                </g>
                <g id="arrowRight" xlink:href="#dirArrow" transform="rotate(90) translate(36 -43)" onmousedown="handlePan(1,0)">
                  <use xlink:href="#rim" fill="#404040">
                        <set attributeName="fill" to="#808080" begin="arrowRight.mouseover" end="arrowRight.mouseout"/>
                  </use>
                  <path fill="none" stroke="white" stroke-width="1.5" d="M0,-3.0v7 M-2.5,-0.5L0,-3.0L2.5,-0.5"/>
                </g>
                <g id="arrowDown" xlink:href="#dirArrow" transform="rotate(180) translate(-30 -48)" onmousedown="handlePan(0,1)">
                  <use xlink:href="#rim" fill="#404040">
                        <set attributeName="fill" to="#808080" begin="arrowDown.mouseover" end="arrowDown.mouseout"/>
                  </use>
                  <path fill="none" stroke="white" stroke-width="1.5" d="M0,-3.0v7 M-2.5,-0.5L0,-3.0L2.5,-0.5"/>
                </g>
                <g id="arrowLeft" xlink:href="#dirArrow" transform="rotate(270) translate(-36 17)" onmousedown="handlePan(-1,0)">
                  <use xlink:href="#rim" fill="#404040">
                        <set attributeName="fill" to="#808080" begin="arrowLeft.mouseover" end="arrowLeft.mouseout"/>
                  </use>
                  <path fill="none" stroke="white" stroke-width="1.5" d="M0,-3.0v7 M-2.5,-0.5L0,-3.0L2.5,-0.5"/>
                </g>
        </g>
        <svg viewBox="0 0 15 15" width="100%" height="30px" preserveAspectRatio="xMaxYMin meet">
         <g id="arrow_out" transform="scale(0.3 0.3)">
          <a xlink:href="abstract__values_8h__incl_org.svg" target="_base">
           <rect id="button" ry="5" rx="5" y="6" x="6" height="38" width="38"
                fill="#f2f5e9" fill-opacity="0.5" stroke="#606060" stroke-width="1.0"/>
           <path id="arrow"
             d="M 11.500037,31.436501 C 11.940474,20.09759 22.043105,11.32322 32.158766,21.979434 L 37.068811,17.246167 C 37.068811,17.246167 37.088388,32 37.088388,32 L 22.160133,31.978069 C 22.160133,31.978069 26.997745,27.140456 26.997745,27.140456 C 18.528582,18.264221 13.291696,25.230495 11.500037,31.436501 z"
             style="fill:#404040;"/>
          </a>
         </g>
        </svg>
</svg>
