<?xml version="1.0" encoding="UTF-8" standalone="no"?>
<!DOCTYPE svg PUBLIC "-//W3C//DTD SVG 1.1//EN"
 "http://www.w3.org/Graphics/SVG/1.1/DTD/svg11.dtd">
<!-- Generated by graphviz version 2.43.0 (0)
 -->
<!-- Title: drake/systems/primitives/affine_system.h Pages: 1 -->
<!--zoomable 262 -->
<svg id="main" version="1.1" xmlns="http://www.w3.org/2000/svg" xmlns:xlink="http://www.w3.org/1999/xlink" xml:space="preserve" onload="init(evt)">
<style type="text/css"><![CDATA[
.edge:hover path { stroke: red; }
.edge:hover polygon { stroke: red; fill: red; }
]]></style>
<script type="text/javascript"><![CDATA[
var edges = document.getElementsByTagName('g');
if (edges && edges.length) {
  for (var i=0;i<edges.length;i++) {
    if (edges[i].id.substr(0,4)=='edge') {
      edges[i].setAttribute('class','edge');
    }
  }
}
]]></script>
        <defs>
                <circle id="rim" cx="0" cy="0" r="7"/>
                <circle id="rim2" cx="0" cy="0" r="3.5"/>
                <g id="zoomPlus">
                        <use xlink:href="#rim" fill="#404040">
                                <set attributeName="fill" to="#808080" begin="zoomplus.mouseover" end="zoomplus.mouseout"/>
                        </use>
                        <path d="M-4,0h8M0,-4v8" fill="none" stroke="white" stroke-width="1.5" pointer-events="none"/>
                </g>
                <g id="zoomMin">
                        <use xlink:href="#rim" fill="#404040">
                                <set attributeName="fill" to="#808080" begin="zoomminus.mouseover" end="zoomminus.mouseout"/>
                        </use>
                        <path d="M-4,0h8" fill="none" stroke="white" stroke-width="1.5" pointer-events="none"/>
                </g>
                <g id="dirArrow">
                        <path fill="none" stroke="white" stroke-width="1.5" d="M0,-3.0v7 M-2.5,-0.5L0,-3.0L2.5,-0.5"/>
                </g>
               <g id="resetDef">
                       <use xlink:href="#rim2" fill="#404040">
                               <set attributeName="fill" to="#808080" begin="reset.mouseover" end="reset.mouseout"/>
                       </use>
               </g>
        </defs>

<script type="text/javascript">
var viewWidth = 1116;
var viewHeight = 262;
var sectionId = 'dynsection-1';
</script>
<script xlink:href="svgpan.js"/>
<svg id="graph" class="graph">
<g id="viewport">
<title>drake/systems/primitives/affine_system.h</title>
<polygon fill="white" stroke="transparent" points="-4,4 -4,-258 1112,-258 1112,4 -4,4"/>
<!-- Node112 -->
<g id="node1" class="node">
<title>Node112</title>
<g id="a_node1"><a xlink:title=" ">
<polygon fill="#bfbfbf" stroke="black" points="429,-223.5 429,-253.5 569,-253.5 569,-223.5 429,-223.5"/>
<text text-anchor="start" x="437" y="-241.5" font-family="Helvetica,sans-Serif" font-size="10.00">drake/systems/primitives</text>
<text text-anchor="middle" x="499" y="-230.5" font-family="Helvetica,sans-Serif" font-size="10.00">/affine_system.h</text>
</a>
</g>
</g>
<!-- Node113 -->
<g id="node2" class="node">
<title>Node113</title>
<g id="a_node2"><a xlink:href="acrobot__plant_8h.html" target="_top" xlink:title=" ">
<polygon fill="white" stroke="black" points="120,-156.5 120,-186.5 254,-186.5 254,-156.5 120,-156.5"/>
<text text-anchor="start" x="128" y="-174.5" font-family="Helvetica,sans-Serif" font-size="10.00">drake/examples/acrobot</text>
<text text-anchor="middle" x="187" y="-163.5" font-family="Helvetica,sans-Serif" font-size="10.00">/acrobot_plant.h</text>
</a>
</g>
</g>
<!-- Node112&#45;&gt;Node113 -->
<g id="edge1" class="edge">
<title>Node112&#45;&gt;Node113</title>
<path fill="none" stroke="midnightblue" d="M421.62,-221.38C370.21,-210.67 303.37,-196.74 254.19,-186.5"/>
<polygon fill="midnightblue" stroke="midnightblue" points="421.18,-224.86 431.68,-223.48 422.61,-218.01 421.18,-224.86"/>
</g>
<!-- Node115 -->
<g id="node4" class="node">
<title>Node115</title>
<g id="a_node4"><a xlink:href="linear__system_8h.html" target="_top" xlink:title=" ">
<polygon fill="white" stroke="black" points="349,-156.5 349,-186.5 489,-186.5 489,-156.5 349,-156.5"/>
<text text-anchor="start" x="357" y="-174.5" font-family="Helvetica,sans-Serif" font-size="10.00">drake/systems/primitives</text>
<text text-anchor="middle" x="419" y="-163.5" font-family="Helvetica,sans-Serif" font-size="10.00">/linear_system.h</text>
</a>
</g>
</g>
<!-- Node112&#45;&gt;Node115 -->
<g id="edge3" class="edge">
<title>Node112&#45;&gt;Node115</title>
<path fill="none" stroke="midnightblue" d="M473.63,-216.88C461.47,-207.01 447.22,-195.43 436.32,-186.58"/>
<polygon fill="midnightblue" stroke="midnightblue" points="471.67,-219.81 481.64,-223.4 476.09,-214.37 471.67,-219.81"/>
</g>
<!-- Node123 -->
<g id="node12" class="node">
<title>Node123</title>
<g id="a_node12"><a xlink:href="quadrotor__plant_8h.html" target="_top" xlink:title=" ">
<polygon fill="white" stroke="black" points="507.5,-156.5 507.5,-186.5 652.5,-186.5 652.5,-156.5 507.5,-156.5"/>
<text text-anchor="start" x="515.5" y="-174.5" font-family="Helvetica,sans-Serif" font-size="10.00">drake/examples/quadrotor</text>
<text text-anchor="middle" x="580" y="-163.5" font-family="Helvetica,sans-Serif" font-size="10.00">/quadrotor_plant.h</text>
</a>
</g>
</g>
<!-- Node112&#45;&gt;Node123 -->
<g id="edge13" class="edge">
<title>Node112&#45;&gt;Node123</title>
<path fill="none" stroke="midnightblue" d="M524.69,-216.88C537,-207.01 551.43,-195.43 562.46,-186.58"/>
<polygon fill="midnightblue" stroke="midnightblue" points="522.18,-214.41 516.58,-223.4 526.57,-219.87 522.18,-214.41"/>
</g>
<!-- Node124 -->
<g id="node13" class="node">
<title>Node124</title>
<g id="a_node13"><a xlink:href="trajectory__affine__system_8h.html" target="_top" xlink:title=" ">
<polygon fill="white" stroke="black" points="671,-156.5 671,-186.5 821,-186.5 821,-156.5 671,-156.5"/>
<text text-anchor="start" x="679" y="-174.5" font-family="Helvetica,sans-Serif" font-size="10.00">drake/systems/primitives</text>
<text text-anchor="middle" x="746" y="-163.5" font-family="Helvetica,sans-Serif" font-size="10.00">/trajectory_affine_system.h</text>
</a>
</g>
</g>
<!-- Node112&#45;&gt;Node124 -->
<g id="edge14" class="edge">
<title>Node112&#45;&gt;Node124</title>
<path fill="none" stroke="midnightblue" d="M562.01,-220.92C602.32,-210.31 654.04,-196.7 692.38,-186.61"/>
<polygon fill="midnightblue" stroke="midnightblue" points="561.07,-217.55 552.29,-223.48 562.85,-224.32 561.07,-217.55"/>
</g>
<!-- Node114 -->
<g id="node3" class="node">
<title>Node114</title>
<g id="a_node3"><a xlink:href="spong__controller_8h.html" target="_top" xlink:title=" ">
<polygon fill="white" stroke="black" points="0,-6 0,-36 134,-36 134,-6 0,-6"/>
<text text-anchor="start" x="8" y="-24" font-family="Helvetica,sans-Serif" font-size="10.00">drake/examples/acrobot</text>
<text text-anchor="middle" x="67" y="-13" font-family="Helvetica,sans-Serif" font-size="10.00">/spong_controller.h</text>
</a>
</g>
</g>
<!-- Node113&#45;&gt;Node114 -->
<g id="edge2" class="edge">
<title>Node113&#45;&gt;Node114</title>
<path fill="none" stroke="midnightblue" d="M109.96,-158.53C87.93,-151.15 66.31,-139.23 53,-120 35.4,-94.56 49.47,-56.44 59.38,-36.06"/>
<polygon fill="midnightblue" stroke="midnightblue" points="109.16,-161.95 119.74,-161.52 111.2,-155.25 109.16,-161.95"/>
</g>
<!-- Node115&#45;&gt;Node114 -->
<g id="edge6" class="edge">
<title>Node115&#45;&gt;Node114</title>
<path fill="none" stroke="midnightblue" d="M338.57,-163.16C245.9,-153.95 103.99,-137.27 86,-120 63.12,-98.04 63.24,-57.4 65.17,-36"/>
<polygon fill="midnightblue" stroke="midnightblue" points="338.48,-166.66 348.77,-164.16 339.16,-159.7 338.48,-166.66"/>
</g>
<!-- Node116 -->
<g id="node5" class="node">
<title>Node116</title>
<g id="a_node5"><a xlink:href="linear__quadratic__regulator_8h.html" target="_top" xlink:title=" ">
<polygon fill="white" stroke="black" points="95,-84 95,-114 251,-114 251,-84 95,-84"/>
<text text-anchor="start" x="103" y="-102" font-family="Helvetica,sans-Serif" font-size="10.00">drake/systems/controllers</text>
<text text-anchor="middle" x="173" y="-91" font-family="Helvetica,sans-Serif" font-size="10.00">/linear_quadratic_regulator.h</text>
</a>
</g>
</g>
<!-- Node115&#45;&gt;Node116 -->
<g id="edge4" class="edge">
<title>Node115&#45;&gt;Node116</title>
<path fill="none" stroke="midnightblue" d="M360.26,-153.66C318.13,-141.59 262.01,-125.51 222.22,-114.11"/>
<polygon fill="midnightblue" stroke="midnightblue" points="359.53,-157.1 370.1,-156.49 361.46,-150.37 359.53,-157.1"/>
</g>
<!-- Node117 -->
<g id="node6" class="node">
<title>Node117</title>
<g id="a_node6"><a xlink:href="matrix__gain_8h.html" target="_top" xlink:title=" ">
<polygon fill="white" stroke="black" points="269,-84 269,-114 409,-114 409,-84 269,-84"/>
<text text-anchor="start" x="277" y="-102" font-family="Helvetica,sans-Serif" font-size="10.00">drake/systems/primitives</text>
<text text-anchor="middle" x="339" y="-91" font-family="Helvetica,sans-Serif" font-size="10.00">/matrix_gain.h</text>
</a>
</g>
</g>
<!-- Node115&#45;&gt;Node117 -->
<g id="edge7" class="edge">
<title>Node115&#45;&gt;Node117</title>
<path fill="none" stroke="midnightblue" d="M395.13,-149.46C382.13,-138 366.39,-124.14 354.89,-114"/>
<polygon fill="midnightblue" stroke="midnightblue" points="392.99,-152.25 402.81,-156.23 397.62,-147 392.99,-152.25"/>
</g>
<!-- Node119 -->
<g id="node8" class="node">
<title>Node119</title>
<g id="a_node8"><a xlink:href="linear__model__predictive__controller_8h.html" target="_top" xlink:title=" ">
<polygon fill="white" stroke="black" points="427.5,-78.5 427.5,-119.5 570.5,-119.5 570.5,-78.5 427.5,-78.5"/>
<text text-anchor="start" x="435.5" y="-107.5" font-family="Helvetica,sans-Serif" font-size="10.00">drake/systems/controllers</text>
<text text-anchor="start" x="435.5" y="-96.5" font-family="Helvetica,sans-Serif" font-size="10.00">/linear_model_predictive</text>
<text text-anchor="middle" x="499" y="-85.5" font-family="Helvetica,sans-Serif" font-size="10.00">_controller.h</text>
</a>
</g>
</g>
<!-- Node115&#45;&gt;Node119 -->
<g id="edge9" class="edge">
<title>Node115&#45;&gt;Node119</title>
<path fill="none" stroke="midnightblue" d="M442.97,-149.38C453.69,-139.93 466.26,-128.85 476.77,-119.59"/>
<polygon fill="midnightblue" stroke="midnightblue" points="440.38,-147 435.19,-156.23 445.01,-152.25 440.38,-147"/>
</g>
<!-- Node120 -->
<g id="node9" class="node">
<title>Node120</title>
<g id="a_node9"><a xlink:href="kalman__filter_8h.html" target="_top" xlink:title=" ">
<polygon fill="white" stroke="black" points="588.5,-84 588.5,-114 731.5,-114 731.5,-84 588.5,-84"/>
<text text-anchor="start" x="596.5" y="-102" font-family="Helvetica,sans-Serif" font-size="10.00">drake/systems/estimators</text>
<text text-anchor="middle" x="660" y="-91" font-family="Helvetica,sans-Serif" font-size="10.00">/kalman_filter.h</text>
</a>
</g>
</g>
<!-- Node115&#45;&gt;Node120 -->
<g id="edge10" class="edge">
<title>Node115&#45;&gt;Node120</title>
<path fill="none" stroke="midnightblue" d="M476.55,-153.66C517.82,-141.59 572.8,-125.51 611.78,-114.11"/>
<polygon fill="midnightblue" stroke="midnightblue" points="475.52,-150.32 466.9,-156.49 477.48,-157.04 475.52,-150.32"/>
</g>
<!-- Node121 -->
<g id="node10" class="node">
<title>Node121</title>
<g id="a_node10"><a xlink:href="trajectory__linear__system_8h.html" target="_top" xlink:title=" ">
<polygon fill="white" stroke="black" points="750,-84 750,-114 900,-114 900,-84 750,-84"/>
<text text-anchor="start" x="758" y="-102" font-family="Helvetica,sans-Serif" font-size="10.00">drake/systems/primitives</text>
<text text-anchor="middle" x="825" y="-91" font-family="Helvetica,sans-Serif" font-size="10.00">/trajectory_linear_system.h</text>
</a>
</g>
</g>
<!-- Node115&#45;&gt;Node121 -->
<g id="edge11" class="edge">
<title>Node115&#45;&gt;Node121</title>
<path fill="none" stroke="midnightblue" d="M499.28,-156C607.99,-138.42 637.36,-140.01 741,-120 750.13,-118.24 759.76,-116.16 769.12,-114.01"/>
<polygon fill="midnightblue" stroke="midnightblue" points="498.52,-152.58 489.22,-157.64 499.65,-159.48 498.52,-152.58"/>
</g>
<!-- Node122 -->
<g id="node11" class="node">
<title>Node122</title>
<g id="a_node11"><a xlink:href="direct__transcription_8h.html" target="_top" xlink:title=" ">
<polygon fill="white" stroke="black" points="918,-84 918,-114 1108,-114 1108,-84 918,-84"/>
<text text-anchor="start" x="926" y="-102" font-family="Helvetica,sans-Serif" font-size="10.00">drake/systems/trajectory</text>
<text text-anchor="middle" x="1013" y="-91" font-family="Helvetica,sans-Serif" font-size="10.00">_optimization/direct_transcription.h</text>
</a>
</g>
</g>
<!-- Node115&#45;&gt;Node122 -->
<g id="edge12" class="edge">
<title>Node115&#45;&gt;Node122</title>
<path fill="none" stroke="midnightblue" d="M499.13,-156.08C682.01,-132.13 731.02,-144.86 909,-120 920.84,-118.35 933.37,-116.24 945.48,-114.03"/>
<polygon fill="midnightblue" stroke="midnightblue" points="498.63,-152.62 489.18,-157.4 499.56,-159.56 498.63,-152.62"/>
</g>
<!-- Node116&#45;&gt;Node114 -->
<g id="edge5" class="edge">
<title>Node116&#45;&gt;Node114</title>
<path fill="none" stroke="midnightblue" d="M144.56,-77.61C126.33,-64.54 103.11,-47.89 86.85,-36.23"/>
<polygon fill="midnightblue" stroke="midnightblue" points="142.9,-80.72 153.06,-83.7 146.97,-75.03 142.9,-80.72"/>
</g>
<!-- Node118 -->
<g id="node7" class="node">
<title>Node118</title>
<g id="a_node7"><a xlink:href="schunk__wsg__constants_8h.html" target="_top" xlink:title="Constants defined in this file are for the Schunk WSG gripper modeled in models/schunk_wsg_50....">
<polygon fill="white" stroke="black" points="268.5,-0.5 268.5,-41.5 409.5,-41.5 409.5,-0.5 268.5,-0.5"/>
<text text-anchor="start" x="276.5" y="-29.5" font-family="Helvetica,sans-Serif" font-size="10.00">drake/manipulation</text>
<text text-anchor="start" x="276.5" y="-18.5" font-family="Helvetica,sans-Serif" font-size="10.00">/schunk_wsg/schunk_wsg</text>
<text text-anchor="middle" x="339" y="-7.5" font-family="Helvetica,sans-Serif" font-size="10.00">_constants.h</text>
</a>
</g>
</g>
<!-- Node117&#45;&gt;Node118 -->
<g id="edge8" class="edge">
<title>Node117&#45;&gt;Node118</title>
<path fill="none" stroke="midnightblue" d="M339,-73.66C339,-63.33 339,-51.44 339,-41.68"/>
<polygon fill="midnightblue" stroke="midnightblue" points="335.5,-73.7 339,-83.7 342.5,-73.71 335.5,-73.7"/>
</g>
</g>
</svg>
        <g id="navigator" transform="translate(0 0)" fill="#404254">
                <rect fill="#f2f5e9" fill-opacity="0.5" stroke="#606060" stroke-width=".5" x="0" y="0" width="60" height="60"/>
                <use id="zoomplus" xlink:href="#zoomPlus" x="17" y="9" onmousedown="handleZoom(evt,'in')"/>
                <use id="zoomminus" xlink:href="#zoomMin" x="42" y="9" onmousedown="handleZoom(evt,'out')"/>
                <use id="reset" xlink:href="#resetDef" x="30" y="36" onmousedown="handleReset()"/>
                <g id="arrowUp" xlink:href="#dirArrow" transform="translate(30 24)" onmousedown="handlePan(0,-1)">
                  <use xlink:href="#rim" fill="#404040">
                        <set attributeName="fill" to="#808080" begin="arrowUp.mouseover" end="arrowUp.mouseout"/>
                  </use>
                  <path fill="none" stroke="white" stroke-width="1.5" d="M0,-3.0v7 M-2.5,-0.5L0,-3.0L2.5,-0.5"/>
                </g>
                <g id="arrowRight" xlink:href="#dirArrow" transform="rotate(90) translate(36 -43)" onmousedown="handlePan(1,0)">
                  <use xlink:href="#rim" fill="#404040">
                        <set attributeName="fill" to="#808080" begin="arrowRight.mouseover" end="arrowRight.mouseout"/>
                  </use>
                  <path fill="none" stroke="white" stroke-width="1.5" d="M0,-3.0v7 M-2.5,-0.5L0,-3.0L2.5,-0.5"/>
                </g>
                <g id="arrowDown" xlink:href="#dirArrow" transform="rotate(180) translate(-30 -48)" onmousedown="handlePan(0,1)">
                  <use xlink:href="#rim" fill="#404040">
                        <set attributeName="fill" to="#808080" begin="arrowDown.mouseover" end="arrowDown.mouseout"/>
                  </use>
                  <path fill="none" stroke="white" stroke-width="1.5" d="M0,-3.0v7 M-2.5,-0.5L0,-3.0L2.5,-0.5"/>
                </g>
                <g id="arrowLeft" xlink:href="#dirArrow" transform="rotate(270) translate(-36 17)" onmousedown="handlePan(-1,0)">
                  <use xlink:href="#rim" fill="#404040">
                        <set attributeName="fill" to="#808080" begin="arrowLeft.mouseover" end="arrowLeft.mouseout"/>
                  </use>
                  <path fill="none" stroke="white" stroke-width="1.5" d="M0,-3.0v7 M-2.5,-0.5L0,-3.0L2.5,-0.5"/>
                </g>
        </g>
        <svg viewBox="0 0 15 15" width="100%" height="30px" preserveAspectRatio="xMaxYMin meet">
         <g id="arrow_out" transform="scale(0.3 0.3)">
          <a xlink:href="affine__system_8h__dep__incl_org.svg" target="_base">
           <rect id="button" ry="5" rx="5" y="6" x="6" height="38" width="38"
                fill="#f2f5e9" fill-opacity="0.5" stroke="#606060" stroke-width="1.0"/>
           <path id="arrow"
             d="M 11.500037,31.436501 C 11.940474,20.09759 22.043105,11.32322 32.158766,21.979434 L 37.068811,17.246167 C 37.068811,17.246167 37.088388,32 37.088388,32 L 22.160133,31.978069 C 22.160133,31.978069 26.997745,27.140456 26.997745,27.140456 C 18.528582,18.264221 13.291696,25.230495 11.500037,31.436501 z"
             style="fill:#404040;"/>
          </a>
         </g>
        </svg>
</svg>
