<?xml version="1.0" encoding="UTF-8" standalone="no"?>
<!DOCTYPE svg PUBLIC "-//W3C//DTD SVG 1.1//EN"
 "http://www.w3.org/Graphics/SVG/1.1/DTD/svg11.dtd">
<!-- Generated by graphviz version 2.43.0 (0)
 -->
<!-- Title: drake/common/autodiffxd.h Pages: 1 -->
<svg width="375pt" height="84pt"
 viewBox="0.00 0.00 375.00 84.00" xmlns="http://www.w3.org/2000/svg" xmlns:xlink="http://www.w3.org/1999/xlink">
<g id="graph0" class="graph" transform="scale(1 1) rotate(0) translate(4 80)">
<title>drake/common/autodiffxd.h</title>
<polygon fill="white" stroke="transparent" points="-4,4 -4,-80 371,-80 371,4 -4,4"/>
<!-- Node0 -->
<g id="node1" class="node">
<title>Node0</title>
<g id="a_node1"><a xlink:title=" ">
<polygon fill="#bfbfbf" stroke="black" points="81,-56.5 81,-75.5 232,-75.5 232,-56.5 81,-56.5"/>
<text text-anchor="middle" x="156.5" y="-63.5" font-family="Helvetica,sans-Serif" font-size="10.00">drake/common/autodiffxd.h</text>
</a>
</g>
</g>
<!-- Node1 -->
<g id="node2" class="node">
<title>Node1</title>
<g id="a_node2"><a xlink:title=" ">
<polygon fill="white" stroke="#bfbfbf" points="0,-0.5 0,-19.5 47,-19.5 47,-0.5 0,-0.5"/>
<text text-anchor="middle" x="23.5" y="-7.5" font-family="Helvetica,sans-Serif" font-size="10.00">cmath</text>
</a>
</g>
</g>
<!-- Node0&#45;&gt;Node1 -->
<g id="edge1" class="edge">
<title>Node0&#45;&gt;Node1</title>
<path fill="none" stroke="midnightblue" d="M135.43,-56.44C113.44,-47.52 78.77,-33.44 53.84,-23.32"/>
<polygon fill="midnightblue" stroke="midnightblue" points="55.06,-20.04 44.48,-19.52 52.42,-26.52 55.06,-20.04"/>
</g>
<!-- Node2 -->
<g id="node3" class="node">
<title>Node2</title>
<g id="a_node3"><a xlink:title=" ">
<polygon fill="white" stroke="#bfbfbf" points="65.5,-0.5 65.5,-19.5 109.5,-19.5 109.5,-0.5 65.5,-0.5"/>
<text text-anchor="middle" x="87.5" y="-7.5" font-family="Helvetica,sans-Serif" font-size="10.00">limits</text>
</a>
</g>
</g>
<!-- Node0&#45;&gt;Node2 -->
<g id="edge2" class="edge">
<title>Node0&#45;&gt;Node2</title>
<path fill="none" stroke="midnightblue" d="M145.41,-56.32C135.01,-48.18 119.24,-35.84 106.78,-26.09"/>
<polygon fill="midnightblue" stroke="midnightblue" points="108.82,-23.24 98.79,-19.83 104.51,-28.75 108.82,-23.24"/>
</g>
<!-- Node3 -->
<g id="node4" class="node">
<title>Node3</title>
<g id="a_node4"><a xlink:title=" ">
<polygon fill="white" stroke="#bfbfbf" points="128,-0.5 128,-19.5 185,-19.5 185,-0.5 128,-0.5"/>
<text text-anchor="middle" x="156.5" y="-7.5" font-family="Helvetica,sans-Serif" font-size="10.00">ostream</text>
</a>
</g>
</g>
<!-- Node0&#45;&gt;Node3 -->
<g id="edge3" class="edge">
<title>Node0&#45;&gt;Node3</title>
<path fill="none" stroke="midnightblue" d="M156.5,-56.08C156.5,-49.01 156.5,-38.86 156.5,-29.99"/>
<polygon fill="midnightblue" stroke="midnightblue" points="160,-29.75 156.5,-19.75 153,-29.75 160,-29.75"/>
</g>
<!-- Node4 -->
<g id="node5" class="node">
<title>Node4</title>
<g id="a_node5"><a xlink:title=" ">
<polygon fill="white" stroke="#bfbfbf" points="203,-0.5 203,-19.5 272,-19.5 272,-0.5 203,-0.5"/>
<text text-anchor="middle" x="237.5" y="-7.5" font-family="Helvetica,sans-Serif" font-size="10.00">type_traits</text>
</a>
</g>
</g>
<!-- Node0&#45;&gt;Node4 -->
<g id="edge4" class="edge">
<title>Node0&#45;&gt;Node4</title>
<path fill="none" stroke="midnightblue" d="M169.51,-56.32C182.03,-47.98 201.18,-35.21 215.97,-25.35"/>
<polygon fill="midnightblue" stroke="midnightblue" points="218.14,-28.11 224.52,-19.65 214.26,-22.29 218.14,-28.11"/>
</g>
<!-- Node5 -->
<g id="node6" class="node">
<title>Node5</title>
<g id="a_node6"><a xlink:title=" ">
<polygon fill="white" stroke="#bfbfbf" points="290,-0.5 290,-19.5 367,-19.5 367,-0.5 290,-0.5"/>
<text text-anchor="middle" x="328.5" y="-7.5" font-family="Helvetica,sans-Serif" font-size="10.00">Eigen/Dense</text>
</a>
</g>
</g>
<!-- Node0&#45;&gt;Node5 -->
<g id="edge5" class="edge">
<title>Node0&#45;&gt;Node5</title>
<path fill="none" stroke="midnightblue" d="M183.75,-56.44C212.94,-47.28 259.42,-32.69 291.81,-22.52"/>
<polygon fill="midnightblue" stroke="midnightblue" points="292.88,-25.85 301.37,-19.52 290.78,-19.17 292.88,-25.85"/>
</g>
</g>
</svg>
