<?xml version="1.0" encoding="UTF-8" standalone="no"?>
<!DOCTYPE svg PUBLIC "-//W3C//DTD SVG 1.1//EN"
 "http://www.w3.org/Graphics/SVG/1.1/DTD/svg11.dtd">
<!-- Generated by graphviz version 2.43.0 (0)
 -->
<!-- Title: drake/common/ad/auto_diff.h Pages: 1 -->
<!--zoomable 307 -->
<svg id="main" version="1.1" xmlns="http://www.w3.org/2000/svg" xmlns:xlink="http://www.w3.org/1999/xlink" xml:space="preserve" onload="init(evt)">
<style type="text/css"><![CDATA[
.edge:hover path { stroke: red; }
.edge:hover polygon { stroke: red; fill: red; }
]]></style>
<script type="text/javascript"><![CDATA[
var edges = document.getElementsByTagName('g');
if (edges && edges.length) {
  for (var i=0;i<edges.length;i++) {
    if (edges[i].id.substr(0,4)=='edge') {
      edges[i].setAttribute('class','edge');
    }
  }
}
]]></script>
        <defs>
                <circle id="rim" cx="0" cy="0" r="7"/>
                <circle id="rim2" cx="0" cy="0" r="3.5"/>
                <g id="zoomPlus">
                        <use xlink:href="#rim" fill="#404040">
                                <set attributeName="fill" to="#808080" begin="zoomplus.mouseover" end="zoomplus.mouseout"/>
                        </use>
                        <path d="M-4,0h8M0,-4v8" fill="none" stroke="white" stroke-width="1.5" pointer-events="none"/>
                </g>
                <g id="zoomMin">
                        <use xlink:href="#rim" fill="#404040">
                                <set attributeName="fill" to="#808080" begin="zoomminus.mouseover" end="zoomminus.mouseout"/>
                        </use>
                        <path d="M-4,0h8" fill="none" stroke="white" stroke-width="1.5" pointer-events="none"/>
                </g>
                <g id="dirArrow">
                        <path fill="none" stroke="white" stroke-width="1.5" d="M0,-3.0v7 M-2.5,-0.5L0,-3.0L2.5,-0.5"/>
                </g>
               <g id="resetDef">
                       <use xlink:href="#rim2" fill="#404040">
                               <set attributeName="fill" to="#808080" begin="reset.mouseover" end="reset.mouseout"/>
                       </use>
               </g>
        </defs>

<script type="text/javascript">
var viewWidth = 627;
var viewHeight = 307;
var sectionId = 'dynsection-0';
</script>
<script xlink:href="svgpan.js"/>
<svg id="graph" class="graph">
<g id="viewport">
<title>drake/common/ad/auto_diff.h</title>
<polygon fill="white" stroke="transparent" points="-4,4 -4,-303 623,-303 623,4 -4,4"/>
<!-- Node0 -->
<g id="node1" class="node">
<title>Node0</title>
<g id="a_node1"><a xlink:title=" ">
<polygon fill="#bfbfbf" stroke="black" points="201,-268.5 201,-298.5 330,-298.5 330,-268.5 201,-268.5"/>
<text text-anchor="start" x="209" y="-286.5" font-family="Helvetica,sans-Serif" font-size="10.00">drake/common/ad/auto</text>
<text text-anchor="middle" x="265.5" y="-275.5" font-family="Helvetica,sans-Serif" font-size="10.00">_diff.h</text>
</a>
</g>
</g>
<!-- Node1 -->
<g id="node2" class="node">
<title>Node1</title>
<g id="a_node2"><a xlink:href="partials_8h.html" target="_top" xlink:title=" ">
<polygon fill="white" stroke="black" points="92,-201.5 92,-231.5 237,-231.5 237,-201.5 92,-201.5"/>
<text text-anchor="start" x="100" y="-219.5" font-family="Helvetica,sans-Serif" font-size="10.00">drake/common/ad/internal</text>
<text text-anchor="middle" x="164.5" y="-208.5" font-family="Helvetica,sans-Serif" font-size="10.00">/partials.h</text>
</a>
</g>
</g>
<!-- Node0&#45;&gt;Node1 -->
<g id="edge1" class="edge">
<title>Node0&#45;&gt;Node1</title>
<path fill="none" stroke="midnightblue" d="M243.58,-268.4C229.42,-259.28 210.79,-247.29 195.17,-237.24"/>
<polygon fill="midnightblue" stroke="midnightblue" points="196.68,-234.05 186.37,-231.58 192.89,-239.93 196.68,-234.05"/>
</g>
<!-- Node2 -->
<g id="node3" class="node">
<title>Node2</title>
<g id="a_node3"><a xlink:href="drake__copyable_8h.html" target="_top" xlink:title="Provides careful macros to selectively enable or disable the special member functions for copy&#45;constr...">
<polygon fill="white" stroke="black" points="0,-67.5 0,-97.5 119,-97.5 119,-67.5 0,-67.5"/>
<text text-anchor="start" x="8" y="-85.5" font-family="Helvetica,sans-Serif" font-size="10.00">drake/common/drake</text>
<text text-anchor="middle" x="59.5" y="-74.5" font-family="Helvetica,sans-Serif" font-size="10.00">_copyable.h</text>
</a>
</g>
</g>
<!-- Node0&#45;&gt;Node2 -->
<g id="edge12" class="edge">
<title>Node0&#45;&gt;Node2</title>
<path fill="none" stroke="midnightblue" d="M200.61,-272.23C154.6,-263.58 98.34,-249.78 82.5,-232 51.95,-197.69 52.54,-140.32 55.89,-107.84"/>
<polygon fill="midnightblue" stroke="midnightblue" points="59.38,-108.2 57.09,-97.86 52.43,-107.37 59.38,-108.2"/>
</g>
<!-- Node3 -->
<g id="node4" class="node">
<title>Node3</title>
<g id="a_node4"><a xlink:href="eigen__types_8h.html" target="_top" xlink:title="This file contains abbreviated definitions for certain specializations of Eigen::Matrix that are comm...">
<polygon fill="white" stroke="black" points="178,-134.5 178,-164.5 297,-164.5 297,-134.5 178,-134.5"/>
<text text-anchor="start" x="186" y="-152.5" font-family="Helvetica,sans-Serif" font-size="10.00">drake/common/eigen</text>
<text text-anchor="middle" x="237.5" y="-141.5" font-family="Helvetica,sans-Serif" font-size="10.00">_types.h</text>
</a>
</g>
</g>
<!-- Node0&#45;&gt;Node3 -->
<g id="edge13" class="edge">
<title>Node0&#45;&gt;Node3</title>
<path fill="none" stroke="midnightblue" d="M262.5,-268.37C257.75,-245.94 248.41,-201.92 242.59,-174.49"/>
<polygon fill="midnightblue" stroke="midnightblue" points="245.97,-173.58 240.47,-164.52 239.13,-175.03 245.97,-173.58"/>
</g>
<!-- Node10 -->
<g id="node11" class="node">
<title>Node10</title>
<g id="a_node11"><a xlink:href="fmt_8h.html" target="_top" xlink:title=" ">
<polygon fill="white" stroke="black" points="295,-207 295,-226 414,-226 414,-207 295,-207"/>
<text text-anchor="middle" x="354.5" y="-214" font-family="Helvetica,sans-Serif" font-size="10.00">drake/common/fmt.h</text>
</a>
</g>
</g>
<!-- Node0&#45;&gt;Node10 -->
<g id="edge14" class="edge">
<title>Node0&#45;&gt;Node10</title>
<path fill="none" stroke="midnightblue" d="M284.81,-268.4C299.46,-257.7 319.54,-243.03 334.38,-232.19"/>
<polygon fill="midnightblue" stroke="midnightblue" points="336.84,-234.73 342.85,-226.01 332.71,-229.08 336.84,-234.73"/>
</g>
<!-- Node13 -->
<g id="node14" class="node">
<title>Node13</title>
<g id="a_node14"><a xlink:href="standard__operations_8h.html" target="_top" xlink:title=" ">
<polygon fill="white" stroke="black" points="455,-201.5 455,-231.5 600,-231.5 600,-201.5 455,-201.5"/>
<text text-anchor="start" x="463" y="-219.5" font-family="Helvetica,sans-Serif" font-size="10.00">drake/common/ad/internal</text>
<text text-anchor="middle" x="527.5" y="-208.5" font-family="Helvetica,sans-Serif" font-size="10.00">/standard_operations.h</text>
</a>
</g>
</g>
<!-- Node0&#45;&gt;Node13 -->
<g id="edge17" class="edge">
<title>Node0&#45;&gt;Node13</title>
<path fill="none" stroke="midnightblue" d="M322.03,-268.48C362.78,-258.37 417.93,-244.68 460.83,-234.04"/>
<polygon fill="midnightblue" stroke="midnightblue" points="461.76,-237.42 470.62,-231.61 460.07,-230.62 461.76,-237.42"/>
</g>
<!-- Node1&#45;&gt;Node2 -->
<g id="edge2" class="edge">
<title>Node1&#45;&gt;Node2</title>
<path fill="none" stroke="midnightblue" d="M153.26,-201.37C135.03,-178.45 98.85,-132.97 77.15,-105.69"/>
<polygon fill="midnightblue" stroke="midnightblue" points="79.62,-103.17 70.66,-97.52 74.14,-107.53 79.62,-103.17"/>
</g>
<!-- Node1&#45;&gt;Node3 -->
<g id="edge3" class="edge">
<title>Node1&#45;&gt;Node3</title>
<path fill="none" stroke="midnightblue" d="M180.34,-201.4C190.19,-192.62 203.04,-181.18 214.06,-171.37"/>
<polygon fill="midnightblue" stroke="midnightblue" points="216.55,-173.84 221.69,-164.58 211.9,-168.61 216.55,-173.84"/>
</g>
<!-- Node3&#45;&gt;Node2 -->
<g id="edge10" class="edge">
<title>Node3&#45;&gt;Node2</title>
<path fill="none" stroke="midnightblue" d="M198.88,-134.4C172.05,-124.6 136.12,-111.48 107.47,-101.02"/>
<polygon fill="midnightblue" stroke="midnightblue" points="108.64,-97.72 98.05,-97.58 106.24,-104.29 108.64,-97.72"/>
</g>
<!-- Node4 -->
<g id="node5" class="node">
<title>Node4</title>
<g id="a_node5"><a xlink:title=" ">
<polygon fill="white" stroke="#bfbfbf" points="137,-73 137,-92 182,-92 182,-73 137,-73"/>
<text text-anchor="middle" x="159.5" y="-80" font-family="Helvetica,sans-Serif" font-size="10.00">utility</text>
</a>
</g>
</g>
<!-- Node3&#45;&gt;Node4 -->
<g id="edge4" class="edge">
<title>Node3&#45;&gt;Node4</title>
<path fill="none" stroke="midnightblue" d="M220.58,-134.4C207.93,-123.86 190.67,-109.48 177.73,-98.69"/>
<polygon fill="midnightblue" stroke="midnightblue" points="179.86,-95.91 169.93,-92.19 175.38,-101.29 179.86,-95.91"/>
</g>
<!-- Node5 -->
<g id="node6" class="node">
<title>Node5</title>
<g id="a_node6"><a xlink:title=" ">
<polygon fill="white" stroke="#bfbfbf" points="200,-73 200,-92 277,-92 277,-73 200,-73"/>
<text text-anchor="middle" x="238.5" y="-80" font-family="Helvetica,sans-Serif" font-size="10.00">Eigen/Dense</text>
</a>
</g>
</g>
<!-- Node3&#45;&gt;Node5 -->
<g id="edge5" class="edge">
<title>Node3&#45;&gt;Node5</title>
<path fill="none" stroke="midnightblue" d="M237.72,-134.4C237.86,-125.06 238.05,-112.71 238.21,-102.52"/>
<polygon fill="midnightblue" stroke="midnightblue" points="241.71,-102.25 238.37,-92.19 234.71,-102.14 241.71,-102.25"/>
</g>
<!-- Node6 -->
<g id="node7" class="node">
<title>Node6</title>
<g id="a_node7"><a xlink:href="constants_8h.html" target="_top" xlink:title=" ">
<polygon fill="white" stroke="black" points="295,-73 295,-92 444,-92 444,-73 295,-73"/>
<text text-anchor="middle" x="369.5" y="-80" font-family="Helvetica,sans-Serif" font-size="10.00">drake/common/constants.h</text>
</a>
</g>
</g>
<!-- Node3&#45;&gt;Node6 -->
<g id="edge6" class="edge">
<title>Node3&#45;&gt;Node6</title>
<path fill="none" stroke="midnightblue" d="M266.14,-134.4C289,-123.14 320.76,-107.5 343.02,-96.54"/>
<polygon fill="midnightblue" stroke="midnightblue" points="344.8,-99.56 352.22,-92.01 341.71,-93.28 344.8,-99.56"/>
</g>
<!-- Node7 -->
<g id="node8" class="node">
<title>Node7</title>
<g id="a_node8"><a xlink:href="drake__deprecated_8h.html" target="_top" xlink:title="Provides a portable macro for use in generating compile&#45;time warnings for use of code that is permitt...">
<polygon fill="white" stroke="black" points="349,-0.5 349,-30.5 468,-30.5 468,-0.5 349,-0.5"/>
<text text-anchor="start" x="357" y="-18.5" font-family="Helvetica,sans-Serif" font-size="10.00">drake/common/drake</text>
<text text-anchor="middle" x="408.5" y="-7.5" font-family="Helvetica,sans-Serif" font-size="10.00">_deprecated.h</text>
</a>
</g>
</g>
<!-- Node3&#45;&gt;Node7 -->
<g id="edge11" class="edge">
<title>Node3&#45;&gt;Node7</title>
<path fill="none" stroke="midnightblue" d="M297.05,-135.45C359.82,-121.55 450.02,-101.13 452.5,-98 467.22,-79.42 450.4,-55.21 433.48,-38.02"/>
<polygon fill="midnightblue" stroke="midnightblue" points="435.45,-35.06 425.81,-30.66 430.6,-40.11 435.45,-35.06"/>
</g>
<!-- Node8 -->
<g id="node9" class="node">
<title>Node8</title>
<g id="a_node9"><a xlink:href="drake__assert_8h.html" target="_top" xlink:title="Provides Drake&#39;s assertion implementation.">
<polygon fill="white" stroke="black" points="500,-67.5 500,-97.5 619,-97.5 619,-67.5 500,-67.5"/>
<text text-anchor="start" x="508" y="-85.5" font-family="Helvetica,sans-Serif" font-size="10.00">drake/common/drake</text>
<text text-anchor="middle" x="559.5" y="-74.5" font-family="Helvetica,sans-Serif" font-size="10.00">_assert.h</text>
</a>
</g>
</g>
<!-- Node3&#45;&gt;Node8 -->
<g id="edge8" class="edge">
<title>Node3&#45;&gt;Node8</title>
<path fill="none" stroke="midnightblue" d="M297.19,-135.72C300,-135.14 302.78,-134.56 305.5,-134 339.98,-126.9 427.35,-109.58 489.98,-97.21"/>
<polygon fill="midnightblue" stroke="midnightblue" points="490.67,-100.64 499.8,-95.27 489.32,-93.77 490.67,-100.64"/>
</g>
<!-- Node6&#45;&gt;Node7 -->
<g id="edge7" class="edge">
<title>Node6&#45;&gt;Node7</title>
<path fill="none" stroke="midnightblue" d="M374.76,-72.73C379.88,-64.2 387.88,-50.87 394.8,-39.33"/>
<polygon fill="midnightblue" stroke="midnightblue" points="397.9,-40.96 400.05,-30.59 391.9,-37.36 397.9,-40.96"/>
</g>
<!-- Node9 -->
<g id="node10" class="node">
<title>Node9</title>
<g id="a_node10"><a xlink:title=" ">
<polygon fill="white" stroke="#bfbfbf" points="525,-6 525,-25 594,-25 594,-6 525,-6"/>
<text text-anchor="middle" x="559.5" y="-13" font-family="Helvetica,sans-Serif" font-size="10.00">type_traits</text>
</a>
</g>
</g>
<!-- Node8&#45;&gt;Node9 -->
<g id="edge9" class="edge">
<title>Node8&#45;&gt;Node9</title>
<path fill="none" stroke="midnightblue" d="M559.5,-67.4C559.5,-58.06 559.5,-45.71 559.5,-35.52"/>
<polygon fill="midnightblue" stroke="midnightblue" points="563,-35.19 559.5,-25.19 556,-35.19 563,-35.19"/>
</g>
<!-- Node11 -->
<g id="node12" class="node">
<title>Node11</title>
<g id="a_node12"><a xlink:title=" ">
<polygon fill="white" stroke="#bfbfbf" points="412,-140 412,-159 485,-159 485,-140 412,-140"/>
<text text-anchor="middle" x="448.5" y="-147" font-family="Helvetica,sans-Serif" font-size="10.00">string_view</text>
</a>
</g>
</g>
<!-- Node10&#45;&gt;Node11 -->
<g id="edge15" class="edge">
<title>Node10&#45;&gt;Node11</title>
<path fill="none" stroke="midnightblue" d="M367.18,-206.73C382.68,-196.01 409.14,-177.72 427.66,-164.91"/>
<polygon fill="midnightblue" stroke="midnightblue" points="429.79,-167.69 436.02,-159.13 425.81,-161.94 429.79,-167.69"/>
</g>
<!-- Node12 -->
<g id="node13" class="node">
<title>Node12</title>
<g id="a_node13"><a xlink:title=" ">
<polygon fill="white" stroke="#bfbfbf" points="315,-140 315,-159 394,-159 394,-140 315,-140"/>
<text text-anchor="middle" x="354.5" y="-147" font-family="Helvetica,sans-Serif" font-size="10.00">fmt/format.h</text>
</a>
</g>
</g>
<!-- Node10&#45;&gt;Node12 -->
<g id="edge16" class="edge">
<title>Node10&#45;&gt;Node12</title>
<path fill="none" stroke="midnightblue" d="M354.5,-206.73C354.5,-197.18 354.5,-181.62 354.5,-169.28"/>
<polygon fill="midnightblue" stroke="midnightblue" points="358,-169.13 354.5,-159.13 351,-169.13 358,-169.13"/>
</g>
<!-- Node14 -->
<g id="node15" class="node">
<title>Node14</title>
<g id="a_node15"><a xlink:title=" ">
<polygon fill="white" stroke="#bfbfbf" points="570,-140 570,-159 617,-159 617,-140 570,-140"/>
<text text-anchor="middle" x="593.5" y="-147" font-family="Helvetica,sans-Serif" font-size="10.00">cmath</text>
</a>
</g>
</g>
<!-- Node13&#45;&gt;Node14 -->
<g id="edge18" class="edge">
<title>Node13&#45;&gt;Node14</title>
<path fill="none" stroke="midnightblue" d="M541.82,-201.4C552.32,-191.06 566.57,-177.02 577.45,-166.31"/>
<polygon fill="midnightblue" stroke="midnightblue" points="580,-168.71 584.67,-159.19 575.09,-163.72 580,-168.71"/>
</g>
<!-- Node15 -->
<g id="node16" class="node">
<title>Node15</title>
<g id="a_node16"><a xlink:title=" ">
<polygon fill="white" stroke="#bfbfbf" points="503.5,-140 503.5,-159 551.5,-159 551.5,-140 503.5,-140"/>
<text text-anchor="middle" x="527.5" y="-147" font-family="Helvetica,sans-Serif" font-size="10.00">iosfwd</text>
</a>
</g>
</g>
<!-- Node13&#45;&gt;Node15 -->
<g id="edge19" class="edge">
<title>Node13&#45;&gt;Node15</title>
<path fill="none" stroke="midnightblue" d="M527.5,-201.4C527.5,-192.06 527.5,-179.71 527.5,-169.52"/>
<polygon fill="midnightblue" stroke="midnightblue" points="531,-169.19 527.5,-159.19 524,-169.19 531,-169.19"/>
</g>
</g>
</svg>
        <g id="navigator" transform="translate(0 0)" fill="#404254">
                <rect fill="#f2f5e9" fill-opacity="0.5" stroke="#606060" stroke-width=".5" x="0" y="0" width="60" height="60"/>
                <use id="zoomplus" xlink:href="#zoomPlus" x="17" y="9" onmousedown="handleZoom(evt,'in')"/>
                <use id="zoomminus" xlink:href="#zoomMin" x="42" y="9" onmousedown="handleZoom(evt,'out')"/>
                <use id="reset" xlink:href="#resetDef" x="30" y="36" onmousedown="handleReset()"/>
                <g id="arrowUp" xlink:href="#dirArrow" transform="translate(30 24)" onmousedown="handlePan(0,-1)">
                  <use xlink:href="#rim" fill="#404040">
                        <set attributeName="fill" to="#808080" begin="arrowUp.mouseover" end="arrowUp.mouseout"/>
                  </use>
                  <path fill="none" stroke="white" stroke-width="1.5" d="M0,-3.0v7 M-2.5,-0.5L0,-3.0L2.5,-0.5"/>
                </g>
                <g id="arrowRight" xlink:href="#dirArrow" transform="rotate(90) translate(36 -43)" onmousedown="handlePan(1,0)">
                  <use xlink:href="#rim" fill="#404040">
                        <set attributeName="fill" to="#808080" begin="arrowRight.mouseover" end="arrowRight.mouseout"/>
                  </use>
                  <path fill="none" stroke="white" stroke-width="1.5" d="M0,-3.0v7 M-2.5,-0.5L0,-3.0L2.5,-0.5"/>
                </g>
                <g id="arrowDown" xlink:href="#dirArrow" transform="rotate(180) translate(-30 -48)" onmousedown="handlePan(0,1)">
                  <use xlink:href="#rim" fill="#404040">
                        <set attributeName="fill" to="#808080" begin="arrowDown.mouseover" end="arrowDown.mouseout"/>
                  </use>
                  <path fill="none" stroke="white" stroke-width="1.5" d="M0,-3.0v7 M-2.5,-0.5L0,-3.0L2.5,-0.5"/>
                </g>
                <g id="arrowLeft" xlink:href="#dirArrow" transform="rotate(270) translate(-36 17)" onmousedown="handlePan(-1,0)">
                  <use xlink:href="#rim" fill="#404040">
                        <set attributeName="fill" to="#808080" begin="arrowLeft.mouseover" end="arrowLeft.mouseout"/>
                  </use>
                  <path fill="none" stroke="white" stroke-width="1.5" d="M0,-3.0v7 M-2.5,-0.5L0,-3.0L2.5,-0.5"/>
                </g>
        </g>
        <svg viewBox="0 0 15 15" width="100%" height="30px" preserveAspectRatio="xMaxYMin meet">
         <g id="arrow_out" transform="scale(0.3 0.3)">
          <a xlink:href="auto__diff_8h__incl_org.svg" target="_base">
           <rect id="button" ry="5" rx="5" y="6" x="6" height="38" width="38"
                fill="#f2f5e9" fill-opacity="0.5" stroke="#606060" stroke-width="1.0"/>
           <path id="arrow"
             d="M 11.500037,31.436501 C 11.940474,20.09759 22.043105,11.32322 32.158766,21.979434 L 37.068811,17.246167 C 37.068811,17.246167 37.088388,32 37.088388,32 L 22.160133,31.978069 C 22.160133,31.978069 26.997745,27.140456 26.997745,27.140456 C 18.528582,18.264221 13.291696,25.230495 11.500037,31.436501 z"
             style="fill:#404040;"/>
          </a>
         </g>
        </svg>
</svg>
