<?xml version="1.0" encoding="UTF-8" standalone="no"?>
<!DOCTYPE svg PUBLIC "-//W3C//DTD SVG 1.1//EN"
 "http://www.w3.org/Graphics/SVG/1.1/DTD/svg11.dtd">
<!-- Generated by graphviz version 2.40.1 (20161225.0304)
 -->
<!-- Title: drake/math/autodiff_gradient.h Pages: 1 -->
<svg width="1128pt" height="408pt"
 viewBox="0.00 0.00 1127.50 408.00" xmlns="http://www.w3.org/2000/svg" xmlns:xlink="http://www.w3.org/1999/xlink">
<g id="graph0" class="graph" transform="scale(1 1) rotate(0) translate(4 404)">
<title>drake/math/autodiff_gradient.h</title>
<polygon fill="#ffffff" stroke="transparent" points="-4,4 -4,-404 1123.5,-404 1123.5,4 -4,4"/>
<!-- Node0 -->
<g id="node1" class="node">
<title>Node0</title>
<g id="a_node1"><a xlink:title="Utilities that relate simultaneously to both autodiff matrices and gradient matrices.">
<polygon fill="#bfbfbf" stroke="#000000" points="451,-369.5 451,-399.5 565,-399.5 565,-369.5 451,-369.5"/>
<text text-anchor="start" x="459" y="-387.5" font-family="Helvetica,sans-Serif" font-size="10.00" fill="#000000">drake/math/autodiff</text>
<text text-anchor="middle" x="508" y="-376.5" font-family="Helvetica,sans-Serif" font-size="10.00" fill="#000000">_gradient.h</text>
</a>
</g>
</g>
<!-- Node1 -->
<g id="node2" class="node">
<title>Node1</title>
<g id="a_node2"><a xlink:title=" ">
<polygon fill="#ffffff" stroke="#bfbfbf" points="0,-313.5 0,-332.5 64,-332.5 64,-313.5 0,-313.5"/>
<text text-anchor="middle" x="32" y="-320.5" font-family="Helvetica,sans-Serif" font-size="10.00" fill="#000000">algorithm</text>
</a>
</g>
</g>
<!-- Node0&#45;&gt;Node1 -->
<g id="edge1" class="edge">
<title>Node0&#45;&gt;Node1</title>
<path fill="none" stroke="#191970" d="M450.7175,-379.3836C368.069,-371.6068 210.7194,-355.322 78,-333 76.7306,-332.7865 75.4434,-332.5614 74.1451,-332.327"/>
<polygon fill="#191970" stroke="#191970" points="74.578,-328.846 64.0954,-330.3839 73.2491,-335.7187 74.578,-328.846"/>
</g>
<!-- Node2 -->
<g id="node3" class="node">
<title>Node2</title>
<g id="a_node3"><a xlink:title=" ">
<polygon fill="#ffffff" stroke="#bfbfbf" points="158,-257.5 158,-276.5 214,-276.5 214,-257.5 158,-257.5"/>
<text text-anchor="middle" x="186" y="-264.5" font-family="Helvetica,sans-Serif" font-size="10.00" fill="#000000">optional</text>
</a>
</g>
</g>
<!-- Node0&#45;&gt;Node2 -->
<g id="edge2" class="edge">
<title>Node0&#45;&gt;Node2</title>
<path fill="none" stroke="#191970" d="M481.2702,-369.3875C452.5248,-353.6214 405.1275,-329.0131 362,-313 349.0433,-308.1892 271.515,-288.4497 223.7793,-276.4469"/>
<polygon fill="#191970" stroke="#191970" points="224.6305,-273.052 214.0792,-274.0112 222.9257,-279.8412 224.6305,-273.052"/>
</g>
<!-- Node3 -->
<g id="node4" class="node">
<title>Node3</title>
<g id="a_node4"><a xlink:title=" ">
<polygon fill="#ffffff" stroke="#bfbfbf" points="80.5,-62 80.5,-81 157.5,-81 157.5,-62 80.5,-62"/>
<text text-anchor="middle" x="119" y="-69" font-family="Helvetica,sans-Serif" font-size="10.00" fill="#000000">Eigen/Dense</text>
</a>
</g>
</g>
<!-- Node0&#45;&gt;Node3 -->
<g id="edge3" class="edge">
<title>Node0&#45;&gt;Node3</title>
<path fill="none" stroke="#191970" d="M450.5937,-380.3202C336.474,-370.4274 92,-340.6407 92,-267 92,-267 92,-267 92,-205.5 92,-163.97 104.6171,-116.601 112.6014,-90.7831"/>
<polygon fill="#191970" stroke="#191970" points="115.98,-91.7084 115.6893,-81.1175 109.312,-89.5781 115.98,-91.7084"/>
</g>
<!-- Node4 -->
<g id="node5" class="node">
<title>Node4</title>
<g id="a_node5"><a xlink:title=" ">
<polygon fill="#ffffff" stroke="#bfbfbf" points="988.5,-313.5 988.5,-332.5 1067.5,-332.5 1067.5,-313.5 988.5,-313.5"/>
<text text-anchor="middle" x="1028" y="-320.5" font-family="Helvetica,sans-Serif" font-size="10.00" fill="#000000">fmt/format.h</text>
</a>
</g>
</g>
<!-- Node0&#45;&gt;Node4 -->
<g id="edge4" class="edge">
<title>Node0&#45;&gt;Node4</title>
<path fill="none" stroke="#191970" d="M565.2031,-379.535C653.2667,-371.5857 827.248,-354.6677 974,-333 975.2999,-332.8081 976.6163,-332.6078 977.9437,-332.4007"/>
<polygon fill="#191970" stroke="#191970" points="978.9458,-335.7829 988.2432,-330.7027 977.807,-328.8761 978.9458,-335.7829"/>
</g>
<!-- Node5 -->
<g id="node6" class="node">
<title>Node5</title>
<g id="a_node6"><a xlink:href="drake__assert_8h.html" target="_top" xlink:title="Provides Drake&#39;s assertion implementation.">
<polygon fill="#ffffff" stroke="#000000" points="848.5,-56.5 848.5,-86.5 969.5,-86.5 969.5,-56.5 848.5,-56.5"/>
<text text-anchor="start" x="856.5" y="-74.5" font-family="Helvetica,sans-Serif" font-size="10.00" fill="#000000">drake/common/drake</text>
<text text-anchor="middle" x="909" y="-63.5" font-family="Helvetica,sans-Serif" font-size="10.00" fill="#000000">_assert.h</text>
</a>
</g>
</g>
<!-- Node0&#45;&gt;Node5 -->
<g id="edge5" class="edge">
<title>Node0&#45;&gt;Node5</title>
<path fill="none" stroke="#191970" d="M565.2461,-381.6171C686.873,-373.9265 960,-347.6749 960,-267 960,-267 960,-267 960,-205.5 960,-164.9302 939.328,-121.7039 924.306,-95.648"/>
<polygon fill="#191970" stroke="#191970" points="927.1985,-93.6645 919.076,-86.862 921.1836,-97.2451 927.1985,-93.6645"/>
</g>
<!-- Node7 -->
<g id="node8" class="node">
<title>Node7</title>
<g id="a_node8"><a xlink:href="unused_8h.html" target="_top" xlink:title=" ">
<polygon fill="#ffffff" stroke="#000000" points="794.5,-257.5 794.5,-276.5 931.5,-276.5 931.5,-257.5 794.5,-257.5"/>
<text text-anchor="middle" x="863" y="-264.5" font-family="Helvetica,sans-Serif" font-size="10.00" fill="#000000">drake/common/unused.h</text>
</a>
</g>
</g>
<!-- Node0&#45;&gt;Node7 -->
<g id="edge7" class="edge">
<title>Node0&#45;&gt;Node7</title>
<path fill="none" stroke="#191970" d="M553.3216,-369.4992C623.728,-346.1957 758.1444,-301.7057 824.2852,-279.814"/>
<polygon fill="#191970" stroke="#191970" points="825.5198,-283.0922 833.9135,-276.6272 823.3202,-276.4468 825.5198,-283.0922"/>
</g>
<!-- Node8 -->
<g id="node9" class="node">
<title>Node8</title>
<g id="a_node9"><a xlink:href="math_2autodiff_8h.html" target="_top" xlink:title="Utilities for arithmetic on AutoDiffScalar.">
<polygon fill="#ffffff" stroke="#000000" points="491.5,-313.5 491.5,-332.5 614.5,-332.5 614.5,-313.5 491.5,-313.5"/>
<text text-anchor="middle" x="553" y="-320.5" font-family="Helvetica,sans-Serif" font-size="10.00" fill="#000000">drake/math/autodiff.h</text>
</a>
</g>
</g>
<!-- Node0&#45;&gt;Node8 -->
<g id="edge8" class="edge">
<title>Node0&#45;&gt;Node8</title>
<path fill="none" stroke="#191970" d="M519.1236,-369.2977C525.3701,-360.7609 533.204,-350.0545 539.7647,-341.0883"/>
<polygon fill="#191970" stroke="#191970" points="542.7144,-342.984 545.7949,-332.8469 537.0652,-338.8505 542.7144,-342.984"/>
</g>
<!-- Node27 -->
<g id="node28" class="node">
<title>Node27</title>
<g id="a_node28"><a xlink:href="gradient_8h.html" target="_top" xlink:title="Utilities for arithmetic on gradients.">
<polygon fill="#ffffff" stroke="#000000" points="228.5,-313.5 228.5,-332.5 353.5,-332.5 353.5,-313.5 228.5,-313.5"/>
<text text-anchor="middle" x="291" y="-320.5" font-family="Helvetica,sans-Serif" font-size="10.00" fill="#000000">drake/math/gradient.h</text>
</a>
</g>
</g>
<!-- Node0&#45;&gt;Node27 -->
<g id="edge41" class="edge">
<title>Node0&#45;&gt;Node27</title>
<path fill="none" stroke="#191970" d="M454.9158,-369.4554C417.9148,-358.9689 369.1604,-345.1515 334.4658,-335.3187"/>
<polygon fill="#191970" stroke="#191970" points="335.2027,-331.8897 324.6273,-332.5303 333.294,-338.6245 335.2027,-331.8897"/>
</g>
<!-- Node6 -->
<g id="node7" class="node">
<title>Node6</title>
<g id="a_node7"><a xlink:title=" ">
<polygon fill="#ffffff" stroke="#bfbfbf" points="557.5,-.5 557.5,-19.5 626.5,-19.5 626.5,-.5 557.5,-.5"/>
<text text-anchor="middle" x="592" y="-7.5" font-family="Helvetica,sans-Serif" font-size="10.00" fill="#000000">type_traits</text>
</a>
</g>
</g>
<!-- Node5&#45;&gt;Node6 -->
<g id="edge6" class="edge">
<title>Node5&#45;&gt;Node6</title>
<path fill="none" stroke="#191970" d="M848.3203,-57.9323C845.1703,-57.2691 842.0491,-56.6213 839,-56 768.5718,-41.6488 686.474,-26.7142 636.9084,-17.8931"/>
<polygon fill="#191970" stroke="#191970" points="637.2991,-14.4078 626.8413,-16.1059 636.0756,-21.3 637.2991,-14.4078"/>
</g>
<!-- Node8&#45;&gt;Node2 -->
<g id="edge10" class="edge">
<title>Node8&#45;&gt;Node2</title>
<path fill="none" stroke="#191970" d="M491.3209,-316.0057C425.7405,-308.1646 319.1248,-294.2582 228,-277 226.7572,-276.7646 225.4958,-276.5168 224.2236,-276.2593"/>
<polygon fill="#191970" stroke="#191970" points="224.9027,-272.8254 214.3895,-274.1379 223.4266,-279.668 224.9027,-272.8254"/>
</g>
<!-- Node8&#45;&gt;Node3 -->
<g id="edge12" class="edge">
<title>Node8&#45;&gt;Node3</title>
<path fill="none" stroke="#191970" d="M497.4166,-313.4381C407.0874,-296.9469 233.7958,-261.0481 187,-221 146.6924,-186.5046 129.0556,-123.1791 122.4274,-91.1535"/>
<polygon fill="#191970" stroke="#191970" points="125.845,-90.3906 120.523,-81.2295 118.9704,-91.7099 125.845,-90.3906"/>
</g>
<!-- Node8&#45;&gt;Node7 -->
<g id="edge40" class="edge">
<title>Node8&#45;&gt;Node7</title>
<path fill="none" stroke="#191970" d="M605.9387,-313.4369C659.773,-303.712 743.1761,-288.6456 800.2887,-278.3285"/>
<polygon fill="#191970" stroke="#191970" points="801.0612,-281.7457 810.2797,-276.5237 799.8167,-274.8572 801.0612,-281.7457"/>
</g>
<!-- Node9 -->
<g id="node10" class="node">
<title>Node9</title>
<g id="a_node10"><a xlink:title=" ">
<polygon fill="#ffffff" stroke="#bfbfbf" points="627.5,-129 627.5,-148 674.5,-148 674.5,-129 627.5,-129"/>
<text text-anchor="middle" x="651" y="-136" font-family="Helvetica,sans-Serif" font-size="10.00" fill="#000000">cmath</text>
</a>
</g>
</g>
<!-- Node8&#45;&gt;Node9 -->
<g id="edge9" class="edge">
<title>Node8&#45;&gt;Node9</title>
<path fill="none" stroke="#191970" d="M611.449,-313.4969C661.3805,-301.7018 728.8506,-275.9526 753,-221 758.5431,-208.3865 760.2205,-201.7342 753,-190 750.8776,-186.5508 709.9467,-166.5409 680.5898,-152.5051"/>
<polygon fill="#191970" stroke="#191970" points="682.0618,-149.3296 671.5288,-148.1866 679.0501,-155.6486 682.0618,-149.3296"/>
</g>
<!-- Node10 -->
<g id="node11" class="node">
<title>Node10</title>
<g id="a_node11"><a xlink:title=" ">
<polygon fill="#ffffff" stroke="#bfbfbf" points="641.5,-257.5 641.5,-276.5 682.5,-276.5 682.5,-257.5 641.5,-257.5"/>
<text text-anchor="middle" x="662" y="-264.5" font-family="Helvetica,sans-Serif" font-size="10.00" fill="#000000">tuple</text>
</a>
</g>
</g>
<!-- Node8&#45;&gt;Node10 -->
<g id="edge11" class="edge">
<title>Node8&#45;&gt;Node10</title>
<path fill="none" stroke="#191970" d="M571.9864,-313.2455C589.1792,-304.4125 614.7238,-291.2887 634.2132,-281.2758"/>
<polygon fill="#191970" stroke="#191970" points="635.9359,-284.3257 643.2312,-276.6427 632.737,-278.0993 635.9359,-284.3257"/>
</g>
<!-- Node11 -->
<g id="node12" class="node">
<title>Node11</title>
<g id="a_node12"><a xlink:href="common_2autodiff_8h.html" target="_top" xlink:title=" ">
<polygon fill="#ffffff" stroke="#000000" points="483,-257.5 483,-276.5 623,-276.5 623,-257.5 483,-257.5"/>
<text text-anchor="middle" x="553" y="-264.5" font-family="Helvetica,sans-Serif" font-size="10.00" fill="#000000">drake/common/autodiff.h</text>
</a>
</g>
</g>
<!-- Node8&#45;&gt;Node11 -->
<g id="edge13" class="edge">
<title>Node8&#45;&gt;Node11</title>
<path fill="none" stroke="#191970" d="M553,-313.2455C553,-305.9382 553,-295.6944 553,-286.7046"/>
<polygon fill="#191970" stroke="#191970" points="556.5001,-286.6426 553,-276.6427 549.5001,-286.6427 556.5001,-286.6426"/>
</g>
<!-- Node12 -->
<g id="node13" class="node">
<title>Node12</title>
<g id="a_node13"><a xlink:title=" ">
<polygon fill="#ffffff" stroke="#bfbfbf" points="674.5,-196 674.5,-215 743.5,-215 743.5,-196 674.5,-196"/>
<text text-anchor="middle" x="709" y="-203" font-family="Helvetica,sans-Serif" font-size="10.00" fill="#000000">Eigen/Core</text>
</a>
</g>
</g>
<!-- Node11&#45;&gt;Node12 -->
<g id="edge14" class="edge">
<title>Node11&#45;&gt;Node12</title>
<path fill="none" stroke="#191970" d="M577.375,-257.3906C603.7056,-247.0103 645.838,-230.4004 675.3229,-218.7766"/>
<polygon fill="#191970" stroke="#191970" points="676.7767,-221.9657 684.7962,-215.0419 674.2093,-215.4534 676.7767,-221.9657"/>
</g>
<!-- Node13 -->
<g id="node14" class="node">
<title>Node13</title>
<g id="a_node14"><a xlink:title=" ">
<polygon fill="#ffffff" stroke="#bfbfbf" points="196.5,-196 196.5,-215 347.5,-215 347.5,-196 196.5,-196"/>
<text text-anchor="middle" x="272" y="-203" font-family="Helvetica,sans-Serif" font-size="10.00" fill="#000000">unsupported/Eigen/AutoDiff</text>
</a>
</g>
</g>
<!-- Node11&#45;&gt;Node13 -->
<g id="edge15" class="edge">
<title>Node11&#45;&gt;Node13</title>
<path fill="none" stroke="#191970" d="M509.4021,-257.4581C459.8729,-246.6181 379.0193,-228.9224 325.6589,-217.2439"/>
<polygon fill="#191970" stroke="#191970" points="326.2173,-213.7833 315.7002,-215.0643 324.7207,-220.6214 326.2173,-213.7833"/>
</g>
<!-- Node14 -->
<g id="node15" class="node">
<title>Node14</title>
<g id="a_node15"><a xlink:href="eigen__autodiff__types_8h.html" target="_top" xlink:title="This file contains abbreviated definitions for certain uses of AutoDiffScalar that are commonly used ...">
<polygon fill="#ffffff" stroke="#000000" points="366,-190.5 366,-220.5 486,-220.5 486,-190.5 366,-190.5"/>
<text text-anchor="start" x="374" y="-208.5" font-family="Helvetica,sans-Serif" font-size="10.00" fill="#000000">drake/common/eigen</text>
<text text-anchor="middle" x="426" y="-197.5" font-family="Helvetica,sans-Serif" font-size="10.00" fill="#000000">_autodiff_types.h</text>
</a>
</g>
</g>
<!-- Node11&#45;&gt;Node14 -->
<g id="edge16" class="edge">
<title>Node11&#45;&gt;Node14</title>
<path fill="none" stroke="#191970" d="M533.1563,-257.3906C515.3318,-248.7591 488.6124,-235.8202 466.3145,-225.0224"/>
<polygon fill="#191970" stroke="#191970" points="467.5934,-221.7529 457.0677,-220.5446 464.5425,-228.0531 467.5934,-221.7529"/>
</g>
<!-- Node19 -->
<g id="node20" class="node">
<title>Node19</title>
<g id="a_node20"><a xlink:href="autodiffxd_8h.html" target="_top" xlink:title=" ">
<polygon fill="#ffffff" stroke="#000000" points="504,-196 504,-215 656,-215 656,-196 504,-196"/>
<text text-anchor="middle" x="580" y="-203" font-family="Helvetica,sans-Serif" font-size="10.00" fill="#000000">drake/common/autodiffxd.h</text>
</a>
</g>
</g>
<!-- Node11&#45;&gt;Node19 -->
<g id="edge25" class="edge">
<title>Node11&#45;&gt;Node19</title>
<path fill="none" stroke="#191970" d="M557.2188,-257.3906C561.0796,-248.5965 566.9034,-235.3312 571.6961,-224.4145"/>
<polygon fill="#191970" stroke="#191970" points="574.9066,-225.8083 575.7218,-215.2449 568.4971,-222.9943 574.9066,-225.8083"/>
</g>
<!-- Node22 -->
<g id="node23" class="node">
<title>Node22</title>
<g id="a_node23"><a xlink:href="autodiff__overloads_8h.html" target="_top" xlink:title="Overloads for STL mathematical operations on AutoDiffScalar.">
<polygon fill="#ffffff" stroke="#000000" points="800.5,-190.5 800.5,-220.5 931.5,-220.5 931.5,-190.5 800.5,-190.5"/>
<text text-anchor="start" x="808.5" y="-208.5" font-family="Helvetica,sans-Serif" font-size="10.00" fill="#000000">drake/common/autodiff</text>
<text text-anchor="middle" x="866" y="-197.5" font-family="Helvetica,sans-Serif" font-size="10.00" fill="#000000">_overloads.h</text>
</a>
</g>
</g>
<!-- Node11&#45;&gt;Node22 -->
<g id="edge30" class="edge">
<title>Node11&#45;&gt;Node22</title>
<path fill="none" stroke="#191970" d="M601.5628,-257.4581C652.0444,-247.5392 731.7401,-231.8801 790.4559,-220.3433"/>
<polygon fill="#191970" stroke="#191970" points="791.2883,-223.7468 800.4259,-218.3844 789.9387,-216.8781 791.2883,-223.7468"/>
</g>
<!-- Node14&#45;&gt;Node3 -->
<g id="edge18" class="edge">
<title>Node14&#45;&gt;Node3</title>
<path fill="none" stroke="#191970" d="M383.0166,-190.4948C355.8169,-180.7168 320.0518,-167.3373 289,-154 237.9714,-132.0823 180.091,-103.0752 146.7355,-85.9395"/>
<polygon fill="#191970" stroke="#191970" points="148.0968,-82.7035 137.6048,-81.2302 144.888,-88.9248 148.0968,-82.7035"/>
</g>
<!-- Node14&#45;&gt;Node6 -->
<g id="edge17" class="edge">
<title>Node14&#45;&gt;Node6</title>
<path fill="none" stroke="#191970" d="M444.2153,-190.4848C455.7967,-180.5964 470.8441,-167.1002 483,-154 522.0886,-111.8749 561.0774,-56.2575 580.0734,-28.0594"/>
<polygon fill="#191970" stroke="#191970" points="583.0755,-29.8663 585.7204,-19.6069 577.255,-25.9777 583.0755,-29.8663"/>
</g>
<!-- Node15 -->
<g id="node16" class="node">
<title>Node15</title>
<g id="a_node16"><a xlink:href="eigen__types_8h.html" target="_top" xlink:title="This file contains abbreviated definitions for certain specializations of Eigen::Matrix that are comm...">
<polygon fill="#ffffff" stroke="#000000" points="354,-123.5 354,-153.5 474,-153.5 474,-123.5 354,-123.5"/>
<text text-anchor="start" x="362" y="-141.5" font-family="Helvetica,sans-Serif" font-size="10.00" fill="#000000">drake/common/eigen</text>
<text text-anchor="middle" x="414" y="-130.5" font-family="Helvetica,sans-Serif" font-size="10.00" fill="#000000">_types.h</text>
</a>
</g>
</g>
<!-- Node14&#45;&gt;Node15 -->
<g id="edge19" class="edge">
<title>Node14&#45;&gt;Node15</title>
<path fill="none" stroke="#191970" d="M423.277,-190.2967C421.8655,-182.4156 420.1049,-172.5857 418.4979,-163.6135"/>
<polygon fill="#191970" stroke="#191970" points="421.9205,-162.8695 416.7122,-153.6432 415.0301,-164.1036 421.9205,-162.8695"/>
</g>
<!-- Node15&#45;&gt;Node3 -->
<g id="edge21" class="edge">
<title>Node15&#45;&gt;Node3</title>
<path fill="none" stroke="#191970" d="M353.9199,-128.0063C303.4144,-118.7128 229.5037,-104.0058 166,-87 162.662,-86.1061 159.2128,-85.1105 155.7697,-84.0673"/>
<polygon fill="#191970" stroke="#191970" points="156.7695,-80.7127 146.1799,-81.0457 154.6659,-87.3891 156.7695,-80.7127"/>
</g>
<!-- Node15&#45;&gt;Node5 -->
<g id="edge23" class="edge">
<title>Node15&#45;&gt;Node5</title>
<path fill="none" stroke="#191970" d="M474.2567,-131.275C579.0481,-118.7005 787.8565,-93.5995 838.3063,-86.7653"/>
<polygon fill="#191970" stroke="#191970" points="838.9714,-90.2055 848.3648,-85.3051 837.9657,-83.2782 838.9714,-90.2055"/>
</g>
<!-- Node16 -->
<g id="node17" class="node">
<title>Node16</title>
<g id="a_node17"><a xlink:title=" ">
<polygon fill="#ffffff" stroke="#bfbfbf" points="314.5,-62 314.5,-81 359.5,-81 359.5,-62 314.5,-62"/>
<text text-anchor="middle" x="337" y="-69" font-family="Helvetica,sans-Serif" font-size="10.00" fill="#000000">utility</text>
</a>
</g>
</g>
<!-- Node15&#45;&gt;Node16 -->
<g id="edge20" class="edge">
<title>Node15&#45;&gt;Node16</title>
<path fill="none" stroke="#191970" d="M396.5275,-123.2967C384.2976,-112.6551 367.9841,-98.4602 355.5279,-87.6217"/>
<polygon fill="#191970" stroke="#191970" points="357.8225,-84.9788 347.9811,-81.055 353.2276,-90.2596 357.8225,-84.9788"/>
</g>
<!-- Node17 -->
<g id="node18" class="node">
<title>Node17</title>
<g id="a_node18"><a xlink:href="constants_8h.html" target="_top" xlink:title=" ">
<polygon fill="#ffffff" stroke="#000000" points="377.5,-62 377.5,-81 526.5,-81 526.5,-62 377.5,-62"/>
<text text-anchor="middle" x="452" y="-69" font-family="Helvetica,sans-Serif" font-size="10.00" fill="#000000">drake/common/constants.h</text>
</a>
</g>
</g>
<!-- Node15&#45;&gt;Node17 -->
<g id="edge22" class="edge">
<title>Node15&#45;&gt;Node17</title>
<path fill="none" stroke="#191970" d="M422.6228,-123.2967C428.256,-113.3645 435.6447,-100.3371 441.6027,-89.8321"/>
<polygon fill="#191970" stroke="#191970" points="444.6917,-91.4801 446.5808,-81.055 438.6029,-88.0266 444.6917,-91.4801"/>
</g>
<!-- Node18 -->
<g id="node19" class="node">
<title>Node18</title>
<g id="a_node19"><a xlink:href="drake__copyable_8h.html" target="_top" xlink:title="Provides careful macros to selectively enable or disable the special member functions for copy&#45;constr...">
<polygon fill="#ffffff" stroke="#000000" points="175.5,-56.5 175.5,-86.5 296.5,-86.5 296.5,-56.5 175.5,-56.5"/>
<text text-anchor="start" x="183.5" y="-74.5" font-family="Helvetica,sans-Serif" font-size="10.00" fill="#000000">drake/common/drake</text>
<text text-anchor="middle" x="236" y="-63.5" font-family="Helvetica,sans-Serif" font-size="10.00" fill="#000000">_copyable.h</text>
</a>
</g>
</g>
<!-- Node15&#45;&gt;Node18 -->
<g id="edge24" class="edge">
<title>Node15&#45;&gt;Node18</title>
<path fill="none" stroke="#191970" d="M374.0533,-123.4639C347.9217,-113.6278 313.5851,-100.7034 285.6936,-90.2049"/>
<polygon fill="#191970" stroke="#191970" points="286.7129,-86.8489 276.1209,-86.6017 284.2469,-93.4001 286.7129,-86.8489"/>
</g>
<!-- Node19&#45;&gt;Node3 -->
<g id="edge29" class="edge">
<title>Node19&#45;&gt;Node3</title>
<path fill="none" stroke="#191970" d="M531.7701,-195.9755C473.5752,-184.3005 379.2741,-164.7467 345,-154 310.5836,-143.2087 303.7524,-135.7167 270,-123 249.1215,-115.1337 194.7203,-96.7724 157.2573,-84.2407"/>
<polygon fill="#191970" stroke="#191970" points="158.2496,-80.8821 147.6559,-81.0325 156.0312,-87.5213 158.2496,-80.8821"/>
</g>
<!-- Node19&#45;&gt;Node9 -->
<g id="edge26" class="edge">
<title>Node19&#45;&gt;Node9</title>
<path fill="none" stroke="#191970" d="M590.1726,-195.9005C601.4553,-185.2535 619.8601,-167.8856 633.4742,-155.0385"/>
<polygon fill="#191970" stroke="#191970" points="635.9754,-157.4905 640.8463,-148.0817 631.1712,-152.3994 635.9754,-157.4905"/>
</g>
<!-- Node20 -->
<g id="node21" class="node">
<title>Node20</title>
<g id="a_node21"><a xlink:title=" ">
<polygon fill="#ffffff" stroke="#bfbfbf" points="988,-62 988,-81 1032,-81 1032,-62 988,-62"/>
<text text-anchor="middle" x="1010" y="-69" font-family="Helvetica,sans-Serif" font-size="10.00" fill="#000000">limits</text>
</a>
</g>
</g>
<!-- Node19&#45;&gt;Node20 -->
<g id="edge27" class="edge">
<title>Node19&#45;&gt;Node20</title>
<path fill="none" stroke="#191970" d="M632.0827,-195.9702C693.3975,-184.5181 791.389,-165.4214 827,-154 897.3,-131.4529 912.186,-118.4064 979,-87 979.9802,-86.5392 980.9758,-86.0667 981.9799,-85.5862"/>
<polygon fill="#191970" stroke="#191970" points="983.6037,-88.6883 991.0536,-81.1551 980.532,-82.3982 983.6037,-88.6883"/>
</g>
<!-- Node21 -->
<g id="node22" class="node">
<title>Node21</title>
<g id="a_node22"><a xlink:title=" ">
<polygon fill="#ffffff" stroke="#bfbfbf" points="552.5,-129 552.5,-148 609.5,-148 609.5,-129 552.5,-129"/>
<text text-anchor="middle" x="581" y="-136" font-family="Helvetica,sans-Serif" font-size="10.00" fill="#000000">ostream</text>
</a>
</g>
</g>
<!-- Node19&#45;&gt;Node21 -->
<g id="edge28" class="edge">
<title>Node19&#45;&gt;Node21</title>
<path fill="none" stroke="#191970" d="M580.1433,-195.9005C580.2888,-186.149 580.5185,-170.7597 580.7034,-158.3695"/>
<polygon fill="#191970" stroke="#191970" points="584.2073,-158.1328 580.857,-148.0817 577.208,-158.0283 584.2073,-158.1328"/>
</g>
<!-- Node22&#45;&gt;Node5 -->
<g id="edge37" class="edge">
<title>Node22&#45;&gt;Node5</title>
<path fill="none" stroke="#191970" d="M870.8491,-190.389C878.172,-167.5686 892.1353,-124.055 900.9856,-96.4751"/>
<polygon fill="#191970" stroke="#191970" points="904.3797,-97.3526 904.1027,-86.7614 897.7145,-95.2137 904.3797,-97.3526"/>
</g>
<!-- Node22&#45;&gt;Node9 -->
<g id="edge31" class="edge">
<title>Node22&#45;&gt;Node9</title>
<path fill="none" stroke="#191970" d="M803.2744,-190.4546C767.8103,-181.279 722.9145,-168.5337 684,-154 682.4101,-153.4062 680.7913,-152.7668 679.167,-152.0978"/>
<polygon fill="#191970" stroke="#191970" points="680.5312,-148.8743 669.9681,-148.0547 677.7146,-155.2826 680.5312,-148.8743"/>
</g>
<!-- Node22&#45;&gt;Node20 -->
<g id="edge32" class="edge">
<title>Node22&#45;&gt;Node20</title>
<path fill="none" stroke="#191970" d="M882.2387,-190.389C909.4187,-165.0965 963.915,-114.3847 992.1401,-88.1196"/>
<polygon fill="#191970" stroke="#191970" points="994.7427,-90.4788 999.6791,-81.1042 989.9741,-85.3543 994.7427,-90.4788"/>
</g>
<!-- Node23 -->
<g id="node24" class="node">
<title>Node23</title>
<g id="a_node24"><a xlink:href="cond_8h.html" target="_top" xlink:title=" ">
<polygon fill="#ffffff" stroke="#000000" points="692.5,-129 692.5,-148 817.5,-148 817.5,-129 692.5,-129"/>
<text text-anchor="middle" x="755" y="-136" font-family="Helvetica,sans-Serif" font-size="10.00" fill="#000000">drake/common/cond.h</text>
</a>
</g>
</g>
<!-- Node22&#45;&gt;Node23 -->
<g id="edge33" class="edge">
<title>Node22&#45;&gt;Node23</title>
<path fill="none" stroke="#191970" d="M841.0894,-190.4639C822.7167,-179.3741 797.84,-164.3584 779.5526,-153.32"/>
<polygon fill="#191970" stroke="#191970" points="781.281,-150.2751 770.911,-148.1039 777.6636,-156.268 781.281,-150.2751"/>
</g>
<!-- Node26 -->
<g id="node27" class="node">
<title>Node26</title>
<g id="a_node27"><a xlink:href="dummy__value_8h.html" target="_top" xlink:title=" ">
<polygon fill="#ffffff" stroke="#000000" points="988.5,-123.5 988.5,-153.5 1119.5,-153.5 1119.5,-123.5 988.5,-123.5"/>
<text text-anchor="start" x="996.5" y="-141.5" font-family="Helvetica,sans-Serif" font-size="10.00" fill="#000000">drake/common/dummy</text>
<text text-anchor="middle" x="1054" y="-130.5" font-family="Helvetica,sans-Serif" font-size="10.00" fill="#000000">_value.h</text>
</a>
</g>
</g>
<!-- Node22&#45;&gt;Node26 -->
<g id="edge38" class="edge">
<title>Node22&#45;&gt;Node26</title>
<path fill="none" stroke="#191970" d="M908.1909,-190.4639C935.9111,-180.5849 972.3731,-167.5905 1001.9001,-157.0675"/>
<polygon fill="#191970" stroke="#191970" points="1003.3804,-160.2557 1011.6251,-153.6017 1001.0304,-153.6619 1003.3804,-160.2557"/>
</g>
<!-- Node23&#45;&gt;Node6 -->
<g id="edge35" class="edge">
<title>Node23&#45;&gt;Node6</title>
<path fill="none" stroke="#191970" d="M716.4526,-128.9702C679.1858,-119.0157 626.3171,-102.6918 612,-87 597.7199,-71.3488 593.3723,-46.8071 592.1812,-29.6491"/>
<polygon fill="#191970" stroke="#191970" points="595.6766,-29.4607 591.7817,-19.6078 588.6821,-29.7391 595.6766,-29.4607"/>
</g>
<!-- Node24 -->
<g id="node25" class="node">
<title>Node24</title>
<g id="a_node25"><a xlink:title=" ">
<polygon fill="#ffffff" stroke="#bfbfbf" points="620.5,-62 620.5,-81 685.5,-81 685.5,-62 620.5,-62"/>
<text text-anchor="middle" x="653" y="-69" font-family="Helvetica,sans-Serif" font-size="10.00" fill="#000000">functional</text>
</a>
</g>
</g>
<!-- Node23&#45;&gt;Node24 -->
<g id="edge34" class="edge">
<title>Node23&#45;&gt;Node24</title>
<path fill="none" stroke="#191970" d="M740.3859,-128.9005C723.571,-117.8554 695.7451,-99.5776 676.0142,-86.6172"/>
<polygon fill="#191970" stroke="#191970" points="677.8667,-83.6465 667.587,-81.0817 674.0236,-89.4972 677.8667,-83.6465"/>
</g>
<!-- Node25 -->
<g id="node26" class="node">
<title>Node25</title>
<g id="a_node26"><a xlink:href="double__overloads_8h.html" target="_top" xlink:title="Provides necessary operations on double to have it as a ScalarType in drake.">
<polygon fill="#ffffff" stroke="#000000" points="704,-56.5 704,-86.5 830,-86.5 830,-56.5 704,-56.5"/>
<text text-anchor="start" x="712" y="-74.5" font-family="Helvetica,sans-Serif" font-size="10.00" fill="#000000">drake/common/double</text>
<text text-anchor="middle" x="767" y="-63.5" font-family="Helvetica,sans-Serif" font-size="10.00" fill="#000000">_overloads.h</text>
</a>
</g>
</g>
<!-- Node23&#45;&gt;Node25 -->
<g id="edge36" class="edge">
<title>Node23&#45;&gt;Node25</title>
<path fill="none" stroke="#191970" d="M756.7193,-128.9005C758.2221,-120.5099 760.4725,-107.9451 762.485,-96.7085"/>
<polygon fill="#191970" stroke="#191970" points="765.9916,-96.9822 764.3095,-86.5218 759.1013,-95.7481 765.9916,-96.9822"/>
</g>
<!-- Node26&#45;&gt;Node20 -->
<g id="edge39" class="edge">
<title>Node26&#45;&gt;Node20</title>
<path fill="none" stroke="#191970" d="M1044.0157,-123.2967C1037.4265,-113.2631 1028.763,-100.0709 1021.8283,-89.5113"/>
<polygon fill="#191970" stroke="#191970" points="1024.6898,-87.4924 1016.2749,-81.055 1018.8387,-91.3349 1024.6898,-87.4924"/>
</g>
<!-- Node27&#45;&gt;Node3 -->
<g id="edge42" class="edge">
<title>Node27&#45;&gt;Node3</title>
<path fill="none" stroke="#191970" d="M244.2091,-313.4247C207.8255,-305.0019 161.4973,-291.8001 149,-277 103.3831,-222.9779 110.05,-131.1332 115.6668,-91.1126"/>
<polygon fill="#191970" stroke="#191970" points="119.1509,-91.4835 117.2136,-81.0673 112.2324,-90.4181 119.1509,-91.4835"/>
</g>
</g>
</svg>
