<?xml version="1.0" encoding="UTF-8" standalone="no"?>
<!DOCTYPE svg PUBLIC "-//W3C//DTD SVG 1.1//EN"
 "http://www.w3.org/Graphics/SVG/1.1/DTD/svg11.dtd">
<!-- Generated by graphviz version 2.43.0 (0)
 -->
<!-- Title: drake/common/ad/auto_diff.h Pages: 1 -->
<svg width="589pt" height="296pt"
 viewBox="0.00 0.00 589.00 296.00" xmlns="http://www.w3.org/2000/svg" xmlns:xlink="http://www.w3.org/1999/xlink">
<g id="graph0" class="graph" transform="scale(1 1) rotate(0) translate(4 292)">
<title>drake/common/ad/auto_diff.h</title>
<polygon fill="white" stroke="transparent" points="-4,4 -4,-292 585,-292 585,4 -4,4"/>
<!-- Node0 -->
<g id="node1" class="node">
<title>Node0</title>
<g id="a_node1"><a xlink:title=" ">
<polygon fill="#bfbfbf" stroke="black" points="146,-257.5 146,-287.5 275,-287.5 275,-257.5 146,-257.5"/>
<text text-anchor="start" x="154" y="-275.5" font-family="Helvetica,sans-Serif" font-size="10.00">drake/common/ad/auto</text>
<text text-anchor="middle" x="210.5" y="-264.5" font-family="Helvetica,sans-Serif" font-size="10.00">_diff.h</text>
</a>
</g>
</g>
<!-- Node1 -->
<g id="node2" class="node">
<title>Node1</title>
<g id="a_node2"><a xlink:href="partials_8h.html" target="_top" xlink:title=" ">
<polygon fill="white" stroke="black" points="88,-190.5 88,-220.5 233,-220.5 233,-190.5 88,-190.5"/>
<text text-anchor="start" x="96" y="-208.5" font-family="Helvetica,sans-Serif" font-size="10.00">drake/common/ad/internal</text>
<text text-anchor="middle" x="160.5" y="-197.5" font-family="Helvetica,sans-Serif" font-size="10.00">/partials.h</text>
</a>
</g>
</g>
<!-- Node0&#45;&gt;Node1 -->
<g id="edge1" class="edge">
<title>Node0&#45;&gt;Node1</title>
<path fill="none" stroke="midnightblue" d="M199.65,-257.4C193.16,-248.96 184.78,-238.07 177.44,-228.52"/>
<polygon fill="midnightblue" stroke="midnightblue" points="180.2,-226.37 171.33,-220.58 174.65,-230.64 180.2,-226.37"/>
</g>
<!-- Node2 -->
<g id="node3" class="node">
<title>Node2</title>
<g id="a_node3"><a xlink:href="drake__copyable_8h.html" target="_top" xlink:title="Provides careful macros to selectively enable or disable the special member functions for copy&#45;constr...">
<polygon fill="white" stroke="black" points="0,-56.5 0,-86.5 119,-86.5 119,-56.5 0,-56.5"/>
<text text-anchor="start" x="8" y="-74.5" font-family="Helvetica,sans-Serif" font-size="10.00">drake/common/drake</text>
<text text-anchor="middle" x="59.5" y="-63.5" font-family="Helvetica,sans-Serif" font-size="10.00">_copyable.h</text>
</a>
</g>
</g>
<!-- Node0&#45;&gt;Node2 -->
<g id="edge10" class="edge">
<title>Node0&#45;&gt;Node2</title>
<path fill="none" stroke="midnightblue" d="M145.92,-261.37C121.17,-254.19 94.96,-241.93 78.5,-221 50.33,-185.18 51.84,-128.77 55.58,-96.77"/>
<polygon fill="midnightblue" stroke="midnightblue" points="59.09,-96.93 56.95,-86.55 52.15,-95.99 59.09,-96.93"/>
</g>
<!-- Node3 -->
<g id="node4" class="node">
<title>Node3</title>
<g id="a_node4"><a xlink:href="eigen__types_8h.html" target="_top" xlink:title="This file contains abbreviated definitions for certain specializations of Eigen::Matrix that are comm...">
<polygon fill="white" stroke="black" points="201,-123.5 201,-153.5 320,-153.5 320,-123.5 201,-123.5"/>
<text text-anchor="start" x="209" y="-141.5" font-family="Helvetica,sans-Serif" font-size="10.00">drake/common/eigen</text>
<text text-anchor="middle" x="260.5" y="-130.5" font-family="Helvetica,sans-Serif" font-size="10.00">_types.h</text>
</a>
</g>
</g>
<!-- Node0&#45;&gt;Node3 -->
<g id="edge11" class="edge">
<title>Node0&#45;&gt;Node3</title>
<path fill="none" stroke="midnightblue" d="M221.04,-257.14C227.77,-247.39 236.18,-233.94 241.5,-221 249.11,-202.48 254.03,-180.28 256.96,-163.73"/>
<polygon fill="midnightblue" stroke="midnightblue" points="260.42,-164.2 258.6,-153.77 253.52,-163.07 260.42,-164.2"/>
</g>
<!-- Node9 -->
<g id="node10" class="node">
<title>Node9</title>
<g id="a_node10"><a xlink:href="standard__operations_8h.html" target="_top" xlink:title=" ">
<polygon fill="white" stroke="black" points="290,-190.5 290,-220.5 435,-220.5 435,-190.5 290,-190.5"/>
<text text-anchor="start" x="298" y="-208.5" font-family="Helvetica,sans-Serif" font-size="10.00">drake/common/ad/internal</text>
<text text-anchor="middle" x="362.5" y="-197.5" font-family="Helvetica,sans-Serif" font-size="10.00">/standard_operations.h</text>
</a>
</g>
</g>
<!-- Node0&#45;&gt;Node9 -->
<g id="edge12" class="edge">
<title>Node0&#45;&gt;Node9</title>
<path fill="none" stroke="midnightblue" d="M243.48,-257.4C265.99,-247.77 296,-234.94 320.26,-224.56"/>
<polygon fill="midnightblue" stroke="midnightblue" points="321.76,-227.73 329.58,-220.58 319.01,-221.29 321.76,-227.73"/>
</g>
<!-- Node1&#45;&gt;Node2 -->
<g id="edge2" class="edge">
<title>Node1&#45;&gt;Node2</title>
<path fill="none" stroke="midnightblue" d="M149.69,-190.37C132.15,-167.45 97.35,-121.97 76.48,-94.69"/>
<polygon fill="midnightblue" stroke="midnightblue" points="79.09,-92.34 70.23,-86.52 73.53,-96.59 79.09,-92.34"/>
</g>
<!-- Node1&#45;&gt;Node3 -->
<g id="edge3" class="edge">
<title>Node1&#45;&gt;Node3</title>
<path fill="none" stroke="midnightblue" d="M182.2,-190.4C196.22,-181.28 214.67,-169.29 230.14,-159.24"/>
<polygon fill="midnightblue" stroke="midnightblue" points="232.37,-161.96 238.84,-153.58 228.55,-156.09 232.37,-161.96"/>
</g>
<!-- Node3&#45;&gt;Node2 -->
<g id="edge9" class="edge">
<title>Node3&#45;&gt;Node2</title>
<path fill="none" stroke="midnightblue" d="M216.89,-123.4C186.33,-113.52 145.32,-100.25 112.82,-89.74"/>
<polygon fill="midnightblue" stroke="midnightblue" points="113.62,-86.32 103.03,-86.58 111.47,-92.98 113.62,-86.32"/>
</g>
<!-- Node4 -->
<g id="node5" class="node">
<title>Node4</title>
<g id="a_node5"><a xlink:title=" ">
<polygon fill="white" stroke="#bfbfbf" points="536,-62 536,-81 581,-81 581,-62 536,-62"/>
<text text-anchor="middle" x="558.5" y="-69" font-family="Helvetica,sans-Serif" font-size="10.00">utility</text>
</a>
</g>
</g>
<!-- Node3&#45;&gt;Node4 -->
<g id="edge4" class="edge">
<title>Node3&#45;&gt;Node4</title>
<path fill="none" stroke="midnightblue" d="M320.32,-124.83C323.42,-124.2 326.5,-123.59 329.5,-123 417.27,-105.8 442.28,-114.17 527.5,-87 529.17,-86.47 530.87,-85.86 532.57,-85.21"/>
<polygon fill="midnightblue" stroke="midnightblue" points="534.27,-88.29 542.09,-81.14 531.51,-81.86 534.27,-88.29"/>
</g>
<!-- Node5 -->
<g id="node6" class="node">
<title>Node5</title>
<g id="a_node6"><a xlink:title=" ">
<polygon fill="white" stroke="#bfbfbf" points="137,-62 137,-81 214,-81 214,-62 137,-62"/>
<text text-anchor="middle" x="175.5" y="-69" font-family="Helvetica,sans-Serif" font-size="10.00">Eigen/Dense</text>
</a>
</g>
</g>
<!-- Node3&#45;&gt;Node5 -->
<g id="edge5" class="edge">
<title>Node3&#45;&gt;Node5</title>
<path fill="none" stroke="midnightblue" d="M242.06,-123.4C228.15,-112.76 209.11,-98.2 194.96,-87.38"/>
<polygon fill="midnightblue" stroke="midnightblue" points="196.94,-84.49 186.87,-81.19 192.69,-90.05 196.94,-84.49"/>
</g>
<!-- Node6 -->
<g id="node7" class="node">
<title>Node6</title>
<g id="a_node7"><a xlink:href="constants_8h.html" target="_top" xlink:title=" ">
<polygon fill="white" stroke="black" points="232,-62 232,-81 381,-81 381,-62 232,-62"/>
<text text-anchor="middle" x="306.5" y="-69" font-family="Helvetica,sans-Serif" font-size="10.00">drake/common/constants.h</text>
</a>
</g>
</g>
<!-- Node3&#45;&gt;Node6 -->
<g id="edge6" class="edge">
<title>Node3&#45;&gt;Node6</title>
<path fill="none" stroke="midnightblue" d="M270.48,-123.4C277.51,-113.46 286.96,-100.11 294.42,-89.57"/>
<polygon fill="midnightblue" stroke="midnightblue" points="297.43,-91.38 300.35,-81.19 291.71,-87.34 297.43,-91.38"/>
</g>
<!-- Node7 -->
<g id="node8" class="node">
<title>Node7</title>
<g id="a_node8"><a xlink:href="drake__assert_8h.html" target="_top" xlink:title="Provides Drake&#39;s assertion implementation.">
<polygon fill="white" stroke="black" points="399,-56.5 399,-86.5 518,-86.5 518,-56.5 399,-56.5"/>
<text text-anchor="start" x="407" y="-74.5" font-family="Helvetica,sans-Serif" font-size="10.00">drake/common/drake</text>
<text text-anchor="middle" x="458.5" y="-63.5" font-family="Helvetica,sans-Serif" font-size="10.00">_assert.h</text>
</a>
</g>
</g>
<!-- Node3&#45;&gt;Node7 -->
<g id="edge7" class="edge">
<title>Node3&#45;&gt;Node7</title>
<path fill="none" stroke="midnightblue" d="M303.46,-123.4C333.56,-113.52 373.96,-100.25 405.98,-89.74"/>
<polygon fill="midnightblue" stroke="midnightblue" points="407.21,-93.02 415.62,-86.58 405.03,-86.37 407.21,-93.02"/>
</g>
<!-- Node8 -->
<g id="node9" class="node">
<title>Node8</title>
<g id="a_node9"><a xlink:title=" ">
<polygon fill="white" stroke="#bfbfbf" points="424,-0.5 424,-19.5 493,-19.5 493,-0.5 424,-0.5"/>
<text text-anchor="middle" x="458.5" y="-7.5" font-family="Helvetica,sans-Serif" font-size="10.00">type_traits</text>
</a>
</g>
</g>
<!-- Node7&#45;&gt;Node8 -->
<g id="edge8" class="edge">
<title>Node7&#45;&gt;Node8</title>
<path fill="none" stroke="midnightblue" d="M458.5,-56.4C458.5,-48.47 458.5,-38.46 458.5,-29.86"/>
<polygon fill="midnightblue" stroke="midnightblue" points="462,-29.66 458.5,-19.66 455,-29.66 462,-29.66"/>
</g>
<!-- Node10 -->
<g id="node11" class="node">
<title>Node10</title>
<g id="a_node11"><a xlink:title=" ">
<polygon fill="white" stroke="#bfbfbf" points="338,-129 338,-148 387,-148 387,-129 338,-129"/>
<text text-anchor="middle" x="362.5" y="-136" font-family="Helvetica,sans-Serif" font-size="10.00">iosfwd</text>
</a>
</g>
</g>
<!-- Node9&#45;&gt;Node10 -->
<g id="edge13" class="edge">
<title>Node9&#45;&gt;Node10</title>
<path fill="none" stroke="midnightblue" d="M362.5,-190.4C362.5,-181.06 362.5,-168.71 362.5,-158.52"/>
<polygon fill="midnightblue" stroke="midnightblue" points="366,-158.19 362.5,-148.19 359,-158.19 366,-158.19"/>
</g>
</g>
</svg>
