<?xml version="1.0" encoding="UTF-8" standalone="no"?>
<!DOCTYPE svg PUBLIC "-//W3C//DTD SVG 1.1//EN"
 "http://www.w3.org/Graphics/SVG/1.1/DTD/svg11.dtd">
<!-- Generated by graphviz version 2.43.0 (0)
 -->
<!-- Title: drake/common/ad/auto_diff.h Pages: 1 -->
<svg width="1791pt" height="490pt"
 viewBox="0.00 0.00 1790.88 489.87" xmlns="http://www.w3.org/2000/svg" xmlns:xlink="http://www.w3.org/1999/xlink">
<g id="graph0" class="graph" transform="scale(1 1) rotate(0) translate(4 485.87)">
<title>drake/common/ad/auto_diff.h</title>
<!-- Node1 -->
<g id="Node000001" class="node">
<title>Node1</title>
<g id="a_Node000001"><a xlink:title=" ">
<ellipse fill="#999999" stroke="#666666" cx="1084.35" cy="-460.66" rx="91.43" ry="21.43"/>
<text text-anchor="start" x="1027.85" y="-463.66" font-family="Helvetica,sans-Serif" font-size="10.00">drake/common/ad/auto</text>
<text text-anchor="middle" x="1084.35" y="-452.66" font-family="Helvetica,sans-Serif" font-size="10.00">_diff.h</text>
</a>
</g>
</g>
<!-- Node2 -->
<g id="Node000002" class="node">
<title>Node2</title>
<g id="a_Node000002"><a xlink:href="derivatives__xpr_8h.html" target="_top" xlink:title=" ">
<ellipse fill="white" stroke="#666666" cx="672.35" cy="-303.81" rx="102.56" ry="21.43"/>
<text text-anchor="start" x="607.85" y="-306.81" font-family="Helvetica,sans-Serif" font-size="10.00">drake/common/ad/internal</text>
<text text-anchor="middle" x="672.35" y="-295.81" font-family="Helvetica,sans-Serif" font-size="10.00">/derivatives_xpr.h</text>
</a>
</g>
</g>
<!-- Node1&#45;&gt;Node2 -->
<g id="edge1_Node000001_Node000002" class="edge">
<title>Node1&#45;&gt;Node2</title>
<g id="a_edge1_Node000001_Node000002"><a xlink:title=" ">
<path fill="none" stroke="#63b8ff" d="M996.82,-454.69C936.13,-448.5 854.78,-434.6 789.35,-403.45 753.14,-386.21 718.96,-355.01 697,-332.3"/>
<polygon fill="#63b8ff" stroke="#63b8ff" points="699.45,-329.8 690.03,-324.96 694.37,-334.62 699.45,-329.8"/>
</a>
</g>
</g>
<!-- Node4 -->
<g id="Node000004" class="node">
<title>Node4</title>
<g id="a_Node000004"><a xlink:href="eigen__types_8h.html" target="_top" xlink:title="This file contains abbreviated definitions for certain specializations of Eigen::Matrix that are comm...">
<ellipse fill="white" stroke="#666666" cx="672.35" cy="-225.38" rx="84.29" ry="21.43"/>
<text text-anchor="start" x="620.85" y="-228.38" font-family="Helvetica,sans-Serif" font-size="10.00">drake/common/eigen</text>
<text text-anchor="middle" x="672.35" y="-217.38" font-family="Helvetica,sans-Serif" font-size="10.00">_types.h</text>
</a>
</g>
</g>
<!-- Node1&#45;&gt;Node4 -->
<g id="edge29_Node000001_Node000004" class="edge">
<title>Node1&#45;&gt;Node4</title>
<g id="a_edge29_Node000001_Node000004"><a xlink:title=" ">
<path fill="none" stroke="#63b8ff" d="M1002.7,-451.15C935.95,-442.61 848.49,-427.25 822.35,-403.45 780.72,-365.53 820.84,-325.47 784.35,-282.59 770.9,-266.79 751.92,-254.96 733.4,-246.33"/>
<polygon fill="#63b8ff" stroke="#63b8ff" points="734.65,-243.06 724.09,-242.23 731.83,-249.47 734.65,-243.06"/>
</a>
</g>
</g>
<!-- Node13 -->
<g id="Node000013" class="node">
<title>Node13</title>
<g id="a_Node000013"><a xlink:href="drake__copyable_8h.html" target="_top" xlink:title="Provides careful macros to selectively enable or disable the special member functions for copy&#45;constr...">
<ellipse fill="white" stroke="#666666" cx="1016.35" cy="-146.95" rx="84.29" ry="21.43"/>
<text text-anchor="start" x="964.85" y="-149.95" font-family="Helvetica,sans-Serif" font-size="10.00">drake/common/drake</text>
<text text-anchor="middle" x="1016.35" y="-138.95" font-family="Helvetica,sans-Serif" font-size="10.00">_copyable.h</text>
</a>
</g>
</g>
<!-- Node1&#45;&gt;Node13 -->
<g id="edge28_Node000001_Node000013" class="edge">
<title>Node1&#45;&gt;Node13</title>
<g id="a_edge28_Node000001_Node000013"><a xlink:title=" ">
<path fill="none" stroke="#63b8ff" d="M1079.89,-439.21C1068.24,-385.82 1036.86,-241.99 1023.04,-178.64"/>
<polygon fill="#63b8ff" stroke="#63b8ff" points="1026.38,-177.5 1020.83,-168.48 1019.54,-179 1026.38,-177.5"/>
</a>
</g>
</g>
<!-- Node17 -->
<g id="Node000017" class="node">
<title>Node17</title>
<g id="a_Node000017"><a xlink:href="fmt_8h.html" target="_top" xlink:title=" ">
<ellipse fill="white" stroke="#666666" cx="844.35" cy="-76.31" rx="84.29" ry="13.37"/>
<text text-anchor="middle" x="844.35" y="-73.81" font-family="Helvetica,sans-Serif" font-size="10.00">drake/common/fmt.h</text>
</a>
</g>
</g>
<!-- Node1&#45;&gt;Node17 -->
<g id="edge30_Node000001_Node000017" class="edge">
<title>Node1&#45;&gt;Node17</title>
<g id="a_edge30_Node000001_Node000017"><a xlink:title=" ">
<path fill="none" stroke="#63b8ff" d="M1089.47,-439.05C1105.15,-373.82 1149.09,-173.4 1109.35,-125.74 1087.16,-99.13 1001.91,-87.1 934.01,-81.68"/>
<polygon fill="#63b8ff" stroke="#63b8ff" points="933.94,-78.17 923.7,-80.9 933.41,-85.15 933.94,-78.17"/>
</a>
</g>
</g>
<!-- Node19 -->
<g id="Node000019" class="node">
<title>Node19</title>
<g id="a_Node000019"><a xlink:href="partials_8h.html" target="_top" xlink:title=" ">
<ellipse fill="white" stroke="#666666" cx="934.35" cy="-382.23" rx="102.56" ry="21.43"/>
<text text-anchor="start" x="869.85" y="-385.23" font-family="Helvetica,sans-Serif" font-size="10.00">drake/common/ad/internal</text>
<text text-anchor="middle" x="934.35" y="-374.23" font-family="Helvetica,sans-Serif" font-size="10.00">/partials.h</text>
</a>
</g>
</g>
<!-- Node1&#45;&gt;Node19 -->
<g id="edge24_Node000001_Node000019" class="edge">
<title>Node1&#45;&gt;Node19</title>
<g id="a_edge24_Node000001_Node000019"><a xlink:title=" ">
<path fill="none" stroke="#63b8ff" d="M1048.04,-441.16C1027.7,-430.8 1002.15,-417.78 980.42,-406.71"/>
<polygon fill="#63b8ff" stroke="#63b8ff" points="981.86,-403.52 971.37,-402.09 978.69,-409.75 981.86,-403.52"/>
</a>
</g>
</g>
<!-- Node20 -->
<g id="Node000020" class="node">
<title>Node20</title>
<g id="a_Node000020"><a xlink:href="standard__operations_8h.html" target="_top" xlink:title=" ">
<ellipse fill="white" stroke="#666666" cx="1457.35" cy="-382.23" rx="102.56" ry="21.43"/>
<text text-anchor="start" x="1392.85" y="-385.23" font-family="Helvetica,sans-Serif" font-size="10.00">drake/common/ad/internal</text>
<text text-anchor="middle" x="1457.35" y="-374.23" font-family="Helvetica,sans-Serif" font-size="10.00">/standard_operations.h</text>
</a>
</g>
</g>
<!-- Node1&#45;&gt;Node20 -->
<g id="edge31_Node000001_Node000020" class="edge">
<title>Node1&#45;&gt;Node20</title>
<g id="a_edge31_Node000001_Node000020"><a xlink:title=" ">
<path fill="none" stroke="#63b8ff" d="M1151.03,-446C1214.21,-433.05 1309.21,-413.58 1376.64,-399.77"/>
<polygon fill="#63b8ff" stroke="#63b8ff" points="1377.71,-403.12 1386.8,-397.69 1376.3,-396.27 1377.71,-403.12"/>
</a>
</g>
</g>
<!-- Node23 -->
<g id="Node000023" class="node">
<title>Node23</title>
<g id="a_Node000023"><a xlink:href="eigen__specializations_8h.html" target="_top" xlink:title=" ">
<ellipse fill="white" stroke="#666666" cx="1234.35" cy="-382.23" rx="102.56" ry="21.43"/>
<text text-anchor="start" x="1169.85" y="-385.23" font-family="Helvetica,sans-Serif" font-size="10.00">drake/common/ad/internal</text>
<text text-anchor="middle" x="1234.35" y="-374.23" font-family="Helvetica,sans-Serif" font-size="10.00">/eigen_specializations.h</text>
</a>
</g>
</g>
<!-- Node1&#45;&gt;Node23 -->
<g id="edge34_Node000001_Node000023" class="edge">
<title>Node1&#45;&gt;Node23</title>
<g id="a_edge34_Node000001_Node000023"><a xlink:title=" ">
<path fill="none" stroke="#63b8ff" d="M1120.66,-441.16C1140.99,-430.8 1166.55,-417.78 1188.28,-406.71"/>
<polygon fill="#63b8ff" stroke="#63b8ff" points="1190.01,-409.75 1197.33,-402.09 1186.83,-403.52 1190.01,-409.75"/>
</a>
</g>
</g>
<!-- Node25 -->
<g id="Node000025" class="node">
<title>Node25</title>
<g id="a_Node000025"><a xlink:href="drake__operations_8h.html" target="_top" xlink:title=" ">
<ellipse fill="white" stroke="#666666" cx="1680.35" cy="-382.23" rx="102.56" ry="21.43"/>
<text text-anchor="start" x="1615.85" y="-385.23" font-family="Helvetica,sans-Serif" font-size="10.00">drake/common/ad/internal</text>
<text text-anchor="middle" x="1680.35" y="-374.23" font-family="Helvetica,sans-Serif" font-size="10.00">/drake_operations.h</text>
</a>
</g>
</g>
<!-- Node1&#45;&gt;Node25 -->
<g id="edge37_Node000001_Node000025" class="edge">
<title>Node1&#45;&gt;Node25</title>
<g id="a_edge37_Node000001_Node000025"><a xlink:title=" ">
<path fill="none" stroke="#63b8ff" d="M1167.38,-451.69C1264.13,-442.02 1428.7,-424.38 1569.35,-403.45 1578.38,-402.1 1587.81,-400.58 1597.18,-398.98"/>
<polygon fill="#63b8ff" stroke="#63b8ff" points="1598.06,-402.38 1607.32,-397.23 1596.87,-395.48 1598.06,-402.38"/>
</a>
</g>
</g>
<!-- Node3 -->
<g id="Node000003" class="node">
<title>Node3</title>
<g id="a_Node000003"><a xlink:title=" ">
<ellipse fill="#e0e0e0" stroke="#999999" cx="420.35" cy="-13.44" rx="48.58" ry="13.37"/>
<text text-anchor="middle" x="420.35" y="-10.94" font-family="Helvetica,sans-Serif" font-size="10.00">type_traits</text>
</a>
</g>
</g>
<!-- Node2&#45;&gt;Node3 -->
<g id="edge2_Node000002_Node000003" class="edge">
<title>Node2&#45;&gt;Node3</title>
<g id="a_edge2_Node000002_Node000003"><a xlink:title=" ">
<path fill="none" stroke="#63b8ff" d="M574.65,-297.35C409.76,-285.87 87.42,-252.91 18.35,-168.17 -77.12,-51.04 229.11,-23.03 361.96,-16.43"/>
<polygon fill="#63b8ff" stroke="#63b8ff" points="362.16,-19.93 371.98,-15.96 361.83,-12.93 362.16,-19.93"/>
</a>
</g>
</g>
<!-- Node2&#45;&gt;Node4 -->
<g id="edge3_Node000002_Node000004" class="edge">
<title>Node2&#45;&gt;Node4</title>
<g id="a_edge3_Node000002_Node000004"><a xlink:title=" ">
<path fill="none" stroke="#63b8ff" d="M672.35,-282.33C672.35,-274.47 672.35,-265.32 672.35,-256.73"/>
<polygon fill="#63b8ff" stroke="#63b8ff" points="675.85,-256.65 672.35,-246.65 668.85,-256.65 675.85,-256.65"/>
</a>
</g>
</g>
<!-- Node5 -->
<g id="Node000005" class="node">
<title>Node5</title>
<g id="a_Node000005"><a xlink:title=" ">
<ellipse fill="#e0e0e0" stroke="#999999" cx="64.35" cy="-146.95" rx="37.45" ry="13.37"/>
<text text-anchor="middle" x="64.35" y="-144.45" font-family="Helvetica,sans-Serif" font-size="10.00">iterator</text>
</a>
</g>
</g>
<!-- Node4&#45;&gt;Node5 -->
<g id="edge4_Node000004_Node000005" class="edge">
<title>Node4&#45;&gt;Node5</title>
<g id="a_edge4_Node000004_Node000005"><a xlink:title=" ">
<path fill="none" stroke="#63b8ff" d="M588.26,-223.92C477.3,-221.51 276.72,-210.92 111.35,-168.17 105.76,-166.72 99.98,-164.71 94.46,-162.51"/>
<polygon fill="#63b8ff" stroke="#63b8ff" points="95.49,-159.14 84.92,-158.42 92.74,-165.57 95.49,-159.14"/>
</a>
</g>
</g>
<!-- Node6 -->
<g id="Node000006" class="node">
<title>Node6</title>
<g id="a_Node000006"><a xlink:title=" ">
<ellipse fill="#e0e0e0" stroke="#999999" cx="672.35" cy="-76.31" rx="31.64" ry="13.37"/>
<text text-anchor="middle" x="672.35" y="-73.81" font-family="Helvetica,sans-Serif" font-size="10.00">utility</text>
</a>
</g>
</g>
<!-- Node4&#45;&gt;Node6 -->
<g id="edge5_Node000004_Node000006" class="edge">
<title>Node4&#45;&gt;Node6</title>
<g id="a_edge5_Node000004_Node000006"><a xlink:title=" ">
<path fill="none" stroke="#63b8ff" d="M672.35,-203.93C672.35,-176.61 672.35,-128.38 672.35,-99.98"/>
<polygon fill="#63b8ff" stroke="#63b8ff" points="675.85,-99.81 672.35,-89.81 668.85,-99.81 675.85,-99.81"/>
</a>
</g>
</g>
<!-- Node7 -->
<g id="Node000007" class="node">
<title>Node7</title>
<g id="a_Node000007"><a xlink:title=" ">
<ellipse fill="#e0e0e0" stroke="#999999" cx="174.35" cy="-146.95" rx="54.39" ry="13.37"/>
<text text-anchor="middle" x="174.35" y="-144.45" font-family="Helvetica,sans-Serif" font-size="10.00">Eigen/Dense</text>
</a>
</g>
</g>
<!-- Node4&#45;&gt;Node7 -->
<g id="edge6_Node000004_Node000007" class="edge">
<title>Node4&#45;&gt;Node7</title>
<g id="a_edge6_Node000004_Node000007"><a xlink:title=" ">
<path fill="none" stroke="#63b8ff" d="M592.82,-218.33C505.23,-210.69 360.57,-195.16 238.35,-168.17 230.18,-166.36 221.56,-163.98 213.38,-161.49"/>
<polygon fill="#63b8ff" stroke="#63b8ff" points="214.27,-158.1 203.68,-158.42 212.16,-164.77 214.27,-158.1"/>
</a>
</g>
</g>
<!-- Node8 -->
<g id="Node000008" class="node">
<title>Node8</title>
<g id="a_Node000008"><a xlink:href="constants_8h.html" target="_top" xlink:title=" ">
<ellipse fill="white" stroke="#666666" cx="352.35" cy="-146.95" rx="105.22" ry="13.37"/>
<text text-anchor="middle" x="352.35" y="-144.45" font-family="Helvetica,sans-Serif" font-size="10.00">drake/common/constants.h</text>
</a>
</g>
</g>
<!-- Node4&#45;&gt;Node8 -->
<g id="edge7_Node000004_Node000008" class="edge">
<title>Node4&#45;&gt;Node8</title>
<g id="a_edge7_Node000004_Node000008"><a xlink:title=" ">
<path fill="none" stroke="#63b8ff" d="M612.91,-210.18C554.59,-196.26 466.31,-175.17 408.98,-161.48"/>
<polygon fill="#63b8ff" stroke="#63b8ff" points="409.54,-158.02 399,-159.1 407.92,-164.82 409.54,-158.02"/>
</a>
</g>
</g>
<!-- Node9 -->
<g id="Node000009" class="node">
<title>Node9</title>
<g id="a_Node000009"><a xlink:href="drake__assert_8h.html" target="_top" xlink:title="Provides Drake&#39;s assertion mechanics.">
<ellipse fill="white" stroke="#666666" cx="560.35" cy="-146.95" rx="84.29" ry="21.43"/>
<text text-anchor="start" x="508.85" y="-149.95" font-family="Helvetica,sans-Serif" font-size="10.00">drake/common/drake</text>
<text text-anchor="middle" x="560.35" y="-138.95" font-family="Helvetica,sans-Serif" font-size="10.00">_assert.h</text>
</a>
</g>
</g>
<!-- Node4&#45;&gt;Node9 -->
<g id="edge8_Node000004_Node000009" class="edge">
<title>Node4&#45;&gt;Node9</title>
<g id="a_edge8_Node000004_Node000009"><a xlink:title=" ">
<path fill="none" stroke="#63b8ff" d="M644.37,-205.29C629.94,-195.44 612.16,-183.31 596.68,-172.75"/>
<polygon fill="#63b8ff" stroke="#63b8ff" points="598.58,-169.81 588.35,-167.06 594.64,-175.59 598.58,-169.81"/>
</a>
</g>
</g>
<!-- Node4&#45;&gt;Node13 -->
<g id="edge14_Node000004_Node000013" class="edge">
<title>Node4&#45;&gt;Node13</title>
<g id="a_edge14_Node000004_Node000013"><a xlink:title=" ">
<path fill="none" stroke="#63b8ff" d="M733.85,-210.72C793.19,-197.53 882.97,-177.59 945.33,-163.73"/>
<polygon fill="#63b8ff" stroke="#63b8ff" points="946.09,-167.15 955.09,-161.56 944.57,-160.31 946.09,-167.15"/>
</a>
</g>
</g>
<!-- Node14 -->
<g id="Node000014" class="node">
<title>Node14</title>
<g id="a_Node000014"><a xlink:href="fmt__eigen_8h.html" target="_top" xlink:title=" ">
<ellipse fill="white" stroke="#666666" cx="807.35" cy="-146.95" rx="106.55" ry="13.37"/>
<text text-anchor="middle" x="807.35" y="-144.45" font-family="Helvetica,sans-Serif" font-size="10.00">drake/common/fmt_eigen.h</text>
</a>
</g>
</g>
<!-- Node4&#45;&gt;Node14 -->
<g id="edge15_Node000004_Node000014" class="edge">
<title>Node4&#45;&gt;Node14</title>
<g id="a_edge15_Node000004_Node000014"><a xlink:title=" ">
<path fill="none" stroke="#63b8ff" d="M705.37,-205.68C727.13,-193.37 755.42,-177.35 776.69,-165.31"/>
<polygon fill="#63b8ff" stroke="#63b8ff" points="778.64,-168.23 785.62,-160.25 775.19,-162.13 778.64,-168.23"/>
</a>
</g>
</g>
<!-- Node9&#45;&gt;Node3 -->
<g id="edge12_Node000009_Node000003" class="edge">
<title>Node9&#45;&gt;Node3</title>
<g id="a_edge12_Node000009_Node000003"><a xlink:title=" ">
<path fill="none" stroke="#63b8ff" d="M503.34,-131.22C480.44,-122.62 455.67,-109.46 439.35,-89.74 427.19,-75.06 422.67,-53.62 421.05,-37.38"/>
<polygon fill="#63b8ff" stroke="#63b8ff" points="424.52,-36.84 420.34,-27.1 417.54,-37.32 424.52,-36.84"/>
</a>
</g>
</g>
<!-- Node9&#45;&gt;Node6 -->
<g id="edge13_Node000009_Node000006" class="edge">
<title>Node9&#45;&gt;Node6</title>
<g id="a_edge13_Node000009_Node000006"><a xlink:title=" ">
<path fill="none" stroke="#63b8ff" d="M591.25,-127.01C608.62,-116.36 630.06,-103.23 646.53,-93.13"/>
<polygon fill="#63b8ff" stroke="#63b8ff" points="648.41,-96.08 655.11,-87.87 644.75,-90.11 648.41,-96.08"/>
</a>
</g>
</g>
<!-- Node10 -->
<g id="Node000010" class="node">
<title>Node10</title>
<g id="a_Node000010"><a xlink:title=" ">
<ellipse fill="#e0e0e0" stroke="#999999" cx="478.35" cy="-76.31" rx="29.9" ry="13.37"/>
<text text-anchor="middle" x="478.35" y="-73.81" font-family="Helvetica,sans-Serif" font-size="10.00">array</text>
</a>
</g>
</g>
<!-- Node9&#45;&gt;Node10 -->
<g id="edge9_Node000009_Node000010" class="edge">
<title>Node9&#45;&gt;Node10</title>
<g id="a_edge9_Node000009_Node000010"><a xlink:title=" ">
<path fill="none" stroke="#63b8ff" d="M537.07,-126.47C525.33,-116.64 511.2,-104.81 499.74,-95.21"/>
<polygon fill="#63b8ff" stroke="#63b8ff" points="501.85,-92.42 491.94,-88.68 497.36,-97.79 501.85,-92.42"/>
</a>
</g>
</g>
<!-- Node11 -->
<g id="Node000011" class="node">
<title>Node11</title>
<g id="a_Node000011"><a xlink:title=" ">
<ellipse fill="#e0e0e0" stroke="#999999" cx="730.35" cy="-13.44" rx="31.23" ry="13.37"/>
<text text-anchor="middle" x="730.35" y="-10.94" font-family="Helvetica,sans-Serif" font-size="10.00">string</text>
</a>
</g>
</g>
<!-- Node9&#45;&gt;Node11 -->
<g id="edge10_Node000009_Node000011" class="edge">
<title>Node9&#45;&gt;Node11</title>
<g id="a_edge10_Node000009_Node000011"><a xlink:title=" ">
<path fill="none" stroke="#63b8ff" d="M573.93,-125.77C586.98,-107.54 608.1,-80.89 631.35,-62.87 651.49,-47.26 677.48,-34.78 697.77,-26.4"/>
<polygon fill="#63b8ff" stroke="#63b8ff" points="699.24,-29.58 707.22,-22.62 696.64,-23.08 699.24,-29.58"/>
</a>
</g>
</g>
<!-- Node12 -->
<g id="Node000012" class="node">
<title>Node12</title>
<g id="a_Node000012"><a xlink:title=" ">
<ellipse fill="#e0e0e0" stroke="#999999" cx="555.35" cy="-76.31" rx="28.98" ry="13.37"/>
<text text-anchor="middle" x="555.35" y="-73.81" font-family="Helvetica,sans-Serif" font-size="10.00">tuple</text>
</a>
</g>
</g>
<!-- Node9&#45;&gt;Node12 -->
<g id="edge11_Node000009_Node000012" class="edge">
<title>Node9&#45;&gt;Node12</title>
<g id="a_edge11_Node000009_Node000012"><a xlink:title=" ">
<path fill="none" stroke="#63b8ff" d="M558.87,-125.73C558.29,-117.7 557.61,-108.42 557.01,-100.15"/>
<polygon fill="#63b8ff" stroke="#63b8ff" points="560.49,-99.77 556.28,-90.05 553.51,-100.27 560.49,-99.77"/>
</a>
</g>
</g>
<!-- Node14&#45;&gt;Node11 -->
<g id="edge16_Node000014_Node000011" class="edge">
<title>Node14&#45;&gt;Node11</title>
<g id="a_edge16_Node000014_Node000011"><a xlink:title=" ">
<path fill="none" stroke="#63b8ff" d="M791.08,-133.57C778.5,-123.17 761.54,-107.24 751.35,-89.74 741.89,-73.51 736.52,-52.82 733.58,-37.23"/>
<polygon fill="#63b8ff" stroke="#63b8ff" points="736.96,-36.2 731.85,-26.92 730.05,-37.36 736.96,-36.2"/>
</a>
</g>
</g>
<!-- Node15 -->
<g id="Node000015" class="node">
<title>Node15</title>
<g id="a_Node000015"><a xlink:title=" ">
<ellipse fill="#e0e0e0" stroke="#999999" cx="960.35" cy="-13.44" rx="51.74" ry="13.37"/>
<text text-anchor="middle" x="960.35" y="-10.94" font-family="Helvetica,sans-Serif" font-size="10.00">string_view</text>
</a>
</g>
</g>
<!-- Node14&#45;&gt;Node15 -->
<g id="edge17_Node000014_Node000015" class="edge">
<title>Node14&#45;&gt;Node15</title>
<g id="a_edge17_Node000014_Node000015"><a xlink:title=" ">
<path fill="none" stroke="#63b8ff" d="M857.89,-135.06C884.88,-126.82 916.7,-112.84 937.35,-89.74 950.3,-75.25 955.96,-53.63 958.43,-37.26"/>
<polygon fill="#63b8ff" stroke="#63b8ff" points="961.96,-37.27 959.69,-26.93 955.01,-36.43 961.96,-37.27"/>
</a>
</g>
</g>
<!-- Node16 -->
<g id="Node000016" class="node">
<title>Node16</title>
<g id="a_Node000016"><a xlink:title=" ">
<ellipse fill="#e0e0e0" stroke="#999999" cx="1103.35" cy="-76.31" rx="48.58" ry="13.37"/>
<text text-anchor="middle" x="1103.35" y="-73.81" font-family="Helvetica,sans-Serif" font-size="10.00">Eigen/Core</text>
</a>
</g>
</g>
<!-- Node14&#45;&gt;Node16 -->
<g id="edge18_Node000014_Node000016" class="edge">
<title>Node14&#45;&gt;Node16</title>
<g id="a_edge18_Node000014_Node000016"><a xlink:title=" ">
<path fill="none" stroke="#63b8ff" d="M854.9,-134.92C910.75,-121.97 1002.72,-100.64 1057.72,-87.89"/>
<polygon fill="#63b8ff" stroke="#63b8ff" points="1058.59,-91.28 1067.54,-85.61 1057.01,-84.46 1058.59,-91.28"/>
</a>
</g>
</g>
<!-- Node14&#45;&gt;Node17 -->
<g id="edge19_Node000014_Node000017" class="edge">
<title>Node14&#45;&gt;Node17</title>
<g id="a_edge19_Node000014_Node000017"><a xlink:title=" ">
<path fill="none" stroke="#63b8ff" d="M814.13,-133.36C819.35,-123.69 826.67,-110.09 832.81,-98.72"/>
<polygon fill="#63b8ff" stroke="#63b8ff" points="835.94,-100.28 837.6,-89.82 829.78,-96.96 835.94,-100.28"/>
</a>
</g>
</g>
<!-- Node17&#45;&gt;Node3 -->
<g id="edge22_Node000017_Node000003" class="edge">
<title>Node17&#45;&gt;Node3</title>
<g id="a_edge22_Node000017_Node000003"><a xlink:title=" ">
<path fill="none" stroke="#63b8ff" d="M784.95,-66.78C701.62,-54.82 551.4,-33.25 472.3,-21.89"/>
<polygon fill="#63b8ff" stroke="#63b8ff" points="472.48,-18.38 462.09,-20.43 471.49,-25.31 472.48,-18.38"/>
</a>
</g>
</g>
<!-- Node17&#45;&gt;Node11 -->
<g id="edge20_Node000017_Node000011" class="edge">
<title>Node17&#45;&gt;Node11</title>
<g id="a_edge20_Node000017_Node000011"><a xlink:title=" ">
<path fill="none" stroke="#63b8ff" d="M821.82,-63.28C803.53,-53.51 777.66,-39.7 758.09,-29.25"/>
<polygon fill="#63b8ff" stroke="#63b8ff" points="759.52,-26.05 749.05,-24.42 756.22,-32.22 759.52,-26.05"/>
</a>
</g>
</g>
<!-- Node17&#45;&gt;Node15 -->
<g id="edge21_Node000017_Node000015" class="edge">
<title>Node17&#45;&gt;Node15</title>
<g id="a_edge21_Node000017_Node000015"><a xlink:title=" ">
<path fill="none" stroke="#63b8ff" d="M867.26,-63.28C885.08,-53.93 909.97,-40.87 929.53,-30.6"/>
<polygon fill="#63b8ff" stroke="#63b8ff" points="931.43,-33.56 938.65,-25.82 928.17,-27.37 931.43,-33.56"/>
</a>
</g>
</g>
<!-- Node18 -->
<g id="Node000018" class="node">
<title>Node18</title>
<g id="a_Node000018"><a xlink:title=" ">
<ellipse fill="#e0e0e0" stroke="#999999" cx="835.35" cy="-13.44" rx="55.72" ry="13.37"/>
<text text-anchor="middle" x="835.35" y="-10.94" font-family="Helvetica,sans-Serif" font-size="10.00">fmt/format.h</text>
</a>
</g>
</g>
<!-- Node17&#45;&gt;Node18 -->
<g id="edge23_Node000017_Node000018" class="edge">
<title>Node17&#45;&gt;Node18</title>
<g id="a_edge23_Node000017_Node000018"><a xlink:title=" ">
<path fill="none" stroke="#63b8ff" d="M842.48,-62.69C841.38,-55.27 839.96,-45.65 838.68,-36.96"/>
<polygon fill="#63b8ff" stroke="#63b8ff" points="842.13,-36.41 837.21,-27.03 835.21,-37.44 842.13,-36.41"/>
</a>
</g>
</g>
<!-- Node19&#45;&gt;Node2 -->
<g id="edge25_Node000019_Node000002" class="edge">
<title>Node19&#45;&gt;Node2</title>
<g id="a_edge25_Node000019_Node000002"><a xlink:title=" ">
<path fill="none" stroke="#63b8ff" d="M877.17,-364.55C836.52,-352.7 781.8,-336.73 739.14,-324.29"/>
<polygon fill="#63b8ff" stroke="#63b8ff" points="739.98,-320.89 729.4,-321.45 738.02,-327.61 739.98,-320.89"/>
</a>
</g>
</g>
<!-- Node19&#45;&gt;Node4 -->
<g id="edge27_Node000019_Node000004" class="edge">
<title>Node19&#45;&gt;Node4</title>
<g id="a_edge27_Node000019_Node000004"><a xlink:title=" ">
<path fill="none" stroke="#63b8ff" d="M914.8,-361.18C892.76,-339.46 855.06,-304.95 817.35,-282.59 791.6,-267.33 760.95,-254.74 734.48,-245.37"/>
<polygon fill="#63b8ff" stroke="#63b8ff" points="735.53,-242.03 724.93,-242.07 733.24,-248.65 735.53,-242.03"/>
</a>
</g>
</g>
<!-- Node19&#45;&gt;Node13 -->
<g id="edge26_Node000019_Node000013" class="edge">
<title>Node19&#45;&gt;Node13</title>
<g id="a_edge26_Node000019_Node000013"><a xlink:title=" ">
<path fill="none" stroke="#63b8ff" d="M941.48,-360.94C955.96,-319.75 988.85,-226.17 1005.81,-177.94"/>
<polygon fill="#63b8ff" stroke="#63b8ff" points="1009.16,-178.96 1009.17,-168.37 1002.55,-176.64 1009.16,-178.96"/>
</a>
</g>
</g>
<!-- Node21 -->
<g id="Node000021" class="node">
<title>Node21</title>
<g id="a_Node000021"><a xlink:title=" ">
<ellipse fill="#e0e0e0" stroke="#999999" cx="1414.35" cy="-303.81" rx="33.47" ry="13.37"/>
<text text-anchor="middle" x="1414.35" y="-301.31" font-family="Helvetica,sans-Serif" font-size="10.00">cmath</text>
</a>
</g>
</g>
<!-- Node20&#45;&gt;Node21 -->
<g id="edge32_Node000020_Node000021" class="edge">
<title>Node20&#45;&gt;Node21</title>
<g id="a_edge32_Node000020_Node000021"><a xlink:title=" ">
<path fill="none" stroke="#63b8ff" d="M1445.82,-360.75C1439.74,-349.95 1432.3,-336.71 1426.17,-325.82"/>
<polygon fill="#63b8ff" stroke="#63b8ff" points="1429.15,-323.98 1421.2,-316.98 1423.05,-327.41 1429.15,-323.98"/>
</a>
</g>
</g>
<!-- Node22 -->
<g id="Node000022" class="node">
<title>Node22</title>
<g id="a_Node000022"><a xlink:title=" ">
<ellipse fill="#e0e0e0" stroke="#999999" cx="1499.35" cy="-303.81" rx="33.88" ry="13.37"/>
<text text-anchor="middle" x="1499.35" y="-301.31" font-family="Helvetica,sans-Serif" font-size="10.00">iosfwd</text>
</a>
</g>
</g>
<!-- Node20&#45;&gt;Node22 -->
<g id="edge33_Node000020_Node000022" class="edge">
<title>Node20&#45;&gt;Node22</title>
<g id="a_edge33_Node000020_Node000022"><a xlink:title=" ">
<path fill="none" stroke="#63b8ff" d="M1468.6,-360.75C1474.54,-349.95 1481.82,-336.71 1487.8,-325.82"/>
<polygon fill="#63b8ff" stroke="#63b8ff" points="1490.91,-327.43 1492.66,-316.98 1484.77,-324.06 1490.91,-327.43"/>
</a>
</g>
</g>
<!-- Node23&#45;&gt;Node16 -->
<g id="edge36_Node000023_Node000016" class="edge">
<title>Node23&#45;&gt;Node16</title>
<g id="a_edge36_Node000023_Node000016"><a xlink:title=" ">
<path fill="none" stroke="#63b8ff" d="M1217.42,-361.26C1209.44,-350.99 1200.38,-337.93 1194.35,-325.02 1155.62,-242.08 1183.52,-207.49 1142.35,-125.74 1137.18,-115.47 1129.56,-105.36 1122.42,-97.06"/>
<polygon fill="#63b8ff" stroke="#63b8ff" points="1124.84,-94.52 1115.56,-89.42 1119.64,-99.2 1124.84,-94.52"/>
</a>
</g>
</g>
<!-- Node24 -->
<g id="Node000024" class="node">
<title>Node24</title>
<g id="a_Node000024"><a xlink:title=" ">
<ellipse fill="#e0e0e0" stroke="#999999" cx="1234.35" cy="-303.81" rx="31.23" ry="13.37"/>
<text text-anchor="middle" x="1234.35" y="-301.31" font-family="Helvetica,sans-Serif" font-size="10.00">limits</text>
</a>
</g>
</g>
<!-- Node23&#45;&gt;Node24 -->
<g id="edge35_Node000023_Node000024" class="edge">
<title>Node23&#45;&gt;Node24</title>
<g id="a_edge35_Node000023_Node000024"><a xlink:title=" ">
<path fill="none" stroke="#63b8ff" d="M1234.35,-360.75C1234.35,-350.51 1234.35,-338.09 1234.35,-327.56"/>
<polygon fill="#63b8ff" stroke="#63b8ff" points="1237.85,-327.43 1234.35,-317.43 1230.85,-327.43 1237.85,-327.43"/>
</a>
</g>
</g>
</g>
</svg>
