<?xml version="1.0" encoding="UTF-8" standalone="no"?>
<!DOCTYPE svg PUBLIC "-//W3C//DTD SVG 1.1//EN"
 "http://www.w3.org/Graphics/SVG/1.1/DTD/svg11.dtd">
<!-- Generated by graphviz version 2.43.0 (0)
 -->
<!-- Title: drake/common/ad/auto_diff.h Pages: 1 -->
<svg width="608pt" height="296pt"
 viewBox="0.00 0.00 608.00 296.00" xmlns="http://www.w3.org/2000/svg" xmlns:xlink="http://www.w3.org/1999/xlink">
<g id="graph0" class="graph" transform="scale(1 1) rotate(0) translate(4 292)">
<title>drake/common/ad/auto_diff.h</title>
<polygon fill="white" stroke="transparent" points="-4,4 -4,-292 604,-292 604,4 -4,4"/>
<!-- Node0 -->
<g id="node1" class="node">
<title>Node0</title>
<g id="a_node1"><a xlink:title=" ">
<polygon fill="#bfbfbf" stroke="black" points="197,-257.5 197,-287.5 326,-287.5 326,-257.5 197,-257.5"/>
<text text-anchor="start" x="205" y="-275.5" font-family="Helvetica,sans-Serif" font-size="10.00">drake/common/ad/auto</text>
<text text-anchor="middle" x="261.5" y="-264.5" font-family="Helvetica,sans-Serif" font-size="10.00">_diff.h</text>
</a>
</g>
</g>
<!-- Node1 -->
<g id="node2" class="node">
<title>Node1</title>
<g id="a_node2"><a xlink:href="partials_8h.html" target="_top" xlink:title=" ">
<polygon fill="white" stroke="black" points="88,-190.5 88,-220.5 233,-220.5 233,-190.5 88,-190.5"/>
<text text-anchor="start" x="96" y="-208.5" font-family="Helvetica,sans-Serif" font-size="10.00">drake/common/ad/internal</text>
<text text-anchor="middle" x="160.5" y="-197.5" font-family="Helvetica,sans-Serif" font-size="10.00">/partials.h</text>
</a>
</g>
</g>
<!-- Node0&#45;&gt;Node1 -->
<g id="edge1" class="edge">
<title>Node0&#45;&gt;Node1</title>
<path fill="none" stroke="midnightblue" d="M239.58,-257.4C225.42,-248.28 206.79,-236.29 191.17,-226.24"/>
<polygon fill="midnightblue" stroke="midnightblue" points="192.68,-223.05 182.37,-220.58 188.89,-228.93 192.68,-223.05"/>
</g>
<!-- Node2 -->
<g id="node3" class="node">
<title>Node2</title>
<g id="a_node3"><a xlink:href="drake__copyable_8h.html" target="_top" xlink:title="Provides careful macros to selectively enable or disable the special member functions for copy&#45;constr...">
<polygon fill="white" stroke="black" points="0,-56.5 0,-86.5 119,-86.5 119,-56.5 0,-56.5"/>
<text text-anchor="start" x="8" y="-74.5" font-family="Helvetica,sans-Serif" font-size="10.00">drake/common/drake</text>
<text text-anchor="middle" x="59.5" y="-63.5" font-family="Helvetica,sans-Serif" font-size="10.00">_copyable.h</text>
</a>
</g>
</g>
<!-- Node0&#45;&gt;Node2 -->
<g id="edge10" class="edge">
<title>Node0&#45;&gt;Node2</title>
<path fill="none" stroke="midnightblue" d="M196.95,-261.43C150.79,-252.86 94.15,-239.05 78.5,-221 48.51,-186.42 50.79,-129.15 55.13,-96.77"/>
<polygon fill="midnightblue" stroke="midnightblue" points="58.6,-97.22 56.64,-86.81 51.68,-96.17 58.6,-97.22"/>
</g>
<!-- Node3 -->
<g id="node4" class="node">
<title>Node3</title>
<g id="a_node4"><a xlink:href="eigen__types_8h.html" target="_top" xlink:title="This file contains abbreviated definitions for certain specializations of Eigen::Matrix that are comm...">
<polygon fill="white" stroke="black" points="161,-123.5 161,-153.5 280,-153.5 280,-123.5 161,-123.5"/>
<text text-anchor="start" x="169" y="-141.5" font-family="Helvetica,sans-Serif" font-size="10.00">drake/common/eigen</text>
<text text-anchor="middle" x="220.5" y="-130.5" font-family="Helvetica,sans-Serif" font-size="10.00">_types.h</text>
</a>
</g>
</g>
<!-- Node0&#45;&gt;Node3 -->
<g id="edge11" class="edge">
<title>Node0&#45;&gt;Node3</title>
<path fill="none" stroke="midnightblue" d="M258.74,-257.47C255.36,-241.09 249.14,-213.25 241.5,-190 238.56,-181.05 234.75,-171.46 231.18,-163.06"/>
<polygon fill="midnightblue" stroke="midnightblue" points="234.37,-161.63 227.17,-153.86 227.96,-164.43 234.37,-161.63"/>
</g>
<!-- Node9 -->
<g id="node10" class="node">
<title>Node9</title>
<g id="a_node10"><a xlink:href="fmt_8h.html" target="_top" xlink:title=" ">
<polygon fill="white" stroke="black" points="290,-196 290,-215 409,-215 409,-196 290,-196"/>
<text text-anchor="middle" x="349.5" y="-203" font-family="Helvetica,sans-Serif" font-size="10.00">drake/common/fmt.h</text>
</a>
</g>
</g>
<!-- Node0&#45;&gt;Node9 -->
<g id="edge12" class="edge">
<title>Node0&#45;&gt;Node9</title>
<path fill="none" stroke="midnightblue" d="M280.59,-257.4C295.08,-246.7 314.93,-232.03 329.61,-221.19"/>
<polygon fill="midnightblue" stroke="midnightblue" points="332.02,-223.76 337.98,-215.01 327.86,-218.13 332.02,-223.76"/>
</g>
<!-- Node12 -->
<g id="node13" class="node">
<title>Node12</title>
<g id="a_node13"><a xlink:href="standard__operations_8h.html" target="_top" xlink:title=" ">
<polygon fill="white" stroke="black" points="438,-190.5 438,-220.5 583,-220.5 583,-190.5 438,-190.5"/>
<text text-anchor="start" x="446" y="-208.5" font-family="Helvetica,sans-Serif" font-size="10.00">drake/common/ad/internal</text>
<text text-anchor="middle" x="510.5" y="-197.5" font-family="Helvetica,sans-Serif" font-size="10.00">/standard_operations.h</text>
</a>
</g>
</g>
<!-- Node0&#45;&gt;Node12 -->
<g id="edge15" class="edge">
<title>Node0&#45;&gt;Node12</title>
<path fill="none" stroke="midnightblue" d="M315.22,-257.48C353.79,-247.41 405.92,-233.8 446.62,-223.17"/>
<polygon fill="midnightblue" stroke="midnightblue" points="447.65,-226.52 456.44,-220.61 445.88,-219.75 447.65,-226.52"/>
</g>
<!-- Node1&#45;&gt;Node2 -->
<g id="edge2" class="edge">
<title>Node1&#45;&gt;Node2</title>
<path fill="none" stroke="midnightblue" d="M149.69,-190.37C132.15,-167.45 97.35,-121.97 76.48,-94.69"/>
<polygon fill="midnightblue" stroke="midnightblue" points="79.09,-92.34 70.23,-86.52 73.53,-96.59 79.09,-92.34"/>
</g>
<!-- Node1&#45;&gt;Node3 -->
<g id="edge3" class="edge">
<title>Node1&#45;&gt;Node3</title>
<path fill="none" stroke="midnightblue" d="M173.52,-190.4C181.46,-181.79 191.77,-170.63 200.7,-160.94"/>
<polygon fill="midnightblue" stroke="midnightblue" points="203.3,-163.3 207.51,-153.58 198.15,-158.55 203.3,-163.3"/>
</g>
<!-- Node3&#45;&gt;Node2 -->
<g id="edge9" class="edge">
<title>Node3&#45;&gt;Node2</title>
<path fill="none" stroke="midnightblue" d="M185.57,-123.4C161.62,-113.73 129.65,-100.82 103.9,-90.43"/>
<polygon fill="midnightblue" stroke="midnightblue" points="104.95,-87.07 94.37,-86.58 102.33,-93.57 104.95,-87.07"/>
</g>
<!-- Node4 -->
<g id="node5" class="node">
<title>Node4</title>
<g id="a_node5"><a xlink:title=" ">
<polygon fill="white" stroke="#bfbfbf" points="137,-62 137,-81 182,-81 182,-62 137,-62"/>
<text text-anchor="middle" x="159.5" y="-69" font-family="Helvetica,sans-Serif" font-size="10.00">utility</text>
</a>
</g>
</g>
<!-- Node3&#45;&gt;Node4 -->
<g id="edge4" class="edge">
<title>Node3&#45;&gt;Node4</title>
<path fill="none" stroke="midnightblue" d="M207.26,-123.4C197.66,-113.16 184.65,-99.3 174.63,-88.62"/>
<polygon fill="midnightblue" stroke="midnightblue" points="177.05,-86.09 167.66,-81.19 171.95,-90.88 177.05,-86.09"/>
</g>
<!-- Node5 -->
<g id="node6" class="node">
<title>Node5</title>
<g id="a_node6"><a xlink:title=" ">
<polygon fill="white" stroke="#bfbfbf" points="200,-62 200,-81 277,-81 277,-62 200,-62"/>
<text text-anchor="middle" x="238.5" y="-69" font-family="Helvetica,sans-Serif" font-size="10.00">Eigen/Dense</text>
</a>
</g>
</g>
<!-- Node3&#45;&gt;Node5 -->
<g id="edge5" class="edge">
<title>Node3&#45;&gt;Node5</title>
<path fill="none" stroke="midnightblue" d="M224.41,-123.4C227.05,-113.86 230.56,-101.18 233.42,-90.86"/>
<polygon fill="midnightblue" stroke="midnightblue" points="236.8,-91.77 236.09,-81.19 230.05,-89.9 236.8,-91.77"/>
</g>
<!-- Node6 -->
<g id="node7" class="node">
<title>Node6</title>
<g id="a_node7"><a xlink:href="constants_8h.html" target="_top" xlink:title=" ">
<polygon fill="white" stroke="black" points="295,-62 295,-81 444,-81 444,-62 295,-62"/>
<text text-anchor="middle" x="369.5" y="-69" font-family="Helvetica,sans-Serif" font-size="10.00">drake/common/constants.h</text>
</a>
</g>
</g>
<!-- Node3&#45;&gt;Node6 -->
<g id="edge6" class="edge">
<title>Node3&#45;&gt;Node6</title>
<path fill="none" stroke="midnightblue" d="M252.83,-123.4C278.97,-111.99 315.45,-96.08 340.62,-85.1"/>
<polygon fill="midnightblue" stroke="midnightblue" points="342.23,-88.21 350,-81.01 339.43,-81.8 342.23,-88.21"/>
</g>
<!-- Node7 -->
<g id="node8" class="node">
<title>Node7</title>
<g id="a_node8"><a xlink:href="drake__assert_8h.html" target="_top" xlink:title="Provides Drake&#39;s assertion implementation.">
<polygon fill="white" stroke="black" points="462,-56.5 462,-86.5 581,-86.5 581,-56.5 462,-56.5"/>
<text text-anchor="start" x="470" y="-74.5" font-family="Helvetica,sans-Serif" font-size="10.00">drake/common/drake</text>
<text text-anchor="middle" x="521.5" y="-63.5" font-family="Helvetica,sans-Serif" font-size="10.00">_assert.h</text>
</a>
</g>
</g>
<!-- Node3&#45;&gt;Node7 -->
<g id="edge7" class="edge">
<title>Node3&#45;&gt;Node7</title>
<path fill="none" stroke="midnightblue" d="M280.33,-124.58C329.78,-113.9 400.04,-98.73 451.98,-87.51"/>
<polygon fill="midnightblue" stroke="midnightblue" points="452.75,-90.93 461.79,-85.4 451.27,-84.08 452.75,-90.93"/>
</g>
<!-- Node8 -->
<g id="node9" class="node">
<title>Node8</title>
<g id="a_node9"><a xlink:title=" ">
<polygon fill="white" stroke="#bfbfbf" points="487,-0.5 487,-19.5 556,-19.5 556,-0.5 487,-0.5"/>
<text text-anchor="middle" x="521.5" y="-7.5" font-family="Helvetica,sans-Serif" font-size="10.00">type_traits</text>
</a>
</g>
</g>
<!-- Node7&#45;&gt;Node8 -->
<g id="edge8" class="edge">
<title>Node7&#45;&gt;Node8</title>
<path fill="none" stroke="midnightblue" d="M521.5,-56.4C521.5,-48.47 521.5,-38.46 521.5,-29.86"/>
<polygon fill="midnightblue" stroke="midnightblue" points="525,-29.66 521.5,-19.66 518,-29.66 525,-29.66"/>
</g>
<!-- Node10 -->
<g id="node11" class="node">
<title>Node10</title>
<g id="a_node11"><a xlink:title=" ">
<polygon fill="white" stroke="#bfbfbf" points="395,-129 395,-148 468,-148 468,-129 395,-129"/>
<text text-anchor="middle" x="431.5" y="-136" font-family="Helvetica,sans-Serif" font-size="10.00">string_view</text>
</a>
</g>
</g>
<!-- Node9&#45;&gt;Node10 -->
<g id="edge13" class="edge">
<title>Node9&#45;&gt;Node10</title>
<path fill="none" stroke="midnightblue" d="M360.56,-195.73C373.84,-185.21 396.33,-167.38 412.43,-154.62"/>
<polygon fill="midnightblue" stroke="midnightblue" points="414.95,-157.08 420.62,-148.13 410.61,-151.6 414.95,-157.08"/>
</g>
<!-- Node11 -->
<g id="node12" class="node">
<title>Node11</title>
<g id="a_node12"><a xlink:title=" ">
<polygon fill="white" stroke="#bfbfbf" points="298,-129 298,-148 377,-148 377,-129 298,-129"/>
<text text-anchor="middle" x="337.5" y="-136" font-family="Helvetica,sans-Serif" font-size="10.00">fmt/format.h</text>
</a>
</g>
</g>
<!-- Node9&#45;&gt;Node11 -->
<g id="edge14" class="edge">
<title>Node9&#45;&gt;Node11</title>
<path fill="none" stroke="midnightblue" d="M347.88,-195.73C346.12,-186.18 343.24,-170.62 340.97,-158.28"/>
<polygon fill="midnightblue" stroke="midnightblue" points="344.35,-157.33 339.09,-148.13 337.47,-158.6 344.35,-157.33"/>
</g>
<!-- Node13 -->
<g id="node14" class="node">
<title>Node13</title>
<g id="a_node14"><a xlink:title=" ">
<polygon fill="white" stroke="#bfbfbf" points="553,-129 553,-148 600,-148 600,-129 553,-129"/>
<text text-anchor="middle" x="576.5" y="-136" font-family="Helvetica,sans-Serif" font-size="10.00">cmath</text>
</a>
</g>
</g>
<!-- Node12&#45;&gt;Node13 -->
<g id="edge16" class="edge">
<title>Node12&#45;&gt;Node13</title>
<path fill="none" stroke="midnightblue" d="M524.82,-190.4C535.32,-180.06 549.57,-166.02 560.45,-155.31"/>
<polygon fill="midnightblue" stroke="midnightblue" points="563,-157.71 567.67,-148.19 558.09,-152.72 563,-157.71"/>
</g>
<!-- Node14 -->
<g id="node15" class="node">
<title>Node14</title>
<g id="a_node15"><a xlink:title=" ">
<polygon fill="white" stroke="#bfbfbf" points="486.5,-129 486.5,-148 534.5,-148 534.5,-129 486.5,-129"/>
<text text-anchor="middle" x="510.5" y="-136" font-family="Helvetica,sans-Serif" font-size="10.00">iosfwd</text>
</a>
</g>
</g>
<!-- Node12&#45;&gt;Node14 -->
<g id="edge17" class="edge">
<title>Node12&#45;&gt;Node14</title>
<path fill="none" stroke="midnightblue" d="M510.5,-190.4C510.5,-181.06 510.5,-168.71 510.5,-158.52"/>
<polygon fill="midnightblue" stroke="midnightblue" points="514,-158.19 510.5,-148.19 507,-158.19 514,-158.19"/>
</g>
</g>
</svg>
