<?xml version="1.0" encoding="UTF-8" standalone="no"?>
<!DOCTYPE svg PUBLIC "-//W3C//DTD SVG 1.1//EN"
 "http://www.w3.org/Graphics/SVG/1.1/DTD/svg11.dtd">
<!-- Generated by graphviz version 2.43.0 (0)
 -->
<!-- Title: drake/math/autodiff_gradient.h Pages: 1 -->
<!--zoomable 408 -->
<svg id="main" version="1.1" xmlns="http://www.w3.org/2000/svg" xmlns:xlink="http://www.w3.org/1999/xlink" xml:space="preserve" onload="init(evt)">
<style type="text/css"><![CDATA[
.edge:hover path { stroke: red; }
.edge:hover polygon { stroke: red; fill: red; }
]]></style>
<script type="text/javascript"><![CDATA[
var edges = document.getElementsByTagName('g');
if (edges && edges.length) {
  for (var i=0;i<edges.length;i++) {
    if (edges[i].id.substr(0,4)=='edge') {
      edges[i].setAttribute('class','edge');
    }
  }
}
]]></script>
        <defs>
                <circle id="rim" cx="0" cy="0" r="7"/>
                <circle id="rim2" cx="0" cy="0" r="3.5"/>
                <g id="zoomPlus">
                        <use xlink:href="#rim" fill="#404040">
                                <set attributeName="fill" to="#808080" begin="zoomplus.mouseover" end="zoomplus.mouseout"/>
                        </use>
                        <path d="M-4,0h8M0,-4v8" fill="none" stroke="white" stroke-width="1.5" pointer-events="none"/>
                </g>
                <g id="zoomMin">
                        <use xlink:href="#rim" fill="#404040">
                                <set attributeName="fill" to="#808080" begin="zoomminus.mouseover" end="zoomminus.mouseout"/>
                        </use>
                        <path d="M-4,0h8" fill="none" stroke="white" stroke-width="1.5" pointer-events="none"/>
                </g>
                <g id="dirArrow">
                        <path fill="none" stroke="white" stroke-width="1.5" d="M0,-3.0v7 M-2.5,-0.5L0,-3.0L2.5,-0.5"/>
                </g>
               <g id="resetDef">
                       <use xlink:href="#rim2" fill="#404040">
                               <set attributeName="fill" to="#808080" begin="reset.mouseover" end="reset.mouseout"/>
                       </use>
               </g>
        </defs>

<script type="text/javascript">
var viewWidth = 1125;
var viewHeight = 408;
var sectionId = 'dynsection-0';
</script>
<script xlink:href="svgpan.js"/>
<svg id="graph" class="graph">
<g id="viewport">
<title>drake/math/autodiff_gradient.h</title>
<polygon fill="white" stroke="transparent" points="-4,4 -4,-404 1121,-404 1121,4 -4,4"/>
<!-- Node0 -->
<g id="node1" class="node">
<title>Node0</title>
<g id="a_node1"><a xlink:title="Utilities that relate simultaneously to both autodiff matrices and gradient matrices.">
<polygon fill="#bfbfbf" stroke="black" points="450.5,-369.5 450.5,-399.5 563.5,-399.5 563.5,-369.5 450.5,-369.5"/>
<text text-anchor="start" x="458.5" y="-387.5" font-family="Helvetica,sans-Serif" font-size="10.00">drake/math/autodiff</text>
<text text-anchor="middle" x="507" y="-376.5" font-family="Helvetica,sans-Serif" font-size="10.00">_gradient.h</text>
</a>
</g>
</g>
<!-- Node1 -->
<g id="node2" class="node">
<title>Node1</title>
<g id="a_node2"><a xlink:title=" ">
<polygon fill="white" stroke="#bfbfbf" points="0,-313.5 0,-332.5 64,-332.5 64,-313.5 0,-313.5"/>
<text text-anchor="middle" x="32" y="-320.5" font-family="Helvetica,sans-Serif" font-size="10.00">algorithm</text>
</a>
</g>
</g>
<!-- Node0&#45;&gt;Node1 -->
<g id="edge1" class="edge">
<title>Node0&#45;&gt;Node1</title>
<path fill="none" stroke="midnightblue" d="M450.25,-378.21C367.96,-370.22 210.81,-353.78 78,-333 76.73,-332.8 75.45,-332.59 74.15,-332.38"/>
<polygon fill="midnightblue" stroke="midnightblue" points="74.57,-328.9 64.12,-330.61 73.35,-335.79 74.57,-328.9"/>
</g>
<!-- Node2 -->
<g id="node3" class="node">
<title>Node2</title>
<g id="a_node3"><a xlink:title=" ">
<polygon fill="white" stroke="#bfbfbf" points="158,-257.5 158,-276.5 214,-276.5 214,-257.5 158,-257.5"/>
<text text-anchor="middle" x="186" y="-264.5" font-family="Helvetica,sans-Serif" font-size="10.00">optional</text>
</a>
</g>
</g>
<!-- Node0&#45;&gt;Node2 -->
<g id="edge2" class="edge">
<title>Node0&#45;&gt;Node2</title>
<path fill="none" stroke="midnightblue" d="M482.01,-369.42C453.64,-353.89 405.63,-329 362,-313 336.92,-303.8 267.95,-287.07 224.17,-276.8"/>
<polygon fill="midnightblue" stroke="midnightblue" points="224.7,-273.33 214.16,-274.47 223.1,-280.15 224.7,-273.33"/>
</g>
<!-- Node3 -->
<g id="node4" class="node">
<title>Node3</title>
<g id="a_node4"><a xlink:title=" ">
<polygon fill="white" stroke="#bfbfbf" points="81.5,-62 81.5,-81 158.5,-81 158.5,-62 81.5,-62"/>
<text text-anchor="middle" x="120" y="-69" font-family="Helvetica,sans-Serif" font-size="10.00">Eigen/Dense</text>
</a>
</g>
</g>
<!-- Node0&#45;&gt;Node3 -->
<g id="edge3" class="edge">
<title>Node0&#45;&gt;Node3</title>
<path fill="none" stroke="midnightblue" d="M450.17,-379.59C336.51,-370.21 92,-341.48 92,-268 92,-268 92,-268 92,-204.5 92,-163.07 105.36,-115.9 113.62,-90.68"/>
<polygon fill="midnightblue" stroke="midnightblue" points="117,-91.61 116.9,-81.02 110.37,-89.36 117,-91.61"/>
</g>
<!-- Node4 -->
<g id="node5" class="node">
<title>Node4</title>
<g id="a_node5"><a xlink:title=" ">
<polygon fill="white" stroke="#bfbfbf" points="987.5,-313.5 987.5,-332.5 1066.5,-332.5 1066.5,-313.5 987.5,-313.5"/>
<text text-anchor="middle" x="1027" y="-320.5" font-family="Helvetica,sans-Serif" font-size="10.00">fmt/format.h</text>
</a>
</g>
</g>
<!-- Node0&#45;&gt;Node4 -->
<g id="edge4" class="edge">
<title>Node0&#45;&gt;Node4</title>
<path fill="none" stroke="midnightblue" d="M563.8,-378.4C651.69,-370.27 825.87,-353.22 973,-333 974.3,-332.82 975.61,-332.64 976.94,-332.45"/>
<polygon fill="midnightblue" stroke="midnightblue" points="977.86,-335.85 987.23,-330.89 976.82,-328.92 977.86,-335.85"/>
</g>
<!-- Node5 -->
<g id="node6" class="node">
<title>Node5</title>
<g id="a_node6"><a xlink:href="drake__assert_8h.html" target="_top" xlink:title="Provides Drake&#39;s assertion implementation.">
<polygon fill="white" stroke="black" points="845.5,-56.5 845.5,-86.5 964.5,-86.5 964.5,-56.5 845.5,-56.5"/>
<text text-anchor="start" x="853.5" y="-74.5" font-family="Helvetica,sans-Serif" font-size="10.00">drake/common/drake</text>
<text text-anchor="middle" x="905" y="-63.5" font-family="Helvetica,sans-Serif" font-size="10.00">_assert.h</text>
</a>
</g>
</g>
<!-- Node0&#45;&gt;Node5 -->
<g id="edge5" class="edge">
<title>Node0&#45;&gt;Node5</title>
<path fill="none" stroke="midnightblue" d="M563.79,-380.88C685.19,-373.74 959,-348.69 959,-268 959,-268 959,-268 959,-204.5 959,-163.7 936.63,-120.74 920.69,-95.3"/>
<polygon fill="midnightblue" stroke="midnightblue" points="923.53,-93.25 915.16,-86.76 917.65,-97.05 923.53,-93.25"/>
</g>
<!-- Node7 -->
<g id="node8" class="node">
<title>Node7</title>
<g id="a_node8"><a xlink:href="unused_8h.html" target="_top" xlink:title=" ">
<polygon fill="white" stroke="black" points="793.5,-257.5 793.5,-276.5 930.5,-276.5 930.5,-257.5 793.5,-257.5"/>
<text text-anchor="middle" x="862" y="-264.5" font-family="Helvetica,sans-Serif" font-size="10.00">drake/common/unused.h</text>
</a>
</g>
</g>
<!-- Node0&#45;&gt;Node7 -->
<g id="edge7" class="edge">
<title>Node0&#45;&gt;Node7</title>
<path fill="none" stroke="midnightblue" d="M550.18,-369.45C621.01,-346.41 760.56,-301 826.23,-279.64"/>
<polygon fill="midnightblue" stroke="midnightblue" points="827.32,-282.96 835.74,-276.54 825.15,-276.31 827.32,-282.96"/>
</g>
<!-- Node8 -->
<g id="node9" class="node">
<title>Node8</title>
<g id="a_node9"><a xlink:href="math_2autodiff_8h.html" target="_top" xlink:title="Utilities for arithmetic on AutoDiffScalar.">
<polygon fill="white" stroke="black" points="491,-313.5 491,-332.5 613,-332.5 613,-313.5 491,-313.5"/>
<text text-anchor="middle" x="552" y="-320.5" font-family="Helvetica,sans-Serif" font-size="10.00">drake/math/autodiff.h</text>
</a>
</g>
</g>
<!-- Node0&#45;&gt;Node8 -->
<g id="edge8" class="edge">
<title>Node0&#45;&gt;Node8</title>
<path fill="none" stroke="midnightblue" d="M517.66,-369.4C524.14,-360.84 532.43,-349.87 539.25,-340.86"/>
<polygon fill="midnightblue" stroke="midnightblue" points="542.21,-342.74 545.45,-332.66 536.63,-338.52 542.21,-342.74"/>
</g>
<!-- Node27 -->
<g id="node28" class="node">
<title>Node27</title>
<g id="a_node28"><a xlink:href="gradient_8h.html" target="_top" xlink:title="Utilities for arithmetic on gradients.">
<polygon fill="white" stroke="black" points="228.5,-313.5 228.5,-332.5 353.5,-332.5 353.5,-313.5 228.5,-313.5"/>
<text text-anchor="middle" x="291" y="-320.5" font-family="Helvetica,sans-Serif" font-size="10.00">drake/math/gradient.h</text>
</a>
</g>
</g>
<!-- Node0&#45;&gt;Node27 -->
<g id="edge41" class="edge">
<title>Node0&#45;&gt;Node27</title>
<path fill="none" stroke="midnightblue" d="M456.08,-369.47C418.17,-359.03 367.08,-344.96 331.83,-335.25"/>
<polygon fill="midnightblue" stroke="midnightblue" points="332.45,-331.79 321.88,-332.51 330.59,-338.54 332.45,-331.79"/>
</g>
<!-- Node6 -->
<g id="node7" class="node">
<title>Node6</title>
<g id="a_node7"><a xlink:title=" ">
<polygon fill="white" stroke="#bfbfbf" points="556.5,-0.5 556.5,-19.5 625.5,-19.5 625.5,-0.5 556.5,-0.5"/>
<text text-anchor="middle" x="591" y="-7.5" font-family="Helvetica,sans-Serif" font-size="10.00">type_traits</text>
</a>
</g>
</g>
<!-- Node5&#45;&gt;Node6 -->
<g id="edge6" class="edge">
<title>Node5&#45;&gt;Node6</title>
<path fill="none" stroke="midnightblue" d="M845.32,-57.67C842.51,-57.1 839.72,-56.54 837,-56 766.82,-42.1 685.07,-27.45 635.71,-18.78"/>
<polygon fill="midnightblue" stroke="midnightblue" points="636.14,-15.3 625.69,-17.02 634.93,-22.19 636.14,-15.3"/>
</g>
<!-- Node8&#45;&gt;Node2 -->
<g id="edge10" class="edge">
<title>Node8&#45;&gt;Node2</title>
<path fill="none" stroke="midnightblue" d="M490.88,-314.86C425.59,-306.92 319.16,-293.08 228,-277 226.76,-276.78 225.5,-276.55 224.23,-276.32"/>
<polygon fill="midnightblue" stroke="midnightblue" points="224.9,-272.88 214.41,-274.38 223.55,-279.75 224.9,-272.88"/>
</g>
<!-- Node8&#45;&gt;Node3 -->
<g id="edge12" class="edge">
<title>Node8&#45;&gt;Node3</title>
<path fill="none" stroke="midnightblue" d="M490.72,-320.48C411.67,-315.4 274,-295.55 187,-221 146.64,-186.42 129.43,-122.59 123.13,-91.08"/>
<polygon fill="midnightblue" stroke="midnightblue" points="126.54,-90.25 121.28,-81.05 119.65,-91.52 126.54,-90.25"/>
</g>
<!-- Node8&#45;&gt;Node7 -->
<g id="edge40" class="edge">
<title>Node8&#45;&gt;Node7</title>
<path fill="none" stroke="midnightblue" d="M601.12,-313.44C655.88,-303.9 744.41,-288.48 802.91,-278.29"/>
<polygon fill="midnightblue" stroke="midnightblue" points="803.86,-281.68 813.11,-276.52 802.66,-274.78 803.86,-281.68"/>
</g>
<!-- Node9 -->
<g id="node10" class="node">
<title>Node9</title>
<g id="a_node10"><a xlink:title=" ">
<polygon fill="white" stroke="#bfbfbf" points="626.5,-129 626.5,-148 673.5,-148 673.5,-129 626.5,-129"/>
<text text-anchor="middle" x="650" y="-136" font-family="Helvetica,sans-Serif" font-size="10.00">cmath</text>
</a>
</g>
</g>
<!-- Node8&#45;&gt;Node9 -->
<g id="edge9" class="edge">
<title>Node8&#45;&gt;Node9</title>
<path fill="none" stroke="midnightblue" d="M607.47,-313.41C657.6,-302.15 727.2,-276.81 752,-221 757.59,-208.41 759.27,-201.71 752,-190 749.83,-186.51 707.48,-166.27 678.04,-152.49"/>
<polygon fill="midnightblue" stroke="midnightblue" points="679.17,-149.16 668.63,-148.1 676.21,-155.5 679.17,-149.16"/>
</g>
<!-- Node10 -->
<g id="node11" class="node">
<title>Node10</title>
<g id="a_node11"><a xlink:title=" ">
<polygon fill="white" stroke="#bfbfbf" points="639.5,-257.5 639.5,-276.5 680.5,-276.5 680.5,-257.5 639.5,-257.5"/>
<text text-anchor="middle" x="660" y="-264.5" font-family="Helvetica,sans-Serif" font-size="10.00">tuple</text>
</a>
</g>
</g>
<!-- Node8&#45;&gt;Node10 -->
<g id="edge11" class="edge">
<title>Node8&#45;&gt;Node10</title>
<path fill="none" stroke="midnightblue" d="M569.35,-313.32C586.67,-304.66 613.52,-291.24 633.5,-281.25"/>
<polygon fill="midnightblue" stroke="midnightblue" points="635.31,-284.26 642.69,-276.65 632.18,-278 635.31,-284.26"/>
</g>
<!-- Node11 -->
<g id="node12" class="node">
<title>Node11</title>
<g id="a_node12"><a xlink:href="common_2autodiff_8h.html" target="_top" xlink:title=" ">
<polygon fill="white" stroke="black" points="482.5,-257.5 482.5,-276.5 621.5,-276.5 621.5,-257.5 482.5,-257.5"/>
<text text-anchor="middle" x="552" y="-264.5" font-family="Helvetica,sans-Serif" font-size="10.00">drake/common/autodiff.h</text>
</a>
</g>
</g>
<!-- Node8&#45;&gt;Node11 -->
<g id="edge13" class="edge">
<title>Node8&#45;&gt;Node11</title>
<path fill="none" stroke="midnightblue" d="M552,-313.08C552,-306.01 552,-295.86 552,-286.99"/>
<polygon fill="midnightblue" stroke="midnightblue" points="555.5,-286.75 552,-276.75 548.5,-286.75 555.5,-286.75"/>
</g>
<!-- Node12 -->
<g id="node13" class="node">
<title>Node12</title>
<g id="a_node13"><a xlink:title=" ">
<polygon fill="white" stroke="#bfbfbf" points="673.5,-196 673.5,-215 742.5,-215 742.5,-196 673.5,-196"/>
<text text-anchor="middle" x="708" y="-203" font-family="Helvetica,sans-Serif" font-size="10.00">Eigen/Core</text>
</a>
</g>
</g>
<!-- Node11&#45;&gt;Node12 -->
<g id="edge14" class="edge">
<title>Node11&#45;&gt;Node12</title>
<path fill="none" stroke="midnightblue" d="M574.35,-257.48C600.99,-247.31 645.71,-230.26 676.01,-218.7"/>
<polygon fill="midnightblue" stroke="midnightblue" points="677.59,-221.84 685.69,-215.01 675.1,-215.3 677.59,-221.84"/>
</g>
<!-- Node13 -->
<g id="node14" class="node">
<title>Node13</title>
<g id="a_node14"><a xlink:title=" ">
<polygon fill="white" stroke="#bfbfbf" points="196.5,-196 196.5,-215 347.5,-215 347.5,-196 196.5,-196"/>
<text text-anchor="middle" x="272" y="-203" font-family="Helvetica,sans-Serif" font-size="10.00">unsupported/Eigen/AutoDiff</text>
</a>
</g>
</g>
<!-- Node11&#45;&gt;Node13 -->
<g id="edge15" class="edge">
<title>Node11&#45;&gt;Node13</title>
<path fill="none" stroke="midnightblue" d="M511.88,-257.48C461.88,-246.85 376.4,-228.68 322.13,-217.15"/>
<polygon fill="midnightblue" stroke="midnightblue" points="322.55,-213.66 312.04,-215.01 321.1,-220.51 322.55,-213.66"/>
</g>
<!-- Node14 -->
<g id="node15" class="node">
<title>Node14</title>
<g id="a_node15"><a xlink:href="eigen__autodiff__types_8h.html" target="_top" xlink:title="This file contains abbreviated definitions for certain uses of AutoDiffScalar that are commonly used ...">
<polygon fill="white" stroke="black" points="365.5,-190.5 365.5,-220.5 484.5,-220.5 484.5,-190.5 365.5,-190.5"/>
<text text-anchor="start" x="373.5" y="-208.5" font-family="Helvetica,sans-Serif" font-size="10.00">drake/common/eigen</text>
<text text-anchor="middle" x="425" y="-197.5" font-family="Helvetica,sans-Serif" font-size="10.00">_autodiff_types.h</text>
</a>
</g>
</g>
<!-- Node11&#45;&gt;Node14 -->
<g id="edge16" class="edge">
<title>Node11&#45;&gt;Node14</title>
<path fill="none" stroke="midnightblue" d="M533.8,-257.48C515.72,-249 487.41,-235.74 464.19,-224.86"/>
<polygon fill="midnightblue" stroke="midnightblue" points="465.47,-221.6 454.93,-220.52 462.5,-227.93 465.47,-221.6"/>
</g>
<!-- Node19 -->
<g id="node20" class="node">
<title>Node19</title>
<g id="a_node20"><a xlink:href="autodiffxd_8h.html" target="_top" xlink:title=" ">
<polygon fill="white" stroke="black" points="503,-196 503,-215 655,-215 655,-196 503,-196"/>
<text text-anchor="middle" x="579" y="-203" font-family="Helvetica,sans-Serif" font-size="10.00">drake/common/autodiffxd.h</text>
</a>
</g>
</g>
<!-- Node11&#45;&gt;Node19 -->
<g id="edge25" class="edge">
<title>Node11&#45;&gt;Node19</title>
<path fill="none" stroke="midnightblue" d="M555.87,-257.48C559.8,-248.82 566,-235.15 570.99,-224.15"/>
<polygon fill="midnightblue" stroke="midnightblue" points="574.19,-225.56 575.14,-215.01 567.82,-222.67 574.19,-225.56"/>
</g>
<!-- Node22 -->
<g id="node23" class="node">
<title>Node22</title>
<g id="a_node23"><a xlink:href="autodiff__overloads_8h.html" target="_top" xlink:title="Overloads for STL mathematical operations on AutoDiffScalar.">
<polygon fill="white" stroke="black" points="799.5,-190.5 799.5,-220.5 930.5,-220.5 930.5,-190.5 799.5,-190.5"/>
<text text-anchor="start" x="807.5" y="-208.5" font-family="Helvetica,sans-Serif" font-size="10.00">drake/common/autodiff</text>
<text text-anchor="middle" x="865" y="-197.5" font-family="Helvetica,sans-Serif" font-size="10.00">_overloads.h</text>
</a>
</g>
</g>
<!-- Node11&#45;&gt;Node22 -->
<g id="edge30" class="edge">
<title>Node11&#45;&gt;Node22</title>
<path fill="none" stroke="midnightblue" d="M596.85,-257.48C647.04,-247.93 729.22,-232.31 789.4,-220.87"/>
<polygon fill="midnightblue" stroke="midnightblue" points="790.06,-224.31 799.23,-219 788.75,-217.43 790.06,-224.31"/>
</g>
<!-- Node14&#45;&gt;Node3 -->
<g id="edge18" class="edge">
<title>Node14&#45;&gt;Node3</title>
<path fill="none" stroke="midnightblue" d="M383.52,-190.41C356.13,-180.81 319.6,-167.45 288,-154 236.64,-132.14 178.37,-102.82 145.72,-85.96"/>
<polygon fill="midnightblue" stroke="midnightblue" points="146.93,-82.64 136.44,-81.15 143.71,-88.86 146.93,-82.64"/>
</g>
<!-- Node14&#45;&gt;Node6 -->
<g id="edge17" class="edge">
<title>Node14&#45;&gt;Node6</title>
<path fill="none" stroke="midnightblue" d="M442.47,-190.48C454.16,-180.75 469.62,-167.22 482,-154 521.52,-111.82 560.9,-55.84 579.66,-28.1"/>
<polygon fill="midnightblue" stroke="midnightblue" points="582.74,-29.78 585.4,-19.53 576.93,-25.89 582.74,-29.78"/>
</g>
<!-- Node15 -->
<g id="node16" class="node">
<title>Node15</title>
<g id="a_node16"><a xlink:href="eigen__types_8h.html" target="_top" xlink:title="This file contains abbreviated definitions for certain specializations of Eigen::Matrix that are comm...">
<polygon fill="white" stroke="black" points="353.5,-123.5 353.5,-153.5 472.5,-153.5 472.5,-123.5 353.5,-123.5"/>
<text text-anchor="start" x="361.5" y="-141.5" font-family="Helvetica,sans-Serif" font-size="10.00">drake/common/eigen</text>
<text text-anchor="middle" x="413" y="-130.5" font-family="Helvetica,sans-Serif" font-size="10.00">_types.h</text>
</a>
</g>
</g>
<!-- Node14&#45;&gt;Node15 -->
<g id="edge19" class="edge">
<title>Node14&#45;&gt;Node15</title>
<path fill="none" stroke="midnightblue" d="M422.4,-190.4C420.95,-182.56 419.11,-172.6 417.44,-163.57"/>
<polygon fill="midnightblue" stroke="midnightblue" points="420.86,-162.77 415.6,-153.58 413.97,-164.05 420.86,-162.77"/>
</g>
<!-- Node15&#45;&gt;Node3 -->
<g id="edge21" class="edge">
<title>Node15&#45;&gt;Node3</title>
<path fill="none" stroke="midnightblue" d="M353.48,-126.95C303.43,-117.68 230.14,-103.18 167,-87 163.4,-86.08 159.66,-85.05 155.94,-83.98"/>
<polygon fill="midnightblue" stroke="midnightblue" points="156.81,-80.58 146.22,-81.08 154.81,-87.29 156.81,-80.58"/>
</g>
<!-- Node15&#45;&gt;Node5 -->
<g id="edge23" class="edge">
<title>Node15&#45;&gt;Node5</title>
<path fill="none" stroke="midnightblue" d="M472.67,-130.7C574.18,-119.09 774.72,-95.96 835.2,-87.11"/>
<polygon fill="midnightblue" stroke="midnightblue" points="836.01,-90.53 845.35,-85.54 834.94,-83.61 836.01,-90.53"/>
</g>
<!-- Node16 -->
<g id="node17" class="node">
<title>Node16</title>
<g id="a_node17"><a xlink:title=" ">
<polygon fill="white" stroke="#bfbfbf" points="313.5,-62 313.5,-81 358.5,-81 358.5,-62 313.5,-62"/>
<text text-anchor="middle" x="336" y="-69" font-family="Helvetica,sans-Serif" font-size="10.00">utility</text>
</a>
</g>
</g>
<!-- Node15&#45;&gt;Node16 -->
<g id="edge20" class="edge">
<title>Node15&#45;&gt;Node16</title>
<path fill="none" stroke="midnightblue" d="M396.29,-123.4C383.81,-112.86 366.77,-98.48 353.99,-87.69"/>
<polygon fill="midnightblue" stroke="midnightblue" points="356.2,-84.97 346.3,-81.19 351.68,-90.32 356.2,-84.97"/>
</g>
<!-- Node17 -->
<g id="node18" class="node">
<title>Node17</title>
<g id="a_node18"><a xlink:href="constants_8h.html" target="_top" xlink:title=" ">
<polygon fill="white" stroke="black" points="376.5,-62 376.5,-81 525.5,-81 525.5,-62 376.5,-62"/>
<text text-anchor="middle" x="451" y="-69" font-family="Helvetica,sans-Serif" font-size="10.00">drake/common/constants.h</text>
</a>
</g>
</g>
<!-- Node15&#45;&gt;Node17 -->
<g id="edge22" class="edge">
<title>Node15&#45;&gt;Node17</title>
<path fill="none" stroke="midnightblue" d="M421.25,-123.4C426.99,-113.56 434.7,-100.38 440.83,-89.89"/>
<polygon fill="midnightblue" stroke="midnightblue" points="443.89,-91.59 445.92,-81.19 437.85,-88.06 443.89,-91.59"/>
</g>
<!-- Node18 -->
<g id="node19" class="node">
<title>Node18</title>
<g id="a_node19"><a xlink:href="drake__copyable_8h.html" target="_top" xlink:title="Provides careful macros to selectively enable or disable the special member functions for copy&#45;constr...">
<polygon fill="white" stroke="black" points="176.5,-56.5 176.5,-86.5 295.5,-86.5 295.5,-56.5 176.5,-56.5"/>
<text text-anchor="start" x="184.5" y="-74.5" font-family="Helvetica,sans-Serif" font-size="10.00">drake/common/drake</text>
<text text-anchor="middle" x="236" y="-63.5" font-family="Helvetica,sans-Serif" font-size="10.00">_copyable.h</text>
</a>
</g>
</g>
<!-- Node15&#45;&gt;Node18 -->
<g id="edge24" class="edge">
<title>Node15&#45;&gt;Node18</title>
<path fill="none" stroke="midnightblue" d="M374.59,-123.4C348.04,-113.64 312.5,-100.59 284.07,-90.15"/>
<polygon fill="midnightblue" stroke="midnightblue" points="284.93,-86.74 274.33,-86.58 282.51,-93.31 284.93,-86.74"/>
</g>
<!-- Node19&#45;&gt;Node3 -->
<g id="edge29" class="edge">
<title>Node19&#45;&gt;Node3</title>
<path fill="none" stroke="midnightblue" d="M534.27,-195.91C476.42,-184.63 378.94,-164.97 344,-154 309.98,-143.32 303.36,-135.59 270,-123 231.89,-108.62 187.62,-93.96 157.1,-84.17"/>
<polygon fill="midnightblue" stroke="midnightblue" points="157.9,-80.75 147.31,-81.04 155.77,-87.42 157.9,-80.75"/>
</g>
<!-- Node19&#45;&gt;Node9 -->
<g id="edge26" class="edge">
<title>Node19&#45;&gt;Node9</title>
<path fill="none" stroke="midnightblue" d="M588.58,-195.73C599.97,-185.31 619.19,-167.71 633.1,-154.97"/>
<polygon fill="midnightblue" stroke="midnightblue" points="635.56,-157.46 640.58,-148.13 630.84,-152.3 635.56,-157.46"/>
</g>
<!-- Node20 -->
<g id="node21" class="node">
<title>Node20</title>
<g id="a_node21"><a xlink:title=" ">
<polygon fill="white" stroke="#bfbfbf" points="983,-62 983,-81 1027,-81 1027,-62 983,-62"/>
<text text-anchor="middle" x="1005" y="-69" font-family="Helvetica,sans-Serif" font-size="10.00">limits</text>
</a>
</g>
</g>
<!-- Node19&#45;&gt;Node20 -->
<g id="edge27" class="edge">
<title>Node19&#45;&gt;Node20</title>
<path fill="none" stroke="midnightblue" d="M627.12,-195.98C688.1,-184.96 789.67,-165.77 826,-154 883.06,-135.51 946.09,-104.02 980.04,-86.08"/>
<polygon fill="midnightblue" stroke="midnightblue" points="982.03,-88.98 989.2,-81.19 978.73,-82.81 982.03,-88.98"/>
</g>
<!-- Node21 -->
<g id="node22" class="node">
<title>Node21</title>
<g id="a_node22"><a xlink:title=" ">
<polygon fill="white" stroke="#bfbfbf" points="551.5,-129 551.5,-148 608.5,-148 608.5,-129 551.5,-129"/>
<text text-anchor="middle" x="580" y="-136" font-family="Helvetica,sans-Serif" font-size="10.00">ostream</text>
</a>
</g>
</g>
<!-- Node19&#45;&gt;Node21 -->
<g id="edge28" class="edge">
<title>Node19&#45;&gt;Node21</title>
<path fill="none" stroke="midnightblue" d="M579.13,-195.73C579.28,-186.18 579.52,-170.62 579.71,-158.28"/>
<polygon fill="midnightblue" stroke="midnightblue" points="583.21,-158.18 579.87,-148.13 576.21,-158.07 583.21,-158.18"/>
</g>
<!-- Node22&#45;&gt;Node5 -->
<g id="edge37" class="edge">
<title>Node22&#45;&gt;Node5</title>
<path fill="none" stroke="midnightblue" d="M869.28,-190.37C876.11,-167.85 889.54,-123.53 897.84,-96.12"/>
<polygon fill="midnightblue" stroke="midnightblue" points="901.2,-97.11 900.75,-86.52 894.5,-95.08 901.2,-97.11"/>
</g>
<!-- Node22&#45;&gt;Node9 -->
<g id="edge31" class="edge">
<title>Node22&#45;&gt;Node9</title>
<path fill="none" stroke="midnightblue" d="M806.14,-190.45C770.17,-181.31 723.46,-168.42 683,-154 681.34,-153.41 679.64,-152.77 677.94,-152.1"/>
<polygon fill="midnightblue" stroke="midnightblue" points="678.89,-148.71 668.31,-148.1 676.2,-155.17 678.89,-148.71"/>
</g>
<!-- Node22&#45;&gt;Node20 -->
<g id="edge32" class="edge">
<title>Node22&#45;&gt;Node20</title>
<path fill="none" stroke="midnightblue" d="M879.98,-190.37C906.32,-165.54 960.73,-114.24 988.26,-88.28"/>
<polygon fill="midnightblue" stroke="midnightblue" points="991.01,-90.5 995.88,-81.1 986.2,-85.41 991.01,-90.5"/>
</g>
<!-- Node23 -->
<g id="node24" class="node">
<title>Node23</title>
<g id="a_node24"><a xlink:href="cond_8h.html" target="_top" xlink:title=" ">
<polygon fill="white" stroke="black" points="691.5,-129 691.5,-148 816.5,-148 816.5,-129 691.5,-129"/>
<text text-anchor="middle" x="754" y="-136" font-family="Helvetica,sans-Serif" font-size="10.00">drake/common/cond.h</text>
</a>
</g>
</g>
<!-- Node22&#45;&gt;Node23 -->
<g id="edge33" class="edge">
<title>Node22&#45;&gt;Node23</title>
<path fill="none" stroke="midnightblue" d="M840.91,-190.4C822.04,-179.34 795.94,-164.06 777.28,-153.13"/>
<polygon fill="midnightblue" stroke="midnightblue" points="778.93,-150.04 768.53,-148.01 775.39,-156.08 778.93,-150.04"/>
</g>
<!-- Node26 -->
<g id="node27" class="node">
<title>Node26</title>
<g id="a_node27"><a xlink:href="dummy__value_8h.html" target="_top" xlink:title=" ">
<polygon fill="white" stroke="black" points="987,-123.5 987,-153.5 1117,-153.5 1117,-123.5 987,-123.5"/>
<text text-anchor="start" x="995" y="-141.5" font-family="Helvetica,sans-Serif" font-size="10.00">drake/common/dummy</text>
<text text-anchor="middle" x="1052" y="-130.5" font-family="Helvetica,sans-Serif" font-size="10.00">_value.h</text>
</a>
</g>
</g>
<!-- Node22&#45;&gt;Node26 -->
<g id="edge38" class="edge">
<title>Node22&#45;&gt;Node26</title>
<path fill="none" stroke="midnightblue" d="M905.58,-190.4C933.88,-180.56 971.83,-167.37 1002,-156.88"/>
<polygon fill="midnightblue" stroke="midnightblue" points="1003.21,-160.17 1011.5,-153.58 1000.91,-153.55 1003.21,-160.17"/>
</g>
<!-- Node23&#45;&gt;Node6 -->
<g id="edge35" class="edge">
<title>Node23&#45;&gt;Node6</title>
<path fill="none" stroke="midnightblue" d="M718.22,-128.95C680.87,-119.34 625.72,-102.98 611,-87 596.73,-71.51 592.4,-47.06 591.21,-30.1"/>
<polygon fill="midnightblue" stroke="midnightblue" points="594.69,-29.6 590.8,-19.75 587.7,-29.88 594.69,-29.6"/>
</g>
<!-- Node24 -->
<g id="node25" class="node">
<title>Node24</title>
<g id="a_node25"><a xlink:title=" ">
<polygon fill="white" stroke="#bfbfbf" points="619.5,-62 619.5,-81 684.5,-81 684.5,-62 619.5,-62"/>
<text text-anchor="middle" x="652" y="-69" font-family="Helvetica,sans-Serif" font-size="10.00">functional</text>
</a>
</g>
</g>
<!-- Node23&#45;&gt;Node24 -->
<g id="edge34" class="edge">
<title>Node23&#45;&gt;Node24</title>
<path fill="none" stroke="midnightblue" d="M740.24,-128.73C723.27,-117.92 694.19,-99.38 674.07,-86.57"/>
<polygon fill="midnightblue" stroke="midnightblue" points="675.85,-83.55 665.54,-81.13 672.09,-89.45 675.85,-83.55"/>
</g>
<!-- Node25 -->
<g id="node26" class="node">
<title>Node25</title>
<g id="a_node26"><a xlink:href="double__overloads_8h.html" target="_top" xlink:title="Provides necessary operations on double to have it as a ScalarType in drake.">
<polygon fill="white" stroke="black" points="702.5,-56.5 702.5,-86.5 827.5,-86.5 827.5,-56.5 702.5,-56.5"/>
<text text-anchor="start" x="710.5" y="-74.5" font-family="Helvetica,sans-Serif" font-size="10.00">drake/common/double</text>
<text text-anchor="middle" x="765" y="-63.5" font-family="Helvetica,sans-Serif" font-size="10.00">_overloads.h</text>
</a>
</g>
</g>
<!-- Node23&#45;&gt;Node25 -->
<g id="edge36" class="edge">
<title>Node23&#45;&gt;Node25</title>
<path fill="none" stroke="midnightblue" d="M755.48,-128.73C756.87,-120.54 759.01,-107.92 760.9,-96.71"/>
<polygon fill="midnightblue" stroke="midnightblue" points="764.4,-97.03 762.62,-86.59 757.5,-95.86 764.4,-97.03"/>
</g>
<!-- Node26&#45;&gt;Node20 -->
<g id="edge39" class="edge">
<title>Node26&#45;&gt;Node20</title>
<path fill="none" stroke="midnightblue" d="M1041.8,-123.4C1034.62,-113.46 1024.96,-100.11 1017.34,-89.57"/>
<polygon fill="midnightblue" stroke="midnightblue" points="1019.98,-87.25 1011.29,-81.19 1014.31,-91.35 1019.98,-87.25"/>
</g>
<!-- Node27&#45;&gt;Node3 -->
<g id="edge42" class="edge">
<title>Node27&#45;&gt;Node3</title>
<path fill="none" stroke="midnightblue" d="M228.16,-317.03C199.89,-311.48 168.55,-300.1 149,-277 103.25,-222.94 110.83,-130.57 116.68,-91.19"/>
<polygon fill="midnightblue" stroke="midnightblue" points="120.16,-91.59 118.31,-81.16 113.25,-90.47 120.16,-91.59"/>
</g>
</g>
</svg>
        <g id="navigator" transform="translate(0 0)" fill="#404254">
                <rect fill="#f2f5e9" fill-opacity="0.5" stroke="#606060" stroke-width=".5" x="0" y="0" width="60" height="60"/>
                <use id="zoomplus" xlink:href="#zoomPlus" x="17" y="9" onmousedown="handleZoom(evt,'in')"/>
                <use id="zoomminus" xlink:href="#zoomMin" x="42" y="9" onmousedown="handleZoom(evt,'out')"/>
                <use id="reset" xlink:href="#resetDef" x="30" y="36" onmousedown="handleReset()"/>
                <g id="arrowUp" xlink:href="#dirArrow" transform="translate(30 24)" onmousedown="handlePan(0,-1)">
                  <use xlink:href="#rim" fill="#404040">
                        <set attributeName="fill" to="#808080" begin="arrowUp.mouseover" end="arrowUp.mouseout"/>
                  </use>
                  <path fill="none" stroke="white" stroke-width="1.5" d="M0,-3.0v7 M-2.5,-0.5L0,-3.0L2.5,-0.5"/>
                </g>
                <g id="arrowRight" xlink:href="#dirArrow" transform="rotate(90) translate(36 -43)" onmousedown="handlePan(1,0)">
                  <use xlink:href="#rim" fill="#404040">
                        <set attributeName="fill" to="#808080" begin="arrowRight.mouseover" end="arrowRight.mouseout"/>
                  </use>
                  <path fill="none" stroke="white" stroke-width="1.5" d="M0,-3.0v7 M-2.5,-0.5L0,-3.0L2.5,-0.5"/>
                </g>
                <g id="arrowDown" xlink:href="#dirArrow" transform="rotate(180) translate(-30 -48)" onmousedown="handlePan(0,1)">
                  <use xlink:href="#rim" fill="#404040">
                        <set attributeName="fill" to="#808080" begin="arrowDown.mouseover" end="arrowDown.mouseout"/>
                  </use>
                  <path fill="none" stroke="white" stroke-width="1.5" d="M0,-3.0v7 M-2.5,-0.5L0,-3.0L2.5,-0.5"/>
                </g>
                <g id="arrowLeft" xlink:href="#dirArrow" transform="rotate(270) translate(-36 17)" onmousedown="handlePan(-1,0)">
                  <use xlink:href="#rim" fill="#404040">
                        <set attributeName="fill" to="#808080" begin="arrowLeft.mouseover" end="arrowLeft.mouseout"/>
                  </use>
                  <path fill="none" stroke="white" stroke-width="1.5" d="M0,-3.0v7 M-2.5,-0.5L0,-3.0L2.5,-0.5"/>
                </g>
        </g>
        <svg viewBox="0 0 15 15" width="100%" height="30px" preserveAspectRatio="xMaxYMin meet">
         <g id="arrow_out" transform="scale(0.3 0.3)">
          <a xlink:href="autodiff__gradient_8h__incl_org.svg" target="_base">
           <rect id="button" ry="5" rx="5" y="6" x="6" height="38" width="38"
                fill="#f2f5e9" fill-opacity="0.5" stroke="#606060" stroke-width="1.0"/>
           <path id="arrow"
             d="M 11.500037,31.436501 C 11.940474,20.09759 22.043105,11.32322 32.158766,21.979434 L 37.068811,17.246167 C 37.068811,17.246167 37.088388,32 37.088388,32 L 22.160133,31.978069 C 22.160133,31.978069 26.997745,27.140456 26.997745,27.140456 C 18.528582,18.264221 13.291696,25.230495 11.500037,31.436501 z"
             style="fill:#404040;"/>
          </a>
         </g>
        </svg>
</svg>
