<?xml version="1.0" encoding="UTF-8" standalone="no"?>
<!DOCTYPE svg PUBLIC "-//W3C//DTD SVG 1.1//EN"
 "http://www.w3.org/Graphics/SVG/1.1/DTD/svg11.dtd">
<!-- Generated by graphviz version 2.43.0 (0)
 -->
<!-- Title: drake/math/barycentric.h Pages: 1 -->
<svg width="1283pt" height="317pt"
 viewBox="0.00 0.00 1283.10 317.46" xmlns="http://www.w3.org/2000/svg" xmlns:xlink="http://www.w3.org/1999/xlink">
<g id="graph0" class="graph" transform="scale(1 1) rotate(0) translate(4 313.46)">
<title>drake/math/barycentric.h</title>
<!-- Node1 -->
<g id="Node000001" class="node">
<title>Node1</title>
<g id="a_Node000001"><a xlink:title=" ">
<ellipse fill="#999999" stroke="#666666" cx="810.48" cy="-296.03" rx="98.08" ry="13.37"/>
<text text-anchor="middle" x="810.48" y="-293.53" font-family="Helvetica,sans-Serif" font-size="10.00">drake/math/barycentric.h</text>
</a>
</g>
</g>
<!-- Node2 -->
<g id="Node000002" class="node">
<title>Node2</title>
<g id="a_Node000002"><a xlink:title=" ">
<ellipse fill="#e0e0e0" stroke="#999999" cx="37.48" cy="-146.95" rx="37.45" ry="13.37"/>
<text text-anchor="middle" x="37.48" y="-144.45" font-family="Helvetica,sans-Serif" font-size="10.00">iterator</text>
</a>
</g>
</g>
<!-- Node1&#45;&gt;Node2 -->
<g id="edge1_Node000001_Node000002" class="edge">
<title>Node1&#45;&gt;Node2</title>
<g id="a_edge1_Node000001_Node000002"><a xlink:title=" ">
<path fill="none" stroke="#63b8ff" d="M712.05,-295.79C601.29,-294.48 416.82,-285.74 263.48,-246.59 188.63,-227.49 107.01,-186.31 65.36,-163.67"/>
<polygon fill="#63b8ff" stroke="#63b8ff" points="66.82,-160.48 56.37,-158.73 63.45,-166.61 66.82,-160.48"/>
</a>
</g>
</g>
<!-- Node3 -->
<g id="Node000003" class="node">
<title>Node3</title>
<g id="a_Node000003"><a xlink:title=" ">
<ellipse fill="#e0e0e0" stroke="#999999" cx="1170.48" cy="-225.38" rx="41.02" ry="13.37"/>
<text text-anchor="middle" x="1170.48" y="-222.88" font-family="Helvetica,sans-Serif" font-size="10.00">memory</text>
</a>
</g>
</g>
<!-- Node1&#45;&gt;Node3 -->
<g id="edge2_Node000001_Node000003" class="edge">
<title>Node1&#45;&gt;Node3</title>
<g id="a_edge2_Node000001_Node000003"><a xlink:title=" ">
<path fill="none" stroke="#63b8ff" d="M885.27,-287.27C947.53,-279.84 1038.17,-266.73 1115.48,-246.59 1122.42,-244.78 1129.72,-242.44 1136.64,-239.99"/>
<polygon fill="#63b8ff" stroke="#63b8ff" points="1138.26,-243.12 1146.43,-236.37 1135.84,-236.55 1138.26,-243.12"/>
</a>
</g>
</g>
<!-- Node4 -->
<g id="Node000004" class="node">
<title>Node4</title>
<g id="a_Node000004"><a xlink:title=" ">
<ellipse fill="#e0e0e0" stroke="#999999" cx="1252.48" cy="-225.38" rx="22.76" ry="13.37"/>
<text text-anchor="middle" x="1252.48" y="-222.88" font-family="Helvetica,sans-Serif" font-size="10.00">set</text>
</a>
</g>
</g>
<!-- Node1&#45;&gt;Node4 -->
<g id="edge3_Node000001_Node000004" class="edge">
<title>Node1&#45;&gt;Node4</title>
<g id="a_edge3_Node000001_Node000004"><a xlink:title=" ">
<path fill="none" stroke="#63b8ff" d="M896.06,-289.39C998.23,-281.88 1162.54,-267.12 1220.48,-246.59 1223.93,-245.37 1227.39,-243.72 1230.7,-241.9"/>
<polygon fill="#63b8ff" stroke="#63b8ff" points="1232.81,-244.7 1239.46,-236.46 1229.12,-238.75 1232.81,-244.7"/>
</a>
</g>
</g>
<!-- Node5 -->
<g id="Node000005" class="node">
<title>Node5</title>
<g id="a_Node000005"><a xlink:title=" ">
<ellipse fill="#e0e0e0" stroke="#999999" cx="1067.48" cy="-76.31" rx="33.47" ry="13.37"/>
<text text-anchor="middle" x="1067.48" y="-73.81" font-family="Helvetica,sans-Serif" font-size="10.00">vector</text>
</a>
</g>
</g>
<!-- Node1&#45;&gt;Node5 -->
<g id="edge4_Node000001_Node000005" class="edge">
<title>Node1&#45;&gt;Node5</title>
<g id="a_edge4_Node000001_Node000005"><a xlink:title=" ">
<path fill="none" stroke="#63b8ff" d="M872.83,-285.58C937.85,-272.03 1036.57,-240.24 1082.48,-168.17 1095.79,-147.27 1087.49,-118.37 1078.86,-98.82"/>
<polygon fill="#63b8ff" stroke="#63b8ff" points="1081.9,-97.06 1074.43,-89.54 1075.58,-100.07 1081.9,-97.06"/>
</a>
</g>
</g>
<!-- Node6 -->
<g id="Node000006" class="node">
<title>Node6</title>
<g id="a_Node000006"><a xlink:title=" ">
<ellipse fill="#e0e0e0" stroke="#999999" cx="147.48" cy="-146.95" rx="54.39" ry="13.37"/>
<text text-anchor="middle" x="147.48" y="-144.45" font-family="Helvetica,sans-Serif" font-size="10.00">Eigen/Dense</text>
</a>
</g>
</g>
<!-- Node1&#45;&gt;Node6 -->
<g id="edge5_Node000001_Node000006" class="edge">
<title>Node1&#45;&gt;Node6</title>
<g id="a_edge5_Node000001_Node000006"><a xlink:title=" ">
<path fill="none" stroke="#63b8ff" d="M716.9,-291.78C630.08,-287.03 497.85,-275.34 386.48,-246.59 308.73,-226.53 222.95,-186.34 178.31,-163.95"/>
<polygon fill="#63b8ff" stroke="#63b8ff" points="179.68,-160.72 169.17,-159.33 176.52,-166.97 179.68,-160.72"/>
</a>
</g>
</g>
<!-- Node7 -->
<g id="Node000007" class="node">
<title>Node7</title>
<g id="a_Node000007"><a xlink:href="drake__assert_8h.html" target="_top" xlink:title="Provides Drake&#39;s assertion mechanics.">
<ellipse fill="white" stroke="#666666" cx="304.48" cy="-146.95" rx="84.29" ry="21.43"/>
<text text-anchor="start" x="252.98" y="-149.95" font-family="Helvetica,sans-Serif" font-size="10.00">drake/common/drake</text>
<text text-anchor="middle" x="304.48" y="-138.95" font-family="Helvetica,sans-Serif" font-size="10.00">_assert.h</text>
</a>
</g>
</g>
<!-- Node1&#45;&gt;Node7 -->
<g id="edge6_Node000001_Node000007" class="edge">
<title>Node1&#45;&gt;Node7</title>
<g id="a_edge6_Node000001_Node000007"><a xlink:title=" ">
<path fill="none" stroke="#63b8ff" d="M719.87,-290.75C652.14,-285.41 558.07,-273.45 479.48,-246.59 427.82,-228.94 373.92,-196 339.82,-173.07"/>
<polygon fill="#63b8ff" stroke="#63b8ff" points="341.41,-169.91 331.17,-167.18 337.46,-175.7 341.41,-169.91"/>
</a>
</g>
</g>
<!-- Node13 -->
<g id="Node000013" class="node">
<title>Node13</title>
<g id="a_Node000013"><a xlink:href="drake__copyable_8h.html" target="_top" xlink:title="Provides careful macros to selectively enable or disable the special member functions for copy&#45;constr...">
<ellipse fill="white" stroke="#666666" cx="989.48" cy="-146.95" rx="84.29" ry="21.43"/>
<text text-anchor="start" x="937.98" y="-149.95" font-family="Helvetica,sans-Serif" font-size="10.00">drake/common/drake</text>
<text text-anchor="middle" x="989.48" y="-138.95" font-family="Helvetica,sans-Serif" font-size="10.00">_copyable.h</text>
</a>
</g>
</g>
<!-- Node1&#45;&gt;Node13 -->
<g id="edge12_Node000001_Node000013" class="edge">
<title>Node1&#45;&gt;Node13</title>
<g id="a_edge12_Node000001_Node000013"><a xlink:title=" ">
<path fill="none" stroke="#63b8ff" d="M825.43,-282.74C854.45,-258.89 918.99,-205.87 957.9,-173.9"/>
<polygon fill="#63b8ff" stroke="#63b8ff" points="960.29,-176.46 965.79,-167.41 955.85,-171.06 960.29,-176.46"/>
</a>
</g>
</g>
<!-- Node14 -->
<g id="Node000014" class="node">
<title>Node14</title>
<g id="a_Node000014"><a xlink:href="eigen__types_8h.html" target="_top" xlink:title="This file contains abbreviated definitions for certain specializations of Eigen::Matrix that are comm...">
<ellipse fill="white" stroke="#666666" cx="572.48" cy="-225.38" rx="84.29" ry="21.43"/>
<text text-anchor="start" x="520.98" y="-228.38" font-family="Helvetica,sans-Serif" font-size="10.00">drake/common/eigen</text>
<text text-anchor="middle" x="572.48" y="-217.38" font-family="Helvetica,sans-Serif" font-size="10.00">_types.h</text>
</a>
</g>
</g>
<!-- Node1&#45;&gt;Node14 -->
<g id="edge13_Node000001_Node000014" class="edge">
<title>Node1&#45;&gt;Node14</title>
<g id="a_edge13_Node000001_Node000014"><a xlink:title=" ">
<path fill="none" stroke="#63b8ff" d="M771.18,-283.69C734.43,-273.09 678.92,-257.08 635.9,-244.67"/>
<polygon fill="#63b8ff" stroke="#63b8ff" points="636.67,-241.25 626.09,-241.84 634.73,-247.98 636.67,-241.25"/>
</a>
</g>
</g>
<!-- Node8 -->
<g id="Node000008" class="node">
<title>Node8</title>
<g id="a_Node000008"><a xlink:title=" ">
<ellipse fill="#e0e0e0" stroke="#999999" cx="304.48" cy="-76.31" rx="29.9" ry="13.37"/>
<text text-anchor="middle" x="304.48" y="-73.81" font-family="Helvetica,sans-Serif" font-size="10.00">array</text>
</a>
</g>
</g>
<!-- Node7&#45;&gt;Node8 -->
<g id="edge7_Node000007_Node000008" class="edge">
<title>Node7&#45;&gt;Node8</title>
<g id="a_edge7_Node000007_Node000008"><a xlink:title=" ">
<path fill="none" stroke="#63b8ff" d="M304.48,-125.73C304.48,-117.7 304.48,-108.42 304.48,-100.15"/>
<polygon fill="#63b8ff" stroke="#63b8ff" points="307.98,-100.05 304.48,-90.05 300.98,-100.05 307.98,-100.05"/>
</a>
</g>
</g>
<!-- Node9 -->
<g id="Node000009" class="node">
<title>Node9</title>
<g id="a_Node000009"><a xlink:title=" ">
<ellipse fill="#e0e0e0" stroke="#999999" cx="558.48" cy="-13.44" rx="31.23" ry="13.37"/>
<text text-anchor="middle" x="558.48" y="-10.94" font-family="Helvetica,sans-Serif" font-size="10.00">string</text>
</a>
</g>
</g>
<!-- Node7&#45;&gt;Node9 -->
<g id="edge8_Node000007_Node000009" class="edge">
<title>Node7&#45;&gt;Node9</title>
<g id="a_edge8_Node000007_Node000009"><a xlink:title=" ">
<path fill="none" stroke="#63b8ff" d="M344.69,-128.23C367.15,-117.86 395.39,-104.02 419.48,-89.74 437.27,-79.19 439.64,-73.35 457.48,-62.87 480.24,-49.49 507.27,-36.68 527.64,-27.6"/>
<polygon fill="#63b8ff" stroke="#63b8ff" points="529.31,-30.68 537.05,-23.45 526.49,-24.28 529.31,-30.68"/>
</a>
</g>
</g>
<!-- Node10 -->
<g id="Node000010" class="node">
<title>Node10</title>
<g id="a_Node000010"><a xlink:title=" ">
<ellipse fill="#e0e0e0" stroke="#999999" cx="381.48" cy="-76.31" rx="28.98" ry="13.37"/>
<text text-anchor="middle" x="381.48" y="-73.81" font-family="Helvetica,sans-Serif" font-size="10.00">tuple</text>
</a>
</g>
</g>
<!-- Node7&#45;&gt;Node10 -->
<g id="edge9_Node000007_Node000010" class="edge">
<title>Node7&#45;&gt;Node10</title>
<g id="a_edge9_Node000007_Node000010"><a xlink:title=" ">
<path fill="none" stroke="#63b8ff" d="M326.34,-126.47C337.25,-116.74 350.37,-105.04 361.07,-95.49"/>
<polygon fill="#63b8ff" stroke="#63b8ff" points="363.58,-97.95 368.71,-88.68 358.92,-92.73 363.58,-97.95"/>
</a>
</g>
</g>
<!-- Node11 -->
<g id="Node000011" class="node">
<title>Node11</title>
<g id="a_Node000011"><a xlink:title=" ">
<ellipse fill="#e0e0e0" stroke="#999999" cx="353.48" cy="-13.44" rx="48.58" ry="13.37"/>
<text text-anchor="middle" x="353.48" y="-10.94" font-family="Helvetica,sans-Serif" font-size="10.00">type_traits</text>
</a>
</g>
</g>
<!-- Node7&#45;&gt;Node11 -->
<g id="edge10_Node000007_Node000011" class="edge">
<title>Node7&#45;&gt;Node11</title>
<g id="a_edge10_Node000007_Node000011"><a xlink:title=" ">
<path fill="none" stroke="#63b8ff" d="M284.29,-126.28C269.21,-109.1 253.15,-83.72 265.48,-62.87 275.43,-46.02 293.57,-34.64 310.8,-27.17"/>
<polygon fill="#63b8ff" stroke="#63b8ff" points="312.24,-30.36 320.23,-23.41 309.64,-23.86 312.24,-30.36"/>
</a>
</g>
</g>
<!-- Node12 -->
<g id="Node000012" class="node">
<title>Node12</title>
<g id="a_Node000012"><a xlink:title=" ">
<ellipse fill="#e0e0e0" stroke="#999999" cx="498.48" cy="-76.31" rx="31.64" ry="13.37"/>
<text text-anchor="middle" x="498.48" y="-73.81" font-family="Helvetica,sans-Serif" font-size="10.00">utility</text>
</a>
</g>
</g>
<!-- Node7&#45;&gt;Node12 -->
<g id="edge11_Node000007_Node000012" class="edge">
<title>Node7&#45;&gt;Node12</title>
<g id="a_edge11_Node000007_Node000012"><a xlink:title=" ">
<path fill="none" stroke="#63b8ff" d="M351.44,-129.34C386.75,-116.84 434.25,-100.03 465.59,-88.94"/>
<polygon fill="#63b8ff" stroke="#63b8ff" points="466.9,-92.19 475.16,-85.56 464.56,-85.59 466.9,-92.19"/>
</a>
</g>
</g>
<!-- Node14&#45;&gt;Node2 -->
<g id="edge14_Node000014_Node000002" class="edge">
<title>Node14&#45;&gt;Node2</title>
<g id="a_edge14_Node000014_Node000002"><a xlink:title=" ">
<path fill="none" stroke="#63b8ff" d="M489.08,-222.14C390.81,-217.81 223.33,-205.17 84.48,-168.17 78.9,-166.68 73.12,-164.65 67.61,-162.44"/>
<polygon fill="#63b8ff" stroke="#63b8ff" points="68.64,-159.07 58.07,-158.35 65.88,-165.51 68.64,-159.07"/>
</a>
</g>
</g>
<!-- Node14&#45;&gt;Node6 -->
<g id="edge16_Node000014_Node000006" class="edge">
<title>Node14&#45;&gt;Node6</title>
<g id="a_edge16_Node000014_Node000006"><a xlink:title=" ">
<path fill="none" stroke="#63b8ff" d="M496.82,-215.98C423.33,-207.04 308.9,-191 211.48,-168.17 203.41,-166.28 194.89,-163.88 186.79,-161.4"/>
<polygon fill="#63b8ff" stroke="#63b8ff" points="187.76,-158.03 177.17,-158.36 185.65,-164.71 187.76,-158.03"/>
</a>
</g>
</g>
<!-- Node14&#45;&gt;Node7 -->
<g id="edge18_Node000014_Node000007" class="edge">
<title>Node14&#45;&gt;Node7</title>
<g id="a_edge18_Node000014_Node000007"><a xlink:title=" ">
<path fill="none" stroke="#63b8ff" d="M518.57,-209.01C475.13,-196.62 413.97,-179.18 368.13,-166.11"/>
<polygon fill="#63b8ff" stroke="#63b8ff" points="368.88,-162.68 358.3,-163.3 366.96,-169.41 368.88,-162.68"/>
</a>
</g>
</g>
<!-- Node14&#45;&gt;Node12 -->
<g id="edge15_Node000014_Node000012" class="edge">
<title>Node14&#45;&gt;Node12</title>
<g id="a_edge15_Node000014_Node000012"><a xlink:title=" ">
<path fill="none" stroke="#63b8ff" d="M598.29,-205.14C609.18,-195.41 620.67,-182.6 626.48,-168.17 633.52,-150.67 637.19,-141.25 626.48,-125.74 620.88,-117.63 568.78,-99.69 532.8,-88.07"/>
<polygon fill="#63b8ff" stroke="#63b8ff" points="533.72,-84.69 523.13,-84.97 531.59,-91.35 533.72,-84.69"/>
</a>
</g>
</g>
<!-- Node14&#45;&gt;Node13 -->
<g id="edge19_Node000014_Node000013" class="edge">
<title>Node14&#45;&gt;Node13</title>
<g id="a_edge19_Node000014_Node000013"><a xlink:title=" ">
<path fill="none" stroke="#63b8ff" d="M641.84,-213.22C707.55,-202.43 808.93,-185.27 896.48,-168.17 903.69,-166.76 911.21,-165.23 918.71,-163.66"/>
<polygon fill="#63b8ff" stroke="#63b8ff" points="919.46,-167.08 928.52,-161.59 918.01,-160.23 919.46,-167.08"/>
</a>
</g>
</g>
<!-- Node15 -->
<g id="Node000015" class="node">
<title>Node15</title>
<g id="a_Node000015"><a xlink:href="constants_8h.html" target="_top" xlink:title=" ">
<ellipse fill="white" stroke="#666666" cx="512.48" cy="-146.95" rx="105.22" ry="13.37"/>
<text text-anchor="middle" x="512.48" y="-144.45" font-family="Helvetica,sans-Serif" font-size="10.00">drake/common/constants.h</text>
</a>
</g>
</g>
<!-- Node14&#45;&gt;Node15 -->
<g id="edge17_Node000014_Node000015" class="edge">
<title>Node14&#45;&gt;Node15</title>
<g id="a_edge17_Node000014_Node000015"><a xlink:title=" ">
<path fill="none" stroke="#63b8ff" d="M556.71,-204.3C548.08,-193.3 537.4,-179.7 528.7,-168.61"/>
<polygon fill="#63b8ff" stroke="#63b8ff" points="531.42,-166.42 522.49,-160.71 525.92,-170.74 531.42,-166.42"/>
</a>
</g>
</g>
<!-- Node16 -->
<g id="Node000016" class="node">
<title>Node16</title>
<g id="a_Node000016"><a xlink:href="fmt__eigen_8h.html" target="_top" xlink:title=" ">
<ellipse fill="white" stroke="#666666" cx="780.48" cy="-146.95" rx="106.55" ry="13.37"/>
<text text-anchor="middle" x="780.48" y="-144.45" font-family="Helvetica,sans-Serif" font-size="10.00">drake/common/fmt_eigen.h</text>
</a>
</g>
</g>
<!-- Node14&#45;&gt;Node16 -->
<g id="edge20_Node000014_Node000016" class="edge">
<title>Node14&#45;&gt;Node16</title>
<g id="a_edge20_Node000014_Node000016"><a xlink:title=" ">
<path fill="none" stroke="#63b8ff" d="M618.38,-207.51C654.36,-194.29 703.99,-176.06 738.83,-163.26"/>
<polygon fill="#63b8ff" stroke="#63b8ff" points="740.06,-166.53 748.24,-159.8 737.65,-159.96 740.06,-166.53"/>
</a>
</g>
</g>
<!-- Node16&#45;&gt;Node5 -->
<g id="edge24_Node000016_Node000005" class="edge">
<title>Node16&#45;&gt;Node5</title>
<g id="a_edge24_Node000016_Node000005"><a xlink:title=" ">
<path fill="none" stroke="#63b8ff" d="M826.91,-134.85C883.43,-121.33 977.76,-98.76 1029.93,-86.29"/>
<polygon fill="#63b8ff" stroke="#63b8ff" points="1030.86,-89.66 1039.77,-83.93 1029.23,-82.85 1030.86,-89.66"/>
</a>
</g>
</g>
<!-- Node16&#45;&gt;Node9 -->
<g id="edge22_Node000016_Node000009" class="edge">
<title>Node16&#45;&gt;Node9</title>
<g id="a_edge22_Node000016_Node000009"><a xlink:title=" ">
<path fill="none" stroke="#63b8ff" d="M719.1,-135.93C666.85,-126.18 597.19,-109.91 577.48,-89.74 563.87,-75.82 559.57,-53.65 558.4,-36.96"/>
<polygon fill="#63b8ff" stroke="#63b8ff" points="561.9,-36.79 558.02,-26.93 554.9,-37.05 561.9,-36.79"/>
</a>
</g>
</g>
<!-- Node17 -->
<g id="Node000017" class="node">
<title>Node17</title>
<g id="a_Node000017"><a xlink:title=" ">
<ellipse fill="#e0e0e0" stroke="#999999" cx="614.48" cy="-76.31" rx="28.07" ry="13.37"/>
<text text-anchor="middle" x="614.48" y="-73.81" font-family="Helvetica,sans-Serif" font-size="10.00">span</text>
</a>
</g>
</g>
<!-- Node16&#45;&gt;Node17 -->
<g id="edge21_Node000016_Node000017" class="edge">
<title>Node16&#45;&gt;Node17</title>
<g id="a_edge21_Node000016_Node000017"><a xlink:title=" ">
<path fill="none" stroke="#63b8ff" d="M751.56,-134C721.55,-121.59 674.84,-102.27 644.45,-89.7"/>
<polygon fill="#63b8ff" stroke="#63b8ff" points="645.77,-86.46 635.2,-85.87 643.1,-92.93 645.77,-86.46"/>
</a>
</g>
</g>
<!-- Node18 -->
<g id="Node000018" class="node">
<title>Node18</title>
<g id="a_Node000018"><a xlink:title=" ">
<ellipse fill="#e0e0e0" stroke="#999999" cx="920.48" cy="-13.44" rx="51.74" ry="13.37"/>
<text text-anchor="middle" x="920.48" y="-10.94" font-family="Helvetica,sans-Serif" font-size="10.00">string_view</text>
</a>
</g>
</g>
<!-- Node16&#45;&gt;Node18 -->
<g id="edge23_Node000016_Node000018" class="edge">
<title>Node16&#45;&gt;Node18</title>
<g id="a_edge23_Node000016_Node000018"><a xlink:title=" ">
<path fill="none" stroke="#63b8ff" d="M835.5,-135.37C880.64,-125.44 939.32,-109.22 953.48,-89.74 965.91,-72.63 952.89,-50.1 939.73,-34.15"/>
<polygon fill="#63b8ff" stroke="#63b8ff" points="942.2,-31.67 932.96,-26.48 936.95,-36.29 942.2,-31.67"/>
</a>
</g>
</g>
<!-- Node19 -->
<g id="Node000019" class="node">
<title>Node19</title>
<g id="a_Node000019"><a xlink:title=" ">
<ellipse fill="#e0e0e0" stroke="#999999" cx="895.48" cy="-76.31" rx="48.58" ry="13.37"/>
<text text-anchor="middle" x="895.48" y="-73.81" font-family="Helvetica,sans-Serif" font-size="10.00">Eigen/Core</text>
</a>
</g>
</g>
<!-- Node16&#45;&gt;Node19 -->
<g id="edge25_Node000016_Node000019" class="edge">
<title>Node16&#45;&gt;Node19</title>
<g id="a_edge25_Node000016_Node000019"><a xlink:title=" ">
<path fill="none" stroke="#63b8ff" d="M801.04,-133.68C819.61,-122.59 847.1,-106.19 867.63,-93.93"/>
<polygon fill="#63b8ff" stroke="#63b8ff" points="869.45,-96.92 876.24,-88.79 865.86,-90.91 869.45,-96.92"/>
</a>
</g>
</g>
<!-- Node20 -->
<g id="Node000020" class="node">
<title>Node20</title>
<g id="a_Node000020"><a xlink:href="fmt_8h.html" target="_top" xlink:title=" ">
<ellipse fill="white" stroke="#666666" cx="744.48" cy="-76.31" rx="84.29" ry="13.37"/>
<text text-anchor="middle" x="744.48" y="-73.81" font-family="Helvetica,sans-Serif" font-size="10.00">drake/common/fmt.h</text>
</a>
</g>
</g>
<!-- Node16&#45;&gt;Node20 -->
<g id="edge26_Node000016_Node000020" class="edge">
<title>Node16&#45;&gt;Node20</title>
<g id="a_edge26_Node000016_Node000020"><a xlink:title=" ">
<path fill="none" stroke="#63b8ff" d="M773.87,-133.36C768.8,-123.69 761.67,-110.09 755.71,-98.72"/>
<polygon fill="#63b8ff" stroke="#63b8ff" points="758.78,-97.05 751.04,-89.82 752.58,-100.3 758.78,-97.05"/>
</a>
</g>
</g>
<!-- Node20&#45;&gt;Node9 -->
<g id="edge27_Node000020_Node000009" class="edge">
<title>Node20&#45;&gt;Node9</title>
<g id="a_edge27_Node000020_Node000009"><a xlink:title=" ">
<path fill="none" stroke="#63b8ff" d="M709.93,-64C676.22,-52.97 625.3,-36.3 591.96,-25.39"/>
<polygon fill="#63b8ff" stroke="#63b8ff" points="592.81,-21.99 582.22,-22.2 590.63,-28.64 592.81,-21.99"/>
</a>
</g>
</g>
<!-- Node20&#45;&gt;Node11 -->
<g id="edge29_Node000020_Node000011" class="edge">
<title>Node20&#45;&gt;Node11</title>
<g id="a_edge29_Node000020_Node000011"><a xlink:title=" ">
<path fill="none" stroke="#63b8ff" d="M687.2,-66.39C611.08,-54.54 477.73,-33.78 404.76,-22.42"/>
<polygon fill="#63b8ff" stroke="#63b8ff" points="404.87,-18.89 394.45,-20.81 403.79,-25.81 404.87,-18.89"/>
</a>
</g>
</g>
<!-- Node20&#45;&gt;Node18 -->
<g id="edge28_Node000020_Node000018" class="edge">
<title>Node20&#45;&gt;Node18</title>
<g id="a_edge28_Node000020_Node000018"><a xlink:title=" ">
<path fill="none" stroke="#63b8ff" d="M777.58,-63.86C807.05,-53.66 850.2,-38.74 881.37,-27.96"/>
<polygon fill="#63b8ff" stroke="#63b8ff" points="882.72,-31.2 891.03,-24.62 880.44,-24.58 882.72,-31.2"/>
</a>
</g>
</g>
<!-- Node21 -->
<g id="Node000021" class="node">
<title>Node21</title>
<g id="a_Node000021"><a xlink:title=" ">
<ellipse fill="#e0e0e0" stroke="#999999" cx="744.48" cy="-13.44" rx="55.72" ry="13.37"/>
<text text-anchor="middle" x="744.48" y="-10.94" font-family="Helvetica,sans-Serif" font-size="10.00">fmt/format.h</text>
</a>
</g>
</g>
<!-- Node20&#45;&gt;Node21 -->
<g id="edge30_Node000020_Node000021" class="edge">
<title>Node20&#45;&gt;Node21</title>
<g id="a_edge30_Node000020_Node000021"><a xlink:title=" ">
<path fill="none" stroke="#63b8ff" d="M744.48,-62.69C744.48,-55.35 744.48,-45.86 744.48,-37.25"/>
<polygon fill="#63b8ff" stroke="#63b8ff" points="747.98,-37.03 744.48,-27.03 740.98,-37.03 747.98,-37.03"/>
</a>
</g>
</g>
</g>
</svg>
