<?xml version="1.0" encoding="UTF-8" standalone="no"?>
<!DOCTYPE svg PUBLIC "-//W3C//DTD SVG 1.1//EN"
 "http://www.w3.org/Graphics/SVG/1.1/DTD/svg11.dtd">
<!-- Generated by graphviz version 2.43.0 (0)
 -->
<!-- Title: drake/multibody/contact_solvers/block_sparse_matrix.h Pages: 1 -->
<svg width="662pt" height="418pt"
 viewBox="0.00 0.00 661.50 418.00" xmlns="http://www.w3.org/2000/svg" xmlns:xlink="http://www.w3.org/1999/xlink">
<g id="graph0" class="graph" transform="scale(1 1) rotate(0) translate(4 414)">
<title>drake/multibody/contact_solvers/block_sparse_matrix.h</title>
<polygon fill="white" stroke="transparent" points="-4,4 -4,-414 657.5,-414 657.5,4 -4,4"/>
<!-- Node67 -->
<g id="node1" class="node">
<title>Node67</title>
<g id="a_node1"><a xlink:title=" ">
<polygon fill="#bfbfbf" stroke="black" points="423,-368.5 423,-409.5 558,-409.5 558,-368.5 423,-368.5"/>
<text text-anchor="start" x="431" y="-397.5" font-family="Helvetica,sans-Serif" font-size="10.00">drake/multibody/contact</text>
<text text-anchor="start" x="431" y="-386.5" font-family="Helvetica,sans-Serif" font-size="10.00">_solvers/block_sparse</text>
<text text-anchor="middle" x="490.5" y="-375.5" font-family="Helvetica,sans-Serif" font-size="10.00">_matrix.h</text>
</a>
</g>
</g>
<!-- Node68 -->
<g id="node2" class="node">
<title>Node68</title>
<g id="a_node2"><a xlink:href="supernodal__solver_8h.html" target="_top" xlink:title=" ">
<polygon fill="white" stroke="black" points="325.5,-296 325.5,-326 483.5,-326 483.5,-296 325.5,-296"/>
<text text-anchor="start" x="333.5" y="-314" font-family="Helvetica,sans-Serif" font-size="10.00">drake/multibody/contact</text>
<text text-anchor="middle" x="404.5" y="-303" font-family="Helvetica,sans-Serif" font-size="10.00">_solvers/supernodal_solver.h</text>
</a>
</g>
</g>
<!-- Node67&#45;&gt;Node68 -->
<g id="edge1" class="edge">
<title>Node67&#45;&gt;Node68</title>
<path fill="none" stroke="midnightblue" d="M460.69,-361.66C447.23,-349.76 431.86,-336.18 420.6,-326.23"/>
<polygon fill="midnightblue" stroke="midnightblue" points="458.54,-364.43 468.35,-368.43 463.18,-359.18 458.54,-364.43"/>
</g>
<!-- Node77 -->
<g id="node11" class="node">
<title>Node77</title>
<g id="a_node11"><a xlink:href="sap__constraint__bundle_8h.html" target="_top" xlink:title=" ">
<polygon fill="white" stroke="black" points="501.5,-290.5 501.5,-331.5 653.5,-331.5 653.5,-290.5 501.5,-290.5"/>
<text text-anchor="start" x="509.5" y="-319.5" font-family="Helvetica,sans-Serif" font-size="10.00">drake/multibody/contact</text>
<text text-anchor="start" x="509.5" y="-308.5" font-family="Helvetica,sans-Serif" font-size="10.00">_solvers/sap/sap_constraint</text>
<text text-anchor="middle" x="577.5" y="-297.5" font-family="Helvetica,sans-Serif" font-size="10.00">_bundle.h</text>
</a>
</g>
</g>
<!-- Node67&#45;&gt;Node77 -->
<g id="edge11" class="edge">
<title>Node67&#45;&gt;Node77</title>
<path fill="none" stroke="midnightblue" d="M520.52,-361.78C531.89,-351.84 544.63,-340.72 555.17,-331.51"/>
<polygon fill="midnightblue" stroke="midnightblue" points="518.13,-359.21 512.9,-368.43 522.74,-364.49 518.13,-359.21"/>
</g>
<!-- Node69 -->
<g id="node3" class="node">
<title>Node69</title>
<g id="a_node3"><a xlink:href="block__sparse__supernodal__solver_8h.html" target="_top" xlink:title=" ">
<polygon fill="white" stroke="black" points="0,-212.5 0,-253.5 135,-253.5 135,-212.5 0,-212.5"/>
<text text-anchor="start" x="8" y="-241.5" font-family="Helvetica,sans-Serif" font-size="10.00">drake/multibody/contact</text>
<text text-anchor="start" x="8" y="-230.5" font-family="Helvetica,sans-Serif" font-size="10.00">_solvers/block_sparse</text>
<text text-anchor="middle" x="67.5" y="-219.5" font-family="Helvetica,sans-Serif" font-size="10.00">_supernodal_solver.h</text>
</a>
</g>
</g>
<!-- Node68&#45;&gt;Node69 -->
<g id="edge2" class="edge">
<title>Node68&#45;&gt;Node69</title>
<path fill="none" stroke="midnightblue" d="M324.99,-293.93C273.17,-283.21 204.16,-268.48 143.5,-254 140.71,-253.33 137.87,-252.64 135,-251.94"/>
<polygon fill="midnightblue" stroke="midnightblue" points="324.29,-297.36 334.79,-295.95 325.7,-290.5 324.29,-297.36"/>
</g>
<!-- Node70 -->
<g id="node4" class="node">
<title>Node70</title>
<g id="a_node4"><a xlink:href="conex__supernodal__solver_8h.html" target="_top" xlink:title=" ">
<polygon fill="white" stroke="black" points="153,-212.5 153,-253.5 302,-253.5 302,-212.5 153,-212.5"/>
<text text-anchor="start" x="161" y="-241.5" font-family="Helvetica,sans-Serif" font-size="10.00">drake/multibody/contact</text>
<text text-anchor="start" x="161" y="-230.5" font-family="Helvetica,sans-Serif" font-size="10.00">_solvers/conex_supernodal</text>
<text text-anchor="middle" x="227.5" y="-219.5" font-family="Helvetica,sans-Serif" font-size="10.00">_solver.h</text>
</a>
</g>
</g>
<!-- Node68&#45;&gt;Node70 -->
<g id="edge3" class="edge">
<title>Node68&#45;&gt;Node70</title>
<path fill="none" stroke="midnightblue" d="M362.13,-291.81C335.31,-280.29 300.65,-265.41 273.21,-253.63"/>
<polygon fill="midnightblue" stroke="midnightblue" points="361.05,-295.15 371.62,-295.88 363.81,-288.72 361.05,-295.15"/>
</g>
<!-- Node75 -->
<g id="node9" class="node">
<title>Node75</title>
<g id="a_node9"><a xlink:href="dense__supernodal__solver_8h.html" target="_top" xlink:title=" ">
<polygon fill="white" stroke="black" points="320,-212.5 320,-253.5 489,-253.5 489,-212.5 320,-212.5"/>
<text text-anchor="start" x="328" y="-241.5" font-family="Helvetica,sans-Serif" font-size="10.00">drake/multibody/contact</text>
<text text-anchor="start" x="328" y="-230.5" font-family="Helvetica,sans-Serif" font-size="10.00">_solvers/sap/dense_supernodal</text>
<text text-anchor="middle" x="404.5" y="-219.5" font-family="Helvetica,sans-Serif" font-size="10.00">_solver.h</text>
</a>
</g>
</g>
<!-- Node68&#45;&gt;Node75 -->
<g id="edge8" class="edge">
<title>Node68&#45;&gt;Node75</title>
<path fill="none" stroke="midnightblue" d="M404.5,-285.66C404.5,-275.33 404.5,-263.44 404.5,-253.68"/>
<polygon fill="midnightblue" stroke="midnightblue" points="401,-285.7 404.5,-295.7 408,-285.71 401,-285.7"/>
</g>
<!-- Node76 -->
<g id="node10" class="node">
<title>Node76</title>
<g id="a_node10"><a xlink:href="sap__model_8h.html" target="_top" xlink:title=" ">
<polygon fill="white" stroke="black" points="507,-218 507,-248 650,-248 650,-218 507,-218"/>
<text text-anchor="start" x="515" y="-236" font-family="Helvetica,sans-Serif" font-size="10.00">drake/multibody/contact</text>
<text text-anchor="middle" x="578.5" y="-225" font-family="Helvetica,sans-Serif" font-size="10.00">_solvers/sap/sap_model.h</text>
</a>
</g>
</g>
<!-- Node68&#45;&gt;Node76 -->
<g id="edge9" class="edge">
<title>Node68&#45;&gt;Node76</title>
<path fill="none" stroke="midnightblue" d="M446,-291.87C476.76,-278.44 518.08,-260.39 546.35,-248.04"/>
<polygon fill="midnightblue" stroke="midnightblue" points="444.58,-288.67 436.82,-295.88 447.39,-295.09 444.58,-288.67"/>
</g>
<!-- Node71 -->
<g id="node5" class="node">
<title>Node71</title>
<g id="a_node5"><a xlink:href="sap__solver_8h.html" target="_top" xlink:title=" ">
<polygon fill="white" stroke="black" points="332,-145.5 332,-175.5 473,-175.5 473,-145.5 332,-145.5"/>
<text text-anchor="start" x="340" y="-163.5" font-family="Helvetica,sans-Serif" font-size="10.00">drake/multibody/contact</text>
<text text-anchor="middle" x="402.5" y="-152.5" font-family="Helvetica,sans-Serif" font-size="10.00">_solvers/sap/sap_solver.h</text>
</a>
</g>
</g>
<!-- Node70&#45;&gt;Node71 -->
<g id="edge4" class="edge">
<title>Node70&#45;&gt;Node71</title>
<path fill="none" stroke="midnightblue" d="M285.65,-208.57C312.79,-197.64 344.19,-184.99 367.6,-175.56"/>
<polygon fill="midnightblue" stroke="midnightblue" points="284.21,-205.38 276.25,-212.36 286.83,-211.87 284.21,-205.38"/>
</g>
<!-- Node72 -->
<g id="node6" class="node">
<title>Node72</title>
<g id="a_node6"><a xlink:href="sap__driver_8h.html" target="_top" xlink:title=" ">
<polygon fill="white" stroke="black" points="340.5,-78.5 340.5,-108.5 464.5,-108.5 464.5,-78.5 340.5,-78.5"/>
<text text-anchor="start" x="348.5" y="-96.5" font-family="Helvetica,sans-Serif" font-size="10.00">drake/multibody/plant</text>
<text text-anchor="middle" x="402.5" y="-85.5" font-family="Helvetica,sans-Serif" font-size="10.00">/sap_driver.h</text>
</a>
</g>
</g>
<!-- Node71&#45;&gt;Node72 -->
<g id="edge5" class="edge">
<title>Node71&#45;&gt;Node72</title>
<path fill="none" stroke="midnightblue" d="M402.5,-135.11C402.5,-126.15 402.5,-116.32 402.5,-108.58"/>
<polygon fill="midnightblue" stroke="midnightblue" points="399,-135.4 402.5,-145.4 406,-135.4 399,-135.4"/>
</g>
<!-- Node73 -->
<g id="node7" class="node">
<title>Node73</title>
<g id="a_node7"><a xlink:href="rigid__body__on__compliant__ground_8h.html" target="_top" xlink:title=" ">
<polygon fill="white" stroke="black" points="237,-0.5 237,-41.5 402,-41.5 402,-0.5 237,-0.5"/>
<text text-anchor="start" x="245" y="-29.5" font-family="Helvetica,sans-Serif" font-size="10.00">drake/multibody/plant</text>
<text text-anchor="start" x="245" y="-18.5" font-family="Helvetica,sans-Serif" font-size="10.00">/test_utilities/rigid</text>
<text text-anchor="middle" x="319.5" y="-7.5" font-family="Helvetica,sans-Serif" font-size="10.00">_body_on_compliant_ground.h</text>
</a>
</g>
</g>
<!-- Node72&#45;&gt;Node73 -->
<g id="edge6" class="edge">
<title>Node72&#45;&gt;Node73</title>
<path fill="none" stroke="midnightblue" d="M377.96,-71.66C366.76,-62.15 353.57,-50.94 342.56,-41.59"/>
<polygon fill="midnightblue" stroke="midnightblue" points="375.82,-74.43 385.7,-78.23 380.35,-69.09 375.82,-74.43"/>
</g>
<!-- Node74 -->
<g id="node8" class="node">
<title>Node74</title>
<g id="a_node8"><a xlink:href="robot__model_8h.html" target="_top" xlink:title=" ">
<polygon fill="white" stroke="black" points="420.5,-6 420.5,-36 552.5,-36 552.5,-6 420.5,-6"/>
<text text-anchor="start" x="428.5" y="-24" font-family="Helvetica,sans-Serif" font-size="10.00">drake/multibody/test</text>
<text text-anchor="middle" x="486.5" y="-13" font-family="Helvetica,sans-Serif" font-size="10.00">_utilities/robot_model.h</text>
</a>
</g>
</g>
<!-- Node72&#45;&gt;Node74 -->
<g id="edge7" class="edge">
<title>Node72&#45;&gt;Node74</title>
<path fill="none" stroke="midnightblue" d="M427.18,-71.79C440.91,-60.27 457.63,-46.23 469.81,-36"/>
<polygon fill="midnightblue" stroke="midnightblue" points="424.91,-69.12 419.5,-78.23 429.41,-74.49 424.91,-69.12"/>
</g>
<!-- Node76&#45;&gt;Node71 -->
<g id="edge10" class="edge">
<title>Node76&#45;&gt;Node71</title>
<path fill="none" stroke="midnightblue" d="M533.95,-214.15C504.09,-202.19 465.31,-186.66 437.63,-175.57"/>
<polygon fill="midnightblue" stroke="midnightblue" points="532.72,-217.43 543.31,-217.9 535.33,-210.94 532.72,-217.43"/>
</g>
<!-- Node77&#45;&gt;Node76 -->
<g id="edge12" class="edge">
<title>Node77&#45;&gt;Node76</title>
<path fill="none" stroke="midnightblue" d="M577.89,-280.28C578.04,-269.25 578.19,-257.25 578.31,-248.23"/>
<polygon fill="midnightblue" stroke="midnightblue" points="574.39,-280.38 577.76,-290.43 581.39,-280.48 574.39,-280.38"/>
</g>
</g>
</svg>
