<?xml version="1.0" encoding="UTF-8" standalone="no"?>
<!DOCTYPE svg PUBLIC "-//W3C//DTD SVG 1.1//EN"
 "http://www.w3.org/Graphics/SVG/1.1/DTD/svg11.dtd">
<!-- Generated by graphviz version 2.43.0 (0)
 -->
<!-- Title: drake/multibody/contact_solvers/block_sparse_matrix.h Pages: 1 -->
<svg width="474pt" height="195pt"
 viewBox="0.00 0.00 473.50 195.00" xmlns="http://www.w3.org/2000/svg" xmlns:xlink="http://www.w3.org/1999/xlink">
<g id="graph0" class="graph" transform="scale(1 1) rotate(0) translate(4 191)">
<title>drake/multibody/contact_solvers/block_sparse_matrix.h</title>
<polygon fill="white" stroke="transparent" points="-4,4 -4,-191 469.5,-191 469.5,4 -4,4"/>
<!-- Node67 -->
<g id="node1" class="node">
<title>Node67</title>
<g id="a_node1"><a xlink:title=" ">
<polygon fill="#bfbfbf" stroke="black" points="162,-145.5 162,-186.5 297,-186.5 297,-145.5 162,-145.5"/>
<text text-anchor="start" x="170" y="-174.5" font-family="Helvetica,sans-Serif" font-size="10.00">drake/multibody/contact</text>
<text text-anchor="start" x="170" y="-163.5" font-family="Helvetica,sans-Serif" font-size="10.00">_solvers/block_sparse</text>
<text text-anchor="middle" x="229.5" y="-152.5" font-family="Helvetica,sans-Serif" font-size="10.00">_matrix.h</text>
</a>
</g>
</g>
<!-- Node68 -->
<g id="node2" class="node">
<title>Node68</title>
<g id="a_node2"><a xlink:href="block__sparse__linear__operator_8h.html" target="_top" xlink:title=" ">
<polygon fill="white" stroke="black" points="0,-67.5 0,-108.5 135,-108.5 135,-67.5 0,-67.5"/>
<text text-anchor="start" x="8" y="-96.5" font-family="Helvetica,sans-Serif" font-size="10.00">drake/multibody/contact</text>
<text text-anchor="start" x="8" y="-85.5" font-family="Helvetica,sans-Serif" font-size="10.00">_solvers/block_sparse</text>
<text text-anchor="middle" x="67.5" y="-74.5" font-family="Helvetica,sans-Serif" font-size="10.00">_linear_operator.h</text>
</a>
</g>
</g>
<!-- Node67&#45;&gt;Node68 -->
<g id="edge1" class="edge">
<title>Node67&#45;&gt;Node68</title>
<path fill="none" stroke="midnightblue" d="M178.45,-141.05C156.1,-130.57 130.22,-118.42 109.08,-108.51"/>
<polygon fill="midnightblue" stroke="midnightblue" points="177.24,-144.35 187.78,-145.43 180.21,-138.01 177.24,-144.35"/>
</g>
<!-- Node69 -->
<g id="node3" class="node">
<title>Node69</title>
<g id="a_node3"><a xlink:href="sap__constraint__bundle_8h.html" target="_top" xlink:title=" ">
<polygon fill="white" stroke="black" points="153.5,-67.5 153.5,-108.5 305.5,-108.5 305.5,-67.5 153.5,-67.5"/>
<text text-anchor="start" x="161.5" y="-96.5" font-family="Helvetica,sans-Serif" font-size="10.00">drake/multibody/contact</text>
<text text-anchor="start" x="161.5" y="-85.5" font-family="Helvetica,sans-Serif" font-size="10.00">_solvers/sap/sap_constraint</text>
<text text-anchor="middle" x="229.5" y="-74.5" font-family="Helvetica,sans-Serif" font-size="10.00">_bundle.h</text>
</a>
</g>
</g>
<!-- Node67&#45;&gt;Node69 -->
<g id="edge2" class="edge">
<title>Node67&#45;&gt;Node69</title>
<path fill="none" stroke="midnightblue" d="M229.5,-135.3C229.5,-126.3 229.5,-116.65 229.5,-108.51"/>
<polygon fill="midnightblue" stroke="midnightblue" points="226,-135.43 229.5,-145.43 233,-135.43 226,-135.43"/>
</g>
<!-- Node71 -->
<g id="node5" class="node">
<title>Node71</title>
<g id="a_node5"><a xlink:href="sap__solver_8h.html" target="_top" xlink:title=" ">
<polygon fill="white" stroke="black" points="323.5,-73 323.5,-103 465.5,-103 465.5,-73 323.5,-73"/>
<text text-anchor="start" x="331.5" y="-91" font-family="Helvetica,sans-Serif" font-size="10.00">drake/multibody/contact</text>
<text text-anchor="middle" x="394.5" y="-80" font-family="Helvetica,sans-Serif" font-size="10.00">_solvers/sap/sap_solver.h</text>
</a>
</g>
</g>
<!-- Node67&#45;&gt;Node71 -->
<g id="edge4" class="edge">
<title>Node67&#45;&gt;Node71</title>
<path fill="none" stroke="midnightblue" d="M281.35,-141.12C308.47,-128.63 340.75,-113.76 363.87,-103.11"/>
<polygon fill="midnightblue" stroke="midnightblue" points="279.61,-138.07 271.99,-145.43 282.54,-144.42 279.61,-138.07"/>
</g>
<!-- Node70 -->
<g id="node4" class="node">
<title>Node70</title>
<g id="a_node4"><a xlink:href="sap__model_8h.html" target="_top" xlink:title=" ">
<polygon fill="white" stroke="black" points="158,-0.5 158,-30.5 301,-30.5 301,-0.5 158,-0.5"/>
<text text-anchor="start" x="166" y="-18.5" font-family="Helvetica,sans-Serif" font-size="10.00">drake/multibody/contact</text>
<text text-anchor="middle" x="229.5" y="-7.5" font-family="Helvetica,sans-Serif" font-size="10.00">_solvers/sap/sap_model.h</text>
</a>
</g>
</g>
<!-- Node69&#45;&gt;Node70 -->
<g id="edge3" class="edge">
<title>Node69&#45;&gt;Node70</title>
<path fill="none" stroke="midnightblue" d="M229.5,-57.08C229.5,-48.01 229.5,-38.45 229.5,-30.89"/>
<polygon fill="midnightblue" stroke="midnightblue" points="226,-57.36 229.5,-67.36 233,-57.36 226,-57.36"/>
</g>
</g>
</svg>
