<?xml version="1.0" encoding="UTF-8" standalone="no"?>
<!DOCTYPE svg PUBLIC "-//W3C//DTD SVG 1.1//EN"
 "http://www.w3.org/Graphics/SVG/1.1/DTD/svg11.dtd">
<!-- Generated by graphviz version 2.43.0 (0)
 -->
<!-- Title: drake/math/bspline_basis.h Pages: 1 -->
<svg width="1609pt" height="333pt"
 viewBox="0.00 0.00 1608.89 333.02" xmlns="http://www.w3.org/2000/svg" xmlns:xlink="http://www.w3.org/1999/xlink">
<g id="graph0" class="graph" transform="scale(1 1) rotate(0) translate(4 329.02)">
<title>drake/math/bspline_basis.h</title>
<!-- Node1 -->
<g id="Node000001" class="node">
<title>Node1</title>
<g id="a_Node000001"><a xlink:title=" ">
<ellipse fill="#999999" stroke="#666666" cx="562.85" cy="-303.81" rx="77.56" ry="21.43"/>
<text text-anchor="start" x="515.85" y="-306.81" font-family="Helvetica,sans-Serif" font-size="10.00">drake/math/bspline</text>
<text text-anchor="middle" x="562.85" y="-295.81" font-family="Helvetica,sans-Serif" font-size="10.00">_basis.h</text>
</a>
</g>
</g>
<!-- Node2 -->
<g id="Node000002" class="node">
<title>Node2</title>
<g id="a_Node000002"><a xlink:title=" ">
<ellipse fill="#e0e0e0" stroke="#999999" cx="74.85" cy="-76.31" rx="29.9" ry="13.37"/>
<text text-anchor="middle" x="74.85" y="-73.81" font-family="Helvetica,sans-Serif" font-size="10.00">array</text>
</a>
</g>
</g>
<!-- Node1&#45;&gt;Node2 -->
<g id="edge1_Node000001_Node000002" class="edge">
<title>Node1&#45;&gt;Node2</title>
<g id="a_edge1_Node000001_Node000002"><a xlink:title=" ">
<path fill="none" stroke="#63b8ff" d="M485.34,-301.18C399.89,-297.39 259.33,-285.2 144.85,-246.59 78,-224.05 42.33,-229.14 6.85,-168.17 -2.63,-151.87 -1.79,-142.5 6.85,-125.74 14.86,-110.2 30.41,-98.56 44.62,-90.58"/>
<polygon fill="#63b8ff" stroke="#63b8ff" points="46.42,-93.59 53.67,-85.87 43.19,-87.38 46.42,-93.59"/>
</a>
</g>
</g>
<!-- Node3 -->
<g id="Node000003" class="node">
<title>Node3</title>
<g id="a_Node000003"><a xlink:title=" ">
<ellipse fill="#e0e0e0" stroke="#999999" cx="1321.85" cy="-76.31" rx="33.47" ry="13.37"/>
<text text-anchor="middle" x="1321.85" y="-73.81" font-family="Helvetica,sans-Serif" font-size="10.00">vector</text>
</a>
</g>
</g>
<!-- Node1&#45;&gt;Node3 -->
<g id="edge2_Node000001_Node000003" class="edge">
<title>Node1&#45;&gt;Node3</title>
<g id="a_edge2_Node000001_Node000003"><a xlink:title=" ">
<path fill="none" stroke="#63b8ff" d="M640.67,-302.01C823.86,-298.3 1273.78,-277.97 1365.85,-168.17 1377.96,-153.72 1372.65,-143.33 1365.85,-125.74 1361.4,-114.22 1352.79,-103.75 1344.36,-95.51"/>
<polygon fill="#63b8ff" stroke="#63b8ff" points="1346.54,-92.76 1336.79,-88.61 1341.83,-97.94 1346.54,-92.76"/>
</a>
</g>
</g>
<!-- Node4 -->
<g id="Node000004" class="node">
<title>Node4</title>
<g id="a_Node000004"><a xlink:href="drake__assert_8h.html" target="_top" xlink:title="Provides Drake&#39;s assertion mechanics.">
<ellipse fill="white" stroke="#666666" cx="331.85" cy="-146.95" rx="84.29" ry="21.43"/>
<text text-anchor="start" x="280.35" y="-149.95" font-family="Helvetica,sans-Serif" font-size="10.00">drake/common/drake</text>
<text text-anchor="middle" x="331.85" y="-138.95" font-family="Helvetica,sans-Serif" font-size="10.00">_assert.h</text>
</a>
</g>
</g>
<!-- Node1&#45;&gt;Node4 -->
<g id="edge3_Node000001_Node000004" class="edge">
<title>Node1&#45;&gt;Node4</title>
<g id="a_edge3_Node000001_Node000004"><a xlink:title=" ">
<path fill="none" stroke="#63b8ff" d="M488.66,-297.26C448.77,-290.7 401.27,-276.61 368.85,-246.59 349.7,-228.87 340.41,-200.26 335.93,-178.41"/>
<polygon fill="#63b8ff" stroke="#63b8ff" points="339.32,-177.52 334.09,-168.31 332.43,-178.77 339.32,-177.52"/>
</a>
</g>
</g>
<!-- Node9 -->
<g id="Node000009" class="node">
<title>Node9</title>
<g id="a_Node000009"><a xlink:href="drake__bool_8h.html" target="_top" xlink:title=" ">
<ellipse fill="white" stroke="#666666" cx="237.85" cy="-225.38" rx="84.29" ry="21.43"/>
<text text-anchor="start" x="186.35" y="-228.38" font-family="Helvetica,sans-Serif" font-size="10.00">drake/common/drake</text>
<text text-anchor="middle" x="237.85" y="-217.38" font-family="Helvetica,sans-Serif" font-size="10.00">_bool.h</text>
</a>
</g>
</g>
<!-- Node1&#45;&gt;Node9 -->
<g id="edge9_Node000001_Node000009" class="edge">
<title>Node1&#45;&gt;Node9</title>
<g id="a_edge9_Node000001_Node000009"><a xlink:title=" ">
<path fill="none" stroke="#63b8ff" d="M505.49,-289.32C450.2,-276.32 366.43,-256.62 307.37,-242.73"/>
<polygon fill="#63b8ff" stroke="#63b8ff" points="307.91,-239.26 297.38,-240.38 306.31,-246.07 307.91,-239.26"/>
</a>
</g>
</g>
<!-- Node12 -->
<g id="Node000012" class="node">
<title>Node12</title>
<g id="a_Node000012"><a xlink:href="drake__copyable_8h.html" target="_top" xlink:title="Provides careful macros to selectively enable or disable the special member functions for copy&#45;constr...">
<ellipse fill="white" stroke="#666666" cx="555.85" cy="-146.95" rx="84.29" ry="21.43"/>
<text text-anchor="start" x="504.35" y="-149.95" font-family="Helvetica,sans-Serif" font-size="10.00">drake/common/drake</text>
<text text-anchor="middle" x="555.85" y="-138.95" font-family="Helvetica,sans-Serif" font-size="10.00">_copyable.h</text>
</a>
</g>
</g>
<!-- Node1&#45;&gt;Node12 -->
<g id="edge14_Node000001_Node000012" class="edge">
<title>Node1&#45;&gt;Node12</title>
<g id="a_edge14_Node000001_Node000012"><a xlink:title=" ">
<path fill="none" stroke="#63b8ff" d="M587.45,-283.64C598.02,-273.84 609.23,-260.95 614.85,-246.59 621.72,-229.03 622.27,-221.5 614.85,-204.17 609.89,-192.58 601.24,-182.26 592.06,-173.71"/>
<polygon fill="#63b8ff" stroke="#63b8ff" points="594.15,-170.89 584.31,-166.97 589.56,-176.17 594.15,-170.89"/>
</a>
</g>
</g>
<!-- Node13 -->
<g id="Node000013" class="node">
<title>Node13</title>
<g id="a_Node000013"><a xlink:href="eigen__types_8h.html" target="_top" xlink:title="This file contains abbreviated definitions for certain specializations of Eigen::Matrix that are comm...">
<ellipse fill="white" stroke="#666666" cx="829.85" cy="-225.38" rx="84.29" ry="21.43"/>
<text text-anchor="start" x="778.35" y="-228.38" font-family="Helvetica,sans-Serif" font-size="10.00">drake/common/eigen</text>
<text text-anchor="middle" x="829.85" y="-217.38" font-family="Helvetica,sans-Serif" font-size="10.00">_types.h</text>
</a>
</g>
</g>
<!-- Node1&#45;&gt;Node13 -->
<g id="edge15_Node000001_Node000013" class="edge">
<title>Node1&#45;&gt;Node13</title>
<g id="a_edge15_Node000001_Node000013"><a xlink:title=" ">
<path fill="none" stroke="#63b8ff" d="M614.65,-287.98C657.97,-275.58 719.95,-257.84 766.27,-244.58"/>
<polygon fill="#63b8ff" stroke="#63b8ff" points="767.26,-247.94 775.91,-241.82 765.33,-241.21 767.26,-247.94"/>
</a>
</g>
</g>
<!-- Node22 -->
<g id="Node000022" class="node">
<title>Node22</title>
<g id="a_Node000022"><a xlink:href="name__value_8h.html" target="_top" xlink:title=" ">
<ellipse fill="white" stroke="#666666" cx="491.85" cy="-225.38" rx="113.69" ry="13.37"/>
<text text-anchor="middle" x="491.85" y="-222.88" font-family="Helvetica,sans-Serif" font-size="10.00">drake/common/name_value.h</text>
</a>
</g>
</g>
<!-- Node1&#45;&gt;Node22 -->
<g id="edge33_Node000001_Node000022" class="edge">
<title>Node1&#45;&gt;Node22</title>
<g id="a_edge33_Node000001_Node000022"><a xlink:title=" ">
<path fill="none" stroke="#63b8ff" d="M544.56,-283.12C534.02,-271.77 520.79,-257.53 510.23,-246.16"/>
<polygon fill="#63b8ff" stroke="#63b8ff" points="512.77,-243.76 503.4,-238.82 507.64,-248.52 512.77,-243.76"/>
</a>
</g>
</g>
<!-- Node23 -->
<g id="Node000023" class="node">
<title>Node23</title>
<g id="a_Node000023"><a xlink:href="knot__vector__type_8h.html" target="_top" xlink:title=" ">
<ellipse fill="white" stroke="#666666" cx="1506.85" cy="-225.38" rx="94.09" ry="21.43"/>
<text text-anchor="start" x="1448.35" y="-228.38" font-family="Helvetica,sans-Serif" font-size="10.00">drake/math/knot_vector</text>
<text text-anchor="middle" x="1506.85" y="-217.38" font-family="Helvetica,sans-Serif" font-size="10.00">_type.h</text>
</a>
</g>
</g>
<!-- Node1&#45;&gt;Node23 -->
<g id="edge36_Node000001_Node000023" class="edge">
<title>Node1&#45;&gt;Node23</title>
<g id="a_edge36_Node000001_Node000023"><a xlink:title=" ">
<path fill="none" stroke="#63b8ff" d="M639.79,-300.66C787.47,-295.88 1120.69,-281.85 1398.85,-246.59 1408.89,-245.32 1419.4,-243.71 1429.77,-241.95"/>
<polygon fill="#63b8ff" stroke="#63b8ff" points="1430.39,-245.39 1439.64,-240.23 1429.18,-238.5 1430.39,-245.39"/>
</a>
</g>
</g>
<!-- Node4&#45;&gt;Node2 -->
<g id="edge4_Node000004_Node000002" class="edge">
<title>Node4&#45;&gt;Node2</title>
<g id="a_edge4_Node000004_Node000002"><a xlink:title=" ">
<path fill="none" stroke="#63b8ff" d="M276.08,-131.06C225.35,-117.51 152.06,-97.93 109.35,-86.52"/>
<polygon fill="#63b8ff" stroke="#63b8ff" points="110,-83.07 99.44,-83.87 108.2,-89.84 110,-83.07"/>
</a>
</g>
</g>
<!-- Node5 -->
<g id="Node000005" class="node">
<title>Node5</title>
<g id="a_Node000005"><a xlink:title=" ">
<ellipse fill="#e0e0e0" stroke="#999999" cx="862.85" cy="-13.44" rx="31.23" ry="13.37"/>
<text text-anchor="middle" x="862.85" y="-10.94" font-family="Helvetica,sans-Serif" font-size="10.00">string</text>
</a>
</g>
</g>
<!-- Node4&#45;&gt;Node5 -->
<g id="edge5_Node000004_Node000005" class="edge">
<title>Node4&#45;&gt;Node5</title>
<g id="a_edge5_Node000004_Node000005"><a xlink:title=" ">
<path fill="none" stroke="#63b8ff" d="M374.21,-128.49C420.92,-109.84 498.63,-80.59 567.85,-62.87 657.78,-39.85 766.06,-25.35 823.14,-18.71"/>
<polygon fill="#63b8ff" stroke="#63b8ff" points="823.65,-22.17 833.18,-17.56 822.85,-15.22 823.65,-22.17"/>
</a>
</g>
</g>
<!-- Node6 -->
<g id="Node000006" class="node">
<title>Node6</title>
<g id="a_Node000006"><a xlink:title=" ">
<ellipse fill="#e0e0e0" stroke="#999999" cx="344.85" cy="-76.31" rx="28.98" ry="13.37"/>
<text text-anchor="middle" x="344.85" y="-73.81" font-family="Helvetica,sans-Serif" font-size="10.00">tuple</text>
</a>
</g>
</g>
<!-- Node4&#45;&gt;Node6 -->
<g id="edge6_Node000004_Node000006" class="edge">
<title>Node4&#45;&gt;Node6</title>
<g id="a_edge6_Node000004_Node000006"><a xlink:title=" ">
<path fill="none" stroke="#63b8ff" d="M335.68,-125.73C337.22,-117.61 339,-108.21 340.58,-99.87"/>
<polygon fill="#63b8ff" stroke="#63b8ff" points="344.01,-100.52 342.44,-90.05 337.14,-99.22 344.01,-100.52"/>
</a>
</g>
</g>
<!-- Node7 -->
<g id="Node000007" class="node">
<title>Node7</title>
<g id="a_Node000007"><a xlink:title=" ">
<ellipse fill="#e0e0e0" stroke="#999999" cx="287.85" cy="-13.44" rx="48.58" ry="13.37"/>
<text text-anchor="middle" x="287.85" y="-10.94" font-family="Helvetica,sans-Serif" font-size="10.00">type_traits</text>
</a>
</g>
</g>
<!-- Node4&#45;&gt;Node7 -->
<g id="edge7_Node000004_Node000007" class="edge">
<title>Node4&#45;&gt;Node7</title>
<g id="a_edge7_Node000004_Node000007"><a xlink:title=" ">
<path fill="none" stroke="#63b8ff" d="M321.85,-125.73C316.89,-115.18 311.07,-101.95 306.85,-89.74 300.82,-72.31 295.81,-52 292.45,-36.87"/>
<polygon fill="#63b8ff" stroke="#63b8ff" points="295.83,-35.93 290.31,-26.89 288.98,-37.4 295.83,-35.93"/>
</a>
</g>
</g>
<!-- Node8 -->
<g id="Node000008" class="node">
<title>Node8</title>
<g id="a_Node000008"><a xlink:title=" ">
<ellipse fill="#e0e0e0" stroke="#999999" cx="608.85" cy="-76.31" rx="31.64" ry="13.37"/>
<text text-anchor="middle" x="608.85" y="-73.81" font-family="Helvetica,sans-Serif" font-size="10.00">utility</text>
</a>
</g>
</g>
<!-- Node4&#45;&gt;Node8 -->
<g id="edge8_Node000004_Node000008" class="edge">
<title>Node4&#45;&gt;Node8</title>
<g id="a_edge8_Node000004_Node000008"><a xlink:title=" ">
<path fill="none" stroke="#63b8ff" d="M389.92,-131.56C444.93,-117.93 525.85,-97.87 572.35,-86.35"/>
<polygon fill="#63b8ff" stroke="#63b8ff" points="573.42,-89.69 582.29,-83.89 571.74,-82.9 573.42,-89.69"/>
</a>
</g>
</g>
<!-- Node9&#45;&gt;Node4 -->
<g id="edge13_Node000009_Node000004" class="edge">
<title>Node9&#45;&gt;Node4</title>
<g id="a_edge13_Node000009_Node000004"><a xlink:title=" ">
<path fill="none" stroke="#63b8ff" d="M262.06,-204.7C273.66,-195.27 287.71,-183.84 300.15,-173.73"/>
<polygon fill="#63b8ff" stroke="#63b8ff" points="302.5,-176.33 308.05,-167.3 298.08,-170.9 302.5,-176.33"/>
</a>
</g>
</g>
<!-- Node9&#45;&gt;Node7 -->
<g id="edge10_Node000009_Node000007" class="edge">
<title>Node9&#45;&gt;Node7</title>
<g id="a_edge10_Node000009_Node000007"><a xlink:title=" ">
<path fill="none" stroke="#63b8ff" d="M235.7,-204.09C234.11,-183.96 233.11,-152.36 238.85,-125.74 245.98,-92.66 263.39,-57.37 275.41,-35.61"/>
<polygon fill="#63b8ff" stroke="#63b8ff" points="278.47,-37.31 280.34,-26.88 272.38,-33.87 278.47,-37.31"/>
</a>
</g>
</g>
<!-- Node10 -->
<g id="Node000010" class="node">
<title>Node10</title>
<g id="a_Node000010"><a xlink:title=" ">
<ellipse fill="#e0e0e0" stroke="#999999" cx="759.85" cy="-76.31" rx="48.58" ry="13.37"/>
<text text-anchor="middle" x="759.85" y="-73.81" font-family="Helvetica,sans-Serif" font-size="10.00">Eigen/Core</text>
</a>
</g>
</g>
<!-- Node9&#45;&gt;Node10 -->
<g id="edge11_Node000009_Node000010" class="edge">
<title>Node9&#45;&gt;Node10</title>
<g id="a_edge11_Node000009_Node000010"><a xlink:title=" ">
<path fill="none" stroke="#63b8ff" d="M306.99,-213.04C344.03,-204.72 389.23,-190.81 424.85,-168.17 446.21,-154.59 440.65,-137.9 462.85,-125.74 483.82,-114.26 626.62,-94.44 706.33,-84.07"/>
<polygon fill="#63b8ff" stroke="#63b8ff" points="707.2,-87.49 716.66,-82.73 706.3,-80.54 707.2,-87.49"/>
</a>
</g>
</g>
<!-- Node11 -->
<g id="Node000011" class="node">
<title>Node11</title>
<g id="a_Node000011"><a xlink:href="double__overloads_8h.html" target="_top" xlink:title="Provides necessary operations on double to have it as a ScalarType in drake.">
<ellipse fill="white" stroke="#666666" cx="103.85" cy="-146.95" rx="88.28" ry="21.43"/>
<text text-anchor="start" x="49.35" y="-149.95" font-family="Helvetica,sans-Serif" font-size="10.00">drake/common/double</text>
<text text-anchor="middle" x="103.85" y="-138.95" font-family="Helvetica,sans-Serif" font-size="10.00">_overloads.h</text>
</a>
</g>
</g>
<!-- Node9&#45;&gt;Node11 -->
<g id="edge12_Node000009_Node000011" class="edge">
<title>Node9&#45;&gt;Node11</title>
<g id="a_edge12_Node000009_Node000011"><a xlink:title=" ">
<path fill="none" stroke="#63b8ff" d="M205.07,-205.68C187.14,-195.46 164.75,-182.69 145.59,-171.76"/>
<polygon fill="#63b8ff" stroke="#63b8ff" points="147.18,-168.64 136.75,-166.72 143.71,-174.72 147.18,-168.64"/>
</a>
</g>
</g>
<!-- Node13&#45;&gt;Node4 -->
<g id="edge20_Node000013_Node000004" class="edge">
<title>Node13&#45;&gt;Node4</title>
<g id="a_edge20_Node000013_Node000004"><a xlink:title=" ">
<path fill="none" stroke="#63b8ff" d="M759.49,-213.63C685.61,-202.33 566.06,-184.03 462.85,-168.17 446.46,-165.65 428.92,-162.95 412.18,-160.36"/>
<polygon fill="#63b8ff" stroke="#63b8ff" points="412.29,-156.84 401.87,-158.77 411.22,-163.76 412.29,-156.84"/>
</a>
</g>
</g>
<!-- Node13&#45;&gt;Node8 -->
<g id="edge17_Node000013_Node000008" class="edge">
<title>Node13&#45;&gt;Node8</title>
<g id="a_edge17_Node000013_Node000008"><a xlink:title=" ">
<path fill="none" stroke="#63b8ff" d="M851.75,-204.6C872.55,-183.44 897.88,-149.7 877.85,-125.74 870.51,-116.96 721.33,-93.89 648.36,-83.06"/>
<polygon fill="#63b8ff" stroke="#63b8ff" points="648.58,-79.56 638.17,-81.56 647.56,-86.48 648.58,-79.56"/>
</a>
</g>
</g>
<!-- Node13&#45;&gt;Node12 -->
<g id="edge21_Node000013_Node000012" class="edge">
<title>Node13&#45;&gt;Node12</title>
<g id="a_edge21_Node000013_Node000012"><a xlink:title=" ">
<path fill="none" stroke="#63b8ff" d="M775.39,-209.19C730.8,-196.75 667.62,-179.13 620.48,-165.98"/>
<polygon fill="#63b8ff" stroke="#63b8ff" points="621.25,-162.56 610.68,-163.25 619.37,-169.3 621.25,-162.56"/>
</a>
</g>
</g>
<!-- Node14 -->
<g id="Node000014" class="node">
<title>Node14</title>
<g id="a_Node000014"><a xlink:title=" ">
<ellipse fill="#e0e0e0" stroke="#999999" cx="961.85" cy="-146.95" rx="37.45" ry="13.37"/>
<text text-anchor="middle" x="961.85" y="-144.45" font-family="Helvetica,sans-Serif" font-size="10.00">iterator</text>
</a>
</g>
</g>
<!-- Node13&#45;&gt;Node14 -->
<g id="edge16_Node000013_Node000014" class="edge">
<title>Node13&#45;&gt;Node14</title>
<g id="a_edge16_Node000013_Node000014"><a xlink:title=" ">
<path fill="none" stroke="#63b8ff" d="M862.14,-205.68C884.35,-192.83 913.51,-175.94 934.56,-163.75"/>
<polygon fill="#63b8ff" stroke="#63b8ff" points="936.42,-166.72 943.32,-158.68 932.91,-160.66 936.42,-166.72"/>
</a>
</g>
</g>
<!-- Node15 -->
<g id="Node000015" class="node">
<title>Node15</title>
<g id="a_Node000015"><a xlink:title=" ">
<ellipse fill="#e0e0e0" stroke="#999999" cx="1302.85" cy="-146.95" rx="54.39" ry="13.37"/>
<text text-anchor="middle" x="1302.85" y="-144.45" font-family="Helvetica,sans-Serif" font-size="10.00">Eigen/Dense</text>
</a>
</g>
</g>
<!-- Node13&#45;&gt;Node15 -->
<g id="edge18_Node000013_Node000015" class="edge">
<title>Node13&#45;&gt;Node15</title>
<g id="a_edge18_Node000013_Node000015"><a xlink:title=" ">
<path fill="none" stroke="#63b8ff" d="M908.41,-217.71C991.48,-209.71 1126,-194.03 1239.85,-168.17 1247.89,-166.34 1256.38,-163.95 1264.43,-161.45"/>
<polygon fill="#63b8ff" stroke="#63b8ff" points="1265.52,-164.78 1273.97,-158.38 1263.38,-158.11 1265.52,-164.78"/>
</a>
</g>
</g>
<!-- Node16 -->
<g id="Node000016" class="node">
<title>Node16</title>
<g id="a_Node000016"><a xlink:href="constants_8h.html" target="_top" xlink:title=" ">
<ellipse fill="white" stroke="#666666" cx="763.85" cy="-146.95" rx="105.22" ry="13.37"/>
<text text-anchor="middle" x="763.85" y="-144.45" font-family="Helvetica,sans-Serif" font-size="10.00">drake/common/constants.h</text>
</a>
</g>
</g>
<!-- Node13&#45;&gt;Node16 -->
<g id="edge19_Node000013_Node000016" class="edge">
<title>Node13&#45;&gt;Node16</title>
<g id="a_edge19_Node000013_Node000016"><a xlink:title=" ">
<path fill="none" stroke="#63b8ff" d="M812.51,-204.3C802.92,-193.2 791.03,-179.43 781.41,-168.29"/>
<polygon fill="#63b8ff" stroke="#63b8ff" points="784.05,-165.99 774.87,-160.71 778.75,-170.57 784.05,-165.99"/>
</a>
</g>
</g>
<!-- Node17 -->
<g id="Node000017" class="node">
<title>Node17</title>
<g id="a_Node000017"><a xlink:href="fmt__eigen_8h.html" target="_top" xlink:title=" ">
<ellipse fill="white" stroke="#666666" cx="1123.85" cy="-146.95" rx="106.55" ry="13.37"/>
<text text-anchor="middle" x="1123.85" y="-144.45" font-family="Helvetica,sans-Serif" font-size="10.00">drake/common/fmt_eigen.h</text>
</a>
</g>
</g>
<!-- Node13&#45;&gt;Node17 -->
<g id="edge22_Node000013_Node000017" class="edge">
<title>Node13&#45;&gt;Node17</title>
<g id="a_edge22_Node000013_Node000017"><a xlink:title=" ">
<path fill="none" stroke="#63b8ff" d="M886.54,-209.64C939.68,-195.83 1018.53,-175.33 1070.54,-161.81"/>
<polygon fill="#63b8ff" stroke="#63b8ff" points="1071.45,-165.19 1080.25,-159.29 1069.69,-158.42 1071.45,-165.19"/>
</a>
</g>
</g>
<!-- Node17&#45;&gt;Node3 -->
<g id="edge26_Node000017_Node000003" class="edge">
<title>Node17&#45;&gt;Node3</title>
<g id="a_edge26_Node000017_Node000003"><a xlink:title=" ">
<path fill="none" stroke="#63b8ff" d="M1157.89,-134.15C1194.27,-121.54 1251.61,-101.66 1287.95,-89.06"/>
<polygon fill="#63b8ff" stroke="#63b8ff" points="1289.3,-92.29 1297.6,-85.71 1287.01,-85.68 1289.3,-92.29"/>
</a>
</g>
</g>
<!-- Node17&#45;&gt;Node5 -->
<g id="edge24_Node000017_Node000005" class="edge">
<title>Node17&#45;&gt;Node5</title>
<g id="a_edge24_Node000017_Node000005"><a xlink:title=" ">
<path fill="none" stroke="#63b8ff" d="M1065.59,-135.69C998.26,-123.34 894.99,-102.64 881.85,-89.74 867.95,-76.11 863.69,-53.9 862.61,-37.12"/>
<polygon fill="#63b8ff" stroke="#63b8ff" points="866.11,-36.92 862.29,-27.03 859.11,-37.14 866.11,-36.92"/>
</a>
</g>
</g>
<!-- Node17&#45;&gt;Node10 -->
<g id="edge27_Node000017_Node000010" class="edge">
<title>Node17&#45;&gt;Node10</title>
<g id="a_edge27_Node000017_Node000010"><a xlink:title=" ">
<path fill="none" stroke="#63b8ff" d="M1068.17,-135.45C997.23,-122.07 875.76,-99.16 808.41,-86.46"/>
<polygon fill="#63b8ff" stroke="#63b8ff" points="808.95,-83 798.48,-84.59 807.66,-89.88 808.95,-83"/>
</a>
</g>
</g>
<!-- Node18 -->
<g id="Node000018" class="node">
<title>Node18</title>
<g id="a_Node000018"><a xlink:title=" ">
<ellipse fill="#e0e0e0" stroke="#999999" cx="1151.85" cy="-76.31" rx="28.07" ry="13.37"/>
<text text-anchor="middle" x="1151.85" y="-73.81" font-family="Helvetica,sans-Serif" font-size="10.00">span</text>
</a>
</g>
</g>
<!-- Node17&#45;&gt;Node18 -->
<g id="edge23_Node000017_Node000018" class="edge">
<title>Node17&#45;&gt;Node18</title>
<g id="a_edge23_Node000017_Node000018"><a xlink:title=" ">
<path fill="none" stroke="#63b8ff" d="M1128.98,-133.36C1132.85,-123.88 1138.25,-110.64 1142.84,-99.4"/>
<polygon fill="#63b8ff" stroke="#63b8ff" points="1146.21,-100.4 1146.75,-89.82 1139.73,-97.75 1146.21,-100.4"/>
</a>
</g>
</g>
<!-- Node19 -->
<g id="Node000019" class="node">
<title>Node19</title>
<g id="a_Node000019"><a xlink:title=" ">
<ellipse fill="#e0e0e0" stroke="#999999" cx="1095.85" cy="-13.44" rx="51.74" ry="13.37"/>
<text text-anchor="middle" x="1095.85" y="-10.94" font-family="Helvetica,sans-Serif" font-size="10.00">string_view</text>
</a>
</g>
</g>
<!-- Node17&#45;&gt;Node19 -->
<g id="edge25_Node000017_Node000019" class="edge">
<title>Node17&#45;&gt;Node19</title>
<g id="a_edge25_Node000017_Node000019"><a xlink:title=" ">
<path fill="none" stroke="#63b8ff" d="M1121.16,-133.34C1116.45,-111.21 1106.63,-65.07 1100.7,-37.22"/>
<polygon fill="#63b8ff" stroke="#63b8ff" points="1104.07,-36.25 1098.57,-27.2 1097.23,-37.71 1104.07,-36.25"/>
</a>
</g>
</g>
<!-- Node20 -->
<g id="Node000020" class="node">
<title>Node20</title>
<g id="a_Node000020"><a xlink:href="fmt_8h.html" target="_top" xlink:title=" ">
<ellipse fill="white" stroke="#666666" cx="974.85" cy="-76.31" rx="84.29" ry="13.37"/>
<text text-anchor="middle" x="974.85" y="-73.81" font-family="Helvetica,sans-Serif" font-size="10.00">drake/common/fmt.h</text>
</a>
</g>
</g>
<!-- Node17&#45;&gt;Node20 -->
<g id="edge28_Node000017_Node000020" class="edge">
<title>Node17&#45;&gt;Node20</title>
<g id="a_edge28_Node000017_Node000020"><a xlink:title=" ">
<path fill="none" stroke="#63b8ff" d="M1097.55,-133.84C1073.22,-122.63 1036.87,-105.88 1010.04,-93.52"/>
<polygon fill="#63b8ff" stroke="#63b8ff" points="1011.18,-90.19 1000.63,-89.18 1008.25,-96.55 1011.18,-90.19"/>
</a>
</g>
</g>
<!-- Node20&#45;&gt;Node5 -->
<g id="edge29_Node000020_Node000005" class="edge">
<title>Node20&#45;&gt;Node5</title>
<g id="a_edge29_Node000020_Node000005"><a xlink:title=" ">
<path fill="none" stroke="#63b8ff" d="M952.72,-63.28C934.75,-53.51 909.33,-39.7 890.1,-29.25"/>
<polygon fill="#63b8ff" stroke="#63b8ff" points="891.68,-26.12 881.23,-24.42 888.34,-32.27 891.68,-26.12"/>
</a>
</g>
</g>
<!-- Node20&#45;&gt;Node7 -->
<g id="edge31_Node000020_Node000007" class="edge">
<title>Node20&#45;&gt;Node7</title>
<g id="a_edge31_Node000020_Node000007"><a xlink:title=" ">
<path fill="none" stroke="#63b8ff" d="M903.92,-69.02C766.7,-56.86 467.53,-30.36 343.47,-19.36"/>
<polygon fill="#63b8ff" stroke="#63b8ff" points="343.7,-15.87 333.43,-18.47 343.09,-22.84 343.7,-15.87"/>
</a>
</g>
</g>
<!-- Node20&#45;&gt;Node19 -->
<g id="edge30_Node000020_Node000019" class="edge">
<title>Node20&#45;&gt;Node19</title>
<g id="a_edge30_Node000020_Node000019"><a xlink:title=" ">
<path fill="none" stroke="#63b8ff" d="M998.75,-63.28C1017.63,-53.78 1044.11,-40.46 1064.65,-30.13"/>
<polygon fill="#63b8ff" stroke="#63b8ff" points="1066.26,-33.24 1073.62,-25.62 1063.12,-26.98 1066.26,-33.24"/>
</a>
</g>
</g>
<!-- Node21 -->
<g id="Node000021" class="node">
<title>Node21</title>
<g id="a_Node000021"><a xlink:title=" ">
<ellipse fill="#e0e0e0" stroke="#999999" cx="970.85" cy="-13.44" rx="55.72" ry="13.37"/>
<text text-anchor="middle" x="970.85" y="-10.94" font-family="Helvetica,sans-Serif" font-size="10.00">fmt/format.h</text>
</a>
</g>
</g>
<!-- Node20&#45;&gt;Node21 -->
<g id="edge32_Node000020_Node000021" class="edge">
<title>Node20&#45;&gt;Node21</title>
<g id="a_edge32_Node000020_Node000021"><a xlink:title=" ">
<path fill="none" stroke="#63b8ff" d="M974.02,-62.69C973.54,-55.35 972.91,-45.86 972.35,-37.25"/>
<polygon fill="#63b8ff" stroke="#63b8ff" points="975.82,-36.78 971.68,-27.03 968.84,-37.24 975.82,-36.78"/>
</a>
</g>
</g>
<!-- Node22&#45;&gt;Node4 -->
<g id="edge34_Node000022_Node000004" class="edge">
<title>Node22&#45;&gt;Node4</title>
<g id="a_edge34_Node000022_Node000004"><a xlink:title=" ">
<path fill="none" stroke="#63b8ff" d="M466.5,-212.27C442.96,-201.03 407.34,-184.01 378.64,-170.31"/>
<polygon fill="#63b8ff" stroke="#63b8ff" points="380.13,-167.14 369.6,-165.98 377.11,-173.45 380.13,-167.14"/>
</a>
</g>
</g>
<!-- Node22&#45;&gt;Node12 -->
<g id="edge35_Node000022_Node000012" class="edge">
<title>Node22&#45;&gt;Node12</title>
<g id="a_edge35_Node000022_Node000012"><a xlink:title=" ">
<path fill="none" stroke="#63b8ff" d="M502.42,-211.76C510.63,-201.95 522.33,-187.98 532.69,-175.61"/>
<polygon fill="#63b8ff" stroke="#63b8ff" points="535.51,-177.69 539.25,-167.77 530.15,-173.19 535.51,-177.69"/>
</a>
</g>
</g>
</g>
</svg>
