<?xml version="1.0" encoding="UTF-8" standalone="no"?>
<!DOCTYPE svg PUBLIC "-//W3C//DTD SVG 1.1//EN"
 "http://www.w3.org/Graphics/SVG/1.1/DTD/svg11.dtd">
<!-- Generated by graphviz version 2.43.0 (0)
 -->
<!-- Title: drake/geometry/optimization/c_iris_collision_geometry.h Pages: 1 -->
<svg width="469pt" height="240pt"
 viewBox="0.00 0.00 468.80 240.00" xmlns="http://www.w3.org/2000/svg" xmlns:xlink="http://www.w3.org/1999/xlink">
<g id="graph0" class="graph" transform="scale(1 1) rotate(0) translate(4 236)">
<title>drake/geometry/optimization/c_iris_collision_geometry.h</title>
<polygon fill="white" stroke="transparent" points="-4,4 -4,-236 464.8,-236 464.8,4 -4,4"/>
<!-- Node245 -->
<g id="node1" class="node">
<title>Node245</title>
<g id="a_node1"><a xlink:title=" ">
<polygon fill="#bfbfbf" stroke="black" points="88.8,-201.5 88.8,-231.5 246.8,-231.5 246.8,-201.5 88.8,-201.5"/>
<text text-anchor="start" x="96.8" y="-219.5" font-family="Helvetica,sans-Serif" font-size="10.00">drake/geometry/optimization</text>
<text text-anchor="middle" x="167.8" y="-208.5" font-family="Helvetica,sans-Serif" font-size="10.00">/c_iris_collision_geometry.h</text>
</a>
</g>
</g>
<!-- Node246 -->
<g id="node2" class="node">
<title>Node246</title>
<g id="a_node2"><a xlink:href="cspace__free__polytope__base_8h.html" target="_top" xlink:title=" ">
<polygon fill="white" stroke="black" points="13.8,-67.5 13.8,-97.5 177.8,-97.5 177.8,-67.5 13.8,-67.5"/>
<text text-anchor="start" x="21.8" y="-85.5" font-family="Helvetica,sans-Serif" font-size="10.00">drake/geometry/optimization</text>
<text text-anchor="middle" x="95.8" y="-74.5" font-family="Helvetica,sans-Serif" font-size="10.00">/cspace_free_polytope_base.h</text>
</a>
</g>
</g>
<!-- Node245&#45;&gt;Node246 -->
<g id="edge1" class="edge">
<title>Node245&#45;&gt;Node246</title>
<path fill="none" stroke="midnightblue" d="M114.91,-196.7C101.05,-189.09 87.77,-178.75 79.8,-165 67.52,-143.79 78.6,-114.81 87.44,-97.73"/>
<polygon fill="midnightblue" stroke="midnightblue" points="113.55,-199.93 124.06,-201.32 116.71,-193.69 113.55,-199.93"/>
</g>
<!-- Node248 -->
<g id="node4" class="node">
<title>Node248</title>
<g id="a_node4"><a xlink:href="cspace__free__polytope_8h.html" target="_top" xlink:title=" ">
<polygon fill="white" stroke="black" points="16.8,-0.5 16.8,-30.5 174.8,-30.5 174.8,-0.5 16.8,-0.5"/>
<text text-anchor="start" x="24.8" y="-18.5" font-family="Helvetica,sans-Serif" font-size="10.00">drake/geometry/optimization</text>
<text text-anchor="middle" x="95.8" y="-7.5" font-family="Helvetica,sans-Serif" font-size="10.00">/cspace_free_polytope.h</text>
</a>
</g>
</g>
<!-- Node245&#45;&gt;Node248 -->
<g id="edge12" class="edge">
<title>Node245&#45;&gt;Node248</title>
<path fill="none" stroke="midnightblue" d="M118.77,-197.31C78.48,-179.22 24.89,-147.01 4.8,-98 -0.42,-85.25 -2.19,-78.87 4.8,-67 14.79,-50.03 32.77,-38.35 50.13,-30.54"/>
<polygon fill="midnightblue" stroke="midnightblue" points="117.62,-200.62 128.18,-201.39 120.4,-194.2 117.62,-200.62"/>
</g>
<!-- Node249 -->
<g id="node5" class="node">
<title>Node249</title>
<g id="a_node5"><a xlink:href="cspace__separating__plane_8h.html" target="_top" xlink:title="This file is used in our C&#45;IRIS algorithm and will be used in our C&#45;Space path certifier,...">
<polygon fill="white" stroke="black" points="88.8,-134.5 88.8,-164.5 246.8,-164.5 246.8,-134.5 88.8,-134.5"/>
<text text-anchor="start" x="96.8" y="-152.5" font-family="Helvetica,sans-Serif" font-size="10.00">drake/geometry/optimization</text>
<text text-anchor="middle" x="167.8" y="-141.5" font-family="Helvetica,sans-Serif" font-size="10.00">/cspace_separating_plane.h</text>
</a>
</g>
</g>
<!-- Node245&#45;&gt;Node249 -->
<g id="edge4" class="edge">
<title>Node245&#45;&gt;Node249</title>
<path fill="none" stroke="midnightblue" d="M167.8,-191.11C167.8,-182.15 167.8,-172.32 167.8,-164.58"/>
<polygon fill="midnightblue" stroke="midnightblue" points="164.3,-191.4 167.8,-201.4 171.3,-191.4 164.3,-191.4"/>
</g>
<!-- Node250 -->
<g id="node6" class="node">
<title>Node250</title>
<g id="a_node6"><a xlink:href="cspace__free__internal_8h.html" target="_top" xlink:title=" ">
<polygon fill="white" stroke="black" points="195.8,-67.5 195.8,-97.5 353.8,-97.5 353.8,-67.5 195.8,-67.5"/>
<text text-anchor="start" x="203.8" y="-85.5" font-family="Helvetica,sans-Serif" font-size="10.00">drake/geometry/optimization</text>
<text text-anchor="middle" x="274.8" y="-74.5" font-family="Helvetica,sans-Serif" font-size="10.00">/cspace_free_internal.h</text>
</a>
</g>
</g>
<!-- Node245&#45;&gt;Node250 -->
<g id="edge11" class="edge">
<title>Node245&#45;&gt;Node250</title>
<path fill="none" stroke="midnightblue" d="M216.1,-196.9C230.79,-189.08 245.7,-178.58 255.8,-165 270.71,-144.95 274.16,-115.05 274.82,-97.59"/>
<polygon fill="midnightblue" stroke="midnightblue" points="214.42,-193.83 207.03,-201.42 217.54,-200.09 214.42,-193.83"/>
</g>
<!-- Node251 -->
<g id="node7" class="node">
<title>Node251</title>
<g id="a_node7"><a xlink:href="cspace__free__structs_8h.html" target="_top" xlink:title=" ">
<polygon fill="white" stroke="black" points="302.8,-134.5 302.8,-164.5 460.8,-164.5 460.8,-134.5 302.8,-134.5"/>
<text text-anchor="start" x="310.8" y="-152.5" font-family="Helvetica,sans-Serif" font-size="10.00">drake/geometry/optimization</text>
<text text-anchor="middle" x="381.8" y="-141.5" font-family="Helvetica,sans-Serif" font-size="10.00">/cspace_free_structs.h</text>
</a>
</g>
</g>
<!-- Node245&#45;&gt;Node251 -->
<g id="edge7" class="edge">
<title>Node245&#45;&gt;Node251</title>
<path fill="none" stroke="midnightblue" d="M223.95,-198.44C258.64,-187.91 302.62,-174.55 335.34,-164.61"/>
<polygon fill="midnightblue" stroke="midnightblue" points="222.52,-195.22 213.97,-201.48 224.56,-201.92 222.52,-195.22"/>
</g>
<!-- Node247 -->
<g id="node3" class="node">
<title>Node247</title>
<g id="a_node3"><a xlink:href="cspace__free__box_8h.html" target="_top" xlink:title=" ">
<polygon fill="white" stroke="black" points="266.8,-0.5 266.8,-30.5 424.8,-30.5 424.8,-0.5 266.8,-0.5"/>
<text text-anchor="start" x="274.8" y="-18.5" font-family="Helvetica,sans-Serif" font-size="10.00">drake/geometry/optimization</text>
<text text-anchor="middle" x="345.8" y="-7.5" font-family="Helvetica,sans-Serif" font-size="10.00">/cspace_free_box.h</text>
</a>
</g>
</g>
<!-- Node246&#45;&gt;Node247 -->
<g id="edge2" class="edge">
<title>Node246&#45;&gt;Node247</title>
<path fill="none" stroke="midnightblue" d="M159.58,-64.92C200.38,-54.31 252.73,-40.7 291.53,-30.61"/>
<polygon fill="midnightblue" stroke="midnightblue" points="158.54,-61.57 149.74,-67.48 160.3,-68.35 158.54,-61.57"/>
</g>
<!-- Node246&#45;&gt;Node248 -->
<g id="edge3" class="edge">
<title>Node246&#45;&gt;Node248</title>
<path fill="none" stroke="midnightblue" d="M95.8,-57.11C95.8,-48.15 95.8,-38.32 95.8,-30.58"/>
<polygon fill="midnightblue" stroke="midnightblue" points="92.3,-57.4 95.8,-67.4 99.3,-57.4 92.3,-57.4"/>
</g>
<!-- Node249&#45;&gt;Node246 -->
<g id="edge5" class="edge">
<title>Node249&#45;&gt;Node246</title>
<path fill="none" stroke="midnightblue" d="M144.65,-127.6C133.78,-117.78 121.11,-106.34 111.39,-97.58"/>
<polygon fill="midnightblue" stroke="midnightblue" points="142.41,-130.29 152.18,-134.4 147.1,-125.1 142.41,-130.29"/>
</g>
<!-- Node249&#45;&gt;Node250 -->
<g id="edge6" class="edge">
<title>Node249&#45;&gt;Node250</title>
<path fill="none" stroke="midnightblue" d="M199.88,-129.02C216.53,-118.9 236.5,-106.77 251.63,-97.58"/>
<polygon fill="midnightblue" stroke="midnightblue" points="197.75,-126.21 191.02,-134.4 201.38,-132.2 197.75,-126.21"/>
</g>
<!-- Node251&#45;&gt;Node247 -->
<g id="edge8" class="edge">
<title>Node251&#45;&gt;Node247</title>
<path fill="none" stroke="midnightblue" d="M392.53,-124.9C398.55,-108.2 403.44,-85.58 395.8,-67 389.75,-52.28 377.1,-39.57 366.04,-30.59"/>
<polygon fill="midnightblue" stroke="midnightblue" points="389.19,-123.85 388.75,-134.43 395.69,-126.43 389.19,-123.85"/>
</g>
<!-- Node251&#45;&gt;Node248 -->
<g id="edge10" class="edge">
<title>Node251&#45;&gt;Node248</title>
<path fill="none" stroke="midnightblue" d="M382.77,-124.27C382.12,-105.99 378.07,-81.64 362.8,-67 336.37,-41.66 243.8,-28.48 175.03,-22.03"/>
<polygon fill="midnightblue" stroke="midnightblue" points="379.27,-124.49 382.81,-134.47 386.27,-124.46 379.27,-124.49"/>
</g>
<!-- Node251&#45;&gt;Node250 -->
<g id="edge9" class="edge">
<title>Node251&#45;&gt;Node250</title>
<path fill="none" stroke="midnightblue" d="M349.73,-129.02C333.07,-118.9 313.11,-106.77 297.97,-97.58"/>
<polygon fill="midnightblue" stroke="midnightblue" points="348.22,-132.2 358.58,-134.4 351.85,-126.21 348.22,-132.2"/>
</g>
</g>
</svg>
