<?xml version="1.0" encoding="UTF-8" standalone="no"?>
<!DOCTYPE svg PUBLIC "-//W3C//DTD SVG 1.1//EN"
 "http://www.w3.org/Graphics/SVG/1.1/DTD/svg11.dtd">
<!-- Generated by graphviz version 2.43.0 (0)
 -->
<!-- Title: drake/systems/framework/cache.h Pages: 1 -->
<svg width="2205pt" height="374pt"
 viewBox="0.00 0.00 2205.00 374.00" xmlns="http://www.w3.org/2000/svg" xmlns:xlink="http://www.w3.org/1999/xlink">
<g id="graph0" class="graph" transform="scale(1 1) rotate(0) translate(4 370)">
<title>drake/systems/framework/cache.h</title>
<polygon fill="white" stroke="transparent" points="-4,4 -4,-370 2201,-370 2201,4 -4,4"/>
<!-- Node0 -->
<g id="node1" class="node">
<title>Node0</title>
<g id="a_node1"><a xlink:title="Declares CacheEntryValue and Cache, which is the container for cache entry values.">
<polygon fill="#bfbfbf" stroke="black" points="865,-335.5 865,-365.5 1009,-365.5 1009,-335.5 865,-335.5"/>
<text text-anchor="start" x="873" y="-353.5" font-family="Helvetica,sans-Serif" font-size="10.00">drake/systems/framework</text>
<text text-anchor="middle" x="937" y="-342.5" font-family="Helvetica,sans-Serif" font-size="10.00">/cache.h</text>
</a>
</g>
</g>
<!-- Node1 -->
<g id="node2" class="node">
<title>Node1</title>
<g id="a_node2"><a xlink:title=" ">
<polygon fill="white" stroke="#bfbfbf" points="2005,-73 2005,-92 2055,-92 2055,-73 2005,-73"/>
<text text-anchor="middle" x="2030" y="-80" font-family="Helvetica,sans-Serif" font-size="10.00">cstdint</text>
</a>
</g>
</g>
<!-- Node0&#45;&gt;Node1 -->
<g id="edge1" class="edge">
<title>Node0&#45;&gt;Node1</title>
<path fill="none" stroke="midnightblue" d="M1009.09,-350.1C1131.93,-349.78 1389.09,-343.24 1601,-299 1689.47,-280.53 1711.53,-271.13 1793,-232 1877.87,-191.24 1970.14,-127.03 2009.91,-98.28"/>
<polygon fill="midnightblue" stroke="midnightblue" points="2012.19,-100.95 2018.22,-92.24 2008.07,-95.29 2012.19,-100.95"/>
</g>
<!-- Node2 -->
<g id="node3" class="node">
<title>Node2</title>
<g id="a_node3"><a xlink:title=" ">
<polygon fill="white" stroke="#bfbfbf" points="297,-73 297,-92 355,-92 355,-73 297,-73"/>
<text text-anchor="middle" x="326" y="-80" font-family="Helvetica,sans-Serif" font-size="10.00">memory</text>
</a>
</g>
</g>
<!-- Node0&#45;&gt;Node2 -->
<g id="edge2" class="edge">
<title>Node0&#45;&gt;Node2</title>
<path fill="none" stroke="midnightblue" d="M864.79,-342.82C694.9,-325.42 278.2,-272.42 198,-165 170.54,-128.22 239.74,-103.76 286.75,-91.88"/>
<polygon fill="midnightblue" stroke="midnightblue" points="287.8,-95.23 296.69,-89.47 286.15,-88.42 287.8,-95.23"/>
</g>
<!-- Node3 -->
<g id="node4" class="node">
<title>Node3</title>
<g id="a_node4"><a xlink:title=" ">
<polygon fill="white" stroke="#bfbfbf" points="639,-73 639,-92 671,-92 671,-73 639,-73"/>
<text text-anchor="middle" x="655" y="-80" font-family="Helvetica,sans-Serif" font-size="10.00">set</text>
</a>
</g>
</g>
<!-- Node0&#45;&gt;Node3 -->
<g id="edge3" class="edge">
<title>Node0&#45;&gt;Node3</title>
<path fill="none" stroke="midnightblue" d="M864.66,-339.99C770.57,-323.26 610.11,-278.76 541,-165 533.85,-153.22 533.32,-145.44 541,-134 564.55,-98.92 590.92,-116.32 629,-98 629.82,-97.61 630.64,-97.2 631.47,-96.78"/>
<polygon fill="midnightblue" stroke="midnightblue" points="633.12,-99.87 640.31,-92.09 629.84,-93.69 633.12,-99.87"/>
</g>
<!-- Node4 -->
<g id="node5" class="node">
<title>Node4</title>
<g id="a_node5"><a xlink:title=" ">
<polygon fill="white" stroke="#bfbfbf" points="978.5,-140 978.5,-159 1043.5,-159 1043.5,-140 978.5,-140"/>
<text text-anchor="middle" x="1011" y="-147" font-family="Helvetica,sans-Serif" font-size="10.00">stdexcept</text>
</a>
</g>
</g>
<!-- Node0&#45;&gt;Node4 -->
<g id="edge4" class="edge">
<title>Node0&#45;&gt;Node4</title>
<path fill="none" stroke="midnightblue" d="M942.32,-335.19C955.5,-299.76 989.62,-208 1004.21,-168.75"/>
<polygon fill="midnightblue" stroke="midnightblue" points="1007.5,-169.95 1007.71,-159.36 1000.94,-167.51 1007.5,-169.95"/>
</g>
<!-- Node5 -->
<g id="node6" class="node">
<title>Node5</title>
<g id="a_node6"><a xlink:title=" ">
<polygon fill="white" stroke="#bfbfbf" points="1678,-6 1678,-25 1722,-25 1722,-6 1678,-6"/>
<text text-anchor="middle" x="1700" y="-13" font-family="Helvetica,sans-Serif" font-size="10.00">string</text>
</a>
</g>
</g>
<!-- Node0&#45;&gt;Node5 -->
<g id="edge5" class="edge">
<title>Node0&#45;&gt;Node5</title>
<path fill="none" stroke="midnightblue" d="M1009.27,-349.57C1277,-348.89 2197,-337.78 2197,-217.5 2197,-217.5 2197,-217.5 2197,-148.5 2197,-91.85 2150.96,-89.57 2099,-67 2065.58,-52.48 1821.33,-28.06 1732.33,-19.54"/>
<polygon fill="midnightblue" stroke="midnightblue" points="1732.55,-16.05 1722.27,-18.58 1731.89,-23.01 1732.55,-16.05"/>
</g>
<!-- Node6 -->
<g id="node7" class="node">
<title>Node6</title>
<g id="a_node7"><a xlink:title=" ">
<polygon fill="white" stroke="#bfbfbf" points="417.5,-6 417.5,-25 462.5,-25 462.5,-6 417.5,-6"/>
<text text-anchor="middle" x="440" y="-13" font-family="Helvetica,sans-Serif" font-size="10.00">utility</text>
</a>
</g>
</g>
<!-- Node0&#45;&gt;Node6 -->
<g id="edge6" class="edge">
<title>Node0&#45;&gt;Node6</title>
<path fill="none" stroke="midnightblue" d="M864.64,-346.91C644.86,-338.07 0,-304.72 0,-217.5 0,-217.5 0,-217.5 0,-148.5 0,-101.61 26.05,-89.84 67,-67 125.12,-34.59 326.86,-21.79 406.9,-17.91"/>
<polygon fill="midnightblue" stroke="midnightblue" points="407.53,-21.38 417.36,-17.42 407.21,-14.39 407.53,-21.38"/>
</g>
<!-- Node7 -->
<g id="node8" class="node">
<title>Node7</title>
<g id="a_node8"><a xlink:title=" ">
<polygon fill="white" stroke="#bfbfbf" points="1802.5,-73 1802.5,-92 1849.5,-92 1849.5,-73 1802.5,-73"/>
<text text-anchor="middle" x="1826" y="-80" font-family="Helvetica,sans-Serif" font-size="10.00">vector</text>
</a>
</g>
</g>
<!-- Node0&#45;&gt;Node7 -->
<g id="edge7" class="edge">
<title>Node0&#45;&gt;Node7</title>
<path fill="none" stroke="midnightblue" d="M1009.11,-343.96C1175.31,-330.3 1580.33,-291.74 1702,-232 1744.24,-211.26 1754.38,-201.57 1784,-165 1799.85,-145.44 1812.14,-118.93 1819.23,-101.54"/>
<polygon fill="midnightblue" stroke="midnightblue" points="1822.57,-102.61 1822.95,-92.03 1816.05,-100.06 1822.57,-102.61"/>
</g>
<!-- Node8 -->
<g id="node9" class="node">
<title>Node8</title>
<g id="a_node9"><a xlink:href="copyable__unique__ptr_8h.html" target="_top" xlink:title=" ">
<polygon fill="white" stroke="black" points="550.5,-134.5 550.5,-164.5 687.5,-164.5 687.5,-134.5 550.5,-134.5"/>
<text text-anchor="start" x="558.5" y="-152.5" font-family="Helvetica,sans-Serif" font-size="10.00">drake/common/copyable</text>
<text text-anchor="middle" x="619" y="-141.5" font-family="Helvetica,sans-Serif" font-size="10.00">_unique_ptr.h</text>
</a>
</g>
</g>
<!-- Node0&#45;&gt;Node8 -->
<g id="edge8" class="edge">
<title>Node0&#45;&gt;Node8</title>
<path fill="none" stroke="midnightblue" d="M912.63,-335.41C875.33,-313.72 802,-270.63 741,-232 708.8,-211.61 672.56,-187.21 648.01,-170.46"/>
<polygon fill="midnightblue" stroke="midnightblue" points="649.75,-167.41 639.52,-164.65 645.8,-173.19 649.75,-167.41"/>
</g>
<!-- Node10 -->
<g id="node11" class="node">
<title>Node10</title>
<g id="a_node11"><a xlink:href="drake__assert_8h.html" target="_top" xlink:title="Provides Drake&#39;s assertion mechanics.">
<polygon fill="white" stroke="black" points="1867.5,-67.5 1867.5,-97.5 1986.5,-97.5 1986.5,-67.5 1867.5,-67.5"/>
<text text-anchor="start" x="1875.5" y="-85.5" font-family="Helvetica,sans-Serif" font-size="10.00">drake/common/drake</text>
<text text-anchor="middle" x="1927" y="-74.5" font-family="Helvetica,sans-Serif" font-size="10.00">_assert.h</text>
</a>
</g>
</g>
<!-- Node0&#45;&gt;Node10 -->
<g id="edge23" class="edge">
<title>Node0&#45;&gt;Node10</title>
<path fill="none" stroke="midnightblue" d="M1009.18,-347.81C1119.64,-344.19 1336.89,-333.02 1518,-299 1622.22,-279.42 1649.82,-274.45 1747,-232 1800.15,-208.78 1814.91,-202.69 1859,-165 1879.4,-147.56 1898.59,-123.59 1911.35,-106.17"/>
<polygon fill="midnightblue" stroke="midnightblue" points="1914.43,-107.88 1917.41,-97.72 1908.74,-103.8 1914.43,-107.88"/>
</g>
<!-- Node17 -->
<g id="node18" class="node">
<title>Node17</title>
<g id="a_node18"><a xlink:href="reset__on__copy_8h.html" target="_top" xlink:title=" ">
<polygon fill="white" stroke="black" points="85.5,-67.5 85.5,-97.5 202.5,-97.5 202.5,-67.5 85.5,-67.5"/>
<text text-anchor="start" x="93.5" y="-85.5" font-family="Helvetica,sans-Serif" font-size="10.00">drake/common/reset</text>
<text text-anchor="middle" x="144" y="-74.5" font-family="Helvetica,sans-Serif" font-size="10.00">_on_copy.h</text>
</a>
</g>
</g>
<!-- Node0&#45;&gt;Node17 -->
<g id="edge24" class="edge">
<title>Node0&#45;&gt;Node17</title>
<path fill="none" stroke="midnightblue" d="M864.97,-348.32C764.2,-345.36 575.98,-335 420,-299 336.82,-279.8 308.8,-282.54 240,-232 195.83,-199.55 166.58,-140.14 152.92,-107.15"/>
<polygon fill="midnightblue" stroke="midnightblue" points="156.15,-105.8 149.18,-97.82 149.65,-108.41 156.15,-105.8"/>
</g>
<!-- Node18 -->
<g id="node19" class="node">
<title>Node18</title>
<g id="a_node19"><a xlink:href="value_8h.html" target="_top" xlink:title=" ">
<polygon fill="white" stroke="black" points="750,-207 750,-226 878,-226 878,-207 750,-207"/>
<text text-anchor="middle" x="814" y="-214" font-family="Helvetica,sans-Serif" font-size="10.00">drake/common/value.h</text>
</a>
</g>
</g>
<!-- Node0&#45;&gt;Node18 -->
<g id="edge27" class="edge">
<title>Node0&#45;&gt;Node18</title>
<path fill="none" stroke="midnightblue" d="M923.84,-335.37C900.8,-310.65 853.31,-259.68 829.02,-233.62"/>
<polygon fill="midnightblue" stroke="midnightblue" points="831.39,-231.03 822.01,-226.1 826.27,-235.8 831.39,-231.03"/>
</g>
<!-- Node29 -->
<g id="node30" class="node">
<title>Node29</title>
<g id="a_node30"><a xlink:href="framework__common_8h.html" target="_top" xlink:title=" ">
<polygon fill="white" stroke="black" points="1260,-268.5 1260,-298.5 1404,-298.5 1404,-268.5 1260,-268.5"/>
<text text-anchor="start" x="1268" y="-286.5" font-family="Helvetica,sans-Serif" font-size="10.00">drake/systems/framework</text>
<text text-anchor="middle" x="1332" y="-275.5" font-family="Helvetica,sans-Serif" font-size="10.00">/framework_common.h</text>
</a>
</g>
</g>
<!-- Node0&#45;&gt;Node29 -->
<g id="edge62" class="edge">
<title>Node0&#45;&gt;Node29</title>
<path fill="none" stroke="midnightblue" d="M1009.45,-337.58C1077.27,-326.42 1178.52,-309.76 1249.44,-298.09"/>
<polygon fill="midnightblue" stroke="midnightblue" points="1250.38,-301.48 1259.68,-296.4 1249.24,-294.57 1250.38,-301.48"/>
</g>
<!-- Node8&#45;&gt;Node2 -->
<g id="edge10" class="edge">
<title>Node8&#45;&gt;Node2</title>
<path fill="none" stroke="midnightblue" d="M555.78,-134.48C497.83,-121.62 413.84,-102.99 365.08,-92.17"/>
<polygon fill="midnightblue" stroke="midnightblue" points="365.75,-88.73 355.23,-89.99 364.24,-95.57 365.75,-88.73"/>
</g>
<!-- Node8&#45;&gt;Node6 -->
<g id="edge11" class="edge">
<title>Node8&#45;&gt;Node6</title>
<path fill="none" stroke="midnightblue" d="M597.71,-134.47C582.79,-124.52 562.48,-110.73 545,-98 514.15,-75.53 479.34,-48.08 458.56,-31.46"/>
<polygon fill="midnightblue" stroke="midnightblue" points="460.56,-28.58 450.57,-25.05 456.18,-34.04 460.56,-28.58"/>
</g>
<!-- Node9 -->
<g id="node10" class="node">
<title>Node9</title>
<g id="a_node10"><a xlink:title=" ">
<polygon fill="white" stroke="#bfbfbf" points="752.5,-6 752.5,-25 805.5,-25 805.5,-6 752.5,-6"/>
<text text-anchor="middle" x="779" y="-13" font-family="Helvetica,sans-Serif" font-size="10.00">cstddef</text>
</a>
</g>
</g>
<!-- Node8&#45;&gt;Node9 -->
<g id="edge9" class="edge">
<title>Node8&#45;&gt;Node9</title>
<path fill="none" stroke="midnightblue" d="M594.05,-134.35C568.53,-118.09 535.11,-90.6 554,-67 565.77,-52.3 681.73,-31.94 742.41,-22.17"/>
<polygon fill="midnightblue" stroke="midnightblue" points="743.03,-25.61 752.35,-20.58 741.93,-18.7 743.03,-25.61"/>
</g>
<!-- Node8&#45;&gt;Node10 -->
<g id="edge12" class="edge">
<title>Node8&#45;&gt;Node10</title>
<path fill="none" stroke="midnightblue" d="M687.59,-138.86C703.15,-136.97 719.62,-135.2 735,-134 1229.56,-95.25 1360.48,-156.76 1857.33,-97.91"/>
<polygon fill="midnightblue" stroke="midnightblue" points="1857.75,-101.38 1867.27,-96.72 1856.92,-94.43 1857.75,-101.38"/>
</g>
<!-- Node14 -->
<g id="node15" class="node">
<title>Node14</title>
<g id="a_node15"><a xlink:href="fmt_8h.html" target="_top" xlink:title=" ">
<polygon fill="white" stroke="black" points="979.5,-73 979.5,-92 1098.5,-92 1098.5,-73 979.5,-73"/>
<text text-anchor="middle" x="1039" y="-80" font-family="Helvetica,sans-Serif" font-size="10.00">drake/common/fmt.h</text>
</a>
</g>
</g>
<!-- Node8&#45;&gt;Node14 -->
<g id="edge18" class="edge">
<title>Node8&#45;&gt;Node14</title>
<path fill="none" stroke="midnightblue" d="M687.88,-137.84C767.06,-125.59 896.05,-105.62 973.69,-93.61"/>
<polygon fill="midnightblue" stroke="midnightblue" points="974.48,-97.03 983.83,-92.04 973.41,-90.11 974.48,-97.03"/>
</g>
<!-- Node10&#45;&gt;Node5 -->
<g id="edge14" class="edge">
<title>Node10&#45;&gt;Node5</title>
<path fill="none" stroke="midnightblue" d="M1878.02,-67.48C1833.82,-54.82 1770.08,-36.57 1732.07,-25.68"/>
<polygon fill="midnightblue" stroke="midnightblue" points="1732.64,-22.21 1722.07,-22.82 1730.72,-28.94 1732.64,-22.21"/>
</g>
<!-- Node10&#45;&gt;Node6 -->
<g id="edge17" class="edge">
<title>Node10&#45;&gt;Node6</title>
<path fill="none" stroke="midnightblue" d="M1867.27,-68.26C1864.14,-67.79 1861.04,-67.36 1858,-67 1288.4,0.25 1140.14,-71.32 568,-31 535.45,-28.71 498.43,-24.32 472.6,-20.97"/>
<polygon fill="midnightblue" stroke="midnightblue" points="472.98,-17.49 462.61,-19.65 472.06,-24.43 472.98,-17.49"/>
</g>
<!-- Node11 -->
<g id="node12" class="node">
<title>Node11</title>
<g id="a_node12"><a xlink:title=" ">
<polygon fill="white" stroke="#bfbfbf" points="1876,-6 1876,-25 1918,-25 1918,-6 1876,-6"/>
<text text-anchor="middle" x="1897" y="-13" font-family="Helvetica,sans-Serif" font-size="10.00">array</text>
</a>
</g>
</g>
<!-- Node10&#45;&gt;Node11 -->
<g id="edge13" class="edge">
<title>Node10&#45;&gt;Node11</title>
<path fill="none" stroke="midnightblue" d="M1920.49,-67.4C1916.04,-57.76 1910.11,-44.91 1905.32,-34.54"/>
<polygon fill="midnightblue" stroke="midnightblue" points="1908.38,-32.81 1901.01,-25.19 1902.03,-35.74 1908.38,-32.81"/>
</g>
<!-- Node12 -->
<g id="node13" class="node">
<title>Node12</title>
<g id="a_node13"><a xlink:title=" ">
<polygon fill="white" stroke="#bfbfbf" points="1936.5,-6 1936.5,-25 1977.5,-25 1977.5,-6 1936.5,-6"/>
<text text-anchor="middle" x="1957" y="-13" font-family="Helvetica,sans-Serif" font-size="10.00">tuple</text>
</a>
</g>
</g>
<!-- Node10&#45;&gt;Node12 -->
<g id="edge15" class="edge">
<title>Node10&#45;&gt;Node12</title>
<path fill="none" stroke="midnightblue" d="M1933.51,-67.4C1937.96,-57.76 1943.89,-44.91 1948.68,-34.54"/>
<polygon fill="midnightblue" stroke="midnightblue" points="1951.97,-35.74 1952.99,-25.19 1945.62,-32.81 1951.97,-35.74"/>
</g>
<!-- Node13 -->
<g id="node14" class="node">
<title>Node13</title>
<g id="a_node14"><a xlink:title=" ">
<polygon fill="white" stroke="#bfbfbf" points="577.5,-6 577.5,-25 646.5,-25 646.5,-6 577.5,-6"/>
<text text-anchor="middle" x="612" y="-13" font-family="Helvetica,sans-Serif" font-size="10.00">type_traits</text>
</a>
</g>
</g>
<!-- Node10&#45;&gt;Node13 -->
<g id="edge16" class="edge">
<title>Node10&#45;&gt;Node13</title>
<path fill="none" stroke="midnightblue" d="M1867.27,-68.28C1864.14,-67.8 1861.04,-67.37 1858,-67 1365.73,-7.79 1237.56,-66.3 743,-31 714.21,-28.95 682,-25.4 656.71,-22.32"/>
<polygon fill="midnightblue" stroke="midnightblue" points="657.04,-18.84 646.69,-21.09 656.18,-25.78 657.04,-18.84"/>
</g>
<!-- Node14&#45;&gt;Node5 -->
<g id="edge19" class="edge">
<title>Node14&#45;&gt;Node5</title>
<path fill="none" stroke="midnightblue" d="M1078.42,-72.96C1089.56,-70.77 1101.72,-68.59 1113,-67 1323.27,-37.44 1578.51,-22.61 1667.53,-18.06"/>
<polygon fill="midnightblue" stroke="midnightblue" points="1667.97,-21.55 1677.78,-17.55 1667.62,-14.55 1667.97,-21.55"/>
</g>
<!-- Node14&#45;&gt;Node13 -->
<g id="edge21" class="edge">
<title>Node14&#45;&gt;Node13</title>
<path fill="none" stroke="midnightblue" d="M982.74,-72.94C896.91,-59.87 735.02,-35.23 656.69,-23.3"/>
<polygon fill="midnightblue" stroke="midnightblue" points="657.07,-19.82 646.66,-21.78 656.02,-26.74 657.07,-19.82"/>
</g>
<!-- Node15 -->
<g id="node16" class="node">
<title>Node15</title>
<g id="a_node16"><a xlink:title=" ">
<polygon fill="white" stroke="#bfbfbf" points="1112.5,-6 1112.5,-25 1185.5,-25 1185.5,-6 1112.5,-6"/>
<text text-anchor="middle" x="1149" y="-13" font-family="Helvetica,sans-Serif" font-size="10.00">string_view</text>
</a>
</g>
</g>
<!-- Node14&#45;&gt;Node15 -->
<g id="edge20" class="edge">
<title>Node14&#45;&gt;Node15</title>
<path fill="none" stroke="midnightblue" d="M1053.84,-72.73C1072.31,-61.82 1104.07,-43.05 1125.78,-30.22"/>
<polygon fill="midnightblue" stroke="midnightblue" points="1127.57,-33.23 1134.4,-25.13 1124.01,-27.2 1127.57,-33.23"/>
</g>
<!-- Node16 -->
<g id="node17" class="node">
<title>Node16</title>
<g id="a_node17"><a xlink:title=" ">
<polygon fill="white" stroke="#bfbfbf" points="999.5,-6 999.5,-25 1078.5,-25 1078.5,-6 999.5,-6"/>
<text text-anchor="middle" x="1039" y="-13" font-family="Helvetica,sans-Serif" font-size="10.00">fmt/format.h</text>
</a>
</g>
</g>
<!-- Node14&#45;&gt;Node16 -->
<g id="edge22" class="edge">
<title>Node14&#45;&gt;Node16</title>
<path fill="none" stroke="midnightblue" d="M1039,-72.73C1039,-63.18 1039,-47.62 1039,-35.28"/>
<polygon fill="midnightblue" stroke="midnightblue" points="1042.5,-35.13 1039,-25.13 1035.5,-35.13 1042.5,-35.13"/>
</g>
<!-- Node17&#45;&gt;Node6 -->
<g id="edge26" class="edge">
<title>Node17&#45;&gt;Node6</title>
<path fill="none" stroke="midnightblue" d="M202.83,-68.58C264.22,-55.1 358.24,-34.45 407.43,-23.65"/>
<polygon fill="midnightblue" stroke="midnightblue" points="408.2,-27.07 417.22,-21.5 406.7,-20.23 408.2,-27.07"/>
</g>
<!-- Node17&#45;&gt;Node13 -->
<g id="edge25" class="edge">
<title>Node17&#45;&gt;Node13</title>
<path fill="none" stroke="midnightblue" d="M202.51,-69.51C207.4,-68.62 212.28,-67.77 217,-67 343.33,-46.4 493.54,-29.18 567,-21.23"/>
<polygon fill="midnightblue" stroke="midnightblue" points="567.71,-24.68 577.28,-20.13 566.96,-17.72 567.71,-24.68"/>
</g>
<!-- Node18&#45;&gt;Node2 -->
<g id="edge28" class="edge">
<title>Node18&#45;&gt;Node2</title>
<path fill="none" stroke="midnightblue" d="M749.89,-213.12C679.53,-208.91 564.07,-197.26 470,-165 422.6,-148.74 372.94,-116.8 346.1,-98.1"/>
<polygon fill="midnightblue" stroke="midnightblue" points="347.79,-95 337.61,-92.08 343.75,-100.72 347.79,-95"/>
</g>
<!-- Node18&#45;&gt;Node4 -->
<g id="edge29" class="edge">
<title>Node18&#45;&gt;Node4</title>
<path fill="none" stroke="midnightblue" d="M840.16,-206.87C874.84,-195.42 936.2,-175.18 975.17,-162.32"/>
<polygon fill="midnightblue" stroke="midnightblue" points="976.65,-165.52 985.05,-159.06 974.45,-158.87 976.65,-165.52"/>
</g>
<!-- Node18&#45;&gt;Node5 -->
<g id="edge30" class="edge">
<title>Node18&#45;&gt;Node5</title>
<path fill="none" stroke="midnightblue" d="M831.06,-206.86C850.65,-196.89 883.75,-179.96 912,-165 937.49,-151.51 941.83,-143.65 969,-134 1051.23,-104.8 1079.47,-126.33 1162,-98 1190.39,-88.26 1193.25,-75.61 1222,-67 1384.24,-18.4 1589.66,-15.12 1667.83,-15.85"/>
<polygon fill="midnightblue" stroke="midnightblue" points="1667.96,-19.35 1678,-15.97 1668.04,-12.35 1667.96,-19.35"/>
</g>
<!-- Node18&#45;&gt;Node6 -->
<g id="edge33" class="edge">
<title>Node18&#45;&gt;Node6</title>
<path fill="none" stroke="midnightblue" d="M749.81,-212.74C686.42,-208.22 587.67,-196.33 508,-165 495.47,-160.07 413.37,-109.87 407,-98 395.44,-76.47 411.25,-49.99 424.71,-33.18"/>
<polygon fill="midnightblue" stroke="midnightblue" points="427.56,-35.23 431.38,-25.34 422.23,-30.69 427.56,-35.23"/>
</g>
<!-- Node18&#45;&gt;Node8 -->
<g id="edge34" class="edge">
<title>Node18&#45;&gt;Node8</title>
<path fill="none" stroke="midnightblue" d="M788.11,-206.87C758.34,-196.95 708.73,-180.41 670.92,-167.81"/>
<polygon fill="midnightblue" stroke="midnightblue" points="671.68,-164.37 661.08,-164.53 669.46,-171.01 671.68,-164.37"/>
</g>
<!-- Node18&#45;&gt;Node13 -->
<g id="edge31" class="edge">
<title>Node18&#45;&gt;Node13</title>
<path fill="none" stroke="midnightblue" d="M749.96,-214.94C601.77,-212.99 245.08,-204.22 209,-165 166.66,-118.98 245.66,-82.31 276,-67 301.56,-54.1 481.61,-31.72 567.12,-21.66"/>
<polygon fill="midnightblue" stroke="midnightblue" points="567.78,-25.11 577.31,-20.47 566.97,-18.15 567.78,-25.11"/>
</g>
<!-- Node19 -->
<g id="node20" class="node">
<title>Node19</title>
<g id="a_node20"><a xlink:title=" ">
<polygon fill="white" stroke="#bfbfbf" points="563.5,-73 563.5,-92 620.5,-92 620.5,-73 563.5,-73"/>
<text text-anchor="middle" x="592" y="-80" font-family="Helvetica,sans-Serif" font-size="10.00">typeinfo</text>
</a>
</g>
</g>
<!-- Node18&#45;&gt;Node19 -->
<g id="edge32" class="edge">
<title>Node18&#45;&gt;Node19</title>
<path fill="none" stroke="midnightblue" d="M799.73,-206.99C783.68,-197.28 756.99,-180.7 735,-165 716.98,-152.13 714.74,-145.8 696,-134 672.28,-119.07 643.5,-105.41 622.24,-96.07"/>
<polygon fill="midnightblue" stroke="midnightblue" points="623.61,-92.84 613.04,-92.09 620.83,-99.27 623.61,-92.84"/>
</g>
<!-- Node20 -->
<g id="node21" class="node">
<title>Node20</title>
<g id="a_node21"><a xlink:href="drake__copyable_8h.html" target="_top" xlink:title="Provides careful macros to selectively enable or disable the special member functions for copy&#45;constr...">
<polygon fill="white" stroke="black" points="823.5,-0.5 823.5,-30.5 942.5,-30.5 942.5,-0.5 823.5,-0.5"/>
<text text-anchor="start" x="831.5" y="-18.5" font-family="Helvetica,sans-Serif" font-size="10.00">drake/common/drake</text>
<text text-anchor="middle" x="883" y="-7.5" font-family="Helvetica,sans-Serif" font-size="10.00">_copyable.h</text>
</a>
</g>
</g>
<!-- Node18&#45;&gt;Node20 -->
<g id="edge35" class="edge">
<title>Node18&#45;&gt;Node20</title>
<path fill="none" stroke="midnightblue" d="M839.28,-206.93C857.82,-199.15 881.66,-185.7 893,-165 914.63,-125.5 902.17,-70.95 892.02,-40.15"/>
<polygon fill="midnightblue" stroke="midnightblue" points="895.31,-38.97 888.71,-30.67 888.7,-41.27 895.31,-38.97"/>
</g>
<!-- Node21 -->
<g id="node22" class="node">
<title>Node21</title>
<g id="a_node22"><a xlink:href="hash_8h.html" target="_top" xlink:title=" ">
<polygon fill="white" stroke="black" points="1406.5,-140 1406.5,-159 1531.5,-159 1531.5,-140 1406.5,-140"/>
<text text-anchor="middle" x="1469" y="-147" font-family="Helvetica,sans-Serif" font-size="10.00">drake/common/hash.h</text>
</a>
</g>
</g>
<!-- Node18&#45;&gt;Node21 -->
<g id="edge36" class="edge">
<title>Node18&#45;&gt;Node21</title>
<path fill="none" stroke="midnightblue" d="M878.3,-212.16C985.72,-206.08 1208.27,-191.33 1395,-165 1403.02,-163.87 1411.48,-162.44 1419.71,-160.92"/>
<polygon fill="midnightblue" stroke="midnightblue" points="1420.41,-164.35 1429.58,-159.03 1419.1,-157.47 1420.41,-164.35"/>
</g>
<!-- Node26 -->
<g id="node27" class="node">
<title>Node26</title>
<g id="a_node27"><a xlink:href="is__cloneable_8h.html" target="_top" xlink:title=" ">
<polygon fill="white" stroke="black" points="218,-140 218,-159 380,-159 380,-140 218,-140"/>
<text text-anchor="middle" x="299" y="-147" font-family="Helvetica,sans-Serif" font-size="10.00">drake/common/is_cloneable.h</text>
</a>
</g>
</g>
<!-- Node18&#45;&gt;Node26 -->
<g id="edge49" class="edge">
<title>Node18&#45;&gt;Node26</title>
<path fill="none" stroke="midnightblue" d="M749.88,-208.43C667.44,-199.2 519.89,-182.17 394,-165 383.85,-163.62 373.11,-162.06 362.64,-160.5"/>
<polygon fill="midnightblue" stroke="midnightblue" points="363.12,-157.03 352.71,-159 362.08,-163.95 363.12,-157.03"/>
</g>
<!-- Node27 -->
<g id="node28" class="node">
<title>Node27</title>
<g id="a_node28"><a xlink:href="nice__type__name_8h.html" target="_top" xlink:title=" ">
<polygon fill="white" stroke="black" points="744,-134.5 744,-164.5 884,-164.5 884,-134.5 744,-134.5"/>
<text text-anchor="start" x="752" y="-152.5" font-family="Helvetica,sans-Serif" font-size="10.00">drake/common/nice_type</text>
<text text-anchor="middle" x="814" y="-141.5" font-family="Helvetica,sans-Serif" font-size="10.00">_name.h</text>
</a>
</g>
</g>
<!-- Node18&#45;&gt;Node27 -->
<g id="edge52" class="edge">
<title>Node18&#45;&gt;Node27</title>
<path fill="none" stroke="midnightblue" d="M814,-206.73C814,-198.54 814,-185.92 814,-174.71"/>
<polygon fill="midnightblue" stroke="midnightblue" points="817.5,-174.59 814,-164.59 810.5,-174.59 817.5,-174.59"/>
</g>
<!-- Node21&#45;&gt;Node1 -->
<g id="edge39" class="edge">
<title>Node21&#45;&gt;Node1</title>
<path fill="none" stroke="midnightblue" d="M1531.65,-142.32C1558,-139.74 1588.99,-136.71 1617,-134 1784.98,-117.77 1831.23,-138.75 1995,-98 1997.51,-97.37 2000.08,-96.6 2002.63,-95.73"/>
<polygon fill="midnightblue" stroke="midnightblue" points="2004.09,-98.92 2012.18,-92.08 2001.59,-92.38 2004.09,-98.92"/>
</g>
<!-- Node21&#45;&gt;Node3 -->
<g id="edge43" class="edge">
<title>Node21&#45;&gt;Node3</title>
<path fill="none" stroke="midnightblue" d="M1430.76,-139.93C1419.31,-137.65 1406.69,-135.43 1395,-134 1081.39,-95.52 991.1,-176.31 685,-98 683.07,-97.51 681.11,-96.88 679.17,-96.17"/>
<polygon fill="midnightblue" stroke="midnightblue" points="680.38,-92.88 669.81,-92.1 677.59,-99.3 680.38,-92.88"/>
</g>
<!-- Node21&#45;&gt;Node5 -->
<g id="edge44" class="edge">
<title>Node21&#45;&gt;Node5</title>
<path fill="none" stroke="midnightblue" d="M1509.73,-139.98C1554.11,-130.12 1621.65,-113.29 1643,-98 1665.98,-81.54 1682.88,-52.81 1692.07,-34.23"/>
<polygon fill="midnightblue" stroke="midnightblue" points="1695.28,-35.63 1696.38,-25.09 1688.95,-32.65 1695.28,-35.63"/>
</g>
<!-- Node21&#45;&gt;Node6 -->
<g id="edge46" class="edge">
<title>Node21&#45;&gt;Node6</title>
<path fill="none" stroke="midnightblue" d="M1430.76,-139.94C1419.31,-137.67 1406.69,-135.45 1395,-134 1245.49,-115.47 858.53,-152.3 718,-98 697.67,-90.14 699.67,-76.4 680,-67 610.89,-33.97 520.4,-22.42 472.7,-18.48"/>
<polygon fill="midnightblue" stroke="midnightblue" points="472.88,-14.98 462.64,-17.71 472.34,-21.96 472.88,-14.98"/>
</g>
<!-- Node21&#45;&gt;Node7 -->
<g id="edge47" class="edge">
<title>Node21&#45;&gt;Node7</title>
<path fill="none" stroke="midnightblue" d="M1531.77,-140.68C1611.72,-130.39 1745.26,-111.95 1793,-98 1795.15,-97.37 1797.34,-96.64 1799.52,-95.84"/>
<polygon fill="midnightblue" stroke="midnightblue" points="1800.9,-99.05 1808.85,-92.04 1798.26,-92.57 1800.9,-99.05"/>
</g>
<!-- Node21&#45;&gt;Node9 -->
<g id="edge38" class="edge">
<title>Node21&#45;&gt;Node9</title>
<path fill="none" stroke="midnightblue" d="M1464.76,-139.85C1455.67,-122.41 1432.48,-83.29 1400,-67 1283.37,-8.52 941.12,-60.37 814,-31 811.33,-30.38 808.6,-29.58 805.9,-28.67"/>
<polygon fill="midnightblue" stroke="midnightblue" points="807.02,-25.35 796.43,-25.05 804.52,-31.89 807.02,-25.35"/>
</g>
<!-- Node21&#45;&gt;Node10 -->
<g id="edge48" class="edge">
<title>Node21&#45;&gt;Node10</title>
<path fill="none" stroke="midnightblue" d="M1531.73,-140.49C1628.77,-128.07 1808.49,-105.01 1857.27,-97.9"/>
<polygon fill="midnightblue" stroke="midnightblue" points="1857.87,-101.34 1867.22,-96.36 1856.8,-94.43 1857.87,-101.34"/>
</g>
<!-- Node21&#45;&gt;Node13 -->
<g id="edge45" class="edge">
<title>Node21&#45;&gt;Node13</title>
<path fill="none" stroke="midnightblue" d="M1429.58,-139.95C1418.44,-137.76 1406.28,-135.58 1395,-134 1207.26,-107.74 1156.67,-131.01 970,-98 918.3,-88.86 907.07,-79.22 856,-67 786.87,-50.46 705.96,-34.35 656.87,-24.93"/>
<polygon fill="midnightblue" stroke="midnightblue" points="657.38,-21.46 646.9,-23.02 656.06,-28.34 657.38,-21.46"/>
</g>
<!-- Node22 -->
<g id="node23" class="node">
<title>Node22</title>
<g id="a_node23"><a xlink:title=" ">
<polygon fill="white" stroke="#bfbfbf" points="1447.5,-73 1447.5,-92 1494.5,-92 1494.5,-73 1447.5,-73"/>
<text text-anchor="middle" x="1471" y="-80" font-family="Helvetica,sans-Serif" font-size="10.00">cmath</text>
</a>
</g>
</g>
<!-- Node21&#45;&gt;Node22 -->
<g id="edge37" class="edge">
<title>Node21&#45;&gt;Node22</title>
<path fill="none" stroke="midnightblue" d="M1469.27,-139.73C1469.56,-130.18 1470.04,-114.62 1470.42,-102.28"/>
<polygon fill="midnightblue" stroke="midnightblue" points="1473.93,-102.23 1470.73,-92.13 1466.93,-102.01 1473.93,-102.23"/>
</g>
<!-- Node23 -->
<g id="node24" class="node">
<title>Node23</title>
<g id="a_node24"><a xlink:title=" ">
<polygon fill="white" stroke="#bfbfbf" points="1512.5,-73 1512.5,-92 1577.5,-92 1577.5,-73 1512.5,-73"/>
<text text-anchor="middle" x="1545" y="-80" font-family="Helvetica,sans-Serif" font-size="10.00">functional</text>
</a>
</g>
</g>
<!-- Node21&#45;&gt;Node23 -->
<g id="edge40" class="edge">
<title>Node21&#45;&gt;Node23</title>
<path fill="none" stroke="midnightblue" d="M1479.25,-139.73C1491.44,-129.31 1512.02,-111.71 1526.91,-98.97"/>
<polygon fill="midnightblue" stroke="midnightblue" points="1529.59,-101.29 1534.91,-92.13 1525.04,-95.97 1529.59,-101.29"/>
</g>
<!-- Node24 -->
<g id="node25" class="node">
<title>Node24</title>
<g id="a_node25"><a xlink:title=" ">
<polygon fill="white" stroke="#bfbfbf" points="1596,-73 1596,-92 1634,-92 1634,-73 1596,-73"/>
<text text-anchor="middle" x="1615" y="-80" font-family="Helvetica,sans-Serif" font-size="10.00">map</text>
</a>
</g>
</g>
<!-- Node21&#45;&gt;Node24 -->
<g id="edge41" class="edge">
<title>Node21&#45;&gt;Node24</title>
<path fill="none" stroke="midnightblue" d="M1489.87,-139.91C1513.39,-130.13 1552.7,-113.5 1586,-98 1587,-97.54 1588.01,-97.06 1589.03,-96.57"/>
<polygon fill="midnightblue" stroke="midnightblue" points="1590.76,-99.63 1598.21,-92.1 1587.69,-93.33 1590.76,-99.63"/>
</g>
<!-- Node25 -->
<g id="node26" class="node">
<title>Node25</title>
<g id="a_node26"><a xlink:title=" ">
<polygon fill="white" stroke="#bfbfbf" points="1728,-73 1728,-92 1784,-92 1784,-73 1728,-73"/>
<text text-anchor="middle" x="1756" y="-80" font-family="Helvetica,sans-Serif" font-size="10.00">optional</text>
</a>
</g>
</g>
<!-- Node21&#45;&gt;Node25 -->
<g id="edge42" class="edge">
<title>Node21&#45;&gt;Node25</title>
<path fill="none" stroke="midnightblue" d="M1506.82,-139.94C1561.58,-127.53 1662.44,-104.69 1717.56,-92.21"/>
<polygon fill="midnightblue" stroke="midnightblue" points="1718.64,-95.55 1727.62,-89.93 1717.09,-88.72 1718.64,-95.55"/>
</g>
<!-- Node26&#45;&gt;Node2 -->
<g id="edge50" class="edge">
<title>Node26&#45;&gt;Node2</title>
<path fill="none" stroke="midnightblue" d="M302.64,-139.73C306.69,-129.99 313.34,-113.98 318.51,-101.53"/>
<polygon fill="midnightblue" stroke="midnightblue" points="321.81,-102.7 322.42,-92.13 315.35,-100.02 321.81,-102.7"/>
</g>
<!-- Node26&#45;&gt;Node13 -->
<g id="edge51" class="edge">
<title>Node26&#45;&gt;Node13</title>
<path fill="none" stroke="midnightblue" d="M293.94,-139.67C285.27,-123.26 270.17,-87.82 288,-67 297.03,-56.46 480.42,-32.66 567.21,-21.93"/>
<polygon fill="midnightblue" stroke="midnightblue" points="567.8,-25.38 577.3,-20.69 566.94,-18.43 567.8,-25.38"/>
</g>
<!-- Node27&#45;&gt;Node2 -->
<g id="edge53" class="edge">
<title>Node27&#45;&gt;Node2</title>
<path fill="none" stroke="midnightblue" d="M743.82,-139.15C639.61,-125.27 447.43,-99.67 365.1,-88.71"/>
<polygon fill="midnightblue" stroke="midnightblue" points="365.53,-85.23 355.15,-87.38 364.6,-92.17 365.53,-85.23"/>
</g>
<!-- Node27&#45;&gt;Node5 -->
<g id="edge54" class="edge">
<title>Node27&#45;&gt;Node5</title>
<path fill="none" stroke="midnightblue" d="M884.08,-140.25C943.96,-132.29 1032.05,-118.43 1107,-98 1144.59,-87.76 1151.06,-75.88 1189,-67 1366.56,-25.43 1586.64,-18.05 1667.91,-16.76"/>
<polygon fill="midnightblue" stroke="midnightblue" points="1668.05,-20.26 1678,-16.62 1667.95,-13.26 1668.05,-20.26"/>
</g>
<!-- Node27&#45;&gt;Node6 -->
<g id="edge56" class="edge">
<title>Node27&#45;&gt;Node6</title>
<path fill="none" stroke="midnightblue" d="M743.7,-139.33C678.38,-130 586.44,-114.6 554,-98 536.09,-88.83 536.95,-79.27 521,-67 503.1,-53.23 481.31,-39.81 464.84,-30.27"/>
<polygon fill="midnightblue" stroke="midnightblue" points="466.25,-27.05 455.83,-25.13 462.78,-33.13 466.25,-27.05"/>
</g>
<!-- Node27&#45;&gt;Node7 -->
<g id="edge57" class="edge">
<title>Node27&#45;&gt;Node7</title>
<path fill="none" stroke="midnightblue" d="M884.16,-141.19C910.71,-138.62 941.23,-135.9 969,-134 1151.86,-121.46 1614.49,-139.58 1793,-98 1795.37,-97.45 1797.77,-96.73 1800.15,-95.91"/>
<polygon fill="midnightblue" stroke="midnightblue" points="1801.64,-99.09 1809.63,-92.12 1799.04,-92.59 1801.64,-99.09"/>
</g>
<!-- Node27&#45;&gt;Node19 -->
<g id="edge55" class="edge">
<title>Node27&#45;&gt;Node19</title>
<path fill="none" stroke="midnightblue" d="M757.21,-134.43C720.62,-124.99 672.19,-111.8 630,-98 627.73,-97.26 625.41,-96.46 623.07,-95.63"/>
<polygon fill="midnightblue" stroke="midnightblue" points="624.17,-92.31 613.57,-92.15 621.75,-98.88 624.17,-92.31"/>
</g>
<!-- Node28 -->
<g id="node29" class="node">
<title>Node28</title>
<g id="a_node29"><a xlink:href="never__destroyed_8h.html" target="_top" xlink:title=" ">
<polygon fill="white" stroke="black" points="727,-67.5 727,-97.5 847,-97.5 847,-67.5 727,-67.5"/>
<text text-anchor="start" x="735" y="-85.5" font-family="Helvetica,sans-Serif" font-size="10.00">drake/common/never</text>
<text text-anchor="middle" x="787" y="-74.5" font-family="Helvetica,sans-Serif" font-size="10.00">_destroyed.h</text>
</a>
</g>
</g>
<!-- Node27&#45;&gt;Node28 -->
<g id="edge58" class="edge">
<title>Node27&#45;&gt;Node28</title>
<path fill="none" stroke="midnightblue" d="M808.14,-134.4C804.82,-126.39 800.57,-116.16 796.75,-106.98"/>
<polygon fill="midnightblue" stroke="midnightblue" points="799.92,-105.47 792.85,-97.58 793.45,-108.15 799.92,-105.47"/>
</g>
<!-- Node28&#45;&gt;Node6 -->
<g id="edge60" class="edge">
<title>Node28&#45;&gt;Node6</title>
<path fill="none" stroke="midnightblue" d="M726.83,-69.66C722.15,-68.75 717.5,-67.86 713,-67 626.36,-50.5 524.1,-31.79 472.81,-22.45"/>
<polygon fill="midnightblue" stroke="midnightblue" points="473.13,-18.95 462.67,-20.61 471.88,-25.84 473.13,-18.95"/>
</g>
<!-- Node28&#45;&gt;Node9 -->
<g id="edge59" class="edge">
<title>Node28&#45;&gt;Node9</title>
<path fill="none" stroke="midnightblue" d="M785.26,-67.4C784.1,-57.96 782.56,-45.45 781.3,-35.19"/>
<polygon fill="midnightblue" stroke="midnightblue" points="784.77,-34.69 780.07,-25.19 777.82,-35.55 784.77,-34.69"/>
</g>
<!-- Node28&#45;&gt;Node20 -->
<g id="edge61" class="edge">
<title>Node28&#45;&gt;Node20</title>
<path fill="none" stroke="midnightblue" d="M807.83,-67.4C821.29,-58.28 839,-46.29 853.85,-36.24"/>
<polygon fill="midnightblue" stroke="midnightblue" points="855.89,-39.08 862.21,-30.58 851.97,-33.28 855.89,-39.08"/>
</g>
<!-- Node29&#45;&gt;Node2 -->
<g id="edge64" class="edge">
<title>Node29&#45;&gt;Node2</title>
<path fill="none" stroke="midnightblue" d="M1259.76,-280.49C1022.55,-273.16 278.65,-243.98 209,-165 180.91,-133.15 242.99,-107.4 287.02,-93.86"/>
<polygon fill="midnightblue" stroke="midnightblue" points="288.06,-97.21 296.65,-91.01 286.07,-90.49 288.06,-97.21"/>
</g>
<!-- Node29&#45;&gt;Node5 -->
<g id="edge66" class="edge">
<title>Node29&#45;&gt;Node5</title>
<path fill="none" stroke="midnightblue" d="M1404.29,-277.69C1579.58,-264.18 2017.6,-218.66 2082,-98 2088.49,-85.85 2091.08,-77.36 2082,-67 2070.47,-53.84 1822.58,-28.46 1732.42,-19.62"/>
<polygon fill="midnightblue" stroke="midnightblue" points="1732.52,-16.12 1722.23,-18.63 1731.84,-23.08 1732.52,-16.12"/>
</g>
<!-- Node29&#45;&gt;Node6 -->
<g id="edge67" class="edge">
<title>Node29&#45;&gt;Node6</title>
<path fill="none" stroke="midnightblue" d="M1259.82,-281.07C1039.56,-276.4 385.52,-260.3 294,-232 185.35,-198.4 131.5,-197.27 76,-98 69.28,-85.97 66.95,-77.39 76,-67 118.91,-17.73 326.13,-14.97 407.3,-15.84"/>
<polygon fill="midnightblue" stroke="midnightblue" points="407.4,-19.34 417.44,-15.97 407.49,-12.34 407.4,-19.34"/>
</g>
<!-- Node29&#45;&gt;Node7 -->
<g id="edge69" class="edge">
<title>Node29&#45;&gt;Node7</title>
<path fill="none" stroke="midnightblue" d="M1404.1,-276.48C1487.56,-268.65 1619.3,-253.4 1664,-232 1730.4,-200.21 1788.74,-131.98 1813.45,-100.3"/>
<polygon fill="midnightblue" stroke="midnightblue" points="1816.46,-102.13 1819.75,-92.06 1810.9,-97.87 1816.46,-102.13"/>
</g>
<!-- Node29&#45;&gt;Node10 -->
<g id="edge70" class="edge">
<title>Node29&#45;&gt;Node10</title>
<path fill="none" stroke="midnightblue" d="M1404.2,-282.06C1480.5,-279.45 1603.23,-269.12 1702,-232 1783.19,-201.49 1864.74,-137.33 1903.58,-104.23"/>
<polygon fill="midnightblue" stroke="midnightblue" points="1905.92,-106.84 1911.21,-97.66 1901.35,-101.54 1905.92,-106.84"/>
</g>
<!-- Node29&#45;&gt;Node18 -->
<g id="edge91" class="edge">
<title>Node29&#45;&gt;Node18</title>
<path fill="none" stroke="midnightblue" d="M1259.97,-273.46C1161.88,-261.15 987.15,-239.23 888.02,-226.79"/>
<polygon fill="midnightblue" stroke="midnightblue" points="888.44,-223.31 878.09,-225.54 887.57,-230.26 888.44,-223.31"/>
</g>
<!-- Node29&#45;&gt;Node25 -->
<g id="edge65" class="edge">
<title>Node29&#45;&gt;Node25</title>
<path fill="none" stroke="midnightblue" d="M1404.1,-275.67C1479.48,-267.58 1591.98,-252.57 1630,-232 1686.89,-201.22 1729.11,-133.52 1746.82,-101.26"/>
<polygon fill="midnightblue" stroke="midnightblue" points="1750.08,-102.6 1751.7,-92.13 1743.9,-99.3 1750.08,-102.6"/>
</g>
<!-- Node30 -->
<g id="node31" class="node">
<title>Node30</title>
<g id="a_node31"><a xlink:title=" ">
<polygon fill="white" stroke="#bfbfbf" points="1167,-207 1167,-226 1231,-226 1231,-207 1167,-207"/>
<text text-anchor="middle" x="1199" y="-214" font-family="Helvetica,sans-Serif" font-size="10.00">algorithm</text>
</a>
</g>
</g>
<!-- Node29&#45;&gt;Node30 -->
<g id="edge63" class="edge">
<title>Node29&#45;&gt;Node30</title>
<path fill="none" stroke="midnightblue" d="M1303.14,-268.4C1280.11,-257.14 1248.11,-241.5 1225.68,-230.54"/>
<polygon fill="midnightblue" stroke="midnightblue" points="1226.93,-227.25 1216.41,-226.01 1223.85,-233.54 1226.93,-227.25"/>
</g>
<!-- Node31 -->
<g id="node32" class="node">
<title>Node31</title>
<g id="a_node32"><a xlink:title=" ">
<polygon fill="white" stroke="#bfbfbf" points="1249.5,-207 1249.5,-226 1300.5,-226 1300.5,-207 1249.5,-207"/>
<text text-anchor="middle" x="1275" y="-214" font-family="Helvetica,sans-Serif" font-size="10.00">variant</text>
</a>
</g>
</g>
<!-- Node29&#45;&gt;Node31 -->
<g id="edge68" class="edge">
<title>Node29&#45;&gt;Node31</title>
<path fill="none" stroke="midnightblue" d="M1319.63,-268.4C1310.74,-258.26 1298.74,-244.57 1289.41,-233.94"/>
<polygon fill="midnightblue" stroke="midnightblue" points="1291.85,-231.41 1282.62,-226.19 1286.59,-236.02 1291.85,-231.41"/>
</g>
<!-- Node32 -->
<g id="node33" class="node">
<title>Node32</title>
<g id="a_node33"><a xlink:href="identifier_8h.html" target="_top" xlink:title=" ">
<polygon fill="white" stroke="black" points="1477,-207 1477,-226 1621,-226 1621,-207 1477,-207"/>
<text text-anchor="middle" x="1549" y="-214" font-family="Helvetica,sans-Serif" font-size="10.00">drake/common/identifier.h</text>
</a>
</g>
</g>
<!-- Node29&#45;&gt;Node32 -->
<g id="edge71" class="edge">
<title>Node29&#45;&gt;Node32</title>
<path fill="none" stroke="midnightblue" d="M1378.82,-268.48C1418.22,-256.67 1473.88,-240 1510.68,-228.98"/>
<polygon fill="midnightblue" stroke="midnightblue" points="1511.95,-232.25 1520.53,-226.03 1509.94,-225.55 1511.95,-232.25"/>
</g>
<!-- Node37 -->
<g id="node38" class="node">
<title>Node37</title>
<g id="a_node38"><a xlink:href="type__safe__index_8h.html" target="_top" xlink:title=" ">
<polygon fill="white" stroke="black" points="1319,-201.5 1319,-231.5 1459,-231.5 1459,-201.5 1319,-201.5"/>
<text text-anchor="start" x="1327" y="-219.5" font-family="Helvetica,sans-Serif" font-size="10.00">drake/common/type_safe</text>
<text text-anchor="middle" x="1389" y="-208.5" font-family="Helvetica,sans-Serif" font-size="10.00">_index.h</text>
</a>
</g>
</g>
<!-- Node29&#45;&gt;Node37 -->
<g id="edge84" class="edge">
<title>Node29&#45;&gt;Node37</title>
<path fill="none" stroke="midnightblue" d="M1344.37,-268.4C1351.84,-259.88 1361.51,-248.85 1369.94,-239.23"/>
<polygon fill="midnightblue" stroke="midnightblue" points="1372.69,-241.4 1376.66,-231.58 1367.43,-236.79 1372.69,-241.4"/>
</g>
<!-- Node32&#45;&gt;Node1 -->
<g id="edge72" class="edge">
<title>Node32&#45;&gt;Node1</title>
<path fill="none" stroke="midnightblue" d="M1588.6,-206.96C1667.11,-189.62 1847.61,-147.69 1995,-98 1996.92,-97.35 1998.88,-96.65 2000.84,-95.92"/>
<polygon fill="midnightblue" stroke="midnightblue" points="2002.53,-99.02 2010.56,-92.1 1999.97,-92.51 2002.53,-99.02"/>
</g>
<!-- Node32&#45;&gt;Node5 -->
<g id="edge74" class="edge">
<title>Node32&#45;&gt;Node5</title>
<path fill="none" stroke="midnightblue" d="M1621.07,-210.21C1749.95,-199.06 2011.37,-168.15 2064,-98 2072.27,-86.98 2073.05,-77.39 2064,-67 2053.1,-54.49 1819.46,-28.95 1732.35,-19.83"/>
<polygon fill="midnightblue" stroke="midnightblue" points="1732.55,-16.33 1722.25,-18.78 1731.83,-23.3 1732.55,-16.33"/>
</g>
<!-- Node32&#45;&gt;Node6 -->
<g id="edge75" class="edge">
<title>Node32&#45;&gt;Node6</title>
<path fill="none" stroke="midnightblue" d="M1507.54,-206.94C1494.9,-204.64 1480.92,-202.4 1468,-201 1365.52,-189.89 631.15,-214.98 541,-165 489.06,-136.21 458.5,-68.06 446.26,-35.05"/>
<polygon fill="midnightblue" stroke="midnightblue" points="449.44,-33.57 442.8,-25.31 442.85,-35.91 449.44,-33.57"/>
</g>
<!-- Node32&#45;&gt;Node10 -->
<g id="edge76" class="edge">
<title>Node32&#45;&gt;Node10</title>
<path fill="none" stroke="midnightblue" d="M1580.99,-206.95C1610.68,-198.38 1655.62,-183.78 1692,-165 1713.26,-154.03 1714.32,-144.11 1736,-134 1757.65,-123.91 1812.28,-109.85 1857.59,-99.13"/>
<polygon fill="midnightblue" stroke="midnightblue" points="1858.47,-102.52 1867.4,-96.82 1856.87,-95.7 1858.47,-102.52"/>
</g>
<!-- Node32&#45;&gt;Node20 -->
<g id="edge77" class="edge">
<title>Node32&#45;&gt;Node20</title>
<path fill="none" stroke="midnightblue" d="M1503.21,-207C1491.73,-204.95 1479.43,-202.83 1468,-201 1354.98,-182.91 1322.05,-199.76 1213,-165 1184.4,-155.88 1181.34,-143.88 1153,-134 1074.73,-106.7 1043.77,-135.8 970,-98 941.76,-83.53 916.14,-57.16 900.13,-38.34"/>
<polygon fill="midnightblue" stroke="midnightblue" points="902.75,-36.01 893.68,-30.54 897.36,-40.47 902.75,-36.01"/>
</g>
<!-- Node32&#45;&gt;Node21 -->
<g id="edge83" class="edge">
<title>Node32&#45;&gt;Node21</title>
<path fill="none" stroke="midnightblue" d="M1538.21,-206.73C1525.26,-196.21 1503.31,-178.38 1487.61,-165.62"/>
<polygon fill="midnightblue" stroke="midnightblue" points="1489.59,-162.72 1479.62,-159.13 1485.17,-168.15 1489.59,-162.72"/>
</g>
<!-- Node33 -->
<g id="node34" class="node">
<title>Node33</title>
<g id="a_node34"><a xlink:title=" ">
<polygon fill="white" stroke="#bfbfbf" points="1626.5,-140 1626.5,-159 1683.5,-159 1683.5,-140 1626.5,-140"/>
<text text-anchor="middle" x="1655" y="-147" font-family="Helvetica,sans-Serif" font-size="10.00">ostream</text>
</a>
</g>
</g>
<!-- Node32&#45;&gt;Node33 -->
<g id="edge73" class="edge">
<title>Node32&#45;&gt;Node33</title>
<path fill="none" stroke="midnightblue" d="M1563.3,-206.73C1581.02,-195.87 1611.43,-177.22 1632.34,-164.39"/>
<polygon fill="midnightblue" stroke="midnightblue" points="1634.24,-167.34 1640.93,-159.13 1630.58,-161.37 1634.24,-167.34"/>
</g>
<!-- Node34 -->
<g id="node35" class="node">
<title>Node34</title>
<g id="a_node35"><a xlink:href="fmt__ostream_8h.html" target="_top" xlink:title=" ">
<polygon fill="white" stroke="black" points="1222,-140 1222,-159 1386,-159 1386,-140 1222,-140"/>
<text text-anchor="middle" x="1304" y="-147" font-family="Helvetica,sans-Serif" font-size="10.00">drake/common/fmt_ostream.h</text>
</a>
</g>
</g>
<!-- Node32&#45;&gt;Node34 -->
<g id="edge78" class="edge">
<title>Node32&#45;&gt;Node34</title>
<path fill="none" stroke="midnightblue" d="M1516.72,-206.94C1472.93,-195.32 1394.62,-174.54 1346.21,-161.7"/>
<polygon fill="midnightblue" stroke="midnightblue" points="1346.92,-158.26 1336.35,-159.08 1345.12,-165.03 1346.92,-158.26"/>
</g>
<!-- Node34&#45;&gt;Node14 -->
<g id="edge82" class="edge">
<title>Node34&#45;&gt;Node14</title>
<path fill="none" stroke="midnightblue" d="M1269.08,-139.94C1221.52,-128.27 1136.3,-107.37 1084,-94.54"/>
<polygon fill="midnightblue" stroke="midnightblue" points="1084.54,-91.07 1073.99,-92.08 1082.87,-97.86 1084.54,-91.07"/>
</g>
<!-- Node34&#45;&gt;Node15 -->
<g id="edge80" class="edge">
<title>Node34&#45;&gt;Node15</title>
<path fill="none" stroke="midnightblue" d="M1287.04,-139.93C1269.76,-130.79 1242.65,-115.26 1222,-98 1198.29,-78.19 1175.24,-50.65 1161.58,-33.2"/>
<polygon fill="midnightblue" stroke="midnightblue" points="1164.22,-30.89 1155.34,-25.09 1158.67,-35.15 1164.22,-30.89"/>
</g>
<!-- Node35 -->
<g id="node36" class="node">
<title>Node35</title>
<g id="a_node36"><a xlink:title=" ">
<polygon fill="white" stroke="#bfbfbf" points="1231,-73 1231,-92 1287,-92 1287,-73 1231,-73"/>
<text text-anchor="middle" x="1259" y="-80" font-family="Helvetica,sans-Serif" font-size="10.00">sstream</text>
</a>
</g>
</g>
<!-- Node34&#45;&gt;Node35 -->
<g id="edge79" class="edge">
<title>Node34&#45;&gt;Node35</title>
<path fill="none" stroke="midnightblue" d="M1297.93,-139.73C1290.98,-129.7 1279.43,-113.01 1270.71,-100.42"/>
<polygon fill="midnightblue" stroke="midnightblue" points="1273.54,-98.36 1264.97,-92.13 1267.79,-102.34 1273.54,-98.36"/>
</g>
<!-- Node36 -->
<g id="node37" class="node">
<title>Node36</title>
<g id="a_node37"><a xlink:title=" ">
<polygon fill="white" stroke="#bfbfbf" points="1305,-73 1305,-92 1391,-92 1391,-73 1305,-73"/>
<text text-anchor="middle" x="1348" y="-80" font-family="Helvetica,sans-Serif" font-size="10.00">fmt/ostream.h</text>
</a>
</g>
</g>
<!-- Node34&#45;&gt;Node36 -->
<g id="edge81" class="edge">
<title>Node34&#45;&gt;Node36</title>
<path fill="none" stroke="midnightblue" d="M1309.93,-139.73C1316.73,-129.7 1328.02,-113.01 1336.55,-100.42"/>
<polygon fill="midnightblue" stroke="midnightblue" points="1339.45,-102.37 1342.16,-92.13 1333.66,-98.45 1339.45,-102.37"/>
</g>
<!-- Node37&#45;&gt;Node5 -->
<g id="edge86" class="edge">
<title>Node37&#45;&gt;Node5</title>
<path fill="none" stroke="midnightblue" d="M1449.54,-201.49C1478.17,-193.33 1512.11,-181.38 1540,-165 1557.63,-154.64 1556.52,-144.61 1574,-134 1613.66,-109.92 1639.54,-131.16 1672,-98 1688.64,-81 1695.41,-53.68 1698.15,-35.41"/>
<polygon fill="midnightblue" stroke="midnightblue" points="1701.64,-35.74 1699.39,-25.39 1694.69,-34.88 1701.64,-35.74"/>
</g>
<!-- Node37&#45;&gt;Node10 -->
<g id="edge88" class="edge">
<title>Node37&#45;&gt;Node10</title>
<path fill="none" stroke="midnightblue" d="M1459.19,-202.56C1494.69,-194.49 1537.8,-182.29 1574,-165 1595.26,-154.85 1595.18,-142.88 1617,-134 1714.37,-94.38 1749.35,-115.8 1857.23,-98.01"/>
<polygon fill="midnightblue" stroke="midnightblue" points="1857.94,-101.44 1867.2,-96.29 1856.75,-94.54 1857.94,-101.44"/>
</g>
<!-- Node37&#45;&gt;Node19 -->
<g id="edge87" class="edge">
<title>Node37&#45;&gt;Node19</title>
<path fill="none" stroke="midnightblue" d="M1318.77,-202.71C1315.47,-202.13 1312.2,-201.55 1309,-201 1212.24,-184.24 1180.76,-204.83 1091,-165 1070.76,-156.02 1072.58,-142.18 1052,-134 877.08,-64.47 813.5,-139.96 630,-98 627,-97.31 623.92,-96.44 620.87,-95.46"/>
<polygon fill="midnightblue" stroke="midnightblue" points="621.99,-92.15 611.4,-92.1 619.65,-98.74 621.99,-92.15"/>
</g>
<!-- Node37&#45;&gt;Node21 -->
<g id="edge90" class="edge">
<title>Node37&#45;&gt;Node21</title>
<path fill="none" stroke="midnightblue" d="M1406.36,-201.4C1419.33,-190.86 1437.03,-176.48 1450.31,-165.69"/>
<polygon fill="midnightblue" stroke="midnightblue" points="1452.74,-168.22 1458.3,-159.19 1448.33,-162.78 1452.74,-168.22"/>
</g>
<!-- Node37&#45;&gt;Node34 -->
<g id="edge89" class="edge">
<title>Node37&#45;&gt;Node34</title>
<path fill="none" stroke="midnightblue" d="M1370.56,-201.4C1356.65,-190.76 1337.61,-176.2 1323.46,-165.38"/>
<polygon fill="midnightblue" stroke="midnightblue" points="1325.44,-162.49 1315.37,-159.19 1321.19,-168.05 1325.44,-162.49"/>
</g>
<!-- Node38 -->
<g id="node39" class="node">
<title>Node38</title>
<g id="a_node39"><a xlink:title=" ">
<polygon fill="white" stroke="#bfbfbf" points="1100,-140 1100,-159 1144,-159 1144,-140 1100,-140"/>
<text text-anchor="middle" x="1122" y="-147" font-family="Helvetica,sans-Serif" font-size="10.00">limits</text>
</a>
</g>
</g>
<!-- Node37&#45;&gt;Node38 -->
<g id="edge85" class="edge">
<title>Node37&#45;&gt;Node38</title>
<path fill="none" stroke="midnightblue" d="M1318.96,-201.53C1262.42,-190.01 1187.57,-174.12 1158,-165 1155.72,-164.3 1153.38,-163.51 1151.04,-162.68"/>
<polygon fill="midnightblue" stroke="midnightblue" points="1152.18,-159.37 1141.59,-159.08 1149.69,-165.91 1152.18,-159.37"/>
</g>
</g>
</svg>
