<?xml version="1.0" encoding="UTF-8" standalone="no"?>
<!DOCTYPE svg PUBLIC "-//W3C//DTD SVG 1.1//EN"
 "http://www.w3.org/Graphics/SVG/1.1/DTD/svg11.dtd">
<!-- Generated by graphviz version 2.43.0 (0)
 -->
<!-- Title: drake/planning/collision_checker_params.h Pages: 1 -->
<svg width="1588pt" height="340pt"
 viewBox="0.00 0.00 1587.50 340.00" xmlns="http://www.w3.org/2000/svg" xmlns:xlink="http://www.w3.org/1999/xlink">
<g id="graph0" class="graph" transform="scale(1 1) rotate(0) translate(4 336)">
<title>drake/planning/collision_checker_params.h</title>
<polygon fill="white" stroke="transparent" points="-4,4 -4,-336 1583.5,-336 1583.5,4 -4,4"/>
<!-- Node284 -->
<g id="node1" class="node">
<title>Node284</title>
<g id="a_node1"><a xlink:title=" ">
<polygon fill="#bfbfbf" stroke="black" points="798,-301.5 798,-331.5 930,-331.5 930,-301.5 798,-301.5"/>
<text text-anchor="start" x="806" y="-319.5" font-family="Helvetica,sans-Serif" font-size="10.00">drake/planning/collision</text>
<text text-anchor="middle" x="864" y="-308.5" font-family="Helvetica,sans-Serif" font-size="10.00">_checker_params.h</text>
</a>
</g>
</g>
<!-- Node285 -->
<g id="node2" class="node">
<title>Node285</title>
<g id="a_node2"><a xlink:href="collision__checker_8h.html" target="_top" xlink:title=" ">
<polygon fill="white" stroke="black" points="798,-234.5 798,-264.5 930,-264.5 930,-234.5 798,-234.5"/>
<text text-anchor="start" x="806" y="-252.5" font-family="Helvetica,sans-Serif" font-size="10.00">drake/planning/collision</text>
<text text-anchor="middle" x="864" y="-241.5" font-family="Helvetica,sans-Serif" font-size="10.00">_checker.h</text>
</a>
</g>
</g>
<!-- Node284&#45;&gt;Node285 -->
<g id="edge1" class="edge">
<title>Node284&#45;&gt;Node285</title>
<path fill="none" stroke="midnightblue" d="M864,-291.11C864,-282.15 864,-272.32 864,-264.58"/>
<polygon fill="midnightblue" stroke="midnightblue" points="860.5,-291.4 864,-301.4 867.5,-291.4 860.5,-291.4"/>
</g>
<!-- Node292 -->
<g id="node9" class="node">
<title>Node292</title>
<g id="a_node9"><a xlink:href="scene__graph__collision__checker_8h.html" target="_top" xlink:title=" ">
<polygon fill="white" stroke="black" points="0,-156.5 0,-186.5 146,-186.5 146,-156.5 0,-156.5"/>
<text text-anchor="start" x="8" y="-174.5" font-family="Helvetica,sans-Serif" font-size="10.00">drake/planning/scene</text>
<text text-anchor="middle" x="73" y="-163.5" font-family="Helvetica,sans-Serif" font-size="10.00">_graph_collision_checker.h</text>
</a>
</g>
</g>
<!-- Node284&#45;&gt;Node292 -->
<g id="edge17" class="edge">
<title>Node284&#45;&gt;Node292</title>
<path fill="none" stroke="midnightblue" d="M787.61,-306.34C656.93,-289.89 382.54,-251.96 155,-198 141.65,-194.83 127.31,-190.65 114.41,-186.59"/>
<polygon fill="midnightblue" stroke="midnightblue" points="787.55,-309.86 797.91,-307.63 788.42,-302.91 787.55,-309.86"/>
</g>
<!-- Node297 -->
<g id="node14" class="node">
<title>Node297</title>
<g id="a_node14"><a xlink:href="unimplemented__collision__checker_8h.html" target="_top" xlink:title=" ">
<polygon fill="white" stroke="black" points="1410.5,-156.5 1410.5,-186.5 1579.5,-186.5 1579.5,-156.5 1410.5,-156.5"/>
<text text-anchor="start" x="1418.5" y="-174.5" font-family="Helvetica,sans-Serif" font-size="10.00">drake/planning/unimplemented</text>
<text text-anchor="middle" x="1495" y="-163.5" font-family="Helvetica,sans-Serif" font-size="10.00">_collision_checker.h</text>
</a>
</g>
</g>
<!-- Node284&#45;&gt;Node297 -->
<g id="edge18" class="edge">
<title>Node284&#45;&gt;Node297</title>
<path fill="none" stroke="midnightblue" d="M936.34,-299.15C1036.64,-276.48 1223.61,-234.19 1383,-198 1399.34,-194.29 1417.01,-190.27 1433.38,-186.54"/>
<polygon fill="midnightblue" stroke="midnightblue" points="935.3,-295.8 926.32,-301.42 936.85,-302.63 935.3,-295.8"/>
</g>
<!-- Node286 -->
<g id="node3" class="node">
<title>Node286</title>
<g id="a_node3"><a xlink:href="differential__inverse__kinematics__system_8h.html" target="_top" xlink:title=" ">
<polygon fill="white" stroke="black" points="697.5,-151 697.5,-192 864.5,-192 864.5,-151 697.5,-151"/>
<text text-anchor="start" x="705.5" y="-180" font-family="Helvetica,sans-Serif" font-size="10.00">drake/multibody/inverse</text>
<text text-anchor="start" x="705.5" y="-169" font-family="Helvetica,sans-Serif" font-size="10.00">_kinematics/differential</text>
<text text-anchor="middle" x="781" y="-158" font-family="Helvetica,sans-Serif" font-size="10.00">_inverse_kinematics_system.h</text>
</a>
</g>
</g>
<!-- Node285&#45;&gt;Node286 -->
<g id="edge2" class="edge">
<title>Node285&#45;&gt;Node286</title>
<path fill="none" stroke="midnightblue" d="M840.92,-227.36C828.89,-216.35 814.28,-202.97 802.49,-192.18"/>
<polygon fill="midnightblue" stroke="midnightblue" points="838.65,-230.03 848.39,-234.2 843.38,-224.87 838.65,-230.03"/>
</g>
<!-- Node288 -->
<g id="node5" class="node">
<title>Node288</title>
<g id="a_node5"><a xlink:href="distance__constraint__utilities_8h.html" target="_top" xlink:title=" ">
<polygon fill="white" stroke="black" points="1181,-151 1181,-192 1355,-192 1355,-151 1181,-151"/>
<text text-anchor="start" x="1189" y="-180" font-family="Helvetica,sans-Serif" font-size="10.00">drake/multibody/inverse</text>
<text text-anchor="start" x="1189" y="-169" font-family="Helvetica,sans-Serif" font-size="10.00">_kinematics/distance_constraint</text>
<text text-anchor="middle" x="1268" y="-158" font-family="Helvetica,sans-Serif" font-size="10.00">_utilities.h</text>
</a>
</g>
</g>
<!-- Node285&#45;&gt;Node288 -->
<g id="edge4" class="edge">
<title>Node285&#45;&gt;Node288</title>
<path fill="none" stroke="midnightblue" d="M940.32,-238.09C1002.88,-229.06 1093.58,-214.8 1172,-198 1180.35,-196.21 1189.05,-194.16 1197.67,-192.02"/>
<polygon fill="midnightblue" stroke="midnightblue" points="939.54,-234.67 930.14,-239.55 940.53,-241.6 939.54,-234.67"/>
</g>
<!-- Node289 -->
<g id="node6" class="node">
<title>Node289</title>
<g id="a_node6"><a xlink:href="minimum__distance__lower__bound__constraint_8h.html" target="_top" xlink:title=" ">
<polygon fill="white" stroke="black" points="164.5,-151 164.5,-192 337.5,-192 337.5,-151 164.5,-151"/>
<text text-anchor="start" x="172.5" y="-180" font-family="Helvetica,sans-Serif" font-size="10.00">drake/multibody/inverse</text>
<text text-anchor="start" x="172.5" y="-169" font-family="Helvetica,sans-Serif" font-size="10.00">_kinematics/minimum_distance</text>
<text text-anchor="middle" x="251" y="-158" font-family="Helvetica,sans-Serif" font-size="10.00">_lower_bound_constraint.h</text>
</a>
</g>
</g>
<!-- Node285&#45;&gt;Node289 -->
<g id="edge5" class="edge">
<title>Node285&#45;&gt;Node289</title>
<path fill="none" stroke="midnightblue" d="M787.53,-245C685.98,-239.45 501.35,-226.22 346,-198 337.01,-196.37 327.63,-194.3 318.41,-192.06"/>
<polygon fill="midnightblue" stroke="midnightblue" points="787.52,-248.5 797.69,-245.54 787.9,-241.51 787.52,-248.5"/>
</g>
<!-- Node290 -->
<g id="node7" class="node">
<title>Node290</title>
<g id="a_node7"><a xlink:href="minimum__distance__upper__bound__constraint_8h.html" target="_top" xlink:title=" ">
<polygon fill="white" stroke="black" points="355.5,-151 355.5,-192 528.5,-192 528.5,-151 355.5,-151"/>
<text text-anchor="start" x="363.5" y="-180" font-family="Helvetica,sans-Serif" font-size="10.00">drake/multibody/inverse</text>
<text text-anchor="start" x="363.5" y="-169" font-family="Helvetica,sans-Serif" font-size="10.00">_kinematics/minimum_distance</text>
<text text-anchor="middle" x="442" y="-158" font-family="Helvetica,sans-Serif" font-size="10.00">_upper_bound_constraint.h</text>
</a>
</g>
</g>
<!-- Node285&#45;&gt;Node290 -->
<g id="edge6" class="edge">
<title>Node285&#45;&gt;Node290</title>
<path fill="none" stroke="midnightblue" d="M787.8,-239.02C721.47,-230.22 622.91,-215.8 538,-198 529.56,-196.23 520.76,-194.18 512.05,-192.02"/>
<polygon fill="midnightblue" stroke="midnightblue" points="787.38,-242.5 797.76,-240.33 788.3,-235.56 787.38,-242.5"/>
</g>
<!-- Node291 -->
<g id="node8" class="node">
<title>Node291</title>
<g id="a_node8"><a xlink:href="collision__avoidance_8h.html" target="_top" xlink:title=" ">
<polygon fill="white" stroke="black" points="547,-156.5 547,-186.5 679,-186.5 679,-156.5 547,-156.5"/>
<text text-anchor="start" x="555" y="-174.5" font-family="Helvetica,sans-Serif" font-size="10.00">drake/planning/collision</text>
<text text-anchor="middle" x="613" y="-163.5" font-family="Helvetica,sans-Serif" font-size="10.00">_avoidance.h</text>
</a>
</g>
</g>
<!-- Node285&#45;&gt;Node291 -->
<g id="edge7" class="edge">
<title>Node285&#45;&gt;Node291</title>
<path fill="none" stroke="midnightblue" d="M802.81,-231.73C768.87,-222.23 725.96,-209.89 688,-198 676.71,-194.46 664.55,-190.43 653.36,-186.62"/>
<polygon fill="midnightblue" stroke="midnightblue" points="802.02,-235.14 812.59,-234.46 803.9,-228.4 802.02,-235.14"/>
</g>
<!-- Node285&#45;&gt;Node292 -->
<g id="edge8" class="edge">
<title>Node285&#45;&gt;Node292</title>
<path fill="none" stroke="midnightblue" d="M787.82,-245.3C630.53,-238.31 274.55,-220.53 155,-198 140.64,-195.29 125.26,-190.92 111.74,-186.56"/>
<polygon fill="midnightblue" stroke="midnightblue" points="787.75,-248.8 797.89,-245.74 788.06,-241.8 787.75,-248.8"/>
</g>
<!-- Node295 -->
<g id="node12" class="node">
<title>Node295</title>
<g id="a_node12"><a xlink:href="iris__zo_8h.html" target="_top" xlink:title=" ">
<polygon fill="white" stroke="black" points="1108.5,-73 1108.5,-103 1215.5,-103 1215.5,-73 1108.5,-73"/>
<text text-anchor="start" x="1116.5" y="-91" font-family="Helvetica,sans-Serif" font-size="10.00">drake/planning/iris</text>
<text text-anchor="middle" x="1162" y="-80" font-family="Helvetica,sans-Serif" font-size="10.00">/iris_zo.h</text>
</a>
</g>
</g>
<!-- Node285&#45;&gt;Node295 -->
<g id="edge12" class="edge">
<title>Node285&#45;&gt;Node295</title>
<path fill="none" stroke="midnightblue" d="M940.41,-246.31C1073.44,-241.71 1336.16,-228.79 1364,-198 1379.8,-180.53 1378.26,-163.75 1364,-145 1346.1,-121.46 1269.53,-105.24 1215.99,-96.54"/>
<polygon fill="midnightblue" stroke="midnightblue" points="940.16,-242.82 930.28,-246.66 940.39,-249.81 940.16,-242.82"/>
</g>
<!-- Node296 -->
<g id="node13" class="node">
<title>Node296</title>
<g id="a_node13"><a xlink:href="collision__checker__abstract__test__suite_8h.html" target="_top" xlink:title=" ">
<polygon fill="white" stroke="black" points="883,-145.5 883,-197.5 1011,-197.5 1011,-145.5 883,-145.5"/>
<text text-anchor="start" x="891" y="-185.5" font-family="Helvetica,sans-Serif" font-size="10.00">drake/planning/test</text>
<text text-anchor="start" x="891" y="-174.5" font-family="Helvetica,sans-Serif" font-size="10.00">_utilities/collision</text>
<text text-anchor="start" x="891" y="-163.5" font-family="Helvetica,sans-Serif" font-size="10.00">_checker_abstract_test</text>
<text text-anchor="middle" x="947" y="-152.5" font-family="Helvetica,sans-Serif" font-size="10.00">_suite.h</text>
</a>
</g>
</g>
<!-- Node285&#45;&gt;Node296 -->
<g id="edge14" class="edge">
<title>Node285&#45;&gt;Node296</title>
<path fill="none" stroke="midnightblue" d="M887.25,-227.21C897.33,-217.98 909.2,-207.11 919.69,-197.5"/>
<polygon fill="midnightblue" stroke="midnightblue" points="884.62,-224.87 879.61,-234.2 889.35,-230.03 884.62,-224.87"/>
</g>
<!-- Node285&#45;&gt;Node297 -->
<g id="edge15" class="edge">
<title>Node285&#45;&gt;Node297</title>
<path fill="none" stroke="midnightblue" d="M940.18,-245.12C1044.09,-239.64 1235.77,-226.43 1397,-198 1413.45,-195.1 1431.18,-190.84 1446.99,-186.63"/>
<polygon fill="midnightblue" stroke="midnightblue" points="939.9,-241.63 930.1,-245.64 940.27,-248.62 939.9,-241.63"/>
</g>
<!-- Node298 -->
<g id="node15" class="node">
<title>Node298</title>
<g id="a_node15"><a xlink:href="visibility__graph_8h.html" target="_top" xlink:title=" ">
<polygon fill="white" stroke="black" points="1029,-156.5 1029,-186.5 1163,-186.5 1163,-156.5 1029,-156.5"/>
<text text-anchor="start" x="1037" y="-174.5" font-family="Helvetica,sans-Serif" font-size="10.00">drake/planning/visibility</text>
<text text-anchor="middle" x="1096" y="-163.5" font-family="Helvetica,sans-Serif" font-size="10.00">_graph.h</text>
</a>
</g>
</g>
<!-- Node285&#45;&gt;Node298 -->
<g id="edge16" class="edge">
<title>Node285&#45;&gt;Node298</title>
<path fill="none" stroke="midnightblue" d="M917.63,-231.29C947.74,-221.59 985.99,-209.21 1020,-198 1031.1,-194.34 1043.1,-190.34 1054.21,-186.61"/>
<polygon fill="midnightblue" stroke="midnightblue" points="916.2,-228.08 907.75,-234.48 918.34,-234.74 916.2,-228.08"/>
</g>
<!-- Node287 -->
<g id="node4" class="node">
<title>Node287</title>
<g id="a_node4"><a xlink:href="differential__inverse__kinematics__controller_8h.html" target="_top" xlink:title=" ">
<polygon fill="white" stroke="black" points="692.5,-67.5 692.5,-108.5 869.5,-108.5 869.5,-67.5 692.5,-67.5"/>
<text text-anchor="start" x="700.5" y="-96.5" font-family="Helvetica,sans-Serif" font-size="10.00">drake/multibody/inverse</text>
<text text-anchor="start" x="700.5" y="-85.5" font-family="Helvetica,sans-Serif" font-size="10.00">_kinematics/differential</text>
<text text-anchor="middle" x="781" y="-74.5" font-family="Helvetica,sans-Serif" font-size="10.00">_inverse_kinematics_controller.h</text>
</a>
</g>
</g>
<!-- Node286&#45;&gt;Node287 -->
<g id="edge3" class="edge">
<title>Node286&#45;&gt;Node287</title>
<path fill="none" stroke="midnightblue" d="M781,-140.56C781,-129.88 781,-118.13 781,-108.55"/>
<polygon fill="midnightblue" stroke="midnightblue" points="777.5,-140.77 781,-150.77 784.5,-140.77 777.5,-140.77"/>
</g>
<!-- Node293 -->
<g id="node10" class="node">
<title>Node293</title>
<g id="a_node10"><a xlink:href="iris__np2_8h.html" target="_top" xlink:title=" ">
<polygon fill="white" stroke="black" points="19.5,-73 19.5,-103 126.5,-103 126.5,-73 19.5,-73"/>
<text text-anchor="start" x="27.5" y="-91" font-family="Helvetica,sans-Serif" font-size="10.00">drake/planning/iris</text>
<text text-anchor="middle" x="73" y="-80" font-family="Helvetica,sans-Serif" font-size="10.00">/iris_np2.h</text>
</a>
</g>
</g>
<!-- Node292&#45;&gt;Node293 -->
<g id="edge9" class="edge">
<title>Node292&#45;&gt;Node293</title>
<path fill="none" stroke="midnightblue" d="M73,-146.28C73,-132.18 73,-114.9 73,-103.03"/>
<polygon fill="midnightblue" stroke="midnightblue" points="69.5,-146.3 73,-156.3 76.5,-146.3 69.5,-146.3"/>
</g>
<!-- Node294 -->
<g id="node11" class="node">
<title>Node294</title>
<g id="a_node11"><a xlink:href="iris__from__clique__cover_8h.html" target="_top" xlink:title=" ">
<polygon fill="white" stroke="black" points="86,-0.5 86,-30.5 224,-30.5 224,-0.5 86,-0.5"/>
<text text-anchor="start" x="94" y="-18.5" font-family="Helvetica,sans-Serif" font-size="10.00">drake/planning/iris</text>
<text text-anchor="middle" x="155" y="-7.5" font-family="Helvetica,sans-Serif" font-size="10.00">/iris_from_clique_cover.h</text>
</a>
</g>
</g>
<!-- Node292&#45;&gt;Node294 -->
<g id="edge11" class="edge">
<title>Node292&#45;&gt;Node294</title>
<path fill="none" stroke="midnightblue" d="M100.09,-149.87C112.53,-139.01 126.4,-124.71 135,-109 148.89,-83.64 153.14,-49.43 154.43,-30.52"/>
<polygon fill="midnightblue" stroke="midnightblue" points="97.61,-147.38 92.19,-156.48 102.11,-152.74 97.61,-147.38"/>
</g>
<!-- Node293&#45;&gt;Node294 -->
<g id="edge10" class="edge">
<title>Node293&#45;&gt;Node294</title>
<path fill="none" stroke="midnightblue" d="M97.47,-65.96C110.8,-54.5 126.93,-40.64 138.71,-30.5"/>
<polygon fill="midnightblue" stroke="midnightblue" points="94.89,-63.56 89.59,-72.73 99.46,-68.87 94.89,-63.56"/>
</g>
<!-- Node295&#45;&gt;Node294 -->
<g id="edge13" class="edge">
<title>Node295&#45;&gt;Node294</title>
<path fill="none" stroke="midnightblue" d="M1098.31,-82.5C1040.75,-78.44 953.7,-72.31 878,-67 637.79,-50.15 352.68,-30.27 224.04,-21.31"/>
<polygon fill="midnightblue" stroke="midnightblue" points="1098.13,-86 1108.35,-83.21 1098.62,-79.02 1098.13,-86"/>
</g>
</g>
</svg>
