<?xml version="1.0" encoding="UTF-8" standalone="no"?>
<!DOCTYPE svg PUBLIC "-//W3C//DTD SVG 1.1//EN"
 "http://www.w3.org/Graphics/SVG/1.1/DTD/svg11.dtd">
<!-- Generated by graphviz version 2.43.0 (0)
 -->
<!-- Title: drake/planning/collision_checker_params.h Pages: 1 -->
<svg width="2135pt" height="395pt"
 viewBox="0.00 0.00 2134.74 395.24" xmlns="http://www.w3.org/2000/svg" xmlns:xlink="http://www.w3.org/1999/xlink">
<g id="graph0" class="graph" transform="scale(1 1) rotate(0) translate(4 391.24)">
<title>drake/planning/collision_checker_params.h</title>
<!-- Node1 -->
<g id="Node000001" class="node">
<title>Node1</title>
<g id="a_Node000001"><a xlink:title=" ">
<ellipse fill="#999999" stroke="#666666" cx="849.24" cy="-366.03" rx="93.18" ry="21.43"/>
<text text-anchor="start" x="791.24" y="-369.03" font-family="Helvetica,sans-Serif" font-size="10.00">drake/planning/collision</text>
<text text-anchor="middle" x="849.24" y="-358.03" font-family="Helvetica,sans-Serif" font-size="10.00">_checker_params.h</text>
</a>
</g>
</g>
<!-- Node2 -->
<g id="Node000002" class="node">
<title>Node2</title>
<g id="a_Node000002"><a xlink:href="collision__checker_8h.html" target="_top" xlink:title=" ">
<ellipse fill="white" stroke="#666666" cx="849.24" cy="-287.61" rx="93.18" ry="21.43"/>
<text text-anchor="start" x="791.24" y="-290.61" font-family="Helvetica,sans-Serif" font-size="10.00">drake/planning/collision</text>
<text text-anchor="middle" x="849.24" y="-279.61" font-family="Helvetica,sans-Serif" font-size="10.00">_checker.h</text>
</a>
</g>
</g>
<!-- Node1&#45;&gt;Node2 -->
<g id="edge1_Node000001_Node000002" class="edge">
<title>Node1&#45;&gt;Node2</title>
<g id="a_edge1_Node000001_Node000002"><a xlink:title=" ">
<path fill="none" stroke="#63b8ff" d="M849.24,-334.45C849.24,-325.85 849.24,-316.71 849.24,-308.88"/>
<polygon fill="#63b8ff" stroke="#63b8ff" points="845.74,-334.55 849.24,-344.55 852.74,-334.55 845.74,-334.55"/>
</a>
</g>
</g>
<!-- Node13 -->
<g id="Node000013" class="node">
<title>Node13</title>
<g id="a_Node000013"><a xlink:href="scene__graph__collision__checker_8h.html" target="_top" xlink:title=" ">
<ellipse fill="white" stroke="#666666" cx="103.24" cy="-201.4" rx="103.48" ry="21.43"/>
<text text-anchor="start" x="38.24" y="-204.4" font-family="Helvetica,sans-Serif" font-size="10.00">drake/planning/scene</text>
<text text-anchor="middle" x="103.24" y="-193.4" font-family="Helvetica,sans-Serif" font-size="10.00">_graph_collision_checker.h</text>
</a>
</g>
</g>
<!-- Node1&#45;&gt;Node13 -->
<g id="edge19_Node000001_Node000013" class="edge">
<title>Node1&#45;&gt;Node13</title>
<g id="a_edge19_Node000001_Node000013"><a xlink:title=" ">
<path fill="none" stroke="#63b8ff" d="M771.21,-349.39C651.38,-325.17 414.92,-276.53 215.24,-230.39 199.13,-226.67 181.77,-222.44 165.64,-218.41"/>
<polygon fill="#63b8ff" stroke="#63b8ff" points="770.54,-352.83 781.04,-351.38 771.93,-345.97 770.54,-352.83"/>
</a>
</g>
</g>
<!-- Node14 -->
<g id="Node000014" class="node">
<title>Node14</title>
<g id="a_Node000014"><a xlink:href="unimplemented__collision__checker_8h.html" target="_top" xlink:title=" ">
<ellipse fill="white" stroke="#666666" cx="2007.24" cy="-201.4" rx="119.5" ry="21.43"/>
<text text-anchor="start" x="1930.74" y="-204.4" font-family="Helvetica,sans-Serif" font-size="10.00">drake/planning/unimplemented</text>
<text text-anchor="middle" x="2007.24" y="-193.4" font-family="Helvetica,sans-Serif" font-size="10.00">_collision_checker.h</text>
</a>
</g>
</g>
<!-- Node1&#45;&gt;Node14 -->
<g id="edge20_Node000001_Node000014" class="edge">
<title>Node1&#45;&gt;Node14</title>
<g id="a_edge20_Node000001_Node000014"><a xlink:title=" ">
<path fill="none" stroke="#63b8ff" d="M942.99,-355.42C1124.33,-336.24 1535.46,-289.9 1878.24,-230.39 1897.54,-227.04 1918.34,-222.81 1937.48,-218.65"/>
<polygon fill="#63b8ff" stroke="#63b8ff" points="942.54,-351.95 932.96,-356.48 943.27,-358.91 942.54,-351.95"/>
</a>
</g>
</g>
<!-- Node3 -->
<g id="Node000003" class="node">
<title>Node3</title>
<g id="a_Node000003"><a xlink:href="differential__inverse__kinematics__system_8h.html" target="_top" xlink:title=" ">
<ellipse fill="white" stroke="#666666" cx="1226.24" cy="-201.4" rx="118.17" ry="28.98"/>
<text text-anchor="start" x="1150.74" y="-209.9" font-family="Helvetica,sans-Serif" font-size="10.00">drake/multibody/inverse</text>
<text text-anchor="start" x="1150.74" y="-198.9" font-family="Helvetica,sans-Serif" font-size="10.00">_kinematics/differential</text>
<text text-anchor="middle" x="1226.24" y="-187.9" font-family="Helvetica,sans-Serif" font-size="10.00">_inverse_kinematics_system.h</text>
</a>
</g>
</g>
<!-- Node2&#45;&gt;Node3 -->
<g id="edge2_Node000002_Node000003" class="edge">
<title>Node2&#45;&gt;Node3</title>
<g id="a_edge2_Node000002_Node000003"><a xlink:title=" ">
<path fill="none" stroke="#63b8ff" d="M923.41,-270.04C985.93,-256.07 1075.41,-236.09 1140.89,-221.46"/>
<polygon fill="#63b8ff" stroke="#63b8ff" points="922.61,-266.63 913.62,-272.23 924.14,-273.46 922.61,-266.63"/>
</a>
</g>
</g>
<!-- Node5 -->
<g id="Node000005" class="node">
<title>Node5</title>
<g id="a_Node000005"><a xlink:href="distance__constraint__utilities_8h.html" target="_top" xlink:title=" ">
<ellipse fill="white" stroke="#666666" cx="967.24" cy="-201.4" rx="123.07" ry="28.98"/>
<text text-anchor="start" x="888.24" y="-209.9" font-family="Helvetica,sans-Serif" font-size="10.00">drake/multibody/inverse</text>
<text text-anchor="start" x="888.24" y="-198.9" font-family="Helvetica,sans-Serif" font-size="10.00">_kinematics/distance_constraint</text>
<text text-anchor="middle" x="967.24" y="-187.9" font-family="Helvetica,sans-Serif" font-size="10.00">_utilities.h</text>
</a>
</g>
</g>
<!-- Node2&#45;&gt;Node5 -->
<g id="edge4_Node000002_Node000005" class="edge">
<title>Node2&#45;&gt;Node5</title>
<g id="a_edge4_Node000002_Node000005"><a xlink:title=" ">
<path fill="none" stroke="#63b8ff" d="M884.8,-261.23C898.94,-251.14 915.22,-239.52 929.56,-229.29"/>
<polygon fill="#63b8ff" stroke="#63b8ff" points="882.42,-258.63 876.31,-267.29 886.48,-264.33 882.42,-258.63"/>
</a>
</g>
</g>
<!-- Node6 -->
<g id="Node000006" class="node">
<title>Node6</title>
<g id="a_Node000006"><a xlink:href="minimum__distance__lower__bound__constraint_8h.html" target="_top" xlink:title=" ">
<ellipse fill="white" stroke="#666666" cx="1484.24" cy="-201.4" rx="122.16" ry="28.98"/>
<text text-anchor="start" x="1405.74" y="-209.9" font-family="Helvetica,sans-Serif" font-size="10.00">drake/multibody/inverse</text>
<text text-anchor="start" x="1405.74" y="-198.9" font-family="Helvetica,sans-Serif" font-size="10.00">_kinematics/minimum_distance</text>
<text text-anchor="middle" x="1484.24" y="-187.9" font-family="Helvetica,sans-Serif" font-size="10.00">_lower_bound_constraint.h</text>
</a>
</g>
</g>
<!-- Node2&#45;&gt;Node6 -->
<g id="edge5_Node000002_Node000006" class="edge">
<title>Node2&#45;&gt;Node6</title>
<g id="a_edge5_Node000002_Node000006"><a xlink:title=" ">
<path fill="none" stroke="#63b8ff" d="M946.36,-278.66C1048.14,-269.66 1212.5,-253.22 1353.24,-230.39 1367.81,-228.03 1383.22,-225.11 1398.15,-222.07"/>
<polygon fill="#63b8ff" stroke="#63b8ff" points="945.76,-275.2 936.1,-279.56 946.37,-282.17 945.76,-275.2"/>
</a>
</g>
</g>
<!-- Node7 -->
<g id="Node000007" class="node">
<title>Node7</title>
<g id="a_Node000007"><a xlink:href="minimum__distance__upper__bound__constraint_8h.html" target="_top" xlink:title=" ">
<ellipse fill="white" stroke="#666666" cx="1747.24" cy="-201.4" rx="122.16" ry="28.98"/>
<text text-anchor="start" x="1668.74" y="-209.9" font-family="Helvetica,sans-Serif" font-size="10.00">drake/multibody/inverse</text>
<text text-anchor="start" x="1668.74" y="-198.9" font-family="Helvetica,sans-Serif" font-size="10.00">_kinematics/minimum_distance</text>
<text text-anchor="middle" x="1747.24" y="-187.9" font-family="Helvetica,sans-Serif" font-size="10.00">_upper_bound_constraint.h</text>
</a>
</g>
</g>
<!-- Node2&#45;&gt;Node7 -->
<g id="edge6_Node000002_Node000007" class="edge">
<title>Node2&#45;&gt;Node7</title>
<g id="a_edge6_Node000002_Node000007"><a xlink:title=" ">
<path fill="none" stroke="#63b8ff" d="M951.72,-283.5C1099.1,-278.04 1379.15,-263.93 1615.24,-230.39 1630.43,-228.23 1646.49,-225.35 1661.98,-222.25"/>
<polygon fill="#63b8ff" stroke="#63b8ff" points="951.21,-280.02 941.34,-283.88 951.46,-287.01 951.21,-280.02"/>
</a>
</g>
</g>
<!-- Node8 -->
<g id="Node000008" class="node">
<title>Node8</title>
<g id="a_Node000008"><a xlink:href="collision__avoidance_8h.html" target="_top" xlink:title=" ">
<ellipse fill="white" stroke="#666666" cx="487.24" cy="-201.4" rx="93.18" ry="21.43"/>
<text text-anchor="start" x="429.24" y="-204.4" font-family="Helvetica,sans-Serif" font-size="10.00">drake/planning/collision</text>
<text text-anchor="middle" x="487.24" y="-193.4" font-family="Helvetica,sans-Serif" font-size="10.00">_avoidance.h</text>
</a>
</g>
</g>
<!-- Node2&#45;&gt;Node8 -->
<g id="edge7_Node000002_Node000008" class="edge">
<title>Node2&#45;&gt;Node8</title>
<g id="a_edge7_Node000002_Node000008"><a xlink:title=" ">
<path fill="none" stroke="#63b8ff" d="M772.85,-270.58C722.1,-259.73 654.05,-244.8 594.24,-230.39 578.37,-226.57 561.24,-222.2 545.44,-218.07"/>
<polygon fill="#63b8ff" stroke="#63b8ff" points="772.25,-274.03 782.77,-272.69 773.71,-267.18 772.25,-274.03"/>
</a>
</g>
</g>
<!-- Node9 -->
<g id="Node000009" class="node">
<title>Node9</title>
<g id="a_Node000009"><a xlink:href="iris__common_8h.html" target="_top" xlink:title=" ">
<ellipse fill="white" stroke="#666666" cx="300.24" cy="-201.4" rx="75.82" ry="21.43"/>
<text text-anchor="start" x="254.74" y="-204.4" font-family="Helvetica,sans-Serif" font-size="10.00">drake/planning/iris</text>
<text text-anchor="middle" x="300.24" y="-193.4" font-family="Helvetica,sans-Serif" font-size="10.00">/iris_common.h</text>
</a>
</g>
</g>
<!-- Node2&#45;&gt;Node9 -->
<g id="edge8_Node000002_Node000009" class="edge">
<title>Node2&#45;&gt;Node9</title>
<g id="a_edge8_Node000002_Node000009"><a xlink:title=" ">
<path fill="none" stroke="#63b8ff" d="M750.13,-280.29C655.53,-272.93 509.41,-258.07 385.24,-230.39 371.74,-227.38 357.36,-223.08 344.33,-218.75"/>
<polygon fill="#63b8ff" stroke="#63b8ff" points="750.03,-283.8 760.27,-281.07 750.56,-276.82 750.03,-283.8"/>
</a>
</g>
</g>
<!-- Node12 -->
<g id="Node000012" class="node">
<title>Node12</title>
<g id="a_Node000012"><a xlink:href="iris__zo_8h.html" target="_top" xlink:title=" ">
<ellipse fill="white" stroke="#666666" cx="376.24" cy="-107.42" rx="75.82" ry="21.43"/>
<text text-anchor="start" x="330.74" y="-110.42" font-family="Helvetica,sans-Serif" font-size="10.00">drake/planning/iris</text>
<text text-anchor="middle" x="376.24" y="-99.42" font-family="Helvetica,sans-Serif" font-size="10.00">/iris_zo.h</text>
</a>
</g>
</g>
<!-- Node2&#45;&gt;Node12 -->
<g id="edge13_Node000002_Node000012" class="edge">
<title>Node2&#45;&gt;Node12</title>
<g id="a_edge13_Node000002_Node000012"><a xlink:title=" ">
<path fill="none" stroke="#63b8ff" d="M752.74,-277.94C711.12,-270.41 663.73,-256.41 627.24,-230.39 602.15,-212.51 613.93,-190.84 589.24,-172.41 547,-140.88 489.25,-124.78 444.54,-116.62"/>
<polygon fill="#63b8ff" stroke="#63b8ff" points="752.19,-281.39 762.63,-279.62 753.36,-274.49 752.19,-281.39"/>
</a>
</g>
</g>
<!-- Node2&#45;&gt;Node13 -->
<g id="edge14_Node000002_Node000013" class="edge">
<title>Node2&#45;&gt;Node13</title>
<g id="a_edge14_Node000002_Node000013"><a xlink:title=" ">
<path fill="none" stroke="#63b8ff" d="M748.12,-282.52C622.47,-276.33 401.84,-261.78 215.24,-230.39 197.75,-227.45 178.96,-223.2 161.87,-218.89"/>
<polygon fill="#63b8ff" stroke="#63b8ff" points="747.96,-286.02 758.12,-283.01 748.3,-279.03 747.96,-286.02"/>
</a>
</g>
</g>
<!-- Node2&#45;&gt;Node14 -->
<g id="edge17_Node000002_Node000014" class="edge">
<title>Node2&#45;&gt;Node14</title>
<g id="a_edge17_Node000002_Node000014"><a xlink:title=" ">
<path fill="none" stroke="#63b8ff" d="M952.69,-286.38C1138.74,-284.77 1541.79,-275.79 1878.24,-230.39 1898.56,-227.65 1920.45,-223.4 1940.31,-219.04"/>
<polygon fill="#63b8ff" stroke="#63b8ff" points="952.61,-282.88 942.64,-286.46 952.67,-289.88 952.61,-282.88"/>
</a>
</g>
</g>
<!-- Node15 -->
<g id="Node000015" class="node">
<title>Node15</title>
<g id="a_Node000015"><a xlink:href="visibility__graph_8h.html" target="_top" xlink:title=" ">
<ellipse fill="white" stroke="#666666" cx="731.24" cy="-201.4" rx="94.51" ry="21.43"/>
<text text-anchor="start" x="672.24" y="-204.4" font-family="Helvetica,sans-Serif" font-size="10.00">drake/planning/visibility</text>
<text text-anchor="middle" x="731.24" y="-193.4" font-family="Helvetica,sans-Serif" font-size="10.00">_graph.h</text>
</a>
</g>
</g>
<!-- Node2&#45;&gt;Node15 -->
<g id="edge18_Node000002_Node000015" class="edge">
<title>Node2&#45;&gt;Node15</title>
<g id="a_edge18_Node000002_Node000015"><a xlink:title=" ">
<path fill="none" stroke="#63b8ff" d="M813.79,-261.31C796.09,-248.68 775.02,-233.64 758.59,-221.92"/>
<polygon fill="#63b8ff" stroke="#63b8ff" points="811.99,-264.33 822.17,-267.29 816.06,-258.63 811.99,-264.33"/>
</a>
</g>
</g>
<!-- Node4 -->
<g id="Node000004" class="node">
<title>Node4</title>
<g id="a_Node000004"><a xlink:href="differential__inverse__kinematics__controller_8h.html" target="_top" xlink:title=" ">
<ellipse fill="white" stroke="#666666" cx="1226.24" cy="-107.42" rx="125.32" ry="28.98"/>
<text text-anchor="start" x="1145.74" y="-115.92" font-family="Helvetica,sans-Serif" font-size="10.00">drake/multibody/inverse</text>
<text text-anchor="start" x="1145.74" y="-104.92" font-family="Helvetica,sans-Serif" font-size="10.00">_kinematics/differential</text>
<text text-anchor="middle" x="1226.24" y="-93.92" font-family="Helvetica,sans-Serif" font-size="10.00">_inverse_kinematics_controller.h</text>
</a>
</g>
</g>
<!-- Node3&#45;&gt;Node4 -->
<g id="edge3_Node000003_Node000004" class="edge">
<title>Node3&#45;&gt;Node4</title>
<g id="a_edge3_Node000003_Node000004"><a xlink:title=" ">
<path fill="none" stroke="#63b8ff" d="M1226.24,-162.15C1226.24,-153.61 1226.24,-144.71 1226.24,-136.66"/>
<polygon fill="#63b8ff" stroke="#63b8ff" points="1222.74,-162.3 1226.24,-172.3 1229.74,-162.3 1222.74,-162.3"/>
</a>
</g>
</g>
<!-- Node10 -->
<g id="Node000010" class="node">
<title>Node10</title>
<g id="a_Node000010"><a xlink:href="iris__np2_8h.html" target="_top" xlink:title=" ">
<ellipse fill="white" stroke="#666666" cx="207.24" cy="-107.42" rx="75.82" ry="21.43"/>
<text text-anchor="start" x="161.74" y="-110.42" font-family="Helvetica,sans-Serif" font-size="10.00">drake/planning/iris</text>
<text text-anchor="middle" x="207.24" y="-99.42" font-family="Helvetica,sans-Serif" font-size="10.00">/iris_np2.h</text>
</a>
</g>
</g>
<!-- Node9&#45;&gt;Node10 -->
<g id="edge9_Node000009_Node000010" class="edge">
<title>Node9&#45;&gt;Node10</title>
<g id="a_edge9_Node000009_Node000010"><a xlink:title=" ">
<path fill="none" stroke="#63b8ff" d="M273.17,-173.63C258.49,-159.11 240.67,-141.48 227.25,-128.21"/>
<polygon fill="#63b8ff" stroke="#63b8ff" points="270.94,-176.35 280.51,-180.89 275.87,-171.37 270.94,-176.35"/>
</a>
</g>
</g>
<!-- Node9&#45;&gt;Node12 -->
<g id="edge11_Node000009_Node000012" class="edge">
<title>Node9&#45;&gt;Node12</title>
<g id="a_edge11_Node000009_Node000012"><a xlink:title=" ">
<path fill="none" stroke="#63b8ff" d="M323.35,-172.43C335.11,-158.2 349.13,-141.23 359.78,-128.34"/>
<polygon fill="#63b8ff" stroke="#63b8ff" points="320.4,-170.5 316.73,-180.44 325.8,-174.96 320.4,-170.5"/>
</a>
</g>
</g>
<!-- Node11 -->
<g id="Node000011" class="node">
<title>Node11</title>
<g id="a_Node000011"><a xlink:href="iris__from__clique__cover_8h.html" target="_top" xlink:title=" ">
<ellipse fill="white" stroke="#666666" cx="207.24" cy="-21.21" rx="97.66" ry="21.43"/>
<text text-anchor="start" x="146.24" y="-24.21" font-family="Helvetica,sans-Serif" font-size="10.00">drake/planning/iris</text>
<text text-anchor="middle" x="207.24" y="-13.21" font-family="Helvetica,sans-Serif" font-size="10.00">/iris_from_clique_cover.h</text>
</a>
</g>
</g>
<!-- Node10&#45;&gt;Node11 -->
<g id="edge10_Node000010_Node000011" class="edge">
<title>Node10&#45;&gt;Node11</title>
<g id="a_edge10_Node000010_Node000011"><a xlink:title=" ">
<path fill="none" stroke="#63b8ff" d="M207.24,-75.91C207.24,-64.87 207.24,-52.68 207.24,-42.7"/>
<polygon fill="#63b8ff" stroke="#63b8ff" points="203.74,-76.03 207.24,-86.03 210.74,-76.03 203.74,-76.03"/>
</a>
</g>
</g>
<!-- Node12&#45;&gt;Node11 -->
<g id="edge12_Node000012_Node000011" class="edge">
<title>Node12&#45;&gt;Node11</title>
<g id="a_edge12_Node000012_Node000011"><a xlink:title=" ">
<path fill="none" stroke="#63b8ff" d="M331.17,-83.96C304.19,-70.52 270.3,-53.64 244.78,-40.92"/>
<polygon fill="#63b8ff" stroke="#63b8ff" points="329.89,-87.23 340.4,-88.56 333.01,-80.97 329.89,-87.23"/>
</a>
</g>
</g>
<!-- Node13&#45;&gt;Node10 -->
<g id="edge16_Node000013_Node000010" class="edge">
<title>Node13&#45;&gt;Node10</title>
<g id="a_edge16_Node000013_Node000010"><a xlink:title=" ">
<path fill="none" stroke="#63b8ff" d="M133.37,-173.75C149.98,-159.06 170.23,-141.15 185.32,-127.8"/>
<polygon fill="#63b8ff" stroke="#63b8ff" points="130.72,-171.42 125.55,-180.67 135.36,-176.66 130.72,-171.42"/>
</a>
</g>
</g>
<!-- Node13&#45;&gt;Node11 -->
<g id="edge15_Node000013_Node000011" class="edge">
<title>Node13&#45;&gt;Node11</title>
<g id="a_edge15_Node000013_Node000011"><a xlink:title=" ">
<path fill="none" stroke="#63b8ff" d="M101.39,-169.97C101.24,-143.73 104.64,-105.85 122.24,-78.43 132.65,-62.2 149.61,-49.6 165.65,-40.48"/>
<polygon fill="#63b8ff" stroke="#63b8ff" points="97.89,-170.17 101.62,-180.09 104.89,-170.01 97.89,-170.17"/>
</a>
</g>
</g>
</g>
</svg>
