<?xml version="1.0" encoding="UTF-8" standalone="no"?>
<!DOCTYPE svg PUBLIC "-//W3C//DTD SVG 1.1//EN"
 "http://www.w3.org/Graphics/SVG/1.1/DTD/svg11.dtd">
<!-- Generated by graphviz version 2.43.0 (0)
 -->
<!-- Title: drake/geometry/collision_filter_manager.h Pages: 1 -->
<!--zoomable 553 -->
<svg id="main" version="1.1" xmlns="http://www.w3.org/2000/svg" xmlns:xlink="http://www.w3.org/1999/xlink" xml:space="preserve" onload="init(evt)">
<style type="text/css"><![CDATA[
.edge:hover path { stroke: red; }
.edge:hover polygon { stroke: red; fill: red; }
]]></style>
<script type="text/javascript"><![CDATA[
var edges = document.getElementsByTagName('g');
if (edges && edges.length) {
  for (var i=0;i<edges.length;i++) {
    if (edges[i].id.substr(0,4)=='edge') {
      edges[i].setAttribute('class','edge');
    }
  }
}
]]></script>
        <defs>
                <circle id="rim" cx="0" cy="0" r="7"/>
                <circle id="rim2" cx="0" cy="0" r="3.5"/>
                <g id="zoomPlus">
                        <use xlink:href="#rim" fill="#404040">
                                <set attributeName="fill" to="#808080" begin="zoomplus.mouseover" end="zoomplus.mouseout"/>
                        </use>
                        <path d="M-4,0h8M0,-4v8" fill="none" stroke="white" stroke-width="1.5" pointer-events="none"/>
                </g>
                <g id="zoomMin">
                        <use xlink:href="#rim" fill="#404040">
                                <set attributeName="fill" to="#808080" begin="zoomminus.mouseover" end="zoomminus.mouseout"/>
                        </use>
                        <path d="M-4,0h8" fill="none" stroke="white" stroke-width="1.5" pointer-events="none"/>
                </g>
                <g id="dirArrow">
                        <path fill="none" stroke="white" stroke-width="1.5" d="M0,-3.0v7 M-2.5,-0.5L0,-3.0L2.5,-0.5"/>
                </g>
               <g id="resetDef">
                       <use xlink:href="#rim2" fill="#404040">
                               <set attributeName="fill" to="#808080" begin="reset.mouseover" end="reset.mouseout"/>
                       </use>
               </g>
        </defs>

<script type="text/javascript">
var viewWidth = 1273;
var viewHeight = 553;
var sectionId = 'dynsection-0';
</script>
<script xlink:href="svgpan.js"/>
<svg id="graph" class="graph">
<g id="viewport">
<title>drake/geometry/collision_filter_manager.h</title>
<polygon fill="white" stroke="transparent" points="-4,4 -4,-549 1268.5,-549 1268.5,4 -4,4"/>
<!-- Node0 -->
<g id="node1" class="node">
<title>Node0</title>
<g id="a_node1"><a xlink:title=" ">
<polygon fill="#bfbfbf" stroke="black" points="143,-514.5 143,-544.5 280,-544.5 280,-514.5 143,-514.5"/>
<text text-anchor="start" x="151" y="-532.5" font-family="Helvetica,sans-Serif" font-size="10.00">drake/geometry/collision</text>
<text text-anchor="middle" x="211.5" y="-521.5" font-family="Helvetica,sans-Serif" font-size="10.00">_filter_manager.h</text>
</a>
</g>
</g>
<!-- Node1 -->
<g id="node2" class="node">
<title>Node1</title>
<g id="a_node2"><a xlink:href="drake__copyable_8h.html" target="_top" xlink:title="Provides careful macros to selectively enable or disable the special member functions for copy&#45;constr...">
<polygon fill="white" stroke="black" points="108,-123.5 108,-153.5 227,-153.5 227,-123.5 108,-123.5"/>
<text text-anchor="start" x="116" y="-141.5" font-family="Helvetica,sans-Serif" font-size="10.00">drake/common/drake</text>
<text text-anchor="middle" x="167.5" y="-130.5" font-family="Helvetica,sans-Serif" font-size="10.00">_copyable.h</text>
</a>
</g>
</g>
<!-- Node0&#45;&gt;Node1 -->
<g id="edge1" class="edge">
<title>Node0&#45;&gt;Node1</title>
<path fill="none" stroke="midnightblue" d="M179.78,-514.43C143.51,-496.37 85.98,-461.26 61.5,-411 17.63,-320.9 105.07,-207.72 146.92,-161.09"/>
<polygon fill="midnightblue" stroke="midnightblue" points="149.52,-163.43 153.68,-153.69 144.35,-158.71 149.52,-163.43"/>
</g>
<!-- Node2 -->
<g id="node3" class="node">
<title>Node2</title>
<g id="a_node3"><a xlink:href="collision__filter__declaration_8h.html" target="_top" xlink:title=" ">
<polygon fill="white" stroke="black" points="71,-380.5 71,-410.5 208,-410.5 208,-380.5 71,-380.5"/>
<text text-anchor="start" x="79" y="-398.5" font-family="Helvetica,sans-Serif" font-size="10.00">drake/geometry/collision</text>
<text text-anchor="middle" x="139.5" y="-387.5" font-family="Helvetica,sans-Serif" font-size="10.00">_filter_declaration.h</text>
</a>
</g>
</g>
<!-- Node0&#45;&gt;Node2 -->
<g id="edge2" class="edge">
<title>Node0&#45;&gt;Node2</title>
<path fill="none" stroke="midnightblue" d="M203.79,-514.37C191.4,-491.65 166.91,-446.75 151.99,-419.4"/>
<polygon fill="midnightblue" stroke="midnightblue" points="155.01,-417.63 147.15,-410.52 148.87,-420.98 155.01,-417.63"/>
</g>
<!-- Node5 -->
<g id="node6" class="node">
<title>Node5</title>
<g id="a_node6"><a xlink:href="geometry__set_8h.html" target="_top" xlink:title=" ">
<polygon fill="white" stroke="black" points="164.5,-313.5 164.5,-343.5 308.5,-343.5 308.5,-313.5 164.5,-313.5"/>
<text text-anchor="start" x="172.5" y="-331.5" font-family="Helvetica,sans-Serif" font-size="10.00">drake/geometry/geometry</text>
<text text-anchor="middle" x="236.5" y="-320.5" font-family="Helvetica,sans-Serif" font-size="10.00">_set.h</text>
</a>
</g>
</g>
<!-- Node0&#45;&gt;Node5 -->
<g id="edge47" class="edge">
<title>Node0&#45;&gt;Node5</title>
<path fill="none" stroke="midnightblue" d="M213.3,-514.19C217.53,-480.48 228.17,-395.8 233.44,-353.84"/>
<polygon fill="midnightblue" stroke="midnightblue" points="236.94,-354.04 234.72,-343.68 230,-353.17 236.94,-354.04"/>
</g>
<!-- Node30 -->
<g id="node31" class="node">
<title>Node30</title>
<g id="a_node31"><a xlink:href="collision__filter_8h.html" target="_top" xlink:title=" ">
<polygon fill="white" stroke="black" points="289.5,-447.5 289.5,-477.5 433.5,-477.5 433.5,-447.5 289.5,-447.5"/>
<text text-anchor="start" x="297.5" y="-465.5" font-family="Helvetica,sans-Serif" font-size="10.00">drake/geometry/proximity</text>
<text text-anchor="middle" x="361.5" y="-454.5" font-family="Helvetica,sans-Serif" font-size="10.00">/collision_filter.h</text>
</a>
</g>
</g>
<!-- Node0&#45;&gt;Node30 -->
<g id="edge48" class="edge">
<title>Node0&#45;&gt;Node30</title>
<path fill="none" stroke="midnightblue" d="M244.05,-514.4C266.26,-504.77 295.88,-491.94 319.81,-481.56"/>
<polygon fill="midnightblue" stroke="midnightblue" points="321.23,-484.76 329.02,-477.58 318.45,-478.34 321.23,-484.76"/>
</g>
<!-- Node2&#45;&gt;Node1 -->
<g id="edge5" class="edge">
<title>Node2&#45;&gt;Node1</title>
<path fill="none" stroke="midnightblue" d="M141.05,-380.43C145.62,-338.8 159.11,-215.94 164.86,-163.58"/>
<polygon fill="midnightblue" stroke="midnightblue" points="168.35,-163.85 165.96,-153.53 161.39,-163.09 168.35,-163.85"/>
</g>
<!-- Node3 -->
<g id="node4" class="node">
<title>Node3</title>
<g id="a_node4"><a xlink:title=" ">
<polygon fill="white" stroke="#bfbfbf" points="1166,-0.5 1166,-19.5 1211,-19.5 1211,-0.5 1166,-0.5"/>
<text text-anchor="middle" x="1188.5" y="-7.5" font-family="Helvetica,sans-Serif" font-size="10.00">utility</text>
</a>
</g>
</g>
<!-- Node2&#45;&gt;Node3 -->
<g id="edge3" class="edge">
<title>Node2&#45;&gt;Node3</title>
<path fill="none" stroke="midnightblue" d="M208.06,-381.41C361.75,-350.99 744.32,-269.22 1049.5,-154 1111.79,-130.48 1146.65,-142.46 1183.5,-87 1194.68,-70.18 1194.3,-46.37 1192.17,-29.91"/>
<polygon fill="midnightblue" stroke="midnightblue" points="1195.6,-29.17 1190.54,-19.86 1188.69,-30.29 1195.6,-29.17"/>
</g>
<!-- Node4 -->
<g id="node5" class="node">
<title>Node4</title>
<g id="a_node5"><a xlink:title=" ">
<polygon fill="white" stroke="#bfbfbf" points="0,-62 0,-81 47,-81 47,-62 0,-62"/>
<text text-anchor="middle" x="23.5" y="-69" font-family="Helvetica,sans-Serif" font-size="10.00">vector</text>
</a>
</g>
</g>
<!-- Node2&#45;&gt;Node4 -->
<g id="edge4" class="edge">
<title>Node2&#45;&gt;Node4</title>
<path fill="none" stroke="midnightblue" d="M134.37,-380.25C115.62,-328.22 50.9,-148.57 30.04,-90.65"/>
<polygon fill="midnightblue" stroke="midnightblue" points="33.26,-89.26 26.57,-81.03 26.67,-91.63 33.26,-89.26"/>
</g>
<!-- Node2&#45;&gt;Node5 -->
<g id="edge6" class="edge">
<title>Node2&#45;&gt;Node5</title>
<path fill="none" stroke="midnightblue" d="M160.55,-380.4C174.15,-371.28 192.04,-359.29 207.05,-349.24"/>
<polygon fill="midnightblue" stroke="midnightblue" points="209.13,-352.05 215.49,-343.58 205.24,-346.24 209.13,-352.05"/>
</g>
<!-- Node5&#45;&gt;Node1 -->
<g id="edge10" class="edge">
<title>Node5&#45;&gt;Node1</title>
<path fill="none" stroke="midnightblue" d="M221.45,-313.43C212.26,-303.99 201.06,-290.8 194.5,-277 176.98,-240.15 170.83,-192.56 168.67,-164.12"/>
<polygon fill="midnightblue" stroke="midnightblue" points="172.14,-163.63 168,-153.88 165.16,-164.09 172.14,-163.63"/>
</g>
<!-- Node5&#45;&gt;Node4 -->
<g id="edge9" class="edge">
<title>Node5&#45;&gt;Node4</title>
<path fill="none" stroke="midnightblue" d="M218.74,-313.3C207.06,-303.6 191.74,-290.17 179.5,-277 119.51,-212.44 59.3,-125.88 34.86,-89.61"/>
<polygon fill="midnightblue" stroke="midnightblue" points="37.67,-87.51 29.19,-81.14 31.85,-91.4 37.67,-87.51"/>
</g>
<!-- Node6 -->
<g id="node7" class="node">
<title>Node6</title>
<g id="a_node7"><a xlink:title=" ">
<polygon fill="white" stroke="#bfbfbf" points="204,-252 204,-271 287,-271 287,-252 204,-252"/>
<text text-anchor="middle" x="245.5" y="-259" font-family="Helvetica,sans-Serif" font-size="10.00">initializer_list</text>
</a>
</g>
</g>
<!-- Node5&#45;&gt;Node6 -->
<g id="edge7" class="edge">
<title>Node5&#45;&gt;Node6</title>
<path fill="none" stroke="midnightblue" d="M238.45,-313.4C239.76,-303.96 241.49,-291.45 242.91,-281.19"/>
<polygon fill="midnightblue" stroke="midnightblue" points="246.39,-281.58 244.3,-271.19 239.46,-280.62 246.39,-281.58"/>
</g>
<!-- Node7 -->
<g id="node8" class="node">
<title>Node7</title>
<g id="a_node8"><a xlink:title=" ">
<polygon fill="white" stroke="#bfbfbf" points="467.5,-252 467.5,-271 553.5,-271 553.5,-252 467.5,-252"/>
<text text-anchor="middle" x="510.5" y="-259" font-family="Helvetica,sans-Serif" font-size="10.00">unordered_set</text>
</a>
</g>
</g>
<!-- Node5&#45;&gt;Node7 -->
<g id="edge8" class="edge">
<title>Node5&#45;&gt;Node7</title>
<path fill="none" stroke="midnightblue" d="M302.27,-313.41C346.55,-303.71 406.19,-290.23 458.5,-277 462.59,-275.97 466.85,-274.85 471.09,-273.71"/>
<polygon fill="midnightblue" stroke="midnightblue" points="472.15,-277.04 480.87,-271.03 470.3,-270.29 472.15,-277.04"/>
</g>
<!-- Node8 -->
<g id="node9" class="node">
<title>Node8</title>
<g id="a_node9"><a xlink:href="geometry__ids_8h.html" target="_top" xlink:title=" ">
<polygon fill="white" stroke="black" points="305.5,-246.5 305.5,-276.5 449.5,-276.5 449.5,-246.5 305.5,-246.5"/>
<text text-anchor="start" x="313.5" y="-264.5" font-family="Helvetica,sans-Serif" font-size="10.00">drake/geometry/geometry</text>
<text text-anchor="middle" x="377.5" y="-253.5" font-family="Helvetica,sans-Serif" font-size="10.00">_ids.h</text>
</a>
</g>
</g>
<!-- Node5&#45;&gt;Node8 -->
<g id="edge11" class="edge">
<title>Node5&#45;&gt;Node8</title>
<path fill="none" stroke="midnightblue" d="M267.09,-313.4C287.79,-303.86 315.32,-291.16 337.72,-280.84"/>
<polygon fill="midnightblue" stroke="midnightblue" points="339.35,-283.94 346.96,-276.58 336.42,-277.58 339.35,-283.94"/>
</g>
<!-- Node8&#45;&gt;Node1 -->
<g id="edge12" class="edge">
<title>Node8&#45;&gt;Node1</title>
<path fill="none" stroke="midnightblue" d="M353,-246.38C315.3,-224.66 243,-183 200.66,-158.6"/>
<polygon fill="midnightblue" stroke="midnightblue" points="202.26,-155.49 191.84,-153.53 198.76,-161.55 202.26,-155.49"/>
</g>
<!-- Node9 -->
<g id="node10" class="node">
<title>Node9</title>
<g id="a_node10"><a xlink:href="identifier_8h.html" target="_top" xlink:title=" ">
<polygon fill="white" stroke="black" points="609.5,-190.5 609.5,-209.5 753.5,-209.5 753.5,-190.5 609.5,-190.5"/>
<text text-anchor="middle" x="681.5" y="-197.5" font-family="Helvetica,sans-Serif" font-size="10.00">drake/common/identifier.h</text>
</a>
</g>
</g>
<!-- Node8&#45;&gt;Node9 -->
<g id="edge13" class="edge">
<title>Node8&#45;&gt;Node9</title>
<path fill="none" stroke="midnightblue" d="M449.16,-246.47C504.01,-235.74 578.45,-221.17 628.14,-211.44"/>
<polygon fill="midnightblue" stroke="midnightblue" points="628.9,-214.86 638.04,-209.51 627.55,-207.99 628.9,-214.86"/>
</g>
<!-- Node9&#45;&gt;Node1 -->
<g id="edge24" class="edge">
<title>Node9&#45;&gt;Node1</title>
<path fill="none" stroke="midnightblue" d="M609.13,-194.06C522.99,-187.64 374.6,-174.91 237.54,-154.05"/>
<polygon fill="midnightblue" stroke="midnightblue" points="237.68,-150.53 227.27,-152.47 236.62,-157.45 237.68,-150.53"/>
</g>
<!-- Node9&#45;&gt;Node3 -->
<g id="edge17" class="edge">
<title>Node9&#45;&gt;Node3</title>
<path fill="none" stroke="midnightblue" d="M753.73,-190.68C872.32,-175.66 1101.09,-140.51 1160.5,-87 1176.87,-72.26 1183.69,-47.09 1186.52,-29.78"/>
<polygon fill="midnightblue" stroke="midnightblue" points="1190.01,-30.11 1187.86,-19.73 1183.07,-29.18 1190.01,-30.11"/>
</g>
<!-- Node10 -->
<g id="node11" class="node">
<title>Node10</title>
<g id="a_node11"><a xlink:title=" ">
<polygon fill="white" stroke="#bfbfbf" points="541.5,-62 541.5,-81 591.5,-81 591.5,-62 541.5,-62"/>
<text text-anchor="middle" x="566.5" y="-69" font-family="Helvetica,sans-Serif" font-size="10.00">cstdint</text>
</a>
</g>
</g>
<!-- Node9&#45;&gt;Node10 -->
<g id="edge14" class="edge">
<title>Node9&#45;&gt;Node10</title>
<path fill="none" stroke="midnightblue" d="M673.16,-190.47C664.42,-181.49 650.34,-166.89 638.5,-154 618.05,-131.74 595.02,-105.45 580.63,-88.87"/>
<polygon fill="midnightblue" stroke="midnightblue" points="583.15,-86.43 573.96,-81.16 577.86,-91.02 583.15,-86.43"/>
</g>
<!-- Node11 -->
<g id="node12" class="node">
<title>Node11</title>
<g id="a_node12"><a xlink:title=" ">
<polygon fill="white" stroke="#bfbfbf" points="830,-129 830,-148 887,-148 887,-129 830,-129"/>
<text text-anchor="middle" x="858.5" y="-136" font-family="Helvetica,sans-Serif" font-size="10.00">ostream</text>
</a>
</g>
</g>
<!-- Node9&#45;&gt;Node11 -->
<g id="edge15" class="edge">
<title>Node9&#45;&gt;Node11</title>
<path fill="none" stroke="midnightblue" d="M707.19,-190.38C734.17,-181.33 777.82,-166.68 815.5,-154 818.07,-153.13 820.73,-152.24 823.4,-151.34"/>
<polygon fill="midnightblue" stroke="midnightblue" points="824.68,-154.6 833.04,-148.09 822.44,-147.97 824.68,-154.6"/>
</g>
<!-- Node12 -->
<g id="node13" class="node">
<title>Node12</title>
<g id="a_node13"><a xlink:title=" ">
<polygon fill="white" stroke="#bfbfbf" points="484.5,-0.5 484.5,-19.5 528.5,-19.5 528.5,-0.5 484.5,-0.5"/>
<text text-anchor="middle" x="506.5" y="-7.5" font-family="Helvetica,sans-Serif" font-size="10.00">string</text>
</a>
</g>
</g>
<!-- Node9&#45;&gt;Node12 -->
<g id="edge16" class="edge">
<title>Node9&#45;&gt;Node12</title>
<path fill="none" stroke="midnightblue" d="M629.56,-190.48C573.84,-178.27 488.04,-149.88 448.5,-87 441.17,-75.34 442.44,-68.37 448.5,-56 455.02,-42.68 467.6,-32.18 479.37,-24.68"/>
<polygon fill="midnightblue" stroke="midnightblue" points="481.27,-27.62 488.11,-19.53 477.72,-21.59 481.27,-27.62"/>
</g>
<!-- Node13 -->
<g id="node14" class="node">
<title>Node13</title>
<g id="a_node14"><a xlink:href="drake__assert_8h.html" target="_top" xlink:title="Provides Drake&#39;s assertion mechanics.">
<polygon fill="white" stroke="black" points="1003,-56.5 1003,-86.5 1122,-86.5 1122,-56.5 1003,-56.5"/>
<text text-anchor="start" x="1011" y="-74.5" font-family="Helvetica,sans-Serif" font-size="10.00">drake/common/drake</text>
<text text-anchor="middle" x="1062.5" y="-63.5" font-family="Helvetica,sans-Serif" font-size="10.00">_assert.h</text>
</a>
</g>
</g>
<!-- Node9&#45;&gt;Node13 -->
<g id="edge18" class="edge">
<title>Node9&#45;&gt;Node13</title>
<path fill="none" stroke="midnightblue" d="M704.96,-190.37C725.76,-182.27 756.63,-169.16 781.5,-154 800.41,-142.48 800.45,-132.4 820.5,-123 888.83,-90.97 914.6,-102.1 992.85,-87.05"/>
<polygon fill="midnightblue" stroke="midnightblue" points="993.55,-90.48 1002.66,-85.08 992.17,-83.62 993.55,-90.48"/>
</g>
<!-- Node17 -->
<g id="node18" class="node">
<title>Node17</title>
<g id="a_node18"><a xlink:href="fmt__ostream_8h.html" target="_top" xlink:title=" ">
<polygon fill="white" stroke="black" points="245.5,-129 245.5,-148 409.5,-148 409.5,-129 245.5,-129"/>
<text text-anchor="middle" x="327.5" y="-136" font-family="Helvetica,sans-Serif" font-size="10.00">drake/common/fmt_ostream.h</text>
</a>
</g>
</g>
<!-- Node9&#45;&gt;Node17 -->
<g id="edge25" class="edge">
<title>Node9&#45;&gt;Node17</title>
<path fill="none" stroke="midnightblue" d="M630.78,-190.48C566.77,-179.72 456.79,-161.23 388.33,-149.72"/>
<polygon fill="midnightblue" stroke="midnightblue" points="388.57,-146.22 378.13,-148.01 387.41,-153.12 388.57,-146.22"/>
</g>
<!-- Node23 -->
<g id="node24" class="node">
<title>Node23</title>
<g id="a_node24"><a xlink:href="hash_8h.html" target="_top" xlink:title=" ">
<polygon fill="white" stroke="black" points="648,-129 648,-148 773,-148 773,-129 648,-129"/>
<text text-anchor="middle" x="710.5" y="-136" font-family="Helvetica,sans-Serif" font-size="10.00">drake/common/hash.h</text>
</a>
</g>
</g>
<!-- Node9&#45;&gt;Node23 -->
<g id="edge34" class="edge">
<title>Node9&#45;&gt;Node23</title>
<path fill="none" stroke="midnightblue" d="M685.65,-190.48C689.88,-181.82 696.54,-168.15 701.9,-157.15"/>
<polygon fill="midnightblue" stroke="midnightblue" points="705.12,-158.53 706.35,-148.01 698.83,-155.46 705.12,-158.53"/>
</g>
<!-- Node13&#45;&gt;Node3 -->
<g id="edge23" class="edge">
<title>Node13&#45;&gt;Node3</title>
<path fill="none" stroke="midnightblue" d="M1092.36,-56.4C1113.12,-46.59 1140.6,-33.62 1160.86,-24.05"/>
<polygon fill="midnightblue" stroke="midnightblue" points="1162.62,-27.09 1170.17,-19.66 1159.63,-20.76 1162.62,-27.09"/>
</g>
<!-- Node13&#45;&gt;Node12 -->
<g id="edge20" class="edge">
<title>Node13&#45;&gt;Node12</title>
<path fill="none" stroke="midnightblue" d="M1002.74,-57.5C999.62,-56.96 996.53,-56.46 993.5,-56 948.74,-49.25 640.68,-22.53 538.99,-13.78"/>
<polygon fill="midnightblue" stroke="midnightblue" points="538.98,-10.27 528.72,-12.9 538.38,-17.24 538.98,-10.27"/>
</g>
<!-- Node14 -->
<g id="node15" class="node">
<title>Node14</title>
<g id="a_node15"><a xlink:title=" ">
<polygon fill="white" stroke="#bfbfbf" points="1011.5,-0.5 1011.5,-19.5 1053.5,-19.5 1053.5,-0.5 1011.5,-0.5"/>
<text text-anchor="middle" x="1032.5" y="-7.5" font-family="Helvetica,sans-Serif" font-size="10.00">array</text>
</a>
</g>
</g>
<!-- Node13&#45;&gt;Node14 -->
<g id="edge19" class="edge">
<title>Node13&#45;&gt;Node14</title>
<path fill="none" stroke="midnightblue" d="M1055.39,-56.4C1051.21,-48.11 1045.89,-37.55 1041.43,-28.71"/>
<polygon fill="midnightblue" stroke="midnightblue" points="1044.49,-27.01 1036.87,-19.66 1038.24,-30.16 1044.49,-27.01"/>
</g>
<!-- Node15 -->
<g id="node16" class="node">
<title>Node15</title>
<g id="a_node16"><a xlink:title=" ">
<polygon fill="white" stroke="#bfbfbf" points="1072,-0.5 1072,-19.5 1113,-19.5 1113,-0.5 1072,-0.5"/>
<text text-anchor="middle" x="1092.5" y="-7.5" font-family="Helvetica,sans-Serif" font-size="10.00">tuple</text>
</a>
</g>
</g>
<!-- Node13&#45;&gt;Node15 -->
<g id="edge21" class="edge">
<title>Node13&#45;&gt;Node15</title>
<path fill="none" stroke="midnightblue" d="M1069.61,-56.4C1073.79,-48.11 1079.11,-37.55 1083.57,-28.71"/>
<polygon fill="midnightblue" stroke="midnightblue" points="1086.76,-30.16 1088.13,-19.66 1080.51,-27.01 1086.76,-30.16"/>
</g>
<!-- Node16 -->
<g id="node17" class="node">
<title>Node16</title>
<g id="a_node17"><a xlink:title=" ">
<polygon fill="white" stroke="#bfbfbf" points="623,-0.5 623,-19.5 692,-19.5 692,-0.5 623,-0.5"/>
<text text-anchor="middle" x="657.5" y="-7.5" font-family="Helvetica,sans-Serif" font-size="10.00">type_traits</text>
</a>
</g>
</g>
<!-- Node13&#45;&gt;Node16 -->
<g id="edge22" class="edge">
<title>Node13&#45;&gt;Node16</title>
<path fill="none" stroke="midnightblue" d="M1002.71,-57.65C999.6,-57.07 996.52,-56.52 993.5,-56 889.93,-38.21 767.37,-23.34 702.7,-15.98"/>
<polygon fill="midnightblue" stroke="midnightblue" points="702.79,-12.46 692.46,-14.82 702,-19.42 702.79,-12.46"/>
</g>
<!-- Node18 -->
<g id="node19" class="node">
<title>Node18</title>
<g id="a_node19"><a xlink:title=" ">
<polygon fill="white" stroke="#bfbfbf" points="241.5,-62 241.5,-81 297.5,-81 297.5,-62 241.5,-62"/>
<text text-anchor="middle" x="269.5" y="-69" font-family="Helvetica,sans-Serif" font-size="10.00">sstream</text>
</a>
</g>
</g>
<!-- Node17&#45;&gt;Node18 -->
<g id="edge26" class="edge">
<title>Node17&#45;&gt;Node18</title>
<path fill="none" stroke="midnightblue" d="M319.68,-128.73C310.55,-118.5 295.26,-101.36 283.95,-88.69"/>
<polygon fill="midnightblue" stroke="midnightblue" points="286.47,-86.26 277.2,-81.13 281.24,-90.92 286.47,-86.26"/>
</g>
<!-- Node19 -->
<g id="node20" class="node">
<title>Node19</title>
<g id="a_node20"><a xlink:title=" ">
<polygon fill="white" stroke="#bfbfbf" points="39,-0.5 39,-19.5 112,-19.5 112,-0.5 39,-0.5"/>
<text text-anchor="middle" x="75.5" y="-7.5" font-family="Helvetica,sans-Serif" font-size="10.00">string_view</text>
</a>
</g>
</g>
<!-- Node17&#45;&gt;Node19 -->
<g id="edge27" class="edge">
<title>Node17&#45;&gt;Node19</title>
<path fill="none" stroke="midnightblue" d="M274.24,-128.99C209.54,-118.19 107.37,-99.48 94.5,-87 79.2,-72.17 75.51,-47.03 74.95,-29.75"/>
<polygon fill="midnightblue" stroke="midnightblue" points="78.45,-29.71 74.94,-19.71 71.45,-29.72 78.45,-29.71"/>
</g>
<!-- Node20 -->
<g id="node21" class="node">
<title>Node20</title>
<g id="a_node21"><a xlink:title=" ">
<polygon fill="white" stroke="#bfbfbf" points="315.5,-62 315.5,-81 401.5,-81 401.5,-62 315.5,-62"/>
<text text-anchor="middle" x="358.5" y="-69" font-family="Helvetica,sans-Serif" font-size="10.00">fmt/ostream.h</text>
</a>
</g>
</g>
<!-- Node17&#45;&gt;Node20 -->
<g id="edge28" class="edge">
<title>Node17&#45;&gt;Node20</title>
<path fill="none" stroke="midnightblue" d="M331.68,-128.73C336.38,-118.89 344.12,-102.66 350.08,-90.16"/>
<polygon fill="midnightblue" stroke="midnightblue" points="353.24,-91.66 354.39,-81.13 346.92,-88.65 353.24,-91.66"/>
</g>
<!-- Node21 -->
<g id="node22" class="node">
<title>Node21</title>
<g id="a_node22"><a xlink:href="fmt_8h.html" target="_top" xlink:title=" ">
<polygon fill="white" stroke="black" points="104,-62 104,-81 223,-81 223,-62 104,-62"/>
<text text-anchor="middle" x="163.5" y="-69" font-family="Helvetica,sans-Serif" font-size="10.00">drake/common/fmt.h</text>
</a>
</g>
</g>
<!-- Node17&#45;&gt;Node21 -->
<g id="edge29" class="edge">
<title>Node17&#45;&gt;Node21</title>
<path fill="none" stroke="midnightblue" d="M305.72,-128.87C277.22,-117.57 227.07,-97.7 194.58,-84.82"/>
<polygon fill="midnightblue" stroke="midnightblue" points="195.69,-81.49 185.11,-81.06 193.11,-88 195.69,-81.49"/>
</g>
<!-- Node21&#45;&gt;Node12 -->
<g id="edge30" class="edge">
<title>Node21&#45;&gt;Node12</title>
<path fill="none" stroke="midnightblue" d="M202.49,-61.99C212.27,-59.94 222.75,-57.82 232.5,-56 319.65,-39.7 423,-23.59 474.29,-15.82"/>
<polygon fill="midnightblue" stroke="midnightblue" points="475.06,-19.24 484.42,-14.29 474.01,-12.32 475.06,-19.24"/>
</g>
<!-- Node21&#45;&gt;Node16 -->
<g id="edge32" class="edge">
<title>Node21&#45;&gt;Node16</title>
<path fill="none" stroke="midnightblue" d="M200.61,-61.98C210.9,-59.81 222.1,-57.64 232.5,-56 370.23,-34.3 534.75,-20.21 612.53,-14.25"/>
<polygon fill="midnightblue" stroke="midnightblue" points="613.21,-17.71 622.91,-13.46 612.68,-10.73 613.21,-17.71"/>
</g>
<!-- Node21&#45;&gt;Node19 -->
<g id="edge31" class="edge">
<title>Node21&#45;&gt;Node19</title>
<path fill="none" stroke="midnightblue" d="M150.89,-61.98C136.78,-52.43 113.67,-36.81 96.75,-25.37"/>
<polygon fill="midnightblue" stroke="midnightblue" points="98.33,-22.21 88.08,-19.51 94.41,-28.01 98.33,-22.21"/>
</g>
<!-- Node22 -->
<g id="node23" class="node">
<title>Node22</title>
<g id="a_node23"><a xlink:title=" ">
<polygon fill="white" stroke="#bfbfbf" points="130,-0.5 130,-19.5 209,-19.5 209,-0.5 130,-0.5"/>
<text text-anchor="middle" x="169.5" y="-7.5" font-family="Helvetica,sans-Serif" font-size="10.00">fmt/format.h</text>
</a>
</g>
</g>
<!-- Node21&#45;&gt;Node22 -->
<g id="edge33" class="edge">
<title>Node21&#45;&gt;Node22</title>
<path fill="none" stroke="midnightblue" d="M164.36,-61.98C165.21,-53.58 166.53,-40.48 167.62,-29.66"/>
<polygon fill="midnightblue" stroke="midnightblue" points="171.12,-29.81 168.64,-19.51 164.16,-29.11 171.12,-29.81"/>
</g>
<!-- Node23&#45;&gt;Node3 -->
<g id="edge44" class="edge">
<title>Node23&#45;&gt;Node3</title>
<path fill="none" stroke="midnightblue" d="M773.01,-129.09C788.52,-127.05 805.11,-124.9 820.5,-123 889.55,-114.45 1071.17,-121.65 1131.5,-87 1154.56,-73.76 1171.19,-47.04 1180.33,-29.08"/>
<polygon fill="midnightblue" stroke="midnightblue" points="1183.56,-30.45 1184.74,-19.92 1177.25,-27.41 1183.56,-30.45"/>
</g>
<!-- Node23&#45;&gt;Node4 -->
<g id="edge45" class="edge">
<title>Node23&#45;&gt;Node4</title>
<path fill="none" stroke="midnightblue" d="M647.7,-134.84C535.98,-129.55 295.54,-115.66 94.5,-87 82.17,-85.24 68.76,-82.68 56.95,-80.19"/>
<polygon fill="midnightblue" stroke="midnightblue" points="57.56,-76.74 47.04,-78.05 56.08,-83.58 57.56,-76.74"/>
</g>
<!-- Node23&#45;&gt;Node10 -->
<g id="edge37" class="edge">
<title>Node23&#45;&gt;Node10</title>
<path fill="none" stroke="midnightblue" d="M691.38,-128.87C666.74,-117.75 623.69,-98.32 595.14,-85.43"/>
<polygon fill="midnightblue" stroke="midnightblue" points="596.26,-82.09 585.7,-81.17 593.38,-88.47 596.26,-82.09"/>
</g>
<!-- Node23&#45;&gt;Node12 -->
<g id="edge42" class="edge">
<title>Node23&#45;&gt;Node12</title>
<path fill="none" stroke="midnightblue" d="M700.35,-128.94C681.48,-113.26 639.39,-79.42 600.5,-56 579.91,-43.6 555.38,-31.95 536.54,-23.61"/>
<polygon fill="midnightblue" stroke="midnightblue" points="537.82,-20.36 527.26,-19.57 535.03,-26.77 537.82,-20.36"/>
</g>
<!-- Node23&#45;&gt;Node13 -->
<g id="edge46" class="edge">
<title>Node23&#45;&gt;Node13</title>
<path fill="none" stroke="midnightblue" d="M755.27,-128.97C765.83,-126.98 777.06,-124.9 787.5,-123 875.82,-106.97 900.56,-104.7 992.65,-87.12"/>
<polygon fill="midnightblue" stroke="midnightblue" points="993.52,-90.52 1002.69,-85.2 992.21,-83.65 993.52,-90.52"/>
</g>
<!-- Node23&#45;&gt;Node16 -->
<g id="edge43" class="edge">
<title>Node23&#45;&gt;Node16</title>
<path fill="none" stroke="midnightblue" d="M703.21,-128.76C695.52,-119.11 683.55,-102.84 676.5,-87 668.22,-68.4 663.13,-45.57 660.33,-29.82"/>
<polygon fill="midnightblue" stroke="midnightblue" points="663.75,-29.06 658.68,-19.76 656.84,-30.19 663.75,-29.06"/>
</g>
<!-- Node24 -->
<g id="node25" class="node">
<title>Node24</title>
<g id="a_node25"><a xlink:title=" ">
<polygon fill="white" stroke="#bfbfbf" points="686,-62 686,-81 733,-81 733,-62 686,-62"/>
<text text-anchor="middle" x="709.5" y="-69" font-family="Helvetica,sans-Serif" font-size="10.00">cmath</text>
</a>
</g>
</g>
<!-- Node23&#45;&gt;Node24 -->
<g id="edge35" class="edge">
<title>Node23&#45;&gt;Node24</title>
<path fill="none" stroke="midnightblue" d="M710.37,-128.73C710.22,-119.18 709.98,-103.62 709.79,-91.28"/>
<polygon fill="midnightblue" stroke="midnightblue" points="713.29,-91.07 709.63,-81.13 706.29,-91.18 713.29,-91.07"/>
</g>
<!-- Node25 -->
<g id="node26" class="node">
<title>Node25</title>
<g id="a_node26"><a xlink:title=" ">
<polygon fill="white" stroke="#bfbfbf" points="751,-62 751,-81 804,-81 804,-62 751,-62"/>
<text text-anchor="middle" x="777.5" y="-69" font-family="Helvetica,sans-Serif" font-size="10.00">cstddef</text>
</a>
</g>
</g>
<!-- Node23&#45;&gt;Node25 -->
<g id="edge36" class="edge">
<title>Node23&#45;&gt;Node25</title>
<path fill="none" stroke="midnightblue" d="M719.54,-128.73C730.18,-118.4 748.08,-101.04 761.18,-88.33"/>
<polygon fill="midnightblue" stroke="midnightblue" points="763.87,-90.6 768.61,-81.13 758.99,-85.58 763.87,-90.6"/>
</g>
<!-- Node26 -->
<g id="node27" class="node">
<title>Node26</title>
<g id="a_node27"><a xlink:title=" ">
<polygon fill="white" stroke="#bfbfbf" points="458,-62 458,-81 523,-81 523,-62 458,-62"/>
<text text-anchor="middle" x="490.5" y="-69" font-family="Helvetica,sans-Serif" font-size="10.00">functional</text>
</a>
</g>
</g>
<!-- Node23&#45;&gt;Node26 -->
<g id="edge38" class="edge">
<title>Node23&#45;&gt;Node26</title>
<path fill="none" stroke="midnightblue" d="M678.18,-128.92C642.39,-119.27 583.06,-102.89 532.5,-87 529.74,-86.13 526.89,-85.21 524.03,-84.26"/>
<polygon fill="midnightblue" stroke="midnightblue" points="525,-80.9 514.41,-81.01 522.76,-87.53 525,-80.9"/>
</g>
<!-- Node27 -->
<g id="node28" class="node">
<title>Node27</title>
<g id="a_node28"><a xlink:title=" ">
<polygon fill="white" stroke="#bfbfbf" points="822.5,-62 822.5,-81 860.5,-81 860.5,-62 822.5,-62"/>
<text text-anchor="middle" x="841.5" y="-69" font-family="Helvetica,sans-Serif" font-size="10.00">map</text>
</a>
</g>
</g>
<!-- Node23&#45;&gt;Node27 -->
<g id="edge39" class="edge">
<title>Node23&#45;&gt;Node27</title>
<path fill="none" stroke="midnightblue" d="M727.84,-128.94C748.14,-118.92 782.78,-101.79 812.5,-87 813.34,-86.58 814.19,-86.16 815.05,-85.73"/>
<polygon fill="midnightblue" stroke="midnightblue" points="816.95,-88.7 824.33,-81.1 813.82,-82.43 816.95,-88.7"/>
</g>
<!-- Node28 -->
<g id="node29" class="node">
<title>Node28</title>
<g id="a_node29"><a xlink:title=" ">
<polygon fill="white" stroke="#bfbfbf" points="878.5,-62 878.5,-81 934.5,-81 934.5,-62 878.5,-62"/>
<text text-anchor="middle" x="906.5" y="-69" font-family="Helvetica,sans-Serif" font-size="10.00">optional</text>
</a>
</g>
</g>
<!-- Node23&#45;&gt;Node28 -->
<g id="edge40" class="edge">
<title>Node23&#45;&gt;Node28</title>
<path fill="none" stroke="midnightblue" d="M739.41,-128.94C771.42,-119.33 824.45,-102.96 869.5,-87 871.61,-86.25 873.79,-85.46 875.97,-84.65"/>
<polygon fill="midnightblue" stroke="midnightblue" points="877.36,-87.86 885.46,-81.02 874.87,-81.32 877.36,-87.86"/>
</g>
<!-- Node29 -->
<g id="node30" class="node">
<title>Node29</title>
<g id="a_node30"><a xlink:title=" ">
<polygon fill="white" stroke="#bfbfbf" points="952.5,-62 952.5,-81 984.5,-81 984.5,-62 952.5,-62"/>
<text text-anchor="middle" x="968.5" y="-69" font-family="Helvetica,sans-Serif" font-size="10.00">set</text>
</a>
</g>
</g>
<!-- Node23&#45;&gt;Node29 -->
<g id="edge41" class="edge">
<title>Node23&#45;&gt;Node29</title>
<path fill="none" stroke="midnightblue" d="M753.25,-128.99C815.58,-116.46 925.94,-93.8 943.5,-87 944.38,-86.66 945.27,-86.29 946.15,-85.9"/>
<polygon fill="midnightblue" stroke="midnightblue" points="948.11,-88.83 955.39,-81.13 944.9,-82.61 948.11,-88.83"/>
</g>
<!-- Node30&#45;&gt;Node2 -->
<g id="edge54" class="edge">
<title>Node30&#45;&gt;Node2</title>
<path fill="none" stroke="midnightblue" d="M313.6,-447.48C279.58,-437.51 233.72,-424.09 197.6,-413.51"/>
<polygon fill="midnightblue" stroke="midnightblue" points="198.27,-410.06 187.69,-410.61 196.31,-416.78 198.27,-410.06"/>
</g>
<!-- Node30&#45;&gt;Node3 -->
<g id="edge52" class="edge">
<title>Node30&#45;&gt;Node3</title>
<path fill="none" stroke="midnightblue" d="M433.87,-458.51C648.15,-448.72 1264.5,-413.27 1264.5,-329.5 1264.5,-329.5 1264.5,-329.5 1264.5,-137.5 1264.5,-92.12 1228.12,-48.98 1205.7,-26.7"/>
<polygon fill="midnightblue" stroke="midnightblue" points="1208.07,-24.13 1198.44,-19.73 1203.22,-29.18 1208.07,-24.13"/>
</g>
<!-- Node30&#45;&gt;Node4 -->
<g id="edge53" class="edge">
<title>Node30&#45;&gt;Node4</title>
<path fill="none" stroke="midnightblue" d="M289.28,-459.07C210.6,-454.8 91.86,-443.08 61.5,-411 -24.64,-319.99 5.79,-147.72 18.83,-91.07"/>
<polygon fill="midnightblue" stroke="midnightblue" points="22.3,-91.61 21.23,-81.07 15.49,-89.98 22.3,-91.61"/>
</g>
<!-- Node30&#45;&gt;Node7 -->
<g id="edge51" class="edge">
<title>Node30&#45;&gt;Node7</title>
<path fill="none" stroke="midnightblue" d="M372.22,-447.19C399.03,-411.38 468.92,-318.04 497.76,-279.51"/>
<polygon fill="midnightblue" stroke="midnightblue" points="500.67,-281.46 503.87,-271.36 495.07,-277.27 500.67,-281.46"/>
</g>
<!-- Node30&#45;&gt;Node8 -->
<g id="edge55" class="edge">
<title>Node30&#45;&gt;Node8</title>
<path fill="none" stroke="midnightblue" d="M362.99,-447.36C364.04,-437.24 365.44,-423.29 366.5,-411 370.27,-367.38 373.87,-316.48 375.87,-287.02"/>
<polygon fill="midnightblue" stroke="midnightblue" points="379.38,-287.06 376.56,-276.84 372.39,-286.59 379.38,-287.06"/>
</g>
<!-- Node30&#45;&gt;Node26 -->
<g id="edge49" class="edge">
<title>Node30&#45;&gt;Node26</title>
<path fill="none" stroke="midnightblue" d="M433.54,-449.22C497.7,-433.66 581.5,-399.88 581.5,-329.5 581.5,-329.5 581.5,-329.5 581.5,-199 581.5,-150.91 537.62,-108.61 510.8,-87.25"/>
<polygon fill="midnightblue" stroke="midnightblue" points="512.83,-84.39 502.77,-81.07 508.56,-89.94 512.83,-84.39"/>
</g>
<!-- Node31 -->
<g id="node32" class="node">
<title>Node31</title>
<g id="a_node32"><a xlink:title=" ">
<polygon fill="white" stroke="#bfbfbf" points="265,-386 265,-405 358,-405 358,-386 265,-386"/>
<text text-anchor="middle" x="311.5" y="-393" font-family="Helvetica,sans-Serif" font-size="10.00">unordered_map</text>
</a>
</g>
</g>
<!-- Node30&#45;&gt;Node31 -->
<g id="edge50" class="edge">
<title>Node30&#45;&gt;Node31</title>
<path fill="none" stroke="midnightblue" d="M350.65,-447.4C342.93,-437.36 332.53,-423.84 324.39,-413.25"/>
<polygon fill="midnightblue" stroke="midnightblue" points="327.06,-410.99 318.19,-405.19 321.51,-415.25 327.06,-410.99"/>
</g>
</g>
</svg>
        <g id="navigator" transform="translate(0 0)" fill="#404254">
                <rect fill="#f2f5e9" fill-opacity="0.5" stroke="#606060" stroke-width=".5" x="0" y="0" width="60" height="60"/>
                <use id="zoomplus" xlink:href="#zoomPlus" x="17" y="9" onmousedown="handleZoom(evt,'in')"/>
                <use id="zoomminus" xlink:href="#zoomMin" x="42" y="9" onmousedown="handleZoom(evt,'out')"/>
                <use id="reset" xlink:href="#resetDef" x="30" y="36" onmousedown="handleReset()"/>
                <g id="arrowUp" xlink:href="#dirArrow" transform="translate(30 24)" onmousedown="handlePan(0,-1)">
                  <use xlink:href="#rim" fill="#404040">
                        <set attributeName="fill" to="#808080" begin="arrowUp.mouseover" end="arrowUp.mouseout"/>
                  </use>
                  <path fill="none" stroke="white" stroke-width="1.5" d="M0,-3.0v7 M-2.5,-0.5L0,-3.0L2.5,-0.5"/>
                </g>
                <g id="arrowRight" xlink:href="#dirArrow" transform="rotate(90) translate(36 -43)" onmousedown="handlePan(1,0)">
                  <use xlink:href="#rim" fill="#404040">
                        <set attributeName="fill" to="#808080" begin="arrowRight.mouseover" end="arrowRight.mouseout"/>
                  </use>
                  <path fill="none" stroke="white" stroke-width="1.5" d="M0,-3.0v7 M-2.5,-0.5L0,-3.0L2.5,-0.5"/>
                </g>
                <g id="arrowDown" xlink:href="#dirArrow" transform="rotate(180) translate(-30 -48)" onmousedown="handlePan(0,1)">
                  <use xlink:href="#rim" fill="#404040">
                        <set attributeName="fill" to="#808080" begin="arrowDown.mouseover" end="arrowDown.mouseout"/>
                  </use>
                  <path fill="none" stroke="white" stroke-width="1.5" d="M0,-3.0v7 M-2.5,-0.5L0,-3.0L2.5,-0.5"/>
                </g>
                <g id="arrowLeft" xlink:href="#dirArrow" transform="rotate(270) translate(-36 17)" onmousedown="handlePan(-1,0)">
                  <use xlink:href="#rim" fill="#404040">
                        <set attributeName="fill" to="#808080" begin="arrowLeft.mouseover" end="arrowLeft.mouseout"/>
                  </use>
                  <path fill="none" stroke="white" stroke-width="1.5" d="M0,-3.0v7 M-2.5,-0.5L0,-3.0L2.5,-0.5"/>
                </g>
        </g>
        <svg viewBox="0 0 15 15" width="100%" height="30px" preserveAspectRatio="xMaxYMin meet">
         <g id="arrow_out" transform="scale(0.3 0.3)">
          <a xlink:href="collision__filter__manager_8h__incl_org.svg" target="_base">
           <rect id="button" ry="5" rx="5" y="6" x="6" height="38" width="38"
                fill="#f2f5e9" fill-opacity="0.5" stroke="#606060" stroke-width="1.0"/>
           <path id="arrow"
             d="M 11.500037,31.436501 C 11.940474,20.09759 22.043105,11.32322 32.158766,21.979434 L 37.068811,17.246167 C 37.068811,17.246167 37.088388,32 37.088388,32 L 22.160133,31.978069 C 22.160133,31.978069 26.997745,27.140456 26.997745,27.140456 C 18.528582,18.264221 13.291696,25.230495 11.500037,31.436501 z"
             style="fill:#404040;"/>
          </a>
         </g>
        </svg>
</svg>
