<?xml version="1.0" encoding="UTF-8" standalone="no"?>
<!DOCTYPE svg PUBLIC "-//W3C//DTD SVG 1.1//EN"
 "http://www.w3.org/Graphics/SVG/1.1/DTD/svg11.dtd">
<!-- Generated by graphviz version 2.43.0 (0)
 -->
<!-- Title: drake/geometry/proximity/collisions_exist_callback.h Pages: 1 -->
<!--zoomable 620 -->
<svg id="main" version="1.1" xmlns="http://www.w3.org/2000/svg" xmlns:xlink="http://www.w3.org/1999/xlink" xml:space="preserve" onload="init(evt)">
<style type="text/css"><![CDATA[
.edge:hover path { stroke: red; }
.edge:hover polygon { stroke: red; fill: red; }
]]></style>
<script type="text/javascript"><![CDATA[
var edges = document.getElementsByTagName('g');
if (edges && edges.length) {
  for (var i=0;i<edges.length;i++) {
    if (edges[i].id.substr(0,4)=='edge') {
      edges[i].setAttribute('class','edge');
    }
  }
}
]]></script>
        <defs>
                <circle id="rim" cx="0" cy="0" r="7"/>
                <circle id="rim2" cx="0" cy="0" r="3.5"/>
                <g id="zoomPlus">
                        <use xlink:href="#rim" fill="#404040">
                                <set attributeName="fill" to="#808080" begin="zoomplus.mouseover" end="zoomplus.mouseout"/>
                        </use>
                        <path d="M-4,0h8M0,-4v8" fill="none" stroke="white" stroke-width="1.5" pointer-events="none"/>
                </g>
                <g id="zoomMin">
                        <use xlink:href="#rim" fill="#404040">
                                <set attributeName="fill" to="#808080" begin="zoomminus.mouseover" end="zoomminus.mouseout"/>
                        </use>
                        <path d="M-4,0h8" fill="none" stroke="white" stroke-width="1.5" pointer-events="none"/>
                </g>
                <g id="dirArrow">
                        <path fill="none" stroke="white" stroke-width="1.5" d="M0,-3.0v7 M-2.5,-0.5L0,-3.0L2.5,-0.5"/>
                </g>
               <g id="resetDef">
                       <use xlink:href="#rim2" fill="#404040">
                               <set attributeName="fill" to="#808080" begin="reset.mouseover" end="reset.mouseout"/>
                       </use>
               </g>
        </defs>

<script type="text/javascript">
var viewWidth = 1255;
var viewHeight = 620;
var sectionId = 'dynsection-0';
</script>
<script xlink:href="svgpan.js"/>
<svg id="graph" class="graph">
<g id="viewport">
<title>drake/geometry/proximity/collisions_exist_callback.h</title>
<polygon fill="white" stroke="transparent" points="-4,4 -4,-616 1251,-616 1251,4 -4,4"/>
<!-- Node0 -->
<g id="node1" class="node">
<title>Node0</title>
<g id="a_node1"><a xlink:title=" ">
<polygon fill="#bfbfbf" stroke="black" points="707,-581.5 707,-611.5 856,-611.5 856,-581.5 707,-581.5"/>
<text text-anchor="start" x="715" y="-599.5" font-family="Helvetica,sans-Serif" font-size="10.00">drake/geometry/proximity</text>
<text text-anchor="middle" x="781.5" y="-588.5" font-family="Helvetica,sans-Serif" font-size="10.00">/collisions_exist_callback.h</text>
</a>
</g>
</g>
<!-- Node1 -->
<g id="node2" class="node">
<title>Node1</title>
<g id="a_node2"><a xlink:title=" ">
<polygon fill="white" stroke="#bfbfbf" points="325.5,-520 325.5,-539 447.5,-539 447.5,-520 325.5,-520"/>
<text text-anchor="middle" x="386.5" y="-527" font-family="Helvetica,sans-Serif" font-size="10.00">drake_vendor/fcl/fcl.h</text>
</a>
</g>
</g>
<!-- Node0&#45;&gt;Node1 -->
<g id="edge1" class="edge">
<title>Node0&#45;&gt;Node1</title>
<path fill="none" stroke="midnightblue" d="M706.78,-584.98C640.79,-575.42 542.04,-560.5 456.5,-545 449.85,-543.8 442.87,-542.45 435.99,-541.07"/>
<polygon fill="midnightblue" stroke="midnightblue" points="436.54,-537.61 426.04,-539.05 435.15,-544.47 436.54,-537.61"/>
</g>
<!-- Node2 -->
<g id="node3" class="node">
<title>Node2</title>
<g id="a_node3"><a xlink:href="drake__assert_8h.html" target="_top" xlink:title="Provides Drake&#39;s assertion implementation.">
<polygon fill="white" stroke="black" points="542,-56.5 542,-86.5 661,-86.5 661,-56.5 542,-56.5"/>
<text text-anchor="start" x="550" y="-74.5" font-family="Helvetica,sans-Serif" font-size="10.00">drake/common/drake</text>
<text text-anchor="middle" x="601.5" y="-63.5" font-family="Helvetica,sans-Serif" font-size="10.00">_assert.h</text>
</a>
</g>
</g>
<!-- Node0&#45;&gt;Node2 -->
<g id="edge2" class="edge">
<title>Node0&#45;&gt;Node2</title>
<path fill="none" stroke="midnightblue" d="M788.47,-581.24C799.44,-557.44 819.5,-507.86 819.5,-463.5 819.5,-463.5 819.5,-463.5 819.5,-204.5 819.5,-167.31 826.54,-149.55 800.5,-123 782.46,-104.61 721.35,-90.89 671.56,-82.42"/>
<polygon fill="midnightblue" stroke="midnightblue" points="671.89,-78.93 661.45,-80.75 670.74,-85.84 671.89,-78.93"/>
</g>
<!-- Node4 -->
<g id="node5" class="node">
<title>Node4</title>
<g id="a_node5"><a xlink:href="drake__export_8h.html" target="_top" xlink:title=" ">
<polygon fill="white" stroke="black" points="848,-514.5 848,-544.5 967,-544.5 967,-514.5 848,-514.5"/>
<text text-anchor="start" x="856" y="-532.5" font-family="Helvetica,sans-Serif" font-size="10.00">drake/common/drake</text>
<text text-anchor="middle" x="907.5" y="-521.5" font-family="Helvetica,sans-Serif" font-size="10.00">_export.h</text>
</a>
</g>
</g>
<!-- Node0&#45;&gt;Node4 -->
<g id="edge4" class="edge">
<title>Node0&#45;&gt;Node4</title>
<path fill="none" stroke="midnightblue" d="M808.84,-581.4C827.09,-571.98 851.28,-559.5 871.14,-549.26"/>
<polygon fill="midnightblue" stroke="midnightblue" points="872.93,-552.27 880.21,-544.58 869.72,-546.05 872.93,-552.27"/>
</g>
<!-- Node5 -->
<g id="node6" class="node">
<title>Node5</title>
<g id="a_node6"><a xlink:href="geometry__ids_8h.html" target="_top" xlink:title=" ">
<polygon fill="white" stroke="black" points="598.5,-313.5 598.5,-343.5 742.5,-343.5 742.5,-313.5 598.5,-313.5"/>
<text text-anchor="start" x="606.5" y="-331.5" font-family="Helvetica,sans-Serif" font-size="10.00">drake/geometry/geometry</text>
<text text-anchor="middle" x="670.5" y="-320.5" font-family="Helvetica,sans-Serif" font-size="10.00">_ids.h</text>
</a>
</g>
</g>
<!-- Node0&#45;&gt;Node5 -->
<g id="edge5" class="edge">
<title>Node0&#45;&gt;Node5</title>
<path fill="none" stroke="midnightblue" d="M775.53,-581.2C757.38,-537.71 702.73,-406.73 680.28,-352.94"/>
<polygon fill="midnightblue" stroke="midnightblue" points="683.44,-351.43 676.36,-343.55 676.98,-354.13 683.44,-351.43"/>
</g>
<!-- Node27 -->
<g id="node28" class="node">
<title>Node27</title>
<g id="a_node28"><a xlink:href="collision__filter_8h.html" target="_top" xlink:title=" ">
<polygon fill="white" stroke="black" points="465.5,-514.5 465.5,-544.5 609.5,-544.5 609.5,-514.5 465.5,-514.5"/>
<text text-anchor="start" x="473.5" y="-532.5" font-family="Helvetica,sans-Serif" font-size="10.00">drake/geometry/proximity</text>
<text text-anchor="middle" x="537.5" y="-521.5" font-family="Helvetica,sans-Serif" font-size="10.00">/collision_filter.h</text>
</a>
</g>
</g>
<!-- Node0&#45;&gt;Node27 -->
<g id="edge37" class="edge">
<title>Node0&#45;&gt;Node27</title>
<path fill="none" stroke="midnightblue" d="M728.86,-581.48C691.14,-571.43 640.19,-557.86 600.35,-547.24"/>
<polygon fill="midnightblue" stroke="midnightblue" points="601.03,-543.8 590.47,-544.61 599.23,-550.57 601.03,-543.8"/>
</g>
<!-- Node3 -->
<g id="node4" class="node">
<title>Node3</title>
<g id="a_node4"><a xlink:title=" ">
<polygon fill="white" stroke="#bfbfbf" points="479,-0.5 479,-19.5 548,-19.5 548,-0.5 479,-0.5"/>
<text text-anchor="middle" x="513.5" y="-7.5" font-family="Helvetica,sans-Serif" font-size="10.00">type_traits</text>
</a>
</g>
</g>
<!-- Node2&#45;&gt;Node3 -->
<g id="edge3" class="edge">
<title>Node2&#45;&gt;Node3</title>
<path fill="none" stroke="midnightblue" d="M580.65,-56.4C566.8,-47.04 548.69,-34.79 534.76,-25.38"/>
<polygon fill="midnightblue" stroke="midnightblue" points="536.55,-22.36 526.3,-19.66 532.63,-28.16 536.55,-22.36"/>
</g>
<!-- Node6 -->
<g id="node7" class="node">
<title>Node6</title>
<g id="a_node7"><a xlink:href="drake__copyable_8h.html" target="_top" xlink:title="Provides careful macros to selectively enable or disable the special member functions for copy&#45;constr...">
<polygon fill="white" stroke="black" points="298,-190.5 298,-220.5 417,-220.5 417,-190.5 298,-190.5"/>
<text text-anchor="start" x="306" y="-208.5" font-family="Helvetica,sans-Serif" font-size="10.00">drake/common/drake</text>
<text text-anchor="middle" x="357.5" y="-197.5" font-family="Helvetica,sans-Serif" font-size="10.00">_copyable.h</text>
</a>
</g>
</g>
<!-- Node5&#45;&gt;Node6 -->
<g id="edge6" class="edge">
<title>Node5&#45;&gt;Node6</title>
<path fill="none" stroke="midnightblue" d="M633.98,-313.38C576.73,-291.25 465.95,-248.42 403.4,-224.24"/>
<polygon fill="midnightblue" stroke="midnightblue" points="404.37,-220.87 393.79,-220.53 401.85,-227.4 404.37,-220.87"/>
</g>
<!-- Node7 -->
<g id="node8" class="node">
<title>Node7</title>
<g id="a_node8"><a xlink:href="identifier_8h.html" target="_top" xlink:title=" ">
<polygon fill="white" stroke="black" points="598.5,-257.5 598.5,-276.5 742.5,-276.5 742.5,-257.5 598.5,-257.5"/>
<text text-anchor="middle" x="670.5" y="-264.5" font-family="Helvetica,sans-Serif" font-size="10.00">drake/common/identifier.h</text>
</a>
</g>
</g>
<!-- Node5&#45;&gt;Node7 -->
<g id="edge7" class="edge">
<title>Node5&#45;&gt;Node7</title>
<path fill="none" stroke="midnightblue" d="M670.5,-313.4C670.5,-305.47 670.5,-295.46 670.5,-286.86"/>
<polygon fill="midnightblue" stroke="midnightblue" points="674,-286.66 670.5,-276.66 667,-286.66 674,-286.66"/>
</g>
<!-- Node7&#45;&gt;Node6 -->
<g id="edge12" class="edge">
<title>Node7&#45;&gt;Node6</title>
<path fill="none" stroke="midnightblue" d="M621.61,-257.44C574.23,-249.05 500.08,-235.68 427.02,-221.27"/>
<polygon fill="midnightblue" stroke="midnightblue" points="427.67,-217.84 417.18,-219.33 426.31,-224.7 427.67,-217.84"/>
</g>
<!-- Node8 -->
<g id="node9" class="node">
<title>Node8</title>
<g id="a_node9"><a xlink:title=" ">
<polygon fill="white" stroke="#bfbfbf" points="679.5,-129 679.5,-148 729.5,-148 729.5,-129 679.5,-129"/>
<text text-anchor="middle" x="704.5" y="-136" font-family="Helvetica,sans-Serif" font-size="10.00">cstdint</text>
</a>
</g>
</g>
<!-- Node7&#45;&gt;Node8 -->
<g id="edge8" class="edge">
<title>Node7&#45;&gt;Node8</title>
<path fill="none" stroke="midnightblue" d="M672.84,-257.31C678.3,-236.99 691.99,-186.05 699.45,-158.28"/>
<polygon fill="midnightblue" stroke="midnightblue" points="702.93,-158.82 702.15,-148.26 696.17,-157 702.93,-158.82"/>
</g>
<!-- Node9 -->
<g id="node10" class="node">
<title>Node9</title>
<g id="a_node10"><a xlink:title=" ">
<polygon fill="white" stroke="#bfbfbf" points="581,-196 581,-215 638,-215 638,-196 581,-196"/>
<text text-anchor="middle" x="609.5" y="-203" font-family="Helvetica,sans-Serif" font-size="10.00">ostream</text>
</a>
</g>
</g>
<!-- Node7&#45;&gt;Node9 -->
<g id="edge9" class="edge">
<title>Node7&#45;&gt;Node9</title>
<path fill="none" stroke="midnightblue" d="M661.76,-257.48C652.34,-248.28 637.14,-233.46 625.55,-222.16"/>
<polygon fill="midnightblue" stroke="midnightblue" points="627.83,-219.49 618.22,-215.01 622.94,-224.5 627.83,-219.49"/>
</g>
<!-- Node10 -->
<g id="node11" class="node">
<title>Node10</title>
<g id="a_node11"><a xlink:title=" ">
<polygon fill="white" stroke="#bfbfbf" points="747.5,-129 747.5,-148 791.5,-148 791.5,-129 747.5,-129"/>
<text text-anchor="middle" x="769.5" y="-136" font-family="Helvetica,sans-Serif" font-size="10.00">string</text>
</a>
</g>
</g>
<!-- Node7&#45;&gt;Node10 -->
<g id="edge10" class="edge">
<title>Node7&#45;&gt;Node10</title>
<path fill="none" stroke="midnightblue" d="M677.3,-257.31C693.55,-236.54 734.85,-183.77 756.23,-156.46"/>
<polygon fill="midnightblue" stroke="midnightblue" points="759.24,-158.29 762.65,-148.26 753.73,-153.97 759.24,-158.29"/>
</g>
<!-- Node11 -->
<g id="node12" class="node">
<title>Node11</title>
<g id="a_node12"><a xlink:title=" ">
<polygon fill="white" stroke="#bfbfbf" points="1202,-129 1202,-148 1247,-148 1247,-129 1202,-129"/>
<text text-anchor="middle" x="1224.5" y="-136" font-family="Helvetica,sans-Serif" font-size="10.00">utility</text>
</a>
</g>
</g>
<!-- Node7&#45;&gt;Node11 -->
<g id="edge11" class="edge">
<title>Node7&#45;&gt;Node11</title>
<path fill="none" stroke="midnightblue" d="M742.61,-260.93C829.94,-254.06 971.43,-240.39 1020.5,-221 1042.41,-212.34 1042.43,-200.55 1063.5,-190 1086.21,-178.63 1152.02,-159.49 1192.13,-148.33"/>
<polygon fill="midnightblue" stroke="midnightblue" points="1193.27,-151.64 1201.97,-145.6 1191.4,-144.9 1193.27,-151.64"/>
</g>
<!-- Node12 -->
<g id="node13" class="node">
<title>Node12</title>
<g id="a_node13"><a xlink:href="drake__throw_8h.html" target="_top" xlink:title="Provides a convenient wrapper to throw an exception when a condition is unmet.">
<polygon fill="white" stroke="black" points="542,-123.5 542,-153.5 661,-153.5 661,-123.5 542,-123.5"/>
<text text-anchor="start" x="550" y="-141.5" font-family="Helvetica,sans-Serif" font-size="10.00">drake/common/drake</text>
<text text-anchor="middle" x="601.5" y="-130.5" font-family="Helvetica,sans-Serif" font-size="10.00">_throw.h</text>
</a>
</g>
</g>
<!-- Node7&#45;&gt;Node12 -->
<g id="edge13" class="edge">
<title>Node7&#45;&gt;Node12</title>
<path fill="none" stroke="midnightblue" d="M668.95,-257.08C666.12,-242.36 659.22,-212.37 646.5,-190 640.55,-179.53 632.14,-169.34 624.2,-160.89"/>
<polygon fill="midnightblue" stroke="midnightblue" points="626.62,-158.35 617.12,-153.66 621.61,-163.25 626.62,-158.35"/>
</g>
<!-- Node13 -->
<g id="node14" class="node">
<title>Node13</title>
<g id="a_node14"><a xlink:href="fmt__ostream_8h.html" target="_top" xlink:title=" ">
<polygon fill="white" stroke="black" points="847.5,-196 847.5,-215 1011.5,-215 1011.5,-196 847.5,-196"/>
<text text-anchor="middle" x="929.5" y="-203" font-family="Helvetica,sans-Serif" font-size="10.00">drake/common/fmt_ostream.h</text>
</a>
</g>
</g>
<!-- Node7&#45;&gt;Node13 -->
<g id="edge16" class="edge">
<title>Node7&#45;&gt;Node13</title>
<path fill="none" stroke="midnightblue" d="M707.61,-257.48C753.67,-246.89 832.27,-228.84 882.5,-217.3"/>
<polygon fill="midnightblue" stroke="midnightblue" points="883.5,-220.66 892.46,-215.01 881.93,-213.84 883.5,-220.66"/>
</g>
<!-- Node19 -->
<g id="node20" class="node">
<title>Node19</title>
<g id="a_node20"><a xlink:href="hash_8h.html" target="_top" xlink:title=" ">
<polygon fill="white" stroke="black" points="435,-196 435,-215 560,-215 560,-196 435,-196"/>
<text text-anchor="middle" x="497.5" y="-203" font-family="Helvetica,sans-Serif" font-size="10.00">drake/common/hash.h</text>
</a>
</g>
</g>
<!-- Node7&#45;&gt;Node19 -->
<g id="edge23" class="edge">
<title>Node7&#45;&gt;Node19</title>
<path fill="none" stroke="midnightblue" d="M645.71,-257.48C615.91,-247.22 565.71,-229.96 532.1,-218.4"/>
<polygon fill="midnightblue" stroke="midnightblue" points="532.84,-214.95 522.24,-215.01 530.56,-221.57 532.84,-214.95"/>
</g>
<!-- Node12&#45;&gt;Node2 -->
<g id="edge15" class="edge">
<title>Node12&#45;&gt;Node2</title>
<path fill="none" stroke="midnightblue" d="M601.5,-123.4C601.5,-115.64 601.5,-105.81 601.5,-96.86"/>
<polygon fill="midnightblue" stroke="midnightblue" points="605,-96.58 601.5,-86.58 598,-96.58 605,-96.58"/>
</g>
<!-- Node12&#45;&gt;Node3 -->
<g id="edge14" class="edge">
<title>Node12&#45;&gt;Node3</title>
<path fill="none" stroke="midnightblue" d="M573.92,-123.46C559.55,-114.8 542.85,-102.4 532.5,-87 521.02,-69.93 516.47,-46.49 514.67,-30.18"/>
<polygon fill="midnightblue" stroke="midnightblue" points="518.12,-29.42 513.79,-19.75 511.15,-30.01 518.12,-29.42"/>
</g>
<!-- Node14 -->
<g id="node15" class="node">
<title>Node14</title>
<g id="a_node15"><a xlink:title=" ">
<polygon fill="white" stroke="#bfbfbf" points="985.5,-129 985.5,-148 1041.5,-148 1041.5,-129 985.5,-129"/>
<text text-anchor="middle" x="1013.5" y="-136" font-family="Helvetica,sans-Serif" font-size="10.00">sstream</text>
</a>
</g>
</g>
<!-- Node13&#45;&gt;Node14 -->
<g id="edge17" class="edge">
<title>Node13&#45;&gt;Node14</title>
<path fill="none" stroke="midnightblue" d="M940.83,-195.73C954.56,-185.11 977.9,-167.05 994.42,-154.26"/>
<polygon fill="midnightblue" stroke="midnightblue" points="996.58,-157.02 1002.35,-148.13 992.3,-151.48 996.58,-157.02"/>
</g>
<!-- Node15 -->
<g id="node16" class="node">
<title>Node15</title>
<g id="a_node16"><a xlink:title=" ">
<polygon fill="white" stroke="#bfbfbf" points="1051,-62 1051,-81 1124,-81 1124,-62 1051,-62"/>
<text text-anchor="middle" x="1087.5" y="-69" font-family="Helvetica,sans-Serif" font-size="10.00">string_view</text>
</a>
</g>
</g>
<!-- Node13&#45;&gt;Node15 -->
<g id="edge18" class="edge">
<title>Node13&#45;&gt;Node15</title>
<path fill="none" stroke="midnightblue" d="M983.63,-195.96C1046.72,-185.46 1143.79,-167.38 1154.5,-154 1173.75,-129.95 1138.79,-102.33 1112.54,-86.2"/>
<polygon fill="midnightblue" stroke="midnightblue" points="1114.12,-83.07 1103.73,-81.01 1110.56,-89.1 1114.12,-83.07"/>
</g>
<!-- Node16 -->
<g id="node17" class="node">
<title>Node16</title>
<g id="a_node17"><a xlink:title=" ">
<polygon fill="white" stroke="#bfbfbf" points="1059.5,-129 1059.5,-148 1145.5,-148 1145.5,-129 1059.5,-129"/>
<text text-anchor="middle" x="1102.5" y="-136" font-family="Helvetica,sans-Serif" font-size="10.00">fmt/ostream.h</text>
</a>
</g>
</g>
<!-- Node13&#45;&gt;Node16 -->
<g id="edge19" class="edge">
<title>Node13&#45;&gt;Node16</title>
<path fill="none" stroke="midnightblue" d="M952.47,-195.87C982.67,-184.52 1035.9,-164.52 1070.16,-151.65"/>
<polygon fill="midnightblue" stroke="midnightblue" points="1071.58,-154.86 1079.71,-148.06 1069.12,-148.3 1071.58,-154.86"/>
</g>
<!-- Node17 -->
<g id="node18" class="node">
<title>Node17</title>
<g id="a_node18"><a xlink:href="fmt_8h.html" target="_top" xlink:title=" ">
<polygon fill="white" stroke="black" points="848,-129 848,-148 967,-148 967,-129 848,-129"/>
<text text-anchor="middle" x="907.5" y="-136" font-family="Helvetica,sans-Serif" font-size="10.00">drake/common/fmt.h</text>
</a>
</g>
</g>
<!-- Node13&#45;&gt;Node17 -->
<g id="edge20" class="edge">
<title>Node13&#45;&gt;Node17</title>
<path fill="none" stroke="midnightblue" d="M926.53,-195.73C923.27,-186.09 917.92,-170.3 913.73,-157.91"/>
<polygon fill="midnightblue" stroke="midnightblue" points="916.94,-156.48 910.42,-148.13 910.31,-158.72 916.94,-156.48"/>
</g>
<!-- Node17&#45;&gt;Node15 -->
<g id="edge21" class="edge">
<title>Node17&#45;&gt;Node15</title>
<path fill="none" stroke="midnightblue" d="M931.4,-128.87C962.96,-117.47 1018.68,-97.35 1054.31,-84.49"/>
<polygon fill="midnightblue" stroke="midnightblue" points="1055.57,-87.75 1063.79,-81.06 1053.19,-81.17 1055.57,-87.75"/>
</g>
<!-- Node18 -->
<g id="node19" class="node">
<title>Node18</title>
<g id="a_node19"><a xlink:title=" ">
<polygon fill="white" stroke="#bfbfbf" points="868,-62 868,-81 947,-81 947,-62 868,-62"/>
<text text-anchor="middle" x="907.5" y="-69" font-family="Helvetica,sans-Serif" font-size="10.00">fmt/format.h</text>
</a>
</g>
</g>
<!-- Node17&#45;&gt;Node18 -->
<g id="edge22" class="edge">
<title>Node17&#45;&gt;Node18</title>
<path fill="none" stroke="midnightblue" d="M907.5,-128.73C907.5,-119.18 907.5,-103.62 907.5,-91.28"/>
<polygon fill="midnightblue" stroke="midnightblue" points="911,-91.13 907.5,-81.13 904,-91.13 911,-91.13"/>
</g>
<!-- Node19&#45;&gt;Node2 -->
<g id="edge35" class="edge">
<title>Node19&#45;&gt;Node2</title>
<path fill="none" stroke="midnightblue" d="M499.58,-195.86C503.72,-180.05 514.18,-146.01 532.5,-123 542.02,-111.04 555.05,-100.53 567.23,-92.23"/>
<polygon fill="midnightblue" stroke="midnightblue" points="569.41,-94.99 575.88,-86.6 565.59,-89.13 569.41,-94.99"/>
</g>
<!-- Node19&#45;&gt;Node3 -->
<g id="edge32" class="edge">
<title>Node19&#45;&gt;Node3</title>
<path fill="none" stroke="midnightblue" d="M457.21,-195.98C446.89,-193.91 435.8,-191.78 425.5,-190 370.63,-180.5 213.94,-196.11 177.5,-154 92.4,-55.66 359.42,-23.1 468.9,-14.05"/>
<polygon fill="midnightblue" stroke="midnightblue" points="469.29,-17.53 478.98,-13.24 468.73,-10.55 469.29,-17.53"/>
</g>
<!-- Node19&#45;&gt;Node8 -->
<g id="edge26" class="edge">
<title>Node19&#45;&gt;Node8</title>
<path fill="none" stroke="midnightblue" d="M530.49,-195.94C565.36,-186.64 621.81,-170.83 669.5,-154 671.41,-153.33 673.36,-152.61 675.32,-151.86"/>
<polygon fill="midnightblue" stroke="midnightblue" points="677.02,-154.95 685.02,-148 674.44,-148.45 677.02,-154.95"/>
</g>
<!-- Node19&#45;&gt;Node10 -->
<g id="edge31" class="edge">
<title>Node19&#45;&gt;Node10</title>
<path fill="none" stroke="midnightblue" d="M540.85,-195.98C605.08,-183.27 719.97,-160.18 738.5,-154 740.17,-153.44 741.86,-152.82 743.56,-152.16"/>
<polygon fill="midnightblue" stroke="midnightblue" points="745.27,-155.23 753.06,-148.05 742.49,-148.81 745.27,-155.23"/>
</g>
<!-- Node19&#45;&gt;Node11 -->
<g id="edge33" class="edge">
<title>Node19&#45;&gt;Node11</title>
<path fill="none" stroke="midnightblue" d="M536.13,-195.93C547.48,-193.69 559.94,-191.48 571.5,-190 828.99,-156.97 897.19,-188.42 1154.5,-154 1166.87,-152.35 1180.32,-149.75 1192.09,-147.22"/>
<polygon fill="midnightblue" stroke="midnightblue" points="1192.94,-150.61 1201.94,-145.03 1191.42,-143.78 1192.94,-150.61"/>
</g>
<!-- Node19&#45;&gt;Node12 -->
<g id="edge36" class="edge">
<title>Node19&#45;&gt;Node12</title>
<path fill="none" stroke="midnightblue" d="M511.53,-195.73C526.53,-186.36 550.8,-171.19 570.35,-158.97"/>
<polygon fill="midnightblue" stroke="midnightblue" points="572.33,-161.86 578.96,-153.59 568.62,-155.92 572.33,-161.86"/>
</g>
<!-- Node20 -->
<g id="node21" class="node">
<title>Node20</title>
<g id="a_node21"><a xlink:title=" ">
<polygon fill="white" stroke="#bfbfbf" points="187,-129 187,-148 234,-148 234,-129 187,-129"/>
<text text-anchor="middle" x="210.5" y="-136" font-family="Helvetica,sans-Serif" font-size="10.00">cmath</text>
</a>
</g>
</g>
<!-- Node19&#45;&gt;Node20 -->
<g id="edge24" class="edge">
<title>Node19&#45;&gt;Node20</title>
<path fill="none" stroke="midnightblue" d="M455.25,-195.96C445.48,-193.99 435.13,-191.92 425.5,-190 344.2,-173.82 321.44,-179.27 242.5,-154 240.63,-153.4 238.72,-152.72 236.81,-151.99"/>
<polygon fill="midnightblue" stroke="midnightblue" points="238.06,-148.72 227.48,-148.07 235.35,-155.17 238.06,-148.72"/>
</g>
<!-- Node21 -->
<g id="node22" class="node">
<title>Node21</title>
<g id="a_node22"><a xlink:title=" ">
<polygon fill="white" stroke="#bfbfbf" points="252,-129 252,-148 305,-148 305,-129 252,-129"/>
<text text-anchor="middle" x="278.5" y="-136" font-family="Helvetica,sans-Serif" font-size="10.00">cstddef</text>
</a>
</g>
</g>
<!-- Node19&#45;&gt;Node21 -->
<g id="edge25" class="edge">
<title>Node19&#45;&gt;Node21</title>
<path fill="none" stroke="midnightblue" d="M462.06,-195.99C424.93,-186.78 365.08,-171.1 314.5,-154 312.37,-153.28 310.19,-152.5 308,-151.7"/>
<polygon fill="midnightblue" stroke="midnightblue" points="309.12,-148.37 298.53,-148.04 306.6,-154.9 309.12,-148.37"/>
</g>
<!-- Node22 -->
<g id="node23" class="node">
<title>Node22</title>
<g id="a_node23"><a xlink:title=" ">
<polygon fill="white" stroke="#bfbfbf" points="65,-129 65,-148 130,-148 130,-129 65,-129"/>
<text text-anchor="middle" x="97.5" y="-136" font-family="Helvetica,sans-Serif" font-size="10.00">functional</text>
</a>
</g>
</g>
<!-- Node19&#45;&gt;Node22 -->
<g id="edge27" class="edge">
<title>Node19&#45;&gt;Node22</title>
<path fill="none" stroke="midnightblue" d="M457.6,-195.94C447.18,-193.85 435.94,-191.72 425.5,-190 301.26,-169.56 267.56,-180.66 144.5,-154 140.57,-153.15 136.51,-152.12 132.48,-151.01"/>
<polygon fill="midnightblue" stroke="midnightblue" points="133.24,-147.59 122.66,-148.13 131.27,-154.3 133.24,-147.59"/>
</g>
<!-- Node23 -->
<g id="node24" class="node">
<title>Node23</title>
<g id="a_node24"><a xlink:title=" ">
<polygon fill="white" stroke="#bfbfbf" points="323.5,-129 323.5,-148 361.5,-148 361.5,-129 323.5,-129"/>
<text text-anchor="middle" x="342.5" y="-136" font-family="Helvetica,sans-Serif" font-size="10.00">map</text>
</a>
</g>
</g>
<!-- Node19&#45;&gt;Node23 -->
<g id="edge28" class="edge">
<title>Node19&#45;&gt;Node23</title>
<path fill="none" stroke="midnightblue" d="M473.8,-195.88C448.07,-186.34 405.9,-170.16 370.5,-154 369.5,-153.55 368.49,-153.07 367.47,-152.59"/>
<polygon fill="midnightblue" stroke="midnightblue" points="368.87,-149.37 358.36,-148.06 365.75,-155.64 368.87,-149.37"/>
</g>
<!-- Node24 -->
<g id="node25" class="node">
<title>Node24</title>
<g id="a_node25"><a xlink:title=" ">
<polygon fill="white" stroke="#bfbfbf" points="379.5,-129 379.5,-148 435.5,-148 435.5,-129 379.5,-129"/>
<text text-anchor="middle" x="407.5" y="-136" font-family="Helvetica,sans-Serif" font-size="10.00">optional</text>
</a>
</g>
</g>
<!-- Node19&#45;&gt;Node24 -->
<g id="edge29" class="edge">
<title>Node19&#45;&gt;Node24</title>
<path fill="none" stroke="midnightblue" d="M485.36,-195.73C470.65,-185.11 445.64,-167.05 427.94,-154.26"/>
<polygon fill="midnightblue" stroke="midnightblue" points="429.6,-151.14 419.45,-148.13 425.5,-156.82 429.6,-151.14"/>
</g>
<!-- Node25 -->
<g id="node26" class="node">
<title>Node25</title>
<g id="a_node26"><a xlink:title=" ">
<polygon fill="white" stroke="#bfbfbf" points="453.5,-129 453.5,-148 485.5,-148 485.5,-129 453.5,-129"/>
<text text-anchor="middle" x="469.5" y="-136" font-family="Helvetica,sans-Serif" font-size="10.00">set</text>
</a>
</g>
</g>
<!-- Node19&#45;&gt;Node25 -->
<g id="edge30" class="edge">
<title>Node19&#45;&gt;Node25</title>
<path fill="none" stroke="midnightblue" d="M493.72,-195.73C489.53,-185.99 482.63,-169.98 477.27,-157.53"/>
<polygon fill="midnightblue" stroke="midnightblue" points="480.39,-155.93 473.22,-148.13 473.96,-158.7 480.39,-155.93"/>
</g>
<!-- Node26 -->
<g id="node27" class="node">
<title>Node26</title>
<g id="a_node27"><a xlink:title=" ">
<polygon fill="white" stroke="#bfbfbf" points="0,-129 0,-148 47,-148 47,-129 0,-129"/>
<text text-anchor="middle" x="23.5" y="-136" font-family="Helvetica,sans-Serif" font-size="10.00">vector</text>
</a>
</g>
</g>
<!-- Node19&#45;&gt;Node26 -->
<g id="edge34" class="edge">
<title>Node19&#45;&gt;Node26</title>
<path fill="none" stroke="midnightblue" d="M458.77,-195.95C448.03,-193.78 436.35,-191.62 425.5,-190 262.08,-165.66 215.12,-196.67 55.5,-154 53.35,-153.42 51.15,-152.72 48.98,-151.93"/>
<polygon fill="midnightblue" stroke="midnightblue" points="50.3,-148.69 39.73,-148.1 47.63,-155.16 50.3,-148.69"/>
</g>
<!-- Node27&#45;&gt;Node5 -->
<g id="edge53" class="edge">
<title>Node27&#45;&gt;Node5</title>
<path fill="none" stroke="midnightblue" d="M547.07,-514.19C569.88,-480.05 627.64,-393.63 655.29,-352.25"/>
<polygon fill="midnightblue" stroke="midnightblue" points="658.37,-353.94 661.02,-343.68 652.56,-350.05 658.37,-353.94"/>
</g>
<!-- Node27&#45;&gt;Node11 -->
<g id="edge41" class="edge">
<title>Node27&#45;&gt;Node11</title>
<path fill="none" stroke="midnightblue" d="M609.54,-519.17C764.48,-497.08 1115.5,-435.36 1115.5,-329.5 1115.5,-329.5 1115.5,-329.5 1115.5,-266 1115.5,-214.81 1167.35,-174.06 1199.53,-153.69"/>
<polygon fill="midnightblue" stroke="midnightblue" points="1201.71,-156.47 1208.42,-148.27 1198.06,-150.49 1201.71,-156.47"/>
</g>
<!-- Node27&#45;&gt;Node22 -->
<g id="edge38" class="edge">
<title>Node27&#45;&gt;Node22</title>
<path fill="none" stroke="midnightblue" d="M465.08,-515.52C462.18,-515.01 459.31,-514.5 456.5,-514 313.45,-488.7 151.5,-541.77 151.5,-396.5 151.5,-396.5 151.5,-396.5 151.5,-266 151.5,-224.03 126.04,-180.05 110.08,-156.61"/>
<polygon fill="midnightblue" stroke="midnightblue" points="112.74,-154.31 104.12,-148.16 107.02,-158.35 112.74,-154.31"/>
</g>
<!-- Node27&#45;&gt;Node26 -->
<g id="edge42" class="edge">
<title>Node27&#45;&gt;Node26</title>
<path fill="none" stroke="midnightblue" d="M465.11,-515.33C462.2,-514.87 459.33,-514.42 456.5,-514 325,-494.28 283.44,-526.16 159.5,-478 101.45,-455.44 45.5,-458.78 45.5,-396.5 45.5,-396.5 45.5,-396.5 45.5,-266 45.5,-226.95 35.2,-182.11 28.69,-157.69"/>
<polygon fill="midnightblue" stroke="midnightblue" points="32.06,-156.71 26.02,-148 25.31,-158.57 32.06,-156.71"/>
</g>
<!-- Node28 -->
<g id="node29" class="node">
<title>Node28</title>
<g id="a_node29"><a xlink:title=" ">
<polygon fill="white" stroke="#bfbfbf" points="260,-453 260,-472 353,-472 353,-453 260,-453"/>
<text text-anchor="middle" x="306.5" y="-460" font-family="Helvetica,sans-Serif" font-size="10.00">unordered_map</text>
</a>
</g>
</g>
<!-- Node27&#45;&gt;Node28 -->
<g id="edge39" class="edge">
<title>Node27&#45;&gt;Node28</title>
<path fill="none" stroke="midnightblue" d="M487.66,-514.48C445.44,-502.6 385.7,-485.79 346.54,-474.77"/>
<polygon fill="midnightblue" stroke="midnightblue" points="347.38,-471.37 336.81,-472.03 345.49,-478.11 347.38,-471.37"/>
</g>
<!-- Node29 -->
<g id="node30" class="node">
<title>Node29</title>
<g id="a_node30"><a xlink:title=" ">
<polygon fill="white" stroke="#bfbfbf" points="494.5,-319 494.5,-338 580.5,-338 580.5,-319 494.5,-319"/>
<text text-anchor="middle" x="537.5" y="-326" font-family="Helvetica,sans-Serif" font-size="10.00">unordered_set</text>
</a>
</g>
</g>
<!-- Node27&#45;&gt;Node29 -->
<g id="edge40" class="edge">
<title>Node27&#45;&gt;Node29</title>
<path fill="none" stroke="midnightblue" d="M537.5,-514.19C537.5,-478.99 537.5,-388.17 537.5,-348.51"/>
<polygon fill="midnightblue" stroke="midnightblue" points="541,-348.36 537.5,-338.36 534,-348.36 541,-348.36"/>
</g>
<!-- Node30 -->
<g id="node31" class="node">
<title>Node30</title>
<g id="a_node31"><a xlink:href="collision__filter__declaration_8h.html" target="_top" xlink:title=" ">
<polygon fill="white" stroke="black" points="371,-447.5 371,-477.5 508,-477.5 508,-447.5 371,-447.5"/>
<text text-anchor="start" x="379" y="-465.5" font-family="Helvetica,sans-Serif" font-size="10.00">drake/geometry/collision</text>
<text text-anchor="middle" x="439.5" y="-454.5" font-family="Helvetica,sans-Serif" font-size="10.00">_filter_declaration.h</text>
</a>
</g>
</g>
<!-- Node27&#45;&gt;Node30 -->
<g id="edge43" class="edge">
<title>Node27&#45;&gt;Node30</title>
<path fill="none" stroke="midnightblue" d="M516.24,-514.4C502.49,-505.28 484.41,-493.29 469.26,-483.24"/>
<polygon fill="midnightblue" stroke="midnightblue" points="470.99,-480.19 460.72,-477.58 467.12,-486.02 470.99,-480.19"/>
</g>
<!-- Node30&#45;&gt;Node6 -->
<g id="edge46" class="edge">
<title>Node30&#45;&gt;Node6</title>
<path fill="none" stroke="midnightblue" d="M399.01,-447.5C382.44,-439.54 364.97,-427.74 355.5,-411 322.77,-353.13 338.99,-270.49 350.07,-230.29"/>
<polygon fill="midnightblue" stroke="midnightblue" points="353.46,-231.16 352.87,-220.58 346.73,-229.22 353.46,-231.16"/>
</g>
<!-- Node30&#45;&gt;Node11 -->
<g id="edge44" class="edge">
<title>Node30&#45;&gt;Node11</title>
<path fill="none" stroke="midnightblue" d="M508.08,-454.48C672.86,-436.7 1077.5,-387.15 1077.5,-329.5 1077.5,-329.5 1077.5,-329.5 1077.5,-266 1077.5,-230.58 1077.52,-216.07 1101.5,-190 1114.15,-176.24 1160.03,-159.68 1192.03,-149.36"/>
<polygon fill="midnightblue" stroke="midnightblue" points="1193.39,-152.6 1201.87,-146.25 1191.28,-145.93 1193.39,-152.6"/>
</g>
<!-- Node30&#45;&gt;Node26 -->
<g id="edge45" class="edge">
<title>Node30&#45;&gt;Node26</title>
<path fill="none" stroke="midnightblue" d="M406.87,-447.47C386.77,-438.24 360.85,-425.26 339.5,-411 214.35,-327.44 83.91,-200.38 39.43,-155.71"/>
<polygon fill="midnightblue" stroke="midnightblue" points="41.67,-153 32.15,-148.36 36.7,-157.93 41.67,-153"/>
</g>
<!-- Node31 -->
<g id="node32" class="node">
<title>Node31</title>
<g id="a_node32"><a xlink:href="geometry__set_8h.html" target="_top" xlink:title=" ">
<polygon fill="white" stroke="black" points="364.5,-380.5 364.5,-410.5 508.5,-410.5 508.5,-380.5 364.5,-380.5"/>
<text text-anchor="start" x="372.5" y="-398.5" font-family="Helvetica,sans-Serif" font-size="10.00">drake/geometry/geometry</text>
<text text-anchor="middle" x="436.5" y="-387.5" font-family="Helvetica,sans-Serif" font-size="10.00">_set.h</text>
</a>
</g>
</g>
<!-- Node30&#45;&gt;Node31 -->
<g id="edge47" class="edge">
<title>Node30&#45;&gt;Node31</title>
<path fill="none" stroke="midnightblue" d="M438.85,-447.4C438.49,-439.64 438.04,-429.81 437.62,-420.86"/>
<polygon fill="midnightblue" stroke="midnightblue" points="441.11,-420.4 437.15,-410.58 434.11,-420.73 441.11,-420.4"/>
</g>
<!-- Node31&#45;&gt;Node5 -->
<g id="edge52" class="edge">
<title>Node31&#45;&gt;Node5</title>
<path fill="none" stroke="midnightblue" d="M486.99,-380.48C523,-370.47 571.6,-356.97 609.74,-346.38"/>
<polygon fill="midnightblue" stroke="midnightblue" points="611,-349.66 619.7,-343.61 609.13,-342.92 611,-349.66"/>
</g>
<!-- Node31&#45;&gt;Node6 -->
<g id="edge51" class="edge">
<title>Node31&#45;&gt;Node6</title>
<path fill="none" stroke="midnightblue" d="M416.36,-380.39C404.94,-371.31 391.4,-358.51 383.5,-344 363.92,-308.02 358.86,-259.78 357.68,-231.05"/>
<polygon fill="midnightblue" stroke="midnightblue" points="361.17,-230.61 357.39,-220.71 354.17,-230.8 361.17,-230.61"/>
</g>
<!-- Node31&#45;&gt;Node26 -->
<g id="edge50" class="edge">
<title>Node31&#45;&gt;Node26</title>
<path fill="none" stroke="midnightblue" d="M417.19,-380.41C369.4,-345.83 241.22,-254.86 127.5,-190 113.66,-182.11 77.01,-164.59 51.14,-152.42"/>
<polygon fill="midnightblue" stroke="midnightblue" points="52.37,-149.12 41.83,-148.04 49.4,-155.46 52.37,-149.12"/>
</g>
<!-- Node31&#45;&gt;Node29 -->
<g id="edge49" class="edge">
<title>Node31&#45;&gt;Node29</title>
<path fill="none" stroke="midnightblue" d="M458.42,-380.4C475.35,-369.5 498.69,-354.48 515.62,-343.58"/>
<polygon fill="midnightblue" stroke="midnightblue" points="517.77,-346.36 524.28,-338.01 513.98,-340.48 517.77,-346.36"/>
</g>
<!-- Node32 -->
<g id="node33" class="node">
<title>Node32</title>
<g id="a_node33"><a xlink:title=" ">
<polygon fill="white" stroke="#bfbfbf" points="393,-319 393,-338 476,-338 476,-319 393,-319"/>
<text text-anchor="middle" x="434.5" y="-326" font-family="Helvetica,sans-Serif" font-size="10.00">initializer_list</text>
</a>
</g>
</g>
<!-- Node31&#45;&gt;Node32 -->
<g id="edge48" class="edge">
<title>Node31&#45;&gt;Node32</title>
<path fill="none" stroke="midnightblue" d="M436.07,-380.4C435.78,-371.06 435.4,-358.71 435.09,-348.52"/>
<polygon fill="midnightblue" stroke="midnightblue" points="438.57,-348.08 434.77,-338.19 431.58,-348.3 438.57,-348.08"/>
</g>
</g>
</svg>
        <g id="navigator" transform="translate(0 0)" fill="#404254">
                <rect fill="#f2f5e9" fill-opacity="0.5" stroke="#606060" stroke-width=".5" x="0" y="0" width="60" height="60"/>
                <use id="zoomplus" xlink:href="#zoomPlus" x="17" y="9" onmousedown="handleZoom(evt,'in')"/>
                <use id="zoomminus" xlink:href="#zoomMin" x="42" y="9" onmousedown="handleZoom(evt,'out')"/>
                <use id="reset" xlink:href="#resetDef" x="30" y="36" onmousedown="handleReset()"/>
                <g id="arrowUp" xlink:href="#dirArrow" transform="translate(30 24)" onmousedown="handlePan(0,-1)">
                  <use xlink:href="#rim" fill="#404040">
                        <set attributeName="fill" to="#808080" begin="arrowUp.mouseover" end="arrowUp.mouseout"/>
                  </use>
                  <path fill="none" stroke="white" stroke-width="1.5" d="M0,-3.0v7 M-2.5,-0.5L0,-3.0L2.5,-0.5"/>
                </g>
                <g id="arrowRight" xlink:href="#dirArrow" transform="rotate(90) translate(36 -43)" onmousedown="handlePan(1,0)">
                  <use xlink:href="#rim" fill="#404040">
                        <set attributeName="fill" to="#808080" begin="arrowRight.mouseover" end="arrowRight.mouseout"/>
                  </use>
                  <path fill="none" stroke="white" stroke-width="1.5" d="M0,-3.0v7 M-2.5,-0.5L0,-3.0L2.5,-0.5"/>
                </g>
                <g id="arrowDown" xlink:href="#dirArrow" transform="rotate(180) translate(-30 -48)" onmousedown="handlePan(0,1)">
                  <use xlink:href="#rim" fill="#404040">
                        <set attributeName="fill" to="#808080" begin="arrowDown.mouseover" end="arrowDown.mouseout"/>
                  </use>
                  <path fill="none" stroke="white" stroke-width="1.5" d="M0,-3.0v7 M-2.5,-0.5L0,-3.0L2.5,-0.5"/>
                </g>
                <g id="arrowLeft" xlink:href="#dirArrow" transform="rotate(270) translate(-36 17)" onmousedown="handlePan(-1,0)">
                  <use xlink:href="#rim" fill="#404040">
                        <set attributeName="fill" to="#808080" begin="arrowLeft.mouseover" end="arrowLeft.mouseout"/>
                  </use>
                  <path fill="none" stroke="white" stroke-width="1.5" d="M0,-3.0v7 M-2.5,-0.5L0,-3.0L2.5,-0.5"/>
                </g>
        </g>
        <svg viewBox="0 0 15 15" width="100%" height="30px" preserveAspectRatio="xMaxYMin meet">
         <g id="arrow_out" transform="scale(0.3 0.3)">
          <a xlink:href="collisions__exist__callback_8h__incl_org.svg" target="_base">
           <rect id="button" ry="5" rx="5" y="6" x="6" height="38" width="38"
                fill="#f2f5e9" fill-opacity="0.5" stroke="#606060" stroke-width="1.0"/>
           <path id="arrow"
             d="M 11.500037,31.436501 C 11.940474,20.09759 22.043105,11.32322 32.158766,21.979434 L 37.068811,17.246167 C 37.068811,17.246167 37.088388,32 37.088388,32 L 22.160133,31.978069 C 22.160133,31.978069 26.997745,27.140456 26.997745,27.140456 C 18.528582,18.264221 13.291696,25.230495 11.500037,31.436501 z"
             style="fill:#404040;"/>
          </a>
         </g>
        </svg>
</svg>
