<?xml version="1.0" encoding="UTF-8" standalone="no"?>
<!DOCTYPE svg PUBLIC "-//W3C//DTD SVG 1.1//EN"
 "http://www.w3.org/Graphics/SVG/1.1/DTD/svg11.dtd">
<!-- Generated by graphviz version 2.43.0 (0)
 -->
<!-- Title: drake/planning/collision_checker_params.h Pages: 1 -->
<!--zoomable 262 -->
<svg id="main" version="1.1" xmlns="http://www.w3.org/2000/svg" xmlns:xlink="http://www.w3.org/1999/xlink" xml:space="preserve" onload="init(evt)">
<style type="text/css"><![CDATA[
.edge:hover path { stroke: red; }
.edge:hover polygon { stroke: red; fill: red; }
]]></style>
<script type="text/javascript"><![CDATA[
var edges = document.getElementsByTagName('g');
if (edges && edges.length) {
  for (var i=0;i<edges.length;i++) {
    if (edges[i].id.substr(0,4)=='edge') {
      edges[i].setAttribute('class','edge');
    }
  }
}
]]></script>
        <defs>
                <circle id="rim" cx="0" cy="0" r="7"/>
                <circle id="rim2" cx="0" cy="0" r="3.5"/>
                <g id="zoomPlus">
                        <use xlink:href="#rim" fill="#404040">
                                <set attributeName="fill" to="#808080" begin="zoomplus.mouseover" end="zoomplus.mouseout"/>
                        </use>
                        <path d="M-4,0h8M0,-4v8" fill="none" stroke="white" stroke-width="1.5" pointer-events="none"/>
                </g>
                <g id="zoomMin">
                        <use xlink:href="#rim" fill="#404040">
                                <set attributeName="fill" to="#808080" begin="zoomminus.mouseover" end="zoomminus.mouseout"/>
                        </use>
                        <path d="M-4,0h8" fill="none" stroke="white" stroke-width="1.5" pointer-events="none"/>
                </g>
                <g id="dirArrow">
                        <path fill="none" stroke="white" stroke-width="1.5" d="M0,-3.0v7 M-2.5,-0.5L0,-3.0L2.5,-0.5"/>
                </g>
               <g id="resetDef">
                       <use xlink:href="#rim2" fill="#404040">
                               <set attributeName="fill" to="#808080" begin="reset.mouseover" end="reset.mouseout"/>
                       </use>
               </g>
        </defs>

<script type="text/javascript">
var viewWidth = 1491;
var viewHeight = 262;
var sectionId = 'dynsection-1';
</script>
<script xlink:href="svgpan.js"/>
<svg id="graph" class="graph">
<g id="viewport">
<title>drake/planning/collision_checker_params.h</title>
<polygon fill="white" stroke="transparent" points="-4,4 -4,-258 1486.5,-258 1486.5,4 -4,4"/>
<!-- Node281 -->
<g id="node1" class="node">
<title>Node281</title>
<g id="a_node1"><a xlink:title=" ">
<polygon fill="#bfbfbf" stroke="black" points="1156,-223.5 1156,-253.5 1288,-253.5 1288,-223.5 1156,-223.5"/>
<text text-anchor="start" x="1164" y="-241.5" font-family="Helvetica,sans-Serif" font-size="10.00">drake/planning/collision</text>
<text text-anchor="middle" x="1222" y="-230.5" font-family="Helvetica,sans-Serif" font-size="10.00">_checker_params.h</text>
</a>
</g>
</g>
<!-- Node282 -->
<g id="node2" class="node">
<title>Node282</title>
<g id="a_node2"><a xlink:href="collision__checker_8h.html" target="_top" xlink:title=" ">
<polygon fill="white" stroke="black" points="796,-156.5 796,-186.5 928,-186.5 928,-156.5 796,-156.5"/>
<text text-anchor="start" x="804" y="-174.5" font-family="Helvetica,sans-Serif" font-size="10.00">drake/planning/collision</text>
<text text-anchor="middle" x="862" y="-163.5" font-family="Helvetica,sans-Serif" font-size="10.00">_checker.h</text>
</a>
</g>
</g>
<!-- Node281&#45;&gt;Node282 -->
<g id="edge1" class="edge">
<title>Node281&#45;&gt;Node282</title>
<path fill="none" stroke="midnightblue" d="M1145.86,-223.75C1081.33,-212.1 989.75,-195.57 928.22,-184.46"/>
<polygon fill="midnightblue" stroke="midnightblue" points="1145.51,-227.25 1155.97,-225.58 1146.75,-220.36 1145.51,-227.25"/>
</g>
<!-- Node287 -->
<g id="node7" class="node">
<title>Node287</title>
<g id="a_node7"><a xlink:href="scene__graph__collision__checker_8h.html" target="_top" xlink:title=" ">
<polygon fill="white" stroke="black" points="1149,-78.5 1149,-108.5 1295,-108.5 1295,-78.5 1149,-78.5"/>
<text text-anchor="start" x="1157" y="-96.5" font-family="Helvetica,sans-Serif" font-size="10.00">drake/planning/scene</text>
<text text-anchor="middle" x="1222" y="-85.5" font-family="Helvetica,sans-Serif" font-size="10.00">_graph_collision_checker.h</text>
</a>
</g>
</g>
<!-- Node281&#45;&gt;Node287 -->
<g id="edge12" class="edge">
<title>Node281&#45;&gt;Node287</title>
<path fill="none" stroke="midnightblue" d="M1222,-213.19C1222,-183.16 1222,-133.05 1222,-108.68"/>
<polygon fill="midnightblue" stroke="midnightblue" points="1218.5,-213.27 1222,-223.27 1225.5,-213.27 1218.5,-213.27"/>
</g>
<!-- Node291 -->
<g id="node11" class="node">
<title>Node291</title>
<g id="a_node11"><a xlink:href="unimplemented__collision__checker_8h.html" target="_top" xlink:title=" ">
<polygon fill="white" stroke="black" points="1313.5,-78.5 1313.5,-108.5 1482.5,-108.5 1482.5,-78.5 1313.5,-78.5"/>
<text text-anchor="start" x="1321.5" y="-96.5" font-family="Helvetica,sans-Serif" font-size="10.00">drake/planning/unimplemented</text>
<text text-anchor="middle" x="1398" y="-85.5" font-family="Helvetica,sans-Serif" font-size="10.00">_collision_checker.h</text>
</a>
</g>
</g>
<!-- Node281&#45;&gt;Node291 -->
<g id="edge13" class="edge">
<title>Node281&#45;&gt;Node291</title>
<path fill="none" stroke="midnightblue" d="M1247.66,-216.65C1283.96,-187.16 1349.37,-134.01 1380.55,-108.68"/>
<polygon fill="midnightblue" stroke="midnightblue" points="1245.07,-214.24 1239.52,-223.27 1249.49,-219.68 1245.07,-214.24"/>
</g>
<!-- Node283 -->
<g id="node3" class="node">
<title>Node283</title>
<g id="a_node3"><a xlink:href="distance__constraint__utilities_8h.html" target="_top" xlink:title=" ">
<polygon fill="white" stroke="black" points="152,-73 152,-114 326,-114 326,-73 152,-73"/>
<text text-anchor="start" x="160" y="-102" font-family="Helvetica,sans-Serif" font-size="10.00">drake/multibody/inverse</text>
<text text-anchor="start" x="160" y="-91" font-family="Helvetica,sans-Serif" font-size="10.00">_kinematics/distance_constraint</text>
<text text-anchor="middle" x="239" y="-80" font-family="Helvetica,sans-Serif" font-size="10.00">_utilities.h</text>
</a>
</g>
</g>
<!-- Node282&#45;&gt;Node283 -->
<g id="edge2" class="edge">
<title>Node282&#45;&gt;Node283</title>
<path fill="none" stroke="midnightblue" d="M785.81,-167.13C682.85,-161.68 493.91,-148.52 335,-120 325.83,-118.36 316.26,-116.27 306.87,-114"/>
<polygon fill="midnightblue" stroke="midnightblue" points="785.63,-170.62 795.8,-167.65 785.99,-163.63 785.63,-170.62"/>
</g>
<!-- Node284 -->
<g id="node4" class="node">
<title>Node284</title>
<g id="a_node4"><a xlink:href="minimum__distance__lower__bound__constraint_8h.html" target="_top" xlink:title=" ">
<polygon fill="white" stroke="black" points="344.5,-73 344.5,-114 517.5,-114 517.5,-73 344.5,-73"/>
<text text-anchor="start" x="352.5" y="-102" font-family="Helvetica,sans-Serif" font-size="10.00">drake/multibody/inverse</text>
<text text-anchor="start" x="352.5" y="-91" font-family="Helvetica,sans-Serif" font-size="10.00">_kinematics/minimum_distance</text>
<text text-anchor="middle" x="431" y="-80" font-family="Helvetica,sans-Serif" font-size="10.00">_lower_bound_constraint.h</text>
</a>
</g>
</g>
<!-- Node282&#45;&gt;Node284 -->
<g id="edge3" class="edge">
<title>Node282&#45;&gt;Node284</title>
<path fill="none" stroke="midnightblue" d="M785.68,-161.53C717.3,-152.9 614.43,-138.45 526,-120 517.56,-118.24 508.75,-116.18 500.05,-114.01"/>
<polygon fill="midnightblue" stroke="midnightblue" points="785.58,-165.04 795.94,-162.81 786.45,-158.1 785.58,-165.04"/>
</g>
<!-- Node285 -->
<g id="node5" class="node">
<title>Node285</title>
<g id="a_node5"><a xlink:href="minimum__distance__upper__bound__constraint_8h.html" target="_top" xlink:title=" ">
<polygon fill="white" stroke="black" points="535.5,-73 535.5,-114 708.5,-114 708.5,-73 535.5,-73"/>
<text text-anchor="start" x="543.5" y="-102" font-family="Helvetica,sans-Serif" font-size="10.00">drake/multibody/inverse</text>
<text text-anchor="start" x="543.5" y="-91" font-family="Helvetica,sans-Serif" font-size="10.00">_kinematics/minimum_distance</text>
<text text-anchor="middle" x="622" y="-80" font-family="Helvetica,sans-Serif" font-size="10.00">_upper_bound_constraint.h</text>
</a>
</g>
</g>
<!-- Node282&#45;&gt;Node285 -->
<g id="edge4" class="edge">
<title>Node282&#45;&gt;Node285</title>
<path fill="none" stroke="midnightblue" d="M808.11,-153.44C771.2,-141.75 722.15,-126.21 683.67,-114.03"/>
<polygon fill="midnightblue" stroke="midnightblue" points="807.11,-156.79 817.7,-156.47 809.22,-150.12 807.11,-156.79"/>
</g>
<!-- Node286 -->
<g id="node6" class="node">
<title>Node286</title>
<g id="a_node6"><a xlink:href="collision__avoidance_8h.html" target="_top" xlink:title=" ">
<polygon fill="white" stroke="black" points="727,-78.5 727,-108.5 859,-108.5 859,-78.5 727,-78.5"/>
<text text-anchor="start" x="735" y="-96.5" font-family="Helvetica,sans-Serif" font-size="10.00">drake/planning/collision</text>
<text text-anchor="middle" x="793" y="-85.5" font-family="Helvetica,sans-Serif" font-size="10.00">_avoidance.h</text>
</a>
</g>
</g>
<!-- Node282&#45;&gt;Node286 -->
<g id="edge5" class="edge">
<title>Node282&#45;&gt;Node286</title>
<path fill="none" stroke="midnightblue" d="M842.18,-148.67C830.52,-135.83 816.12,-119.97 805.92,-108.73"/>
<polygon fill="midnightblue" stroke="midnightblue" points="839.71,-151.15 849.02,-156.2 844.89,-146.45 839.71,-151.15"/>
</g>
<!-- Node282&#45;&gt;Node287 -->
<g id="edge6" class="edge">
<title>Node282&#45;&gt;Node287</title>
<path fill="none" stroke="midnightblue" d="M938.42,-159.19C994.57,-150.26 1072.5,-136.56 1140,-120 1153.18,-116.77 1167.35,-112.61 1180.14,-108.6"/>
<polygon fill="midnightblue" stroke="midnightblue" points="937.53,-155.79 928.2,-160.8 938.62,-162.7 937.53,-155.79"/>
</g>
<!-- Node289 -->
<g id="node9" class="node">
<title>Node289</title>
<g id="a_node9"><a xlink:href="iris__zo_8h.html" target="_top" xlink:title=" ">
<polygon fill="white" stroke="black" points="877.5,-78.5 877.5,-108.5 984.5,-108.5 984.5,-78.5 877.5,-78.5"/>
<text text-anchor="start" x="885.5" y="-96.5" font-family="Helvetica,sans-Serif" font-size="10.00">drake/planning/iris</text>
<text text-anchor="middle" x="931" y="-85.5" font-family="Helvetica,sans-Serif" font-size="10.00">/iris_zo.h</text>
</a>
</g>
</g>
<!-- Node282&#45;&gt;Node289 -->
<g id="edge8" class="edge">
<title>Node282&#45;&gt;Node289</title>
<path fill="none" stroke="midnightblue" d="M881.82,-148.67C893.48,-135.83 907.88,-119.97 918.08,-108.73"/>
<polygon fill="midnightblue" stroke="midnightblue" points="879.11,-146.45 874.98,-156.2 884.29,-151.15 879.11,-146.45"/>
</g>
<!-- Node290 -->
<g id="node10" class="node">
<title>Node290</title>
<g id="a_node10"><a xlink:href="collision__checker__abstract__test__suite_8h.html" target="_top" xlink:title=" ">
<polygon fill="white" stroke="black" points="1003,-67.5 1003,-119.5 1131,-119.5 1131,-67.5 1003,-67.5"/>
<text text-anchor="start" x="1011" y="-107.5" font-family="Helvetica,sans-Serif" font-size="10.00">drake/planning/test</text>
<text text-anchor="start" x="1011" y="-96.5" font-family="Helvetica,sans-Serif" font-size="10.00">_utilities/collision</text>
<text text-anchor="start" x="1011" y="-85.5" font-family="Helvetica,sans-Serif" font-size="10.00">_checker_abstract_test</text>
<text text-anchor="middle" x="1067" y="-74.5" font-family="Helvetica,sans-Serif" font-size="10.00">_suite.h</text>
</a>
</g>
</g>
<!-- Node282&#45;&gt;Node290 -->
<g id="edge9" class="edge">
<title>Node282&#45;&gt;Node290</title>
<path fill="none" stroke="midnightblue" d="M909.56,-152.87C937.33,-142.57 972.74,-129.45 1002.94,-118.25"/>
<polygon fill="midnightblue" stroke="midnightblue" points="908.24,-149.63 900.08,-156.38 910.67,-156.19 908.24,-149.63"/>
</g>
<!-- Node282&#45;&gt;Node291 -->
<g id="edge10" class="edge">
<title>Node282&#45;&gt;Node291</title>
<path fill="none" stroke="midnightblue" d="M938.6,-165.28C1027.16,-158.43 1177.04,-144.33 1304,-120 1319.61,-117.01 1336.43,-112.78 1351.47,-108.62"/>
<polygon fill="midnightblue" stroke="midnightblue" points="938.07,-161.81 928.37,-166.06 938.61,-168.79 938.07,-161.81"/>
</g>
<!-- Node292 -->
<g id="node12" class="node">
<title>Node292</title>
<g id="a_node12"><a xlink:href="visibility__graph_8h.html" target="_top" xlink:title=" ">
<polygon fill="white" stroke="black" points="0,-78.5 0,-108.5 134,-108.5 134,-78.5 0,-78.5"/>
<text text-anchor="start" x="8" y="-96.5" font-family="Helvetica,sans-Serif" font-size="10.00">drake/planning/visibility</text>
<text text-anchor="middle" x="67" y="-85.5" font-family="Helvetica,sans-Serif" font-size="10.00">_graph.h</text>
</a>
</g>
</g>
<!-- Node282&#45;&gt;Node292 -->
<g id="edge11" class="edge">
<title>Node282&#45;&gt;Node292</title>
<path fill="none" stroke="midnightblue" d="M785.8,-171.45C653.62,-171.69 373.83,-166.05 143,-120 129.62,-117.33 115.35,-112.97 102.83,-108.6"/>
<polygon fill="midnightblue" stroke="midnightblue" points="785.84,-174.95 795.83,-171.42 785.82,-167.95 785.84,-174.95"/>
</g>
<!-- Node288 -->
<g id="node8" class="node">
<title>Node288</title>
<g id="a_node8"><a xlink:href="iris__from__clique__cover_8h.html" target="_top" xlink:title=" ">
<polygon fill="white" stroke="black" points="1153,-0.5 1153,-30.5 1291,-30.5 1291,-0.5 1153,-0.5"/>
<text text-anchor="start" x="1161" y="-18.5" font-family="Helvetica,sans-Serif" font-size="10.00">drake/planning/iris</text>
<text text-anchor="middle" x="1222" y="-7.5" font-family="Helvetica,sans-Serif" font-size="10.00">/iris_from_clique_cover.h</text>
</a>
</g>
</g>
<!-- Node287&#45;&gt;Node288 -->
<g id="edge7" class="edge">
<title>Node287&#45;&gt;Node288</title>
<path fill="none" stroke="midnightblue" d="M1222,-68.09C1222,-55.76 1222,-41.22 1222,-30.73"/>
<polygon fill="midnightblue" stroke="midnightblue" points="1218.5,-68.2 1222,-78.2 1225.5,-68.21 1218.5,-68.2"/>
</g>
</g>
</svg>
        <g id="navigator" transform="translate(0 0)" fill="#404254">
                <rect fill="#f2f5e9" fill-opacity="0.5" stroke="#606060" stroke-width=".5" x="0" y="0" width="60" height="60"/>
                <use id="zoomplus" xlink:href="#zoomPlus" x="17" y="9" onmousedown="handleZoom(evt,'in')"/>
                <use id="zoomminus" xlink:href="#zoomMin" x="42" y="9" onmousedown="handleZoom(evt,'out')"/>
                <use id="reset" xlink:href="#resetDef" x="30" y="36" onmousedown="handleReset()"/>
                <g id="arrowUp" xlink:href="#dirArrow" transform="translate(30 24)" onmousedown="handlePan(0,-1)">
                  <use xlink:href="#rim" fill="#404040">
                        <set attributeName="fill" to="#808080" begin="arrowUp.mouseover" end="arrowUp.mouseout"/>
                  </use>
                  <path fill="none" stroke="white" stroke-width="1.5" d="M0,-3.0v7 M-2.5,-0.5L0,-3.0L2.5,-0.5"/>
                </g>
                <g id="arrowRight" xlink:href="#dirArrow" transform="rotate(90) translate(36 -43)" onmousedown="handlePan(1,0)">
                  <use xlink:href="#rim" fill="#404040">
                        <set attributeName="fill" to="#808080" begin="arrowRight.mouseover" end="arrowRight.mouseout"/>
                  </use>
                  <path fill="none" stroke="white" stroke-width="1.5" d="M0,-3.0v7 M-2.5,-0.5L0,-3.0L2.5,-0.5"/>
                </g>
                <g id="arrowDown" xlink:href="#dirArrow" transform="rotate(180) translate(-30 -48)" onmousedown="handlePan(0,1)">
                  <use xlink:href="#rim" fill="#404040">
                        <set attributeName="fill" to="#808080" begin="arrowDown.mouseover" end="arrowDown.mouseout"/>
                  </use>
                  <path fill="none" stroke="white" stroke-width="1.5" d="M0,-3.0v7 M-2.5,-0.5L0,-3.0L2.5,-0.5"/>
                </g>
                <g id="arrowLeft" xlink:href="#dirArrow" transform="rotate(270) translate(-36 17)" onmousedown="handlePan(-1,0)">
                  <use xlink:href="#rim" fill="#404040">
                        <set attributeName="fill" to="#808080" begin="arrowLeft.mouseover" end="arrowLeft.mouseout"/>
                  </use>
                  <path fill="none" stroke="white" stroke-width="1.5" d="M0,-3.0v7 M-2.5,-0.5L0,-3.0L2.5,-0.5"/>
                </g>
        </g>
        <svg viewBox="0 0 15 15" width="100%" height="30px" preserveAspectRatio="xMaxYMin meet">
         <g id="arrow_out" transform="scale(0.3 0.3)">
          <a xlink:href="collision__checker__params_8h__dep__incl_org.svg" target="_base">
           <rect id="button" ry="5" rx="5" y="6" x="6" height="38" width="38"
                fill="#f2f5e9" fill-opacity="0.5" stroke="#606060" stroke-width="1.0"/>
           <path id="arrow"
             d="M 11.500037,31.436501 C 11.940474,20.09759 22.043105,11.32322 32.158766,21.979434 L 37.068811,17.246167 C 37.068811,17.246167 37.088388,32 37.088388,32 L 22.160133,31.978069 C 22.160133,31.978069 26.997745,27.140456 26.997745,27.140456 C 18.528582,18.264221 13.291696,25.230495 11.500037,31.436501 z"
             style="fill:#404040;"/>
          </a>
         </g>
        </svg>
</svg>
