<?xml version="1.0" encoding="UTF-8" standalone="no"?>
<!DOCTYPE svg PUBLIC "-//W3C//DTD SVG 1.1//EN"
 "http://www.w3.org/Graphics/SVG/1.1/DTD/svg11.dtd">
<!-- Generated by graphviz version 2.43.0 (0)
 -->
<!-- Title: drake/planning/collision_checker.h Pages: 1 -->
<svg width="982pt" height="128pt"
 viewBox="0.00 0.00 981.50 128.00" xmlns="http://www.w3.org/2000/svg" xmlns:xlink="http://www.w3.org/1999/xlink">
<g id="graph0" class="graph" transform="scale(1 1) rotate(0) translate(4 124)">
<title>drake/planning/collision_checker.h</title>
<polygon fill="white" stroke="transparent" points="-4,4 -4,-124 977.5,-124 977.5,4 -4,4"/>
<!-- Node252 -->
<g id="node1" class="node">
<title>Node252</title>
<g id="a_node1"><a xlink:title=" ">
<polygon fill="#bfbfbf" stroke="black" points="425.5,-89.5 425.5,-119.5 557.5,-119.5 557.5,-89.5 425.5,-89.5"/>
<text text-anchor="start" x="433.5" y="-107.5" font-family="Helvetica,sans-Serif" font-size="10.00">drake/planning/collision</text>
<text text-anchor="middle" x="491.5" y="-96.5" font-family="Helvetica,sans-Serif" font-size="10.00">_checker.h</text>
</a>
</g>
</g>
<!-- Node253 -->
<g id="node2" class="node">
<title>Node253</title>
<g id="a_node2"><a xlink:href="minimum__distance__constraint_8h.html" target="_top" xlink:title=" ">
<polygon fill="white" stroke="black" points="0,-6 0,-47 173,-47 173,-6 0,-6"/>
<text text-anchor="start" x="8" y="-35" font-family="Helvetica,sans-Serif" font-size="10.00">drake/multibody/inverse</text>
<text text-anchor="start" x="8" y="-24" font-family="Helvetica,sans-Serif" font-size="10.00">_kinematics/minimum_distance</text>
<text text-anchor="middle" x="86.5" y="-13" font-family="Helvetica,sans-Serif" font-size="10.00">_constraint.h</text>
</a>
</g>
</g>
<!-- Node252&#45;&gt;Node253 -->
<g id="edge1" class="edge">
<title>Node252&#45;&gt;Node253</title>
<path fill="none" stroke="midnightblue" d="M415.23,-93.15C352.46,-84.13 261.3,-69.86 182.5,-53 174.15,-51.21 165.44,-49.16 156.83,-47.02"/>
<polygon fill="midnightblue" stroke="midnightblue" points="415.05,-96.66 425.45,-94.61 416.04,-89.73 415.05,-96.66"/>
</g>
<!-- Node254 -->
<g id="node3" class="node">
<title>Node254</title>
<g id="a_node3"><a xlink:href="collision__avoidance_8h.html" target="_top" xlink:title=" ">
<polygon fill="white" stroke="black" points="191.5,-11.5 191.5,-41.5 323.5,-41.5 323.5,-11.5 191.5,-11.5"/>
<text text-anchor="start" x="199.5" y="-29.5" font-family="Helvetica,sans-Serif" font-size="10.00">drake/planning/collision</text>
<text text-anchor="middle" x="257.5" y="-18.5" font-family="Helvetica,sans-Serif" font-size="10.00">_avoidance.h</text>
</a>
</g>
</g>
<!-- Node252&#45;&gt;Node254 -->
<g id="edge2" class="edge">
<title>Node252&#45;&gt;Node254</title>
<path fill="none" stroke="midnightblue" d="M436.87,-86.45C406.15,-76.79 367.13,-64.39 332.5,-53 321.39,-49.35 309.4,-45.31 298.32,-41.55"/>
<polygon fill="midnightblue" stroke="midnightblue" points="435.94,-89.83 446.53,-89.48 438.04,-83.15 435.94,-89.83"/>
</g>
<!-- Node255 -->
<g id="node4" class="node">
<title>Node255</title>
<g id="a_node4"><a xlink:href="scene__graph__collision__checker_8h.html" target="_top" xlink:title=" ">
<polygon fill="white" stroke="black" points="341.5,-11.5 341.5,-41.5 487.5,-41.5 487.5,-11.5 341.5,-11.5"/>
<text text-anchor="start" x="349.5" y="-29.5" font-family="Helvetica,sans-Serif" font-size="10.00">drake/planning/scene</text>
<text text-anchor="middle" x="414.5" y="-18.5" font-family="Helvetica,sans-Serif" font-size="10.00">_graph_collision_checker.h</text>
</a>
</g>
</g>
<!-- Node252&#45;&gt;Node255 -->
<g id="edge3" class="edge">
<title>Node252&#45;&gt;Node255</title>
<path fill="none" stroke="midnightblue" d="M469.75,-82.03C456.68,-69.13 440.41,-53.07 428.92,-41.73"/>
<polygon fill="midnightblue" stroke="midnightblue" points="467.44,-84.67 477.02,-89.2 472.36,-79.69 467.44,-84.67"/>
</g>
<!-- Node256 -->
<g id="node5" class="node">
<title>Node256</title>
<g id="a_node5"><a xlink:href="collision__checker__abstract__test__suite_8h.html" target="_top" xlink:title=" ">
<polygon fill="white" stroke="black" points="505.5,-0.5 505.5,-52.5 633.5,-52.5 633.5,-0.5 505.5,-0.5"/>
<text text-anchor="start" x="513.5" y="-40.5" font-family="Helvetica,sans-Serif" font-size="10.00">drake/planning/test</text>
<text text-anchor="start" x="513.5" y="-29.5" font-family="Helvetica,sans-Serif" font-size="10.00">_utilities/collision</text>
<text text-anchor="start" x="513.5" y="-18.5" font-family="Helvetica,sans-Serif" font-size="10.00">_checker_abstract_test</text>
<text text-anchor="middle" x="569.5" y="-7.5" font-family="Helvetica,sans-Serif" font-size="10.00">_suite.h</text>
</a>
</g>
</g>
<!-- Node252&#45;&gt;Node256 -->
<g id="edge4" class="edge">
<title>Node252&#45;&gt;Node256</title>
<path fill="none" stroke="midnightblue" d="M513.35,-82.21C522.82,-72.98 533.98,-62.11 543.84,-52.5"/>
<polygon fill="midnightblue" stroke="midnightblue" points="510.89,-79.72 506.17,-89.2 515.78,-84.73 510.89,-79.72"/>
</g>
<!-- Node257 -->
<g id="node6" class="node">
<title>Node257</title>
<g id="a_node6"><a xlink:href="unimplemented__collision__checker_8h.html" target="_top" xlink:title=" ">
<polygon fill="white" stroke="black" points="652,-11.5 652,-41.5 821,-41.5 821,-11.5 652,-11.5"/>
<text text-anchor="start" x="660" y="-29.5" font-family="Helvetica,sans-Serif" font-size="10.00">drake/planning/unimplemented</text>
<text text-anchor="middle" x="736.5" y="-18.5" font-family="Helvetica,sans-Serif" font-size="10.00">_collision_checker.h</text>
</a>
</g>
</g>
<!-- Node252&#45;&gt;Node257 -->
<g id="edge5" class="edge">
<title>Node252&#45;&gt;Node257</title>
<path fill="none" stroke="midnightblue" d="M546.31,-86.5C589.92,-72.97 650.2,-54.27 691.13,-41.57"/>
<polygon fill="midnightblue" stroke="midnightblue" points="545.24,-83.17 536.72,-89.47 547.31,-89.85 545.24,-83.17"/>
</g>
<!-- Node258 -->
<g id="node7" class="node">
<title>Node258</title>
<g id="a_node7"><a xlink:href="visibility__graph_8h.html" target="_top" xlink:title=" ">
<polygon fill="white" stroke="black" points="839.5,-11.5 839.5,-41.5 973.5,-41.5 973.5,-11.5 839.5,-11.5"/>
<text text-anchor="start" x="847.5" y="-29.5" font-family="Helvetica,sans-Serif" font-size="10.00">drake/planning/visibility</text>
<text text-anchor="middle" x="906.5" y="-18.5" font-family="Helvetica,sans-Serif" font-size="10.00">_graph.h</text>
</a>
</g>
</g>
<!-- Node252&#45;&gt;Node258 -->
<g id="edge6" class="edge">
<title>Node252&#45;&gt;Node258</title>
<path fill="none" stroke="midnightblue" d="M567.73,-96.02C636.92,-88.32 741.44,-74.4 830.5,-53 843.22,-49.94 856.85,-45.69 869,-41.54"/>
<polygon fill="midnightblue" stroke="midnightblue" points="567.34,-92.54 557.78,-97.11 568.1,-99.5 567.34,-92.54"/>
</g>
</g>
</svg>
