<?xml version="1.0" encoding="UTF-8" standalone="no"?>
<!DOCTYPE svg PUBLIC "-//W3C//DTD SVG 1.1//EN"
 "http://www.w3.org/Graphics/SVG/1.1/DTD/svg11.dtd">
<!-- Generated by graphviz version 2.43.0 (0)
 -->
<!-- Title: drake/planning/collision_checker_context.h Pages: 1 -->
<!--zoomable 262 -->
<svg id="main" version="1.1" xmlns="http://www.w3.org/2000/svg" xmlns:xlink="http://www.w3.org/1999/xlink" xml:space="preserve" onload="init(evt)">
<style type="text/css"><![CDATA[
.edge:hover path { stroke: red; }
.edge:hover polygon { stroke: red; fill: red; }
]]></style>
<script type="text/javascript"><![CDATA[
var edges = document.getElementsByTagName('g');
if (edges && edges.length) {
  for (var i=0;i<edges.length;i++) {
    if (edges[i].id.substr(0,4)=='edge') {
      edges[i].setAttribute('class','edge');
    }
  }
}
]]></script>
        <defs>
                <circle id="rim" cx="0" cy="0" r="7"/>
                <circle id="rim2" cx="0" cy="0" r="3.5"/>
                <g id="zoomPlus">
                        <use xlink:href="#rim" fill="#404040">
                                <set attributeName="fill" to="#808080" begin="zoomplus.mouseover" end="zoomplus.mouseout"/>
                        </use>
                        <path d="M-4,0h8M0,-4v8" fill="none" stroke="white" stroke-width="1.5" pointer-events="none"/>
                </g>
                <g id="zoomMin">
                        <use xlink:href="#rim" fill="#404040">
                                <set attributeName="fill" to="#808080" begin="zoomminus.mouseover" end="zoomminus.mouseout"/>
                        </use>
                        <path d="M-4,0h8" fill="none" stroke="white" stroke-width="1.5" pointer-events="none"/>
                </g>
                <g id="dirArrow">
                        <path fill="none" stroke="white" stroke-width="1.5" d="M0,-3.0v7 M-2.5,-0.5L0,-3.0L2.5,-0.5"/>
                </g>
               <g id="resetDef">
                       <use xlink:href="#rim2" fill="#404040">
                               <set attributeName="fill" to="#808080" begin="reset.mouseover" end="reset.mouseout"/>
                       </use>
               </g>
        </defs>

<script type="text/javascript">
var viewWidth = 1491;
var viewHeight = 262;
var sectionId = 'dynsection-1';
</script>
<script xlink:href="svgpan.js"/>
<svg id="graph" class="graph">
<g id="viewport">
<title>drake/planning/collision_checker_context.h</title>
<polygon fill="white" stroke="transparent" points="-4,4 -4,-258 1487,-258 1487,4 -4,4"/>
<!-- Node277 -->
<g id="node1" class="node">
<title>Node277</title>
<g id="a_node1"><a xlink:title=" ">
<polygon fill="#bfbfbf" stroke="black" points="376,-223.5 376,-253.5 508,-253.5 508,-223.5 376,-223.5"/>
<text text-anchor="start" x="384" y="-241.5" font-family="Helvetica,sans-Serif" font-size="10.00">drake/planning/collision</text>
<text text-anchor="middle" x="442" y="-230.5" font-family="Helvetica,sans-Serif" font-size="10.00">_checker_context.h</text>
</a>
</g>
</g>
<!-- Node278 -->
<g id="node2" class="node">
<title>Node278</title>
<g id="a_node2"><a xlink:href="collision__checker_8h.html" target="_top" xlink:title=" ">
<polygon fill="white" stroke="black" points="653,-156.5 653,-186.5 785,-186.5 785,-156.5 653,-156.5"/>
<text text-anchor="start" x="661" y="-174.5" font-family="Helvetica,sans-Serif" font-size="10.00">drake/planning/collision</text>
<text text-anchor="middle" x="719" y="-163.5" font-family="Helvetica,sans-Serif" font-size="10.00">_checker.h</text>
</a>
</g>
</g>
<!-- Node277&#45;&gt;Node278 -->
<g id="edge1" class="edge">
<title>Node277&#45;&gt;Node278</title>
<path fill="none" stroke="midnightblue" d="M511.52,-221.19C556.89,-210.54 615.51,-196.78 658.87,-186.61"/>
<polygon fill="midnightblue" stroke="midnightblue" points="510.7,-217.78 501.76,-223.48 512.3,-224.6 510.7,-217.78"/>
</g>
<!-- Node279 -->
<g id="node3" class="node">
<title>Node279</title>
<g id="a_node3"><a xlink:href="distance__constraint__utilities_8h.html" target="_top" xlink:title=" ">
<polygon fill="white" stroke="black" points="0,-73 0,-114 174,-114 174,-73 0,-73"/>
<text text-anchor="start" x="8" y="-102" font-family="Helvetica,sans-Serif" font-size="10.00">drake/multibody/inverse</text>
<text text-anchor="start" x="8" y="-91" font-family="Helvetica,sans-Serif" font-size="10.00">_kinematics/distance_constraint</text>
<text text-anchor="middle" x="87" y="-80" font-family="Helvetica,sans-Serif" font-size="10.00">_utilities.h</text>
</a>
</g>
</g>
<!-- Node277&#45;&gt;Node279 -->
<g id="edge12" class="edge">
<title>Node277&#45;&gt;Node279</title>
<path fill="none" stroke="midnightblue" d="M397.57,-219.6C330.7,-192.67 204.67,-141.9 135.49,-114.03"/>
<polygon fill="midnightblue" stroke="midnightblue" points="396.41,-222.91 406.99,-223.4 399.02,-216.41 396.41,-222.91"/>
</g>
<!-- Node278&#45;&gt;Node279 -->
<g id="edge2" class="edge">
<title>Node278&#45;&gt;Node279</title>
<path fill="none" stroke="midnightblue" d="M642.52,-167.2C538.21,-161.82 345.8,-148.71 184,-120 174.74,-118.36 165.07,-116.27 155.58,-114.01"/>
<polygon fill="midnightblue" stroke="midnightblue" points="642.48,-170.71 652.64,-167.72 642.83,-163.71 642.48,-170.71"/>
</g>
<!-- Node280 -->
<g id="node4" class="node">
<title>Node280</title>
<g id="a_node4"><a xlink:href="minimum__distance__lower__bound__constraint_8h.html" target="_top" xlink:title=" ">
<polygon fill="white" stroke="black" points="192.5,-73 192.5,-114 365.5,-114 365.5,-73 192.5,-73"/>
<text text-anchor="start" x="200.5" y="-102" font-family="Helvetica,sans-Serif" font-size="10.00">drake/multibody/inverse</text>
<text text-anchor="start" x="200.5" y="-91" font-family="Helvetica,sans-Serif" font-size="10.00">_kinematics/minimum_distance</text>
<text text-anchor="middle" x="279" y="-80" font-family="Helvetica,sans-Serif" font-size="10.00">_lower_bound_constraint.h</text>
</a>
</g>
</g>
<!-- Node278&#45;&gt;Node280 -->
<g id="edge3" class="edge">
<title>Node278&#45;&gt;Node280</title>
<path fill="none" stroke="midnightblue" d="M642.93,-161.86C572.93,-153.31 466.44,-138.79 375,-120 366.47,-118.25 357.57,-116.19 348.78,-114.03"/>
<polygon fill="midnightblue" stroke="midnightblue" points="642.64,-165.35 652.98,-163.07 643.48,-158.4 642.64,-165.35"/>
</g>
<!-- Node281 -->
<g id="node5" class="node">
<title>Node281</title>
<g id="a_node5"><a xlink:href="minimum__distance__upper__bound__constraint_8h.html" target="_top" xlink:title=" ">
<polygon fill="white" stroke="black" points="383.5,-73 383.5,-114 556.5,-114 556.5,-73 383.5,-73"/>
<text text-anchor="start" x="391.5" y="-102" font-family="Helvetica,sans-Serif" font-size="10.00">drake/multibody/inverse</text>
<text text-anchor="start" x="391.5" y="-91" font-family="Helvetica,sans-Serif" font-size="10.00">_kinematics/minimum_distance</text>
<text text-anchor="middle" x="470" y="-80" font-family="Helvetica,sans-Serif" font-size="10.00">_upper_bound_constraint.h</text>
</a>
</g>
</g>
<!-- Node278&#45;&gt;Node281 -->
<g id="edge4" class="edge">
<title>Node278&#45;&gt;Node281</title>
<path fill="none" stroke="midnightblue" d="M663.09,-153.44C624.79,-141.75 573.91,-126.21 533.99,-114.03"/>
<polygon fill="midnightblue" stroke="midnightblue" points="662.45,-156.9 673.04,-156.47 664.5,-150.2 662.45,-156.9"/>
</g>
<!-- Node282 -->
<g id="node6" class="node">
<title>Node282</title>
<g id="a_node6"><a xlink:href="collision__avoidance_8h.html" target="_top" xlink:title=" ">
<polygon fill="white" stroke="black" points="575,-78.5 575,-108.5 707,-108.5 707,-78.5 575,-78.5"/>
<text text-anchor="start" x="583" y="-96.5" font-family="Helvetica,sans-Serif" font-size="10.00">drake/planning/collision</text>
<text text-anchor="middle" x="641" y="-85.5" font-family="Helvetica,sans-Serif" font-size="10.00">_avoidance.h</text>
</a>
</g>
</g>
<!-- Node278&#45;&gt;Node282 -->
<g id="edge5" class="edge">
<title>Node278&#45;&gt;Node282</title>
<path fill="none" stroke="midnightblue" d="M696.97,-149.03C683.73,-136.13 667.24,-120.07 655.61,-108.73"/>
<polygon fill="midnightblue" stroke="midnightblue" points="694.72,-151.73 704.33,-156.2 699.61,-146.72 694.72,-151.73"/>
</g>
<!-- Node283 -->
<g id="node7" class="node">
<title>Node283</title>
<g id="a_node7"><a xlink:href="scene__graph__collision__checker_8h.html" target="_top" xlink:title=" ">
<polygon fill="white" stroke="black" points="725,-78.5 725,-108.5 871,-108.5 871,-78.5 725,-78.5"/>
<text text-anchor="start" x="733" y="-96.5" font-family="Helvetica,sans-Serif" font-size="10.00">drake/planning/scene</text>
<text text-anchor="middle" x="798" y="-85.5" font-family="Helvetica,sans-Serif" font-size="10.00">_graph_collision_checker.h</text>
</a>
</g>
</g>
<!-- Node278&#45;&gt;Node283 -->
<g id="edge6" class="edge">
<title>Node278&#45;&gt;Node283</title>
<path fill="none" stroke="midnightblue" d="M741.31,-149.03C754.73,-136.13 771.42,-120.07 783.21,-108.73"/>
<polygon fill="midnightblue" stroke="midnightblue" points="738.64,-146.75 733.86,-156.2 743.49,-151.79 738.64,-146.75"/>
</g>
<!-- Node285 -->
<g id="node9" class="node">
<title>Node285</title>
<g id="a_node9"><a xlink:href="iris__zo_8h.html" target="_top" xlink:title=" ">
<polygon fill="white" stroke="black" points="889.5,-78.5 889.5,-108.5 996.5,-108.5 996.5,-78.5 889.5,-78.5"/>
<text text-anchor="start" x="897.5" y="-96.5" font-family="Helvetica,sans-Serif" font-size="10.00">drake/planning/iris</text>
<text text-anchor="middle" x="943" y="-85.5" font-family="Helvetica,sans-Serif" font-size="10.00">/iris_zo.h</text>
</a>
</g>
</g>
<!-- Node278&#45;&gt;Node285 -->
<g id="edge8" class="edge">
<title>Node278&#45;&gt;Node285</title>
<path fill="none" stroke="midnightblue" d="M776.96,-153.55C807.77,-144.24 846.16,-132.13 880,-120 889.77,-116.5 900.27,-112.39 909.84,-108.5"/>
<polygon fill="midnightblue" stroke="midnightblue" points="775.81,-150.25 767.24,-156.48 777.83,-156.95 775.81,-150.25"/>
</g>
<!-- Node286 -->
<g id="node10" class="node">
<title>Node286</title>
<g id="a_node10"><a xlink:href="collision__checker__abstract__test__suite_8h.html" target="_top" xlink:title=" ">
<polygon fill="white" stroke="black" points="1015,-67.5 1015,-119.5 1143,-119.5 1143,-67.5 1015,-67.5"/>
<text text-anchor="start" x="1023" y="-107.5" font-family="Helvetica,sans-Serif" font-size="10.00">drake/planning/test</text>
<text text-anchor="start" x="1023" y="-96.5" font-family="Helvetica,sans-Serif" font-size="10.00">_utilities/collision</text>
<text text-anchor="start" x="1023" y="-85.5" font-family="Helvetica,sans-Serif" font-size="10.00">_checker_abstract_test</text>
<text text-anchor="middle" x="1079" y="-74.5" font-family="Helvetica,sans-Serif" font-size="10.00">_suite.h</text>
</a>
</g>
</g>
<!-- Node278&#45;&gt;Node286 -->
<g id="edge9" class="edge">
<title>Node278&#45;&gt;Node286</title>
<path fill="none" stroke="midnightblue" d="M795.42,-160.49C853.67,-152.04 935.57,-138.37 1006,-120 1008.86,-119.25 1011.76,-118.45 1014.69,-117.6"/>
<polygon fill="midnightblue" stroke="midnightblue" points="794.6,-157.07 785.19,-161.96 795.59,-164 794.6,-157.07"/>
</g>
<!-- Node287 -->
<g id="node11" class="node">
<title>Node287</title>
<g id="a_node11"><a xlink:href="unimplemented__collision__checker_8h.html" target="_top" xlink:title=" ">
<polygon fill="white" stroke="black" points="1161.5,-78.5 1161.5,-108.5 1330.5,-108.5 1330.5,-78.5 1161.5,-78.5"/>
<text text-anchor="start" x="1169.5" y="-96.5" font-family="Helvetica,sans-Serif" font-size="10.00">drake/planning/unimplemented</text>
<text text-anchor="middle" x="1246" y="-85.5" font-family="Helvetica,sans-Serif" font-size="10.00">_collision_checker.h</text>
</a>
</g>
</g>
<!-- Node278&#45;&gt;Node287 -->
<g id="edge10" class="edge">
<title>Node278&#45;&gt;Node287</title>
<path fill="none" stroke="midnightblue" d="M795.16,-165.07C882.06,-158.07 1028.15,-143.88 1152,-120 1167.61,-116.99 1184.43,-112.75 1199.46,-108.59"/>
<polygon fill="midnightblue" stroke="midnightblue" points="794.81,-161.58 785.12,-165.86 795.37,-168.56 794.81,-161.58"/>
</g>
<!-- Node288 -->
<g id="node12" class="node">
<title>Node288</title>
<g id="a_node12"><a xlink:href="visibility__graph_8h.html" target="_top" xlink:title=" ">
<polygon fill="white" stroke="black" points="1349,-78.5 1349,-108.5 1483,-108.5 1483,-78.5 1349,-78.5"/>
<text text-anchor="start" x="1357" y="-96.5" font-family="Helvetica,sans-Serif" font-size="10.00">drake/planning/visibility</text>
<text text-anchor="middle" x="1416" y="-85.5" font-family="Helvetica,sans-Serif" font-size="10.00">_graph.h</text>
</a>
</g>
</g>
<!-- Node278&#45;&gt;Node288 -->
<g id="edge11" class="edge">
<title>Node278&#45;&gt;Node288</title>
<path fill="none" stroke="midnightblue" d="M795.01,-170.22C912.91,-168.47 1146.44,-159.73 1340,-120 1353.36,-117.26 1367.63,-112.88 1380.15,-108.52"/>
<polygon fill="midnightblue" stroke="midnightblue" points="794.96,-166.72 785,-170.36 795.05,-173.72 794.96,-166.72"/>
</g>
<!-- Node284 -->
<g id="node8" class="node">
<title>Node284</title>
<g id="a_node8"><a xlink:href="iris__from__clique__cover_8h.html" target="_top" xlink:title=" ">
<polygon fill="white" stroke="black" points="729,-0.5 729,-30.5 867,-30.5 867,-0.5 729,-0.5"/>
<text text-anchor="start" x="737" y="-18.5" font-family="Helvetica,sans-Serif" font-size="10.00">drake/planning/iris</text>
<text text-anchor="middle" x="798" y="-7.5" font-family="Helvetica,sans-Serif" font-size="10.00">/iris_from_clique_cover.h</text>
</a>
</g>
</g>
<!-- Node283&#45;&gt;Node284 -->
<g id="edge7" class="edge">
<title>Node283&#45;&gt;Node284</title>
<path fill="none" stroke="midnightblue" d="M798,-68.09C798,-55.76 798,-41.22 798,-30.73"/>
<polygon fill="midnightblue" stroke="midnightblue" points="794.5,-68.2 798,-78.2 801.5,-68.21 794.5,-68.2"/>
</g>
</g>
</svg>
        <g id="navigator" transform="translate(0 0)" fill="#404254">
                <rect fill="#f2f5e9" fill-opacity="0.5" stroke="#606060" stroke-width=".5" x="0" y="0" width="60" height="60"/>
                <use id="zoomplus" xlink:href="#zoomPlus" x="17" y="9" onmousedown="handleZoom(evt,'in')"/>
                <use id="zoomminus" xlink:href="#zoomMin" x="42" y="9" onmousedown="handleZoom(evt,'out')"/>
                <use id="reset" xlink:href="#resetDef" x="30" y="36" onmousedown="handleReset()"/>
                <g id="arrowUp" xlink:href="#dirArrow" transform="translate(30 24)" onmousedown="handlePan(0,-1)">
                  <use xlink:href="#rim" fill="#404040">
                        <set attributeName="fill" to="#808080" begin="arrowUp.mouseover" end="arrowUp.mouseout"/>
                  </use>
                  <path fill="none" stroke="white" stroke-width="1.5" d="M0,-3.0v7 M-2.5,-0.5L0,-3.0L2.5,-0.5"/>
                </g>
                <g id="arrowRight" xlink:href="#dirArrow" transform="rotate(90) translate(36 -43)" onmousedown="handlePan(1,0)">
                  <use xlink:href="#rim" fill="#404040">
                        <set attributeName="fill" to="#808080" begin="arrowRight.mouseover" end="arrowRight.mouseout"/>
                  </use>
                  <path fill="none" stroke="white" stroke-width="1.5" d="M0,-3.0v7 M-2.5,-0.5L0,-3.0L2.5,-0.5"/>
                </g>
                <g id="arrowDown" xlink:href="#dirArrow" transform="rotate(180) translate(-30 -48)" onmousedown="handlePan(0,1)">
                  <use xlink:href="#rim" fill="#404040">
                        <set attributeName="fill" to="#808080" begin="arrowDown.mouseover" end="arrowDown.mouseout"/>
                  </use>
                  <path fill="none" stroke="white" stroke-width="1.5" d="M0,-3.0v7 M-2.5,-0.5L0,-3.0L2.5,-0.5"/>
                </g>
                <g id="arrowLeft" xlink:href="#dirArrow" transform="rotate(270) translate(-36 17)" onmousedown="handlePan(-1,0)">
                  <use xlink:href="#rim" fill="#404040">
                        <set attributeName="fill" to="#808080" begin="arrowLeft.mouseover" end="arrowLeft.mouseout"/>
                  </use>
                  <path fill="none" stroke="white" stroke-width="1.5" d="M0,-3.0v7 M-2.5,-0.5L0,-3.0L2.5,-0.5"/>
                </g>
        </g>
        <svg viewBox="0 0 15 15" width="100%" height="30px" preserveAspectRatio="xMaxYMin meet">
         <g id="arrow_out" transform="scale(0.3 0.3)">
          <a xlink:href="collision__checker__context_8h__dep__incl_org.svg" target="_base">
           <rect id="button" ry="5" rx="5" y="6" x="6" height="38" width="38"
                fill="#f2f5e9" fill-opacity="0.5" stroke="#606060" stroke-width="1.0"/>
           <path id="arrow"
             d="M 11.500037,31.436501 C 11.940474,20.09759 22.043105,11.32322 32.158766,21.979434 L 37.068811,17.246167 C 37.068811,17.246167 37.088388,32 37.088388,32 L 22.160133,31.978069 C 22.160133,31.978069 26.997745,27.140456 26.997745,27.140456 C 18.528582,18.264221 13.291696,25.230495 11.500037,31.436501 z"
             style="fill:#404040;"/>
          </a>
         </g>
        </svg>
</svg>
