<?xml version="1.0" encoding="UTF-8" standalone="no"?>
<!DOCTYPE svg PUBLIC "-//W3C//DTD SVG 1.1//EN"
 "http://www.w3.org/Graphics/SVG/1.1/DTD/svg11.dtd">
<!-- Generated by graphviz version 2.43.0 (0)
 -->
<!-- Title: drake/planning/collision_checker_params.h Pages: 1 -->
<svg width="2534pt" height="395pt"
 viewBox="0.00 0.00 2534.07 395.24" xmlns="http://www.w3.org/2000/svg" xmlns:xlink="http://www.w3.org/1999/xlink">
<g id="graph0" class="graph" transform="scale(1 1) rotate(0) translate(4 391.24)">
<title>drake/planning/collision_checker_params.h</title>
<!-- Node1 -->
<g id="Node000001" class="node">
<title>Node1</title>
<g id="a_Node000001"><a xlink:title=" ">
<ellipse fill="#999999" stroke="#666666" cx="2226.24" cy="-366.03" rx="93.18" ry="21.43"/>
<text text-anchor="start" x="2168.24" y="-369.03" font-family="Helvetica,sans-Serif" font-size="10.00">drake/planning/collision</text>
<text text-anchor="middle" x="2226.24" y="-358.03" font-family="Helvetica,sans-Serif" font-size="10.00">_checker_params.h</text>
</a>
</g>
</g>
<!-- Node2 -->
<g id="Node000002" class="node">
<title>Node2</title>
<g id="a_Node000002"><a xlink:href="collision__checker_8h.html" target="_top" xlink:title=" ">
<ellipse fill="white" stroke="#666666" cx="1353.24" cy="-287.61" rx="93.18" ry="21.43"/>
<text text-anchor="start" x="1295.24" y="-290.61" font-family="Helvetica,sans-Serif" font-size="10.00">drake/planning/collision</text>
<text text-anchor="middle" x="1353.24" y="-279.61" font-family="Helvetica,sans-Serif" font-size="10.00">_checker.h</text>
</a>
</g>
</g>
<!-- Node1&#45;&gt;Node2 -->
<g id="edge1_Node000001_Node000002" class="edge">
<title>Node1&#45;&gt;Node2</title>
<g id="a_edge1_Node000001_Node000002"><a xlink:title=" ">
<path fill="none" stroke="#63b8ff" d="M2130.52,-356.65C1959.14,-341.65 1602.52,-310.43 1438.78,-296.09"/>
<polygon fill="#63b8ff" stroke="#63b8ff" points="2130.27,-360.14 2140.54,-357.53 2130.89,-353.17 2130.27,-360.14"/>
</a>
</g>
</g>
<!-- Node9 -->
<g id="Node000009" class="node">
<title>Node9</title>
<g id="a_Node000009"><a xlink:href="mbp__environment__collision__checker_8h.html" target="_top" xlink:title=" ">
<ellipse fill="white" stroke="#666666" cx="2043.24" cy="-107.42" rx="111.03" ry="28.98"/>
<text text-anchor="start" x="1972.74" y="-115.92" font-family="Helvetica,sans-Serif" font-size="10.00">drake/planning/experimental</text>
<text text-anchor="start" x="1972.74" y="-104.92" font-family="Helvetica,sans-Serif" font-size="10.00">/mbp_environment_collision</text>
<text text-anchor="middle" x="2043.24" y="-93.92" font-family="Helvetica,sans-Serif" font-size="10.00">_checker.h</text>
</a>
</g>
</g>
<!-- Node1&#45;&gt;Node9 -->
<g id="edge25_Node000001_Node000009" class="edge">
<title>Node1&#45;&gt;Node9</title>
<g id="a_edge25_Node000001_Node000009"><a xlink:title=" ">
<path fill="none" stroke="#63b8ff" d="M2288.42,-345.06C2379.11,-312.84 2530.19,-245.56 2465.24,-172.41 2420.36,-121.87 2229.8,-148.1 2163.24,-136.41 2149.75,-134.04 2135.51,-131.11 2121.73,-128.04"/>
<polygon fill="#63b8ff" stroke="#63b8ff" points="2287.04,-341.84 2278.76,-348.44 2289.35,-348.44 2287.04,-341.84"/>
</a>
</g>
</g>
<!-- Node10 -->
<g id="Node000010" class="node">
<title>Node10</title>
<g id="a_Node000010"><a xlink:href="sphere__robot__model__collision__checker_8h.html" target="_top" xlink:title=" ">
<ellipse fill="white" stroke="#666666" cx="2043.24" cy="-201.4" rx="116.85" ry="28.98"/>
<text text-anchor="start" x="1968.74" y="-209.9" font-family="Helvetica,sans-Serif" font-size="10.00">drake/planning/experimental</text>
<text text-anchor="start" x="1968.74" y="-198.9" font-family="Helvetica,sans-Serif" font-size="10.00">/sphere_robot_model_collision</text>
<text text-anchor="middle" x="2043.24" y="-187.9" font-family="Helvetica,sans-Serif" font-size="10.00">_checker.h</text>
</a>
</g>
</g>
<!-- Node1&#45;&gt;Node10 -->
<g id="edge26_Node000001_Node000010" class="edge">
<title>Node1&#45;&gt;Node10</title>
<g id="a_edge26_Node000001_Node000010"><a xlink:title=" ">
<path fill="none" stroke="#63b8ff" d="M2196.48,-338.58C2162.75,-308.61 2108.04,-259.99 2073.93,-229.67"/>
<polygon fill="#63b8ff" stroke="#63b8ff" points="2194.36,-341.39 2204.16,-345.41 2199.01,-336.16 2194.36,-341.39"/>
</a>
</g>
</g>
<!-- Node12 -->
<g id="Node000012" class="node">
<title>Node12</title>
<g id="a_Node000012"><a xlink:href="voxelized__environment__collision__checker_8h.html" target="_top" xlink:title=" ">
<ellipse fill="white" stroke="#666666" cx="2299.24" cy="-107.42" rx="126.64" ry="28.98"/>
<text text-anchor="start" x="2217.74" y="-115.92" font-family="Helvetica,sans-Serif" font-size="10.00">drake/planning/experimental</text>
<text text-anchor="start" x="2217.74" y="-104.92" font-family="Helvetica,sans-Serif" font-size="10.00">/voxelized_environment_collision</text>
<text text-anchor="middle" x="2299.24" y="-93.92" font-family="Helvetica,sans-Serif" font-size="10.00">_checker.h</text>
</a>
</g>
</g>
<!-- Node1&#45;&gt;Node12 -->
<g id="edge27_Node000001_Node000012" class="edge">
<title>Node1&#45;&gt;Node12</title>
<g id="a_edge27_Node000001_Node000012"><a xlink:title=" ">
<path fill="none" stroke="#63b8ff" d="M2324.05,-357.65C2392.81,-350.19 2476.29,-335.77 2498.24,-308.82 2536.52,-261.81 2533.95,-221.4 2498.24,-172.41 2478.25,-144.99 2446.32,-129.06 2413.83,-119.89"/>
<polygon fill="#63b8ff" stroke="#63b8ff" points="2323.6,-354.18 2314.02,-358.7 2324.33,-361.14 2323.6,-354.18"/>
</a>
</g>
</g>
<!-- Node17 -->
<g id="Node000017" class="node">
<title>Node17</title>
<g id="a_Node000017"><a xlink:href="scene__graph__collision__checker_8h.html" target="_top" xlink:title=" ">
<ellipse fill="white" stroke="#666666" cx="103.24" cy="-201.4" rx="103.48" ry="21.43"/>
<text text-anchor="start" x="38.24" y="-204.4" font-family="Helvetica,sans-Serif" font-size="10.00">drake/planning/scene</text>
<text text-anchor="middle" x="103.24" y="-193.4" font-family="Helvetica,sans-Serif" font-size="10.00">_graph_collision_checker.h</text>
</a>
</g>
</g>
<!-- Node1&#45;&gt;Node17 -->
<g id="edge28_Node000001_Node000017" class="edge">
<title>Node1&#45;&gt;Node17</title>
<g id="a_edge28_Node000001_Node000017"><a xlink:title=" ">
<path fill="none" stroke="#63b8ff" d="M2122.46,-364.89C1824.01,-363.03 938.54,-347.29 215.24,-230.39 197.63,-227.55 178.73,-223.3 161.56,-218.96"/>
<polygon fill="#63b8ff" stroke="#63b8ff" points="2122.81,-368.39 2132.83,-364.95 2122.85,-361.39 2122.81,-368.39"/>
</a>
</g>
</g>
<!-- Node18 -->
<g id="Node000018" class="node">
<title>Node18</title>
<g id="a_Node000018"><a xlink:href="unimplemented__collision__checker_8h.html" target="_top" xlink:title=" ">
<ellipse fill="white" stroke="#666666" cx="2336.24" cy="-201.4" rx="119.5" ry="21.43"/>
<text text-anchor="start" x="2259.74" y="-204.4" font-family="Helvetica,sans-Serif" font-size="10.00">drake/planning/unimplemented</text>
<text text-anchor="middle" x="2336.24" y="-193.4" font-family="Helvetica,sans-Serif" font-size="10.00">_collision_checker.h</text>
</a>
</g>
</g>
<!-- Node1&#45;&gt;Node18 -->
<g id="edge29_Node000001_Node000018" class="edge">
<title>Node1&#45;&gt;Node18</title>
<g id="a_edge29_Node000001_Node000018"><a xlink:title=" ">
<path fill="none" stroke="#63b8ff" d="M2245.8,-336.11C2267.87,-303.48 2303.21,-251.23 2322.53,-222.67"/>
<polygon fill="#63b8ff" stroke="#63b8ff" points="2242.65,-334.52 2239.95,-344.76 2248.45,-338.44 2242.65,-334.52"/>
</a>
</g>
</g>
<!-- Node3 -->
<g id="Node000003" class="node">
<title>Node3</title>
<g id="a_Node000003"><a xlink:href="differential__inverse__kinematics__system_8h.html" target="_top" xlink:title=" ">
<ellipse fill="white" stroke="#666666" cx="1280.24" cy="-201.4" rx="118.17" ry="28.98"/>
<text text-anchor="start" x="1204.74" y="-209.9" font-family="Helvetica,sans-Serif" font-size="10.00">drake/multibody/inverse</text>
<text text-anchor="start" x="1204.74" y="-198.9" font-family="Helvetica,sans-Serif" font-size="10.00">_kinematics/differential</text>
<text text-anchor="middle" x="1280.24" y="-187.9" font-family="Helvetica,sans-Serif" font-size="10.00">_inverse_kinematics_system.h</text>
</a>
</g>
</g>
<!-- Node2&#45;&gt;Node3 -->
<g id="edge2_Node000002_Node000003" class="edge">
<title>Node2&#45;&gt;Node3</title>
<g id="a_edge2_Node000002_Node000003"><a xlink:title=" ">
<path fill="none" stroke="#63b8ff" d="M1329.38,-259.08C1321.25,-249.71 1312.17,-239.23 1304.04,-229.86"/>
<polygon fill="#63b8ff" stroke="#63b8ff" points="1326.74,-261.39 1335.94,-266.65 1332.03,-256.8 1326.74,-261.39"/>
</a>
</g>
</g>
<!-- Node5 -->
<g id="Node000005" class="node">
<title>Node5</title>
<g id="a_Node000005"><a xlink:href="distance__constraint__utilities_8h.html" target="_top" xlink:title=" ">
<ellipse fill="white" stroke="#666666" cx="1785.24" cy="-201.4" rx="123.07" ry="28.98"/>
<text text-anchor="start" x="1706.24" y="-209.9" font-family="Helvetica,sans-Serif" font-size="10.00">drake/multibody/inverse</text>
<text text-anchor="start" x="1706.24" y="-198.9" font-family="Helvetica,sans-Serif" font-size="10.00">_kinematics/distance_constraint</text>
<text text-anchor="middle" x="1785.24" y="-187.9" font-family="Helvetica,sans-Serif" font-size="10.00">_utilities.h</text>
</a>
</g>
</g>
<!-- Node2&#45;&gt;Node5 -->
<g id="edge4_Node000002_Node000005" class="edge">
<title>Node2&#45;&gt;Node5</title>
<g id="a_edge4_Node000002_Node000005"><a xlink:title=" ">
<path fill="none" stroke="#63b8ff" d="M1434.11,-271.99C1494.55,-260.94 1579.16,-245.19 1653.24,-230.39 1667.25,-227.59 1682.08,-224.54 1696.54,-221.51"/>
<polygon fill="#63b8ff" stroke="#63b8ff" points="1433.46,-268.55 1424.25,-273.79 1434.71,-275.44 1433.46,-268.55"/>
</a>
</g>
</g>
<!-- Node6 -->
<g id="Node000006" class="node">
<title>Node6</title>
<g id="a_Node000006"><a xlink:href="minimum__distance__lower__bound__constraint_8h.html" target="_top" xlink:title=" ">
<ellipse fill="white" stroke="#666666" cx="554.24" cy="-201.4" rx="122.16" ry="28.98"/>
<text text-anchor="start" x="475.74" y="-209.9" font-family="Helvetica,sans-Serif" font-size="10.00">drake/multibody/inverse</text>
<text text-anchor="start" x="475.74" y="-198.9" font-family="Helvetica,sans-Serif" font-size="10.00">_kinematics/minimum_distance</text>
<text text-anchor="middle" x="554.24" y="-187.9" font-family="Helvetica,sans-Serif" font-size="10.00">_lower_bound_constraint.h</text>
</a>
</g>
</g>
<!-- Node2&#45;&gt;Node6 -->
<g id="edge5_Node000002_Node000006" class="edge">
<title>Node2&#45;&gt;Node6</title>
<g id="a_edge5_Node000002_Node000006"><a xlink:title=" ">
<path fill="none" stroke="#63b8ff" d="M1252.45,-282.04C1121.44,-275.2 885.82,-259.85 686.24,-230.39 671.17,-228.17 655.25,-225.27 639.87,-222.18"/>
<polygon fill="#63b8ff" stroke="#63b8ff" points="1252.3,-285.53 1262.47,-282.55 1252.67,-278.54 1252.3,-285.53"/>
</a>
</g>
</g>
<!-- Node7 -->
<g id="Node000007" class="node">
<title>Node7</title>
<g id="a_Node000007"><a xlink:href="minimum__distance__upper__bound__constraint_8h.html" target="_top" xlink:title=" ">
<ellipse fill="white" stroke="#666666" cx="817.24" cy="-201.4" rx="122.16" ry="28.98"/>
<text text-anchor="start" x="738.74" y="-209.9" font-family="Helvetica,sans-Serif" font-size="10.00">drake/multibody/inverse</text>
<text text-anchor="start" x="738.74" y="-198.9" font-family="Helvetica,sans-Serif" font-size="10.00">_kinematics/minimum_distance</text>
<text text-anchor="middle" x="817.24" y="-187.9" font-family="Helvetica,sans-Serif" font-size="10.00">_upper_bound_constraint.h</text>
</a>
</g>
</g>
<!-- Node2&#45;&gt;Node7 -->
<g id="edge6_Node000002_Node000007" class="edge">
<title>Node2&#45;&gt;Node7</title>
<g id="a_edge6_Node000002_Node000007"><a xlink:title=" ">
<path fill="none" stroke="#63b8ff" d="M1262.06,-275.79C1179.99,-265.61 1056.2,-249.15 949.24,-230.39 934.7,-227.84 919.32,-224.85 904.4,-221.79"/>
<polygon fill="#63b8ff" stroke="#63b8ff" points="1261.75,-279.28 1272.11,-277.03 1262.61,-272.33 1261.75,-279.28"/>
</a>
</g>
</g>
<!-- Node8 -->
<g id="Node000008" class="node">
<title>Node8</title>
<g id="a_Node000008"><a xlink:href="collision__avoidance_8h.html" target="_top" xlink:title=" ">
<ellipse fill="white" stroke="#666666" cx="1051.24" cy="-201.4" rx="93.18" ry="21.43"/>
<text text-anchor="start" x="993.24" y="-204.4" font-family="Helvetica,sans-Serif" font-size="10.00">drake/planning/collision</text>
<text text-anchor="middle" x="1051.24" y="-193.4" font-family="Helvetica,sans-Serif" font-size="10.00">_avoidance.h</text>
</a>
</g>
</g>
<!-- Node2&#45;&gt;Node8 -->
<g id="edge7_Node000002_Node000008" class="edge">
<title>Node2&#45;&gt;Node8</title>
<g id="a_edge7_Node000002_Node000008"><a xlink:title=" ">
<path fill="none" stroke="#63b8ff" d="M1286.69,-268.05C1233.18,-253.13 1158.79,-232.39 1108.04,-218.24"/>
<polygon fill="#63b8ff" stroke="#63b8ff" points="1285.86,-271.45 1296.43,-270.77 1287.74,-264.71 1285.86,-271.45"/>
</a>
</g>
</g>
<!-- Node2&#45;&gt;Node9 -->
<g id="edge8_Node000002_Node000009" class="edge">
<title>Node2&#45;&gt;Node9</title>
<g id="a_edge8_Node000002_Node000009"><a xlink:title=" ">
<path fill="none" stroke="#63b8ff" d="M1381.07,-259.67C1389.82,-250.68 1399.27,-240.4 1407.24,-230.39 1426.44,-206.29 1418.7,-188.06 1445.24,-172.41 1536.99,-118.29 1817.95,-152.56 1923.24,-136.41 1937.09,-134.29 1951.71,-131.42 1965.79,-128.32"/>
<polygon fill="#63b8ff" stroke="#63b8ff" points="1378.48,-257.31 1373.94,-266.88 1383.46,-262.23 1378.48,-257.31"/>
</a>
</g>
</g>
<!-- Node2&#45;&gt;Node10 -->
<g id="edge9_Node000002_Node000010" class="edge">
<title>Node2&#45;&gt;Node10</title>
<g id="a_edge9_Node000002_Node000010"><a xlink:title=" ">
<path fill="none" stroke="#63b8ff" d="M1452.08,-280.34C1565.05,-272.35 1755.25,-256.36 1917.24,-230.39 1931.51,-228.1 1946.59,-225.19 1961.16,-222.12"/>
<polygon fill="#63b8ff" stroke="#63b8ff" points="1451.8,-276.85 1442.07,-281.04 1452.29,-283.83 1451.8,-276.85"/>
</a>
</g>
</g>
<!-- Node2&#45;&gt;Node12 -->
<g id="edge13_Node000002_Node000012" class="edge">
<title>Node2&#45;&gt;Node12</title>
<g id="a_edge13_Node000002_Node000012"><a xlink:title=" ">
<path fill="none" stroke="#63b8ff" d="M1456.21,-284.6C1661.91,-279.85 2109.13,-265.58 2169.24,-230.39 2195.83,-214.82 2185.75,-194.49 2207.24,-172.41 2221.08,-158.18 2238.49,-145.14 2254.44,-134.59"/>
<polygon fill="#63b8ff" stroke="#63b8ff" points="1455.92,-281.1 1446,-284.83 1456.08,-288.1 1455.92,-281.1"/>
</a>
</g>
</g>
<!-- Node13 -->
<g id="Node000013" class="node">
<title>Node13</title>
<g id="a_Node000013"><a xlink:href="iris__common_8h.html" target="_top" xlink:title=" ">
<ellipse fill="white" stroke="#666666" cx="300.24" cy="-201.4" rx="75.82" ry="21.43"/>
<text text-anchor="start" x="254.74" y="-204.4" font-family="Helvetica,sans-Serif" font-size="10.00">drake/planning/iris</text>
<text text-anchor="middle" x="300.24" y="-193.4" font-family="Helvetica,sans-Serif" font-size="10.00">/iris_common.h</text>
</a>
</g>
</g>
<!-- Node2&#45;&gt;Node13 -->
<g id="edge14_Node000002_Node000013" class="edge">
<title>Node2&#45;&gt;Node13</title>
<g id="a_edge14_Node000002_Node000013"><a xlink:title=" ">
<path fill="none" stroke="#63b8ff" d="M1250.9,-283.78C1037.84,-277.38 552.96,-259.99 390.24,-230.39 375.27,-227.67 359.29,-223.23 345.02,-218.68"/>
<polygon fill="#63b8ff" stroke="#63b8ff" points="1251.04,-287.28 1261.14,-284.08 1251.25,-280.29 1251.04,-287.28"/>
</a>
</g>
</g>
<!-- Node16 -->
<g id="Node000016" class="node">
<title>Node16</title>
<g id="a_Node000016"><a xlink:href="iris__zo_8h.html" target="_top" xlink:title=" ">
<ellipse fill="white" stroke="#666666" cx="376.24" cy="-107.42" rx="75.82" ry="21.43"/>
<text text-anchor="start" x="330.74" y="-110.42" font-family="Helvetica,sans-Serif" font-size="10.00">drake/planning/iris</text>
<text text-anchor="middle" x="376.24" y="-99.42" font-family="Helvetica,sans-Serif" font-size="10.00">/iris_zo.h</text>
</a>
</g>
</g>
<!-- Node2&#45;&gt;Node16 -->
<g id="edge19_Node000002_Node000016" class="edge">
<title>Node2&#45;&gt;Node16</title>
<g id="a_edge19_Node000002_Node000016"><a xlink:title=" ">
<path fill="none" stroke="#63b8ff" d="M1250.94,-283.38C1016.16,-275.57 456.2,-254.51 423.24,-230.39 390.64,-206.54 380.65,-156.89 377.59,-128.84"/>
<polygon fill="#63b8ff" stroke="#63b8ff" points="1251.09,-286.88 1261.2,-283.72 1251.32,-279.89 1251.09,-286.88"/>
</a>
</g>
</g>
<!-- Node2&#45;&gt;Node17 -->
<g id="edge20_Node000002_Node000017" class="edge">
<title>Node2&#45;&gt;Node17</title>
<g id="a_edge20_Node000002_Node000017"><a xlink:title=" ">
<path fill="none" stroke="#63b8ff" d="M1250.75,-284.11C1009.9,-277.83 413.32,-259.75 215.24,-230.39 197.3,-227.73 178.04,-223.46 160.65,-219.04"/>
<polygon fill="#63b8ff" stroke="#63b8ff" points="1250.81,-287.61 1260.9,-284.37 1251,-280.62 1250.81,-287.61"/>
</a>
</g>
</g>
<!-- Node2&#45;&gt;Node18 -->
<g id="edge23_Node000002_Node000018" class="edge">
<title>Node2&#45;&gt;Node18</title>
<g id="a_edge23_Node000002_Node000018"><a xlink:title=" ">
<path fill="none" stroke="#63b8ff" d="M1456.33,-284.42C1616.56,-279.99 1934.79,-267 2202.24,-230.39 2223.43,-227.49 2246.28,-223.17 2267.01,-218.79"/>
<polygon fill="#63b8ff" stroke="#63b8ff" points="1455.9,-280.93 1446,-284.7 1456.09,-287.93 1455.9,-280.93"/>
</a>
</g>
</g>
<!-- Node19 -->
<g id="Node000019" class="node">
<title>Node19</title>
<g id="a_Node000019"><a xlink:href="visibility__graph_8h.html" target="_top" xlink:title=" ">
<ellipse fill="white" stroke="#666666" cx="1549.24" cy="-201.4" rx="94.51" ry="21.43"/>
<text text-anchor="start" x="1490.24" y="-204.4" font-family="Helvetica,sans-Serif" font-size="10.00">drake/planning/visibility</text>
<text text-anchor="middle" x="1549.24" y="-193.4" font-family="Helvetica,sans-Serif" font-size="10.00">_graph.h</text>
</a>
</g>
</g>
<!-- Node2&#45;&gt;Node19 -->
<g id="edge24_Node000002_Node000019" class="edge">
<title>Node2&#45;&gt;Node19</title>
<g id="a_edge24_Node000002_Node000019"><a xlink:title=" ">
<path fill="none" stroke="#63b8ff" d="M1404.49,-264.59C1436.49,-250.84 1477.18,-233.36 1507.26,-220.43"/>
<polygon fill="#63b8ff" stroke="#63b8ff" points="1403.09,-261.38 1395.28,-268.54 1405.85,-267.81 1403.09,-261.38"/>
</a>
</g>
</g>
<!-- Node4 -->
<g id="Node000004" class="node">
<title>Node4</title>
<g id="a_Node000004"><a xlink:href="differential__inverse__kinematics__controller_8h.html" target="_top" xlink:title=" ">
<ellipse fill="white" stroke="#666666" cx="1280.24" cy="-107.42" rx="125.32" ry="28.98"/>
<text text-anchor="start" x="1199.74" y="-115.92" font-family="Helvetica,sans-Serif" font-size="10.00">drake/multibody/inverse</text>
<text text-anchor="start" x="1199.74" y="-104.92" font-family="Helvetica,sans-Serif" font-size="10.00">_kinematics/differential</text>
<text text-anchor="middle" x="1280.24" y="-93.92" font-family="Helvetica,sans-Serif" font-size="10.00">_inverse_kinematics_controller.h</text>
</a>
</g>
</g>
<!-- Node3&#45;&gt;Node4 -->
<g id="edge3_Node000003_Node000004" class="edge">
<title>Node3&#45;&gt;Node4</title>
<g id="a_edge3_Node000003_Node000004"><a xlink:title=" ">
<path fill="none" stroke="#63b8ff" d="M1280.24,-162.15C1280.24,-153.61 1280.24,-144.71 1280.24,-136.66"/>
<polygon fill="#63b8ff" stroke="#63b8ff" points="1276.74,-162.3 1280.24,-172.3 1283.74,-162.3 1276.74,-162.3"/>
</a>
</g>
</g>
<!-- Node10&#45;&gt;Node9 -->
<g id="edge10_Node000010_Node000009" class="edge">
<title>Node10&#45;&gt;Node9</title>
<g id="a_edge10_Node000010_Node000009"><a xlink:title=" ">
<path fill="none" stroke="#63b8ff" d="M2043.24,-162.15C2043.24,-153.61 2043.24,-144.71 2043.24,-136.66"/>
<polygon fill="#63b8ff" stroke="#63b8ff" points="2039.74,-162.3 2043.24,-172.3 2046.74,-162.3 2039.74,-162.3"/>
</a>
</g>
</g>
<!-- Node11 -->
<g id="Node000011" class="node">
<title>Node11</title>
<g id="a_Node000011"><a xlink:href="voxel__self__filter_8h.html" target="_top" xlink:title=" ">
<ellipse fill="white" stroke="#666666" cx="1803.24" cy="-107.42" rx="111.03" ry="21.43"/>
<text text-anchor="start" x="1732.74" y="-110.42" font-family="Helvetica,sans-Serif" font-size="10.00">drake/planning/experimental</text>
<text text-anchor="middle" x="1803.24" y="-99.42" font-family="Helvetica,sans-Serif" font-size="10.00">/voxel_self_filter.h</text>
</a>
</g>
</g>
<!-- Node10&#45;&gt;Node11 -->
<g id="edge11_Node000010_Node000011" class="edge">
<title>Node10&#45;&gt;Node11</title>
<g id="a_edge11_Node000010_Node000011"><a xlink:title=" ">
<path fill="none" stroke="#63b8ff" d="M1971.69,-172.98C1932.63,-158.01 1885.34,-139.88 1850.82,-126.65"/>
<polygon fill="#63b8ff" stroke="#63b8ff" points="1970.84,-176.4 1981.43,-176.71 1973.35,-169.87 1970.84,-176.4"/>
</a>
</g>
</g>
<!-- Node10&#45;&gt;Node12 -->
<g id="edge12_Node000010_Node000012" class="edge">
<title>Node10&#45;&gt;Node12</title>
<g id="a_edge12_Node000010_Node000012"><a xlink:title=" ">
<path fill="none" stroke="#63b8ff" d="M2117.43,-173.74C2153.91,-160.63 2197.51,-144.97 2232.87,-132.26"/>
<polygon fill="#63b8ff" stroke="#63b8ff" points="2116.06,-170.51 2107.84,-177.19 2118.43,-177.1 2116.06,-170.51"/>
</a>
</g>
</g>
<!-- Node14 -->
<g id="Node000014" class="node">
<title>Node14</title>
<g id="a_Node000014"><a xlink:href="iris__np2_8h.html" target="_top" xlink:title=" ">
<ellipse fill="white" stroke="#666666" cx="207.24" cy="-107.42" rx="75.82" ry="21.43"/>
<text text-anchor="start" x="161.74" y="-110.42" font-family="Helvetica,sans-Serif" font-size="10.00">drake/planning/iris</text>
<text text-anchor="middle" x="207.24" y="-99.42" font-family="Helvetica,sans-Serif" font-size="10.00">/iris_np2.h</text>
</a>
</g>
</g>
<!-- Node13&#45;&gt;Node14 -->
<g id="edge15_Node000013_Node000014" class="edge">
<title>Node13&#45;&gt;Node14</title>
<g id="a_edge15_Node000013_Node000014"><a xlink:title=" ">
<path fill="none" stroke="#63b8ff" d="M273.17,-173.63C258.49,-159.11 240.67,-141.48 227.25,-128.21"/>
<polygon fill="#63b8ff" stroke="#63b8ff" points="270.94,-176.35 280.51,-180.89 275.87,-171.37 270.94,-176.35"/>
</a>
</g>
</g>
<!-- Node13&#45;&gt;Node16 -->
<g id="edge17_Node000013_Node000016" class="edge">
<title>Node13&#45;&gt;Node16</title>
<g id="a_edge17_Node000013_Node000016"><a xlink:title=" ">
<path fill="none" stroke="#63b8ff" d="M323.35,-172.43C335.11,-158.2 349.13,-141.23 359.78,-128.34"/>
<polygon fill="#63b8ff" stroke="#63b8ff" points="320.4,-170.5 316.73,-180.44 325.8,-174.96 320.4,-170.5"/>
</a>
</g>
</g>
<!-- Node15 -->
<g id="Node000015" class="node">
<title>Node15</title>
<g id="a_Node000015"><a xlink:href="iris__from__clique__cover_8h.html" target="_top" xlink:title=" ">
<ellipse fill="white" stroke="#666666" cx="207.24" cy="-21.21" rx="97.66" ry="21.43"/>
<text text-anchor="start" x="146.24" y="-24.21" font-family="Helvetica,sans-Serif" font-size="10.00">drake/planning/iris</text>
<text text-anchor="middle" x="207.24" y="-13.21" font-family="Helvetica,sans-Serif" font-size="10.00">/iris_from_clique_cover.h</text>
</a>
</g>
</g>
<!-- Node14&#45;&gt;Node15 -->
<g id="edge16_Node000014_Node000015" class="edge">
<title>Node14&#45;&gt;Node15</title>
<g id="a_edge16_Node000014_Node000015"><a xlink:title=" ">
<path fill="none" stroke="#63b8ff" d="M207.24,-75.91C207.24,-64.87 207.24,-52.68 207.24,-42.7"/>
<polygon fill="#63b8ff" stroke="#63b8ff" points="203.74,-76.03 207.24,-86.03 210.74,-76.03 203.74,-76.03"/>
</a>
</g>
</g>
<!-- Node16&#45;&gt;Node15 -->
<g id="edge18_Node000016_Node000015" class="edge">
<title>Node16&#45;&gt;Node15</title>
<g id="a_edge18_Node000016_Node000015"><a xlink:title=" ">
<path fill="none" stroke="#63b8ff" d="M331.17,-83.96C304.19,-70.52 270.3,-53.64 244.78,-40.92"/>
<polygon fill="#63b8ff" stroke="#63b8ff" points="329.89,-87.23 340.4,-88.56 333.01,-80.97 329.89,-87.23"/>
</a>
</g>
</g>
<!-- Node17&#45;&gt;Node14 -->
<g id="edge22_Node000017_Node000014" class="edge">
<title>Node17&#45;&gt;Node14</title>
<g id="a_edge22_Node000017_Node000014"><a xlink:title=" ">
<path fill="none" stroke="#63b8ff" d="M133.37,-173.75C149.98,-159.06 170.23,-141.15 185.32,-127.8"/>
<polygon fill="#63b8ff" stroke="#63b8ff" points="130.72,-171.42 125.55,-180.67 135.36,-176.66 130.72,-171.42"/>
</a>
</g>
</g>
<!-- Node17&#45;&gt;Node15 -->
<g id="edge21_Node000017_Node000015" class="edge">
<title>Node17&#45;&gt;Node15</title>
<g id="a_edge21_Node000017_Node000015"><a xlink:title=" ">
<path fill="none" stroke="#63b8ff" d="M101.39,-169.97C101.24,-143.73 104.64,-105.85 122.24,-78.43 132.65,-62.2 149.61,-49.6 165.65,-40.48"/>
<polygon fill="#63b8ff" stroke="#63b8ff" points="97.89,-170.17 101.62,-180.09 104.89,-170.01 97.89,-170.17"/>
</a>
</g>
</g>
</g>
</svg>
