<?xml version="1.0" encoding="UTF-8" standalone="no"?>
<!DOCTYPE svg PUBLIC "-//W3C//DTD SVG 1.1//EN"
 "http://www.w3.org/Graphics/SVG/1.1/DTD/svg11.dtd">
<!-- Generated by graphviz version 2.43.0 (0)
 -->
<!-- Title: drake/systems/sensors/color_palette.h Pages: 1 -->
<!--zoomable 296 -->
<svg id="main" version="1.1" xmlns="http://www.w3.org/2000/svg" xmlns:xlink="http://www.w3.org/1999/xlink" xml:space="preserve" onload="init(evt)">
<style type="text/css"><![CDATA[
.edge:hover path { stroke: red; }
.edge:hover polygon { stroke: red; fill: red; }
]]></style>
<script type="text/javascript"><![CDATA[
var edges = document.getElementsByTagName('g');
if (edges && edges.length) {
  for (var i=0;i<edges.length;i++) {
    if (edges[i].id.substr(0,4)=='edge') {
      edges[i].setAttribute('class','edge');
    }
  }
}
]]></script>
        <defs>
                <circle id="rim" cx="0" cy="0" r="7"/>
                <circle id="rim2" cx="0" cy="0" r="3.5"/>
                <g id="zoomPlus">
                        <use xlink:href="#rim" fill="#404040">
                                <set attributeName="fill" to="#808080" begin="zoomplus.mouseover" end="zoomplus.mouseout"/>
                        </use>
                        <path d="M-4,0h8M0,-4v8" fill="none" stroke="white" stroke-width="1.5" pointer-events="none"/>
                </g>
                <g id="zoomMin">
                        <use xlink:href="#rim" fill="#404040">
                                <set attributeName="fill" to="#808080" begin="zoomminus.mouseover" end="zoomminus.mouseout"/>
                        </use>
                        <path d="M-4,0h8" fill="none" stroke="white" stroke-width="1.5" pointer-events="none"/>
                </g>
                <g id="dirArrow">
                        <path fill="none" stroke="white" stroke-width="1.5" d="M0,-3.0v7 M-2.5,-0.5L0,-3.0L2.5,-0.5"/>
                </g>
               <g id="resetDef">
                       <use xlink:href="#rim2" fill="#404040">
                               <set attributeName="fill" to="#808080" begin="reset.mouseover" end="reset.mouseout"/>
                       </use>
               </g>
        </defs>

<script type="text/javascript">
var viewWidth = 1433;
var viewHeight = 296;
var sectionId = 'dynsection-0';
</script>
<script xlink:href="svgpan.js"/>
<svg id="graph" class="graph">
<g id="viewport">
<title>drake/systems/sensors/color_palette.h</title>
<polygon fill="white" stroke="transparent" points="-4,4 -4,-292 1429,-292 1429,4 -4,4"/>
<!-- Node0 -->
<g id="node1" class="node">
<title>Node0</title>
<g id="a_node1"><a xlink:title=" ">
<polygon fill="#bfbfbf" stroke="black" points="779.5,-257.5 779.5,-287.5 907.5,-287.5 907.5,-257.5 779.5,-257.5"/>
<text text-anchor="start" x="787.5" y="-275.5" font-family="Helvetica,sans-Serif" font-size="10.00">drake/systems/sensors</text>
<text text-anchor="middle" x="843.5" y="-264.5" font-family="Helvetica,sans-Serif" font-size="10.00">/color_palette.h</text>
</a>
</g>
</g>
<!-- Node1 -->
<g id="node2" class="node">
<title>Node1</title>
<g id="a_node2"><a xlink:title=" ">
<polygon fill="white" stroke="#bfbfbf" points="0,-129 0,-148 65,-148 65,-129 0,-129"/>
<text text-anchor="middle" x="32.5" y="-136" font-family="Helvetica,sans-Serif" font-size="10.00">functional</text>
</a>
</g>
</g>
<!-- Node0&#45;&gt;Node1 -->
<g id="edge1" class="edge">
<title>Node0&#45;&gt;Node1</title>
<path fill="none" stroke="midnightblue" d="M779.45,-271.72C669.76,-270.85 439.51,-263.54 250.5,-221 179.3,-204.98 100.06,-171 59.56,-152.37"/>
<polygon fill="midnightblue" stroke="midnightblue" points="60.9,-149.14 50.36,-148.1 57.95,-155.49 60.9,-149.14"/>
</g>
<!-- Node2 -->
<g id="node3" class="node">
<title>Node2</title>
<g id="a_node3"><a xlink:title=" ">
<polygon fill="white" stroke="#bfbfbf" points="844,-196 844,-215 901,-215 901,-196 844,-196"/>
<text text-anchor="middle" x="872.5" y="-203" font-family="Helvetica,sans-Serif" font-size="10.00">ostream</text>
</a>
</g>
</g>
<!-- Node0&#45;&gt;Node2 -->
<g id="edge2" class="edge">
<title>Node0&#45;&gt;Node2</title>
<path fill="none" stroke="midnightblue" d="M849.79,-257.4C854.09,-247.76 859.82,-234.91 864.45,-224.54"/>
<polygon fill="midnightblue" stroke="midnightblue" points="867.74,-225.75 868.62,-215.19 861.35,-222.9 867.74,-225.75"/>
</g>
<!-- Node3 -->
<g id="node4" class="node">
<title>Node3</title>
<g id="a_node4"><a xlink:title=" ">
<polygon fill="white" stroke="#bfbfbf" points="919,-196 919,-215 1012,-215 1012,-196 919,-196"/>
<text text-anchor="middle" x="965.5" y="-203" font-family="Helvetica,sans-Serif" font-size="10.00">unordered_map</text>
</a>
</g>
</g>
<!-- Node0&#45;&gt;Node3 -->
<g id="edge3" class="edge">
<title>Node0&#45;&gt;Node3</title>
<path fill="none" stroke="midnightblue" d="M869.97,-257.4C890.9,-246.24 919.93,-230.78 940.47,-219.83"/>
<polygon fill="midnightblue" stroke="midnightblue" points="942.35,-222.8 949.53,-215.01 939.06,-216.62 942.35,-222.8"/>
</g>
<!-- Node4 -->
<g id="node5" class="node">
<title>Node4</title>
<g id="a_node5"><a xlink:title=" ">
<polygon fill="white" stroke="#bfbfbf" points="83,-129 83,-148 130,-148 130,-129 83,-129"/>
<text text-anchor="middle" x="106.5" y="-136" font-family="Helvetica,sans-Serif" font-size="10.00">vector</text>
</a>
</g>
</g>
<!-- Node0&#45;&gt;Node4 -->
<g id="edge4" class="edge">
<title>Node0&#45;&gt;Node4</title>
<path fill="none" stroke="midnightblue" d="M779.24,-267.83C689.69,-261.94 522.59,-248.2 382.5,-221 274.62,-200.06 248.83,-188.51 144.5,-154 142.24,-153.25 139.91,-152.45 137.58,-151.62"/>
<polygon fill="midnightblue" stroke="midnightblue" points="138.68,-148.29 128.08,-148.12 136.26,-154.86 138.68,-148.29"/>
</g>
<!-- Node5 -->
<g id="node6" class="node">
<title>Node5</title>
<g id="a_node6"><a xlink:href="drake__assert_8h.html" target="_top" xlink:title="Provides Drake&#39;s assertion implementation.">
<polygon fill="white" stroke="black" points="308,-56.5 308,-86.5 427,-86.5 427,-56.5 308,-56.5"/>
<text text-anchor="start" x="316" y="-74.5" font-family="Helvetica,sans-Serif" font-size="10.00">drake/common/drake</text>
<text text-anchor="middle" x="367.5" y="-63.5" font-family="Helvetica,sans-Serif" font-size="10.00">_assert.h</text>
</a>
</g>
</g>
<!-- Node0&#45;&gt;Node5 -->
<g id="edge5" class="edge">
<title>Node0&#45;&gt;Node5</title>
<path fill="none" stroke="midnightblue" d="M840.91,-257.29C834.48,-223.61 816.75,-140.46 795.5,-123 742.3,-79.29 544.34,-72.33 437.29,-71.87"/>
<polygon fill="midnightblue" stroke="midnightblue" points="437.23,-68.37 427.22,-71.84 437.22,-75.37 437.23,-68.37"/>
</g>
<!-- Node7 -->
<g id="node8" class="node">
<title>Node7</title>
<g id="a_node8"><a xlink:href="drake__copyable_8h.html" target="_top" xlink:title="Provides careful macros to selectively enable or disable the special member functions for copy&#45;constr...">
<polygon fill="white" stroke="black" points="1030,-190.5 1030,-220.5 1149,-220.5 1149,-190.5 1030,-190.5"/>
<text text-anchor="start" x="1038" y="-208.5" font-family="Helvetica,sans-Serif" font-size="10.00">drake/common/drake</text>
<text text-anchor="middle" x="1089.5" y="-197.5" font-family="Helvetica,sans-Serif" font-size="10.00">_copyable.h</text>
</a>
</g>
</g>
<!-- Node0&#45;&gt;Node7 -->
<g id="edge7" class="edge">
<title>Node0&#45;&gt;Node7</title>
<path fill="none" stroke="midnightblue" d="M896.58,-257.48C934.68,-247.41 986.18,-233.8 1026.39,-223.17"/>
<polygon fill="midnightblue" stroke="midnightblue" points="1027.32,-226.55 1036.1,-220.61 1025.53,-219.78 1027.32,-226.55"/>
</g>
<!-- Node8 -->
<g id="node9" class="node">
<title>Node8</title>
<g id="a_node9"><a xlink:href="fmt__ostream_8h.html" target="_top" xlink:title=" ">
<polygon fill="white" stroke="black" points="1167.5,-196 1167.5,-215 1331.5,-215 1331.5,-196 1167.5,-196"/>
<text text-anchor="middle" x="1249.5" y="-203" font-family="Helvetica,sans-Serif" font-size="10.00">drake/common/fmt_ostream.h</text>
</a>
</g>
</g>
<!-- Node0&#45;&gt;Node8 -->
<g id="edge8" class="edge">
<title>Node0&#45;&gt;Node8</title>
<path fill="none" stroke="midnightblue" d="M907.83,-261.2C984.12,-248.99 1110.45,-228.76 1186.26,-216.62"/>
<polygon fill="midnightblue" stroke="midnightblue" points="1186.83,-220.08 1196.15,-215.04 1185.73,-213.17 1186.83,-220.08"/>
</g>
<!-- Node14 -->
<g id="node15" class="node">
<title>Node14</title>
<g id="a_node15"><a xlink:href="hash_8h.html" target="_top" xlink:title=" ">
<polygon fill="white" stroke="black" points="392,-196 392,-215 517,-215 517,-196 392,-196"/>
<text text-anchor="middle" x="454.5" y="-203" font-family="Helvetica,sans-Serif" font-size="10.00">drake/common/hash.h</text>
</a>
</g>
</g>
<!-- Node0&#45;&gt;Node14 -->
<g id="edge15" class="edge">
<title>Node0&#45;&gt;Node14</title>
<path fill="none" stroke="midnightblue" d="M779.26,-260.77C706.15,-248.55 587.57,-228.74 515.73,-216.73"/>
<polygon fill="midnightblue" stroke="midnightblue" points="515.92,-213.21 505.48,-215.02 514.76,-220.12 515.92,-213.21"/>
</g>
<!-- Node6 -->
<g id="node7" class="node">
<title>Node6</title>
<g id="a_node7"><a xlink:title=" ">
<polygon fill="white" stroke="#bfbfbf" points="212,-0.5 212,-19.5 281,-19.5 281,-0.5 212,-0.5"/>
<text text-anchor="middle" x="246.5" y="-7.5" font-family="Helvetica,sans-Serif" font-size="10.00">type_traits</text>
</a>
</g>
</g>
<!-- Node5&#45;&gt;Node6 -->
<g id="edge6" class="edge">
<title>Node5&#45;&gt;Node6</title>
<path fill="none" stroke="midnightblue" d="M338.82,-56.4C318.98,-46.64 292.74,-33.74 273.31,-24.18"/>
<polygon fill="midnightblue" stroke="midnightblue" points="274.62,-20.93 264.11,-19.66 271.54,-27.21 274.62,-20.93"/>
</g>
<!-- Node9 -->
<g id="node10" class="node">
<title>Node9</title>
<g id="a_node10"><a xlink:title=" ">
<polygon fill="white" stroke="#bfbfbf" points="1193.5,-129 1193.5,-148 1249.5,-148 1249.5,-129 1193.5,-129"/>
<text text-anchor="middle" x="1221.5" y="-136" font-family="Helvetica,sans-Serif" font-size="10.00">sstream</text>
</a>
</g>
</g>
<!-- Node8&#45;&gt;Node9 -->
<g id="edge9" class="edge">
<title>Node8&#45;&gt;Node9</title>
<path fill="none" stroke="midnightblue" d="M1245.72,-195.73C1241.53,-185.99 1234.63,-169.98 1229.27,-157.53"/>
<polygon fill="midnightblue" stroke="midnightblue" points="1232.39,-155.93 1225.22,-148.13 1225.96,-158.7 1232.39,-155.93"/>
</g>
<!-- Node10 -->
<g id="node11" class="node">
<title>Node10</title>
<g id="a_node11"><a xlink:title=" ">
<polygon fill="white" stroke="#bfbfbf" points="1241,-62 1241,-81 1314,-81 1314,-62 1241,-62"/>
<text text-anchor="middle" x="1277.5" y="-69" font-family="Helvetica,sans-Serif" font-size="10.00">string_view</text>
</a>
</g>
</g>
<!-- Node8&#45;&gt;Node10 -->
<g id="edge10" class="edge">
<title>Node8&#45;&gt;Node10</title>
<path fill="none" stroke="midnightblue" d="M1251.34,-195.84C1255.83,-174.67 1267.44,-119.95 1273.57,-91.03"/>
<polygon fill="midnightblue" stroke="midnightblue" points="1277.04,-91.53 1275.69,-81.02 1270.19,-90.08 1277.04,-91.53"/>
</g>
<!-- Node11 -->
<g id="node12" class="node">
<title>Node11</title>
<g id="a_node12"><a xlink:title=" ">
<polygon fill="white" stroke="#bfbfbf" points="1089.5,-129 1089.5,-148 1175.5,-148 1175.5,-129 1089.5,-129"/>
<text text-anchor="middle" x="1132.5" y="-136" font-family="Helvetica,sans-Serif" font-size="10.00">fmt/ostream.h</text>
</a>
</g>
</g>
<!-- Node8&#45;&gt;Node11 -->
<g id="edge11" class="edge">
<title>Node8&#45;&gt;Node11</title>
<path fill="none" stroke="midnightblue" d="M1233.72,-195.73C1213.99,-184.77 1179.99,-165.88 1156.89,-153.05"/>
<polygon fill="midnightblue" stroke="midnightblue" points="1158.47,-149.92 1148.03,-148.13 1155.07,-156.04 1158.47,-149.92"/>
</g>
<!-- Node12 -->
<g id="node13" class="node">
<title>Node12</title>
<g id="a_node13"><a xlink:href="fmt_8h.html" target="_top" xlink:title=" ">
<polygon fill="white" stroke="black" points="1306,-129 1306,-148 1425,-148 1425,-129 1306,-129"/>
<text text-anchor="middle" x="1365.5" y="-136" font-family="Helvetica,sans-Serif" font-size="10.00">drake/common/fmt.h</text>
</a>
</g>
</g>
<!-- Node8&#45;&gt;Node12 -->
<g id="edge12" class="edge">
<title>Node8&#45;&gt;Node12</title>
<path fill="none" stroke="midnightblue" d="M1265.14,-195.73C1284.71,-184.77 1318.42,-165.88 1341.32,-153.05"/>
<polygon fill="midnightblue" stroke="midnightblue" points="1343.09,-156.07 1350.1,-148.13 1339.67,-149.96 1343.09,-156.07"/>
</g>
<!-- Node12&#45;&gt;Node10 -->
<g id="edge13" class="edge">
<title>Node12&#45;&gt;Node10</title>
<path fill="none" stroke="midnightblue" d="M1353.63,-128.73C1339.25,-118.11 1314.8,-100.05 1297.49,-87.26"/>
<polygon fill="midnightblue" stroke="midnightblue" points="1299.3,-84.25 1289.18,-81.13 1295.14,-89.88 1299.3,-84.25"/>
</g>
<!-- Node13 -->
<g id="node14" class="node">
<title>Node13</title>
<g id="a_node14"><a xlink:title=" ">
<polygon fill="white" stroke="#bfbfbf" points="1332,-62 1332,-81 1411,-81 1411,-62 1332,-62"/>
<text text-anchor="middle" x="1371.5" y="-69" font-family="Helvetica,sans-Serif" font-size="10.00">fmt/format.h</text>
</a>
</g>
</g>
<!-- Node12&#45;&gt;Node13 -->
<g id="edge14" class="edge">
<title>Node12&#45;&gt;Node13</title>
<path fill="none" stroke="midnightblue" d="M1366.31,-128.73C1367.19,-119.18 1368.63,-103.62 1369.77,-91.28"/>
<polygon fill="midnightblue" stroke="midnightblue" points="1373.27,-91.41 1370.7,-81.13 1366.3,-90.76 1373.27,-91.41"/>
</g>
<!-- Node14&#45;&gt;Node1 -->
<g id="edge18" class="edge">
<title>Node14&#45;&gt;Node1</title>
<path fill="none" stroke="midnightblue" d="M391.74,-200.21C315.61,-194.08 183.79,-180.51 73.5,-154 70.27,-153.22 66.94,-152.29 63.64,-151.27"/>
<polygon fill="midnightblue" stroke="midnightblue" points="64.54,-147.88 53.95,-148.03 62.33,-154.52 64.54,-147.88"/>
</g>
<!-- Node14&#45;&gt;Node4 -->
<g id="edge25" class="edge">
<title>Node14&#45;&gt;Node4</title>
<path fill="none" stroke="midnightblue" d="M391.96,-198.09C328.78,-190.74 228.75,-176.68 144.5,-154 141.84,-153.28 139.11,-152.45 136.4,-151.55"/>
<polygon fill="midnightblue" stroke="midnightblue" points="137.35,-148.18 126.76,-148.1 134.99,-154.77 137.35,-148.18"/>
</g>
<!-- Node14&#45;&gt;Node5 -->
<g id="edge26" class="edge">
<title>Node14&#45;&gt;Node5</title>
<path fill="none" stroke="midnightblue" d="M447.96,-195.67C440.62,-185.68 428.43,-168.86 418.5,-154 405.47,-134.51 391.39,-111.88 381.33,-95.42"/>
<polygon fill="midnightblue" stroke="midnightblue" points="384.1,-93.23 375.91,-86.51 378.12,-96.87 384.1,-93.23"/>
</g>
<!-- Node14&#45;&gt;Node6 -->
<g id="edge23" class="edge">
<title>Node14&#45;&gt;Node6</title>
<path fill="none" stroke="midnightblue" d="M391.97,-197.34C314.55,-187.84 191.14,-170.35 177.5,-154 143.93,-113.76 198.28,-54.41 228.48,-26.54"/>
<polygon fill="midnightblue" stroke="midnightblue" points="231.15,-28.84 236.26,-19.55 226.48,-23.63 231.15,-28.84"/>
</g>
<!-- Node15 -->
<g id="node16" class="node">
<title>Node15</title>
<g id="a_node16"><a xlink:title=" ">
<polygon fill="white" stroke="#bfbfbf" points="324,-129 324,-148 371,-148 371,-129 324,-129"/>
<text text-anchor="middle" x="347.5" y="-136" font-family="Helvetica,sans-Serif" font-size="10.00">cmath</text>
</a>
</g>
</g>
<!-- Node14&#45;&gt;Node15 -->
<g id="edge16" class="edge">
<title>Node14&#45;&gt;Node15</title>
<path fill="none" stroke="midnightblue" d="M440.07,-195.73C422.18,-184.87 391.48,-166.22 370.37,-153.39"/>
<polygon fill="midnightblue" stroke="midnightblue" points="372.07,-150.33 361.7,-148.13 368.43,-156.31 372.07,-150.33"/>
</g>
<!-- Node16 -->
<g id="node17" class="node">
<title>Node16</title>
<g id="a_node17"><a xlink:title=" ">
<polygon fill="white" stroke="#bfbfbf" points="428,-129 428,-148 481,-148 481,-129 428,-129"/>
<text text-anchor="middle" x="454.5" y="-136" font-family="Helvetica,sans-Serif" font-size="10.00">cstddef</text>
</a>
</g>
</g>
<!-- Node14&#45;&gt;Node16 -->
<g id="edge17" class="edge">
<title>Node14&#45;&gt;Node16</title>
<path fill="none" stroke="midnightblue" d="M454.5,-195.73C454.5,-186.18 454.5,-170.62 454.5,-158.28"/>
<polygon fill="midnightblue" stroke="midnightblue" points="458,-158.13 454.5,-148.13 451,-158.13 458,-158.13"/>
</g>
<!-- Node17 -->
<g id="node18" class="node">
<title>Node17</title>
<g id="a_node18"><a xlink:title=" ">
<polygon fill="white" stroke="#bfbfbf" points="499.5,-129 499.5,-148 537.5,-148 537.5,-129 499.5,-129"/>
<text text-anchor="middle" x="518.5" y="-136" font-family="Helvetica,sans-Serif" font-size="10.00">map</text>
</a>
</g>
</g>
<!-- Node14&#45;&gt;Node17 -->
<g id="edge19" class="edge">
<title>Node14&#45;&gt;Node17</title>
<path fill="none" stroke="midnightblue" d="M463.13,-195.73C473.3,-185.4 490.4,-168.04 502.91,-155.33"/>
<polygon fill="midnightblue" stroke="midnightblue" points="505.48,-157.71 510.01,-148.13 500.5,-152.8 505.48,-157.71"/>
</g>
<!-- Node18 -->
<g id="node19" class="node">
<title>Node18</title>
<g id="a_node19"><a xlink:title=" ">
<polygon fill="white" stroke="#bfbfbf" points="555.5,-129 555.5,-148 611.5,-148 611.5,-129 555.5,-129"/>
<text text-anchor="middle" x="583.5" y="-136" font-family="Helvetica,sans-Serif" font-size="10.00">optional</text>
</a>
</g>
</g>
<!-- Node14&#45;&gt;Node18 -->
<g id="edge20" class="edge">
<title>Node14&#45;&gt;Node18</title>
<path fill="none" stroke="midnightblue" d="M471.63,-195.87C493.51,-184.84 531.59,-165.66 557.17,-152.77"/>
<polygon fill="midnightblue" stroke="midnightblue" points="558.94,-155.79 566.3,-148.17 555.79,-149.54 558.94,-155.79"/>
</g>
<!-- Node19 -->
<g id="node20" class="node">
<title>Node19</title>
<g id="a_node20"><a xlink:title=" ">
<polygon fill="white" stroke="#bfbfbf" points="629.5,-129 629.5,-148 661.5,-148 661.5,-129 629.5,-129"/>
<text text-anchor="middle" x="645.5" y="-136" font-family="Helvetica,sans-Serif" font-size="10.00">set</text>
</a>
</g>
</g>
<!-- Node14&#45;&gt;Node19 -->
<g id="edge21" class="edge">
<title>Node14&#45;&gt;Node19</title>
<path fill="none" stroke="midnightblue" d="M490.98,-195.99C525.19,-187.4 577.41,-172.75 620.5,-154 621.35,-153.63 622.2,-153.24 623.05,-152.84"/>
<polygon fill="midnightblue" stroke="midnightblue" points="624.85,-155.84 632.04,-148.06 621.57,-149.66 624.85,-155.84"/>
</g>
<!-- Node20 -->
<g id="node21" class="node">
<title>Node20</title>
<g id="a_node21"><a xlink:title=" ">
<polygon fill="white" stroke="#bfbfbf" points="679.5,-129 679.5,-148 723.5,-148 723.5,-129 679.5,-129"/>
<text text-anchor="middle" x="701.5" y="-136" font-family="Helvetica,sans-Serif" font-size="10.00">string</text>
</a>
</g>
</g>
<!-- Node14&#45;&gt;Node20 -->
<g id="edge22" class="edge">
<title>Node14&#45;&gt;Node20</title>
<path fill="none" stroke="midnightblue" d="M504.22,-195.92C548.55,-187.56 614.83,-173.29 670.5,-154 672.12,-153.44 673.77,-152.82 675.42,-152.16"/>
<polygon fill="midnightblue" stroke="midnightblue" points="676.93,-155.32 684.71,-148.13 674.14,-148.9 676.93,-155.32"/>
</g>
<!-- Node21 -->
<g id="node22" class="node">
<title>Node21</title>
<g id="a_node22"><a xlink:title=" ">
<polygon fill="white" stroke="#bfbfbf" points="742,-129 742,-148 787,-148 787,-129 742,-129"/>
<text text-anchor="middle" x="764.5" y="-136" font-family="Helvetica,sans-Serif" font-size="10.00">utility</text>
</a>
</g>
</g>
<!-- Node14&#45;&gt;Node21 -->
<g id="edge24" class="edge">
<title>Node14&#45;&gt;Node21</title>
<path fill="none" stroke="midnightblue" d="M517.11,-197.59C574.16,-190.26 660.27,-176.55 732.5,-154 734.38,-153.41 736.29,-152.75 738.2,-152.02"/>
<polygon fill="midnightblue" stroke="midnightblue" points="739.66,-155.21 747.53,-148.12 736.96,-148.75 739.66,-155.21"/>
</g>
<!-- Node22 -->
<g id="node23" class="node">
<title>Node22</title>
<g id="a_node23"><a xlink:href="drake__throw_8h.html" target="_top" xlink:title="Provides a convenient wrapper to throw an exception when a condition is unmet.">
<polygon fill="white" stroke="black" points="187,-123.5 187,-153.5 306,-153.5 306,-123.5 187,-123.5"/>
<text text-anchor="start" x="195" y="-141.5" font-family="Helvetica,sans-Serif" font-size="10.00">drake/common/drake</text>
<text text-anchor="middle" x="246.5" y="-130.5" font-family="Helvetica,sans-Serif" font-size="10.00">_throw.h</text>
</a>
</g>
</g>
<!-- Node14&#45;&gt;Node22 -->
<g id="edge27" class="edge">
<title>Node14&#45;&gt;Node22</title>
<path fill="none" stroke="midnightblue" d="M426.88,-195.87C394.92,-185.88 341.53,-169.2 301.11,-156.56"/>
<polygon fill="midnightblue" stroke="midnightblue" points="301.98,-153.17 291.39,-153.53 299.89,-159.85 301.98,-153.17"/>
</g>
<!-- Node22&#45;&gt;Node5 -->
<g id="edge29" class="edge">
<title>Node22&#45;&gt;Node5</title>
<path fill="none" stroke="midnightblue" d="M272.76,-123.4C290.2,-114.03 313.3,-101.62 332.33,-91.39"/>
<polygon fill="midnightblue" stroke="midnightblue" points="334.14,-94.39 341.3,-86.58 330.83,-88.23 334.14,-94.39"/>
</g>
<!-- Node22&#45;&gt;Node6 -->
<g id="edge28" class="edge">
<title>Node22&#45;&gt;Node6</title>
<path fill="none" stroke="midnightblue" d="M246.5,-123.48C246.5,-100.72 246.5,-55.7 246.5,-30.06"/>
<polygon fill="midnightblue" stroke="midnightblue" points="250,-29.79 246.5,-19.79 243,-29.79 250,-29.79"/>
</g>
</g>
</svg>
        <g id="navigator" transform="translate(0 0)" fill="#404254">
                <rect fill="#f2f5e9" fill-opacity="0.5" stroke="#606060" stroke-width=".5" x="0" y="0" width="60" height="60"/>
                <use id="zoomplus" xlink:href="#zoomPlus" x="17" y="9" onmousedown="handleZoom(evt,'in')"/>
                <use id="zoomminus" xlink:href="#zoomMin" x="42" y="9" onmousedown="handleZoom(evt,'out')"/>
                <use id="reset" xlink:href="#resetDef" x="30" y="36" onmousedown="handleReset()"/>
                <g id="arrowUp" xlink:href="#dirArrow" transform="translate(30 24)" onmousedown="handlePan(0,-1)">
                  <use xlink:href="#rim" fill="#404040">
                        <set attributeName="fill" to="#808080" begin="arrowUp.mouseover" end="arrowUp.mouseout"/>
                  </use>
                  <path fill="none" stroke="white" stroke-width="1.5" d="M0,-3.0v7 M-2.5,-0.5L0,-3.0L2.5,-0.5"/>
                </g>
                <g id="arrowRight" xlink:href="#dirArrow" transform="rotate(90) translate(36 -43)" onmousedown="handlePan(1,0)">
                  <use xlink:href="#rim" fill="#404040">
                        <set attributeName="fill" to="#808080" begin="arrowRight.mouseover" end="arrowRight.mouseout"/>
                  </use>
                  <path fill="none" stroke="white" stroke-width="1.5" d="M0,-3.0v7 M-2.5,-0.5L0,-3.0L2.5,-0.5"/>
                </g>
                <g id="arrowDown" xlink:href="#dirArrow" transform="rotate(180) translate(-30 -48)" onmousedown="handlePan(0,1)">
                  <use xlink:href="#rim" fill="#404040">
                        <set attributeName="fill" to="#808080" begin="arrowDown.mouseover" end="arrowDown.mouseout"/>
                  </use>
                  <path fill="none" stroke="white" stroke-width="1.5" d="M0,-3.0v7 M-2.5,-0.5L0,-3.0L2.5,-0.5"/>
                </g>
                <g id="arrowLeft" xlink:href="#dirArrow" transform="rotate(270) translate(-36 17)" onmousedown="handlePan(-1,0)">
                  <use xlink:href="#rim" fill="#404040">
                        <set attributeName="fill" to="#808080" begin="arrowLeft.mouseover" end="arrowLeft.mouseout"/>
                  </use>
                  <path fill="none" stroke="white" stroke-width="1.5" d="M0,-3.0v7 M-2.5,-0.5L0,-3.0L2.5,-0.5"/>
                </g>
        </g>
        <svg viewBox="0 0 15 15" width="100%" height="30px" preserveAspectRatio="xMaxYMin meet">
         <g id="arrow_out" transform="scale(0.3 0.3)">
          <a xlink:href="color__palette_8h__incl_org.svg" target="_base">
           <rect id="button" ry="5" rx="5" y="6" x="6" height="38" width="38"
                fill="#f2f5e9" fill-opacity="0.5" stroke="#606060" stroke-width="1.0"/>
           <path id="arrow"
             d="M 11.500037,31.436501 C 11.940474,20.09759 22.043105,11.32322 32.158766,21.979434 L 37.068811,17.246167 C 37.068811,17.246167 37.088388,32 37.088388,32 L 22.160133,31.978069 C 22.160133,31.978069 26.997745,27.140456 26.997745,27.140456 C 18.528582,18.264221 13.291696,25.230495 11.500037,31.436501 z"
             style="fill:#404040;"/>
          </a>
         </g>
        </svg>
</svg>
