<?xml version="1.0" encoding="UTF-8" standalone="no"?>
<!DOCTYPE svg PUBLIC "-//W3C//DTD SVG 1.1//EN"
 "http://www.w3.org/Graphics/SVG/1.1/DTD/svg11.dtd">
<!-- Generated by graphviz version 2.43.0 (0)
 -->
<!-- Title: drake/solvers/common_solver_option.h Pages: 1 -->
<svg width="481pt" height="176pt"
 viewBox="0.00 0.00 481.46 176.17" xmlns="http://www.w3.org/2000/svg" xmlns:xlink="http://www.w3.org/1999/xlink">

<svg id="main" version="1.1" xmlns="http://www.w3.org/2000/svg" xmlns:xlink="http://www.w3.org/1999/xlink" xml:space="preserve">

<style type="text/css"><![CDATA[
.node, .edge {opacity: 0.7;}
.node.selected, .edge.selected {opacity: 1;}
.edge:hover path { stroke: red; }
.edge:hover polygon { stroke: red; fill: red; }
]]></style>
<script type="application/ecmascript" xlink:href="svg.min.js"/>
<svg id="graph" class="graph">
<g id="graph0" class="graph" transform="scale(1 1) rotate(0) translate(4 172.17)">
<title>drake/solvers/common_solver_option.h</title>
<!-- Node1 -->
<g id="Node000001" class="node">
<title>Node1</title>
<g id="a_Node000001"><a xlink:title=" ">
<ellipse fill="#999999" stroke="#666666" cx="126.6" cy="-146.95" rx="90.52" ry="21.43"/>
<text text-anchor="start" x="70.6" y="-149.95" font-family="Helvetica,sans-Serif" font-size="10.00">drake/solvers/common</text>
<text text-anchor="middle" x="126.6" y="-138.95" font-family="Helvetica,sans-Serif" font-size="10.00">_solver_option.h</text>
</a>
</g>
</g>
<!-- Node2 -->
<g id="Node000002" class="node">
<title>Node2</title>
<g id="a_Node000002"><a xlink:title=" ">
<ellipse fill="#e0e0e0" stroke="#999999" cx="39.6" cy="-76.31" rx="39.7" ry="13.37"/>
<text text-anchor="middle" x="39.6" y="-73.81" font-family="Helvetica,sans-Serif" font-size="10.00">optional</text>
</a>
</g>
</g>
<!-- Node1&#45;&gt;Node2 -->
<g id="edge1_Node000001_Node000002" class="edge">
<title>Node1&#45;&gt;Node2</title>
<g id="a_edge1_Node000001_Node000002"><a xlink:title=" ">
<path fill="none" stroke="#63b8ff" d="M101.9,-126.47C89.41,-116.61 74.36,-104.73 62.18,-95.12"/>
<polygon fill="#63b8ff" stroke="#63b8ff" points="64.29,-92.33 54.27,-88.88 59.96,-97.83 64.29,-92.33"/>
</a>
</g>
</g>
<!-- Node3 -->
<g id="Node000003" class="node">
<title>Node3</title>
<g id="a_Node000003"><a xlink:title=" ">
<ellipse fill="#e0e0e0" stroke="#999999" cx="75.6" cy="-13.44" rx="31.23" ry="13.37"/>
<text text-anchor="middle" x="75.6" y="-10.94" font-family="Helvetica,sans-Serif" font-size="10.00">string</text>
</a>
</g>
</g>
<!-- Node1&#45;&gt;Node3 -->
<g id="edge2_Node000001_Node000003" class="edge">
<title>Node1&#45;&gt;Node3</title>
<g id="a_edge2_Node000001_Node000003"><a xlink:title=" ">
<path fill="none" stroke="#63b8ff" d="M118.74,-125.69C109.36,-101.5 93.73,-61.19 84.08,-36.31"/>
<polygon fill="#63b8ff" stroke="#63b8ff" points="87.34,-35.05 80.47,-26.99 80.82,-37.58 87.34,-35.05"/>
</a>
</g>
</g>
<!-- Node4 -->
<g id="Node000004" class="node">
<title>Node4</title>
<g id="a_Node000004"><a xlink:title=" ">
<ellipse fill="#e0e0e0" stroke="#999999" cx="176.6" cy="-13.44" rx="51.74" ry="13.37"/>
<text text-anchor="middle" x="176.6" y="-10.94" font-family="Helvetica,sans-Serif" font-size="10.00">string_view</text>
</a>
</g>
</g>
<!-- Node1&#45;&gt;Node4 -->
<g id="edge3_Node000001_Node000004" class="edge">
<title>Node1&#45;&gt;Node4</title>
<g id="a_edge3_Node000001_Node000004"><a xlink:title=" ">
<path fill="none" stroke="#63b8ff" d="M134.3,-125.69C143.46,-101.61 158.68,-61.55 168.15,-36.64"/>
<polygon fill="#63b8ff" stroke="#63b8ff" points="171.54,-37.58 171.83,-26.99 165,-35.09 171.54,-37.58"/>
</a>
</g>
</g>
<!-- Node5 -->
<g id="Node000005" class="node">
<title>Node5</title>
<g id="a_Node000005"><a xlink:href="fmt_8h.html" target="_top" xlink:title=" ">
<ellipse fill="white" stroke="#666666" cx="257.6" cy="-76.31" rx="84.29" ry="13.37"/>
<text text-anchor="middle" x="257.6" y="-73.81" font-family="Helvetica,sans-Serif" font-size="10.00">drake/common/fmt.h</text>
</a>
</g>
</g>
<!-- Node1&#45;&gt;Node5 -->
<g id="edge4_Node000001_Node000005" class="edge">
<title>Node1&#45;&gt;Node5</title>
<g id="a_edge4_Node000001_Node000005"><a xlink:title=" ">
<path fill="none" stroke="#63b8ff" d="M162.05,-127.38C181.84,-117 206.32,-104.18 225.54,-94.11"/>
<polygon fill="#63b8ff" stroke="#63b8ff" points="227.27,-97.15 234.51,-89.41 224.03,-90.95 227.27,-97.15"/>
</a>
</g>
</g>
<!-- Node5&#45;&gt;Node3 -->
<g id="edge5_Node000005_Node000003" class="edge">
<title>Node5&#45;&gt;Node3</title>
<g id="a_edge5_Node000005_Node000003"><a xlink:title=" ">
<path fill="none" stroke="#63b8ff" d="M223.79,-64C190.91,-53 141.26,-36.4 108.64,-25.49"/>
<polygon fill="#63b8ff" stroke="#63b8ff" points="109.69,-22.15 99.1,-22.29 107.47,-28.79 109.69,-22.15"/>
</a>
</g>
</g>
<!-- Node5&#45;&gt;Node4 -->
<g id="edge6_Node000005_Node000004" class="edge">
<title>Node5&#45;&gt;Node4</title>
<g id="a_edge6_Node000005_Node000004"><a xlink:title=" ">
<path fill="none" stroke="#63b8ff" d="M241.21,-62.99C229.53,-54.21 213.64,-42.27 200.55,-32.43"/>
<polygon fill="#63b8ff" stroke="#63b8ff" points="202.51,-29.53 192.41,-26.32 198.31,-35.13 202.51,-29.53"/>
</a>
</g>
</g>
<!-- Node6 -->
<g id="Node000006" class="node">
<title>Node6</title>
<g id="a_Node000006"><a xlink:title=" ">
<ellipse fill="#e0e0e0" stroke="#999999" cx="294.6" cy="-13.44" rx="48.58" ry="13.37"/>
<text text-anchor="middle" x="294.6" y="-10.94" font-family="Helvetica,sans-Serif" font-size="10.00">type_traits</text>
</a>
</g>
</g>
<!-- Node5&#45;&gt;Node6 -->
<g id="edge7_Node000005_Node000006" class="edge">
<title>Node5&#45;&gt;Node6</title>
<g id="a_edge7_Node000005_Node000006"><a xlink:title=" ">
<path fill="none" stroke="#63b8ff" d="M265.26,-62.69C269.98,-54.94 276.14,-44.8 281.6,-35.82"/>
<polygon fill="#63b8ff" stroke="#63b8ff" points="284.74,-37.39 286.94,-27.03 278.76,-33.76 284.74,-37.39"/>
</a>
</g>
</g>
<!-- Node7 -->
<g id="Node000007" class="node">
<title>Node7</title>
<g id="a_Node000007"><a xlink:title=" ">
<ellipse fill="#e0e0e0" stroke="#999999" cx="417.6" cy="-13.44" rx="55.72" ry="13.37"/>
<text text-anchor="middle" x="417.6" y="-10.94" font-family="Helvetica,sans-Serif" font-size="10.00">fmt/format.h</text>
</a>
</g>
</g>
<!-- Node5&#45;&gt;Node7 -->
<g id="edge8_Node000005_Node000007" class="edge">
<title>Node5&#45;&gt;Node7</title>
<g id="a_edge8_Node000005_Node000007"><a xlink:title=" ">
<path fill="none" stroke="#63b8ff" d="M288.07,-63.71C314.19,-53.78 351.91,-39.42 379.92,-28.77"/>
<polygon fill="#63b8ff" stroke="#63b8ff" points="381.28,-32 389.39,-25.17 378.79,-25.45 381.28,-32"/>
</a>
</g>
</g>
</g>
</svg>
</svg>

<style type='text/css'>
<![CDATA[
[data-mouse-over-selected='false'] { opacity: 0.7; }
[data-mouse-over-selected='true']  { opacity: 1.0; }
]]>
</style>
<script type="application/ecmascript"><![CDATA[
document.addEventListener('DOMContentLoaded', (event) => {
  highlightEdges();
  highlightAdjacentNodes();
});
]]></script>
</svg>
