<?xml version="1.0" encoding="UTF-8" standalone="no"?>
<!DOCTYPE svg PUBLIC "-//W3C//DTD SVG 1.1//EN"
 "http://www.w3.org/Graphics/SVG/1.1/DTD/svg11.dtd">
<!-- Generated by graphviz version 2.43.0 (0)
 -->
<!-- Title: drake/common/autodiff.h Pages: 1 -->
<!--zoomable 296 -->
<svg id="main" version="1.1" xmlns="http://www.w3.org/2000/svg" xmlns:xlink="http://www.w3.org/1999/xlink" xml:space="preserve" onload="init(evt)">
<style type="text/css"><![CDATA[
.edge:hover path { stroke: red; }
.edge:hover polygon { stroke: red; fill: red; }
]]></style>
<script type="text/javascript"><![CDATA[
var edges = document.getElementsByTagName('g');
if (edges && edges.length) {
  for (var i=0;i<edges.length;i++) {
    if (edges[i].id.substr(0,4)=='edge') {
      edges[i].setAttribute('class','edge');
    }
  }
}
]]></script>
        <defs>
                <circle id="rim" cx="0" cy="0" r="7"/>
                <circle id="rim2" cx="0" cy="0" r="3.5"/>
                <g id="zoomPlus">
                        <use xlink:href="#rim" fill="#404040">
                                <set attributeName="fill" to="#808080" begin="zoomplus.mouseover" end="zoomplus.mouseout"/>
                        </use>
                        <path d="M-4,0h8M0,-4v8" fill="none" stroke="white" stroke-width="1.5" pointer-events="none"/>
                </g>
                <g id="zoomMin">
                        <use xlink:href="#rim" fill="#404040">
                                <set attributeName="fill" to="#808080" begin="zoomminus.mouseover" end="zoomminus.mouseout"/>
                        </use>
                        <path d="M-4,0h8" fill="none" stroke="white" stroke-width="1.5" pointer-events="none"/>
                </g>
                <g id="dirArrow">
                        <path fill="none" stroke="white" stroke-width="1.5" d="M0,-3.0v7 M-2.5,-0.5L0,-3.0L2.5,-0.5"/>
                </g>
               <g id="resetDef">
                       <use xlink:href="#rim2" fill="#404040">
                               <set attributeName="fill" to="#808080" begin="reset.mouseover" end="reset.mouseout"/>
                       </use>
               </g>
        </defs>

<script type="text/javascript">
var viewWidth = 1181;
var viewHeight = 296;
var sectionId = 'dynsection-0';
</script>
<script xlink:href="svgpan.js"/>
<svg id="graph" class="graph">
<g id="viewport">
<title>drake/common/autodiff.h</title>
<polygon fill="white" stroke="transparent" points="-4,4 -4,-292 1176.55,-292 1176.55,4 -4,4"/>
<!-- Node0 -->
<g id="node1" class="node">
<title>Node0</title>
<g id="a_node1"><a xlink:title=" ">
<polygon fill="#bfbfbf" stroke="black" points="362.55,-268.5 362.55,-287.5 501.55,-287.5 501.55,-268.5 362.55,-268.5"/>
<text text-anchor="middle" x="432.05" y="-275.5" font-family="Helvetica,sans-Serif" font-size="10.00">drake/common/autodiff.h</text>
</a>
</g>
</g>
<!-- Node1 -->
<g id="node2" class="node">
<title>Node1</title>
<g id="a_node2"><a xlink:title=" ">
<polygon fill="white" stroke="#bfbfbf" points="116.55,-207 116.55,-226 185.55,-226 185.55,-207 116.55,-207"/>
<text text-anchor="middle" x="151.05" y="-214" font-family="Helvetica,sans-Serif" font-size="10.00">Eigen/Core</text>
</a>
</g>
</g>
<!-- Node0&#45;&gt;Node1 -->
<g id="edge1" class="edge">
<title>Node0&#45;&gt;Node1</title>
<path fill="none" stroke="midnightblue" d="M374.82,-268.46C326.3,-260.68 255.07,-247.98 194.05,-232 190.85,-231.16 187.54,-230.21 184.25,-229.2"/>
<polygon fill="midnightblue" stroke="midnightblue" points="185.12,-225.8 174.53,-226.07 182.98,-232.47 185.12,-225.8"/>
</g>
<!-- Node2 -->
<g id="node3" class="node">
<title>Node2</title>
<g id="a_node3"><a xlink:title=" ">
<polygon fill="white" stroke="#bfbfbf" points="203.55,-207 203.55,-226 354.55,-226 354.55,-207 203.55,-207"/>
<text text-anchor="middle" x="279.05" y="-214" font-family="Helvetica,sans-Serif" font-size="10.00">unsupported/Eigen/AutoDiff</text>
</a>
</g>
</g>
<!-- Node0&#45;&gt;Node2 -->
<g id="edge2" class="edge">
<title>Node0&#45;&gt;Node2</title>
<path fill="none" stroke="midnightblue" d="M410.13,-268.48C384,-258.31 340.14,-241.26 310.42,-229.7"/>
<polygon fill="midnightblue" stroke="midnightblue" points="311.52,-226.37 300.93,-226.01 308.98,-232.9 311.52,-226.37"/>
</g>
<!-- Node3 -->
<g id="node4" class="node">
<title>Node3</title>
<g id="a_node4"><a xlink:href="eigen__autodiff__types_8h.html" target="_top" xlink:title="This file contains abbreviated definitions for certain uses of AutoDiffScalar that are commonly used ...">
<polygon fill="white" stroke="black" points="372.55,-201.5 372.55,-231.5 491.55,-231.5 491.55,-201.5 372.55,-201.5"/>
<text text-anchor="start" x="380.55" y="-219.5" font-family="Helvetica,sans-Serif" font-size="10.00">drake/common/eigen</text>
<text text-anchor="middle" x="432.05" y="-208.5" font-family="Helvetica,sans-Serif" font-size="10.00">_autodiff_types.h</text>
</a>
</g>
</g>
<!-- Node0&#45;&gt;Node3 -->
<g id="edge3" class="edge">
<title>Node0&#45;&gt;Node3</title>
<path fill="none" stroke="midnightblue" d="M432.05,-268.48C432.05,-261.47 432.05,-251.19 432.05,-241.7"/>
<polygon fill="midnightblue" stroke="midnightblue" points="435.55,-241.52 432.05,-231.52 428.55,-241.52 435.55,-241.52"/>
</g>
<!-- Node11 -->
<g id="node12" class="node">
<title>Node11</title>
<g id="a_node12"><a xlink:href="autodiffxd_8h.html" target="_top" xlink:title=" ">
<polygon fill="white" stroke="black" points="560.05,-140 560.05,-159 712.05,-159 712.05,-140 560.05,-140"/>
<text text-anchor="middle" x="636.05" y="-147" font-family="Helvetica,sans-Serif" font-size="10.00">drake/common/autodiffxd.h</text>
</a>
</g>
</g>
<!-- Node0&#45;&gt;Node11 -->
<g id="edge13" class="edge">
<title>Node0&#45;&gt;Node11</title>
<path fill="none" stroke="midnightblue" d="M446.07,-268.31C480.81,-246.77 571.07,-190.79 613.45,-164.51"/>
<polygon fill="midnightblue" stroke="midnightblue" points="615.55,-167.33 622.2,-159.09 611.86,-161.38 615.55,-167.33"/>
</g>
<!-- Node15 -->
<g id="node16" class="node">
<title>Node15</title>
<g id="a_node16"><a xlink:href="autodiff__overloads_8h.html" target="_top" xlink:title="Overloads for STL mathematical operations on AutoDiffScalar.">
<polygon fill="white" stroke="black" points="739.55,-134.5 739.55,-164.5 870.55,-164.5 870.55,-134.5 739.55,-134.5"/>
<text text-anchor="start" x="747.55" y="-152.5" font-family="Helvetica,sans-Serif" font-size="10.00">drake/common/autodiff</text>
<text text-anchor="middle" x="805.05" y="-141.5" font-family="Helvetica,sans-Serif" font-size="10.00">_overloads.h</text>
</a>
</g>
</g>
<!-- Node0&#45;&gt;Node15 -->
<g id="edge18" class="edge">
<title>Node0&#45;&gt;Node15</title>
<path fill="none" stroke="midnightblue" d="M457.4,-268.4C518.22,-247.78 673.38,-195.16 754.27,-167.72"/>
<polygon fill="midnightblue" stroke="midnightblue" points="755.4,-171.03 763.75,-164.51 753.16,-164.4 755.4,-171.03"/>
</g>
<!-- Node4 -->
<g id="node5" class="node">
<title>Node4</title>
<g id="a_node5"><a xlink:title=" ">
<polygon fill="white" stroke="#bfbfbf" points="513.55,-6 513.55,-25 582.55,-25 582.55,-6 513.55,-6"/>
<text text-anchor="middle" x="548.05" y="-13" font-family="Helvetica,sans-Serif" font-size="10.00">type_traits</text>
</a>
</g>
</g>
<!-- Node3&#45;&gt;Node4 -->
<g id="edge4" class="edge">
<title>Node3&#45;&gt;Node4</title>
<path fill="none" stroke="midnightblue" d="M382.28,-201.48C346.36,-191.36 296.7,-177.35 253.05,-165 143.77,-134.07 -59.36,-151.02 17.05,-67 49.52,-31.3 381.1,-20.26 503.22,-17.39"/>
<polygon fill="midnightblue" stroke="midnightblue" points="503.43,-20.88 513.35,-17.15 503.27,-13.88 503.43,-20.88"/>
</g>
<!-- Node5 -->
<g id="node6" class="node">
<title>Node5</title>
<g id="a_node6"><a xlink:title=" ">
<polygon fill="white" stroke="#bfbfbf" points="393.55,-73 393.55,-92 470.55,-92 470.55,-73 393.55,-73"/>
<text text-anchor="middle" x="432.05" y="-80" font-family="Helvetica,sans-Serif" font-size="10.00">Eigen/Dense</text>
</a>
</g>
</g>
<!-- Node3&#45;&gt;Node5 -->
<g id="edge5" class="edge">
<title>Node3&#45;&gt;Node5</title>
<path fill="none" stroke="midnightblue" d="M432.05,-201.37C432.05,-177.5 432.05,-129.18 432.05,-102.41"/>
<polygon fill="midnightblue" stroke="midnightblue" points="435.55,-102.1 432.05,-92.1 428.55,-102.1 435.55,-102.1"/>
</g>
<!-- Node6 -->
<g id="node7" class="node">
<title>Node6</title>
<g id="a_node7"><a xlink:href="eigen__types_8h.html" target="_top" xlink:title="This file contains abbreviated definitions for certain specializations of Eigen::Matrix that are comm...">
<polygon fill="white" stroke="black" points="262.55,-134.5 262.55,-164.5 381.55,-164.5 381.55,-134.5 262.55,-134.5"/>
<text text-anchor="start" x="270.55" y="-152.5" font-family="Helvetica,sans-Serif" font-size="10.00">drake/common/eigen</text>
<text text-anchor="middle" x="322.05" y="-141.5" font-family="Helvetica,sans-Serif" font-size="10.00">_types.h</text>
</a>
</g>
</g>
<!-- Node3&#45;&gt;Node6 -->
<g id="edge6" class="edge">
<title>Node3&#45;&gt;Node6</title>
<path fill="none" stroke="midnightblue" d="M408.18,-201.4C392.47,-192.11 371.71,-179.84 354.5,-169.67"/>
<polygon fill="midnightblue" stroke="midnightblue" points="356.26,-166.65 345.87,-164.58 352.7,-172.68 356.26,-166.65"/>
</g>
<!-- Node6&#45;&gt;Node5 -->
<g id="edge8" class="edge">
<title>Node6&#45;&gt;Node5</title>
<path fill="none" stroke="midnightblue" d="M345.92,-134.4C364.62,-123.34 390.49,-108.06 408.98,-97.13"/>
<polygon fill="midnightblue" stroke="midnightblue" points="410.83,-100.11 417.66,-92.01 407.27,-94.08 410.83,-100.11"/>
</g>
<!-- Node7 -->
<g id="node8" class="node">
<title>Node7</title>
<g id="a_node8"><a xlink:title=" ">
<polygon fill="white" stroke="#bfbfbf" points="163.55,-73 163.55,-92 208.55,-92 208.55,-73 163.55,-73"/>
<text text-anchor="middle" x="186.05" y="-80" font-family="Helvetica,sans-Serif" font-size="10.00">utility</text>
</a>
</g>
</g>
<!-- Node6&#45;&gt;Node7 -->
<g id="edge7" class="edge">
<title>Node6&#45;&gt;Node7</title>
<path fill="none" stroke="midnightblue" d="M292.54,-134.4C268.89,-123.09 235.98,-107.36 213.02,-96.39"/>
<polygon fill="midnightblue" stroke="midnightblue" points="214.38,-93.16 203.85,-92.01 211.37,-99.48 214.38,-93.16"/>
</g>
<!-- Node8 -->
<g id="node9" class="node">
<title>Node8</title>
<g id="a_node9"><a xlink:href="constants_8h.html" target="_top" xlink:title=" ">
<polygon fill="white" stroke="black" points="226.55,-73 226.55,-92 375.55,-92 375.55,-73 226.55,-73"/>
<text text-anchor="middle" x="301.05" y="-80" font-family="Helvetica,sans-Serif" font-size="10.00">drake/common/constants.h</text>
</a>
</g>
</g>
<!-- Node6&#45;&gt;Node8 -->
<g id="edge9" class="edge">
<title>Node6&#45;&gt;Node8</title>
<path fill="none" stroke="midnightblue" d="M317.5,-134.4C314.42,-124.86 310.32,-112.18 306.99,-101.86"/>
<polygon fill="midnightblue" stroke="midnightblue" points="310.27,-100.63 303.86,-92.19 303.61,-102.79 310.27,-100.63"/>
</g>
<!-- Node9 -->
<g id="node10" class="node">
<title>Node9</title>
<g id="a_node10"><a xlink:href="drake__assert_8h.html" target="_top" xlink:title="Provides Drake&#39;s assertion implementation.">
<polygon fill="white" stroke="black" points="488.55,-67.5 488.55,-97.5 607.55,-97.5 607.55,-67.5 488.55,-67.5"/>
<text text-anchor="start" x="496.55" y="-85.5" font-family="Helvetica,sans-Serif" font-size="10.00">drake/common/drake</text>
<text text-anchor="middle" x="548.05" y="-74.5" font-family="Helvetica,sans-Serif" font-size="10.00">_assert.h</text>
</a>
</g>
</g>
<!-- Node6&#45;&gt;Node9 -->
<g id="edge10" class="edge">
<title>Node6&#45;&gt;Node9</title>
<path fill="none" stroke="midnightblue" d="M370.81,-134.48C405.6,-124.47 452.54,-110.97 489.37,-100.38"/>
<polygon fill="midnightblue" stroke="midnightblue" points="490.35,-103.74 498.99,-97.61 488.41,-97.01 490.35,-103.74"/>
</g>
<!-- Node10 -->
<g id="node11" class="node">
<title>Node10</title>
<g id="a_node11"><a xlink:href="drake__copyable_8h.html" target="_top" xlink:title="Provides careful macros to selectively enable or disable the special member functions for copy&#45;constr...">
<polygon fill="white" stroke="black" points="26.55,-67.5 26.55,-97.5 145.55,-97.5 145.55,-67.5 26.55,-67.5"/>
<text text-anchor="start" x="34.55" y="-85.5" font-family="Helvetica,sans-Serif" font-size="10.00">drake/common/drake</text>
<text text-anchor="middle" x="86.05" y="-74.5" font-family="Helvetica,sans-Serif" font-size="10.00">_copyable.h</text>
</a>
</g>
</g>
<!-- Node6&#45;&gt;Node10 -->
<g id="edge12" class="edge">
<title>Node6&#45;&gt;Node10</title>
<path fill="none" stroke="midnightblue" d="M271.13,-134.48C234.81,-124.47 185.8,-110.97 147.33,-100.38"/>
<polygon fill="midnightblue" stroke="midnightblue" points="147.86,-96.89 137.29,-97.61 146,-103.64 147.86,-96.89"/>
</g>
<!-- Node9&#45;&gt;Node4 -->
<g id="edge11" class="edge">
<title>Node9&#45;&gt;Node4</title>
<path fill="none" stroke="midnightblue" d="M548.05,-67.4C548.05,-58.06 548.05,-45.71 548.05,-35.52"/>
<polygon fill="midnightblue" stroke="midnightblue" points="551.55,-35.19 548.05,-25.19 544.55,-35.19 551.55,-35.19"/>
</g>
<!-- Node11&#45;&gt;Node5 -->
<g id="edge17" class="edge">
<title>Node11&#45;&gt;Node5</title>
<path fill="none" stroke="midnightblue" d="M608.96,-139.87C572.89,-128.38 508.97,-108.01 468.64,-95.16"/>
<polygon fill="midnightblue" stroke="midnightblue" points="469.52,-91.76 458.93,-92.06 467.39,-98.43 469.52,-91.76"/>
</g>
<!-- Node12 -->
<g id="node13" class="node">
<title>Node12</title>
<g id="a_node13"><a xlink:title=" ">
<polygon fill="white" stroke="#bfbfbf" points="739.55,-73 739.55,-92 786.55,-92 786.55,-73 739.55,-73"/>
<text text-anchor="middle" x="763.05" y="-80" font-family="Helvetica,sans-Serif" font-size="10.00">cmath</text>
</a>
</g>
</g>
<!-- Node11&#45;&gt;Node12 -->
<g id="edge14" class="edge">
<title>Node11&#45;&gt;Node12</title>
<path fill="none" stroke="midnightblue" d="M652.92,-139.87C674.46,-128.84 711.95,-109.66 737.13,-96.77"/>
<polygon fill="midnightblue" stroke="midnightblue" points="738.81,-99.84 746.12,-92.17 735.62,-93.61 738.81,-99.84"/>
</g>
<!-- Node13 -->
<g id="node14" class="node">
<title>Node13</title>
<g id="a_node14"><a xlink:title=" ">
<polygon fill="white" stroke="#bfbfbf" points="793.05,-6 793.05,-25 837.05,-25 837.05,-6 793.05,-6"/>
<text text-anchor="middle" x="815.05" y="-13" font-family="Helvetica,sans-Serif" font-size="10.00">limits</text>
</a>
</g>
</g>
<!-- Node11&#45;&gt;Node13 -->
<g id="edge15" class="edge">
<title>Node11&#45;&gt;Node13</title>
<path fill="none" stroke="midnightblue" d="M635.6,-139.6C635.25,-123.06 636.95,-87.43 656.05,-67 689.18,-31.57 747.01,-20.89 783.05,-17.73"/>
<polygon fill="midnightblue" stroke="midnightblue" points="783.32,-21.22 793.03,-17 782.81,-14.24 783.32,-21.22"/>
</g>
<!-- Node14 -->
<g id="node15" class="node">
<title>Node14</title>
<g id="a_node15"><a xlink:title=" ">
<polygon fill="white" stroke="#bfbfbf" points="664.55,-73 664.55,-92 721.55,-92 721.55,-73 664.55,-73"/>
<text text-anchor="middle" x="693.05" y="-80" font-family="Helvetica,sans-Serif" font-size="10.00">ostream</text>
</a>
</g>
</g>
<!-- Node11&#45;&gt;Node14 -->
<g id="edge16" class="edge">
<title>Node11&#45;&gt;Node14</title>
<path fill="none" stroke="midnightblue" d="M643.74,-139.73C652.71,-129.5 667.74,-112.36 678.85,-99.69"/>
<polygon fill="midnightblue" stroke="midnightblue" points="681.53,-101.95 685.49,-92.13 676.26,-97.34 681.53,-101.95"/>
</g>
<!-- Node15&#45;&gt;Node9 -->
<g id="edge25" class="edge">
<title>Node15&#45;&gt;Node9</title>
<path fill="none" stroke="midnightblue" d="M749.6,-134.48C709.71,-124.39 655.76,-110.74 613.71,-100.11"/>
<polygon fill="midnightblue" stroke="midnightblue" points="614.4,-96.67 603.85,-97.61 612.68,-103.46 614.4,-96.67"/>
</g>
<!-- Node15&#45;&gt;Node12 -->
<g id="edge19" class="edge">
<title>Node15&#45;&gt;Node12</title>
<path fill="none" stroke="midnightblue" d="M795.94,-134.4C789.59,-124.56 781.07,-111.38 774.29,-100.89"/>
<polygon fill="midnightblue" stroke="midnightblue" points="777.04,-98.69 768.67,-92.19 771.16,-102.49 777.04,-98.69"/>
</g>
<!-- Node15&#45;&gt;Node13 -->
<g id="edge20" class="edge">
<title>Node15&#45;&gt;Node13</title>
<path fill="none" stroke="midnightblue" d="M806.12,-134.37C807.93,-110.5 811.59,-62.18 813.62,-35.41"/>
<polygon fill="midnightblue" stroke="midnightblue" points="817.14,-35.33 814.4,-25.1 810.16,-34.8 817.14,-35.33"/>
</g>
<!-- Node16 -->
<g id="node17" class="node">
<title>Node16</title>
<g id="a_node17"><a xlink:href="cond_8h.html" target="_top" xlink:title=" ">
<polygon fill="white" stroke="black" points="991.55,-73 991.55,-92 1116.55,-92 1116.55,-73 991.55,-73"/>
<text text-anchor="middle" x="1054.05" y="-80" font-family="Helvetica,sans-Serif" font-size="10.00">drake/common/cond.h</text>
</a>
</g>
</g>
<!-- Node15&#45;&gt;Node16 -->
<g id="edge21" class="edge">
<title>Node15&#45;&gt;Node16</title>
<path fill="none" stroke="midnightblue" d="M858.78,-134.48C904.57,-122.52 969.5,-105.57 1011.69,-94.56"/>
<polygon fill="midnightblue" stroke="midnightblue" points="1012.59,-97.94 1021.38,-92.03 1010.82,-91.17 1012.59,-97.94"/>
</g>
<!-- Node19 -->
<g id="node20" class="node">
<title>Node19</title>
<g id="a_node20"><a xlink:href="dummy__value_8h.html" target="_top" xlink:title=" ">
<polygon fill="white" stroke="black" points="843.05,-67.5 843.05,-97.5 973.05,-97.5 973.05,-67.5 843.05,-67.5"/>
<text text-anchor="start" x="851.05" y="-85.5" font-family="Helvetica,sans-Serif" font-size="10.00">drake/common/dummy</text>
<text text-anchor="middle" x="908.05" y="-74.5" font-family="Helvetica,sans-Serif" font-size="10.00">_value.h</text>
</a>
</g>
</g>
<!-- Node15&#45;&gt;Node19 -->
<g id="edge26" class="edge">
<title>Node15&#45;&gt;Node19</title>
<path fill="none" stroke="midnightblue" d="M827.4,-134.4C841.98,-125.2 861.2,-113.07 877.22,-102.95"/>
<polygon fill="midnightblue" stroke="midnightblue" points="879.16,-105.87 885.75,-97.58 875.42,-99.95 879.16,-105.87"/>
</g>
<!-- Node16&#45;&gt;Node4 -->
<g id="edge23" class="edge">
<title>Node16&#45;&gt;Node4</title>
<path fill="none" stroke="midnightblue" d="M1014.55,-72.93C1004.02,-70.82 992.63,-68.68 982.05,-67 840.62,-44.57 671.78,-27.76 592.86,-20.48"/>
<polygon fill="midnightblue" stroke="midnightblue" points="593.06,-16.98 582.78,-19.56 592.42,-23.95 593.06,-16.98"/>
</g>
<!-- Node17 -->
<g id="node18" class="node">
<title>Node17</title>
<g id="a_node18"><a xlink:title=" ">
<polygon fill="white" stroke="#bfbfbf" points="964.55,-6 964.55,-25 1029.55,-25 1029.55,-6 964.55,-6"/>
<text text-anchor="middle" x="997.05" y="-13" font-family="Helvetica,sans-Serif" font-size="10.00">functional</text>
</a>
</g>
</g>
<!-- Node16&#45;&gt;Node17 -->
<g id="edge22" class="edge">
<title>Node16&#45;&gt;Node17</title>
<path fill="none" stroke="midnightblue" d="M1046.37,-72.73C1037.39,-62.5 1022.36,-45.36 1011.25,-32.69"/>
<polygon fill="midnightblue" stroke="midnightblue" points="1013.84,-30.34 1004.62,-25.13 1008.58,-34.95 1013.84,-30.34"/>
</g>
<!-- Node18 -->
<g id="node19" class="node">
<title>Node18</title>
<g id="a_node19"><a xlink:href="double__overloads_8h.html" target="_top" xlink:title="Provides necessary operations on double to have it as a ScalarType in drake.">
<polygon fill="white" stroke="black" points="1047.55,-0.5 1047.55,-30.5 1172.55,-30.5 1172.55,-0.5 1047.55,-0.5"/>
<text text-anchor="start" x="1055.55" y="-18.5" font-family="Helvetica,sans-Serif" font-size="10.00">drake/common/double</text>
<text text-anchor="middle" x="1110.05" y="-7.5" font-family="Helvetica,sans-Serif" font-size="10.00">_overloads.h</text>
</a>
</g>
</g>
<!-- Node16&#45;&gt;Node18 -->
<g id="edge24" class="edge">
<title>Node16&#45;&gt;Node18</title>
<path fill="none" stroke="midnightblue" d="M1061.61,-72.73C1069.17,-63.95 1081.12,-50.08 1091.26,-38.31"/>
<polygon fill="midnightblue" stroke="midnightblue" points="1094.04,-40.45 1097.91,-30.59 1088.74,-35.88 1094.04,-40.45"/>
</g>
<!-- Node19&#45;&gt;Node13 -->
<g id="edge27" class="edge">
<title>Node19&#45;&gt;Node13</title>
<path fill="none" stroke="midnightblue" d="M887.87,-67.4C872.42,-56.6 851.19,-41.76 835.64,-30.89"/>
<polygon fill="midnightblue" stroke="midnightblue" points="837.43,-27.87 827.22,-25.01 833.42,-33.6 837.43,-27.87"/>
</g>
</g>
</svg>
        <g id="navigator" transform="translate(0 0)" fill="#404254">
                <rect fill="#f2f5e9" fill-opacity="0.5" stroke="#606060" stroke-width=".5" x="0" y="0" width="60" height="60"/>
                <use id="zoomplus" xlink:href="#zoomPlus" x="17" y="9" onmousedown="handleZoom(evt,'in')"/>
                <use id="zoomminus" xlink:href="#zoomMin" x="42" y="9" onmousedown="handleZoom(evt,'out')"/>
                <use id="reset" xlink:href="#resetDef" x="30" y="36" onmousedown="handleReset()"/>
                <g id="arrowUp" xlink:href="#dirArrow" transform="translate(30 24)" onmousedown="handlePan(0,-1)">
                  <use xlink:href="#rim" fill="#404040">
                        <set attributeName="fill" to="#808080" begin="arrowUp.mouseover" end="arrowUp.mouseout"/>
                  </use>
                  <path fill="none" stroke="white" stroke-width="1.5" d="M0,-3.0v7 M-2.5,-0.5L0,-3.0L2.5,-0.5"/>
                </g>
                <g id="arrowRight" xlink:href="#dirArrow" transform="rotate(90) translate(36 -43)" onmousedown="handlePan(1,0)">
                  <use xlink:href="#rim" fill="#404040">
                        <set attributeName="fill" to="#808080" begin="arrowRight.mouseover" end="arrowRight.mouseout"/>
                  </use>
                  <path fill="none" stroke="white" stroke-width="1.5" d="M0,-3.0v7 M-2.5,-0.5L0,-3.0L2.5,-0.5"/>
                </g>
                <g id="arrowDown" xlink:href="#dirArrow" transform="rotate(180) translate(-30 -48)" onmousedown="handlePan(0,1)">
                  <use xlink:href="#rim" fill="#404040">
                        <set attributeName="fill" to="#808080" begin="arrowDown.mouseover" end="arrowDown.mouseout"/>
                  </use>
                  <path fill="none" stroke="white" stroke-width="1.5" d="M0,-3.0v7 M-2.5,-0.5L0,-3.0L2.5,-0.5"/>
                </g>
                <g id="arrowLeft" xlink:href="#dirArrow" transform="rotate(270) translate(-36 17)" onmousedown="handlePan(-1,0)">
                  <use xlink:href="#rim" fill="#404040">
                        <set attributeName="fill" to="#808080" begin="arrowLeft.mouseover" end="arrowLeft.mouseout"/>
                  </use>
                  <path fill="none" stroke="white" stroke-width="1.5" d="M0,-3.0v7 M-2.5,-0.5L0,-3.0L2.5,-0.5"/>
                </g>
        </g>
        <svg viewBox="0 0 15 15" width="100%" height="30px" preserveAspectRatio="xMaxYMin meet">
         <g id="arrow_out" transform="scale(0.3 0.3)">
          <a xlink:href="common_2autodiff_8h__incl_org.svg" target="_base">
           <rect id="button" ry="5" rx="5" y="6" x="6" height="38" width="38"
                fill="#f2f5e9" fill-opacity="0.5" stroke="#606060" stroke-width="1.0"/>
           <path id="arrow"
             d="M 11.500037,31.436501 C 11.940474,20.09759 22.043105,11.32322 32.158766,21.979434 L 37.068811,17.246167 C 37.068811,17.246167 37.088388,32 37.088388,32 L 22.160133,31.978069 C 22.160133,31.978069 26.997745,27.140456 26.997745,27.140456 C 18.528582,18.264221 13.291696,25.230495 11.500037,31.436501 z"
             style="fill:#404040;"/>
          </a>
         </g>
        </svg>
</svg>
