<?xml version="1.0" encoding="UTF-8" standalone="no"?>
<!DOCTYPE svg PUBLIC "-//W3C//DTD SVG 1.1//EN"
 "http://www.w3.org/Graphics/SVG/1.1/DTD/svg11.dtd">
<!-- Generated by graphviz version 2.43.0 (0)
 -->
<!-- Title: drake/solvers/common_solver_option.h Pages: 1 -->
<svg width="305pt" height="151pt"
 viewBox="0.00 0.00 304.50 151.00" xmlns="http://www.w3.org/2000/svg" xmlns:xlink="http://www.w3.org/1999/xlink">
<g id="graph0" class="graph" transform="scale(1 1) rotate(0) translate(4 147)">
<title>drake/solvers/common_solver_option.h</title>
<polygon fill="white" stroke="transparent" points="-4,4 -4,-147 300.5,-147 300.5,4 -4,4"/>
<!-- Node0 -->
<g id="node1" class="node">
<title>Node0</title>
<g id="a_node1"><a xlink:title=" ">
<polygon fill="#bfbfbf" stroke="black" points="64,-112.5 64,-142.5 192,-142.5 192,-112.5 64,-112.5"/>
<text text-anchor="start" x="72" y="-130.5" font-family="Helvetica,sans-Serif" font-size="10.00">drake/solvers/common</text>
<text text-anchor="middle" x="128" y="-119.5" font-family="Helvetica,sans-Serif" font-size="10.00">_solver_option.h</text>
</a>
</g>
</g>
<!-- Node1 -->
<g id="node2" class="node">
<title>Node1</title>
<g id="a_node2"><a xlink:title=" ">
<polygon fill="white" stroke="#bfbfbf" points="0,-56.5 0,-75.5 56,-75.5 56,-56.5 0,-56.5"/>
<text text-anchor="middle" x="28" y="-63.5" font-family="Helvetica,sans-Serif" font-size="10.00">optional</text>
</a>
</g>
</g>
<!-- Node0&#45;&gt;Node1 -->
<g id="edge1" class="edge">
<title>Node0&#45;&gt;Node1</title>
<path fill="none" stroke="midnightblue" d="M104.3,-112.4C88.27,-102.86 67.2,-90.32 51.26,-80.84"/>
<polygon fill="midnightblue" stroke="midnightblue" points="52.93,-77.76 42.55,-75.66 49.36,-83.78 52.93,-77.76"/>
</g>
<!-- Node2 -->
<g id="node3" class="node">
<title>Node2</title>
<g id="a_node3"><a xlink:title=" ">
<polygon fill="white" stroke="#bfbfbf" points="63,-0.5 63,-19.5 107,-19.5 107,-0.5 63,-0.5"/>
<text text-anchor="middle" x="85" y="-7.5" font-family="Helvetica,sans-Serif" font-size="10.00">string</text>
</a>
</g>
</g>
<!-- Node0&#45;&gt;Node2 -->
<g id="edge2" class="edge">
<title>Node0&#45;&gt;Node2</title>
<path fill="none" stroke="midnightblue" d="M120.03,-112.24C114.71,-102.3 107.82,-88.61 103,-76 97.12,-60.62 92.27,-42.52 89.09,-29.33"/>
<polygon fill="midnightblue" stroke="midnightblue" points="92.5,-28.53 86.83,-19.58 85.68,-30.11 92.5,-28.53"/>
</g>
<!-- Node3 -->
<g id="node4" class="node">
<title>Node3</title>
<g id="a_node4"><a xlink:title=" ">
<polygon fill="white" stroke="#bfbfbf" points="223.5,-0.5 223.5,-19.5 296.5,-19.5 296.5,-0.5 223.5,-0.5"/>
<text text-anchor="middle" x="260" y="-7.5" font-family="Helvetica,sans-Serif" font-size="10.00">string_view</text>
</a>
</g>
</g>
<!-- Node0&#45;&gt;Node3 -->
<g id="edge3" class="edge">
<title>Node0&#45;&gt;Node3</title>
<path fill="none" stroke="midnightblue" d="M183.5,-112.48C204.08,-104.77 226.02,-93.16 241,-76 252.22,-63.14 256.83,-43.96 258.71,-29.76"/>
<polygon fill="midnightblue" stroke="midnightblue" points="262.21,-29.96 259.71,-19.66 255.24,-29.27 262.21,-29.96"/>
</g>
<!-- Node4 -->
<g id="node5" class="node">
<title>Node4</title>
<g id="a_node5"><a xlink:href="fmt_8h.html" target="_top" xlink:title=" ">
<polygon fill="white" stroke="black" points="112.5,-56.5 112.5,-75.5 231.5,-75.5 231.5,-56.5 112.5,-56.5"/>
<text text-anchor="middle" x="172" y="-63.5" font-family="Helvetica,sans-Serif" font-size="10.00">drake/common/fmt.h</text>
</a>
</g>
</g>
<!-- Node0&#45;&gt;Node4 -->
<g id="edge4" class="edge">
<title>Node0&#45;&gt;Node4</title>
<path fill="none" stroke="midnightblue" d="M138.43,-112.4C144.76,-103.84 152.87,-92.87 159.53,-83.86"/>
<polygon fill="midnightblue" stroke="midnightblue" points="162.47,-85.78 165.6,-75.66 156.84,-81.62 162.47,-85.78"/>
</g>
<!-- Node4&#45;&gt;Node2 -->
<g id="edge5" class="edge">
<title>Node4&#45;&gt;Node2</title>
<path fill="none" stroke="midnightblue" d="M158.02,-56.32C144.45,-47.9 123.62,-34.97 107.68,-25.07"/>
<polygon fill="midnightblue" stroke="midnightblue" points="109.29,-21.95 98.94,-19.65 105.59,-27.9 109.29,-21.95"/>
</g>
<!-- Node4&#45;&gt;Node3 -->
<g id="edge6" class="edge">
<title>Node4&#45;&gt;Node3</title>
<path fill="none" stroke="midnightblue" d="M186.14,-56.32C199.87,-47.9 220.94,-34.97 237.06,-25.07"/>
<polygon fill="midnightblue" stroke="midnightblue" points="239.2,-27.87 245.9,-19.65 235.54,-21.9 239.2,-27.87"/>
</g>
<!-- Node5 -->
<g id="node6" class="node">
<title>Node5</title>
<g id="a_node6"><a xlink:title=" ">
<polygon fill="white" stroke="#bfbfbf" points="126.5,-0.5 126.5,-19.5 205.5,-19.5 205.5,-0.5 126.5,-0.5"/>
<text text-anchor="middle" x="166" y="-7.5" font-family="Helvetica,sans-Serif" font-size="10.00">fmt/format.h</text>
</a>
</g>
</g>
<!-- Node4&#45;&gt;Node5 -->
<g id="edge7" class="edge">
<title>Node4&#45;&gt;Node5</title>
<path fill="none" stroke="midnightblue" d="M171.01,-56.08C170.21,-48.93 169.07,-38.64 168.08,-29.69"/>
<polygon fill="midnightblue" stroke="midnightblue" points="171.56,-29.3 166.97,-19.75 164.6,-30.08 171.56,-29.3"/>
</g>
</g>
</svg>
