<?xml version="1.0" encoding="UTF-8" standalone="no"?>
<!DOCTYPE svg PUBLIC "-//W3C//DTD SVG 1.1//EN"
 "http://www.w3.org/Graphics/SVG/1.1/DTD/svg11.dtd">
<!-- Generated by graphviz version 2.43.0 (0)
 -->
<!-- Title: drake/multibody/contact_solvers/schur_complement.h Pages: 1 -->
<svg width="1450pt" height="452pt"
 viewBox="0.00 0.00 1449.50 452.00" xmlns="http://www.w3.org/2000/svg" xmlns:xlink="http://www.w3.org/1999/xlink">
<g id="graph0" class="graph" transform="scale(1 1) rotate(0) translate(4 448)">
<title>drake/multibody/contact_solvers/schur_complement.h</title>
<polygon fill="white" stroke="transparent" points="-4,4 -4,-448 1445.5,-448 1445.5,4 -4,4"/>
<!-- Node0 -->
<g id="node1" class="node">
<title>Node0</title>
<g id="a_node1"><a xlink:title=" ">
<polygon fill="#bfbfbf" stroke="black" points="695,-413.5 695,-443.5 857,-443.5 857,-413.5 695,-413.5"/>
<text text-anchor="start" x="703" y="-431.5" font-family="Helvetica,sans-Serif" font-size="10.00">drake/multibody/contact</text>
<text text-anchor="middle" x="776" y="-420.5" font-family="Helvetica,sans-Serif" font-size="10.00">_solvers/schur_complement.h</text>
</a>
</g>
</g>
<!-- Node1 -->
<g id="node2" class="node">
<title>Node1</title>
<g id="a_node2"><a xlink:title=" ">
<polygon fill="white" stroke="#bfbfbf" points="0,-263 0,-282 86,-282 86,-263 0,-263"/>
<text text-anchor="middle" x="43" y="-270" font-family="Helvetica,sans-Serif" font-size="10.00">unordered_set</text>
</a>
</g>
</g>
<!-- Node0&#45;&gt;Node1 -->
<g id="edge1" class="edge">
<title>Node0&#45;&gt;Node1</title>
<path fill="none" stroke="midnightblue" d="M694.9,-418.29C566.49,-402.32 309.43,-364.76 100,-299 89.45,-295.69 78.26,-290.97 68.61,-286.48"/>
<polygon fill="midnightblue" stroke="midnightblue" points="70.09,-283.31 59.56,-282.14 67.06,-289.62 70.09,-283.31"/>
</g>
<!-- Node2 -->
<g id="node3" class="node">
<title>Node2</title>
<g id="a_node3"><a xlink:title=" ">
<polygon fill="white" stroke="#bfbfbf" points="646.5,-185 646.5,-204 693.5,-204 693.5,-185 646.5,-185"/>
<text text-anchor="middle" x="670" y="-192" font-family="Helvetica,sans-Serif" font-size="10.00">vector</text>
</a>
</g>
</g>
<!-- Node0&#45;&gt;Node2 -->
<g id="edge2" class="edge">
<title>Node0&#45;&gt;Node2</title>
<path fill="none" stroke="midnightblue" d="M769.53,-413.34C751.14,-373.08 698.57,-258.03 678.2,-213.45"/>
<polygon fill="midnightblue" stroke="midnightblue" points="681.3,-211.8 673.96,-204.16 674.93,-214.71 681.3,-211.8"/>
</g>
<!-- Node3 -->
<g id="node4" class="node">
<title>Node3</title>
<g id="a_node4"><a xlink:href="drake__copyable_8h.html" target="_top" xlink:title="Provides careful macros to selectively enable or disable the special member functions for copy&#45;constr...">
<polygon fill="white" stroke="black" points="869.5,-112.5 869.5,-142.5 988.5,-142.5 988.5,-112.5 869.5,-112.5"/>
<text text-anchor="start" x="877.5" y="-130.5" font-family="Helvetica,sans-Serif" font-size="10.00">drake/common/drake</text>
<text text-anchor="middle" x="929" y="-119.5" font-family="Helvetica,sans-Serif" font-size="10.00">_copyable.h</text>
</a>
</g>
</g>
<!-- Node0&#45;&gt;Node3 -->
<g id="edge3" class="edge">
<title>Node0&#45;&gt;Node3</title>
<path fill="none" stroke="midnightblue" d="M857.12,-415.31C962.97,-394.46 1143.34,-340.71 1217,-210 1223.76,-198 1225.92,-189.5 1217,-179 1186.68,-143.31 1060.59,-151.12 998.73,-142.98"/>
<polygon fill="midnightblue" stroke="midnightblue" points="999.09,-139.49 988.67,-141.39 998.01,-146.41 999.09,-139.49"/>
</g>
<!-- Node4 -->
<g id="node5" class="node">
<title>Node4</title>
<g id="a_node5"><a xlink:href="eigen__types_8h.html" target="_top" xlink:title="This file contains abbreviated definitions for certain specializations of Eigen::Matrix that are comm...">
<polygon fill="white" stroke="black" points="1088.5,-179.5 1088.5,-209.5 1207.5,-209.5 1207.5,-179.5 1088.5,-179.5"/>
<text text-anchor="start" x="1096.5" y="-197.5" font-family="Helvetica,sans-Serif" font-size="10.00">drake/common/eigen</text>
<text text-anchor="middle" x="1148" y="-186.5" font-family="Helvetica,sans-Serif" font-size="10.00">_types.h</text>
</a>
</g>
</g>
<!-- Node0&#45;&gt;Node4 -->
<g id="edge4" class="edge">
<title>Node0&#45;&gt;Node4</title>
<path fill="none" stroke="midnightblue" d="M807.69,-413.39C855.5,-391.54 948.25,-347.02 1021,-299 1059.6,-273.52 1100.41,-238.65 1125.04,-216.6"/>
<polygon fill="midnightblue" stroke="midnightblue" points="1127.67,-218.94 1132.75,-209.64 1122.98,-213.74 1127.67,-218.94"/>
</g>
<!-- Node16 -->
<g id="node17" class="node">
<title>Node16</title>
<g id="a_node17"><a xlink:href="block__sparse__cholesky__solver_8h.html" target="_top" xlink:title=" ">
<polygon fill="white" stroke="black" points="536.5,-335.5 536.5,-376.5 671.5,-376.5 671.5,-335.5 536.5,-335.5"/>
<text text-anchor="start" x="544.5" y="-364.5" font-family="Helvetica,sans-Serif" font-size="10.00">drake/multibody/contact</text>
<text text-anchor="start" x="544.5" y="-353.5" font-family="Helvetica,sans-Serif" font-size="10.00">_solvers/block_sparse</text>
<text text-anchor="middle" x="604" y="-342.5" font-family="Helvetica,sans-Serif" font-size="10.00">_cholesky_solver.h</text>
</a>
</g>
</g>
<!-- Node0&#45;&gt;Node16 -->
<g id="edge19" class="edge">
<title>Node0&#45;&gt;Node16</title>
<path fill="none" stroke="midnightblue" d="M741.61,-413.4C718.64,-403.99 687.89,-391.39 661.28,-380.48"/>
<polygon fill="midnightblue" stroke="midnightblue" points="662.27,-377.1 651.69,-376.55 659.61,-383.58 662.27,-377.1"/>
</g>
<!-- Node22 -->
<g id="node23" class="node">
<title>Node22</title>
<g id="a_node23"><a xlink:href="block__sparse__lower__triangular__or__symmetric__matrix_8h.html" target="_top" xlink:title=" ">
<polygon fill="white" stroke="black" points="766,-246.5 766,-298.5 940,-298.5 940,-246.5 766,-246.5"/>
<text text-anchor="start" x="774" y="-286.5" font-family="Helvetica,sans-Serif" font-size="10.00">drake/multibody/contact</text>
<text text-anchor="start" x="774" y="-275.5" font-family="Helvetica,sans-Serif" font-size="10.00">_solvers/block_sparse</text>
<text text-anchor="start" x="774" y="-264.5" font-family="Helvetica,sans-Serif" font-size="10.00">_lower_triangular_or_symmetric</text>
<text text-anchor="middle" x="853" y="-253.5" font-family="Helvetica,sans-Serif" font-size="10.00">_matrix.h</text>
</a>
</g>
</g>
<!-- Node0&#45;&gt;Node22 -->
<g id="edge52" class="edge">
<title>Node0&#45;&gt;Node22</title>
<path fill="none" stroke="midnightblue" d="M783.11,-413.29C795,-389.5 819.26,-340.98 835.83,-307.84"/>
<polygon fill="midnightblue" stroke="midnightblue" points="839.15,-309.03 840.49,-298.52 832.89,-305.9 839.15,-309.03"/>
</g>
<!-- Node4&#45;&gt;Node3 -->
<g id="edge10" class="edge">
<title>Node4&#45;&gt;Node3</title>
<path fill="none" stroke="midnightblue" d="M1100.75,-179.48C1067.19,-169.51 1021.94,-156.09 986.32,-145.51"/>
<polygon fill="midnightblue" stroke="midnightblue" points="987.13,-142.1 976.54,-142.61 985.13,-148.81 987.13,-142.1"/>
</g>
<!-- Node5 -->
<g id="node6" class="node">
<title>Node5</title>
<g id="a_node6"><a xlink:title=" ">
<polygon fill="white" stroke="#bfbfbf" points="613.5,-118 613.5,-137 658.5,-137 658.5,-118 613.5,-118"/>
<text text-anchor="middle" x="636" y="-125" font-family="Helvetica,sans-Serif" font-size="10.00">utility</text>
</a>
</g>
</g>
<!-- Node4&#45;&gt;Node5 -->
<g id="edge5" class="edge">
<title>Node4&#45;&gt;Node5</title>
<path fill="none" stroke="midnightblue" d="M1088.24,-180.49C1085.12,-179.95 1082.03,-179.45 1079,-179 900.26,-152.37 850.09,-183.6 674,-143 671,-142.31 667.92,-141.43 664.87,-140.45"/>
<polygon fill="midnightblue" stroke="midnightblue" points="666,-137.14 655.4,-137.08 663.65,-143.73 666,-137.14"/>
</g>
<!-- Node6 -->
<g id="node7" class="node">
<title>Node6</title>
<g id="a_node7"><a xlink:title=" ">
<polygon fill="white" stroke="#bfbfbf" points="1006.5,-118 1006.5,-137 1083.5,-137 1083.5,-118 1006.5,-118"/>
<text text-anchor="middle" x="1045" y="-125" font-family="Helvetica,sans-Serif" font-size="10.00">Eigen/Dense</text>
</a>
</g>
</g>
<!-- Node4&#45;&gt;Node6 -->
<g id="edge6" class="edge">
<title>Node4&#45;&gt;Node6</title>
<path fill="none" stroke="midnightblue" d="M1125.65,-179.4C1108.38,-168.5 1084.58,-153.48 1067.32,-142.58"/>
<polygon fill="midnightblue" stroke="midnightblue" points="1068.81,-139.38 1058.48,-137.01 1065.07,-145.3 1068.81,-139.38"/>
</g>
<!-- Node7 -->
<g id="node8" class="node">
<title>Node7</title>
<g id="a_node8"><a xlink:href="constants_8h.html" target="_top" xlink:title=" ">
<polygon fill="white" stroke="black" points="1101.5,-118 1101.5,-137 1250.5,-137 1250.5,-118 1101.5,-118"/>
<text text-anchor="middle" x="1176" y="-125" font-family="Helvetica,sans-Serif" font-size="10.00">drake/common/constants.h</text>
</a>
</g>
</g>
<!-- Node4&#45;&gt;Node7 -->
<g id="edge7" class="edge">
<title>Node4&#45;&gt;Node7</title>
<path fill="none" stroke="midnightblue" d="M1154.08,-179.4C1158.23,-169.76 1163.76,-156.91 1168.23,-146.54"/>
<polygon fill="midnightblue" stroke="midnightblue" points="1171.51,-147.76 1172.25,-137.19 1165.08,-144.99 1171.51,-147.76"/>
</g>
<!-- Node8 -->
<g id="node9" class="node">
<title>Node8</title>
<g id="a_node9"><a xlink:href="drake__assert_8h.html" target="_top" xlink:title="Provides Drake&#39;s assertion implementation.">
<polygon fill="white" stroke="black" points="395.5,-112.5 395.5,-142.5 514.5,-142.5 514.5,-112.5 395.5,-112.5"/>
<text text-anchor="start" x="403.5" y="-130.5" font-family="Helvetica,sans-Serif" font-size="10.00">drake/common/drake</text>
<text text-anchor="middle" x="455" y="-119.5" font-family="Helvetica,sans-Serif" font-size="10.00">_assert.h</text>
</a>
</g>
</g>
<!-- Node4&#45;&gt;Node8 -->
<g id="edge8" class="edge">
<title>Node4&#45;&gt;Node8</title>
<path fill="none" stroke="midnightblue" d="M1088.25,-180.44C1085.13,-179.92 1082.03,-179.43 1079,-179 869.4,-149.17 814.93,-161.25 604,-143 578.17,-140.76 549.85,-138.07 524.89,-135.61"/>
<polygon fill="midnightblue" stroke="midnightblue" points="525.08,-132.11 514.79,-134.61 524.39,-139.08 525.08,-132.11"/>
</g>
<!-- Node10 -->
<g id="node11" class="node">
<title>Node10</title>
<g id="a_node11"><a xlink:href="fmt__eigen_8h.html" target="_top" xlink:title=" ">
<polygon fill="white" stroke="black" points="1268.5,-118 1268.5,-137 1419.5,-137 1419.5,-118 1268.5,-118"/>
<text text-anchor="middle" x="1344" y="-125" font-family="Helvetica,sans-Serif" font-size="10.00">drake/common/fmt_eigen.h</text>
</a>
</g>
</g>
<!-- Node4&#45;&gt;Node10 -->
<g id="edge11" class="edge">
<title>Node4&#45;&gt;Node10</title>
<path fill="none" stroke="midnightblue" d="M1190.53,-179.4C1225.83,-167.69 1275.46,-151.23 1308.62,-140.23"/>
<polygon fill="midnightblue" stroke="midnightblue" points="1309.96,-143.48 1318.35,-137.01 1307.75,-136.83 1309.96,-143.48"/>
</g>
<!-- Node9 -->
<g id="node10" class="node">
<title>Node9</title>
<g id="a_node10"><a xlink:title=" ">
<polygon fill="white" stroke="#bfbfbf" points="369.5,-56.5 369.5,-75.5 438.5,-75.5 438.5,-56.5 369.5,-56.5"/>
<text text-anchor="middle" x="404" y="-63.5" font-family="Helvetica,sans-Serif" font-size="10.00">type_traits</text>
</a>
</g>
</g>
<!-- Node8&#45;&gt;Node9 -->
<g id="edge9" class="edge">
<title>Node8&#45;&gt;Node9</title>
<path fill="none" stroke="midnightblue" d="M442.91,-112.4C435.43,-103.66 425.78,-92.41 417.97,-83.3"/>
<polygon fill="midnightblue" stroke="midnightblue" points="420.59,-80.97 411.42,-75.66 415.27,-85.53 420.59,-80.97"/>
</g>
<!-- Node11 -->
<g id="node12" class="node">
<title>Node11</title>
<g id="a_node12"><a xlink:title=" ">
<polygon fill="white" stroke="#bfbfbf" points="1245,-0.5 1245,-19.5 1289,-19.5 1289,-0.5 1245,-0.5"/>
<text text-anchor="middle" x="1267" y="-7.5" font-family="Helvetica,sans-Serif" font-size="10.00">string</text>
</a>
</g>
</g>
<!-- Node10&#45;&gt;Node11 -->
<g id="edge12" class="edge">
<title>Node10&#45;&gt;Node11</title>
<path fill="none" stroke="midnightblue" d="M1338.21,-117.82C1325.56,-98.84 1295.23,-53.35 1278.53,-28.29"/>
<polygon fill="midnightblue" stroke="midnightblue" points="1281.31,-26.16 1272.85,-19.78 1275.49,-30.04 1281.31,-26.16"/>
</g>
<!-- Node12 -->
<g id="node13" class="node">
<title>Node12</title>
<g id="a_node13"><a xlink:title=" ">
<polygon fill="white" stroke="#bfbfbf" points="1307.5,-0.5 1307.5,-19.5 1380.5,-19.5 1380.5,-0.5 1307.5,-0.5"/>
<text text-anchor="middle" x="1344" y="-7.5" font-family="Helvetica,sans-Serif" font-size="10.00">string_view</text>
</a>
</g>
</g>
<!-- Node10&#45;&gt;Node12 -->
<g id="edge13" class="edge">
<title>Node10&#45;&gt;Node12</title>
<path fill="none" stroke="midnightblue" d="M1344,-117.82C1344,-99.26 1344,-55.34 1344,-29.97"/>
<polygon fill="midnightblue" stroke="midnightblue" points="1347.5,-29.78 1344,-19.78 1340.5,-29.78 1347.5,-29.78"/>
</g>
<!-- Node13 -->
<g id="node14" class="node">
<title>Node13</title>
<g id="a_node14"><a xlink:title=" ">
<polygon fill="white" stroke="#bfbfbf" points="1372.5,-56.5 1372.5,-75.5 1441.5,-75.5 1441.5,-56.5 1372.5,-56.5"/>
<text text-anchor="middle" x="1407" y="-63.5" font-family="Helvetica,sans-Serif" font-size="10.00">Eigen/Core</text>
</a>
</g>
</g>
<!-- Node10&#45;&gt;Node13 -->
<g id="edge14" class="edge">
<title>Node10&#45;&gt;Node13</title>
<path fill="none" stroke="midnightblue" d="M1353.03,-117.98C1362.76,-108.78 1378.46,-93.96 1390.42,-82.66"/>
<polygon fill="midnightblue" stroke="midnightblue" points="1393.12,-84.92 1397.99,-75.51 1388.32,-79.83 1393.12,-84.92"/>
</g>
<!-- Node14 -->
<g id="node15" class="node">
<title>Node14</title>
<g id="a_node15"><a xlink:href="fmt_8h.html" target="_top" xlink:title=" ">
<polygon fill="white" stroke="black" points="1158.5,-56.5 1158.5,-75.5 1277.5,-75.5 1277.5,-56.5 1158.5,-56.5"/>
<text text-anchor="middle" x="1218" y="-63.5" font-family="Helvetica,sans-Serif" font-size="10.00">drake/common/fmt.h</text>
</a>
</g>
</g>
<!-- Node10&#45;&gt;Node14 -->
<g id="edge15" class="edge">
<title>Node10&#45;&gt;Node14</title>
<path fill="none" stroke="midnightblue" d="M1325.95,-117.98C1304.8,-107.99 1269.56,-91.35 1245.12,-79.81"/>
<polygon fill="midnightblue" stroke="midnightblue" points="1246.56,-76.61 1236.02,-75.51 1243.57,-82.94 1246.56,-76.61"/>
</g>
<!-- Node14&#45;&gt;Node11 -->
<g id="edge16" class="edge">
<title>Node14&#45;&gt;Node11</title>
<path fill="none" stroke="midnightblue" d="M1226.09,-56.08C1233.16,-48.3 1243.59,-36.8 1252.15,-27.37"/>
<polygon fill="midnightblue" stroke="midnightblue" points="1254.93,-29.51 1259.06,-19.75 1249.75,-24.8 1254.93,-29.51"/>
</g>
<!-- Node14&#45;&gt;Node12 -->
<g id="edge17" class="edge">
<title>Node14&#45;&gt;Node12</title>
<path fill="none" stroke="midnightblue" d="M1237.97,-56.44C1258.61,-47.6 1291.06,-33.69 1314.63,-23.59"/>
<polygon fill="midnightblue" stroke="midnightblue" points="1316.32,-26.67 1324.13,-19.52 1313.56,-20.24 1316.32,-26.67"/>
</g>
<!-- Node15 -->
<g id="node16" class="node">
<title>Node15</title>
<g id="a_node16"><a xlink:title=" ">
<polygon fill="white" stroke="#bfbfbf" points="1148.5,-0.5 1148.5,-19.5 1227.5,-19.5 1227.5,-0.5 1148.5,-0.5"/>
<text text-anchor="middle" x="1188" y="-7.5" font-family="Helvetica,sans-Serif" font-size="10.00">fmt/format.h</text>
</a>
</g>
</g>
<!-- Node14&#45;&gt;Node15 -->
<g id="edge18" class="edge">
<title>Node14&#45;&gt;Node15</title>
<path fill="none" stroke="midnightblue" d="M1213.05,-56.08C1208.9,-48.61 1202.85,-37.72 1197.73,-28.52"/>
<polygon fill="midnightblue" stroke="midnightblue" points="1200.78,-26.79 1192.86,-19.75 1194.66,-30.19 1200.78,-26.79"/>
</g>
<!-- Node16&#45;&gt;Node1 -->
<g id="edge22" class="edge">
<title>Node16&#45;&gt;Node1</title>
<path fill="none" stroke="midnightblue" d="M536.4,-350.1C418.61,-341.12 180.6,-320.93 100,-299 89.02,-296.01 77.45,-291.18 67.63,-286.53"/>
<polygon fill="midnightblue" stroke="midnightblue" points="69,-283.3 58.48,-282.01 65.9,-289.58 69,-283.3"/>
</g>
<!-- Node16&#45;&gt;Node2 -->
<g id="edge23" class="edge">
<title>Node16&#45;&gt;Node2</title>
<path fill="none" stroke="midnightblue" d="M614.53,-335.3C620.03,-324.68 626.7,-311.27 632,-299 644.67,-269.67 656.97,-234.59 664,-213.73"/>
<polygon fill="midnightblue" stroke="midnightblue" points="667.33,-214.81 667.17,-204.22 660.69,-212.6 667.33,-214.81"/>
</g>
<!-- Node16&#45;&gt;Node3 -->
<g id="edge30" class="edge">
<title>Node16&#45;&gt;Node3</title>
<path fill="none" stroke="midnightblue" d="M604.92,-335.3C607.27,-294.02 614.96,-200.49 637,-179 671.05,-145.8 796.41,-151.42 859.3,-142.82"/>
<polygon fill="midnightblue" stroke="midnightblue" points="859.87,-146.28 869.2,-141.25 858.77,-139.36 859.87,-146.28"/>
</g>
<!-- Node16&#45;&gt;Node4 -->
<g id="edge31" class="edge">
<title>Node16&#45;&gt;Node4</title>
<path fill="none" stroke="midnightblue" d="M671.65,-350.41C742.32,-344.15 855.7,-329.95 949,-299 1012.48,-277.95 1080.34,-238.56 1118.14,-214.92"/>
<polygon fill="midnightblue" stroke="midnightblue" points="1120.05,-217.85 1126.64,-209.55 1116.31,-211.93 1120.05,-217.85"/>
</g>
<!-- Node17 -->
<g id="node18" class="node">
<title>Node17</title>
<g id="a_node18"><a xlink:title=" ">
<polygon fill="white" stroke="#bfbfbf" points="261,-118 261,-137 319,-137 319,-118 261,-118"/>
<text text-anchor="middle" x="290" y="-125" font-family="Helvetica,sans-Serif" font-size="10.00">memory</text>
</a>
</g>
</g>
<!-- Node16&#45;&gt;Node17 -->
<g id="edge20" class="edge">
<title>Node16&#45;&gt;Node17</title>
<path fill="none" stroke="midnightblue" d="M536.49,-350.89C469.17,-345.08 363.71,-331.29 278,-299 207.24,-272.34 169.92,-275.99 133,-210 105.81,-161.41 195.89,-140.76 250.77,-132.86"/>
<polygon fill="midnightblue" stroke="midnightblue" points="251.46,-136.29 260.9,-131.48 250.52,-129.36 251.46,-136.29"/>
</g>
<!-- Node18 -->
<g id="node19" class="node">
<title>Node18</title>
<g id="a_node19"><a xlink:title=" ">
<polygon fill="white" stroke="#bfbfbf" points="712,-185 712,-204 768,-204 768,-185 712,-185"/>
<text text-anchor="middle" x="740" y="-192" font-family="Helvetica,sans-Serif" font-size="10.00">optional</text>
</a>
</g>
</g>
<!-- Node16&#45;&gt;Node18 -->
<g id="edge21" class="edge">
<title>Node16&#45;&gt;Node18</title>
<path fill="none" stroke="midnightblue" d="M622.86,-335.34C632.88,-324.73 645.3,-311.32 656,-299 681.91,-269.17 710.62,-233.09 726.87,-212.37"/>
<polygon fill="midnightblue" stroke="midnightblue" points="729.82,-214.28 733.22,-204.25 724.31,-209.97 729.82,-214.28"/>
</g>
<!-- Node19 -->
<g id="node20" class="node">
<title>Node19</title>
<g id="a_node20"><a xlink:href="copyable__unique__ptr_8h.html" target="_top" xlink:title=" ">
<polygon fill="white" stroke="black" points="414.5,-179.5 414.5,-209.5 551.5,-209.5 551.5,-179.5 414.5,-179.5"/>
<text text-anchor="start" x="422.5" y="-197.5" font-family="Helvetica,sans-Serif" font-size="10.00">drake/common/copyable</text>
<text text-anchor="middle" x="483" y="-186.5" font-family="Helvetica,sans-Serif" font-size="10.00">_unique_ptr.h</text>
</a>
</g>
</g>
<!-- Node16&#45;&gt;Node19 -->
<g id="edge24" class="edge">
<title>Node16&#45;&gt;Node19</title>
<path fill="none" stroke="midnightblue" d="M536.35,-345.87C482.11,-336.99 412.29,-321.54 395,-299 380.66,-280.31 383.2,-266.38 395,-246 402.97,-232.25 416.25,-221.91 430.11,-214.3"/>
<polygon fill="midnightblue" stroke="midnightblue" points="431.91,-217.31 439.25,-209.68 428.75,-211.07 431.91,-217.31"/>
</g>
<!-- Node21 -->
<g id="node22" class="node">
<title>Node21</title>
<g id="a_node22"><a xlink:href="reset__after__move_8h.html" target="_top" xlink:title=" ">
<polygon fill="white" stroke="black" points="142.5,-179.5 142.5,-209.5 259.5,-209.5 259.5,-179.5 142.5,-179.5"/>
<text text-anchor="start" x="150.5" y="-197.5" font-family="Helvetica,sans-Serif" font-size="10.00">drake/common/reset</text>
<text text-anchor="middle" x="201" y="-186.5" font-family="Helvetica,sans-Serif" font-size="10.00">_after_move.h</text>
</a>
</g>
</g>
<!-- Node16&#45;&gt;Node21 -->
<g id="edge32" class="edge">
<title>Node16&#45;&gt;Node21</title>
<path fill="none" stroke="midnightblue" d="M536.44,-342.95C491.66,-333.76 432.14,-319.22 382,-299 325.29,-276.14 264.62,-238.39 229.9,-215.35"/>
<polygon fill="midnightblue" stroke="midnightblue" points="231.5,-212.2 221.24,-209.55 227.6,-218.02 231.5,-212.2"/>
</g>
<!-- Node16&#45;&gt;Node22 -->
<g id="edge35" class="edge">
<title>Node16&#45;&gt;Node22</title>
<path fill="none" stroke="midnightblue" d="M663.64,-335.48C694.41,-325.41 732.52,-312.93 766.47,-301.82"/>
<polygon fill="midnightblue" stroke="midnightblue" points="767.97,-305.01 776.39,-298.58 765.79,-298.36 767.97,-305.01"/>
</g>
<!-- Node26 -->
<g id="node27" class="node">
<title>Node26</title>
<g id="a_node27"><a xlink:href="partial__permutation_8h.html" target="_top" xlink:title=" ">
<polygon fill="white" stroke="black" points="404,-257.5 404,-287.5 590,-287.5 590,-257.5 404,-257.5"/>
<text text-anchor="start" x="412" y="-275.5" font-family="Helvetica,sans-Serif" font-size="10.00">drake/multibody/contact</text>
<text text-anchor="middle" x="497" y="-264.5" font-family="Helvetica,sans-Serif" font-size="10.00">_solvers/sap/partial_permutation.h</text>
</a>
</g>
</g>
<!-- Node16&#45;&gt;Node26 -->
<g id="edge46" class="edge">
<title>Node16&#45;&gt;Node26</title>
<path fill="none" stroke="midnightblue" d="M578.37,-335.48C561.84,-322.89 540.38,-306.54 523.65,-293.8"/>
<polygon fill="midnightblue" stroke="midnightblue" points="525.46,-290.78 515.39,-287.5 521.22,-296.35 525.46,-290.78"/>
</g>
<!-- Node19&#45;&gt;Node5 -->
<g id="edge27" class="edge">
<title>Node19&#45;&gt;Node5</title>
<path fill="none" stroke="midnightblue" d="M516.2,-179.4C543.16,-167.94 580.83,-151.94 606.69,-140.95"/>
<polygon fill="midnightblue" stroke="midnightblue" points="608.14,-144.14 615.98,-137.01 605.4,-137.7 608.14,-144.14"/>
</g>
<!-- Node19&#45;&gt;Node8 -->
<g id="edge28" class="edge">
<title>Node19&#45;&gt;Node8</title>
<path fill="none" stroke="midnightblue" d="M476.92,-179.4C473.48,-171.39 469.07,-161.16 465.11,-151.98"/>
<polygon fill="midnightblue" stroke="midnightblue" points="468.23,-150.38 461.06,-142.58 461.81,-153.15 468.23,-150.38"/>
</g>
<!-- Node19&#45;&gt;Node14 -->
<g id="edge29" class="edge">
<title>Node19&#45;&gt;Node14</title>
<path fill="none" stroke="midnightblue" d="M498.35,-179.19C520.01,-160 561.63,-126.65 604,-112 702.79,-77.83 1009.08,-69.61 1148.1,-67.63"/>
<polygon fill="midnightblue" stroke="midnightblue" points="1148.26,-71.13 1158.22,-67.49 1148.17,-64.13 1148.26,-71.13"/>
</g>
<!-- Node19&#45;&gt;Node17 -->
<g id="edge26" class="edge">
<title>Node19&#45;&gt;Node17</title>
<path fill="none" stroke="midnightblue" d="M441.12,-179.4C406.36,-167.69 357.49,-151.23 324.84,-140.23"/>
<polygon fill="midnightblue" stroke="midnightblue" points="325.85,-136.88 315.26,-137.01 323.62,-143.52 325.85,-136.88"/>
</g>
<!-- Node20 -->
<g id="node21" class="node">
<title>Node20</title>
<g id="a_node21"><a xlink:title=" ">
<polygon fill="white" stroke="#bfbfbf" points="683.5,-118 683.5,-137 736.5,-137 736.5,-118 683.5,-118"/>
<text text-anchor="middle" x="710" y="-125" font-family="Helvetica,sans-Serif" font-size="10.00">cstddef</text>
</a>
</g>
</g>
<!-- Node19&#45;&gt;Node20 -->
<g id="edge25" class="edge">
<title>Node19&#45;&gt;Node20</title>
<path fill="none" stroke="midnightblue" d="M537.58,-179.4C574.32,-169.69 623.76,-156.21 667,-143 669.92,-142.11 672.94,-141.15 675.97,-140.18"/>
<polygon fill="midnightblue" stroke="midnightblue" points="677.12,-143.48 685.52,-137.03 674.93,-136.83 677.12,-143.48"/>
</g>
<!-- Node21&#45;&gt;Node5 -->
<g id="edge34" class="edge">
<title>Node21&#45;&gt;Node5</title>
<path fill="none" stroke="midnightblue" d="M259.78,-180.51C262.55,-179.98 265.3,-179.48 268,-179 332.29,-167.65 525.09,-142.66 602.9,-132.71"/>
<polygon fill="midnightblue" stroke="midnightblue" points="603.61,-136.15 613.09,-131.41 602.73,-129.2 603.61,-136.15"/>
</g>
<!-- Node21&#45;&gt;Node9 -->
<g id="edge33" class="edge">
<title>Node21&#45;&gt;Node9</title>
<path fill="none" stroke="midnightblue" d="M206.1,-179.49C213.45,-161.27 228.74,-129.67 252,-112 283.24,-88.26 326.83,-77.01 359.32,-71.69"/>
<polygon fill="midnightblue" stroke="midnightblue" points="360.08,-75.12 369.45,-70.17 359.04,-68.2 360.08,-75.12"/>
</g>
<!-- Node22&#45;&gt;Node2 -->
<g id="edge39" class="edge">
<title>Node22&#45;&gt;Node2</title>
<path fill="none" stroke="midnightblue" d="M790.82,-246.41C763.78,-235.39 731.76,-222.21 703,-210 701.6,-209.4 700.16,-208.79 698.71,-208.17"/>
<polygon fill="midnightblue" stroke="midnightblue" points="699.73,-204.79 689.16,-204.02 696.94,-211.21 699.73,-204.79"/>
</g>
<!-- Node22&#45;&gt;Node3 -->
<g id="edge40" class="edge">
<title>Node22&#45;&gt;Node3</title>
<path fill="none" stroke="midnightblue" d="M920.17,-246.49C935.6,-237.43 950.08,-225.49 959,-210 969.83,-191.2 959,-167.78 947.44,-150.88"/>
<polygon fill="midnightblue" stroke="midnightblue" points="950.18,-148.69 941.45,-142.69 944.53,-152.82 950.18,-148.69"/>
</g>
<!-- Node22&#45;&gt;Node4 -->
<g id="edge41" class="edge">
<title>Node22&#45;&gt;Node4</title>
<path fill="none" stroke="midnightblue" d="M940.31,-249.01C986.24,-237.17 1041.57,-222.92 1083.56,-212.1"/>
<polygon fill="midnightblue" stroke="midnightblue" points="1084.58,-215.45 1093.4,-209.57 1082.84,-208.67 1084.58,-215.45"/>
</g>
<!-- Node22&#45;&gt;Node5 -->
<g id="edge38" class="edge">
<title>Node22&#45;&gt;Node5</title>
<path fill="none" stroke="midnightblue" d="M837.85,-246.24C824.26,-225.54 802.56,-196.85 777,-179 737.24,-151.23 719.55,-159.65 674,-143 671.9,-142.23 669.73,-141.43 667.56,-140.62"/>
<polygon fill="midnightblue" stroke="midnightblue" points="668.66,-137.29 658.06,-137.04 666.19,-143.84 668.66,-137.29"/>
</g>
<!-- Node22&#45;&gt;Node18 -->
<g id="edge37" class="edge">
<title>Node22&#45;&gt;Node18</title>
<path fill="none" stroke="midnightblue" d="M815.69,-246.4C797.69,-234.3 776.75,-220.22 761.47,-209.94"/>
<polygon fill="midnightblue" stroke="midnightblue" points="763.01,-206.75 752.75,-204.08 759.1,-212.56 763.01,-206.75"/>
</g>
<!-- Node23 -->
<g id="node24" class="node">
<title>Node23</title>
<g id="a_node24"><a xlink:title=" ">
<polygon fill="white" stroke="#bfbfbf" points="1006,-185 1006,-204 1070,-204 1070,-185 1006,-185"/>
<text text-anchor="middle" x="1038" y="-192" font-family="Helvetica,sans-Serif" font-size="10.00">algorithm</text>
</a>
</g>
</g>
<!-- Node22&#45;&gt;Node23 -->
<g id="edge36" class="edge">
<title>Node22&#45;&gt;Node23</title>
<path fill="none" stroke="midnightblue" d="M914.09,-246.4C945.49,-233.5 982.38,-218.35 1007.69,-207.95"/>
<polygon fill="midnightblue" stroke="midnightblue" points="1009.2,-211.12 1017.12,-204.08 1006.54,-204.64 1009.2,-211.12"/>
</g>
<!-- Node24 -->
<g id="node25" class="node">
<title>Node24</title>
<g id="a_node25"><a xlink:href="ssize_8h.html" target="_top" xlink:title=" ">
<polygon fill="white" stroke="black" points="824,-185 824,-204 950,-204 950,-185 824,-185"/>
<text text-anchor="middle" x="887" y="-192" font-family="Helvetica,sans-Serif" font-size="10.00">drake/common/ssize.h</text>
</a>
</g>
</g>
<!-- Node22&#45;&gt;Node24 -->
<g id="edge42" class="edge">
<title>Node22&#45;&gt;Node24</title>
<path fill="none" stroke="midnightblue" d="M864.32,-246.19C869.09,-235.54 874.53,-223.38 878.88,-213.64"/>
<polygon fill="midnightblue" stroke="midnightblue" points="882.22,-214.77 883.1,-204.21 875.83,-211.91 882.22,-214.77"/>
</g>
<!-- Node24&#45;&gt;Node9 -->
<g id="edge45" class="edge">
<title>Node24&#45;&gt;Node9</title>
<path fill="none" stroke="midnightblue" d="M868.53,-184.92C848.51,-175.42 815.85,-159.27 789,-143 768.54,-130.6 767.28,-120.71 745,-112 644.43,-72.7 515.8,-66.47 448.93,-66.2"/>
<polygon fill="midnightblue" stroke="midnightblue" points="448.74,-62.7 438.74,-66.2 448.74,-69.7 448.74,-62.7"/>
</g>
<!-- Node24&#45;&gt;Node20 -->
<g id="edge44" class="edge">
<title>Node24&#45;&gt;Node20</title>
<path fill="none" stroke="midnightblue" d="M863.5,-184.87C832.6,-173.52 778.14,-153.52 743.09,-140.65"/>
<polygon fill="midnightblue" stroke="midnightblue" points="743.91,-137.23 733.32,-137.06 741.5,-143.8 743.91,-137.23"/>
</g>
<!-- Node25 -->
<g id="node26" class="node">
<title>Node25</title>
<g id="a_node26"><a xlink:title=" ">
<polygon fill="white" stroke="#bfbfbf" points="798.5,-118 798.5,-137 851.5,-137 851.5,-118 798.5,-118"/>
<text text-anchor="middle" x="825" y="-125" font-family="Helvetica,sans-Serif" font-size="10.00">iterator</text>
</a>
</g>
</g>
<!-- Node24&#45;&gt;Node25 -->
<g id="edge43" class="edge">
<title>Node24&#45;&gt;Node25</title>
<path fill="none" stroke="midnightblue" d="M878.64,-184.73C868.88,-174.5 852.53,-157.36 840.45,-144.69"/>
<polygon fill="midnightblue" stroke="midnightblue" points="842.66,-141.95 833.23,-137.13 837.6,-146.78 842.66,-141.95"/>
</g>
<!-- Node26&#45;&gt;Node2 -->
<g id="edge47" class="edge">
<title>Node26&#45;&gt;Node2</title>
<path fill="none" stroke="midnightblue" d="M529.13,-257.38C561.23,-243.28 610.12,-221.81 641.04,-208.22"/>
<polygon fill="midnightblue" stroke="midnightblue" points="642.66,-211.33 650.41,-204.11 639.85,-204.92 642.66,-211.33"/>
</g>
<!-- Node26&#45;&gt;Node3 -->
<g id="edge48" class="edge">
<title>Node26&#45;&gt;Node3</title>
<path fill="none" stroke="midnightblue" d="M511.19,-257.41C535.13,-233.96 582.98,-188.54 604,-179 705.65,-132.84 744.61,-161.11 859.01,-143.03"/>
<polygon fill="midnightblue" stroke="midnightblue" points="859.92,-146.42 869.21,-141.32 858.77,-139.52 859.92,-146.42"/>
</g>
<!-- Node27 -->
<g id="node28" class="node">
<title>Node27</title>
<g id="a_node28"><a xlink:href="drake__throw_8h.html" target="_top" xlink:title="Provides a convenient wrapper to throw an exception when a condition is unmet.">
<polygon fill="white" stroke="black" points="277.5,-179.5 277.5,-209.5 396.5,-209.5 396.5,-179.5 277.5,-179.5"/>
<text text-anchor="start" x="285.5" y="-197.5" font-family="Helvetica,sans-Serif" font-size="10.00">drake/common/drake</text>
<text text-anchor="middle" x="337" y="-186.5" font-family="Helvetica,sans-Serif" font-size="10.00">_throw.h</text>
</a>
</g>
</g>
<!-- Node26&#45;&gt;Node27 -->
<g id="edge49" class="edge">
<title>Node26&#45;&gt;Node27</title>
<path fill="none" stroke="midnightblue" d="M467.28,-257.38C441.46,-245.12 403.89,-227.27 375.72,-213.89"/>
<polygon fill="midnightblue" stroke="midnightblue" points="377.1,-210.67 366.56,-209.54 374.09,-216.99 377.1,-210.67"/>
</g>
<!-- Node27&#45;&gt;Node8 -->
<g id="edge51" class="edge">
<title>Node27&#45;&gt;Node8</title>
<path fill="none" stroke="midnightblue" d="M362.6,-179.4C379.54,-170.07 401.94,-157.73 420.45,-147.53"/>
<polygon fill="midnightblue" stroke="midnightblue" points="422.38,-150.47 429.45,-142.58 419,-144.34 422.38,-150.47"/>
</g>
<!-- Node27&#45;&gt;Node9 -->
<g id="edge50" class="edge">
<title>Node27&#45;&gt;Node9</title>
<path fill="none" stroke="midnightblue" d="M344.43,-179.48C356.7,-156.31 381.19,-110.07 394.63,-84.69"/>
<polygon fill="midnightblue" stroke="midnightblue" points="397.76,-86.26 399.35,-75.79 391.57,-82.99 397.76,-86.26"/>
</g>
</g>
</svg>
