<?xml version="1.0" encoding="UTF-8" standalone="no"?>
<!DOCTYPE svg PUBLIC "-//W3C//DTD SVG 1.1//EN"
 "http://www.w3.org/Graphics/SVG/1.1/DTD/svg11.dtd">
<!-- Generated by graphviz version 2.43.0 (0)
 -->
<!-- Title: drake/multibody/contact_solvers/contact_solver_utils.h Pages: 1 -->
<!--zoomable 296 -->
<svg id="main" version="1.1" xmlns="http://www.w3.org/2000/svg" xmlns:xlink="http://www.w3.org/1999/xlink" xml:space="preserve" onload="init(evt)">
<style type="text/css"><![CDATA[
.edge:hover path { stroke: red; }
.edge:hover polygon { stroke: red; fill: red; }
]]></style>
<script type="text/javascript"><![CDATA[
var edges = document.getElementsByTagName('g');
if (edges && edges.length) {
  for (var i=0;i<edges.length;i++) {
    if (edges[i].id.substr(0,4)=='edge') {
      edges[i].setAttribute('class','edge');
    }
  }
}
]]></script>
        <defs>
                <circle id="rim" cx="0" cy="0" r="7"/>
                <circle id="rim2" cx="0" cy="0" r="3.5"/>
                <g id="zoomPlus">
                        <use xlink:href="#rim" fill="#404040">
                                <set attributeName="fill" to="#808080" begin="zoomplus.mouseover" end="zoomplus.mouseout"/>
                        </use>
                        <path d="M-4,0h8M0,-4v8" fill="none" stroke="white" stroke-width="1.5" pointer-events="none"/>
                </g>
                <g id="zoomMin">
                        <use xlink:href="#rim" fill="#404040">
                                <set attributeName="fill" to="#808080" begin="zoomminus.mouseover" end="zoomminus.mouseout"/>
                        </use>
                        <path d="M-4,0h8" fill="none" stroke="white" stroke-width="1.5" pointer-events="none"/>
                </g>
                <g id="dirArrow">
                        <path fill="none" stroke="white" stroke-width="1.5" d="M0,-3.0v7 M-2.5,-0.5L0,-3.0L2.5,-0.5"/>
                </g>
               <g id="resetDef">
                       <use xlink:href="#rim2" fill="#404040">
                               <set attributeName="fill" to="#808080" begin="reset.mouseover" end="reset.mouseout"/>
                       </use>
               </g>
        </defs>

<script type="text/javascript">
var viewWidth = 801;
var viewHeight = 296;
var sectionId = 'dynsection-0';
</script>
<script xlink:href="svgpan.js"/>
<svg id="graph" class="graph">
<g id="viewport">
<title>drake/multibody/contact_solvers/contact_solver_utils.h</title>
<polygon fill="white" stroke="transparent" points="-4,4 -4,-292 796.68,-292 796.68,4 -4,4"/>
<!-- Node0 -->
<g id="node1" class="node">
<title>Node0</title>
<g id="a_node1"><a xlink:title=" ">
<polygon fill="#bfbfbf" stroke="black" points="99.18,-246.5 99.18,-287.5 234.18,-287.5 234.18,-246.5 99.18,-246.5"/>
<text text-anchor="start" x="107.18" y="-275.5" font-family="Helvetica,sans-Serif" font-size="10.00">drake/multibody/contact</text>
<text text-anchor="start" x="107.18" y="-264.5" font-family="Helvetica,sans-Serif" font-size="10.00">_solvers/contact_solver</text>
<text text-anchor="middle" x="166.68" y="-253.5" font-family="Helvetica,sans-Serif" font-size="10.00">_utils.h</text>
</a>
</g>
</g>
<!-- Node1 -->
<g id="node2" class="node">
<title>Node1</title>
<g id="a_node2"><a xlink:title=" ">
<polygon fill="white" stroke="#bfbfbf" points="132.18,-56.5 132.18,-75.5 201.18,-75.5 201.18,-56.5 132.18,-56.5"/>
<text text-anchor="middle" x="166.68" y="-63.5" font-family="Helvetica,sans-Serif" font-size="10.00">type_traits</text>
</a>
</g>
</g>
<!-- Node0&#45;&gt;Node1 -->
<g id="edge1" class="edge">
<title>Node0&#45;&gt;Node1</title>
<path fill="none" stroke="midnightblue" d="M119.71,-246.43C60.26,-218.84 -29.82,-165.83 10.68,-112 24.11,-94.14 80.75,-81.14 121.92,-73.83"/>
<polygon fill="midnightblue" stroke="midnightblue" points="122.76,-77.24 132.02,-72.1 121.57,-70.34 122.76,-77.24"/>
</g>
<!-- Node2 -->
<g id="node3" class="node">
<title>Node2</title>
<g id="a_node3"><a xlink:href="eigen__types_8h.html" target="_top" xlink:title="This file contains abbreviated definitions for certain specializations of Eigen::Matrix that are comm...">
<polygon fill="white" stroke="black" points="282.18,-179.5 282.18,-209.5 401.18,-209.5 401.18,-179.5 282.18,-179.5"/>
<text text-anchor="start" x="290.18" y="-197.5" font-family="Helvetica,sans-Serif" font-size="10.00">drake/common/eigen</text>
<text text-anchor="middle" x="341.68" y="-186.5" font-family="Helvetica,sans-Serif" font-size="10.00">_types.h</text>
</a>
</g>
</g>
<!-- Node0&#45;&gt;Node2 -->
<g id="edge2" class="edge">
<title>Node0&#45;&gt;Node2</title>
<path fill="none" stroke="midnightblue" d="M215.42,-246.36C241.05,-236.04 272.23,-223.48 297.19,-213.42"/>
<polygon fill="midnightblue" stroke="midnightblue" points="298.81,-216.54 306.78,-209.56 296.19,-210.05 298.81,-216.54"/>
</g>
<!-- Node3 -->
<g id="node4" class="node">
<title>Node3</title>
<g id="a_node4"><a xlink:title=" ">
<polygon fill="white" stroke="#bfbfbf" points="725.18,-118 725.18,-137 770.18,-137 770.18,-118 725.18,-118"/>
<text text-anchor="middle" x="747.68" y="-125" font-family="Helvetica,sans-Serif" font-size="10.00">utility</text>
</a>
</g>
</g>
<!-- Node2&#45;&gt;Node3 -->
<g id="edge3" class="edge">
<title>Node2&#45;&gt;Node3</title>
<path fill="none" stroke="midnightblue" d="M401.29,-191.04C476.25,-186.69 608.27,-174.84 716.68,-143 718.56,-142.45 720.47,-141.8 722.37,-141.08"/>
<polygon fill="midnightblue" stroke="midnightblue" points="723.8,-144.28 731.63,-137.13 721.06,-137.84 723.8,-144.28"/>
</g>
<!-- Node4 -->
<g id="node5" class="node">
<title>Node4</title>
<g id="a_node5"><a xlink:title=" ">
<polygon fill="white" stroke="#bfbfbf" points="20.18,-118 20.18,-137 97.18,-137 97.18,-118 20.18,-118"/>
<text text-anchor="middle" x="58.68" y="-125" font-family="Helvetica,sans-Serif" font-size="10.00">Eigen/Dense</text>
</a>
</g>
</g>
<!-- Node2&#45;&gt;Node4 -->
<g id="edge4" class="edge">
<title>Node2&#45;&gt;Node4</title>
<path fill="none" stroke="midnightblue" d="M282.17,-182.28C234.25,-172.88 165.28,-158.54 105.68,-143 102.08,-142.06 98.34,-141.02 94.62,-139.94"/>
<polygon fill="midnightblue" stroke="midnightblue" points="95.49,-136.55 84.91,-137.04 93.49,-143.26 95.49,-136.55"/>
</g>
<!-- Node5 -->
<g id="node6" class="node">
<title>Node5</title>
<g id="a_node6"><a xlink:href="constants_8h.html" target="_top" xlink:title=" ">
<polygon fill="white" stroke="black" points="115.18,-118 115.18,-137 264.18,-137 264.18,-118 115.18,-118"/>
<text text-anchor="middle" x="189.68" y="-125" font-family="Helvetica,sans-Serif" font-size="10.00">drake/common/constants.h</text>
</a>
</g>
</g>
<!-- Node2&#45;&gt;Node5 -->
<g id="edge5" class="edge">
<title>Node2&#45;&gt;Node5</title>
<path fill="none" stroke="midnightblue" d="M308.69,-179.4C281.91,-167.94 244.49,-151.94 218.8,-140.95"/>
<polygon fill="midnightblue" stroke="midnightblue" points="220.14,-137.72 209.57,-137.01 217.39,-144.16 220.14,-137.72"/>
</g>
<!-- Node6 -->
<g id="node7" class="node">
<title>Node6</title>
<g id="a_node7"><a xlink:href="drake__assert_8h.html" target="_top" xlink:title="Provides Drake&#39;s assertion implementation.">
<polygon fill="white" stroke="black" points="282.18,-112.5 282.18,-142.5 401.18,-142.5 401.18,-112.5 282.18,-112.5"/>
<text text-anchor="start" x="290.18" y="-130.5" font-family="Helvetica,sans-Serif" font-size="10.00">drake/common/drake</text>
<text text-anchor="middle" x="341.68" y="-119.5" font-family="Helvetica,sans-Serif" font-size="10.00">_assert.h</text>
</a>
</g>
</g>
<!-- Node2&#45;&gt;Node6 -->
<g id="edge6" class="edge">
<title>Node2&#45;&gt;Node6</title>
<path fill="none" stroke="midnightblue" d="M341.68,-179.4C341.68,-171.64 341.68,-161.81 341.68,-152.86"/>
<polygon fill="midnightblue" stroke="midnightblue" points="345.18,-152.58 341.68,-142.58 338.18,-152.58 345.18,-152.58"/>
</g>
<!-- Node7 -->
<g id="node8" class="node">
<title>Node7</title>
<g id="a_node8"><a xlink:href="drake__copyable_8h.html" target="_top" xlink:title="Provides careful macros to selectively enable or disable the special member functions for copy&#45;constr...">
<polygon fill="white" stroke="black" points="419.18,-112.5 419.18,-142.5 538.18,-142.5 538.18,-112.5 419.18,-112.5"/>
<text text-anchor="start" x="427.18" y="-130.5" font-family="Helvetica,sans-Serif" font-size="10.00">drake/common/drake</text>
<text text-anchor="middle" x="478.68" y="-119.5" font-family="Helvetica,sans-Serif" font-size="10.00">_copyable.h</text>
</a>
</g>
</g>
<!-- Node2&#45;&gt;Node7 -->
<g id="edge8" class="edge">
<title>Node2&#45;&gt;Node7</title>
<path fill="none" stroke="midnightblue" d="M371.4,-179.4C391.42,-169.9 418.02,-157.28 439.73,-146.98"/>
<polygon fill="midnightblue" stroke="midnightblue" points="441.47,-150.03 449.01,-142.58 438.47,-143.7 441.47,-150.03"/>
</g>
<!-- Node8 -->
<g id="node9" class="node">
<title>Node8</title>
<g id="a_node9"><a xlink:href="fmt__eigen_8h.html" target="_top" xlink:title=" ">
<polygon fill="white" stroke="black" points="556.18,-118 556.18,-137 707.18,-137 707.18,-118 556.18,-118"/>
<text text-anchor="middle" x="631.68" y="-125" font-family="Helvetica,sans-Serif" font-size="10.00">drake/common/fmt_eigen.h</text>
</a>
</g>
</g>
<!-- Node2&#45;&gt;Node8 -->
<g id="edge9" class="edge">
<title>Node2&#45;&gt;Node8</title>
<path fill="none" stroke="midnightblue" d="M401.41,-180.11C455.4,-168.01 533.83,-150.43 583.79,-139.23"/>
<polygon fill="midnightblue" stroke="midnightblue" points="584.7,-142.62 593.7,-137.01 583.17,-135.78 584.7,-142.62"/>
</g>
<!-- Node6&#45;&gt;Node1 -->
<g id="edge7" class="edge">
<title>Node6&#45;&gt;Node1</title>
<path fill="none" stroke="midnightblue" d="M300.2,-112.4C270.1,-102.16 229.82,-88.47 201.41,-78.81"/>
<polygon fill="midnightblue" stroke="midnightblue" points="202.48,-75.48 191.89,-75.57 200.23,-82.1 202.48,-75.48"/>
</g>
<!-- Node9 -->
<g id="node10" class="node">
<title>Node9</title>
<g id="a_node10"><a xlink:title=" ">
<polygon fill="white" stroke="#bfbfbf" points="748.68,-0.5 748.68,-19.5 792.68,-19.5 792.68,-0.5 748.68,-0.5"/>
<text text-anchor="middle" x="770.68" y="-7.5" font-family="Helvetica,sans-Serif" font-size="10.00">string</text>
</a>
</g>
</g>
<!-- Node8&#45;&gt;Node9 -->
<g id="edge10" class="edge">
<title>Node8&#45;&gt;Node9</title>
<path fill="none" stroke="midnightblue" d="M681.58,-117.95C707.6,-110.95 737.84,-98.39 756.68,-76 767.47,-63.18 770.52,-43.99 771.14,-29.78"/>
<polygon fill="midnightblue" stroke="midnightblue" points="774.64,-29.7 771.22,-19.68 767.64,-29.65 774.64,-29.7"/>
</g>
<!-- Node10 -->
<g id="node11" class="node">
<title>Node10</title>
<g id="a_node11"><a xlink:title=" ">
<polygon fill="white" stroke="#bfbfbf" points="517.18,-0.5 517.18,-19.5 590.18,-19.5 590.18,-0.5 517.18,-0.5"/>
<text text-anchor="middle" x="553.68" y="-7.5" font-family="Helvetica,sans-Serif" font-size="10.00">string_view</text>
</a>
</g>
</g>
<!-- Node8&#45;&gt;Node10 -->
<g id="edge11" class="edge">
<title>Node8&#45;&gt;Node10</title>
<path fill="none" stroke="midnightblue" d="M593.99,-117.99C571.69,-110.8 545.23,-98.03 531.68,-76 522.44,-61 531.22,-41.64 540.28,-27.96"/>
<polygon fill="midnightblue" stroke="midnightblue" points="543.35,-29.68 546.38,-19.52 537.68,-25.58 543.35,-29.68"/>
</g>
<!-- Node11 -->
<g id="node12" class="node">
<title>Node11</title>
<g id="a_node12"><a xlink:title=" ">
<polygon fill="white" stroke="#bfbfbf" points="541.18,-56.5 541.18,-75.5 610.18,-75.5 610.18,-56.5 541.18,-56.5"/>
<text text-anchor="middle" x="575.68" y="-63.5" font-family="Helvetica,sans-Serif" font-size="10.00">Eigen/Core</text>
</a>
</g>
</g>
<!-- Node8&#45;&gt;Node11 -->
<g id="edge12" class="edge">
<title>Node8&#45;&gt;Node11</title>
<path fill="none" stroke="midnightblue" d="M623.65,-117.98C615.09,-108.87 601.32,-94.24 590.72,-82.98"/>
<polygon fill="midnightblue" stroke="midnightblue" points="593.09,-80.39 583.69,-75.51 587.99,-85.19 593.09,-80.39"/>
</g>
<!-- Node12 -->
<g id="node13" class="node">
<title>Node12</title>
<g id="a_node13"><a xlink:href="fmt_8h.html" target="_top" xlink:title=" ">
<polygon fill="white" stroke="black" points="628.18,-56.5 628.18,-75.5 747.18,-75.5 747.18,-56.5 628.18,-56.5"/>
<text text-anchor="middle" x="687.68" y="-63.5" font-family="Helvetica,sans-Serif" font-size="10.00">drake/common/fmt.h</text>
</a>
</g>
</g>
<!-- Node8&#45;&gt;Node12 -->
<g id="edge13" class="edge">
<title>Node8&#45;&gt;Node12</title>
<path fill="none" stroke="midnightblue" d="M639.7,-117.98C648.27,-108.87 662.04,-94.24 672.63,-82.98"/>
<polygon fill="midnightblue" stroke="midnightblue" points="675.36,-85.19 679.67,-75.51 670.27,-80.39 675.36,-85.19"/>
</g>
<!-- Node12&#45;&gt;Node9 -->
<g id="edge14" class="edge">
<title>Node12&#45;&gt;Node9</title>
<path fill="none" stroke="midnightblue" d="M701.01,-56.32C713.84,-47.98 733.46,-35.21 748.62,-25.35"/>
<polygon fill="midnightblue" stroke="midnightblue" points="750.9,-28.04 757.37,-19.65 747.08,-22.17 750.9,-28.04"/>
</g>
<!-- Node12&#45;&gt;Node10 -->
<g id="edge15" class="edge">
<title>Node12&#45;&gt;Node10</title>
<path fill="none" stroke="midnightblue" d="M666.44,-56.44C644.29,-47.52 609.36,-33.44 584.24,-23.32"/>
<polygon fill="midnightblue" stroke="midnightblue" points="585.39,-20.01 574.81,-19.52 582.78,-26.5 585.39,-20.01"/>
</g>
<!-- Node13 -->
<g id="node14" class="node">
<title>Node13</title>
<g id="a_node14"><a xlink:title=" ">
<polygon fill="white" stroke="#bfbfbf" points="648.18,-0.5 648.18,-19.5 727.18,-19.5 727.18,-0.5 648.18,-0.5"/>
<text text-anchor="middle" x="687.68" y="-7.5" font-family="Helvetica,sans-Serif" font-size="10.00">fmt/format.h</text>
</a>
</g>
</g>
<!-- Node12&#45;&gt;Node13 -->
<g id="edge16" class="edge">
<title>Node12&#45;&gt;Node13</title>
<path fill="none" stroke="midnightblue" d="M687.68,-56.08C687.68,-49.01 687.68,-38.86 687.68,-29.99"/>
<polygon fill="midnightblue" stroke="midnightblue" points="691.18,-29.75 687.68,-19.75 684.18,-29.75 691.18,-29.75"/>
</g>
</g>
</svg>
        <g id="navigator" transform="translate(0 0)" fill="#404254">
                <rect fill="#f2f5e9" fill-opacity="0.5" stroke="#606060" stroke-width=".5" x="0" y="0" width="60" height="60"/>
                <use id="zoomplus" xlink:href="#zoomPlus" x="17" y="9" onmousedown="handleZoom(evt,'in')"/>
                <use id="zoomminus" xlink:href="#zoomMin" x="42" y="9" onmousedown="handleZoom(evt,'out')"/>
                <use id="reset" xlink:href="#resetDef" x="30" y="36" onmousedown="handleReset()"/>
                <g id="arrowUp" xlink:href="#dirArrow" transform="translate(30 24)" onmousedown="handlePan(0,-1)">
                  <use xlink:href="#rim" fill="#404040">
                        <set attributeName="fill" to="#808080" begin="arrowUp.mouseover" end="arrowUp.mouseout"/>
                  </use>
                  <path fill="none" stroke="white" stroke-width="1.5" d="M0,-3.0v7 M-2.5,-0.5L0,-3.0L2.5,-0.5"/>
                </g>
                <g id="arrowRight" xlink:href="#dirArrow" transform="rotate(90) translate(36 -43)" onmousedown="handlePan(1,0)">
                  <use xlink:href="#rim" fill="#404040">
                        <set attributeName="fill" to="#808080" begin="arrowRight.mouseover" end="arrowRight.mouseout"/>
                  </use>
                  <path fill="none" stroke="white" stroke-width="1.5" d="M0,-3.0v7 M-2.5,-0.5L0,-3.0L2.5,-0.5"/>
                </g>
                <g id="arrowDown" xlink:href="#dirArrow" transform="rotate(180) translate(-30 -48)" onmousedown="handlePan(0,1)">
                  <use xlink:href="#rim" fill="#404040">
                        <set attributeName="fill" to="#808080" begin="arrowDown.mouseover" end="arrowDown.mouseout"/>
                  </use>
                  <path fill="none" stroke="white" stroke-width="1.5" d="M0,-3.0v7 M-2.5,-0.5L0,-3.0L2.5,-0.5"/>
                </g>
                <g id="arrowLeft" xlink:href="#dirArrow" transform="rotate(270) translate(-36 17)" onmousedown="handlePan(-1,0)">
                  <use xlink:href="#rim" fill="#404040">
                        <set attributeName="fill" to="#808080" begin="arrowLeft.mouseover" end="arrowLeft.mouseout"/>
                  </use>
                  <path fill="none" stroke="white" stroke-width="1.5" d="M0,-3.0v7 M-2.5,-0.5L0,-3.0L2.5,-0.5"/>
                </g>
        </g>
        <svg viewBox="0 0 15 15" width="100%" height="30px" preserveAspectRatio="xMaxYMin meet">
         <g id="arrow_out" transform="scale(0.3 0.3)">
          <a xlink:href="contact__solver__utils_8h__incl_org.svg" target="_base">
           <rect id="button" ry="5" rx="5" y="6" x="6" height="38" width="38"
                fill="#f2f5e9" fill-opacity="0.5" stroke="#606060" stroke-width="1.0"/>
           <path id="arrow"
             d="M 11.500037,31.436501 C 11.940474,20.09759 22.043105,11.32322 32.158766,21.979434 L 37.068811,17.246167 C 37.068811,17.246167 37.088388,32 37.088388,32 L 22.160133,31.978069 C 22.160133,31.978069 26.997745,27.140456 26.997745,27.140456 C 18.528582,18.264221 13.291696,25.230495 11.500037,31.436501 z"
             style="fill:#404040;"/>
          </a>
         </g>
        </svg>
</svg>
