<?xml version="1.0" encoding="UTF-8" standalone="no"?>
<!DOCTYPE svg PUBLIC "-//W3C//DTD SVG 1.1//EN"
 "http://www.w3.org/Graphics/SVG/1.1/DTD/svg11.dtd">
<!-- Generated by graphviz version 2.43.0 (0)
 -->
<!-- Title: drake/multibody/optimization/contact_wrench_evaluator.h Pages: 1 -->
<svg width="1205pt" height="238pt"
 viewBox="0.00 0.00 1204.90 238.39" xmlns="http://www.w3.org/2000/svg" xmlns:xlink="http://www.w3.org/1999/xlink">
<g id="graph0" class="graph" transform="scale(1 1) rotate(0) translate(4 234.39)">
<title>drake/multibody/optimization/contact_wrench_evaluator.h</title>
<!-- Node1 -->
<g id="Node000001" class="node">
<title>Node1</title>
<g id="a_Node000001"><a xlink:title=" ">
<ellipse fill="#999999" stroke="#666666" cx="576.35" cy="-209.18" rx="113.69" ry="21.43"/>
<text text-anchor="start" x="503.85" y="-212.18" font-family="Helvetica,sans-Serif" font-size="10.00">drake/multibody/optimization</text>
<text text-anchor="middle" x="576.35" y="-201.18" font-family="Helvetica,sans-Serif" font-size="10.00">/contact_wrench_evaluator.h</text>
</a>
</g>
</g>
<!-- Node2 -->
<g id="Node000002" class="node">
<title>Node2</title>
<g id="a_Node000002"><a xlink:href="manipulator__equation__constraint_8h.html" target="_top" xlink:title=" ">
<ellipse fill="white" stroke="#666666" cx="134.35" cy="-122.97" rx="134.2" ry="21.43"/>
<text text-anchor="start" x="47.35" y="-125.97" font-family="Helvetica,sans-Serif" font-size="10.00">drake/multibody/optimization</text>
<text text-anchor="middle" x="134.35" y="-114.97" font-family="Helvetica,sans-Serif" font-size="10.00">/manipulator_equation_constraint.h</text>
</a>
</g>
</g>
<!-- Node1&#45;&gt;Node2 -->
<g id="edge1_Node000001_Node000002" class="edge">
<title>Node1&#45;&gt;Node2</title>
<g id="a_edge1_Node000001_Node000002"><a xlink:title=" ">
<path fill="none" stroke="#63b8ff" d="M489.44,-191.62C410.5,-176.58 294.86,-154.55 217.21,-139.76"/>
<polygon fill="#63b8ff" stroke="#63b8ff" points="488.88,-195.08 499.36,-193.51 490.19,-188.2 488.88,-195.08"/>
</a>
</g>
</g>
<!-- Node3 -->
<g id="Node000003" class="node">
<title>Node3</title>
<g id="a_Node000003"><a xlink:href="sliding__friction__complementarity__constraint_8h.html" target="_top" xlink:title="Impose the complementarity constraint on the sliding friction using a Coulomb friction cone model.">
<ellipse fill="white" stroke="#666666" cx="708.35" cy="-28.99" rx="127.97" ry="28.98"/>
<text text-anchor="start" x="625.85" y="-37.49" font-family="Helvetica,sans-Serif" font-size="10.00">drake/multibody/optimization</text>
<text text-anchor="start" x="625.85" y="-26.49" font-family="Helvetica,sans-Serif" font-size="10.00">/sliding_friction_complementarity</text>
<text text-anchor="middle" x="708.35" y="-15.49" font-family="Helvetica,sans-Serif" font-size="10.00">_constraint.h</text>
</a>
</g>
</g>
<!-- Node1&#45;&gt;Node3 -->
<g id="edge2_Node000001_Node000003" class="edge">
<title>Node1&#45;&gt;Node3</title>
<g id="a_edge2_Node000001_Node000003"><a xlink:title=" ">
<path fill="none" stroke="#63b8ff" d="M465.03,-198.08C403.02,-189.9 334.52,-175.71 315.35,-151.97 299.16,-131.92 298.66,-113.61 315.35,-93.98 349.22,-54.16 480.25,-39.05 581.81,-33.36"/>
<polygon fill="#63b8ff" stroke="#63b8ff" points="464.95,-201.6 475.31,-199.39 465.84,-194.65 464.95,-201.6"/>
</a>
</g>
</g>
<!-- Node4 -->
<g id="Node000004" class="node">
<title>Node4</title>
<g id="a_Node000004"><a xlink:href="static__equilibrium__constraint_8h.html" target="_top" xlink:title=" ">
<ellipse fill="white" stroke="#666666" cx="444.35" cy="-122.97" rx="120.42" ry="21.43"/>
<text text-anchor="start" x="367.35" y="-125.97" font-family="Helvetica,sans-Serif" font-size="10.00">drake/multibody/optimization</text>
<text text-anchor="middle" x="444.35" y="-114.97" font-family="Helvetica,sans-Serif" font-size="10.00">/static_equilibrium_constraint.h</text>
</a>
</g>
</g>
<!-- Node1&#45;&gt;Node4 -->
<g id="edge3_Node000001_Node000004" class="edge">
<title>Node1&#45;&gt;Node4</title>
<g id="a_edge3_Node000001_Node000004"><a xlink:title=" ">
<path fill="none" stroke="#63b8ff" d="M537.23,-183.23C517.44,-170.6 493.75,-155.49 475.26,-143.69"/>
<polygon fill="#63b8ff" stroke="#63b8ff" points="535.42,-186.22 545.74,-188.65 539.19,-180.32 535.42,-186.22"/>
</a>
</g>
</g>
<!-- Node5 -->
<g id="Node000005" class="node">
<title>Node5</title>
<g id="a_Node000005"><a xlink:href="static__equilibrium__problem_8h.html" target="_top" xlink:title=" ">
<ellipse fill="white" stroke="#666666" cx="1082.35" cy="-28.99" rx="114.6" ry="21.43"/>
<text text-anchor="start" x="1009.35" y="-31.99" font-family="Helvetica,sans-Serif" font-size="10.00">drake/multibody/optimization</text>
<text text-anchor="middle" x="1082.35" y="-20.99" font-family="Helvetica,sans-Serif" font-size="10.00">/static_equilibrium_problem.h</text>
</a>
</g>
</g>
<!-- Node1&#45;&gt;Node5 -->
<g id="edge4_Node000001_Node000005" class="edge">
<title>Node1&#45;&gt;Node5</title>
<g id="a_edge4_Node000001_Node000005"><a xlink:title=" ">
<path fill="none" stroke="#63b8ff" d="M698.58,-204.76C857.85,-199.02 1119.68,-184.69 1149.35,-151.97 1166.66,-132.87 1159.48,-117.68 1149.35,-93.98 1141.7,-76.09 1126.31,-60.81 1112.21,-49.68"/>
<polygon fill="#63b8ff" stroke="#63b8ff" points="698.11,-201.27 688.24,-205.13 698.35,-208.27 698.11,-201.27"/>
</a>
</g>
</g>
<!-- Node6 -->
<g id="Node000006" class="node">
<title>Node6</title>
<g id="a_Node000006"><a xlink:href="static__friction__cone__complementarity__constraint_8h.html" target="_top" xlink:title=" ">
<ellipse fill="white" stroke="#666666" cx="996.35" cy="-122.97" rx="144.5" ry="28.98"/>
<text text-anchor="start" x="902.35" y="-131.47" font-family="Helvetica,sans-Serif" font-size="10.00">drake/multibody/optimization</text>
<text text-anchor="start" x="902.35" y="-120.47" font-family="Helvetica,sans-Serif" font-size="10.00">/static_friction_cone_complementarity</text>
<text text-anchor="middle" x="996.35" y="-109.47" font-family="Helvetica,sans-Serif" font-size="10.00">_constraint.h</text>
</a>
</g>
</g>
<!-- Node1&#45;&gt;Node6 -->
<g id="edge5_Node000001_Node000006" class="edge">
<title>Node1&#45;&gt;Node6</title>
<g id="a_edge5_Node000001_Node000006"><a xlink:title=" ">
<path fill="none" stroke="#63b8ff" d="M661.27,-191.15C729.33,-177.51 824.95,-158.34 896.64,-143.96"/>
<polygon fill="#63b8ff" stroke="#63b8ff" points="660.55,-187.73 651.44,-193.12 661.93,-194.59 660.55,-187.73"/>
</a>
</g>
</g>
<!-- Node7 -->
<g id="Node000007" class="node">
<title>Node7</title>
<g id="a_Node000007"><a xlink:href="static__friction__cone__constraint_8h.html" target="_top" xlink:title=" ">
<ellipse fill="white" stroke="#666666" cx="708.35" cy="-122.97" rx="125.73" ry="21.43"/>
<text text-anchor="start" x="627.35" y="-125.97" font-family="Helvetica,sans-Serif" font-size="10.00">drake/multibody/optimization</text>
<text text-anchor="middle" x="708.35" y="-114.97" font-family="Helvetica,sans-Serif" font-size="10.00">/static_friction_cone_constraint.h</text>
</a>
</g>
</g>
<!-- Node1&#45;&gt;Node7 -->
<g id="edge8_Node000001_Node000007" class="edge">
<title>Node1&#45;&gt;Node7</title>
<g id="a_edge8_Node000001_Node000007"><a xlink:title=" ">
<path fill="none" stroke="#63b8ff" d="M615.47,-183.23C635.26,-170.6 658.95,-155.49 677.44,-143.69"/>
<polygon fill="#63b8ff" stroke="#63b8ff" points="613.51,-180.32 606.97,-188.65 617.28,-186.22 613.51,-180.32"/>
</a>
</g>
</g>
<!-- Node6&#45;&gt;Node3 -->
<g id="edge6_Node000006_Node000003" class="edge">
<title>Node6&#45;&gt;Node3</title>
<g id="a_edge6_Node000006_Node000003"><a xlink:title=" ">
<path fill="none" stroke="#63b8ff" d="M911.84,-94.98C870.11,-81.66 820.3,-65.75 780.41,-53.01"/>
<polygon fill="#63b8ff" stroke="#63b8ff" points="910.84,-98.34 921.43,-98.05 912.97,-91.67 910.84,-98.34"/>
</a>
</g>
</g>
<!-- Node6&#45;&gt;Node5 -->
<g id="edge7_Node000006_Node000005" class="edge">
<title>Node6&#45;&gt;Node5</title>
<g id="a_edge7_Node000006_Node000005"><a xlink:title=" ">
<path fill="none" stroke="#63b8ff" d="M1029.24,-86.79C1040.9,-74.32 1053.61,-60.73 1063.67,-49.97"/>
<polygon fill="#63b8ff" stroke="#63b8ff" points="1026.43,-84.68 1022.15,-94.38 1031.54,-89.46 1026.43,-84.68"/>
</a>
</g>
</g>
<!-- Node7&#45;&gt;Node3 -->
<g id="edge9_Node000007_Node000003" class="edge">
<title>Node7&#45;&gt;Node3</title>
<g id="a_edge9_Node000007_Node000003"><a xlink:title=" ">
<path fill="none" stroke="#63b8ff" d="M708.35,-91.33C708.35,-80.57 708.35,-68.55 708.35,-58.02"/>
<polygon fill="#63b8ff" stroke="#63b8ff" points="704.85,-91.56 708.35,-101.56 711.85,-91.56 704.85,-91.56"/>
</a>
</g>
</g>
</g>
</svg>
