<?xml version="1.0" encoding="UTF-8" standalone="no"?>
<!DOCTYPE svg PUBLIC "-//W3C//DTD SVG 1.1//EN"
 "http://www.w3.org/Graphics/SVG/1.1/DTD/svg11.dtd">
<!-- Generated by graphviz version 2.43.0 (0)
 -->
<!-- Title: drake/multibody/contact_solvers/sap/contact_problem_graph.h Pages: 1 -->
<!--zoomable 374 -->
<svg id="main" version="1.1" xmlns="http://www.w3.org/2000/svg" xmlns:xlink="http://www.w3.org/1999/xlink" xml:space="preserve" onload="init(evt)">
<style type="text/css"><![CDATA[
.edge:hover path { stroke: red; }
.edge:hover polygon { stroke: red; fill: red; }
]]></style>
<script type="text/javascript"><![CDATA[
var edges = document.getElementsByTagName('g');
if (edges && edges.length) {
  for (var i=0;i<edges.length;i++) {
    if (edges[i].id.substr(0,4)=='edge') {
      edges[i].setAttribute('class','edge');
    }
  }
}
]]></script>
        <defs>
                <circle id="rim" cx="0" cy="0" r="7"/>
                <circle id="rim2" cx="0" cy="0" r="3.5"/>
                <g id="zoomPlus">
                        <use xlink:href="#rim" fill="#404040">
                                <set attributeName="fill" to="#808080" begin="zoomplus.mouseover" end="zoomplus.mouseout"/>
                        </use>
                        <path d="M-4,0h8M0,-4v8" fill="none" stroke="white" stroke-width="1.5" pointer-events="none"/>
                </g>
                <g id="zoomMin">
                        <use xlink:href="#rim" fill="#404040">
                                <set attributeName="fill" to="#808080" begin="zoomminus.mouseover" end="zoomminus.mouseout"/>
                        </use>
                        <path d="M-4,0h8" fill="none" stroke="white" stroke-width="1.5" pointer-events="none"/>
                </g>
                <g id="dirArrow">
                        <path fill="none" stroke="white" stroke-width="1.5" d="M0,-3.0v7 M-2.5,-0.5L0,-3.0L2.5,-0.5"/>
                </g>
               <g id="resetDef">
                       <use xlink:href="#rim2" fill="#404040">
                               <set attributeName="fill" to="#808080" begin="reset.mouseover" end="reset.mouseout"/>
                       </use>
               </g>
        </defs>

<script type="text/javascript">
var viewWidth = 1047;
var viewHeight = 374;
var sectionId = 'dynsection-0';
</script>
<script xlink:href="svgpan.js"/>
<svg id="graph" class="graph">
<g id="viewport">
<title>drake/multibody/contact_solvers/sap/contact_problem_graph.h</title>
<polygon fill="white" stroke="transparent" points="-4,4 -4,-370 1043.41,-370 1043.41,4 -4,4"/>
<!-- Node0 -->
<g id="node1" class="node">
<title>Node0</title>
<g id="a_node1"><a xlink:title=" ">
<polygon fill="#bfbfbf" stroke="black" points="692.91,-324.5 692.91,-365.5 854.91,-365.5 854.91,-324.5 692.91,-324.5"/>
<text text-anchor="start" x="700.91" y="-353.5" font-family="Helvetica,sans-Serif" font-size="10.00">drake/multibody/contact</text>
<text text-anchor="start" x="700.91" y="-342.5" font-family="Helvetica,sans-Serif" font-size="10.00">_solvers/sap/contact_problem</text>
<text text-anchor="middle" x="773.91" y="-331.5" font-family="Helvetica,sans-Serif" font-size="10.00">_graph.h</text>
</a>
</g>
</g>
<!-- Node1 -->
<g id="node2" class="node">
<title>Node1</title>
<g id="a_node2"><a xlink:title=" ">
<polygon fill="white" stroke="#bfbfbf" points="213.41,-263 213.41,-282 306.41,-282 306.41,-263 213.41,-263"/>
<text text-anchor="middle" x="259.91" y="-270" font-family="Helvetica,sans-Serif" font-size="10.00">unordered_map</text>
</a>
</g>
</g>
<!-- Node0&#45;&gt;Node1 -->
<g id="edge1" class="edge">
<title>Node0&#45;&gt;Node1</title>
<path fill="none" stroke="midnightblue" d="M692.75,-337.33C600.81,-329.03 446.75,-312.83 315.91,-288 310.74,-287.02 305.34,-285.83 300.02,-284.56"/>
<polygon fill="midnightblue" stroke="midnightblue" points="300.52,-281.08 289.97,-282.06 298.83,-287.87 300.52,-281.08"/>
</g>
<!-- Node2 -->
<g id="node3" class="node">
<title>Node2</title>
<g id="a_node3"><a xlink:title=" ">
<polygon fill="white" stroke="#bfbfbf" points="992.41,-129 992.41,-148 1039.41,-148 1039.41,-129 992.41,-129"/>
<text text-anchor="middle" x="1015.91" y="-136" font-family="Helvetica,sans-Serif" font-size="10.00">vector</text>
</a>
</g>
</g>
<!-- Node0&#45;&gt;Node2 -->
<g id="edge2" class="edge">
<title>Node0&#45;&gt;Node2</title>
<path fill="none" stroke="midnightblue" d="M855.12,-333.33C910.84,-324.26 977.99,-309.31 996.91,-288 1029.18,-251.65 1024.44,-189.15 1019.54,-158.11"/>
<polygon fill="midnightblue" stroke="midnightblue" points="1022.98,-157.45 1017.8,-148.21 1016.09,-158.66 1022.98,-157.45"/>
</g>
<!-- Node3 -->
<g id="node4" class="node">
<title>Node3</title>
<g id="a_node4"><a xlink:href="drake__copyable_8h.html" target="_top" xlink:title="Provides careful macros to selectively enable or disable the special member functions for copy&#45;constr...">
<polygon fill="white" stroke="black" points="736.41,-190.5 736.41,-220.5 855.41,-220.5 855.41,-190.5 736.41,-190.5"/>
<text text-anchor="start" x="744.41" y="-208.5" font-family="Helvetica,sans-Serif" font-size="10.00">drake/common/drake</text>
<text text-anchor="middle" x="795.91" y="-197.5" font-family="Helvetica,sans-Serif" font-size="10.00">_copyable.h</text>
</a>
</g>
</g>
<!-- Node0&#45;&gt;Node3 -->
<g id="edge3" class="edge">
<title>Node0&#45;&gt;Node3</title>
<path fill="none" stroke="midnightblue" d="M777.06,-324.3C781.01,-299.63 787.77,-257.38 792.03,-230.75"/>
<polygon fill="midnightblue" stroke="midnightblue" points="795.51,-231.14 793.64,-220.72 788.6,-230.04 795.51,-231.14"/>
</g>
<!-- Node4 -->
<g id="node5" class="node">
<title>Node4</title>
<g id="a_node5"><a xlink:href="sorted__pair_8h.html" target="_top" xlink:title="Provides drake::MakeSortedPair and drake::SortedPair for storing two values of a certain type in sort...">
<polygon fill="white" stroke="black" points="324.41,-257.5 324.41,-287.5 447.41,-287.5 447.41,-257.5 324.41,-257.5"/>
<text text-anchor="start" x="332.41" y="-275.5" font-family="Helvetica,sans-Serif" font-size="10.00">drake/common/sorted</text>
<text text-anchor="middle" x="385.91" y="-264.5" font-family="Helvetica,sans-Serif" font-size="10.00">_pair.h</text>
</a>
</g>
</g>
<!-- Node0&#45;&gt;Node4 -->
<g id="edge4" class="edge">
<title>Node0&#45;&gt;Node4</title>
<path fill="none" stroke="midnightblue" d="M692.57,-329.22C623.03,-316.59 523.94,-298.58 457.4,-286.49"/>
<polygon fill="midnightblue" stroke="midnightblue" points="457.88,-283.02 447.41,-284.68 456.63,-289.91 457.88,-283.02"/>
</g>
<!-- Node21 -->
<g id="node22" class="node">
<title>Node21</title>
<g id="a_node22"><a xlink:href="partial__permutation_8h.html" target="_top" xlink:title=" ">
<polygon fill="white" stroke="black" points="801.91,-257.5 801.91,-287.5 987.91,-287.5 987.91,-257.5 801.91,-257.5"/>
<text text-anchor="start" x="809.91" y="-275.5" font-family="Helvetica,sans-Serif" font-size="10.00">drake/multibody/contact</text>
<text text-anchor="middle" x="894.91" y="-264.5" font-family="Helvetica,sans-Serif" font-size="10.00">_solvers/sap/partial_permutation.h</text>
</a>
</g>
</g>
<!-- Node0&#45;&gt;Node21 -->
<g id="edge30" class="edge">
<title>Node0&#45;&gt;Node21</title>
<path fill="none" stroke="midnightblue" d="M807.61,-324.36C824.49,-314.53 844.85,-302.67 861.66,-292.87"/>
<polygon fill="midnightblue" stroke="midnightblue" points="863.71,-295.73 870.59,-287.67 860.19,-289.68 863.71,-295.73"/>
</g>
<!-- Node5 -->
<g id="node6" class="node">
<title>Node5</title>
<g id="a_node6"><a xlink:title=" ">
<polygon fill="white" stroke="#bfbfbf" points="353.91,-196 353.91,-215 417.91,-215 417.91,-196 353.91,-196"/>
<text text-anchor="middle" x="385.91" y="-203" font-family="Helvetica,sans-Serif" font-size="10.00">algorithm</text>
</a>
</g>
</g>
<!-- Node4&#45;&gt;Node5 -->
<g id="edge5" class="edge">
<title>Node4&#45;&gt;Node5</title>
<path fill="none" stroke="midnightblue" d="M385.91,-257.4C385.91,-248.06 385.91,-235.71 385.91,-225.52"/>
<polygon fill="midnightblue" stroke="midnightblue" points="389.41,-225.19 385.91,-215.19 382.41,-225.19 389.41,-225.19"/>
</g>
<!-- Node6 -->
<g id="node7" class="node">
<title>Node6</title>
<g id="a_node7"><a xlink:title=" ">
<polygon fill="white" stroke="#bfbfbf" points="175.41,-129 175.41,-148 228.41,-148 228.41,-129 175.41,-129"/>
<text text-anchor="middle" x="201.91" y="-136" font-family="Helvetica,sans-Serif" font-size="10.00">cstddef</text>
</a>
</g>
</g>
<!-- Node4&#45;&gt;Node6 -->
<g id="edge6" class="edge">
<title>Node4&#45;&gt;Node6</title>
<path fill="none" stroke="midnightblue" d="M365.03,-257.29C350.38,-247.25 330.35,-233.43 312.91,-221 280.74,-198.07 243.86,-170.79 221.74,-154.32"/>
<polygon fill="midnightblue" stroke="midnightblue" points="223.61,-151.35 213.5,-148.17 219.42,-156.96 223.61,-151.35"/>
</g>
<!-- Node7 -->
<g id="node8" class="node">
<title>Node7</title>
<g id="a_node8"><a xlink:title=" ">
<polygon fill="white" stroke="#bfbfbf" points="776.91,-129 776.91,-148 836.91,-148 836.91,-129 776.91,-129"/>
<text text-anchor="middle" x="806.91" y="-136" font-family="Helvetica,sans-Serif" font-size="10.00">iostream</text>
</a>
</g>
</g>
<!-- Node4&#45;&gt;Node7 -->
<g id="edge7" class="edge">
<title>Node4&#45;&gt;Node7</title>
<path fill="none" stroke="midnightblue" d="M447.41,-260.35C492.38,-251.51 554.58,-237.86 607.91,-221 670.81,-201.11 741.69,-169.85 779.57,-152.39"/>
<polygon fill="midnightblue" stroke="midnightblue" points="781.3,-155.44 788.9,-148.06 778.36,-149.09 781.3,-155.44"/>
</g>
<!-- Node8 -->
<g id="node9" class="node">
<title>Node8</title>
<g id="a_node9"><a xlink:title=" ">
<polygon fill="white" stroke="#bfbfbf" points="285.41,-0.5 285.41,-19.5 354.41,-19.5 354.41,-0.5 285.41,-0.5"/>
<text text-anchor="middle" x="319.91" y="-7.5" font-family="Helvetica,sans-Serif" font-size="10.00">type_traits</text>
</a>
</g>
</g>
<!-- Node4&#45;&gt;Node8 -->
<g id="edge8" class="edge">
<title>Node4&#45;&gt;Node8</title>
<path fill="none" stroke="midnightblue" d="M324.13,-258.41C321.35,-257.91 318.6,-257.44 315.91,-257 249.86,-246.2 66.55,-265.89 16.91,-221 -5.72,-200.53 5.26,-184.33 1.91,-154 -3.24,-107.41 2.27,-82.54 40.91,-56 78.18,-30.41 206.37,-18.34 275.27,-13.59"/>
<polygon fill="midnightblue" stroke="midnightblue" points="275.65,-17.07 285.39,-12.92 275.18,-10.09 275.65,-17.07"/>
</g>
<!-- Node9 -->
<g id="node10" class="node">
<title>Node9</title>
<g id="a_node10"><a xlink:title=" ">
<polygon fill="white" stroke="#bfbfbf" points="246.41,-129 246.41,-148 291.41,-148 291.41,-129 246.41,-129"/>
<text text-anchor="middle" x="268.91" y="-136" font-family="Helvetica,sans-Serif" font-size="10.00">utility</text>
</a>
</g>
</g>
<!-- Node4&#45;&gt;Node9 -->
<g id="edge9" class="edge">
<title>Node4&#45;&gt;Node9</title>
<path fill="none" stroke="midnightblue" d="M373.39,-257.37C351.47,-232.65 306.3,-181.68 283.2,-155.62"/>
<polygon fill="midnightblue" stroke="midnightblue" points="285.78,-153.26 276.53,-148.1 280.54,-157.9 285.78,-153.26"/>
</g>
<!-- Node10 -->
<g id="node11" class="node">
<title>Node10</title>
<g id="a_node11"><a xlink:href="hash_8h.html" target="_top" xlink:title=" ">
<polygon fill="white" stroke="black" points="473.41,-196 473.41,-215 598.41,-215 598.41,-196 473.41,-196"/>
<text text-anchor="middle" x="535.91" y="-203" font-family="Helvetica,sans-Serif" font-size="10.00">drake/common/hash.h</text>
</a>
</g>
</g>
<!-- Node4&#45;&gt;Node10 -->
<g id="edge10" class="edge">
<title>Node4&#45;&gt;Node10</title>
<path fill="none" stroke="midnightblue" d="M418.46,-257.4C444.78,-245.99 481.5,-230.08 506.84,-219.1"/>
<polygon fill="midnightblue" stroke="midnightblue" points="508.49,-222.19 516.28,-215.01 505.71,-215.77 508.49,-222.19"/>
</g>
<!-- Node19 -->
<g id="node20" class="node">
<title>Node19</title>
<g id="a_node20"><a xlink:href="is__less__than__comparable_8h.html" target="_top" xlink:title=" ">
<polygon fill="white" stroke="black" points="26.41,-190.5 26.41,-220.5 151.41,-220.5 151.41,-190.5 26.41,-190.5"/>
<text text-anchor="start" x="34.41" y="-208.5" font-family="Helvetica,sans-Serif" font-size="10.00">drake/common/is_less</text>
<text text-anchor="middle" x="88.91" y="-197.5" font-family="Helvetica,sans-Serif" font-size="10.00">_than_comparable.h</text>
</a>
</g>
</g>
<!-- Node4&#45;&gt;Node19 -->
<g id="edge27" class="edge">
<title>Node4&#45;&gt;Node19</title>
<path fill="none" stroke="midnightblue" d="M324.37,-258.03C277.08,-247.68 211.63,-233.36 161.73,-222.44"/>
<polygon fill="midnightblue" stroke="midnightblue" points="162.16,-218.95 151.65,-220.23 160.67,-225.79 162.16,-218.95"/>
</g>
<!-- Node10&#45;&gt;Node2 -->
<g id="edge21" class="edge">
<title>Node10&#45;&gt;Node2</title>
<path fill="none" stroke="midnightblue" d="M598.51,-199.87C704.06,-191.67 912.88,-173.57 983.91,-154 986.06,-153.41 988.25,-152.69 990.42,-151.89"/>
<polygon fill="midnightblue" stroke="midnightblue" points="991.78,-155.12 999.67,-148.04 989.09,-148.65 991.78,-155.12"/>
</g>
<!-- Node10&#45;&gt;Node6 -->
<g id="edge12" class="edge">
<title>Node10&#45;&gt;Node6</title>
<path fill="none" stroke="midnightblue" d="M476.34,-195.96C402.67,-185.12 281.65,-166.36 237.91,-154 235.47,-153.31 232.97,-152.51 230.48,-151.65"/>
<polygon fill="midnightblue" stroke="midnightblue" points="231.67,-148.35 221.07,-148.11 229.2,-154.91 231.67,-148.35"/>
</g>
<!-- Node10&#45;&gt;Node7 -->
<g id="edge14" class="edge">
<title>Node10&#45;&gt;Node7</title>
<path fill="none" stroke="midnightblue" d="M580.6,-195.93C626.61,-186.78 700.24,-171.25 762.91,-154 766.09,-153.12 769.38,-152.16 772.66,-151.15"/>
<polygon fill="midnightblue" stroke="midnightblue" points="773.9,-154.43 782.37,-148.06 771.78,-147.76 773.9,-154.43"/>
</g>
<!-- Node10&#45;&gt;Node8 -->
<g id="edge19" class="edge">
<title>Node10&#45;&gt;Node8</title>
<path fill="none" stroke="midnightblue" d="M472.96,-195.97C422.59,-187.8 357.58,-173.79 339.91,-154 308.97,-119.34 312.35,-59.92 316.57,-29.76"/>
<polygon fill="midnightblue" stroke="midnightblue" points="320.05,-30.16 318.16,-19.74 313.13,-29.07 320.05,-30.16"/>
</g>
<!-- Node10&#45;&gt;Node9 -->
<g id="edge20" class="edge">
<title>Node10&#45;&gt;Node9</title>
<path fill="none" stroke="midnightblue" d="M486.43,-195.97C439.45,-187.32 367.13,-172.59 305.91,-154 303.48,-153.26 300.99,-152.44 298.5,-151.57"/>
<polygon fill="midnightblue" stroke="midnightblue" points="299.66,-148.26 289.06,-148.06 297.22,-154.82 299.66,-148.26"/>
</g>
<!-- Node11 -->
<g id="node12" class="node">
<title>Node11</title>
<g id="a_node12"><a xlink:title=" ">
<polygon fill="white" stroke="#bfbfbf" points="348.41,-129 348.41,-148 395.41,-148 395.41,-129 348.41,-129"/>
<text text-anchor="middle" x="371.91" y="-136" font-family="Helvetica,sans-Serif" font-size="10.00">cmath</text>
</a>
</g>
</g>
<!-- Node10&#45;&gt;Node11 -->
<g id="edge11" class="edge">
<title>Node10&#45;&gt;Node11</title>
<path fill="none" stroke="midnightblue" d="M512.59,-195.88C486.29,-186.08 442.32,-169.42 404.91,-154 403.5,-153.42 402.06,-152.82 400.61,-152.2"/>
<polygon fill="midnightblue" stroke="midnightblue" points="401.61,-148.82 391.04,-148.08 398.84,-155.25 401.61,-148.82"/>
</g>
<!-- Node12 -->
<g id="node13" class="node">
<title>Node12</title>
<g id="a_node13"><a xlink:title=" ">
<polygon fill="white" stroke="#bfbfbf" points="413.41,-129 413.41,-148 478.41,-148 478.41,-129 413.41,-129"/>
<text text-anchor="middle" x="445.91" y="-136" font-family="Helvetica,sans-Serif" font-size="10.00">functional</text>
</a>
</g>
</g>
<!-- Node10&#45;&gt;Node12 -->
<g id="edge13" class="edge">
<title>Node10&#45;&gt;Node12</title>
<path fill="none" stroke="midnightblue" d="M523.77,-195.73C509.06,-185.11 484.05,-167.05 466.35,-154.26"/>
<polygon fill="midnightblue" stroke="midnightblue" points="468.01,-151.14 457.86,-148.13 463.91,-156.82 468.01,-151.14"/>
</g>
<!-- Node13 -->
<g id="node14" class="node">
<title>Node13</title>
<g id="a_node14"><a xlink:title=" ">
<polygon fill="white" stroke="#bfbfbf" points="496.91,-129 496.91,-148 534.91,-148 534.91,-129 496.91,-129"/>
<text text-anchor="middle" x="515.91" y="-136" font-family="Helvetica,sans-Serif" font-size="10.00">map</text>
</a>
</g>
</g>
<!-- Node10&#45;&gt;Node13 -->
<g id="edge15" class="edge">
<title>Node10&#45;&gt;Node13</title>
<path fill="none" stroke="midnightblue" d="M533.21,-195.73C530.24,-186.09 525.39,-170.3 521.57,-157.91"/>
<polygon fill="midnightblue" stroke="midnightblue" points="524.85,-156.66 518.56,-148.13 518.16,-158.71 524.85,-156.66"/>
</g>
<!-- Node14 -->
<g id="node15" class="node">
<title>Node14</title>
<g id="a_node15"><a xlink:title=" ">
<polygon fill="white" stroke="#bfbfbf" points="552.91,-129 552.91,-148 608.91,-148 608.91,-129 552.91,-129"/>
<text text-anchor="middle" x="580.91" y="-136" font-family="Helvetica,sans-Serif" font-size="10.00">optional</text>
</a>
</g>
</g>
<!-- Node10&#45;&gt;Node14 -->
<g id="edge16" class="edge">
<title>Node10&#45;&gt;Node14</title>
<path fill="none" stroke="midnightblue" d="M541.98,-195.73C548.93,-185.7 560.48,-169.01 569.19,-156.42"/>
<polygon fill="midnightblue" stroke="midnightblue" points="572.12,-158.34 574.94,-148.13 566.37,-154.36 572.12,-158.34"/>
</g>
<!-- Node15 -->
<g id="node16" class="node">
<title>Node15</title>
<g id="a_node16"><a xlink:title=" ">
<polygon fill="white" stroke="#bfbfbf" points="626.91,-129 626.91,-148 658.91,-148 658.91,-129 626.91,-129"/>
<text text-anchor="middle" x="642.91" y="-136" font-family="Helvetica,sans-Serif" font-size="10.00">set</text>
</a>
</g>
</g>
<!-- Node10&#45;&gt;Node15 -->
<g id="edge17" class="edge">
<title>Node10&#45;&gt;Node15</title>
<path fill="none" stroke="midnightblue" d="M550.34,-195.73C568.23,-184.87 598.93,-166.22 620.04,-153.39"/>
<polygon fill="midnightblue" stroke="midnightblue" points="621.98,-156.31 628.71,-148.13 618.34,-150.33 621.98,-156.31"/>
</g>
<!-- Node16 -->
<g id="node17" class="node">
<title>Node16</title>
<g id="a_node17"><a xlink:title=" ">
<polygon fill="white" stroke="#bfbfbf" points="676.91,-129 676.91,-148 720.91,-148 720.91,-129 676.91,-129"/>
<text text-anchor="middle" x="698.91" y="-136" font-family="Helvetica,sans-Serif" font-size="10.00">string</text>
</a>
</g>
</g>
<!-- Node10&#45;&gt;Node16 -->
<g id="edge18" class="edge">
<title>Node10&#45;&gt;Node16</title>
<path fill="none" stroke="midnightblue" d="M559.96,-195.89C586.58,-186.23 630.64,-169.82 667.91,-154 669.28,-153.42 670.67,-152.81 672.08,-152.19"/>
<polygon fill="midnightblue" stroke="midnightblue" points="673.65,-155.33 681.3,-148 670.75,-148.95 673.65,-155.33"/>
</g>
<!-- Node17 -->
<g id="node18" class="node">
<title>Node17</title>
<g id="a_node18"><a xlink:href="drake__assert_8h.html" target="_top" xlink:title="Provides Drake&#39;s assertion implementation.">
<polygon fill="white" stroke="black" points="689.41,-56.5 689.41,-86.5 808.41,-86.5 808.41,-56.5 689.41,-56.5"/>
<text text-anchor="start" x="697.41" y="-74.5" font-family="Helvetica,sans-Serif" font-size="10.00">drake/common/drake</text>
<text text-anchor="middle" x="748.91" y="-63.5" font-family="Helvetica,sans-Serif" font-size="10.00">_assert.h</text>
</a>
</g>
</g>
<!-- Node10&#45;&gt;Node17 -->
<g id="edge22" class="edge">
<title>Node10&#45;&gt;Node17</title>
<path fill="none" stroke="midnightblue" d="M594.85,-195.98C644.8,-187.57 711.2,-173.19 729.91,-154 744.59,-138.94 748.74,-114.85 749.58,-96.76"/>
<polygon fill="midnightblue" stroke="midnightblue" points="753.08,-96.71 749.74,-86.66 746.08,-96.6 753.08,-96.71"/>
</g>
<!-- Node18 -->
<g id="node19" class="node">
<title>Node18</title>
<g id="a_node19"><a xlink:href="drake__throw_8h.html" target="_top" xlink:title="Provides a convenient wrapper to throw an exception when a condition is unmet.">
<polygon fill="white" stroke="black" points="855.41,-123.5 855.41,-153.5 974.41,-153.5 974.41,-123.5 855.41,-123.5"/>
<text text-anchor="start" x="863.41" y="-141.5" font-family="Helvetica,sans-Serif" font-size="10.00">drake/common/drake</text>
<text text-anchor="middle" x="914.91" y="-130.5" font-family="Helvetica,sans-Serif" font-size="10.00">_throw.h</text>
</a>
</g>
</g>
<!-- Node10&#45;&gt;Node18 -->
<g id="edge24" class="edge">
<title>Node10&#45;&gt;Node18</title>
<path fill="none" stroke="midnightblue" d="M593.18,-195.97C653.37,-186.83 751.04,-171.48 845.13,-154.1"/>
<polygon fill="midnightblue" stroke="midnightblue" points="845.91,-157.51 855.1,-152.24 844.63,-150.63 845.91,-157.51"/>
</g>
<!-- Node17&#45;&gt;Node8 -->
<g id="edge23" class="edge">
<title>Node17&#45;&gt;Node8</title>
<path fill="none" stroke="midnightblue" d="M689.26,-62.23C602.12,-50.14 441.96,-27.93 364.37,-17.17"/>
<polygon fill="midnightblue" stroke="midnightblue" points="364.82,-13.7 354.43,-15.79 363.86,-20.63 364.82,-13.7"/>
</g>
<!-- Node18&#45;&gt;Node8 -->
<g id="edge25" class="edge">
<title>Node18&#45;&gt;Node8</title>
<path fill="none" stroke="midnightblue" d="M903.17,-123.28C886.46,-104.19 853.85,-70.96 817.91,-56 736.57,-22.14 471.11,-13.68 364.66,-11.63"/>
<polygon fill="midnightblue" stroke="midnightblue" points="364.63,-8.13 354.57,-11.45 364.5,-15.13 364.63,-8.13"/>
</g>
<!-- Node18&#45;&gt;Node17 -->
<g id="edge26" class="edge">
<title>Node18&#45;&gt;Node17</title>
<path fill="none" stroke="midnightblue" d="M878.89,-123.4C854.09,-113.69 820.95,-100.71 794.34,-90.29"/>
<polygon fill="midnightblue" stroke="midnightblue" points="795.45,-86.96 784.86,-86.58 792.89,-93.48 795.45,-86.96"/>
</g>
<!-- Node19&#45;&gt;Node8 -->
<g id="edge28" class="edge">
<title>Node19&#45;&gt;Node8</title>
<path fill="none" stroke="midnightblue" d="M52.46,-190.46C36.7,-182.35 19.85,-170.44 10.91,-154 4.33,-141.9 3,-134.28 10.91,-123 71.28,-36.9 204.87,-16.72 274.97,-12.17"/>
<polygon fill="midnightblue" stroke="midnightblue" points="275.46,-15.65 285.24,-11.59 275.06,-8.66 275.46,-15.65"/>
</g>
<!-- Node20 -->
<g id="node21" class="node">
<title>Node20</title>
<g id="a_node21"><a xlink:href="unused_8h.html" target="_top" xlink:title=" ">
<polygon fill="white" stroke="black" points="20.41,-129 20.41,-148 157.41,-148 157.41,-129 20.41,-129"/>
<text text-anchor="middle" x="88.91" y="-136" font-family="Helvetica,sans-Serif" font-size="10.00">drake/common/unused.h</text>
</a>
</g>
</g>
<!-- Node19&#45;&gt;Node20 -->
<g id="edge29" class="edge">
<title>Node19&#45;&gt;Node20</title>
<path fill="none" stroke="midnightblue" d="M88.91,-190.4C88.91,-181.06 88.91,-168.71 88.91,-158.52"/>
<polygon fill="midnightblue" stroke="midnightblue" points="92.41,-158.19 88.91,-148.19 85.41,-158.19 92.41,-158.19"/>
</g>
<!-- Node21&#45;&gt;Node2 -->
<g id="edge31" class="edge">
<title>Node21&#45;&gt;Node2</title>
<path fill="none" stroke="midnightblue" d="M907.86,-257.37C930.52,-232.65 977.24,-181.68 1001.13,-155.62"/>
<polygon fill="midnightblue" stroke="midnightblue" points="1003.85,-157.83 1008.03,-148.1 998.69,-153.1 1003.85,-157.83"/>
</g>
<!-- Node21&#45;&gt;Node3 -->
<g id="edge32" class="edge">
<title>Node21&#45;&gt;Node3</title>
<path fill="none" stroke="midnightblue" d="M873.43,-257.4C859.55,-248.28 841.28,-236.29 825.97,-226.24"/>
<polygon fill="midnightblue" stroke="midnightblue" points="827.63,-223.14 817.35,-220.58 823.79,-228.99 827.63,-223.14"/>
</g>
<!-- Node21&#45;&gt;Node18 -->
<g id="edge33" class="edge">
<title>Node21&#45;&gt;Node18</title>
<path fill="none" stroke="midnightblue" d="M897.05,-257.37C900.45,-234.94 907.12,-190.92 911.28,-163.49"/>
<polygon fill="midnightblue" stroke="midnightblue" points="914.75,-163.94 912.78,-153.52 907.83,-162.89 914.75,-163.94"/>
</g>
</g>
</svg>
        <g id="navigator" transform="translate(0 0)" fill="#404254">
                <rect fill="#f2f5e9" fill-opacity="0.5" stroke="#606060" stroke-width=".5" x="0" y="0" width="60" height="60"/>
                <use id="zoomplus" xlink:href="#zoomPlus" x="17" y="9" onmousedown="handleZoom(evt,'in')"/>
                <use id="zoomminus" xlink:href="#zoomMin" x="42" y="9" onmousedown="handleZoom(evt,'out')"/>
                <use id="reset" xlink:href="#resetDef" x="30" y="36" onmousedown="handleReset()"/>
                <g id="arrowUp" xlink:href="#dirArrow" transform="translate(30 24)" onmousedown="handlePan(0,-1)">
                  <use xlink:href="#rim" fill="#404040">
                        <set attributeName="fill" to="#808080" begin="arrowUp.mouseover" end="arrowUp.mouseout"/>
                  </use>
                  <path fill="none" stroke="white" stroke-width="1.5" d="M0,-3.0v7 M-2.5,-0.5L0,-3.0L2.5,-0.5"/>
                </g>
                <g id="arrowRight" xlink:href="#dirArrow" transform="rotate(90) translate(36 -43)" onmousedown="handlePan(1,0)">
                  <use xlink:href="#rim" fill="#404040">
                        <set attributeName="fill" to="#808080" begin="arrowRight.mouseover" end="arrowRight.mouseout"/>
                  </use>
                  <path fill="none" stroke="white" stroke-width="1.5" d="M0,-3.0v7 M-2.5,-0.5L0,-3.0L2.5,-0.5"/>
                </g>
                <g id="arrowDown" xlink:href="#dirArrow" transform="rotate(180) translate(-30 -48)" onmousedown="handlePan(0,1)">
                  <use xlink:href="#rim" fill="#404040">
                        <set attributeName="fill" to="#808080" begin="arrowDown.mouseover" end="arrowDown.mouseout"/>
                  </use>
                  <path fill="none" stroke="white" stroke-width="1.5" d="M0,-3.0v7 M-2.5,-0.5L0,-3.0L2.5,-0.5"/>
                </g>
                <g id="arrowLeft" xlink:href="#dirArrow" transform="rotate(270) translate(-36 17)" onmousedown="handlePan(-1,0)">
                  <use xlink:href="#rim" fill="#404040">
                        <set attributeName="fill" to="#808080" begin="arrowLeft.mouseover" end="arrowLeft.mouseout"/>
                  </use>
                  <path fill="none" stroke="white" stroke-width="1.5" d="M0,-3.0v7 M-2.5,-0.5L0,-3.0L2.5,-0.5"/>
                </g>
        </g>
        <svg viewBox="0 0 15 15" width="100%" height="30px" preserveAspectRatio="xMaxYMin meet">
         <g id="arrow_out" transform="scale(0.3 0.3)">
          <a xlink:href="contact__problem__graph_8h__incl_org.svg" target="_base">
           <rect id="button" ry="5" rx="5" y="6" x="6" height="38" width="38"
                fill="#f2f5e9" fill-opacity="0.5" stroke="#606060" stroke-width="1.0"/>
           <path id="arrow"
             d="M 11.500037,31.436501 C 11.940474,20.09759 22.043105,11.32322 32.158766,21.979434 L 37.068811,17.246167 C 37.068811,17.246167 37.088388,32 37.088388,32 L 22.160133,31.978069 C 22.160133,31.978069 26.997745,27.140456 26.997745,27.140456 C 18.528582,18.264221 13.291696,25.230495 11.500037,31.436501 z"
             style="fill:#404040;"/>
          </a>
         </g>
        </svg>
</svg>
