<?xml version="1.0" encoding="UTF-8" standalone="no"?>
<!DOCTYPE svg PUBLIC "-//W3C//DTD SVG 1.1//EN"
 "http://www.w3.org/Graphics/SVG/1.1/DTD/svg11.dtd">
<!-- Generated by graphviz version 2.43.0 (0)
 -->
<!-- Title: drake/multibody/contact_solvers/schur_complement.h Pages: 1 -->
<svg width="1472pt" height="452pt"
 viewBox="0.00 0.00 1472.31 452.00" xmlns="http://www.w3.org/2000/svg" xmlns:xlink="http://www.w3.org/1999/xlink">
<g id="graph0" class="graph" transform="scale(1 1) rotate(0) translate(4 448)">
<title>drake/multibody/contact_solvers/schur_complement.h</title>
<polygon fill="white" stroke="transparent" points="-4,4 -4,-448 1468.31,-448 1468.31,4 -4,4"/>
<!-- Node0 -->
<g id="node1" class="node">
<title>Node0</title>
<g id="a_node1"><a xlink:title=" ">
<polygon fill="#bfbfbf" stroke="black" points="425.81,-413.5 425.81,-443.5 587.81,-443.5 587.81,-413.5 425.81,-413.5"/>
<text text-anchor="start" x="433.81" y="-431.5" font-family="Helvetica,sans-Serif" font-size="10.00">drake/multibody/contact</text>
<text text-anchor="middle" x="506.81" y="-420.5" font-family="Helvetica,sans-Serif" font-size="10.00">_solvers/schur_complement.h</text>
</a>
</g>
</g>
<!-- Node1 -->
<g id="node2" class="node">
<title>Node1</title>
<g id="a_node2"><a xlink:title=" ">
<polygon fill="white" stroke="#bfbfbf" points="20.81,-263 20.81,-282 106.81,-282 106.81,-263 20.81,-263"/>
<text text-anchor="middle" x="63.81" y="-270" font-family="Helvetica,sans-Serif" font-size="10.00">unordered_set</text>
</a>
</g>
</g>
<!-- Node0&#45;&gt;Node1 -->
<g id="edge1" class="edge">
<title>Node0&#45;&gt;Node1</title>
<path fill="none" stroke="midnightblue" d="M459.64,-413.45C386.36,-391.27 241.11,-345.8 120.81,-299 110.92,-295.15 100.25,-290.51 90.84,-286.25"/>
<polygon fill="midnightblue" stroke="midnightblue" points="92.14,-283 81.59,-282 89.22,-289.36 92.14,-283"/>
</g>
<!-- Node2 -->
<g id="node3" class="node">
<title>Node2</title>
<g id="a_node3"><a xlink:title=" ">
<polygon fill="white" stroke="#bfbfbf" points="45.31,-118 45.31,-137 92.31,-137 92.31,-118 45.31,-118"/>
<text text-anchor="middle" x="68.81" y="-125" font-family="Helvetica,sans-Serif" font-size="10.00">vector</text>
</a>
</g>
</g>
<!-- Node0&#45;&gt;Node2 -->
<g id="edge2" class="edge">
<title>Node0&#45;&gt;Node2</title>
<path fill="none" stroke="midnightblue" d="M425.56,-419.01C297.61,-403.71 58.82,-366.61 11.81,-299 -22.71,-249.34 27.69,-177.17 54.23,-145.02"/>
<polygon fill="midnightblue" stroke="midnightblue" points="57.18,-146.95 60.99,-137.06 51.85,-142.42 57.18,-146.95"/>
</g>
<!-- Node3 -->
<g id="node4" class="node">
<title>Node3</title>
<g id="a_node4"><a xlink:href="drake__copyable_8h.html" target="_top" xlink:title="Provides careful macros to selectively enable or disable the special member functions for copy&#45;constr...">
<polygon fill="white" stroke="black" points="914.31,-112.5 914.31,-142.5 1033.31,-142.5 1033.31,-112.5 914.31,-112.5"/>
<text text-anchor="start" x="922.31" y="-130.5" font-family="Helvetica,sans-Serif" font-size="10.00">drake/common/drake</text>
<text text-anchor="middle" x="973.81" y="-119.5" font-family="Helvetica,sans-Serif" font-size="10.00">_copyable.h</text>
</a>
</g>
</g>
<!-- Node0&#45;&gt;Node3 -->
<g id="edge3" class="edge">
<title>Node0&#45;&gt;Node3</title>
<path fill="none" stroke="midnightblue" d="M588.11,-426.87C678.67,-424.2 828.54,-413.91 951.81,-377 1025.31,-354.99 1045.35,-346.23 1105.81,-299 1155.75,-259.99 1222.01,-228.79 1182.81,-179 1178.34,-173.32 1102.64,-156 1043.61,-143.22"/>
<polygon fill="midnightblue" stroke="midnightblue" points="1044.07,-139.74 1033.56,-141.05 1042.59,-146.58 1044.07,-139.74"/>
</g>
<!-- Node4 -->
<g id="node5" class="node">
<title>Node4</title>
<g id="a_node5"><a xlink:href="eigen__types_8h.html" target="_top" xlink:title="This file contains abbreviated definitions for certain specializations of Eigen::Matrix that are comm...">
<polygon fill="white" stroke="black" points="1054.31,-179.5 1054.31,-209.5 1173.31,-209.5 1173.31,-179.5 1054.31,-179.5"/>
<text text-anchor="start" x="1062.31" y="-197.5" font-family="Helvetica,sans-Serif" font-size="10.00">drake/common/eigen</text>
<text text-anchor="middle" x="1113.81" y="-186.5" font-family="Helvetica,sans-Serif" font-size="10.00">_types.h</text>
</a>
</g>
</g>
<!-- Node0&#45;&gt;Node4 -->
<g id="edge4" class="edge">
<title>Node0&#45;&gt;Node4</title>
<path fill="none" stroke="midnightblue" d="M587.85,-418.97C727.62,-402.72 1005.99,-363.11 1077.81,-299 1100.58,-278.68 1108.95,-243.18 1112.03,-219.51"/>
<polygon fill="midnightblue" stroke="midnightblue" points="1115.51,-219.88 1113.1,-209.56 1108.55,-219.13 1115.51,-219.88"/>
</g>
<!-- Node16 -->
<g id="node17" class="node">
<title>Node16</title>
<g id="a_node17"><a xlink:href="block__sparse__cholesky__solver_8h.html" target="_top" xlink:title=" ">
<polygon fill="white" stroke="black" points="488.31,-335.5 488.31,-376.5 623.31,-376.5 623.31,-335.5 488.31,-335.5"/>
<text text-anchor="start" x="496.31" y="-364.5" font-family="Helvetica,sans-Serif" font-size="10.00">drake/multibody/contact</text>
<text text-anchor="start" x="496.31" y="-353.5" font-family="Helvetica,sans-Serif" font-size="10.00">_solvers/block_sparse</text>
<text text-anchor="middle" x="555.81" y="-342.5" font-family="Helvetica,sans-Serif" font-size="10.00">_cholesky_solver.h</text>
</a>
</g>
</g>
<!-- Node0&#45;&gt;Node16 -->
<g id="edge19" class="edge">
<title>Node0&#45;&gt;Node16</title>
<path fill="none" stroke="midnightblue" d="M516.73,-413.23C522.4,-405.08 529.7,-394.57 536.46,-384.85"/>
<polygon fill="midnightblue" stroke="midnightblue" points="539.37,-386.8 542.2,-376.59 533.62,-382.8 539.37,-386.8"/>
</g>
<!-- Node22 -->
<g id="node23" class="node">
<title>Node22</title>
<g id="a_node23"><a xlink:href="block__sparse__lower__triangular__or__symmetric__matrix_8h.html" target="_top" xlink:title=" ">
<polygon fill="white" stroke="black" points="315.81,-246.5 315.81,-298.5 489.81,-298.5 489.81,-246.5 315.81,-246.5"/>
<text text-anchor="start" x="323.81" y="-286.5" font-family="Helvetica,sans-Serif" font-size="10.00">drake/multibody/contact</text>
<text text-anchor="start" x="323.81" y="-275.5" font-family="Helvetica,sans-Serif" font-size="10.00">_solvers/block_sparse</text>
<text text-anchor="start" x="323.81" y="-264.5" font-family="Helvetica,sans-Serif" font-size="10.00">_lower_triangular_or_symmetric</text>
<text text-anchor="middle" x="402.81" y="-253.5" font-family="Helvetica,sans-Serif" font-size="10.00">_matrix.h</text>
</a>
</g>
</g>
<!-- Node0&#45;&gt;Node22 -->
<g id="edge52" class="edge">
<title>Node0&#45;&gt;Node22</title>
<path fill="none" stroke="midnightblue" d="M497.22,-413.29C481.01,-389.3 447.82,-340.14 425.43,-306.99"/>
<polygon fill="midnightblue" stroke="midnightblue" points="428.21,-304.85 419.71,-298.52 422.41,-308.77 428.21,-304.85"/>
</g>
<!-- Node4&#45;&gt;Node3 -->
<g id="edge10" class="edge">
<title>Node4&#45;&gt;Node3</title>
<path fill="none" stroke="midnightblue" d="M1083.44,-179.4C1062.89,-169.86 1035.55,-157.16 1013.31,-146.84"/>
<polygon fill="midnightblue" stroke="midnightblue" points="1014.68,-143.61 1004.13,-142.58 1011.73,-149.96 1014.68,-143.61"/>
</g>
<!-- Node5 -->
<g id="node6" class="node">
<title>Node5</title>
<g id="a_node6"><a xlink:title=" ">
<polygon fill="white" stroke="#bfbfbf" points="560.31,-118 560.31,-137 605.31,-137 605.31,-118 560.31,-118"/>
<text text-anchor="middle" x="582.81" y="-125" font-family="Helvetica,sans-Serif" font-size="10.00">utility</text>
</a>
</g>
</g>
<!-- Node4&#45;&gt;Node5 -->
<g id="edge5" class="edge">
<title>Node4&#45;&gt;Node5</title>
<path fill="none" stroke="midnightblue" d="M1054.26,-188.8C966.19,-181.44 796.16,-165.65 652.81,-143 640.49,-141.05 627.05,-138.4 615.27,-135.89"/>
<polygon fill="midnightblue" stroke="midnightblue" points="615.93,-132.45 605.41,-133.75 614.44,-139.29 615.93,-132.45"/>
</g>
<!-- Node6 -->
<g id="node7" class="node">
<title>Node6</title>
<g id="a_node7"><a xlink:title=" ">
<polygon fill="white" stroke="#bfbfbf" points="1387.31,-118 1387.31,-137 1464.31,-137 1464.31,-118 1387.31,-118"/>
<text text-anchor="middle" x="1425.81" y="-125" font-family="Helvetica,sans-Serif" font-size="10.00">Eigen/Dense</text>
</a>
</g>
</g>
<!-- Node4&#45;&gt;Node6 -->
<g id="edge6" class="edge">
<title>Node4&#45;&gt;Node6</title>
<path fill="none" stroke="midnightblue" d="M1173.43,-184.08C1227.41,-175.1 1308.93,-160.38 1378.81,-143 1382.42,-142.1 1386.17,-141.09 1389.89,-140.03"/>
<polygon fill="midnightblue" stroke="midnightblue" points="1391.02,-143.35 1399.61,-137.15 1389.03,-136.63 1391.02,-143.35"/>
</g>
<!-- Node7 -->
<g id="node8" class="node">
<title>Node7</title>
<g id="a_node8"><a xlink:href="constants_8h.html" target="_top" xlink:title=" ">
<polygon fill="white" stroke="black" points="1051.31,-118 1051.31,-137 1200.31,-137 1200.31,-118 1051.31,-118"/>
<text text-anchor="middle" x="1125.81" y="-125" font-family="Helvetica,sans-Serif" font-size="10.00">drake/common/constants.h</text>
</a>
</g>
</g>
<!-- Node4&#45;&gt;Node7 -->
<g id="edge7" class="edge">
<title>Node4&#45;&gt;Node7</title>
<path fill="none" stroke="midnightblue" d="M1116.42,-179.4C1118.16,-169.96 1120.47,-157.45 1122.36,-147.19"/>
<polygon fill="midnightblue" stroke="midnightblue" points="1125.83,-147.66 1124.21,-137.19 1118.95,-146.39 1125.83,-147.66"/>
</g>
<!-- Node8 -->
<g id="node9" class="node">
<title>Node8</title>
<g id="a_node9"><a xlink:href="drake__assert_8h.html" target="_top" xlink:title="Provides Drake&#39;s assertion implementation.">
<polygon fill="white" stroke="black" points="738.31,-112.5 738.31,-142.5 857.31,-142.5 857.31,-112.5 738.31,-112.5"/>
<text text-anchor="start" x="746.31" y="-130.5" font-family="Helvetica,sans-Serif" font-size="10.00">drake/common/drake</text>
<text text-anchor="middle" x="797.81" y="-119.5" font-family="Helvetica,sans-Serif" font-size="10.00">_assert.h</text>
</a>
</g>
</g>
<!-- Node4&#45;&gt;Node8 -->
<g id="edge8" class="edge">
<title>Node4&#45;&gt;Node8</title>
<path fill="none" stroke="midnightblue" d="M1054,-181.2C1000.83,-170.26 923.08,-154.27 867.2,-142.77"/>
<polygon fill="midnightblue" stroke="midnightblue" points="867.88,-139.34 857.38,-140.75 866.47,-146.2 867.88,-139.34"/>
</g>
<!-- Node10 -->
<g id="node11" class="node">
<title>Node10</title>
<g id="a_node11"><a xlink:href="fmt__eigen_8h.html" target="_top" xlink:title=" ">
<polygon fill="white" stroke="black" points="1218.31,-118 1218.31,-137 1369.31,-137 1369.31,-118 1218.31,-118"/>
<text text-anchor="middle" x="1293.81" y="-125" font-family="Helvetica,sans-Serif" font-size="10.00">drake/common/fmt_eigen.h</text>
</a>
</g>
</g>
<!-- Node4&#45;&gt;Node10 -->
<g id="edge11" class="edge">
<title>Node4&#45;&gt;Node10</title>
<path fill="none" stroke="midnightblue" d="M1152.87,-179.4C1185.01,-167.79 1230.08,-151.51 1260.53,-140.52"/>
<polygon fill="midnightblue" stroke="midnightblue" points="1262.04,-143.7 1270.26,-137.01 1259.66,-137.11 1262.04,-143.7"/>
</g>
<!-- Node9 -->
<g id="node10" class="node">
<title>Node9</title>
<g id="a_node10"><a xlink:title=" ">
<polygon fill="white" stroke="#bfbfbf" points="630.31,-56.5 630.31,-75.5 699.31,-75.5 699.31,-56.5 630.31,-56.5"/>
<text text-anchor="middle" x="664.81" y="-63.5" font-family="Helvetica,sans-Serif" font-size="10.00">type_traits</text>
</a>
</g>
</g>
<!-- Node8&#45;&gt;Node9 -->
<g id="edge9" class="edge">
<title>Node8&#45;&gt;Node9</title>
<path fill="none" stroke="midnightblue" d="M766.29,-112.4C744.18,-102.51 714.85,-89.38 693.41,-79.79"/>
<polygon fill="midnightblue" stroke="midnightblue" points="694.72,-76.55 684.17,-75.66 691.86,-82.94 694.72,-76.55"/>
</g>
<!-- Node11 -->
<g id="node12" class="node">
<title>Node11</title>
<g id="a_node12"><a xlink:title=" ">
<polygon fill="white" stroke="#bfbfbf" points="1194.81,-0.5 1194.81,-19.5 1238.81,-19.5 1238.81,-0.5 1194.81,-0.5"/>
<text text-anchor="middle" x="1216.81" y="-7.5" font-family="Helvetica,sans-Serif" font-size="10.00">string</text>
</a>
</g>
</g>
<!-- Node10&#45;&gt;Node11 -->
<g id="edge12" class="edge">
<title>Node10&#45;&gt;Node11</title>
<path fill="none" stroke="midnightblue" d="M1288.03,-117.82C1275.37,-98.84 1245.05,-53.35 1228.34,-28.29"/>
<polygon fill="midnightblue" stroke="midnightblue" points="1231.13,-26.16 1222.67,-19.78 1225.3,-30.04 1231.13,-26.16"/>
</g>
<!-- Node12 -->
<g id="node13" class="node">
<title>Node12</title>
<g id="a_node13"><a xlink:title=" ">
<polygon fill="white" stroke="#bfbfbf" points="1257.31,-0.5 1257.31,-19.5 1330.31,-19.5 1330.31,-0.5 1257.31,-0.5"/>
<text text-anchor="middle" x="1293.81" y="-7.5" font-family="Helvetica,sans-Serif" font-size="10.00">string_view</text>
</a>
</g>
</g>
<!-- Node10&#45;&gt;Node12 -->
<g id="edge13" class="edge">
<title>Node10&#45;&gt;Node12</title>
<path fill="none" stroke="midnightblue" d="M1293.81,-117.82C1293.81,-99.26 1293.81,-55.34 1293.81,-29.97"/>
<polygon fill="midnightblue" stroke="midnightblue" points="1297.31,-29.78 1293.81,-19.78 1290.31,-29.78 1297.31,-29.78"/>
</g>
<!-- Node13 -->
<g id="node14" class="node">
<title>Node13</title>
<g id="a_node14"><a xlink:title=" ">
<polygon fill="white" stroke="#bfbfbf" points="1322.31,-56.5 1322.31,-75.5 1391.31,-75.5 1391.31,-56.5 1322.31,-56.5"/>
<text text-anchor="middle" x="1356.81" y="-63.5" font-family="Helvetica,sans-Serif" font-size="10.00">Eigen/Core</text>
</a>
</g>
</g>
<!-- Node10&#45;&gt;Node13 -->
<g id="edge14" class="edge">
<title>Node10&#45;&gt;Node13</title>
<path fill="none" stroke="midnightblue" d="M1302.84,-117.98C1312.57,-108.78 1328.27,-93.96 1340.24,-82.66"/>
<polygon fill="midnightblue" stroke="midnightblue" points="1342.94,-84.92 1347.8,-75.51 1338.13,-79.83 1342.94,-84.92"/>
</g>
<!-- Node14 -->
<g id="node15" class="node">
<title>Node14</title>
<g id="a_node15"><a xlink:href="fmt_8h.html" target="_top" xlink:title=" ">
<polygon fill="white" stroke="black" points="1108.31,-56.5 1108.31,-75.5 1227.31,-75.5 1227.31,-56.5 1108.31,-56.5"/>
<text text-anchor="middle" x="1167.81" y="-63.5" font-family="Helvetica,sans-Serif" font-size="10.00">drake/common/fmt.h</text>
</a>
</g>
</g>
<!-- Node10&#45;&gt;Node14 -->
<g id="edge15" class="edge">
<title>Node10&#45;&gt;Node14</title>
<path fill="none" stroke="midnightblue" d="M1275.76,-117.98C1254.61,-107.99 1219.37,-91.35 1194.93,-79.81"/>
<polygon fill="midnightblue" stroke="midnightblue" points="1196.37,-76.61 1185.83,-75.51 1193.38,-82.94 1196.37,-76.61"/>
</g>
<!-- Node14&#45;&gt;Node11 -->
<g id="edge16" class="edge">
<title>Node14&#45;&gt;Node11</title>
<path fill="none" stroke="midnightblue" d="M1175.9,-56.08C1182.97,-48.3 1193.4,-36.8 1201.96,-27.37"/>
<polygon fill="midnightblue" stroke="midnightblue" points="1204.74,-29.51 1208.87,-19.75 1199.56,-24.8 1204.74,-29.51"/>
</g>
<!-- Node14&#45;&gt;Node12 -->
<g id="edge17" class="edge">
<title>Node14&#45;&gt;Node12</title>
<path fill="none" stroke="midnightblue" d="M1187.78,-56.44C1208.42,-47.6 1240.88,-33.69 1264.44,-23.59"/>
<polygon fill="midnightblue" stroke="midnightblue" points="1266.13,-26.67 1273.94,-19.52 1263.37,-20.24 1266.13,-26.67"/>
</g>
<!-- Node15 -->
<g id="node16" class="node">
<title>Node15</title>
<g id="a_node16"><a xlink:title=" ">
<polygon fill="white" stroke="#bfbfbf" points="1098.31,-0.5 1098.31,-19.5 1177.31,-19.5 1177.31,-0.5 1098.31,-0.5"/>
<text text-anchor="middle" x="1137.81" y="-7.5" font-family="Helvetica,sans-Serif" font-size="10.00">fmt/format.h</text>
</a>
</g>
</g>
<!-- Node14&#45;&gt;Node15 -->
<g id="edge18" class="edge">
<title>Node14&#45;&gt;Node15</title>
<path fill="none" stroke="midnightblue" d="M1162.86,-56.08C1158.71,-48.61 1152.66,-37.72 1147.55,-28.52"/>
<polygon fill="midnightblue" stroke="midnightblue" points="1150.59,-26.79 1142.67,-19.75 1144.47,-30.19 1150.59,-26.79"/>
</g>
<!-- Node16&#45;&gt;Node1 -->
<g id="edge22" class="edge">
<title>Node16&#45;&gt;Node1</title>
<path fill="none" stroke="midnightblue" d="M488.27,-352.41C401.69,-347.72 247.62,-334.69 120.81,-299 110.01,-295.96 98.63,-291.21 88.9,-286.63"/>
<polygon fill="midnightblue" stroke="midnightblue" points="90.32,-283.43 79.8,-282.18 87.24,-289.72 90.32,-283.43"/>
</g>
<!-- Node16&#45;&gt;Node2 -->
<g id="edge23" class="edge">
<title>Node16&#45;&gt;Node2</title>
<path fill="none" stroke="midnightblue" d="M488.24,-345.09C366.75,-325.71 119.53,-278.62 70.81,-210 57.79,-191.65 60.17,-164.65 63.85,-146.83"/>
<polygon fill="midnightblue" stroke="midnightblue" points="67.26,-147.62 66.18,-137.08 60.45,-145.99 67.26,-147.62"/>
</g>
<!-- Node16&#45;&gt;Node3 -->
<g id="edge30" class="edge">
<title>Node16&#45;&gt;Node3</title>
<path fill="none" stroke="midnightblue" d="M623.34,-351.27C740.79,-344.08 972.55,-326.54 996.81,-299 1033.06,-257.85 1005.49,-188.03 986.99,-151.83"/>
<polygon fill="midnightblue" stroke="midnightblue" points="990.08,-150.17 982.3,-142.97 983.89,-153.45 990.08,-150.17"/>
</g>
<!-- Node16&#45;&gt;Node4 -->
<g id="edge31" class="edge">
<title>Node16&#45;&gt;Node4</title>
<path fill="none" stroke="midnightblue" d="M623.77,-353.84C739.96,-350.77 970.95,-339.59 1039.81,-299 1070.92,-280.66 1092.48,-243.54 1103.99,-219.1"/>
<polygon fill="midnightblue" stroke="midnightblue" points="1107.26,-220.36 1108.18,-209.8 1100.88,-217.48 1107.26,-220.36"/>
</g>
<!-- Node17 -->
<g id="node18" class="node">
<title>Node17</title>
<g id="a_node18"><a xlink:title=" ">
<polygon fill="white" stroke="#bfbfbf" points="661.81,-118 661.81,-137 719.81,-137 719.81,-118 661.81,-118"/>
<text text-anchor="middle" x="690.81" y="-125" font-family="Helvetica,sans-Serif" font-size="10.00">memory</text>
</a>
</g>
</g>
<!-- Node16&#45;&gt;Node17 -->
<g id="edge20" class="edge">
<title>Node16&#45;&gt;Node17</title>
<path fill="none" stroke="midnightblue" d="M604.36,-335.47C652.52,-313.14 723.53,-271.54 754.81,-210 761.06,-197.72 760.82,-191.4 754.81,-179 747.12,-163.12 731.73,-150.73 717.98,-142.2"/>
<polygon fill="midnightblue" stroke="midnightblue" points="719.68,-139.14 709.27,-137.15 716.17,-145.19 719.68,-139.14"/>
</g>
<!-- Node18 -->
<g id="node19" class="node">
<title>Node18</title>
<g id="a_node19"><a xlink:title=" ">
<polygon fill="white" stroke="#bfbfbf" points="398.81,-185 398.81,-204 454.81,-204 454.81,-185 398.81,-185"/>
<text text-anchor="middle" x="426.81" y="-192" font-family="Helvetica,sans-Serif" font-size="10.00">optional</text>
</a>
</g>
</g>
<!-- Node16&#45;&gt;Node18 -->
<g id="edge21" class="edge">
<title>Node16&#45;&gt;Node18</title>
<path fill="none" stroke="midnightblue" d="M548.79,-335.19C539.84,-311.94 522.62,-273.12 498.81,-246 485.63,-230.99 467.12,-218.13 452.16,-209.14"/>
<polygon fill="midnightblue" stroke="midnightblue" points="453.8,-206.05 443.39,-204.07 450.29,-212.11 453.8,-206.05"/>
</g>
<!-- Node19 -->
<g id="node20" class="node">
<title>Node19</title>
<g id="a_node20"><a xlink:href="copyable__unique__ptr_8h.html" target="_top" xlink:title=" ">
<polygon fill="white" stroke="black" points="608.31,-179.5 608.31,-209.5 745.31,-209.5 745.31,-179.5 608.31,-179.5"/>
<text text-anchor="start" x="616.31" y="-197.5" font-family="Helvetica,sans-Serif" font-size="10.00">drake/common/copyable</text>
<text text-anchor="middle" x="676.81" y="-186.5" font-family="Helvetica,sans-Serif" font-size="10.00">_unique_ptr.h</text>
</a>
</g>
</g>
<!-- Node16&#45;&gt;Node19 -->
<g id="edge24" class="edge">
<title>Node16&#45;&gt;Node19</title>
<path fill="none" stroke="midnightblue" d="M570.65,-335.44C593.26,-305.64 636.22,-249.01 659.97,-217.7"/>
<polygon fill="midnightblue" stroke="midnightblue" points="662.87,-219.67 666.13,-209.58 657.3,-215.44 662.87,-219.67"/>
</g>
<!-- Node21 -->
<g id="node22" class="node">
<title>Node21</title>
<g id="a_node22"><a xlink:href="reset__after__move_8h.html" target="_top" xlink:title=" ">
<polygon fill="white" stroke="black" points="473.31,-179.5 473.31,-209.5 590.31,-209.5 590.31,-179.5 473.31,-179.5"/>
<text text-anchor="start" x="481.31" y="-197.5" font-family="Helvetica,sans-Serif" font-size="10.00">drake/common/reset</text>
<text text-anchor="middle" x="531.81" y="-186.5" font-family="Helvetica,sans-Serif" font-size="10.00">_after_move.h</text>
</a>
</g>
</g>
<!-- Node16&#45;&gt;Node21 -->
<g id="edge32" class="edge">
<title>Node16&#45;&gt;Node21</title>
<path fill="none" stroke="midnightblue" d="M552.87,-335.44C548.48,-306.27 540.23,-251.42 535.46,-219.74"/>
<polygon fill="midnightblue" stroke="midnightblue" points="538.88,-218.95 533.93,-209.58 531.96,-219.99 538.88,-218.95"/>
</g>
<!-- Node16&#45;&gt;Node22 -->
<g id="edge35" class="edge">
<title>Node16&#45;&gt;Node22</title>
<path fill="none" stroke="midnightblue" d="M519.17,-335.48C501.15,-325.88 479.04,-314.11 458.95,-303.41"/>
<polygon fill="midnightblue" stroke="midnightblue" points="460.36,-300.19 449.89,-298.58 457.07,-306.37 460.36,-300.19"/>
</g>
<!-- Node25 -->
<g id="node26" class="node">
<title>Node25</title>
<g id="a_node26"><a xlink:href="partial__permutation_8h.html" target="_top" xlink:title=" ">
<polygon fill="white" stroke="black" points="801.81,-257.5 801.81,-287.5 987.81,-287.5 987.81,-257.5 801.81,-257.5"/>
<text text-anchor="start" x="809.81" y="-275.5" font-family="Helvetica,sans-Serif" font-size="10.00">drake/multibody/contact</text>
<text text-anchor="middle" x="894.81" y="-264.5" font-family="Helvetica,sans-Serif" font-size="10.00">_solvers/sap/partial_permutation.h</text>
</a>
</g>
</g>
<!-- Node16&#45;&gt;Node25 -->
<g id="edge46" class="edge">
<title>Node16&#45;&gt;Node25</title>
<path fill="none" stroke="midnightblue" d="M623.6,-338.7C682.51,-324.54 767.42,-304.13 826.48,-289.93"/>
<polygon fill="midnightblue" stroke="midnightblue" points="827.56,-293.27 836.47,-287.53 825.92,-286.46 827.56,-293.27"/>
</g>
<!-- Node19&#45;&gt;Node5 -->
<g id="edge27" class="edge">
<title>Node19&#45;&gt;Node5</title>
<path fill="none" stroke="midnightblue" d="M656.42,-179.4C640.8,-168.6 619.34,-153.76 603.62,-142.89"/>
<polygon fill="midnightblue" stroke="midnightblue" points="605.33,-139.82 595.12,-137.01 601.35,-145.57 605.33,-139.82"/>
</g>
<!-- Node19&#45;&gt;Node8 -->
<g id="edge28" class="edge">
<title>Node19&#45;&gt;Node8</title>
<path fill="none" stroke="midnightblue" d="M703.07,-179.4C720.51,-170.03 743.61,-157.62 762.64,-147.39"/>
<polygon fill="midnightblue" stroke="midnightblue" points="764.46,-150.39 771.61,-142.58 761.14,-144.23 764.46,-150.39"/>
</g>
<!-- Node19&#45;&gt;Node14 -->
<g id="edge29" class="edge">
<title>Node19&#45;&gt;Node14</title>
<path fill="none" stroke="midnightblue" d="M665.44,-179.29C652.59,-161.42 635.57,-130.81 652.81,-112 682.29,-79.84 964.07,-70.57 1097.9,-67.98"/>
<polygon fill="midnightblue" stroke="midnightblue" points="1098.12,-71.47 1108.05,-67.79 1097.99,-64.47 1098.12,-71.47"/>
</g>
<!-- Node19&#45;&gt;Node17 -->
<g id="edge26" class="edge">
<title>Node19&#45;&gt;Node17</title>
<path fill="none" stroke="midnightblue" d="M679.85,-179.4C681.88,-169.96 684.58,-157.45 686.79,-147.19"/>
<polygon fill="midnightblue" stroke="midnightblue" points="690.26,-147.71 688.94,-137.19 683.41,-146.23 690.26,-147.71"/>
</g>
<!-- Node20 -->
<g id="node21" class="node">
<title>Node20</title>
<g id="a_node21"><a xlink:title=" ">
<polygon fill="white" stroke="#bfbfbf" points="394.31,-118 394.31,-137 447.31,-137 447.31,-118 394.31,-118"/>
<text text-anchor="middle" x="420.81" y="-125" font-family="Helvetica,sans-Serif" font-size="10.00">cstddef</text>
</a>
</g>
</g>
<!-- Node19&#45;&gt;Node20 -->
<g id="edge25" class="edge">
<title>Node19&#45;&gt;Node20</title>
<path fill="none" stroke="midnightblue" d="M621.58,-179.48C571.78,-166.83 499.96,-148.6 457.08,-137.71"/>
<polygon fill="midnightblue" stroke="midnightblue" points="457.91,-134.31 447.35,-135.24 456.19,-141.09 457.91,-134.31"/>
</g>
<!-- Node21&#45;&gt;Node5 -->
<g id="edge34" class="edge">
<title>Node21&#45;&gt;Node5</title>
<path fill="none" stroke="midnightblue" d="M542.88,-179.4C550.75,-169.36 561.36,-155.84 569.67,-145.25"/>
<polygon fill="midnightblue" stroke="midnightblue" points="572.57,-147.22 575.99,-137.19 567.06,-142.9 572.57,-147.22"/>
</g>
<!-- Node21&#45;&gt;Node9 -->
<g id="edge33" class="edge">
<title>Node21&#45;&gt;Node9</title>
<path fill="none" stroke="midnightblue" d="M531.33,-179.35C531.49,-161.56 534.39,-131.03 550.81,-112 568.39,-91.63 596.41,-80.41 620.28,-74.26"/>
<polygon fill="midnightblue" stroke="midnightblue" points="621.27,-77.62 630.21,-71.93 619.67,-70.81 621.27,-77.62"/>
</g>
<!-- Node22&#45;&gt;Node2 -->
<g id="edge39" class="edge">
<title>Node22&#45;&gt;Node2</title>
<path fill="none" stroke="midnightblue" d="M315.76,-264.25C235.75,-255.86 124.87,-239.28 92.81,-210 75.32,-194.02 70.33,-166 69.04,-147.34"/>
<polygon fill="midnightblue" stroke="midnightblue" points="72.53,-146.98 68.64,-137.13 65.53,-147.26 72.53,-146.98"/>
</g>
<!-- Node22&#45;&gt;Node3 -->
<g id="edge40" class="edge">
<title>Node22&#45;&gt;Node3</title>
<path fill="none" stroke="midnightblue" d="M490.02,-265.78C630.6,-255.9 895.27,-234.35 930.81,-210 950.41,-196.57 961.74,-171.3 967.8,-152.44"/>
<polygon fill="midnightblue" stroke="midnightblue" points="971.19,-153.32 970.65,-142.74 964.47,-151.35 971.19,-153.32"/>
</g>
<!-- Node22&#45;&gt;Node4 -->
<g id="edge41" class="edge">
<title>Node22&#45;&gt;Node4</title>
<path fill="none" stroke="midnightblue" d="M490,-262.18C632.61,-246.94 912.94,-216.97 1043.64,-203"/>
<polygon fill="midnightblue" stroke="midnightblue" points="1044.35,-206.45 1053.92,-201.9 1043.61,-199.48 1044.35,-206.45"/>
</g>
<!-- Node22&#45;&gt;Node5 -->
<g id="edge38" class="edge">
<title>Node22&#45;&gt;Node5</title>
<path fill="none" stroke="midnightblue" d="M389.99,-246.15C381.78,-225.95 375.15,-198 389.81,-179 409.28,-153.79 500.39,-138.74 550.16,-132.26"/>
<polygon fill="midnightblue" stroke="midnightblue" points="550.62,-135.73 560.11,-131.01 549.75,-128.78 550.62,-135.73"/>
</g>
<!-- Node22&#45;&gt;Node18 -->
<g id="edge37" class="edge">
<title>Node22&#45;&gt;Node18</title>
<path fill="none" stroke="midnightblue" d="M410.8,-246.19C414.13,-235.65 417.93,-223.64 420.99,-213.95"/>
<polygon fill="midnightblue" stroke="midnightblue" points="424.39,-214.8 424.06,-204.21 417.71,-212.69 424.39,-214.8"/>
</g>
<!-- Node23 -->
<g id="node24" class="node">
<title>Node23</title>
<g id="a_node24"><a xlink:title=" ">
<polygon fill="white" stroke="#bfbfbf" points="278.81,-185 278.81,-204 342.81,-204 342.81,-185 278.81,-185"/>
<text text-anchor="middle" x="310.81" y="-192" font-family="Helvetica,sans-Serif" font-size="10.00">algorithm</text>
</a>
</g>
</g>
<!-- Node22&#45;&gt;Node23 -->
<g id="edge36" class="edge">
<title>Node22&#45;&gt;Node23</title>
<path fill="none" stroke="midnightblue" d="M372.43,-246.4C358.15,-234.6 341.58,-220.91 329.22,-210.7"/>
<polygon fill="midnightblue" stroke="midnightblue" points="331.36,-207.93 321.42,-204.26 326.9,-213.33 331.36,-207.93"/>
</g>
<!-- Node24 -->
<g id="node25" class="node">
<title>Node24</title>
<g id="a_node25"><a xlink:href="ssize_8h.html" target="_top" xlink:title=" ">
<polygon fill="white" stroke="black" points="134.81,-185 134.81,-204 260.81,-204 260.81,-185 134.81,-185"/>
<text text-anchor="middle" x="197.81" y="-192" font-family="Helvetica,sans-Serif" font-size="10.00">drake/common/ssize.h</text>
</a>
</g>
</g>
<!-- Node22&#45;&gt;Node24 -->
<g id="edge42" class="edge">
<title>Node22&#45;&gt;Node24</title>
<path fill="none" stroke="midnightblue" d="M335.12,-246.4C300.01,-233.39 258.72,-218.08 230.66,-207.68"/>
<polygon fill="midnightblue" stroke="midnightblue" points="231.54,-204.27 220.95,-204.08 229.11,-210.84 231.54,-204.27"/>
</g>
<!-- Node24&#45;&gt;Node2 -->
<g id="edge43" class="edge">
<title>Node24&#45;&gt;Node2</title>
<path fill="none" stroke="midnightblue" d="M180.68,-184.87C158.8,-173.84 120.72,-154.66 95.14,-141.77"/>
<polygon fill="midnightblue" stroke="midnightblue" points="96.52,-138.54 86.01,-137.17 93.37,-144.79 96.52,-138.54"/>
</g>
<!-- Node24&#45;&gt;Node9 -->
<g id="edge45" class="edge">
<title>Node24&#45;&gt;Node9</title>
<path fill="none" stroke="midnightblue" d="M213.8,-184.88C245.49,-168.17 318.88,-131.33 384.81,-112 465.82,-88.25 563.91,-76.13 619.87,-70.71"/>
<polygon fill="midnightblue" stroke="midnightblue" points="620.52,-74.17 630.15,-69.75 619.86,-67.2 620.52,-74.17"/>
</g>
<!-- Node24&#45;&gt;Node20 -->
<g id="edge44" class="edge">
<title>Node24&#45;&gt;Node20</title>
<path fill="none" stroke="midnightblue" d="M227.43,-184.87C267.98,-173.05 340.76,-151.83 384.54,-139.07"/>
<polygon fill="midnightblue" stroke="midnightblue" points="385.59,-142.41 394.21,-136.25 383.63,-135.69 385.59,-142.41"/>
</g>
<!-- Node25&#45;&gt;Node2 -->
<g id="edge47" class="edge">
<title>Node25&#45;&gt;Node2</title>
<path fill="none" stroke="midnightblue" d="M801.47,-265.07C599.8,-251.05 140.31,-218.31 125.81,-210 100.92,-195.74 84.33,-165.66 75.75,-146.31"/>
<polygon fill="midnightblue" stroke="midnightblue" points="78.98,-144.95 71.9,-137.06 72.51,-147.64 78.98,-144.95"/>
</g>
<!-- Node25&#45;&gt;Node3 -->
<g id="edge48" class="edge">
<title>Node25&#45;&gt;Node3</title>
<path fill="none" stroke="midnightblue" d="M918.06,-257.32C933.73,-246.43 953.39,-229.9 963.81,-210 973.04,-192.39 975.18,-169.78 975.22,-152.85"/>
<polygon fill="midnightblue" stroke="midnightblue" points="978.71,-152.57 974.99,-142.64 971.71,-152.72 978.71,-152.57"/>
</g>
<!-- Node26 -->
<g id="node27" class="node">
<title>Node26</title>
<g id="a_node27"><a xlink:href="drake__throw_8h.html" target="_top" xlink:title="Provides a convenient wrapper to throw an exception when a condition is unmet.">
<polygon fill="white" stroke="black" points="802.31,-179.5 802.31,-209.5 921.31,-209.5 921.31,-179.5 802.31,-179.5"/>
<text text-anchor="start" x="810.31" y="-197.5" font-family="Helvetica,sans-Serif" font-size="10.00">drake/common/drake</text>
<text text-anchor="middle" x="861.81" y="-186.5" font-family="Helvetica,sans-Serif" font-size="10.00">_throw.h</text>
</a>
</g>
</g>
<!-- Node25&#45;&gt;Node26 -->
<g id="edge49" class="edge">
<title>Node25&#45;&gt;Node26</title>
<path fill="none" stroke="midnightblue" d="M888.61,-257.2C883.95,-246.48 877.48,-231.57 872.06,-219.09"/>
<polygon fill="midnightblue" stroke="midnightblue" points="875.19,-217.51 867.99,-209.73 868.76,-220.3 875.19,-217.51"/>
</g>
<!-- Node26&#45;&gt;Node8 -->
<g id="edge51" class="edge">
<title>Node26&#45;&gt;Node8</title>
<path fill="none" stroke="midnightblue" d="M847.93,-179.4C839.46,-170.79 828.46,-159.63 818.93,-149.94"/>
<polygon fill="midnightblue" stroke="midnightblue" points="821.18,-147.25 811.67,-142.58 816.2,-152.16 821.18,-147.25"/>
</g>
<!-- Node26&#45;&gt;Node9 -->
<g id="edge50" class="edge">
<title>Node26&#45;&gt;Node9</title>
<path fill="none" stroke="midnightblue" d="M867.89,-179.39C874.48,-161.63 882.15,-131.13 866.81,-112 847.53,-87.95 763.37,-75.93 709.95,-70.61"/>
<polygon fill="midnightblue" stroke="midnightblue" points="709.99,-67.1 699.71,-69.63 709.33,-74.07 709.99,-67.1"/>
</g>
</g>
</svg>
