<?xml version="1.0" encoding="UTF-8" standalone="no"?>
<!DOCTYPE svg PUBLIC "-//W3C//DTD SVG 1.1//EN"
 "http://www.w3.org/Graphics/SVG/1.1/DTD/svg11.dtd">
<!-- Generated by graphviz version 2.43.0 (0)
 -->
<!-- Title: drake/multibody/contact_solvers/schur_complement.h Pages: 1 -->
<!--zoomable 452 -->
<svg id="main" version="1.1" xmlns="http://www.w3.org/2000/svg" xmlns:xlink="http://www.w3.org/1999/xlink" xml:space="preserve" onload="init(evt)">
<style type="text/css"><![CDATA[
.edge:hover path { stroke: red; }
.edge:hover polygon { stroke: red; fill: red; }
]]></style>
<script type="text/javascript"><![CDATA[
var edges = document.getElementsByTagName('g');
if (edges && edges.length) {
  for (var i=0;i<edges.length;i++) {
    if (edges[i].id.substr(0,4)=='edge') {
      edges[i].setAttribute('class','edge');
    }
  }
}
]]></script>
        <defs>
                <circle id="rim" cx="0" cy="0" r="7"/>
                <circle id="rim2" cx="0" cy="0" r="3.5"/>
                <g id="zoomPlus">
                        <use xlink:href="#rim" fill="#404040">
                                <set attributeName="fill" to="#808080" begin="zoomplus.mouseover" end="zoomplus.mouseout"/>
                        </use>
                        <path d="M-4,0h8M0,-4v8" fill="none" stroke="white" stroke-width="1.5" pointer-events="none"/>
                </g>
                <g id="zoomMin">
                        <use xlink:href="#rim" fill="#404040">
                                <set attributeName="fill" to="#808080" begin="zoomminus.mouseover" end="zoomminus.mouseout"/>
                        </use>
                        <path d="M-4,0h8" fill="none" stroke="white" stroke-width="1.5" pointer-events="none"/>
                </g>
                <g id="dirArrow">
                        <path fill="none" stroke="white" stroke-width="1.5" d="M0,-3.0v7 M-2.5,-0.5L0,-3.0L2.5,-0.5"/>
                </g>
               <g id="resetDef">
                       <use xlink:href="#rim2" fill="#404040">
                               <set attributeName="fill" to="#808080" begin="reset.mouseover" end="reset.mouseout"/>
                       </use>
               </g>
        </defs>

<script type="text/javascript">
var viewWidth = 1240;
var viewHeight = 452;
var sectionId = 'dynsection-0';
</script>
<script xlink:href="svgpan.js"/>
<svg id="graph" class="graph">
<g id="viewport">
<title>drake/multibody/contact_solvers/schur_complement.h</title>
<polygon fill="white" stroke="transparent" points="-4,4 -4,-448 1236,-448 1236,4 -4,4"/>
<!-- Node0 -->
<g id="node1" class="node">
<title>Node0</title>
<g id="a_node1"><a xlink:title=" ">
<polygon fill="#bfbfbf" stroke="black" points="170.5,-413.5 170.5,-443.5 332.5,-443.5 332.5,-413.5 170.5,-413.5"/>
<text text-anchor="start" x="178.5" y="-431.5" font-family="Helvetica,sans-Serif" font-size="10.00">drake/multibody/contact</text>
<text text-anchor="middle" x="251.5" y="-420.5" font-family="Helvetica,sans-Serif" font-size="10.00">_solvers/schur_complement.h</text>
</a>
</g>
</g>
<!-- Node1 -->
<g id="node2" class="node">
<title>Node1</title>
<g id="a_node2"><a xlink:title=" ">
<polygon fill="white" stroke="#bfbfbf" points="157.5,-263 157.5,-282 243.5,-282 243.5,-263 157.5,-263"/>
<text text-anchor="middle" x="200.5" y="-270" font-family="Helvetica,sans-Serif" font-size="10.00">unordered_set</text>
</a>
</g>
</g>
<!-- Node0&#45;&gt;Node1 -->
<g id="edge1" class="edge">
<title>Node0&#45;&gt;Node1</title>
<path fill="none" stroke="midnightblue" d="M246.79,-413.29C237.48,-385.18 216.74,-322.53 206.48,-291.55"/>
<polygon fill="midnightblue" stroke="midnightblue" points="209.79,-290.42 203.32,-282.03 203.15,-292.62 209.79,-290.42"/>
</g>
<!-- Node2 -->
<g id="node3" class="node">
<title>Node2</title>
<g id="a_node3"><a xlink:title=" ">
<polygon fill="white" stroke="#bfbfbf" points="310,-185 310,-204 357,-204 357,-185 310,-185"/>
<text text-anchor="middle" x="333.5" y="-192" font-family="Helvetica,sans-Serif" font-size="10.00">vector</text>
</a>
</g>
</g>
<!-- Node0&#45;&gt;Node2 -->
<g id="edge2" class="edge">
<title>Node0&#45;&gt;Node2</title>
<path fill="none" stroke="midnightblue" d="M232.25,-413.27C191.69,-381.58 104.63,-303.45 148.5,-246 166.76,-222.09 251.45,-206.77 299.67,-199.83"/>
<polygon fill="midnightblue" stroke="midnightblue" points="300.23,-203.28 309.65,-198.44 299.26,-196.35 300.23,-203.28"/>
</g>
<!-- Node3 -->
<g id="node4" class="node">
<title>Node3</title>
<g id="a_node4"><a xlink:href="drake__copyable_8h.html" target="_top" xlink:title="Provides careful macros to selectively enable or disable the special member functions for copy&#45;constr...">
<polygon fill="white" stroke="black" points="0,-112.5 0,-142.5 119,-142.5 119,-112.5 0,-112.5"/>
<text text-anchor="start" x="8" y="-130.5" font-family="Helvetica,sans-Serif" font-size="10.00">drake/common/drake</text>
<text text-anchor="middle" x="59.5" y="-119.5" font-family="Helvetica,sans-Serif" font-size="10.00">_copyable.h</text>
</a>
</g>
</g>
<!-- Node0&#45;&gt;Node3 -->
<g id="edge3" class="edge">
<title>Node0&#45;&gt;Node3</title>
<path fill="none" stroke="midnightblue" d="M209.35,-413.46C190.44,-405.35 169.15,-393.44 154.5,-377 94.63,-309.82 70.86,-200.97 62.93,-152.78"/>
<polygon fill="midnightblue" stroke="midnightblue" points="66.35,-152.01 61.35,-142.67 59.43,-153.09 66.35,-152.01"/>
</g>
<!-- Node4 -->
<g id="node5" class="node">
<title>Node4</title>
<g id="a_node5"><a xlink:href="eigen__types_8h.html" target="_top" xlink:title="This file contains abbreviated definitions for certain specializations of Eigen::Matrix that are comm...">
<polygon fill="white" stroke="black" points="452,-179.5 452,-209.5 571,-209.5 571,-179.5 452,-179.5"/>
<text text-anchor="start" x="460" y="-197.5" font-family="Helvetica,sans-Serif" font-size="10.00">drake/common/eigen</text>
<text text-anchor="middle" x="511.5" y="-186.5" font-family="Helvetica,sans-Serif" font-size="10.00">_types.h</text>
</a>
</g>
</g>
<!-- Node0&#45;&gt;Node4 -->
<g id="edge4" class="edge">
<title>Node0&#45;&gt;Node4</title>
<path fill="none" stroke="midnightblue" d="M256.62,-413.43C269.62,-379.61 307.17,-293.06 366.5,-246 388.26,-228.74 416.32,-217.16 441.96,-209.51"/>
<polygon fill="midnightblue" stroke="midnightblue" points="442.98,-212.85 451.65,-206.76 441.07,-206.12 442.98,-212.85"/>
</g>
<!-- Node18 -->
<g id="node19" class="node">
<title>Node18</title>
<g id="a_node19"><a xlink:href="block__sparse__cholesky__solver_8h.html" target="_top" xlink:title=" ">
<polygon fill="white" stroke="black" points="522,-335.5 522,-376.5 657,-376.5 657,-335.5 522,-335.5"/>
<text text-anchor="start" x="530" y="-364.5" font-family="Helvetica,sans-Serif" font-size="10.00">drake/multibody/contact</text>
<text text-anchor="start" x="530" y="-353.5" font-family="Helvetica,sans-Serif" font-size="10.00">_solvers/block_sparse</text>
<text text-anchor="middle" x="589.5" y="-342.5" font-family="Helvetica,sans-Serif" font-size="10.00">_cholesky_solver.h</text>
</a>
</g>
</g>
<!-- Node0&#45;&gt;Node18 -->
<g id="edge24" class="edge">
<title>Node0&#45;&gt;Node18</title>
<path fill="none" stroke="midnightblue" d="M318.68,-413.49C374.37,-401.87 453.58,-385.35 511.95,-373.17"/>
<polygon fill="midnightblue" stroke="midnightblue" points="512.79,-376.58 521.87,-371.11 511.36,-369.72 512.79,-376.58"/>
</g>
<!-- Node24 -->
<g id="node25" class="node">
<title>Node24</title>
<g id="a_node25"><a xlink:href="block__sparse__lower__triangular__or__symmetric__matrix_8h.html" target="_top" xlink:title=" ">
<polygon fill="white" stroke="black" points="759.5,-246.5 759.5,-298.5 933.5,-298.5 933.5,-246.5 759.5,-246.5"/>
<text text-anchor="start" x="767.5" y="-286.5" font-family="Helvetica,sans-Serif" font-size="10.00">drake/multibody/contact</text>
<text text-anchor="start" x="767.5" y="-275.5" font-family="Helvetica,sans-Serif" font-size="10.00">_solvers/block_sparse</text>
<text text-anchor="start" x="767.5" y="-264.5" font-family="Helvetica,sans-Serif" font-size="10.00">_lower_triangular_or_symmetric</text>
<text text-anchor="middle" x="846.5" y="-253.5" font-family="Helvetica,sans-Serif" font-size="10.00">_matrix.h</text>
</a>
</g>
</g>
<!-- Node0&#45;&gt;Node24 -->
<g id="edge56" class="edge">
<title>Node0&#45;&gt;Node24</title>
<path fill="none" stroke="midnightblue" d="M332.54,-427.03C417.53,-424.39 554,-414 665.5,-377 716.18,-360.18 768.54,-328.39 803.83,-304.45"/>
<polygon fill="midnightblue" stroke="midnightblue" points="806.16,-307.1 812.42,-298.55 802.2,-301.33 806.16,-307.1"/>
</g>
<!-- Node4&#45;&gt;Node3 -->
<g id="edge14" class="edge">
<title>Node4&#45;&gt;Node3</title>
<path fill="none" stroke="midnightblue" d="M451.8,-181.39C446.97,-180.53 442.16,-179.73 437.5,-179 303.66,-158.15 266.12,-165.14 129.18,-143.18"/>
<polygon fill="midnightblue" stroke="midnightblue" points="129.58,-139.7 119.14,-141.55 128.45,-146.61 129.58,-139.7"/>
</g>
<!-- Node5 -->
<g id="node6" class="node">
<title>Node5</title>
<g id="a_node6"><a xlink:title=" ">
<polygon fill="white" stroke="#bfbfbf" points="845,-56.5 845,-75.5 890,-75.5 890,-56.5 845,-56.5"/>
<text text-anchor="middle" x="867.5" y="-63.5" font-family="Helvetica,sans-Serif" font-size="10.00">utility</text>
</a>
</g>
</g>
<!-- Node4&#45;&gt;Node5 -->
<g id="edge5" class="edge">
<title>Node4&#45;&gt;Node5</title>
<path fill="none" stroke="midnightblue" d="M571.32,-183.45C608.45,-175.7 656.36,-162.87 695.5,-143 715.24,-132.98 715.06,-122.59 734.5,-112 766.77,-94.42 807.15,-81.94 834.9,-74.65"/>
<polygon fill="midnightblue" stroke="midnightblue" points="836.05,-77.97 844.88,-72.11 834.32,-71.19 836.05,-77.97"/>
</g>
<!-- Node6 -->
<g id="node7" class="node">
<title>Node6</title>
<g id="a_node7"><a xlink:title=" ">
<polygon fill="white" stroke="#bfbfbf" points="306,-118 306,-137 383,-137 383,-118 306,-118"/>
<text text-anchor="middle" x="344.5" y="-125" font-family="Helvetica,sans-Serif" font-size="10.00">Eigen/Dense</text>
</a>
</g>
</g>
<!-- Node4&#45;&gt;Node6 -->
<g id="edge6" class="edge">
<title>Node4&#45;&gt;Node6</title>
<path fill="none" stroke="midnightblue" d="M475.26,-179.4C445.57,-167.84 403.99,-151.66 375.75,-140.66"/>
<polygon fill="midnightblue" stroke="midnightblue" points="376.94,-137.37 366.36,-137.01 374.41,-143.9 376.94,-137.37"/>
</g>
<!-- Node7 -->
<g id="node8" class="node">
<title>Node7</title>
<g id="a_node8"><a xlink:href="constants_8h.html" target="_top" xlink:title=" ">
<polygon fill="white" stroke="black" points="401,-118 401,-137 550,-137 550,-118 401,-118"/>
<text text-anchor="middle" x="475.5" y="-125" font-family="Helvetica,sans-Serif" font-size="10.00">drake/common/constants.h</text>
</a>
</g>
</g>
<!-- Node4&#45;&gt;Node7 -->
<g id="edge7" class="edge">
<title>Node4&#45;&gt;Node7</title>
<path fill="none" stroke="midnightblue" d="M503.69,-179.4C498.3,-169.66 491.09,-156.65 485.31,-146.21"/>
<polygon fill="midnightblue" stroke="midnightblue" points="488.22,-144.25 480.32,-137.19 482.1,-147.64 488.22,-144.25"/>
</g>
<!-- Node8 -->
<g id="node9" class="node">
<title>Node8</title>
<g id="a_node9"><a xlink:href="drake__assert_8h.html" target="_top" xlink:title="Provides Drake&#39;s assertion mechanics.">
<polygon fill="white" stroke="black" points="568,-112.5 568,-142.5 687,-142.5 687,-112.5 568,-112.5"/>
<text text-anchor="start" x="576" y="-130.5" font-family="Helvetica,sans-Serif" font-size="10.00">drake/common/drake</text>
<text text-anchor="middle" x="627.5" y="-119.5" font-family="Helvetica,sans-Serif" font-size="10.00">_assert.h</text>
</a>
</g>
</g>
<!-- Node4&#45;&gt;Node8 -->
<g id="edge8" class="edge">
<title>Node4&#45;&gt;Node8</title>
<path fill="none" stroke="midnightblue" d="M536.67,-179.4C553.24,-170.11 575.14,-157.84 593.28,-147.67"/>
<polygon fill="midnightblue" stroke="midnightblue" points="595.37,-150.52 602.38,-142.58 591.94,-144.41 595.37,-150.52"/>
</g>
<!-- Node13 -->
<g id="node14" class="node">
<title>Node13</title>
<g id="a_node14"><a xlink:href="fmt__eigen_8h.html" target="_top" xlink:title=" ">
<polygon fill="white" stroke="black" points="137,-118 137,-137 288,-137 288,-118 137,-118"/>
<text text-anchor="middle" x="212.5" y="-125" font-family="Helvetica,sans-Serif" font-size="10.00">drake/common/fmt_eigen.h</text>
</a>
</g>
</g>
<!-- Node4&#45;&gt;Node13 -->
<g id="edge15" class="edge">
<title>Node4&#45;&gt;Node13</title>
<path fill="none" stroke="midnightblue" d="M451.71,-180.5C395.95,-168.38 313.77,-150.52 261.71,-139.2"/>
<polygon fill="midnightblue" stroke="midnightblue" points="262.23,-135.73 251.71,-137.02 260.74,-142.57 262.23,-135.73"/>
</g>
<!-- Node8&#45;&gt;Node5 -->
<g id="edge13" class="edge">
<title>Node8&#45;&gt;Node5</title>
<path fill="none" stroke="midnightblue" d="M684.07,-112.47C730.94,-100.86 795.93,-84.74 834.64,-75.15"/>
<polygon fill="midnightblue" stroke="midnightblue" points="835.97,-78.42 844.83,-72.62 834.28,-71.63 835.97,-78.42"/>
</g>
<!-- Node9 -->
<g id="node10" class="node">
<title>Node9</title>
<g id="a_node10"><a xlink:title=" ">
<polygon fill="white" stroke="#bfbfbf" points="692.5,-56.5 692.5,-75.5 734.5,-75.5 734.5,-56.5 692.5,-56.5"/>
<text text-anchor="middle" x="713.5" y="-63.5" font-family="Helvetica,sans-Serif" font-size="10.00">array</text>
</a>
</g>
</g>
<!-- Node8&#45;&gt;Node9 -->
<g id="edge9" class="edge">
<title>Node8&#45;&gt;Node9</title>
<path fill="none" stroke="midnightblue" d="M647.88,-112.4C661.41,-103.04 679.11,-90.79 692.72,-81.38"/>
<polygon fill="midnightblue" stroke="midnightblue" points="694.75,-84.23 700.99,-75.66 690.77,-78.47 694.75,-84.23"/>
</g>
<!-- Node10 -->
<g id="node11" class="node">
<title>Node10</title>
<g id="a_node11"><a xlink:title=" ">
<polygon fill="white" stroke="#bfbfbf" points="445.5,-0.5 445.5,-19.5 489.5,-19.5 489.5,-0.5 445.5,-0.5"/>
<text text-anchor="middle" x="467.5" y="-7.5" font-family="Helvetica,sans-Serif" font-size="10.00">string</text>
</a>
</g>
</g>
<!-- Node8&#45;&gt;Node10 -->
<g id="edge10" class="edge">
<title>Node8&#45;&gt;Node10</title>
<path fill="none" stroke="midnightblue" d="M572.71,-112.42C538.53,-102.61 498.76,-89.01 486.5,-76 474.79,-63.58 470.26,-44.34 468.52,-30.01"/>
<polygon fill="midnightblue" stroke="midnightblue" points="471.98,-29.46 467.64,-19.8 465.01,-30.06 471.98,-29.46"/>
</g>
<!-- Node11 -->
<g id="node12" class="node">
<title>Node11</title>
<g id="a_node12"><a xlink:title=" ">
<polygon fill="white" stroke="#bfbfbf" points="496,-56.5 496,-75.5 537,-75.5 537,-56.5 496,-56.5"/>
<text text-anchor="middle" x="516.5" y="-63.5" font-family="Helvetica,sans-Serif" font-size="10.00">tuple</text>
</a>
</g>
</g>
<!-- Node8&#45;&gt;Node11 -->
<g id="edge11" class="edge">
<title>Node8&#45;&gt;Node11</title>
<path fill="none" stroke="midnightblue" d="M601.19,-112.4C583.24,-102.77 559.58,-90.09 541.83,-80.58"/>
<polygon fill="midnightblue" stroke="midnightblue" points="543.12,-77.3 532.65,-75.66 539.81,-83.47 543.12,-77.3"/>
</g>
<!-- Node12 -->
<g id="node13" class="node">
<title>Node12</title>
<g id="a_node13"><a xlink:title=" ">
<polygon fill="white" stroke="#bfbfbf" points="860,-0.5 860,-19.5 929,-19.5 929,-0.5 860,-0.5"/>
<text text-anchor="middle" x="894.5" y="-7.5" font-family="Helvetica,sans-Serif" font-size="10.00">type_traits</text>
</a>
</g>
</g>
<!-- Node8&#45;&gt;Node12 -->
<g id="edge12" class="edge">
<title>Node8&#45;&gt;Node12</title>
<path fill="none" stroke="midnightblue" d="M659.97,-112.45C712.48,-89.74 815.2,-45.3 865.44,-23.57"/>
<polygon fill="midnightblue" stroke="midnightblue" points="866.96,-26.72 874.75,-19.54 864.19,-20.3 866.96,-26.72"/>
</g>
<!-- Node13&#45;&gt;Node10 -->
<g id="edge16" class="edge">
<title>Node13&#45;&gt;Node10</title>
<path fill="none" stroke="midnightblue" d="M231.67,-117.82C276.17,-97.66 386.7,-47.6 439.09,-23.87"/>
<polygon fill="midnightblue" stroke="midnightblue" points="440.79,-26.94 448.46,-19.62 437.91,-20.56 440.79,-26.94"/>
</g>
<!-- Node14 -->
<g id="node15" class="node">
<title>Node14</title>
<g id="a_node15"><a xlink:title=" ">
<polygon fill="white" stroke="#bfbfbf" points="292,-0.5 292,-19.5 365,-19.5 365,-0.5 292,-0.5"/>
<text text-anchor="middle" x="328.5" y="-7.5" font-family="Helvetica,sans-Serif" font-size="10.00">string_view</text>
</a>
</g>
</g>
<!-- Node13&#45;&gt;Node14 -->
<g id="edge17" class="edge">
<title>Node13&#45;&gt;Node14</title>
<path fill="none" stroke="midnightblue" d="M212.58,-117.61C213.16,-103.08 216.31,-74.04 231.5,-56 244.68,-40.35 264.48,-29.84 282.77,-22.94"/>
<polygon fill="midnightblue" stroke="midnightblue" points="284.15,-26.16 292.43,-19.56 281.84,-19.55 284.15,-26.16"/>
</g>
<!-- Node15 -->
<g id="node16" class="node">
<title>Node15</title>
<g id="a_node16"><a xlink:title=" ">
<polygon fill="white" stroke="#bfbfbf" points="241,-56.5 241,-75.5 310,-75.5 310,-56.5 241,-56.5"/>
<text text-anchor="middle" x="275.5" y="-63.5" font-family="Helvetica,sans-Serif" font-size="10.00">Eigen/Core</text>
</a>
</g>
</g>
<!-- Node13&#45;&gt;Node15 -->
<g id="edge18" class="edge">
<title>Node13&#45;&gt;Node15</title>
<path fill="none" stroke="midnightblue" d="M221.53,-117.98C231.26,-108.78 246.96,-93.96 258.92,-82.66"/>
<polygon fill="midnightblue" stroke="midnightblue" points="261.62,-84.92 266.49,-75.51 256.82,-79.83 261.62,-84.92"/>
</g>
<!-- Node16 -->
<g id="node17" class="node">
<title>Node16</title>
<g id="a_node17"><a xlink:href="fmt_8h.html" target="_top" xlink:title=" ">
<polygon fill="white" stroke="black" points="555,-56.5 555,-75.5 674,-75.5 674,-56.5 555,-56.5"/>
<text text-anchor="middle" x="614.5" y="-63.5" font-family="Helvetica,sans-Serif" font-size="10.00">drake/common/fmt.h</text>
</a>
</g>
</g>
<!-- Node13&#45;&gt;Node16 -->
<g id="edge19" class="edge">
<title>Node13&#45;&gt;Node16</title>
<path fill="none" stroke="midnightblue" d="M260.43,-117.97C272.22,-115.94 284.8,-113.84 296.5,-112 381.86,-98.6 480.4,-84.93 544.88,-76.23"/>
<polygon fill="midnightblue" stroke="midnightblue" points="545.49,-79.68 554.93,-74.88 544.55,-72.75 545.49,-79.68"/>
</g>
<!-- Node16&#45;&gt;Node10 -->
<g id="edge20" class="edge">
<title>Node16&#45;&gt;Node10</title>
<path fill="none" stroke="midnightblue" d="M591.21,-56.44C566.4,-47.33 526.99,-32.85 499.33,-22.69"/>
<polygon fill="midnightblue" stroke="midnightblue" points="500.31,-19.33 489.72,-19.16 497.9,-25.9 500.31,-19.33"/>
</g>
<!-- Node16&#45;&gt;Node12 -->
<g id="edge22" class="edge">
<title>Node16&#45;&gt;Node12</title>
<path fill="none" stroke="midnightblue" d="M658.87,-56.44C711.06,-46.38 797.21,-29.76 849.62,-19.66"/>
<polygon fill="midnightblue" stroke="midnightblue" points="850.47,-23.06 859.63,-17.73 849.15,-16.18 850.47,-23.06"/>
</g>
<!-- Node16&#45;&gt;Node14 -->
<g id="edge21" class="edge">
<title>Node16&#45;&gt;Node14</title>
<path fill="none" stroke="midnightblue" d="M569.18,-56.44C516.21,-46.44 428.98,-29.97 375.35,-19.85"/>
<polygon fill="midnightblue" stroke="midnightblue" points="375.9,-16.39 365.42,-17.97 374.6,-23.27 375.9,-16.39"/>
</g>
<!-- Node17 -->
<g id="node18" class="node">
<title>Node17</title>
<g id="a_node18"><a xlink:title=" ">
<polygon fill="white" stroke="#bfbfbf" points="575,-0.5 575,-19.5 654,-19.5 654,-0.5 575,-0.5"/>
<text text-anchor="middle" x="614.5" y="-7.5" font-family="Helvetica,sans-Serif" font-size="10.00">fmt/format.h</text>
</a>
</g>
</g>
<!-- Node16&#45;&gt;Node17 -->
<g id="edge23" class="edge">
<title>Node16&#45;&gt;Node17</title>
<path fill="none" stroke="midnightblue" d="M614.5,-56.08C614.5,-49.01 614.5,-38.86 614.5,-29.99"/>
<polygon fill="midnightblue" stroke="midnightblue" points="618,-29.75 614.5,-19.75 611,-29.75 618,-29.75"/>
</g>
<!-- Node18&#45;&gt;Node1 -->
<g id="edge27" class="edge">
<title>Node18&#45;&gt;Node1</title>
<path fill="none" stroke="midnightblue" d="M521.77,-343.57C461.99,-333.13 372.61,-316.67 295.5,-299 277.3,-294.83 257.33,-289.57 240.41,-284.92"/>
<polygon fill="midnightblue" stroke="midnightblue" points="240.88,-281.42 230.31,-282.11 239.01,-288.16 240.88,-281.42"/>
</g>
<!-- Node18&#45;&gt;Node2 -->
<g id="edge28" class="edge">
<title>Node18&#45;&gt;Node2</title>
<path fill="none" stroke="midnightblue" d="M521.9,-345.39C464.8,-335.98 388.87,-320.01 366.5,-299 342.86,-276.8 336.09,-237.73 334.19,-214.46"/>
<polygon fill="midnightblue" stroke="midnightblue" points="337.67,-213.96 333.59,-204.19 330.68,-214.37 337.67,-213.96"/>
</g>
<!-- Node18&#45;&gt;Node3 -->
<g id="edge35" class="edge">
<title>Node18&#45;&gt;Node3</title>
<path fill="none" stroke="midnightblue" d="M521.81,-346.5C469.73,-338.44 396.72,-323.78 336.5,-299 295.68,-282.2 290.02,-269.26 252.5,-246 196.17,-211.08 130.12,-171.07 91.73,-147.9"/>
<polygon fill="midnightblue" stroke="midnightblue" points="93.42,-144.84 83.04,-142.67 89.8,-150.83 93.42,-144.84"/>
</g>
<!-- Node18&#45;&gt;Node4 -->
<g id="edge36" class="edge">
<title>Node18&#45;&gt;Node4</title>
<path fill="none" stroke="midnightblue" d="M589.97,-335.16C589.66,-312.22 586.47,-274.04 570.5,-246 563.76,-234.17 553.16,-223.81 542.78,-215.61"/>
<polygon fill="midnightblue" stroke="midnightblue" points="544.7,-212.67 534.59,-209.5 540.52,-218.29 544.7,-212.67"/>
</g>
<!-- Node19 -->
<g id="node20" class="node">
<title>Node19</title>
<g id="a_node20"><a xlink:title=" ">
<polygon fill="white" stroke="#bfbfbf" points="743.5,-118 743.5,-137 801.5,-137 801.5,-118 743.5,-118"/>
<text text-anchor="middle" x="772.5" y="-125" font-family="Helvetica,sans-Serif" font-size="10.00">memory</text>
</a>
</g>
</g>
<!-- Node18&#45;&gt;Node19 -->
<g id="edge25" class="edge">
<title>Node18&#45;&gt;Node19</title>
<path fill="none" stroke="midnightblue" d="M591.93,-335.46C597.31,-299.91 613.39,-224.18 656.5,-179 668.15,-166.79 707.59,-151.05 737.28,-140.41"/>
<polygon fill="midnightblue" stroke="midnightblue" points="738.65,-143.64 746.91,-137.01 736.32,-137.04 738.65,-143.64"/>
</g>
<!-- Node20 -->
<g id="node21" class="node">
<title>Node20</title>
<g id="a_node21"><a xlink:title=" ">
<polygon fill="white" stroke="#bfbfbf" points="821.5,-185 821.5,-204 877.5,-204 877.5,-185 821.5,-185"/>
<text text-anchor="middle" x="849.5" y="-192" font-family="Helvetica,sans-Serif" font-size="10.00">optional</text>
</a>
</g>
</g>
<!-- Node18&#45;&gt;Node20 -->
<g id="edge26" class="edge">
<title>Node18&#45;&gt;Node20</title>
<path fill="none" stroke="midnightblue" d="M628.15,-335.38C646.89,-325.31 669.42,-312.37 688.5,-299 718.19,-278.2 720.37,-266.15 750.5,-246 772.69,-231.16 799.81,-217.61 820.05,-208.29"/>
<polygon fill="midnightblue" stroke="midnightblue" points="821.72,-211.38 829.39,-204.07 818.83,-205 821.72,-211.38"/>
</g>
<!-- Node21 -->
<g id="node22" class="node">
<title>Node21</title>
<g id="a_node22"><a xlink:href="copyable__unique__ptr_8h.html" target="_top" xlink:title=" ">
<polygon fill="white" stroke="black" points="666,-179.5 666,-209.5 803,-209.5 803,-179.5 666,-179.5"/>
<text text-anchor="start" x="674" y="-197.5" font-family="Helvetica,sans-Serif" font-size="10.00">drake/common/copyable</text>
<text text-anchor="middle" x="734.5" y="-186.5" font-family="Helvetica,sans-Serif" font-size="10.00">_unique_ptr.h</text>
</a>
</g>
</g>
<!-- Node18&#45;&gt;Node21 -->
<g id="edge29" class="edge">
<title>Node18&#45;&gt;Node21</title>
<path fill="none" stroke="midnightblue" d="M613,-335.36C624.95,-324.98 639.46,-311.77 651.5,-299 676.36,-272.64 702.01,-239.59 718.09,-218.03"/>
<polygon fill="midnightblue" stroke="midnightblue" points="721.03,-219.94 724.17,-209.82 715.41,-215.77 721.03,-219.94"/>
</g>
<!-- Node23 -->
<g id="node24" class="node">
<title>Node23</title>
<g id="a_node24"><a xlink:href="reset__after__move_8h.html" target="_top" xlink:title=" ">
<polygon fill="white" stroke="black" points="1005,-112.5 1005,-142.5 1122,-142.5 1122,-112.5 1005,-112.5"/>
<text text-anchor="start" x="1013" y="-130.5" font-family="Helvetica,sans-Serif" font-size="10.00">drake/common/reset</text>
<text text-anchor="middle" x="1063.5" y="-119.5" font-family="Helvetica,sans-Serif" font-size="10.00">_after_move.h</text>
</a>
</g>
</g>
<!-- Node18&#45;&gt;Node23 -->
<g id="edge37" class="edge">
<title>Node18&#45;&gt;Node23</title>
<path fill="none" stroke="midnightblue" d="M657.24,-349.8C802.83,-337 1137.49,-298.39 1200.5,-210 1223.7,-177.46 1177.13,-155.7 1132.13,-142.91"/>
<polygon fill="midnightblue" stroke="midnightblue" points="1132.84,-139.47 1122.28,-140.24 1131.01,-146.23 1132.84,-139.47"/>
</g>
<!-- Node18&#45;&gt;Node24 -->
<g id="edge40" class="edge">
<title>Node18&#45;&gt;Node24</title>
<path fill="none" stroke="midnightblue" d="M651.06,-335.48C682.96,-325.36 722.49,-312.83 757.64,-301.68"/>
<polygon fill="midnightblue" stroke="midnightblue" points="758.95,-304.94 767.42,-298.58 756.83,-298.26 758.95,-304.94"/>
</g>
<!-- Node29 -->
<g id="node30" class="node">
<title>Node29</title>
<g id="a_node30"><a xlink:href="partial__permutation_8h.html" target="_top" xlink:title=" ">
<polygon fill="white" stroke="black" points="375.5,-257.5 375.5,-287.5 561.5,-287.5 561.5,-257.5 375.5,-257.5"/>
<text text-anchor="start" x="383.5" y="-275.5" font-family="Helvetica,sans-Serif" font-size="10.00">drake/multibody/contact</text>
<text text-anchor="middle" x="468.5" y="-264.5" font-family="Helvetica,sans-Serif" font-size="10.00">_solvers/sap/partial_permutation.h</text>
</a>
</g>
</g>
<!-- Node18&#45;&gt;Node29 -->
<g id="edge52" class="edge">
<title>Node18&#45;&gt;Node29</title>
<path fill="none" stroke="midnightblue" d="M560.52,-335.48C541.48,-322.66 516.67,-305.94 497.6,-293.1"/>
<polygon fill="midnightblue" stroke="midnightblue" points="499.54,-290.19 489.29,-287.5 495.63,-295.99 499.54,-290.19"/>
</g>
<!-- Node21&#45;&gt;Node5 -->
<g id="edge32" class="edge">
<title>Node21&#45;&gt;Node5</title>
<path fill="none" stroke="midnightblue" d="M771.78,-179.38C790.25,-170.97 811.88,-158.82 827.5,-143 843.83,-126.46 855.1,-101.89 861.42,-85.2"/>
<polygon fill="midnightblue" stroke="midnightblue" points="864.81,-86.12 864.86,-75.53 858.21,-83.78 864.81,-86.12"/>
</g>
<!-- Node21&#45;&gt;Node8 -->
<g id="edge33" class="edge">
<title>Node21&#45;&gt;Node8</title>
<path fill="none" stroke="midnightblue" d="M711.28,-179.4C696.14,-170.2 676.17,-158.07 659.53,-147.95"/>
<polygon fill="midnightblue" stroke="midnightblue" points="661.04,-144.78 650.67,-142.58 657.4,-150.76 661.04,-144.78"/>
</g>
<!-- Node21&#45;&gt;Node16 -->
<g id="edge34" class="edge">
<title>Node21&#45;&gt;Node16</title>
<path fill="none" stroke="midnightblue" d="M769.64,-179.45C785.11,-171.29 801.74,-159.34 810.5,-143 817.01,-130.86 819.08,-122.78 810.5,-112 802,-101.33 730.84,-86.92 676.69,-77.31"/>
<polygon fill="midnightblue" stroke="midnightblue" points="677.25,-73.85 666.79,-75.57 676.04,-80.75 677.25,-73.85"/>
</g>
<!-- Node21&#45;&gt;Node19 -->
<g id="edge31" class="edge">
<title>Node21&#45;&gt;Node19</title>
<path fill="none" stroke="midnightblue" d="M742.75,-179.4C748.49,-169.56 756.2,-156.38 762.33,-145.89"/>
<polygon fill="midnightblue" stroke="midnightblue" points="765.39,-147.59 767.42,-137.19 759.35,-144.06 765.39,-147.59"/>
</g>
<!-- Node22 -->
<g id="node23" class="node">
<title>Node22</title>
<g id="a_node23"><a xlink:title=" ">
<polygon fill="white" stroke="#bfbfbf" points="934,-118 934,-137 987,-137 987,-118 934,-118"/>
<text text-anchor="middle" x="960.5" y="-125" font-family="Helvetica,sans-Serif" font-size="10.00">cstddef</text>
</a>
</g>
</g>
<!-- Node21&#45;&gt;Node22 -->
<g id="edge30" class="edge">
<title>Node21&#45;&gt;Node22</title>
<path fill="none" stroke="midnightblue" d="M783.26,-179.48C825.55,-167.31 885.81,-149.98 924.03,-138.99"/>
<polygon fill="midnightblue" stroke="midnightblue" points="925.08,-142.33 933.72,-136.2 923.14,-135.6 925.08,-142.33"/>
</g>
<!-- Node23&#45;&gt;Node5 -->
<g id="edge39" class="edge">
<title>Node23&#45;&gt;Node5</title>
<path fill="none" stroke="midnightblue" d="M1017.05,-112.4C980.99,-101.45 931.92,-86.56 899.98,-76.86"/>
<polygon fill="midnightblue" stroke="midnightblue" points="900.83,-73.46 890.25,-73.91 898.8,-80.16 900.83,-73.46"/>
</g>
<!-- Node23&#45;&gt;Node12 -->
<g id="edge38" class="edge">
<title>Node23&#45;&gt;Node12</title>
<path fill="none" stroke="midnightblue" d="M1042.78,-112.34C1010.39,-90.2 948.12,-47.64 915.54,-25.38"/>
<polygon fill="midnightblue" stroke="midnightblue" points="917.42,-22.42 907.19,-19.67 913.47,-28.2 917.42,-22.42"/>
</g>
<!-- Node24&#45;&gt;Node2 -->
<g id="edge45" class="edge">
<title>Node24&#45;&gt;Node2</title>
<path fill="none" stroke="midnightblue" d="M759.25,-260.49C670.91,-249.05 530.44,-230.03 409.5,-210 395.59,-207.7 380.32,-204.84 367.13,-202.28"/>
<polygon fill="midnightblue" stroke="midnightblue" points="367.56,-198.8 357.07,-200.3 366.21,-205.67 367.56,-198.8"/>
</g>
<!-- Node24&#45;&gt;Node3 -->
<g id="edge46" class="edge">
<title>Node24&#45;&gt;Node3</title>
<path fill="none" stroke="midnightblue" d="M759.25,-263.06C658.16,-252.44 498.33,-232.81 442.5,-210 420.69,-201.09 421.4,-187.7 399.5,-179 289.16,-135.17 249.75,-162.21 129.13,-143.15"/>
<polygon fill="midnightblue" stroke="midnightblue" points="129.59,-139.68 119.15,-141.5 128.45,-146.58 129.59,-139.68"/>
</g>
<!-- Node24&#45;&gt;Node4 -->
<g id="edge47" class="edge">
<title>Node24&#45;&gt;Node4</title>
<path fill="none" stroke="midnightblue" d="M759.36,-251.73C703.72,-239.11 632.57,-222.97 580.79,-211.22"/>
<polygon fill="midnightblue" stroke="midnightblue" points="581.56,-207.8 571.03,-209.01 580.01,-214.63 581.56,-207.8"/>
</g>
<!-- Node24&#45;&gt;Node5 -->
<g id="edge44" class="edge">
<title>Node24&#45;&gt;Node5</title>
<path fill="none" stroke="midnightblue" d="M867.65,-246.23C875.14,-235.71 882.66,-222.94 886.5,-210 899.45,-166.33 884.41,-112.54 874.62,-85.05"/>
<polygon fill="midnightblue" stroke="midnightblue" points="877.85,-83.71 871.07,-75.57 871.3,-86.17 877.85,-83.71"/>
</g>
<!-- Node24&#45;&gt;Node20 -->
<g id="edge42" class="edge">
<title>Node24&#45;&gt;Node20</title>
<path fill="none" stroke="midnightblue" d="M847.5,-246.19C847.91,-235.76 848.38,-223.9 848.76,-214.27"/>
<polygon fill="midnightblue" stroke="midnightblue" points="852.26,-214.34 849.16,-204.21 845.26,-214.06 852.26,-214.34"/>
</g>
<!-- Node25 -->
<g id="node26" class="node">
<title>Node25</title>
<g id="a_node26"><a xlink:title=" ">
<polygon fill="white" stroke="#bfbfbf" points="1077.5,-185 1077.5,-204 1141.5,-204 1141.5,-185 1077.5,-185"/>
<text text-anchor="middle" x="1109.5" y="-192" font-family="Helvetica,sans-Serif" font-size="10.00">algorithm</text>
</a>
</g>
</g>
<!-- Node24&#45;&gt;Node25 -->
<g id="edge41" class="edge">
<title>Node24&#45;&gt;Node25</title>
<path fill="none" stroke="midnightblue" d="M933.63,-248.87C974.73,-237.81 1024.35,-223.91 1068.5,-210 1071.11,-209.18 1073.8,-208.3 1076.5,-207.39"/>
<polygon fill="midnightblue" stroke="midnightblue" points="1077.86,-210.63 1086.18,-204.06 1075.58,-204.01 1077.86,-210.63"/>
</g>
<!-- Node26 -->
<g id="node27" class="node">
<title>Node26</title>
<g id="a_node27"><a xlink:title=" ">
<polygon fill="white" stroke="#bfbfbf" points="1159.5,-185 1159.5,-204 1191.5,-204 1191.5,-185 1159.5,-185"/>
<text text-anchor="middle" x="1175.5" y="-192" font-family="Helvetica,sans-Serif" font-size="10.00">set</text>
</a>
</g>
</g>
<!-- Node24&#45;&gt;Node26 -->
<g id="edge43" class="edge">
<title>Node24&#45;&gt;Node26</title>
<path fill="none" stroke="midnightblue" d="M933.77,-261.53C995.71,-252.63 1080.02,-236.74 1150.5,-210 1151.53,-209.61 1152.57,-209.18 1153.61,-208.72"/>
<polygon fill="midnightblue" stroke="midnightblue" points="1155.4,-211.73 1162.67,-204.01 1152.18,-205.52 1155.4,-211.73"/>
</g>
<!-- Node27 -->
<g id="node28" class="node">
<title>Node27</title>
<g id="a_node28"><a xlink:href="ssize_8h.html" target="_top" xlink:title=" ">
<polygon fill="white" stroke="black" points="933.5,-185 933.5,-204 1059.5,-204 1059.5,-185 933.5,-185"/>
<text text-anchor="middle" x="996.5" y="-192" font-family="Helvetica,sans-Serif" font-size="10.00">drake/common/ssize.h</text>
</a>
</g>
</g>
<!-- Node24&#45;&gt;Node27 -->
<g id="edge48" class="edge">
<title>Node24&#45;&gt;Node27</title>
<path fill="none" stroke="midnightblue" d="M896.03,-246.4C920.93,-233.79 950.08,-219.02 970.55,-208.65"/>
<polygon fill="midnightblue" stroke="midnightblue" points="972.23,-211.72 979.57,-204.08 969.07,-205.48 972.23,-211.72"/>
</g>
<!-- Node27&#45;&gt;Node12 -->
<g id="edge51" class="edge">
<title>Node27&#45;&gt;Node12</title>
<path fill="none" stroke="midnightblue" d="M1041.95,-184.93C1090.4,-173.62 1156.93,-150.49 1131.5,-112 1088.79,-47.36 995.37,-23.96 939.42,-15.58"/>
<polygon fill="midnightblue" stroke="midnightblue" points="939.82,-12.1 929.43,-14.18 938.85,-19.03 939.82,-12.1"/>
</g>
<!-- Node27&#45;&gt;Node22 -->
<g id="edge50" class="edge">
<title>Node27&#45;&gt;Node22</title>
<path fill="none" stroke="midnightblue" d="M991.64,-184.73C986.19,-174.89 977.2,-158.66 970.28,-146.16"/>
<polygon fill="midnightblue" stroke="midnightblue" points="973.19,-144.18 965.28,-137.13 967.06,-147.57 973.19,-144.18"/>
</g>
<!-- Node28 -->
<g id="node29" class="node">
<title>Node28</title>
<g id="a_node29"><a xlink:title=" ">
<polygon fill="white" stroke="#bfbfbf" points="1179,-118 1179,-137 1232,-137 1232,-118 1179,-118"/>
<text text-anchor="middle" x="1205.5" y="-125" font-family="Helvetica,sans-Serif" font-size="10.00">iterator</text>
</a>
</g>
</g>
<!-- Node27&#45;&gt;Node28 -->
<g id="edge49" class="edge">
<title>Node27&#45;&gt;Node28</title>
<path fill="none" stroke="midnightblue" d="M1026.37,-184.99C1060.07,-175.28 1116.45,-158.71 1164.5,-143 1166.95,-142.2 1169.47,-141.35 1172.01,-140.49"/>
<polygon fill="midnightblue" stroke="midnightblue" points="1173.41,-143.71 1181.72,-137.13 1171.12,-137.09 1173.41,-143.71"/>
</g>
<!-- Node29&#45;&gt;Node2 -->
<g id="edge53" class="edge">
<title>Node29&#45;&gt;Node2</title>
<path fill="none" stroke="midnightblue" d="M443.42,-257.38C418.92,-243.59 381.87,-222.73 357.68,-209.11"/>
<polygon fill="midnightblue" stroke="midnightblue" points="359.22,-205.96 348.79,-204.11 355.78,-212.06 359.22,-205.96"/>
</g>
<!-- Node29&#45;&gt;Node3 -->
<g id="edge55" class="edge">
<title>Node29&#45;&gt;Node3</title>
<path fill="none" stroke="midnightblue" d="M454.88,-257.43C431.9,-234.01 385.93,-188.64 365.5,-179 271.68,-134.72 234.99,-160.49 129.27,-143.18"/>
<polygon fill="midnightblue" stroke="midnightblue" points="129.61,-139.69 119.16,-141.43 128.42,-146.59 129.61,-139.69"/>
</g>
<!-- Node29&#45;&gt;Node8 -->
<g id="edge54" class="edge">
<title>Node29&#45;&gt;Node8</title>
<path fill="none" stroke="midnightblue" d="M504.66,-257.41C528.05,-246.96 558.04,-230.91 579.5,-210 596.41,-193.53 609.47,-169.85 617.67,-152.26"/>
<polygon fill="midnightblue" stroke="midnightblue" points="621.05,-153.26 621.92,-142.7 614.66,-150.41 621.05,-153.26"/>
</g>
</g>
</svg>
        <g id="navigator" transform="translate(0 0)" fill="#404254">
                <rect fill="#f2f5e9" fill-opacity="0.5" stroke="#606060" stroke-width=".5" x="0" y="0" width="60" height="60"/>
                <use id="zoomplus" xlink:href="#zoomPlus" x="17" y="9" onmousedown="handleZoom(evt,'in')"/>
                <use id="zoomminus" xlink:href="#zoomMin" x="42" y="9" onmousedown="handleZoom(evt,'out')"/>
                <use id="reset" xlink:href="#resetDef" x="30" y="36" onmousedown="handleReset()"/>
                <g id="arrowUp" xlink:href="#dirArrow" transform="translate(30 24)" onmousedown="handlePan(0,-1)">
                  <use xlink:href="#rim" fill="#404040">
                        <set attributeName="fill" to="#808080" begin="arrowUp.mouseover" end="arrowUp.mouseout"/>
                  </use>
                  <path fill="none" stroke="white" stroke-width="1.5" d="M0,-3.0v7 M-2.5,-0.5L0,-3.0L2.5,-0.5"/>
                </g>
                <g id="arrowRight" xlink:href="#dirArrow" transform="rotate(90) translate(36 -43)" onmousedown="handlePan(1,0)">
                  <use xlink:href="#rim" fill="#404040">
                        <set attributeName="fill" to="#808080" begin="arrowRight.mouseover" end="arrowRight.mouseout"/>
                  </use>
                  <path fill="none" stroke="white" stroke-width="1.5" d="M0,-3.0v7 M-2.5,-0.5L0,-3.0L2.5,-0.5"/>
                </g>
                <g id="arrowDown" xlink:href="#dirArrow" transform="rotate(180) translate(-30 -48)" onmousedown="handlePan(0,1)">
                  <use xlink:href="#rim" fill="#404040">
                        <set attributeName="fill" to="#808080" begin="arrowDown.mouseover" end="arrowDown.mouseout"/>
                  </use>
                  <path fill="none" stroke="white" stroke-width="1.5" d="M0,-3.0v7 M-2.5,-0.5L0,-3.0L2.5,-0.5"/>
                </g>
                <g id="arrowLeft" xlink:href="#dirArrow" transform="rotate(270) translate(-36 17)" onmousedown="handlePan(-1,0)">
                  <use xlink:href="#rim" fill="#404040">
                        <set attributeName="fill" to="#808080" begin="arrowLeft.mouseover" end="arrowLeft.mouseout"/>
                  </use>
                  <path fill="none" stroke="white" stroke-width="1.5" d="M0,-3.0v7 M-2.5,-0.5L0,-3.0L2.5,-0.5"/>
                </g>
        </g>
        <svg viewBox="0 0 15 15" width="100%" height="30px" preserveAspectRatio="xMaxYMin meet">
         <g id="arrow_out" transform="scale(0.3 0.3)">
          <a xlink:href="contact__solvers_2schur__complement_8h__incl_org.svg" target="_base">
           <rect id="button" ry="5" rx="5" y="6" x="6" height="38" width="38"
                fill="#f2f5e9" fill-opacity="0.5" stroke="#606060" stroke-width="1.0"/>
           <path id="arrow"
             d="M 11.500037,31.436501 C 11.940474,20.09759 22.043105,11.32322 32.158766,21.979434 L 37.068811,17.246167 C 37.068811,17.246167 37.088388,32 37.088388,32 L 22.160133,31.978069 C 22.160133,31.978069 26.997745,27.140456 26.997745,27.140456 C 18.528582,18.264221 13.291696,25.230495 11.500037,31.436501 z"
             style="fill:#404040;"/>
          </a>
         </g>
        </svg>
</svg>
