<?xml version="1.0" encoding="UTF-8" standalone="no"?>
<!DOCTYPE svg PUBLIC "-//W3C//DTD SVG 1.1//EN"
 "http://www.w3.org/Graphics/SVG/1.1/DTD/svg11.dtd">
<!-- Generated by graphviz version 2.43.0 (0)
 -->
<!-- Title: drake/math/convert_time_derivative.h Pages: 1 -->
<svg width="849pt" height="270pt"
 viewBox="0.00 0.00 848.59 270.15" xmlns="http://www.w3.org/2000/svg" xmlns:xlink="http://www.w3.org/1999/xlink">
<g id="graph0" class="graph" transform="scale(1 1) rotate(0) translate(4 266.15)">
<title>drake/math/convert_time_derivative.h</title>
<!-- Node1 -->
<g id="Node000001" class="node">
<title>Node1</title>
<g id="a_Node000001"><a xlink:title=" ">
<ellipse fill="#999999" stroke="#666666" cx="142.45" cy="-240.94" rx="79.39" ry="21.43"/>
<text text-anchor="start" x="94.45" y="-243.94" font-family="Helvetica,sans-Serif" font-size="10.00">drake/math/convert</text>
<text text-anchor="middle" x="142.45" y="-232.94" font-family="Helvetica,sans-Serif" font-size="10.00">_time_derivative.h</text>
</a>
</g>
</g>
<!-- Node2 -->
<g id="Node000002" class="node">
<title>Node2</title>
<g id="a_Node000002"><a xlink:title=" ">
<ellipse fill="#e0e0e0" stroke="#999999" cx="54.45" cy="-84.08" rx="54.39" ry="13.37"/>
<text text-anchor="middle" x="54.45" y="-81.58" font-family="Helvetica,sans-Serif" font-size="10.00">Eigen/Dense</text>
</a>
</g>
</g>
<!-- Node1&#45;&gt;Node2 -->
<g id="edge1_Node000001_Node000002" class="edge">
<title>Node1&#45;&gt;Node2</title>
<g id="a_edge1_Node000001_Node000002"><a xlink:title=" ">
<path fill="none" stroke="#63b8ff" d="M130.94,-219.69C114.3,-190.4 83.63,-136.43 66.61,-106.49"/>
<polygon fill="#63b8ff" stroke="#63b8ff" points="69.59,-104.65 61.61,-97.68 63.5,-108.11 69.59,-104.65"/>
</a>
</g>
</g>
<!-- Node3 -->
<g id="Node000003" class="node">
<title>Node3</title>
<g id="a_Node000003"><a xlink:href="eigen__types_8h.html" target="_top" xlink:title="This file contains abbreviated definitions for certain specializations of Eigen::Matrix that are comm...">
<ellipse fill="white" stroke="#666666" cx="229.45" cy="-162.51" rx="84.29" ry="21.43"/>
<text text-anchor="start" x="177.95" y="-165.51" font-family="Helvetica,sans-Serif" font-size="10.00">drake/common/eigen</text>
<text text-anchor="middle" x="229.45" y="-154.51" font-family="Helvetica,sans-Serif" font-size="10.00">_types.h</text>
</a>
</g>
</g>
<!-- Node1&#45;&gt;Node3 -->
<g id="edge2_Node000001_Node000003" class="edge">
<title>Node1&#45;&gt;Node3</title>
<g id="a_edge2_Node000001_Node000003"><a xlink:title=" ">
<path fill="none" stroke="#63b8ff" d="M164.85,-220.25C175.41,-210.98 188.15,-199.79 199.51,-189.81"/>
<polygon fill="#63b8ff" stroke="#63b8ff" points="201.92,-192.35 207.12,-183.12 197.3,-187.09 201.92,-192.35"/>
</a>
</g>
</g>
<!-- Node3&#45;&gt;Node2 -->
<g id="edge5_Node000003_Node000002" class="edge">
<title>Node3&#45;&gt;Node2</title>
<g id="a_edge5_Node000003_Node000002"><a xlink:title=" ">
<path fill="none" stroke="#63b8ff" d="M188.86,-143.78C158.56,-130.55 117.61,-112.67 88.89,-100.13"/>
<polygon fill="#63b8ff" stroke="#63b8ff" points="90.23,-96.89 79.66,-96.09 87.42,-103.3 90.23,-96.89"/>
</a>
</g>
</g>
<!-- Node4 -->
<g id="Node000004" class="node">
<title>Node4</title>
<g id="a_Node000004"><a xlink:title=" ">
<ellipse fill="#e0e0e0" stroke="#999999" cx="164.45" cy="-84.08" rx="37.45" ry="13.37"/>
<text text-anchor="middle" x="164.45" y="-81.58" font-family="Helvetica,sans-Serif" font-size="10.00">iterator</text>
</a>
</g>
</g>
<!-- Node3&#45;&gt;Node4 -->
<g id="edge3_Node000003_Node000004" class="edge">
<title>Node3&#45;&gt;Node4</title>
<g id="a_edge3_Node000003_Node000004"><a xlink:title=" ">
<path fill="none" stroke="#63b8ff" d="M212.37,-141.43C202.9,-130.29 191.15,-116.48 181.66,-105.32"/>
<polygon fill="#63b8ff" stroke="#63b8ff" points="184.06,-102.74 174.91,-97.39 178.73,-107.27 184.06,-102.74"/>
</a>
</g>
</g>
<!-- Node5 -->
<g id="Node000005" class="node">
<title>Node5</title>
<g id="a_Node000005"><a xlink:title=" ">
<ellipse fill="#e0e0e0" stroke="#999999" cx="320.45" cy="-13.44" rx="31.64" ry="13.37"/>
<text text-anchor="middle" x="320.45" y="-10.94" font-family="Helvetica,sans-Serif" font-size="10.00">utility</text>
</a>
</g>
</g>
<!-- Node3&#45;&gt;Node5 -->
<g id="edge4_Node000003_Node000005" class="edge">
<title>Node3&#45;&gt;Node5</title>
<g id="a_edge4_Node000003_Node000005"><a xlink:title=" ">
<path fill="none" stroke="#63b8ff" d="M228.95,-140.91C229.39,-119.67 232.86,-86.43 248.45,-62.87 258.4,-47.82 274.8,-36.25 289.44,-28.2"/>
<polygon fill="#63b8ff" stroke="#63b8ff" points="291.43,-31.11 298.71,-23.42 288.22,-24.89 291.43,-31.11"/>
</a>
</g>
</g>
<!-- Node6 -->
<g id="Node000006" class="node">
<title>Node6</title>
<g id="a_Node000006"><a xlink:href="constants_8h.html" target="_top" xlink:title=" ">
<ellipse fill="white" stroke="#666666" cx="362.45" cy="-84.08" rx="105.22" ry="13.37"/>
<text text-anchor="middle" x="362.45" y="-81.58" font-family="Helvetica,sans-Serif" font-size="10.00">drake/common/constants.h</text>
</a>
</g>
</g>
<!-- Node3&#45;&gt;Node6 -->
<g id="edge6_Node000003_Node000006" class="edge">
<title>Node3&#45;&gt;Node6</title>
<g id="a_edge6_Node000003_Node000006"><a xlink:title=" ">
<path fill="none" stroke="#63b8ff" d="M261.98,-142.81C283.42,-130.5 311.29,-114.48 332.24,-102.44"/>
<polygon fill="#63b8ff" stroke="#63b8ff" points="334.11,-105.4 341.04,-97.38 330.63,-99.33 334.11,-105.4"/>
</a>
</g>
</g>
<!-- Node7 -->
<g id="Node000007" class="node">
<title>Node7</title>
<g id="a_Node000007"><a xlink:href="drake__assert_8h.html" target="_top" xlink:title="Provides Drake&#39;s assertion mechanics.">
<ellipse fill="white" stroke="#666666" cx="570.45" cy="-84.08" rx="84.29" ry="21.43"/>
<text text-anchor="start" x="518.95" y="-87.08" font-family="Helvetica,sans-Serif" font-size="10.00">drake/common/drake</text>
<text text-anchor="middle" x="570.45" y="-76.08" font-family="Helvetica,sans-Serif" font-size="10.00">_assert.h</text>
</a>
</g>
</g>
<!-- Node3&#45;&gt;Node7 -->
<g id="edge7_Node000003_Node000007" class="edge">
<title>Node3&#45;&gt;Node7</title>
<g id="a_edge7_Node000003_Node000007"><a xlink:title=" ">
<path fill="none" stroke="#63b8ff" d="M290.41,-147.85C349.03,-134.71 437.59,-114.86 499.38,-101.01"/>
<polygon fill="#63b8ff" stroke="#63b8ff" points="500.44,-104.36 509.44,-98.76 498.91,-97.53 500.44,-104.36"/>
</a>
</g>
</g>
<!-- Node12 -->
<g id="Node000012" class="node">
<title>Node12</title>
<g id="a_Node000012"><a xlink:href="drake__copyable_8h.html" target="_top" xlink:title="Provides careful macros to selectively enable or disable the special member functions for copy&#45;constr...">
<ellipse fill="white" stroke="#666666" cx="756.45" cy="-84.08" rx="84.29" ry="21.43"/>
<text text-anchor="start" x="704.95" y="-87.08" font-family="Helvetica,sans-Serif" font-size="10.00">drake/common/drake</text>
<text text-anchor="middle" x="756.45" y="-76.08" font-family="Helvetica,sans-Serif" font-size="10.00">_copyable.h</text>
</a>
</g>
</g>
<!-- Node3&#45;&gt;Node12 -->
<g id="edge13_Node000003_Node000012" class="edge">
<title>Node3&#45;&gt;Node12</title>
<g id="a_edge13_Node000003_Node000012"><a xlink:title=" ">
<path fill="none" stroke="#63b8ff" d="M306.18,-153.57C393.14,-144.11 538.99,-126.84 663.45,-105.3 670.81,-104.02 678.46,-102.57 686.09,-101.04"/>
<polygon fill="#63b8ff" stroke="#63b8ff" points="686.97,-104.43 696.06,-98.99 685.56,-97.57 686.97,-104.43"/>
</a>
</g>
</g>
<!-- Node7&#45;&gt;Node5 -->
<g id="edge12_Node000007_Node000005" class="edge">
<title>Node7&#45;&gt;Node5</title>
<g id="a_edge12_Node000007_Node000005"><a xlink:title=" ">
<path fill="none" stroke="#63b8ff" d="M515.27,-67.93C466.65,-54.58 397.28,-35.53 355.77,-24.14"/>
<polygon fill="#63b8ff" stroke="#63b8ff" points="356.67,-20.75 346.1,-21.48 354.82,-27.5 356.67,-20.75"/>
</a>
</g>
</g>
<!-- Node8 -->
<g id="Node000008" class="node">
<title>Node8</title>
<g id="a_Node000008"><a xlink:title=" ">
<ellipse fill="#e0e0e0" stroke="#999999" cx="452.45" cy="-13.44" rx="29.9" ry="13.37"/>
<text text-anchor="middle" x="452.45" y="-10.94" font-family="Helvetica,sans-Serif" font-size="10.00">array</text>
</a>
</g>
</g>
<!-- Node7&#45;&gt;Node8 -->
<g id="edge8_Node000007_Node000008" class="edge">
<title>Node7&#45;&gt;Node8</title>
<g id="a_edge8_Node000007_Node000008"><a xlink:title=" ">
<path fill="none" stroke="#63b8ff" d="M538.2,-64.32C519.55,-53.47 496.37,-39.99 478.81,-29.77"/>
<polygon fill="#63b8ff" stroke="#63b8ff" points="480.1,-26.48 469.7,-24.47 476.58,-32.53 480.1,-26.48"/>
</a>
</g>
</g>
<!-- Node9 -->
<g id="Node000009" class="node">
<title>Node9</title>
<g id="a_Node000009"><a xlink:title=" ">
<ellipse fill="#e0e0e0" stroke="#999999" cx="531.45" cy="-13.44" rx="31.23" ry="13.37"/>
<text text-anchor="middle" x="531.45" y="-10.94" font-family="Helvetica,sans-Serif" font-size="10.00">string</text>
</a>
</g>
</g>
<!-- Node7&#45;&gt;Node9 -->
<g id="edge9_Node000007_Node000009" class="edge">
<title>Node7&#45;&gt;Node9</title>
<g id="a_edge9_Node000007_Node000009"><a xlink:title=" ">
<path fill="none" stroke="#63b8ff" d="M558.96,-62.86C554.07,-54.26 548.38,-44.24 543.44,-35.54"/>
<polygon fill="#63b8ff" stroke="#63b8ff" points="546.44,-33.73 538.45,-26.77 540.35,-37.19 546.44,-33.73"/>
</a>
</g>
</g>
<!-- Node10 -->
<g id="Node000010" class="node">
<title>Node10</title>
<g id="a_Node000010"><a xlink:title=" ">
<ellipse fill="#e0e0e0" stroke="#999999" cx="609.45" cy="-13.44" rx="28.98" ry="13.37"/>
<text text-anchor="middle" x="609.45" y="-10.94" font-family="Helvetica,sans-Serif" font-size="10.00">tuple</text>
</a>
</g>
</g>
<!-- Node7&#45;&gt;Node10 -->
<g id="edge10_Node000007_Node000010" class="edge">
<title>Node7&#45;&gt;Node10</title>
<g id="a_edge10_Node000007_Node000010"><a xlink:title=" ">
<path fill="none" stroke="#63b8ff" d="M581.94,-62.86C586.82,-54.26 592.52,-44.24 597.45,-35.54"/>
<polygon fill="#63b8ff" stroke="#63b8ff" points="600.54,-37.19 602.44,-26.77 594.46,-33.73 600.54,-37.19"/>
</a>
</g>
</g>
<!-- Node11 -->
<g id="Node000011" class="node">
<title>Node11</title>
<g id="a_Node000011"><a xlink:title=" ">
<ellipse fill="#e0e0e0" stroke="#999999" cx="705.45" cy="-13.44" rx="48.58" ry="13.37"/>
<text text-anchor="middle" x="705.45" y="-10.94" font-family="Helvetica,sans-Serif" font-size="10.00">type_traits</text>
</a>
</g>
</g>
<!-- Node7&#45;&gt;Node11 -->
<g id="edge11_Node000007_Node000011" class="edge">
<title>Node7&#45;&gt;Node11</title>
<g id="a_edge11_Node000007_Node000011"><a xlink:title=" ">
<path fill="none" stroke="#63b8ff" d="M606.27,-64.87C627.44,-54.1 654,-40.6 674.3,-30.27"/>
<polygon fill="#63b8ff" stroke="#63b8ff" points="676.1,-33.28 683.43,-25.63 672.93,-27.05 676.1,-33.28"/>
</a>
</g>
</g>
</g>
</svg>
