<?xml version="1.0" encoding="UTF-8" standalone="no"?>
<!DOCTYPE svg PUBLIC "-//W3C//DTD SVG 1.1//EN"
 "http://www.w3.org/Graphics/SVG/1.1/DTD/svg11.dtd">
<!-- Generated by graphviz version 2.43.0 (0)
 -->
<!-- Title: drake/multibody/contact_solvers/icf/coupler_constraints_data_pool.h Pages: 1 -->
<!--zoomable 474 -->

<svg id="main" version="1.1" xmlns="http://www.w3.org/2000/svg" xmlns:xlink="http://www.w3.org/1999/xlink" xml:space="preserve" onload="init(evt)">

<style type="text/css"><![CDATA[
.node, .edge {opacity: 0.7;}
.node.selected, .edge.selected {opacity: 1;}
.edge:hover path { stroke: red; }
.edge:hover polygon { stroke: red; fill: red; }
]]></style>

<defs>
  <circle id="rim" cx="0" cy="0" r="7"/>
  <circle id="rim2" cx="0" cy="0" r="3.5"/>
  <g id="zoomPlus">
    <use xlink:href="#rim" fill="#404040"><set attributeName="fill" to="#808080" begin="zoomplus.mouseover" end="zoomplus.mouseout"/></use>
    <path d="M-4,0h8M0,-4v8" fill="none" stroke="white" stroke-width="1.5" pointer-events="none"/>
  </g>
  <g id="zoomMin">
    <use xlink:href="#rim" fill="#404040"><set attributeName="fill" to="#808080" begin="zoomminus.mouseover" end="zoomminus.mouseout"/></use>
    <path d="M-4,0h8" fill="none" stroke="white" stroke-width="1.5" pointer-events="none"/>
  </g>
  <g id="arrowUp" transform="translate(30 24)">
    <use xlink:href="#rim"/>
    <path pointer-events="none" fill="none" stroke="white" stroke-width="1.5" d="M0,-3.0v7 M-2.5,-0.5L0,-3.0L2.5,-0.5"/>
  </g>
  <g id="arrowRight" transform="rotate(90) translate(36 -43)">
    <use xlink:href="#rim"/>
    <path pointer-events="none" fill="none" stroke="white" stroke-width="1.5" d="M0,-3.0v7 M-2.5,-0.5L0,-3.0L2.5,-0.5"/>
  </g>
  <g id="arrowDown" transform="rotate(180) translate(-30 -48)">
    <use xlink:href="#rim"/>
    <path pointer-events="none" fill="none" stroke="white" stroke-width="1.5" d="M0,-3.0v7 M-2.5,-0.5L0,-3.0L2.5,-0.5"/>
  </g>
  <g id="arrowLeft" transform="rotate(270) translate(-36 17)">
    <use xlink:href="#rim"/>
    <path pointer-events="none" fill="none" stroke="white" stroke-width="1.5" d="M0,-3.0v7 M-2.5,-0.5L0,-3.0L2.5,-0.5"/>
  </g>
  <g id="resetDef">
    <use xlink:href="#rim2" fill="#404040"><set attributeName="fill" to="#808080" begin="reset.mouseover" end="reset.mouseout"/></use>
  </g>
</defs>
<script type="application/ecmascript">
var viewWidth = 1281;
var viewHeight = 474;
var sectionId = 'dynsection-1';
</script>
<script type="application/ecmascript" xlink:href="svg.min.js"/>
<svg id="graph" class="graph">
<g id="viewport">
<title>drake/multibody/contact_solvers/icf/coupler_constraints_data_pool.h</title>
<!-- Node1 -->
<g id="Node000001" class="node">
<title>Node1</title>
<g id="a_Node000001"><a xlink:title=" ">
<ellipse fill="#999999" stroke="#666666" cx="382.21" cy="-436.68" rx="120.42" ry="28.98"/>
<text text-anchor="start" x="305.21" y="-445.18" font-family="Helvetica,sans-Serif" font-size="10.00">drake/multibody/contact</text>
<text text-anchor="start" x="305.21" y="-434.18" font-family="Helvetica,sans-Serif" font-size="10.00">_solvers/icf/coupler_constraints</text>
<text text-anchor="middle" x="382.21" y="-423.18" font-family="Helvetica,sans-Serif" font-size="10.00">_data_pool.h</text>
</a>
</g>
</g>
<!-- Node2 -->
<g id="Node000002" class="node">
<title>Node2</title>
<g id="a_Node000002"><a xlink:href="coupler__constraints__pool_8h.html" target="_top" xlink:title=" ">
<ellipse fill="white" stroke="#666666" cx="120.21" cy="-264.27" rx="120.42" ry="28.98"/>
<text text-anchor="start" x="43.21" y="-272.77" font-family="Helvetica,sans-Serif" font-size="10.00">drake/multibody/contact</text>
<text text-anchor="start" x="43.21" y="-261.77" font-family="Helvetica,sans-Serif" font-size="10.00">_solvers/icf/coupler_constraints</text>
<text text-anchor="middle" x="120.21" y="-250.77" font-family="Helvetica,sans-Serif" font-size="10.00">_pool.h</text>
</a>
</g>
</g>
<!-- Node1&#45;&gt;Node2 -->
<g id="edge1_Node000001_Node000002" class="edge">
<title>Node1&#45;&gt;Node2</title>
<g id="a_edge1_Node000001_Node000002"><a xlink:title=" ">
<path fill="none" stroke="#63b8ff" d="M332.9,-403.61C283.19,-371.28 207.37,-321.96 160.95,-291.77"/>
<polygon fill="#63b8ff" stroke="#63b8ff" points="331.27,-406.72 341.56,-409.24 335.08,-400.85 331.27,-406.72"/>
</a>
</g>
</g>
<!-- Node7 -->
<g id="Node000007" class="node">
<title>Node7</title>
<g id="a_Node000007"><a xlink:href="icf__data_8h.html" target="_top" xlink:title=" ">
<ellipse fill="white" stroke="#666666" cx="525.21" cy="-350.48" rx="95.42" ry="21.43"/>
<text text-anchor="start" x="465.71" y="-353.48" font-family="Helvetica,sans-Serif" font-size="10.00">drake/multibody/contact</text>
<text text-anchor="middle" x="525.21" y="-342.48" font-family="Helvetica,sans-Serif" font-size="10.00">_solvers/icf/icf_data.h</text>
</a>
</g>
</g>
<!-- Node1&#45;&gt;Node7 -->
<g id="edge8_Node000001_Node000007" class="edge">
<title>Node1&#45;&gt;Node7</title>
<g id="a_edge8_Node000001_Node000007"><a xlink:title=" ">
<path fill="none" stroke="#63b8ff" d="M435.34,-404.39C454.55,-393.08 475.66,-380.65 492.59,-370.68"/>
<polygon fill="#63b8ff" stroke="#63b8ff" points="433.51,-401.41 426.67,-409.5 437.06,-407.44 433.51,-401.41"/>
</a>
</g>
</g>
<!-- Node3 -->
<g id="Node000003" class="node">
<title>Node3</title>
<g id="a_Node000003"><a xlink:href="icf__model_8h.html" target="_top" xlink:title=" ">
<ellipse fill="white" stroke="#666666" cx="645.21" cy="-178.07" rx="95.42" ry="21.43"/>
<text text-anchor="start" x="585.71" y="-181.07" font-family="Helvetica,sans-Serif" font-size="10.00">drake/multibody/contact</text>
<text text-anchor="middle" x="645.21" y="-170.07" font-family="Helvetica,sans-Serif" font-size="10.00">_solvers/icf/icf_model.h</text>
</a>
</g>
</g>
<!-- Node2&#45;&gt;Node3 -->
<g id="edge2_Node000002_Node000003" class="edge">
<title>Node2&#45;&gt;Node3</title>
<g id="a_edge2_Node000002_Node000003"><a xlink:title=" ">
<path fill="none" stroke="#63b8ff" d="M217.2,-242.26C229.63,-239.78 242.2,-237.39 254.21,-235.28 360.75,-216.51 484.46,-199.53 563.72,-189.26"/>
<polygon fill="#63b8ff" stroke="#63b8ff" points="216.39,-238.85 207.27,-244.25 217.77,-245.71 216.39,-238.85"/>
</a>
</g>
</g>
<!-- Node4 -->
<g id="Node000004" class="node">
<title>Node4</title>
<g id="a_Node000004"><a xlink:href="cenic__integrator_8h.html" target="_top" xlink:title=" ">
<ellipse fill="white" stroke="#666666" cx="707.21" cy="-21.21" rx="88.28" ry="21.43"/>
<text text-anchor="start" x="652.71" y="-24.21" font-family="Helvetica,sans-Serif" font-size="10.00">drake/multibody/cenic</text>
<text text-anchor="middle" x="707.21" y="-13.21" font-family="Helvetica,sans-Serif" font-size="10.00">/cenic_integrator.h</text>
</a>
</g>
</g>
<!-- Node3&#45;&gt;Node4 -->
<g id="edge3_Node000003_Node000004" class="edge">
<title>Node3&#45;&gt;Node4</title>
<g id="a_edge3_Node000003_Node000004"><a xlink:title=" ">
<path fill="none" stroke="#63b8ff" d="M619.43,-149.1C603.98,-128.8 589.72,-101.05 603.21,-78.43 614.4,-59.65 634.28,-46.77 653.68,-38.13"/>
<polygon fill="#63b8ff" stroke="#63b8ff" points="616.81,-151.43 625.81,-157.03 622.27,-147.05 616.81,-151.43"/>
</a>
</g>
</g>
<!-- Node5 -->
<g id="Node000005" class="node">
<title>Node5</title>
<g id="a_Node000005"><a xlink:href="icf__builder_8h.html" target="_top" xlink:title=" ">
<ellipse fill="white" stroke="#666666" cx="707.21" cy="-99.64" rx="95.42" ry="21.43"/>
<text text-anchor="start" x="647.71" y="-102.64" font-family="Helvetica,sans-Serif" font-size="10.00">drake/multibody/contact</text>
<text text-anchor="middle" x="707.21" y="-91.64" font-family="Helvetica,sans-Serif" font-size="10.00">_solvers/icf/icf_builder.h</text>
</a>
</g>
</g>
<!-- Node3&#45;&gt;Node5 -->
<g id="edge4_Node000003_Node000005" class="edge">
<title>Node3&#45;&gt;Node5</title>
<g id="a_edge4_Node000003_Node000005"><a xlink:title=" ">
<path fill="none" stroke="#63b8ff" d="M667.98,-149C675.63,-139.57 683.99,-129.26 691.03,-120.59"/>
<polygon fill="#63b8ff" stroke="#63b8ff" points="665.08,-147.01 661.5,-156.99 670.52,-151.42 665.08,-147.01"/>
</a>
</g>
</g>
<!-- Node6 -->
<g id="Node000006" class="node">
<title>Node6</title>
<g id="a_Node000006"><a xlink:href="icf__solver_8h.html" target="_top" xlink:title=" ">
<ellipse fill="white" stroke="#666666" cx="916.21" cy="-99.64" rx="95.42" ry="21.43"/>
<text text-anchor="start" x="856.71" y="-102.64" font-family="Helvetica,sans-Serif" font-size="10.00">drake/multibody/contact</text>
<text text-anchor="middle" x="916.21" y="-91.64" font-family="Helvetica,sans-Serif" font-size="10.00">_solvers/icf/icf_solver.h</text>
</a>
</g>
</g>
<!-- Node3&#45;&gt;Node6 -->
<g id="edge6_Node000003_Node000006" class="edge">
<title>Node3&#45;&gt;Node6</title>
<g id="a_edge6_Node000003_Node000006"><a xlink:title=" ">
<path fill="none" stroke="#63b8ff" d="M712.05,-158.21C757.21,-145.48 816.2,-128.84 859.15,-116.73"/>
<polygon fill="#63b8ff" stroke="#63b8ff" points="711.02,-154.87 702.35,-160.95 712.92,-161.61 711.02,-154.87"/>
</a>
</g>
</g>
<!-- Node5&#45;&gt;Node4 -->
<g id="edge5_Node000005_Node000004" class="edge">
<title>Node5&#45;&gt;Node4</title>
<g id="a_edge5_Node000005_Node000004"><a xlink:title=" ">
<path fill="none" stroke="#63b8ff" d="M707.21,-68.06C707.21,-59.46 707.21,-50.32 707.21,-42.49"/>
<polygon fill="#63b8ff" stroke="#63b8ff" points="703.71,-68.16 707.21,-78.16 710.71,-68.16 703.71,-68.16"/>
</a>
</g>
</g>
<!-- Node6&#45;&gt;Node4 -->
<g id="edge7_Node000006_Node000004" class="edge">
<title>Node6&#45;&gt;Node4</title>
<g id="a_edge7_Node000006_Node000004"><a xlink:title=" ">
<path fill="none" stroke="#63b8ff" d="M859,-77.72C826,-65.65 785.03,-50.67 753.97,-39.31"/>
<polygon fill="#63b8ff" stroke="#63b8ff" points="857.93,-81.05 868.52,-81.2 860.33,-74.48 857.93,-81.05"/>
</a>
</g>
</g>
<!-- Node7&#45;&gt;Node2 -->
<g id="edge9_Node000007_Node000002" class="edge">
<title>Node7&#45;&gt;Node2</title>
<g id="a_edge9_Node000007_Node000002"><a xlink:title=" ">
<path fill="none" stroke="#63b8ff" d="M447.66,-333.42C393.47,-322.19 319.42,-306.84 254.21,-293.26 239.67,-290.23 224.24,-287.02 209.22,-283.88"/>
<polygon fill="#63b8ff" stroke="#63b8ff" points="447.04,-336.87 457.55,-335.47 448.46,-330.01 447.04,-336.87"/>
</a>
</g>
</g>
<!-- Node7&#45;&gt;Node3 -->
<g id="edge12_Node000007_Node000003" class="edge">
<title>Node7&#45;&gt;Node3</title>
<g id="a_edge12_Node000007_Node000003"><a xlink:title=" ">
<path fill="none" stroke="#63b8ff" d="M430.53,-339.12C372.22,-330.58 305.26,-316.08 287.21,-293.26 271.22,-273.05 270.46,-254.86 287.21,-235.28 320.43,-196.43 455.73,-184.25 550.12,-180.54"/>
<polygon fill="#63b8ff" stroke="#63b8ff" points="430.16,-342.61 440.55,-340.55 431.14,-335.68 430.16,-342.61"/>
</a>
</g>
</g>
<!-- Node7&#45;&gt;Node6 -->
<g id="edge13_Node000007_Node000006" class="edge">
<title>Node7&#45;&gt;Node6</title>
<g id="a_edge13_Node000007_Node000006"><a xlink:title=" ">
<path fill="none" stroke="#63b8ff" d="M630.65,-349.07C822.29,-347.23 1211.83,-337.96 1253.21,-293.26 1340.31,-199.18 1111.83,-138.55 988.72,-113.61"/>
<polygon fill="#63b8ff" stroke="#63b8ff" points="630.52,-345.57 620.56,-349.16 630.59,-352.57 630.52,-345.57"/>
</a>
</g>
</g>
<!-- Node8 -->
<g id="Node000008" class="node">
<title>Node8</title>
<g id="a_Node000008"><a xlink:href="gain__constraints__pool_8h.html" target="_top" xlink:title=" ">
<ellipse fill="white" stroke="#666666" cx="406.21" cy="-264.27" rx="109.7" ry="28.98"/>
<text text-anchor="start" x="336.71" y="-272.77" font-family="Helvetica,sans-Serif" font-size="10.00">drake/multibody/contact</text>
<text text-anchor="start" x="336.71" y="-261.77" font-family="Helvetica,sans-Serif" font-size="10.00">_solvers/icf/gain_constraints</text>
<text text-anchor="middle" x="406.21" y="-250.77" font-family="Helvetica,sans-Serif" font-size="10.00">_pool.h</text>
</a>
</g>
</g>
<!-- Node7&#45;&gt;Node8 -->
<g id="edge10_Node000007_Node000008" class="edge">
<title>Node7&#45;&gt;Node8</title>
<g id="a_edge10_Node000007_Node000008"><a xlink:title=" ">
<path fill="none" stroke="#63b8ff" d="M489.38,-324.12C474.9,-313.88 458.2,-302.06 443.57,-291.71"/>
<polygon fill="#63b8ff" stroke="#63b8ff" points="487.42,-327.03 497.61,-329.95 491.47,-321.31 487.42,-327.03"/>
</a>
</g>
</g>
<!-- Node9 -->
<g id="Node000009" class="node">
<title>Node9</title>
<g id="a_Node000009"><a xlink:href="limit__constraints__pool_8h.html" target="_top" xlink:title=" ">
<ellipse fill="white" stroke="#666666" cx="645.21" cy="-264.27" rx="111.03" ry="28.98"/>
<text text-anchor="start" x="574.71" y="-272.77" font-family="Helvetica,sans-Serif" font-size="10.00">drake/multibody/contact</text>
<text text-anchor="start" x="574.71" y="-261.77" font-family="Helvetica,sans-Serif" font-size="10.00">_solvers/icf/limit_constraints</text>
<text text-anchor="middle" x="645.21" y="-250.77" font-family="Helvetica,sans-Serif" font-size="10.00">_pool.h</text>
</a>
</g>
</g>
<!-- Node7&#45;&gt;Node9 -->
<g id="edge14_Node000007_Node000009" class="edge">
<title>Node7&#45;&gt;Node9</title>
<g id="a_edge14_Node000007_Node000009"><a xlink:title=" ">
<path fill="none" stroke="#63b8ff" d="M561.04,-324.33C575.64,-314.08 592.54,-302.23 607.35,-291.84"/>
<polygon fill="#63b8ff" stroke="#63b8ff" points="558.91,-321.55 552.74,-330.16 562.93,-327.28 558.91,-321.55"/>
</a>
</g>
</g>
<!-- Node10 -->
<g id="Node000010" class="node">
<title>Node10</title>
<g id="a_Node000010"><a xlink:href="patch__constraints__pool_8h.html" target="_top" xlink:title=" ">
<ellipse fill="white" stroke="#666666" cx="888.21" cy="-264.27" rx="113.69" ry="28.98"/>
<text text-anchor="start" x="815.71" y="-272.77" font-family="Helvetica,sans-Serif" font-size="10.00">drake/multibody/contact</text>
<text text-anchor="start" x="815.71" y="-261.77" font-family="Helvetica,sans-Serif" font-size="10.00">_solvers/icf/patch_constraints</text>
<text text-anchor="middle" x="888.21" y="-250.77" font-family="Helvetica,sans-Serif" font-size="10.00">_pool.h</text>
</a>
</g>
</g>
<!-- Node7&#45;&gt;Node10 -->
<g id="edge16_Node000007_Node000010" class="edge">
<title>Node7&#45;&gt;Node10</title>
<g id="a_edge16_Node000007_Node000010"><a xlink:title=" ">
<path fill="none" stroke="#63b8ff" d="M599.06,-332.34C659.11,-318.41 743.78,-298.77 805.99,-284.34"/>
<polygon fill="#63b8ff" stroke="#63b8ff" points="598.22,-328.95 589.27,-334.61 599.8,-335.76 598.22,-328.95"/>
</a>
</g>
</g>
<!-- Node11 -->
<g id="Node000011" class="node">
<title>Node11</title>
<g id="a_Node000011"><a xlink:href="weld__constraints__pool_8h.html" target="_top" xlink:title=" ">
<ellipse fill="white" stroke="#666666" cx="1132.21" cy="-264.27" rx="111.95" ry="28.98"/>
<text text-anchor="start" x="1061.21" y="-272.77" font-family="Helvetica,sans-Serif" font-size="10.00">drake/multibody/contact</text>
<text text-anchor="start" x="1061.21" y="-261.77" font-family="Helvetica,sans-Serif" font-size="10.00">_solvers/icf/weld_constraints</text>
<text text-anchor="middle" x="1132.21" y="-250.77" font-family="Helvetica,sans-Serif" font-size="10.00">_pool.h</text>
</a>
</g>
</g>
<!-- Node7&#45;&gt;Node11 -->
<g id="edge18_Node000007_Node000011" class="edge">
<title>Node7&#45;&gt;Node11</title>
<g id="a_edge18_Node000007_Node000011"><a xlink:title=" ">
<path fill="none" stroke="#63b8ff" d="M623.67,-341.35C722.18,-332.46 877.83,-316.33 1011.21,-293.26 1024.91,-290.89 1039.39,-287.94 1053.39,-284.85"/>
<polygon fill="#63b8ff" stroke="#63b8ff" points="623.08,-337.89 613.43,-342.27 623.7,-344.86 623.08,-337.89"/>
</a>
</g>
</g>
<!-- Node8&#45;&gt;Node3 -->
<g id="edge11_Node000008_Node000003" class="edge">
<title>Node8&#45;&gt;Node3</title>
<g id="a_edge11_Node000008_Node000003"><a xlink:title=" ">
<path fill="none" stroke="#63b8ff" d="M479.7,-237.38C517.52,-224.05 562.6,-208.17 596.15,-196.35"/>
<polygon fill="#63b8ff" stroke="#63b8ff" points="478.52,-234.08 470.26,-240.71 480.85,-240.68 478.52,-234.08"/>
</a>
</g>
</g>
<!-- Node9&#45;&gt;Node3 -->
<g id="edge15_Node000009_Node000003" class="edge">
<title>Node9&#45;&gt;Node3</title>
<g id="a_edge15_Node000009_Node000003"><a xlink:title=" ">
<path fill="none" stroke="#63b8ff" d="M645.21,-225.09C645.21,-216.28 645.21,-207.24 645.21,-199.53"/>
<polygon fill="#63b8ff" stroke="#63b8ff" points="641.71,-225.23 645.21,-235.23 648.71,-225.23 641.71,-225.23"/>
</a>
</g>
</g>
<!-- Node10&#45;&gt;Node3 -->
<g id="edge17_Node000010_Node000003" class="edge">
<title>Node10&#45;&gt;Node3</title>
<g id="a_edge17_Node000010_Node000003"><a xlink:title=" ">
<path fill="none" stroke="#63b8ff" d="M812.85,-237.16C774.43,-223.84 728.78,-208.03 694.82,-196.26"/>
<polygon fill="#63b8ff" stroke="#63b8ff" points="811.85,-240.52 822.45,-240.48 814.15,-233.9 811.85,-240.52"/>
</a>
</g>
</g>
<!-- Node11&#45;&gt;Node3 -->
<g id="edge19_Node000011_Node000003" class="edge">
<title>Node11&#45;&gt;Node3</title>
<g id="a_edge19_Node000011_Node000003"><a xlink:title=" ">
<path fill="none" stroke="#63b8ff" d="M1042.33,-241.69C1031.86,-239.41 1021.32,-237.22 1011.21,-235.28 913.35,-216.47 799.82,-199.83 725.47,-189.63"/>
<polygon fill="#63b8ff" stroke="#63b8ff" points="1041.81,-245.16 1052.33,-243.9 1043.32,-238.33 1041.81,-245.16"/>
</a>
</g>
</g>
</g>
</svg>

<g id="navigator" transform="translate(0 0)" fill="#404254">
  <rect fill="#f2f5e9" fill-opacity="0.5" stroke="#606060" stroke-width=".5" x="0" y="0" width="60" height="60"/>
  <use id="zoomplus" xlink:href="#zoomPlus" x="17" y="9" onmousedown="handleZoom(evt,'in')"/>
  <use id="zoomminus" xlink:href="#zoomMin" x="42" y="9" onmousedown="handleZoom(evt,'out')"/>
  <use id="reset" xlink:href="#resetDef" x="30" y="36" onmousedown="handleReset()"/>
   <use id="arrowup" xlink:href="#arrowUp" x="0" y="0" onmousedown="handlePan(0,-1)"/>
  <use id="arrowright" xlink:href="#arrowRight" x="0" y="0" onmousedown="handlePan(1,0)"/>
  <use id="arrowdown" xlink:href="#arrowDown" x="0" y="0" onmousedown="handlePan(0,1)"/>
  <use id="arrowleft" xlink:href="#arrowLeft" x="0" y="0" onmousedown="handlePan(-1,0)"/>
</g>
<svg viewBox="0 0 15 15" width="100%" height="30px" preserveAspectRatio="xMaxYMin meet">
 <g id="arrow_out" transform="scale(0.3 0.3)">
  <a xlink:href="coupler__constraints__data__pool_8h__dep__incl_org.svg" target="_base">
   <rect id="button" ry="5" rx="5" y="6" x="6" height="38" width="38"
        fill="#f2f5e9" fill-opacity="0.5" stroke="#606060" stroke-width="1.0"/>
   <path id="arrow"
     d="M 11.500037,31.436501 C 11.940474,20.09759 22.043105,11.32322 32.158766,21.979434 L 37.068811,17.246167 C 37.068811,17.246167 37.088388,32 37.088388,32 L 22.160133,31.978069 C 22.160133,31.978069 26.997745,27.140456 26.997745,27.140456 C 18.528582,18.264221 13.291696,25.230495 11.500037,31.436501 z"
     style="fill:#404040;"/>
  </a>
 </g>
</svg>

<style type='text/css'>
<![CDATA[
[data-mouse-over-selected='false'] { opacity: 0.7; }
[data-mouse-over-selected='true']  { opacity: 1.0; }
]]>
</style>
<script type="application/ecmascript"><![CDATA[
document.addEventListener('DOMContentLoaded', (event) => {
  highlightEdges();
  highlightAdjacentNodes();
});
]]></script>
</svg>
