<?xml version="1.0" encoding="UTF-8" standalone="no"?>
<!DOCTYPE svg PUBLIC "-//W3C//DTD SVG 1.1//EN"
 "http://www.w3.org/Graphics/SVG/1.1/DTD/svg11.dtd">
<!-- Generated by graphviz version 2.43.0 (0)
 -->
<!-- Title: drake/bindings/pydrake/common/cpp_template_pybind.h Pages: 1 -->
<!--zoomable 363 -->
<svg id="main" version="1.1" xmlns="http://www.w3.org/2000/svg" xmlns:xlink="http://www.w3.org/1999/xlink" xml:space="preserve" onload="init(evt)">
<style type="text/css"><![CDATA[
.edge:hover path { stroke: red; }
.edge:hover polygon { stroke: red; fill: red; }
]]></style>
<script type="text/javascript"><![CDATA[
var edges = document.getElementsByTagName('g');
if (edges && edges.length) {
  for (var i=0;i<edges.length;i++) {
    if (edges[i].id.substr(0,4)=='edge') {
      edges[i].setAttribute('class','edge');
    }
  }
}
]]></script>
        <defs>
                <circle id="rim" cx="0" cy="0" r="7"/>
                <circle id="rim2" cx="0" cy="0" r="3.5"/>
                <g id="zoomPlus">
                        <use xlink:href="#rim" fill="#404040">
                                <set attributeName="fill" to="#808080" begin="zoomplus.mouseover" end="zoomplus.mouseout"/>
                        </use>
                        <path d="M-4,0h8M0,-4v8" fill="none" stroke="white" stroke-width="1.5" pointer-events="none"/>
                </g>
                <g id="zoomMin">
                        <use xlink:href="#rim" fill="#404040">
                                <set attributeName="fill" to="#808080" begin="zoomminus.mouseover" end="zoomminus.mouseout"/>
                        </use>
                        <path d="M-4,0h8" fill="none" stroke="white" stroke-width="1.5" pointer-events="none"/>
                </g>
                <g id="dirArrow">
                        <path fill="none" stroke="white" stroke-width="1.5" d="M0,-3.0v7 M-2.5,-0.5L0,-3.0L2.5,-0.5"/>
                </g>
               <g id="resetDef">
                       <use xlink:href="#rim2" fill="#404040">
                               <set attributeName="fill" to="#808080" begin="reset.mouseover" end="reset.mouseout"/>
                       </use>
               </g>
        </defs>

<script type="text/javascript">
var viewWidth = 1942;
var viewHeight = 363;
var sectionId = 'dynsection-0';
</script>
<script xlink:href="svgpan.js"/>
<svg id="graph" class="graph">
<g id="viewport">
<title>drake/bindings/pydrake/common/cpp_template_pybind.h</title>
<polygon fill="white" stroke="transparent" points="-4,4 -4,-359 1937.5,-359 1937.5,4 -4,4"/>
<!-- Node0 -->
<g id="node1" class="node">
<title>Node0</title>
<g id="a_node1"><a xlink:title=" ">
<polygon fill="#bfbfbf" stroke="black" points="774.5,-324.5 774.5,-354.5 953.5,-354.5 953.5,-324.5 774.5,-324.5"/>
<text text-anchor="start" x="782.5" y="-342.5" font-family="Helvetica,sans-Serif" font-size="10.00">drake/bindings/pydrake</text>
<text text-anchor="middle" x="864" y="-331.5" font-family="Helvetica,sans-Serif" font-size="10.00">/common/cpp_template_pybind.h</text>
</a>
</g>
</g>
<!-- Node1 -->
<g id="node2" class="node">
<title>Node1</title>
<g id="a_node2"><a xlink:title=" ">
<polygon fill="white" stroke="#bfbfbf" points="0,-263 0,-282 56,-282 56,-263 0,-263"/>
<text text-anchor="middle" x="28" y="-270" font-family="Helvetica,sans-Serif" font-size="10.00">optional</text>
</a>
</g>
</g>
<!-- Node0&#45;&gt;Node1 -->
<g id="edge1" class="edge">
<title>Node0&#45;&gt;Node1</title>
<path fill="none" stroke="midnightblue" d="M774.45,-335.83C596.13,-330.02 202.47,-314.57 70,-288 66.3,-287.26 62.49,-286.27 58.73,-285.16"/>
<polygon fill="midnightblue" stroke="midnightblue" points="59.65,-281.78 49.06,-282.01 57.48,-288.43 59.65,-281.78"/>
</g>
<!-- Node2 -->
<g id="node3" class="node">
<title>Node2</title>
<g id="a_node3"><a xlink:title=" ">
<polygon fill="white" stroke="#bfbfbf" points="580,-0.5 580,-19.5 624,-19.5 624,-0.5 580,-0.5"/>
<text text-anchor="middle" x="602" y="-7.5" font-family="Helvetica,sans-Serif" font-size="10.00">string</text>
</a>
</g>
</g>
<!-- Node0&#45;&gt;Node2 -->
<g id="edge2" class="edge">
<title>Node0&#45;&gt;Node2</title>
<path fill="none" stroke="midnightblue" d="M774.14,-332.59C569.04,-317.89 84,-275.81 84,-206.5 84,-206.5 84,-206.5 84,-137.5 84,-95.69 95.83,-78.62 131,-56 167.79,-32.34 469.39,-16.9 569.7,-12.38"/>
<polygon fill="midnightblue" stroke="midnightblue" points="570,-15.87 579.84,-11.93 569.69,-8.88 570,-15.87"/>
</g>
<!-- Node3 -->
<g id="node4" class="node">
<title>Node3</title>
<g id="a_node4"><a xlink:title=" ">
<polygon fill="white" stroke="#bfbfbf" points="1460.5,-62 1460.5,-81 1505.5,-81 1505.5,-62 1460.5,-62"/>
<text text-anchor="middle" x="1483" y="-69" font-family="Helvetica,sans-Serif" font-size="10.00">utility</text>
</a>
</g>
</g>
<!-- Node0&#45;&gt;Node3 -->
<g id="edge3" class="edge">
<title>Node0&#45;&gt;Node3</title>
<path fill="none" stroke="midnightblue" d="M953.62,-333.69C1062.68,-326.87 1239.83,-312.44 1301,-288 1386.5,-253.83 1411.4,-232.82 1459,-154 1470.88,-134.32 1477.19,-108.39 1480.31,-91.12"/>
<polygon fill="midnightblue" stroke="midnightblue" points="1483.78,-91.61 1481.93,-81.17 1476.87,-90.48 1483.78,-91.61"/>
</g>
<!-- Node4 -->
<g id="node5" class="node">
<title>Node4</title>
<g id="a_node5"><a xlink:href="cpp__param__pybind_8h.html" target="_top" xlink:title="Provides a mechanism to map C++ types to canonical Python types.">
<polygon fill="white" stroke="black" points="1124.5,-257.5 1124.5,-287.5 1291.5,-287.5 1291.5,-257.5 1124.5,-257.5"/>
<text text-anchor="start" x="1132.5" y="-275.5" font-family="Helvetica,sans-Serif" font-size="10.00">drake/bindings/pydrake</text>
<text text-anchor="middle" x="1208" y="-264.5" font-family="Helvetica,sans-Serif" font-size="10.00">/common/cpp_param_pybind.h</text>
</a>
</g>
</g>
<!-- Node0&#45;&gt;Node4 -->
<g id="edge4" class="edge">
<title>Node0&#45;&gt;Node4</title>
<path fill="none" stroke="midnightblue" d="M938.22,-324.48C992.72,-314.18 1066.83,-300.17 1123.59,-289.45"/>
<polygon fill="midnightblue" stroke="midnightblue" points="1124.44,-292.85 1133.62,-287.55 1123.14,-285.97 1124.44,-292.85"/>
</g>
<!-- Node15 -->
<g id="node16" class="node">
<title>Node15</title>
<g id="a_node16"><a xlink:href="pydrake__pybind_8h.html" target="_top" xlink:title=" ">
<polygon fill="white" stroke="black" points="799,-123.5 799,-153.5 929,-153.5 929,-123.5 799,-123.5"/>
<text text-anchor="start" x="807" y="-141.5" font-family="Helvetica,sans-Serif" font-size="10.00">drake/bindings/pydrake</text>
<text text-anchor="middle" x="864" y="-130.5" font-family="Helvetica,sans-Serif" font-size="10.00">/pydrake_pybind.h</text>
</a>
</g>
</g>
<!-- Node0&#45;&gt;Node15 -->
<g id="edge45" class="edge">
<title>Node0&#45;&gt;Node15</title>
<path fill="none" stroke="midnightblue" d="M864,-324.19C864,-290.48 864,-205.8 864,-163.84"/>
<polygon fill="midnightblue" stroke="midnightblue" points="867.5,-163.68 864,-153.68 860.5,-163.68 867.5,-163.68"/>
</g>
<!-- Node4&#45;&gt;Node2 -->
<g id="edge5" class="edge">
<title>Node4&#45;&gt;Node2</title>
<path fill="none" stroke="midnightblue" d="M1124.47,-270.29C895.62,-265.02 267.22,-236.92 141,-87 132.13,-76.46 131.74,-66.2 141,-56 169.77,-24.29 469.77,-14.19 569.77,-11.7"/>
<polygon fill="midnightblue" stroke="midnightblue" points="569.97,-15.19 579.88,-11.46 569.8,-8.2 569.97,-15.19"/>
</g>
<!-- Node5 -->
<g id="node6" class="node">
<title>Node5</title>
<g id="a_node6"><a xlink:title=" ">
<polygon fill="white" stroke="#bfbfbf" points="1876.5,-62 1876.5,-81 1933.5,-81 1933.5,-62 1876.5,-62"/>
<text text-anchor="middle" x="1905" y="-69" font-family="Helvetica,sans-Serif" font-size="10.00">typeinfo</text>
</a>
</g>
</g>
<!-- Node4&#45;&gt;Node5 -->
<g id="edge6" class="edge">
<title>Node4&#45;&gt;Node5</title>
<path fill="none" stroke="midnightblue" d="M1291.65,-268.24C1453.59,-260.18 1801.47,-233.81 1886,-154 1902.97,-137.98 1906.12,-109.97 1906.12,-91.33"/>
<polygon fill="midnightblue" stroke="midnightblue" points="1909.61,-91.01 1905.8,-81.12 1902.61,-91.22 1909.61,-91.01"/>
</g>
<!-- Node6 -->
<g id="node7" class="node">
<title>Node6</title>
<g id="a_node7"><a xlink:title=" ">
<polygon fill="white" stroke="#bfbfbf" points="1333.5,-196 1333.5,-215 1380.5,-215 1380.5,-196 1333.5,-196"/>
<text text-anchor="middle" x="1357" y="-203" font-family="Helvetica,sans-Serif" font-size="10.00">vector</text>
</a>
</g>
</g>
<!-- Node4&#45;&gt;Node6 -->
<g id="edge7" class="edge">
<title>Node4&#45;&gt;Node6</title>
<path fill="none" stroke="midnightblue" d="M1240.33,-257.4C1266.47,-245.99 1302.95,-230.08 1328.12,-219.1"/>
<polygon fill="midnightblue" stroke="midnightblue" points="1329.73,-222.21 1337.5,-215.01 1326.93,-215.8 1329.73,-222.21"/>
</g>
<!-- Node7 -->
<g id="node8" class="node">
<title>Node7</title>
<g id="a_node8"><a xlink:href="type__pack_8h.html" target="_top" xlink:title="Basic meta&#45;programming utilities for types, focused on template parameter packs.">
<polygon fill="white" stroke="black" points="1747,-123.5 1747,-153.5 1877,-153.5 1877,-123.5 1747,-123.5"/>
<text text-anchor="start" x="1755" y="-141.5" font-family="Helvetica,sans-Serif" font-size="10.00">drake/bindings/pydrake</text>
<text text-anchor="middle" x="1812" y="-130.5" font-family="Helvetica,sans-Serif" font-size="10.00">/common/type_pack.h</text>
</a>
</g>
</g>
<!-- Node4&#45;&gt;Node7 -->
<g id="edge8" class="edge">
<title>Node4&#45;&gt;Node7</title>
<path fill="none" stroke="midnightblue" d="M1230.92,-257.48C1246.67,-247.65 1267.92,-233.99 1286,-221 1303.98,-208.08 1304.44,-198.21 1325,-190 1494.07,-122.51 1552.61,-178.46 1733,-154 1734.28,-153.83 1735.58,-153.65 1736.88,-153.46"/>
<polygon fill="midnightblue" stroke="midnightblue" points="1737.62,-156.89 1746.98,-151.93 1736.57,-149.97 1737.62,-156.89"/>
</g>
<!-- Node11 -->
<g id="node12" class="node">
<title>Node11</title>
<g id="a_node12"><a xlink:href="wrap__pybind_8h.html" target="_top" xlink:title="Defines convenience utilities to wrap pybind11 methods and classes.">
<polygon fill="white" stroke="black" points="1139.5,-190.5 1139.5,-220.5 1276.5,-220.5 1276.5,-190.5 1139.5,-190.5"/>
<text text-anchor="start" x="1147.5" y="-208.5" font-family="Helvetica,sans-Serif" font-size="10.00">drake/bindings/pydrake</text>
<text text-anchor="middle" x="1208" y="-197.5" font-family="Helvetica,sans-Serif" font-size="10.00">/common/wrap_pybind.h</text>
</a>
</g>
</g>
<!-- Node4&#45;&gt;Node11 -->
<g id="edge14" class="edge">
<title>Node4&#45;&gt;Node11</title>
<path fill="none" stroke="midnightblue" d="M1208,-257.4C1208,-249.64 1208,-239.81 1208,-230.86"/>
<polygon fill="midnightblue" stroke="midnightblue" points="1211.5,-230.58 1208,-220.58 1204.5,-230.58 1211.5,-230.58"/>
</g>
<!-- Node4&#45;&gt;Node15 -->
<g id="edge44" class="edge">
<title>Node4&#45;&gt;Node15</title>
<path fill="none" stroke="midnightblue" d="M1171.51,-257.5C1108.43,-233.29 979.1,-183.67 909.97,-157.14"/>
<polygon fill="midnightblue" stroke="midnightblue" points="911.22,-153.87 900.63,-153.56 908.71,-160.41 911.22,-153.87"/>
</g>
<!-- Node7&#45;&gt;Node3 -->
<g id="edge13" class="edge">
<title>Node7&#45;&gt;Node3</title>
<path fill="none" stroke="midnightblue" d="M1746.87,-131.3C1685.94,-124.36 1592.9,-110.83 1515,-87 1513.08,-86.41 1511.12,-85.73 1509.16,-85"/>
<polygon fill="midnightblue" stroke="midnightblue" points="1510.2,-81.64 1499.62,-81.01 1507.5,-88.1 1510.2,-81.64"/>
</g>
<!-- Node7&#45;&gt;Node5 -->
<g id="edge12" class="edge">
<title>Node7&#45;&gt;Node5</title>
<path fill="none" stroke="midnightblue" d="M1832.18,-123.4C1847.63,-112.6 1868.86,-97.76 1884.42,-86.89"/>
<polygon fill="midnightblue" stroke="midnightblue" points="1886.64,-89.6 1892.83,-81.01 1882.63,-83.87 1886.64,-89.6"/>
</g>
<!-- Node8 -->
<g id="node9" class="node">
<title>Node8</title>
<g id="a_node9"><a xlink:title=" ">
<polygon fill="white" stroke="#bfbfbf" points="1645.5,-62 1645.5,-81 1698.5,-81 1698.5,-62 1645.5,-62"/>
<text text-anchor="middle" x="1672" y="-69" font-family="Helvetica,sans-Serif" font-size="10.00">cstddef</text>
</a>
</g>
</g>
<!-- Node7&#45;&gt;Node8 -->
<g id="edge9" class="edge">
<title>Node7&#45;&gt;Node8</title>
<path fill="none" stroke="midnightblue" d="M1781.62,-123.4C1757.17,-112.04 1723.09,-96.22 1699.45,-85.24"/>
<polygon fill="midnightblue" stroke="midnightblue" points="1700.87,-82.04 1690.32,-81.01 1697.92,-88.39 1700.87,-82.04"/>
</g>
<!-- Node9 -->
<g id="node10" class="node">
<title>Node9</title>
<g id="a_node10"><a xlink:title=" ">
<polygon fill="white" stroke="#bfbfbf" points="1637.5,-0.5 1637.5,-19.5 1706.5,-19.5 1706.5,-0.5 1637.5,-0.5"/>
<text text-anchor="middle" x="1672" y="-7.5" font-family="Helvetica,sans-Serif" font-size="10.00">type_traits</text>
</a>
</g>
</g>
<!-- Node7&#45;&gt;Node9 -->
<g id="edge10" class="edge">
<title>Node7&#45;&gt;Node9</title>
<path fill="none" stroke="midnightblue" d="M1801.72,-123.48C1788.75,-106.35 1765.21,-77.06 1741,-56 1727.32,-44.1 1710.28,-32.95 1696.55,-24.73"/>
<polygon fill="midnightblue" stroke="midnightblue" points="1698.05,-21.56 1687.66,-19.53 1694.52,-27.6 1698.05,-21.56"/>
</g>
<!-- Node10 -->
<g id="node11" class="node">
<title>Node10</title>
<g id="a_node11"><a xlink:title=" ">
<polygon fill="white" stroke="#bfbfbf" points="1793.5,-62 1793.5,-81 1858.5,-81 1858.5,-62 1793.5,-62"/>
<text text-anchor="middle" x="1826" y="-69" font-family="Helvetica,sans-Serif" font-size="10.00">typeindex</text>
</a>
</g>
</g>
<!-- Node7&#45;&gt;Node10 -->
<g id="edge11" class="edge">
<title>Node7&#45;&gt;Node10</title>
<path fill="none" stroke="midnightblue" d="M1815.04,-123.4C1817.07,-113.96 1819.76,-101.45 1821.97,-91.19"/>
<polygon fill="midnightblue" stroke="midnightblue" points="1825.44,-91.71 1824.13,-81.19 1818.6,-90.23 1825.44,-91.71"/>
</g>
<!-- Node11&#45;&gt;Node2 -->
<g id="edge16" class="edge">
<title>Node11&#45;&gt;Node2</title>
<path fill="none" stroke="midnightblue" d="M1179.69,-190.44C1163.4,-181.47 1143.2,-168.76 1128,-154 1090.32,-117.42 1107.1,-82.9 1062,-56 989.66,-12.85 726.61,-10.21 634.29,-10.66"/>
<polygon fill="midnightblue" stroke="midnightblue" points="634.13,-7.16 624.15,-10.72 634.17,-14.16 634.13,-7.16"/>
</g>
<!-- Node11&#45;&gt;Node3 -->
<g id="edge18" class="edge">
<title>Node11&#45;&gt;Node3</title>
<path fill="none" stroke="midnightblue" d="M1276.57,-191.8C1337.62,-180.05 1419.21,-163.06 1432,-154 1454.19,-138.27 1468.79,-109.55 1476.48,-90.75"/>
<polygon fill="midnightblue" stroke="midnightblue" points="1479.81,-91.82 1480.12,-81.23 1473.28,-89.32 1479.81,-91.82"/>
</g>
<!-- Node11&#45;&gt;Node9 -->
<g id="edge17" class="edge">
<title>Node11&#45;&gt;Node9</title>
<path fill="none" stroke="midnightblue" d="M1276.89,-190.76C1278.61,-190.5 1280.32,-190.24 1282,-190 1367.71,-177.66 1597.27,-201 1670,-154 1709.24,-128.65 1723.46,-100.08 1708,-56 1704.21,-45.21 1696.63,-35.08 1689.4,-27.18"/>
<polygon fill="midnightblue" stroke="midnightblue" points="1691.67,-24.49 1682.16,-19.81 1686.67,-29.4 1691.67,-24.49"/>
</g>
<!-- Node12 -->
<g id="node13" class="node">
<title>Node12</title>
<g id="a_node13"><a xlink:title=" ">
<polygon fill="white" stroke="#bfbfbf" points="1110,-62 1110,-81 1168,-81 1168,-62 1110,-62"/>
<text text-anchor="middle" x="1139" y="-69" font-family="Helvetica,sans-Serif" font-size="10.00">memory</text>
</a>
</g>
</g>
<!-- Node11&#45;&gt;Node12 -->
<g id="edge15" class="edge">
<title>Node11&#45;&gt;Node12</title>
<path fill="none" stroke="midnightblue" d="M1177.96,-190.4C1163.73,-181.99 1148.09,-169.85 1140,-154 1129.97,-134.36 1131.78,-108.42 1134.73,-91.14"/>
<polygon fill="midnightblue" stroke="midnightblue" points="1138.2,-91.68 1136.73,-81.18 1131.33,-90.3 1138.2,-91.68"/>
</g>
<!-- Node13 -->
<g id="node14" class="node">
<title>Node13</title>
<g id="a_node14"><a xlink:href="wrap__function_8h.html" target="_top" xlink:title=" ">
<polygon fill="white" stroke="black" points="1517.5,-123.5 1517.5,-153.5 1660.5,-153.5 1660.5,-123.5 1517.5,-123.5"/>
<text text-anchor="start" x="1525.5" y="-141.5" font-family="Helvetica,sans-Serif" font-size="10.00">drake/bindings/pydrake</text>
<text text-anchor="middle" x="1589" y="-130.5" font-family="Helvetica,sans-Serif" font-size="10.00">/common/wrap_function.h</text>
</a>
</g>
</g>
<!-- Node11&#45;&gt;Node13 -->
<g id="edge19" class="edge">
<title>Node11&#45;&gt;Node13</title>
<path fill="none" stroke="midnightblue" d="M1276.84,-192.45C1281.63,-191.62 1286.39,-190.79 1291,-190 1364.08,-177.42 1447.29,-163.34 1507.18,-153.25"/>
<polygon fill="midnightblue" stroke="midnightblue" points="1508.05,-156.65 1517.33,-151.54 1506.89,-149.75 1508.05,-156.65"/>
</g>
<!-- Node11&#45;&gt;Node15 -->
<g id="edge23" class="edge">
<title>Node11&#45;&gt;Node15</title>
<path fill="none" stroke="midnightblue" d="M1139.21,-191.5C1081.38,-180.58 998.86,-164.98 939.27,-153.72"/>
<polygon fill="midnightblue" stroke="midnightblue" points="939.65,-150.23 929.17,-151.81 938.35,-157.11 939.65,-150.23"/>
</g>
<!-- Node23 -->
<g id="node24" class="node">
<title>Node23</title>
<g id="a_node24"><a xlink:href="copyable__unique__ptr_8h.html" target="_top" xlink:title=" ">
<polygon fill="white" stroke="black" points="1285.5,-123.5 1285.5,-153.5 1422.5,-153.5 1422.5,-123.5 1285.5,-123.5"/>
<text text-anchor="start" x="1293.5" y="-141.5" font-family="Helvetica,sans-Serif" font-size="10.00">drake/common/copyable</text>
<text text-anchor="middle" x="1354" y="-130.5" font-family="Helvetica,sans-Serif" font-size="10.00">_unique_ptr.h</text>
</a>
</g>
</g>
<!-- Node11&#45;&gt;Node23 -->
<g id="edge33" class="edge">
<title>Node11&#45;&gt;Node23</title>
<path fill="none" stroke="midnightblue" d="M1239.68,-190.4C1261.2,-180.81 1289.87,-168.05 1313.12,-157.7"/>
<polygon fill="midnightblue" stroke="midnightblue" points="1314.67,-160.84 1322.38,-153.58 1311.82,-154.45 1314.67,-160.84"/>
</g>
<!-- Node28 -->
<g id="node29" class="node">
<title>Node28</title>
<g id="a_node29"><a xlink:href="drake__copyable_8h.html" target="_top" xlink:title="Provides careful macros to selectively enable or disable the special member functions for copy&#45;constr...">
<polygon fill="white" stroke="black" points="1148.5,-123.5 1148.5,-153.5 1267.5,-153.5 1267.5,-123.5 1148.5,-123.5"/>
<text text-anchor="start" x="1156.5" y="-141.5" font-family="Helvetica,sans-Serif" font-size="10.00">drake/common/drake</text>
<text text-anchor="middle" x="1208" y="-130.5" font-family="Helvetica,sans-Serif" font-size="10.00">_copyable.h</text>
</a>
</g>
</g>
<!-- Node11&#45;&gt;Node28 -->
<g id="edge43" class="edge">
<title>Node11&#45;&gt;Node28</title>
<path fill="none" stroke="midnightblue" d="M1208,-190.4C1208,-182.64 1208,-172.81 1208,-163.86"/>
<polygon fill="midnightblue" stroke="midnightblue" points="1211.5,-163.58 1208,-153.58 1204.5,-163.58 1211.5,-163.58"/>
</g>
<!-- Node13&#45;&gt;Node3 -->
<g id="edge22" class="edge">
<title>Node13&#45;&gt;Node3</title>
<path fill="none" stroke="midnightblue" d="M1566,-123.4C1548.06,-112.39 1523.28,-97.2 1505.48,-86.28"/>
<polygon fill="midnightblue" stroke="midnightblue" points="1507.23,-83.25 1496.87,-81.01 1503.57,-89.22 1507.23,-83.25"/>
</g>
<!-- Node13&#45;&gt;Node9 -->
<g id="edge21" class="edge">
<title>Node13&#45;&gt;Node9</title>
<path fill="none" stroke="midnightblue" d="M1596.62,-123.32C1605.67,-106.79 1621.5,-78.82 1637,-56 1643.6,-46.28 1651.61,-35.89 1658.3,-27.55"/>
<polygon fill="midnightblue" stroke="midnightblue" points="1661.08,-29.68 1664.68,-19.71 1655.65,-25.26 1661.08,-29.68"/>
</g>
<!-- Node14 -->
<g id="node15" class="node">
<title>Node14</title>
<g id="a_node15"><a xlink:title=" ">
<polygon fill="white" stroke="#bfbfbf" points="1523.5,-62 1523.5,-81 1588.5,-81 1588.5,-62 1523.5,-62"/>
<text text-anchor="middle" x="1556" y="-69" font-family="Helvetica,sans-Serif" font-size="10.00">functional</text>
</a>
</g>
</g>
<!-- Node13&#45;&gt;Node14 -->
<g id="edge20" class="edge">
<title>Node13&#45;&gt;Node14</title>
<path fill="none" stroke="midnightblue" d="M1581.84,-123.4C1576.9,-113.66 1570.29,-100.65 1564.99,-90.21"/>
<polygon fill="midnightblue" stroke="midnightblue" points="1568.06,-88.53 1560.41,-81.19 1561.82,-91.7 1568.06,-88.53"/>
</g>
<!-- Node15&#45;&gt;Node3 -->
<g id="edge25" class="edge">
<title>Node15&#45;&gt;Node3</title>
<path fill="none" stroke="midnightblue" d="M929.26,-133.19C1071.88,-123.59 1402.54,-100.24 1452,-87 1453.94,-86.48 1455.9,-85.85 1457.85,-85.14"/>
<polygon fill="midnightblue" stroke="midnightblue" points="1459.47,-88.26 1467.32,-81.14 1456.74,-81.81 1459.47,-88.26"/>
</g>
<!-- Node15&#45;&gt;Node12 -->
<g id="edge24" class="edge">
<title>Node15&#45;&gt;Node12</title>
<path fill="none" stroke="midnightblue" d="M923.33,-123.48C976.77,-110.85 1053.78,-92.64 1099.86,-81.75"/>
<polygon fill="midnightblue" stroke="midnightblue" points="1100.84,-85.12 1109.76,-79.41 1099.23,-78.3 1100.84,-85.12"/>
</g>
<!-- Node16 -->
<g id="node17" class="node">
<title>Node16</title>
<g id="a_node17"><a xlink:title=" ">
<polygon fill="white" stroke="#bfbfbf" points="952.5,-62 952.5,-81 1053.5,-81 1053.5,-62 952.5,-62"/>
<text text-anchor="middle" x="1003" y="-69" font-family="Helvetica,sans-Serif" font-size="10.00">pybind11/eigen.h</text>
</a>
</g>
</g>
<!-- Node15&#45;&gt;Node16 -->
<g id="edge26" class="edge">
<title>Node15&#45;&gt;Node16</title>
<path fill="none" stroke="midnightblue" d="M894.16,-123.4C918.44,-112.04 952.28,-96.22 975.75,-85.24"/>
<polygon fill="midnightblue" stroke="midnightblue" points="977.23,-88.41 984.81,-81.01 974.27,-82.07 977.23,-88.41"/>
</g>
<!-- Node17 -->
<g id="node18" class="node">
<title>Node17</title>
<g id="a_node18"><a xlink:title=" ">
<polygon fill="white" stroke="#bfbfbf" points="150,-62 150,-81 272,-81 272,-62 150,-62"/>
<text text-anchor="middle" x="211" y="-69" font-family="Helvetica,sans-Serif" font-size="10.00">pybind11/functional.h</text>
</a>
</g>
</g>
<!-- Node15&#45;&gt;Node17 -->
<g id="edge27" class="edge">
<title>Node15&#45;&gt;Node17</title>
<path fill="none" stroke="midnightblue" d="M798.57,-134.35C690.41,-128.59 467.72,-114.33 281,-87 273.57,-85.91 265.75,-84.53 258.12,-83.05"/>
<polygon fill="midnightblue" stroke="midnightblue" points="258.77,-79.61 248.27,-81.07 257.39,-86.47 258.77,-79.61"/>
</g>
<!-- Node18 -->
<g id="node19" class="node">
<title>Node18</title>
<g id="a_node19"><a xlink:title=" ">
<polygon fill="white" stroke="#bfbfbf" points="290,-62 290,-81 396,-81 396,-62 290,-62"/>
<text text-anchor="middle" x="343" y="-69" font-family="Helvetica,sans-Serif" font-size="10.00">pybind11/numpy.h</text>
</a>
</g>
</g>
<!-- Node15&#45;&gt;Node18 -->
<g id="edge28" class="edge">
<title>Node15&#45;&gt;Node18</title>
<path fill="none" stroke="midnightblue" d="M798.67,-132.8C709.34,-125.8 544.27,-110.86 405,-87 398.85,-85.95 392.4,-84.65 386.08,-83.28"/>
<polygon fill="midnightblue" stroke="midnightblue" points="386.84,-79.86 376.31,-81.07 385.29,-86.69 386.84,-79.86"/>
</g>
<!-- Node19 -->
<g id="node20" class="node">
<title>Node19</title>
<g id="a_node20"><a xlink:title=" ">
<polygon fill="white" stroke="#bfbfbf" points="414,-62 414,-81 534,-81 534,-62 414,-62"/>
<text text-anchor="middle" x="474" y="-69" font-family="Helvetica,sans-Serif" font-size="10.00">pybind11/operators.h</text>
</a>
</g>
</g>
<!-- Node15&#45;&gt;Node19 -->
<g id="edge29" class="edge">
<title>Node15&#45;&gt;Node19</title>
<path fill="none" stroke="midnightblue" d="M798.97,-128.27C734.01,-118.81 631.36,-103.22 543,-87 536.45,-85.8 529.56,-84.45 522.78,-83.08"/>
<polygon fill="midnightblue" stroke="midnightblue" points="523.48,-79.64 512.98,-81.05 522.06,-86.5 523.48,-79.64"/>
</g>
<!-- Node20 -->
<g id="node21" class="node">
<title>Node20</title>
<g id="a_node21"><a xlink:title=" ">
<polygon fill="white" stroke="#bfbfbf" points="552.5,-62 552.5,-81 671.5,-81 671.5,-62 552.5,-62"/>
<text text-anchor="middle" x="612" y="-69" font-family="Helvetica,sans-Serif" font-size="10.00">pybind11/pybind11.h</text>
</a>
</g>
</g>
<!-- Node15&#45;&gt;Node20 -->
<g id="edge30" class="edge">
<title>Node15&#45;&gt;Node20</title>
<path fill="none" stroke="midnightblue" d="M809.63,-123.48C763.28,-111.52 697.57,-94.57 654.87,-83.56"/>
<polygon fill="midnightblue" stroke="midnightblue" points="655.62,-80.14 645.06,-81.03 653.87,-86.92 655.62,-80.14"/>
</g>
<!-- Node21 -->
<g id="node22" class="node">
<title>Node21</title>
<g id="a_node22"><a xlink:title=" ">
<polygon fill="white" stroke="#bfbfbf" points="690,-62 690,-81 776,-81 776,-62 690,-62"/>
<text text-anchor="middle" x="733" y="-69" font-family="Helvetica,sans-Serif" font-size="10.00">pybind11/stl.h</text>
</a>
</g>
</g>
<!-- Node15&#45;&gt;Node21 -->
<g id="edge31" class="edge">
<title>Node15&#45;&gt;Node21</title>
<path fill="none" stroke="midnightblue" d="M835.57,-123.4C812.89,-112.14 781.37,-96.5 759.28,-85.54"/>
<polygon fill="midnightblue" stroke="midnightblue" points="760.66,-82.32 750.14,-81.01 757.55,-88.59 760.66,-82.32"/>
</g>
<!-- Node22 -->
<g id="node23" class="node">
<title>Node22</title>
<g id="a_node23"><a xlink:title=" ">
<polygon fill="white" stroke="#bfbfbf" points="794,-62 794,-81 934,-81 934,-62 794,-62"/>
<text text-anchor="middle" x="864" y="-69" font-family="Helvetica,sans-Serif" font-size="10.00">pybind11/stl/filesystem.h</text>
</a>
</g>
</g>
<!-- Node15&#45;&gt;Node22 -->
<g id="edge32" class="edge">
<title>Node15&#45;&gt;Node22</title>
<path fill="none" stroke="midnightblue" d="M864,-123.4C864,-114.06 864,-101.71 864,-91.52"/>
<polygon fill="midnightblue" stroke="midnightblue" points="867.5,-91.19 864,-81.19 860.5,-91.19 867.5,-91.19"/>
</g>
<!-- Node23&#45;&gt;Node3 -->
<g id="edge36" class="edge">
<title>Node23&#45;&gt;Node3</title>
<path fill="none" stroke="midnightblue" d="M1381.99,-123.4C1404.33,-112.14 1435.37,-96.5 1457.13,-85.54"/>
<polygon fill="midnightblue" stroke="midnightblue" points="1458.76,-88.63 1466.12,-81.01 1455.61,-82.38 1458.76,-88.63"/>
</g>
<!-- Node23&#45;&gt;Node8 -->
<g id="edge34" class="edge">
<title>Node23&#45;&gt;Node8</title>
<path fill="none" stroke="midnightblue" d="M1422.61,-123.48C1487.86,-110.14 1583.53,-90.58 1635.36,-79.99"/>
<polygon fill="midnightblue" stroke="midnightblue" points="1636.32,-83.36 1645.42,-77.93 1634.92,-76.51 1636.32,-83.36"/>
</g>
<!-- Node23&#45;&gt;Node12 -->
<g id="edge35" class="edge">
<title>Node23&#45;&gt;Node12</title>
<path fill="none" stroke="midnightblue" d="M1300.92,-123.41C1265.83,-113.81 1218.92,-100.46 1178,-87 1175.6,-86.21 1173.12,-85.37 1170.64,-84.5"/>
<polygon fill="midnightblue" stroke="midnightblue" points="1171.76,-81.18 1161.17,-81.08 1169.39,-87.76 1171.76,-81.18"/>
</g>
<!-- Node24 -->
<g id="node25" class="node">
<title>Node24</title>
<g id="a_node25"><a xlink:href="drake__assert_8h.html" target="_top" xlink:title="Provides Drake&#39;s assertion implementation.">
<polygon fill="white" stroke="black" points="1323.5,-56.5 1323.5,-86.5 1442.5,-86.5 1442.5,-56.5 1323.5,-56.5"/>
<text text-anchor="start" x="1331.5" y="-74.5" font-family="Helvetica,sans-Serif" font-size="10.00">drake/common/drake</text>
<text text-anchor="middle" x="1383" y="-63.5" font-family="Helvetica,sans-Serif" font-size="10.00">_assert.h</text>
</a>
</g>
</g>
<!-- Node23&#45;&gt;Node24 -->
<g id="edge37" class="edge">
<title>Node23&#45;&gt;Node24</title>
<path fill="none" stroke="midnightblue" d="M1360.29,-123.4C1363.86,-115.39 1368.43,-105.16 1372.53,-95.98"/>
<polygon fill="midnightblue" stroke="midnightblue" points="1375.84,-97.13 1376.72,-86.58 1369.45,-94.28 1375.84,-97.13"/>
</g>
<!-- Node25 -->
<g id="node26" class="node">
<title>Node25</title>
<g id="a_node26"><a xlink:href="fmt_8h.html" target="_top" xlink:title=" ">
<polygon fill="white" stroke="black" points="1186.5,-62 1186.5,-81 1305.5,-81 1305.5,-62 1186.5,-62"/>
<text text-anchor="middle" x="1246" y="-69" font-family="Helvetica,sans-Serif" font-size="10.00">drake/common/fmt.h</text>
</a>
</g>
</g>
<!-- Node23&#45;&gt;Node25 -->
<g id="edge39" class="edge">
<title>Node23&#45;&gt;Node25</title>
<path fill="none" stroke="midnightblue" d="M1330.57,-123.4C1312.29,-112.39 1287.04,-97.2 1268.9,-86.28"/>
<polygon fill="midnightblue" stroke="midnightblue" points="1270.51,-83.16 1260.13,-81.01 1266.9,-89.16 1270.51,-83.16"/>
</g>
<!-- Node24&#45;&gt;Node9 -->
<g id="edge38" class="edge">
<title>Node24&#45;&gt;Node9</title>
<path fill="none" stroke="midnightblue" d="M1442.84,-57.91C1445.93,-57.26 1449,-56.62 1452,-56 1512.74,-43.41 1582.96,-29.08 1627.41,-20.05"/>
<polygon fill="midnightblue" stroke="midnightblue" points="1628.21,-23.46 1637.31,-18.04 1626.82,-16.6 1628.21,-23.46"/>
</g>
<!-- Node25&#45;&gt;Node2 -->
<g id="edge40" class="edge">
<title>Node25&#45;&gt;Node2</title>
<path fill="none" stroke="midnightblue" d="M1209.63,-61.94C1199.15,-59.72 1187.66,-57.53 1177,-56 971.48,-26.49 721.66,-15.26 634.14,-12.06"/>
<polygon fill="midnightblue" stroke="midnightblue" points="634.17,-8.56 624.05,-11.7 633.92,-15.55 634.17,-8.56"/>
</g>
<!-- Node26 -->
<g id="node27" class="node">
<title>Node26</title>
<g id="a_node27"><a xlink:title=" ">
<polygon fill="white" stroke="#bfbfbf" points="1261.5,-0.5 1261.5,-19.5 1334.5,-19.5 1334.5,-0.5 1261.5,-0.5"/>
<text text-anchor="middle" x="1298" y="-7.5" font-family="Helvetica,sans-Serif" font-size="10.00">string_view</text>
</a>
</g>
</g>
<!-- Node25&#45;&gt;Node26 -->
<g id="edge41" class="edge">
<title>Node25&#45;&gt;Node26</title>
<path fill="none" stroke="midnightblue" d="M1253.45,-61.98C1261.33,-52.96 1273.94,-38.52 1283.74,-27.31"/>
<polygon fill="midnightblue" stroke="midnightblue" points="1286.62,-29.34 1290.56,-19.51 1281.35,-24.74 1286.62,-29.34"/>
</g>
<!-- Node27 -->
<g id="node28" class="node">
<title>Node27</title>
<g id="a_node28"><a xlink:title=" ">
<polygon fill="white" stroke="#bfbfbf" points="1164.5,-0.5 1164.5,-19.5 1243.5,-19.5 1243.5,-0.5 1164.5,-0.5"/>
<text text-anchor="middle" x="1204" y="-7.5" font-family="Helvetica,sans-Serif" font-size="10.00">fmt/format.h</text>
</a>
</g>
</g>
<!-- Node25&#45;&gt;Node27 -->
<g id="edge42" class="edge">
<title>Node25&#45;&gt;Node27</title>
<path fill="none" stroke="midnightblue" d="M1239.98,-61.98C1233.74,-53.14 1223.83,-39.09 1215.98,-27.98"/>
<polygon fill="midnightblue" stroke="midnightblue" points="1218.63,-25.66 1210.01,-19.51 1212.91,-29.7 1218.63,-25.66"/>
</g>
</g>
</svg>
        <g id="navigator" transform="translate(0 0)" fill="#404254">
                <rect fill="#f2f5e9" fill-opacity="0.5" stroke="#606060" stroke-width=".5" x="0" y="0" width="60" height="60"/>
                <use id="zoomplus" xlink:href="#zoomPlus" x="17" y="9" onmousedown="handleZoom(evt,'in')"/>
                <use id="zoomminus" xlink:href="#zoomMin" x="42" y="9" onmousedown="handleZoom(evt,'out')"/>
                <use id="reset" xlink:href="#resetDef" x="30" y="36" onmousedown="handleReset()"/>
                <g id="arrowUp" xlink:href="#dirArrow" transform="translate(30 24)" onmousedown="handlePan(0,-1)">
                  <use xlink:href="#rim" fill="#404040">
                        <set attributeName="fill" to="#808080" begin="arrowUp.mouseover" end="arrowUp.mouseout"/>
                  </use>
                  <path fill="none" stroke="white" stroke-width="1.5" d="M0,-3.0v7 M-2.5,-0.5L0,-3.0L2.5,-0.5"/>
                </g>
                <g id="arrowRight" xlink:href="#dirArrow" transform="rotate(90) translate(36 -43)" onmousedown="handlePan(1,0)">
                  <use xlink:href="#rim" fill="#404040">
                        <set attributeName="fill" to="#808080" begin="arrowRight.mouseover" end="arrowRight.mouseout"/>
                  </use>
                  <path fill="none" stroke="white" stroke-width="1.5" d="M0,-3.0v7 M-2.5,-0.5L0,-3.0L2.5,-0.5"/>
                </g>
                <g id="arrowDown" xlink:href="#dirArrow" transform="rotate(180) translate(-30 -48)" onmousedown="handlePan(0,1)">
                  <use xlink:href="#rim" fill="#404040">
                        <set attributeName="fill" to="#808080" begin="arrowDown.mouseover" end="arrowDown.mouseout"/>
                  </use>
                  <path fill="none" stroke="white" stroke-width="1.5" d="M0,-3.0v7 M-2.5,-0.5L0,-3.0L2.5,-0.5"/>
                </g>
                <g id="arrowLeft" xlink:href="#dirArrow" transform="rotate(270) translate(-36 17)" onmousedown="handlePan(-1,0)">
                  <use xlink:href="#rim" fill="#404040">
                        <set attributeName="fill" to="#808080" begin="arrowLeft.mouseover" end="arrowLeft.mouseout"/>
                  </use>
                  <path fill="none" stroke="white" stroke-width="1.5" d="M0,-3.0v7 M-2.5,-0.5L0,-3.0L2.5,-0.5"/>
                </g>
        </g>
        <svg viewBox="0 0 15 15" width="100%" height="30px" preserveAspectRatio="xMaxYMin meet">
         <g id="arrow_out" transform="scale(0.3 0.3)">
          <a xlink:href="cpp__template__pybind_8h__incl_org.svg" target="_base">
           <rect id="button" ry="5" rx="5" y="6" x="6" height="38" width="38"
                fill="#f2f5e9" fill-opacity="0.5" stroke="#606060" stroke-width="1.0"/>
           <path id="arrow"
             d="M 11.500037,31.436501 C 11.940474,20.09759 22.043105,11.32322 32.158766,21.979434 L 37.068811,17.246167 C 37.068811,17.246167 37.088388,32 37.088388,32 L 22.160133,31.978069 C 22.160133,31.978069 26.997745,27.140456 26.997745,27.140456 C 18.528582,18.264221 13.291696,25.230495 11.500037,31.436501 z"
             style="fill:#404040;"/>
          </a>
         </g>
        </svg>
</svg>
