<?xml version="1.0" encoding="UTF-8" standalone="no"?>
<!DOCTYPE svg PUBLIC "-//W3C//DTD SVG 1.1//EN"
 "http://www.w3.org/Graphics/SVG/1.1/DTD/svg11.dtd">
<!-- Generated by graphviz version 2.43.0 (0)
 -->
<!-- Title: drake/bindings/pydrake/common/cpp_template_pybind.h Pages: 1 -->
<svg width="1229pt" height="363pt"
 viewBox="0.00 0.00 1229.36 363.00" xmlns="http://www.w3.org/2000/svg" xmlns:xlink="http://www.w3.org/1999/xlink">
<g id="graph0" class="graph" transform="scale(1 1) rotate(0) translate(4 359)">
<title>drake/bindings/pydrake/common/cpp_template_pybind.h</title>
<polygon fill="white" stroke="transparent" points="-4,4 -4,-359 1225.36,-359 1225.36,4 -4,4"/>
<!-- Node0 -->
<g id="node1" class="node">
<title>Node0</title>
<g id="a_node1"><a xlink:title=" ">
<polygon fill="#bfbfbf" stroke="black" points="125.36,-324.5 125.36,-354.5 304.36,-354.5 304.36,-324.5 125.36,-324.5"/>
<text text-anchor="start" x="133.36" y="-342.5" font-family="Helvetica,sans-Serif" font-size="10.00">drake/bindings/pydrake</text>
<text text-anchor="middle" x="214.86" y="-331.5" font-family="Helvetica,sans-Serif" font-size="10.00">/common/cpp_template_pybind.h</text>
</a>
</g>
</g>
<!-- Node1 -->
<g id="node2" class="node">
<title>Node1</title>
<g id="a_node2"><a xlink:title=" ">
<polygon fill="white" stroke="#bfbfbf" points="828.86,-129 828.86,-148 872.86,-148 872.86,-129 828.86,-129"/>
<text text-anchor="middle" x="850.86" y="-136" font-family="Helvetica,sans-Serif" font-size="10.00">string</text>
</a>
</g>
</g>
<!-- Node0&#45;&gt;Node1 -->
<g id="edge1" class="edge">
<title>Node0&#45;&gt;Node1</title>
<path fill="none" stroke="midnightblue" d="M304.71,-338.9C389.23,-336.63 518.1,-326.26 622.86,-288 709.94,-256.19 797.51,-185.87 833.63,-154.79"/>
<polygon fill="midnightblue" stroke="midnightblue" points="836.06,-157.31 841.3,-148.11 831.46,-152.04 836.06,-157.31"/>
</g>
<!-- Node2 -->
<g id="node3" class="node">
<title>Node2</title>
<g id="a_node3"><a xlink:title=" ">
<polygon fill="white" stroke="#bfbfbf" points="307.36,-62 307.36,-81 352.36,-81 352.36,-62 307.36,-62"/>
<text text-anchor="middle" x="329.86" y="-69" font-family="Helvetica,sans-Serif" font-size="10.00">utility</text>
</a>
</g>
</g>
<!-- Node0&#45;&gt;Node2 -->
<g id="edge2" class="edge">
<title>Node0&#45;&gt;Node2</title>
<path fill="none" stroke="midnightblue" d="M236.05,-324.45C274.7,-297.2 354.54,-232.83 374.86,-154 378.3,-140.66 379.76,-135.88 374.86,-123 369.63,-109.28 358.78,-96.92 349.04,-87.86"/>
<polygon fill="midnightblue" stroke="midnightblue" points="351.11,-85.02 341.27,-81.07 346.5,-90.29 351.11,-85.02"/>
</g>
<!-- Node3 -->
<g id="node4" class="node">
<title>Node3</title>
<g id="a_node4"><a xlink:title=" ">
<polygon fill="white" stroke="#bfbfbf" points="64.86,-263 64.86,-282 186.86,-282 186.86,-263 64.86,-263"/>
<text text-anchor="middle" x="125.86" y="-270" font-family="Helvetica,sans-Serif" font-size="10.00">pybind11/functional.h</text>
</a>
</g>
</g>
<!-- Node0&#45;&gt;Node3 -->
<g id="edge3" class="edge">
<title>Node0&#45;&gt;Node3</title>
<path fill="none" stroke="midnightblue" d="M195.54,-324.4C180.9,-313.7 160.82,-299.03 145.97,-288.19"/>
<polygon fill="midnightblue" stroke="midnightblue" points="147.64,-285.08 137.5,-282.01 143.52,-290.73 147.64,-285.08"/>
</g>
<!-- Node4 -->
<g id="node5" class="node">
<title>Node4</title>
<g id="a_node5"><a xlink:title=" ">
<polygon fill="white" stroke="#bfbfbf" points="6.36,-62 6.36,-81 125.36,-81 125.36,-62 6.36,-62"/>
<text text-anchor="middle" x="65.86" y="-69" font-family="Helvetica,sans-Serif" font-size="10.00">pybind11/pybind11.h</text>
</a>
</g>
</g>
<!-- Node0&#45;&gt;Node4 -->
<g id="edge4" class="edge">
<title>Node0&#45;&gt;Node4</title>
<path fill="none" stroke="midnightblue" d="M125.2,-330.23C95.9,-323.19 65.6,-310.54 44.86,-288 -5.52,-233.27 -11.09,-191.93 16.86,-123 22.58,-108.89 34.35,-96.54 44.92,-87.59"/>
<polygon fill="midnightblue" stroke="midnightblue" points="47.35,-90.13 53,-81.17 42.99,-84.65 47.35,-90.13"/>
</g>
<!-- Node5 -->
<g id="node6" class="node">
<title>Node5</title>
<g id="a_node6"><a xlink:title=" ">
<polygon fill="white" stroke="#bfbfbf" points="242.86,-196 242.86,-215 328.86,-215 328.86,-196 242.86,-196"/>
<text text-anchor="middle" x="285.86" y="-203" font-family="Helvetica,sans-Serif" font-size="10.00">pybind11/stl.h</text>
</a>
</g>
</g>
<!-- Node0&#45;&gt;Node5 -->
<g id="edge5" class="edge">
<title>Node0&#45;&gt;Node5</title>
<path fill="none" stroke="midnightblue" d="M130.29,-324.44C79.1,-312.19 28.54,-290.96 55.86,-257 77.59,-229.97 171.56,-216.59 232.46,-210.63"/>
<polygon fill="midnightblue" stroke="midnightblue" points="233.05,-214.09 242.68,-209.67 232.39,-207.12 233.05,-214.09"/>
</g>
<!-- Node6 -->
<g id="node7" class="node">
<title>Node6</title>
<g id="a_node7"><a xlink:href="cpp__param__pybind_8h.html" target="_top" xlink:title="Provides a mechanism to map C++ types to canonical Python types.">
<polygon fill="white" stroke="black" points="446.36,-257.5 446.36,-287.5 613.36,-287.5 613.36,-257.5 446.36,-257.5"/>
<text text-anchor="start" x="454.36" y="-275.5" font-family="Helvetica,sans-Serif" font-size="10.00">drake/bindings/pydrake</text>
<text text-anchor="middle" x="529.86" y="-264.5" font-family="Helvetica,sans-Serif" font-size="10.00">/common/cpp_param_pybind.h</text>
</a>
</g>
</g>
<!-- Node0&#45;&gt;Node6 -->
<g id="edge6" class="edge">
<title>Node0&#45;&gt;Node6</title>
<path fill="none" stroke="midnightblue" d="M282.82,-324.48C332.52,-314.22 400.03,-300.29 451.92,-289.58"/>
<polygon fill="midnightblue" stroke="midnightblue" points="452.66,-293 461.74,-287.55 451.24,-286.15 452.66,-293"/>
</g>
<!-- Node17 -->
<g id="node18" class="node">
<title>Node17</title>
<g id="a_node18"><a xlink:href="pydrake__pybind_8h.html" target="_top" xlink:title=" ">
<polygon fill="white" stroke="black" points="35.86,-123.5 35.86,-153.5 165.86,-153.5 165.86,-123.5 35.86,-123.5"/>
<text text-anchor="start" x="43.86" y="-141.5" font-family="Helvetica,sans-Serif" font-size="10.00">drake/bindings/pydrake</text>
<text text-anchor="middle" x="100.86" y="-130.5" font-family="Helvetica,sans-Serif" font-size="10.00">/pydrake_pybind.h</text>
</a>
</g>
</g>
<!-- Node0&#45;&gt;Node17 -->
<g id="edge44" class="edge">
<title>Node0&#45;&gt;Node17</title>
<path fill="none" stroke="midnightblue" d="M213.5,-324.3C211.46,-307.51 206.64,-279.06 195.86,-257 177.42,-219.26 144.88,-182.76 123.09,-160.72"/>
<polygon fill="midnightblue" stroke="midnightblue" points="125.44,-158.11 115.88,-153.55 120.5,-163.08 125.44,-158.11"/>
</g>
<!-- Node6&#45;&gt;Node1 -->
<g id="edge7" class="edge">
<title>Node6&#45;&gt;Node1</title>
<path fill="none" stroke="midnightblue" d="M552.77,-257.48C568.52,-247.65 589.78,-233.99 607.86,-221 625.84,-208.08 626.84,-199.46 646.86,-190 715.9,-157.38 741.84,-176.35 814.86,-154 817.14,-153.3 819.48,-152.52 821.82,-151.69"/>
<polygon fill="midnightblue" stroke="midnightblue" points="823.16,-154.92 831.27,-148.1 820.68,-148.38 823.16,-154.92"/>
</g>
<!-- Node6&#45;&gt;Node4 -->
<g id="edge10" class="edge">
<title>Node6&#45;&gt;Node4</title>
<path fill="none" stroke="midnightblue" d="M495.89,-257.5C471.61,-247.44 438.17,-233.51 408.86,-221 377.19,-207.48 371.1,-198.97 337.86,-190 270.68,-171.88 73.14,-205.95 26.86,-154 9.48,-134.5 31.21,-105.89 48.52,-88.27"/>
<polygon fill="midnightblue" stroke="midnightblue" points="51.26,-90.49 56.01,-81.02 46.39,-85.46 51.26,-90.49"/>
</g>
<!-- Node6&#45;&gt;Node5 -->
<g id="edge11" class="edge">
<title>Node6&#45;&gt;Node5</title>
<path fill="none" stroke="midnightblue" d="M477.21,-257.48C432.43,-245.55 368.98,-228.64 327.63,-217.63"/>
<polygon fill="midnightblue" stroke="midnightblue" points="328.44,-214.22 317.87,-215.03 326.63,-220.98 328.44,-214.22"/>
</g>
<!-- Node7 -->
<g id="node8" class="node">
<title>Node7</title>
<g id="a_node8"><a xlink:title=" ">
<polygon fill="white" stroke="#bfbfbf" points="1164.36,-62 1164.36,-81 1221.36,-81 1221.36,-62 1164.36,-62"/>
<text text-anchor="middle" x="1192.86" y="-69" font-family="Helvetica,sans-Serif" font-size="10.00">typeinfo</text>
</a>
</g>
</g>
<!-- Node6&#45;&gt;Node7 -->
<g id="edge8" class="edge">
<title>Node6&#45;&gt;Node7</title>
<path fill="none" stroke="midnightblue" d="M613.63,-258.6C714.53,-241.53 888.16,-207.23 1029.86,-154 1081.39,-134.64 1138.17,-103.95 1169.26,-86.27"/>
<polygon fill="midnightblue" stroke="midnightblue" points="1171.12,-89.24 1178.05,-81.23 1167.63,-83.17 1171.12,-89.24"/>
</g>
<!-- Node8 -->
<g id="node9" class="node">
<title>Node8</title>
<g id="a_node9"><a xlink:title=" ">
<polygon fill="white" stroke="#bfbfbf" points="655.36,-196 655.36,-215 702.36,-215 702.36,-196 655.36,-196"/>
<text text-anchor="middle" x="678.86" y="-203" font-family="Helvetica,sans-Serif" font-size="10.00">vector</text>
</a>
</g>
</g>
<!-- Node6&#45;&gt;Node8 -->
<g id="edge9" class="edge">
<title>Node6&#45;&gt;Node8</title>
<path fill="none" stroke="midnightblue" d="M562.19,-257.4C588.33,-245.99 624.81,-230.08 649.98,-219.1"/>
<polygon fill="midnightblue" stroke="midnightblue" points="651.59,-222.21 659.36,-215.01 648.79,-215.8 651.59,-222.21"/>
</g>
<!-- Node9 -->
<g id="node10" class="node">
<title>Node9</title>
<g id="a_node10"><a xlink:href="type__pack_8h.html" target="_top" xlink:title="Basic meta&#45;programming utilities for types, focused on template parameter packs.">
<polygon fill="white" stroke="black" points="890.86,-123.5 890.86,-153.5 1020.86,-153.5 1020.86,-123.5 890.86,-123.5"/>
<text text-anchor="start" x="898.86" y="-141.5" font-family="Helvetica,sans-Serif" font-size="10.00">drake/bindings/pydrake</text>
<text text-anchor="middle" x="955.86" y="-130.5" font-family="Helvetica,sans-Serif" font-size="10.00">/common/type_pack.h</text>
</a>
</g>
</g>
<!-- Node6&#45;&gt;Node9 -->
<g id="edge12" class="edge">
<title>Node6&#45;&gt;Node9</title>
<path fill="none" stroke="midnightblue" d="M583.42,-257.42C619.79,-247.67 668.89,-234.13 711.86,-221 779.59,-200.31 857.03,-173.98 906.17,-156.94"/>
<polygon fill="midnightblue" stroke="midnightblue" points="907.61,-160.14 915.91,-153.55 905.31,-153.53 907.61,-160.14"/>
</g>
<!-- Node13 -->
<g id="node14" class="node">
<title>Node13</title>
<g id="a_node14"><a xlink:href="wrap__pybind_8h.html" target="_top" xlink:title="Defines convenience utilities to wrap pybind11 methods and classes.">
<polygon fill="white" stroke="black" points="461.36,-190.5 461.36,-220.5 598.36,-220.5 598.36,-190.5 461.36,-190.5"/>
<text text-anchor="start" x="469.36" y="-208.5" font-family="Helvetica,sans-Serif" font-size="10.00">drake/bindings/pydrake</text>
<text text-anchor="middle" x="529.86" y="-197.5" font-family="Helvetica,sans-Serif" font-size="10.00">/common/wrap_pybind.h</text>
</a>
</g>
</g>
<!-- Node6&#45;&gt;Node13 -->
<g id="edge18" class="edge">
<title>Node6&#45;&gt;Node13</title>
<path fill="none" stroke="midnightblue" d="M529.86,-257.4C529.86,-249.64 529.86,-239.81 529.86,-230.86"/>
<polygon fill="midnightblue" stroke="midnightblue" points="533.36,-230.58 529.86,-220.58 526.36,-230.58 533.36,-230.58"/>
</g>
<!-- Node6&#45;&gt;Node17 -->
<g id="edge43" class="edge">
<title>Node6&#45;&gt;Node17</title>
<path fill="none" stroke="midnightblue" d="M507.82,-257.33C492.35,-247.31 471.23,-233.49 452.86,-221 433.07,-207.55 431.03,-198.98 408.86,-190 313.36,-151.32 281.42,-171.3 179.86,-154 178.58,-153.78 177.29,-153.56 176,-153.34"/>
<polygon fill="midnightblue" stroke="midnightblue" points="176.38,-149.85 165.93,-151.58 175.18,-156.75 176.38,-149.85"/>
</g>
<!-- Node9&#45;&gt;Node2 -->
<g id="edge17" class="edge">
<title>Node9&#45;&gt;Node2</title>
<path fill="none" stroke="midnightblue" d="M890.56,-124.25C887.62,-123.8 884.71,-123.38 881.86,-123 652.19,-92.67 586.47,-143.71 361.86,-87 359.65,-86.44 357.4,-85.74 355.17,-84.94"/>
<polygon fill="midnightblue" stroke="midnightblue" points="356.31,-81.62 345.73,-81.04 353.63,-88.09 356.31,-81.62"/>
</g>
<!-- Node9&#45;&gt;Node7 -->
<g id="edge16" class="edge">
<title>Node9&#45;&gt;Node7</title>
<path fill="none" stroke="midnightblue" d="M1019.94,-123.49C1059.47,-114.32 1111.01,-101.38 1155.86,-87 1158.13,-86.27 1160.46,-85.47 1162.8,-84.64"/>
<polygon fill="midnightblue" stroke="midnightblue" points="1164.14,-87.88 1172.28,-81.09 1161.69,-81.32 1164.14,-87.88"/>
</g>
<!-- Node10 -->
<g id="node11" class="node">
<title>Node10</title>
<g id="a_node11"><a xlink:title=" ">
<polygon fill="white" stroke="#bfbfbf" points="796.36,-62 796.36,-81 849.36,-81 849.36,-62 796.36,-62"/>
<text text-anchor="middle" x="822.86" y="-69" font-family="Helvetica,sans-Serif" font-size="10.00">cstddef</text>
</a>
</g>
</g>
<!-- Node9&#45;&gt;Node10 -->
<g id="edge13" class="edge">
<title>Node9&#45;&gt;Node10</title>
<path fill="none" stroke="midnightblue" d="M927,-123.4C903.97,-112.14 871.97,-96.5 849.53,-85.54"/>
<polygon fill="midnightblue" stroke="midnightblue" points="850.78,-82.25 840.26,-81.01 847.71,-88.54 850.78,-82.25"/>
</g>
<!-- Node11 -->
<g id="node12" class="node">
<title>Node11</title>
<g id="a_node12"><a xlink:title=" ">
<polygon fill="white" stroke="#bfbfbf" points="675.36,-0.5 675.36,-19.5 744.36,-19.5 744.36,-0.5 675.36,-0.5"/>
<text text-anchor="middle" x="709.86" y="-7.5" font-family="Helvetica,sans-Serif" font-size="10.00">type_traits</text>
</a>
</g>
</g>
<!-- Node9&#45;&gt;Node11 -->
<g id="edge14" class="edge">
<title>Node9&#45;&gt;Node11</title>
<path fill="none" stroke="midnightblue" d="M948.63,-123.32C938.5,-104.9 918.3,-73.09 891.86,-56 850.2,-29.08 793.65,-18.26 754.7,-13.92"/>
<polygon fill="midnightblue" stroke="midnightblue" points="755,-10.43 744.7,-12.9 754.29,-17.39 755,-10.43"/>
</g>
<!-- Node12 -->
<g id="node13" class="node">
<title>Node12</title>
<g id="a_node13"><a xlink:title=" ">
<polygon fill="white" stroke="#bfbfbf" points="1081.36,-62 1081.36,-81 1146.36,-81 1146.36,-62 1081.36,-62"/>
<text text-anchor="middle" x="1113.86" y="-69" font-family="Helvetica,sans-Serif" font-size="10.00">typeindex</text>
</a>
</g>
</g>
<!-- Node9&#45;&gt;Node12 -->
<g id="edge15" class="edge">
<title>Node9&#45;&gt;Node12</title>
<path fill="none" stroke="midnightblue" d="M990.14,-123.4C1017.99,-111.94 1056.88,-95.94 1083.59,-84.95"/>
<polygon fill="midnightblue" stroke="midnightblue" points="1085.26,-88.05 1093.18,-81.01 1082.6,-81.57 1085.26,-88.05"/>
</g>
<!-- Node13&#45;&gt;Node1 -->
<g id="edge20" class="edge">
<title>Node13&#45;&gt;Node1</title>
<path fill="none" stroke="midnightblue" d="M598.66,-192.49C681.32,-178.03 809.63,-155.5 814.86,-154 817.29,-153.3 819.79,-152.5 822.28,-151.63"/>
<polygon fill="midnightblue" stroke="midnightblue" points="823.56,-154.88 831.68,-148.08 821.09,-148.34 823.56,-154.88"/>
</g>
<!-- Node13&#45;&gt;Node2 -->
<g id="edge22" class="edge">
<title>Node13&#45;&gt;Node2</title>
<path fill="none" stroke="midnightblue" d="M506.1,-190.46C489.77,-180.62 467.7,-166.96 448.86,-154 430.03,-141.05 426.57,-136.11 407.86,-123 389.52,-110.16 368.14,-96.4 352.41,-86.49"/>
<polygon fill="midnightblue" stroke="midnightblue" points="354.2,-83.48 343.87,-81.14 350.48,-89.41 354.2,-83.48"/>
</g>
<!-- Node13&#45;&gt;Node4 -->
<g id="edge23" class="edge">
<title>Node13&#45;&gt;Node4</title>
<path fill="none" stroke="midnightblue" d="M461.21,-192.7C455.68,-191.78 450.18,-190.87 444.86,-190 342.31,-173.26 309.02,-195.71 213.86,-154 193.58,-145.11 193.7,-134.62 174.86,-123 150.12,-107.74 120.01,-94.13 97.71,-84.89"/>
<polygon fill="midnightblue" stroke="midnightblue" points="98.95,-81.62 88.36,-81.09 96.31,-88.1 98.95,-81.62"/>
</g>
<!-- Node13&#45;&gt;Node11 -->
<g id="edge21" class="edge">
<title>Node13&#45;&gt;Node11</title>
<path fill="none" stroke="midnightblue" d="M598.63,-190.94C672.53,-176.33 779.76,-155.03 781.86,-154 786.95,-151.5 856.51,-92.16 858.86,-87 864.57,-74.46 867.07,-67.06 858.86,-56 835.13,-24.05 789.4,-13.97 754.82,-11.17"/>
<polygon fill="midnightblue" stroke="midnightblue" points="754.69,-7.65 744.49,-10.52 754.25,-14.64 754.69,-7.65"/>
</g>
<!-- Node14 -->
<g id="node15" class="node">
<title>Node14</title>
<g id="a_node15"><a xlink:title=" ">
<polygon fill="white" stroke="#bfbfbf" points="370.86,-62 370.86,-81 428.86,-81 428.86,-62 370.86,-62"/>
<text text-anchor="middle" x="399.86" y="-69" font-family="Helvetica,sans-Serif" font-size="10.00">memory</text>
</a>
</g>
</g>
<!-- Node13&#45;&gt;Node14 -->
<g id="edge19" class="edge">
<title>Node13&#45;&gt;Node14</title>
<path fill="none" stroke="midnightblue" d="M515.94,-190.37C491.49,-165.54 440.97,-114.24 415.4,-88.28"/>
<polygon fill="midnightblue" stroke="midnightblue" points="417.83,-85.77 408.32,-81.1 412.85,-90.68 417.83,-85.77"/>
</g>
<!-- Node15 -->
<g id="node16" class="node">
<title>Node15</title>
<g id="a_node16"><a xlink:href="wrap__function_8h.html" target="_top" xlink:title=" ">
<polygon fill="white" stroke="black" points="222.36,-123.5 222.36,-153.5 365.36,-153.5 365.36,-123.5 222.36,-123.5"/>
<text text-anchor="start" x="230.36" y="-141.5" font-family="Helvetica,sans-Serif" font-size="10.00">drake/bindings/pydrake</text>
<text text-anchor="middle" x="293.86" y="-130.5" font-family="Helvetica,sans-Serif" font-size="10.00">/common/wrap_function.h</text>
</a>
</g>
</g>
<!-- Node13&#45;&gt;Node15 -->
<g id="edge24" class="edge">
<title>Node13&#45;&gt;Node15</title>
<path fill="none" stroke="midnightblue" d="M478.94,-190.48C442.62,-180.47 393.6,-166.97 355.13,-156.38"/>
<polygon fill="midnightblue" stroke="midnightblue" points="355.66,-152.89 345.09,-153.61 353.8,-159.64 355.66,-152.89"/>
</g>
<!-- Node13&#45;&gt;Node17 -->
<g id="edge28" class="edge">
<title>Node13&#45;&gt;Node17</title>
<path fill="none" stroke="midnightblue" d="M461.05,-192.27C456.25,-191.48 451.48,-190.72 446.86,-190 328.52,-171.69 298.11,-172.81 179.86,-154 178.58,-153.8 177.29,-153.59 175.99,-153.38"/>
<polygon fill="midnightblue" stroke="midnightblue" points="176.35,-149.89 165.91,-151.69 175.2,-156.79 176.35,-149.89"/>
</g>
<!-- Node18 -->
<g id="node19" class="node">
<title>Node18</title>
<g id="a_node19"><a xlink:href="copyable__unique__ptr_8h.html" target="_top" xlink:title=" ">
<polygon fill="white" stroke="black" points="635.36,-123.5 635.36,-153.5 772.36,-153.5 772.36,-123.5 635.36,-123.5"/>
<text text-anchor="start" x="643.36" y="-141.5" font-family="Helvetica,sans-Serif" font-size="10.00">drake/common/copyable</text>
<text text-anchor="middle" x="703.86" y="-130.5" font-family="Helvetica,sans-Serif" font-size="10.00">_unique_ptr.h</text>
</a>
</g>
</g>
<!-- Node13&#45;&gt;Node18 -->
<g id="edge31" class="edge">
<title>Node13&#45;&gt;Node18</title>
<path fill="none" stroke="midnightblue" d="M567.61,-190.4C593.72,-180.64 628.65,-167.59 656.6,-157.15"/>
<polygon fill="midnightblue" stroke="midnightblue" points="658.03,-160.35 666.17,-153.58 655.58,-153.8 658.03,-160.35"/>
</g>
<!-- Node25 -->
<g id="node26" class="node">
<title>Node25</title>
<g id="a_node26"><a xlink:href="drake__copyable_8h.html" target="_top" xlink:title="Provides careful macros to selectively enable or disable the special member functions for copy&#45;constr...">
<polygon fill="white" stroke="black" points="498.36,-123.5 498.36,-153.5 617.36,-153.5 617.36,-123.5 498.36,-123.5"/>
<text text-anchor="start" x="506.36" y="-141.5" font-family="Helvetica,sans-Serif" font-size="10.00">drake/common/drake</text>
<text text-anchor="middle" x="557.86" y="-130.5" font-family="Helvetica,sans-Serif" font-size="10.00">_copyable.h</text>
</a>
</g>
</g>
<!-- Node13&#45;&gt;Node25 -->
<g id="edge42" class="edge">
<title>Node13&#45;&gt;Node25</title>
<path fill="none" stroke="midnightblue" d="M535.93,-190.4C539.38,-182.39 543.79,-172.16 547.74,-162.98"/>
<polygon fill="midnightblue" stroke="midnightblue" points="551.05,-164.15 551.79,-153.58 544.62,-161.38 551.05,-164.15"/>
</g>
<!-- Node15&#45;&gt;Node2 -->
<g id="edge27" class="edge">
<title>Node15&#45;&gt;Node2</title>
<path fill="none" stroke="midnightblue" d="M301.67,-123.4C307.06,-113.66 314.27,-100.65 320.05,-90.21"/>
<polygon fill="midnightblue" stroke="midnightblue" points="323.26,-91.64 325.04,-81.19 317.13,-88.25 323.26,-91.64"/>
</g>
<!-- Node15&#45;&gt;Node11 -->
<g id="edge26" class="edge">
<title>Node15&#45;&gt;Node11</title>
<path fill="none" stroke="midnightblue" d="M289.83,-123.27C285.64,-105.09 281.84,-73.85 298.86,-56 323.79,-29.84 563.81,-16.99 665.11,-12.7"/>
<polygon fill="midnightblue" stroke="midnightblue" points="665.48,-16.19 675.32,-12.28 665.19,-9.19 665.48,-16.19"/>
</g>
<!-- Node16 -->
<g id="node17" class="node">
<title>Node16</title>
<g id="a_node17"><a xlink:title=" ">
<polygon fill="white" stroke="#bfbfbf" points="185.36,-62 185.36,-81 250.36,-81 250.36,-62 185.36,-62"/>
<text text-anchor="middle" x="217.86" y="-69" font-family="Helvetica,sans-Serif" font-size="10.00">functional</text>
</a>
</g>
</g>
<!-- Node15&#45;&gt;Node16 -->
<g id="edge25" class="edge">
<title>Node15&#45;&gt;Node16</title>
<path fill="none" stroke="midnightblue" d="M277.37,-123.4C265.16,-112.96 248.55,-98.75 235.98,-88"/>
<polygon fill="midnightblue" stroke="midnightblue" points="237.9,-85.03 228.02,-81.19 233.35,-90.35 237.9,-85.03"/>
</g>
<!-- Node17&#45;&gt;Node2 -->
<g id="edge29" class="edge">
<title>Node17&#45;&gt;Node2</title>
<path fill="none" stroke="midnightblue" d="M150.26,-123.48C194.73,-110.85 258.82,-92.66 297.2,-81.77"/>
<polygon fill="midnightblue" stroke="midnightblue" points="298.64,-85 307.3,-78.9 296.73,-78.27 298.64,-85"/>
</g>
<!-- Node17&#45;&gt;Node4 -->
<g id="edge30" class="edge">
<title>Node17&#45;&gt;Node4</title>
<path fill="none" stroke="midnightblue" d="M93.26,-123.4C88.02,-113.66 81.01,-100.65 75.39,-90.21"/>
<polygon fill="midnightblue" stroke="midnightblue" points="78.36,-88.34 70.54,-81.19 72.2,-91.66 78.36,-88.34"/>
</g>
<!-- Node18&#45;&gt;Node2 -->
<g id="edge35" class="edge">
<title>Node18&#45;&gt;Node2</title>
<path fill="none" stroke="midnightblue" d="M635.04,-124.36C632.28,-123.89 629.54,-123.43 626.86,-123 509.53,-104 476.08,-119.87 361.86,-87 359.92,-86.44 357.96,-85.79 356,-85.07"/>
<polygon fill="midnightblue" stroke="midnightblue" points="357.03,-81.71 346.45,-81.12 354.35,-88.18 357.03,-81.71"/>
</g>
<!-- Node18&#45;&gt;Node10 -->
<g id="edge32" class="edge">
<title>Node18&#45;&gt;Node10</title>
<path fill="none" stroke="midnightblue" d="M729.68,-123.4C750.1,-112.24 778.4,-96.78 798.45,-85.83"/>
<polygon fill="midnightblue" stroke="midnightblue" points="800.18,-88.87 807.28,-81.01 796.83,-82.73 800.18,-88.87"/>
</g>
<!-- Node18&#45;&gt;Node14 -->
<g id="edge33" class="edge">
<title>Node18&#45;&gt;Node14</title>
<path fill="none" stroke="midnightblue" d="M635.17,-124.56C558.26,-110.04 443.64,-88.33 438.86,-87 436.21,-86.26 433.49,-85.42 430.77,-84.53"/>
<polygon fill="midnightblue" stroke="midnightblue" points="431.7,-81.14 421.1,-81.13 429.38,-87.75 431.7,-81.14"/>
</g>
<!-- Node19 -->
<g id="node20" class="node">
<title>Node19</title>
<g id="a_node20"><a xlink:title=" ">
<polygon fill="white" stroke="#bfbfbf" points="584.36,-62 584.36,-81 641.36,-81 641.36,-62 584.36,-62"/>
<text text-anchor="middle" x="612.86" y="-69" font-family="Helvetica,sans-Serif" font-size="10.00">ostream</text>
</a>
</g>
</g>
<!-- Node18&#45;&gt;Node19 -->
<g id="edge34" class="edge">
<title>Node18&#45;&gt;Node19</title>
<path fill="none" stroke="midnightblue" d="M684.11,-123.4C668.99,-112.6 648.22,-97.76 633,-86.89"/>
<polygon fill="midnightblue" stroke="midnightblue" points="634.94,-83.97 624.77,-81.01 630.87,-89.67 634.94,-83.97"/>
</g>
<!-- Node20 -->
<g id="node21" class="node">
<title>Node20</title>
<g id="a_node21"><a xlink:href="drake__assert_8h.html" target="_top" xlink:title="Provides Drake&#39;s assertion implementation.">
<polygon fill="white" stroke="black" points="447.36,-56.5 447.36,-86.5 566.36,-86.5 566.36,-56.5 447.36,-56.5"/>
<text text-anchor="start" x="455.36" y="-74.5" font-family="Helvetica,sans-Serif" font-size="10.00">drake/common/drake</text>
<text text-anchor="middle" x="506.86" y="-63.5" font-family="Helvetica,sans-Serif" font-size="10.00">_assert.h</text>
</a>
</g>
</g>
<!-- Node18&#45;&gt;Node20 -->
<g id="edge36" class="edge">
<title>Node18&#45;&gt;Node20</title>
<path fill="none" stroke="midnightblue" d="M661.11,-123.4C631.16,-113.52 590.97,-100.25 559.12,-89.74"/>
<polygon fill="midnightblue" stroke="midnightblue" points="560.11,-86.39 549.52,-86.58 557.92,-93.03 560.11,-86.39"/>
</g>
<!-- Node21 -->
<g id="node22" class="node">
<title>Node21</title>
<g id="a_node22"><a xlink:href="drake__deprecated_8h.html" target="_top" xlink:title="Provides a portable macro for use in generating compile&#45;time warnings for use of code that is permitt...">
<polygon fill="white" stroke="black" points="659.36,-56.5 659.36,-86.5 778.36,-86.5 778.36,-56.5 659.36,-56.5"/>
<text text-anchor="start" x="667.36" y="-74.5" font-family="Helvetica,sans-Serif" font-size="10.00">drake/common/drake</text>
<text text-anchor="middle" x="718.86" y="-63.5" font-family="Helvetica,sans-Serif" font-size="10.00">_deprecated.h</text>
</a>
</g>
</g>
<!-- Node18&#45;&gt;Node21 -->
<g id="edge38" class="edge">
<title>Node18&#45;&gt;Node21</title>
<path fill="none" stroke="midnightblue" d="M707.11,-123.4C708.92,-115.56 711.22,-105.6 713.3,-96.57"/>
<polygon fill="midnightblue" stroke="midnightblue" points="716.77,-97.11 715.61,-86.58 709.95,-95.53 716.77,-97.11"/>
</g>
<!-- Node22 -->
<g id="node23" class="node">
<title>Node22</title>
<g id="a_node23"><a xlink:href="fmt_8h.html" target="_top" xlink:title=" ">
<polygon fill="white" stroke="black" points="944.36,-62 944.36,-81 1063.36,-81 1063.36,-62 944.36,-62"/>
<text text-anchor="middle" x="1003.86" y="-69" font-family="Helvetica,sans-Serif" font-size="10.00">drake/common/fmt.h</text>
</a>
</g>
</g>
<!-- Node18&#45;&gt;Node22 -->
<g id="edge39" class="edge">
<title>Node18&#45;&gt;Node22</title>
<path fill="none" stroke="midnightblue" d="M768.58,-123.48C824.34,-111.4 903.64,-94.21 954.42,-83.21"/>
<polygon fill="midnightblue" stroke="midnightblue" points="955.46,-86.57 964.49,-81.03 953.98,-79.73 955.46,-86.57"/>
</g>
<!-- Node20&#45;&gt;Node11 -->
<g id="edge37" class="edge">
<title>Node20&#45;&gt;Node11</title>
<path fill="none" stroke="midnightblue" d="M554.71,-56.47C590.19,-46.08 637.94,-32.08 671.06,-22.37"/>
<polygon fill="midnightblue" stroke="midnightblue" points="672.22,-25.68 680.83,-19.51 670.25,-18.96 672.22,-25.68"/>
</g>
<!-- Node23 -->
<g id="node24" class="node">
<title>Node23</title>
<g id="a_node24"><a xlink:title=" ">
<polygon fill="white" stroke="#bfbfbf" points="1014.36,-0.5 1014.36,-19.5 1087.36,-19.5 1087.36,-0.5 1014.36,-0.5"/>
<text text-anchor="middle" x="1050.86" y="-7.5" font-family="Helvetica,sans-Serif" font-size="10.00">string_view</text>
</a>
</g>
</g>
<!-- Node22&#45;&gt;Node23 -->
<g id="edge40" class="edge">
<title>Node22&#45;&gt;Node23</title>
<path fill="none" stroke="midnightblue" d="M1010.59,-61.98C1017.64,-53.05 1028.89,-38.81 1037.71,-27.64"/>
<polygon fill="midnightblue" stroke="midnightblue" points="1040.68,-29.53 1044.14,-19.51 1035.19,-25.19 1040.68,-29.53"/>
</g>
<!-- Node24 -->
<g id="node25" class="node">
<title>Node24</title>
<g id="a_node25"><a xlink:title=" ">
<polygon fill="white" stroke="#bfbfbf" points="917.36,-0.5 917.36,-19.5 996.36,-19.5 996.36,-0.5 917.36,-0.5"/>
<text text-anchor="middle" x="956.86" y="-7.5" font-family="Helvetica,sans-Serif" font-size="10.00">fmt/format.h</text>
</a>
</g>
</g>
<!-- Node22&#45;&gt;Node24 -->
<g id="edge41" class="edge">
<title>Node22&#45;&gt;Node24</title>
<path fill="none" stroke="midnightblue" d="M997.12,-61.98C990.07,-53.05 978.82,-38.81 970,-27.64"/>
<polygon fill="midnightblue" stroke="midnightblue" points="972.52,-25.19 963.58,-19.51 967.03,-29.53 972.52,-25.19"/>
</g>
</g>
</svg>
