<?xml version="1.0" encoding="UTF-8" standalone="no"?>
<!DOCTYPE svg PUBLIC "-//W3C//DTD SVG 1.1//EN"
 "http://www.w3.org/Graphics/SVG/1.1/DTD/svg11.dtd">
<!-- Generated by graphviz version 2.43.0 (0)
 -->
<!-- Title: drake/multibody/fem/deformation_gradient_data.h Pages: 1 -->
<svg width="1600pt" height="364pt"
 viewBox="0.00 0.00 1600.25 364.13" xmlns="http://www.w3.org/2000/svg" xmlns:xlink="http://www.w3.org/1999/xlink">
<g id="graph0" class="graph" transform="scale(1 1) rotate(0) translate(4 360.13)">
<title>drake/multibody/fem/deformation_gradient_data.h</title>
<!-- Node1 -->
<g id="Node000001" class="node">
<title>Node1</title>
<g id="a_Node000001"><a xlink:title=" ">
<ellipse fill="#999999" stroke="#666666" cx="1008.79" cy="-327.14" rx="88.28" ry="28.98"/>
<text text-anchor="start" x="954.29" y="-335.64" font-family="Helvetica,sans-Serif" font-size="10.00">drake/multibody/fem</text>
<text text-anchor="start" x="954.29" y="-324.64" font-family="Helvetica,sans-Serif" font-size="10.00">/deformation_gradient</text>
<text text-anchor="middle" x="1008.79" y="-313.64" font-family="Helvetica,sans-Serif" font-size="10.00">_data.h</text>
</a>
</g>
</g>
<!-- Node2 -->
<g id="Node000002" class="node">
<title>Node2</title>
<g id="a_Node000002"><a xlink:title=" ">
<ellipse fill="#e0e0e0" stroke="#999999" cx="407.79" cy="-84.08" rx="29.9" ry="13.37"/>
<text text-anchor="middle" x="407.79" y="-81.58" font-family="Helvetica,sans-Serif" font-size="10.00">array</text>
</a>
</g>
</g>
<!-- Node1&#45;&gt;Node2 -->
<g id="edge1_Node000001_Node000002" class="edge">
<title>Node1&#45;&gt;Node2</title>
<g id="a_edge1_Node000001_Node000002"><a xlink:title=" ">
<path fill="none" stroke="#63b8ff" d="M920.77,-323.77C821.85,-319.01 657.48,-304.75 522.79,-262.15 451.06,-239.46 411.76,-248.07 372.79,-183.72 357.47,-158.43 375.78,-125.43 391.14,-104.74"/>
<polygon fill="#63b8ff" stroke="#63b8ff" points="394.04,-106.72 397.44,-96.69 388.53,-102.41 394.04,-106.72"/>
</a>
</g>
</g>
<!-- Node3 -->
<g id="Node000003" class="node">
<title>Node3</title>
<g id="a_Node000003"><a xlink:title=" ">
<ellipse fill="#e0e0e0" stroke="#999999" cx="1008.79" cy="-84.08" rx="31.64" ry="13.37"/>
<text text-anchor="middle" x="1008.79" y="-81.58" font-family="Helvetica,sans-Serif" font-size="10.00">utility</text>
</a>
</g>
</g>
<!-- Node1&#45;&gt;Node3 -->
<g id="edge2_Node000001_Node000003" class="edge">
<title>Node1&#45;&gt;Node3</title>
<g id="a_edge2_Node000001_Node000003"><a xlink:title=" ">
<path fill="none" stroke="#63b8ff" d="M1008.79,-298.02C1008.79,-249.7 1008.79,-151.87 1008.79,-107.67"/>
<polygon fill="#63b8ff" stroke="#63b8ff" points="1012.29,-107.65 1008.79,-97.65 1005.29,-107.65 1012.29,-107.65"/>
</a>
</g>
</g>
<!-- Node4 -->
<g id="Node000004" class="node">
<title>Node4</title>
<g id="a_Node000004"><a xlink:title=" ">
<ellipse fill="#e0e0e0" stroke="#999999" cx="1078.79" cy="-13.44" rx="55.72" ry="13.37"/>
<text text-anchor="middle" x="1078.79" y="-10.94" font-family="Helvetica,sans-Serif" font-size="10.00">fmt/format.h</text>
</a>
</g>
</g>
<!-- Node1&#45;&gt;Node4 -->
<g id="edge3_Node000001_Node000004" class="edge">
<title>Node1&#45;&gt;Node4</title>
<g id="a_edge3_Node000001_Node000004"><a xlink:title=" ">
<path fill="none" stroke="#63b8ff" d="M1093.49,-318.74C1238.54,-303.97 1523.83,-265.01 1574.79,-183.72 1647.38,-67.93 1471.9,-85.61 1392.79,-62.87 1307.42,-38.33 1205.21,-25.5 1141.12,-19.35"/>
<polygon fill="#63b8ff" stroke="#63b8ff" points="1141.06,-15.83 1130.78,-18.39 1140.41,-22.8 1141.06,-15.83"/>
</a>
</g>
</g>
<!-- Node5 -->
<g id="Node000005" class="node">
<title>Node5</title>
<g id="a_Node000005"><a xlink:href="eigen__types_8h.html" target="_top" xlink:title="This file contains abbreviated definitions for certain specializations of Eigen::Matrix that are comm...">
<ellipse fill="white" stroke="#666666" cx="615.79" cy="-240.94" rx="84.29" ry="21.43"/>
<text text-anchor="start" x="564.29" y="-243.94" font-family="Helvetica,sans-Serif" font-size="10.00">drake/common/eigen</text>
<text text-anchor="middle" x="615.79" y="-232.94" font-family="Helvetica,sans-Serif" font-size="10.00">_types.h</text>
</a>
</g>
</g>
<!-- Node1&#45;&gt;Node5 -->
<g id="edge4_Node000001_Node000005" class="edge">
<title>Node1&#45;&gt;Node5</title>
<g id="a_edge4_Node000001_Node000005"><a xlink:title=" ">
<path fill="none" stroke="#63b8ff" d="M935.79,-310.5C865.13,-295.36 758.63,-272.54 688.17,-257.44"/>
<polygon fill="#63b8ff" stroke="#63b8ff" points="688.56,-253.95 678.05,-255.27 687.09,-260.79 688.56,-253.95"/>
</a>
</g>
</g>
<!-- Node17 -->
<g id="Node000017" class="node">
<title>Node17</title>
<g id="a_Node000017"><a xlink:href="nice__type__name_8h.html" target="_top" xlink:title=" ">
<ellipse fill="white" stroke="#666666" cx="1304.79" cy="-240.94" rx="98.99" ry="21.43"/>
<text text-anchor="start" x="1242.79" y="-243.94" font-family="Helvetica,sans-Serif" font-size="10.00">drake/common/nice_type</text>
<text text-anchor="middle" x="1304.79" y="-232.94" font-family="Helvetica,sans-Serif" font-size="10.00">_name.h</text>
</a>
</g>
</g>
<!-- Node1&#45;&gt;Node17 -->
<g id="edge24_Node000001_Node000017" class="edge">
<title>Node1&#45;&gt;Node17</title>
<g id="a_edge24_Node000001_Node000017"><a xlink:title=" ">
<path fill="none" stroke="#63b8ff" d="M1074.12,-307.56C1122.54,-293.78 1188.34,-275.06 1237.27,-261.14"/>
<polygon fill="#63b8ff" stroke="#63b8ff" points="1238.48,-264.44 1247.14,-258.34 1236.56,-257.71 1238.48,-264.44"/>
</a>
</g>
</g>
<!-- Node5&#45;&gt;Node3 -->
<g id="edge5_Node000005_Node000003" class="edge">
<title>Node5&#45;&gt;Node3</title>
<g id="a_edge5_Node000005_Node000003"><a xlink:title=" ">
<path fill="none" stroke="#63b8ff" d="M613.43,-219.36C612.1,-196.86 613.89,-161.33 634.79,-141.3 674.05,-103.68 823.03,-113.41 876.79,-105.3 908.06,-100.58 943.48,-95.15 969.75,-91.11"/>
<polygon fill="#63b8ff" stroke="#63b8ff" points="970.35,-94.56 979.7,-89.57 969.28,-87.64 970.35,-94.56"/>
</a>
</g>
</g>
<!-- Node6 -->
<g id="Node000006" class="node">
<title>Node6</title>
<g id="a_Node000006"><a xlink:title=" ">
<ellipse fill="#e0e0e0" stroke="#999999" cx="697.79" cy="-162.51" rx="54.39" ry="13.37"/>
<text text-anchor="middle" x="697.79" y="-160.01" font-family="Helvetica,sans-Serif" font-size="10.00">Eigen/Dense</text>
</a>
</g>
</g>
<!-- Node5&#45;&gt;Node6 -->
<g id="edge6_Node000005_Node000006" class="edge">
<title>Node5&#45;&gt;Node6</title>
<g id="a_edge6_Node000005_Node000006"><a xlink:title=" ">
<path fill="none" stroke="#63b8ff" d="M636.91,-220.25C649.21,-208.79 664.66,-194.39 676.92,-182.96"/>
<polygon fill="#63b8ff" stroke="#63b8ff" points="679.52,-185.32 684.45,-175.95 674.75,-180.2 679.52,-185.32"/>
</a>
</g>
</g>
<!-- Node7 -->
<g id="Node000007" class="node">
<title>Node7</title>
<g id="a_Node000007"><a xlink:href="constants_8h.html" target="_top" xlink:title=" ">
<ellipse fill="white" stroke="#666666" cx="875.79" cy="-162.51" rx="105.22" ry="13.37"/>
<text text-anchor="middle" x="875.79" y="-160.01" font-family="Helvetica,sans-Serif" font-size="10.00">drake/common/constants.h</text>
</a>
</g>
</g>
<!-- Node5&#45;&gt;Node7 -->
<g id="edge7_Node000005_Node000007" class="edge">
<title>Node5&#45;&gt;Node7</title>
<g id="a_edge7_Node000005_Node000007"><a xlink:title=" ">
<path fill="none" stroke="#63b8ff" d="M668.72,-224.38C714.96,-210.79 781.57,-191.21 826.65,-177.95"/>
<polygon fill="#63b8ff" stroke="#63b8ff" points="827.89,-181.24 836.49,-175.06 825.91,-174.52 827.89,-181.24"/>
</a>
</g>
</g>
<!-- Node8 -->
<g id="Node000008" class="node">
<title>Node8</title>
<g id="a_Node000008"><a xlink:href="drake__assert_8h.html" target="_top" xlink:title="Provides Drake&#39;s assertion mechanics.">
<ellipse fill="white" stroke="#666666" cx="465.79" cy="-162.51" rx="84.29" ry="21.43"/>
<text text-anchor="start" x="414.29" y="-165.51" font-family="Helvetica,sans-Serif" font-size="10.00">drake/common/drake</text>
<text text-anchor="middle" x="465.79" y="-154.51" font-family="Helvetica,sans-Serif" font-size="10.00">_assert.h</text>
</a>
</g>
</g>
<!-- Node5&#45;&gt;Node8 -->
<g id="edge8_Node000005_Node000008" class="edge">
<title>Node5&#45;&gt;Node8</title>
<g id="a_edge8_Node000005_Node000008"><a xlink:title=" ">
<path fill="none" stroke="#63b8ff" d="M579.86,-221.63C559.16,-211.08 532.94,-197.72 510.87,-186.48"/>
<polygon fill="#63b8ff" stroke="#63b8ff" points="512.18,-183.22 501.69,-181.8 509.01,-189.46 512.18,-183.22"/>
</a>
</g>
</g>
<!-- Node12 -->
<g id="Node000012" class="node">
<title>Node12</title>
<g id="a_Node000012"><a xlink:href="drake__copyable_8h.html" target="_top" xlink:title="Provides careful macros to selectively enable or disable the special member functions for copy&#45;constr...">
<ellipse fill="white" stroke="#666666" cx="783.79" cy="-84.08" rx="84.29" ry="21.43"/>
<text text-anchor="start" x="732.29" y="-87.08" font-family="Helvetica,sans-Serif" font-size="10.00">drake/common/drake</text>
<text text-anchor="middle" x="783.79" y="-76.08" font-family="Helvetica,sans-Serif" font-size="10.00">_copyable.h</text>
</a>
</g>
</g>
<!-- Node5&#45;&gt;Node12 -->
<g id="edge14_Node000005_Node000012" class="edge">
<title>Node5&#45;&gt;Node12</title>
<g id="a_edge14_Node000005_Node000012"><a xlink:title=" ">
<path fill="none" stroke="#63b8ff" d="M605.14,-219.72C595.43,-198.18 584.95,-164.12 601.79,-141.3 622.79,-112.84 658,-98.35 691.89,-91.12"/>
<polygon fill="#63b8ff" stroke="#63b8ff" points="692.72,-94.52 701.87,-89.18 691.39,-87.65 692.72,-94.52"/>
</a>
</g>
</g>
<!-- Node13 -->
<g id="Node000013" class="node">
<title>Node13</title>
<g id="a_Node000013"><a xlink:href="fmt__eigen_8h.html" target="_top" xlink:title=" ">
<ellipse fill="white" stroke="#666666" cx="218.79" cy="-162.51" rx="106.55" ry="13.37"/>
<text text-anchor="middle" x="218.79" y="-160.01" font-family="Helvetica,sans-Serif" font-size="10.00">drake/common/fmt_eigen.h</text>
</a>
</g>
</g>
<!-- Node5&#45;&gt;Node13 -->
<g id="edge15_Node000005_Node000013" class="edge">
<title>Node5&#45;&gt;Node13</title>
<g id="a_edge15_Node000005_Node000013"><a xlink:title=" ">
<path fill="none" stroke="#63b8ff" d="M550.68,-227.4C476.94,-213.21 357.48,-190.21 283.78,-176.02"/>
<polygon fill="#63b8ff" stroke="#63b8ff" points="284.18,-172.53 273.7,-174.08 282.86,-179.41 284.18,-172.53"/>
</a>
</g>
</g>
<!-- Node8&#45;&gt;Node2 -->
<g id="edge9_Node000008_Node000002" class="edge">
<title>Node8&#45;&gt;Node2</title>
<g id="a_edge9_Node000008_Node000002"><a xlink:title=" ">
<path fill="none" stroke="#63b8ff" d="M450.55,-141.43C442.08,-130.26 431.56,-116.41 423.08,-105.23"/>
<polygon fill="#63b8ff" stroke="#63b8ff" points="425.62,-102.79 416.79,-96.94 420.05,-107.02 425.62,-102.79"/>
</a>
</g>
</g>
<!-- Node8&#45;&gt;Node3 -->
<g id="edge13_Node000008_Node000003" class="edge">
<title>Node8&#45;&gt;Node3</title>
<g id="a_edge13_Node000008_Node000003"><a xlink:title=" ">
<path fill="none" stroke="#63b8ff" d="M536.34,-150.79C557.39,-147.65 580.51,-144.27 601.79,-141.3 723.87,-124.24 754.75,-122.63 876.79,-105.3 908.1,-100.85 943.51,-95.4 969.78,-91.29"/>
<polygon fill="#63b8ff" stroke="#63b8ff" points="970.38,-94.73 979.72,-89.72 969.3,-87.82 970.38,-94.73"/>
</a>
</g>
</g>
<!-- Node9 -->
<g id="Node000009" class="node">
<title>Node9</title>
<g id="a_Node000009"><a xlink:title=" ">
<ellipse fill="#e0e0e0" stroke="#999999" cx="404.79" cy="-13.44" rx="31.23" ry="13.37"/>
<text text-anchor="middle" x="404.79" y="-10.94" font-family="Helvetica,sans-Serif" font-size="10.00">string</text>
</a>
</g>
</g>
<!-- Node8&#45;&gt;Node9 -->
<g id="edge10_Node000008_Node000009" class="edge">
<title>Node8&#45;&gt;Node9</title>
<g id="a_edge10_Node000008_Node000009"><a xlink:title=" ">
<path fill="none" stroke="#63b8ff" d="M475.49,-141.33C484.03,-120.44 493.19,-87.48 479.79,-62.87 470.77,-46.3 453.36,-34.54 437.59,-26.75"/>
<polygon fill="#63b8ff" stroke="#63b8ff" points="438.63,-23.38 428.08,-22.42 435.72,-29.75 438.63,-23.38"/>
</a>
</g>
</g>
<!-- Node10 -->
<g id="Node000010" class="node">
<title>Node10</title>
<g id="a_Node000010"><a xlink:title=" ">
<ellipse fill="#e0e0e0" stroke="#999999" cx="560.79" cy="-84.08" rx="28.98" ry="13.37"/>
<text text-anchor="middle" x="560.79" y="-81.58" font-family="Helvetica,sans-Serif" font-size="10.00">tuple</text>
</a>
</g>
</g>
<!-- Node8&#45;&gt;Node10 -->
<g id="edge11_Node000008_Node000010" class="edge">
<title>Node8&#45;&gt;Node10</title>
<g id="a_edge11_Node000008_Node000010"><a xlink:title=" ">
<path fill="none" stroke="#63b8ff" d="M490.26,-141.83C505.33,-129.7 524.49,-114.29 539.03,-102.59"/>
<polygon fill="#63b8ff" stroke="#63b8ff" points="541.4,-105.18 547,-96.18 537.01,-99.72 541.4,-105.18"/>
</a>
</g>
</g>
<!-- Node11 -->
<g id="Node000011" class="node">
<title>Node11</title>
<g id="a_Node000011"><a xlink:title=" ">
<ellipse fill="#e0e0e0" stroke="#999999" cx="304.79" cy="-13.44" rx="48.58" ry="13.37"/>
<text text-anchor="middle" x="304.79" y="-10.94" font-family="Helvetica,sans-Serif" font-size="10.00">type_traits</text>
</a>
</g>
</g>
<!-- Node8&#45;&gt;Node11 -->
<g id="edge12_Node000008_Node000011" class="edge">
<title>Node8&#45;&gt;Node11</title>
<g id="a_edge12_Node000008_Node000011"><a xlink:title=" ">
<path fill="none" stroke="#63b8ff" d="M467.46,-141.21C468.11,-119.28 465.68,-84.58 446.79,-62.87 433.97,-48.14 387.48,-34.06 351.14,-24.91"/>
<polygon fill="#63b8ff" stroke="#63b8ff" points="351.74,-21.45 341.19,-22.46 350.07,-28.25 351.74,-21.45"/>
</a>
</g>
</g>
<!-- Node13&#45;&gt;Node9 -->
<g id="edge16_Node000013_Node000009" class="edge">
<title>Node13&#45;&gt;Node9</title>
<g id="a_edge16_Node000013_Node000009"><a xlink:title=" ">
<path fill="none" stroke="#63b8ff" d="M251.31,-149.5C274.87,-139.81 306.7,-124.63 330.79,-105.3 344.3,-94.46 372.57,-57.85 389.99,-34.54"/>
<polygon fill="#63b8ff" stroke="#63b8ff" points="392.93,-36.45 396.08,-26.34 387.31,-32.28 392.93,-36.45"/>
</a>
</g>
</g>
<!-- Node14 -->
<g id="Node000014" class="node">
<title>Node14</title>
<g id="a_Node000014"><a xlink:title=" ">
<ellipse fill="#e0e0e0" stroke="#999999" cx="182.79" cy="-13.44" rx="51.74" ry="13.37"/>
<text text-anchor="middle" x="182.79" y="-10.94" font-family="Helvetica,sans-Serif" font-size="10.00">string_view</text>
</a>
</g>
</g>
<!-- Node13&#45;&gt;Node14 -->
<g id="edge17_Node000013_Node000014" class="edge">
<title>Node13&#45;&gt;Node14</title>
<g id="a_edge17_Node000013_Node000014"><a xlink:title=" ">
<path fill="none" stroke="#63b8ff" d="M192.42,-149.4C175.42,-140.02 154.69,-125.24 144.79,-105.3 136.41,-88.41 138.63,-80.69 144.79,-62.87 148.45,-52.26 155.51,-42.21 162.55,-34.04"/>
<polygon fill="#63b8ff" stroke="#63b8ff" points="165.25,-36.27 169.46,-26.55 160.11,-31.52 165.25,-36.27"/>
</a>
</g>
</g>
<!-- Node15 -->
<g id="Node000015" class="node">
<title>Node15</title>
<g id="a_Node000015"><a xlink:title=" ">
<ellipse fill="#e0e0e0" stroke="#999999" cx="48.79" cy="-84.08" rx="48.58" ry="13.37"/>
<text text-anchor="middle" x="48.79" y="-81.58" font-family="Helvetica,sans-Serif" font-size="10.00">Eigen/Core</text>
</a>
</g>
</g>
<!-- Node13&#45;&gt;Node15 -->
<g id="edge18_Node000013_Node000015" class="edge">
<title>Node13&#45;&gt;Node15</title>
<g id="a_edge18_Node000013_Node000015"><a xlink:title=" ">
<path fill="none" stroke="#63b8ff" d="M191.85,-149.4C162.16,-136.05 114.35,-114.56 82.27,-100.13"/>
<polygon fill="#63b8ff" stroke="#63b8ff" points="83.41,-96.81 72.85,-95.9 80.54,-103.19 83.41,-96.81"/>
</a>
</g>
</g>
<!-- Node16 -->
<g id="Node000016" class="node">
<title>Node16</title>
<g id="a_Node000016"><a xlink:href="fmt_8h.html" target="_top" xlink:title=" ">
<ellipse fill="white" stroke="#666666" cx="237.79" cy="-84.08" rx="84.29" ry="13.37"/>
<text text-anchor="middle" x="237.79" y="-81.58" font-family="Helvetica,sans-Serif" font-size="10.00">drake/common/fmt.h</text>
</a>
</g>
</g>
<!-- Node13&#45;&gt;Node16 -->
<g id="edge19_Node000013_Node000016" class="edge">
<title>Node13&#45;&gt;Node16</title>
<g id="a_edge19_Node000013_Node000016"><a xlink:title=" ">
<path fill="none" stroke="#63b8ff" d="M221.93,-148.89C224.71,-137.72 228.83,-121.14 232.17,-107.68"/>
<polygon fill="#63b8ff" stroke="#63b8ff" points="235.63,-108.27 234.65,-97.72 228.84,-106.58 235.63,-108.27"/>
</a>
</g>
</g>
<!-- Node16&#45;&gt;Node4 -->
<g id="edge23_Node000016_Node000004" class="edge">
<title>Node16&#45;&gt;Node4</title>
<g id="a_edge23_Node000016_Node000004"><a xlink:title=" ">
<path fill="none" stroke="#63b8ff" d="M291.51,-73.74C315.15,-69.9 343.29,-65.7 368.79,-62.87 605.87,-36.54 889.19,-22.38 1014.16,-17"/>
<polygon fill="#63b8ff" stroke="#63b8ff" points="1014.47,-20.49 1024.31,-16.57 1014.17,-13.5 1014.47,-20.49"/>
</a>
</g>
</g>
<!-- Node16&#45;&gt;Node9 -->
<g id="edge20_Node000016_Node000009" class="edge">
<title>Node16&#45;&gt;Node9</title>
<g id="a_edge20_Node000016_Node000009"><a xlink:title=" ">
<path fill="none" stroke="#63b8ff" d="M266.5,-71.28C296.46,-58.97 343.26,-39.73 373.98,-27.1"/>
<polygon fill="#63b8ff" stroke="#63b8ff" points="375.43,-30.29 383.35,-23.25 372.77,-23.82 375.43,-30.29"/>
</a>
</g>
</g>
<!-- Node16&#45;&gt;Node11 -->
<g id="edge22_Node000016_Node000011" class="edge">
<title>Node16&#45;&gt;Node11</title>
<g id="a_edge22_Node000016_Node000011"><a xlink:title=" ">
<path fill="none" stroke="#63b8ff" d="M250.08,-70.49C260.12,-60.2 274.48,-45.49 285.97,-33.72"/>
<polygon fill="#63b8ff" stroke="#63b8ff" points="288.55,-36.09 293.03,-26.49 283.54,-31.2 288.55,-36.09"/>
</a>
</g>
</g>
<!-- Node16&#45;&gt;Node14 -->
<g id="edge21_Node000016_Node000014" class="edge">
<title>Node16&#45;&gt;Node14</title>
<g id="a_edge21_Node000016_Node000014"><a xlink:title=" ">
<path fill="none" stroke="#63b8ff" d="M227.7,-70.49C219.72,-60.52 208.4,-46.4 199.13,-34.83"/>
<polygon fill="#63b8ff" stroke="#63b8ff" points="201.8,-32.56 192.81,-26.95 196.34,-36.94 201.8,-32.56"/>
</a>
</g>
</g>
<!-- Node17&#45;&gt;Node3 -->
<g id="edge28_Node000017_Node000003" class="edge">
<title>Node17&#45;&gt;Node3</title>
<g id="a_edge28_Node000017_Node000003"><a xlink:title=" ">
<path fill="none" stroke="#63b8ff" d="M1354.04,-222.46C1371.36,-213.67 1388.94,-201.09 1398.79,-183.72 1408.09,-167.32 1411.14,-155.55 1398.79,-141.3 1376.13,-115.13 1145.49,-95.2 1049.92,-88"/>
<polygon fill="#63b8ff" stroke="#63b8ff" points="1050,-84.5 1039.76,-87.25 1049.48,-91.48 1050,-84.5"/>
</a>
</g>
</g>
<!-- Node17&#45;&gt;Node9 -->
<g id="edge26_Node000017_Node000009" class="edge">
<title>Node17&#45;&gt;Node9</title>
<g id="a_edge26_Node000017_Node000009"><a xlink:title=" ">
<path fill="none" stroke="#63b8ff" d="M1364.67,-224.01C1384.79,-215.49 1405.08,-202.7 1416.79,-183.72 1448.93,-131.64 1405.6,-90.11 1350.79,-62.87 1269.06,-22.26 617.81,-15.66 446.15,-14.62"/>
<polygon fill="#63b8ff" stroke="#63b8ff" points="446.02,-11.12 436,-14.56 445.98,-18.12 446.02,-11.12"/>
</a>
</g>
</g>
<!-- Node18 -->
<g id="Node000018" class="node">
<title>Node18</title>
<g id="a_Node000018"><a xlink:title=" ">
<ellipse fill="#e0e0e0" stroke="#999999" cx="1524.79" cy="-162.51" rx="41.02" ry="13.37"/>
<text text-anchor="middle" x="1524.79" y="-160.01" font-family="Helvetica,sans-Serif" font-size="10.00">memory</text>
</a>
</g>
</g>
<!-- Node17&#45;&gt;Node18 -->
<g id="edge25_Node000017_Node000018" class="edge">
<title>Node17&#45;&gt;Node18</title>
<g id="a_edge25_Node000017_Node000018"><a xlink:title=" ">
<path fill="none" stroke="#63b8ff" d="M1356.18,-222.78C1388.8,-211.8 1431.85,-197.16 1469.79,-183.72 1476.23,-181.44 1483.08,-178.97 1489.68,-176.55"/>
<polygon fill="#63b8ff" stroke="#63b8ff" points="1490.91,-179.83 1499.09,-173.1 1488.5,-173.26 1490.91,-179.83"/>
</a>
</g>
</g>
<!-- Node19 -->
<g id="Node000019" class="node">
<title>Node19</title>
<g id="a_Node000019"><a xlink:title=" ">
<ellipse fill="#e0e0e0" stroke="#999999" cx="1076.79" cy="-162.51" rx="40.11" ry="13.37"/>
<text text-anchor="middle" x="1076.79" y="-160.01" font-family="Helvetica,sans-Serif" font-size="10.00">typeinfo</text>
</a>
</g>
</g>
<!-- Node17&#45;&gt;Node19 -->
<g id="edge27_Node000017_Node000019" class="edge">
<title>Node17&#45;&gt;Node19</title>
<g id="a_edge27_Node000017_Node000019"><a xlink:title=" ">
<path fill="none" stroke="#63b8ff" d="M1248.69,-223.45C1213.46,-212.79 1167.2,-198.25 1126.79,-183.72 1121.2,-181.71 1115.31,-179.46 1109.62,-177.21"/>
<polygon fill="#63b8ff" stroke="#63b8ff" points="1110.88,-173.94 1100.3,-173.45 1108.27,-180.44 1110.88,-173.94"/>
</a>
</g>
</g>
<!-- Node20 -->
<g id="Node000020" class="node">
<title>Node20</title>
<g id="a_Node000020"><a xlink:title=" ">
<ellipse fill="#e0e0e0" stroke="#999999" cx="1168.79" cy="-162.51" rx="33.47" ry="13.37"/>
<text text-anchor="middle" x="1168.79" y="-160.01" font-family="Helvetica,sans-Serif" font-size="10.00">vector</text>
</a>
</g>
</g>
<!-- Node17&#45;&gt;Node20 -->
<g id="edge29_Node000017_Node000020" class="edge">
<title>Node17&#45;&gt;Node20</title>
<g id="a_edge29_Node000017_Node000020"><a xlink:title=" ">
<path fill="none" stroke="#63b8ff" d="M1270.82,-220.85C1247.8,-207.91 1217.75,-191.02 1196.24,-178.94"/>
<polygon fill="#63b8ff" stroke="#63b8ff" points="1197.73,-175.76 1187.3,-173.91 1194.3,-181.86 1197.73,-175.76"/>
</a>
</g>
</g>
<!-- Node21 -->
<g id="Node000021" class="node">
<title>Node21</title>
<g id="a_Node000021"><a xlink:href="never__destroyed_8h.html" target="_top" xlink:title=" ">
<ellipse fill="white" stroke="#666666" cx="1304.79" cy="-162.51" rx="84.71" ry="21.43"/>
<text text-anchor="start" x="1252.79" y="-165.51" font-family="Helvetica,sans-Serif" font-size="10.00">drake/common/never</text>
<text text-anchor="middle" x="1304.79" y="-154.51" font-family="Helvetica,sans-Serif" font-size="10.00">_destroyed.h</text>
</a>
</g>
</g>
<!-- Node17&#45;&gt;Node21 -->
<g id="edge30_Node000017_Node000021" class="edge">
<title>Node17&#45;&gt;Node21</title>
<g id="a_edge30_Node000017_Node000021"><a xlink:title=" ">
<path fill="none" stroke="#63b8ff" d="M1304.79,-219.46C1304.79,-211.6 1304.79,-202.45 1304.79,-193.86"/>
<polygon fill="#63b8ff" stroke="#63b8ff" points="1308.29,-193.78 1304.79,-183.78 1301.29,-193.78 1308.29,-193.78"/>
</a>
</g>
</g>
<!-- Node21&#45;&gt;Node3 -->
<g id="edge32_Node000021_Node000003" class="edge">
<title>Node21&#45;&gt;Node3</title>
<g id="a_edge32_Node000021_Node000003"><a xlink:title=" ">
<path fill="none" stroke="#63b8ff" d="M1247.72,-146.77C1187.84,-131.31 1095.53,-107.48 1044.97,-94.43"/>
<polygon fill="#63b8ff" stroke="#63b8ff" points="1045.7,-91 1035.14,-91.89 1043.95,-97.78 1045.7,-91"/>
</a>
</g>
</g>
<!-- Node21&#45;&gt;Node12 -->
<g id="edge33_Node000021_Node000012" class="edge">
<title>Node21&#45;&gt;Node12</title>
<g id="a_edge33_Node000021_Node000012"><a xlink:title=" ">
<path fill="none" stroke="#63b8ff" d="M1244,-147.69C1232.98,-145.39 1221.56,-143.16 1210.79,-141.3 1093.32,-120.97 956.55,-104.16 870.08,-94.37"/>
<polygon fill="#63b8ff" stroke="#63b8ff" points="870.38,-90.88 860.05,-93.24 869.59,-97.83 870.38,-90.88"/>
</a>
</g>
</g>
<!-- Node22 -->
<g id="Node000022" class="node">
<title>Node22</title>
<g id="a_Node000022"><a xlink:title=" ">
<ellipse fill="#e0e0e0" stroke="#999999" cx="1304.79" cy="-84.08" rx="37.45" ry="13.37"/>
<text text-anchor="middle" x="1304.79" y="-81.58" font-family="Helvetica,sans-Serif" font-size="10.00">cstddef</text>
</a>
</g>
</g>
<!-- Node21&#45;&gt;Node22 -->
<g id="edge31_Node000021_Node000022" class="edge">
<title>Node21&#45;&gt;Node22</title>
<g id="a_edge31_Node000021_Node000022"><a xlink:title=" ">
<path fill="none" stroke="#63b8ff" d="M1304.79,-141.03C1304.79,-130.79 1304.79,-118.37 1304.79,-107.83"/>
<polygon fill="#63b8ff" stroke="#63b8ff" points="1308.29,-107.71 1304.79,-97.71 1301.29,-107.71 1308.29,-107.71"/>
</a>
</g>
</g>
</g>
</svg>
