<?xml version="1.0" encoding="UTF-8" standalone="no"?>
<!DOCTYPE svg PUBLIC "-//W3C//DTD SVG 1.1//EN"
 "http://www.w3.org/Graphics/SVG/1.1/DTD/svg11.dtd">
<!-- Generated by graphviz version 2.43.0 (0)
 -->
<!-- Title: drake/geometry/proximity/deformable_contact_geometries.h Pages: 1 -->
<svg width="362pt" height="117pt"
 viewBox="0.00 0.00 361.50 117.00" xmlns="http://www.w3.org/2000/svg" xmlns:xlink="http://www.w3.org/1999/xlink">
<g id="graph0" class="graph" transform="scale(1 1) rotate(0) translate(4 113)">
<title>drake/geometry/proximity/deformable_contact_geometries.h</title>
<polygon fill="white" stroke="transparent" points="-4,4 -4,-113 357.5,-113 357.5,4 -4,4"/>
<!-- Node114 -->
<g id="node1" class="node">
<title>Node114</title>
<g id="a_node1"><a xlink:title=" ">
<polygon fill="#bfbfbf" stroke="black" points="89.5,-78.5 89.5,-108.5 276.5,-108.5 276.5,-78.5 89.5,-78.5"/>
<text text-anchor="start" x="97.5" y="-96.5" font-family="Helvetica,sans-Serif" font-size="10.00">drake/geometry/proximity</text>
<text text-anchor="middle" x="183" y="-85.5" font-family="Helvetica,sans-Serif" font-size="10.00">/deformable_contact_geometries.h</text>
</a>
</g>
</g>
<!-- Node115 -->
<g id="node2" class="node">
<title>Node115</title>
<g id="a_node2"><a xlink:href="deformable__mesh__intersection_8h.html" target="_top" xlink:title=" ">
<polygon fill="white" stroke="black" points="0,-6 0,-36 180,-36 180,-6 0,-6"/>
<text text-anchor="start" x="8" y="-24" font-family="Helvetica,sans-Serif" font-size="10.00">drake/geometry/proximity</text>
<text text-anchor="middle" x="90" y="-13" font-family="Helvetica,sans-Serif" font-size="10.00">/deformable_mesh_intersection.h</text>
</a>
</g>
</g>
<!-- Node114&#45;&gt;Node115 -->
<g id="edge1" class="edge">
<title>Node114&#45;&gt;Node115</title>
<path fill="none" stroke="midnightblue" d="M156.1,-72.11C140.83,-60.53 122.09,-46.33 108.47,-36"/>
<polygon fill="midnightblue" stroke="midnightblue" points="154.1,-74.98 164.18,-78.23 158.33,-69.4 154.1,-74.98"/>
</g>
<!-- Node116 -->
<g id="node3" class="node">
<title>Node116</title>
<g id="a_node3"><a xlink:href="deformable__contact__data_8h.html" target="_top" xlink:title=" ">
<polygon fill="white" stroke="black" points="198.5,-0.5 198.5,-41.5 353.5,-41.5 353.5,-0.5 198.5,-0.5"/>
<text text-anchor="start" x="206.5" y="-29.5" font-family="Helvetica,sans-Serif" font-size="10.00">drake/geometry/query</text>
<text text-anchor="start" x="206.5" y="-18.5" font-family="Helvetica,sans-Serif" font-size="10.00">_results/deformable_contact</text>
<text text-anchor="middle" x="276" y="-7.5" font-family="Helvetica,sans-Serif" font-size="10.00">_data.h</text>
</a>
</g>
</g>
<!-- Node114&#45;&gt;Node116 -->
<g id="edge2" class="edge">
<title>Node114&#45;&gt;Node116</title>
<path fill="none" stroke="midnightblue" d="M210.13,-71.93C222.76,-62.36 237.7,-51.03 250.16,-41.59"/>
<polygon fill="midnightblue" stroke="midnightblue" points="207.67,-69.4 201.82,-78.23 211.9,-74.98 207.67,-69.4"/>
</g>
</g>
</svg>
