<?xml version="1.0" encoding="UTF-8" standalone="no"?>
<!DOCTYPE svg PUBLIC "-//W3C//DTD SVG 1.1//EN"
 "http://www.w3.org/Graphics/SVG/1.1/DTD/svg11.dtd">
<!-- Generated by graphviz version 2.43.0 (0)
 -->
<!-- Title: drake/multibody/parsing/detail_collision_filter_groups_impl.h Pages: 1 -->
<svg width="1707pt" height="329pt"
 viewBox="0.00 0.00 1707.00 329.00" xmlns="http://www.w3.org/2000/svg" xmlns:xlink="http://www.w3.org/1999/xlink">
<g id="graph0" class="graph" transform="scale(1 1) rotate(0) translate(4 325)">
<title>drake/multibody/parsing/detail_collision_filter_groups_impl.h</title>
<polygon fill="white" stroke="transparent" points="-4,4 -4,-325 1703,-325 1703,4 -4,4"/>
<!-- Node36 -->
<g id="node1" class="node">
<title>Node36</title>
<g id="a_node1"><a xlink:title=" ">
<polygon fill="#bfbfbf" stroke="black" points="669,-279.5 669,-320.5 804,-320.5 804,-279.5 669,-279.5"/>
<text text-anchor="start" x="677" y="-308.5" font-family="Helvetica,sans-Serif" font-size="10.00">drake/multibody/parsing</text>
<text text-anchor="start" x="677" y="-297.5" font-family="Helvetica,sans-Serif" font-size="10.00">/detail_collision_filter</text>
<text text-anchor="middle" x="736.5" y="-286.5" font-family="Helvetica,sans-Serif" font-size="10.00">_groups_impl.h</text>
</a>
</g>
</g>
<!-- Node37 -->
<g id="node2" class="node">
<title>Node37</title>
<g id="a_node2"><a xlink:href="detail__collision__filter__group__resolver_8h.html" target="_top" xlink:title=" ">
<polygon fill="white" stroke="black" points="669,-201.5 669,-242.5 804,-242.5 804,-201.5 669,-201.5"/>
<text text-anchor="start" x="677" y="-230.5" font-family="Helvetica,sans-Serif" font-size="10.00">drake/multibody/parsing</text>
<text text-anchor="start" x="677" y="-219.5" font-family="Helvetica,sans-Serif" font-size="10.00">/detail_collision_filter</text>
<text text-anchor="middle" x="736.5" y="-208.5" font-family="Helvetica,sans-Serif" font-size="10.00">_group_resolver.h</text>
</a>
</g>
</g>
<!-- Node36&#45;&gt;Node37 -->
<g id="edge1" class="edge">
<title>Node36&#45;&gt;Node37</title>
<path fill="none" stroke="midnightblue" d="M736.5,-269.3C736.5,-260.3 736.5,-250.65 736.5,-242.51"/>
<polygon fill="midnightblue" stroke="midnightblue" points="733,-269.43 736.5,-279.43 740,-269.43 733,-269.43"/>
</g>
<!-- Node38 -->
<g id="node3" class="node">
<title>Node38</title>
<g id="a_node3"><a xlink:href="detail__common_8h.html" target="_top" xlink:title=" ">
<polygon fill="white" stroke="black" points="952,-134.5 952,-164.5 1087,-164.5 1087,-134.5 952,-134.5"/>
<text text-anchor="start" x="960" y="-152.5" font-family="Helvetica,sans-Serif" font-size="10.00">drake/multibody/parsing</text>
<text text-anchor="middle" x="1019.5" y="-141.5" font-family="Helvetica,sans-Serif" font-size="10.00">/detail_common.h</text>
</a>
</g>
</g>
<!-- Node37&#45;&gt;Node38 -->
<g id="edge2" class="edge">
<title>Node37&#45;&gt;Node38</title>
<path fill="none" stroke="midnightblue" d="M814.16,-201.65C861.35,-189.9 920.53,-175.16 963.21,-164.52"/>
<polygon fill="midnightblue" stroke="midnightblue" points="813.14,-198.3 804.29,-204.11 814.84,-205.09 813.14,-198.3"/>
</g>
<!-- Node39 -->
<g id="node4" class="node">
<title>Node39</title>
<g id="a_node4"><a xlink:href="detail__parsing__workspace_8h.html" target="_top" xlink:title=" ">
<polygon fill="white" stroke="black" points="659,-67.5 659,-97.5 814,-97.5 814,-67.5 659,-67.5"/>
<text text-anchor="start" x="667" y="-85.5" font-family="Helvetica,sans-Serif" font-size="10.00">drake/multibody/parsing</text>
<text text-anchor="middle" x="736.5" y="-74.5" font-family="Helvetica,sans-Serif" font-size="10.00">/detail_parsing_workspace.h</text>
</a>
</g>
</g>
<!-- Node37&#45;&gt;Node39 -->
<g id="edge23" class="edge">
<title>Node37&#45;&gt;Node39</title>
<path fill="none" stroke="midnightblue" d="M736.5,-190.96C736.5,-162.05 736.5,-119.6 736.5,-97.72"/>
<polygon fill="midnightblue" stroke="midnightblue" points="733,-191.3 736.5,-201.3 740,-191.3 733,-191.3"/>
</g>
<!-- Node40 -->
<g id="node5" class="node">
<title>Node40</title>
<g id="a_node5"><a xlink:href="detail__composite__parse_8h.html" target="_top" xlink:title=" ">
<polygon fill="white" stroke="black" points="0,-0.5 0,-30.5 145,-30.5 145,-0.5 0,-0.5"/>
<text text-anchor="start" x="8" y="-18.5" font-family="Helvetica,sans-Serif" font-size="10.00">drake/multibody/parsing</text>
<text text-anchor="middle" x="72.5" y="-7.5" font-family="Helvetica,sans-Serif" font-size="10.00">/detail_composite_parse.h</text>
</a>
</g>
</g>
<!-- Node37&#45;&gt;Node40 -->
<g id="edge22" class="edge">
<title>Node37&#45;&gt;Node40</title>
<path fill="none" stroke="midnightblue" d="M663.5,-198.52C525.84,-156.12 231.56,-65.49 118.27,-30.6"/>
<polygon fill="midnightblue" stroke="midnightblue" points="662.55,-201.89 673.13,-201.48 664.61,-195.2 662.55,-201.89"/>
</g>
<!-- Node38&#45;&gt;Node39 -->
<g id="edge3" class="edge">
<title>Node38&#45;&gt;Node39</title>
<path fill="none" stroke="midnightblue" d="M948.47,-132.19C902.12,-121.54 842.23,-107.78 797.94,-97.61"/>
<polygon fill="midnightblue" stroke="midnightblue" points="947.91,-135.65 958.44,-134.48 949.48,-128.83 947.91,-135.65"/>
</g>
<!-- Node41 -->
<g id="node6" class="node">
<title>Node41</title>
<g id="a_node6"><a xlink:href="detail__dmd__parser_8h.html" target="_top" xlink:title=" ">
<polygon fill="white" stroke="black" points="163,-0.5 163,-30.5 298,-30.5 298,-0.5 163,-0.5"/>
<text text-anchor="start" x="171" y="-18.5" font-family="Helvetica,sans-Serif" font-size="10.00">drake/multibody/parsing</text>
<text text-anchor="middle" x="230.5" y="-7.5" font-family="Helvetica,sans-Serif" font-size="10.00">/detail_dmd_parser.h</text>
</a>
</g>
</g>
<!-- Node38&#45;&gt;Node41 -->
<g id="edge13" class="edge">
<title>Node38&#45;&gt;Node41</title>
<path fill="none" stroke="midnightblue" d="M941.51,-139.15C866.5,-129.86 749.99,-114.62 649.5,-98 524.29,-77.3 379.1,-47.82 296.69,-30.57"/>
<polygon fill="midnightblue" stroke="midnightblue" points="941.46,-142.67 951.81,-140.43 942.32,-135.73 941.46,-142.67"/>
</g>
<!-- Node44 -->
<g id="node9" class="node">
<title>Node44</title>
<g id="a_node9"><a xlink:href="detail__mujoco__parser_8h.html" target="_top" xlink:title=" ">
<polygon fill="white" stroke="black" points="799,-0.5 799,-30.5 934,-30.5 934,-0.5 799,-0.5"/>
<text text-anchor="start" x="807" y="-18.5" font-family="Helvetica,sans-Serif" font-size="10.00">drake/multibody/parsing</text>
<text text-anchor="middle" x="866.5" y="-7.5" font-family="Helvetica,sans-Serif" font-size="10.00">/detail_mujoco_parser.h</text>
</a>
</g>
</g>
<!-- Node38&#45;&gt;Node44 -->
<g id="edge14" class="edge">
<title>Node38&#45;&gt;Node44</title>
<path fill="none" stroke="midnightblue" d="M995.27,-127.59C963.8,-100.44 909.71,-53.78 882.76,-30.52"/>
<polygon fill="midnightblue" stroke="midnightblue" points="993.27,-130.49 1003.13,-134.37 997.84,-125.19 993.27,-130.49"/>
</g>
<!-- Node45 -->
<g id="node10" class="node">
<title>Node45</title>
<g id="a_node10"><a xlink:href="detail__sdf__parser_8h.html" target="_top" xlink:title=" ">
<polygon fill="white" stroke="black" points="952,-0.5 952,-30.5 1087,-30.5 1087,-0.5 952,-0.5"/>
<text text-anchor="start" x="960" y="-18.5" font-family="Helvetica,sans-Serif" font-size="10.00">drake/multibody/parsing</text>
<text text-anchor="middle" x="1019.5" y="-7.5" font-family="Helvetica,sans-Serif" font-size="10.00">/detail_sdf_parser.h</text>
</a>
</g>
</g>
<!-- Node38&#45;&gt;Node45 -->
<g id="edge17" class="edge">
<title>Node38&#45;&gt;Node45</title>
<path fill="none" stroke="midnightblue" d="M1019.5,-124.02C1019.5,-96.51 1019.5,-52.79 1019.5,-30.52"/>
<polygon fill="midnightblue" stroke="midnightblue" points="1016,-124.37 1019.5,-134.37 1023,-124.37 1016,-124.37"/>
</g>
<!-- Node47 -->
<g id="node12" class="node">
<title>Node47</title>
<g id="a_node12"><a xlink:href="detail__urdf__parser_8h.html" target="_top" xlink:title=" ">
<polygon fill="white" stroke="black" points="1105,-0.5 1105,-30.5 1240,-30.5 1240,-0.5 1105,-0.5"/>
<text text-anchor="start" x="1113" y="-18.5" font-family="Helvetica,sans-Serif" font-size="10.00">drake/multibody/parsing</text>
<text text-anchor="middle" x="1172.5" y="-7.5" font-family="Helvetica,sans-Serif" font-size="10.00">/detail_urdf_parser.h</text>
</a>
</g>
</g>
<!-- Node38&#45;&gt;Node47 -->
<g id="edge20" class="edge">
<title>Node38&#45;&gt;Node47</title>
<path fill="none" stroke="midnightblue" d="M1043.73,-127.59C1075.2,-100.44 1129.29,-53.78 1156.24,-30.52"/>
<polygon fill="midnightblue" stroke="midnightblue" points="1041.16,-125.19 1035.87,-134.37 1045.73,-130.49 1041.16,-125.19"/>
</g>
<!-- Node48 -->
<g id="node13" class="node">
<title>Node48</title>
<g id="a_node13"><a xlink:href="detail__usd__parser_8h.html" target="_top" xlink:title=" ">
<polygon fill="white" stroke="black" points="1258,-0.5 1258,-30.5 1393,-30.5 1393,-0.5 1258,-0.5"/>
<text text-anchor="start" x="1266" y="-18.5" font-family="Helvetica,sans-Serif" font-size="10.00">drake/multibody/parsing</text>
<text text-anchor="middle" x="1325.5" y="-7.5" font-family="Helvetica,sans-Serif" font-size="10.00">/detail_usd_parser.h</text>
</a>
</g>
</g>
<!-- Node38&#45;&gt;Node48 -->
<g id="edge21" class="edge">
<title>Node38&#45;&gt;Node48</title>
<path fill="none" stroke="midnightblue" d="M1061.39,-130.43C1123.08,-103.82 1237.05,-54.65 1292.91,-30.56"/>
<polygon fill="midnightblue" stroke="midnightblue" points="1059.75,-127.32 1051.96,-134.5 1062.53,-133.75 1059.75,-127.32"/>
</g>
<!-- Node49 -->
<g id="node14" class="node">
<title>Node49</title>
<g id="a_node14"><a xlink:href="detail__sdf__diagnostic_8h.html" target="_top" xlink:title=" ">
<polygon fill="white" stroke="black" points="1332,-67.5 1332,-97.5 1467,-97.5 1467,-67.5 1332,-67.5"/>
<text text-anchor="start" x="1340" y="-85.5" font-family="Helvetica,sans-Serif" font-size="10.00">drake/multibody/parsing</text>
<text text-anchor="middle" x="1399.5" y="-74.5" font-family="Helvetica,sans-Serif" font-size="10.00">/detail_sdf_diagnostic.h</text>
</a>
</g>
</g>
<!-- Node38&#45;&gt;Node49 -->
<g id="edge15" class="edge">
<title>Node38&#45;&gt;Node49</title>
<path fill="none" stroke="midnightblue" d="M1097.39,-135.18C1166.39,-123.37 1266.1,-106.32 1331.83,-95.07"/>
<polygon fill="midnightblue" stroke="midnightblue" points="1096.7,-131.74 1087.44,-136.88 1097.88,-138.64 1096.7,-131.74"/>
</g>
<!-- Node51 -->
<g id="node16" class="node">
<title>Node51</title>
<g id="a_node16"><a xlink:href="detail__tinyxml2__diagnostic_8h.html" target="_top" xlink:title=" ">
<polygon fill="white" stroke="black" points="1518,-67.5 1518,-97.5 1679,-97.5 1679,-67.5 1518,-67.5"/>
<text text-anchor="start" x="1526" y="-85.5" font-family="Helvetica,sans-Serif" font-size="10.00">drake/multibody/parsing</text>
<text text-anchor="middle" x="1598.5" y="-74.5" font-family="Helvetica,sans-Serif" font-size="10.00">/detail_tinyxml2_diagnostic.h</text>
</a>
</g>
</g>
<!-- Node38&#45;&gt;Node51 -->
<g id="edge18" class="edge">
<title>Node38&#45;&gt;Node51</title>
<path fill="none" stroke="midnightblue" d="M1097.22,-140.11C1188.18,-130.24 1343.31,-113.27 1476.5,-98 1489.85,-96.47 1504.02,-94.81 1517.79,-93.19"/>
<polygon fill="midnightblue" stroke="midnightblue" points="1096.83,-136.63 1087.27,-141.19 1097.59,-143.59 1096.83,-136.63"/>
</g>
<!-- Node39&#45;&gt;Node40 -->
<g id="edge4" class="edge">
<title>Node39&#45;&gt;Node40</title>
<path fill="none" stroke="midnightblue" d="M648.83,-76.39C534.52,-69.17 328.5,-54.19 153.5,-31 150.81,-30.64 148.07,-30.26 145.31,-29.86"/>
<polygon fill="midnightblue" stroke="midnightblue" points="648.73,-79.89 658.93,-77.03 649.17,-72.91 648.73,-79.89"/>
</g>
<!-- Node39&#45;&gt;Node41 -->
<g id="edge5" class="edge">
<title>Node39&#45;&gt;Node41</title>
<path fill="none" stroke="midnightblue" d="M648.7,-72.95C561.82,-64.08 425.16,-48.98 307.5,-31 304.41,-30.53 301.25,-30.02 298.06,-29.5"/>
<polygon fill="midnightblue" stroke="midnightblue" points="648.48,-76.45 658.78,-73.98 649.19,-69.49 648.48,-76.45"/>
</g>
<!-- Node42 -->
<g id="node7" class="node">
<title>Node42</title>
<g id="a_node7"><a xlink:href="detail__make__model__name_8h.html" target="_top" xlink:title=" ">
<polygon fill="white" stroke="black" points="316.5,-0.5 316.5,-30.5 474.5,-30.5 474.5,-0.5 316.5,-0.5"/>
<text text-anchor="start" x="324.5" y="-18.5" font-family="Helvetica,sans-Serif" font-size="10.00">drake/multibody/parsing</text>
<text text-anchor="middle" x="395.5" y="-7.5" font-family="Helvetica,sans-Serif" font-size="10.00">/detail_make_model_name.h</text>
</a>
</g>
</g>
<!-- Node39&#45;&gt;Node42 -->
<g id="edge6" class="edge">
<title>Node39&#45;&gt;Node42</title>
<path fill="none" stroke="midnightblue" d="M652.99,-65.58C596.77,-54.86 523.3,-40.86 469.23,-30.55"/>
<polygon fill="midnightblue" stroke="midnightblue" points="652.45,-69.04 662.93,-67.48 653.76,-62.17 652.45,-69.04"/>
</g>
<!-- Node43 -->
<g id="node8" class="node">
<title>Node43</title>
<g id="a_node8"><a xlink:href="detail__mesh__parser_8h.html" target="_top" xlink:title=" ">
<polygon fill="white" stroke="black" points="493,-0.5 493,-30.5 628,-30.5 628,-0.5 493,-0.5"/>
<text text-anchor="start" x="501" y="-18.5" font-family="Helvetica,sans-Serif" font-size="10.00">drake/multibody/parsing</text>
<text text-anchor="middle" x="560.5" y="-7.5" font-family="Helvetica,sans-Serif" font-size="10.00">/detail_mesh_parser.h</text>
</a>
</g>
</g>
<!-- Node39&#45;&gt;Node43 -->
<g id="edge7" class="edge">
<title>Node39&#45;&gt;Node43</title>
<path fill="none" stroke="midnightblue" d="M688.62,-63.82C660.33,-53.37 625.01,-40.32 598.61,-30.58"/>
<polygon fill="midnightblue" stroke="midnightblue" points="687.72,-67.21 698.31,-67.4 690.14,-60.65 687.72,-67.21"/>
</g>
<!-- Node39&#45;&gt;Node44 -->
<g id="edge8" class="edge">
<title>Node39&#45;&gt;Node44</title>
<path fill="none" stroke="midnightblue" d="M773.79,-62.85C794.35,-52.58 819.45,-40.03 838.35,-30.58"/>
<polygon fill="midnightblue" stroke="midnightblue" points="772.09,-59.79 764.71,-67.4 775.22,-66.05 772.09,-59.79"/>
</g>
<!-- Node39&#45;&gt;Node45 -->
<g id="edge9" class="edge">
<title>Node39&#45;&gt;Node45</title>
<path fill="none" stroke="midnightblue" d="M807.53,-65.19C853.88,-54.54 913.77,-40.78 958.06,-30.61"/>
<polygon fill="midnightblue" stroke="midnightblue" points="806.52,-61.83 797.56,-67.48 808.09,-68.65 806.52,-61.83"/>
</g>
<!-- Node46 -->
<g id="node11" class="node">
<title>Node46</title>
<g id="a_node11"><a xlink:href="detail__select__parser_8h.html" target="_top" xlink:title=" ">
<polygon fill="white" stroke="black" points="646,-0.5 646,-30.5 781,-30.5 781,-0.5 646,-0.5"/>
<text text-anchor="start" x="654" y="-18.5" font-family="Helvetica,sans-Serif" font-size="10.00">drake/multibody/parsing</text>
<text text-anchor="middle" x="713.5" y="-7.5" font-family="Helvetica,sans-Serif" font-size="10.00">/detail_select_parser.h</text>
</a>
</g>
</g>
<!-- Node39&#45;&gt;Node46 -->
<g id="edge10" class="edge">
<title>Node39&#45;&gt;Node46</title>
<path fill="none" stroke="midnightblue" d="M728.08,-57.7C724.85,-48.59 721.28,-38.49 718.48,-30.58"/>
<polygon fill="midnightblue" stroke="midnightblue" points="724.87,-59.14 731.51,-67.4 731.47,-56.8 724.87,-59.14"/>
</g>
<!-- Node39&#45;&gt;Node47 -->
<g id="edge11" class="edge">
<title>Node39&#45;&gt;Node47</title>
<path fill="none" stroke="midnightblue" d="M824.09,-70.33C896.88,-60.78 1003.11,-46.19 1095.5,-31 1098.59,-30.49 1101.74,-29.96 1104.93,-29.41"/>
<polygon fill="midnightblue" stroke="midnightblue" points="823.5,-66.88 814.04,-71.65 824.41,-73.82 823.5,-66.88"/>
</g>
<!-- Node39&#45;&gt;Node48 -->
<g id="edge12" class="edge">
<title>Node39&#45;&gt;Node48</title>
<path fill="none" stroke="midnightblue" d="M824.67,-75.17C926.92,-67.28 1100.4,-52.21 1248.5,-31 1251.6,-30.56 1254.76,-30.08 1257.95,-29.57"/>
<polygon fill="midnightblue" stroke="midnightblue" points="824.09,-71.7 814.39,-75.96 824.63,-78.68 824.09,-71.7"/>
</g>
<!-- Node50 -->
<g id="node15" class="node">
<title>Node50</title>
<g id="a_node15"><a xlink:href="detail__sdf__geometry_8h.html" target="_top" xlink:title=" ">
<polygon fill="white" stroke="black" points="1411,-0.5 1411,-30.5 1546,-30.5 1546,-0.5 1411,-0.5"/>
<text text-anchor="start" x="1419" y="-18.5" font-family="Helvetica,sans-Serif" font-size="10.00">drake/multibody/parsing</text>
<text text-anchor="middle" x="1478.5" y="-7.5" font-family="Helvetica,sans-Serif" font-size="10.00">/detail_sdf_geometry.h</text>
</a>
</g>
</g>
<!-- Node49&#45;&gt;Node50 -->
<g id="edge16" class="edge">
<title>Node49&#45;&gt;Node50</title>
<path fill="none" stroke="midnightblue" d="M1424.56,-60.88C1436.56,-51.01 1450.63,-39.43 1461.39,-30.58"/>
<polygon fill="midnightblue" stroke="midnightblue" points="1422.14,-58.34 1416.64,-67.4 1426.59,-63.75 1422.14,-58.34"/>
</g>
<!-- Node52 -->
<g id="node17" class="node">
<title>Node52</title>
<g id="a_node17"><a xlink:href="detail__urdf__geometry_8h.html" target="_top" xlink:title=" ">
<polygon fill="white" stroke="black" points="1564,-0.5 1564,-30.5 1699,-30.5 1699,-0.5 1564,-0.5"/>
<text text-anchor="start" x="1572" y="-18.5" font-family="Helvetica,sans-Serif" font-size="10.00">drake/multibody/parsing</text>
<text text-anchor="middle" x="1631.5" y="-7.5" font-family="Helvetica,sans-Serif" font-size="10.00">/detail_urdf_geometry.h</text>
</a>
</g>
</g>
<!-- Node51&#45;&gt;Node52 -->
<g id="edge19" class="edge">
<title>Node51&#45;&gt;Node52</title>
<path fill="none" stroke="midnightblue" d="M1610.29,-58.28C1614.99,-49.02 1620.25,-38.66 1624.35,-30.58"/>
<polygon fill="midnightblue" stroke="midnightblue" points="1607.07,-56.89 1605.66,-67.4 1613.31,-60.06 1607.07,-56.89"/>
</g>
</g>
</svg>
