<?xml version="1.0" encoding="UTF-8" standalone="no"?>
<!DOCTYPE svg PUBLIC "-//W3C//DTD SVG 1.1//EN"
 "http://www.w3.org/Graphics/SVG/1.1/DTD/svg11.dtd">
<!-- Generated by graphviz version 2.43.0 (0)
 -->
<!-- Title: drake/multibody/parsing/detail_common.h Pages: 1 -->
<!--zoomable 106 -->
<svg id="main" version="1.1" xmlns="http://www.w3.org/2000/svg" xmlns:xlink="http://www.w3.org/1999/xlink" xml:space="preserve" onload="init(evt)">
<style type="text/css"><![CDATA[
.edge:hover path { stroke: red; }
.edge:hover polygon { stroke: red; fill: red; }
]]></style>
<script type="text/javascript"><![CDATA[
var edges = document.getElementsByTagName('g');
if (edges && edges.length) {
  for (var i=0;i<edges.length;i++) {
    if (edges[i].id.substr(0,4)=='edge') {
      edges[i].setAttribute('class','edge');
    }
  }
}
]]></script>
        <defs>
                <circle id="rim" cx="0" cy="0" r="7"/>
                <circle id="rim2" cx="0" cy="0" r="3.5"/>
                <g id="zoomPlus">
                        <use xlink:href="#rim" fill="#404040">
                                <set attributeName="fill" to="#808080" begin="zoomplus.mouseover" end="zoomplus.mouseout"/>
                        </use>
                        <path d="M-4,0h8M0,-4v8" fill="none" stroke="white" stroke-width="1.5" pointer-events="none"/>
                </g>
                <g id="zoomMin">
                        <use xlink:href="#rim" fill="#404040">
                                <set attributeName="fill" to="#808080" begin="zoomminus.mouseover" end="zoomminus.mouseout"/>
                        </use>
                        <path d="M-4,0h8" fill="none" stroke="white" stroke-width="1.5" pointer-events="none"/>
                </g>
                <g id="dirArrow">
                        <path fill="none" stroke="white" stroke-width="1.5" d="M0,-3.0v7 M-2.5,-0.5L0,-3.0L2.5,-0.5"/>
                </g>
               <g id="resetDef">
                       <use xlink:href="#rim2" fill="#404040">
                               <set attributeName="fill" to="#808080" begin="reset.mouseover" end="reset.mouseout"/>
                       </use>
               </g>
        </defs>

<script type="text/javascript">
var viewWidth = 628;
var viewHeight = 106;
var sectionId = 'dynsection-1';
</script>
<script xlink:href="svgpan.js"/>
<svg id="graph" class="graph">
<g id="viewport">
<title>drake/multibody/parsing/detail_common.h</title>
<polygon fill="white" stroke="transparent" points="-4,4 -4,-102 624,-102 624,4 -4,4"/>
<!-- Node250 -->
<g id="node1" class="node">
<title>Node250</title>
<g id="a_node1"><a xlink:title=" ">
<polygon fill="#bfbfbf" stroke="black" points="236,-67.5 236,-97.5 371,-97.5 371,-67.5 236,-67.5"/>
<text text-anchor="start" x="244" y="-85.5" font-family="Helvetica,sans-Serif" font-size="10.00">drake/multibody/parsing</text>
<text text-anchor="middle" x="303.5" y="-74.5" font-family="Helvetica,sans-Serif" font-size="10.00">/detail_common.h</text>
</a>
</g>
</g>
<!-- Node251 -->
<g id="node2" class="node">
<title>Node251</title>
<g id="a_node2"><a xlink:href="detail__mujoco__parser_8h.html" target="_top" xlink:title=" ">
<polygon fill="white" stroke="black" points="0,-0.5 0,-30.5 135,-30.5 135,-0.5 0,-0.5"/>
<text text-anchor="start" x="8" y="-18.5" font-family="Helvetica,sans-Serif" font-size="10.00">drake/multibody/parsing</text>
<text text-anchor="middle" x="67.5" y="-7.5" font-family="Helvetica,sans-Serif" font-size="10.00">/detail_mujoco_parser.h</text>
</a>
</g>
</g>
<!-- Node250&#45;&gt;Node251 -->
<g id="edge1" class="edge">
<title>Node250&#45;&gt;Node251</title>
<path fill="none" stroke="midnightblue" d="M242.56,-64.71C204.15,-54.14 155.13,-40.63 118.73,-30.61"/>
<polygon fill="midnightblue" stroke="midnightblue" points="242.01,-68.19 252.58,-67.48 243.87,-61.45 242.01,-68.19"/>
</g>
<!-- Node252 -->
<g id="node3" class="node">
<title>Node252</title>
<g id="a_node3"><a xlink:href="detail__sdf__parser_8h.html" target="_top" xlink:title=" ">
<polygon fill="white" stroke="black" points="153,-0.5 153,-30.5 288,-30.5 288,-0.5 153,-0.5"/>
<text text-anchor="start" x="161" y="-18.5" font-family="Helvetica,sans-Serif" font-size="10.00">drake/multibody/parsing</text>
<text text-anchor="middle" x="220.5" y="-7.5" font-family="Helvetica,sans-Serif" font-size="10.00">/detail_sdf_parser.h</text>
</a>
</g>
</g>
<!-- Node250&#45;&gt;Node252 -->
<g id="edge2" class="edge">
<title>Node250&#45;&gt;Node252</title>
<path fill="none" stroke="midnightblue" d="M277.54,-61.17C264.85,-51.23 249.89,-39.51 238.47,-30.58"/>
<polygon fill="midnightblue" stroke="midnightblue" points="275.46,-63.99 285.49,-67.4 279.78,-58.47 275.46,-63.99"/>
</g>
<!-- Node253 -->
<g id="node4" class="node">
<title>Node253</title>
<g id="a_node4"><a xlink:href="detail__tinyxml2__diagnostic_8h.html" target="_top" xlink:title=" ">
<polygon fill="white" stroke="black" points="306,-0.5 306,-30.5 467,-30.5 467,-0.5 306,-0.5"/>
<text text-anchor="start" x="314" y="-18.5" font-family="Helvetica,sans-Serif" font-size="10.00">drake/multibody/parsing</text>
<text text-anchor="middle" x="386.5" y="-7.5" font-family="Helvetica,sans-Serif" font-size="10.00">/detail_tinyxml2_diagnostic.h</text>
</a>
</g>
</g>
<!-- Node250&#45;&gt;Node253 -->
<g id="edge3" class="edge">
<title>Node250&#45;&gt;Node253</title>
<path fill="none" stroke="midnightblue" d="M329.46,-61.17C342.15,-51.23 357.11,-39.51 368.53,-30.58"/>
<polygon fill="midnightblue" stroke="midnightblue" points="327.22,-58.47 321.51,-67.4 331.54,-63.99 327.22,-58.47"/>
</g>
<!-- Node254 -->
<g id="node5" class="node">
<title>Node254</title>
<g id="a_node5"><a xlink:href="detail__urdf__parser_8h.html" target="_top" xlink:title=" ">
<polygon fill="white" stroke="black" points="485,-0.5 485,-30.5 620,-30.5 620,-0.5 485,-0.5"/>
<text text-anchor="start" x="493" y="-18.5" font-family="Helvetica,sans-Serif" font-size="10.00">drake/multibody/parsing</text>
<text text-anchor="middle" x="552.5" y="-7.5" font-family="Helvetica,sans-Serif" font-size="10.00">/detail_urdf_parser.h</text>
</a>
</g>
</g>
<!-- Node250&#45;&gt;Node254 -->
<g id="edge4" class="edge">
<title>Node250&#45;&gt;Node254</title>
<path fill="none" stroke="midnightblue" d="M367.03,-64.92C407.66,-54.31 459.8,-40.7 498.44,-30.61"/>
<polygon fill="midnightblue" stroke="midnightblue" points="366.01,-61.56 357.22,-67.48 367.78,-68.34 366.01,-61.56"/>
</g>
</g>
</svg>
        <g id="navigator" transform="translate(0 0)" fill="#404254">
                <rect fill="#f2f5e9" fill-opacity="0.5" stroke="#606060" stroke-width=".5" x="0" y="0" width="60" height="60"/>
                <use id="zoomplus" xlink:href="#zoomPlus" x="17" y="9" onmousedown="handleZoom(evt,'in')"/>
                <use id="zoomminus" xlink:href="#zoomMin" x="42" y="9" onmousedown="handleZoom(evt,'out')"/>
                <use id="reset" xlink:href="#resetDef" x="30" y="36" onmousedown="handleReset()"/>
                <g id="arrowUp" xlink:href="#dirArrow" transform="translate(30 24)" onmousedown="handlePan(0,-1)">
                  <use xlink:href="#rim" fill="#404040">
                        <set attributeName="fill" to="#808080" begin="arrowUp.mouseover" end="arrowUp.mouseout"/>
                  </use>
                  <path fill="none" stroke="white" stroke-width="1.5" d="M0,-3.0v7 M-2.5,-0.5L0,-3.0L2.5,-0.5"/>
                </g>
                <g id="arrowRight" xlink:href="#dirArrow" transform="rotate(90) translate(36 -43)" onmousedown="handlePan(1,0)">
                  <use xlink:href="#rim" fill="#404040">
                        <set attributeName="fill" to="#808080" begin="arrowRight.mouseover" end="arrowRight.mouseout"/>
                  </use>
                  <path fill="none" stroke="white" stroke-width="1.5" d="M0,-3.0v7 M-2.5,-0.5L0,-3.0L2.5,-0.5"/>
                </g>
                <g id="arrowDown" xlink:href="#dirArrow" transform="rotate(180) translate(-30 -48)" onmousedown="handlePan(0,1)">
                  <use xlink:href="#rim" fill="#404040">
                        <set attributeName="fill" to="#808080" begin="arrowDown.mouseover" end="arrowDown.mouseout"/>
                  </use>
                  <path fill="none" stroke="white" stroke-width="1.5" d="M0,-3.0v7 M-2.5,-0.5L0,-3.0L2.5,-0.5"/>
                </g>
                <g id="arrowLeft" xlink:href="#dirArrow" transform="rotate(270) translate(-36 17)" onmousedown="handlePan(-1,0)">
                  <use xlink:href="#rim" fill="#404040">
                        <set attributeName="fill" to="#808080" begin="arrowLeft.mouseover" end="arrowLeft.mouseout"/>
                  </use>
                  <path fill="none" stroke="white" stroke-width="1.5" d="M0,-3.0v7 M-2.5,-0.5L0,-3.0L2.5,-0.5"/>
                </g>
        </g>
        <svg viewBox="0 0 15 15" width="100%" height="30px" preserveAspectRatio="xMaxYMin meet">
         <g id="arrow_out" transform="scale(0.3 0.3)">
          <a xlink:href="detail__common_8h__dep__incl_org.svg" target="_base">
           <rect id="button" ry="5" rx="5" y="6" x="6" height="38" width="38"
                fill="#f2f5e9" fill-opacity="0.5" stroke="#606060" stroke-width="1.0"/>
           <path id="arrow"
             d="M 11.500037,31.436501 C 11.940474,20.09759 22.043105,11.32322 32.158766,21.979434 L 37.068811,17.246167 C 37.068811,17.246167 37.088388,32 37.088388,32 L 22.160133,31.978069 C 22.160133,31.978069 26.997745,27.140456 26.997745,27.140456 C 18.528582,18.264221 13.291696,25.230495 11.500037,31.436501 z"
             style="fill:#404040;"/>
          </a>
         </g>
        </svg>
</svg>
