<?xml version="1.0" encoding="UTF-8" standalone="no"?>
<!DOCTYPE svg PUBLIC "-//W3C//DTD SVG 1.1//EN"
 "http://www.w3.org/Graphics/SVG/1.1/DTD/svg11.dtd">
<!-- Generated by graphviz version 2.43.0 (0)
 -->
<!-- Title: drake/multibody/parsing/detail_collision_filter_groups_impl.h Pages: 1 -->
<!--zoomable 441 -->
<svg id="main" version="1.1" xmlns="http://www.w3.org/2000/svg" xmlns:xlink="http://www.w3.org/1999/xlink" xml:space="preserve" onload="init(evt)">
<style type="text/css"><![CDATA[
.edge:hover path { stroke: red; }
.edge:hover polygon { stroke: red; fill: red; }
]]></style>
<script type="text/javascript"><![CDATA[
var edges = document.getElementsByTagName('g');
if (edges && edges.length) {
  for (var i=0;i<edges.length;i++) {
    if (edges[i].id.substr(0,4)=='edge') {
      edges[i].setAttribute('class','edge');
    }
  }
}
]]></script>
        <defs>
                <circle id="rim" cx="0" cy="0" r="7"/>
                <circle id="rim2" cx="0" cy="0" r="3.5"/>
                <g id="zoomPlus">
                        <use xlink:href="#rim" fill="#404040">
                                <set attributeName="fill" to="#808080" begin="zoomplus.mouseover" end="zoomplus.mouseout"/>
                        </use>
                        <path d="M-4,0h8M0,-4v8" fill="none" stroke="white" stroke-width="1.5" pointer-events="none"/>
                </g>
                <g id="zoomMin">
                        <use xlink:href="#rim" fill="#404040">
                                <set attributeName="fill" to="#808080" begin="zoomminus.mouseover" end="zoomminus.mouseout"/>
                        </use>
                        <path d="M-4,0h8" fill="none" stroke="white" stroke-width="1.5" pointer-events="none"/>
                </g>
                <g id="dirArrow">
                        <path fill="none" stroke="white" stroke-width="1.5" d="M0,-3.0v7 M-2.5,-0.5L0,-3.0L2.5,-0.5"/>
                </g>
               <g id="resetDef">
                       <use xlink:href="#rim2" fill="#404040">
                               <set attributeName="fill" to="#808080" begin="reset.mouseover" end="reset.mouseout"/>
                       </use>
               </g>
        </defs>

<script type="text/javascript">
var viewWidth = 1948;
var viewHeight = 441;
var sectionId = 'dynsection-0';
</script>
<script xlink:href="svgpan.js"/>
<svg id="graph" class="graph">
<g id="viewport">
<title>drake/multibody/parsing/detail_collision_filter_groups_impl.h</title>
<polygon fill="white" stroke="transparent" points="-4,4 -4,-437 1943.85,-437 1943.85,4 -4,4"/>
<!-- Node0 -->
<g id="node1" class="node">
<title>Node0</title>
<g id="a_node1"><a xlink:title=" ">
<polygon fill="#bfbfbf" stroke="black" points="1274.85,-391.5 1274.85,-432.5 1409.85,-432.5 1409.85,-391.5 1274.85,-391.5"/>
<text text-anchor="start" x="1282.85" y="-420.5" font-family="Helvetica,sans-Serif" font-size="10.00">drake/multibody/parsing</text>
<text text-anchor="start" x="1282.85" y="-409.5" font-family="Helvetica,sans-Serif" font-size="10.00">/detail_collision_filter</text>
<text text-anchor="middle" x="1342.35" y="-398.5" font-family="Helvetica,sans-Serif" font-size="10.00">_groups_impl.h</text>
</a>
</g>
</g>
<!-- Node1 -->
<g id="node2" class="node">
<title>Node1</title>
<g id="a_node2"><a xlink:title=" ">
<polygon fill="white" stroke="#bfbfbf" points="350.35,-62 350.35,-81 388.35,-81 388.35,-62 350.35,-62"/>
<text text-anchor="middle" x="369.35" y="-69" font-family="Helvetica,sans-Serif" font-size="10.00">map</text>
</a>
</g>
</g>
<!-- Node0&#45;&gt;Node1 -->
<g id="edge1" class="edge">
<title>Node0&#45;&gt;Node1</title>
<path fill="none" stroke="midnightblue" d="M1274.77,-409.78C1111.31,-406.24 698.32,-393.65 566.35,-355 493.53,-333.68 416.35,-349.37 416.35,-273.5 416.35,-273.5 416.35,-273.5 416.35,-204.5 416.35,-161.31 393.74,-114.54 379.88,-89.93"/>
<polygon fill="midnightblue" stroke="midnightblue" points="382.79,-87.97 374.74,-81.08 376.74,-91.49 382.79,-87.97"/>
</g>
<!-- Node2 -->
<g id="node3" class="node">
<title>Node2</title>
<g id="a_node3"><a xlink:title=" ">
<polygon fill="white" stroke="#bfbfbf" points="406.35,-62 406.35,-81 438.35,-81 438.35,-62 406.35,-62"/>
<text text-anchor="middle" x="422.35" y="-69" font-family="Helvetica,sans-Serif" font-size="10.00">set</text>
</a>
</g>
</g>
<!-- Node0&#45;&gt;Node2 -->
<g id="edge2" class="edge">
<title>Node0&#45;&gt;Node2</title>
<path fill="none" stroke="midnightblue" d="M1274.71,-407.33C1071.5,-395.41 480.35,-353.82 480.35,-273.5 480.35,-273.5 480.35,-273.5 480.35,-204.5 480.35,-159.89 452.23,-113.41 435.15,-89.29"/>
<polygon fill="midnightblue" stroke="midnightblue" points="437.96,-87.2 429.23,-81.19 432.31,-91.33 437.96,-87.2"/>
</g>
<!-- Node3 -->
<g id="node4" class="node">
<title>Node3</title>
<g id="a_node4"><a xlink:title=" ">
<polygon fill="white" stroke="#bfbfbf" points="1289.35,-0.5 1289.35,-19.5 1333.35,-19.5 1333.35,-0.5 1289.35,-0.5"/>
<text text-anchor="middle" x="1311.35" y="-7.5" font-family="Helvetica,sans-Serif" font-size="10.00">string</text>
</a>
</g>
</g>
<!-- Node0&#45;&gt;Node3 -->
<g id="edge3" class="edge">
<title>Node0&#45;&gt;Node3</title>
<path fill="none" stroke="midnightblue" d="M1409.97,-401.02C1479.71,-386.45 1578.35,-351.98 1578.35,-273.5 1578.35,-273.5 1578.35,-273.5 1578.35,-137.5 1578.35,-100.31 1586.29,-81.64 1559.35,-56 1528.77,-26.9 1403.44,-16.1 1343.53,-12.55"/>
<polygon fill="midnightblue" stroke="midnightblue" points="1343.66,-9.05 1333.48,-11.99 1343.27,-16.04 1343.66,-9.05"/>
</g>
<!-- Node4 -->
<g id="node5" class="node">
<title>Node4</title>
<g id="a_node5"><a xlink:href="drake__copyable_8h.html" target="_top" xlink:title="Provides careful macros to selectively enable or disable the special member functions for copy&#45;constr...">
<polygon fill="white" stroke="black" points="1820.85,-56.5 1820.85,-86.5 1939.85,-86.5 1939.85,-56.5 1820.85,-56.5"/>
<text text-anchor="start" x="1828.85" y="-74.5" font-family="Helvetica,sans-Serif" font-size="10.00">drake/common/drake</text>
<text text-anchor="middle" x="1880.35" y="-63.5" font-family="Helvetica,sans-Serif" font-size="10.00">_copyable.h</text>
</a>
</g>
</g>
<!-- Node0&#45;&gt;Node4 -->
<g id="edge4" class="edge">
<title>Node0&#45;&gt;Node4</title>
<path fill="none" stroke="midnightblue" d="M1409.91,-407.46C1551.7,-398.18 1867.35,-367.01 1867.35,-273.5 1867.35,-273.5 1867.35,-273.5 1867.35,-204.5 1867.35,-166.82 1872.66,-123.38 1876.49,-96.94"/>
<polygon fill="midnightblue" stroke="midnightblue" points="1880,-97.12 1878.02,-86.71 1873.08,-96.08 1880,-97.12"/>
</g>
<!-- Node5 -->
<g id="node6" class="node">
<title>Node5</title>
<g id="a_node6"><a xlink:href="sorted__pair_8h.html" target="_top" xlink:title="Provides drake::MakeSortedPair and drake::SortedPair for storing two values of a certain type in sort...">
<polygon fill="white" stroke="black" points="188.85,-190.5 188.85,-220.5 311.85,-220.5 311.85,-190.5 188.85,-190.5"/>
<text text-anchor="start" x="196.85" y="-208.5" font-family="Helvetica,sans-Serif" font-size="10.00">drake/common/sorted</text>
<text text-anchor="middle" x="250.35" y="-197.5" font-family="Helvetica,sans-Serif" font-size="10.00">_pair.h</text>
</a>
</g>
</g>
<!-- Node0&#45;&gt;Node5 -->
<g id="edge5" class="edge">
<title>Node0&#45;&gt;Node5</title>
<path fill="none" stroke="midnightblue" d="M1274.53,-409.69C1072.13,-405.4 481.44,-390 402.35,-355 340.72,-327.73 289.64,-263.76 265.44,-229.36"/>
<polygon fill="midnightblue" stroke="midnightblue" points="268.17,-227.14 259.61,-220.89 262.4,-231.11 268.17,-227.14"/>
</g>
<!-- Node21 -->
<g id="node22" class="node">
<title>Node21</title>
<g id="a_node22"><a xlink:href="detail__instanced__name_8h.html" target="_top" xlink:title=" ">
<polygon fill="white" stroke="black" points="1271.35,-324.5 1271.35,-354.5 1413.35,-354.5 1413.35,-324.5 1271.35,-324.5"/>
<text text-anchor="start" x="1279.35" y="-342.5" font-family="Helvetica,sans-Serif" font-size="10.00">drake/multibody/parsing</text>
<text text-anchor="middle" x="1342.35" y="-331.5" font-family="Helvetica,sans-Serif" font-size="10.00">/detail_instanced_name.h</text>
</a>
</g>
</g>
<!-- Node0&#45;&gt;Node21 -->
<g id="edge31" class="edge">
<title>Node0&#45;&gt;Node21</title>
<path fill="none" stroke="midnightblue" d="M1342.35,-391.36C1342.35,-383.23 1342.35,-373.7 1342.35,-365.11"/>
<polygon fill="midnightblue" stroke="midnightblue" points="1345.85,-364.89 1342.35,-354.89 1338.85,-364.89 1345.85,-364.89"/>
</g>
<!-- Node35 -->
<g id="node36" class="node">
<title>Node35</title>
<g id="a_node36"><a xlink:href="scoped__name_8h.html" target="_top" xlink:title=" ">
<polygon fill="white" stroke="black" points="1644.85,-123.5 1644.85,-153.5 1763.85,-153.5 1763.85,-123.5 1644.85,-123.5"/>
<text text-anchor="start" x="1652.85" y="-141.5" font-family="Helvetica,sans-Serif" font-size="10.00">drake/multibody/tree</text>
<text text-anchor="middle" x="1704.35" y="-130.5" font-family="Helvetica,sans-Serif" font-size="10.00">/scoped_name.h</text>
</a>
</g>
</g>
<!-- Node0&#45;&gt;Node35 -->
<g id="edge61" class="edge">
<title>Node0&#45;&gt;Node35</title>
<path fill="none" stroke="midnightblue" d="M1409.85,-402.39C1473.82,-393.1 1564.19,-376.67 1592.35,-355 1656.69,-305.48 1687.6,-208.53 1698.97,-163.52"/>
<polygon fill="midnightblue" stroke="midnightblue" points="1702.39,-164.29 1701.34,-153.75 1695.59,-162.64 1702.39,-164.29"/>
</g>
<!-- Node6 -->
<g id="node7" class="node">
<title>Node6</title>
<g id="a_node7"><a xlink:title=" ">
<polygon fill="white" stroke="#bfbfbf" points="14.35,-129 14.35,-148 78.35,-148 78.35,-129 14.35,-129"/>
<text text-anchor="middle" x="46.35" y="-136" font-family="Helvetica,sans-Serif" font-size="10.00">algorithm</text>
</a>
</g>
</g>
<!-- Node5&#45;&gt;Node6 -->
<g id="edge6" class="edge">
<title>Node5&#45;&gt;Node6</title>
<path fill="none" stroke="midnightblue" d="M203.11,-190.4C170.49,-180.54 126.15,-166.87 87.35,-154 84.9,-153.19 82.38,-152.34 79.84,-151.47"/>
<polygon fill="midnightblue" stroke="midnightblue" points="80.73,-148.07 70.14,-148.09 78.43,-154.68 80.73,-148.07"/>
</g>
<!-- Node7 -->
<g id="node8" class="node">
<title>Node7</title>
<g id="a_node8"><a xlink:title=" ">
<polygon fill="white" stroke="#bfbfbf" points="278.85,-62 278.85,-81 331.85,-81 331.85,-62 278.85,-62"/>
<text text-anchor="middle" x="305.35" y="-69" font-family="Helvetica,sans-Serif" font-size="10.00">cstddef</text>
</a>
</g>
</g>
<!-- Node5&#45;&gt;Node7 -->
<g id="edge7" class="edge">
<title>Node5&#45;&gt;Node7</title>
<path fill="none" stroke="midnightblue" d="M256.23,-190.37C266.31,-166.18 286.85,-116.88 297.91,-90.35"/>
<polygon fill="midnightblue" stroke="midnightblue" points="301.15,-91.67 301.76,-81.1 294.69,-88.98 301.15,-91.67"/>
</g>
<!-- Node8 -->
<g id="node9" class="node">
<title>Node8</title>
<g id="a_node9"><a xlink:title=" ">
<polygon fill="white" stroke="#bfbfbf" points="533.85,-0.5 533.85,-19.5 602.85,-19.5 602.85,-0.5 533.85,-0.5"/>
<text text-anchor="middle" x="568.35" y="-7.5" font-family="Helvetica,sans-Serif" font-size="10.00">type_traits</text>
</a>
</g>
</g>
<!-- Node5&#45;&gt;Node8 -->
<g id="edge8" class="edge">
<title>Node5&#45;&gt;Node8</title>
<path fill="none" stroke="midnightblue" d="M188.65,-200.47C123.79,-194.8 28.05,-181.86 5.35,-154 -3.36,-143.32 0.43,-135.87 5.35,-123 19.62,-85.66 29.61,-73.92 65.35,-56 145.08,-16.01 415.83,-11.16 523.58,-10.86"/>
<polygon fill="midnightblue" stroke="midnightblue" points="523.79,-14.36 533.79,-10.84 523.78,-7.36 523.79,-14.36"/>
</g>
<!-- Node9 -->
<g id="node10" class="node">
<title>Node9</title>
<g id="a_node10"><a xlink:title=" ">
<polygon fill="white" stroke="#bfbfbf" points="722.85,-0.5 722.85,-19.5 767.85,-19.5 767.85,-0.5 722.85,-0.5"/>
<text text-anchor="middle" x="745.35" y="-7.5" font-family="Helvetica,sans-Serif" font-size="10.00">utility</text>
</a>
</g>
</g>
<!-- Node5&#45;&gt;Node9 -->
<g id="edge9" class="edge">
<title>Node5&#45;&gt;Node9</title>
<path fill="none" stroke="midnightblue" d="M247.04,-190.15C241.13,-160.35 232.55,-91.6 269.35,-56 277.35,-48.26 606.51,-21.87 712.7,-13.54"/>
<polygon fill="midnightblue" stroke="midnightblue" points="713.13,-17.02 722.82,-12.75 712.58,-10.04 713.13,-17.02"/>
</g>
<!-- Node10 -->
<g id="node11" class="node">
<title>Node10</title>
<g id="a_node11"><a xlink:href="hash_8h.html" target="_top" xlink:title=" ">
<polygon fill="white" stroke="black" points="559.85,-129 559.85,-148 684.85,-148 684.85,-129 559.85,-129"/>
<text text-anchor="middle" x="622.35" y="-136" font-family="Helvetica,sans-Serif" font-size="10.00">drake/common/hash.h</text>
</a>
</g>
</g>
<!-- Node5&#45;&gt;Node10 -->
<g id="edge10" class="edge">
<title>Node5&#45;&gt;Node10</title>
<path fill="none" stroke="midnightblue" d="M312.19,-193.69C381.95,-181.5 494.6,-161.82 563.22,-149.83"/>
<polygon fill="midnightblue" stroke="midnightblue" points="564.18,-153.22 573.43,-148.05 562.98,-146.32 564.18,-153.22"/>
</g>
<!-- Node19 -->
<g id="node20" class="node">
<title>Node19</title>
<g id="a_node20"><a xlink:href="is__less__than__comparable_8h.html" target="_top" xlink:title=" ">
<polygon fill="white" stroke="black" points="96.85,-123.5 96.85,-153.5 221.85,-153.5 221.85,-123.5 96.85,-123.5"/>
<text text-anchor="start" x="104.85" y="-141.5" font-family="Helvetica,sans-Serif" font-size="10.00">drake/common/is_less</text>
<text text-anchor="middle" x="159.35" y="-130.5" font-family="Helvetica,sans-Serif" font-size="10.00">_than_comparable.h</text>
</a>
</g>
</g>
<!-- Node5&#45;&gt;Node19 -->
<g id="edge28" class="edge">
<title>Node5&#45;&gt;Node19</title>
<path fill="none" stroke="midnightblue" d="M230.6,-190.4C217.96,-181.37 201.37,-169.51 187.37,-159.52"/>
<polygon fill="midnightblue" stroke="midnightblue" points="189.22,-156.54 179.05,-153.58 185.16,-162.24 189.22,-156.54"/>
</g>
<!-- Node10&#45;&gt;Node1 -->
<g id="edge15" class="edge">
<title>Node10&#45;&gt;Node1</title>
<path fill="none" stroke="midnightblue" d="M565.72,-128.95C519.52,-120.99 453.02,-107.28 397.35,-87 396.1,-86.55 394.84,-86.05 393.58,-85.52"/>
<polygon fill="midnightblue" stroke="midnightblue" points="394.67,-82.17 384.14,-81.06 391.68,-88.5 394.67,-82.17"/>
</g>
<!-- Node10&#45;&gt;Node2 -->
<g id="edge17" class="edge">
<title>Node10&#45;&gt;Node2</title>
<path fill="none" stroke="midnightblue" d="M587.61,-128.94C552.86,-119.97 498.14,-104.73 452.35,-87 450.93,-86.45 449.49,-85.86 448.04,-85.25"/>
<polygon fill="midnightblue" stroke="midnightblue" points="449.19,-81.93 438.64,-80.96 446.29,-88.3 449.19,-81.93"/>
</g>
<!-- Node10&#45;&gt;Node3 -->
<g id="edge18" class="edge">
<title>Node10&#45;&gt;Node3</title>
<path fill="none" stroke="midnightblue" d="M666.54,-128.96C737.8,-115.15 870.61,-89.23 875.35,-87 895.06,-77.7 893.26,-64.46 913.35,-56 979.35,-28.22 1196.79,-16.01 1279.25,-12.3"/>
<polygon fill="midnightblue" stroke="midnightblue" points="1279.45,-15.8 1289.29,-11.86 1279.15,-8.8 1279.45,-15.8"/>
</g>
<!-- Node10&#45;&gt;Node7 -->
<g id="edge12" class="edge">
<title>Node10&#45;&gt;Node7</title>
<path fill="none" stroke="midnightblue" d="M559.84,-130.01C502.33,-122.24 415.05,-108.22 341.35,-87 338.91,-86.3 336.41,-85.49 333.92,-84.62"/>
<polygon fill="midnightblue" stroke="midnightblue" points="335.11,-81.33 324.52,-81.07 332.64,-87.88 335.11,-81.33"/>
</g>
<!-- Node10&#45;&gt;Node8 -->
<g id="edge19" class="edge">
<title>Node10&#45;&gt;Node8</title>
<path fill="none" stroke="midnightblue" d="M559.68,-130.44C532.12,-123.86 502.23,-111.23 485.35,-87 477.47,-75.7 478.3,-67.84 485.35,-56 494.44,-40.72 510.73,-30.31 526.49,-23.39"/>
<polygon fill="midnightblue" stroke="midnightblue" points="528.18,-26.48 536.16,-19.51 525.58,-19.98 528.18,-26.48"/>
</g>
<!-- Node10&#45;&gt;Node9 -->
<g id="edge20" class="edge">
<title>Node10&#45;&gt;Node9</title>
<path fill="none" stroke="midnightblue" d="M613.65,-128.91C598.81,-113.2 571.82,-79.3 589.35,-56 604.15,-36.31 671.46,-22.53 712.68,-15.77"/>
<polygon fill="midnightblue" stroke="midnightblue" points="713.47,-19.19 722.8,-14.16 712.37,-12.27 713.47,-19.19"/>
</g>
<!-- Node11 -->
<g id="node12" class="node">
<title>Node11</title>
<g id="a_node12"><a xlink:title=" ">
<polygon fill="white" stroke="#bfbfbf" points="598.85,-62 598.85,-81 645.85,-81 645.85,-62 598.85,-62"/>
<text text-anchor="middle" x="622.35" y="-69" font-family="Helvetica,sans-Serif" font-size="10.00">cmath</text>
</a>
</g>
</g>
<!-- Node10&#45;&gt;Node11 -->
<g id="edge11" class="edge">
<title>Node10&#45;&gt;Node11</title>
<path fill="none" stroke="midnightblue" d="M622.35,-128.73C622.35,-119.18 622.35,-103.62 622.35,-91.28"/>
<polygon fill="midnightblue" stroke="midnightblue" points="625.85,-91.13 622.35,-81.13 618.85,-91.13 625.85,-91.13"/>
</g>
<!-- Node12 -->
<g id="node13" class="node">
<title>Node12</title>
<g id="a_node13"><a xlink:title=" ">
<polygon fill="white" stroke="#bfbfbf" points="922.35,-62 922.35,-81 972.35,-81 972.35,-62 922.35,-62"/>
<text text-anchor="middle" x="947.35" y="-69" font-family="Helvetica,sans-Serif" font-size="10.00">cstdint</text>
</a>
</g>
</g>
<!-- Node10&#45;&gt;Node12 -->
<g id="edge13" class="edge">
<title>Node10&#45;&gt;Node12</title>
<path fill="none" stroke="midnightblue" d="M667.11,-128.95C677.68,-126.96 688.9,-124.88 699.35,-123 792.11,-106.28 817.34,-111.53 908.35,-87 911.16,-86.24 914.05,-85.36 916.93,-84.42"/>
<polygon fill="midnightblue" stroke="midnightblue" points="918.25,-87.67 926.53,-81.05 915.93,-81.06 918.25,-87.67"/>
</g>
<!-- Node13 -->
<g id="node14" class="node">
<title>Node13</title>
<g id="a_node14"><a xlink:title=" ">
<polygon fill="white" stroke="#bfbfbf" points="663.85,-62 663.85,-81 728.85,-81 728.85,-62 663.85,-62"/>
<text text-anchor="middle" x="696.35" y="-69" font-family="Helvetica,sans-Serif" font-size="10.00">functional</text>
</a>
</g>
</g>
<!-- Node10&#45;&gt;Node13 -->
<g id="edge14" class="edge">
<title>Node10&#45;&gt;Node13</title>
<path fill="none" stroke="midnightblue" d="M632.33,-128.73C644.2,-118.31 664.23,-100.71 678.73,-87.97"/>
<polygon fill="midnightblue" stroke="midnightblue" points="681.32,-90.36 686.52,-81.13 676.7,-85.1 681.32,-90.36"/>
</g>
<!-- Node14 -->
<g id="node15" class="node">
<title>Node14</title>
<g id="a_node15"><a xlink:title=" ">
<polygon fill="white" stroke="#bfbfbf" points="1358.35,-62 1358.35,-81 1414.35,-81 1414.35,-62 1358.35,-62"/>
<text text-anchor="middle" x="1386.35" y="-69" font-family="Helvetica,sans-Serif" font-size="10.00">optional</text>
</a>
</g>
</g>
<!-- Node10&#45;&gt;Node14 -->
<g id="edge16" class="edge">
<title>Node10&#45;&gt;Node14</title>
<path fill="none" stroke="midnightblue" d="M662.97,-128.95C674.67,-126.74 687.47,-124.54 699.35,-123 919.41,-94.42 976.05,-103.49 1197.35,-87 1249.54,-83.11 1309.83,-78.46 1348.01,-75.49"/>
<polygon fill="midnightblue" stroke="midnightblue" points="1348.47,-78.97 1358.17,-74.7 1347.93,-71.99 1348.47,-78.97"/>
</g>
<!-- Node15 -->
<g id="node16" class="node">
<title>Node15</title>
<g id="a_node16"><a xlink:title=" ">
<polygon fill="white" stroke="#bfbfbf" points="494.85,-62 494.85,-81 541.85,-81 541.85,-62 494.85,-62"/>
<text text-anchor="middle" x="518.35" y="-69" font-family="Helvetica,sans-Serif" font-size="10.00">vector</text>
</a>
</g>
</g>
<!-- Node10&#45;&gt;Node15 -->
<g id="edge21" class="edge">
<title>Node10&#45;&gt;Node15</title>
<path fill="none" stroke="midnightblue" d="M608.32,-128.73C591.01,-117.92 561.36,-99.38 540.85,-86.57"/>
<polygon fill="midnightblue" stroke="midnightblue" points="542.48,-83.46 532.15,-81.13 538.77,-89.4 542.48,-83.46"/>
</g>
<!-- Node16 -->
<g id="node17" class="node">
<title>Node16</title>
<g id="a_node17"><a xlink:href="drake__assert_8h.html" target="_top" xlink:title="Provides Drake&#39;s assertion mechanics.">
<polygon fill="white" stroke="black" points="746.85,-56.5 746.85,-86.5 865.85,-86.5 865.85,-56.5 746.85,-56.5"/>
<text text-anchor="start" x="754.85" y="-74.5" font-family="Helvetica,sans-Serif" font-size="10.00">drake/common/drake</text>
<text text-anchor="middle" x="806.35" y="-63.5" font-family="Helvetica,sans-Serif" font-size="10.00">_assert.h</text>
</a>
</g>
</g>
<!-- Node10&#45;&gt;Node16 -->
<g id="edge22" class="edge">
<title>Node10&#45;&gt;Node16</title>
<path fill="none" stroke="midnightblue" d="M646.78,-128.87C674.75,-118.99 721.28,-102.55 756.9,-89.97"/>
<polygon fill="midnightblue" stroke="midnightblue" points="758.37,-93.16 766.64,-86.53 756.04,-86.56 758.37,-93.16"/>
</g>
<!-- Node16&#45;&gt;Node3 -->
<g id="edge24" class="edge">
<title>Node16&#45;&gt;Node3</title>
<path fill="none" stroke="midnightblue" d="M866.04,-58.33C870.87,-57.49 875.68,-56.7 880.35,-56 1028.61,-33.78 1207.2,-18.89 1279.07,-13.38"/>
<polygon fill="midnightblue" stroke="midnightblue" points="1279.57,-16.85 1289.28,-12.6 1279.04,-9.87 1279.57,-16.85"/>
</g>
<!-- Node16&#45;&gt;Node8 -->
<g id="edge26" class="edge">
<title>Node16&#45;&gt;Node8</title>
<path fill="none" stroke="midnightblue" d="M750.24,-56.47C708.11,-45.94 651.21,-31.72 612.34,-22"/>
<polygon fill="midnightblue" stroke="midnightblue" points="612.92,-18.54 602.37,-19.51 611.22,-25.33 612.92,-18.54"/>
</g>
<!-- Node16&#45;&gt;Node9 -->
<g id="edge27" class="edge">
<title>Node16&#45;&gt;Node9</title>
<path fill="none" stroke="midnightblue" d="M791.89,-56.4C782.75,-47.49 770.93,-35.95 761.48,-26.74"/>
<polygon fill="midnightblue" stroke="midnightblue" points="763.82,-24.13 754.22,-19.66 758.94,-29.15 763.82,-24.13"/>
</g>
<!-- Node17 -->
<g id="node18" class="node">
<title>Node17</title>
<g id="a_node18"><a xlink:title=" ">
<polygon fill="white" stroke="#bfbfbf" points="845.35,-0.5 845.35,-19.5 887.35,-19.5 887.35,-0.5 845.35,-0.5"/>
<text text-anchor="middle" x="866.35" y="-7.5" font-family="Helvetica,sans-Serif" font-size="10.00">array</text>
</a>
</g>
</g>
<!-- Node16&#45;&gt;Node17 -->
<g id="edge23" class="edge">
<title>Node16&#45;&gt;Node17</title>
<path fill="none" stroke="midnightblue" d="M820.56,-56.4C829.55,-47.49 841.18,-35.95 850.47,-26.74"/>
<polygon fill="midnightblue" stroke="midnightblue" points="852.98,-29.18 857.61,-19.66 848.05,-24.21 852.98,-29.18"/>
</g>
<!-- Node18 -->
<g id="node19" class="node">
<title>Node18</title>
<g id="a_node19"><a xlink:title=" ">
<polygon fill="white" stroke="#bfbfbf" points="785.85,-0.5 785.85,-19.5 826.85,-19.5 826.85,-0.5 785.85,-0.5"/>
<text text-anchor="middle" x="806.35" y="-7.5" font-family="Helvetica,sans-Serif" font-size="10.00">tuple</text>
</a>
</g>
</g>
<!-- Node16&#45;&gt;Node18 -->
<g id="edge25" class="edge">
<title>Node16&#45;&gt;Node18</title>
<path fill="none" stroke="midnightblue" d="M806.35,-56.4C806.35,-48.47 806.35,-38.46 806.35,-29.86"/>
<polygon fill="midnightblue" stroke="midnightblue" points="809.85,-29.66 806.35,-19.66 802.85,-29.66 809.85,-29.66"/>
</g>
<!-- Node19&#45;&gt;Node8 -->
<g id="edge29" class="edge">
<title>Node19&#45;&gt;Node8</title>
<path fill="none" stroke="midnightblue" d="M126.77,-123.46C94.42,-107.62 52.67,-80.84 75.35,-56 105.23,-23.26 407.14,-14.06 523.21,-11.73"/>
<polygon fill="midnightblue" stroke="midnightblue" points="523.59,-15.22 533.52,-11.53 523.46,-8.22 523.59,-15.22"/>
</g>
<!-- Node20 -->
<g id="node21" class="node">
<title>Node20</title>
<g id="a_node21"><a xlink:href="unused_8h.html" target="_top" xlink:title=" ">
<polygon fill="white" stroke="black" points="84.85,-62 84.85,-81 221.85,-81 221.85,-62 84.85,-62"/>
<text text-anchor="middle" x="153.35" y="-69" font-family="Helvetica,sans-Serif" font-size="10.00">drake/common/unused.h</text>
</a>
</g>
</g>
<!-- Node19&#45;&gt;Node20 -->
<g id="edge30" class="edge">
<title>Node19&#45;&gt;Node20</title>
<path fill="none" stroke="midnightblue" d="M158.04,-123.4C157.17,-113.96 156.02,-101.45 155.07,-91.19"/>
<polygon fill="midnightblue" stroke="midnightblue" points="158.55,-90.83 154.15,-81.19 151.58,-91.47 158.55,-90.83"/>
</g>
<!-- Node21&#45;&gt;Node3 -->
<g id="edge34" class="edge">
<title>Node21&#45;&gt;Node3</title>
<path fill="none" stroke="midnightblue" d="M1341.14,-324.38C1337.6,-283.08 1326.8,-158.9 1316.35,-56 1315.47,-47.39 1314.42,-37.86 1313.51,-29.8"/>
<polygon fill="midnightblue" stroke="midnightblue" points="1316.96,-29.16 1312.35,-19.62 1310.01,-29.95 1316.96,-29.16"/>
</g>
<!-- Node21&#45;&gt;Node14 -->
<g id="edge33" class="edge">
<title>Node21&#45;&gt;Node14</title>
<path fill="none" stroke="midnightblue" d="M1346.77,-324.47C1349.82,-314.41 1353.76,-300.47 1356.35,-288 1371.28,-215.93 1380.86,-128.73 1384.58,-91.18"/>
<polygon fill="midnightblue" stroke="midnightblue" points="1388.07,-91.48 1385.55,-81.19 1381.1,-90.81 1388.07,-91.48"/>
</g>
<!-- Node22 -->
<g id="node23" class="node">
<title>Node22</title>
<g id="a_node23"><a xlink:title=" ">
<polygon fill="white" stroke="#bfbfbf" points="1254.85,-263 1254.85,-282 1313.85,-282 1313.85,-263 1254.85,-263"/>
<text text-anchor="middle" x="1284.35" y="-270" font-family="Helvetica,sans-Serif" font-size="10.00">compare</text>
</a>
</g>
</g>
<!-- Node21&#45;&gt;Node22 -->
<g id="edge32" class="edge">
<title>Node21&#45;&gt;Node22</title>
<path fill="none" stroke="midnightblue" d="M1329.76,-324.4C1320.72,-314.26 1308.5,-300.57 1299.01,-289.94"/>
<polygon fill="midnightblue" stroke="midnightblue" points="1301.37,-287.33 1292.1,-282.19 1296.15,-291.99 1301.37,-287.33"/>
</g>
<!-- Node23 -->
<g id="node24" class="node">
<title>Node23</title>
<g id="a_node24"><a xlink:href="fmt_8h.html" target="_top" xlink:title=" ">
<polygon fill="white" stroke="black" points="1606.85,-62 1606.85,-81 1725.85,-81 1725.85,-62 1606.85,-62"/>
<text text-anchor="middle" x="1666.35" y="-69" font-family="Helvetica,sans-Serif" font-size="10.00">drake/common/fmt.h</text>
</a>
</g>
</g>
<!-- Node21&#45;&gt;Node23 -->
<g id="edge35" class="edge">
<title>Node21&#45;&gt;Node23</title>
<path fill="none" stroke="midnightblue" d="M1359.77,-324.2C1415.78,-278.21 1590.92,-134.43 1648.09,-87.49"/>
<polygon fill="midnightblue" stroke="midnightblue" points="1650.42,-90.1 1655.93,-81.05 1645.98,-84.69 1650.42,-90.1"/>
</g>
<!-- Node26 -->
<g id="node27" class="node">
<title>Node26</title>
<g id="a_node27"><a xlink:href="multibody__tree__indexes_8h.html" target="_top" xlink:title=" ">
<polygon fill="white" stroke="black" points="1049.35,-257.5 1049.35,-287.5 1195.35,-287.5 1195.35,-257.5 1049.35,-257.5"/>
<text text-anchor="start" x="1057.35" y="-275.5" font-family="Helvetica,sans-Serif" font-size="10.00">drake/multibody/tree</text>
<text text-anchor="middle" x="1122.35" y="-264.5" font-family="Helvetica,sans-Serif" font-size="10.00">/multibody_tree_indexes.h</text>
</a>
</g>
</g>
<!-- Node21&#45;&gt;Node26 -->
<g id="edge40" class="edge">
<title>Node21&#45;&gt;Node26</title>
<path fill="none" stroke="midnightblue" d="M1294.88,-324.48C1261.16,-314.51 1215.71,-301.09 1179.93,-290.51"/>
<polygon fill="midnightblue" stroke="midnightblue" points="1180.69,-287.09 1170.11,-287.61 1178.7,-293.8 1180.69,-287.09"/>
</g>
<!-- Node23&#45;&gt;Node3 -->
<g id="edge36" class="edge">
<title>Node23&#45;&gt;Node3</title>
<path fill="none" stroke="midnightblue" d="M1624.13,-61.97C1613.75,-59.94 1602.66,-57.84 1592.35,-56 1502.47,-40 1395.95,-23.66 1343.63,-15.8"/>
<polygon fill="midnightblue" stroke="midnightblue" points="1344.02,-12.32 1333.61,-14.3 1342.98,-19.24 1344.02,-12.32"/>
</g>
<!-- Node23&#45;&gt;Node8 -->
<g id="edge38" class="edge">
<title>Node23&#45;&gt;Node8</title>
<path fill="none" stroke="midnightblue" d="M1610.64,-61.96C1594.16,-59.7 1576.06,-57.49 1559.35,-56 1184.92,-22.73 1089.73,-39.56 714.35,-20 680.35,-18.23 641.93,-15.84 613.04,-13.98"/>
<polygon fill="midnightblue" stroke="midnightblue" points="613.06,-10.47 602.85,-13.31 612.6,-17.45 613.06,-10.47"/>
</g>
<!-- Node24 -->
<g id="node25" class="node">
<title>Node24</title>
<g id="a_node25"><a xlink:title=" ">
<polygon fill="white" stroke="#bfbfbf" points="1582.85,-0.5 1582.85,-19.5 1655.85,-19.5 1655.85,-0.5 1582.85,-0.5"/>
<text text-anchor="middle" x="1619.35" y="-7.5" font-family="Helvetica,sans-Serif" font-size="10.00">string_view</text>
</a>
</g>
</g>
<!-- Node23&#45;&gt;Node24 -->
<g id="edge37" class="edge">
<title>Node23&#45;&gt;Node24</title>
<path fill="none" stroke="midnightblue" d="M1659.61,-61.98C1652.56,-53.05 1641.31,-38.81 1632.49,-27.64"/>
<polygon fill="midnightblue" stroke="midnightblue" points="1635.01,-25.19 1626.07,-19.51 1629.52,-29.53 1635.01,-25.19"/>
</g>
<!-- Node25 -->
<g id="node26" class="node">
<title>Node25</title>
<g id="a_node26"><a xlink:title=" ">
<polygon fill="white" stroke="#bfbfbf" points="1673.85,-0.5 1673.85,-19.5 1752.85,-19.5 1752.85,-0.5 1673.85,-0.5"/>
<text text-anchor="middle" x="1713.35" y="-7.5" font-family="Helvetica,sans-Serif" font-size="10.00">fmt/format.h</text>
</a>
</g>
</g>
<!-- Node23&#45;&gt;Node25 -->
<g id="edge39" class="edge">
<title>Node23&#45;&gt;Node25</title>
<path fill="none" stroke="midnightblue" d="M1673.08,-61.98C1680.13,-53.05 1691.38,-38.81 1700.2,-27.64"/>
<polygon fill="midnightblue" stroke="midnightblue" points="1703.17,-29.53 1706.62,-19.51 1697.68,-25.19 1703.17,-29.53"/>
</g>
<!-- Node27 -->
<g id="node28" class="node">
<title>Node27</title>
<g id="a_node28"><a xlink:href="identifier_8h.html" target="_top" xlink:title=" ">
<polygon fill="white" stroke="black" points="1050.35,-196 1050.35,-215 1194.35,-215 1194.35,-196 1050.35,-196"/>
<text text-anchor="middle" x="1122.35" y="-203" font-family="Helvetica,sans-Serif" font-size="10.00">drake/common/identifier.h</text>
</a>
</g>
</g>
<!-- Node26&#45;&gt;Node27 -->
<g id="edge41" class="edge">
<title>Node26&#45;&gt;Node27</title>
<path fill="none" stroke="midnightblue" d="M1122.35,-257.4C1122.35,-248.06 1122.35,-235.71 1122.35,-225.52"/>
<polygon fill="midnightblue" stroke="midnightblue" points="1125.85,-225.19 1122.35,-215.19 1118.85,-225.19 1125.85,-225.19"/>
</g>
<!-- Node32 -->
<g id="node33" class="node">
<title>Node32</title>
<g id="a_node33"><a xlink:href="type__safe__index_8h.html" target="_top" xlink:title=" ">
<polygon fill="white" stroke="black" points="786.35,-190.5 786.35,-220.5 926.35,-220.5 926.35,-190.5 786.35,-190.5"/>
<text text-anchor="start" x="794.35" y="-208.5" font-family="Helvetica,sans-Serif" font-size="10.00">drake/common/type_safe</text>
<text text-anchor="middle" x="856.35" y="-197.5" font-family="Helvetica,sans-Serif" font-size="10.00">_index.h</text>
</a>
</g>
</g>
<!-- Node26&#45;&gt;Node32 -->
<g id="edge54" class="edge">
<title>Node26&#45;&gt;Node32</title>
<path fill="none" stroke="midnightblue" d="M1064.95,-257.48C1023.58,-247.37 967.59,-233.68 924.03,-223.04"/>
<polygon fill="midnightblue" stroke="midnightblue" points="924.64,-219.58 914.09,-220.61 922.97,-226.38 924.64,-219.58"/>
</g>
<!-- Node27&#45;&gt;Node3 -->
<g id="edge44" class="edge">
<title>Node27&#45;&gt;Node3</title>
<path fill="none" stroke="midnightblue" d="M1194.41,-198.87C1226.64,-192.61 1262.46,-179.83 1285.35,-154 1316.36,-119 1316.1,-59.73 1313.59,-29.68"/>
<polygon fill="midnightblue" stroke="midnightblue" points="1317.07,-29.3 1312.57,-19.7 1310.1,-30 1317.07,-29.3"/>
</g>
<!-- Node27&#45;&gt;Node4 -->
<g id="edge47" class="edge">
<title>Node27&#45;&gt;Node4</title>
<path fill="none" stroke="midnightblue" d="M1194.35,-204.02C1341,-202.2 1669.21,-193.7 1773.35,-154 1807.44,-141 1839.78,-113.51 1859.8,-94.06"/>
<polygon fill="midnightblue" stroke="midnightblue" points="1862.48,-96.32 1867.1,-86.79 1857.54,-91.36 1862.48,-96.32"/>
</g>
<!-- Node27&#45;&gt;Node9 -->
<g id="edge45" class="edge">
<title>Node27&#45;&gt;Node9</title>
<path fill="none" stroke="midnightblue" d="M1133.13,-195.82C1162.35,-171.31 1238.17,-100.47 1197.35,-56 1167.22,-23.18 856.11,-27.8 778.06,-19.34"/>
<polygon fill="midnightblue" stroke="midnightblue" points="778.34,-15.85 767.95,-17.93 777.37,-22.78 778.34,-15.85"/>
</g>
<!-- Node27&#45;&gt;Node10 -->
<g id="edge53" class="edge">
<title>Node27&#45;&gt;Node10</title>
<path fill="none" stroke="midnightblue" d="M1050.29,-197.39C965.95,-188.72 822.15,-172.87 699.35,-154 691.41,-152.78 683.04,-151.35 674.86,-149.88"/>
<polygon fill="midnightblue" stroke="midnightblue" points="675.49,-146.43 665.02,-148.07 674.22,-153.32 675.49,-146.43"/>
</g>
<!-- Node27&#45;&gt;Node12 -->
<g id="edge42" class="edge">
<title>Node27&#45;&gt;Node12</title>
<path fill="none" stroke="midnightblue" d="M1077.02,-195.96C1049.05,-188.75 1013.94,-175.96 989.35,-154 970.38,-137.06 958.73,-109.53 952.65,-91.22"/>
<polygon fill="midnightblue" stroke="midnightblue" points="955.92,-89.95 949.63,-81.42 949.23,-92 955.92,-89.95"/>
</g>
<!-- Node27&#45;&gt;Node16 -->
<g id="edge46" class="edge">
<title>Node27&#45;&gt;Node16</title>
<path fill="none" stroke="midnightblue" d="M1089.57,-195.98C1056.8,-187.04 1005.25,-171.82 962.35,-154 918.36,-135.73 870.1,-109.5 839.08,-91.77"/>
<polygon fill="midnightblue" stroke="midnightblue" points="840.45,-88.51 830.03,-86.56 836.95,-94.58 840.45,-88.51"/>
</g>
<!-- Node28 -->
<g id="node29" class="node">
<title>Node28</title>
<g id="a_node29"><a xlink:title=" ">
<polygon fill="white" stroke="#bfbfbf" points="1218.85,-129 1218.85,-148 1275.85,-148 1275.85,-129 1218.85,-129"/>
<text text-anchor="middle" x="1247.35" y="-136" font-family="Helvetica,sans-Serif" font-size="10.00">ostream</text>
</a>
</g>
</g>
<!-- Node27&#45;&gt;Node28 -->
<g id="edge43" class="edge">
<title>Node27&#45;&gt;Node28</title>
<path fill="none" stroke="midnightblue" d="M1138.94,-195.87C1160.05,-184.89 1196.72,-165.82 1221.5,-152.94"/>
<polygon fill="midnightblue" stroke="midnightblue" points="1223.42,-155.89 1230.68,-148.17 1220.19,-149.68 1223.42,-155.89"/>
</g>
<!-- Node29 -->
<g id="node30" class="node">
<title>Node29</title>
<g id="a_node30"><a xlink:href="fmt__ostream_8h.html" target="_top" xlink:title=" ">
<polygon fill="white" stroke="black" points="998.35,-129 998.35,-148 1162.35,-148 1162.35,-129 998.35,-129"/>
<text text-anchor="middle" x="1080.35" y="-136" font-family="Helvetica,sans-Serif" font-size="10.00">drake/common/fmt_ostream.h</text>
</a>
</g>
</g>
<!-- Node27&#45;&gt;Node29 -->
<g id="edge48" class="edge">
<title>Node27&#45;&gt;Node29</title>
<path fill="none" stroke="midnightblue" d="M1116.68,-195.73C1110.26,-185.79 1099.63,-169.34 1091.52,-156.79"/>
<polygon fill="midnightblue" stroke="midnightblue" points="1094.29,-154.63 1085.92,-148.13 1088.41,-158.43 1094.29,-154.63"/>
</g>
<!-- Node29&#45;&gt;Node23 -->
<g id="edge52" class="edge">
<title>Node29&#45;&gt;Node23</title>
<path fill="none" stroke="midnightblue" d="M1155.61,-129C1173.54,-127 1192.62,-124.9 1210.35,-123 1365.39,-106.36 1404.51,-105.47 1559.35,-87 1571.34,-85.57 1584.08,-83.94 1596.43,-82.3"/>
<polygon fill="midnightblue" stroke="midnightblue" points="1597.23,-85.72 1606.68,-80.93 1596.31,-78.79 1597.23,-85.72"/>
</g>
<!-- Node29&#45;&gt;Node24 -->
<g id="edge50" class="edge">
<title>Node29&#45;&gt;Node24</title>
<path fill="none" stroke="midnightblue" d="M1104.9,-128.89C1151.87,-112.69 1257.88,-77.38 1349.35,-56 1426.94,-37.86 1518.73,-24.18 1572.83,-16.89"/>
<polygon fill="midnightblue" stroke="midnightblue" points="1573.35,-20.35 1582.8,-15.57 1572.43,-13.42 1573.35,-20.35"/>
</g>
<!-- Node30 -->
<g id="node31" class="node">
<title>Node30</title>
<g id="a_node31"><a xlink:title=" ">
<polygon fill="white" stroke="#bfbfbf" points="1028.35,-62 1028.35,-81 1084.35,-81 1084.35,-62 1028.35,-62"/>
<text text-anchor="middle" x="1056.35" y="-69" font-family="Helvetica,sans-Serif" font-size="10.00">sstream</text>
</a>
</g>
</g>
<!-- Node29&#45;&gt;Node30 -->
<g id="edge49" class="edge">
<title>Node29&#45;&gt;Node30</title>
<path fill="none" stroke="midnightblue" d="M1077.11,-128.73C1073.51,-118.99 1067.6,-102.98 1063,-90.53"/>
<polygon fill="midnightblue" stroke="midnightblue" points="1066.28,-89.3 1059.53,-81.13 1059.71,-91.72 1066.28,-89.3"/>
</g>
<!-- Node31 -->
<g id="node32" class="node">
<title>Node31</title>
<g id="a_node32"><a xlink:title=" ">
<polygon fill="white" stroke="#bfbfbf" points="1102.35,-62 1102.35,-81 1188.35,-81 1188.35,-62 1102.35,-62"/>
<text text-anchor="middle" x="1145.35" y="-69" font-family="Helvetica,sans-Serif" font-size="10.00">fmt/ostream.h</text>
</a>
</g>
</g>
<!-- Node29&#45;&gt;Node31 -->
<g id="edge51" class="edge">
<title>Node29&#45;&gt;Node31</title>
<path fill="none" stroke="midnightblue" d="M1089.11,-128.73C1099.44,-118.4 1116.81,-101.04 1129.51,-88.33"/>
<polygon fill="midnightblue" stroke="midnightblue" points="1132.12,-90.67 1136.72,-81.13 1127.17,-85.72 1132.12,-90.67"/>
</g>
<!-- Node32&#45;&gt;Node3 -->
<g id="edge56" class="edge">
<title>Node32&#45;&gt;Node3</title>
<path fill="none" stroke="midnightblue" d="M871.27,-190.47C909.84,-154.27 1010.43,-60.26 1019.35,-56 1106.33,-14.42 1223,-9.64 1278.87,-10.04"/>
<polygon fill="midnightblue" stroke="midnightblue" points="1279.16,-13.54 1289.21,-10.17 1279.25,-6.54 1279.16,-13.54"/>
</g>
<!-- Node32&#45;&gt;Node10 -->
<g id="edge60" class="edge">
<title>Node32&#45;&gt;Node10</title>
<path fill="none" stroke="midnightblue" d="M805.86,-190.48C763.09,-178.6 702.58,-161.79 662.91,-150.77"/>
<polygon fill="midnightblue" stroke="midnightblue" points="663.62,-147.33 653.05,-148.03 661.75,-154.08 663.62,-147.33"/>
</g>
<!-- Node32&#45;&gt;Node16 -->
<g id="edge58" class="edge">
<title>Node32&#45;&gt;Node16</title>
<path fill="none" stroke="midnightblue" d="M854.44,-190.23C851.9,-173.62 846.62,-145.58 837.35,-123 833.44,-113.5 827.86,-103.72 822.52,-95.33"/>
<polygon fill="midnightblue" stroke="midnightblue" points="825.33,-93.25 816.89,-86.86 819.5,-97.12 825.33,-93.25"/>
</g>
<!-- Node32&#45;&gt;Node29 -->
<g id="edge59" class="edge">
<title>Node32&#45;&gt;Node29</title>
<path fill="none" stroke="midnightblue" d="M904.67,-190.48C945.52,-178.62 1003.3,-161.86 1041.27,-150.84"/>
<polygon fill="midnightblue" stroke="midnightblue" points="1042.33,-154.18 1050.95,-148.03 1040.38,-147.45 1042.33,-154.18"/>
</g>
<!-- Node33 -->
<g id="node34" class="node">
<title>Node33</title>
<g id="a_node34"><a xlink:title=" ">
<polygon fill="white" stroke="#bfbfbf" points="708.35,-129 708.35,-148 752.35,-148 752.35,-129 708.35,-129"/>
<text text-anchor="middle" x="730.35" y="-136" font-family="Helvetica,sans-Serif" font-size="10.00">limits</text>
</a>
</g>
</g>
<!-- Node32&#45;&gt;Node33 -->
<g id="edge55" class="edge">
<title>Node32&#45;&gt;Node33</title>
<path fill="none" stroke="midnightblue" d="M829.01,-190.4C807.29,-179.19 777.14,-163.64 755.9,-152.69"/>
<polygon fill="midnightblue" stroke="midnightblue" points="757.33,-149.48 746.84,-148.01 754.12,-155.7 757.33,-149.48"/>
</g>
<!-- Node34 -->
<g id="node35" class="node">
<title>Node34</title>
<g id="a_node35"><a xlink:title=" ">
<polygon fill="white" stroke="#bfbfbf" points="770.85,-129 770.85,-148 827.85,-148 827.85,-129 770.85,-129"/>
<text text-anchor="middle" x="799.35" y="-136" font-family="Helvetica,sans-Serif" font-size="10.00">typeinfo</text>
</a>
</g>
</g>
<!-- Node32&#45;&gt;Node34 -->
<g id="edge57" class="edge">
<title>Node32&#45;&gt;Node34</title>
<path fill="none" stroke="midnightblue" d="M843.98,-190.4C835.09,-180.26 823.08,-166.57 813.76,-155.94"/>
<polygon fill="midnightblue" stroke="midnightblue" points="816.19,-153.41 806.97,-148.19 810.93,-158.02 816.19,-153.41"/>
</g>
<!-- Node35&#45;&gt;Node3 -->
<g id="edge63" class="edge">
<title>Node35&#45;&gt;Node3</title>
<path fill="none" stroke="midnightblue" d="M1717.53,-123.49C1732.55,-105.85 1752.86,-75.47 1735.35,-56 1709.22,-26.95 1437.83,-15.21 1343.47,-11.99"/>
<polygon fill="midnightblue" stroke="midnightblue" points="1343.48,-8.48 1333.37,-11.65 1343.25,-15.48 1343.48,-8.48"/>
</g>
<!-- Node35&#45;&gt;Node4 -->
<g id="edge65" class="edge">
<title>Node35&#45;&gt;Node4</title>
<path fill="none" stroke="midnightblue" d="M1742.53,-123.4C1768.94,-113.64 1804.27,-100.59 1832.55,-90.15"/>
<polygon fill="midnightblue" stroke="midnightblue" points="1834.06,-93.32 1842.23,-86.58 1831.64,-86.76 1834.06,-93.32"/>
</g>
<!-- Node35&#45;&gt;Node14 -->
<g id="edge62" class="edge">
<title>Node35&#45;&gt;Node14</title>
<path fill="none" stroke="midnightblue" d="M1644.63,-130.01C1587.44,-122.08 1499.06,-107.8 1424.35,-87 1421.69,-86.26 1418.97,-85.41 1416.26,-84.5"/>
<polygon fill="midnightblue" stroke="midnightblue" points="1417.22,-81.13 1406.62,-81.04 1414.85,-87.72 1417.22,-81.13"/>
</g>
<!-- Node35&#45;&gt;Node23 -->
<g id="edge66" class="edge">
<title>Node35&#45;&gt;Node23</title>
<path fill="none" stroke="midnightblue" d="M1696.1,-123.4C1690.35,-113.56 1682.64,-100.38 1676.51,-89.89"/>
<polygon fill="midnightblue" stroke="midnightblue" points="1679.5,-88.06 1671.43,-81.19 1673.45,-91.59 1679.5,-88.06"/>
</g>
<!-- Node35&#45;&gt;Node24 -->
<g id="edge64" class="edge">
<title>Node35&#45;&gt;Node24</title>
<path fill="none" stroke="midnightblue" d="M1729.12,-123.25C1753.95,-107.13 1786.15,-79.98 1768.35,-56 1761.98,-47.43 1706.73,-32.3 1665.36,-21.97"/>
<polygon fill="midnightblue" stroke="midnightblue" points="1665.99,-18.52 1655.44,-19.52 1664.31,-25.32 1665.99,-18.52"/>
</g>
<!-- Node36 -->
<g id="node37" class="node">
<title>Node36</title>
<g id="a_node37"><a xlink:href="reset__after__move_8h.html" target="_top" xlink:title=" ">
<polygon fill="white" stroke="black" points="1432.85,-56.5 1432.85,-86.5 1549.85,-86.5 1549.85,-56.5 1432.85,-56.5"/>
<text text-anchor="start" x="1440.85" y="-74.5" font-family="Helvetica,sans-Serif" font-size="10.00">drake/common/reset</text>
<text text-anchor="middle" x="1491.35" y="-63.5" font-family="Helvetica,sans-Serif" font-size="10.00">_after_move.h</text>
</a>
</g>
</g>
<!-- Node35&#45;&gt;Node36 -->
<g id="edge67" class="edge">
<title>Node35&#45;&gt;Node36</title>
<path fill="none" stroke="midnightblue" d="M1658.39,-123.48C1625.89,-113.56 1582.12,-100.2 1547.54,-89.65"/>
<polygon fill="midnightblue" stroke="midnightblue" points="1548.17,-86.18 1537.59,-86.61 1546.13,-92.88 1548.17,-86.18"/>
</g>
<!-- Node36&#45;&gt;Node8 -->
<g id="edge68" class="edge">
<title>Node36&#45;&gt;Node8</title>
<path fill="none" stroke="midnightblue" d="M1432.84,-57.41C1429.64,-56.88 1426.46,-56.41 1423.35,-56 1110.51,-14.97 1029.37,-37.71 714.35,-20 680.36,-18.09 641.94,-15.71 613.04,-13.88"/>
<polygon fill="midnightblue" stroke="midnightblue" points="613.06,-10.37 602.85,-13.23 612.61,-17.36 613.06,-10.37"/>
</g>
<!-- Node36&#45;&gt;Node9 -->
<g id="edge69" class="edge">
<title>Node36&#45;&gt;Node9</title>
<path fill="none" stroke="midnightblue" d="M1432.84,-57.43C1429.64,-56.9 1426.46,-56.42 1423.35,-56 1141.66,-18.35 1062.84,-66.07 778.15,-19.7"/>
<polygon fill="midnightblue" stroke="midnightblue" points="778.37,-16.19 767.93,-18.01 777.23,-23.1 778.37,-16.19"/>
</g>
</g>
</svg>
        <g id="navigator" transform="translate(0 0)" fill="#404254">
                <rect fill="#f2f5e9" fill-opacity="0.5" stroke="#606060" stroke-width=".5" x="0" y="0" width="60" height="60"/>
                <use id="zoomplus" xlink:href="#zoomPlus" x="17" y="9" onmousedown="handleZoom(evt,'in')"/>
                <use id="zoomminus" xlink:href="#zoomMin" x="42" y="9" onmousedown="handleZoom(evt,'out')"/>
                <use id="reset" xlink:href="#resetDef" x="30" y="36" onmousedown="handleReset()"/>
                <g id="arrowUp" xlink:href="#dirArrow" transform="translate(30 24)" onmousedown="handlePan(0,-1)">
                  <use xlink:href="#rim" fill="#404040">
                        <set attributeName="fill" to="#808080" begin="arrowUp.mouseover" end="arrowUp.mouseout"/>
                  </use>
                  <path fill="none" stroke="white" stroke-width="1.5" d="M0,-3.0v7 M-2.5,-0.5L0,-3.0L2.5,-0.5"/>
                </g>
                <g id="arrowRight" xlink:href="#dirArrow" transform="rotate(90) translate(36 -43)" onmousedown="handlePan(1,0)">
                  <use xlink:href="#rim" fill="#404040">
                        <set attributeName="fill" to="#808080" begin="arrowRight.mouseover" end="arrowRight.mouseout"/>
                  </use>
                  <path fill="none" stroke="white" stroke-width="1.5" d="M0,-3.0v7 M-2.5,-0.5L0,-3.0L2.5,-0.5"/>
                </g>
                <g id="arrowDown" xlink:href="#dirArrow" transform="rotate(180) translate(-30 -48)" onmousedown="handlePan(0,1)">
                  <use xlink:href="#rim" fill="#404040">
                        <set attributeName="fill" to="#808080" begin="arrowDown.mouseover" end="arrowDown.mouseout"/>
                  </use>
                  <path fill="none" stroke="white" stroke-width="1.5" d="M0,-3.0v7 M-2.5,-0.5L0,-3.0L2.5,-0.5"/>
                </g>
                <g id="arrowLeft" xlink:href="#dirArrow" transform="rotate(270) translate(-36 17)" onmousedown="handlePan(-1,0)">
                  <use xlink:href="#rim" fill="#404040">
                        <set attributeName="fill" to="#808080" begin="arrowLeft.mouseover" end="arrowLeft.mouseout"/>
                  </use>
                  <path fill="none" stroke="white" stroke-width="1.5" d="M0,-3.0v7 M-2.5,-0.5L0,-3.0L2.5,-0.5"/>
                </g>
        </g>
        <svg viewBox="0 0 15 15" width="100%" height="30px" preserveAspectRatio="xMaxYMin meet">
         <g id="arrow_out" transform="scale(0.3 0.3)">
          <a xlink:href="detail__collision__filter__groups__impl_8h__incl_org.svg" target="_base">
           <rect id="button" ry="5" rx="5" y="6" x="6" height="38" width="38"
                fill="#f2f5e9" fill-opacity="0.5" stroke="#606060" stroke-width="1.0"/>
           <path id="arrow"
             d="M 11.500037,31.436501 C 11.940474,20.09759 22.043105,11.32322 32.158766,21.979434 L 37.068811,17.246167 C 37.068811,17.246167 37.088388,32 37.088388,32 L 22.160133,31.978069 C 22.160133,31.978069 26.997745,27.140456 26.997745,27.140456 C 18.528582,18.264221 13.291696,25.230495 11.500037,31.436501 z"
             style="fill:#404040;"/>
          </a>
         </g>
        </svg>
</svg>
