<?xml version="1.0" encoding="UTF-8" standalone="no"?>
<!DOCTYPE svg PUBLIC "-//W3C//DTD SVG 1.1//EN"
 "http://www.w3.org/Graphics/SVG/1.1/DTD/svg11.dtd">
<!-- Generated by graphviz version 2.43.0 (0)
 -->
<!-- Title: drake/common/diagnostic_policy.h Pages: 1 -->
<svg width="1366pt" height="251pt"
 viewBox="0.00 0.00 1366.00 251.00" xmlns="http://www.w3.org/2000/svg" xmlns:xlink="http://www.w3.org/1999/xlink">
<g id="graph0" class="graph" transform="scale(1 1) rotate(0) translate(4 247)">
<title>drake/common/diagnostic_policy.h</title>
<polygon fill="white" stroke="transparent" points="-4,4 -4,-247 1362,-247 1362,4 -4,4"/>
<!-- Node5 -->
<g id="node1" class="node">
<title>Node5</title>
<g id="a_node1"><a xlink:title=" ">
<polygon fill="#bfbfbf" stroke="black" points="625,-212.5 625,-242.5 768,-242.5 768,-212.5 625,-212.5"/>
<text text-anchor="start" x="633" y="-230.5" font-family="Helvetica,sans-Serif" font-size="10.00">drake/common/diagnostic</text>
<text text-anchor="middle" x="696.5" y="-219.5" font-family="Helvetica,sans-Serif" font-size="10.00">_policy.h</text>
</a>
</g>
</g>
<!-- Node6 -->
<g id="node2" class="node">
<title>Node6</title>
<g id="a_node2"><a xlink:href="detail__common_8h.html" target="_top" xlink:title=" ">
<polygon fill="white" stroke="black" points="311,-145.5 311,-175.5 446,-175.5 446,-145.5 311,-145.5"/>
<text text-anchor="start" x="319" y="-163.5" font-family="Helvetica,sans-Serif" font-size="10.00">drake/multibody/parsing</text>
<text text-anchor="middle" x="378.5" y="-152.5" font-family="Helvetica,sans-Serif" font-size="10.00">/detail_common.h</text>
</a>
</g>
</g>
<!-- Node5&#45;&gt;Node6 -->
<g id="edge1" class="edge">
<title>Node5&#45;&gt;Node6</title>
<path fill="none" stroke="midnightblue" d="M617.91,-210.44C565.18,-199.66 496.45,-185.61 446.17,-175.33"/>
<polygon fill="midnightblue" stroke="midnightblue" points="617.39,-213.9 627.89,-212.48 618.79,-207.04 617.39,-213.9"/>
</g>
<!-- Node9 -->
<g id="node5" class="node">
<title>Node9</title>
<g id="a_node5"><a xlink:href="detail__tinyxml2__diagnostic_8h.html" target="_top" xlink:title=" ">
<polygon fill="white" stroke="black" points="459,-73 459,-103 620,-103 620,-73 459,-73"/>
<text text-anchor="start" x="467" y="-91" font-family="Helvetica,sans-Serif" font-size="10.00">drake/multibody/parsing</text>
<text text-anchor="middle" x="539.5" y="-80" font-family="Helvetica,sans-Serif" font-size="10.00">/detail_tinyxml2_diagnostic.h</text>
</a>
</g>
</g>
<!-- Node5&#45;&gt;Node9 -->
<g id="edge13" class="edge">
<title>Node5&#45;&gt;Node9</title>
<path fill="none" stroke="midnightblue" d="M670.51,-205.89C659.31,-196.86 646.14,-186.05 634.5,-176 605.56,-151 572.9,-120.58 554.39,-103.14"/>
<polygon fill="midnightblue" stroke="midnightblue" points="668.65,-208.88 678.64,-212.4 673.02,-203.42 668.65,-208.88"/>
</g>
<!-- Node10 -->
<g id="node6" class="node">
<title>Node10</title>
<g id="a_node6"><a xlink:href="detail__urdf__geometry_8h.html" target="_top" xlink:title=" ">
<polygon fill="white" stroke="black" points="526,-0.5 526,-30.5 661,-30.5 661,-0.5 526,-0.5"/>
<text text-anchor="start" x="534" y="-18.5" font-family="Helvetica,sans-Serif" font-size="10.00">drake/multibody/parsing</text>
<text text-anchor="middle" x="593.5" y="-7.5" font-family="Helvetica,sans-Serif" font-size="10.00">/detail_urdf_geometry.h</text>
</a>
</g>
</g>
<!-- Node5&#45;&gt;Node10 -->
<g id="edge14" class="edge">
<title>Node5&#45;&gt;Node10</title>
<path fill="none" stroke="midnightblue" d="M682.24,-203.66C677.23,-195.15 671.79,-185.3 667.5,-176 645.94,-129.28 652.02,-112.76 628.5,-67 621.87,-54.1 612.4,-40.65 604.99,-30.88"/>
<polygon fill="midnightblue" stroke="midnightblue" points="679.27,-205.51 687.42,-212.28 685.26,-201.9 679.27,-205.51"/>
</g>
<!-- Node12 -->
<g id="node8" class="node">
<title>Node12</title>
<g id="a_node8"><a xlink:href="detail__parsing__workspace_8h.html" target="_top" xlink:title=" ">
<polygon fill="white" stroke="black" points="138,-145.5 138,-175.5 293,-175.5 293,-145.5 138,-145.5"/>
<text text-anchor="start" x="146" y="-163.5" font-family="Helvetica,sans-Serif" font-size="10.00">drake/multibody/parsing</text>
<text text-anchor="middle" x="215.5" y="-152.5" font-family="Helvetica,sans-Serif" font-size="10.00">/detail_parsing_workspace.h</text>
</a>
</g>
</g>
<!-- Node5&#45;&gt;Node12 -->
<g id="edge7" class="edge">
<title>Node5&#45;&gt;Node12</title>
<path fill="none" stroke="midnightblue" d="M614.66,-217C534.68,-207.49 409.55,-192.01 301.5,-176 298.8,-175.6 296.06,-175.19 293.29,-174.76"/>
<polygon fill="midnightblue" stroke="midnightblue" points="614.32,-220.49 624.66,-218.19 615.15,-213.54 614.32,-220.49"/>
</g>
<!-- Node13 -->
<g id="node9" class="node">
<title>Node13</title>
<g id="a_node9"><a xlink:href="detail__path__utils_8h.html" target="_top" xlink:title=" ">
<polygon fill="white" stroke="black" points="677,-145.5 677,-175.5 812,-175.5 812,-145.5 677,-145.5"/>
<text text-anchor="start" x="685" y="-163.5" font-family="Helvetica,sans-Serif" font-size="10.00">drake/multibody/parsing</text>
<text text-anchor="middle" x="744.5" y="-152.5" font-family="Helvetica,sans-Serif" font-size="10.00">/detail_path_utils.h</text>
</a>
</g>
</g>
<!-- Node5&#45;&gt;Node13 -->
<g id="edge10" class="edge">
<title>Node5&#45;&gt;Node13</title>
<path fill="none" stroke="midnightblue" d="M713,-204.16C720,-194.68 727.94,-183.92 734.11,-175.58"/>
<polygon fill="midnightblue" stroke="midnightblue" points="710.04,-202.27 706.92,-212.4 715.67,-206.43 710.04,-202.27"/>
</g>
<!-- Node14 -->
<g id="node10" class="node">
<title>Node14</title>
<g id="a_node10"><a xlink:href="detail__sdf__geometry_8h.html" target="_top" xlink:title=" ">
<polygon fill="white" stroke="black" points="830,-145.5 830,-175.5 965,-175.5 965,-145.5 830,-145.5"/>
<text text-anchor="start" x="838" y="-163.5" font-family="Helvetica,sans-Serif" font-size="10.00">drake/multibody/parsing</text>
<text text-anchor="middle" x="897.5" y="-152.5" font-family="Helvetica,sans-Serif" font-size="10.00">/detail_sdf_geometry.h</text>
</a>
</g>
</g>
<!-- Node5&#45;&gt;Node14 -->
<g id="edge11" class="edge">
<title>Node5&#45;&gt;Node14</title>
<path fill="none" stroke="midnightblue" d="M749.91,-209.23C782.43,-198.71 823.44,-185.45 853.97,-175.58"/>
<polygon fill="midnightblue" stroke="midnightblue" points="748.55,-205.99 740.11,-212.4 750.71,-212.65 748.55,-205.99"/>
</g>
<!-- Node15 -->
<g id="node11" class="node">
<title>Node15</title>
<g id="a_node11"><a xlink:href="detail__tinyxml_8h.html" target="_top" xlink:title=" ">
<polygon fill="white" stroke="black" points="983,-145.5 983,-175.5 1118,-175.5 1118,-145.5 983,-145.5"/>
<text text-anchor="start" x="991" y="-163.5" font-family="Helvetica,sans-Serif" font-size="10.00">drake/multibody/parsing</text>
<text text-anchor="middle" x="1050.5" y="-152.5" font-family="Helvetica,sans-Serif" font-size="10.00">/detail_tinyxml.h</text>
</a>
</g>
</g>
<!-- Node5&#45;&gt;Node15 -->
<g id="edge12" class="edge">
<title>Node5&#45;&gt;Node15</title>
<path fill="none" stroke="midnightblue" d="M778.33,-211.71C833.49,-201.71 907.89,-188.16 973.5,-176 976.58,-175.43 979.72,-174.85 982.9,-174.25"/>
<polygon fill="midnightblue" stroke="midnightblue" points="777.48,-208.31 768.26,-213.53 778.73,-215.2 777.48,-208.31"/>
</g>
<!-- Node16 -->
<g id="node12" class="node">
<title>Node16</title>
<g id="a_node12"><a xlink:href="parser_8h.html" target="_top" xlink:title=" ">
<polygon fill="white" stroke="black" points="1136,-145.5 1136,-175.5 1271,-175.5 1271,-145.5 1136,-145.5"/>
<text text-anchor="start" x="1144" y="-163.5" font-family="Helvetica,sans-Serif" font-size="10.00">drake/multibody/parsing</text>
<text text-anchor="middle" x="1203.5" y="-152.5" font-family="Helvetica,sans-Serif" font-size="10.00">/parser.h</text>
</a>
</g>
</g>
<!-- Node5&#45;&gt;Node16 -->
<g id="edge15" class="edge">
<title>Node5&#45;&gt;Node16</title>
<path fill="none" stroke="midnightblue" d="M778.26,-218.6C864.93,-209.83 1005.71,-194.44 1126.5,-176 1129.59,-175.53 1132.75,-175.02 1135.94,-174.5"/>
<polygon fill="midnightblue" stroke="midnightblue" points="777.82,-215.13 768.22,-219.61 778.52,-222.09 777.82,-215.13"/>
</g>
<!-- Node7 -->
<g id="node3" class="node">
<title>Node7</title>
<g id="a_node3"><a xlink:href="detail__mujoco__parser_8h.html" target="_top" xlink:title=" ">
<polygon fill="white" stroke="black" points="306,-73 306,-103 441,-103 441,-73 306,-73"/>
<text text-anchor="start" x="314" y="-91" font-family="Helvetica,sans-Serif" font-size="10.00">drake/multibody/parsing</text>
<text text-anchor="middle" x="373.5" y="-80" font-family="Helvetica,sans-Serif" font-size="10.00">/detail_mujoco_parser.h</text>
</a>
</g>
</g>
<!-- Node6&#45;&gt;Node7 -->
<g id="edge2" class="edge">
<title>Node6&#45;&gt;Node7</title>
<path fill="none" stroke="midnightblue" d="M376.78,-135.23C376.02,-124.57 375.16,-112.41 374.51,-103.25"/>
<polygon fill="midnightblue" stroke="midnightblue" points="373.29,-135.51 377.49,-145.23 380.27,-135.01 373.29,-135.51"/>
</g>
<!-- Node8 -->
<g id="node4" class="node">
<title>Node8</title>
<g id="a_node4"><a xlink:href="detail__sdf__parser_8h.html" target="_top" xlink:title=" ">
<polygon fill="white" stroke="black" points="153,-73 153,-103 288,-103 288,-73 153,-73"/>
<text text-anchor="start" x="161" y="-91" font-family="Helvetica,sans-Serif" font-size="10.00">drake/multibody/parsing</text>
<text text-anchor="middle" x="220.5" y="-80" font-family="Helvetica,sans-Serif" font-size="10.00">/detail_sdf_parser.h</text>
</a>
</g>
</g>
<!-- Node6&#45;&gt;Node8 -->
<g id="edge3" class="edge">
<title>Node6&#45;&gt;Node8</title>
<path fill="none" stroke="midnightblue" d="M337.46,-141.19C310.8,-129.29 276.57,-114.02 252.04,-103.07"/>
<polygon fill="midnightblue" stroke="midnightblue" points="336.35,-144.52 346.91,-145.4 339.2,-138.13 336.35,-144.52"/>
</g>
<!-- Node6&#45;&gt;Node9 -->
<g id="edge4" class="edge">
<title>Node6&#45;&gt;Node9</title>
<path fill="none" stroke="midnightblue" d="M419.96,-141.34C447.18,-129.42 482.26,-114.07 507.36,-103.07"/>
<polygon fill="midnightblue" stroke="midnightblue" points="418.45,-138.19 410.69,-145.4 421.26,-144.6 418.45,-138.19"/>
</g>
<!-- Node11 -->
<g id="node7" class="node">
<title>Node11</title>
<g id="a_node7"><a xlink:href="detail__urdf__parser_8h.html" target="_top" xlink:title=" ">
<polygon fill="white" stroke="black" points="0,-73 0,-103 135,-103 135,-73 0,-73"/>
<text text-anchor="start" x="8" y="-91" font-family="Helvetica,sans-Serif" font-size="10.00">drake/multibody/parsing</text>
<text text-anchor="middle" x="67.5" y="-80" font-family="Helvetica,sans-Serif" font-size="10.00">/detail_urdf_parser.h</text>
</a>
</g>
</g>
<!-- Node6&#45;&gt;Node11 -->
<g id="edge6" class="edge">
<title>Node6&#45;&gt;Node11</title>
<path fill="none" stroke="midnightblue" d="M301.07,-143.79C255.15,-134.24 195.87,-121.51 143.5,-109 135.8,-107.16 127.69,-105.13 119.75,-103.09"/>
<polygon fill="midnightblue" stroke="midnightblue" points="300.45,-147.23 310.95,-145.84 301.87,-140.38 300.45,-147.23"/>
</g>
<!-- Node9&#45;&gt;Node10 -->
<g id="edge5" class="edge">
<title>Node9&#45;&gt;Node10</title>
<path fill="none" stroke="midnightblue" d="M556.57,-64.71C565.08,-53.6 575.13,-40.49 582.59,-30.75"/>
<polygon fill="midnightblue" stroke="midnightblue" points="553.73,-62.67 550.43,-72.73 559.29,-66.92 553.73,-62.67"/>
</g>
<!-- Node12&#45;&gt;Node8 -->
<g id="edge8" class="edge">
<title>Node12&#45;&gt;Node8</title>
<path fill="none" stroke="midnightblue" d="M217.22,-135.23C217.98,-124.57 218.84,-112.41 219.49,-103.25"/>
<polygon fill="midnightblue" stroke="midnightblue" points="213.73,-135.01 216.51,-145.23 220.71,-135.51 213.73,-135.01"/>
</g>
<!-- Node12&#45;&gt;Node11 -->
<g id="edge9" class="edge">
<title>Node12&#45;&gt;Node11</title>
<path fill="none" stroke="midnightblue" d="M176.73,-141.03C151.8,-129.16 119.92,-113.97 97.04,-103.07"/>
<polygon fill="midnightblue" stroke="midnightblue" points="175.37,-144.26 185.91,-145.4 178.38,-137.94 175.37,-144.26"/>
</g>
<!-- Node17 -->
<g id="node13" class="node">
<title>Node17</title>
<g id="a_node13"><a xlink:href="process__model__directives_8h.html" target="_top" xlink:title=" ">
<polygon fill="white" stroke="black" points="1203,-73 1203,-103 1358,-103 1358,-73 1203,-73"/>
<text text-anchor="start" x="1211" y="-91" font-family="Helvetica,sans-Serif" font-size="10.00">drake/multibody/parsing</text>
<text text-anchor="middle" x="1280.5" y="-80" font-family="Helvetica,sans-Serif" font-size="10.00">/process_model_directives.h</text>
</a>
</g>
</g>
<!-- Node16&#45;&gt;Node17 -->
<g id="edge16" class="edge">
<title>Node16&#45;&gt;Node17</title>
<path fill="none" stroke="midnightblue" d="M1226.48,-138.46C1238.99,-127 1254.14,-113.14 1265.2,-103"/>
<polygon fill="midnightblue" stroke="midnightblue" points="1224.09,-135.9 1219.08,-145.23 1228.82,-141.06 1224.09,-135.9"/>
</g>
<!-- Node18 -->
<g id="node14" class="node">
<title>Node18</title>
<g id="a_node14"><a xlink:href="add__fixed__objects__to__plant_8h.html" target="_top" xlink:title=" ">
<polygon fill="white" stroke="black" points="1066.5,-67.5 1066.5,-108.5 1184.5,-108.5 1184.5,-67.5 1066.5,-67.5"/>
<text text-anchor="start" x="1074.5" y="-96.5" font-family="Helvetica,sans-Serif" font-size="10.00">drake/multibody/test</text>
<text text-anchor="start" x="1074.5" y="-85.5" font-family="Helvetica,sans-Serif" font-size="10.00">_utilities/add_fixed</text>
<text text-anchor="middle" x="1125.5" y="-74.5" font-family="Helvetica,sans-Serif" font-size="10.00">_objects_to_plant.h</text>
</a>
</g>
</g>
<!-- Node16&#45;&gt;Node18 -->
<g id="edge17" class="edge">
<title>Node16&#45;&gt;Node18</title>
<path fill="none" stroke="midnightblue" d="M1180.13,-138.38C1169.68,-128.93 1157.42,-117.85 1147.17,-108.59"/>
<polygon fill="midnightblue" stroke="midnightblue" points="1177.95,-141.12 1187.72,-145.23 1182.64,-135.93 1177.95,-141.12"/>
</g>
</g>
</svg>
