<?xml version="1.0" encoding="UTF-8" standalone="no"?>
<!DOCTYPE svg PUBLIC "-//W3C//DTD SVG 1.1//EN"
 "http://www.w3.org/Graphics/SVG/1.1/DTD/svg11.dtd">
<!-- Generated by graphviz version 2.43.0 (0)
 -->
<!-- Title: drake/common/diagnostic_policy.h Pages: 1 -->
<!--zoomable 184 -->
<svg id="main" version="1.1" xmlns="http://www.w3.org/2000/svg" xmlns:xlink="http://www.w3.org/1999/xlink" xml:space="preserve" onload="init(evt)">
<style type="text/css"><![CDATA[
.edge:hover path { stroke: red; }
.edge:hover polygon { stroke: red; fill: red; }
]]></style>
<script type="text/javascript"><![CDATA[
var edges = document.getElementsByTagName('g');
if (edges && edges.length) {
  for (var i=0;i<edges.length;i++) {
    if (edges[i].id.substr(0,4)=='edge') {
      edges[i].setAttribute('class','edge');
    }
  }
}
]]></script>
        <defs>
                <circle id="rim" cx="0" cy="0" r="7"/>
                <circle id="rim2" cx="0" cy="0" r="3.5"/>
                <g id="zoomPlus">
                        <use xlink:href="#rim" fill="#404040">
                                <set attributeName="fill" to="#808080" begin="zoomplus.mouseover" end="zoomplus.mouseout"/>
                        </use>
                        <path d="M-4,0h8M0,-4v8" fill="none" stroke="white" stroke-width="1.5" pointer-events="none"/>
                </g>
                <g id="zoomMin">
                        <use xlink:href="#rim" fill="#404040">
                                <set attributeName="fill" to="#808080" begin="zoomminus.mouseover" end="zoomminus.mouseout"/>
                        </use>
                        <path d="M-4,0h8" fill="none" stroke="white" stroke-width="1.5" pointer-events="none"/>
                </g>
                <g id="dirArrow">
                        <path fill="none" stroke="white" stroke-width="1.5" d="M0,-3.0v7 M-2.5,-0.5L0,-3.0L2.5,-0.5"/>
                </g>
               <g id="resetDef">
                       <use xlink:href="#rim2" fill="#404040">
                               <set attributeName="fill" to="#808080" begin="reset.mouseover" end="reset.mouseout"/>
                       </use>
               </g>
        </defs>

<script type="text/javascript">
var viewWidth = 1016;
var viewHeight = 184;
var sectionId = 'dynsection-1';
</script>
<script xlink:href="svgpan.js"/>
<svg id="graph" class="graph">
<g id="viewport">
<title>drake/common/diagnostic_policy.h</title>
<polygon fill="white" stroke="transparent" points="-4,4 -4,-180 1011.5,-180 1011.5,4 -4,4"/>
<!-- Node5 -->
<g id="node1" class="node">
<title>Node5</title>
<g id="a_node1"><a xlink:title=" ">
<polygon fill="#bfbfbf" stroke="black" points="446,-145.5 446,-175.5 589,-175.5 589,-145.5 446,-145.5"/>
<text text-anchor="start" x="454" y="-163.5" font-family="Helvetica,sans-Serif" font-size="10.00">drake/common/diagnostic</text>
<text text-anchor="middle" x="517.5" y="-152.5" font-family="Helvetica,sans-Serif" font-size="10.00">_policy.h</text>
</a>
</g>
</g>
<!-- Node6 -->
<g id="node2" class="node">
<title>Node6</title>
<g id="a_node2"><a xlink:href="detail__common_8h.html" target="_top" xlink:title=" ">
<polygon fill="white" stroke="black" points="306,-78.5 306,-108.5 441,-108.5 441,-78.5 306,-78.5"/>
<text text-anchor="start" x="314" y="-96.5" font-family="Helvetica,sans-Serif" font-size="10.00">drake/multibody/parsing</text>
<text text-anchor="middle" x="373.5" y="-85.5" font-family="Helvetica,sans-Serif" font-size="10.00">/detail_common.h</text>
</a>
</g>
</g>
<!-- Node5&#45;&gt;Node6 -->
<g id="edge1" class="edge">
<title>Node5&#45;&gt;Node6</title>
<path fill="none" stroke="midnightblue" d="M477.11,-141.27C454.18,-130.92 425.9,-118.15 404.68,-108.58"/>
<polygon fill="midnightblue" stroke="midnightblue" points="475.7,-144.47 486.25,-145.4 478.58,-138.09 475.7,-144.47"/>
</g>
<!-- Node9 -->
<g id="node5" class="node">
<title>Node9</title>
<g id="a_node5"><a xlink:href="detail__tinyxml2__diagnostic_8h.html" target="_top" xlink:title=" ">
<polygon fill="white" stroke="black" points="459,-6 459,-36 620,-36 620,-6 459,-6"/>
<text text-anchor="start" x="467" y="-24" font-family="Helvetica,sans-Serif" font-size="10.00">drake/multibody/parsing</text>
<text text-anchor="middle" x="539.5" y="-13" font-family="Helvetica,sans-Serif" font-size="10.00">/detail_tinyxml2_diagnostic.h</text>
</a>
</g>
</g>
<!-- Node5&#45;&gt;Node9 -->
<g id="edge11" class="edge">
<title>Node5&#45;&gt;Node9</title>
<path fill="none" stroke="midnightblue" d="M500.55,-136.86C490.42,-120.44 480.86,-97.73 488.5,-78 495,-61.2 509.15,-46.34 520.9,-36.16"/>
<polygon fill="midnightblue" stroke="midnightblue" points="497.69,-138.88 506.14,-145.28 503.53,-135.01 497.69,-138.88"/>
</g>
<!-- Node11 -->
<g id="node7" class="node">
<title>Node11</title>
<g id="a_node7"><a xlink:href="detail__parsing__workspace_8h.html" target="_top" xlink:title=" ">
<polygon fill="white" stroke="black" points="133,-78.5 133,-108.5 288,-108.5 288,-78.5 133,-78.5"/>
<text text-anchor="start" x="141" y="-96.5" font-family="Helvetica,sans-Serif" font-size="10.00">drake/multibody/parsing</text>
<text text-anchor="middle" x="210.5" y="-85.5" font-family="Helvetica,sans-Serif" font-size="10.00">/detail_parsing_workspace.h</text>
</a>
</g>
</g>
<!-- Node5&#45;&gt;Node11 -->
<g id="edge6" class="edge">
<title>Node5&#45;&gt;Node11</title>
<path fill="none" stroke="midnightblue" d="M441.38,-143.38C390.88,-132.69 325.25,-118.8 276.88,-108.55"/>
<polygon fill="midnightblue" stroke="midnightblue" points="440.76,-146.83 451.26,-145.48 442.21,-139.98 440.76,-146.83"/>
</g>
<!-- Node12 -->
<g id="node8" class="node">
<title>Node12</title>
<g id="a_node8"><a xlink:href="detail__path__utils_8h.html" target="_top" xlink:title=" ">
<polygon fill="white" stroke="black" points="498,-78.5 498,-108.5 633,-108.5 633,-78.5 498,-78.5"/>
<text text-anchor="start" x="506" y="-96.5" font-family="Helvetica,sans-Serif" font-size="10.00">drake/multibody/parsing</text>
<text text-anchor="middle" x="565.5" y="-85.5" font-family="Helvetica,sans-Serif" font-size="10.00">/detail_path_utils.h</text>
</a>
</g>
</g>
<!-- Node5&#45;&gt;Node12 -->
<g id="edge9" class="edge">
<title>Node5&#45;&gt;Node12</title>
<path fill="none" stroke="midnightblue" d="M534,-137.16C541,-127.68 548.94,-116.92 555.11,-108.58"/>
<polygon fill="midnightblue" stroke="midnightblue" points="531.04,-135.27 527.92,-145.4 536.67,-139.43 531.04,-135.27"/>
</g>
<!-- Node13 -->
<g id="node9" class="node">
<title>Node13</title>
<g id="a_node9"><a xlink:href="detail__sdf__geometry_8h.html" target="_top" xlink:title=" ">
<polygon fill="white" stroke="black" points="651,-78.5 651,-108.5 786,-108.5 786,-78.5 651,-78.5"/>
<text text-anchor="start" x="659" y="-96.5" font-family="Helvetica,sans-Serif" font-size="10.00">drake/multibody/parsing</text>
<text text-anchor="middle" x="718.5" y="-85.5" font-family="Helvetica,sans-Serif" font-size="10.00">/detail_sdf_geometry.h</text>
</a>
</g>
</g>
<!-- Node5&#45;&gt;Node13 -->
<g id="edge10" class="edge">
<title>Node5&#45;&gt;Node13</title>
<path fill="none" stroke="midnightblue" d="M570.91,-142.23C603.43,-131.71 644.44,-118.45 674.97,-108.58"/>
<polygon fill="midnightblue" stroke="midnightblue" points="569.55,-138.99 561.11,-145.4 571.71,-145.65 569.55,-138.99"/>
</g>
<!-- Node14 -->
<g id="node10" class="node">
<title>Node14</title>
<g id="a_node10"><a xlink:href="parser_8h.html" target="_top" xlink:title=" ">
<polygon fill="white" stroke="black" points="804,-78.5 804,-108.5 939,-108.5 939,-78.5 804,-78.5"/>
<text text-anchor="start" x="812" y="-96.5" font-family="Helvetica,sans-Serif" font-size="10.00">drake/multibody/parsing</text>
<text text-anchor="middle" x="871.5" y="-85.5" font-family="Helvetica,sans-Serif" font-size="10.00">/parser.h</text>
</a>
</g>
</g>
<!-- Node5&#45;&gt;Node14 -->
<g id="edge12" class="edge">
<title>Node5&#45;&gt;Node14</title>
<path fill="none" stroke="midnightblue" d="M599.33,-144.71C654.49,-134.71 728.89,-121.16 794.5,-109 797.58,-108.43 800.72,-107.85 803.9,-107.25"/>
<polygon fill="midnightblue" stroke="midnightblue" points="598.48,-141.31 589.26,-146.53 599.73,-148.2 598.48,-141.31"/>
</g>
<!-- Node7 -->
<g id="node3" class="node">
<title>Node7</title>
<g id="a_node3"><a xlink:href="detail__mujoco__parser_8h.html" target="_top" xlink:title=" ">
<polygon fill="white" stroke="black" points="306,-6 306,-36 441,-36 441,-6 306,-6"/>
<text text-anchor="start" x="314" y="-24" font-family="Helvetica,sans-Serif" font-size="10.00">drake/multibody/parsing</text>
<text text-anchor="middle" x="373.5" y="-13" font-family="Helvetica,sans-Serif" font-size="10.00">/detail_mujoco_parser.h</text>
</a>
</g>
</g>
<!-- Node6&#45;&gt;Node7 -->
<g id="edge2" class="edge">
<title>Node6&#45;&gt;Node7</title>
<path fill="none" stroke="midnightblue" d="M373.5,-68.23C373.5,-57.57 373.5,-45.41 373.5,-36.25"/>
<polygon fill="midnightblue" stroke="midnightblue" points="370,-68.23 373.5,-78.23 377,-68.23 370,-68.23"/>
</g>
<!-- Node8 -->
<g id="node4" class="node">
<title>Node8</title>
<g id="a_node4"><a xlink:href="detail__sdf__parser_8h.html" target="_top" xlink:title=" ">
<polygon fill="white" stroke="black" points="0,-6 0,-36 135,-36 135,-6 0,-6"/>
<text text-anchor="start" x="8" y="-24" font-family="Helvetica,sans-Serif" font-size="10.00">drake/multibody/parsing</text>
<text text-anchor="middle" x="67.5" y="-13" font-family="Helvetica,sans-Serif" font-size="10.00">/detail_sdf_parser.h</text>
</a>
</g>
</g>
<!-- Node6&#45;&gt;Node8 -->
<g id="edge3" class="edge">
<title>Node6&#45;&gt;Node8</title>
<path fill="none" stroke="midnightblue" d="M296.23,-76.36C251.51,-66.82 194.21,-54.23 143.5,-42 135.81,-40.14 127.7,-38.1 119.76,-36.05"/>
<polygon fill="midnightblue" stroke="midnightblue" points="295.64,-79.82 306.15,-78.48 297.1,-72.97 295.64,-79.82"/>
</g>
<!-- Node6&#45;&gt;Node9 -->
<g id="edge4" class="edge">
<title>Node6&#45;&gt;Node9</title>
<path fill="none" stroke="midnightblue" d="M416.25,-74.34C444.32,-62.42 480.48,-47.07 506.36,-36.07"/>
<polygon fill="midnightblue" stroke="midnightblue" points="414.53,-71.27 406.69,-78.4 417.27,-77.72 414.53,-71.27"/>
</g>
<!-- Node10 -->
<g id="node6" class="node">
<title>Node10</title>
<g id="a_node6"><a xlink:href="detail__urdf__parser_8h.html" target="_top" xlink:title=" ">
<polygon fill="white" stroke="black" points="153,-6 153,-36 288,-36 288,-6 153,-6"/>
<text text-anchor="start" x="161" y="-24" font-family="Helvetica,sans-Serif" font-size="10.00">drake/multibody/parsing</text>
<text text-anchor="middle" x="220.5" y="-13" font-family="Helvetica,sans-Serif" font-size="10.00">/detail_urdf_parser.h</text>
</a>
</g>
</g>
<!-- Node6&#45;&gt;Node10 -->
<g id="edge5" class="edge">
<title>Node6&#45;&gt;Node10</title>
<path fill="none" stroke="midnightblue" d="M333.76,-74.19C307.94,-62.29 274.79,-47.02 251.04,-36.07"/>
<polygon fill="midnightblue" stroke="midnightblue" points="332.36,-77.4 342.91,-78.4 335.29,-71.04 332.36,-77.4"/>
</g>
<!-- Node11&#45;&gt;Node8 -->
<g id="edge7" class="edge">
<title>Node11&#45;&gt;Node8</title>
<path fill="none" stroke="midnightblue" d="M172.72,-73.87C148.68,-62.02 118.05,-46.92 96.04,-36.07"/>
<polygon fill="midnightblue" stroke="midnightblue" points="171.39,-77.12 181.91,-78.4 174.48,-70.84 171.39,-77.12"/>
</g>
<!-- Node11&#45;&gt;Node10 -->
<g id="edge8" class="edge">
<title>Node11&#45;&gt;Node10</title>
<path fill="none" stroke="midnightblue" d="M213.94,-68.23C215.45,-57.57 217.18,-45.41 218.48,-36.25"/>
<polygon fill="midnightblue" stroke="midnightblue" points="210.46,-67.84 212.52,-78.23 217.39,-68.82 210.46,-67.84"/>
</g>
<!-- Node15 -->
<g id="node11" class="node">
<title>Node15</title>
<g id="a_node11"><a xlink:href="process__model__directives_8h.html" target="_top" xlink:title=" ">
<polygon fill="white" stroke="black" points="716,-6 716,-36 871,-36 871,-6 716,-6"/>
<text text-anchor="start" x="724" y="-24" font-family="Helvetica,sans-Serif" font-size="10.00">drake/multibody/parsing</text>
<text text-anchor="middle" x="793.5" y="-13" font-family="Helvetica,sans-Serif" font-size="10.00">/process_model_directives.h</text>
</a>
</g>
</g>
<!-- Node14&#45;&gt;Node15 -->
<g id="edge13" class="edge">
<title>Node14&#45;&gt;Node15</title>
<path fill="none" stroke="midnightblue" d="M848.23,-71.46C835.55,-60 820.2,-46.14 808.99,-36"/>
<polygon fill="midnightblue" stroke="midnightblue" points="845.95,-74.12 855.72,-78.23 850.64,-68.93 845.95,-74.12"/>
</g>
<!-- Node16 -->
<g id="node12" class="node">
<title>Node16</title>
<g id="a_node12"><a xlink:href="add__fixed__objects__to__plant_8h.html" target="_top" xlink:title=" ">
<polygon fill="white" stroke="black" points="889.5,-0.5 889.5,-41.5 1007.5,-41.5 1007.5,-0.5 889.5,-0.5"/>
<text text-anchor="start" x="897.5" y="-29.5" font-family="Helvetica,sans-Serif" font-size="10.00">drake/multibody/test</text>
<text text-anchor="start" x="897.5" y="-18.5" font-family="Helvetica,sans-Serif" font-size="10.00">_utilities/add_fixed</text>
<text text-anchor="middle" x="948.5" y="-7.5" font-family="Helvetica,sans-Serif" font-size="10.00">_objects_to_plant.h</text>
</a>
</g>
</g>
<!-- Node14&#45;&gt;Node16 -->
<g id="edge14" class="edge">
<title>Node14&#45;&gt;Node16</title>
<path fill="none" stroke="midnightblue" d="M894.57,-71.38C904.89,-61.93 916.99,-50.85 927.11,-41.59"/>
<polygon fill="midnightblue" stroke="midnightblue" points="892.09,-68.9 887.08,-78.23 896.82,-74.06 892.09,-68.9"/>
</g>
</g>
</svg>
        <g id="navigator" transform="translate(0 0)" fill="#404254">
                <rect fill="#f2f5e9" fill-opacity="0.5" stroke="#606060" stroke-width=".5" x="0" y="0" width="60" height="60"/>
                <use id="zoomplus" xlink:href="#zoomPlus" x="17" y="9" onmousedown="handleZoom(evt,'in')"/>
                <use id="zoomminus" xlink:href="#zoomMin" x="42" y="9" onmousedown="handleZoom(evt,'out')"/>
                <use id="reset" xlink:href="#resetDef" x="30" y="36" onmousedown="handleReset()"/>
                <g id="arrowUp" xlink:href="#dirArrow" transform="translate(30 24)" onmousedown="handlePan(0,-1)">
                  <use xlink:href="#rim" fill="#404040">
                        <set attributeName="fill" to="#808080" begin="arrowUp.mouseover" end="arrowUp.mouseout"/>
                  </use>
                  <path fill="none" stroke="white" stroke-width="1.5" d="M0,-3.0v7 M-2.5,-0.5L0,-3.0L2.5,-0.5"/>
                </g>
                <g id="arrowRight" xlink:href="#dirArrow" transform="rotate(90) translate(36 -43)" onmousedown="handlePan(1,0)">
                  <use xlink:href="#rim" fill="#404040">
                        <set attributeName="fill" to="#808080" begin="arrowRight.mouseover" end="arrowRight.mouseout"/>
                  </use>
                  <path fill="none" stroke="white" stroke-width="1.5" d="M0,-3.0v7 M-2.5,-0.5L0,-3.0L2.5,-0.5"/>
                </g>
                <g id="arrowDown" xlink:href="#dirArrow" transform="rotate(180) translate(-30 -48)" onmousedown="handlePan(0,1)">
                  <use xlink:href="#rim" fill="#404040">
                        <set attributeName="fill" to="#808080" begin="arrowDown.mouseover" end="arrowDown.mouseout"/>
                  </use>
                  <path fill="none" stroke="white" stroke-width="1.5" d="M0,-3.0v7 M-2.5,-0.5L0,-3.0L2.5,-0.5"/>
                </g>
                <g id="arrowLeft" xlink:href="#dirArrow" transform="rotate(270) translate(-36 17)" onmousedown="handlePan(-1,0)">
                  <use xlink:href="#rim" fill="#404040">
                        <set attributeName="fill" to="#808080" begin="arrowLeft.mouseover" end="arrowLeft.mouseout"/>
                  </use>
                  <path fill="none" stroke="white" stroke-width="1.5" d="M0,-3.0v7 M-2.5,-0.5L0,-3.0L2.5,-0.5"/>
                </g>
        </g>
        <svg viewBox="0 0 15 15" width="100%" height="30px" preserveAspectRatio="xMaxYMin meet">
         <g id="arrow_out" transform="scale(0.3 0.3)">
          <a xlink:href="diagnostic__policy_8h__dep__incl_org.svg" target="_base">
           <rect id="button" ry="5" rx="5" y="6" x="6" height="38" width="38"
                fill="#f2f5e9" fill-opacity="0.5" stroke="#606060" stroke-width="1.0"/>
           <path id="arrow"
             d="M 11.500037,31.436501 C 11.940474,20.09759 22.043105,11.32322 32.158766,21.979434 L 37.068811,17.246167 C 37.068811,17.246167 37.088388,32 37.088388,32 L 22.160133,31.978069 C 22.160133,31.978069 26.997745,27.140456 26.997745,27.140456 C 18.528582,18.264221 13.291696,25.230495 11.500037,31.436501 z"
             style="fill:#404040;"/>
          </a>
         </g>
        </svg>
</svg>
