<?xml version="1.0" encoding="UTF-8" standalone="no"?>
<!DOCTYPE svg PUBLIC "-//W3C//DTD SVG 1.1//EN"
 "http://www.w3.org/Graphics/SVG/1.1/DTD/svg11.dtd">
<!-- Generated by graphviz version 2.43.0 (0)
 -->
<!-- Title: drake/math/differentiable_norm.h Pages: 1 -->
<!--zoomable 475 -->
<svg id="main" version="1.1" xmlns="http://www.w3.org/2000/svg" xmlns:xlink="http://www.w3.org/1999/xlink" xml:space="preserve" onload="init(evt)">
<style type="text/css"><![CDATA[
.edge:hover path { stroke: red; }
.edge:hover polygon { stroke: red; fill: red; }
]]></style>
<script type="text/javascript"><![CDATA[
var edges = document.getElementsByTagName('g');
if (edges && edges.length) {
  for (var i=0;i<edges.length;i++) {
    if (edges[i].id.substr(0,4)=='edge') {
      edges[i].setAttribute('class','edge');
    }
  }
}
]]></script>
        <defs>
                <circle id="rim" cx="0" cy="0" r="7"/>
                <circle id="rim2" cx="0" cy="0" r="3.5"/>
                <g id="zoomPlus">
                        <use xlink:href="#rim" fill="#404040">
                                <set attributeName="fill" to="#808080" begin="zoomplus.mouseover" end="zoomplus.mouseout"/>
                        </use>
                        <path d="M-4,0h8M0,-4v8" fill="none" stroke="white" stroke-width="1.5" pointer-events="none"/>
                </g>
                <g id="zoomMin">
                        <use xlink:href="#rim" fill="#404040">
                                <set attributeName="fill" to="#808080" begin="zoomminus.mouseover" end="zoomminus.mouseout"/>
                        </use>
                        <path d="M-4,0h8" fill="none" stroke="white" stroke-width="1.5" pointer-events="none"/>
                </g>
                <g id="dirArrow">
                        <path fill="none" stroke="white" stroke-width="1.5" d="M0,-3.0v7 M-2.5,-0.5L0,-3.0L2.5,-0.5"/>
                </g>
               <g id="resetDef">
                       <use xlink:href="#rim2" fill="#404040">
                               <set attributeName="fill" to="#808080" begin="reset.mouseover" end="reset.mouseout"/>
                       </use>
               </g>
        </defs>

<script type="text/javascript">
var viewWidth = 1286;
var viewHeight = 475;
var sectionId = 'dynsection-0';
</script>
<script xlink:href="svgpan.js"/>
<svg id="graph" class="graph">
<g id="viewport">
<title>drake/math/differentiable_norm.h</title>
<polygon fill="white" stroke="transparent" points="-4,4 -4,-471 1281.72,-471 1281.72,4 -4,4"/>
<!-- Node0 -->
<g id="node1" class="node">
<title>Node0</title>
<g id="a_node1"><a xlink:title=" ">
<polygon fill="#bfbfbf" stroke="black" points="359.5,-436.5 359.5,-466.5 500.5,-466.5 500.5,-436.5 359.5,-436.5"/>
<text text-anchor="start" x="367.5" y="-454.5" font-family="Helvetica,sans-Serif" font-size="10.00">drake/math/differentiable</text>
<text text-anchor="middle" x="430" y="-443.5" font-family="Helvetica,sans-Serif" font-size="10.00">_norm.h</text>
</a>
</g>
</g>
<!-- Node1 -->
<g id="node2" class="node">
<title>Node1</title>
<g id="a_node2"><a xlink:title=" ">
<polygon fill="white" stroke="#bfbfbf" points="1152,-62 1152,-81 1196,-81 1196,-62 1152,-62"/>
<text text-anchor="middle" x="1174" y="-69" font-family="Helvetica,sans-Serif" font-size="10.00">limits</text>
</a>
</g>
</g>
<!-- Node0&#45;&gt;Node1 -->
<g id="edge1" class="edge">
<title>Node0&#45;&gt;Node1</title>
<path fill="none" stroke="midnightblue" d="M500.76,-447.35C704.33,-437.34 1277,-402.24 1277,-324 1277,-324 1277,-324 1277,-204.5 1277,-167.31 1279.89,-153.07 1258,-123 1244.99,-105.12 1223.54,-92.39 1205.58,-84.17"/>
<polygon fill="midnightblue" stroke="midnightblue" points="1206.6,-80.8 1196.03,-80.07 1203.84,-87.24 1206.6,-80.8"/>
</g>
<!-- Node2 -->
<g id="node3" class="node">
<title>Node2</title>
<g id="a_node3"><a xlink:title=" ">
<polygon fill="white" stroke="#bfbfbf" points="143.5,-62 143.5,-81 220.5,-81 220.5,-62 143.5,-62"/>
<text text-anchor="middle" x="182" y="-69" font-family="Helvetica,sans-Serif" font-size="10.00">Eigen/Dense</text>
</a>
</g>
</g>
<!-- Node0&#45;&gt;Node2 -->
<g id="edge2" class="edge">
<title>Node0&#45;&gt;Node2</title>
<path fill="none" stroke="midnightblue" d="M359.48,-444.4C237.49,-431.89 0,-398.02 0,-324 0,-324 0,-324 0,-204.5 0,-137.07 82.87,-100.54 136.78,-83.91"/>
<polygon fill="midnightblue" stroke="midnightblue" points="137.88,-87.23 146.48,-81.03 135.89,-80.52 137.88,-87.23"/>
</g>
<!-- Node3 -->
<g id="node4" class="node">
<title>Node3</title>
<g id="a_node4"><a xlink:href="math_2autodiff_8h.html" target="_top" xlink:title="Utilities for arithmetic on AutoDiffScalar.">
<polygon fill="white" stroke="black" points="504,-313.5 504,-332.5 626,-332.5 626,-313.5 504,-313.5"/>
<text text-anchor="middle" x="565" y="-320.5" font-family="Helvetica,sans-Serif" font-size="10.00">drake/math/autodiff.h</text>
</a>
</g>
</g>
<!-- Node0&#45;&gt;Node3 -->
<g id="edge3" class="edge">
<title>Node0&#45;&gt;Node3</title>
<path fill="none" stroke="midnightblue" d="M444.96,-436.48C470.35,-412.69 521.67,-364.6 548.23,-339.71"/>
<polygon fill="midnightblue" stroke="midnightblue" points="550.72,-342.18 555.62,-332.79 545.93,-337.07 550.72,-342.18"/>
</g>
<!-- Node26 -->
<g id="node27" class="node">
<title>Node26</title>
<g id="a_node27"><a xlink:href="autodiff__gradient_8h.html" target="_top" xlink:title="Utilities that relate simultaneously to both autodiff matrices and gradient matrices.">
<polygon fill="white" stroke="black" points="239.5,-369.5 239.5,-399.5 352.5,-399.5 352.5,-369.5 239.5,-369.5"/>
<text text-anchor="start" x="247.5" y="-387.5" font-family="Helvetica,sans-Serif" font-size="10.00">drake/math/autodiff</text>
<text text-anchor="middle" x="296" y="-376.5" font-family="Helvetica,sans-Serif" font-size="10.00">_gradient.h</text>
</a>
</g>
</g>
<!-- Node0&#45;&gt;Node26 -->
<g id="edge42" class="edge">
<title>Node0&#45;&gt;Node26</title>
<path fill="none" stroke="midnightblue" d="M400.92,-436.4C381.35,-426.9 355.32,-414.28 334.09,-403.98"/>
<polygon fill="midnightblue" stroke="midnightblue" points="335.54,-400.79 325.02,-399.58 332.49,-407.09 335.54,-400.79"/>
</g>
<!-- Node3&#45;&gt;Node2 -->
<g id="edge9" class="edge">
<title>Node3&#45;&gt;Node2</title>
<path fill="none" stroke="midnightblue" d="M552.18,-313.31C533.66,-300.77 498.32,-276.94 468,-257 370.11,-192.63 252.28,-117.29 204.13,-86.59"/>
<polygon fill="midnightblue" stroke="midnightblue" points="205.77,-83.49 195.46,-81.06 202.01,-89.39 205.77,-83.49"/>
</g>
<!-- Node4 -->
<g id="node5" class="node">
<title>Node4</title>
<g id="a_node5"><a xlink:title=" ">
<polygon fill="white" stroke="#bfbfbf" points="1077,-257.5 1077,-276.5 1119,-276.5 1119,-257.5 1077,-257.5"/>
<text text-anchor="middle" x="1098" y="-264.5" font-family="Helvetica,sans-Serif" font-size="10.00">array</text>
</a>
</g>
</g>
<!-- Node3&#45;&gt;Node4 -->
<g id="edge4" class="edge">
<title>Node3&#45;&gt;Node4</title>
<path fill="none" stroke="midnightblue" d="M626.18,-320.32C721.24,-316.85 909.85,-306.57 1067,-277 1067.1,-276.98 1067.2,-276.96 1067.3,-276.94"/>
<polygon fill="midnightblue" stroke="midnightblue" points="1067.83,-280.41 1076.79,-274.74 1066.25,-273.59 1067.83,-280.41"/>
</g>
<!-- Node5 -->
<g id="node6" class="node">
<title>Node5</title>
<g id="a_node6"><a xlink:title=" ">
<polygon fill="white" stroke="#bfbfbf" points="833.5,-129 833.5,-148 880.5,-148 880.5,-129 833.5,-129"/>
<text text-anchor="middle" x="857" y="-136" font-family="Helvetica,sans-Serif" font-size="10.00">cmath</text>
</a>
</g>
</g>
<!-- Node3&#45;&gt;Node5 -->
<g id="edge5" class="edge">
<title>Node3&#45;&gt;Node5</title>
<path fill="none" stroke="midnightblue" d="M606.44,-313.44C658.75,-300.86 749.14,-273.03 809,-221 828.89,-203.71 842.71,-176.07 850.25,-157.85"/>
<polygon fill="midnightblue" stroke="midnightblue" points="853.58,-158.94 853.96,-148.36 847.06,-156.39 853.58,-158.94"/>
</g>
<!-- Node6 -->
<g id="node7" class="node">
<title>Node6</title>
<g id="a_node7"><a xlink:title=" ">
<polygon fill="white" stroke="#bfbfbf" points="248,-257.5 248,-276.5 304,-276.5 304,-257.5 248,-257.5"/>
<text text-anchor="middle" x="276" y="-264.5" font-family="Helvetica,sans-Serif" font-size="10.00">optional</text>
</a>
</g>
</g>
<!-- Node3&#45;&gt;Node6 -->
<g id="edge6" class="edge">
<title>Node3&#45;&gt;Node6</title>
<path fill="none" stroke="midnightblue" d="M511.72,-313.47C462.78,-305.41 388.04,-292.55 314.18,-277.15"/>
<polygon fill="midnightblue" stroke="midnightblue" points="314.75,-273.69 304.24,-275.06 313.31,-280.54 314.75,-273.69"/>
</g>
<!-- Node7 -->
<g id="node8" class="node">
<title>Node7</title>
<g id="a_node8"><a xlink:title=" ">
<polygon fill="white" stroke="#bfbfbf" points="1017.5,-257.5 1017.5,-276.5 1058.5,-276.5 1058.5,-257.5 1017.5,-257.5"/>
<text text-anchor="middle" x="1038" y="-264.5" font-family="Helvetica,sans-Serif" font-size="10.00">tuple</text>
</a>
</g>
</g>
<!-- Node3&#45;&gt;Node7 -->
<g id="edge7" class="edge">
<title>Node3&#45;&gt;Node7</title>
<path fill="none" stroke="midnightblue" d="M626.34,-318.6C711.42,-313.22 869.81,-300.83 1003,-277 1004.47,-276.74 1005.96,-276.45 1007.47,-276.13"/>
<polygon fill="midnightblue" stroke="midnightblue" points="1008.43,-279.51 1017.38,-273.85 1006.85,-272.68 1008.43,-279.51"/>
</g>
<!-- Node8 -->
<g id="node9" class="node">
<title>Node8</title>
<g id="a_node9"><a xlink:title=" ">
<polygon fill="white" stroke="#bfbfbf" points="238.5,-62 238.5,-81 283.5,-81 283.5,-62 238.5,-62"/>
<text text-anchor="middle" x="261" y="-69" font-family="Helvetica,sans-Serif" font-size="10.00">utility</text>
</a>
</g>
</g>
<!-- Node3&#45;&gt;Node8 -->
<g id="edge8" class="edge">
<title>Node3&#45;&gt;Node8</title>
<path fill="none" stroke="midnightblue" d="M557.25,-313.16C545.75,-300.24 523.22,-275.7 502,-257 481.99,-239.37 474.83,-237.66 454,-221 401.56,-179.06 392.86,-163.11 339,-123 321.15,-109.71 299.9,-96.08 284.08,-86.34"/>
<polygon fill="midnightblue" stroke="midnightblue" points="285.83,-83.3 275.47,-81.08 282.18,-89.28 285.83,-83.3"/>
</g>
<!-- Node9 -->
<g id="node10" class="node">
<title>Node9</title>
<g id="a_node10"><a xlink:title=" ">
<polygon fill="white" stroke="#bfbfbf" points="1092.5,-196 1092.5,-215 1243.5,-215 1243.5,-196 1092.5,-196"/>
<text text-anchor="middle" x="1168" y="-203" font-family="Helvetica,sans-Serif" font-size="10.00">unsupported/Eigen/AutoDiff</text>
</a>
</g>
</g>
<!-- Node3&#45;&gt;Node9 -->
<g id="edge10" class="edge">
<title>Node3&#45;&gt;Node9</title>
<path fill="none" stroke="midnightblue" d="M626.26,-322.01C706.62,-320.49 851.25,-312.45 969,-277 987.65,-271.39 989.98,-264.4 1008,-257 1047.07,-240.95 1093.21,-226.88 1125.88,-217.7"/>
<polygon fill="midnightblue" stroke="midnightblue" points="1126.86,-221.06 1135.56,-215.01 1124.99,-214.31 1126.86,-221.06"/>
</g>
<!-- Node10 -->
<g id="node11" class="node">
<title>Node10</title>
<g id="a_node11"><a xlink:href="common_2autodiff_8h.html" target="_top" xlink:title=" ">
<polygon fill="white" stroke="black" points="821.5,-257.5 821.5,-276.5 960.5,-276.5 960.5,-257.5 821.5,-257.5"/>
<text text-anchor="middle" x="891" y="-264.5" font-family="Helvetica,sans-Serif" font-size="10.00">drake/common/autodiff.h</text>
</a>
</g>
</g>
<!-- Node3&#45;&gt;Node10 -->
<g id="edge11" class="edge">
<title>Node3&#45;&gt;Node10</title>
<path fill="none" stroke="midnightblue" d="M616.66,-313.44C674.48,-303.87 768.11,-288.36 829.62,-278.17"/>
<polygon fill="midnightblue" stroke="midnightblue" points="830.29,-281.6 839.59,-276.52 829.15,-274.7 830.29,-281.6"/>
</g>
<!-- Node14 -->
<g id="node15" class="node">
<title>Node14</title>
<g id="a_node15"><a xlink:href="eigen__types_8h.html" target="_top" xlink:title="This file contains abbreviated definitions for certain specializations of Eigen::Matrix that are comm...">
<polygon fill="white" stroke="black" points="467.5,-123.5 467.5,-153.5 586.5,-153.5 586.5,-123.5 467.5,-123.5"/>
<text text-anchor="start" x="475.5" y="-141.5" font-family="Helvetica,sans-Serif" font-size="10.00">drake/common/eigen</text>
<text text-anchor="middle" x="527" y="-130.5" font-family="Helvetica,sans-Serif" font-size="10.00">_types.h</text>
</a>
</g>
</g>
<!-- Node3&#45;&gt;Node14 -->
<g id="edge40" class="edge">
<title>Node3&#45;&gt;Node14</title>
<path fill="none" stroke="midnightblue" d="M563.78,-313.33C561.45,-299.73 555.17,-273.27 540,-257 514.24,-229.37 483.28,-252.87 463,-221 455.6,-209.38 456.99,-202.4 463,-190 469.05,-177.52 479.85,-167.19 490.88,-159.2"/>
<polygon fill="midnightblue" stroke="midnightblue" points="492.93,-162.03 499.28,-153.54 489.02,-156.22 492.93,-162.03"/>
</g>
<!-- Node25 -->
<g id="node26" class="node">
<title>Node25</title>
<g id="a_node26"><a xlink:href="unused_8h.html" target="_top" xlink:title=" ">
<polygon fill="white" stroke="black" points="322.5,-257.5 322.5,-276.5 459.5,-276.5 459.5,-257.5 322.5,-257.5"/>
<text text-anchor="middle" x="391" y="-264.5" font-family="Helvetica,sans-Serif" font-size="10.00">drake/common/unused.h</text>
</a>
</g>
</g>
<!-- Node3&#45;&gt;Node25 -->
<g id="edge41" class="edge">
<title>Node3&#45;&gt;Node25</title>
<path fill="none" stroke="midnightblue" d="M537.43,-313.44C507.9,-304.28 460.88,-289.69 428.12,-279.52"/>
<polygon fill="midnightblue" stroke="midnightblue" points="429.03,-276.14 418.44,-276.52 426.96,-282.82 429.03,-276.14"/>
</g>
<!-- Node10&#45;&gt;Node9 -->
<g id="edge13" class="edge">
<title>Node10&#45;&gt;Node9</title>
<path fill="none" stroke="midnightblue" d="M930.69,-257.48C980.16,-246.85 1064.72,-228.68 1118.41,-217.15"/>
<polygon fill="midnightblue" stroke="midnightblue" points="1119.34,-220.53 1128.39,-215.01 1117.87,-213.69 1119.34,-220.53"/>
</g>
<!-- Node11 -->
<g id="node12" class="node">
<title>Node11</title>
<g id="a_node12"><a xlink:title=" ">
<polygon fill="white" stroke="#bfbfbf" points="856.5,-196 856.5,-215 925.5,-215 925.5,-196 856.5,-196"/>
<text text-anchor="middle" x="891" y="-203" font-family="Helvetica,sans-Serif" font-size="10.00">Eigen/Core</text>
</a>
</g>
</g>
<!-- Node10&#45;&gt;Node11 -->
<g id="edge12" class="edge">
<title>Node10&#45;&gt;Node11</title>
<path fill="none" stroke="midnightblue" d="M891,-257.48C891,-249.08 891,-235.98 891,-225.16"/>
<polygon fill="midnightblue" stroke="midnightblue" points="894.5,-225.01 891,-215.01 887.5,-225.01 894.5,-225.01"/>
</g>
<!-- Node12 -->
<g id="node13" class="node">
<title>Node12</title>
<g id="a_node13"><a xlink:href="eigen__autodiff__types_8h.html" target="_top" xlink:title="This file contains abbreviated definitions for certain uses of AutoDiffScalar that are commonly used ...">
<polygon fill="white" stroke="black" points="472.5,-190.5 472.5,-220.5 591.5,-220.5 591.5,-190.5 472.5,-190.5"/>
<text text-anchor="start" x="480.5" y="-208.5" font-family="Helvetica,sans-Serif" font-size="10.00">drake/common/eigen</text>
<text text-anchor="middle" x="532" y="-197.5" font-family="Helvetica,sans-Serif" font-size="10.00">_autodiff_types.h</text>
</a>
</g>
</g>
<!-- Node10&#45;&gt;Node12 -->
<g id="edge14" class="edge">
<title>Node10&#45;&gt;Node12</title>
<path fill="none" stroke="midnightblue" d="M839.56,-257.48C777.1,-247.12 671.48,-229.62 601.74,-218.06"/>
<polygon fill="midnightblue" stroke="midnightblue" points="602.15,-214.58 591.72,-216.4 601.01,-221.49 602.15,-214.58"/>
</g>
<!-- Node18 -->
<g id="node19" class="node">
<title>Node18</title>
<g id="a_node19"><a xlink:href="autodiffxd_8h.html" target="_top" xlink:title=" ">
<polygon fill="white" stroke="black" points="648,-196 648,-215 800,-215 800,-196 648,-196"/>
<text text-anchor="middle" x="724" y="-203" font-family="Helvetica,sans-Serif" font-size="10.00">drake/common/autodiffxd.h</text>
</a>
</g>
</g>
<!-- Node10&#45;&gt;Node18 -->
<g id="edge24" class="edge">
<title>Node10&#45;&gt;Node18</title>
<path fill="none" stroke="midnightblue" d="M867.07,-257.48C838.3,-247.22 789.84,-229.96 757.4,-218.4"/>
<polygon fill="midnightblue" stroke="midnightblue" points="758.48,-215.07 747.88,-215.01 756.13,-221.66 758.48,-215.07"/>
</g>
<!-- Node20 -->
<g id="node21" class="node">
<title>Node20</title>
<g id="a_node21"><a xlink:href="autodiff__overloads_8h.html" target="_top" xlink:title="Overloads for STL mathematical operations on AutoDiffScalar.">
<polygon fill="white" stroke="black" points="943.5,-190.5 943.5,-220.5 1074.5,-220.5 1074.5,-190.5 943.5,-190.5"/>
<text text-anchor="start" x="951.5" y="-208.5" font-family="Helvetica,sans-Serif" font-size="10.00">drake/common/autodiff</text>
<text text-anchor="middle" x="1009" y="-197.5" font-family="Helvetica,sans-Serif" font-size="10.00">_overloads.h</text>
</a>
</g>
</g>
<!-- Node10&#45;&gt;Node20 -->
<g id="edge30" class="edge">
<title>Node10&#45;&gt;Node20</title>
<path fill="none" stroke="midnightblue" d="M907.91,-257.48C924.56,-249.08 950.55,-235.97 972.01,-225.15"/>
<polygon fill="midnightblue" stroke="midnightblue" points="973.84,-228.15 981.19,-220.52 970.68,-221.9 973.84,-228.15"/>
</g>
<!-- Node12&#45;&gt;Node2 -->
<g id="edge16" class="edge">
<title>Node12&#45;&gt;Node2</title>
<path fill="none" stroke="midnightblue" d="M500.92,-190.37C463.06,-173.39 396.97,-144.51 339,-123 316.95,-114.81 258.52,-96.33 219.5,-84.14"/>
<polygon fill="midnightblue" stroke="midnightblue" points="220.13,-80.67 209.55,-81.04 218.05,-87.36 220.13,-80.67"/>
</g>
<!-- Node13 -->
<g id="node14" class="node">
<title>Node13</title>
<g id="a_node14"><a xlink:title=" ">
<polygon fill="white" stroke="#bfbfbf" points="712.5,-0.5 712.5,-19.5 781.5,-19.5 781.5,-0.5 712.5,-0.5"/>
<text text-anchor="middle" x="747" y="-7.5" font-family="Helvetica,sans-Serif" font-size="10.00">type_traits</text>
</a>
</g>
</g>
<!-- Node12&#45;&gt;Node13 -->
<g id="edge15" class="edge">
<title>Node12&#45;&gt;Node13</title>
<path fill="none" stroke="midnightblue" d="M554.89,-190.49C568.09,-181.44 584.16,-168.65 595,-154 622.88,-116.31 600.86,-89.15 634,-56 652.47,-37.53 679.47,-26.4 702.45,-19.83"/>
<polygon fill="midnightblue" stroke="midnightblue" points="703.58,-23.16 712.34,-17.21 701.78,-16.39 703.58,-23.16"/>
</g>
<!-- Node12&#45;&gt;Node14 -->
<g id="edge17" class="edge">
<title>Node12&#45;&gt;Node14</title>
<path fill="none" stroke="midnightblue" d="M530.92,-190.4C530.31,-182.56 529.55,-172.6 528.85,-163.57"/>
<polygon fill="midnightblue" stroke="midnightblue" points="532.34,-163.28 528.08,-153.58 525.36,-163.82 532.34,-163.28"/>
</g>
<!-- Node14&#45;&gt;Node2 -->
<g id="edge19" class="edge">
<title>Node14&#45;&gt;Node2</title>
<path fill="none" stroke="midnightblue" d="M467.26,-125.61C462.44,-124.71 457.64,-123.83 453,-123 353.73,-105.3 327.19,-109.92 229,-87 225.18,-86.11 221.22,-85.07 217.29,-83.97"/>
<polygon fill="midnightblue" stroke="midnightblue" points="218.26,-80.6 207.68,-81.13 216.28,-87.32 218.26,-80.6"/>
</g>
<!-- Node14&#45;&gt;Node8 -->
<g id="edge18" class="edge">
<title>Node14&#45;&gt;Node8</title>
<path fill="none" stroke="midnightblue" d="M467.24,-125.39C403.2,-112.29 308.49,-92.55 292,-87 290.34,-86.44 288.64,-85.82 286.95,-85.15"/>
<polygon fill="midnightblue" stroke="midnightblue" points="288.02,-81.8 277.45,-81.03 285.23,-88.22 288.02,-81.8"/>
</g>
<!-- Node15 -->
<g id="node16" class="node">
<title>Node15</title>
<g id="a_node16"><a xlink:href="constants_8h.html" target="_top" xlink:title=" ">
<polygon fill="white" stroke="black" points="438.5,-62 438.5,-81 587.5,-81 587.5,-62 438.5,-62"/>
<text text-anchor="middle" x="513" y="-69" font-family="Helvetica,sans-Serif" font-size="10.00">drake/common/constants.h</text>
</a>
</g>
</g>
<!-- Node14&#45;&gt;Node15 -->
<g id="edge20" class="edge">
<title>Node14&#45;&gt;Node15</title>
<path fill="none" stroke="midnightblue" d="M523.96,-123.4C521.93,-113.96 519.24,-101.45 517.03,-91.19"/>
<polygon fill="midnightblue" stroke="midnightblue" points="520.4,-90.23 514.87,-81.19 513.56,-91.71 520.4,-90.23"/>
</g>
<!-- Node16 -->
<g id="node17" class="node">
<title>Node16</title>
<g id="a_node17"><a xlink:href="drake__assert_8h.html" target="_top" xlink:title="Provides Drake&#39;s assertion implementation.">
<polygon fill="white" stroke="black" points="643.5,-56.5 643.5,-86.5 762.5,-86.5 762.5,-56.5 643.5,-56.5"/>
<text text-anchor="start" x="651.5" y="-74.5" font-family="Helvetica,sans-Serif" font-size="10.00">drake/common/drake</text>
<text text-anchor="middle" x="703" y="-63.5" font-family="Helvetica,sans-Serif" font-size="10.00">_assert.h</text>
</a>
</g>
</g>
<!-- Node14&#45;&gt;Node16 -->
<g id="edge21" class="edge">
<title>Node14&#45;&gt;Node16</title>
<path fill="none" stroke="midnightblue" d="M565.19,-123.4C591.6,-113.64 626.93,-100.59 655.2,-90.15"/>
<polygon fill="midnightblue" stroke="midnightblue" points="656.72,-93.32 664.89,-86.58 654.29,-86.76 656.72,-93.32"/>
</g>
<!-- Node17 -->
<g id="node18" class="node">
<title>Node17</title>
<g id="a_node18"><a xlink:href="drake__copyable_8h.html" target="_top" xlink:title="Provides careful macros to selectively enable or disable the special member functions for copy&#45;constr...">
<polygon fill="white" stroke="black" points="301.5,-56.5 301.5,-86.5 420.5,-86.5 420.5,-56.5 301.5,-56.5"/>
<text text-anchor="start" x="309.5" y="-74.5" font-family="Helvetica,sans-Serif" font-size="10.00">drake/common/drake</text>
<text text-anchor="middle" x="361" y="-63.5" font-family="Helvetica,sans-Serif" font-size="10.00">_copyable.h</text>
</a>
</g>
</g>
<!-- Node14&#45;&gt;Node17 -->
<g id="edge23" class="edge">
<title>Node14&#45;&gt;Node17</title>
<path fill="none" stroke="midnightblue" d="M490.98,-123.4C466.18,-113.69 433.04,-100.71 406.43,-90.29"/>
<polygon fill="midnightblue" stroke="midnightblue" points="407.54,-86.96 396.95,-86.58 404.98,-93.48 407.54,-86.96"/>
</g>
<!-- Node16&#45;&gt;Node13 -->
<g id="edge22" class="edge">
<title>Node16&#45;&gt;Node13</title>
<path fill="none" stroke="midnightblue" d="M713.43,-56.4C719.76,-47.84 727.87,-36.87 734.53,-27.86"/>
<polygon fill="midnightblue" stroke="midnightblue" points="737.47,-29.78 740.6,-19.66 731.84,-25.62 737.47,-29.78"/>
</g>
<!-- Node18&#45;&gt;Node1 -->
<g id="edge26" class="edge">
<title>Node18&#45;&gt;Node1</title>
<path fill="none" stroke="midnightblue" d="M734.38,-195.92C759.43,-175.21 821.37,-124.11 824,-123 950.94,-69.32 997.63,-117.67 1132,-87 1135.41,-86.22 1138.93,-85.26 1142.42,-84.21"/>
<polygon fill="midnightblue" stroke="midnightblue" points="1143.6,-87.51 1152.03,-81.09 1141.43,-80.85 1143.6,-87.51"/>
</g>
<!-- Node18&#45;&gt;Node2 -->
<g id="edge29" class="edge">
<title>Node18&#45;&gt;Node2</title>
<path fill="none" stroke="midnightblue" d="M653.94,-196C599.62,-188.26 522.9,-174.82 458,-154 426.76,-143.98 422.08,-133.51 391,-123 321.13,-99.38 300.3,-105.89 229,-87 225.4,-86.05 221.67,-85 217.95,-83.92"/>
<polygon fill="midnightblue" stroke="midnightblue" points="218.83,-80.52 208.24,-81 216.82,-87.23 218.83,-80.52"/>
</g>
<!-- Node18&#45;&gt;Node5 -->
<g id="edge25" class="edge">
<title>Node18&#45;&gt;Node5</title>
<path fill="none" stroke="midnightblue" d="M741.66,-195.87C764.32,-184.8 803.83,-165.49 830.2,-152.6"/>
<polygon fill="midnightblue" stroke="midnightblue" points="831.82,-155.7 839.27,-148.17 828.74,-149.41 831.82,-155.7"/>
</g>
<!-- Node18&#45;&gt;Node13 -->
<g id="edge28" class="edge">
<title>Node18&#45;&gt;Node13</title>
<path fill="none" stroke="midnightblue" d="M718.99,-195.77C710.74,-180.11 696.47,-146.69 710,-123 725.61,-95.66 755.39,-114.34 771,-87 781.67,-68.32 770.52,-44.29 760.13,-28.31"/>
<polygon fill="midnightblue" stroke="midnightblue" points="762.86,-26.11 754.26,-19.93 757.13,-30.13 762.86,-26.11"/>
</g>
<!-- Node19 -->
<g id="node20" class="node">
<title>Node19</title>
<g id="a_node20"><a xlink:title=" ">
<polygon fill="white" stroke="#bfbfbf" points="719.5,-129 719.5,-148 776.5,-148 776.5,-129 719.5,-129"/>
<text text-anchor="middle" x="748" y="-136" font-family="Helvetica,sans-Serif" font-size="10.00">ostream</text>
</a>
</g>
</g>
<!-- Node18&#45;&gt;Node19 -->
<g id="edge27" class="edge">
<title>Node18&#45;&gt;Node19</title>
<path fill="none" stroke="midnightblue" d="M727.24,-195.73C730.84,-185.99 736.75,-169.98 741.34,-157.53"/>
<polygon fill="midnightblue" stroke="midnightblue" points="744.63,-158.72 744.81,-148.13 738.07,-156.3 744.63,-158.72"/>
</g>
<!-- Node20&#45;&gt;Node1 -->
<g id="edge32" class="edge">
<title>Node20&#45;&gt;Node1</title>
<path fill="none" stroke="midnightblue" d="M1026.47,-190.31C1046.57,-174 1080.59,-146.47 1110,-123 1125.1,-110.95 1142.29,-97.39 1155.05,-87.36"/>
<polygon fill="midnightblue" stroke="midnightblue" points="1157.4,-89.97 1163.1,-81.04 1153.07,-84.47 1157.4,-89.97"/>
</g>
<!-- Node20&#45;&gt;Node5 -->
<g id="edge31" class="edge">
<title>Node20&#45;&gt;Node5</title>
<path fill="none" stroke="midnightblue" d="M976.02,-190.4C949.23,-178.94 911.81,-162.94 886.12,-151.95"/>
<polygon fill="midnightblue" stroke="midnightblue" points="887.46,-148.72 876.89,-148.01 884.71,-155.16 887.46,-148.72"/>
</g>
<!-- Node20&#45;&gt;Node16 -->
<g id="edge37" class="edge">
<title>Node20&#45;&gt;Node16</title>
<path fill="none" stroke="midnightblue" d="M984.79,-190.39C968.44,-180.63 946.55,-167.09 928,-154 909.91,-141.23 908.76,-133 889,-123 852.57,-104.57 808.6,-92.23 772.57,-84.37"/>
<polygon fill="midnightblue" stroke="midnightblue" points="773.14,-80.91 762.63,-82.27 771.69,-87.76 773.14,-80.91"/>
</g>
<!-- Node21 -->
<g id="node22" class="node">
<title>Node21</title>
<g id="a_node22"><a xlink:href="cond_8h.html" target="_top" xlink:title=" ">
<polygon fill="white" stroke="black" points="937.5,-129 937.5,-148 1062.5,-148 1062.5,-129 937.5,-129"/>
<text text-anchor="middle" x="1000" y="-136" font-family="Helvetica,sans-Serif" font-size="10.00">drake/common/cond.h</text>
</a>
</g>
</g>
<!-- Node20&#45;&gt;Node21 -->
<g id="edge33" class="edge">
<title>Node20&#45;&gt;Node21</title>
<path fill="none" stroke="midnightblue" d="M1007.05,-190.4C1005.74,-180.96 1004.01,-168.45 1002.59,-158.19"/>
<polygon fill="midnightblue" stroke="midnightblue" points="1006.04,-157.62 1001.2,-148.19 999.11,-158.58 1006.04,-157.62"/>
</g>
<!-- Node24 -->
<g id="node25" class="node">
<title>Node24</title>
<g id="a_node25"><a xlink:href="dummy__value_8h.html" target="_top" xlink:title=" ">
<polygon fill="white" stroke="black" points="1119,-123.5 1119,-153.5 1249,-153.5 1249,-123.5 1119,-123.5"/>
<text text-anchor="start" x="1127" y="-141.5" font-family="Helvetica,sans-Serif" font-size="10.00">drake/common/dummy</text>
<text text-anchor="middle" x="1184" y="-130.5" font-family="Helvetica,sans-Serif" font-size="10.00">_value.h</text>
</a>
</g>
</g>
<!-- Node20&#45;&gt;Node24 -->
<g id="edge38" class="edge">
<title>Node20&#45;&gt;Node24</title>
<path fill="none" stroke="midnightblue" d="M1046.97,-190.4C1073.23,-180.64 1108.36,-167.59 1136.48,-157.15"/>
<polygon fill="midnightblue" stroke="midnightblue" points="1137.95,-160.34 1146.1,-153.58 1135.51,-153.78 1137.95,-160.34"/>
</g>
<!-- Node21&#45;&gt;Node13 -->
<g id="edge35" class="edge">
<title>Node21&#45;&gt;Node13</title>
<path fill="none" stroke="midnightblue" d="M982.61,-128.81C939.08,-107.04 825.23,-50.12 773.39,-24.2"/>
<polygon fill="midnightblue" stroke="midnightblue" points="774.69,-20.93 764.18,-19.59 771.56,-27.19 774.69,-20.93"/>
</g>
<!-- Node22 -->
<g id="node23" class="node">
<title>Node22</title>
<g id="a_node23"><a xlink:title=" ">
<polygon fill="white" stroke="#bfbfbf" points="915.5,-62 915.5,-81 980.5,-81 980.5,-62 915.5,-62"/>
<text text-anchor="middle" x="948" y="-69" font-family="Helvetica,sans-Serif" font-size="10.00">functional</text>
</a>
</g>
</g>
<!-- Node21&#45;&gt;Node22 -->
<g id="edge34" class="edge">
<title>Node21&#45;&gt;Node22</title>
<path fill="none" stroke="midnightblue" d="M992.99,-128.73C984.88,-118.6 971.35,-101.69 961.24,-89.06"/>
<polygon fill="midnightblue" stroke="midnightblue" points="963.88,-86.75 954.9,-81.13 958.42,-91.12 963.88,-86.75"/>
</g>
<!-- Node23 -->
<g id="node24" class="node">
<title>Node23</title>
<g id="a_node24"><a xlink:href="double__overloads_8h.html" target="_top" xlink:title="Provides necessary operations on double to have it as a ScalarType in drake.">
<polygon fill="white" stroke="black" points="998.5,-56.5 998.5,-86.5 1123.5,-86.5 1123.5,-56.5 998.5,-56.5"/>
<text text-anchor="start" x="1006.5" y="-74.5" font-family="Helvetica,sans-Serif" font-size="10.00">drake/common/double</text>
<text text-anchor="middle" x="1061" y="-63.5" font-family="Helvetica,sans-Serif" font-size="10.00">_overloads.h</text>
</a>
</g>
</g>
<!-- Node21&#45;&gt;Node23 -->
<g id="edge36" class="edge">
<title>Node21&#45;&gt;Node23</title>
<path fill="none" stroke="midnightblue" d="M1008.23,-128.73C1016.55,-119.86 1029.74,-105.81 1040.85,-93.97"/>
<polygon fill="midnightblue" stroke="midnightblue" points="1043.49,-96.28 1047.78,-86.59 1038.38,-91.49 1043.49,-96.28"/>
</g>
<!-- Node24&#45;&gt;Node1 -->
<g id="edge39" class="edge">
<title>Node24&#45;&gt;Node1</title>
<path fill="none" stroke="midnightblue" d="M1181.83,-123.4C1180.38,-113.96 1178.45,-101.45 1176.88,-91.19"/>
<polygon fill="midnightblue" stroke="midnightblue" points="1180.32,-90.55 1175.34,-81.19 1173.4,-91.61 1180.32,-90.55"/>
</g>
<!-- Node26&#45;&gt;Node2 -->
<g id="edge45" class="edge">
<title>Node26&#45;&gt;Node2</title>
<path fill="none" stroke="midnightblue" d="M257.7,-369.32C239.92,-361.07 219.73,-349.08 206,-333 186.01,-309.58 182,-298.8 182,-268 182,-268 182,-268 182,-204.5 182,-164.16 182,-116.88 182,-91.28"/>
<polygon fill="midnightblue" stroke="midnightblue" points="185.5,-91.15 182,-81.15 178.5,-91.15 185.5,-91.15"/>
</g>
<!-- Node26&#45;&gt;Node3 -->
<g id="edge49" class="edge">
<title>Node26&#45;&gt;Node3</title>
<path fill="none" stroke="midnightblue" d="M352.72,-370.95C401.3,-360.21 470.51,-344.9 516.54,-334.72"/>
<polygon fill="midnightblue" stroke="midnightblue" points="517.56,-338.08 526.57,-332.5 516.05,-331.24 517.56,-338.08"/>
</g>
<!-- Node26&#45;&gt;Node6 -->
<g id="edge44" class="edge">
<title>Node26&#45;&gt;Node6</title>
<path fill="none" stroke="midnightblue" d="M291.26,-369.07C288.15,-359.06 284.26,-345.35 282,-333 279.19,-317.65 277.66,-300.01 276.86,-286.99"/>
<polygon fill="midnightblue" stroke="midnightblue" points="280.35,-286.7 276.32,-276.9 273.36,-287.07 280.35,-286.7"/>
</g>
<!-- Node26&#45;&gt;Node16 -->
<g id="edge47" class="edge">
<title>Node26&#45;&gt;Node16</title>
<path fill="none" stroke="midnightblue" d="M280.46,-369.38C254.56,-344.18 208.28,-290.93 239,-257 293.1,-197.23 530.52,-261.89 600,-221 648.77,-192.3 679.94,-130.34 694.11,-96.22"/>
<polygon fill="midnightblue" stroke="midnightblue" points="697.49,-97.18 697.96,-86.6 690.99,-94.58 697.49,-97.18"/>
</g>
<!-- Node26&#45;&gt;Node25 -->
<g id="edge48" class="edge">
<title>Node26&#45;&gt;Node25</title>
<path fill="none" stroke="midnightblue" d="M296.7,-369.42C298.11,-354.13 302.35,-329.65 315,-313 325.91,-298.64 342.83,-287.98 357.94,-280.65"/>
<polygon fill="midnightblue" stroke="midnightblue" points="359.39,-283.83 367.05,-276.51 356.49,-277.46 359.39,-283.83"/>
</g>
<!-- Node27 -->
<g id="node28" class="node">
<title>Node27</title>
<g id="a_node28"><a xlink:title=" ">
<polygon fill="white" stroke="#bfbfbf" points="324,-313.5 324,-332.5 388,-332.5 388,-313.5 324,-313.5"/>
<text text-anchor="middle" x="356" y="-320.5" font-family="Helvetica,sans-Serif" font-size="10.00">algorithm</text>
</a>
</g>
</g>
<!-- Node26&#45;&gt;Node27 -->
<g id="edge43" class="edge">
<title>Node26&#45;&gt;Node27</title>
<path fill="none" stroke="midnightblue" d="M310.22,-369.4C319.21,-360.49 330.84,-348.95 340.13,-339.74"/>
<polygon fill="midnightblue" stroke="midnightblue" points="342.63,-342.18 347.27,-332.66 337.7,-337.21 342.63,-342.18"/>
</g>
<!-- Node28 -->
<g id="node29" class="node">
<title>Node28</title>
<g id="a_node29"><a xlink:title=" ">
<polygon fill="white" stroke="#bfbfbf" points="406.5,-313.5 406.5,-332.5 485.5,-332.5 485.5,-313.5 406.5,-313.5"/>
<text text-anchor="middle" x="446" y="-320.5" font-family="Helvetica,sans-Serif" font-size="10.00">fmt/format.h</text>
</a>
</g>
</g>
<!-- Node26&#45;&gt;Node28 -->
<g id="edge46" class="edge">
<title>Node26&#45;&gt;Node28</title>
<path fill="none" stroke="midnightblue" d="M331.55,-369.4C356.83,-359.37 390.47,-346.03 414.73,-336.4"/>
<polygon fill="midnightblue" stroke="midnightblue" points="416.17,-339.6 424.17,-332.66 413.59,-333.09 416.17,-339.6"/>
</g>
<!-- Node29 -->
<g id="node30" class="node">
<title>Node29</title>
<g id="a_node30"><a xlink:href="gradient_8h.html" target="_top" xlink:title="Utilities for arithmetic on gradients.">
<polygon fill="white" stroke="black" points="28.5,-313.5 28.5,-332.5 153.5,-332.5 153.5,-313.5 28.5,-313.5"/>
<text text-anchor="middle" x="91" y="-320.5" font-family="Helvetica,sans-Serif" font-size="10.00">drake/math/gradient.h</text>
</a>
</g>
</g>
<!-- Node26&#45;&gt;Node29 -->
<g id="edge50" class="edge">
<title>Node26&#45;&gt;Node29</title>
<path fill="none" stroke="midnightblue" d="M247.68,-369.47C211.85,-359.08 163.62,-345.08 130.18,-335.37"/>
<polygon fill="midnightblue" stroke="midnightblue" points="130.89,-331.93 120.31,-332.51 128.94,-338.66 130.89,-331.93"/>
</g>
<!-- Node29&#45;&gt;Node2 -->
<g id="edge51" class="edge">
<title>Node29&#45;&gt;Node2</title>
<path fill="none" stroke="midnightblue" d="M94.13,-313.41C107.18,-277.65 157.34,-140.1 175.44,-90.48"/>
<polygon fill="midnightblue" stroke="midnightblue" points="178.74,-91.65 178.88,-81.05 172.17,-89.25 178.74,-91.65"/>
</g>
</g>
</svg>
        <g id="navigator" transform="translate(0 0)" fill="#404254">
                <rect fill="#f2f5e9" fill-opacity="0.5" stroke="#606060" stroke-width=".5" x="0" y="0" width="60" height="60"/>
                <use id="zoomplus" xlink:href="#zoomPlus" x="17" y="9" onmousedown="handleZoom(evt,'in')"/>
                <use id="zoomminus" xlink:href="#zoomMin" x="42" y="9" onmousedown="handleZoom(evt,'out')"/>
                <use id="reset" xlink:href="#resetDef" x="30" y="36" onmousedown="handleReset()"/>
                <g id="arrowUp" xlink:href="#dirArrow" transform="translate(30 24)" onmousedown="handlePan(0,-1)">
                  <use xlink:href="#rim" fill="#404040">
                        <set attributeName="fill" to="#808080" begin="arrowUp.mouseover" end="arrowUp.mouseout"/>
                  </use>
                  <path fill="none" stroke="white" stroke-width="1.5" d="M0,-3.0v7 M-2.5,-0.5L0,-3.0L2.5,-0.5"/>
                </g>
                <g id="arrowRight" xlink:href="#dirArrow" transform="rotate(90) translate(36 -43)" onmousedown="handlePan(1,0)">
                  <use xlink:href="#rim" fill="#404040">
                        <set attributeName="fill" to="#808080" begin="arrowRight.mouseover" end="arrowRight.mouseout"/>
                  </use>
                  <path fill="none" stroke="white" stroke-width="1.5" d="M0,-3.0v7 M-2.5,-0.5L0,-3.0L2.5,-0.5"/>
                </g>
                <g id="arrowDown" xlink:href="#dirArrow" transform="rotate(180) translate(-30 -48)" onmousedown="handlePan(0,1)">
                  <use xlink:href="#rim" fill="#404040">
                        <set attributeName="fill" to="#808080" begin="arrowDown.mouseover" end="arrowDown.mouseout"/>
                  </use>
                  <path fill="none" stroke="white" stroke-width="1.5" d="M0,-3.0v7 M-2.5,-0.5L0,-3.0L2.5,-0.5"/>
                </g>
                <g id="arrowLeft" xlink:href="#dirArrow" transform="rotate(270) translate(-36 17)" onmousedown="handlePan(-1,0)">
                  <use xlink:href="#rim" fill="#404040">
                        <set attributeName="fill" to="#808080" begin="arrowLeft.mouseover" end="arrowLeft.mouseout"/>
                  </use>
                  <path fill="none" stroke="white" stroke-width="1.5" d="M0,-3.0v7 M-2.5,-0.5L0,-3.0L2.5,-0.5"/>
                </g>
        </g>
        <svg viewBox="0 0 15 15" width="100%" height="30px" preserveAspectRatio="xMaxYMin meet">
         <g id="arrow_out" transform="scale(0.3 0.3)">
          <a xlink:href="differentiable__norm_8h__incl_org.svg" target="_base">
           <rect id="button" ry="5" rx="5" y="6" x="6" height="38" width="38"
                fill="#f2f5e9" fill-opacity="0.5" stroke="#606060" stroke-width="1.0"/>
           <path id="arrow"
             d="M 11.500037,31.436501 C 11.940474,20.09759 22.043105,11.32322 32.158766,21.979434 L 37.068811,17.246167 C 37.068811,17.246167 37.088388,32 37.088388,32 L 22.160133,31.978069 C 22.160133,31.978069 26.997745,27.140456 26.997745,27.140456 C 18.528582,18.264221 13.291696,25.230495 11.500037,31.436501 z"
             style="fill:#404040;"/>
          </a>
         </g>
        </svg>
</svg>
