<?xml version="1.0" encoding="UTF-8" standalone="no"?>
<!DOCTYPE svg PUBLIC "-//W3C//DTD SVG 1.1//EN"
 "http://www.w3.org/Graphics/SVG/1.1/DTD/svg11.dtd">
<!-- Generated by graphviz version 2.43.0 (0)
 -->
<!-- Title: drake/math/differentiable_norm.h Pages: 1 -->
<!--zoomable 710 -->

<svg id="main" version="1.1" xmlns="http://www.w3.org/2000/svg" xmlns:xlink="http://www.w3.org/1999/xlink" xml:space="preserve" onload="init(evt)">

<style type="text/css"><![CDATA[
.node, .edge {opacity: 0.7;}
.node.selected, .edge.selected {opacity: 1;}
.edge:hover path { stroke: red; }
.edge:hover polygon { stroke: red; fill: red; }
]]></style>

<defs>
  <circle id="rim" cx="0" cy="0" r="7"/>
  <circle id="rim2" cx="0" cy="0" r="3.5"/>
  <g id="zoomPlus">
    <use xlink:href="#rim" fill="#404040"><set attributeName="fill" to="#808080" begin="zoomplus.mouseover" end="zoomplus.mouseout"/></use>
    <path d="M-4,0h8M0,-4v8" fill="none" stroke="white" stroke-width="1.5" pointer-events="none"/>
  </g>
  <g id="zoomMin">
    <use xlink:href="#rim" fill="#404040"><set attributeName="fill" to="#808080" begin="zoomminus.mouseover" end="zoomminus.mouseout"/></use>
    <path d="M-4,0h8" fill="none" stroke="white" stroke-width="1.5" pointer-events="none"/>
  </g>
  <g id="arrowUp" transform="translate(30 24)">
    <use xlink:href="#rim"/>
    <path pointer-events="none" fill="none" stroke="white" stroke-width="1.5" d="M0,-3.0v7 M-2.5,-0.5L0,-3.0L2.5,-0.5"/>
  </g>
  <g id="arrowRight" transform="rotate(90) translate(36 -43)">
    <use xlink:href="#rim"/>
    <path pointer-events="none" fill="none" stroke="white" stroke-width="1.5" d="M0,-3.0v7 M-2.5,-0.5L0,-3.0L2.5,-0.5"/>
  </g>
  <g id="arrowDown" transform="rotate(180) translate(-30 -48)">
    <use xlink:href="#rim"/>
    <path pointer-events="none" fill="none" stroke="white" stroke-width="1.5" d="M0,-3.0v7 M-2.5,-0.5L0,-3.0L2.5,-0.5"/>
  </g>
  <g id="arrowLeft" transform="rotate(270) translate(-36 17)">
    <use xlink:href="#rim"/>
    <path pointer-events="none" fill="none" stroke="white" stroke-width="1.5" d="M0,-3.0v7 M-2.5,-0.5L0,-3.0L2.5,-0.5"/>
  </g>
  <g id="resetDef">
    <use xlink:href="#rim2" fill="#404040"><set attributeName="fill" to="#808080" begin="reset.mouseover" end="reset.mouseout"/></use>
  </g>
</defs>
<script type="application/ecmascript">
var viewWidth = 2205;
var viewHeight = 710;
var sectionId = 'dynsection-0';
</script>
<script type="application/ecmascript" xlink:href="svg.min.js"/>
<svg id="graph" class="graph">
<g id="viewport">
<title>drake/math/differentiable_norm.h</title>
<!-- Node1 -->
<g id="Node000001" class="node">
<title>Node1</title>
<g id="a_Node000001"><a xlink:title=" ">
<ellipse fill="#999999" stroke="#666666" cx="1771" cy="-680.38" rx="98.99" ry="21.43"/>
<text text-anchor="start" x="1709" y="-683.38" font-family="Helvetica,sans-Serif" font-size="10.00">drake/math/differentiable</text>
<text text-anchor="middle" x="1771" y="-672.38" font-family="Helvetica,sans-Serif" font-size="10.00">_norm.h</text>
</a>
</g>
</g>
<!-- Node2 -->
<g id="Node000002" class="node">
<title>Node2</title>
<g id="a_Node000002"><a xlink:title=" ">
<ellipse fill="#e0e0e0" stroke="#999999" cx="80" cy="-240.94" rx="31.23" ry="13.37"/>
<text text-anchor="middle" x="80" y="-238.44" font-family="Helvetica,sans-Serif" font-size="10.00">limits</text>
</a>
</g>
</g>
<!-- Node1&#45;&gt;Node2 -->
<g id="edge1_Node000001_Node000002" class="edge">
<title>Node1&#45;&gt;Node2</title>
<g id="a_edge1_Node000001_Node000002"><a xlink:title=" ">
<path fill="none" stroke="#63b8ff" d="M1673.8,-676.26C1308.43,-663.92 38,-615.04 38,-532.31 38,-532.31 38,-532.31 38,-396.79 38,-352.14 44.26,-340.94 57,-298.15 60.47,-286.48 65.5,-273.89 69.96,-263.6"/>
<polygon fill="#63b8ff" stroke="#63b8ff" points="73.28,-264.74 74.16,-254.18 66.89,-261.89 73.28,-264.74"/>
</a>
</g>
</g>
<!-- Node3 -->
<g id="Node000003" class="node">
<title>Node3</title>
<g id="a_Node000003"><a xlink:title=" ">
<ellipse fill="#e0e0e0" stroke="#999999" cx="1962" cy="-84.08" rx="54.39" ry="13.37"/>
<text text-anchor="middle" x="1962" y="-81.58" font-family="Helvetica,sans-Serif" font-size="10.00">Eigen/Dense</text>
</a>
</g>
</g>
<!-- Node1&#45;&gt;Node3 -->
<g id="edge2_Node000001_Node000003" class="edge">
<title>Node1&#45;&gt;Node3</title>
<g id="a_edge2_Node000001_Node000003"><a xlink:title=" ">
<path fill="none" stroke="#63b8ff" d="M1852.06,-668.08C1974.88,-648.64 2194,-603.93 2194,-532.31 2194,-532.31 2194,-532.31 2194,-239.94 2194,-195.29 2205.48,-173.92 2175,-141.3 2153.8,-118.61 2073.78,-102.08 2018.11,-93.03"/>
<polygon fill="#63b8ff" stroke="#63b8ff" points="2018.44,-89.54 2008.01,-91.43 2017.34,-96.46 2018.44,-89.54"/>
</a>
</g>
</g>
<!-- Node4 -->
<g id="Node000004" class="node">
<title>Node4</title>
<g id="a_Node000004"><a xlink:href="math_2autodiff_8h.html" target="_top" xlink:title="Utilities for arithmetic on AutoDiffScalar.">
<ellipse fill="white" stroke="#666666" cx="1575" cy="-531.31" rx="86.03" ry="13.37"/>
<text text-anchor="middle" x="1575" y="-528.81" font-family="Helvetica,sans-Serif" font-size="10.00">drake/math/autodiff.h</text>
</a>
</g>
</g>
<!-- Node1&#45;&gt;Node4 -->
<g id="edge3_Node000001_Node000004" class="edge">
<title>Node1&#45;&gt;Node4</title>
<g id="a_edge3_Node000001_Node000004"><a xlink:title=" ">
<path fill="none" stroke="#63b8ff" d="M1744.97,-659.85C1706.99,-631.35 1636.86,-578.72 1599.66,-550.81"/>
<polygon fill="#63b8ff" stroke="#63b8ff" points="1601.48,-547.81 1591.39,-544.6 1597.28,-553.4 1601.48,-547.81"/>
</a>
</g>
</g>
<!-- Node31 -->
<g id="Node000031" class="node">
<title>Node31</title>
<g id="a_Node000031"><a xlink:href="autodiff__gradient_8h.html" target="_top" xlink:title="Utilities that relate simultaneously to both autodiff matrices and gradient matrices.">
<ellipse fill="white" stroke="#666666" cx="1837" cy="-601.96" rx="79.81" ry="21.43"/>
<text text-anchor="start" x="1788.5" y="-604.96" font-family="Helvetica,sans-Serif" font-size="10.00">drake/math/autodiff</text>
<text text-anchor="middle" x="1837" y="-593.96" font-family="Helvetica,sans-Serif" font-size="10.00">_gradient.h</text>
</a>
</g>
</g>
<!-- Node1&#45;&gt;Node31 -->
<g id="edge49_Node000001_Node000031" class="edge">
<title>Node1&#45;&gt;Node31</title>
<g id="a_edge49_Node000001_Node000031"><a xlink:title=" ">
<path fill="none" stroke="#63b8ff" d="M1788.34,-659.3C1795.92,-650.53 1804.93,-640.09 1813.13,-630.6"/>
<polygon fill="#63b8ff" stroke="#63b8ff" points="1815.89,-632.76 1819.78,-622.9 1810.59,-628.18 1815.89,-632.76"/>
</a>
</g>
</g>
<!-- Node4&#45;&gt;Node3 -->
<g id="edge9_Node000004_Node000003" class="edge">
<title>Node4&#45;&gt;Node3</title>
<g id="a_edge9_Node000004_Node000003"><a xlink:title=" ">
<path fill="none" stroke="#63b8ff" d="M1585.97,-517.56C1611.75,-486.25 1674,-402.17 1674,-320.36 1674,-320.36 1674,-320.36 1674,-239.94 1674,-137.38 1817.42,-102.45 1901.84,-90.78"/>
<polygon fill="#63b8ff" stroke="#63b8ff" points="1902.37,-94.24 1911.83,-89.47 1901.46,-87.3 1902.37,-94.24"/>
</a>
</g>
</g>
<!-- Node5 -->
<g id="Node000005" class="node">
<title>Node5</title>
<g id="a_Node000005"><a xlink:title=" ">
<ellipse fill="#e0e0e0" stroke="#999999" cx="1494" cy="-13.44" rx="29.9" ry="13.37"/>
<text text-anchor="middle" x="1494" y="-10.94" font-family="Helvetica,sans-Serif" font-size="10.00">array</text>
</a>
</g>
</g>
<!-- Node4&#45;&gt;Node5 -->
<g id="edge4_Node000004_Node000005" class="edge">
<title>Node4&#45;&gt;Node5</title>
<g id="a_edge4_Node000004_Node000005"><a xlink:title=" ">
<path fill="none" stroke="#63b8ff" d="M1576.41,-517.66C1583.55,-451.36 1613.77,-143.84 1569,-62.87 1559.81,-46.25 1542.23,-34.44 1526.4,-26.64"/>
<polygon fill="#63b8ff" stroke="#63b8ff" points="1527.41,-23.26 1516.86,-22.3 1524.51,-29.63 1527.41,-23.26"/>
</a>
</g>
</g>
<!-- Node6 -->
<g id="Node000006" class="node">
<title>Node6</title>
<g id="a_Node000006"><a xlink:title=" ">
<ellipse fill="#e0e0e0" stroke="#999999" cx="342" cy="-240.94" rx="33.47" ry="13.37"/>
<text text-anchor="middle" x="342" y="-238.44" font-family="Helvetica,sans-Serif" font-size="10.00">cmath</text>
</a>
</g>
</g>
<!-- Node4&#45;&gt;Node6 -->
<g id="edge5_Node000004_Node000006" class="edge">
<title>Node4&#45;&gt;Node6</title>
<g id="a_edge5_Node000004_Node000006"><a xlink:title=" ">
<path fill="none" stroke="#63b8ff" d="M1490.18,-528.53C1266.84,-523.53 673.83,-507.93 589,-481.87 473.59,-446.42 423.9,-441.07 357,-340.58 341.96,-317.98 339.71,-286.09 340.23,-264.75"/>
<polygon fill="#63b8ff" stroke="#63b8ff" points="343.73,-264.81 340.7,-254.66 336.74,-264.48 343.73,-264.81"/>
</a>
</g>
</g>
<!-- Node7 -->
<g id="Node000007" class="node">
<title>Node7</title>
<g id="a_Node000007"><a xlink:title=" ">
<ellipse fill="#e0e0e0" stroke="#999999" cx="1704" cy="-468.44" rx="39.7" ry="13.37"/>
<text text-anchor="middle" x="1704" y="-465.94" font-family="Helvetica,sans-Serif" font-size="10.00">optional</text>
</a>
</g>
</g>
<!-- Node4&#45;&gt;Node7 -->
<g id="edge6_Node000004_Node000007" class="edge">
<title>Node4&#45;&gt;Node7</title>
<g id="a_edge6_Node000004_Node000007"><a xlink:title=" ">
<path fill="none" stroke="#63b8ff" d="M1600.18,-518.43C1620.97,-508.62 1650.56,-494.65 1672.84,-484.14"/>
<polygon fill="#63b8ff" stroke="#63b8ff" points="1674.34,-487.3 1681.9,-479.87 1671.36,-480.97 1674.34,-487.3"/>
</a>
</g>
</g>
<!-- Node8 -->
<g id="Node000008" class="node">
<title>Node8</title>
<g id="a_Node000008"><a xlink:title=" ">
<ellipse fill="#e0e0e0" stroke="#999999" cx="1617" cy="-13.44" rx="28.98" ry="13.37"/>
<text text-anchor="middle" x="1617" y="-10.94" font-family="Helvetica,sans-Serif" font-size="10.00">tuple</text>
</a>
</g>
</g>
<!-- Node4&#45;&gt;Node8 -->
<g id="edge7_Node000004_Node000008" class="edge">
<title>Node4&#45;&gt;Node8</title>
<g id="a_edge7_Node000004_Node000008"><a xlink:title=" ">
<path fill="none" stroke="#63b8ff" d="M1579.58,-517.86C1593.77,-478.18 1636,-350.93 1636,-241.94 1636,-241.94 1636,-241.94 1636,-161.51 1636,-116.99 1627.33,-65.52 1621.71,-36.79"/>
<polygon fill="#63b8ff" stroke="#63b8ff" points="1625.13,-36.07 1619.72,-26.96 1618.27,-37.45 1625.13,-36.07"/>
</a>
</g>
</g>
<!-- Node9 -->
<g id="Node000009" class="node">
<title>Node9</title>
<g id="a_Node000009"><a xlink:title=" ">
<ellipse fill="#e0e0e0" stroke="#999999" cx="797" cy="-13.44" rx="31.64" ry="13.37"/>
<text text-anchor="middle" x="797" y="-10.94" font-family="Helvetica,sans-Serif" font-size="10.00">utility</text>
</a>
</g>
</g>
<!-- Node4&#45;&gt;Node9 -->
<g id="edge8_Node000004_Node000009" class="edge">
<title>Node4&#45;&gt;Node9</title>
<g id="a_edge8_Node000004_Node000009"><a xlink:title=" ">
<path fill="none" stroke="#63b8ff" d="M1489.04,-529.92C1306.42,-528.33 866.48,-520.44 500,-481.87 275.97,-458.3 0,-624.06 0,-398.79 0,-398.79 0,-398.79 0,-161.51 0,-83.89 592.12,-30.81 755.62,-17.63"/>
<polygon fill="#63b8ff" stroke="#63b8ff" points="756.07,-21.11 765.76,-16.82 755.51,-14.13 756.07,-21.11"/>
</a>
</g>
</g>
<!-- Node10 -->
<g id="Node000010" class="node">
<title>Node10</title>
<g id="a_Node000010"><a xlink:href="common_2autodiff_8h.html" target="_top" xlink:title="This header provides a single inclusion point for autodiff&#45;related header files in the drake/common d...">
<ellipse fill="white" stroke="#666666" cx="696" cy="-468.44" rx="98.08" ry="13.37"/>
<text text-anchor="middle" x="696" y="-465.94" font-family="Helvetica,sans-Serif" font-size="10.00">drake/common/autodiff.h</text>
</a>
</g>
</g>
<!-- Node4&#45;&gt;Node10 -->
<g id="edge10_Node000004_Node000010" class="edge">
<title>Node4&#45;&gt;Node10</title>
<g id="a_edge10_Node000004_Node000010"><a xlink:title=" ">
<path fill="none" stroke="#63b8ff" d="M1498.53,-525.01C1337.92,-513.89 965.88,-488.13 790.59,-475.99"/>
<polygon fill="#63b8ff" stroke="#63b8ff" points="790.82,-472.5 780.61,-475.3 790.34,-479.48 790.82,-472.5"/>
</a>
</g>
</g>
<!-- Node16 -->
<g id="Node000016" class="node">
<title>Node16</title>
<g id="a_Node000016"><a xlink:href="eigen__types_8h.html" target="_top" xlink:title="This file contains abbreviated definitions for certain specializations of Eigen::Matrix that are comm...">
<ellipse fill="white" stroke="#666666" cx="959" cy="-162.51" rx="84.29" ry="21.43"/>
<text text-anchor="start" x="907.5" y="-165.51" font-family="Helvetica,sans-Serif" font-size="10.00">drake/common/eigen</text>
<text text-anchor="middle" x="959" y="-154.51" font-family="Helvetica,sans-Serif" font-size="10.00">_types.h</text>
</a>
</g>
</g>
<!-- Node4&#45;&gt;Node16 -->
<g id="edge47_Node000004_Node000016" class="edge">
<title>Node4&#45;&gt;Node16</title>
<g id="a_edge47_Node000004_Node000016"><a xlink:title=" ">
<path fill="none" stroke="#63b8ff" d="M1527.95,-519.98C1446.15,-499.68 1277.29,-446.96 1181,-340.58 1142.64,-298.19 1178.28,-259.26 1137,-219.72 1112.08,-195.86 1077.09,-182.12 1044.72,-174.21"/>
<polygon fill="#63b8ff" stroke="#63b8ff" points="1045.31,-170.75 1034.78,-171.94 1043.75,-177.58 1045.31,-170.75"/>
</a>
</g>
</g>
<!-- Node19 -->
<g id="Node000019" class="node">
<title>Node19</title>
<g id="a_Node000019"><a xlink:href="drake__assert_8h.html" target="_top" xlink:title="Provides Drake&#39;s assertion mechanics.">
<ellipse fill="white" stroke="#666666" cx="1476" cy="-84.08" rx="84.29" ry="21.43"/>
<text text-anchor="start" x="1424.5" y="-87.08" font-family="Helvetica,sans-Serif" font-size="10.00">drake/common/drake</text>
<text text-anchor="middle" x="1476" y="-76.08" font-family="Helvetica,sans-Serif" font-size="10.00">_assert.h</text>
</a>
</g>
</g>
<!-- Node4&#45;&gt;Node19 -->
<g id="edge46_Node000004_Node000019" class="edge">
<title>Node4&#45;&gt;Node19</title>
<g id="a_edge46_Node000004_Node000019"><a xlink:title=" ">
<path fill="none" stroke="#63b8ff" d="M1566.25,-517.92C1551.19,-495.35 1522,-445.56 1522,-398.79 1522,-398.79 1522,-398.79 1522,-239.94 1522,-194.89 1503.89,-145.41 1490.4,-114.8"/>
<polygon fill="#63b8ff" stroke="#63b8ff" points="1493.52,-113.21 1486.21,-105.55 1487.15,-116.1 1493.52,-113.21"/>
</a>
</g>
</g>
<!-- Node30 -->
<g id="Node000030" class="node">
<title>Node30</title>
<g id="a_Node000030"><a xlink:href="unused_8h.html" target="_top" xlink:title=" ">
<ellipse fill="white" stroke="#666666" cx="1858" cy="-468.44" rx="96.75" ry="13.37"/>
<text text-anchor="middle" x="1858" y="-465.94" font-family="Helvetica,sans-Serif" font-size="10.00">drake/common/unused.h</text>
</a>
</g>
</g>
<!-- Node4&#45;&gt;Node30 -->
<g id="edge48_Node000004_Node000030" class="edge">
<title>Node4&#45;&gt;Node30</title>
<g id="a_edge48_Node000004_Node000030"><a xlink:title=" ">
<path fill="none" stroke="#63b8ff" d="M1622.69,-520.05C1671.23,-509.61 1746.57,-493.4 1798.88,-482.15"/>
<polygon fill="#63b8ff" stroke="#63b8ff" points="1799.65,-485.57 1808.69,-480.04 1798.18,-478.72 1799.65,-485.57"/>
</a>
</g>
</g>
<!-- Node11 -->
<g id="Node000011" class="node">
<title>Node11</title>
<g id="a_Node000011"><a xlink:href="autodiff__config_8h.html" target="_top" xlink:title=" ">
<ellipse fill="white" stroke="#666666" cx="595" cy="-397.79" rx="91.85" ry="21.43"/>
<text text-anchor="start" x="538" y="-400.79" font-family="Helvetica,sans-Serif" font-size="10.00">drake/common/autodiff</text>
<text text-anchor="middle" x="595" y="-389.79" font-family="Helvetica,sans-Serif" font-size="10.00">_config.h</text>
</a>
</g>
</g>
<!-- Node10&#45;&gt;Node11 -->
<g id="edge11_Node000010_Node000011" class="edge">
<title>Node10&#45;&gt;Node11</title>
<g id="a_edge11_Node000010_Node000011"><a xlink:title=" ">
<path fill="none" stroke="#63b8ff" d="M677.94,-455.16C665.21,-446.51 647.7,-434.61 632.05,-423.97"/>
<polygon fill="#63b8ff" stroke="#63b8ff" points="633.83,-420.95 623.59,-418.22 629.89,-426.74 633.83,-420.95"/>
</a>
</g>
</g>
<!-- Node12 -->
<g id="Node000012" class="node">
<title>Node12</title>
<g id="a_Node000012"><a xlink:title=" ">
<ellipse fill="#e0e0e0" stroke="#999999" cx="184" cy="-240.94" rx="48.58" ry="13.37"/>
<text text-anchor="middle" x="184" y="-238.44" font-family="Helvetica,sans-Serif" font-size="10.00">Eigen/Core</text>
</a>
</g>
</g>
<!-- Node10&#45;&gt;Node12 -->
<g id="edge12_Node000010_Node000012" class="edge">
<title>Node10&#45;&gt;Node12</title>
<g id="a_edge12_Node000010_Node000012"><a xlink:title=" ">
<path fill="none" stroke="#63b8ff" d="M636.3,-457.73C595.35,-449.97 540.27,-437.33 494,-419 486.54,-416.05 288.19,-301.95 212.75,-258.5"/>
<polygon fill="#63b8ff" stroke="#63b8ff" points="214.18,-255.29 203.77,-253.33 210.69,-261.35 214.18,-255.29"/>
</a>
</g>
</g>
<!-- Node13 -->
<g id="Node000013" class="node">
<title>Node13</title>
<g id="a_Node000013"><a xlink:href="auto__diff_8h.html" target="_top" xlink:title=" ">
<ellipse fill="white" stroke="#666666" cx="796" cy="-397.79" rx="91.43" ry="21.43"/>
<text text-anchor="start" x="739.5" y="-400.79" font-family="Helvetica,sans-Serif" font-size="10.00">drake/common/ad/auto</text>
<text text-anchor="middle" x="796" y="-389.79" font-family="Helvetica,sans-Serif" font-size="10.00">_diff.h</text>
</a>
</g>
</g>
<!-- Node10&#45;&gt;Node13 -->
<g id="edge13_Node000010_Node000013" class="edge">
<title>Node10&#45;&gt;Node13</title>
<g id="a_edge13_Node000010_Node000013"><a xlink:title=" ">
<path fill="none" stroke="#63b8ff" d="M713.88,-455.16C726.49,-446.51 743.82,-434.61 759.32,-423.97"/>
<polygon fill="#63b8ff" stroke="#63b8ff" points="761.43,-426.77 767.69,-418.22 757.47,-421 761.43,-426.77"/>
</a>
</g>
</g>
<!-- Node14 -->
<g id="Node000014" class="node">
<title>Node14</title>
<g id="a_Node000014"><a xlink:href="derivatives__xpr_8h.html" target="_top" xlink:title=" ">
<ellipse fill="white" stroke="#666666" cx="1025" cy="-240.94" rx="102.56" ry="21.43"/>
<text text-anchor="start" x="960.5" y="-243.94" font-family="Helvetica,sans-Serif" font-size="10.00">drake/common/ad/internal</text>
<text text-anchor="middle" x="1025" y="-232.94" font-family="Helvetica,sans-Serif" font-size="10.00">/derivatives_xpr.h</text>
</a>
</g>
</g>
<!-- Node13&#45;&gt;Node14 -->
<g id="edge14_Node000013_Node000014" class="edge">
<title>Node13&#45;&gt;Node14</title>
<g id="a_edge14_Node000013_Node000014"><a xlink:title=" ">
<path fill="none" stroke="#63b8ff" d="M885.04,-392.92C966.17,-387.31 1077.4,-373.65 1105,-340.58 1117.08,-326.1 1113.69,-314.88 1105,-298.15 1098.2,-285.05 1086.79,-274.37 1074.69,-265.97"/>
<polygon fill="#63b8ff" stroke="#63b8ff" points="1076.54,-263 1066.25,-260.52 1072.75,-268.88 1076.54,-263"/>
</a>
</g>
</g>
<!-- Node13&#45;&gt;Node16 -->
<g id="edge33_Node000013_Node000016" class="edge">
<title>Node13&#45;&gt;Node16</title>
<g id="a_edge33_Node000013_Node000016"><a xlink:title=" ">
<path fill="none" stroke="#63b8ff" d="M814.6,-376.85C823.76,-366.48 834.61,-353.33 843,-340.58 876.07,-290.31 868.99,-268.66 904,-219.72 911.39,-209.4 920.66,-199.16 929.48,-190.31"/>
<polygon fill="#63b8ff" stroke="#63b8ff" points="932.02,-192.71 936.73,-183.22 927.13,-187.71 932.02,-192.71"/>
</a>
</g>
</g>
<!-- Node21 -->
<g id="Node000021" class="node">
<title>Node21</title>
<g id="a_Node000021"><a xlink:href="drake__copyable_8h.html" target="_top" xlink:title="Provides careful macros to selectively enable or disable the special member functions for copy&#45;constr...">
<ellipse fill="white" stroke="#666666" cx="685" cy="-84.08" rx="84.29" ry="21.43"/>
<text text-anchor="start" x="633.5" y="-87.08" font-family="Helvetica,sans-Serif" font-size="10.00">drake/common/drake</text>
<text text-anchor="middle" x="685" y="-76.08" font-family="Helvetica,sans-Serif" font-size="10.00">_copyable.h</text>
</a>
</g>
</g>
<!-- Node13&#45;&gt;Node21 -->
<g id="edge32_Node000013_Node000021" class="edge">
<title>Node13&#45;&gt;Node21</title>
<g id="a_edge32_Node000013_Node000021"><a xlink:title=" ">
<path fill="none" stroke="#63b8ff" d="M727.64,-383.74C683.64,-373.79 632.28,-358.73 619,-340.58 567.71,-270.47 628.61,-164.05 663.64,-113.57"/>
<polygon fill="#63b8ff" stroke="#63b8ff" points="666.71,-115.29 669.64,-105.1 661,-111.24 666.71,-115.29"/>
</a>
</g>
</g>
<!-- Node22 -->
<g id="Node000022" class="node">
<title>Node22</title>
<g id="a_Node000022"><a xlink:href="partials_8h.html" target="_top" xlink:title=" ">
<ellipse fill="white" stroke="#666666" cx="993" cy="-319.36" rx="102.56" ry="21.43"/>
<text text-anchor="start" x="928.5" y="-322.36" font-family="Helvetica,sans-Serif" font-size="10.00">drake/common/ad/internal</text>
<text text-anchor="middle" x="993" y="-311.36" font-family="Helvetica,sans-Serif" font-size="10.00">/partials.h</text>
</a>
</g>
</g>
<!-- Node13&#45;&gt;Node22 -->
<g id="edge28_Node000013_Node000022" class="edge">
<title>Node13&#45;&gt;Node22</title>
<g id="a_edge28_Node000013_Node000022"><a xlink:title=" ">
<path fill="none" stroke="#63b8ff" d="M841.2,-379.26C869.69,-368.2 906.7,-353.84 937.05,-342.07"/>
<polygon fill="#63b8ff" stroke="#63b8ff" points="938.59,-345.23 946.65,-338.35 936.06,-338.7 938.59,-345.23"/>
</a>
</g>
</g>
<!-- Node23 -->
<g id="Node000023" class="node">
<title>Node23</title>
<g id="a_Node000023"><a xlink:href="fmt_8h.html" target="_top" xlink:title=" ">
<ellipse fill="white" stroke="#666666" cx="1274" cy="-319.36" rx="84.29" ry="13.37"/>
<text text-anchor="middle" x="1274" y="-316.86" font-family="Helvetica,sans-Serif" font-size="10.00">drake/common/fmt.h</text>
</a>
</g>
</g>
<!-- Node13&#45;&gt;Node23 -->
<g id="edge34_Node000013_Node000023" class="edge">
<title>Node13&#45;&gt;Node23</title>
<g id="a_edge34_Node000013_Node000023"><a xlink:title=" ">
<path fill="none" stroke="#63b8ff" d="M869.12,-385.1C961.41,-370.34 1118.83,-345.17 1207.75,-330.96"/>
<polygon fill="#63b8ff" stroke="#63b8ff" points="1208.39,-334.4 1217.71,-329.36 1207.29,-327.48 1208.39,-334.4"/>
</a>
</g>
</g>
<!-- Node26 -->
<g id="Node000026" class="node">
<title>Node26</title>
<g id="a_Node000026"><a xlink:href="standard__operations_8h.html" target="_top" xlink:title=" ">
<ellipse fill="white" stroke="#666666" cx="469" cy="-319.36" rx="102.56" ry="21.43"/>
<text text-anchor="start" x="404.5" y="-322.36" font-family="Helvetica,sans-Serif" font-size="10.00">drake/common/ad/internal</text>
<text text-anchor="middle" x="469" y="-311.36" font-family="Helvetica,sans-Serif" font-size="10.00">/standard_operations.h</text>
</a>
</g>
</g>
<!-- Node13&#45;&gt;Node26 -->
<g id="edge39_Node000013_Node000026" class="edge">
<title>Node13&#45;&gt;Node26</title>
<g id="a_edge39_Node000013_Node000026"><a xlink:title=" ">
<path fill="none" stroke="#63b8ff" d="M733.72,-382.23C679.86,-369.64 601.83,-351.41 544.43,-337.99"/>
<polygon fill="#63b8ff" stroke="#63b8ff" points="545.22,-334.58 534.69,-335.72 543.63,-341.4 545.22,-334.58"/>
</a>
</g>
</g>
<!-- Node28 -->
<g id="Node000028" class="node">
<title>Node28</title>
<g id="a_Node000028"><a xlink:href="eigen__specializations_8h.html" target="_top" xlink:title=" ">
<ellipse fill="white" stroke="#666666" cx="169" cy="-319.36" rx="102.56" ry="21.43"/>
<text text-anchor="start" x="104.5" y="-322.36" font-family="Helvetica,sans-Serif" font-size="10.00">drake/common/ad/internal</text>
<text text-anchor="middle" x="169" y="-311.36" font-family="Helvetica,sans-Serif" font-size="10.00">/eigen_specializations.h</text>
</a>
</g>
</g>
<!-- Node13&#45;&gt;Node28 -->
<g id="edge42_Node000013_Node000028" class="edge">
<title>Node13&#45;&gt;Node28</title>
<g id="a_edge42_Node000013_Node000028"><a xlink:title=" ">
<path fill="none" stroke="#63b8ff" d="M731.34,-382.8C719.61,-380.52 707.47,-378.34 696,-376.58 546.25,-353.54 507.66,-356.67 357,-340.58 328.09,-337.49 296.69,-334.12 267.97,-331.03"/>
<polygon fill="#63b8ff" stroke="#63b8ff" points="268.25,-327.54 257.94,-329.95 267.5,-334.5 268.25,-327.54"/>
</a>
</g>
</g>
<!-- Node29 -->
<g id="Node000029" class="node">
<title>Node29</title>
<g id="a_Node000029"><a xlink:href="drake__operations_8h.html" target="_top" xlink:title=" ">
<ellipse fill="white" stroke="#666666" cx="731" cy="-319.36" rx="102.56" ry="21.43"/>
<text text-anchor="start" x="666.5" y="-322.36" font-family="Helvetica,sans-Serif" font-size="10.00">drake/common/ad/internal</text>
<text text-anchor="middle" x="731" y="-311.36" font-family="Helvetica,sans-Serif" font-size="10.00">/drake_operations.h</text>
</a>
</g>
</g>
<!-- Node13&#45;&gt;Node29 -->
<g id="edge45_Node000013_Node000029" class="edge">
<title>Node13&#45;&gt;Node29</title>
<g id="a_edge45_Node000013_Node000029"><a xlink:title=" ">
<path fill="none" stroke="#63b8ff" d="M778.92,-376.71C771.46,-367.93 762.58,-357.5 754.51,-348"/>
<polygon fill="#63b8ff" stroke="#63b8ff" points="757.11,-345.66 747.96,-340.31 751.78,-350.19 757.11,-345.66"/>
</a>
</g>
</g>
<!-- Node15 -->
<g id="Node000015" class="node">
<title>Node15</title>
<g id="a_Node000015"><a xlink:title=" ">
<ellipse fill="#e0e0e0" stroke="#999999" cx="1194" cy="-13.44" rx="48.58" ry="13.37"/>
<text text-anchor="middle" x="1194" y="-10.94" font-family="Helvetica,sans-Serif" font-size="10.00">type_traits</text>
</a>
</g>
</g>
<!-- Node14&#45;&gt;Node15 -->
<g id="edge15_Node000014_Node000015" class="edge">
<title>Node14&#45;&gt;Node15</title>
<g id="a_edge15_Node000014_Node000015"><a xlink:title=" ">
<path fill="none" stroke="#63b8ff" d="M1043.35,-219.64C1066.3,-193.87 1106.31,-147.64 1137,-105.3 1153.73,-82.21 1170.84,-54.23 1181.89,-35.47"/>
<polygon fill="#63b8ff" stroke="#63b8ff" points="1184.92,-37.23 1186.94,-26.82 1178.88,-33.7 1184.92,-37.23"/>
</a>
</g>
</g>
<!-- Node14&#45;&gt;Node16 -->
<g id="edge16_Node000014_Node000016" class="edge">
<title>Node14&#45;&gt;Node16</title>
<g id="a_edge16_Node000014_Node000016"><a xlink:title=" ">
<path fill="none" stroke="#63b8ff" d="M1007.66,-219.86C1000.08,-211.08 991.07,-200.64 982.87,-191.15"/>
<polygon fill="#63b8ff" stroke="#63b8ff" points="985.41,-188.74 976.22,-183.46 980.11,-193.31 985.41,-188.74"/>
</a>
</g>
</g>
<!-- Node16&#45;&gt;Node3 -->
<g id="edge19_Node000016_Node000003" class="edge">
<title>Node16&#45;&gt;Node3</title>
<g id="a_edge19_Node000016_Node000003"><a xlink:title=" ">
<path fill="none" stroke="#63b8ff" d="M1038.54,-155.45C1232.66,-140.66 1727.38,-102.96 1900.81,-89.75"/>
<polygon fill="#63b8ff" stroke="#63b8ff" points="1901.32,-93.22 1911.03,-88.97 1900.79,-86.24 1901.32,-93.22"/>
</a>
</g>
</g>
<!-- Node16&#45;&gt;Node9 -->
<g id="edge18_Node000016_Node000009" class="edge">
<title>Node16&#45;&gt;Node9</title>
<g id="a_edge18_Node000016_Node000009"><a xlink:title=" ">
<path fill="none" stroke="#63b8ff" d="M891.72,-149.61C864.52,-141.49 835.1,-127.92 816,-105.3 799.95,-86.28 796.35,-57.15 796.02,-37.02"/>
<polygon fill="#63b8ff" stroke="#63b8ff" points="799.52,-36.92 796.11,-26.89 792.52,-36.86 799.52,-36.92"/>
</a>
</g>
</g>
<!-- Node17 -->
<g id="Node000017" class="node">
<title>Node17</title>
<g id="a_Node000017"><a xlink:title=" ">
<ellipse fill="#e0e0e0" stroke="#999999" cx="862" cy="-84.08" rx="37.45" ry="13.37"/>
<text text-anchor="middle" x="862" y="-81.58" font-family="Helvetica,sans-Serif" font-size="10.00">iterator</text>
</a>
</g>
</g>
<!-- Node16&#45;&gt;Node17 -->
<g id="edge17_Node000016_Node000017" class="edge">
<title>Node16&#45;&gt;Node17</title>
<g id="a_edge17_Node000016_Node000017"><a xlink:title=" ">
<path fill="none" stroke="#63b8ff" d="M934.27,-142.03C919.07,-130.05 899.73,-114.81 884.88,-103.11"/>
<polygon fill="#63b8ff" stroke="#63b8ff" points="886.74,-100.12 876.72,-96.68 882.41,-105.62 886.74,-100.12"/>
</a>
</g>
</g>
<!-- Node18 -->
<g id="Node000018" class="node">
<title>Node18</title>
<g id="a_Node000018"><a xlink:href="constants_8h.html" target="_top" xlink:title=" ">
<ellipse fill="white" stroke="#666666" cx="1023" cy="-84.08" rx="105.22" ry="13.37"/>
<text text-anchor="middle" x="1023" y="-81.58" font-family="Helvetica,sans-Serif" font-size="10.00">drake/common/constants.h</text>
</a>
</g>
</g>
<!-- Node16&#45;&gt;Node18 -->
<g id="edge20_Node000016_Node000018" class="edge">
<title>Node16&#45;&gt;Node18</title>
<g id="a_edge20_Node000016_Node000018"><a xlink:title=" ">
<path fill="none" stroke="#63b8ff" d="M975.82,-141.43C985.02,-130.43 996.41,-116.83 1005.7,-105.74"/>
<polygon fill="#63b8ff" stroke="#63b8ff" points="1008.58,-107.76 1012.31,-97.84 1003.21,-103.26 1008.58,-107.76"/>
</a>
</g>
</g>
<!-- Node16&#45;&gt;Node19 -->
<g id="edge21_Node000016_Node000019" class="edge">
<title>Node16&#45;&gt;Node19</title>
<g id="a_edge21_Node000016_Node000019"><a xlink:title=" ">
<path fill="none" stroke="#63b8ff" d="M1029.8,-151.04C1125.12,-136.95 1294.31,-111.94 1394.71,-97.1"/>
<polygon fill="#63b8ff" stroke="#63b8ff" points="1395.43,-100.53 1404.81,-95.61 1394.41,-93.61 1395.43,-100.53"/>
</a>
</g>
</g>
<!-- Node16&#45;&gt;Node21 -->
<g id="edge27_Node000016_Node000021" class="edge">
<title>Node16&#45;&gt;Node21</title>
<g id="a_edge27_Node000016_Node000021"><a xlink:title=" ">
<path fill="none" stroke="#63b8ff" d="M904.54,-146.32C859.95,-133.88 796.77,-116.26 749.63,-103.11"/>
<polygon fill="#63b8ff" stroke="#63b8ff" points="750.4,-99.69 739.83,-100.38 748.52,-106.43 750.4,-99.69"/>
</a>
</g>
</g>
<!-- Node19&#45;&gt;Node5 -->
<g id="edge22_Node000019_Node000005" class="edge">
<title>Node19&#45;&gt;Node5</title>
<g id="a_edge22_Node000019_Node000005"><a xlink:title=" ">
<path fill="none" stroke="#63b8ff" d="M1481.3,-62.86C1483.43,-54.74 1485.9,-45.34 1488.08,-37"/>
<polygon fill="#63b8ff" stroke="#63b8ff" points="1491.51,-37.74 1490.66,-27.18 1484.74,-35.96 1491.51,-37.74"/>
</a>
</g>
</g>
<!-- Node19&#45;&gt;Node8 -->
<g id="edge24_Node000019_Node000008" class="edge">
<title>Node19&#45;&gt;Node8</title>
<g id="a_edge24_Node000019_Node000008"><a xlink:title=" ">
<path fill="none" stroke="#63b8ff" d="M1513.42,-64.87C1537.15,-53.31 1567.36,-38.6 1589.02,-28.06"/>
<polygon fill="#63b8ff" stroke="#63b8ff" points="1590.57,-31.2 1598.03,-23.67 1587.5,-24.9 1590.57,-31.2"/>
</a>
</g>
</g>
<!-- Node19&#45;&gt;Node9 -->
<g id="edge26_Node000019_Node000009" class="edge">
<title>Node19&#45;&gt;Node9</title>
<g id="a_edge26_Node000019_Node000009"><a xlink:title=" ">
<path fill="none" stroke="#63b8ff" d="M1399.1,-75.31C1254.8,-60.72 948.06,-29.71 837.65,-18.55"/>
<polygon fill="#63b8ff" stroke="#63b8ff" points="837.9,-15.05 827.6,-17.53 837.19,-22.02 837.9,-15.05"/>
</a>
</g>
</g>
<!-- Node19&#45;&gt;Node15 -->
<g id="edge25_Node000019_Node000015" class="edge">
<title>Node19&#45;&gt;Node15</title>
<g id="a_edge25_Node000019_Node000015"><a xlink:title=" ">
<path fill="none" stroke="#63b8ff" d="M1417.23,-68.78C1364.03,-55.83 1286.83,-37.03 1238.57,-25.28"/>
<polygon fill="#63b8ff" stroke="#63b8ff" points="1239.27,-21.85 1228.73,-22.89 1237.62,-28.65 1239.27,-21.85"/>
</a>
</g>
</g>
<!-- Node20 -->
<g id="Node000020" class="node">
<title>Node20</title>
<g id="a_Node000020"><a xlink:title=" ">
<ellipse fill="#e0e0e0" stroke="#999999" cx="1399" cy="-13.44" rx="31.23" ry="13.37"/>
<text text-anchor="middle" x="1399" y="-10.94" font-family="Helvetica,sans-Serif" font-size="10.00">string</text>
</a>
</g>
</g>
<!-- Node19&#45;&gt;Node20 -->
<g id="edge23_Node000019_Node000020" class="edge">
<title>Node19&#45;&gt;Node20</title>
<g id="a_edge23_Node000019_Node000020"><a xlink:title=" ">
<path fill="none" stroke="#63b8ff" d="M1454.14,-63.6C1443.23,-53.87 1430.11,-42.17 1419.4,-32.62"/>
<polygon fill="#63b8ff" stroke="#63b8ff" points="1421.56,-29.86 1411.76,-25.81 1416.9,-35.08 1421.56,-29.86"/>
</a>
</g>
</g>
<!-- Node22&#45;&gt;Node14 -->
<g id="edge29_Node000022_Node000014" class="edge">
<title>Node22&#45;&gt;Node14</title>
<g id="a_edge29_Node000022_Node000014"><a xlink:title=" ">
<path fill="none" stroke="#63b8ff" d="M1001.58,-297.88C1004.97,-289.76 1008.95,-280.27 1012.65,-271.44"/>
<polygon fill="#63b8ff" stroke="#63b8ff" points="1015.88,-272.78 1016.51,-262.21 1009.42,-270.08 1015.88,-272.78"/>
</a>
</g>
</g>
<!-- Node22&#45;&gt;Node16 -->
<g id="edge31_Node000022_Node000016" class="edge">
<title>Node22&#45;&gt;Node16</title>
<g id="a_edge31_Node000022_Node000016"><a xlink:title=" ">
<path fill="none" stroke="#63b8ff" d="M951.75,-299.78C936.72,-290.73 921.37,-278.27 913,-262.15 904.31,-245.42 906.66,-237.48 913,-219.72 916.73,-209.28 923.32,-199.38 930.37,-190.89"/>
<polygon fill="#63b8ff" stroke="#63b8ff" points="933.17,-193 937.19,-183.2 927.93,-188.36 933.17,-193"/>
</a>
</g>
</g>
<!-- Node22&#45;&gt;Node21 -->
<g id="edge30_Node000022_Node000021" class="edge">
<title>Node22&#45;&gt;Node21</title>
<g id="a_edge30_Node000022_Node000021"><a xlink:title=" ">
<path fill="none" stroke="#63b8ff" d="M960.69,-299.21C943.53,-288.73 922.27,-275.24 904,-262.15 833.95,-211.96 756.55,-146.95 715.12,-111.32"/>
<polygon fill="#63b8ff" stroke="#63b8ff" points="717.19,-108.48 707.33,-104.6 712.62,-113.78 717.19,-108.48"/>
</a>
</g>
</g>
<!-- Node23&#45;&gt;Node15 -->
<g id="edge37_Node000023_Node000015" class="edge">
<title>Node23&#45;&gt;Node15</title>
<g id="a_edge37_Node000023_Node000015"><a xlink:title=" ">
<path fill="none" stroke="#63b8ff" d="M1254.38,-306.21C1240.22,-296.26 1222.05,-280.81 1213,-262.15 1176.32,-186.49 1184.49,-82.43 1190.47,-37.09"/>
<polygon fill="#63b8ff" stroke="#63b8ff" points="1193.94,-37.51 1191.87,-27.12 1187.01,-36.53 1193.94,-37.51"/>
</a>
</g>
</g>
<!-- Node23&#45;&gt;Node20 -->
<g id="edge35_Node000023_Node000020" class="edge">
<title>Node23&#45;&gt;Node20</title>
<g id="a_edge35_Node000023_Node000020"><a xlink:title=" ">
<path fill="none" stroke="#63b8ff" d="M1292.21,-306.19C1306,-296.01 1324.35,-280.28 1335,-262.15 1381.16,-183.61 1358.02,-150.48 1383,-62.87 1385.46,-54.25 1388.47,-44.87 1391.22,-36.68"/>
<polygon fill="#63b8ff" stroke="#63b8ff" points="1394.58,-37.69 1394.5,-27.09 1387.95,-35.42 1394.58,-37.69"/>
</a>
</g>
</g>
<!-- Node24 -->
<g id="Node000024" class="node">
<title>Node24</title>
<g id="a_Node000024"><a xlink:title=" ">
<ellipse fill="#e0e0e0" stroke="#999999" cx="1274" cy="-240.94" rx="51.74" ry="13.37"/>
<text text-anchor="middle" x="1274" y="-238.44" font-family="Helvetica,sans-Serif" font-size="10.00">string_view</text>
</a>
</g>
</g>
<!-- Node23&#45;&gt;Node24 -->
<g id="edge36_Node000023_Node000024" class="edge">
<title>Node23&#45;&gt;Node24</title>
<g id="a_edge36_Node000023_Node000024"><a xlink:title=" ">
<path fill="none" stroke="#63b8ff" d="M1274,-305.74C1274,-294.68 1274,-278.32 1274,-264.94"/>
<polygon fill="#63b8ff" stroke="#63b8ff" points="1277.5,-264.58 1274,-254.58 1270.5,-264.58 1277.5,-264.58"/>
</a>
</g>
</g>
<!-- Node25 -->
<g id="Node000025" class="node">
<title>Node25</title>
<g id="a_Node000025"><a xlink:title=" ">
<ellipse fill="#e0e0e0" stroke="#999999" cx="1438" cy="-240.94" rx="55.72" ry="13.37"/>
<text text-anchor="middle" x="1438" y="-238.44" font-family="Helvetica,sans-Serif" font-size="10.00">fmt/format.h</text>
</a>
</g>
</g>
<!-- Node23&#45;&gt;Node25 -->
<g id="edge38_Node000023_Node000025" class="edge">
<title>Node23&#45;&gt;Node25</title>
<g id="a_edge38_Node000023_Node000025"><a xlink:title=" ">
<path fill="none" stroke="#63b8ff" d="M1299.62,-306.42C1327.95,-293.22 1373.68,-271.91 1404.75,-257.43"/>
<polygon fill="#63b8ff" stroke="#63b8ff" points="1406.3,-260.57 1413.89,-253.17 1403.35,-254.22 1406.3,-260.57"/>
</a>
</g>
</g>
<!-- Node26&#45;&gt;Node6 -->
<g id="edge40_Node000026_Node000006" class="edge">
<title>Node26&#45;&gt;Node6</title>
<g id="a_edge40_Node000026_Node000006"><a xlink:title=" ">
<path fill="none" stroke="#63b8ff" d="M436.95,-299.08C415.67,-286.27 388.08,-269.67 368.13,-257.66"/>
<polygon fill="#63b8ff" stroke="#63b8ff" points="369.92,-254.65 359.55,-252.5 366.31,-260.65 369.92,-254.65"/>
</a>
</g>
</g>
<!-- Node27 -->
<g id="Node000027" class="node">
<title>Node27</title>
<g id="a_Node000027"><a xlink:title=" ">
<ellipse fill="#e0e0e0" stroke="#999999" cx="469" cy="-240.94" rx="33.88" ry="13.37"/>
<text text-anchor="middle" x="469" y="-238.44" font-family="Helvetica,sans-Serif" font-size="10.00">iosfwd</text>
</a>
</g>
</g>
<!-- Node26&#45;&gt;Node27 -->
<g id="edge41_Node000026_Node000027" class="edge">
<title>Node26&#45;&gt;Node27</title>
<g id="a_edge41_Node000026_Node000027"><a xlink:title=" ">
<path fill="none" stroke="#63b8ff" d="M469,-297.88C469,-287.64 469,-275.22 469,-264.69"/>
<polygon fill="#63b8ff" stroke="#63b8ff" points="472.5,-264.56 469,-254.56 465.5,-264.56 472.5,-264.56"/>
</a>
</g>
</g>
<!-- Node28&#45;&gt;Node2 -->
<g id="edge43_Node000028_Node000002" class="edge">
<title>Node28&#45;&gt;Node2</title>
<g id="a_edge43_Node000028_Node000002"><a xlink:title=" ">
<path fill="none" stroke="#63b8ff" d="M146.08,-298.68C132.18,-286.74 114.56,-271.62 101.02,-259.98"/>
<polygon fill="#63b8ff" stroke="#63b8ff" points="103.05,-257.11 93.18,-253.25 98.49,-262.42 103.05,-257.11"/>
</a>
</g>
</g>
<!-- Node28&#45;&gt;Node12 -->
<g id="edge44_Node000028_Node000012" class="edge">
<title>Node28&#45;&gt;Node12</title>
<g id="a_edge44_Node000028_Node000012"><a xlink:title=" ">
<path fill="none" stroke="#63b8ff" d="M173.02,-297.88C175.03,-287.64 177.47,-275.22 179.53,-264.69"/>
<polygon fill="#63b8ff" stroke="#63b8ff" points="183.03,-265.05 181.52,-254.56 176.16,-263.7 183.03,-265.05"/>
</a>
</g>
</g>
<!-- Node31&#45;&gt;Node3 -->
<g id="edge52_Node000031_Node000003" class="edge">
<title>Node31&#45;&gt;Node3</title>
<g id="a_edge52_Node000031_Node000003"><a xlink:title=" ">
<path fill="none" stroke="#63b8ff" d="M1912.31,-594.61C1945.47,-587.63 1981.48,-573.41 2002,-544.74 2027.65,-508.9 1979.63,-194.95 1965.66,-107.57"/>
<polygon fill="#63b8ff" stroke="#63b8ff" points="1969.1,-106.96 1964.06,-97.64 1962.19,-108.07 1969.1,-106.96"/>
</a>
</g>
</g>
<!-- Node31&#45;&gt;Node4 -->
<g id="edge56_Node000031_Node000004" class="edge">
<title>Node31&#45;&gt;Node4</title>
<g id="a_edge56_Node000031_Node000004"><a xlink:title=" ">
<path fill="none" stroke="#63b8ff" d="M1781.76,-586.48C1735.84,-574.45 1670.99,-557.46 1626.22,-545.73"/>
<polygon fill="#63b8ff" stroke="#63b8ff" points="1626.99,-542.31 1616.43,-543.16 1625.21,-549.08 1626.99,-542.31"/>
</a>
</g>
</g>
<!-- Node31&#45;&gt;Node7 -->
<g id="edge51_Node000031_Node000007" class="edge">
<title>Node31&#45;&gt;Node7</title>
<g id="a_edge51_Node000031_Node000007"><a xlink:title=" ">
<path fill="none" stroke="#63b8ff" d="M1817.09,-581.27C1791.74,-556.2 1748.24,-513.18 1723.22,-488.45"/>
<polygon fill="#63b8ff" stroke="#63b8ff" points="1725.67,-485.94 1716.09,-481.4 1720.74,-490.92 1725.67,-485.94"/>
</a>
</g>
</g>
<!-- Node31&#45;&gt;Node19 -->
<g id="edge54_Node000031_Node000019" class="edge">
<title>Node31&#45;&gt;Node19</title>
<g id="a_edge54_Node000031_Node000019"><a xlink:title=" ">
<path fill="none" stroke="#63b8ff" d="M1847.12,-580.73C1857.05,-562.47 1873.66,-535.8 1894,-517.87 1920.25,-494.74 1945.78,-511.74 1964,-481.87 1970.22,-471.68 1969.75,-465.47 1964,-455 1886.91,-314.8 1785.84,-360.98 1660,-262.15 1599.06,-214.29 1535.56,-149.24 1501.41,-112.79"/>
<polygon fill="#63b8ff" stroke="#63b8ff" points="1503.55,-109.96 1494.18,-105.03 1498.43,-114.73 1503.55,-109.96"/>
</a>
</g>
</g>
<!-- Node31&#45;&gt;Node25 -->
<g id="edge53_Node000031_Node000025" class="edge">
<title>Node31&#45;&gt;Node25</title>
<g id="a_edge53_Node000031_Node000025"><a xlink:title=" ">
<path fill="none" stroke="#63b8ff" d="M1757.12,-600.02C1682.52,-596.5 1569.54,-584.28 1480,-544.74 1431.03,-523.12 1386,-522.97 1386,-469.44 1386,-469.44 1386,-469.44 1386,-396.79 1386,-346.85 1410.6,-292.34 1425.96,-263.18"/>
<polygon fill="#63b8ff" stroke="#63b8ff" points="1429.09,-264.77 1430.77,-254.31 1422.93,-261.43 1429.09,-264.77"/>
</a>
</g>
</g>
<!-- Node31&#45;&gt;Node30 -->
<g id="edge55_Node000031_Node000030" class="edge">
<title>Node31&#45;&gt;Node30</title>
<g id="a_edge55_Node000031_Node000030"><a xlink:title=" ">
<path fill="none" stroke="#63b8ff" d="M1840.24,-580.69C1844.06,-556.72 1850.42,-516.91 1854.4,-491.98"/>
<polygon fill="#63b8ff" stroke="#63b8ff" points="1857.88,-492.42 1856,-481.99 1850.96,-491.31 1857.88,-492.42"/>
</a>
</g>
</g>
<!-- Node32 -->
<g id="Node000032" class="node">
<title>Node32</title>
<g id="a_Node000032"><a xlink:title=" ">
<ellipse fill="#e0e0e0" stroke="#999999" cx="1948" cy="-531.31" rx="45.01" ry="13.37"/>
<text text-anchor="middle" x="1948" y="-528.81" font-family="Helvetica,sans-Serif" font-size="10.00">algorithm</text>
</a>
</g>
</g>
<!-- Node31&#45;&gt;Node32 -->
<g id="edge50_Node000031_Node000032" class="edge">
<title>Node31&#45;&gt;Node32</title>
<g id="a_edge50_Node000031_Node000032"><a xlink:title=" ">
<path fill="none" stroke="#63b8ff" d="M1867.33,-582.2C1883.97,-571.91 1904.43,-559.26 1920.58,-549.27"/>
<polygon fill="#63b8ff" stroke="#63b8ff" points="1922.87,-551.97 1929.53,-543.73 1919.18,-546.01 1922.87,-551.97"/>
</a>
</g>
</g>
<!-- Node33 -->
<g id="Node000033" class="node">
<title>Node33</title>
<g id="a_Node000033"><a xlink:href="gradient_8h.html" target="_top" xlink:title="Utilities for arithmetic on gradients.">
<ellipse fill="white" stroke="#666666" cx="2078" cy="-162.51" rx="88.28" ry="13.37"/>
<text text-anchor="middle" x="2078" y="-160.01" font-family="Helvetica,sans-Serif" font-size="10.00">drake/math/gradient.h</text>
</a>
</g>
</g>
<!-- Node31&#45;&gt;Node33 -->
<g id="edge57_Node000031_Node000033" class="edge">
<title>Node31&#45;&gt;Node33</title>
<g id="a_edge57_Node000031_Node000033"><a xlink:title=" ">
<path fill="none" stroke="#63b8ff" d="M1914.28,-596.27C1954.96,-589.95 2002.92,-575.82 2035,-544.74 2060.23,-520.3 2059,-504.56 2059,-469.44 2059,-469.44 2059,-469.44 2059,-318.36 2059,-271.08 2067.83,-216.28 2073.46,-186.2"/>
<polygon fill="#63b8ff" stroke="#63b8ff" points="2076.91,-186.77 2075.36,-176.29 2070.03,-185.45 2076.91,-186.77"/>
</a>
</g>
</g>
<!-- Node33&#45;&gt;Node3 -->
<g id="edge58_Node000033_Node000003" class="edge">
<title>Node33&#45;&gt;Node3</title>
<g id="a_edge58_Node000033_Node000003"><a xlink:title=" ">
<path fill="none" stroke="#63b8ff" d="M2059.36,-149.23C2040.11,-136.55 2009.91,-116.65 1988.25,-102.37"/>
<polygon fill="#63b8ff" stroke="#63b8ff" points="1990.11,-99.41 1979.83,-96.83 1986.25,-105.25 1990.11,-99.41"/>
</a>
</g>
</g>
</g>
</svg>

<g id="navigator" transform="translate(0 0)" fill="#404254">
  <rect fill="#f2f5e9" fill-opacity="0.5" stroke="#606060" stroke-width=".5" x="0" y="0" width="60" height="60"/>
  <use id="zoomplus" xlink:href="#zoomPlus" x="17" y="9" onmousedown="handleZoom(evt,'in')"/>
  <use id="zoomminus" xlink:href="#zoomMin" x="42" y="9" onmousedown="handleZoom(evt,'out')"/>
  <use id="reset" xlink:href="#resetDef" x="30" y="36" onmousedown="handleReset()"/>
   <use id="arrowup" xlink:href="#arrowUp" x="0" y="0" onmousedown="handlePan(0,-1)"/>
  <use id="arrowright" xlink:href="#arrowRight" x="0" y="0" onmousedown="handlePan(1,0)"/>
  <use id="arrowdown" xlink:href="#arrowDown" x="0" y="0" onmousedown="handlePan(0,1)"/>
  <use id="arrowleft" xlink:href="#arrowLeft" x="0" y="0" onmousedown="handlePan(-1,0)"/>
</g>
<svg viewBox="0 0 15 15" width="100%" height="30px" preserveAspectRatio="xMaxYMin meet">
 <g id="arrow_out" transform="scale(0.3 0.3)">
  <a xlink:href="differentiable__norm_8h__incl_org.svg" target="_base">
   <rect id="button" ry="5" rx="5" y="6" x="6" height="38" width="38"
        fill="#f2f5e9" fill-opacity="0.5" stroke="#606060" stroke-width="1.0"/>
   <path id="arrow"
     d="M 11.500037,31.436501 C 11.940474,20.09759 22.043105,11.32322 32.158766,21.979434 L 37.068811,17.246167 C 37.068811,17.246167 37.088388,32 37.088388,32 L 22.160133,31.978069 C 22.160133,31.978069 26.997745,27.140456 26.997745,27.140456 C 18.528582,18.264221 13.291696,25.230495 11.500037,31.436501 z"
     style="fill:#404040;"/>
  </a>
 </g>
</svg>

<style type='text/css'>
<![CDATA[
[data-mouse-over-selected='false'] { opacity: 0.7; }
[data-mouse-over-selected='true']  { opacity: 1.0; }
]]>
</style>
<script type="application/ecmascript"><![CDATA[
document.addEventListener('DOMContentLoaded', (event) => {
  highlightEdges();
  highlightAdjacentNodes();
});
]]></script>
</svg>
