<?xml version="1.0" encoding="UTF-8" standalone="no"?>
<!DOCTYPE svg PUBLIC "-//W3C//DTD SVG 1.1//EN"
 "http://www.w3.org/Graphics/SVG/1.1/DTD/svg11.dtd">
<!-- Generated by graphviz version 2.43.0 (0)
 -->
<!-- Title: drake/multibody/benchmarks Pages: 1 -->
<!--zoomable 540 -->
<svg id="main" version="1.1" xmlns="http://www.w3.org/2000/svg" xmlns:xlink="http://www.w3.org/1999/xlink" xml:space="preserve" onload="init(evt)">
<style type="text/css"><![CDATA[
.edge:hover path { stroke: red; }
.edge:hover polygon { stroke: red; fill: red; }
]]></style>
<script type="text/javascript"><![CDATA[
var edges = document.getElementsByTagName('g');
if (edges && edges.length) {
  for (var i=0;i<edges.length;i++) {
    if (edges[i].id.substr(0,4)=='edge') {
      edges[i].setAttribute('class','edge');
    }
  }
}
]]></script>
        <defs>
                <circle id="rim" cx="0" cy="0" r="7"/>
                <circle id="rim2" cx="0" cy="0" r="3.5"/>
                <g id="zoomPlus">
                        <use xlink:href="#rim" fill="#404040">
                                <set attributeName="fill" to="#808080" begin="zoomplus.mouseover" end="zoomplus.mouseout"/>
                        </use>
                        <path d="M-4,0h8M0,-4v8" fill="none" stroke="white" stroke-width="1.5" pointer-events="none"/>
                </g>
                <g id="zoomMin">
                        <use xlink:href="#rim" fill="#404040">
                                <set attributeName="fill" to="#808080" begin="zoomminus.mouseover" end="zoomminus.mouseout"/>
                        </use>
                        <path d="M-4,0h8" fill="none" stroke="white" stroke-width="1.5" pointer-events="none"/>
                </g>
                <g id="dirArrow">
                        <path fill="none" stroke="white" stroke-width="1.5" d="M0,-3.0v7 M-2.5,-0.5L0,-3.0L2.5,-0.5"/>
                </g>
               <g id="resetDef">
                       <use xlink:href="#rim2" fill="#404040">
                               <set attributeName="fill" to="#808080" begin="reset.mouseover" end="reset.mouseout"/>
                       </use>
               </g>
        </defs>

<script type="text/javascript">
var viewWidth = 872;
var viewHeight = 540;
var sectionId = 'dynsection-0';
</script>
<script xlink:href="svgpan.js"/>
<svg id="graph" class="graph">
<g id="viewport">
<title>drake/multibody/benchmarks</title>
<polygon fill="white" stroke="transparent" points="-4,4 -4,-536.19 868,-536.19 868,4 -4,4"/>
<g id="clust1" class="cluster">
<title>clusterdir_39b8b3c6654246a9c12332c930bc7d3f</title>
<g id="a_clust1"><a xlink:href="dir_39b8b3c6654246a9c12332c930bc7d3f.html" target="_top" xlink:title="multibody">
<polygon fill="#ddddee" stroke="black" points="8,-416 8,-503 714,-503 714,-416 8,-416"/>
<text text-anchor="middle" x="361" y="-491" font-family="Helvetica,sans-Serif" font-size="10.00">multibody</text>
</a>
</g>
</g>
<g id="clust2" class="cluster">
<title>clusterdir_5d8dbe7a82c2c188fa06f6391bb290bd</title>
<g id="a_clust2"><a xlink:href="dir_5d8dbe7a82c2c188fa06f6391bb290bd.html" target="_top">
<polygon fill="#eeeeff" stroke="black" points="16,-424 16,-476 706,-476 706,-424 16,-424"/>
</a>
</g>
</g>
<!-- dir_5d8dbe7a82c2c188fa06f6391bb290bd -->
<g id="node1" class="node">
<title>dir_5d8dbe7a82c2c188fa06f6391bb290bd</title>
<text text-anchor="middle" x="659" y="-447.5" font-family="Helvetica,sans-Serif" font-size="10.00">benchmarks</text>
</g>
<!-- dir_1b53483452bb55d26e3cb66e1b6a096d -->
<g id="node2" class="node">
<title>dir_1b53483452bb55d26e3cb66e1b6a096d</title>
<g id="a_node2"><a xlink:href="dir_1b53483452bb55d26e3cb66e1b6a096d.html" target="_top" xlink:title="acrobot">
<polygon fill="white" stroke="black" points="267,-468 213,-468 213,-432 267,-432 267,-468"/>
<text text-anchor="middle" x="240" y="-447.5" font-family="Helvetica,sans-Serif" font-size="10.00">acrobot</text>
</a>
</g>
</g>
<!-- dir_fc0178d6978c9fa2cad6ef3e048a60a7 -->
<g id="node9" class="node">
<title>dir_fc0178d6978c9fa2cad6ef3e048a60a7</title>
<g id="a_node9"><a xlink:href="dir_fc0178d6978c9fa2cad6ef3e048a60a7.html" target="_top" xlink:title="math">
<polygon fill="none" stroke="black" points="680,-396 626,-396 626,-360 680,-360 680,-396"/>
<text text-anchor="middle" x="653" y="-375.5" font-family="Helvetica,sans-Serif" font-size="10.00">math</text>
</a>
</g>
</g>
<!-- dir_1b53483452bb55d26e3cb66e1b6a096d&#45;&gt;dir_fc0178d6978c9fa2cad6ef3e048a60a7 -->
<g id="edge33" class="edge">
<title>dir_1b53483452bb55d26e3cb66e1b6a096d&#45;&gt;dir_fc0178d6978c9fa2cad6ef3e048a60a7</title>
<path fill="none" stroke="black" d="M254.97,-431.72C261.16,-425.71 268.8,-419.59 277,-416 337.14,-389.63 533.21,-381.88 615.8,-379.75"/>
<polygon fill="black" stroke="black" points="616.07,-383.24 625.98,-379.5 615.9,-376.25 616.07,-383.24"/>
<g id="a_edge33&#45;headlabel"><a xlink:href="dir_000072_000018.html" target="_top" xlink:title="1">
<text text-anchor="middle" x="612.54" y="-383.67" font-family="Helvetica,sans-Serif" font-size="10.00">1</text>
</a>
</g>
</g>
<!-- dir_a36da230f0956f48b11c85f7d599788f -->
<g id="node10" class="node">
<title>dir_a36da230f0956f48b11c85f7d599788f</title>
<g id="a_node10"><a xlink:href="dir_a36da230f0956f48b11c85f7d599788f.html" target="_top" xlink:title="common">
<polygon fill="white" stroke="red" points="531.5,-324 472.5,-324 472.5,-288 531.5,-288 531.5,-324"/>
<text text-anchor="middle" x="502" y="-303.5" font-family="Helvetica,sans-Serif" font-size="10.00">common</text>
</a>
</g>
</g>
<!-- dir_1b53483452bb55d26e3cb66e1b6a096d&#45;&gt;dir_a36da230f0956f48b11c85f7d599788f -->
<g id="edge34" class="edge">
<title>dir_1b53483452bb55d26e3cb66e1b6a096d&#45;&gt;dir_a36da230f0956f48b11c85f7d599788f</title>
<path fill="none" stroke="black" d="M257.25,-431.83C263.21,-426.38 270.13,-420.6 277,-416 337.96,-375.21 416.47,-340.78 462.81,-322.08"/>
<polygon fill="black" stroke="black" points="464.2,-325.29 472.19,-318.33 461.61,-318.79 464.2,-325.29"/>
<g id="a_edge34&#45;headlabel"><a xlink:href="dir_000072_000015.html" target="_top" xlink:title="2">
<text text-anchor="middle" x="461.92" y="-326.76" font-family="Helvetica,sans-Serif" font-size="10.00">2</text>
</a>
</g>
</g>
<!-- dir_d739e095b49d8b72164589d00310017d -->
<g id="node11" class="node">
<title>dir_d739e095b49d8b72164589d00310017d</title>
<g id="a_node11"><a xlink:href="dir_d739e095b49d8b72164589d00310017d.html" target="_top" xlink:title="geometry">
<polygon fill="white" stroke="red" points="503,-36 439,-36 439,0 503,0 503,-36"/>
<text text-anchor="middle" x="471" y="-15.5" font-family="Helvetica,sans-Serif" font-size="10.00">geometry</text>
</a>
</g>
</g>
<!-- dir_1b53483452bb55d26e3cb66e1b6a096d&#45;&gt;dir_d739e095b49d8b72164589d00310017d -->
<g id="edge35" class="edge">
<title>dir_1b53483452bb55d26e3cb66e1b6a096d&#45;&gt;dir_d739e095b49d8b72164589d00310017d</title>
<path fill="none" stroke="black" d="M235.73,-431.69C224.29,-380.85 198.48,-230.19 270,-144 313.27,-91.85 384.2,-55.02 429.19,-35.41"/>
<polygon fill="black" stroke="black" points="430.84,-38.52 438.66,-31.37 428.09,-32.08 430.84,-38.52"/>
<g id="a_edge35&#45;headlabel"><a xlink:href="dir_000072_000053.html" target="_top" xlink:title="1">
<text text-anchor="middle" x="428.64" y="-40.04" font-family="Helvetica,sans-Serif" font-size="10.00">1</text>
</a>
</g>
</g>
<!-- dir_3f9cb8dbb3b4911cb2ecb548acd672c3 -->
<g id="node12" class="node">
<title>dir_3f9cb8dbb3b4911cb2ecb548acd672c3</title>
<g id="a_node12"><a xlink:href="dir_3f9cb8dbb3b4911cb2ecb548acd672c3.html" target="_top" xlink:title="tree">
<polygon fill="none" stroke="black" points="498,-108 444,-108 444,-72 498,-72 498,-108"/>
<text text-anchor="middle" x="471" y="-87.5" font-family="Helvetica,sans-Serif" font-size="10.00">tree</text>
</a>
</g>
</g>
<!-- dir_1b53483452bb55d26e3cb66e1b6a096d&#45;&gt;dir_3f9cb8dbb3b4911cb2ecb548acd672c3 -->
<g id="edge36" class="edge">
<title>dir_1b53483452bb55d26e3cb66e1b6a096d&#45;&gt;dir_3f9cb8dbb3b4911cb2ecb548acd672c3</title>
<path fill="none" stroke="black" d="M243.24,-431.58C247.91,-404.87 256,-352.15 256,-307 256,-307 256,-307 256,-233 256,-148.85 372.1,-111.7 433.66,-97.91"/>
<polygon fill="black" stroke="black" points="434.72,-101.26 443.77,-95.74 433.26,-94.42 434.72,-101.26"/>
<g id="a_edge36&#45;headlabel"><a xlink:href="dir_000072_000095.html" target="_top" xlink:title="1">
<text text-anchor="middle" x="431.8" y="-102.29" font-family="Helvetica,sans-Serif" font-size="10.00">1</text>
</a>
</g>
</g>
<!-- dir_656f7d340c0f5b4ecaf881820f2aea38 -->
<g id="node13" class="node">
<title>dir_656f7d340c0f5b4ecaf881820f2aea38</title>
<g id="a_node13"><a xlink:href="dir_656f7d340c0f5b4ecaf881820f2aea38.html" target="_top" xlink:title="plant">
<polygon fill="white" stroke="red" points="422,-180 368,-180 368,-144 422,-144 422,-180"/>
<text text-anchor="middle" x="395" y="-159.5" font-family="Helvetica,sans-Serif" font-size="10.00">plant</text>
</a>
</g>
</g>
<!-- dir_1b53483452bb55d26e3cb66e1b6a096d&#45;&gt;dir_656f7d340c0f5b4ecaf881820f2aea38 -->
<g id="edge37" class="edge">
<title>dir_1b53483452bb55d26e3cb66e1b6a096d&#45;&gt;dir_656f7d340c0f5b4ecaf881820f2aea38</title>
<path fill="none" stroke="black" d="M249.83,-431.87C255.73,-421.52 263.37,-408.04 270,-396 311.2,-321.25 358.49,-232.17 381.29,-189.01"/>
<polygon fill="black" stroke="black" points="384.46,-190.51 386.03,-180.03 378.27,-187.24 384.46,-190.51"/>
<g id="a_edge37&#45;headlabel"><a xlink:href="dir_000072_000090.html" target="_top" xlink:title="1">
<text text-anchor="middle" x="385.29" y="-192.51" font-family="Helvetica,sans-Serif" font-size="10.00">1</text>
</a>
</g>
</g>
<!-- dir_0767593f2fce2cf954de79364fec17e6 -->
<g id="node3" class="node">
<title>dir_0767593f2fce2cf954de79364fec17e6</title>
<g id="a_node3"><a xlink:href="dir_0767593f2fce2cf954de79364fec17e6.html" target="_top" xlink:title="free_body">
<polygon fill="white" stroke="black" points="602.5,-468 537.5,-468 537.5,-432 602.5,-432 602.5,-468"/>
<text text-anchor="middle" x="570" y="-447.5" font-family="Helvetica,sans-Serif" font-size="10.00">free_body</text>
</a>
</g>
</g>
<!-- dir_0767593f2fce2cf954de79364fec17e6&#45;&gt;dir_fc0178d6978c9fa2cad6ef3e048a60a7 -->
<g id="edge15" class="edge">
<title>dir_0767593f2fce2cf954de79364fec17e6&#45;&gt;dir_fc0178d6978c9fa2cad6ef3e048a60a7</title>
<path fill="none" stroke="black" d="M590.52,-431.7C600.87,-422.97 613.59,-412.24 624.84,-402.75"/>
<polygon fill="black" stroke="black" points="627.33,-405.23 632.72,-396.1 622.82,-399.88 627.33,-405.23"/>
<g id="a_edge15&#45;headlabel"><a xlink:href="dir_000073_000018.html" target="_top" xlink:title="2">
<text text-anchor="middle" x="626.41" y="-407.21" font-family="Helvetica,sans-Serif" font-size="10.00">2</text>
</a>
</g>
</g>
<!-- dir_0767593f2fce2cf954de79364fec17e6&#45;&gt;dir_a36da230f0956f48b11c85f7d599788f -->
<g id="edge16" class="edge">
<title>dir_0767593f2fce2cf954de79364fec17e6&#45;&gt;dir_a36da230f0956f48b11c85f7d599788f</title>
<path fill="none" stroke="black" d="M561.8,-431.87C550.06,-407.35 528.35,-362.03 514.57,-333.26"/>
<polygon fill="black" stroke="black" points="517.71,-331.7 510.23,-324.19 511.39,-334.72 517.71,-331.7"/>
<g id="a_edge16&#45;headlabel"><a xlink:href="dir_000073_000015.html" target="_top" xlink:title="2">
<text text-anchor="middle" x="521.82" y="-331.21" font-family="Helvetica,sans-Serif" font-size="10.00">2</text>
</a>
</g>
</g>
<!-- dir_b54e51ce690a91bb5edb8aefc17ffc16 -->
<g id="node4" class="node">
<title>dir_b54e51ce690a91bb5edb8aefc17ffc16</title>
<g id="a_node4"><a xlink:href="dir_b54e51ce690a91bb5edb8aefc17ffc16.html" target="_top" xlink:title="inclined_plane">
<polygon fill="white" stroke="black" points="111.5,-468 24.5,-468 24.5,-432 111.5,-432 111.5,-468"/>
<text text-anchor="middle" x="68" y="-447.5" font-family="Helvetica,sans-Serif" font-size="10.00">inclined_plane</text>
</a>
</g>
</g>
<!-- dir_b54e51ce690a91bb5edb8aefc17ffc16&#45;&gt;dir_656f7d340c0f5b4ecaf881820f2aea38 -->
<g id="edge7" class="edge">
<title>dir_b54e51ce690a91bb5edb8aefc17ffc16&#45;&gt;dir_656f7d340c0f5b4ecaf881820f2aea38</title>
<path fill="none" stroke="black" d="M83.46,-431.98C120.47,-391.75 217.99,-288.73 311,-216 326.1,-204.19 343.93,-192.64 359.27,-183.36"/>
<polygon fill="black" stroke="black" points="361.18,-186.29 367.97,-178.16 357.59,-180.28 361.18,-186.29"/>
<g id="a_edge7&#45;headlabel"><a xlink:href="dir_000074_000090.html" target="_top" xlink:title="1">
<text text-anchor="middle" x="359.54" y="-188.07" font-family="Helvetica,sans-Serif" font-size="10.00">1</text>
</a>
</g>
</g>
<!-- dir_fa973aef359a666fa59c209acc8a7d72 -->
<g id="node5" class="node">
<title>dir_fa973aef359a666fa59c209acc8a7d72</title>
<g id="a_node5"><a xlink:href="dir_fa973aef359a666fa59c209acc8a7d72.html" target="_top" xlink:title="kuka_iiwa_robot">
<polygon fill="white" stroke="black" points="519.5,-468 424.5,-468 424.5,-432 519.5,-432 519.5,-468"/>
<text text-anchor="middle" x="472" y="-447.5" font-family="Helvetica,sans-Serif" font-size="10.00">kuka_iiwa_robot</text>
</a>
</g>
</g>
<!-- dir_4d6afa0018d27b03aafc768625d5f8d5 -->
<g id="node8" class="node">
<title>dir_4d6afa0018d27b03aafc768625d5f8d5</title>
<g id="a_node8"><a xlink:href="dir_4d6afa0018d27b03aafc768625d5f8d5.html" target="_top" xlink:title="test_utilities">
<polygon fill="none" stroke="black" points="799.5,-468 722.5,-468 722.5,-432 799.5,-432 799.5,-468"/>
<text text-anchor="middle" x="761" y="-447.5" font-family="Helvetica,sans-Serif" font-size="10.00">test_utilities</text>
</a>
</g>
</g>
<!-- dir_fa973aef359a666fa59c209acc8a7d72&#45;&gt;dir_4d6afa0018d27b03aafc768625d5f8d5 -->
<g id="edge43" class="edge">
<title>dir_fa973aef359a666fa59c209acc8a7d72&#45;&gt;dir_4d6afa0018d27b03aafc768625d5f8d5</title>
<path fill="none" stroke="black" d="M482.68,-468.25C493.95,-485.51 513.47,-510.31 538,-521 571.21,-535.47 668.14,-536.25 701,-521 720.64,-511.88 736.17,-492.82 746.51,-476.75"/>
<polygon fill="black" stroke="black" points="749.5,-478.56 751.71,-468.2 743.52,-474.92 749.5,-478.56"/>
<g id="a_edge43&#45;headlabel"><a xlink:href="dir_000075_000093.html" target="_top" xlink:title="1">
<text text-anchor="middle" x="750.06" y="-480.61" font-family="Helvetica,sans-Serif" font-size="10.00">1</text>
</a>
</g>
</g>
<!-- dir_fa973aef359a666fa59c209acc8a7d72&#45;&gt;dir_fc0178d6978c9fa2cad6ef3e048a60a7 -->
<g id="edge44" class="edge">
<title>dir_fa973aef359a666fa59c209acc8a7d72&#45;&gt;dir_fc0178d6978c9fa2cad6ef3e048a60a7</title>
<path fill="none" stroke="black" d="M497.88,-431.9C507.36,-426.21 518.38,-420.25 529,-416 564.23,-401.9 575.92,-407.75 612,-396 613.42,-395.54 614.86,-395.05 616.31,-394.54"/>
<polygon fill="black" stroke="black" points="617.75,-397.74 625.88,-390.94 615.28,-391.18 617.75,-397.74"/>
<g id="a_edge44&#45;headlabel"><a xlink:href="dir_000075_000018.html" target="_top" xlink:title="1">
<text text-anchor="middle" x="615.38" y="-399.16" font-family="Helvetica,sans-Serif" font-size="10.00">1</text>
</a>
</g>
</g>
<!-- dir_fa973aef359a666fa59c209acc8a7d72&#45;&gt;dir_a36da230f0956f48b11c85f7d599788f -->
<g id="edge45" class="edge">
<title>dir_fa973aef359a666fa59c209acc8a7d72&#45;&gt;dir_a36da230f0956f48b11c85f7d599788f</title>
<path fill="none" stroke="black" d="M475.62,-431.87C480.75,-407.56 490.21,-362.82 496.29,-334.01"/>
<polygon fill="black" stroke="black" points="499.73,-334.7 498.37,-324.19 492.88,-333.25 499.73,-334.7"/>
<g id="a_edge45&#45;headlabel"><a xlink:href="dir_000075_000015.html" target="_top" xlink:title="2">
<text text-anchor="middle" x="501.76" y="-336.3" font-family="Helvetica,sans-Serif" font-size="10.00">2</text>
</a>
</g>
</g>
<!-- dir_fa973aef359a666fa59c209acc8a7d72&#45;&gt;dir_3f9cb8dbb3b4911cb2ecb548acd672c3 -->
<g id="edge46" class="edge">
<title>dir_fa973aef359a666fa59c209acc8a7d72&#45;&gt;dir_3f9cb8dbb3b4911cb2ecb548acd672c3</title>
<path fill="none" stroke="black" d="M470.54,-431.63C468.58,-407.5 465.23,-362.47 464,-324 461.62,-249.61 466.27,-161.85 469.08,-118.32"/>
<polygon fill="black" stroke="black" points="472.58,-118.46 469.75,-108.25 465.6,-117.99 472.58,-118.46"/>
<g id="a_edge46&#45;headlabel"><a xlink:href="dir_000075_000095.html" target="_top" xlink:title="8">
<text text-anchor="middle" x="475.18" y="-119.73" font-family="Helvetica,sans-Serif" font-size="10.00">8</text>
</a>
</g>
</g>
<!-- dir_fa973aef359a666fa59c209acc8a7d72&#45;&gt;dir_656f7d340c0f5b4ecaf881820f2aea38 -->
<g id="edge47" class="edge">
<title>dir_fa973aef359a666fa59c209acc8a7d72&#45;&gt;dir_656f7d340c0f5b4ecaf881820f2aea38</title>
<path fill="none" stroke="black" d="M455.91,-431.58C447.65,-421.78 438.08,-408.94 432,-396 399.58,-326.99 394.75,-235.14 394.52,-190.16"/>
<polygon fill="black" stroke="black" points="398.02,-190.04 394.55,-180.03 391.02,-190.02 398.02,-190.04"/>
<g id="a_edge47&#45;headlabel"><a xlink:href="dir_000075_000090.html" target="_top" xlink:title="1">
<text text-anchor="middle" x="400.85" y="-191.14" font-family="Helvetica,sans-Serif" font-size="10.00">1</text>
</a>
</g>
</g>
<!-- dir_b7a0e33b407baa23d8a077e33033c988 -->
<g id="node14" class="node">
<title>dir_b7a0e33b407baa23d8a077e33033c988</title>
<g id="a_node14"><a xlink:href="dir_b7a0e33b407baa23d8a077e33033c988.html" target="_top" xlink:title="systems">
<polygon fill="white" stroke="red" points="688,-252 630,-252 630,-216 688,-216 688,-252"/>
<text text-anchor="middle" x="659" y="-231.5" font-family="Helvetica,sans-Serif" font-size="10.00">systems</text>
</a>
</g>
</g>
<!-- dir_fa973aef359a666fa59c209acc8a7d72&#45;&gt;dir_b7a0e33b407baa23d8a077e33033c988 -->
<g id="edge48" class="edge">
<title>dir_fa973aef359a666fa59c209acc8a7d72&#45;&gt;dir_b7a0e33b407baa23d8a077e33033c988</title>
<path fill="none" stroke="black" d="M486.99,-431.85C519.95,-394.13 598.86,-303.83 637.26,-259.88"/>
<polygon fill="black" stroke="black" points="640,-262.07 643.94,-252.23 634.73,-257.46 640,-262.07"/>
<g id="a_edge48&#45;headlabel"><a xlink:href="dir_000075_000081.html" target="_top" xlink:title="1">
<text text-anchor="middle" x="639.77" y="-264.14" font-family="Helvetica,sans-Serif" font-size="10.00">1</text>
</a>
</g>
</g>
<!-- dir_7c13d4ecf9df251d512b4733b7b28f01 -->
<g id="node6" class="node">
<title>dir_7c13d4ecf9df251d512b4733b7b28f01</title>
<g id="a_node6"><a xlink:href="dir_7c13d4ecf9df251d512b4733b7b28f01.html" target="_top" xlink:title="mass_damper_spring">
<polygon fill="white" stroke="black" points="406.5,-468 285.5,-468 285.5,-432 406.5,-432 406.5,-468"/>
<text text-anchor="middle" x="346" y="-447.5" font-family="Helvetica,sans-Serif" font-size="10.00">mass_damper_spring</text>
</a>
</g>
</g>
<!-- dir_7c13d4ecf9df251d512b4733b7b28f01&#45;&gt;dir_a36da230f0956f48b11c85f7d599788f -->
<g id="edge32" class="edge">
<title>dir_7c13d4ecf9df251d512b4733b7b28f01&#45;&gt;dir_a36da230f0956f48b11c85f7d599788f</title>
<path fill="none" stroke="black" d="M364.82,-431.87C392.46,-406.71 444.16,-359.65 475.59,-331.04"/>
<polygon fill="black" stroke="black" points="478.08,-333.51 483.12,-324.19 473.36,-328.33 478.08,-333.51"/>
<g id="a_edge32&#45;headlabel"><a xlink:href="dir_000076_000015.html" target="_top" xlink:title="2">
<text text-anchor="middle" x="477.33" y="-335.53" font-family="Helvetica,sans-Serif" font-size="10.00">2</text>
</a>
</g>
</g>
<!-- dir_0e1ecb96e57b1c1f48b2887ea5038a05 -->
<g id="node7" class="node">
<title>dir_0e1ecb96e57b1c1f48b2887ea5038a05</title>
<g id="a_node7"><a xlink:href="dir_0e1ecb96e57b1c1f48b2887ea5038a05.html" target="_top" xlink:title="pendulum">
<polygon fill="white" stroke="black" points="194.5,-468 129.5,-468 129.5,-432 194.5,-432 194.5,-468"/>
<text text-anchor="middle" x="162" y="-447.5" font-family="Helvetica,sans-Serif" font-size="10.00">pendulum</text>
</a>
</g>
</g>
<!-- dir_0e1ecb96e57b1c1f48b2887ea5038a05&#45;&gt;dir_a36da230f0956f48b11c85f7d599788f -->
<g id="edge8" class="edge">
<title>dir_0e1ecb96e57b1c1f48b2887ea5038a05&#45;&gt;dir_a36da230f0956f48b11c85f7d599788f</title>
<path fill="none" stroke="black" d="M182.42,-431.84C189.12,-426.51 196.72,-420.79 204,-416 247.53,-387.36 258.64,-379.41 307,-360 359.11,-339.08 422.29,-323.6 462.33,-314.94"/>
<polygon fill="black" stroke="black" points="463.18,-318.34 472.23,-312.83 461.72,-311.49 463.18,-318.34"/>
<g id="a_edge8&#45;headlabel"><a xlink:href="dir_000077_000015.html" target="_top" xlink:title="1">
<text text-anchor="middle" x="460.25" y="-319.36" font-family="Helvetica,sans-Serif" font-size="10.00">1</text>
</a>
</g>
</g>
<!-- dir_0e1ecb96e57b1c1f48b2887ea5038a05&#45;&gt;dir_d739e095b49d8b72164589d00310017d -->
<g id="edge9" class="edge">
<title>dir_0e1ecb96e57b1c1f48b2887ea5038a05&#45;&gt;dir_d739e095b49d8b72164589d00310017d</title>
<path fill="none" stroke="black" d="M140.22,-431.83C111.89,-407.39 66,-359.67 66,-307 66,-307 66,-307 66,-161 66,-84.73 325,-39.64 428.76,-24.63"/>
<polygon fill="black" stroke="black" points="429.47,-28.06 438.88,-23.19 428.49,-21.13 429.47,-28.06"/>
<g id="a_edge9&#45;headlabel"><a xlink:href="dir_000077_000053.html" target="_top" xlink:title="1">
<text text-anchor="middle" x="426.32" y="-28.88" font-family="Helvetica,sans-Serif" font-size="10.00">1</text>
</a>
</g>
</g>
<!-- dir_0e1ecb96e57b1c1f48b2887ea5038a05&#45;&gt;dir_3f9cb8dbb3b4911cb2ecb548acd672c3 -->
<g id="edge10" class="edge">
<title>dir_0e1ecb96e57b1c1f48b2887ea5038a05&#45;&gt;dir_3f9cb8dbb3b4911cb2ecb548acd672c3</title>
<path fill="none" stroke="black" d="M162.73,-431.85C165.9,-380.16 182.6,-224.47 270,-144 315.22,-102.36 389.26,-92.67 433.74,-90.84"/>
<polygon fill="black" stroke="black" points="433.95,-94.34 443.84,-90.55 433.74,-87.34 433.95,-94.34"/>
<g id="a_edge10&#45;headlabel"><a xlink:href="dir_000077_000095.html" target="_top" xlink:title="1">
<text text-anchor="middle" x="430.44" y="-94.78" font-family="Helvetica,sans-Serif" font-size="10.00">1</text>
</a>
</g>
</g>
<!-- dir_0e1ecb96e57b1c1f48b2887ea5038a05&#45;&gt;dir_656f7d340c0f5b4ecaf881820f2aea38 -->
<g id="edge11" class="edge">
<title>dir_0e1ecb96e57b1c1f48b2887ea5038a05&#45;&gt;dir_656f7d340c0f5b4ecaf881820f2aea38</title>
<path fill="none" stroke="black" d="M174.44,-431.86C203.12,-392.63 276.55,-293.73 344,-216 352.28,-206.45 361.79,-196.36 370.33,-187.58"/>
<polygon fill="black" stroke="black" points="373.03,-189.83 377.53,-180.24 368.03,-184.92 373.03,-189.83"/>
<g id="a_edge11&#45;headlabel"><a xlink:href="dir_000077_000090.html" target="_top" xlink:title="1">
<text text-anchor="middle" x="372.53" y="-191.88" font-family="Helvetica,sans-Serif" font-size="10.00">1</text>
</a>
</g>
</g>
<!-- dir_4d6afa0018d27b03aafc768625d5f8d5&#45;&gt;dir_fc0178d6978c9fa2cad6ef3e048a60a7 -->
<g id="edge1" class="edge">
<title>dir_4d6afa0018d27b03aafc768625d5f8d5&#45;&gt;dir_fc0178d6978c9fa2cad6ef3e048a60a7</title>
<path fill="none" stroke="black" d="M734.58,-431.88C720.59,-422.81 703.22,-411.55 688.11,-401.76"/>
<polygon fill="black" stroke="black" points="689.82,-398.69 679.52,-396.19 686.01,-404.57 689.82,-398.69"/>
<g id="a_edge1&#45;headlabel"><a xlink:href="dir_000093_000018.html" target="_top" xlink:title="5">
<text text-anchor="middle" x="694.38" y="-395.76" font-family="Helvetica,sans-Serif" font-size="10.00">5</text>
</a>
</g>
</g>
<!-- dir_4d6afa0018d27b03aafc768625d5f8d5&#45;&gt;dir_a36da230f0956f48b11c85f7d599788f -->
<g id="edge2" class="edge">
<title>dir_4d6afa0018d27b03aafc768625d5f8d5&#45;&gt;dir_a36da230f0956f48b11c85f7d599788f</title>
<path fill="none" stroke="black" d="M738.37,-431.84C729.85,-426.08 719.84,-420.08 710,-416 670.95,-399.81 655.34,-413.83 617,-396 582.34,-379.88 548.45,-351.7 526.55,-331.36"/>
<polygon fill="black" stroke="black" points="528.71,-328.59 519.04,-324.26 523.9,-333.67 528.71,-328.59"/>
<g id="a_edge2&#45;headlabel"><a xlink:href="dir_000093_000015.html" target="_top" xlink:title="3">
<text text-anchor="middle" x="533.27" y="-326.49" font-family="Helvetica,sans-Serif" font-size="10.00">3</text>
</a>
</g>
</g>
<!-- dir_4d6afa0018d27b03aafc768625d5f8d5&#45;&gt;dir_d739e095b49d8b72164589d00310017d -->
<g id="edge3" class="edge">
<title>dir_4d6afa0018d27b03aafc768625d5f8d5&#45;&gt;dir_d739e095b49d8b72164589d00310017d</title>
<path fill="none" stroke="black" d="M784.63,-431.97C815.04,-407.89 864,-360.75 864,-307 864,-307 864,-307 864,-161 864,-103.47 821.38,-97.89 770,-72 686.06,-29.7 574.01,-20.61 513.72,-18.99"/>
<polygon fill="black" stroke="black" points="513.51,-15.49 503.44,-18.78 513.36,-22.49 513.51,-15.49"/>
<g id="a_edge3&#45;headlabel"><a xlink:href="dir_000093_000053.html" target="_top" xlink:title="1">
<text text-anchor="middle" x="517.16" y="-10.23" font-family="Helvetica,sans-Serif" font-size="10.00">1</text>
</a>
</g>
</g>
<!-- dir_4d6afa0018d27b03aafc768625d5f8d5&#45;&gt;dir_3f9cb8dbb3b4911cb2ecb548acd672c3 -->
<g id="edge4" class="edge">
<title>dir_4d6afa0018d27b03aafc768625d5f8d5&#45;&gt;dir_3f9cb8dbb3b4911cb2ecb548acd672c3</title>
<path fill="none" stroke="black" d="M774.78,-431.79C793.86,-406.18 826,-355.8 826,-307 826,-307 826,-307 826,-233 826,-165.09 599.21,-115.02 508.17,-97.66"/>
<polygon fill="black" stroke="black" points="508.74,-94.21 498.27,-95.8 507.45,-101.08 508.74,-94.21"/>
<g id="a_edge4&#45;headlabel"><a xlink:href="dir_000093_000095.html" target="_top" xlink:title="2">
<text text-anchor="middle" x="512.8" y="-89.58" font-family="Helvetica,sans-Serif" font-size="10.00">2</text>
</a>
</g>
</g>
<!-- dir_4d6afa0018d27b03aafc768625d5f8d5&#45;&gt;dir_656f7d340c0f5b4ecaf881820f2aea38 -->
<g id="edge5" class="edge">
<title>dir_4d6afa0018d27b03aafc768625d5f8d5&#45;&gt;dir_656f7d340c0f5b4ecaf881820f2aea38</title>
<path fill="none" stroke="black" d="M749.14,-431.87C735.72,-413.13 712.64,-382.73 689,-360 611.86,-285.82 586.55,-273.04 496,-216 475.27,-202.94 450.98,-190.12 431.41,-180.36"/>
<polygon fill="black" stroke="black" points="432.74,-177.12 422.23,-175.83 429.65,-183.39 432.74,-177.12"/>
<g id="a_edge5&#45;headlabel"><a xlink:href="dir_000093_000090.html" target="_top" xlink:title="5">
<text text-anchor="middle" x="437.22" y="-173.66" font-family="Helvetica,sans-Serif" font-size="10.00">5</text>
</a>
</g>
</g>
<!-- dir_4d6afa0018d27b03aafc768625d5f8d5&#45;&gt;dir_b7a0e33b407baa23d8a077e33033c988 -->
<g id="edge6" class="edge">
<title>dir_4d6afa0018d27b03aafc768625d5f8d5&#45;&gt;dir_b7a0e33b407baa23d8a077e33033c988</title>
<path fill="none" stroke="black" d="M753.79,-431.82C746.16,-413.8 733.64,-384.73 722,-360 705.76,-325.49 685.75,-286.31 672.7,-261.16"/>
<polygon fill="black" stroke="black" points="675.78,-259.5 668.06,-252.25 669.57,-262.73 675.78,-259.5"/>
<g id="a_edge6&#45;headlabel"><a xlink:href="dir_000093_000081.html" target="_top" xlink:title="2">
<text text-anchor="middle" x="679.96" y="-258.88" font-family="Helvetica,sans-Serif" font-size="10.00">2</text>
</a>
</g>
</g>
<!-- dir_fc0178d6978c9fa2cad6ef3e048a60a7&#45;&gt;dir_a36da230f0956f48b11c85f7d599788f -->
<g id="edge12" class="edge">
<title>dir_fc0178d6978c9fa2cad6ef3e048a60a7&#45;&gt;dir_a36da230f0956f48b11c85f7d599788f</title>
<path fill="none" stroke="black" d="M625.76,-366.67C601.98,-356.5 567.41,-340.67 540.79,-327.87"/>
<polygon fill="black" stroke="black" points="542.26,-324.69 531.73,-323.49 539.21,-330.99 542.26,-324.69"/>
<g id="a_edge12&#45;headlabel"><a xlink:href="dir_000018_000015.html" target="_top" xlink:title="65">
<text text-anchor="middle" x="546.73" y="-321.21" font-family="Helvetica,sans-Serif" font-size="10.00">65</text>
</a>
</g>
</g>
<!-- dir_a36da230f0956f48b11c85f7d599788f&#45;&gt;dir_fc0178d6978c9fa2cad6ef3e048a60a7 -->
<g id="edge13" class="edge">
<title>dir_a36da230f0956f48b11c85f7d599788f&#45;&gt;dir_fc0178d6978c9fa2cad6ef3e048a60a7</title>
<path fill="none" stroke="black" d="M531.65,-318.36C556.09,-328.89 590.67,-344.76 616.73,-357.34"/>
<polygon fill="black" stroke="black" points="615.39,-360.58 625.91,-361.81 618.45,-354.29 615.39,-360.58"/>
<g id="a_edge13&#45;headlabel"><a xlink:href="dir_000015_000018.html" target="_top" xlink:title="8">
<text text-anchor="middle" x="610.92" y="-359.06" font-family="Helvetica,sans-Serif" font-size="10.00">8</text>
</a>
</g>
</g>
<!-- dir_a36da230f0956f48b11c85f7d599788f&#45;&gt;dir_b7a0e33b407baa23d8a077e33033c988 -->
<g id="edge14" class="edge">
<title>dir_a36da230f0956f48b11c85f7d599788f&#45;&gt;dir_b7a0e33b407baa23d8a077e33033c988</title>
<path fill="none" stroke="black" d="M531.86,-289.12C557.12,-277.24 593.29,-261.14 620.67,-249.59"/>
<polygon fill="black" stroke="black" points="622.07,-252.8 629.95,-245.71 619.38,-246.34 622.07,-252.8"/>
<g id="a_edge14&#45;headlabel"><a xlink:href="dir_000015_000081.html" target="_top" xlink:title="1">
<text text-anchor="middle" x="619.85" y="-254.3" font-family="Helvetica,sans-Serif" font-size="10.00">1</text>
</a>
</g>
</g>
<!-- dir_d739e095b49d8b72164589d00310017d&#45;&gt;dir_fc0178d6978c9fa2cad6ef3e048a60a7 -->
<g id="edge17" class="edge">
<title>dir_d739e095b49d8b72164589d00310017d&#45;&gt;dir_fc0178d6978c9fa2cad6ef3e048a60a7</title>
<path fill="none" stroke="black" d="M503.14,-18.93C583.73,-20.61 788,-37.08 788,-161 788,-235 788,-235 788,-235 788,-292.43 729.27,-335.88 689.29,-358.8"/>
<polygon fill="black" stroke="black" points="687.36,-355.87 680.32,-363.78 690.76,-361.99 687.36,-355.87"/>
<g id="a_edge17&#45;headlabel"><a xlink:href="dir_000053_000018.html" target="_top" xlink:title="42">
<text text-anchor="middle" x="689.13" y="-349.14" font-family="Helvetica,sans-Serif" font-size="10.00">42</text>
</a>
</g>
</g>
<!-- dir_d739e095b49d8b72164589d00310017d&#45;&gt;dir_a36da230f0956f48b11c85f7d599788f -->
<g id="edge18" class="edge">
<title>dir_d739e095b49d8b72164589d00310017d&#45;&gt;dir_a36da230f0956f48b11c85f7d599788f</title>
<path fill="none" stroke="black" d="M486.61,-36.23C494.37,-45.97 502.95,-58.82 507,-72 529.03,-143.63 516.56,-233.59 507.99,-277.85"/>
<polygon fill="black" stroke="black" points="504.52,-277.33 505.97,-287.83 511.38,-278.72 504.52,-277.33"/>
<g id="a_edge18&#45;headlabel"><a xlink:href="dir_000053_000015.html" target="_top" xlink:title="216">
<text text-anchor="middle" x="502.45" y="-270.75" font-family="Helvetica,sans-Serif" font-size="10.00">216</text>
</a>
</g>
</g>
<!-- dir_d739e095b49d8b72164589d00310017d&#45;&gt;dir_3f9cb8dbb3b4911cb2ecb548acd672c3 -->
<g id="edge19" class="edge">
<title>dir_d739e095b49d8b72164589d00310017d&#45;&gt;dir_3f9cb8dbb3b4911cb2ecb548acd672c3</title>
<path fill="none" stroke="black" d="M476.9,-36.1C477.7,-43.79 477.94,-53.05 477.6,-61.67"/>
<polygon fill="black" stroke="black" points="474.11,-61.48 476.92,-71.7 481.09,-61.96 474.11,-61.48"/>
<g id="a_edge19&#45;headlabel"><a xlink:href="dir_000053_000095.html" target="_top" xlink:title="1">
<text text-anchor="middle" x="471.52" y="-55.2" font-family="Helvetica,sans-Serif" font-size="10.00">1</text>
</a>
</g>
</g>
<!-- dir_d739e095b49d8b72164589d00310017d&#45;&gt;dir_656f7d340c0f5b4ecaf881820f2aea38 -->
<g id="edge20" class="edge">
<title>dir_d739e095b49d8b72164589d00310017d&#45;&gt;dir_656f7d340c0f5b4ecaf881820f2aea38</title>
<path fill="none" stroke="black" d="M466.08,-36.18C459.94,-46.32 450.94,-59.57 444,-72 432.64,-92.34 421.94,-116.51 413.07,-134.53"/>
<polygon fill="black" stroke="black" points="409.75,-133.34 408.35,-143.84 415.99,-136.51 409.75,-133.34"/>
<g id="a_edge20&#45;headlabel"><a xlink:href="dir_000053_000090.html" target="_top" xlink:title="3">
<text text-anchor="middle" x="408.85" y="-126.35" font-family="Helvetica,sans-Serif" font-size="10.00">3</text>
</a>
</g>
</g>
<!-- dir_d739e095b49d8b72164589d00310017d&#45;&gt;dir_b7a0e33b407baa23d8a077e33033c988 -->
<g id="edge21" class="edge">
<title>dir_d739e095b49d8b72164589d00310017d&#45;&gt;dir_b7a0e33b407baa23d8a077e33033c988</title>
<path fill="none" stroke="black" d="M503.22,-35.15C518.21,-44.95 535.46,-58.2 549,-72 591.11,-114.89 630.63,-173.3 649.07,-206.69"/>
<polygon fill="black" stroke="black" points="646.12,-208.61 653.9,-215.81 652.31,-205.34 646.12,-208.61"/>
<g id="a_edge21&#45;headlabel"><a xlink:href="dir_000053_000081.html" target="_top" xlink:title="20">
<text text-anchor="middle" x="641.93" y="-204.26" font-family="Helvetica,sans-Serif" font-size="10.00">20</text>
</a>
</g>
</g>
<!-- dir_3f9cb8dbb3b4911cb2ecb548acd672c3&#45;&gt;dir_fc0178d6978c9fa2cad6ef3e048a60a7 -->
<g id="edge22" class="edge">
<title>dir_3f9cb8dbb3b4911cb2ecb548acd672c3&#45;&gt;dir_fc0178d6978c9fa2cad6ef3e048a60a7</title>
<path fill="none" stroke="black" d="M498.27,-96.23C548.93,-107.61 656.11,-139.99 697,-216 720.71,-260.09 692.38,-317.99 671.45,-350.99"/>
<polygon fill="black" stroke="black" points="668.36,-349.32 665.8,-359.6 674.21,-353.16 668.36,-349.32"/>
<g id="a_edge22&#45;headlabel"><a xlink:href="dir_000095_000018.html" target="_top" xlink:title="19">
<text text-anchor="middle" x="667.96" y="-342.26" font-family="Helvetica,sans-Serif" font-size="10.00">19</text>
</a>
</g>
</g>
<!-- dir_3f9cb8dbb3b4911cb2ecb548acd672c3&#45;&gt;dir_a36da230f0956f48b11c85f7d599788f -->
<g id="edge23" class="edge">
<title>dir_3f9cb8dbb3b4911cb2ecb548acd672c3&#45;&gt;dir_a36da230f0956f48b11c85f7d599788f</title>
<path fill="none" stroke="black" d="M473.5,-108.23C478.87,-145.32 491.57,-232.98 498.05,-277.71"/>
<polygon fill="black" stroke="black" points="494.62,-278.45 499.52,-287.85 501.55,-277.45 494.62,-278.45"/>
<g id="a_edge23&#45;headlabel"><a xlink:href="dir_000095_000015.html" target="_top" xlink:title="187">
<text text-anchor="middle" x="491.29" y="-272.8" font-family="Helvetica,sans-Serif" font-size="10.00">187</text>
</a>
</g>
</g>
<!-- dir_3f9cb8dbb3b4911cb2ecb548acd672c3&#45;&gt;dir_d739e095b49d8b72164589d00310017d -->
<g id="edge24" class="edge">
<title>dir_3f9cb8dbb3b4911cb2ecb548acd672c3&#45;&gt;dir_d739e095b49d8b72164589d00310017d</title>
<path fill="none" stroke="black" d="M465.08,-71.7C464.29,-63.98 464.06,-54.71 464.4,-46.11"/>
<polygon fill="black" stroke="black" points="467.9,-46.32 465.1,-36.1 460.92,-45.84 467.9,-46.32"/>
<g id="a_edge24&#45;headlabel"><a xlink:href="dir_000095_000053.html" target="_top" xlink:title="5">
<text text-anchor="middle" x="470.48" y="-47.61" font-family="Helvetica,sans-Serif" font-size="10.00">5</text>
</a>
</g>
</g>
<!-- dir_3f9cb8dbb3b4911cb2ecb548acd672c3&#45;&gt;dir_656f7d340c0f5b4ecaf881820f2aea38 -->
<g id="edge25" class="edge">
<title>dir_3f9cb8dbb3b4911cb2ecb548acd672c3&#45;&gt;dir_656f7d340c0f5b4ecaf881820f2aea38</title>
<path fill="none" stroke="black" d="M458.32,-108.1C449.79,-116.8 438.33,-127.52 427.46,-137.03"/>
<polygon fill="black" stroke="black" points="425.01,-134.53 419.7,-143.7 429.57,-139.84 425.01,-134.53"/>
<g id="a_edge25&#45;headlabel"><a xlink:href="dir_000095_000090.html" target="_top" xlink:title="1">
<text text-anchor="middle" x="425.89" y="-127.53" font-family="Helvetica,sans-Serif" font-size="10.00">1</text>
</a>
</g>
</g>
<!-- dir_3f9cb8dbb3b4911cb2ecb548acd672c3&#45;&gt;dir_b7a0e33b407baa23d8a077e33033c988 -->
<g id="edge26" class="edge">
<title>dir_3f9cb8dbb3b4911cb2ecb548acd672c3&#45;&gt;dir_b7a0e33b407baa23d8a077e33033c988</title>
<path fill="none" stroke="black" d="M498.03,-107.97C534.14,-133.21 597.27,-180.74 632.9,-209.37"/>
<polygon fill="black" stroke="black" points="630.94,-212.29 640.91,-215.87 635.35,-206.85 630.94,-212.29"/>
<g id="a_edge26&#45;headlabel"><a xlink:href="dir_000095_000081.html" target="_top" xlink:title="20">
<text text-anchor="middle" x="626.36" y="-209.73" font-family="Helvetica,sans-Serif" font-size="10.00">20</text>
</a>
</g>
</g>
<!-- dir_656f7d340c0f5b4ecaf881820f2aea38&#45;&gt;dir_fc0178d6978c9fa2cad6ef3e048a60a7 -->
<g id="edge27" class="edge">
<title>dir_656f7d340c0f5b4ecaf881820f2aea38&#45;&gt;dir_fc0178d6978c9fa2cad6ef3e048a60a7</title>
<path fill="none" stroke="black" d="M416.86,-180.02C430.02,-190.33 447.07,-203.8 462,-216 520.71,-263.95 588.28,-321.47 625.25,-353.14"/>
<polygon fill="black" stroke="black" points="623.23,-356.02 633.1,-359.87 627.78,-350.71 623.23,-356.02"/>
<g id="a_edge27&#45;headlabel"><a xlink:href="dir_000090_000018.html" target="_top" xlink:title="7">
<text text-anchor="middle" x="618.65" y="-353.33" font-family="Helvetica,sans-Serif" font-size="10.00">7</text>
</a>
</g>
</g>
<!-- dir_656f7d340c0f5b4ecaf881820f2aea38&#45;&gt;dir_a36da230f0956f48b11c85f7d599788f -->
<g id="edge28" class="edge">
<title>dir_656f7d340c0f5b4ecaf881820f2aea38&#45;&gt;dir_a36da230f0956f48b11c85f7d599788f</title>
<path fill="none" stroke="black" d="M407.95,-180.19C426.62,-204.96 461.2,-250.86 482.83,-279.56"/>
<polygon fill="black" stroke="black" points="480.28,-281.99 489.09,-287.87 485.87,-277.78 480.28,-281.99"/>
<g id="a_edge28&#45;headlabel"><a xlink:href="dir_000090_000015.html" target="_top" xlink:title="75">
<text text-anchor="middle" x="475.85" y="-278.33" font-family="Helvetica,sans-Serif" font-size="10.00">75</text>
</a>
</g>
</g>
<!-- dir_656f7d340c0f5b4ecaf881820f2aea38&#45;&gt;dir_d739e095b49d8b72164589d00310017d -->
<g id="edge29" class="edge">
<title>dir_656f7d340c0f5b4ecaf881820f2aea38&#45;&gt;dir_d739e095b49d8b72164589d00310017d</title>
<path fill="none" stroke="black" d="M394.99,-143.84C400,-125.6 412.53,-96.11 426,-72 431.21,-62.68 437.57,-52.89 443.97,-44.31"/>
<polygon fill="black" stroke="black" points="446.92,-46.21 450.33,-36.18 441.41,-41.89 446.92,-46.21"/>
<g id="a_edge29&#45;headlabel"><a xlink:href="dir_000090_000053.html" target="_top" xlink:title="24">
<text text-anchor="middle" x="446.94" y="-48.29" font-family="Helvetica,sans-Serif" font-size="10.00">24</text>
</a>
</g>
</g>
<!-- dir_656f7d340c0f5b4ecaf881820f2aea38&#45;&gt;dir_3f9cb8dbb3b4911cb2ecb548acd672c3 -->
<g id="edge30" class="edge">
<title>dir_656f7d340c0f5b4ecaf881820f2aea38&#45;&gt;dir_3f9cb8dbb3b4911cb2ecb548acd672c3</title>
<path fill="none" stroke="black" d="M407.87,-143.7C416.45,-134.97 427.92,-124.24 438.78,-114.75"/>
<polygon fill="black" stroke="black" points="441.22,-117.27 446.53,-108.1 436.66,-111.96 441.22,-117.27"/>
<g id="a_edge30&#45;headlabel"><a xlink:href="dir_000090_000095.html" target="_top" xlink:title="32">
<text text-anchor="middle" x="440.34" y="-119.27" font-family="Helvetica,sans-Serif" font-size="10.00">32</text>
</a>
</g>
</g>
<!-- dir_656f7d340c0f5b4ecaf881820f2aea38&#45;&gt;dir_b7a0e33b407baa23d8a077e33033c988 -->
<g id="edge31" class="edge">
<title>dir_656f7d340c0f5b4ecaf881820f2aea38&#45;&gt;dir_b7a0e33b407baa23d8a077e33033c988</title>
<path fill="none" stroke="black" d="M422.21,-167.19C464.07,-174.73 545.9,-191.81 619.75,-214.45"/>
<polygon fill="black" stroke="black" points="619.06,-217.9 629.65,-217.53 621.14,-211.21 619.06,-217.9"/>
<g id="a_edge31&#45;headlabel"><a xlink:href="dir_000090_000081.html" target="_top" xlink:title="24">
<text text-anchor="middle" x="614.78" y="-217.04" font-family="Helvetica,sans-Serif" font-size="10.00">24</text>
</a>
</g>
</g>
<!-- dir_b7a0e33b407baa23d8a077e33033c988&#45;&gt;dir_fc0178d6978c9fa2cad6ef3e048a60a7 -->
<g id="edge38" class="edge">
<title>dir_b7a0e33b407baa23d8a077e33033c988&#45;&gt;dir_fc0178d6978c9fa2cad6ef3e048a60a7</title>
<path fill="none" stroke="black" d="M658.27,-252.19C657.25,-276.42 655.37,-320.89 654.15,-349.68"/>
<polygon fill="black" stroke="black" points="650.65,-349.73 653.72,-359.87 657.64,-350.03 650.65,-349.73"/>
<g id="a_edge38&#45;headlabel"><a xlink:href="dir_000081_000018.html" target="_top" xlink:title="7">
<text text-anchor="middle" x="647.96" y="-343.52" font-family="Helvetica,sans-Serif" font-size="10.00">7</text>
</a>
</g>
</g>
<!-- dir_b7a0e33b407baa23d8a077e33033c988&#45;&gt;dir_a36da230f0956f48b11c85f7d599788f -->
<g id="edge39" class="edge">
<title>dir_b7a0e33b407baa23d8a077e33033c988&#45;&gt;dir_a36da230f0956f48b11c85f7d599788f</title>
<path fill="none" stroke="black" d="M629.88,-250.54C604.78,-262.35 568.52,-278.5 540.95,-290.15"/>
<polygon fill="black" stroke="black" points="539.47,-286.97 531.59,-294.06 542.17,-293.43 539.47,-286.97"/>
<g id="a_edge39&#45;headlabel"><a xlink:href="dir_000081_000015.html" target="_top" xlink:title="391">
<text text-anchor="middle" x="541.69" y="-280.47" font-family="Helvetica,sans-Serif" font-size="10.00">391</text>
</a>
</g>
</g>
<!-- dir_b7a0e33b407baa23d8a077e33033c988&#45;&gt;dir_d739e095b49d8b72164589d00310017d -->
<g id="edge40" class="edge">
<title>dir_b7a0e33b407baa23d8a077e33033c988&#45;&gt;dir_d739e095b49d8b72164589d00310017d</title>
<path fill="none" stroke="black" d="M643.25,-215.81C620.4,-184.99 577.26,-119.13 531,-72 520.54,-61.35 507.88,-51.02 496.79,-42.36"/>
<polygon fill="black" stroke="black" points="498.72,-39.43 488.67,-36.08 494.44,-44.97 498.72,-39.43"/>
<g id="a_edge40&#45;headlabel"><a xlink:href="dir_000081_000053.html" target="_top" xlink:title="14">
<text text-anchor="middle" x="503.3" y="-36.89" font-family="Helvetica,sans-Serif" font-size="10.00">14</text>
</a>
</g>
</g>
<!-- dir_b7a0e33b407baa23d8a077e33033c988&#45;&gt;dir_3f9cb8dbb3b4911cb2ecb548acd672c3 -->
<g id="edge41" class="edge">
<title>dir_b7a0e33b407baa23d8a077e33033c988&#45;&gt;dir_3f9cb8dbb3b4911cb2ecb548acd672c3</title>
<path fill="none" stroke="black" d="M631.74,-215.87C595.61,-190.6 532.73,-143.25 497.16,-114.68"/>
<polygon fill="black" stroke="black" points="499.14,-111.77 489.17,-108.19 494.73,-117.21 499.14,-111.77"/>
<g id="a_edge41&#45;headlabel"><a xlink:href="dir_000081_000095.html" target="_top" xlink:title="2">
<text text-anchor="middle" x="503.72" y="-109.33" font-family="Helvetica,sans-Serif" font-size="10.00">2</text>
</a>
</g>
</g>
<!-- dir_b7a0e33b407baa23d8a077e33033c988&#45;&gt;dir_656f7d340c0f5b4ecaf881820f2aea38 -->
<g id="edge42" class="edge">
<title>dir_b7a0e33b407baa23d8a077e33033c988&#45;&gt;dir_656f7d340c0f5b4ecaf881820f2aea38</title>
<path fill="none" stroke="black" d="M629.69,-224.1C622.23,-221.29 614.35,-218.32 607,-216 546.52,-196.9 474.86,-180.89 432.13,-171.62"/>
<polygon fill="black" stroke="black" points="432.69,-168.16 422.17,-169.47 431.21,-175 432.69,-168.16"/>
<g id="a_edge42&#45;headlabel"><a xlink:href="dir_000081_000090.html" target="_top" xlink:title="10">
<text text-anchor="middle" x="436.8" y="-163.64" font-family="Helvetica,sans-Serif" font-size="10.00">10</text>
</a>
</g>
</g>
</g>
</svg>
        <g id="navigator" transform="translate(0 0)" fill="#404254">
                <rect fill="#f2f5e9" fill-opacity="0.5" stroke="#606060" stroke-width=".5" x="0" y="0" width="60" height="60"/>
                <use id="zoomplus" xlink:href="#zoomPlus" x="17" y="9" onmousedown="handleZoom(evt,'in')"/>
                <use id="zoomminus" xlink:href="#zoomMin" x="42" y="9" onmousedown="handleZoom(evt,'out')"/>
                <use id="reset" xlink:href="#resetDef" x="30" y="36" onmousedown="handleReset()"/>
                <g id="arrowUp" xlink:href="#dirArrow" transform="translate(30 24)" onmousedown="handlePan(0,-1)">
                  <use xlink:href="#rim" fill="#404040">
                        <set attributeName="fill" to="#808080" begin="arrowUp.mouseover" end="arrowUp.mouseout"/>
                  </use>
                  <path fill="none" stroke="white" stroke-width="1.5" d="M0,-3.0v7 M-2.5,-0.5L0,-3.0L2.5,-0.5"/>
                </g>
                <g id="arrowRight" xlink:href="#dirArrow" transform="rotate(90) translate(36 -43)" onmousedown="handlePan(1,0)">
                  <use xlink:href="#rim" fill="#404040">
                        <set attributeName="fill" to="#808080" begin="arrowRight.mouseover" end="arrowRight.mouseout"/>
                  </use>
                  <path fill="none" stroke="white" stroke-width="1.5" d="M0,-3.0v7 M-2.5,-0.5L0,-3.0L2.5,-0.5"/>
                </g>
                <g id="arrowDown" xlink:href="#dirArrow" transform="rotate(180) translate(-30 -48)" onmousedown="handlePan(0,1)">
                  <use xlink:href="#rim" fill="#404040">
                        <set attributeName="fill" to="#808080" begin="arrowDown.mouseover" end="arrowDown.mouseout"/>
                  </use>
                  <path fill="none" stroke="white" stroke-width="1.5" d="M0,-3.0v7 M-2.5,-0.5L0,-3.0L2.5,-0.5"/>
                </g>
                <g id="arrowLeft" xlink:href="#dirArrow" transform="rotate(270) translate(-36 17)" onmousedown="handlePan(-1,0)">
                  <use xlink:href="#rim" fill="#404040">
                        <set attributeName="fill" to="#808080" begin="arrowLeft.mouseover" end="arrowLeft.mouseout"/>
                  </use>
                  <path fill="none" stroke="white" stroke-width="1.5" d="M0,-3.0v7 M-2.5,-0.5L0,-3.0L2.5,-0.5"/>
                </g>
        </g>
        <svg viewBox="0 0 15 15" width="100%" height="30px" preserveAspectRatio="xMaxYMin meet">
         <g id="arrow_out" transform="scale(0.3 0.3)">
          <a xlink:href="dir_5d8dbe7a82c2c188fa06f6391bb290bd_dep_org.svg" target="_base">
           <rect id="button" ry="5" rx="5" y="6" x="6" height="38" width="38"
                fill="#f2f5e9" fill-opacity="0.5" stroke="#606060" stroke-width="1.0"/>
           <path id="arrow"
             d="M 11.500037,31.436501 C 11.940474,20.09759 22.043105,11.32322 32.158766,21.979434 L 37.068811,17.246167 C 37.068811,17.246167 37.088388,32 37.088388,32 L 22.160133,31.978069 C 22.160133,31.978069 26.997745,27.140456 26.997745,27.140456 C 18.528582,18.264221 13.291696,25.230495 11.500037,31.436501 z"
             style="fill:#404040;"/>
          </a>
         </g>
        </svg>
</svg>
