<?xml version="1.0" encoding="UTF-8" standalone="no"?>
<!DOCTYPE svg PUBLIC "-//W3C//DTD SVG 1.1//EN"
 "http://www.w3.org/Graphics/SVG/1.1/DTD/svg11.dtd">
<!-- Generated by graphviz version 2.43.0 (0)
 -->
<!-- Title: drake/planning Pages: 1 -->
<svg width="516pt" height="447pt"
 viewBox="0.00 0.00 516.50 447.00" xmlns="http://www.w3.org/2000/svg" xmlns:xlink="http://www.w3.org/1999/xlink">
<g id="graph0" class="graph" transform="scale(1 1) rotate(0) translate(4 443)">
<title>drake/planning</title>
<polygon fill="white" stroke="transparent" points="-4,4 -4,-443 512.5,-443 512.5,4 -4,4"/>
<g id="clust1" class="cluster">
<title>clusterdir_f1666844dc41ec91c14125b680b7be1b</title>
<g id="a_clust1"><a xlink:href="dir_f1666844dc41ec91c14125b680b7be1b.html" target="_top" xlink:title="drake">
<polygon fill="#ddddee" stroke="black" points="8,-272 8,-431 416,-431 416,-272 8,-272"/>
<text text-anchor="middle" x="212" y="-419" font-family="Helvetica,sans-Serif" font-size="10.00">drake</text>
</a>
</g>
</g>
<g id="clust2" class="cluster">
<title>clusterdir_c1924aea86cc02fece93f366eec781e1</title>
<g id="a_clust2"><a xlink:href="dir_c1924aea86cc02fece93f366eec781e1.html" target="_top">
<polygon fill="#eeeeff" stroke="black" points="16,-280 16,-404 408,-404 408,-280 16,-280"/>
</a>
</g>
</g>
<!-- dir_c1924aea86cc02fece93f366eec781e1 -->
<g id="node1" class="node">
<title>dir_c1924aea86cc02fece93f366eec781e1</title>
<text text-anchor="middle" x="370" y="-375.5" font-family="Helvetica,sans-Serif" font-size="10.00">planning</text>
</g>
<!-- dir_39b8b3c6654246a9c12332c930bc7d3f -->
<g id="node6" class="node">
<title>dir_39b8b3c6654246a9c12332c930bc7d3f</title>
<g id="a_node6"><a xlink:href="dir_39b8b3c6654246a9c12332c930bc7d3f.html" target="_top" xlink:title="multibody">
<polygon fill="white" stroke="red" points="490,-324 424,-324 424,-288 490,-288 490,-324"/>
<text text-anchor="middle" x="457" y="-303.5" font-family="Helvetica,sans-Serif" font-size="10.00">multibody</text>
</a>
</g>
</g>
<!-- dir_c1924aea86cc02fece93f366eec781e1&#45;&gt;dir_39b8b3c6654246a9c12332c930bc7d3f -->
<g id="edge25" class="edge">
<title>dir_c1924aea86cc02fece93f366eec781e1&#45;&gt;dir_39b8b3c6654246a9c12332c930bc7d3f</title>
<path fill="none" stroke="black" d="M391.51,-359.7C402.46,-350.88 415.95,-340.03 427.82,-330.47"/>
<polygon fill="black" stroke="black" points="430.14,-333.1 435.74,-324.1 425.76,-327.65 430.14,-333.1"/>
<g id="a_edge25&#45;headlabel"><a xlink:href="dir_000097_000069.html" target="_top" xlink:title="10">
<text text-anchor="middle" x="429.12" y="-335.07" font-family="Helvetica,sans-Serif" font-size="10.00">10</text>
</a>
</g>
</g>
<!-- dir_b7a0e33b407baa23d8a077e33033c988 -->
<g id="node10" class="node">
<title>dir_b7a0e33b407baa23d8a077e33033c988</title>
<g id="a_node10"><a xlink:href="dir_b7a0e33b407baa23d8a077e33033c988.html" target="_top" xlink:title="systems">
<polygon fill="white" stroke="red" points="422,-180 364,-180 364,-144 422,-144 422,-180"/>
<text text-anchor="middle" x="393" y="-159.5" font-family="Helvetica,sans-Serif" font-size="10.00">systems</text>
</a>
</g>
</g>
<!-- dir_c1924aea86cc02fece93f366eec781e1&#45;&gt;dir_b7a0e33b407baa23d8a077e33033c988 -->
<g id="edge26" class="edge">
<title>dir_c1924aea86cc02fece93f366eec781e1&#45;&gt;dir_b7a0e33b407baa23d8a077e33033c988</title>
<path fill="none" stroke="black" d="M399.72,-374.12C430.45,-369.38 476.96,-356.88 499,-324 531.75,-275.13 469.55,-217.47 427.35,-186.12"/>
<polygon fill="black" stroke="black" points="429.36,-183.26 419.21,-180.22 425.25,-188.92 429.36,-183.26"/>
<g id="a_edge26&#45;headlabel"><a xlink:href="dir_000097_000081.html" target="_top" xlink:title="9">
<text text-anchor="middle" x="433.94" y="-180.57" font-family="Helvetica,sans-Serif" font-size="10.00">9</text>
</a>
</g>
</g>
<!-- dir_ec4ca5ddfa488e52be8d9e11dbbf950b -->
<g id="node2" class="node">
<title>dir_ec4ca5ddfa488e52be8d9e11dbbf950b</title>
<g id="a_node2"><a xlink:href="dir_ec4ca5ddfa488e52be8d9e11dbbf950b.html" target="_top" xlink:title="graph_algorithms">
<polygon fill="white" stroke="black" points="215,-324 113,-324 113,-288 215,-288 215,-324"/>
<text text-anchor="middle" x="164" y="-303.5" font-family="Helvetica,sans-Serif" font-size="10.00">graph_algorithms</text>
</a>
</g>
</g>
<!-- dir_c86b501450b8b8b59405c286cb030cc3 -->
<g id="node7" class="node">
<title>dir_c86b501450b8b8b59405c286cb030cc3</title>
<g id="a_node7"><a xlink:href="dir_c86b501450b8b8b59405c286cb030cc3.html" target="_top" xlink:title="solvers">
<polygon fill="white" stroke="red" points="320,-108 266,-108 266,-72 320,-72 320,-108"/>
<text text-anchor="middle" x="293" y="-87.5" font-family="Helvetica,sans-Serif" font-size="10.00">solvers</text>
</a>
</g>
</g>
<!-- dir_ec4ca5ddfa488e52be8d9e11dbbf950b&#45;&gt;dir_c86b501450b8b8b59405c286cb030cc3 -->
<g id="edge10" class="edge">
<title>dir_ec4ca5ddfa488e52be8d9e11dbbf950b&#45;&gt;dir_c86b501450b8b8b59405c286cb030cc3</title>
<path fill="none" stroke="black" d="M174.34,-287.85C196.89,-250.44 250.61,-161.32 277.34,-116.98"/>
<polygon fill="black" stroke="black" points="280.45,-118.6 282.61,-108.23 274.45,-114.99 280.45,-118.6"/>
<g id="a_edge10&#45;headlabel"><a xlink:href="dir_000098_000102.html" target="_top" xlink:title="1">
<text text-anchor="middle" x="281.02" y="-120.65" font-family="Helvetica,sans-Serif" font-size="10.00">1</text>
</a>
</g>
</g>
<!-- dir_a36da230f0956f48b11c85f7d599788f -->
<g id="node8" class="node">
<title>dir_a36da230f0956f48b11c85f7d599788f</title>
<g id="a_node8"><a xlink:href="dir_a36da230f0956f48b11c85f7d599788f.html" target="_top" xlink:title="common">
<polygon fill="white" stroke="red" points="233.5,-36 174.5,-36 174.5,0 233.5,0 233.5,-36"/>
<text text-anchor="middle" x="204" y="-15.5" font-family="Helvetica,sans-Serif" font-size="10.00">common</text>
</a>
</g>
</g>
<!-- dir_ec4ca5ddfa488e52be8d9e11dbbf950b&#45;&gt;dir_a36da230f0956f48b11c85f7d599788f -->
<g id="edge11" class="edge">
<title>dir_ec4ca5ddfa488e52be8d9e11dbbf950b&#45;&gt;dir_a36da230f0956f48b11c85f7d599788f</title>
<path fill="none" stroke="black" d="M166.38,-287.97C173.06,-240.19 192.02,-104.62 200.19,-46.27"/>
<polygon fill="black" stroke="black" points="203.66,-46.69 201.58,-36.31 196.73,-45.73 203.66,-46.69"/>
<g id="a_edge11&#45;headlabel"><a xlink:href="dir_000098_000015.html" target="_top" xlink:title="1">
<text text-anchor="middle" x="205.97" y="-48.15" font-family="Helvetica,sans-Serif" font-size="10.00">1</text>
</a>
</g>
</g>
<!-- dir_2b9112ffbf5858921a491006bc40f45b -->
<g id="node3" class="node">
<title>dir_2b9112ffbf5858921a491006bc40f45b</title>
<g id="a_node3"><a xlink:href="dir_2b9112ffbf5858921a491006bc40f45b.html" target="_top" xlink:title="iris">
<polygon fill="white" stroke="black" points="78,-396 24,-396 24,-360 78,-360 78,-396"/>
<text text-anchor="middle" x="51" y="-375.5" font-family="Helvetica,sans-Serif" font-size="10.00">iris</text>
</a>
</g>
</g>
<!-- dir_2b9112ffbf5858921a491006bc40f45b&#45;&gt;dir_ec4ca5ddfa488e52be8d9e11dbbf950b -->
<g id="edge18" class="edge">
<title>dir_2b9112ffbf5858921a491006bc40f45b&#45;&gt;dir_ec4ca5ddfa488e52be8d9e11dbbf950b</title>
<path fill="none" stroke="black" d="M78.07,-360.23C92.94,-351.02 111.59,-339.47 127.71,-329.48"/>
<polygon fill="black" stroke="black" points="129.71,-332.36 136.37,-324.12 126.03,-326.41 129.71,-332.36"/>
<g id="a_edge18&#45;headlabel"><a xlink:href="dir_000099_000098.html" target="_top" xlink:title="2">
<text text-anchor="middle" x="128.15" y="-334.16" font-family="Helvetica,sans-Serif" font-size="10.00">2</text>
</a>
</g>
</g>
<!-- dir_2b9112ffbf5858921a491006bc40f45b&#45;&gt;dir_a36da230f0956f48b11c85f7d599788f -->
<g id="edge19" class="edge">
<title>dir_2b9112ffbf5858921a491006bc40f45b&#45;&gt;dir_a36da230f0956f48b11c85f7d599788f</title>
<path fill="none" stroke="black" d="M50.21,-359.96C49.04,-333.3 47,-280.13 47,-235 47,-235 47,-235 47,-161 47,-115.19 65.63,-103.39 99,-72 117.7,-54.41 143.37,-41.31 164.64,-32.54"/>
<polygon fill="black" stroke="black" points="166.05,-35.74 174.06,-28.81 163.48,-29.23 166.05,-35.74"/>
<g id="a_edge19&#45;headlabel"><a xlink:href="dir_000099_000015.html" target="_top" xlink:title="1">
<text text-anchor="middle" x="163.75" y="-37.21" font-family="Helvetica,sans-Serif" font-size="10.00">1</text>
</a>
</g>
</g>
<!-- dir_d739e095b49d8b72164589d00310017d -->
<g id="node9" class="node">
<title>dir_d739e095b49d8b72164589d00310017d</title>
<g id="a_node9"><a xlink:href="dir_d739e095b49d8b72164589d00310017d.html" target="_top" xlink:title="geometry">
<polygon fill="white" stroke="red" points="372,-252 308,-252 308,-216 372,-216 372,-252"/>
<text text-anchor="middle" x="340" y="-231.5" font-family="Helvetica,sans-Serif" font-size="10.00">geometry</text>
</a>
</g>
</g>
<!-- dir_2b9112ffbf5858921a491006bc40f45b&#45;&gt;dir_d739e095b49d8b72164589d00310017d -->
<g id="edge20" class="edge">
<title>dir_2b9112ffbf5858921a491006bc40f45b&#45;&gt;dir_d739e095b49d8b72164589d00310017d</title>
<path fill="none" stroke="black" d="M78.3,-363.47C81.2,-362.22 84.14,-361.04 87,-360 146.16,-338.47 167.55,-351.86 224,-324 257.8,-307.32 261.07,-294.91 291,-272 296.69,-267.65 302.76,-263.03 308.63,-258.59"/>
<polygon fill="black" stroke="black" points="311.15,-261.07 317.02,-252.25 306.93,-255.49 311.15,-261.07"/>
<g id="a_edge20&#45;headlabel"><a xlink:href="dir_000099_000052.html" target="_top" xlink:title="4">
<text text-anchor="middle" x="309.99" y="-263.01" font-family="Helvetica,sans-Serif" font-size="10.00">4</text>
</a>
</g>
</g>
<!-- dir_6902f0bfef501365a3845194d27e0ad3 -->
<g id="node4" class="node">
<title>dir_6902f0bfef501365a3845194d27e0ad3</title>
<g id="a_node4"><a xlink:href="dir_6902f0bfef501365a3845194d27e0ad3.html" target="_top" xlink:title="test_utilities">
<polygon fill="white" stroke="black" points="322.5,-396 245.5,-396 245.5,-360 322.5,-360 322.5,-396"/>
<text text-anchor="middle" x="284" y="-375.5" font-family="Helvetica,sans-Serif" font-size="10.00">test_utilities</text>
</a>
</g>
</g>
<!-- dir_6902f0bfef501365a3845194d27e0ad3&#45;&gt;dir_39b8b3c6654246a9c12332c930bc7d3f -->
<g id="edge13" class="edge">
<title>dir_6902f0bfef501365a3845194d27e0ad3&#45;&gt;dir_39b8b3c6654246a9c12332c930bc7d3f</title>
<path fill="none" stroke="black" d="M322.82,-361.29C350,-350.29 386.32,-335.6 414.31,-324.27"/>
<polygon fill="black" stroke="black" points="415.88,-327.41 423.84,-320.42 413.26,-320.92 415.88,-327.41"/>
<g id="a_edge13&#45;headlabel"><a xlink:href="dir_000100_000069.html" target="_top" xlink:title="1">
<text text-anchor="middle" x="413.61" y="-328.89" font-family="Helvetica,sans-Serif" font-size="10.00">1</text>
</a>
</g>
</g>
<!-- dir_d3b9c8c863d1cf0f0e483ccaf53b793e -->
<g id="node5" class="node">
<title>dir_d3b9c8c863d1cf0f0e483ccaf53b793e</title>
<g id="a_node5"><a xlink:href="dir_d3b9c8c863d1cf0f0e483ccaf53b793e.html" target="_top" xlink:title="trajectory_optimization">
<polygon fill="white" stroke="black" points="227.5,-396 96.5,-396 96.5,-360 227.5,-360 227.5,-396"/>
<text text-anchor="middle" x="162" y="-375.5" font-family="Helvetica,sans-Serif" font-size="10.00">trajectory_optimization</text>
</a>
</g>
</g>
<!-- dir_d3b9c8c863d1cf0f0e483ccaf53b793e&#45;&gt;dir_39b8b3c6654246a9c12332c930bc7d3f -->
<g id="edge1" class="edge">
<title>dir_d3b9c8c863d1cf0f0e483ccaf53b793e&#45;&gt;dir_39b8b3c6654246a9c12332c930bc7d3f</title>
<path fill="none" stroke="black" d="M227.83,-362C230.93,-361.32 234,-360.65 237,-360 314.61,-343.22 335.73,-346.1 412,-324 412.72,-323.79 413.45,-323.58 414.18,-323.35"/>
<polygon fill="black" stroke="black" points="415.36,-326.65 423.78,-320.22 413.19,-320 415.36,-326.65"/>
<g id="a_edge1&#45;headlabel"><a xlink:href="dir_000101_000069.html" target="_top" xlink:title="1">
<text text-anchor="middle" x="412.82" y="-327.97" font-family="Helvetica,sans-Serif" font-size="10.00">1</text>
</a>
</g>
</g>
<!-- dir_d3b9c8c863d1cf0f0e483ccaf53b793e&#45;&gt;dir_c86b501450b8b8b59405c286cb030cc3 -->
<g id="edge2" class="edge">
<title>dir_d3b9c8c863d1cf0f0e483ccaf53b793e&#45;&gt;dir_c86b501450b8b8b59405c286cb030cc3</title>
<path fill="none" stroke="black" d="M188.38,-359.85C200.78,-350.58 214.83,-338.14 224,-324 266.95,-257.82 283.97,-163.99 290.03,-118.23"/>
<polygon fill="black" stroke="black" points="293.51,-118.54 291.28,-108.19 286.57,-117.68 293.51,-118.54"/>
<g id="a_edge2&#45;headlabel"><a xlink:href="dir_000101_000102.html" target="_top" xlink:title="7">
<text text-anchor="middle" x="295.89" y="-119.96" font-family="Helvetica,sans-Serif" font-size="10.00">7</text>
</a>
</g>
</g>
<!-- dir_d3b9c8c863d1cf0f0e483ccaf53b793e&#45;&gt;dir_a36da230f0956f48b11c85f7d599788f -->
<g id="edge3" class="edge">
<title>dir_d3b9c8c863d1cf0f0e483ccaf53b793e&#45;&gt;dir_a36da230f0956f48b11c85f7d599788f</title>
<path fill="none" stroke="black" d="M136.88,-359.81C125.17,-350.53 112.07,-338.08 104,-324 83.89,-288.91 85,-275.45 85,-235 85,-235 85,-235 85,-161 85,-109.41 131.72,-66.72 166.61,-42.03"/>
<polygon fill="black" stroke="black" points="168.92,-44.69 175.19,-36.15 164.97,-38.92 168.92,-44.69"/>
<g id="a_edge3&#45;headlabel"><a xlink:href="dir_000101_000015.html" target="_top" xlink:title="15">
<text text-anchor="middle" x="167.57" y="-46.56" font-family="Helvetica,sans-Serif" font-size="10.00">15</text>
</a>
</g>
</g>
<!-- dir_d3b9c8c863d1cf0f0e483ccaf53b793e&#45;&gt;dir_d739e095b49d8b72164589d00310017d -->
<g id="edge4" class="edge">
<title>dir_d3b9c8c863d1cf0f0e483ccaf53b793e&#45;&gt;dir_d739e095b49d8b72164589d00310017d</title>
<path fill="none" stroke="black" d="M227.83,-361.23C251.14,-353.12 276.2,-341.2 295,-324 313.39,-307.18 325.32,-281.15 332.25,-261.57"/>
<polygon fill="black" stroke="black" points="335.59,-262.6 335.42,-252.01 328.95,-260.4 335.59,-262.6"/>
<g id="a_edge4&#45;headlabel"><a xlink:href="dir_000101_000052.html" target="_top" xlink:title="2">
<text text-anchor="middle" x="337.16" y="-264.41" font-family="Helvetica,sans-Serif" font-size="10.00">2</text>
</a>
</g>
</g>
<!-- dir_d3b9c8c863d1cf0f0e483ccaf53b793e&#45;&gt;dir_b7a0e33b407baa23d8a077e33033c988 -->
<g id="edge5" class="edge">
<title>dir_d3b9c8c863d1cf0f0e483ccaf53b793e&#45;&gt;dir_b7a0e33b407baa23d8a077e33033c988</title>
<path fill="none" stroke="black" d="M227.51,-359.93C265.44,-349.23 308.8,-335.37 325,-324 358.18,-300.71 365.31,-289.38 381,-252 389.24,-232.38 392.1,-208.39 392.98,-190.27"/>
<polygon fill="black" stroke="black" points="396.49,-190.19 393.3,-180.09 389.49,-189.97 396.49,-190.19"/>
<g id="a_edge5&#45;headlabel"><a xlink:href="dir_000101_000081.html" target="_top" xlink:title="6">
<text text-anchor="middle" x="399.21" y="-191.37" font-family="Helvetica,sans-Serif" font-size="10.00">6</text>
</a>
</g>
</g>
<!-- dir_39b8b3c6654246a9c12332c930bc7d3f&#45;&gt;dir_c86b501450b8b8b59405c286cb030cc3 -->
<g id="edge6" class="edge">
<title>dir_39b8b3c6654246a9c12332c930bc7d3f&#45;&gt;dir_c86b501450b8b8b59405c286cb030cc3</title>
<path fill="none" stroke="black" d="M459.64,-287.52C463.51,-255.03 466.76,-184.94 431,-144 405.36,-114.65 361.59,-101.47 330.22,-95.61"/>
<polygon fill="black" stroke="black" points="330.54,-92.11 320.1,-93.89 329.37,-99.01 330.54,-92.11"/>
<g id="a_edge6&#45;headlabel"><a xlink:href="dir_000069_000102.html" target="_top" xlink:title="45">
<text text-anchor="middle" x="334.56" y="-87.42" font-family="Helvetica,sans-Serif" font-size="10.00">45</text>
</a>
</g>
</g>
<!-- dir_39b8b3c6654246a9c12332c930bc7d3f&#45;&gt;dir_a36da230f0956f48b11c85f7d599788f -->
<g id="edge7" class="edge">
<title>dir_39b8b3c6654246a9c12332c930bc7d3f&#45;&gt;dir_a36da230f0956f48b11c85f7d599788f</title>
<path fill="none" stroke="black" d="M464.48,-287.7C468.47,-277.52 472.97,-264.27 475,-252 482.97,-203.75 481.73,-184.27 454,-144 404.39,-71.95 300.67,-39.39 243.66,-26.43"/>
<polygon fill="black" stroke="black" points="244.09,-22.94 233.58,-24.23 242.6,-29.78 244.09,-22.94"/>
<g id="a_edge7&#45;headlabel"><a xlink:href="dir_000069_000015.html" target="_top" xlink:title="452">
<text text-anchor="middle" x="248.21" y="-18.43" font-family="Helvetica,sans-Serif" font-size="10.00">452</text>
</a>
</g>
</g>
<!-- dir_39b8b3c6654246a9c12332c930bc7d3f&#45;&gt;dir_d739e095b49d8b72164589d00310017d -->
<g id="edge8" class="edge">
<title>dir_39b8b3c6654246a9c12332c930bc7d3f&#45;&gt;dir_d739e095b49d8b72164589d00310017d</title>
<path fill="none" stroke="black" d="M426.5,-287.83C418.87,-282.51 410.75,-276.79 403,-272 394.57,-266.79 385.32,-261.64 376.54,-256.92"/>
<polygon fill="black" stroke="black" points="378.07,-253.77 367.6,-252.17 374.78,-259.95 378.07,-253.77"/>
<g id="a_edge8&#45;headlabel"><a xlink:href="dir_000069_000052.html" target="_top" xlink:title="42">
<text text-anchor="middle" x="382.58" y="-250.45" font-family="Helvetica,sans-Serif" font-size="10.00">42</text>
</a>
</g>
</g>
<!-- dir_39b8b3c6654246a9c12332c930bc7d3f&#45;&gt;dir_b7a0e33b407baa23d8a077e33033c988 -->
<g id="edge9" class="edge">
<title>dir_39b8b3c6654246a9c12332c930bc7d3f&#45;&gt;dir_b7a0e33b407baa23d8a077e33033c988</title>
<path fill="none" stroke="black" d="M444.7,-287.87C431.11,-263.46 410.54,-218.43 399.6,-189.64"/>
<polygon fill="black" stroke="black" points="402.87,-188.39 396.16,-180.19 396.29,-190.78 402.87,-188.39"/>
<g id="a_edge9&#45;headlabel"><a xlink:href="dir_000069_000081.html" target="_top" xlink:title="69">
<text text-anchor="middle" x="406.77" y="-188.29" font-family="Helvetica,sans-Serif" font-size="10.00">69</text>
</a>
</g>
</g>
<!-- dir_c86b501450b8b8b59405c286cb030cc3&#45;&gt;dir_a36da230f0956f48b11c85f7d599788f -->
<g id="edge12" class="edge">
<title>dir_c86b501450b8b8b59405c286cb030cc3&#45;&gt;dir_a36da230f0956f48b11c85f7d599788f</title>
<path fill="none" stroke="black" d="M271,-71.7C259.79,-62.88 246,-52.03 233.85,-42.47"/>
<polygon fill="black" stroke="black" points="235.77,-39.54 225.75,-36.1 231.44,-45.04 235.77,-39.54"/>
<g id="a_edge12&#45;headlabel"><a xlink:href="dir_000102_000015.html" target="_top" xlink:title="73">
<text text-anchor="middle" x="240.35" y="-37.03" font-family="Helvetica,sans-Serif" font-size="10.00">73</text>
</a>
</g>
</g>
<!-- dir_d739e095b49d8b72164589d00310017d&#45;&gt;dir_39b8b3c6654246a9c12332c930bc7d3f -->
<g id="edge14" class="edge">
<title>dir_d739e095b49d8b72164589d00310017d&#45;&gt;dir_39b8b3c6654246a9c12332c930bc7d3f</title>
<path fill="none" stroke="black" d="M372.04,-246.24C387.42,-253.15 405.58,-262.47 421,-272 425.84,-274.99 430.83,-278.35 435.54,-281.75"/>
<polygon fill="black" stroke="black" points="433.51,-284.61 443.61,-287.83 437.73,-279.02 433.51,-284.61"/>
<g id="a_edge14&#45;headlabel"><a xlink:href="dir_000052_000069.html" target="_top" xlink:title="9">
<text text-anchor="middle" x="428.94" y="-282.21" font-family="Helvetica,sans-Serif" font-size="10.00">9</text>
</a>
</g>
</g>
<!-- dir_d739e095b49d8b72164589d00310017d&#45;&gt;dir_c86b501450b8b8b59405c286cb030cc3 -->
<g id="edge15" class="edge">
<title>dir_d739e095b49d8b72164589d00310017d&#45;&gt;dir_c86b501450b8b8b59405c286cb030cc3</title>
<path fill="none" stroke="black" d="M334.33,-215.87C326.29,-191.56 311.48,-146.82 301.94,-118.01"/>
<polygon fill="black" stroke="black" points="305.15,-116.58 298.69,-108.19 298.51,-118.78 305.15,-116.58"/>
<g id="a_edge15&#45;headlabel"><a xlink:href="dir_000052_000102.html" target="_top" xlink:title="17">
<text text-anchor="middle" x="308.98" y="-116.6" font-family="Helvetica,sans-Serif" font-size="10.00">17</text>
</a>
</g>
</g>
<!-- dir_d739e095b49d8b72164589d00310017d&#45;&gt;dir_a36da230f0956f48b11c85f7d599788f -->
<g id="edge16" class="edge">
<title>dir_d739e095b49d8b72164589d00310017d&#45;&gt;dir_a36da230f0956f48b11c85f7d599788f</title>
<path fill="none" stroke="black" d="M328.18,-215.78C311.83,-191.84 281.56,-147.03 257,-108 243.79,-87 229.42,-62.79 218.99,-44.93"/>
<polygon fill="black" stroke="black" points="221.97,-43.09 213.91,-36.21 215.92,-46.62 221.97,-43.09"/>
<g id="a_edge16&#45;headlabel"><a xlink:href="dir_000052_000015.html" target="_top" xlink:title="202">
<text text-anchor="middle" x="226.23" y="-42.27" font-family="Helvetica,sans-Serif" font-size="10.00">202</text>
</a>
</g>
</g>
<!-- dir_d739e095b49d8b72164589d00310017d&#45;&gt;dir_b7a0e33b407baa23d8a077e33033c988 -->
<g id="edge17" class="edge">
<title>dir_d739e095b49d8b72164589d00310017d&#45;&gt;dir_b7a0e33b407baa23d8a077e33033c988</title>
<path fill="none" stroke="black" d="M347.19,-215.7C352.67,-207.3 360.23,-197.07 367.68,-187.86"/>
<polygon fill="black" stroke="black" points="370.44,-190.03 374.15,-180.1 365.06,-185.54 370.44,-190.03"/>
<g id="a_edge17&#45;headlabel"><a xlink:href="dir_000052_000081.html" target="_top" xlink:title="21">
<text text-anchor="middle" x="370.32" y="-192.1" font-family="Helvetica,sans-Serif" font-size="10.00">21</text>
</a>
</g>
</g>
<!-- dir_b7a0e33b407baa23d8a077e33033c988&#45;&gt;dir_39b8b3c6654246a9c12332c930bc7d3f -->
<g id="edge21" class="edge">
<title>dir_b7a0e33b407baa23d8a077e33033c988&#45;&gt;dir_39b8b3c6654246a9c12332c930bc7d3f</title>
<path fill="none" stroke="black" d="M405.34,-180.19C418.93,-204.64 439.5,-249.67 450.43,-278.44"/>
<polygon fill="black" stroke="black" points="447.15,-279.67 453.86,-287.87 453.73,-277.28 447.15,-279.67"/>
<g id="a_edge21&#45;headlabel"><a xlink:href="dir_000081_000069.html" target="_top" xlink:title="12">
<text text-anchor="middle" x="443.26" y="-274.77" font-family="Helvetica,sans-Serif" font-size="10.00">12</text>
</a>
</g>
</g>
<!-- dir_b7a0e33b407baa23d8a077e33033c988&#45;&gt;dir_c86b501450b8b8b59405c286cb030cc3 -->
<g id="edge22" class="edge">
<title>dir_b7a0e33b407baa23d8a077e33033c988&#45;&gt;dir_c86b501450b8b8b59405c286cb030cc3</title>
<path fill="none" stroke="black" d="M368.54,-143.88C355.7,-134.89 339.8,-123.76 325.91,-114.03"/>
<polygon fill="black" stroke="black" points="327.76,-111.06 317.56,-108.19 323.74,-116.79 327.76,-111.06"/>
<g id="a_edge22&#45;headlabel"><a xlink:href="dir_000081_000102.html" target="_top" xlink:title="4">
<text text-anchor="middle" x="332.33" y="-108.29" font-family="Helvetica,sans-Serif" font-size="10.00">4</text>
</a>
</g>
</g>
<!-- dir_b7a0e33b407baa23d8a077e33033c988&#45;&gt;dir_a36da230f0956f48b11c85f7d599788f -->
<g id="edge23" class="edge">
<title>dir_b7a0e33b407baa23d8a077e33033c988&#45;&gt;dir_a36da230f0956f48b11c85f7d599788f</title>
<path fill="none" stroke="black" d="M384.37,-143.76C373.73,-124.05 353.98,-91.96 329,-72 303.69,-51.78 269.53,-37.99 243.31,-29.56"/>
<polygon fill="black" stroke="black" points="244.28,-26.19 233.69,-26.59 242.21,-32.88 244.28,-26.19"/>
<g id="a_edge23&#45;headlabel"><a xlink:href="dir_000081_000015.html" target="_top" xlink:title="388">
<text text-anchor="middle" x="248.55" y="-22.04" font-family="Helvetica,sans-Serif" font-size="10.00">388</text>
</a>
</g>
</g>
<!-- dir_b7a0e33b407baa23d8a077e33033c988&#45;&gt;dir_d739e095b49d8b72164589d00310017d -->
<g id="edge24" class="edge">
<title>dir_b7a0e33b407baa23d8a077e33033c988&#45;&gt;dir_d739e095b49d8b72164589d00310017d</title>
<path fill="none" stroke="black" d="M385.94,-180.1C380.49,-188.47 372.95,-198.69 365.49,-207.92"/>
<polygon fill="black" stroke="black" points="362.73,-205.77 359.02,-215.7 368.11,-210.25 362.73,-205.77"/>
<g id="a_edge24&#45;headlabel"><a xlink:href="dir_000081_000052.html" target="_top" xlink:title="15">
<text text-anchor="middle" x="362.84" y="-198.69" font-family="Helvetica,sans-Serif" font-size="10.00">15</text>
</a>
</g>
</g>
</g>
</svg>
