<?xml version="1.0" encoding="UTF-8" standalone="no"?>
<!DOCTYPE svg PUBLIC "-//W3C//DTD SVG 1.1//EN"
 "http://www.w3.org/Graphics/SVG/1.1/DTD/svg11.dtd">
<!-- Generated by graphviz version 2.43.0 (0)
 -->
<!-- Title: drake/manipulation/kuka_iiwa Pages: 1 -->
<svg width="114pt" height="223pt"
 viewBox="0.00 0.00 114.00 223.00" xmlns="http://www.w3.org/2000/svg" xmlns:xlink="http://www.w3.org/1999/xlink">
<g id="graph0" class="graph" transform="scale(1 1) rotate(0) translate(4 219)">
<title>drake/manipulation/kuka_iiwa</title>
<polygon fill="white" stroke="transparent" points="-4,4 -4,-219 110,-219 110,4 -4,4"/>
<g id="clust1" class="cluster">
<title>clusterdir_758aa030403a70af025108ac41d12d0d</title>
<g id="a_clust1"><a xlink:href="dir_758aa030403a70af025108ac41d12d0d.html" target="_top" xlink:title="manipulation">
<polygon fill="#ddddee" stroke="black" points="8,-136 8,-207 90,-207 90,-136 8,-136"/>
<text text-anchor="middle" x="49" y="-195" font-family="Helvetica,sans-Serif" font-size="10.00">manipulation</text>
</a>
</g>
</g>
<!-- dir_3d70560bdc0f87a6aef8c45d30963b2c -->
<g id="node1" class="node">
<title>dir_3d70560bdc0f87a6aef8c45d30963b2c</title>
<g id="a_node1"><a xlink:href="dir_3d70560bdc0f87a6aef8c45d30963b2c.html" target="_top" xlink:title="kuka_iiwa">
<polygon fill="#eeeeff" stroke="black" points="82,-180 16,-180 16,-144 82,-144 82,-180"/>
<text text-anchor="middle" x="49" y="-159.5" font-family="Helvetica,sans-Serif" font-size="10.00">kuka_iiwa</text>
</a>
</g>
</g>
<!-- dir_a36da230f0956f48b11c85f7d599788f -->
<g id="node2" class="node">
<title>dir_a36da230f0956f48b11c85f7d599788f</title>
<g id="a_node2"><a xlink:href="dir_a36da230f0956f48b11c85f7d599788f.html" target="_top" xlink:title="common">
<polygon fill="white" stroke="red" points="77.5,-36 18.5,-36 18.5,0 77.5,0 77.5,-36"/>
<text text-anchor="middle" x="48" y="-15.5" font-family="Helvetica,sans-Serif" font-size="10.00">common</text>
</a>
</g>
</g>
<!-- dir_3d70560bdc0f87a6aef8c45d30963b2c&#45;&gt;dir_a36da230f0956f48b11c85f7d599788f -->
<g id="edge1" class="edge">
<title>dir_3d70560bdc0f87a6aef8c45d30963b2c&#45;&gt;dir_a36da230f0956f48b11c85f7d599788f</title>
<path fill="none" stroke="black" d="M44.94,-143.93C42.69,-133.6 40.13,-120.12 39,-108 37.51,-92.07 37.66,-87.94 39,-72 39.72,-63.5 41.07,-54.31 42.51,-46.01"/>
<polygon fill="black" stroke="black" points="45.97,-46.56 44.35,-36.09 39.09,-45.29 45.97,-46.56"/>
<g id="a_edge1&#45;headlabel"><a xlink:href="dir_000056_000006.html" target="_top" xlink:title="5">
<text text-anchor="middle" x="48.11" y="-48.11" font-family="Helvetica,sans-Serif" font-size="10.00">5</text>
</a>
</g>
</g>
<!-- dir_b7a0e33b407baa23d8a077e33033c988 -->
<g id="node3" class="node">
<title>dir_b7a0e33b407baa23d8a077e33033c988</title>
<g id="a_node3"><a xlink:href="dir_b7a0e33b407baa23d8a077e33033c988.html" target="_top" xlink:title="systems">
<polygon fill="white" stroke="red" points="106,-108 48,-108 48,-72 106,-72 106,-108"/>
<text text-anchor="middle" x="77" y="-87.5" font-family="Helvetica,sans-Serif" font-size="10.00">systems</text>
</a>
</g>
</g>
<!-- dir_3d70560bdc0f87a6aef8c45d30963b2c&#45;&gt;dir_b7a0e33b407baa23d8a077e33033c988 -->
<g id="edge2" class="edge">
<title>dir_3d70560bdc0f87a6aef8c45d30963b2c&#45;&gt;dir_b7a0e33b407baa23d8a077e33033c988</title>
<path fill="none" stroke="black" d="M55.92,-143.7C59.07,-135.81 62.88,-126.3 66.38,-117.55"/>
<polygon fill="black" stroke="black" points="69.69,-118.69 70.16,-108.1 63.19,-116.09 69.69,-118.69"/>
<g id="a_edge2&#45;headlabel"><a xlink:href="dir_000056_000088.html" target="_top" xlink:title="4">
<text text-anchor="middle" x="71" y="-120.58" font-family="Helvetica,sans-Serif" font-size="10.00">4</text>
</a>
</g>
</g>
<!-- dir_b7a0e33b407baa23d8a077e33033c988&#45;&gt;dir_a36da230f0956f48b11c85f7d599788f -->
<g id="edge3" class="edge">
<title>dir_b7a0e33b407baa23d8a077e33033c988&#45;&gt;dir_a36da230f0956f48b11c85f7d599788f</title>
<path fill="none" stroke="black" d="M69.83,-71.7C66.57,-63.81 62.63,-54.3 59,-45.55"/>
<polygon fill="black" stroke="black" points="62.15,-44 55.09,-36.1 55.68,-46.68 62.15,-44"/>
<g id="a_edge3&#45;headlabel"><a xlink:href="dir_000088_000006.html" target="_top" xlink:title="370">
<text text-anchor="middle" x="66.15" y="-43.74" font-family="Helvetica,sans-Serif" font-size="10.00">370</text>
</a>
</g>
</g>
</g>
</svg>
