<?xml version="1.0" encoding="UTF-8" standalone="no"?>
<!DOCTYPE svg PUBLIC "-//W3C//DTD SVG 1.1//EN"
 "http://www.w3.org/Graphics/SVG/1.1/DTD/svg11.dtd">
<!-- Generated by graphviz version 2.43.0 (0)
 -->
<!-- Title: drake/manipulation Pages: 1 -->
<!--zoomable 447 -->
<svg id="main" version="1.1" xmlns="http://www.w3.org/2000/svg" xmlns:xlink="http://www.w3.org/1999/xlink" xml:space="preserve" onload="init(evt)">
<style type="text/css"><![CDATA[
.edge:hover path { stroke: red; }
.edge:hover polygon { stroke: red; fill: red; }
]]></style>
<script type="text/javascript"><![CDATA[
var edges = document.getElementsByTagName('g');
if (edges && edges.length) {
  for (var i=0;i<edges.length;i++) {
    if (edges[i].id.substr(0,4)=='edge') {
      edges[i].setAttribute('class','edge');
    }
  }
}
]]></script>
        <defs>
                <circle id="rim" cx="0" cy="0" r="7"/>
                <circle id="rim2" cx="0" cy="0" r="3.5"/>
                <g id="zoomPlus">
                        <use xlink:href="#rim" fill="#404040">
                                <set attributeName="fill" to="#808080" begin="zoomplus.mouseover" end="zoomplus.mouseout"/>
                        </use>
                        <path d="M-4,0h8M0,-4v8" fill="none" stroke="white" stroke-width="1.5" pointer-events="none"/>
                </g>
                <g id="zoomMin">
                        <use xlink:href="#rim" fill="#404040">
                                <set attributeName="fill" to="#808080" begin="zoomminus.mouseover" end="zoomminus.mouseout"/>
                        </use>
                        <path d="M-4,0h8" fill="none" stroke="white" stroke-width="1.5" pointer-events="none"/>
                </g>
                <g id="dirArrow">
                        <path fill="none" stroke="white" stroke-width="1.5" d="M0,-3.0v7 M-2.5,-0.5L0,-3.0L2.5,-0.5"/>
                </g>
               <g id="resetDef">
                       <use xlink:href="#rim2" fill="#404040">
                               <set attributeName="fill" to="#808080" begin="reset.mouseover" end="reset.mouseout"/>
                       </use>
               </g>
        </defs>

<script type="text/javascript">
var viewWidth = 548;
var viewHeight = 447;
var sectionId = 'dynsection-0';
</script>
<script xlink:href="svgpan.js"/>
<svg id="graph" class="graph">
<g id="viewport">
<title>drake/manipulation</title>
<polygon fill="white" stroke="transparent" points="-4,4 -4,-443 544,-443 544,4 -4,4"/>
<g id="clust1" class="cluster">
<title>clusterdir_f1666844dc41ec91c14125b680b7be1b</title>
<g id="a_clust1"><a xlink:href="dir_f1666844dc41ec91c14125b680b7be1b.html" target="_top" xlink:title="drake">
<polygon fill="#ddddee" stroke="black" points="8,-272 8,-431 466,-431 466,-272 8,-272"/>
<text text-anchor="middle" x="237" y="-419" font-family="Helvetica,sans-Serif" font-size="10.00">drake</text>
</a>
</g>
</g>
<g id="clust2" class="cluster">
<title>clusterdir_758aa030403a70af025108ac41d12d0d</title>
<g id="a_clust2"><a xlink:href="dir_758aa030403a70af025108ac41d12d0d.html" target="_top">
<polygon fill="#eeeeff" stroke="black" points="16,-280 16,-404 458,-404 458,-280 16,-280"/>
</a>
</g>
</g>
<!-- dir_758aa030403a70af025108ac41d12d0d -->
<g id="node1" class="node">
<title>dir_758aa030403a70af025108ac41d12d0d</title>
<text text-anchor="middle" x="409" y="-375.5" font-family="Helvetica,sans-Serif" font-size="10.00">manipulation</text>
</g>
<!-- dir_c5b002a888c3529d6d8c26d354f8bc1a -->
<g id="node2" class="node">
<title>dir_c5b002a888c3529d6d8c26d354f8bc1a</title>
<g id="a_node2"><a xlink:href="dir_c5b002a888c3529d6d8c26d354f8bc1a.html" target="_top" xlink:title="kinova_jaco">
<polygon fill="white" stroke="black" points="183.5,-396 108.5,-396 108.5,-360 183.5,-360 183.5,-396"/>
<text text-anchor="middle" x="146" y="-375.5" font-family="Helvetica,sans-Serif" font-size="10.00">kinova_jaco</text>
</a>
</g>
</g>
<!-- dir_a36da230f0956f48b11c85f7d599788f -->
<g id="node10" class="node">
<title>dir_a36da230f0956f48b11c85f7d599788f</title>
<g id="a_node10"><a xlink:href="dir_a36da230f0956f48b11c85f7d599788f.html" target="_top" xlink:title="common">
<polygon fill="white" stroke="red" points="269.5,-108 210.5,-108 210.5,-72 269.5,-72 269.5,-108"/>
<text text-anchor="middle" x="240" y="-87.5" font-family="Helvetica,sans-Serif" font-size="10.00">common</text>
</a>
</g>
</g>
<!-- dir_c5b002a888c3529d6d8c26d354f8bc1a&#45;&gt;dir_a36da230f0956f48b11c85f7d599788f -->
<g id="edge1" class="edge">
<title>dir_c5b002a888c3529d6d8c26d354f8bc1a&#45;&gt;dir_a36da230f0956f48b11c85f7d599788f</title>
<path fill="none" stroke="black" d="M146.9,-359.72C149.57,-319.78 159.67,-218.8 196,-144 200.91,-133.89 208.14,-124.06 215.33,-115.67"/>
<polygon fill="black" stroke="black" points="218.05,-117.88 222.14,-108.1 212.85,-113.2 218.05,-117.88"/>
<g id="a_edge1&#45;headlabel"><a xlink:href="dir_000059_000008.html" target="_top" xlink:title="3">
<text text-anchor="middle" x="217.76" y="-119.95" font-family="Helvetica,sans-Serif" font-size="10.00">3</text>
</a>
</g>
</g>
<!-- dir_b7a0e33b407baa23d8a077e33033c988 -->
<g id="node11" class="node">
<title>dir_b7a0e33b407baa23d8a077e33033c988</title>
<g id="a_node11"><a xlink:href="dir_b7a0e33b407baa23d8a077e33033c988.html" target="_top" xlink:title="systems">
<polygon fill="white" stroke="red" points="422,-252 364,-252 364,-216 422,-216 422,-252"/>
<text text-anchor="middle" x="393" y="-231.5" font-family="Helvetica,sans-Serif" font-size="10.00">systems</text>
</a>
</g>
</g>
<!-- dir_c5b002a888c3529d6d8c26d354f8bc1a&#45;&gt;dir_b7a0e33b407baa23d8a077e33033c988 -->
<g id="edge2" class="edge">
<title>dir_c5b002a888c3529d6d8c26d354f8bc1a&#45;&gt;dir_b7a0e33b407baa23d8a077e33033c988</title>
<path fill="none" stroke="black" d="M183.58,-362.97C186.75,-361.92 189.92,-360.92 193,-360 259.96,-340.09 290.73,-366.72 346,-324 366.11,-308.46 378.54,-281.85 385.52,-261.77"/>
<polygon fill="black" stroke="black" points="388.86,-262.83 388.61,-252.23 382.2,-260.67 388.86,-262.83"/>
<g id="a_edge2&#45;headlabel"><a xlink:href="dir_000059_000093.html" target="_top" xlink:title="3">
<text text-anchor="middle" x="390.45" y="-264.62" font-family="Helvetica,sans-Serif" font-size="10.00">3</text>
</a>
</g>
</g>
<!-- dir_3d70560bdc0f87a6aef8c45d30963b2c -->
<g id="node3" class="node">
<title>dir_3d70560bdc0f87a6aef8c45d30963b2c</title>
<g id="a_node3"><a xlink:href="dir_3d70560bdc0f87a6aef8c45d30963b2c.html" target="_top" xlink:title="kuka_iiwa">
<polygon fill="white" stroke="black" points="90,-396 24,-396 24,-360 90,-360 90,-396"/>
<text text-anchor="middle" x="57" y="-375.5" font-family="Helvetica,sans-Serif" font-size="10.00">kuka_iiwa</text>
</a>
</g>
</g>
<!-- dir_3d70560bdc0f87a6aef8c45d30963b2c&#45;&gt;dir_a36da230f0956f48b11c85f7d599788f -->
<g id="edge8" class="edge">
<title>dir_3d70560bdc0f87a6aef8c45d30963b2c&#45;&gt;dir_a36da230f0956f48b11c85f7d599788f</title>
<path fill="none" stroke="black" d="M63.36,-359.93C78.91,-319.6 121.8,-216.36 179,-144 187.44,-133.32 198.25,-123.12 208.42,-114.57"/>
<polygon fill="black" stroke="black" points="210.83,-117.12 216.38,-108.09 206.41,-111.69 210.83,-117.12"/>
<g id="a_edge8&#45;headlabel"><a xlink:href="dir_000060_000008.html" target="_top" xlink:title="5">
<text text-anchor="middle" x="209.84" y="-119.09" font-family="Helvetica,sans-Serif" font-size="10.00">5</text>
</a>
</g>
</g>
<!-- dir_3d70560bdc0f87a6aef8c45d30963b2c&#45;&gt;dir_b7a0e33b407baa23d8a077e33033c988 -->
<g id="edge9" class="edge">
<title>dir_3d70560bdc0f87a6aef8c45d30963b2c&#45;&gt;dir_b7a0e33b407baa23d8a077e33033c988</title>
<path fill="none" stroke="black" d="M90.24,-362.78C93.18,-361.76 96.12,-360.81 99,-360 191.81,-333.75 232.64,-377.34 313,-324 335.81,-308.86 327.65,-292.31 346,-272 350.1,-267.46 354.81,-263.05 359.62,-258.95"/>
<polygon fill="black" stroke="black" points="362.17,-261.39 367.73,-252.37 357.76,-255.95 362.17,-261.39"/>
<g id="a_edge9&#45;headlabel"><a xlink:href="dir_000060_000093.html" target="_top" xlink:title="4">
<text text-anchor="middle" x="361.16" y="-263.36" font-family="Helvetica,sans-Serif" font-size="10.00">4</text>
</a>
</g>
</g>
<!-- dir_8d45261e6a2fc0f4521d25819d2b8e68 -->
<g id="node4" class="node">
<title>dir_8d45261e6a2fc0f4521d25819d2b8e68</title>
<g id="a_node4"><a xlink:href="dir_8d45261e6a2fc0f4521d25819d2b8e68.html" target="_top" xlink:title="planner">
<polygon fill="white" stroke="black" points="304,-324 250,-324 250,-288 304,-288 304,-324"/>
<text text-anchor="middle" x="277" y="-303.5" font-family="Helvetica,sans-Serif" font-size="10.00">planner</text>
</a>
</g>
</g>
<!-- dir_39b8b3c6654246a9c12332c930bc7d3f -->
<g id="node7" class="node">
<title>dir_39b8b3c6654246a9c12332c930bc7d3f</title>
<g id="a_node7"><a xlink:href="dir_39b8b3c6654246a9c12332c930bc7d3f.html" target="_top" xlink:title="multibody">
<polygon fill="white" stroke="red" points="540,-324 474,-324 474,-288 540,-288 540,-324"/>
<text text-anchor="middle" x="507" y="-303.5" font-family="Helvetica,sans-Serif" font-size="10.00">multibody</text>
</a>
</g>
</g>
<!-- dir_8d45261e6a2fc0f4521d25819d2b8e68&#45;&gt;dir_39b8b3c6654246a9c12332c930bc7d3f -->
<g id="edge13" class="edge">
<title>dir_8d45261e6a2fc0f4521d25819d2b8e68&#45;&gt;dir_39b8b3c6654246a9c12332c930bc7d3f</title>
<path fill="none" stroke="black" d="M304.4,-306C357.44,-306 410.47,-306 463.51,-306"/>
<polygon fill="black" stroke="black" points="463.76,-309.5 473.76,-306 463.76,-302.5 463.76,-309.5"/>
<g id="a_edge13&#45;headlabel"><a xlink:href="dir_000061_000064.html" target="_top" xlink:title="5">
<text text-anchor="middle" x="460.17" y="-309.84" font-family="Helvetica,sans-Serif" font-size="10.00">5</text>
</a>
</g>
</g>
<!-- dir_fc0178d6978c9fa2cad6ef3e048a60a7 -->
<g id="node8" class="node">
<title>dir_fc0178d6978c9fa2cad6ef3e048a60a7</title>
<g id="a_node8"><a xlink:href="dir_fc0178d6978c9fa2cad6ef3e048a60a7.html" target="_top" xlink:title="math">
<polygon fill="none" stroke="black" points="325,-36 271,-36 271,0 325,0 325,-36"/>
<text text-anchor="middle" x="298" y="-15.5" font-family="Helvetica,sans-Serif" font-size="10.00">math</text>
</a>
</g>
</g>
<!-- dir_8d45261e6a2fc0f4521d25819d2b8e68&#45;&gt;dir_fc0178d6978c9fa2cad6ef3e048a60a7 -->
<g id="edge14" class="edge">
<title>dir_8d45261e6a2fc0f4521d25819d2b8e68&#45;&gt;dir_fc0178d6978c9fa2cad6ef3e048a60a7</title>
<path fill="none" stroke="black" d="M278.25,-287.97C281.75,-240.29 291.67,-105.18 295.97,-46.63"/>
<polygon fill="black" stroke="black" points="299.49,-46.54 296.73,-36.31 292.51,-46.02 299.49,-46.54"/>
<g id="a_edge14&#45;headlabel"><a xlink:href="dir_000061_000011.html" target="_top" xlink:title="3">
<text text-anchor="middle" x="302.06" y="-47.83" font-family="Helvetica,sans-Serif" font-size="10.00">3</text>
</a>
</g>
</g>
<!-- dir_c86b501450b8b8b59405c286cb030cc3 -->
<g id="node9" class="node">
<title>dir_c86b501450b8b8b59405c286cb030cc3</title>
<g id="a_node9"><a xlink:href="dir_c86b501450b8b8b59405c286cb030cc3.html" target="_top" xlink:title="solvers">
<polygon fill="white" stroke="red" points="418,-180 364,-180 364,-144 418,-144 418,-180"/>
<text text-anchor="middle" x="391" y="-159.5" font-family="Helvetica,sans-Serif" font-size="10.00">solvers</text>
</a>
</g>
</g>
<!-- dir_8d45261e6a2fc0f4521d25819d2b8e68&#45;&gt;dir_c86b501450b8b8b59405c286cb030cc3 -->
<g id="edge15" class="edge">
<title>dir_8d45261e6a2fc0f4521d25819d2b8e68&#45;&gt;dir_c86b501450b8b8b59405c286cb030cc3</title>
<path fill="none" stroke="black" d="M290.75,-287.87C310.69,-263.03 347.77,-216.85 370.82,-188.14"/>
<polygon fill="black" stroke="black" points="373.67,-190.18 377.2,-180.19 368.21,-185.8 373.67,-190.18"/>
<g id="a_edge15&#45;headlabel"><a xlink:href="dir_000061_000089.html" target="_top" xlink:title="1">
<text text-anchor="middle" x="373.63" y="-192.26" font-family="Helvetica,sans-Serif" font-size="10.00">1</text>
</a>
</g>
</g>
<!-- dir_8d45261e6a2fc0f4521d25819d2b8e68&#45;&gt;dir_a36da230f0956f48b11c85f7d599788f -->
<g id="edge16" class="edge">
<title>dir_8d45261e6a2fc0f4521d25819d2b8e68&#45;&gt;dir_a36da230f0956f48b11c85f7d599788f</title>
<path fill="none" stroke="black" d="M274.03,-287.85C267.62,-250.75 252.42,-162.81 244.69,-118.1"/>
<polygon fill="black" stroke="black" points="248.13,-117.49 242.98,-108.23 241.23,-118.68 248.13,-117.49"/>
<g id="a_edge16&#45;headlabel"><a xlink:href="dir_000061_000008.html" target="_top" xlink:title="6">
<text text-anchor="middle" x="251.54" y="-118.05" font-family="Helvetica,sans-Serif" font-size="10.00">6</text>
</a>
</g>
</g>
<!-- dir_8d45261e6a2fc0f4521d25819d2b8e68&#45;&gt;dir_b7a0e33b407baa23d8a077e33033c988 -->
<g id="edge17" class="edge">
<title>dir_8d45261e6a2fc0f4521d25819d2b8e68&#45;&gt;dir_b7a0e33b407baa23d8a077e33033c988</title>
<path fill="none" stroke="black" d="M296.36,-287.97C302.99,-282.54 310.61,-276.72 318,-272 329.4,-264.73 342.42,-257.85 354.39,-252.04"/>
<polygon fill="black" stroke="black" points="356.17,-255.07 363.7,-247.63 353.17,-248.75 356.17,-255.07"/>
<g id="a_edge17&#45;headlabel"><a xlink:href="dir_000061_000093.html" target="_top" xlink:title="3">
<text text-anchor="middle" x="354.13" y="-256.68" font-family="Helvetica,sans-Serif" font-size="10.00">3</text>
</a>
</g>
</g>
<!-- dir_6c83ef925edcdfdf0a2f376978e93167 -->
<g id="node5" class="node">
<title>dir_6c83ef925edcdfdf0a2f376978e93167</title>
<g id="a_node5"><a xlink:href="dir_6c83ef925edcdfdf0a2f376978e93167.html" target="_top" xlink:title="schunk_wsg">
<polygon fill="white" stroke="black" points="278,-396 202,-396 202,-360 278,-360 278,-396"/>
<text text-anchor="middle" x="240" y="-375.5" font-family="Helvetica,sans-Serif" font-size="10.00">schunk_wsg</text>
</a>
</g>
</g>
<!-- dir_6c83ef925edcdfdf0a2f376978e93167&#45;&gt;dir_a36da230f0956f48b11c85f7d599788f -->
<g id="edge27" class="edge">
<title>dir_6c83ef925edcdfdf0a2f376978e93167&#45;&gt;dir_a36da230f0956f48b11c85f7d599788f</title>
<path fill="none" stroke="black" d="M226.44,-359.97C219.44,-350.09 211.63,-337.05 208,-324 186.54,-246.93 186.54,-221.07 208,-144 210.67,-134.42 215.59,-124.84 220.78,-116.51"/>
<polygon fill="black" stroke="black" points="223.8,-118.29 226.44,-108.03 217.98,-114.41 223.8,-118.29"/>
<g id="a_edge27&#45;headlabel"><a xlink:href="dir_000062_000008.html" target="_top" xlink:title="4">
<text text-anchor="middle" x="224.17" y="-120.36" font-family="Helvetica,sans-Serif" font-size="10.00">4</text>
</a>
</g>
</g>
<!-- dir_6c83ef925edcdfdf0a2f376978e93167&#45;&gt;dir_b7a0e33b407baa23d8a077e33033c988 -->
<g id="edge28" class="edge">
<title>dir_6c83ef925edcdfdf0a2f376978e93167&#45;&gt;dir_b7a0e33b407baa23d8a077e33033c988</title>
<path fill="none" stroke="black" d="M278.06,-363.13C320.58,-347.61 383.57,-324.56 384,-324 397.49,-306.6 398.8,-281.18 397.28,-261.96"/>
<polygon fill="black" stroke="black" points="400.76,-261.58 396.21,-252.01 393.8,-262.33 400.76,-261.58"/>
<g id="a_edge28&#45;headlabel"><a xlink:href="dir_000062_000093.html" target="_top" xlink:title="9">
<text text-anchor="middle" x="403.97" y="-262.35" font-family="Helvetica,sans-Serif" font-size="10.00">9</text>
</a>
</g>
</g>
<!-- dir_f46c9d8bac432799f621aa951345f12b -->
<g id="node6" class="node">
<title>dir_f46c9d8bac432799f621aa951345f12b</title>
<g id="a_node6"><a xlink:href="dir_f46c9d8bac432799f621aa951345f12b.html" target="_top" xlink:title="util">
<polygon fill="white" stroke="black" points="350,-396 296,-396 296,-360 350,-360 350,-396"/>
<text text-anchor="middle" x="323" y="-375.5" font-family="Helvetica,sans-Serif" font-size="10.00">util</text>
</a>
</g>
</g>
<!-- dir_f46c9d8bac432799f621aa951345f12b&#45;&gt;dir_8d45261e6a2fc0f4521d25819d2b8e68 -->
<g id="edge21" class="edge">
<title>dir_f46c9d8bac432799f621aa951345f12b&#45;&gt;dir_8d45261e6a2fc0f4521d25819d2b8e68</title>
<path fill="none" stroke="black" d="M311.63,-359.7C306.28,-351.56 299.8,-341.69 293.89,-332.7"/>
<polygon fill="black" stroke="black" points="296.66,-330.54 288.24,-324.1 290.81,-334.38 296.66,-330.54"/>
<g id="a_edge21&#45;headlabel"><a xlink:href="dir_000063_000061.html" target="_top" xlink:title="1">
<text text-anchor="middle" x="301" y="-329.48" font-family="Helvetica,sans-Serif" font-size="10.00">1</text>
</a>
</g>
</g>
<!-- dir_f46c9d8bac432799f621aa951345f12b&#45;&gt;dir_39b8b3c6654246a9c12332c930bc7d3f -->
<g id="edge18" class="edge">
<title>dir_f46c9d8bac432799f621aa951345f12b&#45;&gt;dir_39b8b3c6654246a9c12332c930bc7d3f</title>
<path fill="none" stroke="black" d="M350.36,-364.09C353.59,-362.67 356.86,-361.27 360,-360 404.56,-341.95 416.84,-340.5 462,-324 462.71,-323.74 463.42,-323.48 464.13,-323.22"/>
<polygon fill="black" stroke="black" points="465.45,-326.46 473.61,-319.71 463.02,-319.9 465.45,-326.46"/>
<g id="a_edge18&#45;headlabel"><a xlink:href="dir_000063_000064.html" target="_top" xlink:title="6">
<text text-anchor="middle" x="463.07" y="-327.88" font-family="Helvetica,sans-Serif" font-size="10.00">6</text>
</a>
</g>
</g>
<!-- dir_f46c9d8bac432799f621aa951345f12b&#45;&gt;dir_fc0178d6978c9fa2cad6ef3e048a60a7 -->
<g id="edge19" class="edge">
<title>dir_f46c9d8bac432799f621aa951345f12b&#45;&gt;dir_fc0178d6978c9fa2cad6ef3e048a60a7</title>
<path fill="none" stroke="black" d="M295.95,-363.89C266.24,-349.36 222.36,-327.52 220,-324 166.25,-244.01 205.23,-204.28 201,-108 200.3,-92.02 192.84,-85.76 201,-72 213.99,-50.1 239.57,-36.67 261.2,-28.8"/>
<polygon fill="black" stroke="black" points="262.44,-32.08 270.8,-25.57 260.21,-25.44 262.44,-32.08"/>
<g id="a_edge19&#45;headlabel"><a xlink:href="dir_000063_000011.html" target="_top" xlink:title="1">
<text text-anchor="middle" x="259.94" y="-33.42" font-family="Helvetica,sans-Serif" font-size="10.00">1</text>
</a>
</g>
</g>
<!-- dir_f46c9d8bac432799f621aa951345f12b&#45;&gt;dir_a36da230f0956f48b11c85f7d599788f -->
<g id="edge20" class="edge">
<title>dir_f46c9d8bac432799f621aa951345f12b&#45;&gt;dir_a36da230f0956f48b11c85f7d599788f</title>
<path fill="none" stroke="black" d="M295.6,-363C274.21,-351.43 247.1,-335.15 241,-324 204.61,-257.5 220.96,-163.5 232.34,-117.9"/>
<polygon fill="black" stroke="black" points="235.74,-118.72 234.88,-108.16 228.97,-116.95 235.74,-118.72"/>
<g id="a_edge20&#45;headlabel"><a xlink:href="dir_000063_000008.html" target="_top" xlink:title="5">
<text text-anchor="middle" x="237.58" y="-120.41" font-family="Helvetica,sans-Serif" font-size="10.00">5</text>
</a>
</g>
</g>
<!-- dir_f46c9d8bac432799f621aa951345f12b&#45;&gt;dir_b7a0e33b407baa23d8a077e33033c988 -->
<g id="edge22" class="edge">
<title>dir_f46c9d8bac432799f621aa951345f12b&#45;&gt;dir_b7a0e33b407baa23d8a077e33033c988</title>
<path fill="none" stroke="black" d="M350.07,-364.29C377.94,-350.92 417.87,-330.9 422,-324 433.87,-304.17 429.54,-293.85 422,-272 420.66,-268.12 418.73,-264.33 416.48,-260.76"/>
<polygon fill="black" stroke="black" points="419.12,-258.43 410.44,-252.36 413.44,-262.52 419.12,-258.43"/>
<g id="a_edge22&#45;headlabel"><a xlink:href="dir_000063_000093.html" target="_top" xlink:title="4">
<text text-anchor="middle" x="423.53" y="-257.19" font-family="Helvetica,sans-Serif" font-size="10.00">4</text>
</a>
</g>
</g>
<!-- dir_39b8b3c6654246a9c12332c930bc7d3f&#45;&gt;dir_fc0178d6978c9fa2cad6ef3e048a60a7 -->
<g id="edge3" class="edge">
<title>dir_39b8b3c6654246a9c12332c930bc7d3f&#45;&gt;dir_fc0178d6978c9fa2cad6ef3e048a60a7</title>
<path fill="none" stroke="black" d="M507.74,-287.8C508.01,-269.53 506.93,-240.01 499,-216 474.87,-142.96 461.51,-121.93 403,-72 382.79,-54.76 356.01,-41.36 334.56,-32.34"/>
<polygon fill="black" stroke="black" points="335.7,-29.03 325.11,-28.51 333.06,-35.51 335.7,-29.03"/>
<g id="a_edge3&#45;headlabel"><a xlink:href="dir_000064_000011.html" target="_top" xlink:title="39">
<text text-anchor="middle" x="340.09" y="-25.25" font-family="Helvetica,sans-Serif" font-size="10.00">39</text>
</a>
</g>
</g>
<!-- dir_39b8b3c6654246a9c12332c930bc7d3f&#45;&gt;dir_c86b501450b8b8b59405c286cb030cc3 -->
<g id="edge4" class="edge">
<title>dir_39b8b3c6654246a9c12332c930bc7d3f&#45;&gt;dir_c86b501450b8b8b59405c286cb030cc3</title>
<path fill="none" stroke="black" d="M493.01,-287.87C472.72,-263.03 434.99,-216.85 411.54,-188.14"/>
<polygon fill="black" stroke="black" points="414.08,-185.72 405.04,-180.19 408.66,-190.15 414.08,-185.72"/>
<g id="a_edge4&#45;headlabel"><a xlink:href="dir_000064_000089.html" target="_top" xlink:title="39">
<text text-anchor="middle" x="418.55" y="-184.21" font-family="Helvetica,sans-Serif" font-size="10.00">39</text>
</a>
</g>
</g>
<!-- dir_39b8b3c6654246a9c12332c930bc7d3f&#45;&gt;dir_a36da230f0956f48b11c85f7d599788f -->
<g id="edge5" class="edge">
<title>dir_39b8b3c6654246a9c12332c930bc7d3f&#45;&gt;dir_a36da230f0956f48b11c85f7d599788f</title>
<path fill="none" stroke="black" d="M503.34,-287.78C495.42,-254.79 473.52,-182.52 427,-144 384.8,-109.05 320.91,-97.12 279.81,-93.06"/>
<polygon fill="black" stroke="black" points="279.9,-89.55 269.63,-92.17 279.29,-96.53 279.9,-89.55"/>
<g id="a_edge5&#45;headlabel"><a xlink:href="dir_000064_000008.html" target="_top" xlink:title="357">
<text text-anchor="middle" x="283.73" y="-84.54" font-family="Helvetica,sans-Serif" font-size="10.00">357</text>
</a>
</g>
</g>
<!-- dir_39b8b3c6654246a9c12332c930bc7d3f&#45;&gt;dir_b7a0e33b407baa23d8a077e33033c988 -->
<g id="edge6" class="edge">
<title>dir_39b8b3c6654246a9c12332c930bc7d3f&#45;&gt;dir_b7a0e33b407baa23d8a077e33033c988</title>
<path fill="none" stroke="black" d="M476.45,-287.91C468.82,-282.6 460.7,-276.86 453,-272 444.89,-266.89 436.02,-261.79 427.6,-257.08"/>
<polygon fill="black" stroke="black" points="429.15,-253.93 418.71,-252.14 425.75,-260.05 429.15,-253.93"/>
<g id="a_edge6&#45;headlabel"><a xlink:href="dir_000064_000093.html" target="_top" xlink:title="54">
<text text-anchor="middle" x="433.67" y="-250.7" font-family="Helvetica,sans-Serif" font-size="10.00">54</text>
</a>
</g>
</g>
<!-- dir_fc0178d6978c9fa2cad6ef3e048a60a7&#45;&gt;dir_a36da230f0956f48b11c85f7d599788f -->
<g id="edge7" class="edge">
<title>dir_fc0178d6978c9fa2cad6ef3e048a60a7&#45;&gt;dir_a36da230f0956f48b11c85f7d599788f</title>
<path fill="none" stroke="black" d="M289.72,-36.1C283.61,-44.55 275.23,-54.9 267.04,-64.2"/>
<polygon fill="black" stroke="black" points="264.37,-61.93 260.25,-71.7 269.56,-66.63 264.37,-61.93"/>
<g id="a_edge7&#45;headlabel"><a xlink:href="dir_000011_000008.html" target="_top" xlink:title="58">
<text text-anchor="middle" x="264.67" y="-54.86" font-family="Helvetica,sans-Serif" font-size="10.00">58</text>
</a>
</g>
</g>
<!-- dir_c86b501450b8b8b59405c286cb030cc3&#45;&gt;dir_fc0178d6978c9fa2cad6ef3e048a60a7 -->
<g id="edge10" class="edge">
<title>dir_c86b501450b8b8b59405c286cb030cc3&#45;&gt;dir_fc0178d6978c9fa2cad6ef3e048a60a7</title>
<path fill="none" stroke="black" d="M379.78,-143.87C363.65,-119.24 333.78,-73.64 314.95,-44.88"/>
<polygon fill="black" stroke="black" points="317.66,-42.64 309.26,-36.19 311.81,-46.47 317.66,-42.64"/>
<g id="a_edge10&#45;headlabel"><a xlink:href="dir_000089_000011.html" target="_top" xlink:title="1">
<text text-anchor="middle" x="322.01" y="-41.59" font-family="Helvetica,sans-Serif" font-size="10.00">1</text>
</a>
</g>
</g>
<!-- dir_c86b501450b8b8b59405c286cb030cc3&#45;&gt;dir_a36da230f0956f48b11c85f7d599788f -->
<g id="edge11" class="edge">
<title>dir_c86b501450b8b8b59405c286cb030cc3&#45;&gt;dir_a36da230f0956f48b11c85f7d599788f</title>
<path fill="none" stroke="black" d="M363.66,-148.32C340.04,-137.38 305.63,-121.43 279.11,-109.13"/>
<polygon fill="black" stroke="black" points="280.27,-105.81 269.73,-104.78 277.33,-112.16 280.27,-105.81"/>
<g id="a_edge11&#45;headlabel"><a xlink:href="dir_000089_000008.html" target="_top" xlink:title="82">
<text text-anchor="middle" x="284.73" y="-102.25" font-family="Helvetica,sans-Serif" font-size="10.00">82</text>
</a>
</g>
</g>
<!-- dir_a36da230f0956f48b11c85f7d599788f&#45;&gt;dir_fc0178d6978c9fa2cad6ef3e048a60a7 -->
<g id="edge12" class="edge">
<title>dir_a36da230f0956f48b11c85f7d599788f&#45;&gt;dir_fc0178d6978c9fa2cad6ef3e048a60a7</title>
<path fill="none" stroke="black" d="M248.42,-71.7C254.57,-63.22 262.96,-52.86 271.15,-43.58"/>
<polygon fill="black" stroke="black" points="273.81,-45.86 277.93,-36.1 268.62,-41.16 273.81,-45.86"/>
<g id="a_edge12&#45;headlabel"><a xlink:href="dir_000008_000011.html" target="_top" xlink:title="6">
<text text-anchor="middle" x="273.5" y="-47.93" font-family="Helvetica,sans-Serif" font-size="10.00">6</text>
</a>
</g>
</g>
<!-- dir_b7a0e33b407baa23d8a077e33033c988&#45;&gt;dir_39b8b3c6654246a9c12332c930bc7d3f -->
<g id="edge23" class="edge">
<title>dir_b7a0e33b407baa23d8a077e33033c988&#45;&gt;dir_39b8b3c6654246a9c12332c930bc7d3f</title>
<path fill="none" stroke="black" d="M422.29,-245.58C437.41,-252.6 455.59,-262.29 471,-272 475.81,-275.04 480.79,-278.42 485.49,-281.82"/>
<polygon fill="black" stroke="black" points="483.47,-284.68 493.56,-287.91 487.69,-279.09 483.47,-284.68"/>
<g id="a_edge23&#45;headlabel"><a xlink:href="dir_000093_000064.html" target="_top" xlink:title="9">
<text text-anchor="middle" x="478.89" y="-282.28" font-family="Helvetica,sans-Serif" font-size="10.00">9</text>
</a>
</g>
</g>
<!-- dir_b7a0e33b407baa23d8a077e33033c988&#45;&gt;dir_fc0178d6978c9fa2cad6ef3e048a60a7 -->
<g id="edge24" class="edge">
<title>dir_b7a0e33b407baa23d8a077e33033c988&#45;&gt;dir_fc0178d6978c9fa2cad6ef3e048a60a7</title>
<path fill="none" stroke="black" d="M407.75,-215.63C415.09,-205.85 423.19,-193.01 427,-180 431.5,-164.65 432.97,-158.85 427,-144 408.93,-99.03 365.27,-62.6 333.74,-40.91"/>
<polygon fill="black" stroke="black" points="335.46,-37.85 325.2,-35.19 331.56,-43.66 335.46,-37.85"/>
<g id="a_edge24&#45;headlabel"><a xlink:href="dir_000093_000011.html" target="_top" xlink:title="7">
<text text-anchor="middle" x="340.02" y="-34.99" font-family="Helvetica,sans-Serif" font-size="10.00">7</text>
</a>
</g>
</g>
<!-- dir_b7a0e33b407baa23d8a077e33033c988&#45;&gt;dir_c86b501450b8b8b59405c286cb030cc3 -->
<g id="edge25" class="edge">
<title>dir_b7a0e33b407baa23d8a077e33033c988&#45;&gt;dir_c86b501450b8b8b59405c286cb030cc3</title>
<path fill="none" stroke="black" d="M392.51,-215.7C392.29,-207.98 392.02,-198.71 391.77,-190.11"/>
<polygon fill="black" stroke="black" points="395.27,-190 391.49,-180.1 388.28,-190.2 395.27,-190"/>
<g id="a_edge25&#45;headlabel"><a xlink:href="dir_000093_000089.html" target="_top" xlink:title="6">
<text text-anchor="middle" x="398.21" y="-191.01" font-family="Helvetica,sans-Serif" font-size="10.00">6</text>
</a>
</g>
</g>
<!-- dir_b7a0e33b407baa23d8a077e33033c988&#45;&gt;dir_a36da230f0956f48b11c85f7d599788f -->
<g id="edge26" class="edge">
<title>dir_b7a0e33b407baa23d8a077e33033c988&#45;&gt;dir_a36da230f0956f48b11c85f7d599788f</title>
<path fill="none" stroke="black" d="M374.54,-215.87C347.43,-190.71 296.73,-143.65 265.9,-115.04"/>
<polygon fill="black" stroke="black" points="268.23,-112.43 258.52,-108.19 263.47,-117.56 268.23,-112.43"/>
<g id="a_edge26&#45;headlabel"><a xlink:href="dir_000093_000008.html" target="_top" xlink:title="373">
<text text-anchor="middle" x="272.8" y="-110.29" font-family="Helvetica,sans-Serif" font-size="10.00">373</text>
</a>
</g>
</g>
</g>
</svg>
        <g id="navigator" transform="translate(0 0)" fill="#404254">
                <rect fill="#f2f5e9" fill-opacity="0.5" stroke="#606060" stroke-width=".5" x="0" y="0" width="60" height="60"/>
                <use id="zoomplus" xlink:href="#zoomPlus" x="17" y="9" onmousedown="handleZoom(evt,'in')"/>
                <use id="zoomminus" xlink:href="#zoomMin" x="42" y="9" onmousedown="handleZoom(evt,'out')"/>
                <use id="reset" xlink:href="#resetDef" x="30" y="36" onmousedown="handleReset()"/>
                <g id="arrowUp" xlink:href="#dirArrow" transform="translate(30 24)" onmousedown="handlePan(0,-1)">
                  <use xlink:href="#rim" fill="#404040">
                        <set attributeName="fill" to="#808080" begin="arrowUp.mouseover" end="arrowUp.mouseout"/>
                  </use>
                  <path fill="none" stroke="white" stroke-width="1.5" d="M0,-3.0v7 M-2.5,-0.5L0,-3.0L2.5,-0.5"/>
                </g>
                <g id="arrowRight" xlink:href="#dirArrow" transform="rotate(90) translate(36 -43)" onmousedown="handlePan(1,0)">
                  <use xlink:href="#rim" fill="#404040">
                        <set attributeName="fill" to="#808080" begin="arrowRight.mouseover" end="arrowRight.mouseout"/>
                  </use>
                  <path fill="none" stroke="white" stroke-width="1.5" d="M0,-3.0v7 M-2.5,-0.5L0,-3.0L2.5,-0.5"/>
                </g>
                <g id="arrowDown" xlink:href="#dirArrow" transform="rotate(180) translate(-30 -48)" onmousedown="handlePan(0,1)">
                  <use xlink:href="#rim" fill="#404040">
                        <set attributeName="fill" to="#808080" begin="arrowDown.mouseover" end="arrowDown.mouseout"/>
                  </use>
                  <path fill="none" stroke="white" stroke-width="1.5" d="M0,-3.0v7 M-2.5,-0.5L0,-3.0L2.5,-0.5"/>
                </g>
                <g id="arrowLeft" xlink:href="#dirArrow" transform="rotate(270) translate(-36 17)" onmousedown="handlePan(-1,0)">
                  <use xlink:href="#rim" fill="#404040">
                        <set attributeName="fill" to="#808080" begin="arrowLeft.mouseover" end="arrowLeft.mouseout"/>
                  </use>
                  <path fill="none" stroke="white" stroke-width="1.5" d="M0,-3.0v7 M-2.5,-0.5L0,-3.0L2.5,-0.5"/>
                </g>
        </g>
        <svg viewBox="0 0 15 15" width="100%" height="30px" preserveAspectRatio="xMaxYMin meet">
         <g id="arrow_out" transform="scale(0.3 0.3)">
          <a xlink:href="dir_758aa030403a70af025108ac41d12d0d_dep_org.svg" target="_base">
           <rect id="button" ry="5" rx="5" y="6" x="6" height="38" width="38"
                fill="#f2f5e9" fill-opacity="0.5" stroke="#606060" stroke-width="1.0"/>
           <path id="arrow"
             d="M 11.500037,31.436501 C 11.940474,20.09759 22.043105,11.32322 32.158766,21.979434 L 37.068811,17.246167 C 37.068811,17.246167 37.088388,32 37.088388,32 L 22.160133,31.978069 C 22.160133,31.978069 26.997745,27.140456 26.997745,27.140456 C 18.528582,18.264221 13.291696,25.230495 11.500037,31.436501 z"
             style="fill:#404040;"/>
          </a>
         </g>
        </svg>
</svg>
