<?xml version="1.0" encoding="UTF-8" standalone="no"?>
<!DOCTYPE svg PUBLIC "-//W3C//DTD SVG 1.1//EN"
 "http://www.w3.org/Graphics/SVG/1.1/DTD/svg11.dtd">
<!-- Generated by graphviz version 2.43.0 (0)
 -->
<!-- Title: drake/multibody/parsing Pages: 1 -->
<svg width="274pt" height="439pt"
 viewBox="0.00 0.00 273.71 439.00" xmlns="http://www.w3.org/2000/svg" xmlns:xlink="http://www.w3.org/1999/xlink">
<g id="graph0" class="graph" transform="scale(1 1) rotate(0) translate(4 435)">
<title>drake/multibody/parsing</title>
<polygon fill="white" stroke="transparent" points="-4,4 -4,-435 269.71,-435 269.71,4 -4,4"/>
<g id="clust1" class="cluster">
<title>clusterdir_39b8b3c6654246a9c12332c930bc7d3f</title>
<g id="a_clust1"><a xlink:href="dir_39b8b3c6654246a9c12332c930bc7d3f.html" target="_top" xlink:title="multibody">
<polygon fill="#ddddee" stroke="black" points="126,-352 126,-423 196,-423 196,-352 126,-352"/>
<text text-anchor="middle" x="161" y="-411" font-family="Helvetica,sans-Serif" font-size="10.00">multibody</text>
</a>
</g>
</g>
<!-- dir_e56f4370c0abfd94d0eb867c3946e12e -->
<g id="node1" class="node">
<title>dir_e56f4370c0abfd94d0eb867c3946e12e</title>
<g id="a_node1"><a xlink:href="dir_e56f4370c0abfd94d0eb867c3946e12e.html" target="_top" xlink:title="parsing">
<polygon fill="#eeeeff" stroke="black" points="188,-396 134,-396 134,-360 188,-360 188,-396"/>
<text text-anchor="middle" x="161" y="-375.5" font-family="Helvetica,sans-Serif" font-size="10.00">parsing</text>
</a>
</g>
</g>
<!-- dir_fc0178d6978c9fa2cad6ef3e048a60a7 -->
<g id="node2" class="node">
<title>dir_fc0178d6978c9fa2cad6ef3e048a60a7</title>
<g id="a_node2"><a xlink:href="dir_fc0178d6978c9fa2cad6ef3e048a60a7.html" target="_top" xlink:title="math">
<polygon fill="none" stroke="black" points="158,-108 104,-108 104,-72 158,-72 158,-108"/>
<text text-anchor="middle" x="131" y="-87.5" font-family="Helvetica,sans-Serif" font-size="10.00">math</text>
</a>
</g>
</g>
<!-- dir_e56f4370c0abfd94d0eb867c3946e12e&#45;&gt;dir_fc0178d6978c9fa2cad6ef3e048a60a7 -->
<g id="edge1" class="edge">
<title>dir_e56f4370c0abfd94d0eb867c3946e12e&#45;&gt;dir_fc0178d6978c9fa2cad6ef3e048a60a7</title>
<path fill="none" stroke="black" d="M142.83,-359.68C134.12,-350.1 124.59,-337.43 120,-324 95.7,-252.87 112.42,-162.39 123.45,-118.02"/>
<polygon fill="black" stroke="black" points="126.86,-118.83 125.97,-108.27 120.08,-117.08 126.86,-118.83"/>
<g id="a_edge1&#45;headlabel"><a xlink:href="dir_000089_000018.html" target="_top" xlink:title="6">
<text text-anchor="middle" x="128.71" y="-120.52" font-family="Helvetica,sans-Serif" font-size="10.00">6</text>
</a>
</g>
</g>
<!-- dir_a36da230f0956f48b11c85f7d599788f -->
<g id="node3" class="node">
<title>dir_a36da230f0956f48b11c85f7d599788f</title>
<g id="a_node3"><a xlink:href="dir_a36da230f0956f48b11c85f7d599788f.html" target="_top" xlink:title="common">
<polygon fill="white" stroke="red" points="160.5,-36 101.5,-36 101.5,0 160.5,0 160.5,-36"/>
<text text-anchor="middle" x="131" y="-15.5" font-family="Helvetica,sans-Serif" font-size="10.00">common</text>
</a>
</g>
</g>
<!-- dir_e56f4370c0abfd94d0eb867c3946e12e&#45;&gt;dir_a36da230f0956f48b11c85f7d599788f -->
<g id="edge2" class="edge">
<title>dir_e56f4370c0abfd94d0eb867c3946e12e&#45;&gt;dir_a36da230f0956f48b11c85f7d599788f</title>
<path fill="none" stroke="black" d="M133.69,-367.39C87.75,-349.27 0,-305.44 0,-235 0,-235 0,-235 0,-161 0,-106.04 53.67,-63.26 92.31,-39.58"/>
<polygon fill="black" stroke="black" points="94.46,-42.38 101.27,-34.26 90.89,-36.36 94.46,-42.38"/>
<g id="a_edge2&#45;headlabel"><a xlink:href="dir_000089_000015.html" target="_top" xlink:title="31">
<text text-anchor="middle" x="92.82" y="-44.15" font-family="Helvetica,sans-Serif" font-size="10.00">31</text>
</a>
</g>
</g>
<!-- dir_d739e095b49d8b72164589d00310017d -->
<g id="node4" class="node">
<title>dir_d739e095b49d8b72164589d00310017d</title>
<g id="a_node4"><a xlink:href="dir_d739e095b49d8b72164589d00310017d.html" target="_top" xlink:title="geometry">
<polygon fill="white" stroke="red" points="193,-324 129,-324 129,-288 193,-288 193,-324"/>
<text text-anchor="middle" x="161" y="-303.5" font-family="Helvetica,sans-Serif" font-size="10.00">geometry</text>
</a>
</g>
</g>
<!-- dir_e56f4370c0abfd94d0eb867c3946e12e&#45;&gt;dir_d739e095b49d8b72164589d00310017d -->
<g id="edge3" class="edge">
<title>dir_e56f4370c0abfd94d0eb867c3946e12e&#45;&gt;dir_d739e095b49d8b72164589d00310017d</title>
<path fill="none" stroke="black" d="M161,-359.7C161,-351.98 161,-342.71 161,-334.11"/>
<polygon fill="black" stroke="black" points="164.5,-334.1 161,-324.1 157.5,-334.1 164.5,-334.1"/>
<g id="a_edge3&#45;headlabel"><a xlink:href="dir_000089_000053.html" target="_top" xlink:title="6">
<text text-anchor="middle" x="167.34" y="-335.2" font-family="Helvetica,sans-Serif" font-size="10.00">6</text>
</a>
</g>
</g>
<!-- dir_3f9cb8dbb3b4911cb2ecb548acd672c3 -->
<g id="node5" class="node">
<title>dir_3f9cb8dbb3b4911cb2ecb548acd672c3</title>
<g id="a_node5"><a xlink:href="dir_3f9cb8dbb3b4911cb2ecb548acd672c3.html" target="_top" xlink:title="tree">
<polygon fill="none" stroke="black" points="252,-252 198,-252 198,-216 252,-216 252,-252"/>
<text text-anchor="middle" x="225" y="-231.5" font-family="Helvetica,sans-Serif" font-size="10.00">tree</text>
</a>
</g>
</g>
<!-- dir_e56f4370c0abfd94d0eb867c3946e12e&#45;&gt;dir_3f9cb8dbb3b4911cb2ecb548acd672c3 -->
<g id="edge4" class="edge">
<title>dir_e56f4370c0abfd94d0eb867c3946e12e&#45;&gt;dir_3f9cb8dbb3b4911cb2ecb548acd672c3</title>
<path fill="none" stroke="black" d="M177.4,-359.59C185.83,-349.79 195.65,-336.95 202,-324 211.63,-304.35 217.54,-280.23 220.95,-262.05"/>
<polygon fill="black" stroke="black" points="224.42,-262.57 222.69,-252.12 217.52,-261.37 224.42,-262.57"/>
<g id="a_edge4&#45;headlabel"><a xlink:href="dir_000089_000095.html" target="_top" xlink:title="12">
<text text-anchor="middle" x="226.6" y="-264.1" font-family="Helvetica,sans-Serif" font-size="10.00">12</text>
</a>
</g>
</g>
<!-- dir_656f7d340c0f5b4ecaf881820f2aea38 -->
<g id="node6" class="node">
<title>dir_656f7d340c0f5b4ecaf881820f2aea38</title>
<g id="a_node6"><a xlink:href="dir_656f7d340c0f5b4ecaf881820f2aea38.html" target="_top" xlink:title="plant">
<polygon fill="white" stroke="red" points="196,-180 142,-180 142,-144 196,-144 196,-180"/>
<text text-anchor="middle" x="169" y="-159.5" font-family="Helvetica,sans-Serif" font-size="10.00">plant</text>
</a>
</g>
</g>
<!-- dir_e56f4370c0abfd94d0eb867c3946e12e&#45;&gt;dir_656f7d340c0f5b4ecaf881820f2aea38 -->
<g id="edge5" class="edge">
<title>dir_e56f4370c0abfd94d0eb867c3946e12e&#45;&gt;dir_656f7d340c0f5b4ecaf881820f2aea38</title>
<path fill="none" stroke="black" d="M185.01,-359.96C197.38,-350.37 212.12,-337.6 223,-324 245.6,-295.74 252.3,-287.12 261,-252 264.85,-236.47 269.01,-229.85 261,-216 249.11,-195.43 225.87,-182.14 205.72,-174.01"/>
<polygon fill="black" stroke="black" points="206.73,-170.65 196.14,-170.42 204.28,-177.21 206.73,-170.65"/>
<g id="a_edge5&#45;headlabel"><a xlink:href="dir_000089_000090.html" target="_top" xlink:title="10">
<text text-anchor="middle" x="211.09" y="-166.75" font-family="Helvetica,sans-Serif" font-size="10.00">10</text>
</a>
</g>
</g>
<!-- dir_fc0178d6978c9fa2cad6ef3e048a60a7&#45;&gt;dir_a36da230f0956f48b11c85f7d599788f -->
<g id="edge6" class="edge">
<title>dir_fc0178d6978c9fa2cad6ef3e048a60a7&#45;&gt;dir_a36da230f0956f48b11c85f7d599788f</title>
<path fill="none" stroke="black" d="M125.08,-71.7C124.29,-63.98 124.06,-54.71 124.4,-46.11"/>
<polygon fill="black" stroke="black" points="127.9,-46.32 125.1,-36.1 120.92,-45.84 127.9,-46.32"/>
<g id="a_edge6&#45;headlabel"><a xlink:href="dir_000018_000015.html" target="_top" xlink:title="65">
<text text-anchor="middle" x="130.48" y="-47.61" font-family="Helvetica,sans-Serif" font-size="10.00">65</text>
</a>
</g>
</g>
<!-- dir_a36da230f0956f48b11c85f7d599788f&#45;&gt;dir_fc0178d6978c9fa2cad6ef3e048a60a7 -->
<g id="edge7" class="edge">
<title>dir_a36da230f0956f48b11c85f7d599788f&#45;&gt;dir_fc0178d6978c9fa2cad6ef3e048a60a7</title>
<path fill="none" stroke="black" d="M136.9,-36.1C137.7,-43.79 137.94,-53.05 137.6,-61.67"/>
<polygon fill="black" stroke="black" points="134.11,-61.48 136.92,-71.7 141.09,-61.96 134.11,-61.48"/>
<g id="a_edge7&#45;headlabel"><a xlink:href="dir_000015_000018.html" target="_top" xlink:title="8">
<text text-anchor="middle" x="131.52" y="-55.2" font-family="Helvetica,sans-Serif" font-size="10.00">8</text>
</a>
</g>
</g>
<!-- dir_d739e095b49d8b72164589d00310017d&#45;&gt;dir_fc0178d6978c9fa2cad6ef3e048a60a7 -->
<g id="edge8" class="edge">
<title>dir_d739e095b49d8b72164589d00310017d&#45;&gt;dir_fc0178d6978c9fa2cad6ef3e048a60a7</title>
<path fill="none" stroke="black" d="M156.01,-287.8C149.33,-263.87 137.77,-219.07 133,-180 130.49,-159.42 130.06,-135.97 130.22,-118.31"/>
<polygon fill="black" stroke="black" points="133.72,-118.19 130.38,-108.13 126.72,-118.08 133.72,-118.19"/>
<g id="a_edge8&#45;headlabel"><a xlink:href="dir_000053_000018.html" target="_top" xlink:title="42">
<text text-anchor="middle" x="136.5" y="-119.33" font-family="Helvetica,sans-Serif" font-size="10.00">42</text>
</a>
</g>
</g>
<!-- dir_d739e095b49d8b72164589d00310017d&#45;&gt;dir_a36da230f0956f48b11c85f7d599788f -->
<g id="edge9" class="edge">
<title>dir_d739e095b49d8b72164589d00310017d&#45;&gt;dir_a36da230f0956f48b11c85f7d599788f</title>
<path fill="none" stroke="black" d="M151.93,-287.64C146.83,-277.44 140.58,-264.19 136,-252 112.62,-189.7 104.2,-173.9 95,-108 92.79,-92.15 90.3,-87.29 95,-72 98.01,-62.22 103.51,-52.62 109.32,-44.33"/>
<polygon fill="black" stroke="black" points="112.19,-46.33 115.39,-36.23 106.59,-42.13 112.19,-46.33"/>
<g id="a_edge9&#45;headlabel"><a xlink:href="dir_000053_000015.html" target="_top" xlink:title="216">
<text text-anchor="middle" x="112.31" y="-48.41" font-family="Helvetica,sans-Serif" font-size="10.00">216</text>
</a>
</g>
</g>
<!-- dir_d739e095b49d8b72164589d00310017d&#45;&gt;dir_3f9cb8dbb3b4911cb2ecb548acd672c3 -->
<g id="edge10" class="edge">
<title>dir_d739e095b49d8b72164589d00310017d&#45;&gt;dir_3f9cb8dbb3b4911cb2ecb548acd672c3</title>
<path fill="none" stroke="black" d="M170.9,-287.7C177.85,-279.14 187.25,-268.66 196.32,-259.3"/>
<polygon fill="black" stroke="black" points="198.9,-261.67 203.47,-252.1 193.94,-256.73 198.9,-261.67"/>
<g id="a_edge10&#45;headlabel"><a xlink:href="dir_000053_000095.html" target="_top" xlink:title="1">
<text text-anchor="middle" x="198.39" y="-263.72" font-family="Helvetica,sans-Serif" font-size="10.00">1</text>
</a>
</g>
</g>
<!-- dir_d739e095b49d8b72164589d00310017d&#45;&gt;dir_656f7d340c0f5b4ecaf881820f2aea38 -->
<g id="edge11" class="edge">
<title>dir_d739e095b49d8b72164589d00310017d&#45;&gt;dir_656f7d340c0f5b4ecaf881820f2aea38</title>
<path fill="none" stroke="black" d="M157.38,-287.87C156.19,-263.67 158.4,-219.21 162,-190.39"/>
<polygon fill="black" stroke="black" points="165.51,-190.58 163.44,-180.19 158.57,-189.6 165.51,-190.58"/>
<g id="a_edge11&#45;headlabel"><a xlink:href="dir_000053_000090.html" target="_top" xlink:title="3">
<text text-anchor="middle" x="167.81" y="-192.04" font-family="Helvetica,sans-Serif" font-size="10.00">3</text>
</a>
</g>
</g>
<!-- dir_3f9cb8dbb3b4911cb2ecb548acd672c3&#45;&gt;dir_fc0178d6978c9fa2cad6ef3e048a60a7 -->
<g id="edge12" class="edge">
<title>dir_3f9cb8dbb3b4911cb2ecb548acd672c3&#45;&gt;dir_fc0178d6978c9fa2cad6ef3e048a60a7</title>
<path fill="none" stroke="black" d="M224.71,-215.86C223.62,-196.83 219.52,-165.92 205,-144 195.55,-129.74 180.85,-118.06 167.04,-109.33"/>
<polygon fill="black" stroke="black" points="168.54,-106.14 158.16,-104.02 164.95,-112.15 168.54,-106.14"/>
<g id="a_edge12&#45;headlabel"><a xlink:href="dir_000095_000018.html" target="_top" xlink:title="19">
<text text-anchor="middle" x="173.08" y="-103.05" font-family="Helvetica,sans-Serif" font-size="10.00">19</text>
</a>
</g>
</g>
<!-- dir_3f9cb8dbb3b4911cb2ecb548acd672c3&#45;&gt;dir_a36da230f0956f48b11c85f7d599788f -->
<g id="edge13" class="edge">
<title>dir_3f9cb8dbb3b4911cb2ecb548acd672c3&#45;&gt;dir_a36da230f0956f48b11c85f7d599788f</title>
<path fill="none" stroke="black" d="M228.25,-215.91C231.06,-197.73 233.7,-168.28 227,-144 215.77,-103.3 183.2,-66.25 159.1,-43.24"/>
<polygon fill="black" stroke="black" points="161.31,-40.52 151.61,-36.27 156.55,-45.65 161.31,-40.52"/>
<g id="a_edge13&#45;headlabel"><a xlink:href="dir_000095_000015.html" target="_top" xlink:title="185">
<text text-anchor="middle" x="165.88" y="-38.39" font-family="Helvetica,sans-Serif" font-size="10.00">185</text>
</a>
</g>
</g>
<!-- dir_3f9cb8dbb3b4911cb2ecb548acd672c3&#45;&gt;dir_d739e095b49d8b72164589d00310017d -->
<g id="edge14" class="edge">
<title>dir_3f9cb8dbb3b4911cb2ecb548acd672c3&#45;&gt;dir_d739e095b49d8b72164589d00310017d</title>
<path fill="none" stroke="black" d="M215.26,-252.1C208.35,-260.64 198.97,-271.11 189.89,-280.48"/>
<polygon fill="black" stroke="black" points="187.29,-278.13 182.74,-287.7 192.26,-283.06 187.29,-278.13"/>
<g id="a_edge14&#45;headlabel"><a xlink:href="dir_000095_000053.html" target="_top" xlink:title="5">
<text text-anchor="middle" x="187.81" y="-271.08" font-family="Helvetica,sans-Serif" font-size="10.00">5</text>
</a>
</g>
</g>
<!-- dir_3f9cb8dbb3b4911cb2ecb548acd672c3&#45;&gt;dir_656f7d340c0f5b4ecaf881820f2aea38 -->
<g id="edge15" class="edge">
<title>dir_3f9cb8dbb3b4911cb2ecb548acd672c3&#45;&gt;dir_656f7d340c0f5b4ecaf881820f2aea38</title>
<path fill="none" stroke="black" d="M205.24,-215.7C197.82,-207.47 189.62,-197.48 182.82,-188.42"/>
<polygon fill="black" stroke="black" points="185.49,-186.15 176.79,-180.1 179.82,-190.26 185.49,-186.15"/>
<g id="a_edge15&#45;headlabel"><a xlink:href="dir_000095_000090.html" target="_top" xlink:title="1">
<text text-anchor="middle" x="189.9" y="-184.89" font-family="Helvetica,sans-Serif" font-size="10.00">1</text>
</a>
</g>
</g>
<!-- dir_656f7d340c0f5b4ecaf881820f2aea38&#45;&gt;dir_fc0178d6978c9fa2cad6ef3e048a60a7 -->
<g id="edge16" class="edge">
<title>dir_656f7d340c0f5b4ecaf881820f2aea38&#45;&gt;dir_fc0178d6978c9fa2cad6ef3e048a60a7</title>
<path fill="none" stroke="black" d="M159.61,-143.7C155.24,-135.64 149.94,-125.89 145.1,-116.98"/>
<polygon fill="black" stroke="black" points="148.13,-115.22 140.29,-108.1 141.98,-118.56 148.13,-115.22"/>
<g id="a_edge16&#45;headlabel"><a xlink:href="dir_000090_000018.html" target="_top" xlink:title="7">
<text text-anchor="middle" x="152.34" y="-114.53" font-family="Helvetica,sans-Serif" font-size="10.00">7</text>
</a>
</g>
</g>
<!-- dir_656f7d340c0f5b4ecaf881820f2aea38&#45;&gt;dir_a36da230f0956f48b11c85f7d599788f -->
<g id="edge17" class="edge">
<title>dir_656f7d340c0f5b4ecaf881820f2aea38&#45;&gt;dir_a36da230f0956f48b11c85f7d599788f</title>
<path fill="none" stroke="black" d="M171.44,-143.8C173.39,-125.52 174.67,-95.99 167,-72 163.88,-62.25 158.35,-52.66 152.55,-44.38"/>
<polygon fill="black" stroke="black" points="155.28,-42.18 146.49,-36.26 149.67,-46.37 155.28,-42.18"/>
<g id="a_edge17&#45;headlabel"><a xlink:href="dir_000090_000015.html" target="_top" xlink:title="75">
<text text-anchor="middle" x="159.7" y="-40.86" font-family="Helvetica,sans-Serif" font-size="10.00">75</text>
</a>
</g>
</g>
<!-- dir_656f7d340c0f5b4ecaf881820f2aea38&#45;&gt;dir_d739e095b49d8b72164589d00310017d -->
<g id="edge18" class="edge">
<title>dir_656f7d340c0f5b4ecaf881820f2aea38&#45;&gt;dir_d739e095b49d8b72164589d00310017d</title>
<path fill="none" stroke="black" d="M172.62,-180.19C173.81,-204.42 171.59,-248.89 167.99,-277.68"/>
<polygon fill="black" stroke="black" points="164.49,-277.48 166.55,-287.87 171.42,-278.46 164.49,-277.48"/>
<g id="a_edge18&#45;headlabel"><a xlink:href="dir_000090_000053.html" target="_top" xlink:title="24">
<text text-anchor="middle" x="162.18" y="-271.02" font-family="Helvetica,sans-Serif" font-size="10.00">24</text>
</a>
</g>
</g>
<!-- dir_656f7d340c0f5b4ecaf881820f2aea38&#45;&gt;dir_3f9cb8dbb3b4911cb2ecb548acd672c3 -->
<g id="edge19" class="edge">
<title>dir_656f7d340c0f5b4ecaf881820f2aea38&#45;&gt;dir_3f9cb8dbb3b4911cb2ecb548acd672c3</title>
<path fill="none" stroke="black" d="M188.58,-180.1C195.99,-188.3 204.19,-198.28 211.02,-207.36"/>
<polygon fill="black" stroke="black" points="208.36,-209.66 217.07,-215.7 214.03,-205.55 208.36,-209.66"/>
<g id="a_edge19&#45;headlabel"><a xlink:href="dir_000090_000095.html" target="_top" xlink:title="32">
<text text-anchor="middle" x="203.96" y="-205.92" font-family="Helvetica,sans-Serif" font-size="10.00">32</text>
</a>
</g>
</g>
</g>
</svg>
