<?xml version="1.0" encoding="UTF-8" standalone="no"?>
<!DOCTYPE svg PUBLIC "-//W3C//DTD SVG 1.1//EN"
 "http://www.w3.org/Graphics/SVG/1.1/DTD/svg11.dtd">
<!-- Generated by graphviz version 2.43.0 (0)
 -->
<!-- Title: drake/manipulation/kinova_jaco Pages: 1 -->
<svg width="120pt" height="223pt"
 viewBox="0.00 0.00 119.50 223.00" xmlns="http://www.w3.org/2000/svg" xmlns:xlink="http://www.w3.org/1999/xlink">
<g id="graph0" class="graph" transform="scale(1 1) rotate(0) translate(4 219)">
<title>drake/manipulation/kinova_jaco</title>
<polygon fill="white" stroke="transparent" points="-4,4 -4,-219 115.5,-219 115.5,4 -4,4"/>
<g id="clust1" class="cluster">
<title>clusterdir_758aa030403a70af025108ac41d12d0d</title>
<g id="a_clust1"><a xlink:href="dir_758aa030403a70af025108ac41d12d0d.html" target="_top" xlink:title="manipulation">
<polygon fill="#ddddee" stroke="black" points="13.5,-136 13.5,-207 103.5,-207 103.5,-136 13.5,-136"/>
<text text-anchor="middle" x="58.5" y="-195" font-family="Helvetica,sans-Serif" font-size="10.00">manipulation</text>
</a>
</g>
</g>
<!-- dir_c5b002a888c3529d6d8c26d354f8bc1a -->
<g id="node1" class="node">
<title>dir_c5b002a888c3529d6d8c26d354f8bc1a</title>
<g id="a_node1"><a xlink:href="dir_c5b002a888c3529d6d8c26d354f8bc1a.html" target="_top" xlink:title="kinova_jaco">
<polygon fill="#eeeeff" stroke="black" points="96,-180 21,-180 21,-144 96,-144 96,-180"/>
<text text-anchor="middle" x="58.5" y="-159.5" font-family="Helvetica,sans-Serif" font-size="10.00">kinova_jaco</text>
</a>
</g>
</g>
<!-- dir_a36da230f0956f48b11c85f7d599788f -->
<g id="node2" class="node">
<title>dir_a36da230f0956f48b11c85f7d599788f</title>
<g id="a_node2"><a xlink:href="dir_a36da230f0956f48b11c85f7d599788f.html" target="_top" xlink:title="common">
<polygon fill="white" stroke="red" points="59,-108 0,-108 0,-72 59,-72 59,-108"/>
<text text-anchor="middle" x="29.5" y="-87.5" font-family="Helvetica,sans-Serif" font-size="10.00">common</text>
</a>
</g>
</g>
<!-- dir_c5b002a888c3529d6d8c26d354f8bc1a&#45;&gt;dir_a36da230f0956f48b11c85f7d599788f -->
<g id="edge1" class="edge">
<title>dir_c5b002a888c3529d6d8c26d354f8bc1a&#45;&gt;dir_a36da230f0956f48b11c85f7d599788f</title>
<path fill="none" stroke="black" d="M51.33,-143.7C48.07,-135.81 44.13,-126.3 40.5,-117.55"/>
<polygon fill="black" stroke="black" points="43.65,-116 36.59,-108.1 37.18,-118.68 43.65,-116"/>
<g id="a_edge1&#45;headlabel"><a xlink:href="dir_000065_000015.html" target="_top" xlink:title="5">
<text text-anchor="middle" x="47.65" y="-115.74" font-family="Helvetica,sans-Serif" font-size="10.00">5</text>
</a>
</g>
</g>
<!-- dir_b7a0e33b407baa23d8a077e33033c988 -->
<g id="node3" class="node">
<title>dir_b7a0e33b407baa23d8a077e33033c988</title>
<g id="a_node3"><a xlink:href="dir_b7a0e33b407baa23d8a077e33033c988.html" target="_top" xlink:title="systems">
<polygon fill="white" stroke="red" points="58.5,-36 0.5,-36 0.5,0 58.5,0 58.5,-36"/>
<text text-anchor="middle" x="29.5" y="-15.5" font-family="Helvetica,sans-Serif" font-size="10.00">systems</text>
</a>
</g>
</g>
<!-- dir_c5b002a888c3529d6d8c26d354f8bc1a&#45;&gt;dir_b7a0e33b407baa23d8a077e33033c988 -->
<g id="edge2" class="edge">
<title>dir_c5b002a888c3529d6d8c26d354f8bc1a&#45;&gt;dir_b7a0e33b407baa23d8a077e33033c988</title>
<path fill="none" stroke="black" d="M64.63,-143.83C70.19,-125.58 76.4,-96.08 68.5,-72 65.19,-61.91 59.13,-52.15 52.77,-43.82"/>
<polygon fill="black" stroke="black" points="55.42,-41.54 46.39,-36.01 50,-45.97 55.42,-41.54"/>
<g id="a_edge2&#45;headlabel"><a xlink:href="dir_000065_000080.html" target="_top" xlink:title="4">
<text text-anchor="middle" x="59.9" y="-40.03" font-family="Helvetica,sans-Serif" font-size="10.00">4</text>
</a>
</g>
</g>
<!-- dir_a36da230f0956f48b11c85f7d599788f&#45;&gt;dir_b7a0e33b407baa23d8a077e33033c988 -->
<g id="edge3" class="edge">
<title>dir_a36da230f0956f48b11c85f7d599788f&#45;&gt;dir_b7a0e33b407baa23d8a077e33033c988</title>
<path fill="none" stroke="black" d="M23.58,-71.7C22.79,-63.98 22.56,-54.71 22.9,-46.11"/>
<polygon fill="black" stroke="black" points="26.4,-46.32 23.6,-36.1 19.42,-45.84 26.4,-46.32"/>
<g id="a_edge3&#45;headlabel"><a xlink:href="dir_000015_000080.html" target="_top" xlink:title="1">
<text text-anchor="middle" x="28.98" y="-47.61" font-family="Helvetica,sans-Serif" font-size="10.00">1</text>
</a>
</g>
</g>
<!-- dir_b7a0e33b407baa23d8a077e33033c988&#45;&gt;dir_a36da230f0956f48b11c85f7d599788f -->
<g id="edge4" class="edge">
<title>dir_b7a0e33b407baa23d8a077e33033c988&#45;&gt;dir_a36da230f0956f48b11c85f7d599788f</title>
<path fill="none" stroke="black" d="M35.4,-36.1C36.2,-43.79 36.44,-53.05 36.1,-61.67"/>
<polygon fill="black" stroke="black" points="32.61,-61.48 35.42,-71.7 39.59,-61.96 32.61,-61.48"/>
<g id="a_edge4&#45;headlabel"><a xlink:href="dir_000080_000015.html" target="_top" xlink:title="390">
<text text-anchor="middle" x="30.02" y="-55.2" font-family="Helvetica,sans-Serif" font-size="10.00">390</text>
</a>
</g>
</g>
</g>
</svg>
