<?xml version="1.0" encoding="UTF-8" standalone="no"?>
<!DOCTYPE svg PUBLIC "-//W3C//DTD SVG 1.1//EN"
 "http://www.w3.org/Graphics/SVG/1.1/DTD/svg11.dtd">
<!-- Generated by graphviz version 2.43.0 (0)
 -->
<!-- Title: drake/examples/manipulation_station Pages: 1 -->
<svg width="335pt" height="439pt"
 viewBox="0.00 0.00 335.12 439.00" xmlns="http://www.w3.org/2000/svg" xmlns:xlink="http://www.w3.org/1999/xlink">
<g id="graph0" class="graph" transform="scale(1 1) rotate(0) translate(4 435)">
<title>drake/examples/manipulation_station</title>
<polygon fill="white" stroke="transparent" points="-4,4 -4,-435 331.12,-435 331.12,4 -4,4"/>
<g id="clust1" class="cluster">
<title>clusterdir_bf85a0c13984f214f436b2edc519c6dd</title>
<g id="a_clust1"><a xlink:href="dir_bf85a0c13984f214f436b2edc519c6dd.html" target="_top" xlink:title="examples">
<polygon fill="#ddddee" stroke="black" points="69,-352 69,-423 205,-423 205,-352 69,-352"/>
<text text-anchor="middle" x="137" y="-411" font-family="Helvetica,sans-Serif" font-size="10.00">examples</text>
</a>
</g>
</g>
<!-- dir_970ffa4dc1494551190363316edbd789 -->
<g id="node1" class="node">
<title>dir_970ffa4dc1494551190363316edbd789</title>
<g id="a_node1"><a xlink:href="dir_970ffa4dc1494551190363316edbd789.html" target="_top" xlink:title="manipulation_station">
<polygon fill="#eeeeff" stroke="black" points="197,-396 77,-396 77,-360 197,-360 197,-396"/>
<text text-anchor="middle" x="137" y="-375.5" font-family="Helvetica,sans-Serif" font-size="10.00">manipulation_station</text>
</a>
</g>
</g>
<!-- dir_39b8b3c6654246a9c12332c930bc7d3f -->
<g id="node2" class="node">
<title>dir_39b8b3c6654246a9c12332c930bc7d3f</title>
<g id="a_node2"><a xlink:href="dir_39b8b3c6654246a9c12332c930bc7d3f.html" target="_top" xlink:title="multibody">
<polygon fill="white" stroke="red" points="232,-324 166,-324 166,-288 232,-288 232,-324"/>
<text text-anchor="middle" x="199" y="-303.5" font-family="Helvetica,sans-Serif" font-size="10.00">multibody</text>
</a>
</g>
</g>
<!-- dir_970ffa4dc1494551190363316edbd789&#45;&gt;dir_39b8b3c6654246a9c12332c930bc7d3f -->
<g id="edge18" class="edge">
<title>dir_970ffa4dc1494551190363316edbd789&#45;&gt;dir_39b8b3c6654246a9c12332c930bc7d3f</title>
<path fill="none" stroke="black" d="M152.33,-359.7C159.76,-351.3 168.82,-341.07 176.98,-331.86"/>
<polygon fill="black" stroke="black" points="179.84,-333.91 183.85,-324.1 174.6,-329.27 179.84,-333.91"/>
<g id="a_edge18&#45;headlabel"><a xlink:href="dir_000025_000055.html" target="_top" xlink:title="2">
<text text-anchor="middle" x="179.58" y="-335.98" font-family="Helvetica,sans-Serif" font-size="10.00">2</text>
</a>
</g>
</g>
<!-- dir_fc0178d6978c9fa2cad6ef3e048a60a7 -->
<g id="node3" class="node">
<title>dir_fc0178d6978c9fa2cad6ef3e048a60a7</title>
<g id="a_node3"><a xlink:href="dir_fc0178d6978c9fa2cad6ef3e048a60a7.html" target="_top" xlink:title="math">
<polygon fill="none" stroke="black" points="176,-108 122,-108 122,-72 176,-72 176,-108"/>
<text text-anchor="middle" x="149" y="-87.5" font-family="Helvetica,sans-Serif" font-size="10.00">math</text>
</a>
</g>
</g>
<!-- dir_970ffa4dc1494551190363316edbd789&#45;&gt;dir_fc0178d6978c9fa2cad6ef3e048a60a7 -->
<g id="edge19" class="edge">
<title>dir_970ffa4dc1494551190363316edbd789&#45;&gt;dir_fc0178d6978c9fa2cad6ef3e048a60a7</title>
<path fill="none" stroke="black" d="M137.71,-359.97C139.72,-312.29 145.38,-177.18 147.84,-118.63"/>
<polygon fill="black" stroke="black" points="151.35,-118.44 148.27,-108.31 144.36,-118.15 151.35,-118.44"/>
<g id="a_edge19&#45;headlabel"><a xlink:href="dir_000025_000007.html" target="_top" xlink:title="1">
<text text-anchor="middle" x="154.04" y="-119.65" font-family="Helvetica,sans-Serif" font-size="10.00">1</text>
</a>
</g>
</g>
<!-- dir_3c3c25df5132fca4f15a988b4c2efab5 -->
<g id="node4" class="node">
<title>dir_3c3c25df5132fca4f15a988b4c2efab5</title>
<g id="a_node4"><a xlink:href="dir_3c3c25df5132fca4f15a988b4c2efab5.html" target="_top" xlink:title="lcm">
<polygon fill="none" stroke="black" points="306,-108 252,-108 252,-72 306,-72 306,-108"/>
<text text-anchor="middle" x="279" y="-87.5" font-family="Helvetica,sans-Serif" font-size="10.00">lcm</text>
</a>
</g>
</g>
<!-- dir_970ffa4dc1494551190363316edbd789&#45;&gt;dir_3c3c25df5132fca4f15a988b4c2efab5 -->
<g id="edge20" class="edge">
<title>dir_970ffa4dc1494551190363316edbd789&#45;&gt;dir_3c3c25df5132fca4f15a988b4c2efab5</title>
<path fill="none" stroke="black" d="M197.15,-360.5C219.84,-352.18 244.78,-340.31 264,-324 292.77,-299.58 298.6,-288.27 309,-252 322.35,-205.44 304.65,-149.54 291.31,-117.36"/>
<polygon fill="black" stroke="black" points="294.52,-115.97 287.34,-108.17 288.09,-118.74 294.52,-115.97"/>
<g id="a_edge20&#45;headlabel"><a xlink:href="dir_000025_000047.html" target="_top" xlink:title="2">
<text text-anchor="middle" x="298.55" y="-115.64" font-family="Helvetica,sans-Serif" font-size="10.00">2</text>
</a>
</g>
</g>
<!-- dir_a36da230f0956f48b11c85f7d599788f -->
<g id="node5" class="node">
<title>dir_a36da230f0956f48b11c85f7d599788f</title>
<g id="a_node5"><a xlink:href="dir_a36da230f0956f48b11c85f7d599788f.html" target="_top" xlink:title="common">
<polygon fill="white" stroke="red" points="178.5,-36 119.5,-36 119.5,0 178.5,0 178.5,-36"/>
<text text-anchor="middle" x="149" y="-15.5" font-family="Helvetica,sans-Serif" font-size="10.00">common</text>
</a>
</g>
</g>
<!-- dir_970ffa4dc1494551190363316edbd789&#45;&gt;dir_a36da230f0956f48b11c85f7d599788f -->
<g id="edge21" class="edge">
<title>dir_970ffa4dc1494551190363316edbd789&#45;&gt;dir_a36da230f0956f48b11c85f7d599788f</title>
<path fill="none" stroke="black" d="M101.72,-359.81C61.13,-337.26 0,-293.58 0,-235 0,-235 0,-235 0,-161 0,-100.12 66,-57.37 110.15,-35.6"/>
<polygon fill="black" stroke="black" points="111.69,-38.74 119.21,-31.27 108.67,-32.42 111.69,-38.74"/>
<g id="a_edge21&#45;headlabel"><a xlink:href="dir_000025_000006.html" target="_top" xlink:title="1">
<text text-anchor="middle" x="109.67" y="-40.35" font-family="Helvetica,sans-Serif" font-size="10.00">1</text>
</a>
</g>
</g>
<!-- dir_d739e095b49d8b72164589d00310017d -->
<g id="node6" class="node">
<title>dir_d739e095b49d8b72164589d00310017d</title>
<g id="a_node6"><a xlink:href="dir_d739e095b49d8b72164589d00310017d.html" target="_top" xlink:title="geometry">
<polygon fill="white" stroke="red" points="300,-252 236,-252 236,-216 300,-216 300,-252"/>
<text text-anchor="middle" x="268" y="-231.5" font-family="Helvetica,sans-Serif" font-size="10.00">geometry</text>
</a>
</g>
</g>
<!-- dir_970ffa4dc1494551190363316edbd789&#45;&gt;dir_d739e095b49d8b72164589d00310017d -->
<g id="edge22" class="edge">
<title>dir_970ffa4dc1494551190363316edbd789&#45;&gt;dir_d739e095b49d8b72164589d00310017d</title>
<path fill="none" stroke="black" d="M189.68,-359.99C208.15,-351.71 227.6,-340 241,-324 255.61,-306.55 262.31,-281.35 265.39,-262.21"/>
<polygon fill="black" stroke="black" points="268.86,-262.68 266.76,-252.29 261.93,-261.72 268.86,-262.68"/>
<g id="a_edge22&#45;headlabel"><a xlink:href="dir_000025_000038.html" target="_top" xlink:title="2">
<text text-anchor="middle" x="271.18" y="-264.13" font-family="Helvetica,sans-Serif" font-size="10.00">2</text>
</a>
</g>
</g>
<!-- dir_b7a0e33b407baa23d8a077e33033c988 -->
<g id="node7" class="node">
<title>dir_b7a0e33b407baa23d8a077e33033c988</title>
<g id="a_node7"><a xlink:href="dir_b7a0e33b407baa23d8a077e33033c988.html" target="_top" xlink:title="systems">
<polygon fill="white" stroke="red" points="233,-180 175,-180 175,-144 233,-144 233,-180"/>
<text text-anchor="middle" x="204" y="-159.5" font-family="Helvetica,sans-Serif" font-size="10.00">systems</text>
</a>
</g>
</g>
<!-- dir_970ffa4dc1494551190363316edbd789&#45;&gt;dir_b7a0e33b407baa23d8a077e33033c988 -->
<g id="edge23" class="edge">
<title>dir_970ffa4dc1494551190363316edbd789&#45;&gt;dir_b7a0e33b407baa23d8a077e33033c988</title>
<path fill="none" stroke="black" d="M140.14,-359.76C143.6,-341.69 149.66,-312.58 157,-288 167.33,-253.44 182.46,-214.72 192.74,-189.67"/>
<polygon fill="black" stroke="black" points="196.1,-190.71 196.69,-180.13 189.63,-188.03 196.1,-190.71"/>
<g id="a_edge23&#45;headlabel"><a xlink:href="dir_000025_000083.html" target="_top" xlink:title="3">
<text text-anchor="middle" x="197.35" y="-192.62" font-family="Helvetica,sans-Serif" font-size="10.00">3</text>
</a>
</g>
</g>
<!-- dir_39b8b3c6654246a9c12332c930bc7d3f&#45;&gt;dir_fc0178d6978c9fa2cad6ef3e048a60a7 -->
<g id="edge1" class="edge">
<title>dir_39b8b3c6654246a9c12332c930bc7d3f&#45;&gt;dir_fc0178d6978c9fa2cad6ef3e048a60a7</title>
<path fill="none" stroke="black" d="M194.03,-287.7C187.21,-263.67 174.8,-218.74 166,-180 161.32,-159.42 156.88,-135.97 153.71,-118.31"/>
<polygon fill="black" stroke="black" points="157.1,-117.37 151.91,-108.14 150.21,-118.59 157.1,-117.37"/>
<g id="a_edge1&#45;headlabel"><a xlink:href="dir_000055_000007.html" target="_top" xlink:title="37">
<text text-anchor="middle" x="160.52" y="-117.92" font-family="Helvetica,sans-Serif" font-size="10.00">37</text>
</a>
</g>
</g>
<!-- dir_39b8b3c6654246a9c12332c930bc7d3f&#45;&gt;dir_a36da230f0956f48b11c85f7d599788f -->
<g id="edge2" class="edge">
<title>dir_39b8b3c6654246a9c12332c930bc7d3f&#45;&gt;dir_a36da230f0956f48b11c85f7d599788f</title>
<path fill="none" stroke="black" d="M188.39,-287.93C168.52,-254.79 126.49,-178.75 113,-108 110,-92.28 108.3,-87.29 113,-72 116.01,-62.22 121.51,-52.62 127.32,-44.33"/>
<polygon fill="black" stroke="black" points="130.19,-46.33 133.39,-36.23 124.59,-42.13 130.19,-46.33"/>
<g id="a_edge2&#45;headlabel"><a xlink:href="dir_000055_000006.html" target="_top" xlink:title="322">
<text text-anchor="middle" x="130.31" y="-48.41" font-family="Helvetica,sans-Serif" font-size="10.00">322</text>
</a>
</g>
</g>
<!-- dir_39b8b3c6654246a9c12332c930bc7d3f&#45;&gt;dir_d739e095b49d8b72164589d00310017d -->
<g id="edge3" class="edge">
<title>dir_39b8b3c6654246a9c12332c930bc7d3f&#45;&gt;dir_d739e095b49d8b72164589d00310017d</title>
<path fill="none" stroke="black" d="M210.14,-287.7C217.77,-279.05 228.04,-268.45 237.87,-259.03"/>
<polygon fill="black" stroke="black" points="240.35,-261.5 245.24,-252.1 235.56,-256.4 240.35,-261.5"/>
<g id="a_edge3&#45;headlabel"><a xlink:href="dir_000055_000038.html" target="_top" xlink:title="30">
<text text-anchor="middle" x="239.67" y="-263.53" font-family="Helvetica,sans-Serif" font-size="10.00">30</text>
</a>
</g>
</g>
<!-- dir_39b8b3c6654246a9c12332c930bc7d3f&#45;&gt;dir_b7a0e33b407baa23d8a077e33033c988 -->
<g id="edge4" class="edge">
<title>dir_39b8b3c6654246a9c12332c930bc7d3f&#45;&gt;dir_b7a0e33b407baa23d8a077e33033c988</title>
<path fill="none" stroke="black" d="M195.02,-287.87C193.31,-263.67 194.59,-219.21 197.58,-190.39"/>
<polygon fill="black" stroke="black" points="201.08,-190.54 198.8,-180.19 194.13,-189.7 201.08,-190.54"/>
<g id="a_edge4&#45;headlabel"><a xlink:href="dir_000055_000083.html" target="_top" xlink:title="49">
<text text-anchor="middle" x="203.47" y="-191.94" font-family="Helvetica,sans-Serif" font-size="10.00">49</text>
</a>
</g>
</g>
<!-- dir_fc0178d6978c9fa2cad6ef3e048a60a7&#45;&gt;dir_a36da230f0956f48b11c85f7d599788f -->
<g id="edge5" class="edge">
<title>dir_fc0178d6978c9fa2cad6ef3e048a60a7&#45;&gt;dir_a36da230f0956f48b11c85f7d599788f</title>
<path fill="none" stroke="black" d="M143.08,-71.7C142.29,-63.98 142.06,-54.71 142.4,-46.11"/>
<polygon fill="black" stroke="black" points="145.9,-46.32 143.1,-36.1 138.92,-45.84 145.9,-46.32"/>
<g id="a_edge5&#45;headlabel"><a xlink:href="dir_000007_000006.html" target="_top" xlink:title="61">
<text text-anchor="middle" x="148.48" y="-47.61" font-family="Helvetica,sans-Serif" font-size="10.00">61</text>
</a>
</g>
</g>
<!-- dir_3c3c25df5132fca4f15a988b4c2efab5&#45;&gt;dir_a36da230f0956f48b11c85f7d599788f -->
<g id="edge6" class="edge">
<title>dir_3c3c25df5132fca4f15a988b4c2efab5&#45;&gt;dir_a36da230f0956f48b11c85f7d599788f</title>
<path fill="none" stroke="black" d="M251.75,-74.33C233.2,-64.34 208.37,-50.97 187.77,-39.88"/>
<polygon fill="black" stroke="black" points="189.4,-36.78 178.94,-35.12 186.08,-42.94 189.4,-36.78"/>
<g id="a_edge6&#45;headlabel"><a xlink:href="dir_000047_000006.html" target="_top" xlink:title="6">
<text text-anchor="middle" x="193.91" y="-33.48" font-family="Helvetica,sans-Serif" font-size="10.00">6</text>
</a>
</g>
</g>
<!-- dir_a36da230f0956f48b11c85f7d599788f&#45;&gt;dir_fc0178d6978c9fa2cad6ef3e048a60a7 -->
<g id="edge7" class="edge">
<title>dir_a36da230f0956f48b11c85f7d599788f&#45;&gt;dir_fc0178d6978c9fa2cad6ef3e048a60a7</title>
<path fill="none" stroke="black" d="M154.9,-36.1C155.7,-43.79 155.94,-53.05 155.6,-61.67"/>
<polygon fill="black" stroke="black" points="152.11,-61.48 154.92,-71.7 159.09,-61.96 152.11,-61.48"/>
<g id="a_edge7&#45;headlabel"><a xlink:href="dir_000006_000007.html" target="_top" xlink:title="6">
<text text-anchor="middle" x="149.52" y="-55.2" font-family="Helvetica,sans-Serif" font-size="10.00">6</text>
</a>
</g>
</g>
<!-- dir_d739e095b49d8b72164589d00310017d&#45;&gt;dir_39b8b3c6654246a9c12332c930bc7d3f -->
<g id="edge8" class="edge">
<title>dir_d739e095b49d8b72164589d00310017d&#45;&gt;dir_39b8b3c6654246a9c12332c930bc7d3f</title>
<path fill="none" stroke="black" d="M257.04,-252.1C249.44,-260.72 239.19,-271.32 229.36,-280.76"/>
<polygon fill="black" stroke="black" points="226.86,-278.3 221.97,-287.7 231.66,-283.4 226.86,-278.3"/>
<g id="a_edge8&#45;headlabel"><a xlink:href="dir_000038_000055.html" target="_top" xlink:title="2">
<text text-anchor="middle" x="227.54" y="-271.27" font-family="Helvetica,sans-Serif" font-size="10.00">2</text>
</a>
</g>
</g>
<!-- dir_d739e095b49d8b72164589d00310017d&#45;&gt;dir_fc0178d6978c9fa2cad6ef3e048a60a7 -->
<g id="edge9" class="edge">
<title>dir_d739e095b49d8b72164589d00310017d&#45;&gt;dir_fc0178d6978c9fa2cad6ef3e048a60a7</title>
<path fill="none" stroke="black" d="M266.8,-215.86C264.65,-196.54 258.66,-165.1 242,-144 227.51,-125.66 204.82,-112.55 185.48,-103.96"/>
<polygon fill="black" stroke="black" points="186.59,-100.63 176.01,-99.98 183.88,-107.08 186.59,-100.63"/>
<g id="a_edge9&#45;headlabel"><a xlink:href="dir_000038_000007.html" target="_top" xlink:title="34">
<text text-anchor="middle" x="191" y="-96.9" font-family="Helvetica,sans-Serif" font-size="10.00">34</text>
</a>
</g>
</g>
<!-- dir_d739e095b49d8b72164589d00310017d&#45;&gt;dir_3c3c25df5132fca4f15a988b4c2efab5 -->
<g id="edge10" class="edge">
<title>dir_d739e095b49d8b72164589d00310017d&#45;&gt;dir_3c3c25df5132fca4f15a988b4c2efab5</title>
<path fill="none" stroke="black" d="M270.65,-215.86C272.15,-205.5 273.94,-192.02 275,-180 276.83,-159.33 277.84,-135.88 278.39,-118.25"/>
<polygon fill="black" stroke="black" points="281.89,-118.19 278.67,-108.09 274.89,-117.99 281.89,-118.19"/>
<g id="a_edge10&#45;headlabel"><a xlink:href="dir_000038_000047.html" target="_top" xlink:title="1">
<text text-anchor="middle" x="284.63" y="-119.36" font-family="Helvetica,sans-Serif" font-size="10.00">1</text>
</a>
</g>
</g>
<!-- dir_d739e095b49d8b72164589d00310017d&#45;&gt;dir_a36da230f0956f48b11c85f7d599788f -->
<g id="edge11" class="edge">
<title>dir_d739e095b49d8b72164589d00310017d&#45;&gt;dir_a36da230f0956f48b11c85f7d599788f</title>
<path fill="none" stroke="black" d="M281.9,-215.82C305.5,-184.43 347.8,-116.91 315,-72 286.25,-32.64 227.95,-21.83 188.67,-19.22"/>
<polygon fill="black" stroke="black" points="188.8,-15.73 178.63,-18.71 188.44,-22.72 188.8,-15.73"/>
<g id="a_edge11&#45;headlabel"><a xlink:href="dir_000038_000006.html" target="_top" xlink:title="147">
<text text-anchor="middle" x="192.53" y="-10.58" font-family="Helvetica,sans-Serif" font-size="10.00">147</text>
</a>
</g>
</g>
<!-- dir_d739e095b49d8b72164589d00310017d&#45;&gt;dir_b7a0e33b407baa23d8a077e33033c988 -->
<g id="edge12" class="edge">
<title>dir_d739e095b49d8b72164589d00310017d&#45;&gt;dir_b7a0e33b407baa23d8a077e33033c988</title>
<path fill="none" stroke="black" d="M246.26,-215.7C237.73,-207.3 228.18,-197.07 220.24,-187.86"/>
<polygon fill="black" stroke="black" points="222.85,-185.52 213.74,-180.1 217.48,-190.02 222.85,-185.52"/>
<g id="a_edge12&#45;headlabel"><a xlink:href="dir_000038_000083.html" target="_top" xlink:title="19">
<text text-anchor="middle" x="227.33" y="-183.96" font-family="Helvetica,sans-Serif" font-size="10.00">19</text>
</a>
</g>
</g>
<!-- dir_b7a0e33b407baa23d8a077e33033c988&#45;&gt;dir_39b8b3c6654246a9c12332c930bc7d3f -->
<g id="edge13" class="edge">
<title>dir_b7a0e33b407baa23d8a077e33033c988&#45;&gt;dir_39b8b3c6654246a9c12332c930bc7d3f</title>
<path fill="none" stroke="black" d="M207.99,-180.19C209.69,-204.42 208.41,-248.89 205.42,-277.68"/>
<polygon fill="black" stroke="black" points="201.91,-277.52 204.19,-287.87 208.86,-278.36 201.91,-277.52"/>
<g id="a_edge13&#45;headlabel"><a xlink:href="dir_000083_000055.html" target="_top" xlink:title="9">
<text text-anchor="middle" x="199.52" y="-271.12" font-family="Helvetica,sans-Serif" font-size="10.00">9</text>
</a>
</g>
</g>
<!-- dir_b7a0e33b407baa23d8a077e33033c988&#45;&gt;dir_fc0178d6978c9fa2cad6ef3e048a60a7 -->
<g id="edge14" class="edge">
<title>dir_b7a0e33b407baa23d8a077e33033c988&#45;&gt;dir_fc0178d6978c9fa2cad6ef3e048a60a7</title>
<path fill="none" stroke="black" d="M190.4,-143.7C183.88,-135.39 175.93,-125.28 168.75,-116.14"/>
<polygon fill="black" stroke="black" points="171.37,-113.81 162.44,-108.1 165.87,-118.13 171.37,-113.81"/>
<g id="a_edge14&#45;headlabel"><a xlink:href="dir_000083_000007.html" target="_top" xlink:title="7">
<text text-anchor="middle" x="175.82" y="-112.38" font-family="Helvetica,sans-Serif" font-size="10.00">7</text>
</a>
</g>
</g>
<!-- dir_b7a0e33b407baa23d8a077e33033c988&#45;&gt;dir_3c3c25df5132fca4f15a988b4c2efab5 -->
<g id="edge15" class="edge">
<title>dir_b7a0e33b407baa23d8a077e33033c988&#45;&gt;dir_3c3c25df5132fca4f15a988b4c2efab5</title>
<path fill="none" stroke="black" d="M222.54,-143.7C231.8,-135.05 243.16,-124.45 253.26,-115.03"/>
<polygon fill="black" stroke="black" points="255.75,-117.49 260.67,-108.1 250.98,-112.37 255.75,-117.49"/>
<g id="a_edge15&#45;headlabel"><a xlink:href="dir_000083_000047.html" target="_top" xlink:title="5">
<text text-anchor="middle" x="255.06" y="-119.51" font-family="Helvetica,sans-Serif" font-size="10.00">5</text>
</a>
</g>
</g>
<!-- dir_b7a0e33b407baa23d8a077e33033c988&#45;&gt;dir_a36da230f0956f48b11c85f7d599788f -->
<g id="edge16" class="edge">
<title>dir_b7a0e33b407baa23d8a077e33033c988&#45;&gt;dir_a36da230f0956f48b11c85f7d599788f</title>
<path fill="none" stroke="black" d="M202.3,-143.67C200.05,-125.29 195.11,-95.69 185,-72 180.92,-62.43 175.01,-52.78 169.16,-44.39"/>
<polygon fill="black" stroke="black" points="171.88,-42.17 163.16,-36.15 166.22,-46.29 171.88,-42.17"/>
<g id="a_edge16&#45;headlabel"><a xlink:href="dir_000083_000006.html" target="_top" xlink:title="372">
<text text-anchor="middle" x="176.29" y="-40.91" font-family="Helvetica,sans-Serif" font-size="10.00">372</text>
</a>
</g>
</g>
<!-- dir_b7a0e33b407baa23d8a077e33033c988&#45;&gt;dir_d739e095b49d8b72164589d00310017d -->
<g id="edge17" class="edge">
<title>dir_b7a0e33b407baa23d8a077e33033c988&#45;&gt;dir_d739e095b49d8b72164589d00310017d</title>
<path fill="none" stroke="black" d="M225.53,-180.1C234.06,-188.47 243.61,-198.69 251.57,-207.92"/>
<polygon fill="black" stroke="black" points="248.99,-210.28 258.1,-215.7 254.35,-205.79 248.99,-210.28"/>
<g id="a_edge17&#45;headlabel"><a xlink:href="dir_000083_000038.html" target="_top" xlink:title="4">
<text text-anchor="middle" x="244.5" y="-206.85" font-family="Helvetica,sans-Serif" font-size="10.00">4</text>
</a>
</g>
</g>
</g>
</svg>
