<?xml version="1.0" encoding="UTF-8" standalone="no"?>
<!DOCTYPE svg PUBLIC "-//W3C//DTD SVG 1.1//EN"
 "http://www.w3.org/Graphics/SVG/1.1/DTD/svg11.dtd">
<!-- Generated by graphviz version 2.43.0 (0)
 -->
<!-- Title: drake/examples/multibody Pages: 1 -->
<!--zoomable 447 -->
<svg id="main" version="1.1" xmlns="http://www.w3.org/2000/svg" xmlns:xlink="http://www.w3.org/1999/xlink" xml:space="preserve" onload="init(evt)">
<style type="text/css"><![CDATA[
.edge:hover path { stroke: red; }
.edge:hover polygon { stroke: red; fill: red; }
]]></style>
<script type="text/javascript"><![CDATA[
var edges = document.getElementsByTagName('g');
if (edges && edges.length) {
  for (var i=0;i<edges.length;i++) {
    if (edges[i].id.substr(0,4)=='edge') {
      edges[i].setAttribute('class','edge');
    }
  }
}
]]></script>
        <defs>
                <circle id="rim" cx="0" cy="0" r="7"/>
                <circle id="rim2" cx="0" cy="0" r="3.5"/>
                <g id="zoomPlus">
                        <use xlink:href="#rim" fill="#404040">
                                <set attributeName="fill" to="#808080" begin="zoomplus.mouseover" end="zoomplus.mouseout"/>
                        </use>
                        <path d="M-4,0h8M0,-4v8" fill="none" stroke="white" stroke-width="1.5" pointer-events="none"/>
                </g>
                <g id="zoomMin">
                        <use xlink:href="#rim" fill="#404040">
                                <set attributeName="fill" to="#808080" begin="zoomminus.mouseover" end="zoomminus.mouseout"/>
                        </use>
                        <path d="M-4,0h8" fill="none" stroke="white" stroke-width="1.5" pointer-events="none"/>
                </g>
                <g id="dirArrow">
                        <path fill="none" stroke="white" stroke-width="1.5" d="M0,-3.0v7 M-2.5,-0.5L0,-3.0L2.5,-0.5"/>
                </g>
               <g id="resetDef">
                       <use xlink:href="#rim2" fill="#404040">
                               <set attributeName="fill" to="#808080" begin="reset.mouseover" end="reset.mouseout"/>
                       </use>
               </g>
        </defs>

<script type="text/javascript">
var viewWidth = 565;
var viewHeight = 447;
var sectionId = 'dynsection-0';
</script>
<script xlink:href="svgpan.js"/>
<svg id="graph" class="graph">
<g id="viewport">
<title>drake/examples/multibody</title>
<polygon fill="white" stroke="transparent" points="-4,4 -4,-443 561,-443 561,4 -4,4"/>
<g id="clust1" class="cluster">
<title>clusterdir_bf85a0c13984f214f436b2edc519c6dd</title>
<g id="a_clust1"><a xlink:href="dir_bf85a0c13984f214f436b2edc519c6dd.html" target="_top" xlink:title="examples">
<polygon fill="#ddddee" stroke="black" points="8,-344 8,-431 549,-431 549,-344 8,-344"/>
<text text-anchor="middle" x="278.5" y="-419" font-family="Helvetica,sans-Serif" font-size="10.00">examples</text>
</a>
</g>
</g>
<g id="clust2" class="cluster">
<title>clusterdir_9acdd6771460017440c69ee654743722</title>
<g id="a_clust2"><a xlink:href="dir_9acdd6771460017440c69ee654743722.html" target="_top">
<polygon fill="#eeeeff" stroke="black" points="16,-352 16,-404 541,-404 541,-352 16,-352"/>
</a>
</g>
</g>
<!-- dir_9acdd6771460017440c69ee654743722 -->
<g id="node1" class="node">
<title>dir_9acdd6771460017440c69ee654743722</title>
<text text-anchor="middle" x="500" y="-375.5" font-family="Helvetica,sans-Serif" font-size="10.00">multibody</text>
</g>
<!-- dir_bd5117fe6a8e4bc7c5a2296d920848cc -->
<g id="node2" class="node">
<title>dir_bd5117fe6a8e4bc7c5a2296d920848cc</title>
<g id="a_node2"><a xlink:href="dir_bd5117fe6a8e4bc7c5a2296d920848cc.html" target="_top" xlink:title="cart_pole">
<polygon fill="white" stroke="black" points="86,-396 24,-396 24,-360 86,-360 86,-396"/>
<text text-anchor="middle" x="55" y="-375.5" font-family="Helvetica,sans-Serif" font-size="10.00">cart_pole</text>
</a>
</g>
</g>
<!-- dir_a36da230f0956f48b11c85f7d599788f -->
<g id="node8" class="node">
<title>dir_a36da230f0956f48b11c85f7d599788f</title>
<g id="a_node8"><a xlink:href="dir_a36da230f0956f48b11c85f7d599788f.html" target="_top" xlink:title="common">
<polygon fill="white" stroke="red" points="221.5,-108 162.5,-108 162.5,-72 221.5,-72 221.5,-108"/>
<text text-anchor="middle" x="192" y="-87.5" font-family="Helvetica,sans-Serif" font-size="10.00">common</text>
</a>
</g>
</g>
<!-- dir_bd5117fe6a8e4bc7c5a2296d920848cc&#45;&gt;dir_a36da230f0956f48b11c85f7d599788f -->
<g id="edge22" class="edge">
<title>dir_bd5117fe6a8e4bc7c5a2296d920848cc&#45;&gt;dir_a36da230f0956f48b11c85f7d599788f</title>
<path fill="none" stroke="black" d="M62.07,-359.9C74.42,-330.29 100.99,-267.7 126,-216 142.77,-181.33 163.79,-142.19 177.54,-117.09"/>
<polygon fill="black" stroke="black" points="180.68,-118.64 182.43,-108.19 174.54,-115.27 180.68,-118.64"/>
<g id="a_edge22&#45;headlabel"><a xlink:href="dir_000042_000015.html" target="_top" xlink:title="5">
<text text-anchor="middle" x="181.43" y="-120.66" font-family="Helvetica,sans-Serif" font-size="10.00">5</text>
</a>
</g>
</g>
<!-- dir_b7a0e33b407baa23d8a077e33033c988 -->
<g id="node10" class="node">
<title>dir_b7a0e33b407baa23d8a077e33033c988</title>
<g id="a_node10"><a xlink:href="dir_b7a0e33b407baa23d8a077e33033c988.html" target="_top" xlink:title="systems">
<polygon fill="white" stroke="red" points="279,-180 221,-180 221,-144 279,-144 279,-180"/>
<text text-anchor="middle" x="250" y="-159.5" font-family="Helvetica,sans-Serif" font-size="10.00">systems</text>
</a>
</g>
</g>
<!-- dir_bd5117fe6a8e4bc7c5a2296d920848cc&#45;&gt;dir_b7a0e33b407baa23d8a077e33033c988 -->
<g id="edge23" class="edge">
<title>dir_bd5117fe6a8e4bc7c5a2296d920848cc&#45;&gt;dir_b7a0e33b407baa23d8a077e33033c988</title>
<path fill="none" stroke="black" d="M75.26,-359.94C85.8,-350.25 98.28,-337.39 107,-324 135.2,-280.71 115.5,-254.46 150,-216 166.42,-197.69 190.69,-184.62 211.21,-176.03"/>
<polygon fill="black" stroke="black" points="212.63,-179.24 220.63,-172.29 210.05,-172.73 212.63,-179.24"/>
<g id="a_edge23&#45;headlabel"><a xlink:href="dir_000042_000081.html" target="_top" xlink:title="1">
<text text-anchor="middle" x="210.34" y="-180.7" font-family="Helvetica,sans-Serif" font-size="10.00">1</text>
</a>
</g>
</g>
<!-- dir_bf625d68bd1475a25d499b8c243d6bcc -->
<g id="node3" class="node">
<title>dir_bf625d68bd1475a25d499b8c243d6bcc</title>
<g id="a_node3"><a xlink:href="dir_bf625d68bd1475a25d499b8c243d6bcc.html" target="_top" xlink:title="cylinder_with_multicontact">
<polygon fill="white" stroke="black" points="252.5,-396 103.5,-396 103.5,-360 252.5,-360 252.5,-396"/>
<text text-anchor="middle" x="178" y="-375.5" font-family="Helvetica,sans-Serif" font-size="10.00">cylinder_with_multicontact</text>
</a>
</g>
</g>
<!-- dir_39b8b3c6654246a9c12332c930bc7d3f -->
<g id="node6" class="node">
<title>dir_39b8b3c6654246a9c12332c930bc7d3f</title>
<g id="a_node6"><a xlink:href="dir_39b8b3c6654246a9c12332c930bc7d3f.html" target="_top" xlink:title="multibody">
<polygon fill="white" stroke="red" points="310,-324 244,-324 244,-288 310,-288 310,-324"/>
<text text-anchor="middle" x="277" y="-303.5" font-family="Helvetica,sans-Serif" font-size="10.00">multibody</text>
</a>
</g>
</g>
<!-- dir_bf625d68bd1475a25d499b8c243d6bcc&#45;&gt;dir_39b8b3c6654246a9c12332c930bc7d3f -->
<g id="edge11" class="edge">
<title>dir_bf625d68bd1475a25d499b8c243d6bcc&#45;&gt;dir_39b8b3c6654246a9c12332c930bc7d3f</title>
<path fill="none" stroke="black" d="M202.22,-359.88C214.92,-350.89 230.66,-339.76 244.42,-330.03"/>
<polygon fill="black" stroke="black" points="246.54,-332.82 252.69,-324.19 242.5,-327.11 246.54,-332.82"/>
<g id="a_edge11&#45;headlabel"><a xlink:href="dir_000043_000070.html" target="_top" xlink:title="1">
<text text-anchor="middle" x="245.25" y="-334.71" font-family="Helvetica,sans-Serif" font-size="10.00">1</text>
</a>
</g>
</g>
<!-- dir_d739e095b49d8b72164589d00310017d -->
<g id="node9" class="node">
<title>dir_d739e095b49d8b72164589d00310017d</title>
<g id="a_node9"><a xlink:href="dir_d739e095b49d8b72164589d00310017d.html" target="_top" xlink:title="geometry">
<polygon fill="white" stroke="red" points="223,-252 159,-252 159,-216 223,-216 223,-252"/>
<text text-anchor="middle" x="191" y="-231.5" font-family="Helvetica,sans-Serif" font-size="10.00">geometry</text>
</a>
</g>
</g>
<!-- dir_bf625d68bd1475a25d499b8c243d6bcc&#45;&gt;dir_d739e095b49d8b72164589d00310017d -->
<g id="edge12" class="edge">
<title>dir_bf625d68bd1475a25d499b8c243d6bcc&#45;&gt;dir_d739e095b49d8b72164589d00310017d</title>
<path fill="none" stroke="black" d="M179.57,-359.87C181.78,-335.67 185.85,-291.21 188.49,-262.39"/>
<polygon fill="black" stroke="black" points="192,-262.47 189.43,-252.19 185.03,-261.83 192,-262.47"/>
<g id="a_edge12&#45;headlabel"><a xlink:href="dir_000043_000053.html" target="_top" xlink:title="1">
<text text-anchor="middle" x="194.5" y="-263.81" font-family="Helvetica,sans-Serif" font-size="10.00">1</text>
</a>
</g>
</g>
<!-- dir_87df53e47a2464eeb38b48ec53548fdc -->
<g id="node4" class="node">
<title>dir_87df53e47a2464eeb38b48ec53548fdc</title>
<g id="a_node4"><a xlink:href="dir_87df53e47a2464eeb38b48ec53548fdc.html" target="_top" xlink:title="deformable">
<polygon fill="white" stroke="black" points="448.5,-396 375.5,-396 375.5,-360 448.5,-360 448.5,-396"/>
<text text-anchor="middle" x="412" y="-375.5" font-family="Helvetica,sans-Serif" font-size="10.00">deformable</text>
</a>
</g>
</g>
<!-- dir_87df53e47a2464eeb38b48ec53548fdc&#45;&gt;dir_39b8b3c6654246a9c12332c930bc7d3f -->
<g id="edge13" class="edge">
<title>dir_87df53e47a2464eeb38b48ec53548fdc&#45;&gt;dir_39b8b3c6654246a9c12332c930bc7d3f</title>
<path fill="none" stroke="black" d="M390.21,-359.82C382.77,-354.38 374.24,-348.59 366,-344 351.49,-335.92 334.85,-328.54 319.92,-322.54"/>
<polygon fill="black" stroke="black" points="320.98,-319.19 310.39,-318.8 318.42,-325.71 320.98,-319.19"/>
<g id="a_edge13&#45;headlabel"><a xlink:href="dir_000044_000070.html" target="_top" xlink:title="6">
<text text-anchor="middle" x="325.36" y="-315.36" font-family="Helvetica,sans-Serif" font-size="10.00">6</text>
</a>
</g>
</g>
<!-- dir_fc0178d6978c9fa2cad6ef3e048a60a7 -->
<g id="node7" class="node">
<title>dir_fc0178d6978c9fa2cad6ef3e048a60a7</title>
<g id="a_node7"><a xlink:href="dir_fc0178d6978c9fa2cad6ef3e048a60a7.html" target="_top" xlink:title="math">
<polygon fill="none" stroke="black" points="248,-36 194,-36 194,0 248,0 248,-36"/>
<text text-anchor="middle" x="221" y="-15.5" font-family="Helvetica,sans-Serif" font-size="10.00">math</text>
</a>
</g>
</g>
<!-- dir_87df53e47a2464eeb38b48ec53548fdc&#45;&gt;dir_fc0178d6978c9fa2cad6ef3e048a60a7 -->
<g id="edge14" class="edge">
<title>dir_87df53e47a2464eeb38b48ec53548fdc&#45;&gt;dir_fc0178d6978c9fa2cad6ef3e048a60a7</title>
<path fill="none" stroke="black" d="M413.78,-359.97C416.4,-333.34 421,-280.21 421,-235 421,-235 421,-235 421,-161 421,-82.06 316.14,-42.99 258.27,-27.44"/>
<polygon fill="black" stroke="black" points="258.95,-24 248.39,-24.89 257.2,-30.77 258.95,-24"/>
<g id="a_edge14&#45;headlabel"><a xlink:href="dir_000044_000018.html" target="_top" xlink:title="1">
<text text-anchor="middle" x="263.14" y="-19.65" font-family="Helvetica,sans-Serif" font-size="10.00">1</text>
</a>
</g>
</g>
<!-- dir_87df53e47a2464eeb38b48ec53548fdc&#45;&gt;dir_b7a0e33b407baa23d8a077e33033c988 -->
<g id="edge15" class="edge">
<title>dir_87df53e47a2464eeb38b48ec53548fdc&#45;&gt;dir_b7a0e33b407baa23d8a077e33033c988</title>
<path fill="none" stroke="black" d="M399.02,-359.85C370.58,-322.28 302.67,-232.58 269.25,-188.43"/>
<polygon fill="black" stroke="black" points="271.87,-186.09 263.05,-180.23 266.29,-190.32 271.87,-186.09"/>
<g id="a_edge15&#45;headlabel"><a xlink:href="dir_000044_000081.html" target="_top" xlink:title="1">
<text text-anchor="middle" x="276.3" y="-184.75" font-family="Helvetica,sans-Serif" font-size="10.00">1</text>
</a>
</g>
</g>
<!-- dir_474aa644b99dd5481f12728ecfc3f855 -->
<g id="node5" class="node">
<title>dir_474aa644b99dd5481f12728ecfc3f855</title>
<g id="a_node5"><a xlink:href="dir_474aa644b99dd5481f12728ecfc3f855.html" target="_top" xlink:title="rolling_sphere">
<polygon fill="white" stroke="black" points="357,-396 271,-396 271,-360 357,-360 357,-396"/>
<text text-anchor="middle" x="314" y="-375.5" font-family="Helvetica,sans-Serif" font-size="10.00">rolling_sphere</text>
</a>
</g>
</g>
<!-- dir_474aa644b99dd5481f12728ecfc3f855&#45;&gt;dir_39b8b3c6654246a9c12332c930bc7d3f -->
<g id="edge16" class="edge">
<title>dir_474aa644b99dd5481f12728ecfc3f855&#45;&gt;dir_39b8b3c6654246a9c12332c930bc7d3f</title>
<path fill="none" stroke="black" d="M304.85,-359.7C300.6,-351.64 295.44,-341.89 290.73,-332.98"/>
<polygon fill="black" stroke="black" points="293.81,-331.31 286.04,-324.1 287.62,-334.58 293.81,-331.31"/>
<g id="a_edge16&#45;headlabel"><a xlink:href="dir_000045_000070.html" target="_top" xlink:title="1">
<text text-anchor="middle" x="298" y="-330.66" font-family="Helvetica,sans-Serif" font-size="10.00">1</text>
</a>
</g>
</g>
<!-- dir_474aa644b99dd5481f12728ecfc3f855&#45;&gt;dir_d739e095b49d8b72164589d00310017d -->
<g id="edge17" class="edge">
<title>dir_474aa644b99dd5481f12728ecfc3f855&#45;&gt;dir_d739e095b49d8b72164589d00310017d</title>
<path fill="none" stroke="black" d="M287.11,-359.93C265.86,-346.29 239.11,-328.69 235,-324 219.02,-305.76 207.31,-280.68 200.01,-261.79"/>
<polygon fill="black" stroke="black" points="203.25,-260.46 196.5,-252.29 196.68,-262.88 203.25,-260.46"/>
<g id="a_edge17&#45;headlabel"><a xlink:href="dir_000045_000053.html" target="_top" xlink:title="1">
<text text-anchor="middle" x="207.15" y="-260.34" font-family="Helvetica,sans-Serif" font-size="10.00">1</text>
</a>
</g>
</g>
<!-- dir_39b8b3c6654246a9c12332c930bc7d3f&#45;&gt;dir_fc0178d6978c9fa2cad6ef3e048a60a7 -->
<g id="edge1" class="edge">
<title>dir_39b8b3c6654246a9c12332c930bc7d3f&#45;&gt;dir_fc0178d6978c9fa2cad6ef3e048a60a7</title>
<path fill="none" stroke="black" d="M292.18,-287.7C299.73,-277.94 308.07,-265.1 312,-252 317.32,-234.28 312.44,-156.88 308,-144 294.61,-105.15 265.41,-67.39 244.53,-43.73"/>
<polygon fill="black" stroke="black" points="247.1,-41.35 237.81,-36.26 241.9,-46.03 247.1,-41.35"/>
<g id="a_edge1&#45;headlabel"><a xlink:href="dir_000070_000018.html" target="_top" xlink:title="55">
<text text-anchor="middle" x="251.62" y="-39.62" font-family="Helvetica,sans-Serif" font-size="10.00">55</text>
</a>
</g>
</g>
<!-- dir_39b8b3c6654246a9c12332c930bc7d3f&#45;&gt;dir_a36da230f0956f48b11c85f7d599788f -->
<g id="edge2" class="edge">
<title>dir_39b8b3c6654246a9c12332c930bc7d3f&#45;&gt;dir_a36da230f0956f48b11c85f7d599788f</title>
<path fill="none" stroke="black" d="M284.21,-287.56C295.89,-256.32 315.06,-189.84 288,-144 275.72,-123.19 252.02,-109.99 231.25,-101.97"/>
<polygon fill="black" stroke="black" points="232.25,-98.61 221.65,-98.54 229.89,-105.2 232.25,-98.61"/>
<g id="a_edge2&#45;headlabel"><a xlink:href="dir_000070_000015.html" target="_top" xlink:title="468">
<text text-anchor="middle" x="236.59" y="-94.65" font-family="Helvetica,sans-Serif" font-size="10.00">468</text>
</a>
</g>
</g>
<!-- dir_39b8b3c6654246a9c12332c930bc7d3f&#45;&gt;dir_d739e095b49d8b72164589d00310017d -->
<g id="edge3" class="edge">
<title>dir_39b8b3c6654246a9c12332c930bc7d3f&#45;&gt;dir_d739e095b49d8b72164589d00310017d</title>
<path fill="none" stroke="black" d="M249.83,-287.7C238.2,-278.97 224.85,-268.24 213.75,-258.75"/>
<polygon fill="black" stroke="black" points="215.96,-256.03 206.12,-252.1 211.36,-261.31 215.96,-256.03"/>
<g id="a_edge3&#45;headlabel"><a xlink:href="dir_000070_000053.html" target="_top" xlink:title="46">
<text text-anchor="middle" x="220.53" y="-253.75" font-family="Helvetica,sans-Serif" font-size="10.00">46</text>
</a>
</g>
</g>
<!-- dir_39b8b3c6654246a9c12332c930bc7d3f&#45;&gt;dir_b7a0e33b407baa23d8a077e33033c988 -->
<g id="edge4" class="edge">
<title>dir_39b8b3c6654246a9c12332c930bc7d3f&#45;&gt;dir_b7a0e33b407baa23d8a077e33033c988</title>
<path fill="none" stroke="black" d="M269.16,-287.87C262,-263.67 253.25,-219.21 249.75,-190.39"/>
<polygon fill="black" stroke="black" points="253.2,-189.77 248.68,-180.19 246.24,-190.5 253.2,-189.77"/>
<g id="a_edge4&#45;headlabel"><a xlink:href="dir_000070_000081.html" target="_top" xlink:title="69">
<text text-anchor="middle" x="256.4" y="-190.55" font-family="Helvetica,sans-Serif" font-size="10.00">69</text>
</a>
</g>
</g>
<!-- dir_fc0178d6978c9fa2cad6ef3e048a60a7&#45;&gt;dir_a36da230f0956f48b11c85f7d599788f -->
<g id="edge5" class="edge">
<title>dir_fc0178d6978c9fa2cad6ef3e048a60a7&#45;&gt;dir_a36da230f0956f48b11c85f7d599788f</title>
<path fill="none" stroke="black" d="M219.81,-36.1C217.35,-44.04 213.59,-53.67 209.54,-62.51"/>
<polygon fill="black" stroke="black" points="206.3,-61.17 205.08,-71.7 212.6,-64.23 206.3,-61.17"/>
<g id="a_edge5&#45;headlabel"><a xlink:href="dir_000018_000015.html" target="_top" xlink:title="62">
<text text-anchor="middle" x="205.32" y="-54.2" font-family="Helvetica,sans-Serif" font-size="10.00">62</text>
</a>
</g>
</g>
<!-- dir_a36da230f0956f48b11c85f7d599788f&#45;&gt;dir_fc0178d6978c9fa2cad6ef3e048a60a7 -->
<g id="edge6" class="edge">
<title>dir_a36da230f0956f48b11c85f7d599788f&#45;&gt;dir_fc0178d6978c9fa2cad6ef3e048a60a7</title>
<path fill="none" stroke="black" d="M193.25,-71.7C195.73,-63.73 199.51,-54.1 203.56,-45.26"/>
<polygon fill="black" stroke="black" points="206.79,-46.63 208.02,-36.1 200.49,-43.56 206.79,-46.63"/>
<g id="a_edge6&#45;headlabel"><a xlink:href="dir_000015_000018.html" target="_top" xlink:title="6">
<text text-anchor="middle" x="207.77" y="-48.6" font-family="Helvetica,sans-Serif" font-size="10.00">6</text>
</a>
</g>
</g>
<!-- dir_d739e095b49d8b72164589d00310017d&#45;&gt;dir_39b8b3c6654246a9c12332c930bc7d3f -->
<g id="edge7" class="edge">
<title>dir_d739e095b49d8b72164589d00310017d&#45;&gt;dir_39b8b3c6654246a9c12332c930bc7d3f</title>
<path fill="none" stroke="black" d="M217.91,-252.1C229.51,-260.8 242.86,-271.52 254,-281.03"/>
<polygon fill="black" stroke="black" points="251.82,-283.77 261.66,-287.7 256.41,-278.49 251.82,-283.77"/>
<g id="a_edge7&#45;headlabel"><a xlink:href="dir_000053_000070.html" target="_top" xlink:title="9">
<text text-anchor="middle" x="247.24" y="-281.06" font-family="Helvetica,sans-Serif" font-size="10.00">9</text>
</a>
</g>
</g>
<!-- dir_d739e095b49d8b72164589d00310017d&#45;&gt;dir_fc0178d6978c9fa2cad6ef3e048a60a7 -->
<g id="edge8" class="edge">
<title>dir_d739e095b49d8b72164589d00310017d&#45;&gt;dir_fc0178d6978c9fa2cad6ef3e048a60a7</title>
<path fill="none" stroke="black" d="M179.87,-215.71C161.81,-185.29 130.39,-120.79 154,-72 160.72,-58.12 173.04,-46.77 185.3,-38.18"/>
<polygon fill="black" stroke="black" points="187.25,-41.09 193.7,-32.68 183.42,-35.23 187.25,-41.09"/>
<g id="a_edge8&#45;headlabel"><a xlink:href="dir_000053_000018.html" target="_top" xlink:title="42">
<text text-anchor="middle" x="185.79" y="-42.93" font-family="Helvetica,sans-Serif" font-size="10.00">42</text>
</a>
</g>
</g>
<!-- dir_d739e095b49d8b72164589d00310017d&#45;&gt;dir_a36da230f0956f48b11c85f7d599788f -->
<g id="edge9" class="edge">
<title>dir_d739e095b49d8b72164589d00310017d&#45;&gt;dir_a36da230f0956f48b11c85f7d599788f</title>
<path fill="none" stroke="black" d="M191.12,-215.87C191.29,-191.67 191.6,-147.21 191.81,-118.39"/>
<polygon fill="black" stroke="black" points="195.31,-118.21 191.88,-108.19 188.31,-118.16 195.31,-118.21"/>
<g id="a_edge9&#45;headlabel"><a xlink:href="dir_000053_000015.html" target="_top" xlink:title="220">
<text text-anchor="middle" x="198.12" y="-119.33" font-family="Helvetica,sans-Serif" font-size="10.00">220</text>
</a>
</g>
</g>
<!-- dir_d739e095b49d8b72164589d00310017d&#45;&gt;dir_b7a0e33b407baa23d8a077e33033c988 -->
<g id="edge10" class="edge">
<title>dir_d739e095b49d8b72164589d00310017d&#45;&gt;dir_b7a0e33b407baa23d8a077e33033c988</title>
<path fill="none" stroke="black" d="M199.67,-215.7C205.94,-207.22 214.48,-196.86 222.8,-187.58"/>
<polygon fill="black" stroke="black" points="225.49,-189.83 229.69,-180.1 220.34,-185.09 225.49,-189.83"/>
<g id="a_edge10&#45;headlabel"><a xlink:href="dir_000053_000081.html" target="_top" xlink:title="20">
<text text-anchor="middle" x="225.14" y="-191.9" font-family="Helvetica,sans-Serif" font-size="10.00">20</text>
</a>
</g>
</g>
<!-- dir_b7a0e33b407baa23d8a077e33033c988&#45;&gt;dir_39b8b3c6654246a9c12332c930bc7d3f -->
<g id="edge18" class="edge">
<title>dir_b7a0e33b407baa23d8a077e33033c988&#45;&gt;dir_39b8b3c6654246a9c12332c930bc7d3f</title>
<path fill="none" stroke="black" d="M257.86,-180.19C265.02,-204.42 273.76,-248.89 277.26,-277.68"/>
<polygon fill="black" stroke="black" points="273.8,-278.29 278.33,-287.87 280.77,-277.56 273.8,-278.29"/>
<g id="a_edge18&#45;headlabel"><a xlink:href="dir_000081_000070.html" target="_top" xlink:title="12">
<text text-anchor="middle" x="270.61" y="-272.51" font-family="Helvetica,sans-Serif" font-size="10.00">12</text>
</a>
</g>
</g>
<!-- dir_b7a0e33b407baa23d8a077e33033c988&#45;&gt;dir_fc0178d6978c9fa2cad6ef3e048a60a7 -->
<g id="edge19" class="edge">
<title>dir_b7a0e33b407baa23d8a077e33033c988&#45;&gt;dir_fc0178d6978c9fa2cad6ef3e048a60a7</title>
<path fill="none" stroke="black" d="M246.5,-143.87C241.54,-119.56 232.4,-74.82 226.52,-46.01"/>
<polygon fill="black" stroke="black" points="229.94,-45.29 224.51,-36.19 223.08,-46.69 229.94,-45.29"/>
<g id="a_edge19&#45;headlabel"><a xlink:href="dir_000081_000018.html" target="_top" xlink:title="7">
<text text-anchor="middle" x="233.44" y="-45.74" font-family="Helvetica,sans-Serif" font-size="10.00">7</text>
</a>
</g>
</g>
<!-- dir_b7a0e33b407baa23d8a077e33033c988&#45;&gt;dir_a36da230f0956f48b11c85f7d599788f -->
<g id="edge20" class="edge">
<title>dir_b7a0e33b407baa23d8a077e33033c988&#45;&gt;dir_a36da230f0956f48b11c85f7d599788f</title>
<path fill="none" stroke="black" d="M235.66,-143.7C228.71,-135.3 220.23,-125.07 212.6,-115.86"/>
<polygon fill="black" stroke="black" points="215.25,-113.57 206.17,-108.1 209.86,-118.04 215.25,-113.57"/>
<g id="a_edge20&#45;headlabel"><a xlink:href="dir_000081_000015.html" target="_top" xlink:title="387">
<text text-anchor="middle" x="219.73" y="-112.03" font-family="Helvetica,sans-Serif" font-size="10.00">387</text>
</a>
</g>
</g>
<!-- dir_b7a0e33b407baa23d8a077e33033c988&#45;&gt;dir_d739e095b49d8b72164589d00310017d -->
<g id="edge21" class="edge">
<title>dir_b7a0e33b407baa23d8a077e33033c988&#45;&gt;dir_d739e095b49d8b72164589d00310017d</title>
<path fill="none" stroke="black" d="M241.48,-180.1C235.24,-188.55 226.72,-198.9 218.39,-208.2"/>
<polygon fill="black" stroke="black" points="215.69,-205.97 211.5,-215.7 220.84,-210.7 215.69,-205.97"/>
<g id="a_edge21&#45;headlabel"><a xlink:href="dir_000081_000053.html" target="_top" xlink:title="14">
<text text-anchor="middle" x="216.03" y="-198.9" font-family="Helvetica,sans-Serif" font-size="10.00">14</text>
</a>
</g>
</g>
</g>
</svg>
        <g id="navigator" transform="translate(0 0)" fill="#404254">
                <rect fill="#f2f5e9" fill-opacity="0.5" stroke="#606060" stroke-width=".5" x="0" y="0" width="60" height="60"/>
                <use id="zoomplus" xlink:href="#zoomPlus" x="17" y="9" onmousedown="handleZoom(evt,'in')"/>
                <use id="zoomminus" xlink:href="#zoomMin" x="42" y="9" onmousedown="handleZoom(evt,'out')"/>
                <use id="reset" xlink:href="#resetDef" x="30" y="36" onmousedown="handleReset()"/>
                <g id="arrowUp" xlink:href="#dirArrow" transform="translate(30 24)" onmousedown="handlePan(0,-1)">
                  <use xlink:href="#rim" fill="#404040">
                        <set attributeName="fill" to="#808080" begin="arrowUp.mouseover" end="arrowUp.mouseout"/>
                  </use>
                  <path fill="none" stroke="white" stroke-width="1.5" d="M0,-3.0v7 M-2.5,-0.5L0,-3.0L2.5,-0.5"/>
                </g>
                <g id="arrowRight" xlink:href="#dirArrow" transform="rotate(90) translate(36 -43)" onmousedown="handlePan(1,0)">
                  <use xlink:href="#rim" fill="#404040">
                        <set attributeName="fill" to="#808080" begin="arrowRight.mouseover" end="arrowRight.mouseout"/>
                  </use>
                  <path fill="none" stroke="white" stroke-width="1.5" d="M0,-3.0v7 M-2.5,-0.5L0,-3.0L2.5,-0.5"/>
                </g>
                <g id="arrowDown" xlink:href="#dirArrow" transform="rotate(180) translate(-30 -48)" onmousedown="handlePan(0,1)">
                  <use xlink:href="#rim" fill="#404040">
                        <set attributeName="fill" to="#808080" begin="arrowDown.mouseover" end="arrowDown.mouseout"/>
                  </use>
                  <path fill="none" stroke="white" stroke-width="1.5" d="M0,-3.0v7 M-2.5,-0.5L0,-3.0L2.5,-0.5"/>
                </g>
                <g id="arrowLeft" xlink:href="#dirArrow" transform="rotate(270) translate(-36 17)" onmousedown="handlePan(-1,0)">
                  <use xlink:href="#rim" fill="#404040">
                        <set attributeName="fill" to="#808080" begin="arrowLeft.mouseover" end="arrowLeft.mouseout"/>
                  </use>
                  <path fill="none" stroke="white" stroke-width="1.5" d="M0,-3.0v7 M-2.5,-0.5L0,-3.0L2.5,-0.5"/>
                </g>
        </g>
        <svg viewBox="0 0 15 15" width="100%" height="30px" preserveAspectRatio="xMaxYMin meet">
         <g id="arrow_out" transform="scale(0.3 0.3)">
          <a xlink:href="dir_9acdd6771460017440c69ee654743722_dep_org.svg" target="_base">
           <rect id="button" ry="5" rx="5" y="6" x="6" height="38" width="38"
                fill="#f2f5e9" fill-opacity="0.5" stroke="#606060" stroke-width="1.0"/>
           <path id="arrow"
             d="M 11.500037,31.436501 C 11.940474,20.09759 22.043105,11.32322 32.158766,21.979434 L 37.068811,17.246167 C 37.068811,17.246167 37.088388,32 37.088388,32 L 22.160133,31.978069 C 22.160133,31.978069 26.997745,27.140456 26.997745,27.140456 C 18.528582,18.264221 13.291696,25.230495 11.500037,31.436501 z"
             style="fill:#404040;"/>
          </a>
         </g>
        </svg>
</svg>
