<?xml version="1.0" encoding="UTF-8" standalone="no"?>
<!DOCTYPE svg PUBLIC "-//W3C//DTD SVG 1.1//EN"
 "http://www.w3.org/Graphics/SVG/1.1/DTD/svg11.dtd">
<!-- Generated by graphviz version 2.43.0 (0)
 -->
<!-- Title: drake/geometry/render/stub Pages: 1 -->
<svg width="94pt" height="151pt"
 viewBox="0.00 0.00 94.00 151.00" xmlns="http://www.w3.org/2000/svg" xmlns:xlink="http://www.w3.org/1999/xlink">
<g id="graph0" class="graph" transform="scale(1 1) rotate(0) translate(4 147)">
<title>drake/geometry/render/stub</title>
<polygon fill="white" stroke="transparent" points="-4,4 -4,-147 90,-147 90,4 -4,4"/>
<g id="clust1" class="cluster">
<title>clusterdir_05142ce2278c744298ef3f06d9e628a4</title>
<g id="a_clust1"><a xlink:href="dir_05142ce2278c744298ef3f06d9e628a4.html" target="_top" xlink:title="render">
<polygon fill="#ddddee" stroke="black" points="8,-64 8,-135 78,-135 78,-64 8,-64"/>
<text text-anchor="middle" x="43" y="-123" font-family="Helvetica,sans-Serif" font-size="10.00">render</text>
</a>
</g>
</g>
<!-- dir_d41ff1e58cfc03efa57fea81db26bc1e -->
<g id="node1" class="node">
<title>dir_d41ff1e58cfc03efa57fea81db26bc1e</title>
<g id="a_node1"><a xlink:href="dir_d41ff1e58cfc03efa57fea81db26bc1e.html" target="_top" xlink:title="stub">
<polygon fill="#eeeeff" stroke="black" points="70,-108 16,-108 16,-72 70,-72 70,-108"/>
<text text-anchor="middle" x="43" y="-87.5" font-family="Helvetica,sans-Serif" font-size="10.00">stub</text>
</a>
</g>
</g>
<!-- dir_c2c73694fc1dad1370cb0183cda0d1ac -->
<g id="node2" class="node">
<title>dir_c2c73694fc1dad1370cb0183cda0d1ac</title>
<g id="a_node2"><a xlink:href="dir_c2c73694fc1dad1370cb0183cda0d1ac.html" target="_top" xlink:title="render_vtk">
<polygon fill="none" stroke="black" points="77.5,-36 8.5,-36 8.5,0 77.5,0 77.5,-36"/>
<text text-anchor="middle" x="43" y="-15.5" font-family="Helvetica,sans-Serif" font-size="10.00">render_vtk</text>
</a>
</g>
</g>
<!-- dir_d41ff1e58cfc03efa57fea81db26bc1e&#45;&gt;dir_c2c73694fc1dad1370cb0183cda0d1ac -->
<g id="edge1" class="edge">
<title>dir_d41ff1e58cfc03efa57fea81db26bc1e&#45;&gt;dir_c2c73694fc1dad1370cb0183cda0d1ac</title>
<path fill="none" stroke="black" d="M43,-71.7C43,-63.98 43,-54.71 43,-46.11"/>
<polygon fill="black" stroke="black" points="46.5,-46.1 43,-36.1 39.5,-46.1 46.5,-46.1"/>
<g id="a_edge1&#45;headlabel"><a xlink:href="dir_000047_000048.html" target="_top" xlink:title="6">
<text text-anchor="middle" x="49.34" y="-47.2" font-family="Helvetica,sans-Serif" font-size="10.00">6</text>
</a>
</g>
</g>
</g>
</svg>
