<?xml version="1.0" encoding="UTF-8" standalone="no"?>
<!DOCTYPE svg PUBLIC "-//W3C//DTD SVG 1.1//EN"
 "http://www.w3.org/Graphics/SVG/1.1/DTD/svg11.dtd">
<!-- Generated by graphviz version 2.43.0 (0)
 -->
<!-- Title: drake/common Pages: 1 -->
<!--zoomable 209 -->
<svg id="main" version="1.1" xmlns="http://www.w3.org/2000/svg" xmlns:xlink="http://www.w3.org/1999/xlink" xml:space="preserve" onload="init(evt)">
<style type="text/css"><![CDATA[
.edge:hover path { stroke: red; }
.edge:hover polygon { stroke: red; fill: red; }
]]></style>
<script type="text/javascript"><![CDATA[
var edges = document.getElementsByTagName('g');
if (edges && edges.length) {
  for (var i=0;i<edges.length;i++) {
    if (edges[i].id.substr(0,4)=='edge') {
      edges[i].setAttribute('class','edge');
    }
  }
}
]]></script>
        <defs>
                <circle id="rim" cx="0" cy="0" r="7"/>
                <circle id="rim2" cx="0" cy="0" r="3.5"/>
                <g id="zoomPlus">
                        <use xlink:href="#rim" fill="#404040">
                                <set attributeName="fill" to="#808080" begin="zoomplus.mouseover" end="zoomplus.mouseout"/>
                        </use>
                        <path d="M-4,0h8M0,-4v8" fill="none" stroke="white" stroke-width="1.5" pointer-events="none"/>
                </g>
                <g id="zoomMin">
                        <use xlink:href="#rim" fill="#404040">
                                <set attributeName="fill" to="#808080" begin="zoomminus.mouseover" end="zoomminus.mouseout"/>
                        </use>
                        <path d="M-4,0h8" fill="none" stroke="white" stroke-width="1.5" pointer-events="none"/>
                </g>
                <g id="dirArrow">
                        <path fill="none" stroke="white" stroke-width="1.5" d="M0,-3.0v7 M-2.5,-0.5L0,-3.0L2.5,-0.5"/>
                </g>
               <g id="resetDef">
                       <use xlink:href="#rim2" fill="#404040">
                               <set attributeName="fill" to="#808080" begin="reset.mouseover" end="reset.mouseout"/>
                       </use>
               </g>
        </defs>

<script type="text/javascript">
var viewWidth = 645;
var viewHeight = 209;
var sectionId = 'dynsection-0';
</script>
<script xlink:href="svgpan.js"/>
<svg id="graph" class="graph">
<g id="viewport">
<title>drake/common</title>
<polygon fill="white" stroke="transparent" points="-4,4 -4,-205.35 641,-205.35 641,4 -4,4"/>
<g id="clust1" class="cluster">
<title>clusterdir_f1666844dc41ec91c14125b680b7be1b</title>
<g id="a_clust1"><a xlink:href="dir_f1666844dc41ec91c14125b680b7be1b.html" target="_top" xlink:title="drake">
<polygon fill="#ddddee" stroke="black" points="8,-8 8,-167 575,-167 575,-8 8,-8"/>
<text text-anchor="middle" x="291.5" y="-155" font-family="Helvetica,sans-Serif" font-size="10.00">drake</text>
</a>
</g>
</g>
<g id="clust2" class="cluster">
<title>clusterdir_a36da230f0956f48b11c85f7d599788f</title>
<g id="a_clust2"><a xlink:href="dir_a36da230f0956f48b11c85f7d599788f.html" target="_top">
<polygon fill="#eeeeff" stroke="black" points="16,-16 16,-140 567,-140 567,-16 16,-16"/>
</a>
</g>
</g>
<!-- dir_a36da230f0956f48b11c85f7d599788f -->
<g id="node1" class="node">
<title>dir_a36da230f0956f48b11c85f7d599788f</title>
<text text-anchor="middle" x="529" y="-111.5" font-family="Helvetica,sans-Serif" font-size="10.00">common</text>
</g>
<!-- dir_66d630ac47407fe11bcb76d9e7e25510 -->
<g id="node5" class="node">
<title>dir_66d630ac47407fe11bcb76d9e7e25510</title>
<g id="a_node5"><a xlink:href="dir_66d630ac47407fe11bcb76d9e7e25510.html" target="_top" xlink:title="symbolic">
<polygon fill="white" stroke="red" points="448.5,-60 387.5,-60 387.5,-24 448.5,-24 448.5,-60"/>
<text text-anchor="middle" x="418" y="-39.5" font-family="Helvetica,sans-Serif" font-size="10.00">symbolic</text>
</a>
</g>
</g>
<!-- dir_a36da230f0956f48b11c85f7d599788f&#45;&gt;dir_66d630ac47407fe11bcb76d9e7e25510 -->
<g id="edge5" class="edge">
<title>dir_a36da230f0956f48b11c85f7d599788f&#45;&gt;dir_66d630ac47407fe11bcb76d9e7e25510</title>
<path fill="none" stroke="black" d="M501.85,-95.88C487.47,-86.81 469.62,-75.55 454.09,-65.76"/>
<polygon fill="black" stroke="black" points="455.58,-62.56 445.26,-60.19 451.85,-68.48 455.58,-62.56"/>
<g id="a_edge5&#45;headlabel"><a xlink:href="dir_000008_000012.html" target="_top" xlink:title="8">
<text text-anchor="middle" x="460.14" y="-59.58" font-family="Helvetica,sans-Serif" font-size="10.00">8</text>
</a>
</g>
</g>
<!-- dir_a1f72b1e53a5842fc3b6b3072554bf94 -->
<g id="node2" class="node">
<title>dir_a1f72b1e53a5842fc3b6b3072554bf94</title>
<g id="a_node2"><a xlink:href="dir_a1f72b1e53a5842fc3b6b3072554bf94.html" target="_top" xlink:title="ad">
<polygon fill="white" stroke="red" points="481,-132 427,-132 427,-96 481,-96 481,-132"/>
<text text-anchor="middle" x="454" y="-111.5" font-family="Helvetica,sans-Serif" font-size="10.00">ad</text>
</a>
</g>
</g>
<!-- dir_48e4d4a473e039105b12a2118c672ffe -->
<g id="node3" class="node">
<title>dir_48e4d4a473e039105b12a2118c672ffe</title>
<g id="a_node3"><a xlink:href="dir_48e4d4a473e039105b12a2118c672ffe.html" target="_top" xlink:title="proto">
<polygon fill="white" stroke="black" points="409,-132 355,-132 355,-96 409,-96 409,-132"/>
<text text-anchor="middle" x="382" y="-111.5" font-family="Helvetica,sans-Serif" font-size="10.00">proto</text>
</a>
</g>
</g>
<!-- dir_a361a47504c6f179d0e8aaa8b79dec3e -->
<g id="node4" class="node">
<title>dir_a361a47504c6f179d0e8aaa8b79dec3e</title>
<g id="a_node4"><a xlink:href="dir_a361a47504c6f179d0e8aaa8b79dec3e.html" target="_top" xlink:title="schema">
<polygon fill="white" stroke="black" points="336.5,-132 281.5,-132 281.5,-96 336.5,-96 336.5,-132"/>
<text text-anchor="middle" x="309" y="-111.5" font-family="Helvetica,sans-Serif" font-size="10.00">schema</text>
</a>
</g>
</g>
<!-- dir_a361a47504c6f179d0e8aaa8b79dec3e&#45;&gt;dir_66d630ac47407fe11bcb76d9e7e25510 -->
<g id="edge4" class="edge">
<title>dir_a361a47504c6f179d0e8aaa8b79dec3e&#45;&gt;dir_66d630ac47407fe11bcb76d9e7e25510</title>
<path fill="none" stroke="black" d="M335.66,-95.88C349.78,-86.81 367.31,-75.55 382.56,-65.76"/>
<polygon fill="black" stroke="black" points="384.71,-68.54 391.23,-60.19 380.93,-62.65 384.71,-68.54"/>
<g id="a_edge4&#45;headlabel"><a xlink:href="dir_000014_000012.html" target="_top" xlink:title="1">
<text text-anchor="middle" x="383.22" y="-70.37" font-family="Helvetica,sans-Serif" font-size="10.00">1</text>
</a>
</g>
</g>
<!-- dir_fc0178d6978c9fa2cad6ef3e048a60a7 -->
<g id="node9" class="node">
<title>dir_fc0178d6978c9fa2cad6ef3e048a60a7</title>
<g id="a_node9"><a xlink:href="dir_fc0178d6978c9fa2cad6ef3e048a60a7.html" target="_top" xlink:title="math">
<polygon fill="none" stroke="black" points="637,-132 583,-132 583,-96 637,-96 637,-132"/>
<text text-anchor="middle" x="610" y="-111.5" font-family="Helvetica,sans-Serif" font-size="10.00">math</text>
</a>
</g>
</g>
<!-- dir_a361a47504c6f179d0e8aaa8b79dec3e&#45;&gt;dir_fc0178d6978c9fa2cad6ef3e048a60a7 -->
<g id="edge3" class="edge">
<title>dir_a361a47504c6f179d0e8aaa8b79dec3e&#45;&gt;dir_fc0178d6978c9fa2cad6ef3e048a60a7</title>
<path fill="none" stroke="black" d="M314.97,-132.05C321.71,-149.16 334.48,-173.85 355,-185 395.41,-206.97 521.37,-206.57 562,-185 579.3,-175.81 591.51,-157.29 599.28,-141.47"/>
<polygon fill="black" stroke="black" points="602.59,-142.63 603.55,-132.08 596.22,-139.73 602.59,-142.63"/>
<g id="a_edge3&#45;headlabel"><a xlink:href="dir_000014_000011.html" target="_top" xlink:title="3">
<text text-anchor="middle" x="603.69" y="-144.58" font-family="Helvetica,sans-Serif" font-size="10.00">3</text>
</a>
</g>
</g>
<!-- dir_0d10be3e24b4d05732d552ad443cc60a -->
<g id="node6" class="node">
<title>dir_0d10be3e24b4d05732d552ad443cc60a</title>
<g id="a_node6"><a xlink:href="dir_0d10be3e24b4d05732d552ad443cc60a.html" target="_top" xlink:title="test_utilities">
<polygon fill="white" stroke="black" points="263.5,-132 186.5,-132 186.5,-96 263.5,-96 263.5,-132"/>
<text text-anchor="middle" x="225" y="-111.5" font-family="Helvetica,sans-Serif" font-size="10.00">test_utilities</text>
</a>
</g>
</g>
<!-- dir_0d10be3e24b4d05732d552ad443cc60a&#45;&gt;dir_66d630ac47407fe11bcb76d9e7e25510 -->
<g id="edge7" class="edge">
<title>dir_0d10be3e24b4d05732d552ad443cc60a&#45;&gt;dir_66d630ac47407fe11bcb76d9e7e25510</title>
<path fill="none" stroke="black" d="M263.59,-99C296.73,-86.98 344.33,-69.72 377.9,-57.54"/>
<polygon fill="black" stroke="black" points="379.2,-60.8 387.4,-54.1 376.81,-54.22 379.2,-60.8"/>
<g id="a_edge7&#45;headlabel"><a xlink:href="dir_000016_000012.html" target="_top" xlink:title="4">
<text text-anchor="middle" x="376.79" y="-62.19" font-family="Helvetica,sans-Serif" font-size="10.00">4</text>
</a>
</g>
</g>
<!-- dir_5f7a2023092b91a1e02609fa2c012f50 -->
<g id="node7" class="node">
<title>dir_5f7a2023092b91a1e02609fa2c012f50</title>
<g id="a_node7"><a xlink:href="dir_5f7a2023092b91a1e02609fa2c012f50.html" target="_top" xlink:title="trajectories">
<polygon fill="white" stroke="black" points="168,-132 96,-132 96,-96 168,-96 168,-132"/>
<text text-anchor="middle" x="132" y="-111.5" font-family="Helvetica,sans-Serif" font-size="10.00">trajectories</text>
</a>
</g>
</g>
<!-- dir_5f7a2023092b91a1e02609fa2c012f50&#45;&gt;dir_fc0178d6978c9fa2cad6ef3e048a60a7 -->
<g id="edge6" class="edge">
<title>dir_5f7a2023092b91a1e02609fa2c012f50&#45;&gt;dir_fc0178d6978c9fa2cad6ef3e048a60a7</title>
<path fill="none" stroke="black" d="M140.12,-132.15C148.91,-149.34 164.74,-174.09 187,-185 224.41,-203.34 525.2,-204.54 562,-185 579.3,-175.81 591.51,-157.29 599.28,-141.47"/>
<polygon fill="black" stroke="black" points="602.59,-142.63 603.55,-132.08 596.22,-139.73 602.59,-142.63"/>
<g id="a_edge6&#45;headlabel"><a xlink:href="dir_000017_000011.html" target="_top" xlink:title="3">
<text text-anchor="middle" x="603.69" y="-144.58" font-family="Helvetica,sans-Serif" font-size="10.00">3</text>
</a>
</g>
</g>
<!-- dir_a475b9d7562d90f72dfa4821e049558f -->
<g id="node8" class="node">
<title>dir_a475b9d7562d90f72dfa4821e049558f</title>
<g id="a_node8"><a xlink:href="dir_a475b9d7562d90f72dfa4821e049558f.html" target="_top" xlink:title="yaml">
<polygon fill="white" stroke="black" points="78,-132 24,-132 24,-96 78,-96 78,-132"/>
<text text-anchor="middle" x="51" y="-111.5" font-family="Helvetica,sans-Serif" font-size="10.00">yaml</text>
</a>
</g>
</g>
<!-- dir_fc0178d6978c9fa2cad6ef3e048a60a7&#45;&gt;dir_a36da230f0956f48b11c85f7d599788f -->
<g id="edge2" class="edge">
<title>dir_fc0178d6978c9fa2cad6ef3e048a60a7&#45;&gt;dir_a36da230f0956f48b11c85f7d599788f</title>
<path fill="none" stroke="black" d="M582.77,-114C578.14,-114 573.51,-114 568.88,-114"/>
<polygon fill="black" stroke="black" points="568.74,-110.5 558.74,-114 568.74,-117.5 568.74,-110.5"/>
<g id="a_edge2&#45;headlabel"><a xlink:href="dir_000011_000008.html" target="_top" xlink:title="59">
<text text-anchor="middle" x="572.34" y="-105.16" font-family="Helvetica,sans-Serif" font-size="10.00">59</text>
</a>
</g>
</g>
<!-- dir_fc0178d6978c9fa2cad6ef3e048a60a7&#45;&gt;dir_66d630ac47407fe11bcb76d9e7e25510 -->
<g id="edge1" class="edge">
<title>dir_fc0178d6978c9fa2cad6ef3e048a60a7&#45;&gt;dir_66d630ac47407fe11bcb76d9e7e25510</title>
<path fill="none" stroke="black" d="M582.84,-100.84C578.89,-99.16 574.85,-97.5 571,-96 533.19,-81.24 489.37,-66.27 458.34,-56.02"/>
<polygon fill="black" stroke="black" points="459.33,-52.66 448.73,-52.87 457.14,-59.31 459.33,-52.66"/>
<g id="a_edge1&#45;headlabel"><a xlink:href="dir_000011_000012.html" target="_top" xlink:title="1">
<text text-anchor="middle" x="463.63" y="-48.59" font-family="Helvetica,sans-Serif" font-size="10.00">1</text>
</a>
</g>
</g>
</g>
</svg>
        <g id="navigator" transform="translate(0 0)" fill="#404254">
                <rect fill="#f2f5e9" fill-opacity="0.5" stroke="#606060" stroke-width=".5" x="0" y="0" width="60" height="60"/>
                <use id="zoomplus" xlink:href="#zoomPlus" x="17" y="9" onmousedown="handleZoom(evt,'in')"/>
                <use id="zoomminus" xlink:href="#zoomMin" x="42" y="9" onmousedown="handleZoom(evt,'out')"/>
                <use id="reset" xlink:href="#resetDef" x="30" y="36" onmousedown="handleReset()"/>
                <g id="arrowUp" xlink:href="#dirArrow" transform="translate(30 24)" onmousedown="handlePan(0,-1)">
                  <use xlink:href="#rim" fill="#404040">
                        <set attributeName="fill" to="#808080" begin="arrowUp.mouseover" end="arrowUp.mouseout"/>
                  </use>
                  <path fill="none" stroke="white" stroke-width="1.5" d="M0,-3.0v7 M-2.5,-0.5L0,-3.0L2.5,-0.5"/>
                </g>
                <g id="arrowRight" xlink:href="#dirArrow" transform="rotate(90) translate(36 -43)" onmousedown="handlePan(1,0)">
                  <use xlink:href="#rim" fill="#404040">
                        <set attributeName="fill" to="#808080" begin="arrowRight.mouseover" end="arrowRight.mouseout"/>
                  </use>
                  <path fill="none" stroke="white" stroke-width="1.5" d="M0,-3.0v7 M-2.5,-0.5L0,-3.0L2.5,-0.5"/>
                </g>
                <g id="arrowDown" xlink:href="#dirArrow" transform="rotate(180) translate(-30 -48)" onmousedown="handlePan(0,1)">
                  <use xlink:href="#rim" fill="#404040">
                        <set attributeName="fill" to="#808080" begin="arrowDown.mouseover" end="arrowDown.mouseout"/>
                  </use>
                  <path fill="none" stroke="white" stroke-width="1.5" d="M0,-3.0v7 M-2.5,-0.5L0,-3.0L2.5,-0.5"/>
                </g>
                <g id="arrowLeft" xlink:href="#dirArrow" transform="rotate(270) translate(-36 17)" onmousedown="handlePan(-1,0)">
                  <use xlink:href="#rim" fill="#404040">
                        <set attributeName="fill" to="#808080" begin="arrowLeft.mouseover" end="arrowLeft.mouseout"/>
                  </use>
                  <path fill="none" stroke="white" stroke-width="1.5" d="M0,-3.0v7 M-2.5,-0.5L0,-3.0L2.5,-0.5"/>
                </g>
        </g>
        <svg viewBox="0 0 15 15" width="100%" height="30px" preserveAspectRatio="xMaxYMin meet">
         <g id="arrow_out" transform="scale(0.3 0.3)">
          <a xlink:href="dir_a36da230f0956f48b11c85f7d599788f_dep_org.svg" target="_base">
           <rect id="button" ry="5" rx="5" y="6" x="6" height="38" width="38"
                fill="#f2f5e9" fill-opacity="0.5" stroke="#606060" stroke-width="1.0"/>
           <path id="arrow"
             d="M 11.500037,31.436501 C 11.940474,20.09759 22.043105,11.32322 32.158766,21.979434 L 37.068811,17.246167 C 37.068811,17.246167 37.088388,32 37.088388,32 L 22.160133,31.978069 C 22.160133,31.978069 26.997745,27.140456 26.997745,27.140456 C 18.528582,18.264221 13.291696,25.230495 11.500037,31.436501 z"
             style="fill:#404040;"/>
          </a>
         </g>
        </svg>
</svg>
