<?xml version="1.0" encoding="UTF-8" standalone="no"?>
<!DOCTYPE svg PUBLIC "-//W3C//DTD SVG 1.1//EN"
 "http://www.w3.org/Graphics/SVG/1.1/DTD/svg11.dtd">
<!-- Generated by graphviz version 2.43.0 (0)
 -->
<!-- Title: drake Pages: 1 -->
<svg width="682pt" height="580pt"
 viewBox="0.00 0.00 682.00 580.00" xmlns="http://www.w3.org/2000/svg" xmlns:xlink="http://www.w3.org/1999/xlink">
<g id="graph0" class="graph" transform="scale(1 1) rotate(0) translate(4 576)">
<title>drake</title>
<polygon fill="white" stroke="transparent" points="-4,4 -4,-576 678,-576 678,4 -4,4"/>
<g id="clust1" class="cluster">
<title>clusterdir_f1666844dc41ec91c14125b680b7be1b</title>
<g id="a_clust1"><a xlink:href="dir_f1666844dc41ec91c14125b680b7be1b.html" target="_top">
<polygon fill="#eeeeff" stroke="black" points="8,-8 8,-564 666,-564 666,-8 8,-8"/>
</a>
</g>
</g>
<!-- dir_f1666844dc41ec91c14125b680b7be1b -->
<g id="node1" class="node">
<title>dir_f1666844dc41ec91c14125b680b7be1b</title>
<text text-anchor="middle" x="601" y="-535.5" font-family="Helvetica,sans-Serif" font-size="10.00">drake</text>
</g>
<!-- dir_a8013f4957f3230075674e48512c1ba8 -->
<g id="node2" class="node">
<title>dir_a8013f4957f3230075674e48512c1ba8</title>
<g id="a_node2"><a xlink:href="dir_a8013f4957f3230075674e48512c1ba8.html" target="_top" xlink:title="bindings">
<polygon fill="white" stroke="red" points="513,-556 455,-556 455,-520 513,-520 513,-556"/>
<text text-anchor="middle" x="484" y="-535.5" font-family="Helvetica,sans-Serif" font-size="10.00">bindings</text>
</a>
</g>
</g>
<!-- dir_a36da230f0956f48b11c85f7d599788f -->
<g id="node3" class="node">
<title>dir_a36da230f0956f48b11c85f7d599788f</title>
<g id="a_node3"><a xlink:href="dir_a36da230f0956f48b11c85f7d599788f.html" target="_top" xlink:title="common">
<polygon fill="white" stroke="red" points="341.5,-124 282.5,-124 282.5,-88 341.5,-88 341.5,-124"/>
<text text-anchor="middle" x="312" y="-103.5" font-family="Helvetica,sans-Serif" font-size="10.00">common</text>
</a>
</g>
</g>
<!-- dir_a8013f4957f3230075674e48512c1ba8&#45;&gt;dir_a36da230f0956f48b11c85f7d599788f -->
<g id="edge1" class="edge">
<title>dir_a8013f4957f3230075674e48512c1ba8&#45;&gt;dir_a36da230f0956f48b11c85f7d599788f</title>
<path fill="none" stroke="black" d="M513.35,-528C562.7,-510.84 657,-468.44 657,-395 657,-395 657,-395 657,-249 657,-179.35 591.54,-188.55 528,-160 469.63,-133.78 396.32,-119.29 351.87,-112.34"/>
<polygon fill="black" stroke="black" points="352.17,-108.85 341.76,-110.81 351.12,-115.77 352.17,-108.85"/>
<g id="a_edge1&#45;headlabel"><a xlink:href="dir_000001_000015.html" target="_top" xlink:title="18">
<text text-anchor="middle" x="356.15" y="-104.08" font-family="Helvetica,sans-Serif" font-size="10.00">18</text>
</a>
</g>
</g>
<!-- dir_d739e095b49d8b72164589d00310017d -->
<g id="node6" class="node">
<title>dir_d739e095b49d8b72164589d00310017d</title>
<g id="a_node6"><a xlink:href="dir_d739e095b49d8b72164589d00310017d.html" target="_top" xlink:title="geometry">
<polygon fill="white" stroke="red" points="465,-484 401,-484 401,-448 465,-448 465,-484"/>
<text text-anchor="middle" x="433" y="-463.5" font-family="Helvetica,sans-Serif" font-size="10.00">geometry</text>
</a>
</g>
</g>
<!-- dir_a8013f4957f3230075674e48512c1ba8&#45;&gt;dir_d739e095b49d8b72164589d00310017d -->
<g id="edge2" class="edge">
<title>dir_a8013f4957f3230075674e48512c1ba8&#45;&gt;dir_d739e095b49d8b72164589d00310017d</title>
<path fill="none" stroke="black" d="M471.39,-519.7C465.4,-511.47 458.12,-501.48 451.52,-492.42"/>
<polygon fill="black" stroke="black" points="454.18,-490.13 445.46,-484.1 448.52,-494.25 454.18,-490.13"/>
<g id="a_edge2&#45;headlabel"><a xlink:href="dir_000001_000059.html" target="_top" xlink:title="1">
<text text-anchor="middle" x="458.59" y="-488.86" font-family="Helvetica,sans-Serif" font-size="10.00">1</text>
</a>
</g>
</g>
<!-- dir_b7a0e33b407baa23d8a077e33033c988 -->
<g id="node14" class="node">
<title>dir_b7a0e33b407baa23d8a077e33033c988</title>
<g id="a_node14"><a xlink:href="dir_b7a0e33b407baa23d8a077e33033c988.html" target="_top" xlink:title="systems">
<polygon fill="white" stroke="red" points="390,-268 332,-268 332,-232 390,-232 390,-268"/>
<text text-anchor="middle" x="361" y="-247.5" font-family="Helvetica,sans-Serif" font-size="10.00">systems</text>
</a>
</g>
</g>
<!-- dir_a8013f4957f3230075674e48512c1ba8&#45;&gt;dir_b7a0e33b407baa23d8a077e33033c988 -->
<g id="edge3" class="edge">
<title>dir_a8013f4957f3230075674e48512c1ba8&#45;&gt;dir_b7a0e33b407baa23d8a077e33033c988</title>
<path fill="none" stroke="black" d="M485.85,-519.99C489.42,-478.89 493.16,-372.54 446,-304 434.61,-287.44 416.17,-275.03 399.38,-266.4"/>
<polygon fill="black" stroke="black" points="400.8,-263.19 390.27,-261.99 397.75,-269.49 400.8,-263.19"/>
<g id="a_edge3&#45;headlabel"><a xlink:href="dir_000001_000087.html" target="_top" xlink:title="2">
<text text-anchor="middle" x="405.27" y="-259.71" font-family="Helvetica,sans-Serif" font-size="10.00">2</text>
</a>
</g>
</g>
<!-- dir_fc0178d6978c9fa2cad6ef3e048a60a7 -->
<g id="node9" class="node">
<title>dir_fc0178d6978c9fa2cad6ef3e048a60a7</title>
<g id="a_node9"><a xlink:href="dir_fc0178d6978c9fa2cad6ef3e048a60a7.html" target="_top" xlink:title="math">
<polygon fill="white" stroke="black" points="339,-52 285,-52 285,-16 339,-16 339,-52"/>
<text text-anchor="middle" x="312" y="-31.5" font-family="Helvetica,sans-Serif" font-size="10.00">math</text>
</a>
</g>
</g>
<!-- dir_a36da230f0956f48b11c85f7d599788f&#45;&gt;dir_fc0178d6978c9fa2cad6ef3e048a60a7 -->
<g id="edge20" class="edge">
<title>dir_a36da230f0956f48b11c85f7d599788f&#45;&gt;dir_fc0178d6978c9fa2cad6ef3e048a60a7</title>
<path fill="none" stroke="black" d="M306.08,-87.7C305.29,-79.98 305.06,-70.71 305.4,-62.11"/>
<polygon fill="black" stroke="black" points="308.9,-62.32 306.1,-52.1 301.92,-61.84 308.9,-62.32"/>
<g id="a_edge20&#45;headlabel"><a xlink:href="dir_000015_000018.html" target="_top" xlink:title="6">
<text text-anchor="middle" x="311.48" y="-63.61" font-family="Helvetica,sans-Serif" font-size="10.00">6</text>
</a>
</g>
</g>
<!-- dir_d0d5bed5913df116d7ad8f512e215287 -->
<g id="node4" class="node">
<title>dir_d0d5bed5913df116d7ad8f512e215287</title>
<g id="a_node4"><a xlink:href="dir_d0d5bed5913df116d7ad8f512e215287.html" target="_top" xlink:title="doc">
<polygon fill="white" stroke="red" points="385,-556 331,-556 331,-520 385,-520 385,-556"/>
<text text-anchor="middle" x="358" y="-535.5" font-family="Helvetica,sans-Serif" font-size="10.00">doc</text>
</a>
</g>
</g>
<!-- dir_bf85a0c13984f214f436b2edc519c6dd -->
<g id="node5" class="node">
<title>dir_bf85a0c13984f214f436b2edc519c6dd</title>
<g id="a_node5"><a xlink:href="dir_bf85a0c13984f214f436b2edc519c6dd.html" target="_top" xlink:title="examples">
<polygon fill="white" stroke="red" points="247.5,-556 182.5,-556 182.5,-520 247.5,-520 247.5,-556"/>
<text text-anchor="middle" x="215" y="-535.5" font-family="Helvetica,sans-Serif" font-size="10.00">examples</text>
</a>
</g>
</g>
<!-- dir_bf85a0c13984f214f436b2edc519c6dd&#45;&gt;dir_a36da230f0956f48b11c85f7d599788f -->
<g id="edge40" class="edge">
<title>dir_bf85a0c13984f214f436b2edc519c6dd&#45;&gt;dir_a36da230f0956f48b11c85f7d599788f</title>
<path fill="none" stroke="black" d="M182.46,-535.03C148.01,-531.06 94.84,-519.22 67,-484 22.26,-427.39 39.08,-213.04 88,-160 112.55,-133.38 214.59,-117.89 272.11,-111.11"/>
<polygon fill="black" stroke="black" points="272.77,-114.56 282.3,-109.95 271.97,-107.6 272.77,-114.56"/>
<g id="a_edge40&#45;headlabel"><a xlink:href="dir_000028_000015.html" target="_top" xlink:title="94">
<text text-anchor="middle" x="269.52" y="-115.29" font-family="Helvetica,sans-Serif" font-size="10.00">94</text>
</a>
</g>
</g>
<!-- dir_bf85a0c13984f214f436b2edc519c6dd&#45;&gt;dir_d739e095b49d8b72164589d00310017d -->
<g id="edge41" class="edge">
<title>dir_bf85a0c13984f214f436b2edc519c6dd&#45;&gt;dir_d739e095b49d8b72164589d00310017d</title>
<path fill="none" stroke="black" d="M247.51,-527.56C282.22,-517.35 338.76,-500.33 387,-484 388.41,-483.52 389.84,-483.03 391.29,-482.53"/>
<polygon fill="black" stroke="black" points="392.66,-485.76 400.91,-479.12 390.31,-479.16 392.66,-485.76"/>
<g id="a_edge41&#45;headlabel"><a xlink:href="dir_000028_000059.html" target="_top" xlink:title="18">
<text text-anchor="middle" x="390.22" y="-487.14" font-family="Helvetica,sans-Serif" font-size="10.00">18</text>
</a>
</g>
</g>
<!-- dir_3c3c25df5132fca4f15a988b4c2efab5 -->
<g id="node7" class="node">
<title>dir_3c3c25df5132fca4f15a988b4c2efab5</title>
<g id="a_node7"><a xlink:href="dir_3c3c25df5132fca4f15a988b4c2efab5.html" target="_top" xlink:title="lcm">
<polygon fill="white" stroke="black" points="170,-196 116,-196 116,-160 170,-160 170,-196"/>
<text text-anchor="middle" x="143" y="-175.5" font-family="Helvetica,sans-Serif" font-size="10.00">lcm</text>
</a>
</g>
</g>
<!-- dir_bf85a0c13984f214f436b2edc519c6dd&#45;&gt;dir_3c3c25df5132fca4f15a988b4c2efab5 -->
<g id="edge37" class="edge">
<title>dir_bf85a0c13984f214f436b2edc519c6dd&#45;&gt;dir_3c3c25df5132fca4f15a988b4c2efab5</title>
<path fill="none" stroke="black" d="M182.37,-533.54C151.92,-528.38 108.11,-515.6 87,-484 27.64,-395.17 93.96,-260.78 126.78,-204.84"/>
<polygon fill="black" stroke="black" points="129.79,-206.63 131.93,-196.25 123.79,-203.03 129.79,-206.63"/>
<g id="a_edge37&#45;headlabel"><a xlink:href="dir_000028_000070.html" target="_top" xlink:title="3">
<text text-anchor="middle" x="130.38" y="-208.67" font-family="Helvetica,sans-Serif" font-size="10.00">3</text>
</a>
</g>
</g>
<!-- dir_758aa030403a70af025108ac41d12d0d -->
<g id="node8" class="node">
<title>dir_758aa030403a70af025108ac41d12d0d</title>
<g id="a_node8"><a xlink:href="dir_758aa030403a70af025108ac41d12d0d.html" target="_top" xlink:title="manipulation">
<polygon fill="white" stroke="red" points="176.5,-484 95.5,-484 95.5,-448 176.5,-448 176.5,-484"/>
<text text-anchor="middle" x="136" y="-463.5" font-family="Helvetica,sans-Serif" font-size="10.00">manipulation</text>
</a>
</g>
</g>
<!-- dir_bf85a0c13984f214f436b2edc519c6dd&#45;&gt;dir_758aa030403a70af025108ac41d12d0d -->
<g id="edge39" class="edge">
<title>dir_bf85a0c13984f214f436b2edc519c6dd&#45;&gt;dir_758aa030403a70af025108ac41d12d0d</title>
<path fill="none" stroke="black" d="M195.47,-519.7C185.62,-510.97 173.51,-500.24 162.8,-490.75"/>
<polygon fill="black" stroke="black" points="165.11,-488.12 155.3,-484.1 160.47,-493.36 165.11,-488.12"/>
<g id="a_edge39&#45;headlabel"><a xlink:href="dir_000028_000071.html" target="_top" xlink:title="10">
<text text-anchor="middle" x="169.68" y="-485.88" font-family="Helvetica,sans-Serif" font-size="10.00">10</text>
</a>
</g>
</g>
<!-- dir_bf85a0c13984f214f436b2edc519c6dd&#45;&gt;dir_fc0178d6978c9fa2cad6ef3e048a60a7 -->
<g id="edge36" class="edge">
<title>dir_bf85a0c13984f214f436b2edc519c6dd&#45;&gt;dir_fc0178d6978c9fa2cad6ef3e048a60a7</title>
<path fill="none" stroke="black" d="M182.43,-535.3C144.93,-531.63 83.79,-520.08 47,-484 17.2,-454.77 17,-436.74 17,-395 17,-395 17,-395 17,-177 17,-63.85 195.37,-40.81 274.71,-36.16"/>
<polygon fill="black" stroke="black" points="274.97,-39.65 284.78,-35.64 274.61,-32.66 274.97,-39.65"/>
<g id="a_edge36&#45;headlabel"><a xlink:href="dir_000028_000018.html" target="_top" xlink:title="3">
<text text-anchor="middle" x="271.53" y="-40.17" font-family="Helvetica,sans-Serif" font-size="10.00">3</text>
</a>
</g>
</g>
<!-- dir_39b8b3c6654246a9c12332c930bc7d3f -->
<g id="node10" class="node">
<title>dir_39b8b3c6654246a9c12332c930bc7d3f</title>
<g id="a_node10"><a xlink:href="dir_39b8b3c6654246a9c12332c930bc7d3f.html" target="_top" xlink:title="multibody">
<polygon fill="white" stroke="red" points="346,-412 280,-412 280,-376 346,-376 346,-412"/>
<text text-anchor="middle" x="313" y="-391.5" font-family="Helvetica,sans-Serif" font-size="10.00">multibody</text>
</a>
</g>
</g>
<!-- dir_bf85a0c13984f214f436b2edc519c6dd&#45;&gt;dir_39b8b3c6654246a9c12332c930bc7d3f -->
<g id="edge35" class="edge">
<title>dir_bf85a0c13984f214f436b2edc519c6dd&#45;&gt;dir_39b8b3c6654246a9c12332c930bc7d3f</title>
<path fill="none" stroke="black" d="M226.82,-519.87C243.89,-495.14 275.57,-449.24 295.39,-420.51"/>
<polygon fill="black" stroke="black" points="298.34,-422.41 301.14,-412.19 292.58,-418.43 298.34,-422.41"/>
<g id="a_edge35&#45;headlabel"><a xlink:href="dir_000028_000055.html" target="_top" xlink:title="15">
<text text-anchor="middle" x="298.63" y="-424.48" font-family="Helvetica,sans-Serif" font-size="10.00">15</text>
</a>
</g>
</g>
<!-- dir_c86b501450b8b8b59405c286cb030cc3 -->
<g id="node13" class="node">
<title>dir_c86b501450b8b8b59405c286cb030cc3</title>
<g id="a_node13"><a xlink:href="dir_c86b501450b8b8b59405c286cb030cc3.html" target="_top" xlink:title="solvers">
<polygon fill="white" stroke="red" points="436,-196 382,-196 382,-160 436,-160 436,-196"/>
<text text-anchor="middle" x="409" y="-175.5" font-family="Helvetica,sans-Serif" font-size="10.00">solvers</text>
</a>
</g>
</g>
<!-- dir_bf85a0c13984f214f436b2edc519c6dd&#45;&gt;dir_c86b501450b8b8b59405c286cb030cc3 -->
<g id="edge38" class="edge">
<title>dir_bf85a0c13984f214f436b2edc519c6dd&#45;&gt;dir_c86b501450b8b8b59405c286cb030cc3</title>
<path fill="none" stroke="black" d="M247.79,-531.78C307.85,-521.97 433.07,-500.31 474,-484 543.54,-456.28 617,-469.86 617,-395 617,-395 617,-395 617,-321 617,-239.16 505.81,-201.09 446.02,-186.53"/>
<polygon fill="black" stroke="black" points="446.73,-183.1 436.19,-184.23 445.13,-189.91 446.73,-183.1"/>
<g id="a_edge38&#45;headlabel"><a xlink:href="dir_000028_000110.html" target="_top" xlink:title="5">
<text text-anchor="middle" x="450.87" y="-178.65" font-family="Helvetica,sans-Serif" font-size="10.00">5</text>
</a>
</g>
</g>
<!-- dir_bf85a0c13984f214f436b2edc519c6dd&#45;&gt;dir_b7a0e33b407baa23d8a077e33033c988 -->
<g id="edge43" class="edge">
<title>dir_bf85a0c13984f214f436b2edc519c6dd&#45;&gt;dir_b7a0e33b407baa23d8a077e33033c988</title>
<path fill="none" stroke="black" d="M243.24,-519.94C288.93,-490.27 376.4,-424.2 401,-340 405.49,-324.64 406.08,-319.17 401,-304 397.65,-294 391.58,-284.38 385.17,-276.14"/>
<polygon fill="black" stroke="black" points="387.82,-273.85 378.73,-268.4 382.44,-278.33 387.82,-273.85"/>
<g id="a_edge43&#45;headlabel"><a xlink:href="dir_000028_000087.html" target="_top" xlink:title="79">
<text text-anchor="middle" x="392.3" y="-272.3" font-family="Helvetica,sans-Serif" font-size="10.00">79</text>
</a>
</g>
</g>
<!-- dir_646ca0e8f46938429d8373c5298698fa -->
<g id="node15" class="node">
<title>dir_646ca0e8f46938429d8373c5298698fa</title>
<g id="a_node15"><a xlink:href="dir_646ca0e8f46938429d8373c5298698fa.html" target="_top" xlink:title="visualization">
<polygon fill="white" stroke="black" points="254.5,-340 175.5,-340 175.5,-304 254.5,-304 254.5,-340"/>
<text text-anchor="middle" x="215" y="-319.5" font-family="Helvetica,sans-Serif" font-size="10.00">visualization</text>
</a>
</g>
</g>
<!-- dir_bf85a0c13984f214f436b2edc519c6dd&#45;&gt;dir_646ca0e8f46938429d8373c5298698fa -->
<g id="edge42" class="edge">
<title>dir_bf85a0c13984f214f436b2edc519c6dd&#45;&gt;dir_646ca0e8f46938429d8373c5298698fa</title>
<path fill="none" stroke="black" d="M215,-519.85C215,-482.83 215,-395.18 215,-350.39"/>
<polygon fill="black" stroke="black" points="218.5,-350.23 215,-340.23 211.5,-350.23 218.5,-350.23"/>
<g id="a_edge42&#45;headlabel"><a xlink:href="dir_000028_000125.html" target="_top" xlink:title="1">
<text text-anchor="middle" x="221.34" y="-351.33" font-family="Helvetica,sans-Serif" font-size="10.00">1</text>
</a>
</g>
</g>
<!-- dir_d739e095b49d8b72164589d00310017d&#45;&gt;dir_a36da230f0956f48b11c85f7d599788f -->
<g id="edge25" class="edge">
<title>dir_d739e095b49d8b72164589d00310017d&#45;&gt;dir_a36da230f0956f48b11c85f7d599788f</title>
<path fill="none" stroke="black" d="M449.92,-447.85C472.87,-422.71 511,-373.35 511,-323 511,-323 511,-323 511,-249 511,-171.53 409.82,-132.34 351.75,-116.23"/>
<polygon fill="black" stroke="black" points="352.36,-112.77 341.79,-113.57 350.55,-119.53 352.36,-112.77"/>
<g id="a_edge25&#45;headlabel"><a xlink:href="dir_000059_000015.html" target="_top" xlink:title="199">
<text text-anchor="middle" x="356.56" y="-108.45" font-family="Helvetica,sans-Serif" font-size="10.00">199</text>
</a>
</g>
</g>
<!-- dir_d739e095b49d8b72164589d00310017d&#45;&gt;dir_3c3c25df5132fca4f15a988b4c2efab5 -->
<g id="edge23" class="edge">
<title>dir_d739e095b49d8b72164589d00310017d&#45;&gt;dir_3c3c25df5132fca4f15a988b4c2efab5</title>
<path fill="none" stroke="black" d="M400.77,-461.6C360.18,-456.18 289.41,-442.83 237,-412 198.53,-389.37 186.8,-380 167,-340 145.71,-296.99 142.11,-240.2 142.09,-206.84"/>
<polygon fill="black" stroke="black" points="145.59,-206.51 142.2,-196.48 138.59,-206.44 145.59,-206.51"/>
<g id="a_edge23&#45;headlabel"><a xlink:href="dir_000059_000070.html" target="_top" xlink:title="1">
<text text-anchor="middle" x="148.39" y="-207.64" font-family="Helvetica,sans-Serif" font-size="10.00">1</text>
</a>
</g>
</g>
<!-- dir_d739e095b49d8b72164589d00310017d&#45;&gt;dir_fc0178d6978c9fa2cad6ef3e048a60a7 -->
<g id="edge22" class="edge">
<title>dir_d739e095b49d8b72164589d00310017d&#45;&gt;dir_fc0178d6978c9fa2cad6ef3e048a60a7</title>
<path fill="none" stroke="black" d="M465.07,-450.61C485.12,-440.95 511.02,-427.24 532,-412 601.12,-361.79 637,-336.43 637,-251 637,-251 637,-251 637,-177 637,-52.58 434.5,-36.1 349.19,-34.68"/>
<polygon fill="black" stroke="black" points="349.19,-31.18 339.15,-34.58 349.11,-38.18 349.19,-31.18"/>
<g id="a_edge22&#45;headlabel"><a xlink:href="dir_000059_000018.html" target="_top" xlink:title="42">
<text text-anchor="middle" x="352.81" y="-25.88" font-family="Helvetica,sans-Serif" font-size="10.00">42</text>
</a>
</g>
</g>
<!-- dir_d739e095b49d8b72164589d00310017d&#45;&gt;dir_39b8b3c6654246a9c12332c930bc7d3f -->
<g id="edge21" class="edge">
<title>dir_d739e095b49d8b72164589d00310017d&#45;&gt;dir_39b8b3c6654246a9c12332c930bc7d3f</title>
<path fill="none" stroke="black" d="M400.97,-449.64C383.61,-440.18 362.33,-427.89 345,-417.36"/>
<polygon fill="black" stroke="black" points="346.68,-414.29 336.33,-412.04 343.02,-420.26 346.68,-414.29"/>
<g id="a_edge21&#45;headlabel"><a xlink:href="dir_000059_000055.html" target="_top" xlink:title="9">
<text text-anchor="middle" x="351.23" y="-411.25" font-family="Helvetica,sans-Serif" font-size="10.00">9</text>
</a>
</g>
</g>
<!-- dir_0897ed8fd6dd400fbb3f13ca4cf30fd4 -->
<g id="node11" class="node">
<title>dir_0897ed8fd6dd400fbb3f13ca4cf30fd4</title>
<g id="a_node11"><a xlink:href="dir_0897ed8fd6dd400fbb3f13ca4cf30fd4.html" target="_top" xlink:title="perception">
<polygon fill="white" stroke="black" points="598,-340 530,-340 530,-304 598,-304 598,-340"/>
<text text-anchor="middle" x="564" y="-319.5" font-family="Helvetica,sans-Serif" font-size="10.00">perception</text>
</a>
</g>
</g>
<!-- dir_d739e095b49d8b72164589d00310017d&#45;&gt;dir_0897ed8fd6dd400fbb3f13ca4cf30fd4 -->
<g id="edge26" class="edge">
<title>dir_d739e095b49d8b72164589d00310017d&#45;&gt;dir_0897ed8fd6dd400fbb3f13ca4cf30fd4</title>
<path fill="none" stroke="black" d="M465.34,-449.42C481.97,-440.24 501.69,-427.41 516,-412 532.99,-393.71 545.92,-368.27 554.05,-349.28"/>
<polygon fill="black" stroke="black" points="557.3,-350.58 557.86,-340 550.82,-347.92 557.3,-350.58"/>
<g id="a_edge26&#45;headlabel"><a xlink:href="dir_000059_000102.html" target="_top" xlink:title="1">
<text text-anchor="middle" x="558.56" y="-352.49" font-family="Helvetica,sans-Serif" font-size="10.00">1</text>
</a>
</g>
</g>
<!-- dir_d739e095b49d8b72164589d00310017d&#45;&gt;dir_c86b501450b8b8b59405c286cb030cc3 -->
<g id="edge24" class="edge">
<title>dir_d739e095b49d8b72164589d00310017d&#45;&gt;dir_c86b501450b8b8b59405c286cb030cc3</title>
<path fill="none" stroke="black" d="M441.31,-447.79C445.74,-437.63 450.74,-424.38 453,-412 455.87,-396.26 453.78,-391.98 453,-376 451.44,-343.89 452.15,-335.56 446,-304 439.27,-269.44 427.06,-230.72 418.51,-205.66"/>
<polygon fill="black" stroke="black" points="421.79,-204.44 415.21,-196.13 415.17,-206.73 421.79,-204.44"/>
<g id="a_edge24&#45;headlabel"><a xlink:href="dir_000059_000110.html" target="_top" xlink:title="17">
<text text-anchor="middle" x="425.65" y="-204.4" font-family="Helvetica,sans-Serif" font-size="10.00">17</text>
</a>
</g>
</g>
<!-- dir_d739e095b49d8b72164589d00310017d&#45;&gt;dir_b7a0e33b407baa23d8a077e33033c988 -->
<g id="edge27" class="edge">
<title>dir_d739e095b49d8b72164589d00310017d&#45;&gt;dir_b7a0e33b407baa23d8a077e33033c988</title>
<path fill="none" stroke="black" d="M433.05,-447.82C437.94,-417.01 451.42,-351.17 427,-304 420.57,-291.59 409.75,-281.46 398.67,-273.51"/>
<polygon fill="black" stroke="black" points="400.46,-270.5 390.2,-267.86 396.57,-276.32 400.46,-270.5"/>
<g id="a_edge27&#45;headlabel"><a xlink:href="dir_000059_000087.html" target="_top" xlink:title="20">
<text text-anchor="middle" x="405.03" y="-267.64" font-family="Helvetica,sans-Serif" font-size="10.00">20</text>
</a>
</g>
</g>
<!-- dir_3c3c25df5132fca4f15a988b4c2efab5&#45;&gt;dir_a36da230f0956f48b11c85f7d599788f -->
<g id="edge12" class="edge">
<title>dir_3c3c25df5132fca4f15a988b4c2efab5&#45;&gt;dir_a36da230f0956f48b11c85f7d599788f</title>
<path fill="none" stroke="black" d="M170.15,-165.75C197.97,-154.23 241.49,-136.2 273,-123.16"/>
<polygon fill="black" stroke="black" points="274.46,-126.34 282.36,-119.28 271.78,-119.87 274.46,-126.34"/>
<g id="a_edge12&#45;headlabel"><a xlink:href="dir_000070_000015.html" target="_top" xlink:title="9">
<text text-anchor="middle" x="272.22" y="-127.84" font-family="Helvetica,sans-Serif" font-size="10.00">9</text>
</a>
</g>
</g>
<!-- dir_758aa030403a70af025108ac41d12d0d&#45;&gt;dir_a36da230f0956f48b11c85f7d599788f -->
<g id="edge18" class="edge">
<title>dir_758aa030403a70af025108ac41d12d0d&#45;&gt;dir_a36da230f0956f48b11c85f7d599788f</title>
<path fill="none" stroke="black" d="M128.11,-447.93C116.71,-421.67 97,-369.53 97,-323 97,-323 97,-323 97,-249 97,-209.2 80.91,-190.06 107,-160 128.4,-135.34 218.83,-119.38 272.17,-111.92"/>
<polygon fill="black" stroke="black" points="272.87,-115.36 282.31,-110.55 271.93,-108.42 272.87,-115.36"/>
<g id="a_edge18&#45;headlabel"><a xlink:href="dir_000071_000015.html" target="_top" xlink:title="31">
<text text-anchor="middle" x="269.69" y="-116.16" font-family="Helvetica,sans-Serif" font-size="10.00">31</text>
</a>
</g>
</g>
<!-- dir_758aa030403a70af025108ac41d12d0d&#45;&gt;dir_3c3c25df5132fca4f15a988b4c2efab5 -->
<g id="edge17" class="edge">
<title>dir_758aa030403a70af025108ac41d12d0d&#45;&gt;dir_3c3c25df5132fca4f15a988b4c2efab5</title>
<path fill="none" stroke="black" d="M134.32,-447.98C130.83,-409.43 123.74,-312.49 132,-232 132.88,-223.46 134.53,-214.26 136.29,-205.96"/>
<polygon fill="black" stroke="black" points="139.74,-206.57 138.54,-196.05 132.92,-205.03 139.74,-206.57"/>
<g id="a_edge17&#45;headlabel"><a xlink:href="dir_000071_000070.html" target="_top" xlink:title="2">
<text text-anchor="middle" x="141.72" y="-208.21" font-family="Helvetica,sans-Serif" font-size="10.00">2</text>
</a>
</g>
</g>
<!-- dir_758aa030403a70af025108ac41d12d0d&#45;&gt;dir_fc0178d6978c9fa2cad6ef3e048a60a7 -->
<g id="edge16" class="edge">
<title>dir_758aa030403a70af025108ac41d12d0d&#45;&gt;dir_fc0178d6978c9fa2cad6ef3e048a60a7</title>
<path fill="none" stroke="black" d="M120.9,-447.6C113.28,-437.81 104.69,-424.97 100,-412 61.89,-306.55 31.23,-256.69 88,-160 128.48,-91.05 222.35,-57.33 274.82,-43.34"/>
<polygon fill="black" stroke="black" points="275.91,-46.67 284.73,-40.8 274.17,-39.89 275.91,-46.67"/>
<g id="a_edge16&#45;headlabel"><a xlink:href="dir_000071_000018.html" target="_top" xlink:title="2">
<text text-anchor="middle" x="273.13" y="-47.82" font-family="Helvetica,sans-Serif" font-size="10.00">2</text>
</a>
</g>
</g>
<!-- dir_758aa030403a70af025108ac41d12d0d&#45;&gt;dir_39b8b3c6654246a9c12332c930bc7d3f -->
<g id="edge15" class="edge">
<title>dir_758aa030403a70af025108ac41d12d0d&#45;&gt;dir_39b8b3c6654246a9c12332c930bc7d3f</title>
<path fill="none" stroke="black" d="M176.61,-448.94C204.76,-437.81 242.16,-423.02 270.68,-411.74"/>
<polygon fill="black" stroke="black" points="271.97,-414.99 279.98,-408.06 269.4,-408.48 271.97,-414.99"/>
<g id="a_edge15&#45;headlabel"><a xlink:href="dir_000071_000055.html" target="_top" xlink:title="17">
<text text-anchor="middle" x="269.67" y="-416.45" font-family="Helvetica,sans-Serif" font-size="10.00">17</text>
</a>
</g>
</g>
<!-- dir_758aa030403a70af025108ac41d12d0d&#45;&gt;dir_b7a0e33b407baa23d8a077e33033c988 -->
<g id="edge19" class="edge">
<title>dir_758aa030403a70af025108ac41d12d0d&#45;&gt;dir_b7a0e33b407baa23d8a077e33033c988</title>
<path fill="none" stroke="black" d="M133.93,-447.87C131.01,-415.34 129.67,-344.3 167,-304 206.76,-261.08 277.59,-251.64 321.78,-250.24"/>
<polygon fill="black" stroke="black" points="321.93,-253.74 331.86,-250.04 321.8,-246.74 321.93,-253.74"/>
<g id="a_edge19&#45;headlabel"><a xlink:href="dir_000071_000087.html" target="_top" xlink:title="30">
<text text-anchor="middle" x="318.39" y="-254.14" font-family="Helvetica,sans-Serif" font-size="10.00">30</text>
</a>
</g>
</g>
<!-- dir_fc0178d6978c9fa2cad6ef3e048a60a7&#45;&gt;dir_a36da230f0956f48b11c85f7d599788f -->
<g id="edge11" class="edge">
<title>dir_fc0178d6978c9fa2cad6ef3e048a60a7&#45;&gt;dir_a36da230f0956f48b11c85f7d599788f</title>
<path fill="none" stroke="black" d="M317.9,-52.1C318.7,-59.79 318.94,-69.05 318.6,-77.67"/>
<polygon fill="black" stroke="black" points="315.11,-77.48 317.92,-87.7 322.09,-77.96 315.11,-77.48"/>
<g id="a_edge11&#45;headlabel"><a xlink:href="dir_000018_000015.html" target="_top" xlink:title="60">
<text text-anchor="middle" x="312.52" y="-71.2" font-family="Helvetica,sans-Serif" font-size="10.00">60</text>
</a>
</g>
</g>
<!-- dir_39b8b3c6654246a9c12332c930bc7d3f&#45;&gt;dir_a36da230f0956f48b11c85f7d599788f -->
<g id="edge6" class="edge">
<title>dir_39b8b3c6654246a9c12332c930bc7d3f&#45;&gt;dir_a36da230f0956f48b11c85f7d599788f</title>
<path fill="none" stroke="black" d="M311,-375.73C306.8,-337.05 297.96,-240.53 304,-160 304.64,-151.52 305.84,-142.34 307.12,-134.04"/>
<polygon fill="black" stroke="black" points="310.58,-134.55 308.75,-124.11 303.68,-133.41 310.58,-134.55"/>
<g id="a_edge6&#45;headlabel"><a xlink:href="dir_000055_000015.html" target="_top" xlink:title="467">
<text text-anchor="middle" x="312.8" y="-136.05" font-family="Helvetica,sans-Serif" font-size="10.00">467</text>
</a>
</g>
</g>
<!-- dir_39b8b3c6654246a9c12332c930bc7d3f&#45;&gt;dir_d739e095b49d8b72164589d00310017d -->
<g id="edge7" class="edge">
<title>dir_39b8b3c6654246a9c12332c930bc7d3f&#45;&gt;dir_d739e095b49d8b72164589d00310017d</title>
<path fill="none" stroke="black" d="M346.18,-410.99C363.18,-420.28 383.7,-432.14 400.59,-442.38"/>
<polygon fill="black" stroke="black" points="399.19,-445.63 409.54,-447.88 402.85,-439.66 399.19,-445.63"/>
<g id="a_edge7&#45;headlabel"><a xlink:href="dir_000055_000059.html" target="_top" xlink:title="46">
<text text-anchor="middle" x="394.64" y="-443.67" font-family="Helvetica,sans-Serif" font-size="10.00">46</text>
</a>
</g>
</g>
<!-- dir_39b8b3c6654246a9c12332c930bc7d3f&#45;&gt;dir_fc0178d6978c9fa2cad6ef3e048a60a7 -->
<g id="edge4" class="edge">
<title>dir_39b8b3c6654246a9c12332c930bc7d3f&#45;&gt;dir_fc0178d6978c9fa2cad6ef3e048a60a7</title>
<path fill="none" stroke="black" d="M308.26,-375.93C305.52,-365.6 302.21,-352.12 300,-340 282.67,-244.87 279.79,-220.52 274,-124 273.04,-108.03 269.1,-103.23 274,-88 277.19,-78.08 283,-68.44 289.13,-60.17"/>
<polygon fill="black" stroke="black" points="292.07,-62.09 295.54,-52.08 286.58,-57.74 292.07,-62.09"/>
<g id="a_edge4&#45;headlabel"><a xlink:href="dir_000055_000018.html" target="_top" xlink:title="53">
<text text-anchor="middle" x="292.06" y="-64.17" font-family="Helvetica,sans-Serif" font-size="10.00">53</text>
</a>
</g>
</g>
<!-- dir_c1924aea86cc02fece93f366eec781e1 -->
<g id="node12" class="node">
<title>dir_c1924aea86cc02fece93f366eec781e1</title>
<g id="a_node12"><a xlink:href="dir_c1924aea86cc02fece93f366eec781e1.html" target="_top" xlink:title="planning">
<polygon fill="white" stroke="red" points="391.5,-340 332.5,-340 332.5,-304 391.5,-304 391.5,-340"/>
<text text-anchor="middle" x="362" y="-319.5" font-family="Helvetica,sans-Serif" font-size="10.00">planning</text>
</a>
</g>
</g>
<!-- dir_39b8b3c6654246a9c12332c930bc7d3f&#45;&gt;dir_c1924aea86cc02fece93f366eec781e1 -->
<g id="edge10" class="edge">
<title>dir_39b8b3c6654246a9c12332c930bc7d3f&#45;&gt;dir_c1924aea86cc02fece93f366eec781e1</title>
<path fill="none" stroke="black" d="M319.2,-375.7C324.15,-367.39 331.04,-357.28 337.9,-348.14"/>
<polygon fill="black" stroke="black" points="340.77,-350.15 344.13,-340.1 335.24,-345.86 340.77,-350.15"/>
<g id="a_edge10&#45;headlabel"><a xlink:href="dir_000055_000103.html" target="_top" xlink:title="4">
<text text-anchor="middle" x="340.81" y="-352.23" font-family="Helvetica,sans-Serif" font-size="10.00">4</text>
</a>
</g>
</g>
<!-- dir_39b8b3c6654246a9c12332c930bc7d3f&#45;&gt;dir_c86b501450b8b8b59405c286cb030cc3 -->
<g id="edge5" class="edge">
<title>dir_39b8b3c6654246a9c12332c930bc7d3f&#45;&gt;dir_c86b501450b8b8b59405c286cb030cc3</title>
<path fill="none" stroke="black" d="M346.1,-381.76C365.43,-373.38 388.44,-359.91 401,-340 426.74,-299.21 421.44,-240.37 415.24,-206.27"/>
<polygon fill="black" stroke="black" points="418.61,-205.25 413.23,-196.12 411.74,-206.61 418.61,-205.25"/>
<g id="a_edge5&#45;headlabel"><a xlink:href="dir_000055_000110.html" target="_top" xlink:title="45">
<text text-anchor="middle" x="422.09" y="-205.73" font-family="Helvetica,sans-Serif" font-size="10.00">45</text>
</a>
</g>
</g>
<!-- dir_39b8b3c6654246a9c12332c930bc7d3f&#45;&gt;dir_b7a0e33b407baa23d8a077e33033c988 -->
<g id="edge9" class="edge">
<title>dir_39b8b3c6654246a9c12332c930bc7d3f&#45;&gt;dir_b7a0e33b407baa23d8a077e33033c988</title>
<path fill="none" stroke="black" d="M306.03,-375.68C303.94,-357.3 305.91,-327.69 315,-304 318.74,-294.26 324.64,-284.6 331.08,-276.25"/>
<polygon fill="black" stroke="black" points="333.92,-278.3 337.63,-268.38 328.54,-273.82 333.92,-278.3"/>
<g id="a_edge9&#45;headlabel"><a xlink:href="dir_000055_000087.html" target="_top" xlink:title="69">
<text text-anchor="middle" x="333.8" y="-280.38" font-family="Helvetica,sans-Serif" font-size="10.00">69</text>
</a>
</g>
</g>
<!-- dir_39b8b3c6654246a9c12332c930bc7d3f&#45;&gt;dir_646ca0e8f46938429d8373c5298698fa -->
<g id="edge8" class="edge">
<title>dir_39b8b3c6654246a9c12332c930bc7d3f&#45;&gt;dir_646ca0e8f46938429d8373c5298698fa</title>
<path fill="none" stroke="black" d="M283.13,-375.88C269.74,-366.98 254.16,-355.97 241.23,-346.31"/>
<polygon fill="black" stroke="black" points="243.24,-343.44 233.16,-340.19 239.01,-349.02 243.24,-343.44"/>
<g id="a_edge8&#45;headlabel"><a xlink:href="dir_000055_000125.html" target="_top" xlink:title="1">
<text text-anchor="middle" x="247.82" y="-340.85" font-family="Helvetica,sans-Serif" font-size="10.00">1</text>
</a>
</g>
</g>
<!-- dir_0897ed8fd6dd400fbb3f13ca4cf30fd4&#45;&gt;dir_a36da230f0956f48b11c85f7d599788f -->
<g id="edge29" class="edge">
<title>dir_0897ed8fd6dd400fbb3f13ca4cf30fd4&#45;&gt;dir_a36da230f0956f48b11c85f7d599788f</title>
<path fill="none" stroke="black" d="M559.91,-303.9C550.36,-264.56 526.6,-170.23 516,-160 471.66,-117.21 397.39,-107.78 351.75,-106.34"/>
<polygon fill="black" stroke="black" points="351.7,-102.84 341.63,-106.14 351.56,-109.84 351.7,-102.84"/>
<g id="a_edge29&#45;headlabel"><a xlink:href="dir_000102_000015.html" target="_top" xlink:title="7">
<text text-anchor="middle" x="355.35" y="-97.57" font-family="Helvetica,sans-Serif" font-size="10.00">7</text>
</a>
</g>
</g>
<!-- dir_0897ed8fd6dd400fbb3f13ca4cf30fd4&#45;&gt;dir_fc0178d6978c9fa2cad6ef3e048a60a7 -->
<g id="edge28" class="edge">
<title>dir_0897ed8fd6dd400fbb3f13ca4cf30fd4&#45;&gt;dir_fc0178d6978c9fa2cad6ef3e048a60a7</title>
<path fill="none" stroke="black" d="M564.79,-303.92C565.35,-272.09 562.21,-203.06 528,-160 480.82,-100.62 397.17,-64 348.98,-46.78"/>
<polygon fill="black" stroke="black" points="349.86,-43.38 339.26,-43.4 347.56,-49.99 349.86,-43.38"/>
<g id="a_edge28&#45;headlabel"><a xlink:href="dir_000102_000018.html" target="_top" xlink:title="1">
<text text-anchor="middle" x="354.19" y="-39.38" font-family="Helvetica,sans-Serif" font-size="10.00">1</text>
</a>
</g>
</g>
<!-- dir_0897ed8fd6dd400fbb3f13ca4cf30fd4&#45;&gt;dir_b7a0e33b407baa23d8a077e33033c988 -->
<g id="edge30" class="edge">
<title>dir_0897ed8fd6dd400fbb3f13ca4cf30fd4&#45;&gt;dir_b7a0e33b407baa23d8a077e33033c988</title>
<path fill="none" stroke="black" d="M529.56,-309.13C493.53,-296.7 437.09,-277.24 399.58,-264.3"/>
<polygon fill="black" stroke="black" points="400.6,-260.95 390.01,-261 398.32,-267.57 400.6,-260.95"/>
<g id="a_edge30&#45;headlabel"><a xlink:href="dir_000102_000087.html" target="_top" xlink:title="6">
<text text-anchor="middle" x="404.92" y="-256.94" font-family="Helvetica,sans-Serif" font-size="10.00">6</text>
</a>
</g>
</g>
<!-- dir_c1924aea86cc02fece93f366eec781e1&#45;&gt;dir_a36da230f0956f48b11c85f7d599788f -->
<g id="edge52" class="edge">
<title>dir_c1924aea86cc02fece93f366eec781e1&#45;&gt;dir_a36da230f0956f48b11c85f7d599788f</title>
<path fill="none" stroke="black" d="M345.47,-303.87C337.18,-294.15 327.87,-281.3 323,-268 306.63,-223.33 307.14,-167.09 309.33,-134.27"/>
<polygon fill="black" stroke="black" points="312.84,-134.34 310.12,-124.1 305.86,-133.79 312.84,-134.34"/>
<g id="a_edge52&#45;headlabel"><a xlink:href="dir_000103_000015.html" target="_top" xlink:title="35">
<text text-anchor="middle" x="315.39" y="-135.64" font-family="Helvetica,sans-Serif" font-size="10.00">35</text>
</a>
</g>
</g>
<!-- dir_c1924aea86cc02fece93f366eec781e1&#45;&gt;dir_d739e095b49d8b72164589d00310017d -->
<g id="edge53" class="edge">
<title>dir_c1924aea86cc02fece93f366eec781e1&#45;&gt;dir_d739e095b49d8b72164589d00310017d</title>
<path fill="none" stroke="black" d="M370.59,-340.19C382.87,-364.74 405.53,-410.07 419.91,-438.81"/>
<polygon fill="black" stroke="black" points="416.83,-440.49 424.44,-447.87 423.09,-437.36 416.83,-440.49"/>
<g id="a_edge53&#45;headlabel"><a xlink:href="dir_000103_000059.html" target="_top" xlink:title="9">
<text text-anchor="middle" x="412.69" y="-436.05" font-family="Helvetica,sans-Serif" font-size="10.00">9</text>
</a>
</g>
</g>
<!-- dir_c1924aea86cc02fece93f366eec781e1&#45;&gt;dir_39b8b3c6654246a9c12332c930bc7d3f -->
<g id="edge50" class="edge">
<title>dir_c1924aea86cc02fece93f366eec781e1&#45;&gt;dir_39b8b3c6654246a9c12332c930bc7d3f</title>
<path fill="none" stroke="black" d="M355.92,-340.1C350.99,-348.38 344.13,-358.49 337.27,-367.64"/>
<polygon fill="black" stroke="black" points="334.39,-365.65 331.03,-375.7 339.92,-369.93 334.39,-365.65"/>
<g id="a_edge50&#45;headlabel"><a xlink:href="dir_000103_000055.html" target="_top" xlink:title="10">
<text text-anchor="middle" x="334.34" y="-358.57" font-family="Helvetica,sans-Serif" font-size="10.00">10</text>
</a>
</g>
</g>
<!-- dir_c1924aea86cc02fece93f366eec781e1&#45;&gt;dir_c86b501450b8b8b59405c286cb030cc3 -->
<g id="edge51" class="edge">
<title>dir_c1924aea86cc02fece93f366eec781e1&#45;&gt;dir_c86b501450b8b8b59405c286cb030cc3</title>
<path fill="none" stroke="black" d="M377.45,-303.64C385.25,-293.86 394.09,-281.02 399,-268 406.44,-248.27 408.81,-224.47 409.38,-206.44"/>
<polygon fill="black" stroke="black" points="412.88,-206.37 409.54,-196.31 405.88,-206.26 412.88,-206.37"/>
<g id="a_edge51&#45;headlabel"><a xlink:href="dir_000103_000110.html" target="_top" xlink:title="8">
<text text-anchor="middle" x="415.67" y="-207.51" font-family="Helvetica,sans-Serif" font-size="10.00">8</text>
</a>
</g>
</g>
<!-- dir_c1924aea86cc02fece93f366eec781e1&#45;&gt;dir_b7a0e33b407baa23d8a077e33033c988 -->
<g id="edge54" class="edge">
<title>dir_c1924aea86cc02fece93f366eec781e1&#45;&gt;dir_b7a0e33b407baa23d8a077e33033c988</title>
<path fill="none" stroke="black" d="M361.75,-303.7C361.64,-295.98 361.51,-286.71 361.39,-278.11"/>
<polygon fill="black" stroke="black" points="364.89,-278.05 361.24,-268.1 357.89,-278.15 364.89,-278.05"/>
<g id="a_edge54&#45;headlabel"><a xlink:href="dir_000103_000087.html" target="_top" xlink:title="9">
<text text-anchor="middle" x="367.78" y="-279.11" font-family="Helvetica,sans-Serif" font-size="10.00">9</text>
</a>
</g>
</g>
<!-- dir_c86b501450b8b8b59405c286cb030cc3&#45;&gt;dir_a36da230f0956f48b11c85f7d599788f -->
<g id="edge14" class="edge">
<title>dir_c86b501450b8b8b59405c286cb030cc3&#45;&gt;dir_a36da230f0956f48b11c85f7d599788f</title>
<path fill="none" stroke="black" d="M385.02,-159.7C372.69,-150.8 357.48,-139.82 344.15,-130.2"/>
<polygon fill="black" stroke="black" points="345.86,-127.12 335.7,-124.1 341.76,-132.79 345.86,-127.12"/>
<g id="a_edge14&#45;headlabel"><a xlink:href="dir_000110_000015.html" target="_top" xlink:title="73">
<text text-anchor="middle" x="350.44" y="-124.42" font-family="Helvetica,sans-Serif" font-size="10.00">73</text>
</a>
</g>
</g>
<!-- dir_c86b501450b8b8b59405c286cb030cc3&#45;&gt;dir_fc0178d6978c9fa2cad6ef3e048a60a7 -->
<g id="edge13" class="edge">
<title>dir_c86b501450b8b8b59405c286cb030cc3&#45;&gt;dir_fc0178d6978c9fa2cad6ef3e048a60a7</title>
<path fill="none" stroke="black" d="M402.82,-159.98C395.6,-141.33 382.51,-111 366,-88 358.58,-77.66 349.04,-67.56 340.05,-58.99"/>
<polygon fill="black" stroke="black" points="342.41,-56.4 332.69,-52.19 337.66,-61.54 342.41,-56.4"/>
<g id="a_edge13&#45;headlabel"><a xlink:href="dir_000110_000018.html" target="_top" xlink:title="2">
<text text-anchor="middle" x="346.98" y="-54.26" font-family="Helvetica,sans-Serif" font-size="10.00">2</text>
</a>
</g>
</g>
<!-- dir_b7a0e33b407baa23d8a077e33033c988&#45;&gt;dir_a36da230f0956f48b11c85f7d599788f -->
<g id="edge48" class="edge">
<title>dir_b7a0e33b407baa23d8a077e33033c988&#45;&gt;dir_a36da230f0956f48b11c85f7d599788f</title>
<path fill="none" stroke="black" d="M355.09,-231.87C346.7,-207.56 331.26,-162.82 321.32,-134.01"/>
<polygon fill="black" stroke="black" points="324.5,-132.5 317.93,-124.19 317.88,-134.78 324.5,-132.5"/>
<g id="a_edge48&#45;headlabel"><a xlink:href="dir_000087_000015.html" target="_top" xlink:title="386">
<text text-anchor="middle" x="328.36" y="-132.47" font-family="Helvetica,sans-Serif" font-size="10.00">386</text>
</a>
</g>
</g>
<!-- dir_b7a0e33b407baa23d8a077e33033c988&#45;&gt;dir_d739e095b49d8b72164589d00310017d -->
<g id="edge49" class="edge">
<title>dir_b7a0e33b407baa23d8a077e33033c988&#45;&gt;dir_d739e095b49d8b72164589d00310017d</title>
<path fill="none" stroke="black" d="M390.07,-259.64C409.83,-268.02 433.93,-282.62 445,-304 467.13,-346.75 458.14,-404.83 447.13,-438.27"/>
<polygon fill="black" stroke="black" points="443.79,-437.23 443.69,-447.82 450.37,-439.6 443.79,-437.23"/>
<g id="a_edge49&#45;headlabel"><a xlink:href="dir_000087_000059.html" target="_top" xlink:title="14">
<text text-anchor="middle" x="442.34" y="-430.38" font-family="Helvetica,sans-Serif" font-size="10.00">14</text>
</a>
</g>
</g>
<!-- dir_b7a0e33b407baa23d8a077e33033c988&#45;&gt;dir_3c3c25df5132fca4f15a988b4c2efab5 -->
<g id="edge46" class="edge">
<title>dir_b7a0e33b407baa23d8a077e33033c988&#45;&gt;dir_3c3c25df5132fca4f15a988b4c2efab5</title>
<path fill="none" stroke="black" d="M331.6,-239.56C292.33,-226.95 222.74,-204.61 179.96,-190.87"/>
<polygon fill="black" stroke="black" points="180.81,-187.47 170.22,-187.74 178.67,-194.13 180.81,-187.47"/>
<g id="a_edge46&#45;headlabel"><a xlink:href="dir_000087_000070.html" target="_top" xlink:title="12">
<text text-anchor="middle" x="185.1" y="-183.36" font-family="Helvetica,sans-Serif" font-size="10.00">12</text>
</a>
</g>
</g>
<!-- dir_b7a0e33b407baa23d8a077e33033c988&#45;&gt;dir_fc0178d6978c9fa2cad6ef3e048a60a7 -->
<g id="edge45" class="edge">
<title>dir_b7a0e33b407baa23d8a077e33033c988&#45;&gt;dir_fc0178d6978c9fa2cad6ef3e048a60a7</title>
<path fill="none" stroke="black" d="M363.01,-231.91C365.9,-201.8 369.06,-137.75 351,-88 347.37,-78.01 341.24,-68.29 334.89,-59.95"/>
<polygon fill="black" stroke="black" points="337.57,-57.7 328.56,-52.12 332.12,-62.1 337.57,-57.7"/>
<g id="a_edge45&#45;headlabel"><a xlink:href="dir_000087_000018.html" target="_top" xlink:title="7">
<text text-anchor="middle" x="342.04" y="-56.21" font-family="Helvetica,sans-Serif" font-size="10.00">7</text>
</a>
</g>
</g>
<!-- dir_b7a0e33b407baa23d8a077e33033c988&#45;&gt;dir_39b8b3c6654246a9c12332c930bc7d3f -->
<g id="edge44" class="edge">
<title>dir_b7a0e33b407baa23d8a077e33033c988&#45;&gt;dir_39b8b3c6654246a9c12332c930bc7d3f</title>
<path fill="none" stroke="black" d="M353.58,-268.38C346.82,-278.17 337.98,-291.01 333,-304 325.44,-323.71 322.8,-347.52 320.66,-365.55"/>
<polygon fill="black" stroke="black" points="317.16,-365.32 319.38,-375.68 324.1,-366.19 317.16,-365.32"/>
<g id="a_edge44&#45;headlabel"><a xlink:href="dir_000087_000055.html" target="_top" xlink:title="12">
<text text-anchor="middle" x="314.79" y="-358.9" font-family="Helvetica,sans-Serif" font-size="10.00">12</text>
</a>
</g>
</g>
<!-- dir_b7a0e33b407baa23d8a077e33033c988&#45;&gt;dir_c86b501450b8b8b59405c286cb030cc3 -->
<g id="edge47" class="edge">
<title>dir_b7a0e33b407baa23d8a077e33033c988&#45;&gt;dir_c86b501450b8b8b59405c286cb030cc3</title>
<path fill="none" stroke="black" d="M372.87,-231.7C378.5,-223.47 385.35,-213.48 391.57,-204.42"/>
<polygon fill="black" stroke="black" points="394.5,-206.33 397.27,-196.1 388.73,-202.37 394.5,-206.33"/>
<g id="a_edge47&#45;headlabel"><a xlink:href="dir_000087_000110.html" target="_top" xlink:title="4">
<text text-anchor="middle" x="394.81" y="-208.4" font-family="Helvetica,sans-Serif" font-size="10.00">4</text>
</a>
</g>
</g>
<!-- dir_646ca0e8f46938429d8373c5298698fa&#45;&gt;dir_a36da230f0956f48b11c85f7d599788f -->
<g id="edge32" class="edge">
<title>dir_646ca0e8f46938429d8373c5298698fa&#45;&gt;dir_a36da230f0956f48b11c85f7d599788f</title>
<path fill="none" stroke="black" d="M222.77,-303.85C239.66,-266.6 279.79,-178.07 299.97,-133.54"/>
<polygon fill="black" stroke="black" points="303.25,-134.79 304.19,-124.23 296.87,-131.9 303.25,-134.79"/>
<g id="a_edge32&#45;headlabel"><a xlink:href="dir_000125_000015.html" target="_top" xlink:title="5">
<text text-anchor="middle" x="304.35" y="-136.73" font-family="Helvetica,sans-Serif" font-size="10.00">5</text>
</a>
</g>
</g>
<!-- dir_646ca0e8f46938429d8373c5298698fa&#45;&gt;dir_d739e095b49d8b72164589d00310017d -->
<g id="edge33" class="edge">
<title>dir_646ca0e8f46938429d8373c5298698fa&#45;&gt;dir_d739e095b49d8b72164589d00310017d</title>
<path fill="none" stroke="black" d="M221.58,-340.27C230.06,-360.31 246.68,-393.02 271,-412 306.03,-439.34 355.71,-452.84 390.8,-459.33"/>
<polygon fill="black" stroke="black" points="390.28,-462.8 400.73,-461.06 391.48,-455.9 390.28,-462.8"/>
<g id="a_edge33&#45;headlabel"><a xlink:href="dir_000125_000059.html" target="_top" xlink:title="9">
<text text-anchor="middle" x="386.26" y="-462.48" font-family="Helvetica,sans-Serif" font-size="10.00">9</text>
</a>
</g>
</g>
<!-- dir_646ca0e8f46938429d8373c5298698fa&#45;&gt;dir_39b8b3c6654246a9c12332c930bc7d3f -->
<g id="edge31" class="edge">
<title>dir_646ca0e8f46938429d8373c5298698fa&#45;&gt;dir_39b8b3c6654246a9c12332c930bc7d3f</title>
<path fill="none" stroke="black" d="M244.84,-340.1C258.19,-348.97 273.71,-359.94 286.63,-369.59"/>
<polygon fill="black" stroke="black" points="284.61,-372.44 294.69,-375.7 288.84,-366.87 284.61,-372.44"/>
<g id="a_edge31&#45;headlabel"><a xlink:href="dir_000125_000055.html" target="_top" xlink:title="3">
<text text-anchor="middle" x="280.03" y="-370.04" font-family="Helvetica,sans-Serif" font-size="10.00">3</text>
</a>
</g>
</g>
<!-- dir_646ca0e8f46938429d8373c5298698fa&#45;&gt;dir_b7a0e33b407baa23d8a077e33033c988 -->
<g id="edge34" class="edge">
<title>dir_646ca0e8f46938429d8373c5298698fa&#45;&gt;dir_b7a0e33b407baa23d8a077e33033c988</title>
<path fill="none" stroke="black" d="M250.72,-303.88C272.43,-293.46 300.17,-280.17 322.39,-269.51"/>
<polygon fill="black" stroke="black" points="324.04,-272.6 331.54,-265.12 321.01,-266.29 324.04,-272.6"/>
<g id="a_edge34&#45;headlabel"><a xlink:href="dir_000125_000087.html" target="_top" xlink:title="12">
<text text-anchor="middle" x="322.03" y="-274.22" font-family="Helvetica,sans-Serif" font-size="10.00">12</text>
</a>
</g>
</g>
</g>
</svg>
