<?xml version="1.0" encoding="UTF-8" standalone="no"?>
<!DOCTYPE svg PUBLIC "-//W3C//DTD SVG 1.1//EN"
 "http://www.w3.org/Graphics/SVG/1.1/DTD/svg11.dtd">
<!-- Generated by graphviz version 2.43.0 (0)
 -->
<!-- Title: drake/multibody/fem/dirichlet_boundary_condition.h Pages: 1 -->
<svg width="407pt" height="396pt"
 viewBox="0.00 0.00 406.50 396.00" xmlns="http://www.w3.org/2000/svg" xmlns:xlink="http://www.w3.org/1999/xlink">
<g id="graph0" class="graph" transform="scale(1 1) rotate(0) translate(4 392)">
<title>drake/multibody/fem/dirichlet_boundary_condition.h</title>
<polygon fill="white" stroke="transparent" points="-4,4 -4,-392 402.5,-392 402.5,4 -4,4"/>
<!-- Node122 -->
<g id="node1" class="node">
<title>Node122</title>
<g id="a_node1"><a xlink:title=" ">
<polygon fill="#bfbfbf" stroke="black" points="137,-346.5 137,-387.5 256,-387.5 256,-346.5 137,-346.5"/>
<text text-anchor="start" x="145" y="-375.5" font-family="Helvetica,sans-Serif" font-size="10.00">drake/multibody/fem</text>
<text text-anchor="start" x="145" y="-364.5" font-family="Helvetica,sans-Serif" font-size="10.00">/dirichlet_boundary</text>
<text text-anchor="middle" x="196.5" y="-353.5" font-family="Helvetica,sans-Serif" font-size="10.00">_condition.h</text>
</a>
</g>
</g>
<!-- Node123 -->
<g id="node2" class="node">
<title>Node123</title>
<g id="a_node2"><a xlink:href="fem__model_8h.html" target="_top" xlink:title=" ">
<polygon fill="white" stroke="black" points="137,-279.5 137,-309.5 256,-309.5 256,-279.5 137,-279.5"/>
<text text-anchor="start" x="145" y="-297.5" font-family="Helvetica,sans-Serif" font-size="10.00">drake/multibody/fem</text>
<text text-anchor="middle" x="196.5" y="-286.5" font-family="Helvetica,sans-Serif" font-size="10.00">/fem_model.h</text>
</a>
</g>
</g>
<!-- Node122&#45;&gt;Node123 -->
<g id="edge1" class="edge">
<title>Node122&#45;&gt;Node123</title>
<path fill="none" stroke="midnightblue" d="M196.5,-336.08C196.5,-327.01 196.5,-317.45 196.5,-309.89"/>
<polygon fill="midnightblue" stroke="midnightblue" points="193,-336.36 196.5,-346.36 200,-336.36 193,-336.36"/>
</g>
<!-- Node124 -->
<g id="node3" class="node">
<title>Node124</title>
<g id="a_node3"><a xlink:href="fem__model__impl_8h.html" target="_top" xlink:title=" ">
<polygon fill="white" stroke="black" points="0,-212.5 0,-242.5 119,-242.5 119,-212.5 0,-212.5"/>
<text text-anchor="start" x="8" y="-230.5" font-family="Helvetica,sans-Serif" font-size="10.00">drake/multibody/fem</text>
<text text-anchor="middle" x="59.5" y="-219.5" font-family="Helvetica,sans-Serif" font-size="10.00">/fem_model_impl.h</text>
</a>
</g>
</g>
<!-- Node123&#45;&gt;Node124 -->
<g id="edge2" class="edge">
<title>Node123&#45;&gt;Node124</title>
<path fill="none" stroke="midnightblue" d="M157.49,-274.99C135.78,-264.69 109.17,-252.07 89.17,-242.58"/>
<polygon fill="midnightblue" stroke="midnightblue" points="156.24,-278.27 166.77,-279.4 159.24,-271.95 156.24,-278.27"/>
</g>
<!-- Node126 -->
<g id="node5" class="node">
<title>Node126</title>
<g id="a_node5"><a xlink:href="fem__solver_8h.html" target="_top" xlink:title=" ">
<polygon fill="white" stroke="black" points="137,-212.5 137,-242.5 256,-242.5 256,-212.5 137,-212.5"/>
<text text-anchor="start" x="145" y="-230.5" font-family="Helvetica,sans-Serif" font-size="10.00">drake/multibody/fem</text>
<text text-anchor="middle" x="196.5" y="-219.5" font-family="Helvetica,sans-Serif" font-size="10.00">/fem_solver.h</text>
</a>
</g>
</g>
<!-- Node123&#45;&gt;Node126 -->
<g id="edge4" class="edge">
<title>Node123&#45;&gt;Node126</title>
<path fill="none" stroke="midnightblue" d="M196.5,-269.11C196.5,-260.15 196.5,-250.32 196.5,-242.58"/>
<polygon fill="midnightblue" stroke="midnightblue" points="193,-269.4 196.5,-279.4 200,-269.4 193,-269.4"/>
</g>
<!-- Node130 -->
<g id="node9" class="node">
<title>Node130</title>
<g id="a_node9"><a xlink:href="deformable__model_8h.html" target="_top" xlink:title=" ">
<polygon fill="white" stroke="black" points="274.5,-212.5 274.5,-242.5 398.5,-242.5 398.5,-212.5 274.5,-212.5"/>
<text text-anchor="start" x="282.5" y="-230.5" font-family="Helvetica,sans-Serif" font-size="10.00">drake/multibody/plant</text>
<text text-anchor="middle" x="336.5" y="-219.5" font-family="Helvetica,sans-Serif" font-size="10.00">/deformable_model.h</text>
</a>
</g>
</g>
<!-- Node123&#45;&gt;Node130 -->
<g id="edge8" class="edge">
<title>Node123&#45;&gt;Node130</title>
<path fill="none" stroke="midnightblue" d="M236.07,-275.13C258.31,-264.8 285.65,-252.11 306.18,-242.58"/>
<polygon fill="midnightblue" stroke="midnightblue" points="234.47,-272.01 226.88,-279.4 237.42,-278.36 234.47,-272.01"/>
</g>
<!-- Node125 -->
<g id="node4" class="node">
<title>Node125</title>
<g id="a_node4"><a xlink:href="volumetric__model_8h.html" target="_top" xlink:title=" ">
<polygon fill="white" stroke="black" points="0,-145.5 0,-175.5 119,-175.5 119,-145.5 0,-145.5"/>
<text text-anchor="start" x="8" y="-163.5" font-family="Helvetica,sans-Serif" font-size="10.00">drake/multibody/fem</text>
<text text-anchor="middle" x="59.5" y="-152.5" font-family="Helvetica,sans-Serif" font-size="10.00">/volumetric_model.h</text>
</a>
</g>
</g>
<!-- Node124&#45;&gt;Node125 -->
<g id="edge3" class="edge">
<title>Node124&#45;&gt;Node125</title>
<path fill="none" stroke="midnightblue" d="M59.5,-202.11C59.5,-193.15 59.5,-183.32 59.5,-175.58"/>
<polygon fill="midnightblue" stroke="midnightblue" points="56,-202.4 59.5,-212.4 63,-202.4 56,-202.4"/>
</g>
<!-- Node127 -->
<g id="node6" class="node">
<title>Node127</title>
<g id="a_node6"><a xlink:href="deformable__driver_8h.html" target="_top" xlink:title=" ">
<polygon fill="white" stroke="black" points="205.5,-145.5 205.5,-175.5 329.5,-175.5 329.5,-145.5 205.5,-145.5"/>
<text text-anchor="start" x="213.5" y="-163.5" font-family="Helvetica,sans-Serif" font-size="10.00">drake/multibody/plant</text>
<text text-anchor="middle" x="267.5" y="-152.5" font-family="Helvetica,sans-Serif" font-size="10.00">/deformable_driver.h</text>
</a>
</g>
</g>
<!-- Node126&#45;&gt;Node127 -->
<g id="edge5" class="edge">
<title>Node126&#45;&gt;Node127</title>
<path fill="none" stroke="midnightblue" d="M219.33,-205.6C230.05,-195.78 242.55,-184.34 252.12,-175.58"/>
<polygon fill="midnightblue" stroke="midnightblue" points="216.92,-203.06 211.91,-212.4 221.65,-208.22 216.92,-203.06"/>
</g>
<!-- Node128 -->
<g id="node7" class="node">
<title>Node128</title>
<g id="a_node7"><a xlink:href="compliant__contact__manager_8h.html" target="_top" xlink:title=" ">
<polygon fill="white" stroke="black" points="184,-78.5 184,-108.5 351,-108.5 351,-78.5 184,-78.5"/>
<text text-anchor="start" x="192" y="-96.5" font-family="Helvetica,sans-Serif" font-size="10.00">drake/multibody/plant</text>
<text text-anchor="middle" x="267.5" y="-85.5" font-family="Helvetica,sans-Serif" font-size="10.00">/compliant_contact_manager.h</text>
</a>
</g>
</g>
<!-- Node127&#45;&gt;Node128 -->
<g id="edge6" class="edge">
<title>Node127&#45;&gt;Node128</title>
<path fill="none" stroke="midnightblue" d="M267.5,-135.11C267.5,-126.15 267.5,-116.32 267.5,-108.58"/>
<polygon fill="midnightblue" stroke="midnightblue" points="264,-135.4 267.5,-145.4 271,-135.4 264,-135.4"/>
</g>
<!-- Node129 -->
<g id="node8" class="node">
<title>Node129</title>
<g id="a_node8"><a xlink:href="rigid__body__on__compliant__ground_8h.html" target="_top" xlink:title=" ">
<polygon fill="white" stroke="black" points="185,-0.5 185,-41.5 350,-41.5 350,-0.5 185,-0.5"/>
<text text-anchor="start" x="193" y="-29.5" font-family="Helvetica,sans-Serif" font-size="10.00">drake/multibody/plant</text>
<text text-anchor="start" x="193" y="-18.5" font-family="Helvetica,sans-Serif" font-size="10.00">/test_utilities/rigid</text>
<text text-anchor="middle" x="267.5" y="-7.5" font-family="Helvetica,sans-Serif" font-size="10.00">_body_on_compliant_ground.h</text>
</a>
</g>
</g>
<!-- Node128&#45;&gt;Node129 -->
<g id="edge7" class="edge">
<title>Node128&#45;&gt;Node129</title>
<path fill="none" stroke="midnightblue" d="M267.5,-67.98C267.5,-59.35 267.5,-49.76 267.5,-41.59"/>
<polygon fill="midnightblue" stroke="midnightblue" points="264,-68.23 267.5,-78.23 271,-68.23 264,-68.23"/>
</g>
<!-- Node130&#45;&gt;Node127 -->
<g id="edge9" class="edge">
<title>Node130&#45;&gt;Node127</title>
<path fill="none" stroke="midnightblue" d="M314.01,-205.31C303.66,-195.56 291.66,-184.26 282.44,-175.58"/>
<polygon fill="midnightblue" stroke="midnightblue" points="311.85,-208.09 321.53,-212.4 316.65,-202.99 311.85,-208.09"/>
</g>
</g>
</svg>
