<?xml version="1.0" encoding="UTF-8" standalone="no"?>
<!DOCTYPE svg PUBLIC "-//W3C//DTD SVG 1.1//EN"
 "http://www.w3.org/Graphics/SVG/1.1/DTD/svg11.dtd">
<!-- Generated by graphviz version 2.43.0 (0)
 -->
<!-- Title: drake/multibody/plant/discrete_contact_data.h Pages: 1 -->
<svg width="436pt" height="229pt"
 viewBox="0.00 0.00 436.00 229.00" xmlns="http://www.w3.org/2000/svg" xmlns:xlink="http://www.w3.org/1999/xlink">
<g id="graph0" class="graph" transform="scale(1 1) rotate(0) translate(4 225)">
<title>drake/multibody/plant/discrete_contact_data.h</title>
<polygon fill="white" stroke="transparent" points="-4,4 -4,-225 432,-225 432,4 -4,4"/>
<!-- Node0 -->
<g id="node1" class="node">
<title>Node0</title>
<g id="a_node1"><a xlink:title=" ">
<polygon fill="#bfbfbf" stroke="black" points="68.5,-190.5 68.5,-220.5 204.5,-220.5 204.5,-190.5 68.5,-190.5"/>
<text text-anchor="start" x="76.5" y="-208.5" font-family="Helvetica,sans-Serif" font-size="10.00">drake/multibody/plant</text>
<text text-anchor="middle" x="136.5" y="-197.5" font-family="Helvetica,sans-Serif" font-size="10.00">/discrete_contact_data.h</text>
</a>
</g>
</g>
<!-- Node1 -->
<g id="node2" class="node">
<title>Node1</title>
<g id="a_node2"><a xlink:title=" ">
<polygon fill="white" stroke="#bfbfbf" points="0,-129 0,-148 45,-148 45,-129 0,-129"/>
<text text-anchor="middle" x="22.5" y="-136" font-family="Helvetica,sans-Serif" font-size="10.00">utility</text>
</a>
</g>
</g>
<!-- Node0&#45;&gt;Node1 -->
<g id="edge1" class="edge">
<title>Node0&#45;&gt;Node1</title>
<path fill="none" stroke="midnightblue" d="M111.76,-190.4C92.29,-179.29 65.33,-163.92 46.15,-152.98"/>
<polygon fill="midnightblue" stroke="midnightblue" points="47.84,-149.92 37.42,-148.01 44.37,-156 47.84,-149.92"/>
</g>
<!-- Node2 -->
<g id="node3" class="node">
<title>Node2</title>
<g id="a_node3"><a xlink:title=" ">
<polygon fill="white" stroke="#bfbfbf" points="63,-129 63,-148 110,-148 110,-129 63,-129"/>
<text text-anchor="middle" x="86.5" y="-136" font-family="Helvetica,sans-Serif" font-size="10.00">vector</text>
</a>
</g>
</g>
<!-- Node0&#45;&gt;Node2 -->
<g id="edge2" class="edge">
<title>Node0&#45;&gt;Node2</title>
<path fill="none" stroke="midnightblue" d="M125.65,-190.4C117.93,-180.36 107.53,-166.84 99.39,-156.25"/>
<polygon fill="midnightblue" stroke="midnightblue" points="102.06,-153.99 93.19,-148.19 96.51,-158.25 102.06,-153.99"/>
</g>
<!-- Node3 -->
<g id="node4" class="node">
<title>Node3</title>
<g id="a_node4"><a xlink:href="drake__copyable_8h.html" target="_top" xlink:title="Provides careful macros to selectively enable or disable the special member functions for copy&#45;constr...">
<polygon fill="white" stroke="black" points="128,-123.5 128,-153.5 247,-153.5 247,-123.5 128,-123.5"/>
<text text-anchor="start" x="136" y="-141.5" font-family="Helvetica,sans-Serif" font-size="10.00">drake/common/drake</text>
<text text-anchor="middle" x="187.5" y="-130.5" font-family="Helvetica,sans-Serif" font-size="10.00">_copyable.h</text>
</a>
</g>
</g>
<!-- Node0&#45;&gt;Node3 -->
<g id="edge3" class="edge">
<title>Node0&#45;&gt;Node3</title>
<path fill="none" stroke="midnightblue" d="M147.57,-190.4C154.18,-181.96 162.73,-171.07 170.22,-161.52"/>
<polygon fill="midnightblue" stroke="midnightblue" points="173.04,-163.6 176.46,-153.58 167.53,-159.28 173.04,-163.6"/>
</g>
<!-- Node4 -->
<g id="node5" class="node">
<title>Node4</title>
<g id="a_node5"><a xlink:href="drake__throw_8h.html" target="_top" xlink:title="Provides a convenient wrapper to throw an exception when a condition is unmet.">
<polygon fill="white" stroke="black" points="265,-123.5 265,-153.5 384,-153.5 384,-123.5 265,-123.5"/>
<text text-anchor="start" x="273" y="-141.5" font-family="Helvetica,sans-Serif" font-size="10.00">drake/common/drake</text>
<text text-anchor="middle" x="324.5" y="-130.5" font-family="Helvetica,sans-Serif" font-size="10.00">_throw.h</text>
</a>
</g>
</g>
<!-- Node0&#45;&gt;Node4 -->
<g id="edge4" class="edge">
<title>Node0&#45;&gt;Node4</title>
<path fill="none" stroke="midnightblue" d="M177.29,-190.4C205.75,-180.56 243.9,-167.37 274.23,-156.88"/>
<polygon fill="midnightblue" stroke="midnightblue" points="275.48,-160.15 283.79,-153.58 273.19,-153.54 275.48,-160.15"/>
</g>
<!-- Node5 -->
<g id="node6" class="node">
<title>Node5</title>
<g id="a_node6"><a xlink:title=" ">
<polygon fill="white" stroke="#bfbfbf" points="290,-0.5 290,-19.5 359,-19.5 359,-0.5 290,-0.5"/>
<text text-anchor="middle" x="324.5" y="-7.5" font-family="Helvetica,sans-Serif" font-size="10.00">type_traits</text>
</a>
</g>
</g>
<!-- Node4&#45;&gt;Node5 -->
<g id="edge5" class="edge">
<title>Node4&#45;&gt;Node5</title>
<path fill="none" stroke="midnightblue" d="M315.17,-123.15C309.4,-113.4 302.53,-99.95 299.5,-87 296.36,-73.58 296.04,-69.34 299.5,-56 302.05,-46.18 307.25,-36.21 312.26,-28.17"/>
<polygon fill="midnightblue" stroke="midnightblue" points="315.25,-29.99 317.87,-19.73 309.42,-26.11 315.25,-29.99"/>
</g>
<!-- Node6 -->
<g id="node7" class="node">
<title>Node6</title>
<g id="a_node7"><a xlink:href="drake__assert_8h.html" target="_top" xlink:title="Provides Drake&#39;s assertion implementation.">
<polygon fill="white" stroke="black" points="309,-56.5 309,-86.5 428,-86.5 428,-56.5 309,-56.5"/>
<text text-anchor="start" x="317" y="-74.5" font-family="Helvetica,sans-Serif" font-size="10.00">drake/common/drake</text>
<text text-anchor="middle" x="368.5" y="-63.5" font-family="Helvetica,sans-Serif" font-size="10.00">_assert.h</text>
</a>
</g>
</g>
<!-- Node4&#45;&gt;Node6 -->
<g id="edge6" class="edge">
<title>Node4&#45;&gt;Node6</title>
<path fill="none" stroke="midnightblue" d="M334.05,-123.4C339.64,-115.13 346.83,-104.51 353.2,-95.1"/>
<polygon fill="midnightblue" stroke="midnightblue" points="356.26,-96.82 358.97,-86.58 350.47,-92.9 356.26,-96.82"/>
</g>
<!-- Node6&#45;&gt;Node5 -->
<g id="edge7" class="edge">
<title>Node6&#45;&gt;Node5</title>
<path fill="none" stroke="midnightblue" d="M358.07,-56.4C351.74,-47.84 343.63,-36.87 336.97,-27.86"/>
<polygon fill="midnightblue" stroke="midnightblue" points="339.66,-25.62 330.9,-19.66 334.03,-29.78 339.66,-25.62"/>
</g>
</g>
</svg>
