<?xml version="1.0" encoding="UTF-8" standalone="no"?>
<!DOCTYPE svg PUBLIC "-//W3C//DTD SVG 1.1//EN"
 "http://www.w3.org/Graphics/SVG/1.1/DTD/svg11.dtd">
<!-- Generated by graphviz version 2.43.0 (0)
 -->
<!-- Title: drake/multibody/plant/discrete_contact_pair.h Pages: 1 -->
<svg width="1403pt" height="430pt"
 viewBox="0.00 0.00 1402.50 430.00" xmlns="http://www.w3.org/2000/svg" xmlns:xlink="http://www.w3.org/1999/xlink">
<g id="graph0" class="graph" transform="scale(1 1) rotate(0) translate(4 426)">
<title>drake/multibody/plant/discrete_contact_pair.h</title>
<polygon fill="white" stroke="transparent" points="-4,4 -4,-426 1398.5,-426 1398.5,4 -4,4"/>
<!-- Node0 -->
<g id="node1" class="node">
<title>Node0</title>
<g id="a_node1"><a xlink:title=" ">
<polygon fill="#bfbfbf" stroke="black" points="666,-391.5 666,-421.5 798,-421.5 798,-391.5 666,-391.5"/>
<text text-anchor="start" x="674" y="-409.5" font-family="Helvetica,sans-Serif" font-size="10.00">drake/multibody/plant</text>
<text text-anchor="middle" x="732" y="-398.5" font-family="Helvetica,sans-Serif" font-size="10.00">/discrete_contact_pair.h</text>
</a>
</g>
</g>
<!-- Node1 -->
<g id="node2" class="node">
<title>Node1</title>
<g id="a_node2"><a xlink:title=" ">
<polygon fill="white" stroke="#bfbfbf" points="0,-129 0,-148 56,-148 56,-129 0,-129"/>
<text text-anchor="middle" x="28" y="-136" font-family="Helvetica,sans-Serif" font-size="10.00">optional</text>
</a>
</g>
</g>
<!-- Node0&#45;&gt;Node1 -->
<g id="edge1" class="edge">
<title>Node0&#45;&gt;Node1</title>
<path fill="none" stroke="midnightblue" d="M694.33,-391.49C592.64,-353.63 304.11,-245.93 65,-154 63.16,-153.29 61.28,-152.57 59.38,-151.83"/>
<polygon fill="midnightblue" stroke="midnightblue" points="60.48,-148.5 49.89,-148.13 57.94,-155.03 60.48,-148.5"/>
</g>
<!-- Node2 -->
<g id="node3" class="node">
<title>Node2</title>
<g id="a_node3"><a xlink:href="drake__copyable_8h.html" target="_top" xlink:title="Provides careful macros to selectively enable or disable the special member functions for copy&#45;constr...">
<polygon fill="white" stroke="black" points="716.5,-190.5 716.5,-220.5 835.5,-220.5 835.5,-190.5 716.5,-190.5"/>
<text text-anchor="start" x="724.5" y="-208.5" font-family="Helvetica,sans-Serif" font-size="10.00">drake/common/drake</text>
<text text-anchor="middle" x="776" y="-197.5" font-family="Helvetica,sans-Serif" font-size="10.00">_copyable.h</text>
</a>
</g>
</g>
<!-- Node0&#45;&gt;Node2 -->
<g id="edge2" class="edge">
<title>Node0&#45;&gt;Node2</title>
<path fill="none" stroke="midnightblue" d="M743.16,-391.37C750.14,-381.71 758.61,-368.29 763,-355 776.82,-313.16 778,-261.29 777.25,-231.24"/>
<polygon fill="midnightblue" stroke="midnightblue" points="780.74,-230.73 776.89,-220.86 773.74,-230.97 780.74,-230.73"/>
</g>
<!-- Node3 -->
<g id="node4" class="node">
<title>Node3</title>
<g id="a_node4"><a xlink:href="eigen__types_8h.html" target="_top" xlink:title="This file contains abbreviated definitions for certain specializations of Eigen::Matrix that are comm...">
<polygon fill="white" stroke="black" points="842.5,-257.5 842.5,-287.5 961.5,-287.5 961.5,-257.5 842.5,-257.5"/>
<text text-anchor="start" x="850.5" y="-275.5" font-family="Helvetica,sans-Serif" font-size="10.00">drake/common/eigen</text>
<text text-anchor="middle" x="902" y="-264.5" font-family="Helvetica,sans-Serif" font-size="10.00">_types.h</text>
</a>
</g>
</g>
<!-- Node0&#45;&gt;Node3 -->
<g id="edge3" class="edge">
<title>Node0&#45;&gt;Node3</title>
<path fill="none" stroke="midnightblue" d="M750.19,-391.37C780.36,-367.95 840.84,-320.99 875.67,-293.94"/>
<polygon fill="midnightblue" stroke="midnightblue" points="878.19,-296.42 883.94,-287.52 873.89,-290.89 878.19,-296.42"/>
</g>
<!-- Node10 -->
<g id="node11" class="node">
<title>Node10</title>
<g id="a_node11"><a xlink:href="geometry__ids_8h.html" target="_top" xlink:title=" ">
<polygon fill="white" stroke="black" points="610,-324.5 610,-354.5 754,-354.5 754,-324.5 610,-324.5"/>
<text text-anchor="start" x="618" y="-342.5" font-family="Helvetica,sans-Serif" font-size="10.00">drake/geometry/geometry</text>
<text text-anchor="middle" x="682" y="-331.5" font-family="Helvetica,sans-Serif" font-size="10.00">_ids.h</text>
</a>
</g>
</g>
<!-- Node0&#45;&gt;Node10 -->
<g id="edge12" class="edge">
<title>Node0&#45;&gt;Node10</title>
<path fill="none" stroke="midnightblue" d="M721.15,-391.4C714.66,-382.96 706.28,-372.07 698.94,-362.52"/>
<polygon fill="midnightblue" stroke="midnightblue" points="701.7,-360.37 692.83,-354.58 696.15,-364.64 701.7,-360.37"/>
</g>
<!-- Node3&#45;&gt;Node2 -->
<g id="edge10" class="edge">
<title>Node3&#45;&gt;Node2</title>
<path fill="none" stroke="midnightblue" d="M874.66,-257.4C856.41,-247.98 832.22,-235.5 812.36,-225.26"/>
<polygon fill="midnightblue" stroke="midnightblue" points="813.78,-222.05 803.29,-220.58 810.57,-228.27 813.78,-222.05"/>
</g>
<!-- Node4 -->
<g id="node5" class="node">
<title>Node4</title>
<g id="a_node5"><a xlink:title=" ">
<polygon fill="white" stroke="#bfbfbf" points="741.5,-129 741.5,-148 786.5,-148 786.5,-129 741.5,-129"/>
<text text-anchor="middle" x="764" y="-136" font-family="Helvetica,sans-Serif" font-size="10.00">utility</text>
</a>
</g>
</g>
<!-- Node3&#45;&gt;Node4 -->
<g id="edge4" class="edge">
<title>Node3&#45;&gt;Node4</title>
<path fill="none" stroke="midnightblue" d="M894.2,-257.26C884.2,-239.92 865.57,-210.41 844,-190 828.14,-175 807.19,-161.96 790.7,-152.89"/>
<polygon fill="midnightblue" stroke="midnightblue" points="792.05,-149.65 781.58,-148.03 788.76,-155.82 792.05,-149.65"/>
</g>
<!-- Node5 -->
<g id="node6" class="node">
<title>Node5</title>
<g id="a_node6"><a xlink:title=" ">
<polygon fill="white" stroke="#bfbfbf" points="1112.5,-196 1112.5,-215 1189.5,-215 1189.5,-196 1112.5,-196"/>
<text text-anchor="middle" x="1151" y="-203" font-family="Helvetica,sans-Serif" font-size="10.00">Eigen/Dense</text>
</a>
</g>
</g>
<!-- Node3&#45;&gt;Node5 -->
<g id="edge5" class="edge">
<title>Node3&#45;&gt;Node5</title>
<path fill="none" stroke="midnightblue" d="M961.12,-257.42C1001.27,-247.68 1055.49,-234.14 1103,-221 1106.57,-220.01 1110.27,-218.96 1113.97,-217.88"/>
<polygon fill="midnightblue" stroke="midnightblue" points="1115.06,-221.2 1123.65,-215.01 1113.07,-214.49 1115.06,-221.2"/>
</g>
<!-- Node6 -->
<g id="node7" class="node">
<title>Node6</title>
<g id="a_node7"><a xlink:href="constants_8h.html" target="_top" xlink:title=" ">
<polygon fill="white" stroke="black" points="1245.5,-196 1245.5,-215 1394.5,-215 1394.5,-196 1245.5,-196"/>
<text text-anchor="middle" x="1320" y="-203" font-family="Helvetica,sans-Serif" font-size="10.00">drake/common/constants.h</text>
</a>
</g>
</g>
<!-- Node3&#45;&gt;Node6 -->
<g id="edge6" class="edge">
<title>Node3&#45;&gt;Node6</title>
<path fill="none" stroke="midnightblue" d="M961.65,-262.58C1027.77,-252.65 1137.55,-236.01 1232,-221 1240.67,-219.62 1249.81,-218.15 1258.79,-216.68"/>
<polygon fill="midnightblue" stroke="midnightblue" points="1259.53,-220.1 1268.83,-215.03 1258.4,-213.2 1259.53,-220.1"/>
</g>
<!-- Node7 -->
<g id="node8" class="node">
<title>Node7</title>
<g id="a_node8"><a xlink:href="drake__deprecated_8h.html" target="_top" xlink:title="Provides a portable macro for use in generating compile&#45;time warnings for use of code that is permitt...">
<polygon fill="white" stroke="black" points="1260.5,-123.5 1260.5,-153.5 1379.5,-153.5 1379.5,-123.5 1260.5,-123.5"/>
<text text-anchor="start" x="1268.5" y="-141.5" font-family="Helvetica,sans-Serif" font-size="10.00">drake/common/drake</text>
<text text-anchor="middle" x="1320" y="-130.5" font-family="Helvetica,sans-Serif" font-size="10.00">_deprecated.h</text>
</a>
</g>
</g>
<!-- Node3&#45;&gt;Node7 -->
<g id="edge11" class="edge">
<title>Node3&#45;&gt;Node7</title>
<path fill="none" stroke="midnightblue" d="M961.61,-270.19C1023.31,-266.85 1121.24,-255.89 1198,-221 1217.84,-211.98 1218.17,-202.54 1236,-190 1251.83,-178.87 1270.16,-167.67 1285.66,-158.65"/>
<polygon fill="midnightblue" stroke="midnightblue" points="1287.49,-161.63 1294.41,-153.61 1284,-155.57 1287.49,-161.63"/>
</g>
<!-- Node8 -->
<g id="node9" class="node">
<title>Node8</title>
<g id="a_node9"><a xlink:href="drake__assert_8h.html" target="_top" xlink:title="Provides Drake&#39;s assertion implementation.">
<polygon fill="white" stroke="black" points="641.5,-56.5 641.5,-86.5 760.5,-86.5 760.5,-56.5 641.5,-56.5"/>
<text text-anchor="start" x="649.5" y="-74.5" font-family="Helvetica,sans-Serif" font-size="10.00">drake/common/drake</text>
<text text-anchor="middle" x="701" y="-63.5" font-family="Helvetica,sans-Serif" font-size="10.00">_assert.h</text>
</a>
</g>
</g>
<!-- Node3&#45;&gt;Node8 -->
<g id="edge8" class="edge">
<title>Node3&#45;&gt;Node8</title>
<path fill="none" stroke="midnightblue" d="M898.82,-257.25C894.52,-240.15 885.66,-211.15 871,-190 838.94,-143.72 782.31,-110.03 743.28,-90.88"/>
<polygon fill="midnightblue" stroke="midnightblue" points="744.78,-87.72 734.25,-86.56 741.76,-94.03 744.78,-87.72"/>
</g>
<!-- Node6&#45;&gt;Node7 -->
<g id="edge7" class="edge">
<title>Node6&#45;&gt;Node7</title>
<path fill="none" stroke="midnightblue" d="M1320,-195.73C1320,-187.54 1320,-174.92 1320,-163.71"/>
<polygon fill="midnightblue" stroke="midnightblue" points="1323.5,-163.59 1320,-153.59 1316.5,-163.59 1323.5,-163.59"/>
</g>
<!-- Node9 -->
<g id="node10" class="node">
<title>Node9</title>
<g id="a_node10"><a xlink:title=" ">
<polygon fill="white" stroke="#bfbfbf" points="578.5,-0.5 578.5,-19.5 647.5,-19.5 647.5,-0.5 578.5,-0.5"/>
<text text-anchor="middle" x="613" y="-7.5" font-family="Helvetica,sans-Serif" font-size="10.00">type_traits</text>
</a>
</g>
</g>
<!-- Node8&#45;&gt;Node9 -->
<g id="edge9" class="edge">
<title>Node8&#45;&gt;Node9</title>
<path fill="none" stroke="midnightblue" d="M680.15,-56.4C666.3,-47.04 648.19,-34.79 634.26,-25.38"/>
<polygon fill="midnightblue" stroke="midnightblue" points="636.05,-22.36 625.8,-19.66 632.13,-28.16 636.05,-22.36"/>
</g>
<!-- Node10&#45;&gt;Node2 -->
<g id="edge13" class="edge">
<title>Node10&#45;&gt;Node2</title>
<path fill="none" stroke="midnightblue" d="M695,-324.37C703.85,-314.49 715.61,-300.82 725,-288 738.85,-269.09 752.85,-246.4 762.67,-229.77"/>
<polygon fill="midnightblue" stroke="midnightblue" points="765.92,-231.15 767.94,-220.75 759.87,-227.62 765.92,-231.15"/>
</g>
<!-- Node11 -->
<g id="node12" class="node">
<title>Node11</title>
<g id="a_node12"><a xlink:href="identifier_8h.html" target="_top" xlink:title=" ">
<polygon fill="white" stroke="black" points="572,-263 572,-282 716,-282 716,-263 572,-263"/>
<text text-anchor="middle" x="644" y="-270" font-family="Helvetica,sans-Serif" font-size="10.00">drake/common/identifier.h</text>
</a>
</g>
</g>
<!-- Node10&#45;&gt;Node11 -->
<g id="edge14" class="edge">
<title>Node10&#45;&gt;Node11</title>
<path fill="none" stroke="midnightblue" d="M673.75,-324.4C668.01,-314.56 660.3,-301.38 654.17,-290.89"/>
<polygon fill="midnightblue" stroke="midnightblue" points="657.15,-289.06 649.08,-282.19 651.11,-292.59 657.15,-289.06"/>
</g>
<!-- Node11&#45;&gt;Node2 -->
<g id="edge19" class="edge">
<title>Node11&#45;&gt;Node2</title>
<path fill="none" stroke="midnightblue" d="M661.53,-262.87C680.93,-253.31 712.79,-237.63 737.97,-225.22"/>
<polygon fill="midnightblue" stroke="midnightblue" points="739.84,-228.21 747.26,-220.65 736.74,-221.93 739.84,-228.21"/>
</g>
<!-- Node11&#45;&gt;Node4 -->
<g id="edge18" class="edge">
<title>Node11&#45;&gt;Node4</title>
<path fill="none" stroke="midnightblue" d="M649.78,-262.99C660.33,-247.69 683.79,-214.82 707,-190 718.92,-177.26 733.7,-164.23 745.22,-154.6"/>
<polygon fill="midnightblue" stroke="midnightblue" points="747.45,-157.3 752.94,-148.24 743,-151.89 747.45,-157.3"/>
</g>
<!-- Node12 -->
<g id="node13" class="node">
<title>Node12</title>
<g id="a_node13"><a xlink:title=" ">
<polygon fill="white" stroke="#bfbfbf" points="496,-196 496,-215 546,-215 546,-196 496,-196"/>
<text text-anchor="middle" x="521" y="-203" font-family="Helvetica,sans-Serif" font-size="10.00">cstdint</text>
</a>
</g>
</g>
<!-- Node11&#45;&gt;Node12 -->
<g id="edge15" class="edge">
<title>Node11&#45;&gt;Node12</title>
<path fill="none" stroke="midnightblue" d="M627.67,-262.87C606.9,-251.89 570.81,-232.82 546.43,-219.94"/>
<polygon fill="midnightblue" stroke="midnightblue" points="547.88,-216.75 537.4,-215.17 544.61,-222.93 547.88,-216.75"/>
</g>
<!-- Node13 -->
<g id="node14" class="node">
<title>Node13</title>
<g id="a_node14"><a xlink:title=" ">
<polygon fill="white" stroke="#bfbfbf" points="564.5,-196 564.5,-215 621.5,-215 621.5,-196 564.5,-196"/>
<text text-anchor="middle" x="593" y="-203" font-family="Helvetica,sans-Serif" font-size="10.00">ostream</text>
</a>
</g>
</g>
<!-- Node11&#45;&gt;Node13 -->
<g id="edge16" class="edge">
<title>Node11&#45;&gt;Node13</title>
<path fill="none" stroke="midnightblue" d="M637.12,-262.73C629.17,-252.6 615.9,-235.69 605.99,-223.06"/>
<polygon fill="midnightblue" stroke="midnightblue" points="608.7,-220.83 599.77,-215.13 603.19,-225.16 608.7,-220.83"/>
</g>
<!-- Node14 -->
<g id="node15" class="node">
<title>Node14</title>
<g id="a_node15"><a xlink:title=" ">
<polygon fill="white" stroke="#bfbfbf" points="679,-129 679,-148 723,-148 723,-129 679,-129"/>
<text text-anchor="middle" x="701" y="-136" font-family="Helvetica,sans-Serif" font-size="10.00">string</text>
</a>
</g>
</g>
<!-- Node11&#45;&gt;Node14 -->
<g id="edge17" class="edge">
<title>Node11&#45;&gt;Node14</title>
<path fill="none" stroke="midnightblue" d="M646.77,-262.78C651.66,-247.69 662.39,-215.86 674,-190 679.02,-178.83 685.46,-166.71 690.79,-157.15"/>
<polygon fill="midnightblue" stroke="midnightblue" points="693.95,-158.68 695.84,-148.25 687.86,-155.22 693.95,-158.68"/>
</g>
<!-- Node15 -->
<g id="node16" class="node">
<title>Node15</title>
<g id="a_node16"><a xlink:href="drake__throw_8h.html" target="_top" xlink:title="Provides a convenient wrapper to throw an exception when a condition is unmet.">
<polygon fill="white" stroke="black" points="74.5,-123.5 74.5,-153.5 193.5,-153.5 193.5,-123.5 74.5,-123.5"/>
<text text-anchor="start" x="82.5" y="-141.5" font-family="Helvetica,sans-Serif" font-size="10.00">drake/common/drake</text>
<text text-anchor="middle" x="134" y="-130.5" font-family="Helvetica,sans-Serif" font-size="10.00">_throw.h</text>
</a>
</g>
</g>
<!-- Node11&#45;&gt;Node15 -->
<g id="edge20" class="edge">
<title>Node11&#45;&gt;Node15</title>
<path fill="none" stroke="midnightblue" d="M571.94,-263.64C510.39,-255.92 419.88,-242.2 343,-221 282.22,-204.24 214.73,-176.09 173.33,-157.65"/>
<polygon fill="midnightblue" stroke="midnightblue" points="174.7,-154.43 164.14,-153.53 171.83,-160.82 174.7,-154.43"/>
</g>
<!-- Node16 -->
<g id="node17" class="node">
<title>Node16</title>
<g id="a_node17"><a xlink:href="fmt__ostream_8h.html" target="_top" xlink:title=" ">
<polygon fill="white" stroke="black" points="930,-196 930,-215 1094,-215 1094,-196 930,-196"/>
<text text-anchor="middle" x="1012" y="-203" font-family="Helvetica,sans-Serif" font-size="10.00">drake/common/fmt_ostream.h</text>
</a>
</g>
</g>
<!-- Node11&#45;&gt;Node16 -->
<g id="edge23" class="edge">
<title>Node11&#45;&gt;Node16</title>
<path fill="none" stroke="midnightblue" d="M692.49,-262.94C759.74,-251.06 881.17,-229.61 953.41,-216.85"/>
<polygon fill="midnightblue" stroke="midnightblue" points="954.46,-220.22 963.7,-215.03 953.24,-213.32 954.46,-220.22"/>
</g>
<!-- Node22 -->
<g id="node23" class="node">
<title>Node22</title>
<g id="a_node23"><a xlink:href="hash_8h.html" target="_top" xlink:title=" ">
<polygon fill="white" stroke="black" points="352.5,-196 352.5,-215 477.5,-215 477.5,-196 352.5,-196"/>
<text text-anchor="middle" x="415" y="-203" font-family="Helvetica,sans-Serif" font-size="10.00">drake/common/hash.h</text>
</a>
</g>
</g>
<!-- Node11&#45;&gt;Node22 -->
<g id="edge30" class="edge">
<title>Node11&#45;&gt;Node22</title>
<path fill="none" stroke="midnightblue" d="M613.59,-262.87C572.76,-251.28 500.13,-230.66 454.93,-217.83"/>
<polygon fill="midnightblue" stroke="midnightblue" points="455.75,-214.43 445.17,-215.06 453.83,-221.16 455.75,-214.43"/>
</g>
<!-- Node15&#45;&gt;Node8 -->
<g id="edge22" class="edge">
<title>Node15&#45;&gt;Node8</title>
<path fill="none" stroke="midnightblue" d="M193.64,-124.4C196.46,-123.9 199.26,-123.43 202,-123 354.1,-99.16 534.13,-84.16 630.95,-77.16"/>
<polygon fill="midnightblue" stroke="midnightblue" points="631.48,-80.64 641.2,-76.43 630.98,-73.65 631.48,-80.64"/>
</g>
<!-- Node15&#45;&gt;Node9 -->
<g id="edge21" class="edge">
<title>Node15&#45;&gt;Node9</title>
<path fill="none" stroke="midnightblue" d="M187.09,-123.48C283.04,-98.14 483.44,-45.21 570.79,-22.15"/>
<polygon fill="midnightblue" stroke="midnightblue" points="571.84,-25.49 580.62,-19.55 570.06,-18.72 571.84,-25.49"/>
</g>
<!-- Node17 -->
<g id="node18" class="node">
<title>Node17</title>
<g id="a_node18"><a xlink:title=" ">
<polygon fill="white" stroke="#bfbfbf" points="907,-129 907,-148 963,-148 963,-129 907,-129"/>
<text text-anchor="middle" x="935" y="-136" font-family="Helvetica,sans-Serif" font-size="10.00">sstream</text>
</a>
</g>
</g>
<!-- Node16&#45;&gt;Node17 -->
<g id="edge24" class="edge">
<title>Node16&#45;&gt;Node17</title>
<path fill="none" stroke="midnightblue" d="M1001.62,-195.73C989.15,-185.21 968.03,-167.38 952.91,-154.62"/>
<polygon fill="midnightblue" stroke="midnightblue" points="955.12,-151.9 945.22,-148.13 950.6,-157.25 955.12,-151.9"/>
</g>
<!-- Node18 -->
<g id="node19" class="node">
<title>Node18</title>
<g id="a_node19"><a xlink:title=" ">
<polygon fill="white" stroke="#bfbfbf" points="1058.5,-62 1058.5,-81 1131.5,-81 1131.5,-62 1058.5,-62"/>
<text text-anchor="middle" x="1095" y="-69" font-family="Helvetica,sans-Serif" font-size="10.00">string_view</text>
</a>
</g>
</g>
<!-- Node16&#45;&gt;Node18 -->
<g id="edge25" class="edge">
<title>Node16&#45;&gt;Node18</title>
<path fill="none" stroke="midnightblue" d="M1028.25,-195.93C1042.99,-187.31 1064.16,-172.64 1076,-154 1088.21,-134.79 1092.59,-108.56 1094.15,-91.11"/>
<polygon fill="midnightblue" stroke="midnightblue" points="1097.65,-91.28 1094.82,-81.06 1090.66,-90.81 1097.65,-91.28"/>
</g>
<!-- Node19 -->
<g id="node20" class="node">
<title>Node19</title>
<g id="a_node20"><a xlink:title=" ">
<polygon fill="white" stroke="#bfbfbf" points="981,-129 981,-148 1067,-148 1067,-129 981,-129"/>
<text text-anchor="middle" x="1024" y="-136" font-family="Helvetica,sans-Serif" font-size="10.00">fmt/ostream.h</text>
</a>
</g>
</g>
<!-- Node16&#45;&gt;Node19 -->
<g id="edge26" class="edge">
<title>Node16&#45;&gt;Node19</title>
<path fill="none" stroke="midnightblue" d="M1013.62,-195.73C1015.38,-186.18 1018.26,-170.62 1020.53,-158.28"/>
<polygon fill="midnightblue" stroke="midnightblue" points="1024.03,-158.6 1022.41,-148.13 1017.15,-157.33 1024.03,-158.6"/>
</g>
<!-- Node20 -->
<g id="node21" class="node">
<title>Node20</title>
<g id="a_node21"><a xlink:href="fmt_8h.html" target="_top" xlink:title=" ">
<polygon fill="white" stroke="black" points="1123.5,-129 1123.5,-148 1242.5,-148 1242.5,-129 1123.5,-129"/>
<text text-anchor="middle" x="1183" y="-136" font-family="Helvetica,sans-Serif" font-size="10.00">drake/common/fmt.h</text>
</a>
</g>
</g>
<!-- Node16&#45;&gt;Node20 -->
<g id="edge27" class="edge">
<title>Node16&#45;&gt;Node20</title>
<path fill="none" stroke="midnightblue" d="M1034.71,-195.87C1064.56,-184.52 1117.17,-164.52 1151.03,-151.65"/>
<polygon fill="midnightblue" stroke="midnightblue" points="1152.37,-154.89 1160.47,-148.06 1149.88,-148.35 1152.37,-154.89"/>
</g>
<!-- Node20&#45;&gt;Node18 -->
<g id="edge28" class="edge">
<title>Node20&#45;&gt;Node18</title>
<path fill="none" stroke="midnightblue" d="M1171.13,-128.73C1156.75,-118.11 1132.3,-100.05 1114.99,-87.26"/>
<polygon fill="midnightblue" stroke="midnightblue" points="1116.8,-84.25 1106.68,-81.13 1112.64,-89.88 1116.8,-84.25"/>
</g>
<!-- Node21 -->
<g id="node22" class="node">
<title>Node21</title>
<g id="a_node22"><a xlink:title=" ">
<polygon fill="white" stroke="#bfbfbf" points="1149.5,-62 1149.5,-81 1228.5,-81 1228.5,-62 1149.5,-62"/>
<text text-anchor="middle" x="1189" y="-69" font-family="Helvetica,sans-Serif" font-size="10.00">fmt/format.h</text>
</a>
</g>
</g>
<!-- Node20&#45;&gt;Node21 -->
<g id="edge29" class="edge">
<title>Node20&#45;&gt;Node21</title>
<path fill="none" stroke="midnightblue" d="M1183.81,-128.73C1184.69,-119.18 1186.13,-103.62 1187.27,-91.28"/>
<polygon fill="midnightblue" stroke="midnightblue" points="1190.77,-91.41 1188.2,-81.13 1183.8,-90.76 1190.77,-91.41"/>
</g>
<!-- Node22&#45;&gt;Node1 -->
<g id="edge35" class="edge">
<title>Node22&#45;&gt;Node1</title>
<path fill="none" stroke="midnightblue" d="M352.49,-199.85C281.8,-193.59 163.68,-180.08 65,-154 62.34,-153.3 59.61,-152.46 56.9,-151.55"/>
<polygon fill="midnightblue" stroke="midnightblue" points="57.9,-148.19 47.31,-148.03 55.49,-154.76 57.9,-148.19"/>
</g>
<!-- Node22&#45;&gt;Node4 -->
<g id="edge39" class="edge">
<title>Node22&#45;&gt;Node4</title>
<path fill="none" stroke="midnightblue" d="M455.29,-195.99C465.61,-193.92 476.7,-191.79 487,-190 595.43,-171.13 626.4,-185.01 732,-154 733.93,-153.43 735.9,-152.77 737.85,-152.05"/>
<polygon fill="midnightblue" stroke="midnightblue" points="739.51,-155.15 747.4,-148.08 736.82,-148.69 739.51,-155.15"/>
</g>
<!-- Node22&#45;&gt;Node8 -->
<g id="edge41" class="edge">
<title>Node22&#45;&gt;Node8</title>
<path fill="none" stroke="midnightblue" d="M456.56,-195.98C514.04,-183.99 612.38,-162.64 627,-154 651.86,-139.31 673.15,-113.58 686.42,-94.95"/>
<polygon fill="midnightblue" stroke="midnightblue" points="689.31,-96.92 692.11,-86.7 683.55,-92.95 689.31,-96.92"/>
</g>
<!-- Node22&#45;&gt;Node9 -->
<g id="edge38" class="edge">
<title>Node22&#45;&gt;Node9</title>
<path fill="none" stroke="midnightblue" d="M453.56,-195.91C503.06,-184.53 583.72,-164.66 593,-154 623.52,-118.97 620.33,-59.72 616.25,-29.67"/>
<polygon fill="midnightblue" stroke="midnightblue" points="619.69,-29.04 614.71,-19.7 612.77,-30.11 619.69,-29.04"/>
</g>
<!-- Node22&#45;&gt;Node14 -->
<g id="edge37" class="edge">
<title>Node22&#45;&gt;Node14</title>
<path fill="none" stroke="midnightblue" d="M457.43,-195.95C528.44,-181.65 663.75,-154.37 665,-154 667.29,-153.31 669.63,-152.54 671.97,-151.72"/>
<polygon fill="midnightblue" stroke="midnightblue" points="673.31,-154.95 681.43,-148.14 670.84,-148.41 673.31,-154.95"/>
</g>
<!-- Node22&#45;&gt;Node15 -->
<g id="edge42" class="edge">
<title>Node22&#45;&gt;Node15</title>
<path fill="none" stroke="midnightblue" d="M377.98,-195.94C333.78,-185.71 258.94,-168.4 203.77,-155.64"/>
<polygon fill="midnightblue" stroke="midnightblue" points="204.24,-152.16 193.71,-153.31 202.67,-158.98 204.24,-152.16"/>
</g>
<!-- Node23 -->
<g id="node24" class="node">
<title>Node23</title>
<g id="a_node24"><a xlink:title=" ">
<polygon fill="white" stroke="#bfbfbf" points="211.5,-129 211.5,-148 258.5,-148 258.5,-129 211.5,-129"/>
<text text-anchor="middle" x="235" y="-136" font-family="Helvetica,sans-Serif" font-size="10.00">cmath</text>
</a>
</g>
</g>
<!-- Node22&#45;&gt;Node23 -->
<g id="edge31" class="edge">
<title>Node22&#45;&gt;Node23</title>
<path fill="none" stroke="midnightblue" d="M387.43,-195.97C357.49,-186.51 308.4,-170.4 267,-154 265.58,-153.44 264.14,-152.85 262.68,-152.24"/>
<polygon fill="midnightblue" stroke="midnightblue" points="263.71,-148.87 253.15,-148.09 260.92,-155.29 263.71,-148.87"/>
</g>
<!-- Node24 -->
<g id="node25" class="node">
<title>Node24</title>
<g id="a_node25"><a xlink:title=" ">
<polygon fill="white" stroke="#bfbfbf" points="276.5,-129 276.5,-148 329.5,-148 329.5,-129 276.5,-129"/>
<text text-anchor="middle" x="303" y="-136" font-family="Helvetica,sans-Serif" font-size="10.00">cstddef</text>
</a>
</g>
</g>
<!-- Node22&#45;&gt;Node24 -->
<g id="edge32" class="edge">
<title>Node22&#45;&gt;Node24</title>
<path fill="none" stroke="midnightblue" d="M399.9,-195.73C381.09,-184.82 348.75,-166.05 326.64,-153.22"/>
<polygon fill="midnightblue" stroke="midnightblue" points="328.27,-150.12 317.87,-148.13 324.76,-156.17 328.27,-150.12"/>
</g>
<!-- Node25 -->
<g id="node26" class="node">
<title>Node25</title>
<g id="a_node26"><a xlink:title=" ">
<polygon fill="white" stroke="#bfbfbf" points="347.5,-129 347.5,-148 412.5,-148 412.5,-129 347.5,-129"/>
<text text-anchor="middle" x="380" y="-136" font-family="Helvetica,sans-Serif" font-size="10.00">functional</text>
</a>
</g>
</g>
<!-- Node22&#45;&gt;Node25 -->
<g id="edge33" class="edge">
<title>Node22&#45;&gt;Node25</title>
<path fill="none" stroke="midnightblue" d="M410.28,-195.73C404.98,-185.89 396.24,-169.66 389.51,-157.16"/>
<polygon fill="midnightblue" stroke="midnightblue" points="392.47,-155.27 384.65,-148.13 386.3,-158.59 392.47,-155.27"/>
</g>
<!-- Node26 -->
<g id="node27" class="node">
<title>Node26</title>
<g id="a_node27"><a xlink:title=" ">
<polygon fill="white" stroke="#bfbfbf" points="431,-129 431,-148 469,-148 469,-129 431,-129"/>
<text text-anchor="middle" x="450" y="-136" font-family="Helvetica,sans-Serif" font-size="10.00">map</text>
</a>
</g>
</g>
<!-- Node22&#45;&gt;Node26 -->
<g id="edge34" class="edge">
<title>Node22&#45;&gt;Node26</title>
<path fill="none" stroke="midnightblue" d="M419.72,-195.73C425.02,-185.89 433.76,-169.66 440.49,-157.16"/>
<polygon fill="midnightblue" stroke="midnightblue" points="443.7,-158.59 445.35,-148.13 437.53,-155.27 443.7,-158.59"/>
</g>
<!-- Node27 -->
<g id="node28" class="node">
<title>Node27</title>
<g id="a_node28"><a xlink:title=" ">
<polygon fill="white" stroke="#bfbfbf" points="487,-129 487,-148 519,-148 519,-129 487,-129"/>
<text text-anchor="middle" x="503" y="-136" font-family="Helvetica,sans-Serif" font-size="10.00">set</text>
</a>
</g>
</g>
<!-- Node22&#45;&gt;Node27 -->
<g id="edge36" class="edge">
<title>Node22&#45;&gt;Node27</title>
<path fill="none" stroke="midnightblue" d="M426.87,-195.73C441.25,-185.11 465.7,-167.05 483.01,-154.26"/>
<polygon fill="midnightblue" stroke="midnightblue" points="485.36,-156.88 491.32,-148.13 481.2,-151.25 485.36,-156.88"/>
</g>
<!-- Node28 -->
<g id="node29" class="node">
<title>Node28</title>
<g id="a_node29"><a xlink:title=" ">
<polygon fill="white" stroke="#bfbfbf" points="537.5,-129 537.5,-148 584.5,-148 584.5,-129 537.5,-129"/>
<text text-anchor="middle" x="561" y="-136" font-family="Helvetica,sans-Serif" font-size="10.00">vector</text>
</a>
</g>
</g>
<!-- Node22&#45;&gt;Node28 -->
<g id="edge40" class="edge">
<title>Node22&#45;&gt;Node28</title>
<path fill="none" stroke="midnightblue" d="M434.39,-195.87C459.48,-184.7 503.39,-165.15 532.34,-152.26"/>
<polygon fill="midnightblue" stroke="midnightblue" points="533.82,-155.43 541.53,-148.17 530.97,-149.04 533.82,-155.43"/>
</g>
</g>
</svg>
