<?xml version="1.0" encoding="UTF-8" standalone="no"?>
<!DOCTYPE svg PUBLIC "-//W3C//DTD SVG 1.1//EN"
 "http://www.w3.org/Graphics/SVG/1.1/DTD/svg11.dtd">
<!-- Generated by graphviz version 2.43.0 (0)
 -->
<!-- Title: drake/planning/distance_and_interpolation_provider.h Pages: 1 -->
<svg width="830pt" height="273pt"
 viewBox="0.00 0.00 829.50 273.00" xmlns="http://www.w3.org/2000/svg" xmlns:xlink="http://www.w3.org/1999/xlink">
<g id="graph0" class="graph" transform="scale(1 1) rotate(0) translate(4 269)">
<title>drake/planning/distance_and_interpolation_provider.h</title>
<polygon fill="white" stroke="transparent" points="-4,4 -4,-269 825.5,-269 825.5,4 -4,4"/>
<!-- Node3 -->
<g id="node1" class="node">
<title>Node3</title>
<g id="a_node1"><a xlink:title=" ">
<polygon fill="#bfbfbf" stroke="black" points="492,-234.5 492,-264.5 653,-264.5 653,-234.5 492,-234.5"/>
<text text-anchor="start" x="500" y="-252.5" font-family="Helvetica,sans-Serif" font-size="10.00">drake/planning/distance</text>
<text text-anchor="middle" x="572.5" y="-241.5" font-family="Helvetica,sans-Serif" font-size="10.00">_and_interpolation_provider.h</text>
</a>
</g>
</g>
<!-- Node4 -->
<g id="node2" class="node">
<title>Node4</title>
<g id="a_node2"><a xlink:href="collision__checker__params_8h.html" target="_top" xlink:title=" ">
<polygon fill="white" stroke="black" points="506.5,-162 506.5,-192 638.5,-192 638.5,-162 506.5,-162"/>
<text text-anchor="start" x="514.5" y="-180" font-family="Helvetica,sans-Serif" font-size="10.00">drake/planning/collision</text>
<text text-anchor="middle" x="572.5" y="-169" font-family="Helvetica,sans-Serif" font-size="10.00">_checker_params.h</text>
</a>
</g>
</g>
<!-- Node3&#45;&gt;Node4 -->
<g id="edge1" class="edge">
<title>Node3&#45;&gt;Node4</title>
<path fill="none" stroke="midnightblue" d="M572.5,-224.23C572.5,-213.57 572.5,-201.41 572.5,-192.25"/>
<polygon fill="midnightblue" stroke="midnightblue" points="569,-224.23 572.5,-234.23 576,-224.23 569,-224.23"/>
</g>
<!-- Node5 -->
<g id="node3" class="node">
<title>Node5</title>
<g id="a_node3"><a xlink:href="collision__checker_8h.html" target="_top" xlink:title=" ">
<polygon fill="white" stroke="black" points="412.5,-89.5 412.5,-119.5 544.5,-119.5 544.5,-89.5 412.5,-89.5"/>
<text text-anchor="start" x="420.5" y="-107.5" font-family="Helvetica,sans-Serif" font-size="10.00">drake/planning/collision</text>
<text text-anchor="middle" x="478.5" y="-96.5" font-family="Helvetica,sans-Serif" font-size="10.00">_checker.h</text>
</a>
</g>
</g>
<!-- Node3&#45;&gt;Node5 -->
<g id="edge10" class="edge">
<title>Node3&#45;&gt;Node5</title>
<path fill="none" stroke="midnightblue" d="M531.97,-229.22C519.14,-221.24 506.09,-210.82 497.5,-198 481.35,-173.89 478.45,-138.9 478.2,-119.6"/>
<polygon fill="midnightblue" stroke="midnightblue" points="530.35,-232.32 540.75,-234.34 533.88,-226.28 530.35,-232.32"/>
</g>
<!-- Node11 -->
<g id="node9" class="node">
<title>Node11</title>
<g id="a_node9"><a xlink:href="linear__distance__and__interpolation__provider_8h.html" target="_top" xlink:title=" ">
<polygon fill="white" stroke="black" points="656.5,-156.5 656.5,-197.5 810.5,-197.5 810.5,-156.5 656.5,-156.5"/>
<text text-anchor="start" x="664.5" y="-185.5" font-family="Helvetica,sans-Serif" font-size="10.00">drake/planning/linear</text>
<text text-anchor="start" x="664.5" y="-174.5" font-family="Helvetica,sans-Serif" font-size="10.00">_distance_and_interpolation</text>
<text text-anchor="middle" x="733.5" y="-163.5" font-family="Helvetica,sans-Serif" font-size="10.00">_provider.h</text>
</a>
</g>
</g>
<!-- Node3&#45;&gt;Node11 -->
<g id="edge11" class="edge">
<title>Node3&#45;&gt;Node11</title>
<path fill="none" stroke="midnightblue" d="M614.14,-230.26C637.06,-220.23 665.49,-207.78 688.86,-197.55"/>
<polygon fill="midnightblue" stroke="midnightblue" points="612.45,-227.19 604.69,-234.4 615.26,-233.6 612.45,-227.19"/>
</g>
<!-- Node4&#45;&gt;Node5 -->
<g id="edge2" class="edge">
<title>Node4&#45;&gt;Node5</title>
<path fill="none" stroke="midnightblue" d="M545.31,-155.61C529.87,-144.03 510.94,-129.83 497.17,-119.5"/>
<polygon fill="midnightblue" stroke="midnightblue" points="543.38,-158.53 553.48,-161.73 547.58,-152.93 543.38,-158.53"/>
</g>
<!-- Node8 -->
<g id="node6" class="node">
<title>Node8</title>
<g id="a_node6"><a xlink:href="scene__graph__collision__checker_8h.html" target="_top" xlink:title=" ">
<polygon fill="white" stroke="black" points="675.5,-11.5 675.5,-41.5 821.5,-41.5 821.5,-11.5 675.5,-11.5"/>
<text text-anchor="start" x="683.5" y="-29.5" font-family="Helvetica,sans-Serif" font-size="10.00">drake/planning/scene</text>
<text text-anchor="middle" x="748.5" y="-18.5" font-family="Helvetica,sans-Serif" font-size="10.00">_graph_collision_checker.h</text>
</a>
</g>
</g>
<!-- Node4&#45;&gt;Node8 -->
<g id="edge8" class="edge">
<title>Node4&#45;&gt;Node8</title>
<path fill="none" stroke="midnightblue" d="M597.06,-155.28C633.37,-124.64 700.44,-68.05 731.68,-41.7"/>
<polygon fill="midnightblue" stroke="midnightblue" points="594.76,-152.64 589.38,-161.76 599.28,-157.99 594.76,-152.64"/>
</g>
<!-- Node10 -->
<g id="node8" class="node">
<title>Node10</title>
<g id="a_node8"><a xlink:href="unimplemented__collision__checker_8h.html" target="_top" xlink:title=" ">
<polygon fill="white" stroke="black" points="488,-11.5 488,-41.5 657,-41.5 657,-11.5 488,-11.5"/>
<text text-anchor="start" x="496" y="-29.5" font-family="Helvetica,sans-Serif" font-size="10.00">drake/planning/unimplemented</text>
<text text-anchor="middle" x="572.5" y="-18.5" font-family="Helvetica,sans-Serif" font-size="10.00">_collision_checker.h</text>
</a>
</g>
</g>
<!-- Node4&#45;&gt;Node10 -->
<g id="edge9" class="edge">
<title>Node4&#45;&gt;Node10</title>
<path fill="none" stroke="midnightblue" d="M572.5,-151.72C572.5,-120.53 572.5,-67.37 572.5,-41.91"/>
<polygon fill="midnightblue" stroke="midnightblue" points="569,-151.76 572.5,-161.76 576,-151.76 569,-151.76"/>
</g>
<!-- Node6 -->
<g id="node4" class="node">
<title>Node6</title>
<g id="a_node4"><a xlink:href="minimum__distance__constraint_8h.html" target="_top" xlink:title=" ">
<polygon fill="white" stroke="black" points="0,-6 0,-47 173,-47 173,-6 0,-6"/>
<text text-anchor="start" x="8" y="-35" font-family="Helvetica,sans-Serif" font-size="10.00">drake/multibody/inverse</text>
<text text-anchor="start" x="8" y="-24" font-family="Helvetica,sans-Serif" font-size="10.00">_kinematics/minimum_distance</text>
<text text-anchor="middle" x="86.5" y="-13" font-family="Helvetica,sans-Serif" font-size="10.00">_constraint.h</text>
</a>
</g>
</g>
<!-- Node5&#45;&gt;Node6 -->
<g id="edge3" class="edge">
<title>Node5&#45;&gt;Node6</title>
<path fill="none" stroke="midnightblue" d="M402.19,-92.43C342.19,-83.25 256.66,-69.14 182.5,-53 174.24,-51.2 165.63,-49.16 157.1,-47.03"/>
<polygon fill="midnightblue" stroke="midnightblue" points="401.92,-95.93 412.33,-93.97 402.97,-89.01 401.92,-95.93"/>
</g>
<!-- Node7 -->
<g id="node5" class="node">
<title>Node7</title>
<g id="a_node5"><a xlink:href="collision__avoidance_8h.html" target="_top" xlink:title=" ">
<polygon fill="white" stroke="black" points="191.5,-11.5 191.5,-41.5 323.5,-41.5 323.5,-11.5 191.5,-11.5"/>
<text text-anchor="start" x="199.5" y="-29.5" font-family="Helvetica,sans-Serif" font-size="10.00">drake/planning/collision</text>
<text text-anchor="middle" x="257.5" y="-18.5" font-family="Helvetica,sans-Serif" font-size="10.00">_avoidance.h</text>
</a>
</g>
</g>
<!-- Node5&#45;&gt;Node7 -->
<g id="edge4" class="edge">
<title>Node5&#45;&gt;Node7</title>
<path fill="none" stroke="midnightblue" d="M428.06,-86.15C388.81,-72.66 335.03,-54.16 298.43,-41.57"/>
<polygon fill="midnightblue" stroke="midnightblue" points="427.11,-89.53 437.71,-89.47 429.39,-82.91 427.11,-89.53"/>
</g>
<!-- Node5&#45;&gt;Node8 -->
<g id="edge5" class="edge">
<title>Node5&#45;&gt;Node8</title>
<path fill="none" stroke="midnightblue" d="M542.58,-86.78C578.75,-77.19 624.74,-64.76 665.5,-53 677.96,-49.41 691.41,-45.35 703.79,-41.55"/>
<polygon fill="midnightblue" stroke="midnightblue" points="541.42,-83.46 532.65,-89.4 543.21,-90.23 541.42,-83.46"/>
</g>
<!-- Node9 -->
<g id="node7" class="node">
<title>Node9</title>
<g id="a_node7"><a xlink:href="collision__checker__abstract__test__suite_8h.html" target="_top" xlink:title=" ">
<polygon fill="white" stroke="black" points="341.5,-0.5 341.5,-52.5 469.5,-52.5 469.5,-0.5 341.5,-0.5"/>
<text text-anchor="start" x="349.5" y="-40.5" font-family="Helvetica,sans-Serif" font-size="10.00">drake/planning/test</text>
<text text-anchor="start" x="349.5" y="-29.5" font-family="Helvetica,sans-Serif" font-size="10.00">_utilities/collision</text>
<text text-anchor="start" x="349.5" y="-18.5" font-family="Helvetica,sans-Serif" font-size="10.00">_checker_abstract_test</text>
<text text-anchor="middle" x="405.5" y="-7.5" font-family="Helvetica,sans-Serif" font-size="10.00">_suite.h</text>
</a>
</g>
</g>
<!-- Node5&#45;&gt;Node9 -->
<g id="edge6" class="edge">
<title>Node5&#45;&gt;Node9</title>
<path fill="none" stroke="midnightblue" d="M457.79,-81.94C448.98,-72.77 438.66,-62.02 429.52,-52.5"/>
<polygon fill="midnightblue" stroke="midnightblue" points="455.32,-84.42 464.77,-89.2 460.37,-79.57 455.32,-84.42"/>
</g>
<!-- Node5&#45;&gt;Node10 -->
<g id="edge7" class="edge">
<title>Node5&#45;&gt;Node10</title>
<path fill="none" stroke="midnightblue" d="M504.16,-82.75C520.26,-69.73 540.61,-53.28 554.9,-41.73"/>
<polygon fill="midnightblue" stroke="midnightblue" points="501.76,-80.2 496.18,-89.2 506.16,-85.64 501.76,-80.2"/>
</g>
</g>
</svg>
