<?xml version="1.0" encoding="UTF-8" standalone="no"?>
<!DOCTYPE svg PUBLIC "-//W3C//DTD SVG 1.1//EN"
 "http://www.w3.org/Graphics/SVG/1.1/DTD/svg11.dtd">
<!-- Generated by graphviz version 2.40.1 (20161225.0304)
 -->
<!-- Title: drake/lcm/drake_mock_lcm.h Pages: 1 -->
<svg width="908pt" height="419pt"
 viewBox="0.00 0.00 907.50 419.00" xmlns="http://www.w3.org/2000/svg" xmlns:xlink="http://www.w3.org/1999/xlink">
<g id="graph0" class="graph" transform="scale(1 1) rotate(0) translate(4 415)">
<title>drake/lcm/drake_mock_lcm.h</title>
<polygon fill="#ffffff" stroke="transparent" points="-4,4 -4,-415 903.5,-415 903.5,4 -4,4"/>
<!-- Node0 -->
<g id="node1" class="node">
<title>Node0</title>
<g id="a_node1"><a xlink:title=" ">
<polygon fill="#bfbfbf" stroke="#000000" points="771.5,-380.5 771.5,-410.5 899.5,-410.5 899.5,-380.5 771.5,-380.5"/>
<text text-anchor="start" x="779.5" y="-398.5" font-family="Helvetica,sans-Serif" font-size="10.00" fill="#000000">drake/lcm/drake_mock</text>
<text text-anchor="middle" x="835.5" y="-387.5" font-family="Helvetica,sans-Serif" font-size="10.00" fill="#000000">_lcm.h</text>
</a>
</g>
</g>
<!-- Node1 -->
<g id="node2" class="node">
<title>Node1</title>
<g id="a_node2"><a xlink:href="drake__copyable_8h.html" target="_top" xlink:title="Provides careful macros to selectively enable or disable the special member functions for copy&#45;constr...">
<polygon fill="#ffffff" stroke="#000000" points="703,-.5 703,-30.5 824,-30.5 824,-.5 703,-.5"/>
<text text-anchor="start" x="711" y="-18.5" font-family="Helvetica,sans-Serif" font-size="10.00" fill="#000000">drake/common/drake</text>
<text text-anchor="middle" x="763.5" y="-7.5" font-family="Helvetica,sans-Serif" font-size="10.00" fill="#000000">_copyable.h</text>
</a>
</g>
</g>
<!-- Node0&#45;&gt;Node1 -->
<g id="edge1" class="edge">
<title>Node0&#45;&gt;Node1</title>
<path fill="none" stroke="#191970" d="M847.8682,-380.2449C864.6323,-357.9787 892.5,-314.6289 892.5,-272.5 892.5,-272.5 892.5,-272.5 892.5,-149.5 892.5,-97.4819 841.423,-57.8711 803.5487,-35.6495"/>
<polygon fill="#191970" stroke="#191970" points="805.1518,-32.535 794.7273,-30.6429 801.6966,-38.6228 805.1518,-32.535"/>
</g>
<!-- Node2 -->
<g id="node3" class="node">
<title>Node2</title>
<g id="a_node3"><a xlink:href="drake__lcm_8h.html" target="_top" xlink:title=" ">
<polygon fill="#ffffff" stroke="#000000" points="714.5,-324.5 714.5,-343.5 842.5,-343.5 842.5,-324.5 714.5,-324.5"/>
<text text-anchor="middle" x="778.5" y="-331.5" font-family="Helvetica,sans-Serif" font-size="10.00" fill="#000000">drake/lcm/drake_lcm.h</text>
</a>
</g>
</g>
<!-- Node0&#45;&gt;Node2 -->
<g id="edge2" class="edge">
<title>Node0&#45;&gt;Node2</title>
<path fill="none" stroke="#191970" d="M821.4101,-380.2977C813.2507,-371.4941 802.9528,-360.3833 794.4905,-351.2529"/>
<polygon fill="#191970" stroke="#191970" points="796.9911,-348.8021 787.6264,-343.8469 791.8571,-353.5604 796.9911,-348.8021"/>
</g>
<!-- Node2&#45;&gt;Node1 -->
<g id="edge7" class="edge">
<title>Node2&#45;&gt;Node1</title>
<path fill="none" stroke="#191970" d="M789.7141,-324.4199C810.8547,-305.2241 854.5,-259.6972 854.5,-211 854.5,-211 854.5,-211 854.5,-149.5 854.5,-103.4295 817.2318,-61.4465 790.3952,-37.1872"/>
<polygon fill="#191970" stroke="#191970" points="792.6276,-34.4897 782.7988,-30.5343 788.0157,-39.7557 792.6276,-34.4897"/>
</g>
<!-- Node3 -->
<g id="node4" class="node">
<title>Node3</title>
<g id="a_node4"><a xlink:title=" ">
<polygon fill="#ffffff" stroke="#bfbfbf" points="527.5,-73 527.5,-92 585.5,-92 585.5,-73 527.5,-73"/>
<text text-anchor="middle" x="556.5" y="-80" font-family="Helvetica,sans-Serif" font-size="10.00" fill="#000000">memory</text>
</a>
</g>
</g>
<!-- Node2&#45;&gt;Node3 -->
<g id="edge3" class="edge">
<title>Node2&#45;&gt;Node3</title>
<path fill="none" stroke="#191970" d="M779.7923,-324.3103C782.39,-300.8978 785.928,-240.2874 759.5,-201 738.0484,-169.1104 638.2649,-119.9953 587.0334,-96.2675"/>
<polygon fill="#191970" stroke="#191970" points="588.3147,-93.0045 577.7669,-92.0075 585.3908,-99.3646 588.3147,-93.0045"/>
</g>
<!-- Node4 -->
<g id="node5" class="node">
<title>Node4</title>
<g id="a_node5"><a xlink:title=" ">
<polygon fill="#ffffff" stroke="#bfbfbf" points="694.5,-201.5 694.5,-220.5 750.5,-220.5 750.5,-201.5 694.5,-201.5"/>
<text text-anchor="middle" x="722.5" y="-208.5" font-family="Helvetica,sans-Serif" font-size="10.00" fill="#000000">optional</text>
</a>
</g>
</g>
<!-- Node2&#45;&gt;Node4 -->
<g id="edge4" class="edge">
<title>Node2&#45;&gt;Node4</title>
<path fill="none" stroke="#191970" d="M774.1058,-324.3484C764.8642,-304.0499 743.2717,-256.6235 731.1495,-229.9981"/>
<polygon fill="#191970" stroke="#191970" points="734.2029,-228.2576 726.8738,-220.6068 727.8321,-231.1582 734.2029,-228.2576"/>
</g>
<!-- Node5 -->
<g id="node6" class="node">
<title>Node5</title>
<g id="a_node6"><a xlink:title=" ">
<polygon fill="#ffffff" stroke="#bfbfbf" points="603.5,-73 603.5,-92 647.5,-92 647.5,-73 603.5,-73"/>
<text text-anchor="middle" x="625.5" y="-80" font-family="Helvetica,sans-Serif" font-size="10.00" fill="#000000">string</text>
</a>
</g>
</g>
<!-- Node2&#45;&gt;Node5 -->
<g id="edge5" class="edge">
<title>Node2&#45;&gt;Node5</title>
<path fill="none" stroke="#191970" d="M783.0787,-324.4559C797.2313,-293.4231 836.7342,-193.9308 792.5,-134 776.4035,-112.1916 701.4242,-95.7381 657.5981,-87.7882"/>
<polygon fill="#191970" stroke="#191970" points="658.1609,-84.3335 647.7047,-86.0418 656.944,-91.2269 658.1609,-84.3335"/>
</g>
<!-- Node6 -->
<g id="node7" class="node">
<title>Node6</title>
<g id="a_node7"><a xlink:title=" ">
<polygon fill="#ffffff" stroke="#bfbfbf" points="614.5,-263 614.5,-282 712.5,-282 712.5,-263 614.5,-263"/>
<text text-anchor="middle" x="663.5" y="-270" font-family="Helvetica,sans-Serif" font-size="10.00" fill="#000000">lcm/lcm&#45;cpp.hpp</text>
</a>
</g>
</g>
<!-- Node2&#45;&gt;Node6 -->
<g id="edge6" class="edge">
<title>Node2&#45;&gt;Node6</title>
<path fill="none" stroke="#191970" d="M760.5313,-324.3906C741.7116,-314.3262 711.9415,-298.4057 690.3359,-286.8514"/>
<polygon fill="#191970" stroke="#191970" points="691.8114,-283.6714 681.3426,-282.0419 688.5102,-289.8442 691.8114,-283.6714"/>
</g>
<!-- Node7 -->
<g id="node8" class="node">
<title>Node7</title>
<g id="a_node8"><a xlink:href="drake__lcm__interface_8h.html" target="_top" xlink:title=" ">
<polygon fill="#ffffff" stroke="#000000" points="384,-257.5 384,-287.5 503,-287.5 503,-257.5 384,-257.5"/>
<text text-anchor="start" x="392" y="-275.5" font-family="Helvetica,sans-Serif" font-size="10.00" fill="#000000">drake/lcm/drake_lcm</text>
<text text-anchor="middle" x="443.5" y="-264.5" font-family="Helvetica,sans-Serif" font-size="10.00" fill="#000000">_interface.h</text>
</a>
</g>
</g>
<!-- Node2&#45;&gt;Node7 -->
<g id="edge8" class="edge">
<title>Node2&#45;&gt;Node7</title>
<path fill="none" stroke="#191970" d="M726.5238,-324.4581C669.2179,-313.9378 576.7378,-296.9601 513.1821,-285.2924"/>
<polygon fill="#191970" stroke="#191970" points="513.7077,-281.8305 503.24,-283.4672 512.4436,-288.7154 513.7077,-281.8305"/>
</g>
<!-- Node7&#45;&gt;Node1 -->
<g id="edge18" class="edge">
<title>Node7&#45;&gt;Node1</title>
<path fill="none" stroke="#191970" d="M503.2707,-258.9148C530.8185,-250.805 562.9825,-238.5825 588.5,-221 661.8628,-170.4503 722.7786,-81.6407 749.2723,-39.2799"/>
<polygon fill="#191970" stroke="#191970" points="752.4151,-40.8515 754.6833,-30.5023 746.4563,-37.1781 752.4151,-40.8515"/>
</g>
<!-- Node7&#45;&gt;Node3 -->
<g id="edge11" class="edge">
<title>Node7&#45;&gt;Node3</title>
<path fill="none" stroke="#191970" d="M488.5751,-257.4338C508.0195,-249.1367 529.8431,-237.1806 545.5,-221 573.5632,-191.9983 577.1998,-173.9519 571.5,-134 569.9519,-123.1488 566.6564,-111.389 563.5476,-101.85"/>
<polygon fill="#191970" stroke="#191970" points="566.7864,-100.5054 560.2202,-92.1906 560.1681,-102.7853 566.7864,-100.5054"/>
</g>
<!-- Node7&#45;&gt;Node4 -->
<g id="edge12" class="edge">
<title>Node7&#45;&gt;Node4</title>
<path fill="none" stroke="#191970" d="M503.476,-259.8097C551.4321,-249.5802 620.3538,-234.6937 680.5,-221 681.7333,-220.7192 682.9865,-220.432 684.2516,-220.1404"/>
<polygon fill="#191970" stroke="#191970" points="685.1082,-223.5346 694.0513,-217.8539 683.5175,-216.7177 685.1082,-223.5346"/>
</g>
<!-- Node7&#45;&gt;Node5 -->
<g id="edge14" class="edge">
<title>Node7&#45;&gt;Node5</title>
<path fill="none" stroke="#191970" d="M503.3048,-258.1459C525.7353,-250.2746 550.0022,-238.4464 567.5,-221 601.0565,-187.542 616.2016,-131.7677 622.1629,-102.2387"/>
<polygon fill="#191970" stroke="#191970" points="625.6222,-102.7802 624.0172,-92.3077 618.7411,-101.4954 625.6222,-102.7802"/>
</g>
<!-- Node8 -->
<g id="node9" class="node">
<title>Node8</title>
<g id="a_node9"><a xlink:title=" ">
<polygon fill="#ffffff" stroke="#bfbfbf" points="512.5,-140 512.5,-159 562.5,-159 562.5,-140 512.5,-140"/>
<text text-anchor="middle" x="537.5" y="-147" font-family="Helvetica,sans-Serif" font-size="10.00" fill="#000000">cstdint</text>
</a>
</g>
</g>
<!-- Node7&#45;&gt;Node8 -->
<g id="edge9" class="edge">
<title>Node7&#45;&gt;Node8</title>
<path fill="none" stroke="#191970" d="M482.9348,-257.3807C499.3011,-249.099 516.9088,-237.1699 527.5,-221 537.4603,-205.7934 539.3446,-184.8685 539.1066,-169.5851"/>
<polygon fill="#191970" stroke="#191970" points="542.583,-169.0071 538.6095,-159.1856 535.591,-169.3413 542.583,-169.0071"/>
</g>
<!-- Node9 -->
<g id="node10" class="node">
<title>Node9</title>
<g id="a_node10"><a xlink:title=" ">
<polygon fill="#ffffff" stroke="#bfbfbf" points="73,-201.5 73,-220.5 138,-220.5 138,-201.5 73,-201.5"/>
<text text-anchor="middle" x="105.5" y="-208.5" font-family="Helvetica,sans-Serif" font-size="10.00" fill="#000000">functional</text>
</a>
</g>
</g>
<!-- Node7&#45;&gt;Node9 -->
<g id="edge10" class="edge">
<title>Node7&#45;&gt;Node9</title>
<path fill="none" stroke="#191970" d="M383.7549,-262.546C324.8504,-252.5862 232.3193,-236.5497 152.5,-221 151.0414,-220.7159 149.5583,-220.4228 148.0611,-220.1236"/>
<polygon fill="#191970" stroke="#191970" points="148.5847,-216.6583 138.0864,-218.0852 147.1831,-223.5166 148.5847,-216.6583"/>
</g>
<!-- Node10 -->
<g id="node11" class="node">
<title>Node10</title>
<g id="a_node11"><a xlink:title=" ">
<polygon fill="#ffffff" stroke="#bfbfbf" points="233,-140 233,-159 298,-159 298,-140 233,-140"/>
<text text-anchor="middle" x="265.5" y="-147" font-family="Helvetica,sans-Serif" font-size="10.00" fill="#000000">stdexcept</text>
</a>
</g>
</g>
<!-- Node7&#45;&gt;Node10 -->
<g id="edge13" class="edge">
<title>Node7&#45;&gt;Node10</title>
<path fill="none" stroke="#191970" d="M417.3395,-257.3793C400.5448,-247.4488 378.4166,-233.9453 359.5,-221 333.0872,-202.9249 303.9367,-180.3095 285.2068,-165.4106"/>
<polygon fill="#191970" stroke="#191970" points="287.3774,-162.6649 277.3818,-159.1522 283.0052,-168.1315 287.3774,-162.6649"/>
</g>
<!-- Node11 -->
<g id="node12" class="node">
<title>Node11</title>
<g id="a_node12"><a xlink:title=" ">
<polygon fill="#ffffff" stroke="#bfbfbf" points="262,-6 262,-25 307,-25 307,-6 262,-6"/>
<text text-anchor="middle" x="284.5" y="-13" font-family="Helvetica,sans-Serif" font-size="10.00" fill="#000000">utility</text>
</a>
</g>
</g>
<!-- Node7&#45;&gt;Node11 -->
<g id="edge15" class="edge">
<title>Node7&#45;&gt;Node11</title>
<path fill="none" stroke="#191970" d="M383.8114,-267.344C322.2037,-260.6899 231.9993,-246.7752 209.5,-221 164.3954,-169.3283 165.8353,-126.7585 199.5,-67 210.7502,-47.0297 233.2132,-33.9175 252.2224,-25.9234"/>
<polygon fill="#191970" stroke="#191970" points="253.7252,-29.0942 261.7705,-22.2004 251.1822,-22.5724 253.7252,-29.0942"/>
</g>
<!-- Node12 -->
<g id="node13" class="node">
<title>Node12</title>
<g id="a_node13"><a xlink:title=" ">
<polygon fill="#ffffff" stroke="#bfbfbf" points="209,-73 209,-92 256,-92 256,-73 209,-73"/>
<text text-anchor="middle" x="232.5" y="-80" font-family="Helvetica,sans-Serif" font-size="10.00" fill="#000000">vector</text>
</a>
</g>
</g>
<!-- Node7&#45;&gt;Node12 -->
<g id="edge16" class="edge">
<title>Node7&#45;&gt;Node12</title>
<path fill="none" stroke="#191970" d="M383.7424,-266.7021C325.8626,-259.7051 244.0531,-245.6846 224.5,-221 197.1954,-186.5297 212.9071,-130.7798 224.1654,-101.6365"/>
<polygon fill="#191970" stroke="#191970" points="227.4818,-102.773 228.0237,-92.1921 221.0017,-100.1257 227.4818,-102.773"/>
</g>
<!-- Node13 -->
<g id="node14" class="node">
<title>Node13</title>
<g id="a_node14"><a xlink:title=" ">
<polygon fill="#ffffff" stroke="#bfbfbf" points="233,-201.5 233,-220.5 312,-220.5 312,-201.5 233,-201.5"/>
<text text-anchor="middle" x="272.5" y="-208.5" font-family="Helvetica,sans-Serif" font-size="10.00" fill="#000000">fmt/format.h</text>
</a>
</g>
</g>
<!-- Node7&#45;&gt;Node13 -->
<g id="edge17" class="edge">
<title>Node7&#45;&gt;Node13</title>
<path fill="none" stroke="#191970" d="M401.6687,-257.4554C373.1369,-247.194 335.7365,-233.7429 308.5271,-223.9571"/>
<polygon fill="#191970" stroke="#191970" points="309.5934,-220.6212 298.9989,-220.5303 307.2243,-227.2081 309.5934,-220.6212"/>
</g>
<!-- Node14 -->
<g id="node15" class="node">
<title>Node14</title>
<g id="a_node15"><a xlink:href="drake__throw_8h.html" target="_top" xlink:title="Provides a convenient wrapper to throw an exception when a condition is unmet.">
<polygon fill="#ffffff" stroke="#000000" points="0,-134.5 0,-164.5 121,-164.5 121,-134.5 0,-134.5"/>
<text text-anchor="start" x="8" y="-152.5" font-family="Helvetica,sans-Serif" font-size="10.00" fill="#000000">drake/common/drake</text>
<text text-anchor="middle" x="60.5" y="-141.5" font-family="Helvetica,sans-Serif" font-size="10.00" fill="#000000">_throw.h</text>
</a>
</g>
</g>
<!-- Node7&#45;&gt;Node14 -->
<g id="edge19" class="edge">
<title>Node7&#45;&gt;Node14</title>
<path fill="none" stroke="#191970" d="M383.7951,-268.5705C282.2346,-261.2858 84.716,-244.2816 63.5,-221 52.3492,-208.7635 51.9937,-189.894 54.2166,-174.6118"/>
<polygon fill="#191970" stroke="#191970" points="57.6665,-175.2038 56.0664,-164.7305 50.786,-173.9157 57.6665,-175.2038"/>
</g>
<!-- Node17 -->
<g id="node18" class="node">
<title>Node17</title>
<g id="a_node18"><a xlink:href="lcm__messages_8h.html" target="_top" xlink:title=" ">
<polygon fill="#ffffff" stroke="#000000" points="368.5,-201.5 368.5,-220.5 518.5,-220.5 518.5,-201.5 368.5,-201.5"/>
<text text-anchor="middle" x="443.5" y="-208.5" font-family="Helvetica,sans-Serif" font-size="10.00" fill="#000000">drake/lcm/lcm_messages.h</text>
</a>
</g>
</g>
<!-- Node7&#45;&gt;Node17 -->
<g id="edge23" class="edge">
<title>Node7&#45;&gt;Node17</title>
<path fill="none" stroke="#191970" d="M443.5,-257.2977C443.5,-249.3834 443.5,-239.6043 443.5,-231.0759"/>
<polygon fill="#191970" stroke="#191970" points="447.0001,-230.8469 443.5,-220.8469 440.0001,-230.847 447.0001,-230.8469"/>
</g>
<!-- Node15 -->
<g id="node16" class="node">
<title>Node15</title>
<g id="a_node16"><a xlink:title=" ">
<polygon fill="#ffffff" stroke="#bfbfbf" points="43,-6 43,-25 112,-25 112,-6 43,-6"/>
<text text-anchor="middle" x="77.5" y="-13" font-family="Helvetica,sans-Serif" font-size="10.00" fill="#000000">type_traits</text>
</a>
</g>
</g>
<!-- Node14&#45;&gt;Node15 -->
<g id="edge20" class="edge">
<title>Node14&#45;&gt;Node15</title>
<path fill="none" stroke="#191970" d="M37.9732,-134.4495C26.5259,-125.397 13.7434,-112.7722 7.5,-98 2.1363,-85.3092 1.2817,-79.2947 7.5,-67 15.6765,-50.8334 31.5835,-38.5022 46.1699,-29.9652"/>
<polygon fill="#191970" stroke="#191970" points="47.9036,-33.0064 55.0005,-25.1397 44.5468,-26.8637 47.9036,-33.0064"/>
</g>
<!-- Node16 -->
<g id="node17" class="node">
<title>Node16</title>
<g id="a_node17"><a xlink:href="drake__assert_8h.html" target="_top" xlink:title="Provides Drake&#39;s assertion implementation.">
<polygon fill="#ffffff" stroke="#000000" points="17,-67.5 17,-97.5 138,-97.5 138,-67.5 17,-67.5"/>
<text text-anchor="start" x="25" y="-85.5" font-family="Helvetica,sans-Serif" font-size="10.00" fill="#000000">drake/common/drake</text>
<text text-anchor="middle" x="77.5" y="-74.5" font-family="Helvetica,sans-Serif" font-size="10.00" fill="#000000">_assert.h</text>
</a>
</g>
</g>
<!-- Node14&#45;&gt;Node16 -->
<g id="edge21" class="edge">
<title>Node14&#45;&gt;Node16</title>
<path fill="none" stroke="#191970" d="M64.3576,-134.2967C66.3572,-126.4156 68.8514,-116.5857 71.1279,-107.6135"/>
<polygon fill="#191970" stroke="#191970" points="74.5907,-108.1968 73.6577,-97.6432 67.8057,-106.4752 74.5907,-108.1968"/>
</g>
<!-- Node16&#45;&gt;Node15 -->
<g id="edge22" class="edge">
<title>Node16&#45;&gt;Node15</title>
<path fill="none" stroke="#191970" d="M77.5,-67.2967C77.5,-57.7699 77.5,-45.3954 77.5,-35.1306"/>
<polygon fill="#191970" stroke="#191970" points="81.0001,-35.0549 77.5,-25.055 74.0001,-35.055 81.0001,-35.0549"/>
</g>
<!-- Node17&#45;&gt;Node8 -->
<g id="edge24" class="edge">
<title>Node17&#45;&gt;Node8</title>
<path fill="none" stroke="#191970" d="M458.1875,-201.3906C473.2256,-191.5519 496.8176,-176.1167 514.3667,-164.6351"/>
<polygon fill="#191970" stroke="#191970" points="516.4637,-167.4457 522.9156,-159.0419 512.6313,-161.588 516.4637,-167.4457"/>
</g>
<!-- Node17&#45;&gt;Node10 -->
<g id="edge25" class="edge">
<title>Node17&#45;&gt;Node10</title>
<path fill="none" stroke="#191970" d="M415.6875,-201.3906C385.2517,-190.8749 336.3123,-173.966 302.6174,-162.3243"/>
<polygon fill="#191970" stroke="#191970" points="303.712,-158.9995 293.1172,-159.0419 301.426,-165.6157 303.712,-158.9995"/>
</g>
<!-- Node17&#45;&gt;Node12 -->
<g id="edge26" class="edge">
<title>Node17&#45;&gt;Node12</title>
<path fill="none" stroke="#191970" d="M418.8732,-201.4252C398.5131,-193.0493 369.2035,-179.913 345.5,-165 327.0516,-153.3932 324.9432,-147.0689 307.5,-134 290.5417,-121.2943 270.7604,-107.7622 255.772,-97.7591"/>
<polygon fill="#191970" stroke="#191970" points="257.3954,-94.636 247.1271,-92.0257 253.5264,-100.4696 257.3954,-94.636"/>
</g>
<!-- Node17&#45;&gt;Node14 -->
<g id="edge27" class="edge">
<title>Node17&#45;&gt;Node14</title>
<path fill="none" stroke="#191970" d="M384.0765,-201.4581C315.747,-190.4861 203.6768,-172.4905 130.9973,-160.8201"/>
<polygon fill="#191970" stroke="#191970" points="131.4405,-157.3465 121.012,-159.2167 130.3306,-164.2579 131.4405,-157.3465"/>
</g>
<!-- Node18 -->
<g id="node19" class="node">
<title>Node18</title>
<g id="a_node19"><a xlink:href="nice__type__name_8h.html" target="_top" xlink:title=" ">
<polygon fill="#ffffff" stroke="#000000" points="354.5,-134.5 354.5,-164.5 494.5,-164.5 494.5,-134.5 354.5,-134.5"/>
<text text-anchor="start" x="362.5" y="-152.5" font-family="Helvetica,sans-Serif" font-size="10.00" fill="#000000">drake/common/nice_type</text>
<text text-anchor="middle" x="424.5" y="-141.5" font-family="Helvetica,sans-Serif" font-size="10.00" fill="#000000">_name.h</text>
</a>
</g>
</g>
<!-- Node17&#45;&gt;Node18 -->
<g id="edge28" class="edge">
<title>Node17&#45;&gt;Node18</title>
<path fill="none" stroke="#191970" d="M440.5313,-201.3906C438.2932,-194.1463 435.1177,-183.8679 432.1827,-174.3676"/>
<polygon fill="#191970" stroke="#191970" points="435.4438,-173.0659 429.1479,-164.5446 428.7557,-175.1322 435.4438,-173.0659"/>
</g>
<!-- Node18&#45;&gt;Node3 -->
<g id="edge29" class="edge">
<title>Node18&#45;&gt;Node3</title>
<path fill="none" stroke="#191970" d="M454.1234,-134.4639C476.3711,-123.1715 506.6384,-107.8086 528.4861,-96.7192"/>
<polygon fill="#191970" stroke="#191970" points="530.2459,-99.7511 537.5788,-92.1039 527.0776,-93.5091 530.2459,-99.7511"/>
</g>
<!-- Node18&#45;&gt;Node5 -->
<g id="edge30" class="edge">
<title>Node18&#45;&gt;Node5</title>
<path fill="none" stroke="#191970" d="M482.7778,-134.484C515.9902,-125.2748 558.113,-112.487 594.5,-98 595.8627,-97.4575 597.2469,-96.8777 598.6362,-96.2728"/>
<polygon fill="#191970" stroke="#191970" points="600.1219,-99.4419 607.7043,-92.0421 597.1622,-93.0983 600.1219,-99.4419"/>
</g>
<!-- Node18&#45;&gt;Node11 -->
<g id="edge32" class="edge">
<title>Node18&#45;&gt;Node11</title>
<path fill="none" stroke="#191970" d="M360.8042,-134.4917C340.215,-126.7286 318.9867,-115.1428 304.5,-98 289.6113,-80.3815 285.4523,-53.4683 284.4682,-35.2115"/>
<polygon fill="#191970" stroke="#191970" points="287.9646,-35.0259 284.1983,-25.1232 280.9671,-35.2132 287.9646,-35.0259"/>
</g>
<!-- Node18&#45;&gt;Node12 -->
<g id="edge33" class="edge">
<title>Node18&#45;&gt;Node12</title>
<path fill="none" stroke="#191970" d="M376.7008,-134.3952C346.1522,-124.5252 305.7888,-111.0821 270.5,-98 268.6461,-97.3127 266.7476,-96.5923 264.836,-95.8541"/>
<polygon fill="#191970" stroke="#191970" points="265.9003,-92.5112 255.3141,-92.0844 263.3236,-99.0197 265.9003,-92.5112"/>
</g>
<!-- Node19 -->
<g id="node20" class="node">
<title>Node19</title>
<g id="a_node20"><a xlink:title=" ">
<polygon fill="#ffffff" stroke="#bfbfbf" points="452,-73 452,-92 509,-92 509,-73 452,-73"/>
<text text-anchor="middle" x="480.5" y="-80" font-family="Helvetica,sans-Serif" font-size="10.00" fill="#000000">typeinfo</text>
</a>
</g>
</g>
<!-- Node18&#45;&gt;Node19 -->
<g id="edge31" class="edge">
<title>Node18&#45;&gt;Node19</title>
<path fill="none" stroke="#191970" d="M437.2073,-134.2967C445.7629,-124.0605 457.0665,-110.5366 465.9779,-99.8746"/>
<polygon fill="#191970" stroke="#191970" points="468.7861,-101.9724 472.5138,-92.055 463.4151,-97.4832 468.7861,-101.9724"/>
</g>
<!-- Node20 -->
<g id="node21" class="node">
<title>Node20</title>
<g id="a_node21"><a xlink:href="never__destroyed_8h.html" target="_top" xlink:title=" ">
<polygon fill="#ffffff" stroke="#000000" points="313,-67.5 313,-97.5 434,-97.5 434,-67.5 313,-67.5"/>
<text text-anchor="start" x="321" y="-85.5" font-family="Helvetica,sans-Serif" font-size="10.00" fill="#000000">drake/common/never</text>
<text text-anchor="middle" x="373.5" y="-74.5" font-family="Helvetica,sans-Serif" font-size="10.00" fill="#000000">_destroyed.h</text>
</a>
</g>
</g>
<!-- Node18&#45;&gt;Node20 -->
<g id="edge34" class="edge">
<title>Node18&#45;&gt;Node20</title>
<path fill="none" stroke="#191970" d="M412.9273,-134.2967C406.5371,-125.9016 398.4635,-115.2952 391.289,-105.8698"/>
<polygon fill="#191970" stroke="#191970" points="393.8688,-103.4803 385.0269,-97.6432 388.2988,-107.7201 393.8688,-103.4803"/>
</g>
<!-- Node20&#45;&gt;Node1 -->
<g id="edge38" class="edge">
<title>Node20&#45;&gt;Node1</title>
<path fill="none" stroke="#191970" d="M434.1616,-68.8407C437.3164,-68.2015 440.4435,-67.5838 443.5,-67 528.8858,-50.6901 627.7499,-35.3105 692.7308,-25.6779"/>
<polygon fill="#191970" stroke="#191970" points="693.4803,-29.1053 702.8617,-24.182 692.4577,-22.1804 693.4803,-29.1053"/>
</g>
<!-- Node20&#45;&gt;Node11 -->
<g id="edge37" class="edge">
<title>Node20&#45;&gt;Node11</title>
<path fill="none" stroke="#191970" d="M353.3045,-67.2967C339.034,-56.5537 319.9532,-42.1895 305.5052,-31.3129"/>
<polygon fill="#191970" stroke="#191970" points="307.2867,-28.2731 297.1924,-25.055 303.0766,-33.8656 307.2867,-28.2731"/>
</g>
<!-- Node20&#45;&gt;Node15 -->
<g id="edge36" class="edge">
<title>Node20&#45;&gt;Node15</title>
<path fill="none" stroke="#191970" d="M312.8857,-68.7799C256.237,-55.9574 172.977,-37.1113 122.1622,-25.6093"/>
<polygon fill="#191970" stroke="#191970" points="122.667,-22.1351 112.141,-23.341 121.1216,-28.9624 122.667,-22.1351"/>
</g>
<!-- Node21 -->
<g id="node22" class="node">
<title>Node21</title>
<g id="a_node22"><a xlink:title=" ">
<polygon fill="#ffffff" stroke="#bfbfbf" points="355,-6 355,-25 392,-25 392,-6 355,-6"/>
<text text-anchor="middle" x="373.5" y="-13" font-family="Helvetica,sans-Serif" font-size="10.00" fill="#000000">new</text>
</a>
</g>
</g>
<!-- Node20&#45;&gt;Node21 -->
<g id="edge35" class="edge">
<title>Node20&#45;&gt;Node21</title>
<path fill="none" stroke="#191970" d="M373.5,-67.2967C373.5,-57.7699 373.5,-45.3954 373.5,-35.1306"/>
<polygon fill="#191970" stroke="#191970" points="377.0001,-35.0549 373.5,-25.055 370.0001,-35.055 377.0001,-35.0549"/>
</g>
</g>
</svg>
