<?xml version="1.0" encoding="UTF-8" standalone="no"?>
<!DOCTYPE svg PUBLIC "-//W3C//DTD SVG 1.1//EN"
 "http://www.w3.org/Graphics/SVG/1.1/DTD/svg11.dtd">
<!-- Generated by graphviz version 2.43.0 (0)
 -->
<!-- Title: drake/lcm/drake_lcm.h Pages: 1 -->
<svg width="1194pt" height="363pt"
 viewBox="0.00 0.00 1193.75 363.00" xmlns="http://www.w3.org/2000/svg" xmlns:xlink="http://www.w3.org/1999/xlink">
<g id="graph0" class="graph" transform="scale(1 1) rotate(0) translate(4 359)">
<title>drake/lcm/drake_lcm.h</title>
<polygon fill="white" stroke="transparent" points="-4,4 -4,-359 1189.75,-359 1189.75,4 -4,4"/>
<!-- Node0 -->
<g id="node1" class="node">
<title>Node0</title>
<g id="a_node1"><a xlink:title=" ">
<polygon fill="#bfbfbf" stroke="black" points="374.25,-335.5 374.25,-354.5 501.25,-354.5 501.25,-335.5 374.25,-335.5"/>
<text text-anchor="middle" x="437.75" y="-342.5" font-family="Helvetica,sans-Serif" font-size="10.00">drake/lcm/drake_lcm.h</text>
</a>
</g>
</g>
<!-- Node1 -->
<g id="node2" class="node">
<title>Node1</title>
<g id="a_node2"><a xlink:title=" ">
<polygon fill="white" stroke="#bfbfbf" points="203.75,-73 203.75,-92 261.75,-92 261.75,-73 203.75,-73"/>
<text text-anchor="middle" x="232.75" y="-80" font-family="Helvetica,sans-Serif" font-size="10.00">memory</text>
</a>
</g>
</g>
<!-- Node0&#45;&gt;Node1 -->
<g id="edge1" class="edge">
<title>Node0&#45;&gt;Node1</title>
<path fill="none" stroke="midnightblue" d="M374.19,-337.57C265,-324.99 49.65,-292.87 9.75,-232 -40.27,-155.68 117.35,-109.12 193.74,-91.53"/>
<polygon fill="midnightblue" stroke="midnightblue" points="194.52,-94.94 203.51,-89.34 192.98,-88.11 194.52,-94.94"/>
</g>
<!-- Node2 -->
<g id="node3" class="node">
<title>Node2</title>
<g id="a_node3"><a xlink:title=" ">
<polygon fill="white" stroke="#bfbfbf" points="18.75,-207 18.75,-226 74.75,-226 74.75,-207 18.75,-207"/>
<text text-anchor="middle" x="46.75" y="-214" font-family="Helvetica,sans-Serif" font-size="10.00">optional</text>
</a>
</g>
</g>
<!-- Node0&#45;&gt;Node2 -->
<g id="edge2" class="edge">
<title>Node0&#45;&gt;Node2</title>
<path fill="none" stroke="midnightblue" d="M395.42,-335.45C357.62,-327.4 300.95,-314.32 252.75,-299 187.88,-278.38 114.24,-247.32 74.96,-230.1"/>
<polygon fill="midnightblue" stroke="midnightblue" points="76.31,-226.87 65.75,-226.04 73.49,-233.28 76.31,-226.87"/>
</g>
<!-- Node3 -->
<g id="node4" class="node">
<title>Node3</title>
<g id="a_node4"><a xlink:title=" ">
<polygon fill="white" stroke="#bfbfbf" points="1074.75,-73 1074.75,-92 1118.75,-92 1118.75,-73 1074.75,-73"/>
<text text-anchor="middle" x="1096.75" y="-80" font-family="Helvetica,sans-Serif" font-size="10.00">string</text>
</a>
</g>
</g>
<!-- Node0&#45;&gt;Node3 -->
<g id="edge3" class="edge">
<title>Node0&#45;&gt;Node3</title>
<path fill="none" stroke="midnightblue" d="M501.29,-339.92C643,-329.71 979.51,-298.91 1068.75,-232 1105.64,-204.34 1105.48,-180.02 1102.75,-134 1102.12,-123.36 1100.75,-111.52 1099.48,-101.98"/>
<polygon fill="midnightblue" stroke="midnightblue" points="1102.94,-101.46 1098.08,-92.05 1096.01,-102.44 1102.94,-101.46"/>
</g>
<!-- Node4 -->
<g id="node5" class="node">
<title>Node4</title>
<g id="a_node5"><a xlink:title=" ">
<polygon fill="white" stroke="#bfbfbf" points="93.25,-207 93.25,-226 166.25,-226 166.25,-207 93.25,-207"/>
<text text-anchor="middle" x="129.75" y="-214" font-family="Helvetica,sans-Serif" font-size="10.00">string_view</text>
</a>
</g>
</g>
<!-- Node0&#45;&gt;Node4 -->
<g id="edge4" class="edge">
<title>Node0&#45;&gt;Node4</title>
<path fill="none" stroke="midnightblue" d="M416.58,-335.31C363.05,-313.32 222.1,-255.43 159.94,-229.9"/>
<polygon fill="midnightblue" stroke="midnightblue" points="161.25,-226.65 150.67,-226.09 158.59,-233.13 161.25,-226.65"/>
</g>
<!-- Node5 -->
<g id="node6" class="node">
<title>Node5</title>
<g id="a_node6"><a xlink:href="drake__copyable_8h.html" target="_top" xlink:title="Provides careful macros to selectively enable or disable the special member functions for copy&#45;constr...">
<polygon fill="white" stroke="black" points="865.25,-0.5 865.25,-30.5 984.25,-30.5 984.25,-0.5 865.25,-0.5"/>
<text text-anchor="start" x="873.25" y="-18.5" font-family="Helvetica,sans-Serif" font-size="10.00">drake/common/drake</text>
<text text-anchor="middle" x="924.75" y="-7.5" font-family="Helvetica,sans-Serif" font-size="10.00">_copyable.h</text>
</a>
</g>
</g>
<!-- Node0&#45;&gt;Node5 -->
<g id="edge5" class="edge">
<title>Node0&#45;&gt;Node5</title>
<path fill="none" stroke="midnightblue" d="M501.44,-342.85C596.95,-340.11 782.55,-330.76 936.75,-299 1050.8,-275.51 1185.75,-333.94 1185.75,-217.5 1185.75,-217.5 1185.75,-217.5 1185.75,-148.5 1185.75,-62.61 1071.8,-32.59 994.49,-22.11"/>
<polygon fill="midnightblue" stroke="midnightblue" points="994.67,-18.61 984.31,-20.81 993.78,-25.55 994.67,-18.61"/>
</g>
<!-- Node6 -->
<g id="node7" class="node">
<title>Node6</title>
<g id="a_node7"><a xlink:href="drake__lcm__interface_8h.html" target="_top" xlink:title=" ">
<polygon fill="white" stroke="black" points="378.75,-268.5 378.75,-298.5 496.75,-298.5 496.75,-268.5 378.75,-268.5"/>
<text text-anchor="start" x="386.75" y="-286.5" font-family="Helvetica,sans-Serif" font-size="10.00">drake/lcm/drake_lcm</text>
<text text-anchor="middle" x="437.75" y="-275.5" font-family="Helvetica,sans-Serif" font-size="10.00">_interface.h</text>
</a>
</g>
</g>
<!-- Node0&#45;&gt;Node6 -->
<g id="edge6" class="edge">
<title>Node0&#45;&gt;Node6</title>
<path fill="none" stroke="midnightblue" d="M437.75,-335.48C437.75,-328.47 437.75,-318.19 437.75,-308.7"/>
<polygon fill="midnightblue" stroke="midnightblue" points="441.26,-308.52 437.75,-298.52 434.26,-308.52 441.26,-308.52"/>
</g>
<!-- Node21 -->
<g id="node22" class="node">
<title>Node21</title>
<g id="a_node22"><a xlink:href="drake__lcm__params_8h.html" target="_top" xlink:title=" ">
<polygon fill="white" stroke="black" points="914.75,-201.5 914.75,-231.5 1032.75,-231.5 1032.75,-201.5 914.75,-201.5"/>
<text text-anchor="start" x="922.75" y="-219.5" font-family="Helvetica,sans-Serif" font-size="10.00">drake/lcm/drake_lcm</text>
<text text-anchor="middle" x="973.75" y="-208.5" font-family="Helvetica,sans-Serif" font-size="10.00">_params.h</text>
</a>
</g>
</g>
<!-- Node0&#45;&gt;Node21 -->
<g id="edge36" class="edge">
<title>Node0&#45;&gt;Node21</title>
<path fill="none" stroke="midnightblue" d="M474.18,-335.4C562.55,-314.55 789.54,-260.98 904.63,-233.81"/>
<polygon fill="midnightblue" stroke="midnightblue" points="905.48,-237.21 914.4,-231.51 903.87,-230.4 905.48,-237.21"/>
</g>
<!-- Node6&#45;&gt;Node1 -->
<g id="edge9" class="edge">
<title>Node6&#45;&gt;Node1</title>
<path fill="none" stroke="midnightblue" d="M378.4,-273.68C330.49,-265.29 268.4,-251.11 251.75,-232 219.83,-195.34 224.41,-132.98 229.2,-102.04"/>
<polygon fill="midnightblue" stroke="midnightblue" points="232.65,-102.62 230.9,-92.17 225.75,-101.43 232.65,-102.62"/>
</g>
<!-- Node6&#45;&gt;Node2 -->
<g id="edge10" class="edge">
<title>Node6&#45;&gt;Node2</title>
<path fill="none" stroke="midnightblue" d="M378.67,-278.28C307.71,-272.25 185.51,-258.81 83.75,-232 81.09,-231.3 78.37,-230.46 75.65,-229.56"/>
<polygon fill="midnightblue" stroke="midnightblue" points="76.65,-226.19 66.06,-226.04 74.24,-232.77 76.65,-226.19"/>
</g>
<!-- Node6&#45;&gt;Node3 -->
<g id="edge12" class="edge">
<title>Node6&#45;&gt;Node3</title>
<path fill="none" stroke="midnightblue" d="M496.95,-280.9C640.34,-276.57 997.78,-262.76 1041.75,-232 1084.48,-202.11 1094.08,-135.02 1096.2,-102.24"/>
<polygon fill="midnightblue" stroke="midnightblue" points="1099.69,-102.35 1096.67,-92.19 1092.7,-102.01 1099.69,-102.35"/>
</g>
<!-- Node6&#45;&gt;Node4 -->
<g id="edge13" class="edge">
<title>Node6&#45;&gt;Node4</title>
<path fill="none" stroke="midnightblue" d="M378.51,-272.3C326.22,-262.96 248.07,-248.15 180.75,-232 176.63,-231.01 172.33,-229.9 168.06,-228.76"/>
<polygon fill="midnightblue" stroke="midnightblue" points="168.81,-225.34 158.24,-226.05 166.95,-232.08 168.81,-225.34"/>
</g>
<!-- Node6&#45;&gt;Node5 -->
<g id="edge17" class="edge">
<title>Node6&#45;&gt;Node5</title>
<path fill="none" stroke="midnightblue" d="M496.96,-279.63C581.39,-274.54 731.11,-261.56 775.75,-232 818.34,-203.8 806.97,-176.18 835.75,-134 859.14,-99.74 888.59,-61.76 907.05,-38.5"/>
<polygon fill="midnightblue" stroke="midnightblue" points="909.83,-40.64 913.33,-30.63 904.35,-36.27 909.83,-40.64"/>
</g>
<!-- Node7 -->
<g id="node8" class="node">
<title>Node7</title>
<g id="a_node8"><a xlink:title=" ">
<polygon fill="white" stroke="#bfbfbf" points="403.75,-140 403.75,-159 453.75,-159 453.75,-140 403.75,-140"/>
<text text-anchor="middle" x="428.75" y="-147" font-family="Helvetica,sans-Serif" font-size="10.00">cstdint</text>
</a>
</g>
</g>
<!-- Node6&#45;&gt;Node7 -->
<g id="edge7" class="edge">
<title>Node6&#45;&gt;Node7</title>
<path fill="none" stroke="midnightblue" d="M443.5,-268.29C449.33,-251.97 456.84,-224.43 451.75,-201 449.24,-189.4 443.82,-177.27 438.87,-167.81"/>
<polygon fill="midnightblue" stroke="midnightblue" points="441.93,-166.1 434.03,-159.04 435.8,-169.49 441.93,-166.1"/>
</g>
<!-- Node8 -->
<g id="node9" class="node">
<title>Node8</title>
<g id="a_node9"><a xlink:title=" ">
<polygon fill="white" stroke="#bfbfbf" points="261.25,-207 261.25,-226 326.25,-226 326.25,-207 261.25,-207"/>
<text text-anchor="middle" x="293.75" y="-214" font-family="Helvetica,sans-Serif" font-size="10.00">functional</text>
</a>
</g>
</g>
<!-- Node6&#45;&gt;Node8 -->
<g id="edge8" class="edge">
<title>Node6&#45;&gt;Node8</title>
<path fill="none" stroke="midnightblue" d="M406.51,-268.4C381.35,-257.04 346.3,-241.22 321.99,-230.24"/>
<polygon fill="midnightblue" stroke="midnightblue" points="323.16,-226.93 312.6,-226.01 320.28,-233.31 323.16,-226.93"/>
</g>
<!-- Node9 -->
<g id="node10" class="node">
<title>Node9</title>
<g id="a_node10"><a xlink:title=" ">
<polygon fill="white" stroke="#bfbfbf" points="344.25,-207 344.25,-226 409.25,-226 409.25,-207 344.25,-207"/>
<text text-anchor="middle" x="376.75" y="-214" font-family="Helvetica,sans-Serif" font-size="10.00">stdexcept</text>
</a>
</g>
</g>
<!-- Node6&#45;&gt;Node9 -->
<g id="edge11" class="edge">
<title>Node6&#45;&gt;Node9</title>
<path fill="none" stroke="midnightblue" d="M424.52,-268.4C414.91,-258.16 401.9,-244.3 391.88,-233.62"/>
<polygon fill="midnightblue" stroke="midnightblue" points="394.31,-231.09 384.91,-226.19 389.21,-235.88 394.31,-231.09"/>
</g>
<!-- Node10 -->
<g id="node11" class="node">
<title>Node10</title>
<g id="a_node11"><a xlink:title=" ">
<polygon fill="white" stroke="#bfbfbf" points="421.25,-6 421.25,-25 466.25,-25 466.25,-6 421.25,-6"/>
<text text-anchor="middle" x="443.75" y="-13" font-family="Helvetica,sans-Serif" font-size="10.00">utility</text>
</a>
</g>
</g>
<!-- Node6&#45;&gt;Node10 -->
<g id="edge14" class="edge">
<title>Node6&#45;&gt;Node10</title>
<path fill="none" stroke="midnightblue" d="M378.72,-274.76C325.5,-266.62 252.52,-252.17 231.75,-232 177.85,-179.63 147.19,-125.18 194.75,-67 221.68,-34.06 349.43,-22.09 410.75,-18.19"/>
<polygon fill="midnightblue" stroke="midnightblue" points="411.27,-21.66 421.04,-17.57 410.85,-14.68 411.27,-21.66"/>
</g>
<!-- Node11 -->
<g id="node12" class="node">
<title>Node11</title>
<g id="a_node12"><a xlink:title=" ">
<polygon fill="white" stroke="#bfbfbf" points="368.25,-73 368.25,-92 415.25,-92 415.25,-73 368.25,-73"/>
<text text-anchor="middle" x="391.75" y="-80" font-family="Helvetica,sans-Serif" font-size="10.00">vector</text>
</a>
</g>
</g>
<!-- Node6&#45;&gt;Node11 -->
<g id="edge15" class="edge">
<title>Node6&#45;&gt;Node11</title>
<path fill="none" stroke="midnightblue" d="M436.04,-268.47C433.66,-251.83 428.51,-223.53 418.75,-201 411.12,-183.35 400.66,-183.3 394.75,-165 388.11,-144.42 388.33,-119.38 389.58,-102.53"/>
<polygon fill="midnightblue" stroke="midnightblue" points="393.09,-102.62 390.55,-92.33 386.12,-101.96 393.09,-102.62"/>
</g>
<!-- Node12 -->
<g id="node13" class="node">
<title>Node12</title>
<g id="a_node13"><a xlink:title=" ">
<polygon fill="white" stroke="#bfbfbf" points="670.25,-207 670.25,-226 749.25,-226 749.25,-207 670.25,-207"/>
<text text-anchor="middle" x="709.75" y="-214" font-family="Helvetica,sans-Serif" font-size="10.00">fmt/format.h</text>
</a>
</g>
</g>
<!-- Node6&#45;&gt;Node12 -->
<g id="edge16" class="edge">
<title>Node6&#45;&gt;Node12</title>
<path fill="none" stroke="midnightblue" d="M496.99,-270.36C542.31,-260.77 606.24,-246.62 661.75,-232 665.38,-231.05 669.14,-230 672.89,-228.93"/>
<polygon fill="midnightblue" stroke="midnightblue" points="674.08,-232.22 682.69,-226.05 672.11,-225.51 674.08,-232.22"/>
</g>
<!-- Node13 -->
<g id="node14" class="node">
<title>Node13</title>
<g id="a_node14"><a xlink:href="drake__throw_8h.html" target="_top" xlink:title="Provides a convenient wrapper to throw an exception when a condition is unmet.">
<polygon fill="white" stroke="black" points="668.25,-134.5 668.25,-164.5 787.25,-164.5 787.25,-134.5 668.25,-134.5"/>
<text text-anchor="start" x="676.25" y="-152.5" font-family="Helvetica,sans-Serif" font-size="10.00">drake/common/drake</text>
<text text-anchor="middle" x="727.75" y="-141.5" font-family="Helvetica,sans-Serif" font-size="10.00">_throw.h</text>
</a>
</g>
</g>
<!-- Node6&#45;&gt;Node13 -->
<g id="edge18" class="edge">
<title>Node6&#45;&gt;Node13</title>
<path fill="none" stroke="midnightblue" d="M496.76,-282C580.06,-279.91 725.71,-270.64 758.75,-232 773.3,-214.99 760.71,-190.45 747.48,-172.75"/>
<polygon fill="midnightblue" stroke="midnightblue" points="750.01,-170.32 741.04,-164.67 744.53,-174.68 750.01,-170.32"/>
</g>
<!-- Node16 -->
<g id="node17" class="node">
<title>Node16</title>
<g id="a_node17"><a xlink:href="lcm__messages_8h.html" target="_top" xlink:title=" ">
<polygon fill="white" stroke="black" points="503.25,-207 503.25,-226 652.25,-226 652.25,-207 503.25,-207"/>
<text text-anchor="middle" x="577.75" y="-214" font-family="Helvetica,sans-Serif" font-size="10.00">drake/lcm/lcm_messages.h</text>
</a>
</g>
</g>
<!-- Node6&#45;&gt;Node16 -->
<g id="edge22" class="edge">
<title>Node6&#45;&gt;Node16</title>
<path fill="none" stroke="midnightblue" d="M468.13,-268.4C492.59,-257.04 526.67,-241.22 550.31,-230.24"/>
<polygon fill="midnightblue" stroke="midnightblue" points="551.84,-233.39 559.43,-226.01 548.89,-227.04 551.84,-233.39"/>
</g>
<!-- Node14 -->
<g id="node15" class="node">
<title>Node14</title>
<g id="a_node15"><a xlink:title=" ">
<polygon fill="white" stroke="#bfbfbf" points="705.25,-6 705.25,-25 774.25,-25 774.25,-6 705.25,-6"/>
<text text-anchor="middle" x="739.75" y="-13" font-family="Helvetica,sans-Serif" font-size="10.00">type_traits</text>
</a>
</g>
</g>
<!-- Node13&#45;&gt;Node14 -->
<g id="edge19" class="edge">
<title>Node13&#45;&gt;Node14</title>
<path fill="none" stroke="midnightblue" d="M722.51,-134.25C717.21,-117.88 710.5,-90.3 715.75,-67 718.39,-55.33 724.04,-43.2 729.2,-33.75"/>
<polygon fill="midnightblue" stroke="midnightblue" points="732.28,-35.42 734.26,-25.01 726.22,-31.92 732.28,-35.42"/>
</g>
<!-- Node15 -->
<g id="node16" class="node">
<title>Node15</title>
<g id="a_node16"><a xlink:href="drake__assert_8h.html" target="_top" xlink:title="Provides Drake&#39;s assertion implementation.">
<polygon fill="white" stroke="black" points="724.25,-67.5 724.25,-97.5 843.25,-97.5 843.25,-67.5 724.25,-67.5"/>
<text text-anchor="start" x="732.25" y="-85.5" font-family="Helvetica,sans-Serif" font-size="10.00">drake/common/drake</text>
<text text-anchor="middle" x="783.75" y="-74.5" font-family="Helvetica,sans-Serif" font-size="10.00">_assert.h</text>
</a>
</g>
</g>
<!-- Node13&#45;&gt;Node15 -->
<g id="edge20" class="edge">
<title>Node13&#45;&gt;Node15</title>
<path fill="none" stroke="midnightblue" d="M739.91,-134.4C747.24,-125.88 756.75,-114.85 765.03,-105.23"/>
<polygon fill="midnightblue" stroke="midnightblue" points="767.75,-107.44 771.63,-97.58 762.45,-102.87 767.75,-107.44"/>
</g>
<!-- Node15&#45;&gt;Node14 -->
<g id="edge21" class="edge">
<title>Node15&#45;&gt;Node14</title>
<path fill="none" stroke="midnightblue" d="M774.21,-67.4C767.48,-57.46 758.44,-44.11 751.31,-33.57"/>
<polygon fill="midnightblue" stroke="midnightblue" points="754.14,-31.51 745.64,-25.19 748.35,-35.44 754.14,-31.51"/>
</g>
<!-- Node16&#45;&gt;Node7 -->
<g id="edge23" class="edge">
<title>Node16&#45;&gt;Node7</title>
<path fill="none" stroke="midnightblue" d="M557.97,-206.87C532.36,-195.7 487.55,-176.15 458.01,-163.26"/>
<polygon fill="midnightblue" stroke="midnightblue" points="459.19,-159.96 448.62,-159.17 456.39,-166.37 459.19,-159.96"/>
</g>
<!-- Node16&#45;&gt;Node11 -->
<g id="edge24" class="edge">
<title>Node16&#45;&gt;Node11</title>
<path fill="none" stroke="midnightblue" d="M563.83,-206.98C548.18,-197.26 522.16,-180.69 500.75,-165 483.17,-152.12 480.09,-147.21 462.75,-134 446.27,-121.44 427.1,-107.86 412.84,-97.95"/>
<polygon fill="midnightblue" stroke="midnightblue" points="414.46,-94.82 404.25,-92.01 410.48,-100.58 414.46,-94.82"/>
</g>
<!-- Node16&#45;&gt;Node13 -->
<g id="edge25" class="edge">
<title>Node16&#45;&gt;Node13</title>
<path fill="none" stroke="midnightblue" d="M597.67,-206.87C620.08,-197.16 657.12,-181.11 685.95,-168.61"/>
<polygon fill="midnightblue" stroke="midnightblue" points="687.6,-171.72 695.38,-164.53 684.82,-165.29 687.6,-171.72"/>
</g>
<!-- Node17 -->
<g id="node18" class="node">
<title>Node17</title>
<g id="a_node18"><a xlink:href="nice__type__name_8h.html" target="_top" xlink:title=" ">
<polygon fill="white" stroke="black" points="509.75,-134.5 509.75,-164.5 649.75,-164.5 649.75,-134.5 509.75,-134.5"/>
<text text-anchor="start" x="517.75" y="-152.5" font-family="Helvetica,sans-Serif" font-size="10.00">drake/common/nice_type</text>
<text text-anchor="middle" x="579.75" y="-141.5" font-family="Helvetica,sans-Serif" font-size="10.00">_name.h</text>
</a>
</g>
</g>
<!-- Node16&#45;&gt;Node17 -->
<g id="edge26" class="edge">
<title>Node16&#45;&gt;Node17</title>
<path fill="none" stroke="midnightblue" d="M578.02,-206.73C578.28,-198.54 578.67,-185.92 579.01,-174.71"/>
<polygon fill="midnightblue" stroke="midnightblue" points="582.51,-174.69 579.32,-164.59 575.52,-174.48 582.51,-174.69"/>
</g>
<!-- Node17&#45;&gt;Node1 -->
<g id="edge27" class="edge">
<title>Node17&#45;&gt;Node1</title>
<path fill="none" stroke="midnightblue" d="M509.53,-135.35C438.13,-121.97 330.03,-101.72 272.33,-90.91"/>
<polygon fill="midnightblue" stroke="midnightblue" points="272.64,-87.41 262.17,-89.01 271.35,-94.29 272.64,-87.41"/>
</g>
<!-- Node17&#45;&gt;Node3 -->
<g id="edge28" class="edge">
<title>Node17&#45;&gt;Node3</title>
<path fill="none" stroke="midnightblue" d="M649.95,-135.51C653.26,-134.98 656.54,-134.48 659.75,-134 810.3,-111.68 991.26,-93.51 1064.07,-86.55"/>
<polygon fill="midnightblue" stroke="midnightblue" points="1064.78,-90 1074.4,-85.57 1064.12,-83.03 1064.78,-90"/>
</g>
<!-- Node17&#45;&gt;Node10 -->
<g id="edge30" class="edge">
<title>Node17&#45;&gt;Node10</title>
<path fill="none" stroke="midnightblue" d="M519.39,-134.46C498.74,-126.85 477.23,-115.32 462.75,-98 448.01,-80.36 444.23,-53.38 443.5,-35.36"/>
<polygon fill="midnightblue" stroke="midnightblue" points="447,-35.17 443.37,-25.22 440,-35.27 447,-35.17"/>
</g>
<!-- Node17&#45;&gt;Node11 -->
<g id="edge31" class="edge">
<title>Node17&#45;&gt;Node11</title>
<path fill="none" stroke="midnightblue" d="M536.6,-134.48C506.54,-124.58 465.57,-110.86 429.75,-98 427.65,-97.24 425.48,-96.45 423.3,-95.65"/>
<polygon fill="midnightblue" stroke="midnightblue" points="424.4,-92.32 413.8,-92.08 421.94,-98.87 424.4,-92.32"/>
</g>
<!-- Node18 -->
<g id="node19" class="node">
<title>Node18</title>
<g id="a_node19"><a xlink:title=" ">
<polygon fill="white" stroke="#bfbfbf" points="610.25,-73 610.25,-92 667.25,-92 667.25,-73 610.25,-73"/>
<text text-anchor="middle" x="638.75" y="-80" font-family="Helvetica,sans-Serif" font-size="10.00">typeinfo</text>
</a>
</g>
</g>
<!-- Node17&#45;&gt;Node18 -->
<g id="edge29" class="edge">
<title>Node17&#45;&gt;Node18</title>
<path fill="none" stroke="midnightblue" d="M592.56,-134.4C601.85,-124.16 614.43,-110.3 624.12,-99.62"/>
<polygon fill="midnightblue" stroke="midnightblue" points="626.73,-101.95 630.86,-92.19 621.55,-97.25 626.73,-101.95"/>
</g>
<!-- Node19 -->
<g id="node20" class="node">
<title>Node19</title>
<g id="a_node20"><a xlink:href="never__destroyed_8h.html" target="_top" xlink:title=" ">
<polygon fill="white" stroke="black" points="471.75,-67.5 471.75,-97.5 591.75,-97.5 591.75,-67.5 471.75,-67.5"/>
<text text-anchor="start" x="479.75" y="-85.5" font-family="Helvetica,sans-Serif" font-size="10.00">drake/common/never</text>
<text text-anchor="middle" x="531.75" y="-74.5" font-family="Helvetica,sans-Serif" font-size="10.00">_destroyed.h</text>
</a>
</g>
</g>
<!-- Node17&#45;&gt;Node19 -->
<g id="edge32" class="edge">
<title>Node17&#45;&gt;Node19</title>
<path fill="none" stroke="midnightblue" d="M569.34,-134.4C563.18,-126.05 555.23,-115.29 548.23,-105.81"/>
<polygon fill="midnightblue" stroke="midnightblue" points="550.91,-103.54 542.15,-97.58 545.27,-107.7 550.91,-103.54"/>
</g>
<!-- Node19&#45;&gt;Node5 -->
<g id="edge35" class="edge">
<title>Node19&#45;&gt;Node5</title>
<path fill="none" stroke="midnightblue" d="M592.05,-68.81C595.33,-68.19 598.58,-67.58 601.75,-67 688.69,-51.21 789.33,-35.95 854.87,-26.41"/>
<polygon fill="midnightblue" stroke="midnightblue" points="855.68,-29.83 865.08,-24.93 854.68,-22.9 855.68,-29.83"/>
</g>
<!-- Node19&#45;&gt;Node10 -->
<g id="edge34" class="edge">
<title>Node19&#45;&gt;Node10</title>
<path fill="none" stroke="midnightblue" d="M512.66,-67.4C498.18,-56.7 478.32,-42.03 463.65,-31.19"/>
<polygon fill="midnightblue" stroke="midnightblue" points="465.4,-28.13 455.27,-25.01 461.24,-33.76 465.4,-28.13"/>
</g>
<!-- Node20 -->
<g id="node21" class="node">
<title>Node20</title>
<g id="a_node21"><a xlink:title=" ">
<polygon fill="white" stroke="#bfbfbf" points="505.25,-6 505.25,-25 558.25,-25 558.25,-6 505.25,-6"/>
<text text-anchor="middle" x="531.75" y="-13" font-family="Helvetica,sans-Serif" font-size="10.00">cstddef</text>
</a>
</g>
</g>
<!-- Node19&#45;&gt;Node20 -->
<g id="edge33" class="edge">
<title>Node19&#45;&gt;Node20</title>
<path fill="none" stroke="midnightblue" d="M531.75,-67.4C531.75,-58.06 531.75,-45.71 531.75,-35.52"/>
<polygon fill="midnightblue" stroke="midnightblue" points="535.26,-35.19 531.75,-25.19 528.26,-35.19 535.26,-35.19"/>
</g>
<!-- Node21&#45;&gt;Node3 -->
<g id="edge37" class="edge">
<title>Node21&#45;&gt;Node3</title>
<path fill="none" stroke="midnightblue" d="M1000.15,-201.32C1015.3,-192.3 1033.98,-179.59 1047.75,-165 1065.85,-145.83 1080.43,-118.87 1088.85,-101.29"/>
<polygon fill="midnightblue" stroke="midnightblue" points="1092.05,-102.71 1093.07,-92.16 1085.7,-99.77 1092.05,-102.71"/>
</g>
<!-- Node21&#45;&gt;Node5 -->
<g id="edge38" class="edge">
<title>Node21&#45;&gt;Node5</title>
<path fill="none" stroke="midnightblue" d="M989.79,-201.32C999.03,-192.04 1009.77,-179.05 1014.75,-165 1019.36,-152.02 1019.18,-147.05 1014.75,-134 1001.62,-95.25 970.01,-59.25 947.98,-37.57"/>
<polygon fill="midnightblue" stroke="midnightblue" points="950.28,-34.92 940.64,-30.51 945.43,-39.96 950.28,-34.92"/>
</g>
<!-- Node22 -->
<g id="node23" class="node">
<title>Node22</title>
<g id="a_node23"><a xlink:href="name__value_8h.html" target="_top" xlink:title=" ">
<polygon fill="white" stroke="black" points="844.25,-140 844.25,-159 1005.25,-159 1005.25,-140 844.25,-140"/>
<text text-anchor="middle" x="924.75" y="-147" font-family="Helvetica,sans-Serif" font-size="10.00">drake/common/name_value.h</text>
</a>
</g>
</g>
<!-- Node21&#45;&gt;Node22 -->
<g id="edge39" class="edge">
<title>Node21&#45;&gt;Node22</title>
<path fill="none" stroke="midnightblue" d="M963.12,-201.4C955.56,-191.36 945.36,-177.84 937.38,-167.25"/>
<polygon fill="midnightblue" stroke="midnightblue" points="940.12,-165.07 931.31,-159.19 934.53,-169.29 940.12,-165.07"/>
</g>
<!-- Node22&#45;&gt;Node5 -->
<g id="edge41" class="edge">
<title>Node22&#45;&gt;Node5</title>
<path fill="none" stroke="midnightblue" d="M924.75,-139.84C924.75,-120.02 924.75,-70.77 924.75,-40.84"/>
<polygon fill="midnightblue" stroke="midnightblue" points="928.26,-40.78 924.75,-30.78 921.26,-40.78 928.26,-40.78"/>
</g>
<!-- Node22&#45;&gt;Node15 -->
<g id="edge40" class="edge">
<title>Node22&#45;&gt;Node15</title>
<path fill="none" stroke="midnightblue" d="M906.03,-139.87C885.06,-130.2 850.46,-114.25 823.4,-101.78"/>
<polygon fill="midnightblue" stroke="midnightblue" points="824.73,-98.54 814.19,-97.53 821.8,-104.89 824.73,-98.54"/>
</g>
</g>
</svg>
