<?xml version="1.0" encoding="UTF-8" standalone="no"?>
<!DOCTYPE svg PUBLIC "-//W3C//DTD SVG 1.1//EN"
 "http://www.w3.org/Graphics/SVG/1.1/DTD/svg11.dtd">
<!-- Generated by graphviz version 2.43.0 (0)
 -->
<!-- Title: drake/common/drake_path.h Pages: 1 -->
<svg width="264pt" height="106pt"
 viewBox="0.00 0.00 263.50 106.00" xmlns="http://www.w3.org/2000/svg" xmlns:xlink="http://www.w3.org/1999/xlink">
<g id="graph0" class="graph" transform="scale(1 1) rotate(0) translate(4 102)">
<title>drake/common/drake_path.h</title>
<polygon fill="white" stroke="transparent" points="-4,4 -4,-102 259.5,-102 259.5,4 -4,4"/>
<!-- Node0 -->
<g id="node1" class="node">
<title>Node0</title>
<g id="a_node1"><a xlink:title=" ">
<polygon fill="#bfbfbf" stroke="black" points="36.5,-67.5 36.5,-97.5 155.5,-97.5 155.5,-67.5 36.5,-67.5"/>
<text text-anchor="start" x="44.5" y="-85.5" font-family="Helvetica,sans-Serif" font-size="10.00">drake/common/drake</text>
<text text-anchor="middle" x="96" y="-74.5" font-family="Helvetica,sans-Serif" font-size="10.00">_path.h</text>
</a>
</g>
</g>
<!-- Node1 -->
<g id="node2" class="node">
<title>Node1</title>
<g id="a_node2"><a xlink:title=" ">
<polygon fill="white" stroke="#bfbfbf" points="0,-6 0,-25 56,-25 56,-6 0,-6"/>
<text text-anchor="middle" x="28" y="-13" font-family="Helvetica,sans-Serif" font-size="10.00">optional</text>
</a>
</g>
</g>
<!-- Node0&#45;&gt;Node1 -->
<g id="edge1" class="edge">
<title>Node0&#45;&gt;Node1</title>
<path fill="none" stroke="midnightblue" d="M81.25,-67.4C70.43,-57.06 55.75,-43.02 44.54,-32.31"/>
<polygon fill="midnightblue" stroke="midnightblue" points="46.74,-29.57 37.1,-25.19 41.91,-34.63 46.74,-29.57"/>
</g>
<!-- Node2 -->
<g id="node3" class="node">
<title>Node2</title>
<g id="a_node3"><a xlink:title=" ">
<polygon fill="white" stroke="#bfbfbf" points="74,-6 74,-25 118,-25 118,-6 74,-6"/>
<text text-anchor="middle" x="96" y="-13" font-family="Helvetica,sans-Serif" font-size="10.00">string</text>
</a>
</g>
</g>
<!-- Node0&#45;&gt;Node2 -->
<g id="edge2" class="edge">
<title>Node0&#45;&gt;Node2</title>
<path fill="none" stroke="midnightblue" d="M96,-67.4C96,-58.06 96,-45.71 96,-35.52"/>
<polygon fill="midnightblue" stroke="midnightblue" points="99.5,-35.19 96,-25.19 92.5,-35.19 99.5,-35.19"/>
</g>
<!-- Node3 -->
<g id="node4" class="node">
<title>Node3</title>
<g id="a_node4"><a xlink:href="drake__deprecated_8h.html" target="_top" xlink:title="Provides a portable macro for use in generating compile&#45;time warnings for use of code that is permitt...">
<polygon fill="white" stroke="black" points="136.5,-0.5 136.5,-30.5 255.5,-30.5 255.5,-0.5 136.5,-0.5"/>
<text text-anchor="start" x="144.5" y="-18.5" font-family="Helvetica,sans-Serif" font-size="10.00">drake/common/drake</text>
<text text-anchor="middle" x="196" y="-7.5" font-family="Helvetica,sans-Serif" font-size="10.00">_deprecated.h</text>
</a>
</g>
</g>
<!-- Node0&#45;&gt;Node3 -->
<g id="edge3" class="edge">
<title>Node0&#45;&gt;Node3</title>
<path fill="none" stroke="midnightblue" d="M117.7,-67.4C131.72,-58.28 150.17,-46.29 165.64,-36.24"/>
<polygon fill="midnightblue" stroke="midnightblue" points="167.87,-38.96 174.34,-30.58 164.05,-33.09 167.87,-38.96"/>
</g>
</g>
</svg>
