<?xml version="1.0" encoding="UTF-8" standalone="no"?>
<!DOCTYPE svg PUBLIC "-//W3C//DTD SVG 1.1//EN"
 "http://www.w3.org/Graphics/SVG/1.1/DTD/svg11.dtd">
<!-- Generated by graphviz version 2.43.0 (0)
 -->
<!-- Title: drake/common/drake_bool.h Pages: 1 -->
<svg width="426pt" height="162pt"
 viewBox="0.00 0.00 425.79 162.00" xmlns="http://www.w3.org/2000/svg" xmlns:xlink="http://www.w3.org/1999/xlink">
<g id="graph0" class="graph" transform="scale(1 1) rotate(0) translate(4 158)">
<title>drake/common/drake_bool.h</title>
<polygon fill="white" stroke="transparent" points="-4,4 -4,-158 421.79,-158 421.79,4 -4,4"/>
<!-- Node0 -->
<g id="node1" class="node">
<title>Node0</title>
<g id="a_node1"><a xlink:title=" ">
<polygon fill="#bfbfbf" stroke="black" points="46.79,-123.5 46.79,-153.5 165.79,-153.5 165.79,-123.5 46.79,-123.5"/>
<text text-anchor="start" x="54.79" y="-141.5" font-family="Helvetica,sans-Serif" font-size="10.00">drake/common/drake</text>
<text text-anchor="middle" x="106.29" y="-130.5" font-family="Helvetica,sans-Serif" font-size="10.00">_bool.h</text>
</a>
</g>
</g>
<!-- Node1 -->
<g id="node2" class="node">
<title>Node1</title>
<g id="a_node2"><a xlink:title=" ">
<polygon fill="white" stroke="#bfbfbf" points="42.79,-0.5 42.79,-19.5 111.79,-19.5 111.79,-0.5 42.79,-0.5"/>
<text text-anchor="middle" x="77.29" y="-7.5" font-family="Helvetica,sans-Serif" font-size="10.00">type_traits</text>
</a>
</g>
</g>
<!-- Node0&#45;&gt;Node1 -->
<g id="edge1" class="edge">
<title>Node0&#45;&gt;Node1</title>
<path fill="none" stroke="midnightblue" d="M52.83,-123.46C34.51,-115.82 15.96,-104.26 5.29,-87 -1.95,-75.28 -1.39,-68.05 5.29,-56 13.38,-41.41 28.39,-30.92 42.63,-23.76"/>
<polygon fill="midnightblue" stroke="midnightblue" points="44.18,-26.9 51.79,-19.53 41.24,-20.55 44.18,-26.9"/>
</g>
<!-- Node2 -->
<g id="node3" class="node">
<title>Node2</title>
<g id="a_node3"><a xlink:title=" ">
<polygon fill="white" stroke="#bfbfbf" points="14.79,-62 14.79,-81 83.79,-81 83.79,-62 14.79,-62"/>
<text text-anchor="middle" x="49.29" y="-69" font-family="Helvetica,sans-Serif" font-size="10.00">Eigen/Core</text>
</a>
</g>
</g>
<!-- Node0&#45;&gt;Node2 -->
<g id="edge2" class="edge">
<title>Node0&#45;&gt;Node2</title>
<path fill="none" stroke="midnightblue" d="M93.92,-123.4C85.04,-113.26 73.03,-99.57 63.71,-88.94"/>
<polygon fill="midnightblue" stroke="midnightblue" points="66.14,-86.41 56.92,-81.19 60.88,-91.02 66.14,-86.41"/>
</g>
<!-- Node3 -->
<g id="node4" class="node">
<title>Node3</title>
<g id="a_node4"><a xlink:href="double__overloads_8h.html" target="_top" xlink:title="Provides necessary operations on double to have it as a ScalarType in drake.">
<polygon fill="white" stroke="black" points="101.79,-56.5 101.79,-86.5 226.79,-86.5 226.79,-56.5 101.79,-56.5"/>
<text text-anchor="start" x="109.79" y="-74.5" font-family="Helvetica,sans-Serif" font-size="10.00">drake/common/double</text>
<text text-anchor="middle" x="164.29" y="-63.5" font-family="Helvetica,sans-Serif" font-size="10.00">_overloads.h</text>
</a>
</g>
</g>
<!-- Node0&#45;&gt;Node3 -->
<g id="edge3" class="edge">
<title>Node0&#45;&gt;Node3</title>
<path fill="none" stroke="midnightblue" d="M118.88,-123.4C126.48,-114.88 136.32,-103.85 144.9,-94.23"/>
<polygon fill="midnightblue" stroke="midnightblue" points="147.68,-96.37 151.73,-86.58 142.46,-91.71 147.68,-96.37"/>
</g>
<!-- Node4 -->
<g id="node5" class="node">
<title>Node4</title>
<g id="a_node5"><a xlink:href="drake__assert_8h.html" target="_top" xlink:title="Provides Drake&#39;s assertion mechanics.">
<polygon fill="white" stroke="black" points="244.79,-56.5 244.79,-86.5 363.79,-86.5 363.79,-56.5 244.79,-56.5"/>
<text text-anchor="start" x="252.79" y="-74.5" font-family="Helvetica,sans-Serif" font-size="10.00">drake/common/drake</text>
<text text-anchor="middle" x="304.29" y="-63.5" font-family="Helvetica,sans-Serif" font-size="10.00">_assert.h</text>
</a>
</g>
</g>
<!-- Node0&#45;&gt;Node4 -->
<g id="edge4" class="edge">
<title>Node0&#45;&gt;Node4</title>
<path fill="none" stroke="midnightblue" d="M149.25,-123.4C179.35,-113.52 219.75,-100.25 251.77,-89.74"/>
<polygon fill="midnightblue" stroke="midnightblue" points="253,-93.02 261.41,-86.58 250.82,-86.37 253,-93.02"/>
</g>
<!-- Node4&#45;&gt;Node1 -->
<g id="edge8" class="edge">
<title>Node4&#45;&gt;Node1</title>
<path fill="none" stroke="midnightblue" d="M250.78,-56.47C210.77,-45.99 156.79,-31.84 119.72,-22.12"/>
<polygon fill="midnightblue" stroke="midnightblue" points="120.31,-18.66 109.74,-19.51 118.53,-25.43 120.31,-18.66"/>
</g>
<!-- Node5 -->
<g id="node6" class="node">
<title>Node5</title>
<g id="a_node6"><a xlink:title=" ">
<polygon fill="white" stroke="#bfbfbf" points="191.29,-0.5 191.29,-19.5 233.29,-19.5 233.29,-0.5 191.29,-0.5"/>
<text text-anchor="middle" x="212.29" y="-7.5" font-family="Helvetica,sans-Serif" font-size="10.00">array</text>
</a>
</g>
</g>
<!-- Node4&#45;&gt;Node5 -->
<g id="edge5" class="edge">
<title>Node4&#45;&gt;Node5</title>
<path fill="none" stroke="midnightblue" d="M282.49,-56.4C267.88,-46.95 248.72,-34.56 234.11,-25.11"/>
<polygon fill="midnightblue" stroke="midnightblue" points="235.98,-22.15 225.68,-19.66 232.17,-28.03 235.98,-22.15"/>
</g>
<!-- Node6 -->
<g id="node7" class="node">
<title>Node6</title>
<g id="a_node7"><a xlink:title=" ">
<polygon fill="white" stroke="#bfbfbf" points="251.29,-0.5 251.29,-19.5 295.29,-19.5 295.29,-0.5 251.29,-0.5"/>
<text text-anchor="middle" x="273.29" y="-7.5" font-family="Helvetica,sans-Serif" font-size="10.00">string</text>
</a>
</g>
</g>
<!-- Node4&#45;&gt;Node6 -->
<g id="edge6" class="edge">
<title>Node4&#45;&gt;Node6</title>
<path fill="none" stroke="midnightblue" d="M296.94,-56.4C292.63,-48.11 287.13,-37.55 282.52,-28.71"/>
<polygon fill="midnightblue" stroke="midnightblue" points="285.53,-26.91 277.8,-19.66 279.32,-30.14 285.53,-26.91"/>
</g>
<!-- Node7 -->
<g id="node8" class="node">
<title>Node7</title>
<g id="a_node8"><a xlink:title=" ">
<polygon fill="white" stroke="#bfbfbf" points="313.79,-0.5 313.79,-19.5 354.79,-19.5 354.79,-0.5 313.79,-0.5"/>
<text text-anchor="middle" x="334.29" y="-7.5" font-family="Helvetica,sans-Serif" font-size="10.00">tuple</text>
</a>
</g>
</g>
<!-- Node4&#45;&gt;Node7 -->
<g id="edge7" class="edge">
<title>Node4&#45;&gt;Node7</title>
<path fill="none" stroke="midnightblue" d="M311.4,-56.4C315.58,-48.11 320.9,-37.55 325.36,-28.71"/>
<polygon fill="midnightblue" stroke="midnightblue" points="328.55,-30.16 329.93,-19.66 322.3,-27.01 328.55,-30.16"/>
</g>
<!-- Node8 -->
<g id="node9" class="node">
<title>Node8</title>
<g id="a_node9"><a xlink:title=" ">
<polygon fill="white" stroke="#bfbfbf" points="372.79,-0.5 372.79,-19.5 417.79,-19.5 417.79,-0.5 372.79,-0.5"/>
<text text-anchor="middle" x="395.29" y="-7.5" font-family="Helvetica,sans-Serif" font-size="10.00">utility</text>
</a>
</g>
</g>
<!-- Node4&#45;&gt;Node8 -->
<g id="edge9" class="edge">
<title>Node4&#45;&gt;Node8</title>
<path fill="none" stroke="midnightblue" d="M325.86,-56.4C340.17,-47.04 358.9,-34.79 373.3,-25.38"/>
<polygon fill="midnightblue" stroke="midnightblue" points="375.6,-28.06 382.05,-19.66 371.77,-22.2 375.6,-28.06"/>
</g>
</g>
</svg>
