<?xml version="1.0" encoding="UTF-8" standalone="no"?>
<!DOCTYPE svg PUBLIC "-//W3C//DTD SVG 1.1//EN"
 "http://www.w3.org/Graphics/SVG/1.1/DTD/svg11.dtd">
<!-- Generated by graphviz version 2.43.0 (0)
 -->
<!-- Title: drake/lcm/drake_lcm_log.h Pages: 1 -->
<!--zoomable 363 -->
<svg id="main" version="1.1" xmlns="http://www.w3.org/2000/svg" xmlns:xlink="http://www.w3.org/1999/xlink" xml:space="preserve" onload="init(evt)">
<style type="text/css"><![CDATA[
.edge:hover path { stroke: red; }
.edge:hover polygon { stroke: red; fill: red; }
]]></style>
<script type="text/javascript"><![CDATA[
var edges = document.getElementsByTagName('g');
if (edges && edges.length) {
  for (var i=0;i<edges.length;i++) {
    if (edges[i].id.substr(0,4)=='edge') {
      edges[i].setAttribute('class','edge');
    }
  }
}
]]></script>
        <defs>
                <circle id="rim" cx="0" cy="0" r="7"/>
                <circle id="rim2" cx="0" cy="0" r="3.5"/>
                <g id="zoomPlus">
                        <use xlink:href="#rim" fill="#404040">
                                <set attributeName="fill" to="#808080" begin="zoomplus.mouseover" end="zoomplus.mouseout"/>
                        </use>
                        <path d="M-4,0h8M0,-4v8" fill="none" stroke="white" stroke-width="1.5" pointer-events="none"/>
                </g>
                <g id="zoomMin">
                        <use xlink:href="#rim" fill="#404040">
                                <set attributeName="fill" to="#808080" begin="zoomminus.mouseover" end="zoomminus.mouseout"/>
                        </use>
                        <path d="M-4,0h8" fill="none" stroke="white" stroke-width="1.5" pointer-events="none"/>
                </g>
                <g id="dirArrow">
                        <path fill="none" stroke="white" stroke-width="1.5" d="M0,-3.0v7 M-2.5,-0.5L0,-3.0L2.5,-0.5"/>
                </g>
               <g id="resetDef">
                       <use xlink:href="#rim2" fill="#404040">
                               <set attributeName="fill" to="#808080" begin="reset.mouseover" end="reset.mouseout"/>
                       </use>
               </g>
        </defs>

<script type="text/javascript">
var viewWidth = 934;
var viewHeight = 363;
var sectionId = 'dynsection-0';
</script>
<script xlink:href="svgpan.js"/>
<svg id="graph" class="graph">
<g id="viewport">
<title>drake/lcm/drake_lcm_log.h</title>
<polygon fill="white" stroke="transparent" points="-4,4 -4,-359 929.54,-359 929.54,4 -4,4"/>
<!-- Node0 -->
<g id="node1" class="node">
<title>Node0</title>
<g id="a_node1"><a xlink:title=" ">
<polygon fill="#bfbfbf" stroke="black" points="342.54,-324.5 342.54,-354.5 460.54,-354.5 460.54,-324.5 342.54,-324.5"/>
<text text-anchor="start" x="350.54" y="-342.5" font-family="Helvetica,sans-Serif" font-size="10.00">drake/lcm/drake_lcm</text>
<text text-anchor="middle" x="401.54" y="-331.5" font-family="Helvetica,sans-Serif" font-size="10.00">_log.h</text>
</a>
</g>
</g>
<!-- Node1 -->
<g id="node2" class="node">
<title>Node1</title>
<g id="a_node2"><a xlink:title=" ">
<polygon fill="white" stroke="#bfbfbf" points="34.54,-73 34.54,-92 92.54,-92 92.54,-73 34.54,-73"/>
<text text-anchor="middle" x="63.54" y="-80" font-family="Helvetica,sans-Serif" font-size="10.00">memory</text>
</a>
</g>
</g>
<!-- Node0&#45;&gt;Node1 -->
<g id="edge1" class="edge">
<title>Node0&#45;&gt;Node1</title>
<path fill="none" stroke="midnightblue" d="M342.41,-334.7C257.99,-328.44 107.89,-314 60.54,-288 19.81,-265.63 -8.48,-246.15 2.54,-201 11.99,-162.32 36.59,-122.18 51.5,-100.27"/>
<polygon fill="midnightblue" stroke="midnightblue" points="54.38,-102.26 57.23,-92.05 48.64,-98.25 54.38,-102.26"/>
</g>
<!-- Node2 -->
<g id="node3" class="node">
<title>Node2</title>
<g id="a_node3"><a xlink:title=" ">
<polygon fill="white" stroke="#bfbfbf" points="877.54,-263 877.54,-282 925.54,-282 925.54,-263 877.54,-263"/>
<text text-anchor="middle" x="901.54" y="-270" font-family="Helvetica,sans-Serif" font-size="10.00">mutex</text>
</a>
</g>
</g>
<!-- Node0&#45;&gt;Node2 -->
<g id="edge2" class="edge">
<title>Node0&#45;&gt;Node2</title>
<path fill="none" stroke="midnightblue" d="M460.71,-336.85C549.41,-333.31 721.57,-322.25 863.54,-288 866.54,-287.28 869.61,-286.38 872.65,-285.39"/>
<polygon fill="midnightblue" stroke="midnightblue" points="873.89,-288.67 882.12,-282 871.53,-282.08 873.89,-288.67"/>
</g>
<!-- Node3 -->
<g id="node4" class="node">
<title>Node3</title>
<g id="a_node4"><a xlink:title=" ">
<polygon fill="white" stroke="#bfbfbf" points="22.54,-201.5 22.54,-220.5 78.54,-220.5 78.54,-201.5 22.54,-201.5"/>
<text text-anchor="middle" x="50.54" y="-208.5" font-family="Helvetica,sans-Serif" font-size="10.00">optional</text>
</a>
</g>
</g>
<!-- Node0&#45;&gt;Node3 -->
<g id="edge3" class="edge">
<title>Node0&#45;&gt;Node3</title>
<path fill="none" stroke="midnightblue" d="M362.64,-324.48C293.34,-299.5 149.69,-247.73 84.29,-224.16"/>
<polygon fill="midnightblue" stroke="midnightblue" points="85.09,-220.73 74.49,-220.63 82.71,-227.31 85.09,-220.73"/>
</g>
<!-- Node4 -->
<g id="node5" class="node">
<title>Node4</title>
<g id="a_node5"><a xlink:title=" ">
<polygon fill="white" stroke="#bfbfbf" points="110.54,-73 110.54,-92 154.54,-92 154.54,-73 110.54,-73"/>
<text text-anchor="middle" x="132.54" y="-80" font-family="Helvetica,sans-Serif" font-size="10.00">string</text>
</a>
</g>
</g>
<!-- Node0&#45;&gt;Node4 -->
<g id="edge4" class="edge">
<title>Node0&#45;&gt;Node4</title>
<path fill="none" stroke="midnightblue" d="M342.2,-329.7C243,-313.58 50.66,-275.88 13.54,-221 -19.89,-171.56 60.96,-120.15 105.53,-96.65"/>
<polygon fill="midnightblue" stroke="midnightblue" points="107.14,-99.75 114.43,-92.07 103.94,-93.53 107.14,-99.75"/>
</g>
<!-- Node5 -->
<g id="node6" class="node">
<title>Node5</title>
<g id="a_node6"><a xlink:title=" ">
<polygon fill="white" stroke="#bfbfbf" points="748.04,-201.5 748.04,-220.5 821.04,-220.5 821.04,-201.5 748.04,-201.5"/>
<text text-anchor="middle" x="784.54" y="-208.5" font-family="Helvetica,sans-Serif" font-size="10.00">string_view</text>
</a>
</g>
</g>
<!-- Node0&#45;&gt;Node5 -->
<g id="edge5" class="edge">
<title>Node0&#45;&gt;Node5</title>
<path fill="none" stroke="midnightblue" d="M444,-324.48C519.92,-299.4 677.65,-247.31 748.6,-223.87"/>
<polygon fill="midnightblue" stroke="midnightblue" points="750.02,-227.09 758.41,-220.63 747.82,-220.44 750.02,-227.09"/>
</g>
<!-- Node6 -->
<g id="node7" class="node">
<title>Node6</title>
<g id="a_node7"><a xlink:href="drake__copyable_8h.html" target="_top" xlink:title="Provides careful macros to selectively enable or disable the special member functions for copy&#45;constr...">
<polygon fill="white" stroke="black" points="726.04,-0.5 726.04,-30.5 845.04,-30.5 845.04,-0.5 726.04,-0.5"/>
<text text-anchor="start" x="734.04" y="-18.5" font-family="Helvetica,sans-Serif" font-size="10.00">drake/common/drake</text>
<text text-anchor="middle" x="785.54" y="-7.5" font-family="Helvetica,sans-Serif" font-size="10.00">_copyable.h</text>
</a>
</g>
</g>
<!-- Node0&#45;&gt;Node6 -->
<g id="edge6" class="edge">
<title>Node0&#45;&gt;Node6</title>
<path fill="none" stroke="midnightblue" d="M460.57,-334.24C582.22,-323.85 849.54,-291.91 849.54,-212 849.54,-212 849.54,-212 849.54,-148.5 849.54,-106.58 823.09,-64 804.2,-38.94"/>
<polygon fill="midnightblue" stroke="midnightblue" points="806.79,-36.57 797.88,-30.83 801.27,-40.87 806.79,-36.57"/>
</g>
<!-- Node7 -->
<g id="node8" class="node">
<title>Node7</title>
<g id="a_node8"><a xlink:href="drake__lcm__interface_8h.html" target="_top" xlink:title=" ">
<polygon fill="white" stroke="black" points="342.54,-257.5 342.54,-287.5 460.54,-287.5 460.54,-257.5 342.54,-257.5"/>
<text text-anchor="start" x="350.54" y="-275.5" font-family="Helvetica,sans-Serif" font-size="10.00">drake/lcm/drake_lcm</text>
<text text-anchor="middle" x="401.54" y="-264.5" font-family="Helvetica,sans-Serif" font-size="10.00">_interface.h</text>
</a>
</g>
</g>
<!-- Node0&#45;&gt;Node7 -->
<g id="edge7" class="edge">
<title>Node0&#45;&gt;Node7</title>
<path fill="none" stroke="midnightblue" d="M401.54,-324.4C401.54,-316.64 401.54,-306.81 401.54,-297.86"/>
<polygon fill="midnightblue" stroke="midnightblue" points="405.04,-297.58 401.54,-287.58 398.04,-297.58 405.04,-297.58"/>
</g>
<!-- Node7&#45;&gt;Node1 -->
<g id="edge10" class="edge">
<title>Node7&#45;&gt;Node1</title>
<path fill="none" stroke="midnightblue" d="M342.43,-265.02C278.33,-257.07 181.08,-242.01 150.54,-221 107.22,-191.2 80.9,-132.04 69.77,-101.97"/>
<polygon fill="midnightblue" stroke="midnightblue" points="72.99,-100.58 66.35,-92.32 66.39,-102.91 72.99,-100.58"/>
</g>
<!-- Node7&#45;&gt;Node3 -->
<g id="edge11" class="edge">
<title>Node7&#45;&gt;Node3</title>
<path fill="none" stroke="midnightblue" d="M342.44,-262.72C280.14,-253.27 179.21,-237.36 92.54,-221 91.31,-220.77 90.05,-220.52 88.78,-220.28"/>
<polygon fill="midnightblue" stroke="midnightblue" points="89.47,-216.84 78.97,-218.29 88.08,-223.71 89.47,-216.84"/>
</g>
<!-- Node7&#45;&gt;Node4 -->
<g id="edge13" class="edge">
<title>Node7&#45;&gt;Node4</title>
<path fill="none" stroke="midnightblue" d="M342.39,-265.72C281.78,-258.6 193.05,-244.48 168.54,-221 135.67,-189.5 131.48,-131.98 131.71,-102.31"/>
<polygon fill="midnightblue" stroke="midnightblue" points="135.21,-102.18 131.97,-92.09 128.21,-102 135.21,-102.18"/>
</g>
<!-- Node7&#45;&gt;Node5 -->
<g id="edge14" class="edge">
<title>Node7&#45;&gt;Node5</title>
<path fill="none" stroke="midnightblue" d="M460.68,-262.94C527.13,-253.21 638.19,-236.66 733.54,-221 734.99,-220.76 736.45,-220.52 737.93,-220.27"/>
<polygon fill="midnightblue" stroke="midnightblue" points="738.52,-223.72 747.79,-218.59 737.35,-216.82 738.52,-223.72"/>
</g>
<!-- Node7&#45;&gt;Node6 -->
<g id="edge18" class="edge">
<title>Node7&#45;&gt;Node6</title>
<path fill="none" stroke="midnightblue" d="M460.61,-267.72C518.42,-262.45 608.11,-250 680.54,-221 722.54,-204.19 741.47,-203.3 765.54,-165 789.56,-126.78 790.21,-72.14 788.13,-40.9"/>
<polygon fill="midnightblue" stroke="midnightblue" points="791.62,-40.58 787.32,-30.89 784.64,-41.14 791.62,-40.58"/>
</g>
<!-- Node8 -->
<g id="node9" class="node">
<title>Node8</title>
<g id="a_node9"><a xlink:title=" ">
<polygon fill="white" stroke="#bfbfbf" points="251.54,-140 251.54,-159 301.54,-159 301.54,-140 251.54,-140"/>
<text text-anchor="middle" x="276.54" y="-147" font-family="Helvetica,sans-Serif" font-size="10.00">cstdint</text>
</a>
</g>
</g>
<!-- Node7&#45;&gt;Node8 -->
<g id="edge8" class="edge">
<title>Node7&#45;&gt;Node8</title>
<path fill="none" stroke="midnightblue" d="M400.91,-257.48C399.51,-242.01 395.14,-217.16 381.54,-201 376.25,-194.71 335.31,-176.03 306.15,-163.24"/>
<polygon fill="midnightblue" stroke="midnightblue" points="307.35,-159.95 296.78,-159.16 304.55,-166.36 307.35,-159.95"/>
</g>
<!-- Node9 -->
<g id="node10" class="node">
<title>Node9</title>
<g id="a_node10"><a xlink:title=" ">
<polygon fill="white" stroke="#bfbfbf" points="211.04,-201.5 211.04,-220.5 276.04,-220.5 276.04,-201.5 211.04,-201.5"/>
<text text-anchor="middle" x="243.54" y="-208.5" font-family="Helvetica,sans-Serif" font-size="10.00">functional</text>
</a>
</g>
</g>
<!-- Node7&#45;&gt;Node9 -->
<g id="edge9" class="edge">
<title>Node7&#45;&gt;Node9</title>
<path fill="none" stroke="midnightblue" d="M364.1,-257.4C337.35,-247.33 301.72,-233.91 276.15,-224.28"/>
<polygon fill="midnightblue" stroke="midnightblue" points="277.13,-220.91 266.53,-220.66 274.66,-227.46 277.13,-220.91"/>
</g>
<!-- Node10 -->
<g id="node11" class="node">
<title>Node10</title>
<g id="a_node11"><a xlink:title=" ">
<polygon fill="white" stroke="#bfbfbf" points="516.04,-140 516.04,-159 581.04,-159 581.04,-140 516.04,-140"/>
<text text-anchor="middle" x="548.54" y="-147" font-family="Helvetica,sans-Serif" font-size="10.00">stdexcept</text>
</a>
</g>
</g>
<!-- Node7&#45;&gt;Node10 -->
<g id="edge12" class="edge">
<title>Node7&#45;&gt;Node10</title>
<path fill="none" stroke="midnightblue" d="M460.73,-263.23C508.85,-255.14 571.19,-241.11 586.54,-221 599.84,-203.59 582.38,-180.91 566.98,-166.04"/>
<polygon fill="midnightblue" stroke="midnightblue" points="569.05,-163.18 559.29,-159.04 564.34,-168.36 569.05,-163.18"/>
</g>
<!-- Node11 -->
<g id="node12" class="node">
<title>Node11</title>
<g id="a_node12"><a xlink:title=" ">
<polygon fill="white" stroke="#bfbfbf" points="345.04,-6 345.04,-25 390.04,-25 390.04,-6 345.04,-6"/>
<text text-anchor="middle" x="367.54" y="-13" font-family="Helvetica,sans-Serif" font-size="10.00">utility</text>
</a>
</g>
</g>
<!-- Node7&#45;&gt;Node11 -->
<g id="edge15" class="edge">
<title>Node7&#45;&gt;Node11</title>
<path fill="none" stroke="midnightblue" d="M342.45,-264.6C289.9,-257.1 218.79,-243.14 201.54,-221 165.44,-174.64 97.58,-242.2 272.54,-67 290.24,-49.28 315.45,-36.27 335.46,-27.9"/>
<polygon fill="midnightblue" stroke="midnightblue" points="336.82,-31.12 344.81,-24.16 334.22,-24.62 336.82,-31.12"/>
</g>
<!-- Node12 -->
<g id="node13" class="node">
<title>Node12</title>
<g id="a_node13"><a xlink:title=" ">
<polygon fill="white" stroke="#bfbfbf" points="534.04,-73 534.04,-92 581.04,-92 581.04,-73 534.04,-73"/>
<text text-anchor="middle" x="557.54" y="-80" font-family="Helvetica,sans-Serif" font-size="10.00">vector</text>
</a>
</g>
</g>
<!-- Node7&#45;&gt;Node12 -->
<g id="edge16" class="edge">
<title>Node7&#45;&gt;Node12</title>
<path fill="none" stroke="midnightblue" d="M460.72,-264.75C513.83,-257.34 586.05,-243.4 603.54,-221 632.48,-183.94 594.7,-127.76 572.16,-100.09"/>
<polygon fill="midnightblue" stroke="midnightblue" points="574.6,-97.56 565.48,-92.17 569.25,-102.07 574.6,-97.56"/>
</g>
<!-- Node13 -->
<g id="node14" class="node">
<title>Node13</title>
<g id="a_node14"><a xlink:title=" ">
<polygon fill="white" stroke="#bfbfbf" points="294.04,-201.5 294.04,-220.5 373.04,-220.5 373.04,-201.5 294.04,-201.5"/>
<text text-anchor="middle" x="333.54" y="-208.5" font-family="Helvetica,sans-Serif" font-size="10.00">fmt/format.h</text>
</a>
</g>
</g>
<!-- Node7&#45;&gt;Node13 -->
<g id="edge17" class="edge">
<title>Node7&#45;&gt;Node13</title>
<path fill="none" stroke="midnightblue" d="M385.43,-257.4C375.14,-248.4 361.8,-236.72 351.22,-227.47"/>
<polygon fill="midnightblue" stroke="midnightblue" points="353.27,-224.61 343.44,-220.66 348.66,-229.88 353.27,-224.61"/>
</g>
<!-- Node14 -->
<g id="node15" class="node">
<title>Node14</title>
<g id="a_node15"><a xlink:href="drake__throw_8h.html" target="_top" xlink:title="Provides a convenient wrapper to throw an exception when a condition is unmet.">
<polygon fill="white" stroke="black" points="638.04,-134.5 638.04,-164.5 757.04,-164.5 757.04,-134.5 638.04,-134.5"/>
<text text-anchor="start" x="646.04" y="-152.5" font-family="Helvetica,sans-Serif" font-size="10.00">drake/common/drake</text>
<text text-anchor="middle" x="697.54" y="-141.5" font-family="Helvetica,sans-Serif" font-size="10.00">_throw.h</text>
</a>
</g>
</g>
<!-- Node7&#45;&gt;Node14 -->
<g id="edge19" class="edge">
<title>Node7&#45;&gt;Node14</title>
<path fill="none" stroke="midnightblue" d="M460.56,-265.59C526.07,-258.05 626.68,-243.26 657.54,-221 673.37,-209.59 683.78,-189.86 690.01,-174.17"/>
<polygon fill="midnightblue" stroke="midnightblue" points="693.37,-175.17 693.51,-164.57 686.8,-172.77 693.37,-175.17"/>
</g>
<!-- Node17 -->
<g id="node18" class="node">
<title>Node17</title>
<g id="a_node18"><a xlink:href="lcm__messages_8h.html" target="_top" xlink:title=" ">
<polygon fill="white" stroke="black" points="429.04,-201.5 429.04,-220.5 578.04,-220.5 578.04,-201.5 429.04,-201.5"/>
<text text-anchor="middle" x="503.54" y="-208.5" font-family="Helvetica,sans-Serif" font-size="10.00">drake/lcm/lcm_messages.h</text>
</a>
</g>
</g>
<!-- Node7&#45;&gt;Node17 -->
<g id="edge23" class="edge">
<title>Node7&#45;&gt;Node17</title>
<path fill="none" stroke="midnightblue" d="M425.72,-257.4C442.07,-247.86 463.56,-235.32 479.81,-225.84"/>
<polygon fill="midnightblue" stroke="midnightblue" points="481.83,-228.72 488.7,-220.66 478.3,-222.67 481.83,-228.72"/>
</g>
<!-- Node15 -->
<g id="node16" class="node">
<title>Node15</title>
<g id="a_node16"><a xlink:title=" ">
<polygon fill="white" stroke="#bfbfbf" points="575.04,-6 575.04,-25 644.04,-25 644.04,-6 575.04,-6"/>
<text text-anchor="middle" x="609.54" y="-13" font-family="Helvetica,sans-Serif" font-size="10.00">type_traits</text>
</a>
</g>
</g>
<!-- Node14&#45;&gt;Node15 -->
<g id="edge20" class="edge">
<title>Node14&#45;&gt;Node15</title>
<path fill="none" stroke="midnightblue" d="M669.52,-134.32C655.2,-125.68 638.69,-113.36 628.54,-98 615.99,-79.01 611.69,-52.74 610.24,-35.21"/>
<polygon fill="midnightblue" stroke="midnightblue" points="613.72,-34.89 609.64,-25.12 606.74,-35.31 613.72,-34.89"/>
</g>
<!-- Node16 -->
<g id="node17" class="node">
<title>Node16</title>
<g id="a_node17"><a xlink:href="drake__assert_8h.html" target="_top" xlink:title="Provides Drake&#39;s assertion implementation.">
<polygon fill="white" stroke="black" points="638.04,-67.5 638.04,-97.5 757.04,-97.5 757.04,-67.5 638.04,-67.5"/>
<text text-anchor="start" x="646.04" y="-85.5" font-family="Helvetica,sans-Serif" font-size="10.00">drake/common/drake</text>
<text text-anchor="middle" x="697.54" y="-74.5" font-family="Helvetica,sans-Serif" font-size="10.00">_assert.h</text>
</a>
</g>
</g>
<!-- Node14&#45;&gt;Node16 -->
<g id="edge21" class="edge">
<title>Node14&#45;&gt;Node16</title>
<path fill="none" stroke="midnightblue" d="M697.54,-134.4C697.54,-126.64 697.54,-116.81 697.54,-107.86"/>
<polygon fill="midnightblue" stroke="midnightblue" points="701.04,-107.58 697.54,-97.58 694.04,-107.58 701.04,-107.58"/>
</g>
<!-- Node16&#45;&gt;Node15 -->
<g id="edge22" class="edge">
<title>Node16&#45;&gt;Node15</title>
<path fill="none" stroke="midnightblue" d="M678.45,-67.4C663.97,-56.7 644.11,-42.03 629.44,-31.19"/>
<polygon fill="midnightblue" stroke="midnightblue" points="631.18,-28.13 621.06,-25.01 627.03,-33.76 631.18,-28.13"/>
</g>
<!-- Node17&#45;&gt;Node8 -->
<g id="edge24" class="edge">
<title>Node17&#45;&gt;Node8</title>
<path fill="none" stroke="midnightblue" d="M456.91,-201.5C417.43,-193.73 359.6,-181.04 310.54,-165 308.62,-164.37 306.66,-163.68 304.69,-162.95"/>
<polygon fill="midnightblue" stroke="midnightblue" points="305.61,-159.54 295.03,-159.07 303.01,-166.04 305.61,-159.54"/>
</g>
<!-- Node17&#45;&gt;Node10 -->
<g id="edge25" class="edge">
<title>Node17&#45;&gt;Node10</title>
<path fill="none" stroke="midnightblue" d="M509.99,-201.48C516.74,-192.55 527.51,-178.31 535.96,-167.14"/>
<polygon fill="midnightblue" stroke="midnightblue" points="538.87,-169.1 542.11,-159.01 533.29,-164.87 538.87,-169.1"/>
</g>
<!-- Node17&#45;&gt;Node12 -->
<g id="edge26" class="edge">
<title>Node17&#45;&gt;Node12</title>
<path fill="none" stroke="midnightblue" d="M501.87,-201.1C499.55,-186.41 496.64,-156.48 506.54,-134 512.87,-119.64 525.31,-107.19 536.32,-98.25"/>
<polygon fill="midnightblue" stroke="midnightblue" points="538.52,-100.97 544.33,-92.11 534.26,-95.41 538.52,-100.97"/>
</g>
<!-- Node17&#45;&gt;Node14 -->
<g id="edge27" class="edge">
<title>Node17&#45;&gt;Node14</title>
<path fill="none" stroke="midnightblue" d="M531.34,-201.48C560.07,-192.66 605.7,-178.67 641.89,-167.57"/>
<polygon fill="midnightblue" stroke="midnightblue" points="643.29,-170.8 651.82,-164.52 641.24,-164.11 643.29,-170.8"/>
</g>
<!-- Node18 -->
<g id="node19" class="node">
<title>Node18</title>
<g id="a_node19"><a xlink:href="nice__type__name_8h.html" target="_top" xlink:title=" ">
<polygon fill="white" stroke="black" points="319.54,-134.5 319.54,-164.5 459.54,-164.5 459.54,-134.5 319.54,-134.5"/>
<text text-anchor="start" x="327.54" y="-152.5" font-family="Helvetica,sans-Serif" font-size="10.00">drake/common/nice_type</text>
<text text-anchor="middle" x="389.54" y="-141.5" font-family="Helvetica,sans-Serif" font-size="10.00">_name.h</text>
</a>
</g>
</g>
<!-- Node17&#45;&gt;Node18 -->
<g id="edge28" class="edge">
<title>Node17&#45;&gt;Node18</title>
<path fill="none" stroke="midnightblue" d="M487.21,-201.48C471.12,-193.08 446.01,-179.97 425.28,-169.15"/>
<polygon fill="midnightblue" stroke="midnightblue" points="426.9,-166.05 416.41,-164.52 423.66,-172.25 426.9,-166.05"/>
</g>
<!-- Node18&#45;&gt;Node1 -->
<g id="edge29" class="edge">
<title>Node18&#45;&gt;Node1</title>
<path fill="none" stroke="midnightblue" d="M319.34,-135.57C316.37,-135.04 313.43,-134.51 310.54,-134 217.74,-117.49 192.45,-122.92 101.54,-98 98.89,-97.27 96.16,-96.43 93.45,-95.53"/>
<polygon fill="midnightblue" stroke="midnightblue" points="94.41,-92.15 83.81,-92.07 92.04,-98.74 94.41,-92.15"/>
</g>
<!-- Node18&#45;&gt;Node4 -->
<g id="edge30" class="edge">
<title>Node18&#45;&gt;Node4</title>
<path fill="none" stroke="midnightblue" d="M334.1,-134.48C282.29,-121.37 206.77,-102.27 164.42,-91.56"/>
<polygon fill="midnightblue" stroke="midnightblue" points="165.2,-88.15 154.65,-89.09 163.48,-94.93 165.2,-88.15"/>
</g>
<!-- Node18&#45;&gt;Node11 -->
<g id="edge32" class="edge">
<title>Node18&#45;&gt;Node11</title>
<path fill="none" stroke="midnightblue" d="M387.19,-134.37C383.19,-110.4 375.09,-61.75 370.64,-35.06"/>
<polygon fill="midnightblue" stroke="midnightblue" points="374.07,-34.39 368.98,-25.1 367.17,-35.54 374.07,-34.39"/>
</g>
<!-- Node18&#45;&gt;Node12 -->
<g id="edge33" class="edge">
<title>Node18&#45;&gt;Node12</title>
<path fill="none" stroke="midnightblue" d="M428.76,-134.49C455.82,-124.66 492.55,-111 524.54,-98 525.96,-97.43 527.4,-96.83 528.86,-96.22"/>
<polygon fill="midnightblue" stroke="midnightblue" points="530.61,-99.27 538.43,-92.12 527.86,-92.84 530.61,-99.27"/>
</g>
<!-- Node19 -->
<g id="node20" class="node">
<title>Node19</title>
<g id="a_node20"><a xlink:title=" ">
<polygon fill="white" stroke="#bfbfbf" points="282.04,-73 282.04,-92 339.04,-92 339.04,-73 282.04,-73"/>
<text text-anchor="middle" x="310.54" y="-80" font-family="Helvetica,sans-Serif" font-size="10.00">typeinfo</text>
</a>
</g>
</g>
<!-- Node18&#45;&gt;Node19 -->
<g id="edge31" class="edge">
<title>Node18&#45;&gt;Node19</title>
<path fill="none" stroke="midnightblue" d="M372.4,-134.4C359.6,-123.86 342.12,-109.48 329,-98.69"/>
<polygon fill="midnightblue" stroke="midnightblue" points="331.06,-95.85 321.11,-92.19 326.61,-101.25 331.06,-95.85"/>
</g>
<!-- Node20 -->
<g id="node21" class="node">
<title>Node20</title>
<g id="a_node21"><a xlink:href="never__destroyed_8h.html" target="_top" xlink:title=" ">
<polygon fill="white" stroke="black" points="395.54,-67.5 395.54,-97.5 515.54,-97.5 515.54,-67.5 395.54,-67.5"/>
<text text-anchor="start" x="403.54" y="-85.5" font-family="Helvetica,sans-Serif" font-size="10.00">drake/common/never</text>
<text text-anchor="middle" x="455.54" y="-74.5" font-family="Helvetica,sans-Serif" font-size="10.00">_destroyed.h</text>
</a>
</g>
</g>
<!-- Node18&#45;&gt;Node20 -->
<g id="edge34" class="edge">
<title>Node18&#45;&gt;Node20</title>
<path fill="none" stroke="midnightblue" d="M403.87,-134.4C412.69,-125.71 424.16,-114.4 434.06,-104.66"/>
<polygon fill="midnightblue" stroke="midnightblue" points="436.58,-107.09 441.25,-97.58 431.67,-102.1 436.58,-107.09"/>
</g>
<!-- Node20&#45;&gt;Node6 -->
<g id="edge38" class="edge">
<title>Node20&#45;&gt;Node6</title>
<path fill="none" stroke="midnightblue" d="M515.74,-68.79C518.72,-68.18 521.66,-67.58 524.54,-67 589.36,-53.92 663.37,-39.66 715.99,-29.64"/>
<polygon fill="midnightblue" stroke="midnightblue" points="716.72,-33.07 725.89,-27.76 715.41,-26.19 716.72,-33.07"/>
</g>
<!-- Node20&#45;&gt;Node11 -->
<g id="edge37" class="edge">
<title>Node20&#45;&gt;Node11</title>
<path fill="none" stroke="midnightblue" d="M436.45,-67.4C421.97,-56.7 402.11,-42.03 387.44,-31.19"/>
<polygon fill="midnightblue" stroke="midnightblue" points="389.18,-28.13 379.06,-25.01 385.03,-33.76 389.18,-28.13"/>
</g>
<!-- Node20&#45;&gt;Node15 -->
<g id="edge36" class="edge">
<title>Node20&#45;&gt;Node15</title>
<path fill="none" stroke="midnightblue" d="M488.96,-67.4C516.1,-55.94 554.01,-39.94 580.04,-28.95"/>
<polygon fill="midnightblue" stroke="midnightblue" points="581.54,-32.12 589.39,-25.01 578.82,-25.67 581.54,-32.12"/>
</g>
<!-- Node21 -->
<g id="node22" class="node">
<title>Node21</title>
<g id="a_node22"><a xlink:title=" ">
<polygon fill="white" stroke="#bfbfbf" points="437.04,-6 437.04,-25 474.04,-25 474.04,-6 437.04,-6"/>
<text text-anchor="middle" x="455.54" y="-13" font-family="Helvetica,sans-Serif" font-size="10.00">new</text>
</a>
</g>
</g>
<!-- Node20&#45;&gt;Node21 -->
<g id="edge35" class="edge">
<title>Node20&#45;&gt;Node21</title>
<path fill="none" stroke="midnightblue" d="M455.54,-67.4C455.54,-58.06 455.54,-45.71 455.54,-35.52"/>
<polygon fill="midnightblue" stroke="midnightblue" points="459.04,-35.19 455.54,-25.19 452.04,-35.19 459.04,-35.19"/>
</g>
</g>
</svg>
        <g id="navigator" transform="translate(0 0)" fill="#404254">
                <rect fill="#f2f5e9" fill-opacity="0.5" stroke="#606060" stroke-width=".5" x="0" y="0" width="60" height="60"/>
                <use id="zoomplus" xlink:href="#zoomPlus" x="17" y="9" onmousedown="handleZoom(evt,'in')"/>
                <use id="zoomminus" xlink:href="#zoomMin" x="42" y="9" onmousedown="handleZoom(evt,'out')"/>
                <use id="reset" xlink:href="#resetDef" x="30" y="36" onmousedown="handleReset()"/>
                <g id="arrowUp" xlink:href="#dirArrow" transform="translate(30 24)" onmousedown="handlePan(0,-1)">
                  <use xlink:href="#rim" fill="#404040">
                        <set attributeName="fill" to="#808080" begin="arrowUp.mouseover" end="arrowUp.mouseout"/>
                  </use>
                  <path fill="none" stroke="white" stroke-width="1.5" d="M0,-3.0v7 M-2.5,-0.5L0,-3.0L2.5,-0.5"/>
                </g>
                <g id="arrowRight" xlink:href="#dirArrow" transform="rotate(90) translate(36 -43)" onmousedown="handlePan(1,0)">
                  <use xlink:href="#rim" fill="#404040">
                        <set attributeName="fill" to="#808080" begin="arrowRight.mouseover" end="arrowRight.mouseout"/>
                  </use>
                  <path fill="none" stroke="white" stroke-width="1.5" d="M0,-3.0v7 M-2.5,-0.5L0,-3.0L2.5,-0.5"/>
                </g>
                <g id="arrowDown" xlink:href="#dirArrow" transform="rotate(180) translate(-30 -48)" onmousedown="handlePan(0,1)">
                  <use xlink:href="#rim" fill="#404040">
                        <set attributeName="fill" to="#808080" begin="arrowDown.mouseover" end="arrowDown.mouseout"/>
                  </use>
                  <path fill="none" stroke="white" stroke-width="1.5" d="M0,-3.0v7 M-2.5,-0.5L0,-3.0L2.5,-0.5"/>
                </g>
                <g id="arrowLeft" xlink:href="#dirArrow" transform="rotate(270) translate(-36 17)" onmousedown="handlePan(-1,0)">
                  <use xlink:href="#rim" fill="#404040">
                        <set attributeName="fill" to="#808080" begin="arrowLeft.mouseover" end="arrowLeft.mouseout"/>
                  </use>
                  <path fill="none" stroke="white" stroke-width="1.5" d="M0,-3.0v7 M-2.5,-0.5L0,-3.0L2.5,-0.5"/>
                </g>
        </g>
        <svg viewBox="0 0 15 15" width="100%" height="30px" preserveAspectRatio="xMaxYMin meet">
         <g id="arrow_out" transform="scale(0.3 0.3)">
          <a xlink:href="drake__lcm__log_8h__incl_org.svg" target="_base">
           <rect id="button" ry="5" rx="5" y="6" x="6" height="38" width="38"
                fill="#f2f5e9" fill-opacity="0.5" stroke="#606060" stroke-width="1.0"/>
           <path id="arrow"
             d="M 11.500037,31.436501 C 11.940474,20.09759 22.043105,11.32322 32.158766,21.979434 L 37.068811,17.246167 C 37.068811,17.246167 37.088388,32 37.088388,32 L 22.160133,31.978069 C 22.160133,31.978069 26.997745,27.140456 26.997745,27.140456 C 18.528582,18.264221 13.291696,25.230495 11.500037,31.436501 z"
             style="fill:#404040;"/>
          </a>
         </g>
        </svg>
</svg>
