<?xml version="1.0" encoding="UTF-8" standalone="no"?>
<!DOCTYPE svg PUBLIC "-//W3C//DTD SVG 1.1//EN"
 "http://www.w3.org/Graphics/SVG/1.1/DTD/svg11.dtd">
<!-- Generated by graphviz version 2.43.0 (0)
 -->
<!-- Title: drake/multibody/contact_solvers/icf/eigen_pool.h Pages: 1 -->
<!--zoomable 333 -->

<svg id="main" version="1.1" xmlns="http://www.w3.org/2000/svg" xmlns:xlink="http://www.w3.org/1999/xlink" xml:space="preserve" onload="init(evt)">

<style type="text/css"><![CDATA[
.node, .edge {opacity: 0.7;}
.node.selected, .edge.selected {opacity: 1;}
.edge:hover path { stroke: red; }
.edge:hover polygon { stroke: red; fill: red; }
]]></style>

<defs>
  <circle id="rim" cx="0" cy="0" r="7"/>
  <circle id="rim2" cx="0" cy="0" r="3.5"/>
  <g id="zoomPlus">
    <use xlink:href="#rim" fill="#404040"><set attributeName="fill" to="#808080" begin="zoomplus.mouseover" end="zoomplus.mouseout"/></use>
    <path d="M-4,0h8M0,-4v8" fill="none" stroke="white" stroke-width="1.5" pointer-events="none"/>
  </g>
  <g id="zoomMin">
    <use xlink:href="#rim" fill="#404040"><set attributeName="fill" to="#808080" begin="zoomminus.mouseover" end="zoomminus.mouseout"/></use>
    <path d="M-4,0h8" fill="none" stroke="white" stroke-width="1.5" pointer-events="none"/>
  </g>
  <g id="arrowUp" transform="translate(30 24)">
    <use xlink:href="#rim"/>
    <path pointer-events="none" fill="none" stroke="white" stroke-width="1.5" d="M0,-3.0v7 M-2.5,-0.5L0,-3.0L2.5,-0.5"/>
  </g>
  <g id="arrowRight" transform="rotate(90) translate(36 -43)">
    <use xlink:href="#rim"/>
    <path pointer-events="none" fill="none" stroke="white" stroke-width="1.5" d="M0,-3.0v7 M-2.5,-0.5L0,-3.0L2.5,-0.5"/>
  </g>
  <g id="arrowDown" transform="rotate(180) translate(-30 -48)">
    <use xlink:href="#rim"/>
    <path pointer-events="none" fill="none" stroke="white" stroke-width="1.5" d="M0,-3.0v7 M-2.5,-0.5L0,-3.0L2.5,-0.5"/>
  </g>
  <g id="arrowLeft" transform="rotate(270) translate(-36 17)">
    <use xlink:href="#rim"/>
    <path pointer-events="none" fill="none" stroke="white" stroke-width="1.5" d="M0,-3.0v7 M-2.5,-0.5L0,-3.0L2.5,-0.5"/>
  </g>
  <g id="resetDef">
    <use xlink:href="#rim2" fill="#404040"><set attributeName="fill" to="#808080" begin="reset.mouseover" end="reset.mouseout"/></use>
  </g>
</defs>
<script type="application/ecmascript">
var viewWidth = 1193;
var viewHeight = 333;
var sectionId = 'dynsection-0';
</script>
<script type="application/ecmascript" xlink:href="svg.min.js"/>
<svg id="graph" class="graph">
<g id="viewport">
<title>drake/multibody/contact_solvers/icf/eigen_pool.h</title>
<!-- Node1 -->
<g id="Node000001" class="node">
<title>Node1</title>
<g id="a_Node000001"><a xlink:title=" ">
<ellipse fill="#999999" stroke="#666666" cx="175.28" cy="-303.81" rx="96.75" ry="21.43"/>
<text text-anchor="start" x="114.78" y="-306.81" font-family="Helvetica,sans-Serif" font-size="10.00">drake/multibody/contact</text>
<text text-anchor="middle" x="175.28" y="-295.81" font-family="Helvetica,sans-Serif" font-size="10.00">_solvers/icf/eigen_pool.h</text>
</a>
</g>
</g>
<!-- Node2 -->
<g id="Node000002" class="node">
<title>Node2</title>
<g id="a_Node000002"><a xlink:title=" ">
<ellipse fill="#e0e0e0" stroke="#999999" cx="28.28" cy="-225.38" rx="28.07" ry="13.37"/>
<text text-anchor="middle" x="28.28" y="-222.88" font-family="Helvetica,sans-Serif" font-size="10.00">span</text>
</a>
</g>
</g>
<!-- Node1&#45;&gt;Node2 -->
<g id="edge1_Node000001_Node000002" class="edge">
<title>Node1&#45;&gt;Node2</title>
<g id="a_edge1_Node000001_Node000002"><a xlink:title=" ">
<path fill="none" stroke="#63b8ff" d="M138.95,-283.91C113.09,-270.47 78.91,-252.7 55.42,-240.49"/>
<polygon fill="#63b8ff" stroke="#63b8ff" points="56.85,-237.29 46.36,-235.78 53.62,-243.5 56.85,-237.29"/>
</a>
</g>
</g>
<!-- Node3 -->
<g id="Node000003" class="node">
<title>Node3</title>
<g id="a_Node000003"><a xlink:title=" ">
<ellipse fill="#e0e0e0" stroke="#999999" cx="200.28" cy="-13.44" rx="48.58" ry="13.37"/>
<text text-anchor="middle" x="200.28" y="-10.94" font-family="Helvetica,sans-Serif" font-size="10.00">type_traits</text>
</a>
</g>
</g>
<!-- Node1&#45;&gt;Node3 -->
<g id="edge2_Node000001_Node000003" class="edge">
<title>Node1&#45;&gt;Node3</title>
<g id="a_edge2_Node000001_Node000003"><a xlink:title=" ">
<path fill="none" stroke="#63b8ff" d="M139.2,-284.11C125.3,-274.85 110.93,-262.27 103.28,-246.59 67.48,-173.21 60.34,-132.32 103.28,-62.87 114.55,-44.66 134.96,-33.06 154.16,-25.81"/>
<polygon fill="#63b8ff" stroke="#63b8ff" points="155.44,-29.07 163.74,-22.49 153.15,-22.45 155.44,-29.07"/>
</a>
</g>
</g>
<!-- Node4 -->
<g id="Node000004" class="node">
<title>Node4</title>
<g id="a_Node000004"><a xlink:title=" ">
<ellipse fill="#e0e0e0" stroke="#999999" cx="145.28" cy="-225.38" rx="33.47" ry="13.37"/>
<text text-anchor="middle" x="145.28" y="-222.88" font-family="Helvetica,sans-Serif" font-size="10.00">vector</text>
</a>
</g>
</g>
<!-- Node1&#45;&gt;Node4 -->
<g id="edge3_Node000001_Node000004" class="edge">
<title>Node1&#45;&gt;Node4</title>
<g id="a_edge3_Node000001_Node000004"><a xlink:title=" ">
<path fill="none" stroke="#63b8ff" d="M167.24,-282.33C163.14,-271.87 158.14,-259.14 153.95,-248.47"/>
<polygon fill="#63b8ff" stroke="#63b8ff" points="157.15,-247.03 150.24,-239.01 150.64,-249.59 157.15,-247.03"/>
</a>
</g>
</g>
<!-- Node5 -->
<g id="Node000005" class="node">
<title>Node5</title>
<g id="a_Node000005"><a xlink:href="drake__assert_8h.html" target="_top" xlink:title="Provides Drake&#39;s assertion mechanics.">
<ellipse fill="white" stroke="#666666" cx="196.28" cy="-146.95" rx="84.29" ry="21.43"/>
<text text-anchor="start" x="144.78" y="-149.95" font-family="Helvetica,sans-Serif" font-size="10.00">drake/common/drake</text>
<text text-anchor="middle" x="196.28" y="-138.95" font-family="Helvetica,sans-Serif" font-size="10.00">_assert.h</text>
</a>
</g>
</g>
<!-- Node1&#45;&gt;Node5 -->
<g id="edge4_Node000001_Node000005" class="edge">
<title>Node1&#45;&gt;Node5</title>
<g id="a_edge4_Node000001_Node000005"><a xlink:title=" ">
<path fill="none" stroke="#63b8ff" d="M180.2,-282.62C182.65,-271.96 185.46,-258.63 187.28,-246.59 190.72,-223.93 193.02,-198.12 194.43,-178.59"/>
<polygon fill="#63b8ff" stroke="#63b8ff" points="197.94,-178.66 195.13,-168.44 190.95,-178.18 197.94,-178.66"/>
</a>
</g>
</g>
<!-- Node10 -->
<g id="Node000010" class="node">
<title>Node10</title>
<g id="a_Node000010"><a xlink:href="drake__copyable_8h.html" target="_top" xlink:title="Provides careful macros to selectively enable or disable the special member functions for copy&#45;constr...">
<ellipse fill="white" stroke="#666666" cx="382.28" cy="-146.95" rx="84.29" ry="21.43"/>
<text text-anchor="start" x="330.78" y="-149.95" font-family="Helvetica,sans-Serif" font-size="10.00">drake/common/drake</text>
<text text-anchor="middle" x="382.28" y="-138.95" font-family="Helvetica,sans-Serif" font-size="10.00">_copyable.h</text>
</a>
</g>
</g>
<!-- Node1&#45;&gt;Node10 -->
<g id="edge10_Node000001_Node000010" class="edge">
<title>Node1&#45;&gt;Node10</title>
<g id="a_edge10_Node000001_Node000010"><a xlink:title=" ">
<path fill="none" stroke="#63b8ff" d="M201.5,-283.19C238.85,-255.25 307.41,-203.97 348.52,-173.21"/>
<polygon fill="#63b8ff" stroke="#63b8ff" points="350.69,-175.96 356.6,-167.16 346.5,-170.35 350.69,-175.96"/>
</a>
</g>
</g>
<!-- Node11 -->
<g id="Node000011" class="node">
<title>Node11</title>
<g id="a_Node000011"><a xlink:href="eigen__types_8h.html" target="_top" xlink:title="This file contains abbreviated definitions for certain specializations of Eigen::Matrix that are comm...">
<ellipse fill="white" stroke="#666666" cx="577.28" cy="-225.38" rx="84.29" ry="21.43"/>
<text text-anchor="start" x="525.78" y="-228.38" font-family="Helvetica,sans-Serif" font-size="10.00">drake/common/eigen</text>
<text text-anchor="middle" x="577.28" y="-217.38" font-family="Helvetica,sans-Serif" font-size="10.00">_types.h</text>
</a>
</g>
</g>
<!-- Node1&#45;&gt;Node11 -->
<g id="edge11_Node000001_Node000011" class="edge">
<title>Node1&#45;&gt;Node11</title>
<g id="a_edge11_Node000001_Node000011"><a xlink:title=" ">
<path fill="none" stroke="#63b8ff" d="M246.23,-289.32C318.02,-275.67 428.61,-254.64 501.94,-240.7"/>
<polygon fill="#63b8ff" stroke="#63b8ff" points="502.87,-244.09 512.04,-238.78 501.56,-237.21 502.87,-244.09"/>
</a>
</g>
</g>
<!-- Node5&#45;&gt;Node3 -->
<g id="edge8_Node000005_Node000003" class="edge">
<title>Node5&#45;&gt;Node3</title>
<g id="a_edge8_Node000005_Node000003"><a xlink:title=" ">
<path fill="none" stroke="#63b8ff" d="M196.9,-125.69C197.63,-101.82 198.83,-62.27 199.59,-37.31"/>
<polygon fill="#63b8ff" stroke="#63b8ff" points="203.1,-37.09 199.9,-26.99 196.1,-36.88 203.1,-37.09"/>
</a>
</g>
</g>
<!-- Node6 -->
<g id="Node000006" class="node">
<title>Node6</title>
<g id="a_Node000006"><a xlink:title=" ">
<ellipse fill="#e0e0e0" stroke="#999999" cx="142.28" cy="-76.31" rx="29.9" ry="13.37"/>
<text text-anchor="middle" x="142.28" y="-73.81" font-family="Helvetica,sans-Serif" font-size="10.00">array</text>
</a>
</g>
</g>
<!-- Node5&#45;&gt;Node6 -->
<g id="edge5_Node000005_Node000006" class="edge">
<title>Node5&#45;&gt;Node6</title>
<g id="a_edge5_Node000005_Node000006"><a xlink:title=" ">
<path fill="none" stroke="#63b8ff" d="M180.67,-126.1C173.58,-117.09 165.22,-106.47 158.12,-97.43"/>
<polygon fill="#63b8ff" stroke="#63b8ff" points="160.7,-95.06 151.77,-89.36 155.2,-99.39 160.7,-95.06"/>
</a>
</g>
</g>
<!-- Node7 -->
<g id="Node000007" class="node">
<title>Node7</title>
<g id="a_Node000007"><a xlink:title=" ">
<ellipse fill="#e0e0e0" stroke="#999999" cx="806.28" cy="-13.44" rx="31.23" ry="13.37"/>
<text text-anchor="middle" x="806.28" y="-10.94" font-family="Helvetica,sans-Serif" font-size="10.00">string</text>
</a>
</g>
</g>
<!-- Node5&#45;&gt;Node7 -->
<g id="edge6_Node000005_Node000007" class="edge">
<title>Node5&#45;&gt;Node7</title>
<g id="a_edge6_Node000005_Node000007"><a xlink:title=" ">
<path fill="none" stroke="#63b8ff" d="M205.06,-125.59C214.74,-105.86 232.34,-76.92 257.28,-62.87 344.01,-14.04 652.34,-12.59 764.83,-13.76"/>
<polygon fill="#63b8ff" stroke="#63b8ff" points="765.05,-17.26 775.09,-13.88 765.13,-10.26 765.05,-17.26"/>
</a>
</g>
</g>
<!-- Node8 -->
<g id="Node000008" class="node">
<title>Node8</title>
<g id="a_Node000008"><a xlink:title=" ">
<ellipse fill="#e0e0e0" stroke="#999999" cx="295.28" cy="-76.31" rx="28.98" ry="13.37"/>
<text text-anchor="middle" x="295.28" y="-73.81" font-family="Helvetica,sans-Serif" font-size="10.00">tuple</text>
</a>
</g>
</g>
<!-- Node5&#45;&gt;Node8 -->
<g id="edge7_Node000005_Node000008" class="edge">
<title>Node5&#45;&gt;Node8</title>
<g id="a_edge7_Node000005_Node000008"><a xlink:title=" ">
<path fill="none" stroke="#63b8ff" d="M223.86,-126.83C238.93,-116.38 257.39,-103.58 271.77,-93.61"/>
<polygon fill="#63b8ff" stroke="#63b8ff" points="273.91,-96.39 280.13,-87.81 269.92,-90.64 273.91,-96.39"/>
</a>
</g>
</g>
<!-- Node9 -->
<g id="Node000009" class="node">
<title>Node9</title>
<g id="a_Node000009"><a xlink:title=" ">
<ellipse fill="#e0e0e0" stroke="#999999" cx="578.28" cy="-76.31" rx="31.64" ry="13.37"/>
<text text-anchor="middle" x="578.28" y="-73.81" font-family="Helvetica,sans-Serif" font-size="10.00">utility</text>
</a>
</g>
</g>
<!-- Node5&#45;&gt;Node9 -->
<g id="edge9_Node000005_Node000009" class="edge">
<title>Node5&#45;&gt;Node9</title>
<g id="a_edge9_Node000005_Node000009"><a xlink:title=" ">
<path fill="none" stroke="#63b8ff" d="M257.23,-132.27C267.9,-130 278.9,-127.74 289.28,-125.74 378.22,-108.63 483.22,-91.9 538.94,-83.29"/>
<polygon fill="#63b8ff" stroke="#63b8ff" points="539.73,-86.71 549.08,-81.73 538.66,-79.79 539.73,-86.71"/>
</a>
</g>
</g>
<!-- Node11&#45;&gt;Node5 -->
<g id="edge16_Node000011_Node000005" class="edge">
<title>Node11&#45;&gt;Node5</title>
<g id="a_edge16_Node000011_Node000005"><a xlink:title=" ">
<path fill="none" stroke="#63b8ff" d="M511.72,-211.99C453.3,-200.86 365.5,-183.88 289.28,-168.17 282.28,-166.72 274.98,-165.19 267.69,-163.63"/>
<polygon fill="#63b8ff" stroke="#63b8ff" points="268.29,-160.18 257.78,-161.51 266.82,-167.03 268.29,-160.18"/>
</a>
</g>
</g>
<!-- Node11&#45;&gt;Node9 -->
<g id="edge13_Node000011_Node000009" class="edge">
<title>Node11&#45;&gt;Node9</title>
<g id="a_edge13_Node000011_Node000009"><a xlink:title=" ">
<path fill="none" stroke="#63b8ff" d="M661.15,-222.83C752.83,-219.14 891.16,-207.09 924.28,-168.17 936.51,-153.81 936.66,-139.97 924.28,-125.74 904.51,-103.01 707.04,-86.39 619.59,-80.08"/>
<polygon fill="#63b8ff" stroke="#63b8ff" points="619.71,-76.58 609.49,-79.37 619.22,-83.57 619.71,-76.58"/>
</a>
</g>
</g>
<!-- Node11&#45;&gt;Node10 -->
<g id="edge17_Node000011_Node000010" class="edge">
<title>Node11&#45;&gt;Node10</title>
<g id="a_edge17_Node000011_Node000010"><a xlink:title=" ">
<path fill="none" stroke="#63b8ff" d="M533.52,-207.23C504.65,-195.91 466.62,-181.01 435.92,-168.98"/>
<polygon fill="#63b8ff" stroke="#63b8ff" points="436.82,-165.57 426.24,-165.18 434.27,-172.09 436.82,-165.57"/>
</a>
</g>
</g>
<!-- Node12 -->
<g id="Node000012" class="node">
<title>Node12</title>
<g id="a_Node000012"><a xlink:title=" ">
<ellipse fill="#e0e0e0" stroke="#999999" cx="522.28" cy="-146.95" rx="37.45" ry="13.37"/>
<text text-anchor="middle" x="522.28" y="-144.45" font-family="Helvetica,sans-Serif" font-size="10.00">iterator</text>
</a>
</g>
</g>
<!-- Node11&#45;&gt;Node12 -->
<g id="edge12_Node000011_Node000012" class="edge">
<title>Node11&#45;&gt;Node12</title>
<g id="a_edge12_Node000011_Node000012"><a xlink:title=" ">
<path fill="none" stroke="#63b8ff" d="M562.83,-204.3C554.9,-193.27 545.07,-179.62 537.08,-168.52"/>
<polygon fill="#63b8ff" stroke="#63b8ff" points="539.82,-166.33 531.14,-160.26 534.14,-170.42 539.82,-166.33"/>
</a>
</g>
</g>
<!-- Node13 -->
<g id="Node000013" class="node">
<title>Node13</title>
<g id="a_Node000013"><a xlink:title=" ">
<ellipse fill="#e0e0e0" stroke="#999999" cx="632.28" cy="-146.95" rx="54.39" ry="13.37"/>
<text text-anchor="middle" x="632.28" y="-144.45" font-family="Helvetica,sans-Serif" font-size="10.00">Eigen/Dense</text>
</a>
</g>
</g>
<!-- Node11&#45;&gt;Node13 -->
<g id="edge14_Node000011_Node000013" class="edge">
<title>Node11&#45;&gt;Node13</title>
<g id="a_edge14_Node000011_Node000013"><a xlink:title=" ">
<path fill="none" stroke="#63b8ff" d="M591.73,-204.3C599.67,-193.27 609.49,-179.62 617.48,-168.52"/>
<polygon fill="#63b8ff" stroke="#63b8ff" points="620.43,-170.42 623.43,-160.26 614.75,-166.33 620.43,-170.42"/>
</a>
</g>
</g>
<!-- Node14 -->
<g id="Node000014" class="node">
<title>Node14</title>
<g id="a_Node000014"><a xlink:href="constants_8h.html" target="_top" xlink:title=" ">
<ellipse fill="white" stroke="#666666" cx="810.28" cy="-146.95" rx="105.22" ry="13.37"/>
<text text-anchor="middle" x="810.28" y="-144.45" font-family="Helvetica,sans-Serif" font-size="10.00">drake/common/constants.h</text>
</a>
</g>
</g>
<!-- Node11&#45;&gt;Node14 -->
<g id="edge15_Node000011_Node000014" class="edge">
<title>Node11&#45;&gt;Node14</title>
<g id="a_edge15_Node000011_Node000014"><a xlink:title=" ">
<path fill="none" stroke="#63b8ff" d="M626.7,-208.17C667.58,-194.76 725.19,-175.87 764.92,-162.83"/>
<polygon fill="#63b8ff" stroke="#63b8ff" points="766.2,-166.1 774.61,-159.65 764.02,-159.45 766.2,-166.1"/>
</a>
</g>
</g>
<!-- Node15 -->
<g id="Node000015" class="node">
<title>Node15</title>
<g id="a_Node000015"><a xlink:href="fmt__eigen_8h.html" target="_top" xlink:title=" ">
<ellipse fill="white" stroke="#666666" cx="1078.28" cy="-146.95" rx="106.55" ry="13.37"/>
<text text-anchor="middle" x="1078.28" y="-144.45" font-family="Helvetica,sans-Serif" font-size="10.00">drake/common/fmt_eigen.h</text>
</a>
</g>
</g>
<!-- Node11&#45;&gt;Node15 -->
<g id="edge18_Node000011_Node000015" class="edge">
<title>Node11&#45;&gt;Node15</title>
<g id="a_edge18_Node000011_Node000015"><a xlink:title=" ">
<path fill="none" stroke="#63b8ff" d="M649.13,-214.16C725.59,-203.19 850.07,-185.05 957.28,-168.17 973.84,-165.56 991.64,-162.65 1008.37,-159.86"/>
<polygon fill="#63b8ff" stroke="#63b8ff" points="1009.34,-163.25 1018.62,-158.15 1008.18,-156.34 1009.34,-163.25"/>
</a>
</g>
</g>
<!-- Node15&#45;&gt;Node7 -->
<g id="edge19_Node000015_Node000007" class="edge">
<title>Node15&#45;&gt;Node7</title>
<g id="a_edge19_Node000015_Node000007"><a xlink:title=" ">
<path fill="none" stroke="#63b8ff" d="M1017.38,-135.86C947.01,-123.66 839.06,-103.13 825.28,-89.74 811.32,-76.17 807.07,-53.96 806.01,-37.16"/>
<polygon fill="#63b8ff" stroke="#63b8ff" points="809.5,-36.95 805.71,-27.06 802.51,-37.16 809.5,-36.95"/>
</a>
</g>
</g>
<!-- Node16 -->
<g id="Node000016" class="node">
<title>Node16</title>
<g id="a_Node000016"><a xlink:title=" ">
<ellipse fill="#e0e0e0" stroke="#999999" cx="1039.28" cy="-13.44" rx="51.74" ry="13.37"/>
<text text-anchor="middle" x="1039.28" y="-10.94" font-family="Helvetica,sans-Serif" font-size="10.00">string_view</text>
</a>
</g>
</g>
<!-- Node15&#45;&gt;Node16 -->
<g id="edge20_Node000015_Node000016" class="edge">
<title>Node15&#45;&gt;Node16</title>
<g id="a_edge20_Node000015_Node000016"><a xlink:title=" ">
<path fill="none" stroke="#63b8ff" d="M1073.33,-133.12C1069.05,-121.8 1062.85,-104.81 1058.28,-89.74 1052.96,-72.19 1047.93,-52.04 1044.39,-37"/>
<polygon fill="#63b8ff" stroke="#63b8ff" points="1047.75,-36.01 1042.08,-27.06 1040.93,-37.59 1047.75,-36.01"/>
</a>
</g>
</g>
<!-- Node17 -->
<g id="Node000017" class="node">
<title>Node17</title>
<g id="a_Node000017"><a xlink:title=" ">
<ellipse fill="#e0e0e0" stroke="#999999" cx="1116.28" cy="-76.31" rx="48.58" ry="13.37"/>
<text text-anchor="middle" x="1116.28" y="-73.81" font-family="Helvetica,sans-Serif" font-size="10.00">Eigen/Core</text>
</a>
</g>
</g>
<!-- Node15&#45;&gt;Node17 -->
<g id="edge21_Node000015_Node000017" class="edge">
<title>Node15&#45;&gt;Node17</title>
<g id="a_edge21_Node000015_Node000017"><a xlink:title=" ">
<path fill="none" stroke="#63b8ff" d="M1085.25,-133.36C1090.61,-123.69 1098.13,-110.09 1104.43,-98.72"/>
<polygon fill="#63b8ff" stroke="#63b8ff" points="1107.58,-100.26 1109.36,-89.82 1101.45,-96.87 1107.58,-100.26"/>
</a>
</g>
</g>
<!-- Node18 -->
<g id="Node000018" class="node">
<title>Node18</title>
<g id="a_Node000018"><a xlink:href="fmt_8h.html" target="_top" xlink:title=" ">
<ellipse fill="white" stroke="#666666" cx="918.28" cy="-76.31" rx="84.29" ry="13.37"/>
<text text-anchor="middle" x="918.28" y="-73.81" font-family="Helvetica,sans-Serif" font-size="10.00">drake/common/fmt.h</text>
</a>
</g>
</g>
<!-- Node15&#45;&gt;Node18 -->
<g id="edge22_Node000015_Node000018" class="edge">
<title>Node15&#45;&gt;Node18</title>
<g id="a_edge22_Node000015_Node000018"><a xlink:title=" ">
<path fill="none" stroke="#63b8ff" d="M1050.05,-133.84C1023.61,-122.5 983.96,-105.48 955.06,-93.08"/>
<polygon fill="#63b8ff" stroke="#63b8ff" points="956.27,-89.8 945.7,-89.07 953.51,-96.23 956.27,-89.8"/>
</a>
</g>
</g>
<!-- Node18&#45;&gt;Node3 -->
<g id="edge25_Node000018_Node000003" class="edge">
<title>Node18&#45;&gt;Node3</title>
<g id="a_edge25_Node000018_Node000003"><a xlink:title=" ">
<path fill="none" stroke="#63b8ff" d="M846.48,-69.22C703.32,-57.08 385.06,-30.1 256.13,-19.17"/>
<polygon fill="#63b8ff" stroke="#63b8ff" points="256.34,-15.68 246.08,-18.32 255.75,-22.65 256.34,-15.68"/>
</a>
</g>
</g>
<!-- Node18&#45;&gt;Node7 -->
<g id="edge23_Node000018_Node000007" class="edge">
<title>Node18&#45;&gt;Node7</title>
<g id="a_edge23_Node000018_Node000007"><a xlink:title=" ">
<path fill="none" stroke="#63b8ff" d="M896.16,-63.28C878.19,-53.51 852.76,-39.7 833.54,-29.25"/>
<polygon fill="#63b8ff" stroke="#63b8ff" points="835.12,-26.12 824.66,-24.42 831.78,-32.27 835.12,-26.12"/>
</a>
</g>
</g>
<!-- Node18&#45;&gt;Node16 -->
<g id="edge24_Node000018_Node000016" class="edge">
<title>Node18&#45;&gt;Node16</title>
<g id="a_edge24_Node000018_Node000016"><a xlink:title=" ">
<path fill="none" stroke="#63b8ff" d="M942.19,-63.28C961.06,-53.78 987.55,-40.46 1008.09,-30.13"/>
<polygon fill="#63b8ff" stroke="#63b8ff" points="1009.7,-33.24 1017.06,-25.62 1006.55,-26.98 1009.7,-33.24"/>
</a>
</g>
</g>
<!-- Node19 -->
<g id="Node000019" class="node">
<title>Node19</title>
<g id="a_Node000019"><a xlink:title=" ">
<ellipse fill="#e0e0e0" stroke="#999999" cx="914.28" cy="-13.44" rx="55.72" ry="13.37"/>
<text text-anchor="middle" x="914.28" y="-10.94" font-family="Helvetica,sans-Serif" font-size="10.00">fmt/format.h</text>
</a>
</g>
</g>
<!-- Node18&#45;&gt;Node19 -->
<g id="edge26_Node000018_Node000019" class="edge">
<title>Node18&#45;&gt;Node19</title>
<g id="a_edge26_Node000018_Node000019"><a xlink:title=" ">
<path fill="none" stroke="#63b8ff" d="M917.46,-62.69C916.97,-55.35 916.35,-45.86 915.78,-37.25"/>
<polygon fill="#63b8ff" stroke="#63b8ff" points="919.26,-36.78 915.11,-27.03 912.28,-37.24 919.26,-36.78"/>
</a>
</g>
</g>
</g>
</svg>

<g id="navigator" transform="translate(0 0)" fill="#404254">
  <rect fill="#f2f5e9" fill-opacity="0.5" stroke="#606060" stroke-width=".5" x="0" y="0" width="60" height="60"/>
  <use id="zoomplus" xlink:href="#zoomPlus" x="17" y="9" onmousedown="handleZoom(evt,'in')"/>
  <use id="zoomminus" xlink:href="#zoomMin" x="42" y="9" onmousedown="handleZoom(evt,'out')"/>
  <use id="reset" xlink:href="#resetDef" x="30" y="36" onmousedown="handleReset()"/>
   <use id="arrowup" xlink:href="#arrowUp" x="0" y="0" onmousedown="handlePan(0,-1)"/>
  <use id="arrowright" xlink:href="#arrowRight" x="0" y="0" onmousedown="handlePan(1,0)"/>
  <use id="arrowdown" xlink:href="#arrowDown" x="0" y="0" onmousedown="handlePan(0,1)"/>
  <use id="arrowleft" xlink:href="#arrowLeft" x="0" y="0" onmousedown="handlePan(-1,0)"/>
</g>
<svg viewBox="0 0 15 15" width="100%" height="30px" preserveAspectRatio="xMaxYMin meet">
 <g id="arrow_out" transform="scale(0.3 0.3)">
  <a xlink:href="eigen__pool_8h__incl_org.svg" target="_base">
   <rect id="button" ry="5" rx="5" y="6" x="6" height="38" width="38"
        fill="#f2f5e9" fill-opacity="0.5" stroke="#606060" stroke-width="1.0"/>
   <path id="arrow"
     d="M 11.500037,31.436501 C 11.940474,20.09759 22.043105,11.32322 32.158766,21.979434 L 37.068811,17.246167 C 37.068811,17.246167 37.088388,32 37.088388,32 L 22.160133,31.978069 C 22.160133,31.978069 26.997745,27.140456 26.997745,27.140456 C 18.528582,18.264221 13.291696,25.230495 11.500037,31.436501 z"
     style="fill:#404040;"/>
  </a>
 </g>
</svg>

<style type='text/css'>
<![CDATA[
[data-mouse-over-selected='false'] { opacity: 0.7; }
[data-mouse-over-selected='true']  { opacity: 1.0; }
]]>
</style>
<script type="application/ecmascript"><![CDATA[
document.addEventListener('DOMContentLoaded', (event) => {
  highlightEdges();
  highlightAdjacentNodes();
});
]]></script>
</svg>
