<?xml version="1.0" encoding="UTF-8" standalone="no"?>
<!DOCTYPE svg PUBLIC "-//W3C//DTD SVG 1.1//EN"
 "http://www.w3.org/Graphics/SVG/1.1/DTD/svg11.dtd">
<!-- Generated by graphviz version 2.43.0 (0)
 -->
<!-- Title: drake/bindings/pydrake/common/eigen_geometry_pybind.h Pages: 1 -->
<!--zoomable 307 -->
<svg id="main" version="1.1" xmlns="http://www.w3.org/2000/svg" xmlns:xlink="http://www.w3.org/1999/xlink" xml:space="preserve" onload="init(evt)">
<style type="text/css"><![CDATA[
.edge:hover path { stroke: red; }
.edge:hover polygon { stroke: red; fill: red; }
]]></style>
<script type="text/javascript"><![CDATA[
var edges = document.getElementsByTagName('g');
if (edges && edges.length) {
  for (var i=0;i<edges.length;i++) {
    if (edges[i].id.substr(0,4)=='edge') {
      edges[i].setAttribute('class','edge');
    }
  }
}
]]></script>
        <defs>
                <circle id="rim" cx="0" cy="0" r="7"/>
                <circle id="rim2" cx="0" cy="0" r="3.5"/>
                <g id="zoomPlus">
                        <use xlink:href="#rim" fill="#404040">
                                <set attributeName="fill" to="#808080" begin="zoomplus.mouseover" end="zoomplus.mouseout"/>
                        </use>
                        <path d="M-4,0h8M0,-4v8" fill="none" stroke="white" stroke-width="1.5" pointer-events="none"/>
                </g>
                <g id="zoomMin">
                        <use xlink:href="#rim" fill="#404040">
                                <set attributeName="fill" to="#808080" begin="zoomminus.mouseover" end="zoomminus.mouseout"/>
                        </use>
                        <path d="M-4,0h8" fill="none" stroke="white" stroke-width="1.5" pointer-events="none"/>
                </g>
                <g id="dirArrow">
                        <path fill="none" stroke="white" stroke-width="1.5" d="M0,-3.0v7 M-2.5,-0.5L0,-3.0L2.5,-0.5"/>
                </g>
               <g id="resetDef">
                       <use xlink:href="#rim2" fill="#404040">
                               <set attributeName="fill" to="#808080" begin="reset.mouseover" end="reset.mouseout"/>
                       </use>
               </g>
        </defs>

<script type="text/javascript">
var viewWidth = 1071;
var viewHeight = 307;
var sectionId = 'dynsection-0';
</script>
<script xlink:href="svgpan.js"/>
<svg id="graph" class="graph">
<g id="viewport">
<title>drake/bindings/pydrake/common/eigen_geometry_pybind.h</title>
<polygon fill="white" stroke="transparent" points="-4,4 -4,-303 1066.5,-303 1066.5,4 -4,4"/>
<!-- Node0 -->
<g id="node1" class="node">
<title>Node0</title>
<g id="a_node1"><a xlink:title="Provides pybind11 type_casters for Eigen geometric types.">
<polygon fill="#bfbfbf" stroke="black" points="657.5,-257.5 657.5,-298.5 802.5,-298.5 802.5,-257.5 657.5,-257.5"/>
<text text-anchor="start" x="665.5" y="-286.5" font-family="Helvetica,sans-Serif" font-size="10.00">drake/bindings/pydrake</text>
<text text-anchor="start" x="665.5" y="-275.5" font-family="Helvetica,sans-Serif" font-size="10.00">/common/eigen_geometry</text>
<text text-anchor="middle" x="730" y="-264.5" font-family="Helvetica,sans-Serif" font-size="10.00">_pybind.h</text>
</a>
</g>
</g>
<!-- Node1 -->
<g id="node2" class="node">
<title>Node1</title>
<g id="a_node2"><a xlink:title=" ">
<polygon fill="white" stroke="#bfbfbf" points="0,-0.5 0,-19.5 44,-19.5 44,-0.5 0,-0.5"/>
<text text-anchor="middle" x="22" y="-7.5" font-family="Helvetica,sans-Serif" font-size="10.00">string</text>
</a>
</g>
</g>
<!-- Node0&#45;&gt;Node1 -->
<g id="edge1" class="edge">
<title>Node0&#45;&gt;Node1</title>
<path fill="none" stroke="midnightblue" d="M657.35,-269.26C509.56,-252.55 179.64,-210.03 82,-154 47.33,-134.1 36.27,-124.34 22,-87 14.95,-68.55 16.14,-45.7 18.35,-29.89"/>
<polygon fill="midnightblue" stroke="midnightblue" points="21.84,-30.24 20.03,-19.8 14.94,-29.09 21.84,-30.24"/>
</g>
<!-- Node2 -->
<g id="node3" class="node">
<title>Node2</title>
<g id="a_node3"><a xlink:title=" ">
<polygon fill="white" stroke="#bfbfbf" points="821.5,-62 821.5,-81 866.5,-81 866.5,-62 821.5,-62"/>
<text text-anchor="middle" x="844" y="-69" font-family="Helvetica,sans-Serif" font-size="10.00">utility</text>
</a>
</g>
</g>
<!-- Node0&#45;&gt;Node2 -->
<g id="edge2" class="edge">
<title>Node0&#45;&gt;Node2</title>
<path fill="none" stroke="midnightblue" d="M747.32,-257.44C767.1,-234.22 799.26,-193.64 819,-154 829.17,-133.57 836.16,-108.18 840.11,-91.22"/>
<polygon fill="midnightblue" stroke="midnightblue" points="843.54,-91.94 842.27,-81.42 836.7,-90.44 843.54,-91.94"/>
</g>
<!-- Node3 -->
<g id="node4" class="node">
<title>Node3</title>
<g id="a_node4"><a xlink:title=" ">
<polygon fill="white" stroke="#bfbfbf" points="866.5,-196 866.5,-215 967.5,-215 967.5,-196 866.5,-196"/>
<text text-anchor="middle" x="917" y="-203" font-family="Helvetica,sans-Serif" font-size="10.00">pybind11/eigen.h</text>
</a>
</g>
</g>
<!-- Node0&#45;&gt;Node3 -->
<g id="edge3" class="edge">
<title>Node0&#45;&gt;Node3</title>
<path fill="none" stroke="midnightblue" d="M782.09,-257.36C814.96,-244.97 856.38,-229.35 884.6,-218.72"/>
<polygon fill="midnightblue" stroke="midnightblue" points="885.87,-221.98 893.99,-215.17 883.4,-215.43 885.87,-221.98"/>
</g>
<!-- Node4 -->
<g id="node5" class="node">
<title>Node4</title>
<g id="a_node5"><a xlink:title=" ">
<polygon fill="white" stroke="#bfbfbf" points="985.5,-196 985.5,-215 1062.5,-215 1062.5,-196 985.5,-196"/>
<text text-anchor="middle" x="1024" y="-203" font-family="Helvetica,sans-Serif" font-size="10.00">Eigen/Dense</text>
</a>
</g>
</g>
<!-- Node0&#45;&gt;Node4 -->
<g id="edge4" class="edge">
<title>Node0&#45;&gt;Node4</title>
<path fill="none" stroke="midnightblue" d="M802.77,-262.03C852.16,-251.49 918.8,-236.55 977,-221 980.4,-220.09 983.93,-219.1 987.45,-218.07"/>
<polygon fill="midnightblue" stroke="midnightblue" points="988.68,-221.36 997.26,-215.14 986.68,-214.65 988.68,-221.36"/>
</g>
<!-- Node5 -->
<g id="node6" class="node">
<title>Node5</title>
<g id="a_node6"><a xlink:href="wrap__pybind_8h.html" target="_top" xlink:title="Defines convenience utilities to wrap pybind11 methods and classes.">
<polygon fill="white" stroke="black" points="506.5,-190.5 506.5,-220.5 643.5,-220.5 643.5,-190.5 506.5,-190.5"/>
<text text-anchor="start" x="514.5" y="-208.5" font-family="Helvetica,sans-Serif" font-size="10.00">drake/bindings/pydrake</text>
<text text-anchor="middle" x="575" y="-197.5" font-family="Helvetica,sans-Serif" font-size="10.00">/common/wrap_pybind.h</text>
</a>
</g>
</g>
<!-- Node0&#45;&gt;Node5 -->
<g id="edge5" class="edge">
<title>Node0&#45;&gt;Node5</title>
<path fill="none" stroke="midnightblue" d="M686.82,-257.36C664.51,-247.21 637.43,-234.9 615.51,-224.93"/>
<polygon fill="midnightblue" stroke="midnightblue" points="616.71,-221.62 606.15,-220.67 613.81,-228 616.71,-221.62"/>
</g>
<!-- Node11 -->
<g id="node12" class="node">
<title>Node11</title>
<g id="a_node12"><a xlink:href="pydrake__pybind_8h.html" target="_top" xlink:title=" ">
<polygon fill="white" stroke="black" points="234,-123.5 234,-153.5 364,-153.5 364,-123.5 234,-123.5"/>
<text text-anchor="start" x="242" y="-141.5" font-family="Helvetica,sans-Serif" font-size="10.00">drake/bindings/pydrake</text>
<text text-anchor="middle" x="299" y="-130.5" font-family="Helvetica,sans-Serif" font-size="10.00">/pydrake_pybind.h</text>
</a>
</g>
</g>
<!-- Node0&#45;&gt;Node11 -->
<g id="edge31" class="edge">
<title>Node0&#45;&gt;Node11</title>
<path fill="none" stroke="midnightblue" d="M657.37,-262.44C611.23,-252.46 550.53,-237.99 498,-221 441.39,-202.69 378.15,-175.6 338.46,-157.75"/>
<polygon fill="midnightblue" stroke="midnightblue" points="339.7,-154.46 329.15,-153.53 336.81,-160.84 339.7,-154.46"/>
</g>
<!-- Node5&#45;&gt;Node1 -->
<g id="edge7" class="edge">
<title>Node5&#45;&gt;Node1</title>
<path fill="none" stroke="midnightblue" d="M506.44,-198.82C435.29,-191.94 321.16,-178.17 225,-154 140.59,-132.78 99.25,-151.66 41,-87 26.95,-71.4 22.93,-46.98 21.96,-30.05"/>
<polygon fill="midnightblue" stroke="midnightblue" points="25.45,-29.63 21.69,-19.72 18.45,-29.81 25.45,-29.63"/>
</g>
<!-- Node5&#45;&gt;Node2 -->
<g id="edge9" class="edge">
<title>Node5&#45;&gt;Node2</title>
<path fill="none" stroke="midnightblue" d="M583.67,-190.21C595.71,-171.68 619.28,-139.74 648,-123 712.85,-85.21 741.9,-111.05 813,-87 814.66,-86.44 816.36,-85.81 818.05,-85.14"/>
<polygon fill="midnightblue" stroke="midnightblue" points="819.77,-88.21 827.55,-81.02 816.98,-81.79 819.77,-88.21"/>
</g>
<!-- Node6 -->
<g id="node7" class="node">
<title>Node6</title>
<g id="a_node7"><a xlink:title=" ">
<polygon fill="white" stroke="#bfbfbf" points="188,-62 188,-81 246,-81 246,-62 188,-62"/>
<text text-anchor="middle" x="217" y="-69" font-family="Helvetica,sans-Serif" font-size="10.00">memory</text>
</a>
</g>
</g>
<!-- Node5&#45;&gt;Node6 -->
<g id="edge6" class="edge">
<title>Node5&#45;&gt;Node6</title>
<path fill="none" stroke="midnightblue" d="M533.38,-190.42C508.54,-181.35 476.72,-168.56 450,-154 428.99,-142.56 427.8,-132.84 406,-123 343.11,-94.62 320.93,-107.34 255,-87 252.58,-86.25 250.09,-85.43 247.6,-84.57"/>
<polygon fill="midnightblue" stroke="midnightblue" points="248.73,-81.25 238.13,-81.12 246.33,-87.83 248.73,-81.25"/>
</g>
<!-- Node7 -->
<g id="node8" class="node">
<title>Node7</title>
<g id="a_node8"><a xlink:title=" ">
<polygon fill="white" stroke="#bfbfbf" points="860.5,-0.5 860.5,-19.5 929.5,-19.5 929.5,-0.5 860.5,-0.5"/>
<text text-anchor="middle" x="895" y="-7.5" font-family="Helvetica,sans-Serif" font-size="10.00">type_traits</text>
</a>
</g>
</g>
<!-- Node5&#45;&gt;Node7 -->
<g id="edge8" class="edge">
<title>Node5&#45;&gt;Node7</title>
<path fill="none" stroke="midnightblue" d="M594.47,-190.3C608.14,-180.27 626.79,-166.45 643,-154 660.56,-140.51 661.85,-132.18 682,-123 761.8,-86.64 812.11,-147.07 876,-87 891.61,-72.33 895.2,-46.94 895.66,-29.58"/>
<polygon fill="midnightblue" stroke="midnightblue" points="899.16,-29.5 895.6,-19.52 892.16,-29.54 899.16,-29.5"/>
</g>
<!-- Node8 -->
<g id="node9" class="node">
<title>Node8</title>
<g id="a_node9"><a xlink:title=" ">
<polygon fill="white" stroke="#bfbfbf" points="50.5,-62 50.5,-81 169.5,-81 169.5,-62 50.5,-62"/>
<text text-anchor="middle" x="110" y="-69" font-family="Helvetica,sans-Serif" font-size="10.00">pybind11/pybind11.h</text>
</a>
</g>
</g>
<!-- Node5&#45;&gt;Node8 -->
<g id="edge10" class="edge">
<title>Node5&#45;&gt;Node8</title>
<path fill="none" stroke="midnightblue" d="M506.27,-191.61C474.37,-183.75 436.79,-171.72 406,-154 388.56,-143.96 390.95,-132.09 373,-123 294.77,-83.38 265.03,-104.02 179,-87 172.77,-85.77 166.24,-84.44 159.78,-83.11"/>
<polygon fill="midnightblue" stroke="midnightblue" points="160.24,-79.63 149.74,-81.02 158.82,-86.48 160.24,-79.63"/>
</g>
<!-- Node9 -->
<g id="node10" class="node">
<title>Node9</title>
<g id="a_node10"><a xlink:href="wrap__function_8h.html" target="_top" xlink:title=" ">
<polygon fill="white" stroke="black" points="866.5,-123.5 866.5,-153.5 1009.5,-153.5 1009.5,-123.5 866.5,-123.5"/>
<text text-anchor="start" x="874.5" y="-141.5" font-family="Helvetica,sans-Serif" font-size="10.00">drake/bindings/pydrake</text>
<text text-anchor="middle" x="938" y="-130.5" font-family="Helvetica,sans-Serif" font-size="10.00">/common/wrap_function.h</text>
</a>
</g>
</g>
<!-- Node5&#45;&gt;Node9 -->
<g id="edge11" class="edge">
<title>Node5&#45;&gt;Node9</title>
<path fill="none" stroke="midnightblue" d="M643.7,-192.2C704.19,-181.37 792.36,-165.58 856.41,-154.11"/>
<polygon fill="midnightblue" stroke="midnightblue" points="857.25,-157.52 866.47,-152.31 856.01,-150.63 857.25,-157.52"/>
</g>
<!-- Node5&#45;&gt;Node11 -->
<g id="edge15" class="edge">
<title>Node5&#45;&gt;Node11</title>
<path fill="none" stroke="midnightblue" d="M515.45,-190.48C472.34,-180.32 413.94,-166.57 368.66,-155.91"/>
<polygon fill="midnightblue" stroke="midnightblue" points="369.45,-152.5 358.92,-153.61 367.85,-159.31 369.45,-152.5"/>
</g>
<!-- Node12 -->
<g id="node13" class="node">
<title>Node12</title>
<g id="a_node13"><a xlink:href="copyable__unique__ptr_8h.html" target="_top" xlink:title=" ">
<polygon fill="white" stroke="black" points="458.5,-123.5 458.5,-153.5 595.5,-153.5 595.5,-123.5 458.5,-123.5"/>
<text text-anchor="start" x="466.5" y="-141.5" font-family="Helvetica,sans-Serif" font-size="10.00">drake/common/copyable</text>
<text text-anchor="middle" x="527" y="-130.5" font-family="Helvetica,sans-Serif" font-size="10.00">_unique_ptr.h</text>
</a>
</g>
</g>
<!-- Node5&#45;&gt;Node12 -->
<g id="edge18" class="edge">
<title>Node5&#45;&gt;Node12</title>
<path fill="none" stroke="midnightblue" d="M564.58,-190.4C558.42,-182.05 550.47,-171.29 543.48,-161.81"/>
<polygon fill="midnightblue" stroke="midnightblue" points="546.15,-159.54 537.39,-153.58 540.52,-163.7 546.15,-159.54"/>
</g>
<!-- Node20 -->
<g id="node21" class="node">
<title>Node20</title>
<g id="a_node21"><a xlink:href="drake__copyable_8h.html" target="_top" xlink:title="Provides careful macros to selectively enable or disable the special member functions for copy&#45;constr...">
<polygon fill="white" stroke="black" points="690.5,-123.5 690.5,-153.5 809.5,-153.5 809.5,-123.5 690.5,-123.5"/>
<text text-anchor="start" x="698.5" y="-141.5" font-family="Helvetica,sans-Serif" font-size="10.00">drake/common/drake</text>
<text text-anchor="middle" x="750" y="-130.5" font-family="Helvetica,sans-Serif" font-size="10.00">_copyable.h</text>
</a>
</g>
</g>
<!-- Node5&#45;&gt;Node20 -->
<g id="edge30" class="edge">
<title>Node5&#45;&gt;Node20</title>
<path fill="none" stroke="midnightblue" d="M612.97,-190.4C639.23,-180.64 674.36,-167.59 702.48,-157.15"/>
<polygon fill="midnightblue" stroke="midnightblue" points="703.95,-160.34 712.1,-153.58 701.51,-153.78 703.95,-160.34"/>
</g>
<!-- Node9&#45;&gt;Node2 -->
<g id="edge14" class="edge">
<title>Node9&#45;&gt;Node2</title>
<path fill="none" stroke="midnightblue" d="M917.6,-123.4C901.99,-112.6 880.52,-97.76 864.81,-86.89"/>
<polygon fill="midnightblue" stroke="midnightblue" points="866.52,-83.82 856.3,-81.01 862.54,-89.57 866.52,-83.82"/>
</g>
<!-- Node9&#45;&gt;Node7 -->
<g id="edge13" class="edge">
<title>Node9&#45;&gt;Node7</title>
<path fill="none" stroke="midnightblue" d="M933.23,-123.48C925.43,-100.51 909.92,-54.89 901.24,-29.37"/>
<polygon fill="midnightblue" stroke="midnightblue" points="904.52,-28.13 897.99,-19.79 897.89,-30.38 904.52,-28.13"/>
</g>
<!-- Node10 -->
<g id="node11" class="node">
<title>Node10</title>
<g id="a_node11"><a xlink:title=" ">
<polygon fill="white" stroke="#bfbfbf" points="961.5,-62 961.5,-81 1026.5,-81 1026.5,-62 961.5,-62"/>
<text text-anchor="middle" x="994" y="-69" font-family="Helvetica,sans-Serif" font-size="10.00">functional</text>
</a>
</g>
</g>
<!-- Node9&#45;&gt;Node10 -->
<g id="edge12" class="edge">
<title>Node9&#45;&gt;Node10</title>
<path fill="none" stroke="midnightblue" d="M950.15,-123.4C958.88,-113.26 970.68,-99.57 979.84,-88.94"/>
<polygon fill="midnightblue" stroke="midnightblue" points="982.63,-91.06 986.51,-81.19 977.33,-86.49 982.63,-91.06"/>
</g>
<!-- Node11&#45;&gt;Node2 -->
<g id="edge16" class="edge">
<title>Node11&#45;&gt;Node2</title>
<path fill="none" stroke="midnightblue" d="M364.07,-131.25C501.17,-118.06 807.63,-88.47 813,-87 814.93,-86.47 816.9,-85.83 818.85,-85.11"/>
<polygon fill="midnightblue" stroke="midnightblue" points="820.47,-88.23 828.31,-81.1 817.73,-81.78 820.47,-88.23"/>
</g>
<!-- Node11&#45;&gt;Node8 -->
<g id="edge17" class="edge">
<title>Node11&#45;&gt;Node8</title>
<path fill="none" stroke="midnightblue" d="M257.99,-123.4C224.09,-111.74 176.51,-95.37 144.53,-84.38"/>
<polygon fill="midnightblue" stroke="midnightblue" points="145.33,-80.95 134.74,-81.01 143.05,-87.57 145.33,-80.95"/>
</g>
<!-- Node12&#45;&gt;Node2 -->
<g id="edge22" class="edge">
<title>Node12&#45;&gt;Node2</title>
<path fill="none" stroke="midnightblue" d="M595.79,-125.47C679.58,-110.79 810.39,-87.83 813,-87 814.87,-86.41 816.77,-85.73 818.67,-84.99"/>
<polygon fill="midnightblue" stroke="midnightblue" points="820.12,-88.18 827.91,-81 817.34,-81.75 820.12,-88.18"/>
</g>
<!-- Node12&#45;&gt;Node6 -->
<g id="edge20" class="edge">
<title>Node12&#45;&gt;Node6</title>
<path fill="none" stroke="midnightblue" d="M458.23,-125.4C384.17,-112.26 274.3,-92.43 255,-87 252.35,-86.26 249.63,-85.4 246.91,-84.49"/>
<polygon fill="midnightblue" stroke="midnightblue" points="247.88,-81.11 237.28,-81.02 245.5,-87.7 247.88,-81.11"/>
</g>
<!-- Node13 -->
<g id="node14" class="node">
<title>Node13</title>
<g id="a_node14"><a xlink:title=" ">
<polygon fill="white" stroke="#bfbfbf" points="401.5,-62 401.5,-81 454.5,-81 454.5,-62 401.5,-62"/>
<text text-anchor="middle" x="428" y="-69" font-family="Helvetica,sans-Serif" font-size="10.00">cstddef</text>
</a>
</g>
</g>
<!-- Node12&#45;&gt;Node13 -->
<g id="edge19" class="edge">
<title>Node12&#45;&gt;Node13</title>
<path fill="none" stroke="midnightblue" d="M505.52,-123.4C488.92,-112.5 466.04,-97.48 449.45,-86.58"/>
<polygon fill="midnightblue" stroke="midnightblue" points="451.24,-83.57 440.96,-81.01 447.4,-89.42 451.24,-83.57"/>
</g>
<!-- Node14 -->
<g id="node15" class="node">
<title>Node14</title>
<g id="a_node15"><a xlink:title=" ">
<polygon fill="white" stroke="#bfbfbf" points="472.5,-62 472.5,-81 529.5,-81 529.5,-62 472.5,-62"/>
<text text-anchor="middle" x="501" y="-69" font-family="Helvetica,sans-Serif" font-size="10.00">ostream</text>
</a>
</g>
</g>
<!-- Node12&#45;&gt;Node14 -->
<g id="edge21" class="edge">
<title>Node12&#45;&gt;Node14</title>
<path fill="none" stroke="midnightblue" d="M521.36,-123.4C517.51,-113.76 512.37,-100.91 508.21,-90.54"/>
<polygon fill="midnightblue" stroke="midnightblue" points="511.44,-89.18 504.48,-81.19 504.94,-91.78 511.44,-89.18"/>
</g>
<!-- Node15 -->
<g id="node16" class="node">
<title>Node15</title>
<g id="a_node16"><a xlink:href="drake__assert_8h.html" target="_top" xlink:title="Provides Drake&#39;s assertion implementation.">
<polygon fill="white" stroke="black" points="684.5,-56.5 684.5,-86.5 803.5,-86.5 803.5,-56.5 684.5,-56.5"/>
<text text-anchor="start" x="692.5" y="-74.5" font-family="Helvetica,sans-Serif" font-size="10.00">drake/common/drake</text>
<text text-anchor="middle" x="744" y="-63.5" font-family="Helvetica,sans-Serif" font-size="10.00">_assert.h</text>
</a>
</g>
</g>
<!-- Node12&#45;&gt;Node15 -->
<g id="edge23" class="edge">
<title>Node12&#45;&gt;Node15</title>
<path fill="none" stroke="midnightblue" d="M573.82,-123.48C607.07,-113.51 651.9,-100.09 687.2,-89.51"/>
<polygon fill="midnightblue" stroke="midnightblue" points="688.32,-92.83 696.89,-86.61 686.31,-86.13 688.32,-92.83"/>
</g>
<!-- Node16 -->
<g id="node17" class="node">
<title>Node16</title>
<g id="a_node17"><a xlink:href="drake__deprecated_8h.html" target="_top" xlink:title="Provides a portable macro for use in generating compile&#45;time warnings for use of code that is permitt...">
<polygon fill="white" stroke="black" points="547.5,-56.5 547.5,-86.5 666.5,-86.5 666.5,-56.5 547.5,-56.5"/>
<text text-anchor="start" x="555.5" y="-74.5" font-family="Helvetica,sans-Serif" font-size="10.00">drake/common/drake</text>
<text text-anchor="middle" x="607" y="-63.5" font-family="Helvetica,sans-Serif" font-size="10.00">_deprecated.h</text>
</a>
</g>
</g>
<!-- Node12&#45;&gt;Node16 -->
<g id="edge25" class="edge">
<title>Node12&#45;&gt;Node16</title>
<path fill="none" stroke="midnightblue" d="M544.36,-123.4C555.26,-114.54 569.51,-102.96 581.66,-93.09"/>
<polygon fill="midnightblue" stroke="midnightblue" points="584.12,-95.6 589.68,-86.58 579.71,-90.17 584.12,-95.6"/>
</g>
<!-- Node17 -->
<g id="node18" class="node">
<title>Node17</title>
<g id="a_node18"><a xlink:href="fmt_8h.html" target="_top" xlink:title=" ">
<polygon fill="white" stroke="black" points="264.5,-62 264.5,-81 383.5,-81 383.5,-62 264.5,-62"/>
<text text-anchor="middle" x="324" y="-69" font-family="Helvetica,sans-Serif" font-size="10.00">drake/common/fmt.h</text>
</a>
</g>
</g>
<!-- Node12&#45;&gt;Node17 -->
<g id="edge26" class="edge">
<title>Node12&#45;&gt;Node17</title>
<path fill="none" stroke="midnightblue" d="M482.95,-123.4C446.23,-111.64 394.55,-95.09 360.2,-84.09"/>
<polygon fill="midnightblue" stroke="midnightblue" points="361.16,-80.72 350.57,-81.01 359.02,-87.39 361.16,-80.72"/>
</g>
<!-- Node15&#45;&gt;Node7 -->
<g id="edge24" class="edge">
<title>Node15&#45;&gt;Node7</title>
<path fill="none" stroke="midnightblue" d="M779.78,-56.4C805.23,-46.37 839.1,-33.03 863.52,-23.4"/>
<polygon fill="midnightblue" stroke="midnightblue" points="865.01,-26.58 873.03,-19.66 862.44,-20.07 865.01,-26.58"/>
</g>
<!-- Node17&#45;&gt;Node1 -->
<g id="edge27" class="edge">
<title>Node17&#45;&gt;Node1</title>
<path fill="none" stroke="midnightblue" d="M283.89,-61.96C274.42,-59.97 264.36,-57.89 255,-56 183.4,-41.56 99.22,-25.54 54.23,-17.05"/>
<polygon fill="midnightblue" stroke="midnightblue" points="54.67,-13.57 44.19,-15.16 53.37,-20.45 54.67,-13.57"/>
</g>
<!-- Node18 -->
<g id="node19" class="node">
<title>Node18</title>
<g id="a_node19"><a xlink:title=" ">
<polygon fill="white" stroke="#bfbfbf" points="240.5,-0.5 240.5,-19.5 313.5,-19.5 313.5,-0.5 240.5,-0.5"/>
<text text-anchor="middle" x="277" y="-7.5" font-family="Helvetica,sans-Serif" font-size="10.00">string_view</text>
</a>
</g>
</g>
<!-- Node17&#45;&gt;Node18 -->
<g id="edge28" class="edge">
<title>Node17&#45;&gt;Node18</title>
<path fill="none" stroke="midnightblue" d="M317.27,-61.98C310.22,-53.05 298.97,-38.81 290.15,-27.64"/>
<polygon fill="midnightblue" stroke="midnightblue" points="292.67,-25.19 283.72,-19.51 287.17,-29.53 292.67,-25.19"/>
</g>
<!-- Node19 -->
<g id="node20" class="node">
<title>Node19</title>
<g id="a_node20"><a xlink:title=" ">
<polygon fill="white" stroke="#bfbfbf" points="331.5,-0.5 331.5,-19.5 410.5,-19.5 410.5,-0.5 331.5,-0.5"/>
<text text-anchor="middle" x="371" y="-7.5" font-family="Helvetica,sans-Serif" font-size="10.00">fmt/format.h</text>
</a>
</g>
</g>
<!-- Node17&#45;&gt;Node19 -->
<g id="edge29" class="edge">
<title>Node17&#45;&gt;Node19</title>
<path fill="none" stroke="midnightblue" d="M330.73,-61.98C337.78,-53.05 349.03,-38.81 357.85,-27.64"/>
<polygon fill="midnightblue" stroke="midnightblue" points="360.83,-29.53 364.28,-19.51 355.33,-25.19 360.83,-29.53"/>
</g>
</g>
</svg>
        <g id="navigator" transform="translate(0 0)" fill="#404254">
                <rect fill="#f2f5e9" fill-opacity="0.5" stroke="#606060" stroke-width=".5" x="0" y="0" width="60" height="60"/>
                <use id="zoomplus" xlink:href="#zoomPlus" x="17" y="9" onmousedown="handleZoom(evt,'in')"/>
                <use id="zoomminus" xlink:href="#zoomMin" x="42" y="9" onmousedown="handleZoom(evt,'out')"/>
                <use id="reset" xlink:href="#resetDef" x="30" y="36" onmousedown="handleReset()"/>
                <g id="arrowUp" xlink:href="#dirArrow" transform="translate(30 24)" onmousedown="handlePan(0,-1)">
                  <use xlink:href="#rim" fill="#404040">
                        <set attributeName="fill" to="#808080" begin="arrowUp.mouseover" end="arrowUp.mouseout"/>
                  </use>
                  <path fill="none" stroke="white" stroke-width="1.5" d="M0,-3.0v7 M-2.5,-0.5L0,-3.0L2.5,-0.5"/>
                </g>
                <g id="arrowRight" xlink:href="#dirArrow" transform="rotate(90) translate(36 -43)" onmousedown="handlePan(1,0)">
                  <use xlink:href="#rim" fill="#404040">
                        <set attributeName="fill" to="#808080" begin="arrowRight.mouseover" end="arrowRight.mouseout"/>
                  </use>
                  <path fill="none" stroke="white" stroke-width="1.5" d="M0,-3.0v7 M-2.5,-0.5L0,-3.0L2.5,-0.5"/>
                </g>
                <g id="arrowDown" xlink:href="#dirArrow" transform="rotate(180) translate(-30 -48)" onmousedown="handlePan(0,1)">
                  <use xlink:href="#rim" fill="#404040">
                        <set attributeName="fill" to="#808080" begin="arrowDown.mouseover" end="arrowDown.mouseout"/>
                  </use>
                  <path fill="none" stroke="white" stroke-width="1.5" d="M0,-3.0v7 M-2.5,-0.5L0,-3.0L2.5,-0.5"/>
                </g>
                <g id="arrowLeft" xlink:href="#dirArrow" transform="rotate(270) translate(-36 17)" onmousedown="handlePan(-1,0)">
                  <use xlink:href="#rim" fill="#404040">
                        <set attributeName="fill" to="#808080" begin="arrowLeft.mouseover" end="arrowLeft.mouseout"/>
                  </use>
                  <path fill="none" stroke="white" stroke-width="1.5" d="M0,-3.0v7 M-2.5,-0.5L0,-3.0L2.5,-0.5"/>
                </g>
        </g>
        <svg viewBox="0 0 15 15" width="100%" height="30px" preserveAspectRatio="xMaxYMin meet">
         <g id="arrow_out" transform="scale(0.3 0.3)">
          <a xlink:href="eigen__geometry__pybind_8h__incl_org.svg" target="_base">
           <rect id="button" ry="5" rx="5" y="6" x="6" height="38" width="38"
                fill="#f2f5e9" fill-opacity="0.5" stroke="#606060" stroke-width="1.0"/>
           <path id="arrow"
             d="M 11.500037,31.436501 C 11.940474,20.09759 22.043105,11.32322 32.158766,21.979434 L 37.068811,17.246167 C 37.068811,17.246167 37.088388,32 37.088388,32 L 22.160133,31.978069 C 22.160133,31.978069 26.997745,27.140456 26.997745,27.140456 C 18.528582,18.264221 13.291696,25.230495 11.500037,31.436501 z"
             style="fill:#404040;"/>
          </a>
         </g>
        </svg>
</svg>
