<?xml version="1.0" encoding="UTF-8" standalone="no"?>
<!DOCTYPE svg PUBLIC "-//W3C//DTD SVG 1.1//EN"
 "http://www.w3.org/Graphics/SVG/1.1/DTD/svg11.dtd">
<!-- Generated by graphviz version 2.43.0 (0)
 -->
<!-- Title: drake/common/test_utilities/eigen_matrix_compare.h Pages: 1 -->
<svg width="780pt" height="218pt"
 viewBox="0.00 0.00 780.00 218.00" xmlns="http://www.w3.org/2000/svg" xmlns:xlink="http://www.w3.org/1999/xlink">
<g id="graph0" class="graph" transform="scale(1 1) rotate(0) translate(4 214)">
<title>drake/common/test_utilities/eigen_matrix_compare.h</title>
<polygon fill="white" stroke="transparent" points="-4,4 -4,-214 776,-214 776,4 -4,4"/>
<!-- Node0 -->
<g id="node1" class="node">
<title>Node0</title>
<g id="a_node1"><a xlink:title=" ">
<polygon fill="#bfbfbf" stroke="black" points="261.5,-179.5 261.5,-209.5 414.5,-209.5 414.5,-179.5 261.5,-179.5"/>
<text text-anchor="start" x="269.5" y="-197.5" font-family="Helvetica,sans-Serif" font-size="10.00">drake/common/test_utilities</text>
<text text-anchor="middle" x="338" y="-186.5" font-family="Helvetica,sans-Serif" font-size="10.00">/eigen_matrix_compare.h</text>
</a>
</g>
</g>
<!-- Node1 -->
<g id="node2" class="node">
<title>Node1</title>
<g id="a_node2"><a xlink:title=" ">
<polygon fill="white" stroke="#bfbfbf" points="0,-123.5 0,-142.5 64,-142.5 64,-123.5 0,-123.5"/>
<text text-anchor="middle" x="32" y="-130.5" font-family="Helvetica,sans-Serif" font-size="10.00">algorithm</text>
</a>
</g>
</g>
<!-- Node0&#45;&gt;Node1 -->
<g id="edge1" class="edge">
<title>Node0&#45;&gt;Node1</title>
<path fill="none" stroke="midnightblue" d="M261.35,-179.48C210.86,-170.1 143.03,-157.25 74.35,-143.24"/>
<polygon fill="midnightblue" stroke="midnightblue" points="74.71,-139.74 64.21,-141.16 73.31,-146.59 74.71,-139.74"/>
</g>
<!-- Node2 -->
<g id="node3" class="node">
<title>Node2</title>
<g id="a_node3"><a xlink:title=" ">
<polygon fill="white" stroke="#bfbfbf" points="82.5,-123.5 82.5,-142.5 129.5,-142.5 129.5,-123.5 82.5,-123.5"/>
<text text-anchor="middle" x="106" y="-130.5" font-family="Helvetica,sans-Serif" font-size="10.00">cmath</text>
</a>
</g>
</g>
<!-- Node0&#45;&gt;Node2 -->
<g id="edge2" class="edge">
<title>Node0&#45;&gt;Node2</title>
<path fill="none" stroke="midnightblue" d="M281.32,-179.4C243.72,-169.98 193.05,-157.16 139.46,-143.09"/>
<polygon fill="midnightblue" stroke="midnightblue" points="140.34,-139.7 129.78,-140.54 138.56,-146.47 140.34,-139.7"/>
</g>
<!-- Node3 -->
<g id="node4" class="node">
<title>Node3</title>
<g id="a_node4"><a xlink:title=" ">
<polygon fill="white" stroke="#bfbfbf" points="148,-123.5 148,-142.5 192,-142.5 192,-123.5 148,-123.5"/>
<text text-anchor="middle" x="170" y="-130.5" font-family="Helvetica,sans-Serif" font-size="10.00">limits</text>
</a>
</g>
</g>
<!-- Node0&#45;&gt;Node3 -->
<g id="edge3" class="edge">
<title>Node0&#45;&gt;Node3</title>
<path fill="none" stroke="midnightblue" d="M298.19,-179.4C268.63,-168.93 228.87,-154.85 201.51,-145.16"/>
<polygon fill="midnightblue" stroke="midnightblue" points="202.63,-141.84 192.04,-141.8 200.29,-148.44 202.63,-141.84"/>
</g>
<!-- Node4 -->
<g id="node5" class="node">
<title>Node4</title>
<g id="a_node5"><a xlink:title=" ">
<polygon fill="white" stroke="#bfbfbf" points="394,-62 394,-81 438,-81 438,-62 394,-62"/>
<text text-anchor="middle" x="416" y="-69" font-family="Helvetica,sans-Serif" font-size="10.00">string</text>
</a>
</g>
</g>
<!-- Node0&#45;&gt;Node4 -->
<g id="edge4" class="edge">
<title>Node0&#45;&gt;Node4</title>
<path fill="none" stroke="midnightblue" d="M347.25,-179.14C361.72,-156.71 389.62,-113.42 405.06,-89.47"/>
<polygon fill="midnightblue" stroke="midnightblue" points="408.01,-91.35 410.49,-81.05 402.13,-87.56 408.01,-91.35"/>
</g>
<!-- Node5 -->
<g id="node6" class="node">
<title>Node5</title>
<g id="a_node6"><a xlink:title=" ">
<polygon fill="white" stroke="#bfbfbf" points="598.5,-123.5 598.5,-142.5 675.5,-142.5 675.5,-123.5 598.5,-123.5"/>
<text text-anchor="middle" x="637" y="-130.5" font-family="Helvetica,sans-Serif" font-size="10.00">Eigen/Dense</text>
</a>
</g>
</g>
<!-- Node0&#45;&gt;Node5 -->
<g id="edge5" class="edge">
<title>Node0&#45;&gt;Node5</title>
<path fill="none" stroke="midnightblue" d="M408.48,-179.47C463.77,-168.47 539.29,-153.44 588.1,-143.73"/>
<polygon fill="midnightblue" stroke="midnightblue" points="588.98,-147.13 598.1,-141.74 587.61,-140.26 588.98,-147.13"/>
</g>
<!-- Node6 -->
<g id="node7" class="node">
<title>Node6</title>
<g id="a_node7"><a xlink:title=" ">
<polygon fill="white" stroke="#bfbfbf" points="694,-123.5 694,-142.5 772,-142.5 772,-123.5 694,-123.5"/>
<text text-anchor="middle" x="733" y="-130.5" font-family="Helvetica,sans-Serif" font-size="10.00">gtest/gtest.h</text>
</a>
</g>
</g>
<!-- Node0&#45;&gt;Node6 -->
<g id="edge6" class="edge">
<title>Node0&#45;&gt;Node6</title>
<path fill="none" stroke="midnightblue" d="M414.64,-183.26C482.7,-173.96 585.14,-159.45 683.84,-143.14"/>
<polygon fill="midnightblue" stroke="midnightblue" points="684.7,-146.54 693.99,-141.45 683.55,-139.64 684.7,-146.54"/>
</g>
<!-- Node7 -->
<g id="node8" class="node">
<title>Node7</title>
<g id="a_node8"><a xlink:href="fmt__eigen_8h.html" target="_top" xlink:title=" ">
<polygon fill="white" stroke="black" points="210.5,-123.5 210.5,-142.5 361.5,-142.5 361.5,-123.5 210.5,-123.5"/>
<text text-anchor="middle" x="286" y="-130.5" font-family="Helvetica,sans-Serif" font-size="10.00">drake/common/fmt_eigen.h</text>
</a>
</g>
</g>
<!-- Node0&#45;&gt;Node7 -->
<g id="edge7" class="edge">
<title>Node0&#45;&gt;Node7</title>
<path fill="none" stroke="midnightblue" d="M325.68,-179.4C318.04,-170.66 308.21,-159.41 300.24,-150.3"/>
<polygon fill="midnightblue" stroke="midnightblue" points="302.78,-147.88 293.57,-142.66 297.51,-152.49 302.78,-147.88"/>
</g>
<!-- Node12 -->
<g id="node13" class="node">
<title>Node12</title>
<g id="a_node13"><a xlink:href="text__logging_8h.html" target="_top" xlink:title="This is the entry point for all text logging within Drake.">
<polygon fill="white" stroke="black" points="418,-123.5 418,-142.5 580,-142.5 580,-123.5 418,-123.5"/>
<text text-anchor="middle" x="499" y="-130.5" font-family="Helvetica,sans-Serif" font-size="10.00">drake/common/text_logging.h</text>
</a>
</g>
</g>
<!-- Node0&#45;&gt;Node12 -->
<g id="edge14" class="edge">
<title>Node0&#45;&gt;Node12</title>
<path fill="none" stroke="midnightblue" d="M376.15,-179.4C403.53,-169.28 440.04,-155.79 466.13,-146.15"/>
<polygon fill="midnightblue" stroke="midnightblue" points="467.41,-149.41 475.57,-142.66 464.98,-142.84 467.41,-149.41"/>
</g>
<!-- Node7&#45;&gt;Node4 -->
<g id="edge8" class="edge">
<title>Node7&#45;&gt;Node4</title>
<path fill="none" stroke="midnightblue" d="M305.01,-123.43C324.96,-114.43 357.23,-99.81 385,-87 386.15,-86.47 387.33,-85.92 388.52,-85.37"/>
<polygon fill="midnightblue" stroke="midnightblue" points="390.07,-88.51 397.66,-81.12 387.11,-82.17 390.07,-88.51"/>
</g>
<!-- Node8 -->
<g id="node9" class="node">
<title>Node8</title>
<g id="a_node9"><a xlink:title=" ">
<polygon fill="white" stroke="#bfbfbf" points="145.5,-0.5 145.5,-19.5 218.5,-19.5 218.5,-0.5 145.5,-0.5"/>
<text text-anchor="middle" x="182" y="-7.5" font-family="Helvetica,sans-Serif" font-size="10.00">string_view</text>
</a>
</g>
</g>
<!-- Node7&#45;&gt;Node8 -->
<g id="edge9" class="edge">
<title>Node7&#45;&gt;Node8</title>
<path fill="none" stroke="midnightblue" d="M217.89,-123.48C195.76,-117.12 173.45,-106.08 160,-87 147.56,-69.35 158.69,-44.73 169.13,-28.35"/>
<polygon fill="midnightblue" stroke="midnightblue" points="172.25,-30 175.02,-19.77 166.48,-26.03 172.25,-30"/>
</g>
<!-- Node9 -->
<g id="node10" class="node">
<title>Node9</title>
<g id="a_node10"><a xlink:title=" ">
<polygon fill="white" stroke="#bfbfbf" points="169.5,-62 169.5,-81 238.5,-81 238.5,-62 169.5,-62"/>
<text text-anchor="middle" x="204" y="-69" font-family="Helvetica,sans-Serif" font-size="10.00">Eigen/Core</text>
</a>
</g>
</g>
<!-- Node7&#45;&gt;Node9 -->
<g id="edge10" class="edge">
<title>Node7&#45;&gt;Node9</title>
<path fill="none" stroke="midnightblue" d="M274.25,-123.48C261.22,-114.02 239.96,-98.6 224.24,-87.19"/>
<polygon fill="midnightblue" stroke="midnightblue" points="225.88,-84.05 215.73,-81.01 221.77,-89.71 225.88,-84.05"/>
</g>
<!-- Node10 -->
<g id="node11" class="node">
<title>Node10</title>
<g id="a_node11"><a xlink:href="fmt_8h.html" target="_top" xlink:title=" ">
<polygon fill="white" stroke="black" points="256.5,-62 256.5,-81 375.5,-81 375.5,-62 256.5,-62"/>
<text text-anchor="middle" x="316" y="-69" font-family="Helvetica,sans-Serif" font-size="10.00">drake/common/fmt.h</text>
</a>
</g>
</g>
<!-- Node7&#45;&gt;Node10 -->
<g id="edge11" class="edge">
<title>Node7&#45;&gt;Node10</title>
<path fill="none" stroke="midnightblue" d="M290.3,-123.48C294.66,-114.82 301.56,-101.15 307.1,-90.15"/>
<polygon fill="midnightblue" stroke="midnightblue" points="310.33,-91.51 311.71,-81.01 304.08,-88.36 310.33,-91.51"/>
</g>
<!-- Node10&#45;&gt;Node8 -->
<g id="edge12" class="edge">
<title>Node10&#45;&gt;Node8</title>
<path fill="none" stroke="midnightblue" d="M296.8,-61.98C274.21,-51.95 236.5,-35.2 210.5,-23.65"/>
<polygon fill="midnightblue" stroke="midnightblue" points="211.72,-20.37 201.16,-19.51 208.88,-26.77 211.72,-20.37"/>
</g>
<!-- Node11 -->
<g id="node12" class="node">
<title>Node11</title>
<g id="a_node12"><a xlink:title=" ">
<polygon fill="white" stroke="#bfbfbf" points="276.5,-0.5 276.5,-19.5 355.5,-19.5 355.5,-0.5 276.5,-0.5"/>
<text text-anchor="middle" x="316" y="-7.5" font-family="Helvetica,sans-Serif" font-size="10.00">fmt/format.h</text>
</a>
</g>
</g>
<!-- Node10&#45;&gt;Node11 -->
<g id="edge13" class="edge">
<title>Node10&#45;&gt;Node11</title>
<path fill="none" stroke="midnightblue" d="M316,-61.98C316,-53.58 316,-40.48 316,-29.66"/>
<polygon fill="midnightblue" stroke="midnightblue" points="319.5,-29.51 316,-19.51 312.5,-29.51 319.5,-29.51"/>
</g>
<!-- Node12&#45;&gt;Node4 -->
<g id="edge15" class="edge">
<title>Node12&#45;&gt;Node4</title>
<path fill="none" stroke="midnightblue" d="M487.11,-123.48C473.8,-113.93 452,-98.31 436.04,-86.87"/>
<polygon fill="midnightblue" stroke="midnightblue" points="438.04,-83.99 427.87,-81.01 433.96,-89.68 438.04,-83.99"/>
</g>
<!-- Node12&#45;&gt;Node10 -->
<g id="edge17" class="edge">
<title>Node12&#45;&gt;Node10</title>
<path fill="none" stroke="midnightblue" d="M472.78,-123.48C440.98,-113.14 387.23,-95.66 351.68,-84.1"/>
<polygon fill="midnightblue" stroke="midnightblue" points="352.76,-80.77 342.17,-81.01 350.6,-87.43 352.76,-80.77"/>
</g>
<!-- Node13 -->
<g id="node14" class="node">
<title>Node13</title>
<g id="a_node14"><a xlink:title=" ">
<polygon fill="white" stroke="#bfbfbf" points="456,-62 456,-81 542,-81 542,-62 456,-62"/>
<text text-anchor="middle" x="499" y="-69" font-family="Helvetica,sans-Serif" font-size="10.00">fmt/ostream.h</text>
</a>
</g>
</g>
<!-- Node12&#45;&gt;Node13 -->
<g id="edge16" class="edge">
<title>Node12&#45;&gt;Node13</title>
<path fill="none" stroke="midnightblue" d="M499,-123.48C499,-115.08 499,-101.98 499,-91.16"/>
<polygon fill="midnightblue" stroke="midnightblue" points="502.5,-91.01 499,-81.01 495.5,-91.01 502.5,-91.01"/>
</g>
<!-- Node14 -->
<g id="node15" class="node">
<title>Node14</title>
<g id="a_node15"><a xlink:href="drake__copyable_8h.html" target="_top" xlink:title="Provides careful macros to selectively enable or disable the special member functions for copy&#45;constr...">
<polygon fill="white" stroke="black" points="560.5,-56.5 560.5,-86.5 679.5,-86.5 679.5,-56.5 560.5,-56.5"/>
<text text-anchor="start" x="568.5" y="-74.5" font-family="Helvetica,sans-Serif" font-size="10.00">drake/common/drake</text>
<text text-anchor="middle" x="620" y="-63.5" font-family="Helvetica,sans-Serif" font-size="10.00">_copyable.h</text>
</a>
</g>
</g>
<!-- Node12&#45;&gt;Node14 -->
<g id="edge18" class="edge">
<title>Node12&#45;&gt;Node14</title>
<path fill="none" stroke="midnightblue" d="M516.34,-123.48C533.49,-115.04 560.3,-101.86 582.36,-91.01"/>
<polygon fill="midnightblue" stroke="midnightblue" points="584.05,-94.08 591.48,-86.52 580.96,-87.79 584.05,-94.08"/>
</g>
</g>
</svg>
