<?xml version="1.0" encoding="UTF-8" standalone="no"?>
<!DOCTYPE svg PUBLIC "-//W3C//DTD SVG 1.1//EN"
 "http://www.w3.org/Graphics/SVG/1.1/DTD/svg11.dtd">
<!-- Generated by graphviz version 2.43.0 (0)
 -->
<!-- Title: drake/multibody/contact_solvers/icf/eigen_pool.h Pages: 1 -->
<svg width="445pt" height="223pt"
 viewBox="0.00 0.00 444.92 222.84" xmlns="http://www.w3.org/2000/svg" xmlns:xlink="http://www.w3.org/1999/xlink">
<g id="graph0" class="graph" transform="scale(1 1) rotate(0) translate(4 218.84)">
<title>drake/multibody/contact_solvers/icf/eigen_pool.h</title>
<!-- Node1 -->
<g id="Node000001" class="node">
<title>Node1</title>
<g id="a_Node000001"><a xlink:title=" ">
<ellipse fill="#999999" stroke="#666666" cx="218.46" cy="-193.62" rx="96.75" ry="21.43"/>
<text text-anchor="start" x="157.96" y="-196.62" font-family="Helvetica,sans-Serif" font-size="10.00">drake/multibody/contact</text>
<text text-anchor="middle" x="218.46" y="-185.62" font-family="Helvetica,sans-Serif" font-size="10.00">_solvers/icf/eigen_pool.h</text>
</a>
</g>
</g>
<!-- Node2 -->
<g id="Node000002" class="node">
<title>Node2</title>
<g id="a_Node000002"><a xlink:href="icf__data_8h.html" target="_top" xlink:title=" ">
<ellipse fill="white" stroke="#666666" cx="95.46" cy="-107.42" rx="95.42" ry="21.43"/>
<text text-anchor="start" x="35.96" y="-110.42" font-family="Helvetica,sans-Serif" font-size="10.00">drake/multibody/contact</text>
<text text-anchor="middle" x="95.46" y="-99.42" font-family="Helvetica,sans-Serif" font-size="10.00">_solvers/icf/icf_data.h</text>
</a>
</g>
</g>
<!-- Node1&#45;&gt;Node2 -->
<g id="edge1_Node000001_Node000002" class="edge">
<title>Node1&#45;&gt;Node2</title>
<g id="a_edge1_Node000001_Node000002"><a xlink:title=" ">
<path fill="none" stroke="#63b8ff" d="M181.76,-167.5C163.26,-154.83 141.17,-139.71 123.97,-127.94"/>
<polygon fill="#63b8ff" stroke="#63b8ff" points="180.01,-170.54 190.24,-173.3 183.97,-164.77 180.01,-170.54"/>
</a>
</g>
</g>
<!-- Node3 -->
<g id="Node000003" class="node">
<title>Node3</title>
<g id="a_Node000003"><a xlink:href="icf__model_8h.html" target="_top" xlink:title=" ">
<ellipse fill="white" stroke="#666666" cx="218.46" cy="-21.21" rx="95.42" ry="21.43"/>
<text text-anchor="start" x="158.96" y="-24.21" font-family="Helvetica,sans-Serif" font-size="10.00">drake/multibody/contact</text>
<text text-anchor="middle" x="218.46" y="-13.21" font-family="Helvetica,sans-Serif" font-size="10.00">_solvers/icf/icf_model.h</text>
</a>
</g>
</g>
<!-- Node1&#45;&gt;Node3 -->
<g id="edge3_Node000001_Node000003" class="edge">
<title>Node1&#45;&gt;Node3</title>
<g id="a_edge3_Node000001_Node000003"><a xlink:title=" ">
<path fill="none" stroke="#63b8ff" d="M218.46,-161.98C218.46,-127.46 218.46,-72.32 218.46,-42.67"/>
<polygon fill="#63b8ff" stroke="#63b8ff" points="214.96,-162.4 218.46,-172.41 221.96,-162.41 214.96,-162.4"/>
</a>
</g>
</g>
<!-- Node4 -->
<g id="Node000004" class="node">
<title>Node4</title>
<g id="a_Node000004"><a xlink:href="icf__search__direction__data_8h.html" target="_top" xlink:title=" ">
<ellipse fill="white" stroke="#666666" cx="341.46" cy="-107.42" rx="95.42" ry="28.98"/>
<text text-anchor="start" x="281.96" y="-115.92" font-family="Helvetica,sans-Serif" font-size="10.00">drake/multibody/contact</text>
<text text-anchor="start" x="281.96" y="-104.92" font-family="Helvetica,sans-Serif" font-size="10.00">_solvers/icf/icf_search</text>
<text text-anchor="middle" x="341.46" y="-93.92" font-family="Helvetica,sans-Serif" font-size="10.00">_direction_data.h</text>
</a>
</g>
</g>
<!-- Node1&#45;&gt;Node4 -->
<g id="edge4_Node000001_Node000004" class="edge">
<title>Node1&#45;&gt;Node4</title>
<g id="a_edge4_Node000001_Node000004"><a xlink:title=" ">
<path fill="none" stroke="#63b8ff" d="M255.34,-167.38C270.58,-156.94 288.24,-144.85 303.58,-134.35"/>
<polygon fill="#63b8ff" stroke="#63b8ff" points="252.95,-164.77 246.68,-173.3 256.91,-170.54 252.95,-164.77"/>
</a>
</g>
</g>
<!-- Node2&#45;&gt;Node3 -->
<g id="edge2_Node000002_Node000003" class="edge">
<title>Node2&#45;&gt;Node3</title>
<g id="a_edge2_Node000002_Node000003"><a xlink:title=" ">
<path fill="none" stroke="#63b8ff" d="M132.16,-81.29C150.66,-68.63 172.75,-53.51 189.95,-41.73"/>
<polygon fill="#63b8ff" stroke="#63b8ff" points="129.95,-78.56 123.68,-87.1 133.91,-84.34 129.95,-78.56"/>
</a>
</g>
</g>
<!-- Node4&#45;&gt;Node3 -->
<g id="edge5_Node000004_Node000003" class="edge">
<title>Node4&#45;&gt;Node3</title>
<g id="a_edge5_Node000004_Node000003"><a xlink:title=" ">
<path fill="none" stroke="#63b8ff" d="M295.51,-74.96C279.17,-63.77 261.26,-51.51 246.82,-41.63"/>
<polygon fill="#63b8ff" stroke="#63b8ff" points="293.66,-77.94 303.89,-80.7 297.61,-72.16 293.66,-77.94"/>
</a>
</g>
</g>
</g>
</svg>
