<?xml version="1.0" encoding="UTF-8" standalone="no"?>
<!DOCTYPE svg PUBLIC "-//W3C//DTD SVG 1.1//EN"
 "http://www.w3.org/Graphics/SVG/1.1/DTD/svg11.dtd">
<!-- Generated by graphviz version 2.43.0 (0)
 -->
<!-- Title: drake/common/eigen_autodiff_types.h Pages: 1 -->
<svg width="1098pt" height="333pt"
 viewBox="0.00 0.00 1098.25 333.02" xmlns="http://www.w3.org/2000/svg" xmlns:xlink="http://www.w3.org/1999/xlink">
<g id="graph0" class="graph" transform="scale(1 1) rotate(0) translate(4 329.02)">
<title>drake/common/eigen_autodiff_types.h</title>
<!-- Node1 -->
<g id="Node000001" class="node">
<title>Node1</title>
<g id="a_Node000001"><a xlink:title="This file contains abbreviated definitions for certain uses of AutoDiffScalar that are commonly used ...">
<ellipse fill="#999999" stroke="#666666" cx="554.81" cy="-303.81" rx="84.29" ry="21.43"/>
<text text-anchor="start" x="503.31" y="-306.81" font-family="Helvetica,sans-Serif" font-size="10.00">drake/common/eigen</text>
<text text-anchor="middle" x="554.81" y="-295.81" font-family="Helvetica,sans-Serif" font-size="10.00">_autodiff_types.h</text>
</a>
</g>
</g>
<!-- Node2 -->
<g id="Node000002" class="node">
<title>Node2</title>
<g id="a_Node000002"><a xlink:title=" ">
<ellipse fill="#e0e0e0" stroke="#999999" cx="516.81" cy="-13.44" rx="48.58" ry="13.37"/>
<text text-anchor="middle" x="516.81" y="-10.94" font-family="Helvetica,sans-Serif" font-size="10.00">type_traits</text>
</a>
</g>
</g>
<!-- Node1&#45;&gt;Node2 -->
<g id="edge1_Node000001_Node000002" class="edge">
<title>Node1&#45;&gt;Node2</title>
<g id="a_edge1_Node000001_Node000002"><a xlink:title=" ">
<path fill="none" stroke="#63b8ff" d="M477.67,-295.31C341.22,-280.29 66.23,-241.47 8.81,-168.17 -2.82,-153.32 -3.02,-140.43 8.81,-125.74 64.97,-55.94 339.37,-27.47 459.87,-18.2"/>
<polygon fill="#63b8ff" stroke="#63b8ff" points="460.3,-21.67 470.01,-17.43 459.77,-14.69 460.3,-21.67"/>
</a>
</g>
</g>
<!-- Node3 -->
<g id="Node000003" class="node">
<title>Node3</title>
<g id="a_Node000003"><a xlink:title=" ">
<ellipse fill="#e0e0e0" stroke="#999999" cx="1035.81" cy="-146.95" rx="54.39" ry="13.37"/>
<text text-anchor="middle" x="1035.81" y="-144.45" font-family="Helvetica,sans-Serif" font-size="10.00">Eigen/Dense</text>
</a>
</g>
</g>
<!-- Node1&#45;&gt;Node3 -->
<g id="edge2_Node000001_Node000003" class="edge">
<title>Node1&#45;&gt;Node3</title>
<g id="a_edge2_Node000001_Node000003"><a xlink:title=" ">
<path fill="none" stroke="#63b8ff" d="M604.92,-286.67C700.49,-255.9 907.09,-189.39 994.94,-161.11"/>
<polygon fill="#63b8ff" stroke="#63b8ff" points="996.11,-164.41 1004.56,-158.01 993.97,-157.75 996.11,-164.41"/>
</a>
</g>
</g>
<!-- Node4 -->
<g id="Node000004" class="node">
<title>Node4</title>
<g id="a_Node000004"><a xlink:href="eigen__types_8h.html" target="_top" xlink:title="This file contains abbreviated definitions for certain specializations of Eigen::Matrix that are comm...">
<ellipse fill="white" stroke="#666666" cx="554.81" cy="-225.38" rx="84.29" ry="21.43"/>
<text text-anchor="start" x="503.31" y="-228.38" font-family="Helvetica,sans-Serif" font-size="10.00">drake/common/eigen</text>
<text text-anchor="middle" x="554.81" y="-217.38" font-family="Helvetica,sans-Serif" font-size="10.00">_types.h</text>
</a>
</g>
</g>
<!-- Node1&#45;&gt;Node4 -->
<g id="edge3_Node000001_Node000004" class="edge">
<title>Node1&#45;&gt;Node4</title>
<g id="a_edge3_Node000001_Node000004"><a xlink:title=" ">
<path fill="none" stroke="#63b8ff" d="M554.81,-282.33C554.81,-274.47 554.81,-265.32 554.81,-256.73"/>
<polygon fill="#63b8ff" stroke="#63b8ff" points="558.31,-256.65 554.81,-246.65 551.31,-256.65 558.31,-256.65"/>
</a>
</g>
</g>
<!-- Node4&#45;&gt;Node3 -->
<g id="edge6_Node000004_Node000003" class="edge">
<title>Node4&#45;&gt;Node3</title>
<g id="a_edge6_Node000004_Node000003"><a xlink:title=" ">
<path fill="none" stroke="#63b8ff" d="M633.52,-217.84C717.9,-209.88 855.42,-194.19 971.81,-168.17 979.97,-166.34 988.59,-163.95 996.77,-161.45"/>
<polygon fill="#63b8ff" stroke="#63b8ff" points="997.98,-164.74 1006.46,-158.39 995.87,-158.07 997.98,-164.74"/>
</a>
</g>
</g>
<!-- Node5 -->
<g id="Node000005" class="node">
<title>Node5</title>
<g id="a_Node000005"><a xlink:title=" ">
<ellipse fill="#e0e0e0" stroke="#999999" cx="925.81" cy="-146.95" rx="37.45" ry="13.37"/>
<text text-anchor="middle" x="925.81" y="-144.45" font-family="Helvetica,sans-Serif" font-size="10.00">iterator</text>
</a>
</g>
</g>
<!-- Node4&#45;&gt;Node5 -->
<g id="edge4_Node000004_Node000005" class="edge">
<title>Node4&#45;&gt;Node5</title>
<g id="a_edge4_Node000004_Node000005"><a xlink:title=" ">
<path fill="none" stroke="#63b8ff" d="M631.21,-216.48C697.84,-208.34 796.61,-193.23 879.81,-168.17 885.13,-166.56 890.66,-164.5 895.95,-162.32"/>
<polygon fill="#63b8ff" stroke="#63b8ff" points="897.37,-165.51 905.14,-158.31 894.58,-159.1 897.37,-165.51"/>
</a>
</g>
</g>
<!-- Node6 -->
<g id="Node000006" class="node">
<title>Node6</title>
<g id="a_Node000006"><a xlink:title=" ">
<ellipse fill="#e0e0e0" stroke="#999999" cx="380.81" cy="-76.31" rx="31.64" ry="13.37"/>
<text text-anchor="middle" x="380.81" y="-73.81" font-family="Helvetica,sans-Serif" font-size="10.00">utility</text>
</a>
</g>
</g>
<!-- Node4&#45;&gt;Node6 -->
<g id="edge5_Node000004_Node000006" class="edge">
<title>Node4&#45;&gt;Node6</title>
<g id="a_edge5_Node000004_Node000006"><a xlink:title=" ">
<path fill="none" stroke="#63b8ff" d="M519.14,-206.14C501.1,-196.11 479.36,-182.75 461.81,-168.17 460.89,-167.41 421.46,-123.07 397.96,-96.62"/>
<polygon fill="#63b8ff" stroke="#63b8ff" points="400.5,-94.21 391.24,-89.05 395.26,-98.86 400.5,-94.21"/>
</a>
</g>
</g>
<!-- Node7 -->
<g id="Node000007" class="node">
<title>Node7</title>
<g id="a_Node000007"><a xlink:href="constants_8h.html" target="_top" xlink:title=" ">
<ellipse fill="white" stroke="#666666" cx="122.81" cy="-146.95" rx="105.22" ry="13.37"/>
<text text-anchor="middle" x="122.81" y="-144.45" font-family="Helvetica,sans-Serif" font-size="10.00">drake/common/constants.h</text>
</a>
</g>
</g>
<!-- Node4&#45;&gt;Node7 -->
<g id="edge7_Node000004_Node000007" class="edge">
<title>Node4&#45;&gt;Node7</title>
<g id="a_edge7_Node000004_Node000007"><a xlink:title=" ">
<path fill="none" stroke="#63b8ff" d="M487.78,-212.52C406.98,-198.23 271.97,-174.34 190.76,-159.98"/>
<polygon fill="#63b8ff" stroke="#63b8ff" points="191.1,-156.48 180.64,-158.19 189.88,-163.37 191.1,-156.48"/>
</a>
</g>
</g>
<!-- Node8 -->
<g id="Node000008" class="node">
<title>Node8</title>
<g id="a_Node000008"><a xlink:href="drake__assert_8h.html" target="_top" xlink:title="Provides Drake&#39;s assertion mechanics.">
<ellipse fill="white" stroke="#666666" cx="554.81" cy="-146.95" rx="84.29" ry="21.43"/>
<text text-anchor="start" x="503.31" y="-149.95" font-family="Helvetica,sans-Serif" font-size="10.00">drake/common/drake</text>
<text text-anchor="middle" x="554.81" y="-138.95" font-family="Helvetica,sans-Serif" font-size="10.00">_assert.h</text>
</a>
</g>
</g>
<!-- Node4&#45;&gt;Node8 -->
<g id="edge8_Node000004_Node000008" class="edge">
<title>Node4&#45;&gt;Node8</title>
<g id="a_edge8_Node000004_Node000008"><a xlink:title=" ">
<path fill="none" stroke="#63b8ff" d="M554.81,-203.9C554.81,-196.04 554.81,-186.9 554.81,-178.31"/>
<polygon fill="#63b8ff" stroke="#63b8ff" points="558.31,-178.23 554.81,-168.23 551.31,-178.23 558.31,-178.23"/>
</a>
</g>
</g>
<!-- Node12 -->
<g id="Node000012" class="node">
<title>Node12</title>
<g id="a_Node000012"><a xlink:href="drake__copyable_8h.html" target="_top" xlink:title="Provides careful macros to selectively enable or disable the special member functions for copy&#45;constr...">
<ellipse fill="white" stroke="#666666" cx="330.81" cy="-146.95" rx="84.29" ry="21.43"/>
<text text-anchor="start" x="279.31" y="-149.95" font-family="Helvetica,sans-Serif" font-size="10.00">drake/common/drake</text>
<text text-anchor="middle" x="330.81" y="-138.95" font-family="Helvetica,sans-Serif" font-size="10.00">_copyable.h</text>
</a>
</g>
</g>
<!-- Node4&#45;&gt;Node12 -->
<g id="edge14_Node000004_Node000012" class="edge">
<title>Node4&#45;&gt;Node12</title>
<g id="a_edge14_Node000004_Node000012"><a xlink:title=" ">
<path fill="none" stroke="#63b8ff" d="M506.48,-207.89C471.88,-196.09 425.16,-180.15 388.59,-167.67"/>
<polygon fill="#63b8ff" stroke="#63b8ff" points="389.64,-164.33 379.05,-164.41 387.38,-170.95 389.64,-164.33"/>
</a>
</g>
</g>
<!-- Node13 -->
<g id="Node000013" class="node">
<title>Node13</title>
<g id="a_Node000013"><a xlink:href="fmt__eigen_8h.html" target="_top" xlink:title=" ">
<ellipse fill="white" stroke="#666666" cx="763.81" cy="-146.95" rx="106.55" ry="13.37"/>
<text text-anchor="middle" x="763.81" y="-144.45" font-family="Helvetica,sans-Serif" font-size="10.00">drake/common/fmt_eigen.h</text>
</a>
</g>
</g>
<!-- Node4&#45;&gt;Node13 -->
<g id="edge15_Node000004_Node000013" class="edge">
<title>Node4&#45;&gt;Node13</title>
<g id="a_edge15_Node000004_Node000013"><a xlink:title=" ">
<path fill="none" stroke="#63b8ff" d="M600.93,-207.51C637.08,-194.29 686.95,-176.06 721.96,-163.26"/>
<polygon fill="#63b8ff" stroke="#63b8ff" points="723.22,-166.52 731.41,-159.8 720.82,-159.95 723.22,-166.52"/>
</a>
</g>
</g>
<!-- Node8&#45;&gt;Node2 -->
<g id="edge12_Node000008_Node000002" class="edge">
<title>Node8&#45;&gt;Node2</title>
<g id="a_edge12_Node000008_Node000002"><a xlink:title=" ">
<path fill="none" stroke="#63b8ff" d="M548.95,-125.69C541.99,-101.61 530.42,-61.55 523.22,-36.64"/>
<polygon fill="#63b8ff" stroke="#63b8ff" points="526.57,-35.62 520.43,-26.99 519.85,-37.57 526.57,-35.62"/>
</a>
</g>
</g>
<!-- Node8&#45;&gt;Node6 -->
<g id="edge13_Node000008_Node000006" class="edge">
<title>Node8&#45;&gt;Node6</title>
<g id="a_edge13_Node000008_Node000006"><a xlink:title=" ">
<path fill="none" stroke="#63b8ff" d="M510.9,-128.63C480.23,-116.53 440.01,-100.66 412.46,-89.79"/>
<polygon fill="#63b8ff" stroke="#63b8ff" points="413.51,-86.44 402.92,-86.03 410.94,-92.96 413.51,-86.44"/>
</a>
</g>
</g>
<!-- Node9 -->
<g id="Node000009" class="node">
<title>Node9</title>
<g id="a_Node000009"><a xlink:title=" ">
<ellipse fill="#e0e0e0" stroke="#999999" cx="612.81" cy="-76.31" rx="29.9" ry="13.37"/>
<text text-anchor="middle" x="612.81" y="-73.81" font-family="Helvetica,sans-Serif" font-size="10.00">array</text>
</a>
</g>
</g>
<!-- Node8&#45;&gt;Node9 -->
<g id="edge9_Node000008_Node000009" class="edge">
<title>Node8&#45;&gt;Node9</title>
<g id="a_edge9_Node000008_Node000009"><a xlink:title=" ">
<path fill="none" stroke="#63b8ff" d="M571.58,-126.1C579.27,-117 588.35,-106.25 596.04,-97.15"/>
<polygon fill="#63b8ff" stroke="#63b8ff" points="598.84,-99.26 602.62,-89.36 593.49,-94.74 598.84,-99.26"/>
</a>
</g>
</g>
<!-- Node10 -->
<g id="Node000010" class="node">
<title>Node10</title>
<g id="a_Node000010"><a xlink:title=" ">
<ellipse fill="#e0e0e0" stroke="#999999" cx="670.81" cy="-13.44" rx="31.23" ry="13.37"/>
<text text-anchor="middle" x="670.81" y="-10.94" font-family="Helvetica,sans-Serif" font-size="10.00">string</text>
</a>
</g>
</g>
<!-- Node8&#45;&gt;Node10 -->
<g id="edge10_Node000008_Node000010" class="edge">
<title>Node8&#45;&gt;Node10</title>
<g id="a_edge10_Node000008_Node000010"><a xlink:title=" ">
<path fill="none" stroke="#63b8ff" d="M554.74,-125.43C555.71,-107.21 559.72,-80.78 573.81,-62.87 589.07,-43.45 614.17,-31.22 635.01,-23.9"/>
<polygon fill="#63b8ff" stroke="#63b8ff" points="636.12,-27.22 644.54,-20.78 633.95,-20.57 636.12,-27.22"/>
</a>
</g>
</g>
<!-- Node11 -->
<g id="Node000011" class="node">
<title>Node11</title>
<g id="a_Node000011"><a xlink:title=" ">
<ellipse fill="#e0e0e0" stroke="#999999" cx="459.81" cy="-76.31" rx="28.98" ry="13.37"/>
<text text-anchor="middle" x="459.81" y="-73.81" font-family="Helvetica,sans-Serif" font-size="10.00">tuple</text>
</a>
</g>
</g>
<!-- Node8&#45;&gt;Node11 -->
<g id="edge11_Node000008_Node000011" class="edge">
<title>Node8&#45;&gt;Node11</title>
<g id="a_edge11_Node000008_Node000011"><a xlink:title=" ">
<path fill="none" stroke="#63b8ff" d="M528.09,-126.65C513.86,-116.37 496.54,-103.85 482.9,-93.99"/>
<polygon fill="#63b8ff" stroke="#63b8ff" points="484.7,-90.97 474.54,-87.95 480.6,-96.65 484.7,-90.97"/>
</a>
</g>
</g>
<!-- Node13&#45;&gt;Node10 -->
<g id="edge16_Node000013_Node000010" class="edge">
<title>Node13&#45;&gt;Node10</title>
<g id="a_edge16_Node000013_Node000010"><a xlink:title=" ">
<path fill="none" stroke="#63b8ff" d="M740.37,-133.81C723.83,-124.06 702.44,-108.85 689.81,-89.74 679.35,-73.93 674.65,-52.78 672.54,-36.92"/>
<polygon fill="#63b8ff" stroke="#63b8ff" points="676.01,-36.48 671.45,-26.91 669.05,-37.23 676.01,-36.48"/>
</a>
</g>
</g>
<!-- Node14 -->
<g id="Node000014" class="node">
<title>Node14</title>
<g id="a_Node000014"><a xlink:title=" ">
<ellipse fill="#e0e0e0" stroke="#999999" cx="958.81" cy="-13.44" rx="51.74" ry="13.37"/>
<text text-anchor="middle" x="958.81" y="-10.94" font-family="Helvetica,sans-Serif" font-size="10.00">string_view</text>
</a>
</g>
</g>
<!-- Node13&#45;&gt;Node14 -->
<g id="edge17_Node000013_Node000014" class="edge">
<title>Node13&#45;&gt;Node14</title>
<g id="a_edge17_Node000013_Node000014"><a xlink:title=" ">
<path fill="none" stroke="#63b8ff" d="M821.22,-135.59C885.22,-123.45 981.18,-103.3 991.81,-89.74 1004.85,-73.09 991.74,-50.49 978.38,-34.4"/>
<polygon fill="#63b8ff" stroke="#63b8ff" points="980.76,-31.81 971.51,-26.65 975.52,-36.45 980.76,-31.81"/>
</a>
</g>
</g>
<!-- Node15 -->
<g id="Node000015" class="node">
<title>Node15</title>
<g id="a_Node000015"><a xlink:title=" ">
<ellipse fill="#e0e0e0" stroke="#999999" cx="933.81" cy="-76.31" rx="48.58" ry="13.37"/>
<text text-anchor="middle" x="933.81" y="-73.81" font-family="Helvetica,sans-Serif" font-size="10.00">Eigen/Core</text>
</a>
</g>
</g>
<!-- Node13&#45;&gt;Node15 -->
<g id="edge18_Node000013_Node000015" class="edge">
<title>Node13&#45;&gt;Node15</title>
<g id="a_edge18_Node000013_Node000015"><a xlink:title=" ">
<path fill="none" stroke="#63b8ff" d="M793.42,-134C822.6,-122.21 867.22,-104.19 898.29,-91.65"/>
<polygon fill="#63b8ff" stroke="#63b8ff" points="899.91,-94.77 907.87,-87.78 897.29,-88.28 899.91,-94.77"/>
</a>
</g>
</g>
<!-- Node16 -->
<g id="Node000016" class="node">
<title>Node16</title>
<g id="a_Node000016"><a xlink:href="fmt_8h.html" target="_top" xlink:title=" ">
<ellipse fill="white" stroke="#666666" cx="782.81" cy="-76.31" rx="84.29" ry="13.37"/>
<text text-anchor="middle" x="782.81" y="-73.81" font-family="Helvetica,sans-Serif" font-size="10.00">drake/common/fmt.h</text>
</a>
</g>
</g>
<!-- Node13&#45;&gt;Node16 -->
<g id="edge19_Node000013_Node000016" class="edge">
<title>Node13&#45;&gt;Node16</title>
<g id="a_edge19_Node000013_Node000016"><a xlink:title=" ">
<path fill="none" stroke="#63b8ff" d="M767.29,-133.36C769.89,-123.98 773.51,-110.91 776.59,-99.75"/>
<polygon fill="#63b8ff" stroke="#63b8ff" points="780.05,-100.39 779.34,-89.82 773.3,-98.52 780.05,-100.39"/>
</a>
</g>
</g>
<!-- Node16&#45;&gt;Node2 -->
<g id="edge22_Node000016_Node000002" class="edge">
<title>Node16&#45;&gt;Node2</title>
<g id="a_edge22_Node000016_Node000002"><a xlink:title=" ">
<path fill="none" stroke="#63b8ff" d="M737.38,-64.91C688.62,-53.75 611.58,-36.12 562.66,-24.93"/>
<polygon fill="#63b8ff" stroke="#63b8ff" points="563.19,-21.46 552.66,-22.64 561.63,-28.28 563.19,-21.46"/>
</a>
</g>
</g>
<!-- Node16&#45;&gt;Node10 -->
<g id="edge20_Node000016_Node000010" class="edge">
<title>Node16&#45;&gt;Node10</title>
<g id="a_edge20_Node000016_Node000010"><a xlink:title=" ">
<path fill="none" stroke="#63b8ff" d="M760.68,-63.28C742.71,-53.51 717.28,-39.7 698.06,-29.25"/>
<polygon fill="#63b8ff" stroke="#63b8ff" points="699.64,-26.12 689.18,-24.42 696.3,-32.27 699.64,-26.12"/>
</a>
</g>
</g>
<!-- Node16&#45;&gt;Node14 -->
<g id="edge21_Node000016_Node000014" class="edge">
<title>Node16&#45;&gt;Node14</title>
<g id="a_edge21_Node000016_Node000014"><a xlink:title=" ">
<path fill="none" stroke="#63b8ff" d="M815.91,-63.86C845.38,-53.66 888.53,-38.74 919.69,-27.96"/>
<polygon fill="#63b8ff" stroke="#63b8ff" points="921.05,-31.2 929.36,-24.62 918.76,-24.58 921.05,-31.2"/>
</a>
</g>
</g>
<!-- Node17 -->
<g id="Node000017" class="node">
<title>Node17</title>
<g id="a_Node000017"><a xlink:title=" ">
<ellipse fill="#e0e0e0" stroke="#999999" cx="782.81" cy="-13.44" rx="55.72" ry="13.37"/>
<text text-anchor="middle" x="782.81" y="-10.94" font-family="Helvetica,sans-Serif" font-size="10.00">fmt/format.h</text>
</a>
</g>
</g>
<!-- Node16&#45;&gt;Node17 -->
<g id="edge23_Node000016_Node000017" class="edge">
<title>Node16&#45;&gt;Node17</title>
<g id="a_edge23_Node000016_Node000017"><a xlink:title=" ">
<path fill="none" stroke="#63b8ff" d="M782.81,-62.69C782.81,-55.35 782.81,-45.86 782.81,-37.25"/>
<polygon fill="#63b8ff" stroke="#63b8ff" points="786.31,-37.03 782.81,-27.03 779.31,-37.03 786.31,-37.03"/>
</a>
</g>
</g>
</g>
</svg>
