<?xml version="1.0" encoding="UTF-8" standalone="no"?>
<!DOCTYPE svg PUBLIC "-//W3C//DTD SVG 1.1//EN"
 "http://www.w3.org/Graphics/SVG/1.1/DTD/svg11.dtd">
<!-- Generated by graphviz version 2.43.0 (0)
 -->
<!-- Title: drake/common/symbolic/expression/expression_visitor.h Pages: 1 -->
<svg width="384pt" height="173pt"
 viewBox="0.00 0.00 384.00 173.00" xmlns="http://www.w3.org/2000/svg" xmlns:xlink="http://www.w3.org/1999/xlink">
<g id="graph0" class="graph" transform="scale(1 1) rotate(0) translate(4 169)">
<title>drake/common/symbolic/expression/expression_visitor.h</title>
<polygon fill="white" stroke="transparent" points="-4,4 -4,-169 380,-169 380,4 -4,4"/>
<!-- Node0 -->
<g id="node1" class="node">
<title>Node0</title>
<g id="a_node1"><a xlink:title=" ">
<polygon fill="#bfbfbf" stroke="black" points="25,-123.5 25,-164.5 162,-164.5 162,-123.5 25,-123.5"/>
<text text-anchor="start" x="33" y="-152.5" font-family="Helvetica,sans-Serif" font-size="10.00">drake/common/symbolic</text>
<text text-anchor="start" x="33" y="-141.5" font-family="Helvetica,sans-Serif" font-size="10.00">/expression/expression</text>
<text text-anchor="middle" x="93.5" y="-130.5" font-family="Helvetica,sans-Serif" font-size="10.00">_visitor.h</text>
</a>
</g>
</g>
<!-- Node1 -->
<g id="node2" class="node">
<title>Node1</title>
<g id="a_node2"><a xlink:title=" ">
<polygon fill="white" stroke="#bfbfbf" points="0,-62 0,-81 65,-81 65,-62 0,-62"/>
<text text-anchor="middle" x="32.5" y="-69" font-family="Helvetica,sans-Serif" font-size="10.00">stdexcept</text>
</a>
</g>
</g>
<!-- Node0&#45;&gt;Node1 -->
<g id="edge1" class="edge">
<title>Node0&#45;&gt;Node1</title>
<path fill="none" stroke="midnightblue" d="M76.51,-123.36C67.14,-112.54 55.65,-99.26 46.76,-88.98"/>
<polygon fill="midnightblue" stroke="midnightblue" points="49.19,-86.45 40,-81.17 43.9,-91.03 49.19,-86.45"/>
</g>
<!-- Node2 -->
<g id="node3" class="node">
<title>Node2</title>
<g id="a_node3"><a xlink:title=" ">
<polygon fill="white" stroke="#bfbfbf" points="62,-0.5 62,-19.5 107,-19.5 107,-0.5 62,-0.5"/>
<text text-anchor="middle" x="84.5" y="-7.5" font-family="Helvetica,sans-Serif" font-size="10.00">utility</text>
</a>
</g>
</g>
<!-- Node0&#45;&gt;Node2 -->
<g id="edge2" class="edge">
<title>Node0&#45;&gt;Node2</title>
<path fill="none" stroke="midnightblue" d="M92.15,-123.24C90.43,-98.03 87.48,-54.74 85.79,-29.93"/>
<polygon fill="midnightblue" stroke="midnightblue" points="89.26,-29.42 85.09,-19.69 82.28,-29.9 89.26,-29.42"/>
</g>
<!-- Node3 -->
<g id="node4" class="node">
<title>Node3</title>
<g id="a_node4"><a xlink:href="drake__assert_8h.html" target="_top" xlink:title="Provides Drake&#39;s assertion mechanics.">
<polygon fill="white" stroke="black" points="139,-56.5 139,-86.5 258,-86.5 258,-56.5 139,-56.5"/>
<text text-anchor="start" x="147" y="-74.5" font-family="Helvetica,sans-Serif" font-size="10.00">drake/common/drake</text>
<text text-anchor="middle" x="198.5" y="-63.5" font-family="Helvetica,sans-Serif" font-size="10.00">_assert.h</text>
</a>
</g>
</g>
<!-- Node0&#45;&gt;Node3 -->
<g id="edge3" class="edge">
<title>Node0&#45;&gt;Node3</title>
<path fill="none" stroke="midnightblue" d="M122.75,-123.36C137.12,-113.71 154.41,-102.11 168.83,-92.42"/>
<polygon fill="midnightblue" stroke="midnightblue" points="171.04,-95.15 177.4,-86.67 167.14,-89.34 171.04,-95.15"/>
</g>
<!-- Node3&#45;&gt;Node2 -->
<g id="edge8" class="edge">
<title>Node3&#45;&gt;Node2</title>
<path fill="none" stroke="midnightblue" d="M171.48,-56.4C152.87,-46.68 128.29,-33.86 110.01,-24.31"/>
<polygon fill="midnightblue" stroke="midnightblue" points="111.57,-21.18 101.09,-19.66 108.33,-27.39 111.57,-21.18"/>
</g>
<!-- Node4 -->
<g id="node5" class="node">
<title>Node4</title>
<g id="a_node5"><a xlink:title=" ">
<polygon fill="white" stroke="#bfbfbf" points="125.5,-0.5 125.5,-19.5 167.5,-19.5 167.5,-0.5 125.5,-0.5"/>
<text text-anchor="middle" x="146.5" y="-7.5" font-family="Helvetica,sans-Serif" font-size="10.00">array</text>
</a>
</g>
</g>
<!-- Node3&#45;&gt;Node4 -->
<g id="edge4" class="edge">
<title>Node3&#45;&gt;Node4</title>
<path fill="none" stroke="midnightblue" d="M186.18,-56.4C178.54,-47.66 168.71,-36.41 160.74,-27.3"/>
<polygon fill="midnightblue" stroke="midnightblue" points="163.28,-24.88 154.07,-19.66 158.01,-29.49 163.28,-24.88"/>
</g>
<!-- Node5 -->
<g id="node6" class="node">
<title>Node5</title>
<g id="a_node6"><a xlink:title=" ">
<polygon fill="white" stroke="#bfbfbf" points="185.5,-0.5 185.5,-19.5 229.5,-19.5 229.5,-0.5 185.5,-0.5"/>
<text text-anchor="middle" x="207.5" y="-7.5" font-family="Helvetica,sans-Serif" font-size="10.00">string</text>
</a>
</g>
</g>
<!-- Node3&#45;&gt;Node5 -->
<g id="edge5" class="edge">
<title>Node3&#45;&gt;Node5</title>
<path fill="none" stroke="midnightblue" d="M200.63,-56.4C201.85,-48.38 203.38,-38.23 204.69,-29.57"/>
<polygon fill="midnightblue" stroke="midnightblue" points="208.16,-30.07 206.19,-19.66 201.23,-29.02 208.16,-30.07"/>
</g>
<!-- Node6 -->
<g id="node7" class="node">
<title>Node6</title>
<g id="a_node7"><a xlink:title=" ">
<polygon fill="white" stroke="#bfbfbf" points="248,-0.5 248,-19.5 289,-19.5 289,-0.5 248,-0.5"/>
<text text-anchor="middle" x="268.5" y="-7.5" font-family="Helvetica,sans-Serif" font-size="10.00">tuple</text>
</a>
</g>
</g>
<!-- Node3&#45;&gt;Node6 -->
<g id="edge6" class="edge">
<title>Node3&#45;&gt;Node6</title>
<path fill="none" stroke="midnightblue" d="M215.09,-56.4C225.79,-47.31 239.69,-35.49 250.63,-26.19"/>
<polygon fill="midnightblue" stroke="midnightblue" points="252.96,-28.8 258.31,-19.66 248.43,-23.47 252.96,-28.8"/>
</g>
<!-- Node7 -->
<g id="node8" class="node">
<title>Node7</title>
<g id="a_node8"><a xlink:title=" ">
<polygon fill="white" stroke="#bfbfbf" points="307,-0.5 307,-19.5 376,-19.5 376,-0.5 307,-0.5"/>
<text text-anchor="middle" x="341.5" y="-7.5" font-family="Helvetica,sans-Serif" font-size="10.00">type_traits</text>
</a>
</g>
</g>
<!-- Node3&#45;&gt;Node7 -->
<g id="edge7" class="edge">
<title>Node3&#45;&gt;Node7</title>
<path fill="none" stroke="midnightblue" d="M232.39,-56.4C256.38,-46.42 288.27,-33.15 311.38,-23.53"/>
<polygon fill="midnightblue" stroke="midnightblue" points="312.8,-26.73 320.69,-19.66 310.11,-20.27 312.8,-26.73"/>
</g>
</g>
</svg>
