<?xml version="1.0" encoding="UTF-8" standalone="no"?>
<!DOCTYPE svg PUBLIC "-//W3C//DTD SVG 1.1//EN"
 "http://www.w3.org/Graphics/SVG/1.1/DTD/svg11.dtd">
<!-- Generated by graphviz version 2.43.0 (0)
 -->
<!-- Title: drake/common/symbolic/expression/expression.h Pages: 1 -->
<!--zoomable 374 -->
<svg id="main" version="1.1" xmlns="http://www.w3.org/2000/svg" xmlns:xlink="http://www.w3.org/1999/xlink" xml:space="preserve" onload="init(evt)">
<style type="text/css"><![CDATA[
.edge:hover path { stroke: red; }
.edge:hover polygon { stroke: red; fill: red; }
]]></style>
<script type="text/javascript"><![CDATA[
var edges = document.getElementsByTagName('g');
if (edges && edges.length) {
  for (var i=0;i<edges.length;i++) {
    if (edges[i].id.substr(0,4)=='edge') {
      edges[i].setAttribute('class','edge');
    }
  }
}
]]></script>
        <defs>
                <circle id="rim" cx="0" cy="0" r="7"/>
                <circle id="rim2" cx="0" cy="0" r="3.5"/>
                <g id="zoomPlus">
                        <use xlink:href="#rim" fill="#404040">
                                <set attributeName="fill" to="#808080" begin="zoomplus.mouseover" end="zoomplus.mouseout"/>
                        </use>
                        <path d="M-4,0h8M0,-4v8" fill="none" stroke="white" stroke-width="1.5" pointer-events="none"/>
                </g>
                <g id="zoomMin">
                        <use xlink:href="#rim" fill="#404040">
                                <set attributeName="fill" to="#808080" begin="zoomminus.mouseover" end="zoomminus.mouseout"/>
                        </use>
                        <path d="M-4,0h8" fill="none" stroke="white" stroke-width="1.5" pointer-events="none"/>
                </g>
                <g id="dirArrow">
                        <path fill="none" stroke="white" stroke-width="1.5" d="M0,-3.0v7 M-2.5,-0.5L0,-3.0L2.5,-0.5"/>
                </g>
               <g id="resetDef">
                       <use xlink:href="#rim2" fill="#404040">
                               <set attributeName="fill" to="#808080" begin="reset.mouseover" end="reset.mouseout"/>
                       </use>
               </g>
        </defs>

<script type="text/javascript">
var viewWidth = 2017;
var viewHeight = 374;
var sectionId = 'dynsection-0';
</script>
<script xlink:href="svgpan.js"/>
<svg id="graph" class="graph">
<g id="viewport">
<title>drake/common/symbolic/expression/expression.h</title>
<polygon fill="white" stroke="transparent" points="-4,4 -4,-370 2013,-370 2013,4 -4,4"/>
<!-- Node0 -->
<g id="node1" class="node">
<title>Node0</title>
<g id="a_node1"><a xlink:title=" ">
<polygon fill="#bfbfbf" stroke="black" points="792.5,-335.5 792.5,-365.5 930.5,-365.5 930.5,-335.5 792.5,-335.5"/>
<text text-anchor="start" x="800.5" y="-353.5" font-family="Helvetica,sans-Serif" font-size="10.00">drake/common/symbolic</text>
<text text-anchor="middle" x="861.5" y="-342.5" font-family="Helvetica,sans-Serif" font-size="10.00">/expression/expression.h</text>
</a>
</g>
</g>
<!-- Node1 -->
<g id="node2" class="node">
<title>Node1</title>
<g id="a_node2"><a xlink:title=" ">
<polygon fill="white" stroke="#bfbfbf" points="111.5,-274 111.5,-293 175.5,-293 175.5,-274 111.5,-274"/>
<text text-anchor="middle" x="143.5" y="-281" font-family="Helvetica,sans-Serif" font-size="10.00">algorithm</text>
</a>
</g>
</g>
<!-- Node0&#45;&gt;Node1 -->
<g id="edge1" class="edge">
<title>Node0&#45;&gt;Node1</title>
<path fill="none" stroke="midnightblue" d="M792.12,-349.52C669.44,-348.41 406.63,-340.8 189.5,-299 185.34,-298.2 181.02,-297.15 176.78,-295.98"/>
<polygon fill="midnightblue" stroke="midnightblue" points="177.69,-292.6 167.11,-293.09 175.69,-299.3 177.69,-292.6"/>
</g>
<!-- Node2 -->
<g id="node3" class="node">
<title>Node2</title>
<g id="a_node3"><a xlink:title=" ">
<polygon fill="white" stroke="#bfbfbf" points="304,-140 304,-159 351,-159 351,-140 304,-140"/>
<text text-anchor="middle" x="327.5" y="-147" font-family="Helvetica,sans-Serif" font-size="10.00">cmath</text>
</a>
</g>
</g>
<!-- Node0&#45;&gt;Node2 -->
<g id="edge2" class="edge">
<title>Node0&#45;&gt;Node2</title>
<path fill="none" stroke="midnightblue" d="M792.2,-348.71C684.15,-346.32 481.66,-336.75 421.5,-299 372.27,-268.11 344.26,-200.98 333.15,-168.64"/>
<polygon fill="midnightblue" stroke="midnightblue" points="336.46,-167.52 330.02,-159.11 329.81,-169.7 336.46,-167.52"/>
</g>
<!-- Node3 -->
<g id="node4" class="node">
<title>Node3</title>
<g id="a_node4"><a xlink:title=" ">
<polygon fill="white" stroke="#bfbfbf" points="1011,-140 1011,-159 1064,-159 1064,-140 1011,-140"/>
<text text-anchor="middle" x="1037.5" y="-147" font-family="Helvetica,sans-Serif" font-size="10.00">cstddef</text>
</a>
</g>
</g>
<!-- Node0&#45;&gt;Node3 -->
<g id="edge3" class="edge">
<title>Node0&#45;&gt;Node3</title>
<path fill="none" stroke="midnightblue" d="M930.95,-338.08C973.64,-329.48 1022.56,-316.23 1035.5,-299 1088.91,-227.89 956.77,-289.88 913.5,-232 905.25,-220.96 905.81,-212.43 913.5,-201 923.73,-185.79 968.4,-170.16 1001.21,-160.39"/>
<polygon fill="midnightblue" stroke="midnightblue" points="1002.33,-163.71 1010.96,-157.56 1000.38,-156.99 1002.33,-163.71"/>
</g>
<!-- Node4 -->
<g id="node5" class="node">
<title>Node4</title>
<g id="a_node5"><a xlink:title=" ">
<polygon fill="white" stroke="#bfbfbf" points="182,-140 182,-159 247,-159 247,-140 182,-140"/>
<text text-anchor="middle" x="214.5" y="-147" font-family="Helvetica,sans-Serif" font-size="10.00">functional</text>
</a>
</g>
</g>
<!-- Node0&#45;&gt;Node4 -->
<g id="edge4" class="edge">
<title>Node0&#45;&gt;Node4</title>
<path fill="none" stroke="midnightblue" d="M792.35,-347.84C644.21,-343.68 306.27,-330.79 265.5,-299 244.65,-282.74 226.11,-205.84 218.36,-169.55"/>
<polygon fill="midnightblue" stroke="midnightblue" points="221.69,-168.4 216.23,-159.32 214.84,-169.82 221.69,-168.4"/>
</g>
<!-- Node5 -->
<g id="node6" class="node">
<title>Node5</title>
<g id="a_node6"><a xlink:title=" ">
<polygon fill="white" stroke="#bfbfbf" points="499.5,-207 499.5,-226 543.5,-226 543.5,-207 499.5,-207"/>
<text text-anchor="middle" x="521.5" y="-214" font-family="Helvetica,sans-Serif" font-size="10.00">limits</text>
</a>
</g>
</g>
<!-- Node0&#45;&gt;Node5 -->
<g id="edge5" class="edge">
<title>Node0&#45;&gt;Node5</title>
<path fill="none" stroke="midnightblue" d="M792.42,-345.03C689.86,-337.68 507.23,-321.57 487.5,-299 470.85,-279.95 489.79,-251.6 505.36,-233.85"/>
<polygon fill="midnightblue" stroke="midnightblue" points="508.33,-235.79 512.56,-226.08 503.19,-231.04 508.33,-235.79"/>
</g>
<!-- Node6 -->
<g id="node7" class="node">
<title>Node6</title>
<g id="a_node7"><a xlink:title=" ">
<polygon fill="white" stroke="#bfbfbf" points="369.5,-140 369.5,-159 407.5,-159 407.5,-140 369.5,-140"/>
<text text-anchor="middle" x="388.5" y="-147" font-family="Helvetica,sans-Serif" font-size="10.00">map</text>
</a>
</g>
</g>
<!-- Node0&#45;&gt;Node6 -->
<g id="edge6" class="edge">
<title>Node0&#45;&gt;Node6</title>
<path fill="none" stroke="midnightblue" d="M792.44,-349.15C689.87,-347.29 503.75,-338.4 451.5,-299 409.48,-267.32 395.2,-202.13 390.58,-169.7"/>
<polygon fill="midnightblue" stroke="midnightblue" points="394,-168.84 389.28,-159.35 387.06,-169.71 394,-168.84"/>
</g>
<!-- Node7 -->
<g id="node8" class="node">
<title>Node7</title>
<g id="a_node8"><a xlink:title=" ">
<polygon fill="white" stroke="#bfbfbf" points="1348.5,-140 1348.5,-159 1406.5,-159 1406.5,-140 1348.5,-140"/>
<text text-anchor="middle" x="1377.5" y="-147" font-family="Helvetica,sans-Serif" font-size="10.00">memory</text>
</a>
</g>
</g>
<!-- Node0&#45;&gt;Node7 -->
<g id="edge7" class="edge">
<title>Node0&#45;&gt;Node7</title>
<path fill="none" stroke="midnightblue" d="M930.69,-349.82C1093.89,-348.83 1494.46,-335.69 1565.5,-232 1629.06,-139.22 1518.75,-196.24 1416.5,-165 1413.93,-164.22 1411.29,-163.35 1408.65,-162.45"/>
<polygon fill="midnightblue" stroke="midnightblue" points="1409.8,-159.15 1399.21,-159.09 1407.45,-165.74 1409.8,-159.15"/>
</g>
<!-- Node8 -->
<g id="node9" class="node">
<title>Node8</title>
<g id="a_node9"><a xlink:title=" ">
<polygon fill="white" stroke="#bfbfbf" points="1159,-140 1159,-159 1216,-159 1216,-140 1159,-140"/>
<text text-anchor="middle" x="1187.5" y="-147" font-family="Helvetica,sans-Serif" font-size="10.00">ostream</text>
</a>
</g>
</g>
<!-- Node0&#45;&gt;Node8 -->
<g id="edge8" class="edge">
<title>Node0&#45;&gt;Node8</title>
<path fill="none" stroke="midnightblue" d="M930.79,-341.79C993.16,-333.68 1079.1,-319.29 1106.5,-299 1151.05,-266.02 1173.94,-200.95 1182.89,-169.03"/>
<polygon fill="midnightblue" stroke="midnightblue" points="1186.31,-169.8 1185.49,-159.23 1179.54,-168 1186.31,-169.8"/>
</g>
<!-- Node9 -->
<g id="node10" class="node">
<title>Node9</title>
<g id="a_node10"><a xlink:title=" ">
<polygon fill="white" stroke="#bfbfbf" points="922.5,-207 922.5,-226 976.5,-226 976.5,-207 922.5,-207"/>
<text text-anchor="middle" x="949.5" y="-214" font-family="Helvetica,sans-Serif" font-size="10.00">random</text>
</a>
</g>
</g>
<!-- Node0&#45;&gt;Node9 -->
<g id="edge9" class="edge">
<title>Node0&#45;&gt;Node9</title>
<path fill="none" stroke="midnightblue" d="M867.68,-335.36C875.28,-318.62 889.09,-290.21 904.5,-268 913.08,-255.64 924.34,-243 933.45,-233.46"/>
<polygon fill="midnightblue" stroke="midnightblue" points="936.01,-235.85 940.5,-226.25 931.01,-230.96 936.01,-235.85"/>
</g>
<!-- Node10 -->
<g id="node11" class="node">
<title>Node10</title>
<g id="a_node11"><a xlink:title=" ">
<polygon fill="white" stroke="#bfbfbf" points="1776.5,-73 1776.5,-92 1820.5,-92 1820.5,-73 1776.5,-73"/>
<text text-anchor="middle" x="1798.5" y="-80" font-family="Helvetica,sans-Serif" font-size="10.00">string</text>
</a>
</g>
</g>
<!-- Node0&#45;&gt;Node10 -->
<g id="edge10" class="edge">
<title>Node0&#45;&gt;Node10</title>
<path fill="none" stroke="midnightblue" d="M930.61,-347.34C1099.22,-341.69 1522.17,-325.08 1580.5,-299 1631.39,-276.25 1744.98,-146.41 1784.57,-100"/>
<polygon fill="midnightblue" stroke="midnightblue" points="1787.46,-102 1791.27,-92.11 1782.13,-97.47 1787.46,-102"/>
</g>
<!-- Node11 -->
<g id="node12" class="node">
<title>Node11</title>
<g id="a_node12"><a xlink:title=" ">
<polygon fill="white" stroke="#bfbfbf" points="711,-6 711,-25 780,-25 780,-6 711,-6"/>
<text text-anchor="middle" x="745.5" y="-13" font-family="Helvetica,sans-Serif" font-size="10.00">type_traits</text>
</a>
</g>
</g>
<!-- Node0&#45;&gt;Node11 -->
<g id="edge11" class="edge">
<title>Node0&#45;&gt;Node11</title>
<path fill="none" stroke="midnightblue" d="M865.81,-335.27C878.62,-289.74 911.49,-146.08 842.5,-67 826.95,-49.17 803.55,-36.74 783.64,-28.66"/>
<polygon fill="midnightblue" stroke="midnightblue" points="784.78,-25.35 774.19,-25.05 782.28,-31.89 784.78,-25.35"/>
</g>
<!-- Node12 -->
<g id="node13" class="node">
<title>Node12</title>
<g id="a_node13"><a xlink:title=" ">
<polygon fill="white" stroke="#bfbfbf" points="721,-274 721,-293 814,-293 814,-274 721,-274"/>
<text text-anchor="middle" x="767.5" y="-281" font-family="Helvetica,sans-Serif" font-size="10.00">unordered_map</text>
</a>
</g>
</g>
<!-- Node0&#45;&gt;Node12 -->
<g id="edge12" class="edge">
<title>Node0&#45;&gt;Node12</title>
<path fill="none" stroke="midnightblue" d="M841.1,-335.4C825.49,-324.6 804.02,-309.76 788.31,-298.89"/>
<polygon fill="midnightblue" stroke="midnightblue" points="790.02,-295.82 779.8,-293.01 786.04,-301.57 790.02,-295.82"/>
</g>
<!-- Node13 -->
<g id="node14" class="node">
<title>Node13</title>
<g id="a_node14"><a xlink:title=" ">
<polygon fill="white" stroke="#bfbfbf" points="1154,-73 1154,-92 1199,-92 1199,-73 1154,-73"/>
<text text-anchor="middle" x="1176.5" y="-80" font-family="Helvetica,sans-Serif" font-size="10.00">utility</text>
</a>
</g>
</g>
<!-- Node0&#45;&gt;Node13 -->
<g id="edge13" class="edge">
<title>Node0&#45;&gt;Node13</title>
<path fill="none" stroke="midnightblue" d="M930.65,-344.86C970.59,-339.12 1019.81,-326.52 1055.5,-299 1064.42,-292.12 1140.15,-151.47 1167.06,-101.19"/>
<polygon fill="midnightblue" stroke="midnightblue" points="1170.26,-102.62 1171.89,-92.15 1164.09,-99.32 1170.26,-102.62"/>
</g>
<!-- Node14 -->
<g id="node15" class="node">
<title>Node14</title>
<g id="a_node15"><a xlink:title=" ">
<polygon fill="white" stroke="#bfbfbf" points="426,-140 426,-159 473,-159 473,-140 426,-140"/>
<text text-anchor="middle" x="449.5" y="-147" font-family="Helvetica,sans-Serif" font-size="10.00">vector</text>
</a>
</g>
</g>
<!-- Node0&#45;&gt;Node14 -->
<g id="edge14" class="edge">
<title>Node0&#45;&gt;Node14</title>
<path fill="none" stroke="midnightblue" d="M792.29,-349.86C693.89,-348.85 520.57,-340.94 476.5,-299 440.83,-265.05 442.98,-200.92 446.65,-169.22"/>
<polygon fill="midnightblue" stroke="midnightblue" points="450.14,-169.49 448,-159.12 443.2,-168.57 450.14,-169.49"/>
</g>
<!-- Node15 -->
<g id="node16" class="node">
<title>Node15</title>
<g id="a_node16"><a xlink:title=" ">
<polygon fill="white" stroke="#bfbfbf" points="995,-207 995,-226 1064,-226 1064,-207 995,-207"/>
<text text-anchor="middle" x="1029.5" y="-214" font-family="Helvetica,sans-Serif" font-size="10.00">Eigen/Core</text>
</a>
</g>
</g>
<!-- Node0&#45;&gt;Node15 -->
<g id="edge15" class="edge">
<title>Node0&#45;&gt;Node15</title>
<path fill="none" stroke="midnightblue" d="M873.69,-335.38C891.41,-315.04 923.68,-278.75 937.5,-268 956.97,-252.85 981.58,-239.6 1000.45,-230.48"/>
<polygon fill="midnightblue" stroke="midnightblue" points="1002.18,-233.53 1009.73,-226.09 999.2,-227.2 1002.18,-233.53"/>
</g>
<!-- Node16 -->
<g id="node17" class="node">
<title>Node16</title>
<g id="a_node17"><a xlink:title=" ">
<polygon fill="white" stroke="#bfbfbf" points="946.5,-274 946.5,-293 1026.5,-293 1026.5,-274 946.5,-274"/>
<text text-anchor="middle" x="986.5" y="-281" font-family="Helvetica,sans-Serif" font-size="10.00">Eigen/Sparse</text>
</a>
</g>
</g>
<!-- Node0&#45;&gt;Node16 -->
<g id="edge16" class="edge">
<title>Node0&#45;&gt;Node16</title>
<path fill="none" stroke="midnightblue" d="M888.62,-335.4C910.17,-324.19 940.07,-308.64 961.14,-297.69"/>
<polygon fill="midnightblue" stroke="midnightblue" points="962.88,-300.73 970.14,-293.01 959.65,-294.52 962.88,-300.73"/>
</g>
<!-- Node17 -->
<g id="node18" class="node">
<title>Node17</title>
<g id="a_node18"><a xlink:href="cond_8h.html" target="_top" xlink:title=" ">
<polygon fill="white" stroke="black" points="88,-207 88,-226 213,-226 213,-207 88,-207"/>
<text text-anchor="middle" x="150.5" y="-214" font-family="Helvetica,sans-Serif" font-size="10.00">drake/common/cond.h</text>
</a>
</g>
</g>
<!-- Node0&#45;&gt;Node17 -->
<g id="edge17" class="edge">
<title>Node0&#45;&gt;Node17</title>
<path fill="none" stroke="midnightblue" d="M792.44,-350.17C649.38,-350.58 325.78,-346.07 227.5,-299 197.93,-284.84 173.94,-254.03 160.98,-234.61"/>
<polygon fill="midnightblue" stroke="midnightblue" points="163.88,-232.64 155.54,-226.12 157.99,-236.42 163.88,-232.64"/>
</g>
<!-- Node19 -->
<g id="node20" class="node">
<title>Node19</title>
<g id="a_node20"><a xlink:href="drake__assert_8h.html" target="_top" xlink:title="Provides Drake&#39;s assertion implementation.">
<polygon fill="white" stroke="black" points="686,-67.5 686,-97.5 805,-97.5 805,-67.5 686,-67.5"/>
<text text-anchor="start" x="694" y="-85.5" font-family="Helvetica,sans-Serif" font-size="10.00">drake/common/drake</text>
<text text-anchor="middle" x="745.5" y="-74.5" font-family="Helvetica,sans-Serif" font-size="10.00">_assert.h</text>
</a>
</g>
</g>
<!-- Node0&#45;&gt;Node19 -->
<g id="edge21" class="edge">
<title>Node0&#45;&gt;Node19</title>
<path fill="none" stroke="midnightblue" d="M792.31,-349.2C677.21,-347.55 452.41,-339.11 385.5,-299 323.75,-261.99 315.66,-233.81 294.5,-165 290.45,-151.83 285.32,-144.27 294.5,-134 319.41,-106.14 555.1,-91.84 675.47,-86.3"/>
<polygon fill="midnightblue" stroke="midnightblue" points="675.86,-89.79 685.69,-85.84 675.54,-82.79 675.86,-89.79"/>
</g>
<!-- Node20 -->
<g id="node21" class="node">
<title>Node20</title>
<g id="a_node21"><a xlink:href="drake__copyable_8h.html" target="_top" xlink:title="Provides careful macros to selectively enable or disable the special member functions for copy&#45;constr...">
<polygon fill="white" stroke="black" points="1639,-67.5 1639,-97.5 1758,-97.5 1758,-67.5 1639,-67.5"/>
<text text-anchor="start" x="1647" y="-85.5" font-family="Helvetica,sans-Serif" font-size="10.00">drake/common/drake</text>
<text text-anchor="middle" x="1698.5" y="-74.5" font-family="Helvetica,sans-Serif" font-size="10.00">_copyable.h</text>
</a>
</g>
</g>
<!-- Node0&#45;&gt;Node20 -->
<g id="edge23" class="edge">
<title>Node0&#45;&gt;Node20</title>
<path fill="none" stroke="midnightblue" d="M930.6,-347.21C1092.78,-341.44 1488.26,-324.87 1542.5,-299 1616.01,-263.93 1624.58,-234.22 1667.5,-165 1678.73,-146.89 1686.98,-124.05 1692.14,-107.16"/>
<polygon fill="midnightblue" stroke="midnightblue" points="1695.51,-108.09 1694.95,-97.51 1688.79,-106.13 1695.51,-108.09"/>
</g>
<!-- Node21 -->
<g id="node22" class="node">
<title>Node21</title>
<g id="a_node22"><a xlink:href="drake__throw_8h.html" target="_top" xlink:title="Provides a convenient wrapper to throw an exception when a condition is unmet.">
<polygon fill="white" stroke="black" points="491,-134.5 491,-164.5 610,-164.5 610,-134.5 491,-134.5"/>
<text text-anchor="start" x="499" y="-152.5" font-family="Helvetica,sans-Serif" font-size="10.00">drake/common/drake</text>
<text text-anchor="middle" x="550.5" y="-141.5" font-family="Helvetica,sans-Serif" font-size="10.00">_throw.h</text>
</a>
</g>
</g>
<!-- Node0&#45;&gt;Node21 -->
<g id="edge24" class="edge">
<title>Node0&#45;&gt;Node21</title>
<path fill="none" stroke="midnightblue" d="M793.96,-335.49C764.53,-327.55 730.44,-315.77 702.5,-299 645.3,-264.66 593.06,-204.73 567.32,-172.51"/>
<polygon fill="midnightblue" stroke="midnightblue" points="570.01,-170.26 561.07,-164.57 564.51,-174.59 570.01,-170.26"/>
</g>
<!-- Node22 -->
<g id="node23" class="node">
<title>Node22</title>
<g id="a_node23"><a xlink:href="dummy__value_8h.html" target="_top" xlink:title=" ">
<polygon fill="white" stroke="black" points="496.5,-268.5 496.5,-298.5 626.5,-298.5 626.5,-268.5 496.5,-268.5"/>
<text text-anchor="start" x="504.5" y="-286.5" font-family="Helvetica,sans-Serif" font-size="10.00">drake/common/dummy</text>
<text text-anchor="middle" x="561.5" y="-275.5" font-family="Helvetica,sans-Serif" font-size="10.00">_value.h</text>
</a>
</g>
</g>
<!-- Node0&#45;&gt;Node22 -->
<g id="edge27" class="edge">
<title>Node0&#45;&gt;Node22</title>
<path fill="none" stroke="midnightblue" d="M796.77,-335.48C749.64,-325.26 685.68,-311.41 636.35,-300.72"/>
<polygon fill="midnightblue" stroke="midnightblue" points="636.88,-297.25 626.37,-298.55 635.4,-304.09 636.88,-297.25"/>
</g>
<!-- Node23 -->
<g id="node24" class="node">
<title>Node23</title>
<g id="a_node24"><a xlink:href="eigen__types_8h.html" target="_top" xlink:title="This file contains abbreviated definitions for certain specializations of Eigen::Matrix that are comm...">
<polygon fill="white" stroke="black" points="1425,-134.5 1425,-164.5 1544,-164.5 1544,-134.5 1425,-134.5"/>
<text text-anchor="start" x="1433" y="-152.5" font-family="Helvetica,sans-Serif" font-size="10.00">drake/common/eigen</text>
<text text-anchor="middle" x="1484.5" y="-141.5" font-family="Helvetica,sans-Serif" font-size="10.00">_types.h</text>
</a>
</g>
</g>
<!-- Node0&#45;&gt;Node23 -->
<g id="edge29" class="edge">
<title>Node0&#45;&gt;Node23</title>
<path fill="none" stroke="midnightblue" d="M930.63,-348.65C1072.67,-346.16 1392.57,-336.44 1494.5,-299 1550.87,-278.3 1619.27,-251.95 1587.5,-201 1578.56,-186.65 1564.22,-176.27 1549.05,-168.8"/>
<polygon fill="midnightblue" stroke="midnightblue" points="1550.09,-165.43 1539.54,-164.51 1547.22,-171.81 1550.09,-165.43"/>
</g>
<!-- Node27 -->
<g id="node28" class="node">
<title>Node27</title>
<g id="a_node28"><a xlink:href="extract__double_8h.html" target="_top" xlink:title=" ">
<polygon fill="white" stroke="black" points="1429,-201.5 1429,-231.5 1556,-231.5 1556,-201.5 1429,-201.5"/>
<text text-anchor="start" x="1437" y="-219.5" font-family="Helvetica,sans-Serif" font-size="10.00">drake/common/extract</text>
<text text-anchor="middle" x="1492.5" y="-208.5" font-family="Helvetica,sans-Serif" font-size="10.00">_double.h</text>
</a>
</g>
</g>
<!-- Node0&#45;&gt;Node27 -->
<g id="edge37" class="edge">
<title>Node0&#45;&gt;Node27</title>
<path fill="none" stroke="midnightblue" d="M930.69,-345.7C1045.43,-338.82 1269.95,-322.79 1345.5,-299 1389.95,-285 1436.16,-256.75 1464.62,-237.47"/>
<polygon fill="midnightblue" stroke="midnightblue" points="1466.96,-240.11 1473.22,-231.56 1463,-234.35 1466.96,-240.11"/>
</g>
<!-- Node28 -->
<g id="node29" class="node">
<title>Node28</title>
<g id="a_node29"><a xlink:href="fmt_8h.html" target="_top" xlink:title=" ">
<polygon fill="white" stroke="black" points="1765,-140 1765,-159 1884,-159 1884,-140 1765,-140"/>
<text text-anchor="middle" x="1824.5" y="-147" font-family="Helvetica,sans-Serif" font-size="10.00">drake/common/fmt.h</text>
</a>
</g>
</g>
<!-- Node0&#45;&gt;Node28 -->
<g id="edge39" class="edge">
<title>Node0&#45;&gt;Node28</title>
<path fill="none" stroke="midnightblue" d="M930.73,-349.52C1127.93,-349.03 1682.73,-343.65 1750.5,-299 1796.11,-268.94 1814.76,-201.93 1821.36,-169.2"/>
<polygon fill="midnightblue" stroke="midnightblue" points="1824.83,-169.64 1823.21,-159.17 1817.95,-168.37 1824.83,-169.64"/>
</g>
<!-- Node31 -->
<g id="node32" class="node">
<title>Node31</title>
<g id="a_node32"><a xlink:href="hash_8h.html" target="_top" xlink:title=" ">
<polygon fill="white" stroke="black" points="683,-207 683,-226 808,-226 808,-207 683,-207"/>
<text text-anchor="middle" x="745.5" y="-214" font-family="Helvetica,sans-Serif" font-size="10.00">drake/common/hash.h</text>
</a>
</g>
</g>
<!-- Node0&#45;&gt;Node31 -->
<g id="edge43" class="edge">
<title>Node0&#45;&gt;Node31</title>
<path fill="none" stroke="midnightblue" d="M792.35,-343.65C762.73,-337.31 730.8,-324.53 712.5,-299 697.9,-278.64 715.59,-250.88 730.16,-233.58"/>
<polygon fill="midnightblue" stroke="midnightblue" points="732.87,-235.81 736.91,-226.01 727.65,-231.15 732.87,-235.81"/>
</g>
<!-- Node35 -->
<g id="node36" class="node">
<title>Node35</title>
<g id="a_node36"><a xlink:href="random_8h.html" target="_top" xlink:title=" ">
<polygon fill="white" stroke="black" points="1197,-274 1197,-293 1336,-293 1336,-274 1197,-274"/>
<text text-anchor="middle" x="1266.5" y="-281" font-family="Helvetica,sans-Serif" font-size="10.00">drake/common/random.h</text>
</a>
</g>
</g>
<!-- Node0&#45;&gt;Node35 -->
<g id="edge57" class="edge">
<title>Node0&#45;&gt;Node35</title>
<path fill="none" stroke="midnightblue" d="M930.74,-338.91C995.78,-328.89 1095.81,-313.3 1182.5,-299 1190.69,-297.65 1199.32,-296.2 1207.8,-294.75"/>
<polygon fill="midnightblue" stroke="midnightblue" points="1208.4,-298.2 1217.66,-293.06 1207.21,-291.3 1208.4,-298.2"/>
</g>
<!-- Node17&#45;&gt;Node4 -->
<g id="edge18" class="edge">
<title>Node17&#45;&gt;Node4</title>
<path fill="none" stroke="midnightblue" d="M159.13,-206.73C169.3,-196.4 186.4,-179.04 198.91,-166.33"/>
<polygon fill="midnightblue" stroke="midnightblue" points="201.48,-168.71 206.01,-159.13 196.5,-163.8 201.48,-168.71"/>
</g>
<!-- Node17&#45;&gt;Node11 -->
<g id="edge19" class="edge">
<title>Node17&#45;&gt;Node11</title>
<path fill="none" stroke="midnightblue" d="M150.1,-206.9C149.83,-190.24 151.79,-153.48 172.5,-134 249.41,-61.67 579.43,-29.32 700.63,-19.72"/>
<polygon fill="midnightblue" stroke="midnightblue" points="700.98,-23.2 710.68,-18.94 700.44,-16.23 700.98,-23.2"/>
</g>
<!-- Node18 -->
<g id="node19" class="node">
<title>Node18</title>
<g id="a_node19"><a xlink:href="double__overloads_8h.html" target="_top" xlink:title="Provides necessary operations on double to have it as a ScalarType in drake.">
<polygon fill="white" stroke="black" points="0,-134.5 0,-164.5 125,-164.5 125,-134.5 0,-134.5"/>
<text text-anchor="start" x="8" y="-152.5" font-family="Helvetica,sans-Serif" font-size="10.00">drake/common/double</text>
<text text-anchor="middle" x="62.5" y="-141.5" font-family="Helvetica,sans-Serif" font-size="10.00">_overloads.h</text>
</a>
</g>
</g>
<!-- Node17&#45;&gt;Node18 -->
<g id="edge20" class="edge">
<title>Node17&#45;&gt;Node18</title>
<path fill="none" stroke="midnightblue" d="M138.63,-206.73C126.17,-197.53 106.14,-182.73 89.75,-170.63"/>
<polygon fill="midnightblue" stroke="midnightblue" points="91.7,-167.72 81.57,-164.59 87.54,-173.35 91.7,-167.72"/>
</g>
<!-- Node19&#45;&gt;Node11 -->
<g id="edge22" class="edge">
<title>Node19&#45;&gt;Node11</title>
<path fill="none" stroke="midnightblue" d="M745.5,-67.4C745.5,-58.06 745.5,-45.71 745.5,-35.52"/>
<polygon fill="midnightblue" stroke="midnightblue" points="749,-35.19 745.5,-25.19 742,-35.19 749,-35.19"/>
</g>
<!-- Node21&#45;&gt;Node11 -->
<g id="edge25" class="edge">
<title>Node21&#45;&gt;Node11</title>
<path fill="none" stroke="midnightblue" d="M571.37,-134.37C608.69,-109.11 686.46,-56.46 724.13,-30.96"/>
<polygon fill="midnightblue" stroke="midnightblue" points="726.48,-33.6 732.8,-25.1 722.56,-27.8 726.48,-33.6"/>
</g>
<!-- Node21&#45;&gt;Node19 -->
<g id="edge26" class="edge">
<title>Node21&#45;&gt;Node19</title>
<path fill="none" stroke="midnightblue" d="M592.81,-134.4C622.45,-124.52 662.24,-111.25 693.77,-100.74"/>
<polygon fill="midnightblue" stroke="midnightblue" points="694.89,-104.06 703.27,-97.58 692.68,-97.42 694.89,-104.06"/>
</g>
<!-- Node22&#45;&gt;Node5 -->
<g id="edge28" class="edge">
<title>Node22&#45;&gt;Node5</title>
<path fill="none" stroke="midnightblue" d="M552.82,-268.4C546.77,-258.56 538.66,-245.38 532.2,-234.89"/>
<polygon fill="midnightblue" stroke="midnightblue" points="535.07,-232.88 526.85,-226.19 529.11,-236.55 535.07,-232.88"/>
</g>
<!-- Node23&#45;&gt;Node13 -->
<g id="edge30" class="edge">
<title>Node23&#45;&gt;Node13</title>
<path fill="none" stroke="midnightblue" d="M1424.75,-135.89C1360.43,-122.32 1260.47,-101.22 1209.23,-90.41"/>
<polygon fill="midnightblue" stroke="midnightblue" points="1209.86,-86.96 1199.36,-88.32 1208.42,-93.81 1209.86,-86.96"/>
</g>
<!-- Node23&#45;&gt;Node19 -->
<g id="edge34" class="edge">
<title>Node23&#45;&gt;Node19</title>
<path fill="none" stroke="midnightblue" d="M1424.75,-135.44C1421.63,-134.92 1418.53,-134.43 1415.5,-134 1198.08,-103.1 938.09,-90.34 815.73,-85.75"/>
<polygon fill="midnightblue" stroke="midnightblue" points="815.51,-82.23 805.39,-85.36 815.25,-89.23 815.51,-82.23"/>
</g>
<!-- Node23&#45;&gt;Node20 -->
<g id="edge35" class="edge">
<title>Node23&#45;&gt;Node20</title>
<path fill="none" stroke="midnightblue" d="M1530.67,-134.48C1563.33,-124.56 1607.3,-111.2 1642.04,-100.65"/>
<polygon fill="midnightblue" stroke="midnightblue" points="1643.49,-103.87 1652.04,-97.61 1641.46,-97.17 1643.49,-103.87"/>
</g>
<!-- Node24 -->
<g id="node25" class="node">
<title>Node24</title>
<g id="a_node25"><a xlink:title=" ">
<polygon fill="white" stroke="#bfbfbf" points="1377,-73 1377,-92 1454,-92 1454,-73 1377,-73"/>
<text text-anchor="middle" x="1415.5" y="-80" font-family="Helvetica,sans-Serif" font-size="10.00">Eigen/Dense</text>
</a>
</g>
</g>
<!-- Node23&#45;&gt;Node24 -->
<g id="edge31" class="edge">
<title>Node23&#45;&gt;Node24</title>
<path fill="none" stroke="midnightblue" d="M1469.53,-134.4C1458.56,-124.06 1443.66,-110.02 1432.28,-99.31"/>
<polygon fill="midnightblue" stroke="midnightblue" points="1434.41,-96.5 1424.73,-92.19 1429.61,-101.6 1434.41,-96.5"/>
</g>
<!-- Node25 -->
<g id="node26" class="node">
<title>Node25</title>
<g id="a_node26"><a xlink:href="constants_8h.html" target="_top" xlink:title=" ">
<polygon fill="white" stroke="black" points="1472,-73 1472,-92 1621,-92 1621,-73 1472,-73"/>
<text text-anchor="middle" x="1546.5" y="-80" font-family="Helvetica,sans-Serif" font-size="10.00">drake/common/constants.h</text>
</a>
</g>
</g>
<!-- Node23&#45;&gt;Node25 -->
<g id="edge32" class="edge">
<title>Node23&#45;&gt;Node25</title>
<path fill="none" stroke="midnightblue" d="M1497.95,-134.4C1507.72,-124.16 1520.94,-110.3 1531.12,-99.62"/>
<polygon fill="midnightblue" stroke="midnightblue" points="1533.84,-101.85 1538.21,-92.19 1528.77,-97.01 1533.84,-101.85"/>
</g>
<!-- Node26 -->
<g id="node27" class="node">
<title>Node26</title>
<g id="a_node27"><a xlink:href="drake__deprecated_8h.html" target="_top" xlink:title="Provides a portable macro for use in generating compile&#45;time warnings for use of code that is permitt...">
<polygon fill="white" stroke="black" points="1289,-0.5 1289,-30.5 1408,-30.5 1408,-0.5 1289,-0.5"/>
<text text-anchor="start" x="1297" y="-18.5" font-family="Helvetica,sans-Serif" font-size="10.00">drake/common/drake</text>
<text text-anchor="middle" x="1348.5" y="-7.5" font-family="Helvetica,sans-Serif" font-size="10.00">_deprecated.h</text>
</a>
</g>
</g>
<!-- Node23&#45;&gt;Node26 -->
<g id="edge36" class="edge">
<title>Node23&#45;&gt;Node26</title>
<path fill="none" stroke="midnightblue" d="M1425.35,-134.48C1404.71,-126.85 1383.08,-115.3 1368.5,-98 1355.05,-82.04 1350.39,-58.42 1348.89,-40.71"/>
<polygon fill="midnightblue" stroke="midnightblue" points="1352.38,-40.36 1348.32,-30.57 1345.39,-40.75 1352.38,-40.36"/>
</g>
<!-- Node25&#45;&gt;Node26 -->
<g id="edge33" class="edge">
<title>Node25&#45;&gt;Node26</title>
<path fill="none" stroke="midnightblue" d="M1520.21,-72.87C1489.98,-62.95 1439.61,-46.41 1401.21,-33.81"/>
<polygon fill="midnightblue" stroke="midnightblue" points="1401.82,-30.32 1391.23,-30.53 1399.64,-36.97 1401.82,-30.32"/>
</g>
<!-- Node27&#45;&gt;Node23 -->
<g id="edge38" class="edge">
<title>Node27&#45;&gt;Node23</title>
<path fill="none" stroke="midnightblue" d="M1490.76,-201.4C1489.8,-193.56 1488.57,-183.6 1487.46,-174.57"/>
<polygon fill="midnightblue" stroke="midnightblue" points="1490.93,-174.07 1486.23,-164.58 1483.98,-174.93 1490.93,-174.07"/>
</g>
<!-- Node28&#45;&gt;Node10 -->
<g id="edge40" class="edge">
<title>Node28&#45;&gt;Node10</title>
<path fill="none" stroke="midnightblue" d="M1820.99,-139.73C1817.1,-129.99 1810.69,-113.98 1805.71,-101.53"/>
<polygon fill="midnightblue" stroke="midnightblue" points="1808.91,-100.11 1801.95,-92.13 1802.42,-102.71 1808.91,-100.11"/>
</g>
<!-- Node29 -->
<g id="node30" class="node">
<title>Node29</title>
<g id="a_node30"><a xlink:title=" ">
<polygon fill="white" stroke="#bfbfbf" points="1839,-73 1839,-92 1912,-92 1912,-73 1839,-73"/>
<text text-anchor="middle" x="1875.5" y="-80" font-family="Helvetica,sans-Serif" font-size="10.00">string_view</text>
</a>
</g>
</g>
<!-- Node28&#45;&gt;Node29 -->
<g id="edge41" class="edge">
<title>Node28&#45;&gt;Node29</title>
<path fill="none" stroke="midnightblue" d="M1831.38,-139.73C1839.33,-129.6 1852.6,-112.69 1862.51,-100.06"/>
<polygon fill="midnightblue" stroke="midnightblue" points="1865.31,-102.16 1868.73,-92.13 1859.8,-97.83 1865.31,-102.16"/>
</g>
<!-- Node30 -->
<g id="node31" class="node">
<title>Node30</title>
<g id="a_node31"><a xlink:title=" ">
<polygon fill="white" stroke="#bfbfbf" points="1930,-73 1930,-92 2009,-92 2009,-73 1930,-73"/>
<text text-anchor="middle" x="1969.5" y="-80" font-family="Helvetica,sans-Serif" font-size="10.00">fmt/format.h</text>
</a>
</g>
</g>
<!-- Node28&#45;&gt;Node30 -->
<g id="edge42" class="edge">
<title>Node28&#45;&gt;Node30</title>
<path fill="none" stroke="midnightblue" d="M1843.75,-139.87C1868.67,-128.7 1912.29,-109.15 1941.03,-96.26"/>
<polygon fill="midnightblue" stroke="midnightblue" points="1942.47,-99.45 1950.17,-92.17 1939.61,-93.06 1942.47,-99.45"/>
</g>
<!-- Node31&#45;&gt;Node2 -->
<g id="edge44" class="edge">
<title>Node31&#45;&gt;Node2</title>
<path fill="none" stroke="midnightblue" d="M682.78,-209.45C589.72,-200.11 419.67,-181.52 360.5,-165 358.35,-164.4 356.15,-163.68 353.96,-162.89"/>
<polygon fill="midnightblue" stroke="midnightblue" points="355.21,-159.62 344.63,-159.12 352.59,-166.12 355.21,-159.62"/>
</g>
<!-- Node31&#45;&gt;Node3 -->
<g id="edge45" class="edge">
<title>Node31&#45;&gt;Node3</title>
<path fill="none" stroke="midnightblue" d="M799.39,-206.93C850.57,-198.26 929.44,-183.5 996.5,-165 999.46,-164.18 1002.52,-163.26 1005.56,-162.28"/>
<polygon fill="midnightblue" stroke="midnightblue" points="1006.77,-165.57 1015.13,-159.06 1004.53,-158.94 1006.77,-165.57"/>
</g>
<!-- Node31&#45;&gt;Node4 -->
<g id="edge47" class="edge">
<title>Node31&#45;&gt;Node4</title>
<path fill="none" stroke="midnightblue" d="M682.95,-209.85C595.72,-201.66 432.68,-185.23 294.5,-165 282.28,-163.21 269.07,-160.95 256.97,-158.75"/>
<polygon fill="midnightblue" stroke="midnightblue" points="257.58,-155.3 247.11,-156.93 256.31,-162.19 257.58,-155.3"/>
</g>
<!-- Node31&#45;&gt;Node6 -->
<g id="edge48" class="edge">
<title>Node31&#45;&gt;Node6</title>
<path fill="none" stroke="midnightblue" d="M682.86,-211.95C615.62,-206.76 506.33,-194.28 416.5,-165 415.07,-164.53 413.62,-164 412.18,-163.42"/>
<polygon fill="midnightblue" stroke="midnightblue" points="413.47,-160.16 402.93,-159.11 410.52,-166.51 413.47,-160.16"/>
</g>
<!-- Node31&#45;&gt;Node10 -->
<g id="edge51" class="edge">
<title>Node31&#45;&gt;Node10</title>
<path fill="none" stroke="midnightblue" d="M789.29,-206.92C829.35,-198.43 889.91,-183.96 940.5,-165 969.35,-154.19 972.69,-141.78 1002.5,-134 1331.84,-48.03 1437.06,-179.66 1767.5,-98 1769.49,-97.51 1771.51,-96.89 1773.51,-96.18"/>
<polygon fill="midnightblue" stroke="midnightblue" points="1775.31,-99.22 1783.17,-92.11 1772.59,-92.76 1775.31,-99.22"/>
</g>
<!-- Node31&#45;&gt;Node11 -->
<g id="edge52" class="edge">
<title>Node31&#45;&gt;Node11</title>
<path fill="none" stroke="midnightblue" d="M785.96,-207C808.85,-199.89 835.6,-187.2 849.5,-165 881.28,-114.25 808.39,-56.91 768.85,-30.81"/>
<polygon fill="midnightblue" stroke="midnightblue" points="770.36,-27.62 760.05,-25.16 766.57,-33.51 770.36,-27.62"/>
</g>
<!-- Node31&#45;&gt;Node13 -->
<g id="edge53" class="edge">
<title>Node31&#45;&gt;Node13</title>
<path fill="none" stroke="midnightblue" d="M768.93,-206.86C824.13,-186.5 958.49,-137.03 968.5,-134 1029.68,-115.46 1102.56,-99.03 1143.79,-90.25"/>
<polygon fill="midnightblue" stroke="midnightblue" points="1144.75,-93.63 1153.81,-88.14 1143.3,-86.78 1144.75,-93.63"/>
</g>
<!-- Node31&#45;&gt;Node14 -->
<g id="edge54" class="edge">
<title>Node31&#45;&gt;Node14</title>
<path fill="none" stroke="midnightblue" d="M682.89,-207.52C628.99,-199.69 549.53,-185.87 482.5,-165 480.57,-164.4 478.61,-163.72 476.64,-162.99"/>
<polygon fill="midnightblue" stroke="midnightblue" points="477.61,-159.61 467.03,-159.07 474.97,-166.09 477.61,-159.61"/>
</g>
<!-- Node31&#45;&gt;Node19 -->
<g id="edge55" class="edge">
<title>Node31&#45;&gt;Node19</title>
<path fill="none" stroke="midnightblue" d="M740.91,-206.87C735.97,-197.05 728.43,-180.38 725.5,-165 722.92,-151.47 722.92,-147.53 725.5,-134 727.25,-124.81 730.65,-115.16 734.15,-106.79"/>
<polygon fill="midnightblue" stroke="midnightblue" points="737.35,-108.21 738.22,-97.65 730.96,-105.36 737.35,-108.21"/>
</g>
<!-- Node31&#45;&gt;Node21 -->
<g id="edge56" class="edge">
<title>Node31&#45;&gt;Node21</title>
<path fill="none" stroke="midnightblue" d="M719.61,-206.87C689.84,-196.95 640.23,-180.41 602.42,-167.81"/>
<polygon fill="midnightblue" stroke="midnightblue" points="603.18,-164.37 592.58,-164.53 600.96,-171.01 603.18,-164.37"/>
</g>
<!-- Node32 -->
<g id="node33" class="node">
<title>Node32</title>
<g id="a_node33"><a xlink:title=" ">
<polygon fill="white" stroke="#bfbfbf" points="628.5,-140 628.5,-159 678.5,-159 678.5,-140 628.5,-140"/>
<text text-anchor="middle" x="653.5" y="-147" font-family="Helvetica,sans-Serif" font-size="10.00">cstdint</text>
</a>
</g>
</g>
<!-- Node31&#45;&gt;Node32 -->
<g id="edge46" class="edge">
<title>Node31&#45;&gt;Node32</title>
<path fill="none" stroke="midnightblue" d="M733.09,-206.73C717.92,-196.01 692.02,-177.72 673.9,-164.91"/>
<polygon fill="midnightblue" stroke="midnightblue" points="675.9,-162.04 665.71,-159.13 671.86,-167.76 675.9,-162.04"/>
</g>
<!-- Node33 -->
<g id="node34" class="node">
<title>Node33</title>
<g id="a_node34"><a xlink:title=" ">
<polygon fill="white" stroke="#bfbfbf" points="734.5,-140 734.5,-159 790.5,-159 790.5,-140 734.5,-140"/>
<text text-anchor="middle" x="762.5" y="-147" font-family="Helvetica,sans-Serif" font-size="10.00">optional</text>
</a>
</g>
</g>
<!-- Node31&#45;&gt;Node33 -->
<g id="edge49" class="edge">
<title>Node31&#45;&gt;Node33</title>
<path fill="none" stroke="midnightblue" d="M747.79,-206.73C750.32,-197.09 754.44,-181.3 757.69,-168.91"/>
<polygon fill="midnightblue" stroke="midnightblue" points="761.1,-169.69 760.24,-159.13 754.33,-167.92 761.1,-169.69"/>
</g>
<!-- Node34 -->
<g id="node35" class="node">
<title>Node34</title>
<g id="a_node35"><a xlink:title=" ">
<polygon fill="white" stroke="#bfbfbf" points="808.5,-140 808.5,-159 840.5,-159 840.5,-140 808.5,-140"/>
<text text-anchor="middle" x="824.5" y="-147" font-family="Helvetica,sans-Serif" font-size="10.00">set</text>
</a>
</g>
</g>
<!-- Node31&#45;&gt;Node34 -->
<g id="edge50" class="edge">
<title>Node31&#45;&gt;Node34</title>
<path fill="none" stroke="midnightblue" d="M756.15,-206.73C768.95,-196.21 790.62,-178.38 806.13,-165.62"/>
<polygon fill="midnightblue" stroke="midnightblue" points="808.52,-168.18 814.01,-159.13 804.07,-162.78 808.52,-168.18"/>
</g>
<!-- Node35&#45;&gt;Node7 -->
<g id="edge58" class="edge">
<title>Node35&#45;&gt;Node7</title>
<path fill="none" stroke="midnightblue" d="M1285.94,-273.86C1303.11,-265.37 1327.78,-250.94 1343.5,-232 1358.99,-213.34 1368.32,-186.63 1373.18,-168.93"/>
<polygon fill="midnightblue" stroke="midnightblue" points="1376.58,-169.79 1375.65,-159.24 1369.79,-168.06 1376.58,-169.79"/>
</g>
<!-- Node35&#45;&gt;Node9 -->
<g id="edge59" class="edge">
<title>Node35&#45;&gt;Node9</title>
<path fill="none" stroke="midnightblue" d="M1198.33,-274C1141.11,-265.96 1057.55,-252.12 986.5,-232 983.91,-231.27 981.26,-230.42 978.61,-229.51"/>
<polygon fill="midnightblue" stroke="midnightblue" points="979.82,-226.23 969.23,-226.05 977.4,-232.8 979.82,-226.23"/>
</g>
<!-- Node35&#45;&gt;Node15 -->
<g id="edge60" class="edge">
<title>Node35&#45;&gt;Node15</title>
<path fill="none" stroke="midnightblue" d="M1235.03,-273.87C1192.68,-262.25 1117.28,-241.58 1070.53,-228.75"/>
<polygon fill="midnightblue" stroke="midnightblue" points="1071.29,-225.33 1060.72,-226.06 1069.44,-232.08 1071.29,-225.33"/>
</g>
<!-- Node35&#45;&gt;Node19 -->
<g id="edge69" class="edge">
<title>Node35&#45;&gt;Node19</title>
<path fill="none" stroke="midnightblue" d="M1252.03,-273.92C1236.08,-264.28 1209.85,-247.9 1188.5,-232 1134.64,-191.89 1134.56,-161.95 1073.5,-134 990.28,-95.91 884.05,-85.65 815.41,-83.34"/>
<polygon fill="midnightblue" stroke="midnightblue" points="815.24,-79.84 805.14,-83.05 815.04,-86.83 815.24,-79.84"/>
</g>
<!-- Node35&#45;&gt;Node20 -->
<g id="edge70" class="edge">
<title>Node35&#45;&gt;Node20</title>
<path fill="none" stroke="midnightblue" d="M1336.17,-276.09C1411.84,-268.2 1527.06,-253.19 1565.5,-232 1620.35,-201.76 1664.12,-140.05 1685.06,-106.49"/>
<polygon fill="midnightblue" stroke="midnightblue" points="1688.13,-108.18 1690.35,-97.82 1682.16,-104.53 1688.13,-108.18"/>
</g>
<!-- Node35&#45;&gt;Node23 -->
<g id="edge71" class="edge">
<title>Node35&#45;&gt;Node23</title>
<path fill="none" stroke="midnightblue" d="M1285.34,-273.93C1305.75,-264.43 1339.08,-248.29 1366.5,-232 1398.91,-212.75 1434.26,-187.76 1457.73,-170.56"/>
<polygon fill="midnightblue" stroke="midnightblue" points="1459.85,-173.35 1465.82,-164.59 1455.69,-167.71 1459.85,-173.35"/>
</g>
<!-- Node35&#45;&gt;Node27 -->
<g id="edge72" class="edge">
<title>Node35&#45;&gt;Node27</title>
<path fill="none" stroke="midnightblue" d="M1296.51,-273.87C1331.45,-263.82 1389.98,-246.99 1434,-234.32"/>
<polygon fill="midnightblue" stroke="midnightblue" points="1435.08,-237.66 1443.73,-231.53 1433.15,-230.93 1435.08,-237.66"/>
</g>
<!-- Node36 -->
<g id="node37" class="node">
<title>Node36</title>
<g id="a_node37"><a xlink:href="copyable__unique__ptr_8h.html" target="_top" xlink:title=" ">
<polygon fill="white" stroke="black" points="1197,-201.5 1197,-231.5 1334,-231.5 1334,-201.5 1197,-201.5"/>
<text text-anchor="start" x="1205" y="-219.5" font-family="Helvetica,sans-Serif" font-size="10.00">drake/common/copyable</text>
<text text-anchor="middle" x="1265.5" y="-208.5" font-family="Helvetica,sans-Serif" font-size="10.00">_unique_ptr.h</text>
</a>
</g>
</g>
<!-- Node35&#45;&gt;Node36 -->
<g id="edge61" class="edge">
<title>Node35&#45;&gt;Node36</title>
<path fill="none" stroke="midnightblue" d="M1266.37,-273.73C1266.24,-265.54 1266.04,-252.92 1265.87,-241.71"/>
<polygon fill="midnightblue" stroke="midnightblue" points="1269.37,-241.53 1265.72,-231.59 1262.37,-241.64 1269.37,-241.53"/>
</g>
<!-- Node36&#45;&gt;Node3 -->
<g id="edge62" class="edge">
<title>Node36&#45;&gt;Node3</title>
<path fill="none" stroke="midnightblue" d="M1216.31,-201.48C1173.53,-189.28 1112.51,-171.89 1073.97,-160.9"/>
<polygon fill="midnightblue" stroke="midnightblue" points="1074.78,-157.49 1064.2,-158.11 1072.86,-164.22 1074.78,-157.49"/>
</g>
<!-- Node36&#45;&gt;Node7 -->
<g id="edge63" class="edge">
<title>Node36&#45;&gt;Node7</title>
<path fill="none" stroke="midnightblue" d="M1289.8,-201.4C1308.85,-190.34 1335.18,-175.06 1354.01,-164.13"/>
<polygon fill="midnightblue" stroke="midnightblue" points="1355.95,-167.05 1362.84,-159.01 1352.44,-161 1355.95,-167.05"/>
</g>
<!-- Node36&#45;&gt;Node8 -->
<g id="edge64" class="edge">
<title>Node36&#45;&gt;Node8</title>
<path fill="none" stroke="midnightblue" d="M1248.58,-201.4C1235.93,-190.86 1218.67,-176.48 1205.73,-165.69"/>
<polygon fill="midnightblue" stroke="midnightblue" points="1207.86,-162.91 1197.93,-159.19 1203.38,-168.29 1207.86,-162.91"/>
</g>
<!-- Node36&#45;&gt;Node13 -->
<g id="edge65" class="edge">
<title>Node36&#45;&gt;Node13</title>
<path fill="none" stroke="midnightblue" d="M1267.91,-201.35C1270.08,-184.09 1271.24,-154.67 1258.5,-134 1247.18,-115.62 1226.42,-102.94 1208.63,-94.88"/>
<polygon fill="midnightblue" stroke="midnightblue" points="1209.7,-91.53 1199.12,-90.87 1206.98,-97.98 1209.7,-91.53"/>
</g>
<!-- Node36&#45;&gt;Node19 -->
<g id="edge66" class="edge">
<title>Node36&#45;&gt;Node19</title>
<path fill="none" stroke="midnightblue" d="M1262.89,-201.25C1258.62,-182.45 1248.24,-149.88 1225.5,-134 1160.9,-88.88 932.15,-82.8 815.3,-82.75"/>
<polygon fill="midnightblue" stroke="midnightblue" points="815.03,-79.25 805.04,-82.76 815.04,-86.25 815.03,-79.25"/>
</g>
<!-- Node36&#45;&gt;Node26 -->
<g id="edge67" class="edge">
<title>Node36&#45;&gt;Node26</title>
<path fill="none" stroke="midnightblue" d="M1271.47,-201.19C1285.62,-167.27 1321.3,-81.72 1338.68,-40.04"/>
<polygon fill="midnightblue" stroke="midnightblue" points="1341.97,-41.26 1342.58,-30.68 1335.51,-38.56 1341.97,-41.26"/>
</g>
<!-- Node36&#45;&gt;Node28 -->
<g id="edge68" class="edge">
<title>Node36&#45;&gt;Node28</title>
<path fill="none" stroke="midnightblue" d="M1334.04,-207.53C1441.09,-195.08 1646.82,-171.16 1754.65,-158.62"/>
<polygon fill="midnightblue" stroke="midnightblue" points="1755.25,-162.08 1764.78,-157.44 1754.44,-155.12 1755.25,-162.08"/>
</g>
</g>
</svg>
        <g id="navigator" transform="translate(0 0)" fill="#404254">
                <rect fill="#f2f5e9" fill-opacity="0.5" stroke="#606060" stroke-width=".5" x="0" y="0" width="60" height="60"/>
                <use id="zoomplus" xlink:href="#zoomPlus" x="17" y="9" onmousedown="handleZoom(evt,'in')"/>
                <use id="zoomminus" xlink:href="#zoomMin" x="42" y="9" onmousedown="handleZoom(evt,'out')"/>
                <use id="reset" xlink:href="#resetDef" x="30" y="36" onmousedown="handleReset()"/>
                <g id="arrowUp" xlink:href="#dirArrow" transform="translate(30 24)" onmousedown="handlePan(0,-1)">
                  <use xlink:href="#rim" fill="#404040">
                        <set attributeName="fill" to="#808080" begin="arrowUp.mouseover" end="arrowUp.mouseout"/>
                  </use>
                  <path fill="none" stroke="white" stroke-width="1.5" d="M0,-3.0v7 M-2.5,-0.5L0,-3.0L2.5,-0.5"/>
                </g>
                <g id="arrowRight" xlink:href="#dirArrow" transform="rotate(90) translate(36 -43)" onmousedown="handlePan(1,0)">
                  <use xlink:href="#rim" fill="#404040">
                        <set attributeName="fill" to="#808080" begin="arrowRight.mouseover" end="arrowRight.mouseout"/>
                  </use>
                  <path fill="none" stroke="white" stroke-width="1.5" d="M0,-3.0v7 M-2.5,-0.5L0,-3.0L2.5,-0.5"/>
                </g>
                <g id="arrowDown" xlink:href="#dirArrow" transform="rotate(180) translate(-30 -48)" onmousedown="handlePan(0,1)">
                  <use xlink:href="#rim" fill="#404040">
                        <set attributeName="fill" to="#808080" begin="arrowDown.mouseover" end="arrowDown.mouseout"/>
                  </use>
                  <path fill="none" stroke="white" stroke-width="1.5" d="M0,-3.0v7 M-2.5,-0.5L0,-3.0L2.5,-0.5"/>
                </g>
                <g id="arrowLeft" xlink:href="#dirArrow" transform="rotate(270) translate(-36 17)" onmousedown="handlePan(-1,0)">
                  <use xlink:href="#rim" fill="#404040">
                        <set attributeName="fill" to="#808080" begin="arrowLeft.mouseover" end="arrowLeft.mouseout"/>
                  </use>
                  <path fill="none" stroke="white" stroke-width="1.5" d="M0,-3.0v7 M-2.5,-0.5L0,-3.0L2.5,-0.5"/>
                </g>
        </g>
        <svg viewBox="0 0 15 15" width="100%" height="30px" preserveAspectRatio="xMaxYMin meet">
         <g id="arrow_out" transform="scale(0.3 0.3)">
          <a xlink:href="expression_2expression_8h__incl_org.svg" target="_base">
           <rect id="button" ry="5" rx="5" y="6" x="6" height="38" width="38"
                fill="#f2f5e9" fill-opacity="0.5" stroke="#606060" stroke-width="1.0"/>
           <path id="arrow"
             d="M 11.500037,31.436501 C 11.940474,20.09759 22.043105,11.32322 32.158766,21.979434 L 37.068811,17.246167 C 37.068811,17.246167 37.088388,32 37.088388,32 L 22.160133,31.978069 C 22.160133,31.978069 26.997745,27.140456 26.997745,27.140456 C 18.528582,18.264221 13.291696,25.230495 11.500037,31.436501 z"
             style="fill:#404040;"/>
          </a>
         </g>
        </svg>
</svg>
