<?xml version="1.0" encoding="UTF-8" standalone="no"?>
<!DOCTYPE svg PUBLIC "-//W3C//DTD SVG 1.1//EN"
 "http://www.w3.org/Graphics/SVG/1.1/DTD/svg11.dtd">
<!-- Generated by graphviz version 2.43.0 (0)
 -->
<!-- Title: drake/multibody/fem/fem_indexes.h Pages: 1 -->
<!--zoomable 363 -->
<svg id="main" version="1.1" xmlns="http://www.w3.org/2000/svg" xmlns:xlink="http://www.w3.org/1999/xlink" xml:space="preserve" onload="init(evt)">
<style type="text/css"><![CDATA[
.edge:hover path { stroke: red; }
.edge:hover polygon { stroke: red; fill: red; }
]]></style>
<script type="text/javascript"><![CDATA[
var edges = document.getElementsByTagName('g');
if (edges && edges.length) {
  for (var i=0;i<edges.length;i++) {
    if (edges[i].id.substr(0,4)=='edge') {
      edges[i].setAttribute('class','edge');
    }
  }
}
]]></script>
        <defs>
                <circle id="rim" cx="0" cy="0" r="7"/>
                <circle id="rim2" cx="0" cy="0" r="3.5"/>
                <g id="zoomPlus">
                        <use xlink:href="#rim" fill="#404040">
                                <set attributeName="fill" to="#808080" begin="zoomplus.mouseover" end="zoomplus.mouseout"/>
                        </use>
                        <path d="M-4,0h8M0,-4v8" fill="none" stroke="white" stroke-width="1.5" pointer-events="none"/>
                </g>
                <g id="zoomMin">
                        <use xlink:href="#rim" fill="#404040">
                                <set attributeName="fill" to="#808080" begin="zoomminus.mouseover" end="zoomminus.mouseout"/>
                        </use>
                        <path d="M-4,0h8" fill="none" stroke="white" stroke-width="1.5" pointer-events="none"/>
                </g>
                <g id="dirArrow">
                        <path fill="none" stroke="white" stroke-width="1.5" d="M0,-3.0v7 M-2.5,-0.5L0,-3.0L2.5,-0.5"/>
                </g>
               <g id="resetDef">
                       <use xlink:href="#rim2" fill="#404040">
                               <set attributeName="fill" to="#808080" begin="reset.mouseover" end="reset.mouseout"/>
                       </use>
               </g>
        </defs>

<script type="text/javascript">
var viewWidth = 1174;
var viewHeight = 363;
var sectionId = 'dynsection-0';
</script>
<script xlink:href="svgpan.js"/>
<svg id="graph" class="graph">
<g id="viewport">
<title>drake/multibody/fem/fem_indexes.h</title>
<polygon fill="white" stroke="transparent" points="-4,4 -4,-359 1170,-359 1170,4 -4,4"/>
<!-- Node0 -->
<g id="node1" class="node">
<title>Node0</title>
<g id="a_node1"><a xlink:title=" ">
<polygon fill="#bfbfbf" stroke="black" points="332,-324.5 332,-354.5 451,-354.5 451,-324.5 332,-324.5"/>
<text text-anchor="start" x="340" y="-342.5" font-family="Helvetica,sans-Serif" font-size="10.00">drake/multibody/fem</text>
<text text-anchor="middle" x="391.5" y="-331.5" font-family="Helvetica,sans-Serif" font-size="10.00">/fem_indexes.h</text>
</a>
</g>
</g>
<!-- Node1 -->
<g id="node2" class="node">
<title>Node1</title>
<g id="a_node2"><a xlink:href="identifier_8h.html" target="_top" xlink:title=" ">
<polygon fill="white" stroke="black" points="121.5,-263 121.5,-282 267.5,-282 267.5,-263 121.5,-263"/>
<text text-anchor="middle" x="194.5" y="-270" font-family="Helvetica,sans-Serif" font-size="10.00">drake/common/identifier.h</text>
</a>
</g>
</g>
<!-- Node0&#45;&gt;Node1 -->
<g id="edge1" class="edge">
<title>Node0&#45;&gt;Node1</title>
<path fill="none" stroke="midnightblue" d="M348.75,-324.4C313.27,-312.69 263.39,-296.23 230.06,-285.23"/>
<polygon fill="midnightblue" stroke="midnightblue" points="230.88,-281.82 220.28,-282.01 228.68,-288.46 230.88,-281.82"/>
</g>
<!-- Node18 -->
<g id="node19" class="node">
<title>Node18</title>
<g id="a_node19"><a xlink:href="type__safe__index_8h.html" target="_top" xlink:title=" ">
<polygon fill="white" stroke="black" points="605.5,-257.5 605.5,-287.5 745.5,-287.5 745.5,-257.5 605.5,-257.5"/>
<text text-anchor="start" x="613.5" y="-275.5" font-family="Helvetica,sans-Serif" font-size="10.00">drake/common/type_safe</text>
<text text-anchor="middle" x="675.5" y="-264.5" font-family="Helvetica,sans-Serif" font-size="10.00">_index.h</text>
</a>
</g>
</g>
<!-- Node0&#45;&gt;Node18 -->
<g id="edge23" class="edge">
<title>Node0&#45;&gt;Node18</title>
<path fill="none" stroke="midnightblue" d="M451.04,-324.87C495.68,-314.66 556.97,-300.63 604.22,-289.81"/>
<polygon fill="midnightblue" stroke="midnightblue" points="605.11,-293.2 614.08,-287.56 603.55,-286.38 605.11,-293.2"/>
</g>
<!-- Node2 -->
<g id="node3" class="node">
<title>Node2</title>
<g id="a_node3"><a xlink:title=" ">
<polygon fill="white" stroke="#bfbfbf" points="116.5,-196 116.5,-215 166.5,-215 166.5,-196 116.5,-196"/>
<text text-anchor="middle" x="141.5" y="-203" font-family="Helvetica,sans-Serif" font-size="10.00">cstdint</text>
</a>
</g>
</g>
<!-- Node1&#45;&gt;Node2 -->
<g id="edge2" class="edge">
<title>Node1&#45;&gt;Node2</title>
<path fill="none" stroke="midnightblue" d="M187.35,-262.73C179.09,-252.6 165.3,-235.69 155,-223.06"/>
<polygon fill="midnightblue" stroke="midnightblue" points="157.57,-220.67 148.53,-215.13 152.14,-225.09 157.57,-220.67"/>
</g>
<!-- Node3 -->
<g id="node4" class="node">
<title>Node3</title>
<g id="a_node4"><a xlink:title=" ">
<polygon fill="white" stroke="#bfbfbf" points="41,-196 41,-215 98,-215 98,-196 41,-196"/>
<text text-anchor="middle" x="69.5" y="-203" font-family="Helvetica,sans-Serif" font-size="10.00">ostream</text>
</a>
</g>
</g>
<!-- Node1&#45;&gt;Node3 -->
<g id="edge3" class="edge">
<title>Node1&#45;&gt;Node3</title>
<path fill="none" stroke="midnightblue" d="M177.9,-262.87C156.79,-251.89 120.12,-232.82 95.34,-219.94"/>
<polygon fill="midnightblue" stroke="midnightblue" points="96.65,-216.68 86.17,-215.17 93.43,-222.89 96.65,-216.68"/>
</g>
<!-- Node4 -->
<g id="node5" class="node">
<title>Node4</title>
<g id="a_node5"><a xlink:title=" ">
<polygon fill="white" stroke="#bfbfbf" points="690.5,-129 690.5,-148 734.5,-148 734.5,-129 690.5,-129"/>
<text text-anchor="middle" x="712.5" y="-136" font-family="Helvetica,sans-Serif" font-size="10.00">string</text>
</a>
</g>
</g>
<!-- Node1&#45;&gt;Node4 -->
<g id="edge4" class="edge">
<title>Node1&#45;&gt;Node4</title>
<path fill="none" stroke="midnightblue" d="M267.76,-266.87C338.13,-260.99 446.83,-248.14 537.5,-221 594.19,-204.03 655.93,-171.7 688.79,-153.27"/>
<polygon fill="midnightblue" stroke="midnightblue" points="690.67,-156.22 697.64,-148.24 687.21,-150.14 690.67,-156.22"/>
</g>
<!-- Node5 -->
<g id="node6" class="node">
<title>Node5</title>
<g id="a_node6"><a xlink:href="drake__copyable_8h.html" target="_top" xlink:title="Provides careful macros to selectively enable or disable the special member functions for copy&#45;constr...">
<polygon fill="white" stroke="black" points="328,-56.5 328,-86.5 447,-86.5 447,-56.5 328,-56.5"/>
<text text-anchor="start" x="336" y="-74.5" font-family="Helvetica,sans-Serif" font-size="10.00">drake/common/drake</text>
<text text-anchor="middle" x="387.5" y="-63.5" font-family="Helvetica,sans-Serif" font-size="10.00">_copyable.h</text>
</a>
</g>
</g>
<!-- Node1&#45;&gt;Node5 -->
<g id="edge5" class="edge">
<title>Node1&#45;&gt;Node5</title>
<path fill="none" stroke="midnightblue" d="M192.03,-262.91C185.44,-238.04 170.19,-165.04 204.5,-123 219.11,-105.1 272.61,-91.66 318.02,-83.16"/>
<polygon fill="midnightblue" stroke="midnightblue" points="318.65,-86.6 327.87,-81.37 317.4,-79.72 318.65,-86.6"/>
</g>
<!-- Node6 -->
<g id="node7" class="node">
<title>Node6</title>
<g id="a_node7"><a xlink:href="drake__throw_8h.html" target="_top" xlink:title="Provides a convenient wrapper to throw an exception when a condition is unmet.">
<polygon fill="white" stroke="black" points="0,-123.5 0,-153.5 119,-153.5 119,-123.5 0,-123.5"/>
<text text-anchor="start" x="8" y="-141.5" font-family="Helvetica,sans-Serif" font-size="10.00">drake/common/drake</text>
<text text-anchor="middle" x="59.5" y="-130.5" font-family="Helvetica,sans-Serif" font-size="10.00">_throw.h</text>
</a>
</g>
</g>
<!-- Node1&#45;&gt;Node6 -->
<g id="edge6" class="edge">
<title>Node1&#45;&gt;Node6</title>
<path fill="none" stroke="midnightblue" d="M121.13,-267.76C88.19,-261.96 52.15,-249.02 31.5,-221 18.57,-203.46 29.41,-179.51 41.16,-162.11"/>
<polygon fill="midnightblue" stroke="midnightblue" points="44.24,-163.83 47.27,-153.68 38.57,-159.72 44.24,-163.83"/>
</g>
<!-- Node9 -->
<g id="node10" class="node">
<title>Node9</title>
<g id="a_node10"><a xlink:href="hash_8h.html" target="_top" xlink:title=" ">
<polygon fill="white" stroke="black" points="403,-196 403,-215 528,-215 528,-196 403,-196"/>
<text text-anchor="middle" x="465.5" y="-203" font-family="Helvetica,sans-Serif" font-size="10.00">drake/common/hash.h</text>
</a>
</g>
</g>
<!-- Node1&#45;&gt;Node9 -->
<g id="edge10" class="edge">
<title>Node1&#45;&gt;Node9</title>
<path fill="none" stroke="midnightblue" d="M230.21,-262.94C278.95,-251.24 366.36,-230.28 419.82,-217.46"/>
<polygon fill="midnightblue" stroke="midnightblue" points="420.81,-220.82 429.71,-215.08 419.17,-214.01 420.81,-220.82"/>
</g>
<!-- Node7 -->
<g id="node8" class="node">
<title>Node7</title>
<g id="a_node8"><a xlink:title=" ">
<polygon fill="white" stroke="#bfbfbf" points="360,-0.5 360,-19.5 429,-19.5 429,-0.5 360,-0.5"/>
<text text-anchor="middle" x="394.5" y="-7.5" font-family="Helvetica,sans-Serif" font-size="10.00">type_traits</text>
</a>
</g>
</g>
<!-- Node6&#45;&gt;Node7 -->
<g id="edge7" class="edge">
<title>Node6&#45;&gt;Node7</title>
<path fill="none" stroke="midnightblue" d="M70.47,-123.4C85.8,-104.78 115.48,-72.41 148.5,-56 213.43,-23.74 298.33,-14.42 349.51,-11.84"/>
<polygon fill="midnightblue" stroke="midnightblue" points="349.76,-15.33 359.6,-11.39 349.45,-8.34 349.76,-15.33"/>
</g>
<!-- Node8 -->
<g id="node9" class="node">
<title>Node8</title>
<g id="a_node9"><a xlink:href="drake__assert_8h.html" target="_top" xlink:title="Provides Drake&#39;s assertion implementation.">
<polygon fill="white" stroke="black" points="158,-56.5 158,-86.5 277,-86.5 277,-56.5 158,-56.5"/>
<text text-anchor="start" x="166" y="-74.5" font-family="Helvetica,sans-Serif" font-size="10.00">drake/common/drake</text>
<text text-anchor="middle" x="217.5" y="-63.5" font-family="Helvetica,sans-Serif" font-size="10.00">_assert.h</text>
</a>
</g>
</g>
<!-- Node6&#45;&gt;Node8 -->
<g id="edge8" class="edge">
<title>Node6&#45;&gt;Node8</title>
<path fill="none" stroke="midnightblue" d="M93.78,-123.4C117.28,-113.73 148.65,-100.82 173.93,-90.43"/>
<polygon fill="midnightblue" stroke="midnightblue" points="175.37,-93.62 183.28,-86.58 172.7,-87.14 175.37,-93.62"/>
</g>
<!-- Node8&#45;&gt;Node7 -->
<g id="edge9" class="edge">
<title>Node8&#45;&gt;Node7</title>
<path fill="none" stroke="midnightblue" d="M259.45,-56.4C289.9,-46.16 330.63,-32.47 359.37,-22.81"/>
<polygon fill="midnightblue" stroke="midnightblue" points="360.64,-26.07 369,-19.57 358.41,-19.44 360.64,-26.07"/>
</g>
<!-- Node9&#45;&gt;Node4 -->
<g id="edge17" class="edge">
<title>Node9&#45;&gt;Node4</title>
<path fill="none" stroke="midnightblue" d="M515.22,-195.92C559.55,-187.56 625.83,-173.29 681.5,-154 683.12,-153.44 684.77,-152.82 686.42,-152.16"/>
<polygon fill="midnightblue" stroke="midnightblue" points="687.93,-155.32 695.71,-148.13 685.14,-148.9 687.93,-155.32"/>
</g>
<!-- Node9&#45;&gt;Node6 -->
<g id="edge22" class="edge">
<title>Node9&#45;&gt;Node6</title>
<path fill="none" stroke="midnightblue" d="M412.01,-195.94C339.32,-184.3 209.25,-163.47 129.06,-150.64"/>
<polygon fill="midnightblue" stroke="midnightblue" points="129.48,-147.16 119.05,-149.03 128.37,-154.07 129.48,-147.16"/>
</g>
<!-- Node9&#45;&gt;Node7 -->
<g id="edge18" class="edge">
<title>Node9&#45;&gt;Node7</title>
<path fill="none" stroke="midnightblue" d="M480.66,-195.95C494.22,-187.33 513.2,-172.66 521.5,-154 527.1,-141.41 526.68,-135.77 521.5,-123 502.68,-76.58 452.66,-42.34 421.3,-24.63"/>
<polygon fill="midnightblue" stroke="midnightblue" points="422.68,-21.39 412.23,-19.67 419.32,-27.53 422.68,-21.39"/>
</g>
<!-- Node9&#45;&gt;Node8 -->
<g id="edge21" class="edge">
<title>Node9&#45;&gt;Node8</title>
<path fill="none" stroke="midnightblue" d="M402.76,-196.57C329.62,-186.69 217.07,-169.24 204.5,-154 191.19,-137.87 197.28,-113.64 204.98,-95.78"/>
<polygon fill="midnightblue" stroke="midnightblue" points="208.21,-97.15 209.31,-86.62 201.88,-94.16 208.21,-97.15"/>
</g>
<!-- Node10 -->
<g id="node11" class="node">
<title>Node10</title>
<g id="a_node11"><a xlink:title=" ">
<polygon fill="white" stroke="#bfbfbf" points="214,-129 214,-148 261,-148 261,-129 214,-129"/>
<text text-anchor="middle" x="237.5" y="-136" font-family="Helvetica,sans-Serif" font-size="10.00">cmath</text>
</a>
</g>
</g>
<!-- Node9&#45;&gt;Node10 -->
<g id="edge11" class="edge">
<title>Node9&#45;&gt;Node10</title>
<path fill="none" stroke="midnightblue" d="M423.96,-195.99C383.86,-187.27 321.7,-172.39 269.5,-154 267.84,-153.41 266.15,-152.78 264.45,-152.11"/>
<polygon fill="midnightblue" stroke="midnightblue" points="265.45,-148.73 254.88,-148.03 262.71,-155.17 265.45,-148.73"/>
</g>
<!-- Node11 -->
<g id="node12" class="node">
<title>Node11</title>
<g id="a_node12"><a xlink:title=" ">
<polygon fill="white" stroke="#bfbfbf" points="279,-129 279,-148 332,-148 332,-129 279,-129"/>
<text text-anchor="middle" x="305.5" y="-136" font-family="Helvetica,sans-Serif" font-size="10.00">cstddef</text>
</a>
</g>
</g>
<!-- Node9&#45;&gt;Node11 -->
<g id="edge12" class="edge">
<title>Node9&#45;&gt;Node11</title>
<path fill="none" stroke="midnightblue" d="M444.25,-195.87C416.56,-184.62 367.94,-164.87 336.23,-151.99"/>
<polygon fill="midnightblue" stroke="midnightblue" points="337.16,-148.58 326.58,-148.06 334.53,-155.07 337.16,-148.58"/>
</g>
<!-- Node12 -->
<g id="node13" class="node">
<title>Node12</title>
<g id="a_node13"><a xlink:title=" ">
<polygon fill="white" stroke="#bfbfbf" points="607,-129 607,-148 672,-148 672,-129 607,-129"/>
<text text-anchor="middle" x="639.5" y="-136" font-family="Helvetica,sans-Serif" font-size="10.00">functional</text>
</a>
</g>
</g>
<!-- Node9&#45;&gt;Node12 -->
<g id="edge13" class="edge">
<title>Node9&#45;&gt;Node12</title>
<path fill="none" stroke="midnightblue" d="M488.61,-195.87C518.98,-184.52 572.51,-164.52 606.97,-151.65"/>
<polygon fill="midnightblue" stroke="midnightblue" points="608.43,-154.84 616.58,-148.06 605.98,-148.28 608.43,-154.84"/>
</g>
<!-- Node13 -->
<g id="node14" class="node">
<title>Node13</title>
<g id="a_node14"><a xlink:title=" ">
<polygon fill="white" stroke="#bfbfbf" points="350.5,-129 350.5,-148 388.5,-148 388.5,-129 350.5,-129"/>
<text text-anchor="middle" x="369.5" y="-136" font-family="Helvetica,sans-Serif" font-size="10.00">map</text>
</a>
</g>
</g>
<!-- Node9&#45;&gt;Node13 -->
<g id="edge14" class="edge">
<title>Node9&#45;&gt;Node13</title>
<path fill="none" stroke="midnightblue" d="M452.55,-195.73C436.65,-184.96 409.45,-166.55 390.53,-153.74"/>
<polygon fill="midnightblue" stroke="midnightblue" points="392.48,-150.84 382.24,-148.13 388.56,-156.63 392.48,-150.84"/>
</g>
<!-- Node14 -->
<g id="node15" class="node">
<title>Node14</title>
<g id="a_node15"><a xlink:title=" ">
<polygon fill="white" stroke="#bfbfbf" points="406.5,-129 406.5,-148 462.5,-148 462.5,-129 406.5,-129"/>
<text text-anchor="middle" x="434.5" y="-136" font-family="Helvetica,sans-Serif" font-size="10.00">optional</text>
</a>
</g>
</g>
<!-- Node9&#45;&gt;Node14 -->
<g id="edge15" class="edge">
<title>Node9&#45;&gt;Node14</title>
<path fill="none" stroke="midnightblue" d="M461.32,-195.73C456.62,-185.89 448.88,-169.66 442.92,-157.16"/>
<polygon fill="midnightblue" stroke="midnightblue" points="446.08,-155.65 438.61,-148.13 439.76,-158.66 446.08,-155.65"/>
</g>
<!-- Node15 -->
<g id="node16" class="node">
<title>Node15</title>
<g id="a_node16"><a xlink:title=" ">
<polygon fill="white" stroke="#bfbfbf" points="480.5,-129 480.5,-148 512.5,-148 512.5,-129 480.5,-129"/>
<text text-anchor="middle" x="496.5" y="-136" font-family="Helvetica,sans-Serif" font-size="10.00">set</text>
</a>
</g>
</g>
<!-- Node9&#45;&gt;Node15 -->
<g id="edge16" class="edge">
<title>Node9&#45;&gt;Node15</title>
<path fill="none" stroke="midnightblue" d="M469.68,-195.73C474.38,-185.89 482.12,-169.66 488.08,-157.16"/>
<polygon fill="midnightblue" stroke="midnightblue" points="491.24,-158.66 492.39,-148.13 484.92,-155.65 491.24,-158.66"/>
</g>
<!-- Node16 -->
<g id="node17" class="node">
<title>Node16</title>
<g id="a_node17"><a xlink:title=" ">
<polygon fill="white" stroke="#bfbfbf" points="839,-62 839,-81 884,-81 884,-62 839,-62"/>
<text text-anchor="middle" x="861.5" y="-69" font-family="Helvetica,sans-Serif" font-size="10.00">utility</text>
</a>
</g>
</g>
<!-- Node9&#45;&gt;Node16 -->
<g id="edge19" class="edge">
<title>Node9&#45;&gt;Node16</title>
<path fill="none" stroke="midnightblue" d="M481.86,-195.84C499.93,-186.14 529.74,-169.69 554.5,-154 574.7,-141.19 576.48,-132.35 598.5,-123 676.8,-89.73 777.54,-78.22 828.63,-74.36"/>
<polygon fill="midnightblue" stroke="midnightblue" points="829.02,-77.84 838.75,-73.65 828.53,-70.86 829.02,-77.84"/>
</g>
<!-- Node17 -->
<g id="node18" class="node">
<title>Node17</title>
<g id="a_node18"><a xlink:title=" ">
<polygon fill="white" stroke="#bfbfbf" points="753,-129 753,-148 800,-148 800,-129 753,-129"/>
<text text-anchor="middle" x="776.5" y="-136" font-family="Helvetica,sans-Serif" font-size="10.00">vector</text>
</a>
</g>
</g>
<!-- Node9&#45;&gt;Node17 -->
<g id="edge20" class="edge">
<title>Node9&#45;&gt;Node17</title>
<path fill="none" stroke="midnightblue" d="M528.05,-197.4C585.05,-189.93 671.14,-176.13 743.5,-154 745.43,-153.41 747.4,-152.74 749.36,-152.01"/>
<polygon fill="midnightblue" stroke="midnightblue" points="751.03,-155.11 758.98,-148.11 748.4,-148.63 751.03,-155.11"/>
</g>
<!-- Node18&#45;&gt;Node4 -->
<g id="edge26" class="edge">
<title>Node18&#45;&gt;Node4</title>
<path fill="none" stroke="midnightblue" d="M679.46,-257.37C686.18,-233.4 699.82,-184.75 707.3,-158.06"/>
<polygon fill="midnightblue" stroke="midnightblue" points="710.76,-158.67 710.09,-148.1 704.02,-156.78 710.76,-158.67"/>
</g>
<!-- Node18&#45;&gt;Node6 -->
<g id="edge28" class="edge">
<title>Node18&#45;&gt;Node6</title>
<path fill="none" stroke="midnightblue" d="M605.41,-260.12C548.42,-250.58 466.03,-236.11 394.5,-221 299.39,-200.9 190.12,-173.5 122.94,-156.15"/>
<polygon fill="midnightblue" stroke="midnightblue" points="123.5,-152.68 112.94,-153.57 121.74,-159.46 123.5,-152.68"/>
</g>
<!-- Node18&#45;&gt;Node8 -->
<g id="edge27" class="edge">
<title>Node18&#45;&gt;Node8</title>
<path fill="none" stroke="midnightblue" d="M704.95,-257.45C756.82,-230.95 854.89,-171.84 809.5,-123 772.26,-82.93 372.88,-92.89 318.5,-87 308.36,-85.9 297.67,-84.56 287.19,-83.15"/>
<polygon fill="midnightblue" stroke="midnightblue" points="287.61,-79.67 277.23,-81.77 286.66,-86.61 287.61,-79.67"/>
</g>
<!-- Node18&#45;&gt;Node9 -->
<g id="edge29" class="edge">
<title>Node18&#45;&gt;Node9</title>
<path fill="none" stroke="midnightblue" d="M630.19,-257.48C592.22,-245.72 538.66,-229.14 503.04,-218.12"/>
<polygon fill="midnightblue" stroke="midnightblue" points="503.64,-214.64 493.05,-215.03 501.57,-221.33 503.64,-214.64"/>
</g>
<!-- Node18&#45;&gt;Node12 -->
<g id="edge24" class="edge">
<title>Node18&#45;&gt;Node12</title>
<path fill="none" stroke="midnightblue" d="M671.65,-257.37C665.11,-233.4 651.84,-184.75 644.56,-158.06"/>
<polygon fill="midnightblue" stroke="midnightblue" points="647.85,-156.82 641.84,-148.1 641.1,-158.67 647.85,-156.82"/>
</g>
<!-- Node19 -->
<g id="node20" class="node">
<title>Node19</title>
<g id="a_node20"><a xlink:title=" ">
<polygon fill="white" stroke="#bfbfbf" points="822.5,-196 822.5,-215 866.5,-215 866.5,-196 822.5,-196"/>
<text text-anchor="middle" x="844.5" y="-203" font-family="Helvetica,sans-Serif" font-size="10.00">limits</text>
</a>
</g>
</g>
<!-- Node18&#45;&gt;Node19 -->
<g id="edge25" class="edge">
<title>Node18&#45;&gt;Node19</title>
<path fill="none" stroke="midnightblue" d="M713.13,-257.44C739.8,-247.42 776.41,-233.55 808.5,-221 810.34,-220.28 812.22,-219.54 814.12,-218.79"/>
<polygon fill="midnightblue" stroke="midnightblue" points="815.6,-221.96 823.59,-215.01 813,-215.46 815.6,-221.96"/>
</g>
<!-- Node20 -->
<g id="node21" class="node">
<title>Node20</title>
<g id="a_node21"><a xlink:href="nice__type__name_8h.html" target="_top" xlink:title=" ">
<polygon fill="white" stroke="black" points="884.5,-190.5 884.5,-220.5 1024.5,-220.5 1024.5,-190.5 884.5,-190.5"/>
<text text-anchor="start" x="892.5" y="-208.5" font-family="Helvetica,sans-Serif" font-size="10.00">drake/common/nice_type</text>
<text text-anchor="middle" x="954.5" y="-197.5" font-family="Helvetica,sans-Serif" font-size="10.00">_name.h</text>
</a>
</g>
</g>
<!-- Node18&#45;&gt;Node20 -->
<g id="edge30" class="edge">
<title>Node18&#45;&gt;Node20</title>
<path fill="none" stroke="midnightblue" d="M735.7,-257.48C779.27,-247.32 838.31,-233.57 884.08,-222.91"/>
<polygon fill="midnightblue" stroke="midnightblue" points="884.99,-226.29 893.93,-220.61 883.4,-219.47 884.99,-226.29"/>
</g>
<!-- Node20&#45;&gt;Node4 -->
<g id="edge32" class="edge">
<title>Node20&#45;&gt;Node4</title>
<path fill="none" stroke="midnightblue" d="M884.03,-191.04C842.81,-182.31 790.07,-169.65 744.5,-154 742.83,-153.43 741.14,-152.8 739.44,-152.14"/>
<polygon fill="midnightblue" stroke="midnightblue" points="740.44,-148.76 729.86,-148.09 737.71,-155.21 740.44,-148.76"/>
</g>
<!-- Node20&#45;&gt;Node16 -->
<g id="edge34" class="edge">
<title>Node20&#45;&gt;Node16</title>
<path fill="none" stroke="midnightblue" d="M927.51,-190.5C913.14,-181.77 896.26,-169.3 885.5,-154 872.21,-135.09 866.2,-108.8 863.53,-91.25"/>
<polygon fill="midnightblue" stroke="midnightblue" points="866.98,-90.6 862.22,-81.14 860.04,-91.5 866.98,-90.6"/>
</g>
<!-- Node20&#45;&gt;Node17 -->
<g id="edge35" class="edge">
<title>Node20&#45;&gt;Node17</title>
<path fill="none" stroke="midnightblue" d="M915.88,-190.4C884.09,-178.79 839.52,-162.51 809.41,-151.52"/>
<polygon fill="midnightblue" stroke="midnightblue" points="810.39,-148.15 799.8,-148.01 807.99,-154.72 810.39,-148.15"/>
</g>
<!-- Node21 -->
<g id="node22" class="node">
<title>Node21</title>
<g id="a_node22"><a xlink:title=" ">
<polygon fill="white" stroke="#bfbfbf" points="1032.5,-129 1032.5,-148 1090.5,-148 1090.5,-129 1032.5,-129"/>
<text text-anchor="middle" x="1061.5" y="-136" font-family="Helvetica,sans-Serif" font-size="10.00">memory</text>
</a>
</g>
</g>
<!-- Node20&#45;&gt;Node21 -->
<g id="edge31" class="edge">
<title>Node20&#45;&gt;Node21</title>
<path fill="none" stroke="midnightblue" d="M977.72,-190.4C995.83,-179.39 1020.84,-164.2 1038.81,-153.28"/>
<polygon fill="midnightblue" stroke="midnightblue" points="1040.77,-156.19 1047.5,-148.01 1037.13,-150.21 1040.77,-156.19"/>
</g>
<!-- Node22 -->
<g id="node23" class="node">
<title>Node22</title>
<g id="a_node23"><a xlink:title=" ">
<polygon fill="white" stroke="#bfbfbf" points="1109,-129 1109,-148 1166,-148 1166,-129 1109,-129"/>
<text text-anchor="middle" x="1137.5" y="-136" font-family="Helvetica,sans-Serif" font-size="10.00">typeinfo</text>
</a>
</g>
</g>
<!-- Node20&#45;&gt;Node22 -->
<g id="edge33" class="edge">
<title>Node20&#45;&gt;Node22</title>
<path fill="none" stroke="midnightblue" d="M995.87,-190.45C1024.93,-180.5 1064.69,-166.7 1099.5,-154 1101.6,-153.23 1103.77,-152.43 1105.94,-151.62"/>
<polygon fill="midnightblue" stroke="midnightblue" points="1107.31,-154.85 1115.44,-148.04 1104.85,-148.3 1107.31,-154.85"/>
</g>
<!-- Node23 -->
<g id="node24" class="node">
<title>Node23</title>
<g id="a_node24"><a xlink:href="never__destroyed_8h.html" target="_top" xlink:title=" ">
<polygon fill="white" stroke="black" points="894.5,-123.5 894.5,-153.5 1014.5,-153.5 1014.5,-123.5 894.5,-123.5"/>
<text text-anchor="start" x="902.5" y="-141.5" font-family="Helvetica,sans-Serif" font-size="10.00">drake/common/never</text>
<text text-anchor="middle" x="954.5" y="-130.5" font-family="Helvetica,sans-Serif" font-size="10.00">_destroyed.h</text>
</a>
</g>
</g>
<!-- Node20&#45;&gt;Node23 -->
<g id="edge36" class="edge">
<title>Node20&#45;&gt;Node23</title>
<path fill="none" stroke="midnightblue" d="M954.5,-190.4C954.5,-182.64 954.5,-172.81 954.5,-163.86"/>
<polygon fill="midnightblue" stroke="midnightblue" points="958,-163.58 954.5,-153.58 951,-163.58 958,-163.58"/>
</g>
<!-- Node23&#45;&gt;Node5 -->
<g id="edge40" class="edge">
<title>Node23&#45;&gt;Node5</title>
<path fill="none" stroke="midnightblue" d="M894.37,-129.51C877.59,-127.34 859.34,-125.02 842.5,-123 706.11,-106.6 546.49,-89.33 457.17,-79.83"/>
<polygon fill="midnightblue" stroke="midnightblue" points="457.48,-76.35 447.16,-78.77 456.74,-83.31 457.48,-76.35"/>
</g>
<!-- Node23&#45;&gt;Node7 -->
<g id="edge38" class="edge">
<title>Node23&#45;&gt;Node7</title>
<path fill="none" stroke="midnightblue" d="M948.46,-123.36C939.52,-104.37 920.82,-71.25 893.5,-56 816.32,-12.92 547.19,-9.88 439.53,-10.46"/>
<polygon fill="midnightblue" stroke="midnightblue" points="439.3,-6.96 429.32,-10.52 439.34,-13.96 439.3,-6.96"/>
</g>
<!-- Node23&#45;&gt;Node16 -->
<g id="edge39" class="edge">
<title>Node23&#45;&gt;Node16</title>
<path fill="none" stroke="midnightblue" d="M934.32,-123.4C918.87,-112.6 897.64,-97.76 882.08,-86.89"/>
<polygon fill="midnightblue" stroke="midnightblue" points="883.87,-83.87 873.67,-81.01 879.86,-89.6 883.87,-83.87"/>
</g>
<!-- Node24 -->
<g id="node25" class="node">
<title>Node24</title>
<g id="a_node25"><a xlink:title=" ">
<polygon fill="white" stroke="#bfbfbf" points="941,-62 941,-81 978,-81 978,-62 941,-62"/>
<text text-anchor="middle" x="959.5" y="-69" font-family="Helvetica,sans-Serif" font-size="10.00">new</text>
</a>
</g>
</g>
<!-- Node23&#45;&gt;Node24 -->
<g id="edge37" class="edge">
<title>Node23&#45;&gt;Node24</title>
<path fill="none" stroke="midnightblue" d="M955.58,-123.4C956.31,-113.96 957.27,-101.45 958.06,-91.19"/>
<polygon fill="midnightblue" stroke="midnightblue" points="961.55,-91.43 958.83,-81.19 954.57,-90.9 961.55,-91.43"/>
</g>
</g>
</svg>
        <g id="navigator" transform="translate(0 0)" fill="#404254">
                <rect fill="#f2f5e9" fill-opacity="0.5" stroke="#606060" stroke-width=".5" x="0" y="0" width="60" height="60"/>
                <use id="zoomplus" xlink:href="#zoomPlus" x="17" y="9" onmousedown="handleZoom(evt,'in')"/>
                <use id="zoomminus" xlink:href="#zoomMin" x="42" y="9" onmousedown="handleZoom(evt,'out')"/>
                <use id="reset" xlink:href="#resetDef" x="30" y="36" onmousedown="handleReset()"/>
                <g id="arrowUp" xlink:href="#dirArrow" transform="translate(30 24)" onmousedown="handlePan(0,-1)">
                  <use xlink:href="#rim" fill="#404040">
                        <set attributeName="fill" to="#808080" begin="arrowUp.mouseover" end="arrowUp.mouseout"/>
                  </use>
                  <path fill="none" stroke="white" stroke-width="1.5" d="M0,-3.0v7 M-2.5,-0.5L0,-3.0L2.5,-0.5"/>
                </g>
                <g id="arrowRight" xlink:href="#dirArrow" transform="rotate(90) translate(36 -43)" onmousedown="handlePan(1,0)">
                  <use xlink:href="#rim" fill="#404040">
                        <set attributeName="fill" to="#808080" begin="arrowRight.mouseover" end="arrowRight.mouseout"/>
                  </use>
                  <path fill="none" stroke="white" stroke-width="1.5" d="M0,-3.0v7 M-2.5,-0.5L0,-3.0L2.5,-0.5"/>
                </g>
                <g id="arrowDown" xlink:href="#dirArrow" transform="rotate(180) translate(-30 -48)" onmousedown="handlePan(0,1)">
                  <use xlink:href="#rim" fill="#404040">
                        <set attributeName="fill" to="#808080" begin="arrowDown.mouseover" end="arrowDown.mouseout"/>
                  </use>
                  <path fill="none" stroke="white" stroke-width="1.5" d="M0,-3.0v7 M-2.5,-0.5L0,-3.0L2.5,-0.5"/>
                </g>
                <g id="arrowLeft" xlink:href="#dirArrow" transform="rotate(270) translate(-36 17)" onmousedown="handlePan(-1,0)">
                  <use xlink:href="#rim" fill="#404040">
                        <set attributeName="fill" to="#808080" begin="arrowLeft.mouseover" end="arrowLeft.mouseout"/>
                  </use>
                  <path fill="none" stroke="white" stroke-width="1.5" d="M0,-3.0v7 M-2.5,-0.5L0,-3.0L2.5,-0.5"/>
                </g>
        </g>
        <svg viewBox="0 0 15 15" width="100%" height="30px" preserveAspectRatio="xMaxYMin meet">
         <g id="arrow_out" transform="scale(0.3 0.3)">
          <a xlink:href="fem__indexes_8h__incl_org.svg" target="_base">
           <rect id="button" ry="5" rx="5" y="6" x="6" height="38" width="38"
                fill="#f2f5e9" fill-opacity="0.5" stroke="#606060" stroke-width="1.0"/>
           <path id="arrow"
             d="M 11.500037,31.436501 C 11.940474,20.09759 22.043105,11.32322 32.158766,21.979434 L 37.068811,17.246167 C 37.068811,17.246167 37.088388,32 37.088388,32 L 22.160133,31.978069 C 22.160133,31.978069 26.997745,27.140456 26.997745,27.140456 C 18.528582,18.264221 13.291696,25.230495 11.500037,31.436501 z"
             style="fill:#404040;"/>
          </a>
         </g>
        </svg>
</svg>
