<?xml version="1.0" encoding="UTF-8" standalone="no"?>
<!DOCTYPE svg PUBLIC "-//W3C//DTD SVG 1.1//EN"
 "http://www.w3.org/Graphics/SVG/1.1/DTD/svg11.dtd">
<!-- Generated by graphviz version 2.43.0 (0)
 -->
<!-- Title: drake/multibody/fem/fem_model.h Pages: 1 -->
<svg width="428pt" height="318pt"
 viewBox="0.00 0.00 428.00 318.00" xmlns="http://www.w3.org/2000/svg" xmlns:xlink="http://www.w3.org/1999/xlink">
<g id="graph0" class="graph" transform="scale(1 1) rotate(0) translate(4 314)">
<title>drake/multibody/fem/fem_model.h</title>
<polygon fill="white" stroke="transparent" points="-4,4 -4,-314 424,-314 424,4 -4,4"/>
<!-- Node119 -->
<g id="node1" class="node">
<title>Node119</title>
<g id="a_node1"><a xlink:title=" ">
<polygon fill="#bfbfbf" stroke="black" points="137,-279.5 137,-309.5 256,-309.5 256,-279.5 137,-279.5"/>
<text text-anchor="start" x="145" y="-297.5" font-family="Helvetica,sans-Serif" font-size="10.00">drake/multibody/fem</text>
<text text-anchor="middle" x="196.5" y="-286.5" font-family="Helvetica,sans-Serif" font-size="10.00">/fem_model.h</text>
</a>
</g>
</g>
<!-- Node120 -->
<g id="node2" class="node">
<title>Node120</title>
<g id="a_node2"><a xlink:href="fem__model__impl_8h.html" target="_top" xlink:title=" ">
<polygon fill="white" stroke="black" points="0,-212.5 0,-242.5 119,-242.5 119,-212.5 0,-212.5"/>
<text text-anchor="start" x="8" y="-230.5" font-family="Helvetica,sans-Serif" font-size="10.00">drake/multibody/fem</text>
<text text-anchor="middle" x="59.5" y="-219.5" font-family="Helvetica,sans-Serif" font-size="10.00">/fem_model_impl.h</text>
</a>
</g>
</g>
<!-- Node119&#45;&gt;Node120 -->
<g id="edge1" class="edge">
<title>Node119&#45;&gt;Node120</title>
<path fill="none" stroke="midnightblue" d="M157.49,-274.99C135.78,-264.69 109.17,-252.07 89.17,-242.58"/>
<polygon fill="midnightblue" stroke="midnightblue" points="156.24,-278.27 166.77,-279.4 159.24,-271.95 156.24,-278.27"/>
</g>
<!-- Node122 -->
<g id="node4" class="node">
<title>Node122</title>
<g id="a_node4"><a xlink:href="fem__solver_8h.html" target="_top" xlink:title=" ">
<polygon fill="white" stroke="black" points="137,-212.5 137,-242.5 256,-242.5 256,-212.5 137,-212.5"/>
<text text-anchor="start" x="145" y="-230.5" font-family="Helvetica,sans-Serif" font-size="10.00">drake/multibody/fem</text>
<text text-anchor="middle" x="196.5" y="-219.5" font-family="Helvetica,sans-Serif" font-size="10.00">/fem_solver.h</text>
</a>
</g>
</g>
<!-- Node119&#45;&gt;Node122 -->
<g id="edge3" class="edge">
<title>Node119&#45;&gt;Node122</title>
<path fill="none" stroke="midnightblue" d="M196.5,-269.11C196.5,-260.15 196.5,-250.32 196.5,-242.58"/>
<polygon fill="midnightblue" stroke="midnightblue" points="193,-269.4 196.5,-279.4 200,-269.4 193,-269.4"/>
</g>
<!-- Node123 -->
<g id="node5" class="node">
<title>Node123</title>
<g id="a_node5"><a xlink:href="deformable__model_8h.html" target="_top" xlink:title=" ">
<polygon fill="white" stroke="black" points="274.5,-212.5 274.5,-242.5 398.5,-242.5 398.5,-212.5 274.5,-212.5"/>
<text text-anchor="start" x="282.5" y="-230.5" font-family="Helvetica,sans-Serif" font-size="10.00">drake/multibody/plant</text>
<text text-anchor="middle" x="336.5" y="-219.5" font-family="Helvetica,sans-Serif" font-size="10.00">/deformable_model.h</text>
</a>
</g>
</g>
<!-- Node119&#45;&gt;Node123 -->
<g id="edge4" class="edge">
<title>Node119&#45;&gt;Node123</title>
<path fill="none" stroke="midnightblue" d="M236.07,-275.13C258.31,-264.8 285.65,-252.11 306.18,-242.58"/>
<polygon fill="midnightblue" stroke="midnightblue" points="234.47,-272.01 226.88,-279.4 237.42,-278.36 234.47,-272.01"/>
</g>
<!-- Node121 -->
<g id="node3" class="node">
<title>Node121</title>
<g id="a_node3"><a xlink:href="volumetric__model_8h.html" target="_top" xlink:title=" ">
<polygon fill="white" stroke="black" points="0,-145.5 0,-175.5 119,-175.5 119,-145.5 0,-145.5"/>
<text text-anchor="start" x="8" y="-163.5" font-family="Helvetica,sans-Serif" font-size="10.00">drake/multibody/fem</text>
<text text-anchor="middle" x="59.5" y="-152.5" font-family="Helvetica,sans-Serif" font-size="10.00">/volumetric_model.h</text>
</a>
</g>
</g>
<!-- Node120&#45;&gt;Node121 -->
<g id="edge2" class="edge">
<title>Node120&#45;&gt;Node121</title>
<path fill="none" stroke="midnightblue" d="M59.5,-202.11C59.5,-193.15 59.5,-183.32 59.5,-175.58"/>
<polygon fill="midnightblue" stroke="midnightblue" points="56,-202.4 59.5,-212.4 63,-202.4 56,-202.4"/>
</g>
<!-- Node124 -->
<g id="node6" class="node">
<title>Node124</title>
<g id="a_node6"><a xlink:href="deformable__driver_8h.html" target="_top" xlink:title=" ">
<polygon fill="white" stroke="black" points="274.5,-145.5 274.5,-175.5 398.5,-175.5 398.5,-145.5 274.5,-145.5"/>
<text text-anchor="start" x="282.5" y="-163.5" font-family="Helvetica,sans-Serif" font-size="10.00">drake/multibody/plant</text>
<text text-anchor="middle" x="336.5" y="-152.5" font-family="Helvetica,sans-Serif" font-size="10.00">/deformable_driver.h</text>
</a>
</g>
</g>
<!-- Node123&#45;&gt;Node124 -->
<g id="edge5" class="edge">
<title>Node123&#45;&gt;Node124</title>
<path fill="none" stroke="midnightblue" d="M336.5,-202.11C336.5,-193.15 336.5,-183.32 336.5,-175.58"/>
<polygon fill="midnightblue" stroke="midnightblue" points="333,-202.4 336.5,-212.4 340,-202.4 333,-202.4"/>
</g>
<!-- Node125 -->
<g id="node7" class="node">
<title>Node125</title>
<g id="a_node7"><a xlink:href="compliant__contact__manager_8h.html" target="_top" xlink:title=" ">
<polygon fill="white" stroke="black" points="253,-78.5 253,-108.5 420,-108.5 420,-78.5 253,-78.5"/>
<text text-anchor="start" x="261" y="-96.5" font-family="Helvetica,sans-Serif" font-size="10.00">drake/multibody/plant</text>
<text text-anchor="middle" x="336.5" y="-85.5" font-family="Helvetica,sans-Serif" font-size="10.00">/compliant_contact_manager.h</text>
</a>
</g>
</g>
<!-- Node124&#45;&gt;Node125 -->
<g id="edge6" class="edge">
<title>Node124&#45;&gt;Node125</title>
<path fill="none" stroke="midnightblue" d="M336.5,-135.11C336.5,-126.15 336.5,-116.32 336.5,-108.58"/>
<polygon fill="midnightblue" stroke="midnightblue" points="333,-135.4 336.5,-145.4 340,-135.4 333,-135.4"/>
</g>
<!-- Node126 -->
<g id="node8" class="node">
<title>Node126</title>
<g id="a_node8"><a xlink:href="rigid__body__on__compliant__ground_8h.html" target="_top" xlink:title=" ">
<polygon fill="white" stroke="black" points="254,-0.5 254,-41.5 419,-41.5 419,-0.5 254,-0.5"/>
<text text-anchor="start" x="262" y="-29.5" font-family="Helvetica,sans-Serif" font-size="10.00">drake/multibody/plant</text>
<text text-anchor="start" x="262" y="-18.5" font-family="Helvetica,sans-Serif" font-size="10.00">/test_utilities/rigid</text>
<text text-anchor="middle" x="336.5" y="-7.5" font-family="Helvetica,sans-Serif" font-size="10.00">_body_on_compliant_ground.h</text>
</a>
</g>
</g>
<!-- Node125&#45;&gt;Node126 -->
<g id="edge7" class="edge">
<title>Node125&#45;&gt;Node126</title>
<path fill="none" stroke="midnightblue" d="M336.5,-67.98C336.5,-59.35 336.5,-49.76 336.5,-41.59"/>
<polygon fill="midnightblue" stroke="midnightblue" points="333,-68.23 336.5,-78.23 340,-68.23 333,-68.23"/>
</g>
</g>
</svg>
