<?xml version="1.0" encoding="UTF-8" standalone="no"?>
<!DOCTYPE svg PUBLIC "-//W3C//DTD SVG 1.1//EN"
 "http://www.w3.org/Graphics/SVG/1.1/DTD/svg11.dtd">
<!-- Generated by graphviz version 2.43.0 (0)
 -->
<!-- Title: drake/common/file_source.h Pages: 1 -->
<!--zoomable 229 -->
<svg id="main" version="1.1" xmlns="http://www.w3.org/2000/svg" xmlns:xlink="http://www.w3.org/1999/xlink" xml:space="preserve" onload="init(evt)">
<style type="text/css"><![CDATA[
.edge:hover path { stroke: red; }
.edge:hover polygon { stroke: red; fill: red; }
]]></style>
<script type="text/javascript"><![CDATA[
var edges = document.getElementsByTagName('g');
if (edges && edges.length) {
  for (var i=0;i<edges.length;i++) {
    if (edges[i].id.substr(0,4)=='edge') {
      edges[i].setAttribute('class','edge');
    }
  }
}
]]></script>
        <defs>
                <circle id="rim" cx="0" cy="0" r="7"/>
                <circle id="rim2" cx="0" cy="0" r="3.5"/>
                <g id="zoomPlus">
                        <use xlink:href="#rim" fill="#404040">
                                <set attributeName="fill" to="#808080" begin="zoomplus.mouseover" end="zoomplus.mouseout"/>
                        </use>
                        <path d="M-4,0h8M0,-4v8" fill="none" stroke="white" stroke-width="1.5" pointer-events="none"/>
                </g>
                <g id="zoomMin">
                        <use xlink:href="#rim" fill="#404040">
                                <set attributeName="fill" to="#808080" begin="zoomminus.mouseover" end="zoomminus.mouseout"/>
                        </use>
                        <path d="M-4,0h8" fill="none" stroke="white" stroke-width="1.5" pointer-events="none"/>
                </g>
                <g id="dirArrow">
                        <path fill="none" stroke="white" stroke-width="1.5" d="M0,-3.0v7 M-2.5,-0.5L0,-3.0L2.5,-0.5"/>
                </g>
               <g id="resetDef">
                       <use xlink:href="#rim2" fill="#404040">
                               <set attributeName="fill" to="#808080" begin="reset.mouseover" end="reset.mouseout"/>
                       </use>
               </g>
        </defs>

<script type="text/javascript">
var viewWidth = 867;
var viewHeight = 229;
var sectionId = 'dynsection-0';
</script>
<script xlink:href="svgpan.js"/>
<svg id="graph" class="graph">
<g id="viewport">
<title>drake/common/file_source.h</title>
<polygon fill="white" stroke="transparent" points="-4,4 -4,-225 863,-225 863,4 -4,4"/>
<!-- Node0 -->
<g id="node1" class="node">
<title>Node0</title>
<g id="a_node1"><a xlink:title=" ">
<polygon fill="#bfbfbf" stroke="black" points="84.5,-201.5 84.5,-220.5 238.5,-220.5 238.5,-201.5 84.5,-201.5"/>
<text text-anchor="middle" x="161.5" y="-208.5" font-family="Helvetica,sans-Serif" font-size="10.00">drake/common/file_source.h</text>
</a>
</g>
</g>
<!-- Node1 -->
<g id="node2" class="node">
<title>Node1</title>
<g id="a_node2"><a xlink:title=" ">
<polygon fill="white" stroke="#bfbfbf" points="243.5,-73 243.5,-92 311.5,-92 311.5,-73 243.5,-73"/>
<text text-anchor="middle" x="277.5" y="-80" font-family="Helvetica,sans-Serif" font-size="10.00">filesystem</text>
</a>
</g>
</g>
<!-- Node0&#45;&gt;Node1 -->
<g id="edge1" class="edge">
<title>Node0&#45;&gt;Node1</title>
<path fill="none" stroke="midnightblue" d="M152.03,-201.45C136.9,-186.76 110.54,-156.16 126.5,-134 139.23,-116.32 193.54,-101.26 233.39,-92.31"/>
<polygon fill="midnightblue" stroke="midnightblue" points="234.16,-95.72 243.18,-90.16 232.66,-88.88 234.16,-95.72"/>
</g>
<!-- Node2 -->
<g id="node3" class="node">
<title>Node2</title>
<g id="a_node3"><a xlink:title=" ">
<polygon fill="white" stroke="#bfbfbf" points="191.5,-6 191.5,-25 235.5,-25 235.5,-6 191.5,-6"/>
<text text-anchor="middle" x="213.5" y="-13" font-family="Helvetica,sans-Serif" font-size="10.00">string</text>
</a>
</g>
</g>
<!-- Node0&#45;&gt;Node2 -->
<g id="edge2" class="edge">
<title>Node0&#45;&gt;Node2</title>
<path fill="none" stroke="midnightblue" d="M170.39,-201.25C178.41,-192.78 189.78,-179.16 195.5,-165 213.19,-121.19 214.83,-64.65 214.29,-35.6"/>
<polygon fill="midnightblue" stroke="midnightblue" points="217.78,-35.15 213.99,-25.26 210.79,-35.36 217.78,-35.15"/>
</g>
<!-- Node3 -->
<g id="node4" class="node">
<title>Node3</title>
<g id="a_node4"><a xlink:title=" ">
<polygon fill="white" stroke="#bfbfbf" points="136,-140 136,-159 187,-159 187,-140 136,-140"/>
<text text-anchor="middle" x="161.5" y="-147" font-family="Helvetica,sans-Serif" font-size="10.00">variant</text>
</a>
</g>
</g>
<!-- Node0&#45;&gt;Node3 -->
<g id="edge3" class="edge">
<title>Node0&#45;&gt;Node3</title>
<path fill="none" stroke="midnightblue" d="M161.5,-201.48C161.5,-193.08 161.5,-179.98 161.5,-169.16"/>
<polygon fill="midnightblue" stroke="midnightblue" points="165,-169.01 161.5,-159.01 158,-169.01 165,-169.01"/>
</g>
<!-- Node4 -->
<g id="node5" class="node">
<title>Node4</title>
<g id="a_node5"><a xlink:href="fmt_8h.html" target="_top" xlink:title=" ">
<polygon fill="white" stroke="black" points="68,-73 68,-92 187,-92 187,-73 68,-73"/>
<text text-anchor="middle" x="127.5" y="-80" font-family="Helvetica,sans-Serif" font-size="10.00">drake/common/fmt.h</text>
</a>
</g>
</g>
<!-- Node0&#45;&gt;Node4 -->
<g id="edge4" class="edge">
<title>Node0&#45;&gt;Node4</title>
<path fill="none" stroke="midnightblue" d="M138.05,-201.41C122.34,-194.28 102.88,-182.46 93.5,-165 81.88,-143.38 98.09,-116.93 111.87,-100.14"/>
<polygon fill="midnightblue" stroke="midnightblue" points="114.75,-102.16 118.69,-92.32 109.48,-97.56 114.75,-102.16"/>
</g>
<!-- Node7 -->
<g id="node8" class="node">
<title>Node7</title>
<g id="a_node8"><a xlink:href="memory__file_8h.html" target="_top" xlink:title=" ">
<polygon fill="white" stroke="black" points="272.5,-134.5 272.5,-164.5 406.5,-164.5 406.5,-134.5 272.5,-134.5"/>
<text text-anchor="start" x="280.5" y="-152.5" font-family="Helvetica,sans-Serif" font-size="10.00">drake/common/memory</text>
<text text-anchor="middle" x="339.5" y="-141.5" font-family="Helvetica,sans-Serif" font-size="10.00">_file.h</text>
</a>
</g>
</g>
<!-- Node0&#45;&gt;Node7 -->
<g id="edge8" class="edge">
<title>Node0&#45;&gt;Node7</title>
<path fill="none" stroke="midnightblue" d="M187,-201.48C213.25,-192.7 254.87,-178.79 288.01,-167.71"/>
<polygon fill="midnightblue" stroke="midnightblue" points="289.17,-171.01 297.55,-164.52 286.96,-164.37 289.17,-171.01"/>
</g>
<!-- Node4&#45;&gt;Node2 -->
<g id="edge5" class="edge">
<title>Node4&#45;&gt;Node2</title>
<path fill="none" stroke="midnightblue" d="M139.1,-72.73C153.15,-62.11 177.05,-44.05 193.97,-31.26"/>
<polygon fill="midnightblue" stroke="midnightblue" points="196.22,-33.95 202.09,-25.13 192,-28.36 196.22,-33.95"/>
</g>
<!-- Node5 -->
<g id="node6" class="node">
<title>Node5</title>
<g id="a_node6"><a xlink:title=" ">
<polygon fill="white" stroke="#bfbfbf" points="0,-6 0,-25 73,-25 73,-6 0,-6"/>
<text text-anchor="middle" x="36.5" y="-13" font-family="Helvetica,sans-Serif" font-size="10.00">string_view</text>
</a>
</g>
</g>
<!-- Node4&#45;&gt;Node5 -->
<g id="edge6" class="edge">
<title>Node4&#45;&gt;Node5</title>
<path fill="none" stroke="midnightblue" d="M115.23,-72.73C100.35,-62.11 75.07,-44.05 57.17,-31.26"/>
<polygon fill="midnightblue" stroke="midnightblue" points="58.75,-28.09 48.58,-25.13 54.68,-33.79 58.75,-28.09"/>
</g>
<!-- Node6 -->
<g id="node7" class="node">
<title>Node6</title>
<g id="a_node7"><a xlink:title=" ">
<polygon fill="white" stroke="#bfbfbf" points="91,-6 91,-25 170,-25 170,-6 91,-6"/>
<text text-anchor="middle" x="130.5" y="-13" font-family="Helvetica,sans-Serif" font-size="10.00">fmt/format.h</text>
</a>
</g>
</g>
<!-- Node4&#45;&gt;Node6 -->
<g id="edge7" class="edge">
<title>Node4&#45;&gt;Node6</title>
<path fill="none" stroke="midnightblue" d="M127.9,-72.73C128.35,-63.18 129.06,-47.62 129.63,-35.28"/>
<polygon fill="midnightblue" stroke="midnightblue" points="133.14,-35.28 130.1,-25.13 126.14,-34.96 133.14,-35.28"/>
</g>
<!-- Node7&#45;&gt;Node1 -->
<g id="edge9" class="edge">
<title>Node7&#45;&gt;Node1</title>
<path fill="none" stroke="midnightblue" d="M326.05,-134.4C316.28,-124.16 303.06,-110.3 292.88,-99.62"/>
<polygon fill="midnightblue" stroke="midnightblue" points="295.23,-97.01 285.79,-92.19 290.16,-101.85 295.23,-97.01"/>
</g>
<!-- Node7&#45;&gt;Node2 -->
<g id="edge10" class="edge">
<title>Node7&#45;&gt;Node2</title>
<path fill="none" stroke="midnightblue" d="M339.78,-134.21C339.38,-116.55 336.2,-86.44 320.5,-67 320.16,-66.57 272.88,-44.35 241.29,-29.53"/>
<polygon fill="midnightblue" stroke="midnightblue" points="242.6,-26.27 232.06,-25.2 239.62,-32.61 242.6,-26.27"/>
</g>
<!-- Node7&#45;&gt;Node4 -->
<g id="edge12" class="edge">
<title>Node7&#45;&gt;Node4</title>
<path fill="none" stroke="midnightblue" d="M293.76,-134.48C255.26,-122.67 200.89,-106 164.94,-94.98"/>
<polygon fill="midnightblue" stroke="midnightblue" points="165.9,-91.61 155.32,-92.03 163.85,-98.31 165.9,-91.61"/>
</g>
<!-- Node8 -->
<g id="node9" class="node">
<title>Node8</title>
<g id="a_node9"><a xlink:href="drake__copyable_8h.html" target="_top" xlink:title="Provides careful macros to selectively enable or disable the special member functions for copy&#45;constr...">
<polygon fill="white" stroke="black" points="590,-0.5 590,-30.5 709,-30.5 709,-0.5 590,-0.5"/>
<text text-anchor="start" x="598" y="-18.5" font-family="Helvetica,sans-Serif" font-size="10.00">drake/common/drake</text>
<text text-anchor="middle" x="649.5" y="-7.5" font-family="Helvetica,sans-Serif" font-size="10.00">_copyable.h</text>
</a>
</g>
</g>
<!-- Node7&#45;&gt;Node8 -->
<g id="edge11" class="edge">
<title>Node7&#45;&gt;Node8</title>
<path fill="none" stroke="midnightblue" d="M402.47,-134.4C436.14,-125.83 477.89,-113.53 513.5,-98 552.72,-80.9 594.45,-54.52 621.18,-36.43"/>
<polygon fill="midnightblue" stroke="midnightblue" points="623.37,-39.18 629.65,-30.64 619.42,-33.4 623.37,-39.18"/>
</g>
<!-- Node9 -->
<g id="node10" class="node">
<title>Node9</title>
<g id="a_node10"><a xlink:href="reset__after__move_8h.html" target="_top" xlink:title=" ">
<polygon fill="white" stroke="black" points="691,-67.5 691,-97.5 808,-97.5 808,-67.5 691,-67.5"/>
<text text-anchor="start" x="699" y="-85.5" font-family="Helvetica,sans-Serif" font-size="10.00">drake/common/reset</text>
<text text-anchor="middle" x="749.5" y="-74.5" font-family="Helvetica,sans-Serif" font-size="10.00">_after_move.h</text>
</a>
</g>
</g>
<!-- Node7&#45;&gt;Node9 -->
<g id="edge13" class="edge">
<title>Node7&#45;&gt;Node9</title>
<path fill="none" stroke="midnightblue" d="M406.74,-137.84C482.41,-125.84 604.66,-106.46 680.88,-94.38"/>
<polygon fill="midnightblue" stroke="midnightblue" points="681.53,-97.82 690.86,-92.8 680.44,-90.91 681.53,-97.82"/>
</g>
<!-- Node12 -->
<g id="node13" class="node">
<title>Node12</title>
<g id="a_node13"><a xlink:href="sha256_8h.html" target="_top" xlink:title=" ">
<polygon fill="white" stroke="black" points="368,-73 368,-92 505,-92 505,-73 368,-73"/>
<text text-anchor="middle" x="436.5" y="-80" font-family="Helvetica,sans-Serif" font-size="10.00">drake/common/sha256.h</text>
</a>
</g>
</g>
<!-- Node7&#45;&gt;Node12 -->
<g id="edge16" class="edge">
<title>Node7&#45;&gt;Node12</title>
<path fill="none" stroke="midnightblue" d="M360.55,-134.4C376.81,-123.5 399.22,-108.48 415.48,-97.58"/>
<polygon fill="midnightblue" stroke="midnightblue" points="417.45,-100.48 423.8,-92.01 413.55,-94.67 417.45,-100.48"/>
</g>
<!-- Node10 -->
<g id="node11" class="node">
<title>Node10</title>
<g id="a_node11"><a xlink:title=" ">
<polygon fill="white" stroke="#bfbfbf" points="790,-6 790,-25 859,-25 859,-6 790,-6"/>
<text text-anchor="middle" x="824.5" y="-13" font-family="Helvetica,sans-Serif" font-size="10.00">type_traits</text>
</a>
</g>
</g>
<!-- Node9&#45;&gt;Node10 -->
<g id="edge14" class="edge">
<title>Node9&#45;&gt;Node10</title>
<path fill="none" stroke="midnightblue" d="M765.77,-67.4C777.82,-56.96 794.21,-42.75 806.62,-32"/>
<polygon fill="midnightblue" stroke="midnightblue" points="809.2,-34.39 814.47,-25.19 804.62,-29.1 809.2,-34.39"/>
</g>
<!-- Node11 -->
<g id="node12" class="node">
<title>Node11</title>
<g id="a_node12"><a xlink:title=" ">
<polygon fill="white" stroke="#bfbfbf" points="727,-6 727,-25 772,-25 772,-6 727,-6"/>
<text text-anchor="middle" x="749.5" y="-13" font-family="Helvetica,sans-Serif" font-size="10.00">utility</text>
</a>
</g>
</g>
<!-- Node9&#45;&gt;Node11 -->
<g id="edge15" class="edge">
<title>Node9&#45;&gt;Node11</title>
<path fill="none" stroke="midnightblue" d="M749.5,-67.4C749.5,-58.06 749.5,-45.71 749.5,-35.52"/>
<polygon fill="midnightblue" stroke="midnightblue" points="753,-35.19 749.5,-25.19 746,-35.19 753,-35.19"/>
</g>
<!-- Node12&#45;&gt;Node2 -->
<g id="edge22" class="edge">
<title>Node12&#45;&gt;Node2</title>
<path fill="none" stroke="midnightblue" d="M395.39,-72.95C356.07,-64.24 295.38,-49.42 244.5,-31 242.89,-30.42 241.24,-29.78 239.6,-29.11"/>
<polygon fill="midnightblue" stroke="midnightblue" points="240.89,-25.85 230.32,-25.04 238.07,-32.26 240.89,-25.85"/>
</g>
<!-- Node12&#45;&gt;Node8 -->
<g id="edge23" class="edge">
<title>Node12&#45;&gt;Node8</title>
<path fill="none" stroke="midnightblue" d="M464.78,-72.87C497.58,-62.86 552.42,-46.13 593.84,-33.48"/>
<polygon fill="midnightblue" stroke="midnightblue" points="594.99,-36.79 603.53,-30.53 592.94,-30.1 594.99,-36.79"/>
</g>
<!-- Node13 -->
<g id="node14" class="node">
<title>Node13</title>
<g id="a_node14"><a xlink:title=" ">
<polygon fill="white" stroke="#bfbfbf" points="393.5,-6 393.5,-25 435.5,-25 435.5,-6 393.5,-6"/>
<text text-anchor="middle" x="414.5" y="-13" font-family="Helvetica,sans-Serif" font-size="10.00">array</text>
</a>
</g>
</g>
<!-- Node12&#45;&gt;Node13 -->
<g id="edge17" class="edge">
<title>Node12&#45;&gt;Node13</title>
<path fill="none" stroke="midnightblue" d="M433.53,-72.73C430.27,-63.09 424.92,-47.3 420.73,-34.91"/>
<polygon fill="midnightblue" stroke="midnightblue" points="423.94,-33.48 417.42,-25.13 417.31,-35.72 423.94,-33.48"/>
</g>
<!-- Node14 -->
<g id="node15" class="node">
<title>Node14</title>
<g id="a_node15"><a xlink:title=" ">
<polygon fill="white" stroke="#bfbfbf" points="453.5,-6 453.5,-25 503.5,-25 503.5,-6 453.5,-6"/>
<text text-anchor="middle" x="478.5" y="-13" font-family="Helvetica,sans-Serif" font-size="10.00">cstdint</text>
</a>
</g>
</g>
<!-- Node12&#45;&gt;Node14 -->
<g id="edge18" class="edge">
<title>Node12&#45;&gt;Node14</title>
<path fill="none" stroke="midnightblue" d="M442.16,-72.73C448.59,-62.79 459.22,-46.34 467.33,-33.79"/>
<polygon fill="midnightblue" stroke="midnightblue" points="470.44,-35.43 472.93,-25.13 464.56,-31.63 470.44,-35.43"/>
</g>
<!-- Node15 -->
<g id="node16" class="node">
<title>Node15</title>
<g id="a_node16"><a xlink:title=" ">
<polygon fill="white" stroke="#bfbfbf" points="521.5,-6 521.5,-25 571.5,-25 571.5,-6 521.5,-6"/>
<text text-anchor="middle" x="546.5" y="-13" font-family="Helvetica,sans-Serif" font-size="10.00">cstring</text>
</a>
</g>
</g>
<!-- Node12&#45;&gt;Node15 -->
<g id="edge19" class="edge">
<title>Node12&#45;&gt;Node15</title>
<path fill="none" stroke="midnightblue" d="M451.34,-72.73C469.81,-61.82 501.57,-43.05 523.28,-30.22"/>
<polygon fill="midnightblue" stroke="midnightblue" points="525.07,-33.23 531.9,-25.13 521.51,-27.2 525.07,-33.23"/>
</g>
<!-- Node16 -->
<g id="node17" class="node">
<title>Node16</title>
<g id="a_node17"><a xlink:title=" ">
<polygon fill="white" stroke="#bfbfbf" points="253.5,-6 253.5,-25 301.5,-25 301.5,-6 253.5,-6"/>
<text text-anchor="middle" x="277.5" y="-13" font-family="Helvetica,sans-Serif" font-size="10.00">iosfwd</text>
</a>
</g>
</g>
<!-- Node12&#45;&gt;Node16 -->
<g id="edge20" class="edge">
<title>Node12&#45;&gt;Node16</title>
<path fill="none" stroke="midnightblue" d="M414.56,-72.96C389.35,-63.09 346.79,-46.24 310.5,-31 309.09,-30.41 307.66,-29.8 306.21,-29.18"/>
<polygon fill="midnightblue" stroke="midnightblue" points="307.22,-25.8 296.65,-25.04 304.43,-32.23 307.22,-25.8"/>
</g>
<!-- Node17 -->
<g id="node18" class="node">
<title>Node17</title>
<g id="a_node18"><a xlink:title=" ">
<polygon fill="white" stroke="#bfbfbf" points="319.5,-6 319.5,-25 375.5,-25 375.5,-6 319.5,-6"/>
<text text-anchor="middle" x="347.5" y="-13" font-family="Helvetica,sans-Serif" font-size="10.00">optional</text>
</a>
</g>
</g>
<!-- Node12&#45;&gt;Node17 -->
<g id="edge21" class="edge">
<title>Node12&#45;&gt;Node17</title>
<path fill="none" stroke="midnightblue" d="M424.5,-72.73C409.95,-62.11 385.22,-44.05 367.72,-31.26"/>
<polygon fill="midnightblue" stroke="midnightblue" points="369.45,-28.2 359.31,-25.13 365.32,-33.85 369.45,-28.2"/>
</g>
</g>
</svg>
        <g id="navigator" transform="translate(0 0)" fill="#404254">
                <rect fill="#f2f5e9" fill-opacity="0.5" stroke="#606060" stroke-width=".5" x="0" y="0" width="60" height="60"/>
                <use id="zoomplus" xlink:href="#zoomPlus" x="17" y="9" onmousedown="handleZoom(evt,'in')"/>
                <use id="zoomminus" xlink:href="#zoomMin" x="42" y="9" onmousedown="handleZoom(evt,'out')"/>
                <use id="reset" xlink:href="#resetDef" x="30" y="36" onmousedown="handleReset()"/>
                <g id="arrowUp" xlink:href="#dirArrow" transform="translate(30 24)" onmousedown="handlePan(0,-1)">
                  <use xlink:href="#rim" fill="#404040">
                        <set attributeName="fill" to="#808080" begin="arrowUp.mouseover" end="arrowUp.mouseout"/>
                  </use>
                  <path fill="none" stroke="white" stroke-width="1.5" d="M0,-3.0v7 M-2.5,-0.5L0,-3.0L2.5,-0.5"/>
                </g>
                <g id="arrowRight" xlink:href="#dirArrow" transform="rotate(90) translate(36 -43)" onmousedown="handlePan(1,0)">
                  <use xlink:href="#rim" fill="#404040">
                        <set attributeName="fill" to="#808080" begin="arrowRight.mouseover" end="arrowRight.mouseout"/>
                  </use>
                  <path fill="none" stroke="white" stroke-width="1.5" d="M0,-3.0v7 M-2.5,-0.5L0,-3.0L2.5,-0.5"/>
                </g>
                <g id="arrowDown" xlink:href="#dirArrow" transform="rotate(180) translate(-30 -48)" onmousedown="handlePan(0,1)">
                  <use xlink:href="#rim" fill="#404040">
                        <set attributeName="fill" to="#808080" begin="arrowDown.mouseover" end="arrowDown.mouseout"/>
                  </use>
                  <path fill="none" stroke="white" stroke-width="1.5" d="M0,-3.0v7 M-2.5,-0.5L0,-3.0L2.5,-0.5"/>
                </g>
                <g id="arrowLeft" xlink:href="#dirArrow" transform="rotate(270) translate(-36 17)" onmousedown="handlePan(-1,0)">
                  <use xlink:href="#rim" fill="#404040">
                        <set attributeName="fill" to="#808080" begin="arrowLeft.mouseover" end="arrowLeft.mouseout"/>
                  </use>
                  <path fill="none" stroke="white" stroke-width="1.5" d="M0,-3.0v7 M-2.5,-0.5L0,-3.0L2.5,-0.5"/>
                </g>
        </g>
        <svg viewBox="0 0 15 15" width="100%" height="30px" preserveAspectRatio="xMaxYMin meet">
         <g id="arrow_out" transform="scale(0.3 0.3)">
          <a xlink:href="file__source_8h__incl_org.svg" target="_base">
           <rect id="button" ry="5" rx="5" y="6" x="6" height="38" width="38"
                fill="#f2f5e9" fill-opacity="0.5" stroke="#606060" stroke-width="1.0"/>
           <path id="arrow"
             d="M 11.500037,31.436501 C 11.940474,20.09759 22.043105,11.32322 32.158766,21.979434 L 37.068811,17.246167 C 37.068811,17.246167 37.088388,32 37.088388,32 L 22.160133,31.978069 C 22.160133,31.978069 26.997745,27.140456 26.997745,27.140456 C 18.528582,18.264221 13.291696,25.230495 11.500037,31.436501 z"
             style="fill:#404040;"/>
          </a>
         </g>
        </svg>
</svg>
