<?xml version="1.0" encoding="UTF-8" standalone="no"?>
<!DOCTYPE svg PUBLIC "-//W3C//DTD SVG 1.1//EN"
 "http://www.w3.org/Graphics/SVG/1.1/DTD/svg11.dtd">
<!-- Generated by graphviz version 2.40.1 (20161225.0304)
 -->
<!-- Title: drake/geometry/proximity/find_collision_candidates_callback.h Pages: 1 -->
<!--zoomable 642 -->
<svg id="main" version="1.1" xmlns="http://www.w3.org/2000/svg" xmlns:xlink="http://www.w3.org/1999/xlink" xml:space="preserve" onload="init(evt)">
<style type="text/css"><![CDATA[
.edge:hover path { stroke: red; }
.edge:hover polygon { stroke: red; fill: red; }
]]></style>
<script type="text/javascript"><![CDATA[
var edges = document.getElementsByTagName('g');
if (edges && edges.length) {
  for (var i=0;i<edges.length;i++) {
    if (edges[i].id.substr(0,4)=='edge') {
      edges[i].setAttribute('class','edge');
    }
  }
}
]]></script>
        <defs>
                <circle id="rim" cx="0" cy="0" r="7"/>
                <circle id="rim2" cx="0" cy="0" r="3.5"/>
                <g id="zoomPlus">
                        <use xlink:href="#rim" fill="#404040">
                                <set attributeName="fill" to="#808080" begin="zoomplus.mouseover" end="zoomplus.mouseout"/>
                        </use>
                        <path d="M-4,0h8M0,-4v8" fill="none" stroke="white" stroke-width="1.5" pointer-events="none"/>
                </g>
                <g id="zoomMin">
                        <use xlink:href="#rim" fill="#404040">
                                <set attributeName="fill" to="#808080" begin="zoomminus.mouseover" end="zoomminus.mouseout"/>
                        </use>
                        <path d="M-4,0h8" fill="none" stroke="white" stroke-width="1.5" pointer-events="none"/>
                </g>
                <g id="dirArrow">
                        <path fill="none" stroke="white" stroke-width="1.5" d="M0,-3.0v7 M-2.5,-0.5L0,-3.0L2.5,-0.5"/>
                </g>
               <g id="resetDef">
                       <use xlink:href="#rim2" fill="#404040">
                               <set attributeName="fill" to="#808080" begin="reset.mouseover" end="reset.mouseout"/>
                       </use>
               </g>
        </defs>

<script type="text/javascript">
var viewWidth = 1866;
var viewHeight = 642;
var sectionId = 'dynsection-0';
</script>
<script xlink:href="svgpan.js"/>
<svg id="graph" class="graph">
<g id="viewport">
<title>drake/geometry/proximity/find_collision_candidates_callback.h</title>
<polygon fill="#ffffff" stroke="transparent" points="-4,4 -4,-638 1862.282,-638 1862.282,4 -4,4"/>
<!-- Node0 -->
<g id="node1" class="node">
<title>Node0</title>
<g id="a_node1"><a xlink:title=" ">
<polygon fill="#bfbfbf" stroke="#000000" points="1128.282,-592.5 1128.282,-633.5 1273.282,-633.5 1273.282,-592.5 1128.282,-592.5"/>
<text text-anchor="start" x="1136.282" y="-621.5" font-family="Helvetica,sans-Serif" font-size="10.00" fill="#000000">drake/geometry/proximity</text>
<text text-anchor="start" x="1136.282" y="-610.5" font-family="Helvetica,sans-Serif" font-size="10.00" fill="#000000">/find_collision_candidates</text>
<text text-anchor="middle" x="1200.782" y="-599.5" font-family="Helvetica,sans-Serif" font-size="10.00" fill="#000000">_callback.h</text>
</a>
</g>
</g>
<!-- Node1 -->
<g id="node2" class="node">
<title>Node1</title>
<g id="a_node2"><a xlink:title=" ">
<polygon fill="#ffffff" stroke="#bfbfbf" points="170.782,-129 170.782,-148 226.782,-148 226.782,-129 170.782,-129"/>
<text text-anchor="middle" x="198.782" y="-136" font-family="Helvetica,sans-Serif" font-size="10.00" fill="#000000">optional</text>
</a>
</g>
</g>
<!-- Node0&#45;&gt;Node1 -->
<g id="edge1" class="edge">
<title>Node0&#45;&gt;Node1</title>
<path fill="none" stroke="#191970" d="M1128.1667,-610.441C899.2522,-601.4196 207.782,-566.4742 207.782,-473.5 207.782,-473.5 207.782,-473.5 207.782,-272.5 207.782,-231.8786 203.6138,-184.4859 200.9507,-158.3515"/>
<polygon fill="#191970" stroke="#191970" points="204.4136,-157.8152 199.8856,-148.2367 197.4521,-158.5483 204.4136,-157.8152"/>
</g>
<!-- Node2 -->
<g id="node3" class="node">
<title>Node2</title>
<g id="a_node3"><a xlink:title=" ">
<polygon fill="#ffffff" stroke="#bfbfbf" points="966.282,-129 966.282,-148 1011.282,-148 1011.282,-129 966.282,-129"/>
<text text-anchor="middle" x="988.782" y="-136" font-family="Helvetica,sans-Serif" font-size="10.00" fill="#000000">utility</text>
</a>
</g>
</g>
<!-- Node0&#45;&gt;Node2 -->
<g id="edge2" class="edge">
<title>Node0&#45;&gt;Node2</title>
<path fill="none" stroke="#191970" d="M1128.0521,-607.8333C1044.7929,-597.5 919.782,-566.4999 919.782,-473.5 919.782,-473.5 919.782,-473.5 919.782,-272.5 919.782,-226.1538 952.8107,-179.7956 973.1653,-155.6268"/>
<polygon fill="#191970" stroke="#191970" points="975.8417,-157.8828 979.7615,-148.0398 970.559,-153.29 975.8417,-157.8828"/>
</g>
<!-- Node3 -->
<g id="node4" class="node">
<title>Node3</title>
<g id="a_node4"><a xlink:title=" ">
<polygon fill="#ffffff" stroke="#bfbfbf" points="1580.282,-129 1580.282,-148 1627.282,-148 1627.282,-129 1580.282,-129"/>
<text text-anchor="middle" x="1603.782" y="-136" font-family="Helvetica,sans-Serif" font-size="10.00" fill="#000000">vector</text>
</a>
</g>
</g>
<!-- Node0&#45;&gt;Node3 -->
<g id="edge3" class="edge">
<title>Node0&#45;&gt;Node3</title>
<path fill="none" stroke="#191970" d="M1273.5318,-606.9989C1407.5306,-593.9268 1679.782,-557.0831 1679.782,-473.5 1679.782,-473.5 1679.782,-473.5 1679.782,-272.5 1679.782,-225.1632 1643.454,-179.2294 1621.0306,-155.3856"/>
<polygon fill="#191970" stroke="#191970" points="1623.5086,-152.9133 1614.0317,-148.1761 1618.486,-157.7892 1623.5086,-152.9133"/>
</g>
<!-- Node4 -->
<g id="node5" class="node">
<title>Node4</title>
<g id="a_node5"><a xlink:title=" ">
<polygon fill="#ffffff" stroke="#bfbfbf" points="1708.282,-531 1708.282,-550 1761.282,-550 1761.282,-531 1708.282,-531"/>
<text text-anchor="middle" x="1734.782" y="-538" font-family="Helvetica,sans-Serif" font-size="10.00" fill="#000000">fcl/fcl.h</text>
</a>
</g>
</g>
<!-- Node0&#45;&gt;Node4 -->
<g id="edge4" class="edge">
<title>Node0&#45;&gt;Node4</title>
<path fill="none" stroke="#191970" d="M1273.6103,-610.1803C1370.6828,-605.1568 1547.2613,-591.5882 1693.782,-556 1696.7908,-555.2692 1699.8788,-554.3792 1702.9449,-553.399"/>
<polygon fill="#191970" stroke="#191970" points="1704.2548,-556.6489 1712.5401,-550.0455 1701.9453,-550.0408 1704.2548,-556.6489"/>
</g>
<!-- Node5 -->
<g id="node6" class="node">
<title>Node5</title>
<g id="a_node6"><a xlink:title=" ">
<polygon fill="#ffffff" stroke="#bfbfbf" points="1779.282,-531 1779.282,-550 1858.282,-550 1858.282,-531 1779.282,-531"/>
<text text-anchor="middle" x="1818.782" y="-538" font-family="Helvetica,sans-Serif" font-size="10.00" fill="#000000">fmt/format.h</text>
</a>
</g>
</g>
<!-- Node0&#45;&gt;Node5 -->
<g id="edge5" class="edge">
<title>Node0&#45;&gt;Node5</title>
<path fill="none" stroke="#191970" d="M1273.5159,-610.6707C1382.5997,-606.0689 1594.5803,-592.8213 1770.782,-556 1774.7198,-555.1771 1778.7899,-554.1505 1782.8181,-553.0197"/>
<polygon fill="#191970" stroke="#191970" points="1784.0849,-556.2933 1792.6456,-550.051 1782.0607,-549.5923 1784.0849,-556.2933"/>
</g>
<!-- Node6 -->
<g id="node7" class="node">
<title>Node6</title>
<g id="a_node7"><a xlink:href="sorted__pair_8h.html" target="_top" xlink:title="Provides drake::MakeSortedPair and drake::SortedPair for storing two values of a certain type in sort...">
<polygon fill="#ffffff" stroke="#000000" points="409.782,-257.5 409.782,-287.5 533.782,-287.5 533.782,-257.5 409.782,-257.5"/>
<text text-anchor="start" x="417.782" y="-275.5" font-family="Helvetica,sans-Serif" font-size="10.00" fill="#000000">drake/common/sorted</text>
<text text-anchor="middle" x="471.782" y="-264.5" font-family="Helvetica,sans-Serif" font-size="10.00" fill="#000000">_pair.h</text>
</a>
</g>
</g>
<!-- Node0&#45;&gt;Node6 -->
<g id="edge6" class="edge">
<title>Node0&#45;&gt;Node6</title>
<path fill="none" stroke="#191970" d="M1128.2356,-609.4019C980.9643,-600.1105 660.782,-568.9358 660.782,-473.5 660.782,-473.5 660.782,-473.5 660.782,-406.5 660.782,-345.5991 594.6691,-309.8632 540.6472,-290.8284"/>
<polygon fill="#191970" stroke="#191970" points="541.6586,-287.4756 531.0643,-287.5785 539.4104,-294.1048 541.6586,-287.4756"/>
</g>
<!-- Node22 -->
<g id="node23" class="node">
<title>Node22</title>
<g id="a_node23"><a xlink:href="geometry__ids_8h.html" target="_top" xlink:title=" ">
<polygon fill="#ffffff" stroke="#000000" points="1072.282,-324.5 1072.282,-354.5 1217.282,-354.5 1217.282,-324.5 1072.282,-324.5"/>
<text text-anchor="start" x="1080.282" y="-342.5" font-family="Helvetica,sans-Serif" font-size="10.00" fill="#000000">drake/geometry/geometry</text>
<text text-anchor="middle" x="1144.782" y="-331.5" font-family="Helvetica,sans-Serif" font-size="10.00" fill="#000000">_ids.h</text>
</a>
</g>
</g>
<!-- Node0&#45;&gt;Node22 -->
<g id="edge33" class="edge">
<title>Node0&#45;&gt;Node22</title>
<path fill="none" stroke="#191970" d="M1190.596,-592.3379C1185.7418,-581.7088 1180.2515,-568.4088 1176.782,-556 1157.8982,-488.4599 1149.6099,-405.7662 1146.455,-364.8812"/>
<polygon fill="#191970" stroke="#191970" points="1149.933,-364.4517 1145.7125,-354.7338 1142.9517,-364.9626 1149.933,-364.4517"/>
</g>
<!-- Node28 -->
<g id="node29" class="node">
<title>Node28</title>
<g id="a_node29"><a xlink:href="collision__filter_8h.html" target="_top" xlink:title=" ">
<polygon fill="#ffffff" stroke="#000000" points="1185.282,-525.5 1185.282,-555.5 1330.282,-555.5 1330.282,-525.5 1185.282,-525.5"/>
<text text-anchor="start" x="1193.282" y="-543.5" font-family="Helvetica,sans-Serif" font-size="10.00" fill="#000000">drake/geometry/proximity</text>
<text text-anchor="middle" x="1257.782" y="-532.5" font-family="Helvetica,sans-Serif" font-size="10.00" fill="#000000">/collision_filter.h</text>
</a>
</g>
</g>
<!-- Node0&#45;&gt;Node28 -->
<g id="edge48" class="edge">
<title>Node0&#45;&gt;Node28</title>
<path fill="none" stroke="#191970" d="M1216.9635,-592.4183C1224.0193,-583.4438 1232.3225,-572.8827 1239.5916,-563.637"/>
<polygon fill="#191970" stroke="#191970" points="1242.4818,-565.6237 1245.911,-555.5991 1236.9789,-561.2972 1242.4818,-565.6237"/>
</g>
<!-- Node6&#45;&gt;Node2 -->
<g id="edge11" class="edge">
<title>Node6&#45;&gt;Node2</title>
<path fill="none" stroke="#191970" d="M534.0906,-261.9493C627.8549,-245.0432 809.9913,-208.1831 957.782,-154 959.1944,-153.4822 960.6266,-152.9177 962.0612,-152.3206"/>
<polygon fill="#191970" stroke="#191970" points="963.7442,-155.3995 971.3806,-148.0555 960.8311,-149.0345 963.7442,-155.3995"/>
</g>
<!-- Node7 -->
<g id="node8" class="node">
<title>Node7</title>
<g id="a_node8"><a xlink:title=" ">
<polygon fill="#ffffff" stroke="#bfbfbf" points="439.782,-196 439.782,-215 503.782,-215 503.782,-196 439.782,-196"/>
<text text-anchor="middle" x="471.782" y="-203" font-family="Helvetica,sans-Serif" font-size="10.00" fill="#000000">algorithm</text>
</a>
</g>
</g>
<!-- Node6&#45;&gt;Node7 -->
<g id="edge7" class="edge">
<title>Node6&#45;&gt;Node7</title>
<path fill="none" stroke="#191970" d="M471.782,-257.2967C471.782,-247.7699 471.782,-235.3954 471.782,-225.1306"/>
<polygon fill="#191970" stroke="#191970" points="475.2821,-225.0549 471.782,-215.055 468.2821,-225.055 475.2821,-225.0549"/>
</g>
<!-- Node8 -->
<g id="node9" class="node">
<title>Node8</title>
<g id="a_node9"><a xlink:title=" ">
<polygon fill="#ffffff" stroke="#bfbfbf" points="361.282,-129 361.282,-148 414.282,-148 414.282,-129 361.282,-129"/>
<text text-anchor="middle" x="387.782" y="-136" font-family="Helvetica,sans-Serif" font-size="10.00" fill="#000000">cstddef</text>
</a>
</g>
</g>
<!-- Node6&#45;&gt;Node8 -->
<g id="edge8" class="edge">
<title>Node6&#45;&gt;Node8</title>
<path fill="none" stroke="#191970" d="M458.4092,-257.3073C449.9708,-247.348 439.1286,-233.8396 430.782,-221 417.2954,-200.2534 404.5508,-174.7917 396.4903,-157.6886"/>
<polygon fill="#191970" stroke="#191970" points="399.4909,-155.8393 392.1119,-148.2366 393.1393,-158.7815 399.4909,-155.8393"/>
</g>
<!-- Node9 -->
<g id="node10" class="node">
<title>Node9</title>
<g id="a_node10"><a xlink:title=" ">
<polygon fill="#ffffff" stroke="#bfbfbf" points="282.782,-129 282.782,-148 342.782,-148 342.782,-129 282.782,-129"/>
<text text-anchor="middle" x="312.782" y="-136" font-family="Helvetica,sans-Serif" font-size="10.00" fill="#000000">iostream</text>
</a>
</g>
</g>
<!-- Node6&#45;&gt;Node9 -->
<g id="edge9" class="edge">
<title>Node6&#45;&gt;Node9</title>
<path fill="none" stroke="#191970" d="M452.9372,-257.2964C440.3663,-247.1052 423.5063,-233.3419 408.782,-221 381.788,-198.3735 350.9639,-171.7399 331.6873,-154.9864"/>
<polygon fill="#191970" stroke="#191970" points="333.7793,-152.1672 323.9381,-148.2429 329.1841,-157.4478 333.7793,-152.1672"/>
</g>
<!-- Node10 -->
<g id="node11" class="node">
<title>Node10</title>
<g id="a_node11"><a xlink:title=" ">
<polygon fill="#ffffff" stroke="#bfbfbf" points="452.282,-.5 452.282,-19.5 521.282,-19.5 521.282,-.5 452.282,-.5"/>
<text text-anchor="middle" x="486.782" y="-7.5" font-family="Helvetica,sans-Serif" font-size="10.00" fill="#000000">type_traits</text>
</a>
</g>
</g>
<!-- Node6&#45;&gt;Node10 -->
<g id="edge10" class="edge">
<title>Node6&#45;&gt;Node10</title>
<path fill="none" stroke="#191970" d="M416.2307,-257.4305C344.802,-235.0516 234.3744,-188.5162 273.782,-123 310.1926,-62.4665 391.1532,-32.6374 442.1099,-19.3362"/>
<polygon fill="#191970" stroke="#191970" points="443.0276,-22.7145 451.8791,-16.8921 441.3286,-15.9238 443.0276,-22.7145"/>
</g>
<!-- Node11 -->
<g id="node12" class="node">
<title>Node11</title>
<g id="a_node12"><a xlink:href="drake__copyable_8h.html" target="_top" xlink:title="Provides careful macros to selectively enable or disable the special member functions for copy&#45;constr...">
<polygon fill="#ffffff" stroke="#000000" points="1268.282,-123.5 1268.282,-153.5 1389.282,-153.5 1389.282,-123.5 1268.282,-123.5"/>
<text text-anchor="start" x="1276.282" y="-141.5" font-family="Helvetica,sans-Serif" font-size="10.00" fill="#000000">drake/common/drake</text>
<text text-anchor="middle" x="1328.782" y="-130.5" font-family="Helvetica,sans-Serif" font-size="10.00" fill="#000000">_copyable.h</text>
</a>
</g>
</g>
<!-- Node6&#45;&gt;Node11 -->
<g id="edge12" class="edge">
<title>Node6&#45;&gt;Node11</title>
<path fill="none" stroke="#191970" d="M533.95,-269.6454C685.1403,-262.4034 1063.5875,-242.3691 1116.782,-221 1137.007,-212.8753 1135.5102,-200.1813 1154.782,-190 1186.9681,-172.9962 1225.547,-160.8502 1258.1909,-152.6409"/>
<polygon fill="#191970" stroke="#191970" points="1259.2324,-155.9896 1268.1175,-150.2186 1257.5729,-149.1891 1259.2324,-155.9896"/>
</g>
<!-- Node12 -->
<g id="node13" class="node">
<title>Node12</title>
<g id="a_node13"><a xlink:href="hash_8h.html" target="_top" xlink:title=" ">
<polygon fill="#ffffff" stroke="#000000" points="531.282,-196 531.282,-215 656.282,-215 656.282,-196 531.282,-196"/>
<text text-anchor="middle" x="593.782" y="-203" font-family="Helvetica,sans-Serif" font-size="10.00" fill="#000000">drake/common/hash.h</text>
</a>
</g>
</g>
<!-- Node6&#45;&gt;Node12 -->
<g id="edge13" class="edge">
<title>Node6&#45;&gt;Node12</title>
<path fill="none" stroke="#191970" d="M499.1612,-257.4639C519.5391,-246.2728 547.1966,-231.0838 567.3452,-220.0186"/>
<polygon fill="#191970" stroke="#191970" points="569.2139,-222.9855 576.2943,-215.1039 565.8443,-216.8498 569.2139,-222.9855"/>
</g>
<!-- Node20 -->
<g id="node21" class="node">
<title>Node20</title>
<g id="a_node21"><a xlink:href="is__less__than__comparable_8h.html" target="_top" xlink:title=" ">
<polygon fill="#ffffff" stroke="#000000" points="20.782,-190.5 20.782,-220.5 146.782,-220.5 146.782,-190.5 20.782,-190.5"/>
<text text-anchor="start" x="28.782" y="-208.5" font-family="Helvetica,sans-Serif" font-size="10.00" fill="#000000">drake/common/is_less</text>
<text text-anchor="middle" x="83.782" y="-197.5" font-family="Helvetica,sans-Serif" font-size="10.00" fill="#000000">_than_comparable.h</text>
</a>
</g>
</g>
<!-- Node6&#45;&gt;Node20 -->
<g id="edge30" class="edge">
<title>Node6&#45;&gt;Node20</title>
<path fill="none" stroke="#191970" d="M409.4431,-261.7353C340.5976,-249.847 229.8672,-230.726 156.9602,-218.1364"/>
<polygon fill="#191970" stroke="#191970" points="157.3818,-214.6575 146.9321,-216.4048 156.1906,-221.5554 157.3818,-214.6575"/>
</g>
<!-- Node12&#45;&gt;Node1 -->
<g id="edge19" class="edge">
<title>Node12&#45;&gt;Node1</title>
<path fill="none" stroke="#191970" d="M545.439,-195.9248C534.7018,-193.8887 523.3668,-191.8092 512.782,-190 406.8971,-171.9017 379.5308,-172.8774 273.782,-154 261.735,-151.8495 248.6559,-149.2417 236.8441,-146.7836"/>
<polygon fill="#191970" stroke="#191970" points="237.3549,-143.3144 226.8481,-144.6771 235.9114,-150.164 237.3549,-143.3144"/>
</g>
<!-- Node12&#45;&gt;Node2 -->
<g id="edge23" class="edge">
<title>Node12&#45;&gt;Node2</title>
<path fill="none" stroke="#191970" d="M656.4771,-199.0969C745.2647,-189.6082 902.9419,-171.0903 957.782,-154 959.4408,-153.4831 961.1198,-152.8855 962.7933,-152.2322"/>
<polygon fill="#191970" stroke="#191970" points="964.44,-155.3299 972.1396,-148.0521 961.5821,-148.9399 964.44,-155.3299"/>
</g>
<!-- Node12&#45;&gt;Node3 -->
<g id="edge24" class="edge">
<title>Node12&#45;&gt;Node3</title>
<path fill="none" stroke="#191970" d="M656.4258,-201.74C791.8869,-193.5551 1122.1704,-173.3048 1398.782,-154 1459.085,-149.7915 1529.324,-144.3673 1569.9579,-141.178"/>
<polygon fill="#191970" stroke="#191970" points="1570.4191,-144.6526 1580.1138,-140.379 1569.87,-137.6742 1570.4191,-144.6526"/>
</g>
<!-- Node12&#45;&gt;Node8 -->
<g id="edge15" class="edge">
<title>Node12&#45;&gt;Node8</title>
<path fill="none" stroke="#191970" d="M561.3496,-195.9929C527.9434,-186.0565 474.458,-169.7468 428.782,-154 426.5361,-153.2257 424.2282,-152.4098 421.9069,-151.5738"/>
<polygon fill="#191970" stroke="#191970" points="423.0063,-148.249 412.4128,-148.0804 420.589,-154.8184 423.0063,-148.249"/>
</g>
<!-- Node12&#45;&gt;Node9 -->
<g id="edge17" class="edge">
<title>Node12&#45;&gt;Node9</title>
<path fill="none" stroke="#191970" d="M544.1352,-195.9619C484.2272,-184.2727 387.1382,-164.7045 351.782,-154 349.3414,-153.2611 346.8391,-152.4344 344.3376,-151.5579"/>
<polygon fill="#191970" stroke="#191970" points="345.4189,-148.2257 334.8262,-148.0101 342.9724,-154.7843 345.4189,-148.2257"/>
</g>
<!-- Node12&#45;&gt;Node10 -->
<g id="edge22" class="edge">
<title>Node12&#45;&gt;Node10</title>
<path fill="none" stroke="#191970" d="M562.2165,-195.9086C540.0759,-187.8016 511.0946,-174.2335 491.782,-154 460.3315,-121.0496 450.5607,-100.1469 461.782,-56 464.2605,-46.2493 469.2694,-36.3309 474.1572,-28.2128"/>
<polygon fill="#191970" stroke="#191970" points="477.2134,-29.9312 479.6805,-19.6276 471.3265,-26.1437 477.2134,-29.9312"/>
</g>
<!-- Node13 -->
<g id="node14" class="node">
<title>Node13</title>
<g id="a_node14"><a xlink:title=" ">
<polygon fill="#ffffff" stroke="#bfbfbf" points="509.282,-129 509.282,-148 556.282,-148 556.282,-129 509.282,-129"/>
<text text-anchor="middle" x="532.782" y="-136" font-family="Helvetica,sans-Serif" font-size="10.00" fill="#000000">cmath</text>
</a>
</g>
</g>
<!-- Node12&#45;&gt;Node13 -->
<g id="edge14" class="edge">
<title>Node12&#45;&gt;Node13</title>
<path fill="none" stroke="#191970" d="M585.0422,-195.9005C575.5298,-185.4525 560.1251,-168.5325 548.4996,-155.7635"/>
<polygon fill="#191970" stroke="#191970" points="550.8259,-153.1198 541.5056,-148.0817 545.6498,-157.8324 550.8259,-153.1198"/>
</g>
<!-- Node14 -->
<g id="node15" class="node">
<title>Node14</title>
<g id="a_node15"><a xlink:title=" ">
<polygon fill="#ffffff" stroke="#bfbfbf" points="883.282,-129 883.282,-148 948.282,-148 948.282,-129 883.282,-129"/>
<text text-anchor="middle" x="915.782" y="-136" font-family="Helvetica,sans-Serif" font-size="10.00" fill="#000000">functional</text>
</a>
</g>
</g>
<!-- Node12&#45;&gt;Node14 -->
<g id="edge16" class="edge">
<title>Node12&#45;&gt;Node14</title>
<path fill="none" stroke="#191970" d="M656.4743,-197.1182C713.6809,-188.7293 800.2576,-174.168 873.782,-154 876.5929,-153.229 879.4814,-152.3513 882.3646,-151.4146"/>
<polygon fill="#191970" stroke="#191970" points="883.7195,-154.6495 892.026,-148.0727 881.4312,-148.0341 883.7195,-154.6495"/>
</g>
<!-- Node15 -->
<g id="node16" class="node">
<title>Node15</title>
<g id="a_node16"><a xlink:title=" ">
<polygon fill="#ffffff" stroke="#bfbfbf" points="574.782,-129 574.782,-148 612.782,-148 612.782,-129 574.782,-129"/>
<text text-anchor="middle" x="593.782" y="-136" font-family="Helvetica,sans-Serif" font-size="10.00" fill="#000000">map</text>
</a>
</g>
</g>
<!-- Node12&#45;&gt;Node15 -->
<g id="edge18" class="edge">
<title>Node12&#45;&gt;Node15</title>
<path fill="none" stroke="#191970" d="M593.782,-195.9005C593.782,-186.149 593.782,-170.7597 593.782,-158.3695"/>
<polygon fill="#191970" stroke="#191970" points="597.2821,-158.0816 593.782,-148.0817 590.2821,-158.0817 597.2821,-158.0816"/>
</g>
<!-- Node16 -->
<g id="node17" class="node">
<title>Node16</title>
<g id="a_node17"><a xlink:title=" ">
<polygon fill="#ffffff" stroke="#bfbfbf" points="630.782,-129 630.782,-148 662.782,-148 662.782,-129 630.782,-129"/>
<text text-anchor="middle" x="646.782" y="-136" font-family="Helvetica,sans-Serif" font-size="10.00" fill="#000000">set</text>
</a>
</g>
</g>
<!-- Node12&#45;&gt;Node16 -->
<g id="edge20" class="edge">
<title>Node12&#45;&gt;Node16</title>
<path fill="none" stroke="#191970" d="M601.3757,-195.9005C609.5618,-185.552 622.7705,-168.8542 632.8363,-156.1295"/>
<polygon fill="#191970" stroke="#191970" points="635.7435,-158.0959 639.2025,-148.0817 630.2535,-153.7531 635.7435,-158.0959"/>
</g>
<!-- Node17 -->
<g id="node18" class="node">
<title>Node17</title>
<g id="a_node18"><a xlink:title=" ">
<polygon fill="#ffffff" stroke="#bfbfbf" points="820.782,-129 820.782,-148 864.782,-148 864.782,-129 820.782,-129"/>
<text text-anchor="middle" x="842.782" y="-136" font-family="Helvetica,sans-Serif" font-size="10.00" fill="#000000">string</text>
</a>
</g>
</g>
<!-- Node12&#45;&gt;Node17 -->
<g id="edge21" class="edge">
<title>Node12&#45;&gt;Node17</title>
<path fill="none" stroke="#191970" d="M649.9178,-195.952C694.5701,-187.4778 758.2212,-173.4188 811.782,-154 813.1963,-153.4873 814.6299,-152.9269 816.0657,-152.333"/>
<polygon fill="#191970" stroke="#191970" points="817.7445,-155.4142 825.389,-148.0785 814.8384,-149.0459 817.7445,-155.4142"/>
</g>
<!-- Node18 -->
<g id="node19" class="node">
<title>Node18</title>
<g id="a_node19"><a xlink:href="drake__assert_8h.html" target="_top" xlink:title="Provides Drake&#39;s assertion implementation.">
<polygon fill="#ffffff" stroke="#000000" points="471.282,-56.5 471.282,-86.5 592.282,-86.5 592.282,-56.5 471.282,-56.5"/>
<text text-anchor="start" x="479.282" y="-74.5" font-family="Helvetica,sans-Serif" font-size="10.00" fill="#000000">drake/common/drake</text>
<text text-anchor="middle" x="531.782" y="-63.5" font-family="Helvetica,sans-Serif" font-size="10.00" fill="#000000">_assert.h</text>
</a>
</g>
</g>
<!-- Node12&#45;&gt;Node18 -->
<g id="edge25" class="edge">
<title>Node12&#45;&gt;Node18</title>
<path fill="none" stroke="#191970" d="M557.7959,-195.8314C536.9013,-188.1651 512.3008,-175.1332 499.782,-154 488.7139,-135.3157 499.6262,-112.1108 511.6191,-95.0748"/>
<polygon fill="#191970" stroke="#191970" points="514.6458,-96.8746 517.8784,-86.785 509.0594,-92.6565 514.6458,-96.8746"/>
</g>
<!-- Node19 -->
<g id="node20" class="node">
<title>Node19</title>
<g id="a_node20"><a xlink:href="drake__throw_8h.html" target="_top" xlink:title="Provides a convenient wrapper to throw an exception when a condition is unmet.">
<polygon fill="#ffffff" stroke="#000000" points="681.282,-123.5 681.282,-153.5 802.282,-153.5 802.282,-123.5 681.282,-123.5"/>
<text text-anchor="start" x="689.282" y="-141.5" font-family="Helvetica,sans-Serif" font-size="10.00" fill="#000000">drake/common/drake</text>
<text text-anchor="middle" x="741.782" y="-130.5" font-family="Helvetica,sans-Serif" font-size="10.00" fill="#000000">_throw.h</text>
</a>
</g>
</g>
<!-- Node12&#45;&gt;Node19 -->
<g id="edge27" class="edge">
<title>Node12&#45;&gt;Node19</title>
<path fill="none" stroke="#191970" d="M614.9868,-195.9005C636.8654,-185.9961 671.5911,-170.2756 699.1739,-157.7888"/>
<polygon fill="#191970" stroke="#191970" points="700.9331,-160.8344 708.5996,-153.5218 698.0462,-154.4574 700.9331,-160.8344"/>
</g>
<!-- Node18&#45;&gt;Node10 -->
<g id="edge26" class="edge">
<title>Node18&#45;&gt;Node10</title>
<path fill="none" stroke="#191970" d="M520.6584,-56.2977C514.412,-47.7609 506.578,-37.0545 500.0174,-28.0883"/>
<polygon fill="#191970" stroke="#191970" points="502.7169,-25.8505 493.9871,-19.8469 497.0676,-29.984 502.7169,-25.8505"/>
</g>
<!-- Node19&#45;&gt;Node10 -->
<g id="edge28" class="edge">
<title>Node19&#45;&gt;Node10</title>
<path fill="none" stroke="#191970" d="M718.4145,-123.4015C690.9094,-105.9685 643.5511,-77.0018 600.782,-56 575.4168,-43.5444 545.7941,-31.6678 523.1033,-23.1032"/>
<polygon fill="#191970" stroke="#191970" points="524.1141,-19.7447 513.5214,-19.5275 521.6666,-26.303 524.1141,-19.7447"/>
</g>
<!-- Node19&#45;&gt;Node18 -->
<g id="edge29" class="edge">
<title>Node19&#45;&gt;Node18</title>
<path fill="none" stroke="#191970" d="M694.6539,-123.4639C663.286,-113.456 621.8969,-100.2509 588.6921,-89.657"/>
<polygon fill="#191970" stroke="#191970" points="589.7064,-86.3069 579.1157,-86.6017 587.5787,-92.9757 589.7064,-86.3069"/>
</g>
<!-- Node20&#45;&gt;Node10 -->
<g id="edge31" class="edge">
<title>Node20&#45;&gt;Node10</title>
<path fill="none" stroke="#191970" d="M46.0908,-190.3598C30.6859,-182.0741 14.4703,-170.1476 5.782,-154 -.7461,-141.867 -2.518,-133.9971 5.782,-123 58.5338,-53.1063 333.076,-22.8237 442.0941,-13.4258"/>
<polygon fill="#191970" stroke="#191970" points="442.444,-16.9089 452.1145,-12.5809 441.8557,-9.9336 442.444,-16.9089"/>
</g>
<!-- Node21 -->
<g id="node22" class="node">
<title>Node21</title>
<g id="a_node22"><a xlink:href="unused_8h.html" target="_top" xlink:title=" ">
<polygon fill="#ffffff" stroke="#000000" points="15.282,-129 15.282,-148 152.282,-148 152.282,-129 15.282,-129"/>
<text text-anchor="middle" x="83.782" y="-136" font-family="Helvetica,sans-Serif" font-size="10.00" fill="#000000">drake/common/unused.h</text>
</a>
</g>
</g>
<!-- Node20&#45;&gt;Node21 -->
<g id="edge32" class="edge">
<title>Node20&#45;&gt;Node21</title>
<path fill="none" stroke="#191970" d="M83.782,-190.2967C83.782,-180.7699 83.782,-168.3954 83.782,-158.1306"/>
<polygon fill="#191970" stroke="#191970" points="87.2821,-158.0549 83.782,-148.055 80.2821,-158.055 87.2821,-158.0549"/>
</g>
<!-- Node22&#45;&gt;Node11 -->
<g id="edge34" class="edge">
<title>Node22&#45;&gt;Node11</title>
<path fill="none" stroke="#191970" d="M1182.2316,-324.3592C1222.2196,-306.1128 1284.0977,-271.4763 1315.782,-221 1326.4056,-204.0756 1329.3586,-181.4646 1329.8209,-164.1942"/>
<polygon fill="#191970" stroke="#191970" points="1333.321,-163.7296 1329.8206,-153.7297 1326.321,-163.7299 1333.321,-163.7296"/>
</g>
<!-- Node23 -->
<g id="node24" class="node">
<title>Node23</title>
<g id="a_node24"><a xlink:href="identifier_8h.html" target="_top" xlink:title=" ">
<polygon fill="#ffffff" stroke="#000000" points="973.782,-263 973.782,-282 1119.782,-282 1119.782,-263 973.782,-263"/>
<text text-anchor="middle" x="1046.782" y="-270" font-family="Helvetica,sans-Serif" font-size="10.00" fill="#000000">drake/common/identifier.h</text>
</a>
</g>
</g>
<!-- Node22&#45;&gt;Node23 -->
<g id="edge35" class="edge">
<title>Node22&#45;&gt;Node23</title>
<path fill="none" stroke="#191970" d="M1122.5443,-324.2967C1106.5343,-313.351 1085.0257,-298.6462 1069.0164,-287.701"/>
<polygon fill="#191970" stroke="#191970" points="1070.9885,-284.8095 1060.758,-282.055 1067.0378,-290.5881 1070.9885,-284.8095"/>
</g>
<!-- Node23&#45;&gt;Node11 -->
<g id="edge40" class="edge">
<title>Node23&#45;&gt;Node11</title>
<path fill="none" stroke="#191970" d="M1120.0144,-264.3517C1181.9902,-256.161 1264.7687,-241.7614 1290.782,-221 1308.6895,-206.7079 1318.5105,-182.0644 1323.6558,-163.4231"/>
<polygon fill="#191970" stroke="#191970" points="1327.1,-164.0755 1326.1129,-153.5267 1320.3063,-162.3886 1327.1,-164.0755"/>
</g>
<!-- Node23&#45;&gt;Node12 -->
<g id="edge42" class="edge">
<title>Node23&#45;&gt;Node12</title>
<path fill="none" stroke="#191970" d="M982.3593,-262.9717C898.9467,-250.6347 753.9496,-229.1892 666.6198,-216.2729"/>
<polygon fill="#191970" stroke="#191970" points="666.9298,-212.7808 656.5253,-214.7799 665.9055,-219.7054 666.9298,-212.7808"/>
</g>
<!-- Node23&#45;&gt;Node14 -->
<g id="edge38" class="edge">
<title>Node23&#45;&gt;Node14</title>
<path fill="none" stroke="#191970" d="M1012.3744,-262.8429C990.0168,-254.9406 961.7842,-241.6429 943.782,-221 928.2225,-203.158 921.2225,-176.2946 918.1318,-158.1102"/>
<polygon fill="#191970" stroke="#191970" points="921.574,-157.4597 916.6709,-148.0677 914.647,-158.4674 921.574,-157.4597"/>
</g>
<!-- Node23&#45;&gt;Node17 -->
<g id="edge39" class="edge">
<title>Node23&#45;&gt;Node17</title>
<path fill="none" stroke="#191970" d="M1013.3253,-262.9336C987.0132,-254.449 950.1819,-240.3851 921.782,-221 895.1792,-202.8415 870.5326,-174.5152 856.0686,-156.2327"/>
<polygon fill="#191970" stroke="#191970" points="858.7076,-153.9237 849.8222,-148.153 853.1696,-158.2052 858.7076,-153.9237"/>
</g>
<!-- Node23&#45;&gt;Node19 -->
<g id="edge41" class="edge">
<title>Node23&#45;&gt;Node19</title>
<path fill="none" stroke="#191970" d="M1007.5208,-262.9772C973.497,-254.0871 923.3398,-239.4352 881.782,-221 842.2232,-203.4515 799.8048,-177.3115 772.1577,-159.1771"/>
<polygon fill="#191970" stroke="#191970" points="773.9929,-156.1946 763.7228,-153.5917 770.1282,-162.031 773.9929,-156.1946"/>
</g>
<!-- Node24 -->
<g id="node25" class="node">
<title>Node24</title>
<g id="a_node25"><a xlink:title=" ">
<polygon fill="#ffffff" stroke="#bfbfbf" points="1163.782,-196 1163.782,-215 1213.782,-215 1213.782,-196 1163.782,-196"/>
<text text-anchor="middle" x="1188.782" y="-203" font-family="Helvetica,sans-Serif" font-size="10.00" fill="#000000">atomic</text>
</a>
</g>
</g>
<!-- Node23&#45;&gt;Node24 -->
<g id="edge36" class="edge">
<title>Node23&#45;&gt;Node24</title>
<path fill="none" stroke="#191970" d="M1067.1272,-262.9005C1091.2743,-251.5072 1131.7324,-232.4178 1159.3065,-219.4075"/>
<polygon fill="#191970" stroke="#191970" points="1160.9243,-222.5142 1168.4746,-215.0817 1157.9373,-216.1835 1160.9243,-222.5142"/>
</g>
<!-- Node25 -->
<g id="node26" class="node">
<title>Node25</title>
<g id="a_node26"><a xlink:title=" ">
<polygon fill="#ffffff" stroke="#bfbfbf" points="1231.782,-196 1231.782,-215 1281.782,-215 1281.782,-196 1231.782,-196"/>
<text text-anchor="middle" x="1256.782" y="-203" font-family="Helvetica,sans-Serif" font-size="10.00" fill="#000000">cstdint</text>
</a>
</g>
</g>
<!-- Node23&#45;&gt;Node25 -->
<g id="edge37" class="edge">
<title>Node23&#45;&gt;Node25</title>
<path fill="none" stroke="#191970" d="M1085.0597,-262.9925C1121.0611,-253.6545 1176.2342,-238.3191 1222.782,-221 1224.4123,-220.3934 1226.0739,-219.7439 1227.7426,-219.0671"/>
<polygon fill="#191970" stroke="#191970" points="1229.4,-222.1644 1237.206,-215.0008 1226.6365,-215.733 1229.4,-222.1644"/>
</g>
<!-- Node26 -->
<g id="node27" class="node">
<title>Node26</title>
<g id="a_node27"><a xlink:href="never__destroyed_8h.html" target="_top" xlink:title=" ">
<polygon fill="#ffffff" stroke="#000000" points="986.282,-190.5 986.282,-220.5 1107.282,-220.5 1107.282,-190.5 986.282,-190.5"/>
<text text-anchor="start" x="994.282" y="-208.5" font-family="Helvetica,sans-Serif" font-size="10.00" fill="#000000">drake/common/never</text>
<text text-anchor="middle" x="1046.782" y="-197.5" font-family="Helvetica,sans-Serif" font-size="10.00" fill="#000000">_destroyed.h</text>
</a>
</g>
</g>
<!-- Node23&#45;&gt;Node26 -->
<g id="edge43" class="edge">
<title>Node23&#45;&gt;Node26</title>
<path fill="none" stroke="#191970" d="M1046.782,-262.9005C1046.782,-254.5099 1046.782,-241.9451 1046.782,-230.7085"/>
<polygon fill="#191970" stroke="#191970" points="1050.2821,-230.5217 1046.782,-220.5218 1043.2821,-230.5218 1050.2821,-230.5217"/>
</g>
<!-- Node26&#45;&gt;Node2 -->
<g id="edge46" class="edge">
<title>Node26&#45;&gt;Node2</title>
<path fill="none" stroke="#191970" d="M1033.6209,-190.2967C1024.7598,-180.0605 1013.0525,-166.5366 1003.8227,-155.8746"/>
<polygon fill="#191970" stroke="#191970" points="1006.2448,-153.3248 997.0535,-148.055 1000.9523,-157.9064 1006.2448,-153.3248"/>
</g>
<!-- Node26&#45;&gt;Node10 -->
<g id="edge45" class="edge">
<title>Node26&#45;&gt;Node10</title>
<path fill="none" stroke="#191970" d="M1060.2165,-190.2443C1074.2527,-172.397 1092.1264,-142.7782 1075.782,-123 1006.349,-38.9799 656.5353,-16.8085 531.3878,-11.5189"/>
<polygon fill="#191970" stroke="#191970" points="531.511,-8.0211 521.377,-11.1118 531.2265,-15.0153 531.511,-8.0211"/>
</g>
<!-- Node26&#45;&gt;Node11 -->
<g id="edge47" class="edge">
<title>Node26&#45;&gt;Node11</title>
<path fill="none" stroke="#191970" d="M1107.6247,-191.0445C1151.8226,-180.5436 1211.7554,-166.3042 1258.0821,-155.2975"/>
<polygon fill="#191970" stroke="#191970" points="1259.1284,-158.6464 1268.0485,-152.9296 1257.5102,-151.836 1259.1284,-158.6464"/>
</g>
<!-- Node27 -->
<g id="node28" class="node">
<title>Node27</title>
<g id="a_node28"><a xlink:title=" ">
<polygon fill="#ffffff" stroke="#bfbfbf" points="1029.282,-129 1029.282,-148 1066.282,-148 1066.282,-129 1029.282,-129"/>
<text text-anchor="middle" x="1047.782" y="-136" font-family="Helvetica,sans-Serif" font-size="10.00" fill="#000000">new</text>
</a>
</g>
</g>
<!-- Node26&#45;&gt;Node27 -->
<g id="edge44" class="edge">
<title>Node26&#45;&gt;Node27</title>
<path fill="none" stroke="#191970" d="M1047.009,-190.2967C1047.1512,-180.7699 1047.3358,-168.3954 1047.4891,-158.1306"/>
<polygon fill="#191970" stroke="#191970" points="1050.9897,-158.1061 1047.6394,-148.055 1043.9905,-158.0016 1050.9897,-158.1061"/>
</g>
<!-- Node28&#45;&gt;Node3 -->
<g id="edge52" class="edge">
<title>Node28&#45;&gt;Node3</title>
<path fill="none" stroke="#191970" d="M1330.461,-530.2956C1441.7866,-512.5971 1641.782,-471.7252 1641.782,-406.5 1641.782,-406.5 1641.782,-406.5 1641.782,-272.5 1641.782,-230.2065 1624.0444,-183.1555 1612.8063,-157.5895"/>
<polygon fill="#191970" stroke="#191970" points="1615.9161,-155.9726 1608.5948,-148.3143 1609.5424,-158.8667 1615.9161,-155.9726"/>
</g>
<!-- Node28&#45;&gt;Node14 -->
<g id="edge49" class="edge">
<title>Node28&#45;&gt;Node14</title>
<path fill="none" stroke="#191970" d="M1234.5357,-525.4924C1219.6605,-515.607 1200.1529,-502.1112 1183.782,-489 1080.6628,-406.4128 1049.8325,-389.0972 964.782,-288 942.0038,-260.9241 932.9658,-254.569 921.782,-221 914.9961,-200.6313 914.0897,-175.917 914.51,-158.8791"/>
<polygon fill="#191970" stroke="#191970" points="918.0251,-158.5986 914.957,-148.4578 911.0316,-158.2986 918.0251,-158.5986"/>
</g>
<!-- Node28&#45;&gt;Node22 -->
<g id="edge63" class="edge">
<title>Node28&#45;&gt;Node22</title>
<path fill="none" stroke="#191970" d="M1237.5791,-525.3755C1226.1207,-515.9504 1212.2288,-502.9826 1202.782,-489 1188.5971,-468.0042 1165.2597,-401.2789 1152.9577,-364.4724"/>
<polygon fill="#191970" stroke="#191970" points="1156.127,-362.9097 1149.6567,-354.5201 1149.4829,-365.1135 1156.127,-362.9097"/>
</g>
<!-- Node29 -->
<g id="node30" class="node">
<title>Node29</title>
<g id="a_node30"><a xlink:title=" ">
<polygon fill="#ffffff" stroke="#bfbfbf" points="1211.282,-464 1211.282,-483 1304.282,-483 1304.282,-464 1211.282,-464"/>
<text text-anchor="middle" x="1257.782" y="-471" font-family="Helvetica,sans-Serif" font-size="10.00" fill="#000000">unordered_map</text>
</a>
</g>
</g>
<!-- Node28&#45;&gt;Node29 -->
<g id="edge50" class="edge">
<title>Node28&#45;&gt;Node29</title>
<path fill="none" stroke="#191970" d="M1257.782,-525.2967C1257.782,-515.7699 1257.782,-503.3954 1257.782,-493.1306"/>
<polygon fill="#191970" stroke="#191970" points="1261.2821,-493.0549 1257.782,-483.055 1254.2821,-493.055 1261.2821,-493.0549"/>
</g>
<!-- Node30 -->
<g id="node31" class="node">
<title>Node30</title>
<g id="a_node31"><a xlink:title=" ">
<polygon fill="#ffffff" stroke="#bfbfbf" points="1489.782,-330 1489.782,-349 1575.782,-349 1575.782,-330 1489.782,-330"/>
<text text-anchor="middle" x="1532.782" y="-337" font-family="Helvetica,sans-Serif" font-size="10.00" fill="#000000">unordered_set</text>
</a>
</g>
</g>
<!-- Node28&#45;&gt;Node30 -->
<g id="edge51" class="edge">
<title>Node28&#45;&gt;Node30</title>
<path fill="none" stroke="#191970" d="M1330.4507,-529.9802C1383.1845,-521.0539 1448.7985,-506.8594 1469.782,-489 1509.6895,-455.0341 1524.8666,-391.4684 1530.1806,-359.272"/>
<polygon fill="#191970" stroke="#191970" points="1533.6555,-359.6997 1531.6733,-349.2919 1526.7325,-358.6642 1533.6555,-359.6997"/>
</g>
<!-- Node31 -->
<g id="node32" class="node">
<title>Node31</title>
<g id="a_node32"><a xlink:href="collision__filter__declaration_8h.html" target="_top" xlink:title=" ">
<polygon fill="#ffffff" stroke="#000000" points="1322.782,-458.5 1322.782,-488.5 1460.782,-488.5 1460.782,-458.5 1322.782,-458.5"/>
<text text-anchor="start" x="1330.782" y="-476.5" font-family="Helvetica,sans-Serif" font-size="10.00" fill="#000000">drake/geometry/collision</text>
<text text-anchor="middle" x="1391.782" y="-465.5" font-family="Helvetica,sans-Serif" font-size="10.00" fill="#000000">_filter_declaration.h</text>
</a>
</g>
</g>
<!-- Node28&#45;&gt;Node31 -->
<g id="edge53" class="edge">
<title>Node28&#45;&gt;Node31</title>
<path fill="none" stroke="#191970" d="M1287.8543,-525.4639C1306.8582,-515.9619 1331.6263,-503.5779 1352.2161,-493.283"/>
<polygon fill="#191970" stroke="#191970" points="1353.9676,-496.3204 1361.3466,-488.7177 1350.837,-490.0594 1353.9676,-496.3204"/>
</g>
<!-- Node31&#45;&gt;Node2 -->
<g id="edge54" class="edge">
<title>Node31&#45;&gt;Node2</title>
<path fill="none" stroke="#191970" d="M1358.9214,-458.3757C1341.2029,-449.3008 1319.5897,-436.6782 1302.782,-422 1261.2665,-385.7442 1266.907,-361.789 1226.782,-324 1188.3726,-287.8266 1177.0255,-278.3629 1128.782,-257 1065.6982,-229.0655 1020.5373,-275.1469 977.782,-221 963.5683,-202.9992 971.2097,-175.6036 979.0686,-157.3841"/>
<polygon fill="#191970" stroke="#191970" points="982.3506,-158.6295 983.4383,-148.0906 976.0158,-155.6509 982.3506,-158.6295"/>
</g>
<!-- Node31&#45;&gt;Node3 -->
<g id="edge55" class="edge">
<title>Node31&#45;&gt;Node3</title>
<path fill="none" stroke="#191970" d="M1460.9054,-459.9473C1522.7712,-443.3253 1603.782,-408.4043 1603.782,-339.5 1603.782,-339.5 1603.782,-339.5 1603.782,-272.5 1603.782,-231.9699 1603.782,-184.5443 1603.782,-158.3795"/>
<polygon fill="#191970" stroke="#191970" points="1607.2821,-158.2517 1603.782,-148.2517 1600.2821,-158.2518 1607.2821,-158.2517"/>
</g>
<!-- Node31&#45;&gt;Node11 -->
<g id="edge56" class="edge">
<title>Node31&#45;&gt;Node11</title>
<path fill="none" stroke="#191970" d="M1362,-458.3625C1347.5502,-449.5893 1331.123,-437.25 1320.782,-422 1303.5403,-396.5732 1307.5892,-385.4846 1303.782,-355 1296.2067,-294.3427 1325.8785,-281.4766 1334.782,-221 1336.7888,-207.3692 1335.5806,-203.7546 1334.782,-190 1334.2887,-181.5023 1333.3412,-172.2555 1332.3423,-163.9725"/>
<polygon fill="#191970" stroke="#191970" points="1335.779,-163.2556 1331.0335,-153.783 1328.8361,-164.1474 1335.779,-163.2556"/>
</g>
<!-- Node32 -->
<g id="node33" class="node">
<title>Node32</title>
<g id="a_node33"><a xlink:href="geometry__set_8h.html" target="_top" xlink:title=" ">
<polygon fill="#ffffff" stroke="#000000" points="1329.282,-391.5 1329.282,-421.5 1474.282,-421.5 1474.282,-391.5 1329.282,-391.5"/>
<text text-anchor="start" x="1337.282" y="-409.5" font-family="Helvetica,sans-Serif" font-size="10.00" fill="#000000">drake/geometry/geometry</text>
<text text-anchor="middle" x="1401.782" y="-398.5" font-family="Helvetica,sans-Serif" font-size="10.00" fill="#000000">_set.h</text>
</a>
</g>
</g>
<!-- Node31&#45;&gt;Node32 -->
<g id="edge57" class="edge">
<title>Node31&#45;&gt;Node32</title>
<path fill="none" stroke="#191970" d="M1394.0512,-458.2967C1395.2275,-450.4156 1396.6946,-440.5857 1398.0338,-431.6135"/>
<polygon fill="#191970" stroke="#191970" points="1401.5073,-432.0503 1399.5219,-421.6432 1394.5839,-431.0169 1401.5073,-432.0503"/>
</g>
<!-- Node32&#45;&gt;Node3 -->
<g id="edge60" class="edge">
<title>Node32&#45;&gt;Node3</title>
<path fill="none" stroke="#191970" d="M1413.2212,-391.3233C1448.1064,-345.0399 1553.0357,-205.8268 1590.3946,-156.2616"/>
<polygon fill="#191970" stroke="#191970" points="1593.3277,-158.1849 1596.5518,-148.0926 1587.7378,-153.9716 1593.3277,-158.1849"/>
</g>
<!-- Node32&#45;&gt;Node11 -->
<g id="edge61" class="edge">
<title>Node32&#45;&gt;Node11</title>
<path fill="none" stroke="#191970" d="M1406.1086,-391.4328C1415.8189,-354.4846 1435.8,-257.4818 1399.782,-190 1393.0314,-177.3522 1381.6431,-167.0418 1369.9414,-159.0602"/>
<polygon fill="#191970" stroke="#191970" points="1371.7465,-156.0605 1361.4272,-153.6598 1367.9971,-161.9717 1371.7465,-156.0605"/>
</g>
<!-- Node32&#45;&gt;Node22 -->
<g id="edge62" class="edge">
<title>Node32&#45;&gt;Node22</title>
<path fill="none" stroke="#191970" d="M1344.1062,-391.4639C1305.1411,-381.3057 1253.541,-367.8535 1212.6047,-357.1814"/>
<polygon fill="#191970" stroke="#191970" points="1213.269,-353.7376 1202.7094,-354.6017 1211.503,-360.5112 1213.269,-353.7376"/>
</g>
<!-- Node32&#45;&gt;Node30 -->
<g id="edge59" class="edge">
<title>Node32&#45;&gt;Node30</title>
<path fill="none" stroke="#191970" d="M1431.181,-391.4639C1453.2601,-380.1715 1483.2981,-364.8086 1504.9803,-353.7192"/>
<polygon fill="#191970" stroke="#191970" points="1506.6948,-356.7736 1514.0042,-349.1039 1503.5074,-350.5414 1506.6948,-356.7736"/>
</g>
<!-- Node33 -->
<g id="node34" class="node">
<title>Node33</title>
<g id="a_node34"><a xlink:title=" ">
<polygon fill="#ffffff" stroke="#bfbfbf" points="1312.282,-330 1312.282,-349 1395.282,-349 1395.282,-330 1312.282,-330"/>
<text text-anchor="middle" x="1353.782" y="-337" font-family="Helvetica,sans-Serif" font-size="10.00" fill="#000000">initializer_list</text>
</a>
</g>
</g>
<!-- Node32&#45;&gt;Node33 -->
<g id="edge58" class="edge">
<title>Node32&#45;&gt;Node33</title>
<path fill="none" stroke="#191970" d="M1390.8901,-391.2967C1383.6293,-381.1618 1374.0596,-367.804 1366.457,-357.1921"/>
<polygon fill="#191970" stroke="#191970" points="1369.2965,-355.1458 1360.6274,-349.055 1363.6061,-359.2225 1369.2965,-355.1458"/>
</g>
</g>
</svg>
        <g id="navigator" transform="translate(0 0)" fill="#404254">
                <rect fill="#f2f5e9" fill-opacity="0.5" stroke="#606060" stroke-width=".5" x="0" y="0" width="60" height="60"/>
                <use id="zoomplus" xlink:href="#zoomPlus" x="17" y="9" onmousedown="handleZoom(evt,'in')"/>
                <use id="zoomminus" xlink:href="#zoomMin" x="42" y="9" onmousedown="handleZoom(evt,'out')"/>
                <use id="reset" xlink:href="#resetDef" x="30" y="36" onmousedown="handleReset()"/>
                <g id="arrowUp" xlink:href="#dirArrow" transform="translate(30 24)" onmousedown="handlePan(0,-1)">
                  <use xlink:href="#rim" fill="#404040">
                        <set attributeName="fill" to="#808080" begin="arrowUp.mouseover" end="arrowUp.mouseout"/>
                  </use>
                  <path fill="none" stroke="white" stroke-width="1.5" d="M0,-3.0v7 M-2.5,-0.5L0,-3.0L2.5,-0.5"/>
                </g>
                <g id="arrowRight" xlink:href="#dirArrow" transform="rotate(90) translate(36 -43)" onmousedown="handlePan(1,0)">
                  <use xlink:href="#rim" fill="#404040">
                        <set attributeName="fill" to="#808080" begin="arrowRight.mouseover" end="arrowRight.mouseout"/>
                  </use>
                  <path fill="none" stroke="white" stroke-width="1.5" d="M0,-3.0v7 M-2.5,-0.5L0,-3.0L2.5,-0.5"/>
                </g>
                <g id="arrowDown" xlink:href="#dirArrow" transform="rotate(180) translate(-30 -48)" onmousedown="handlePan(0,1)">
                  <use xlink:href="#rim" fill="#404040">
                        <set attributeName="fill" to="#808080" begin="arrowDown.mouseover" end="arrowDown.mouseout"/>
                  </use>
                  <path fill="none" stroke="white" stroke-width="1.5" d="M0,-3.0v7 M-2.5,-0.5L0,-3.0L2.5,-0.5"/>
                </g>
                <g id="arrowLeft" xlink:href="#dirArrow" transform="rotate(270) translate(-36 17)" onmousedown="handlePan(-1,0)">
                  <use xlink:href="#rim" fill="#404040">
                        <set attributeName="fill" to="#808080" begin="arrowLeft.mouseover" end="arrowLeft.mouseout"/>
                  </use>
                  <path fill="none" stroke="white" stroke-width="1.5" d="M0,-3.0v7 M-2.5,-0.5L0,-3.0L2.5,-0.5"/>
                </g>
        </g>
        <svg viewBox="0 0 15 15" width="100%" height="30px" preserveAspectRatio="xMaxYMin meet">
         <g id="arrow_out" transform="scale(0.3 0.3)">
          <a xlink:href="find__collision__candidates__callback_8h__incl_org.svg" target="_base">
           <rect id="button" ry="5" rx="5" y="6" x="6" height="38" width="38"
                fill="#f2f5e9" fill-opacity="0.5" stroke="#606060" stroke-width="1.0"/>
           <path id="arrow"
             d="M 11.500037,31.436501 C 11.940474,20.09759 22.043105,11.32322 32.158766,21.979434 L 37.068811,17.246167 C 37.068811,17.246167 37.088388,32 37.088388,32 L 22.160133,31.978069 C 22.160133,31.978069 26.997745,27.140456 26.997745,27.140456 C 18.528582,18.264221 13.291696,25.230495 11.500037,31.436501 z"
             style="fill:#404040;"/>
          </a>
         </g>
        </svg>
</svg>
