<?xml version="1.0" encoding="UTF-8" standalone="no"?>
<!DOCTYPE svg PUBLIC "-//W3C//DTD SVG 1.1//EN"
 "http://www.w3.org/Graphics/SVG/1.1/DTD/svg11.dtd">
<!-- Generated by graphviz version 2.43.0 (0)
 -->
<!-- Title: drake/common/fmt.h Pages: 1 -->
<svg width="437pt" height="98pt"
 viewBox="0.00 0.00 436.97 97.74" xmlns="http://www.w3.org/2000/svg" xmlns:xlink="http://www.w3.org/1999/xlink">
<g id="graph0" class="graph" transform="scale(1 1) rotate(0) translate(4 93.74)">
<title>drake/common/fmt.h</title>
<!-- Node1 -->
<g id="Node000001" class="node">
<title>Node1</title>
<g id="a_Node000001"><a xlink:title=" ">
<ellipse fill="#999999" stroke="#666666" cx="191.11" cy="-76.31" rx="84.29" ry="13.37"/>
<text text-anchor="middle" x="191.11" y="-73.81" font-family="Helvetica,sans-Serif" font-size="10.00">drake/common/fmt.h</text>
</a>
</g>
</g>
<!-- Node2 -->
<g id="Node000002" class="node">
<title>Node2</title>
<g id="a_Node000002"><a xlink:title=" ">
<ellipse fill="#e0e0e0" stroke="#999999" cx="31.11" cy="-13.44" rx="31.23" ry="13.37"/>
<text text-anchor="middle" x="31.11" y="-10.94" font-family="Helvetica,sans-Serif" font-size="10.00">string</text>
</a>
</g>
</g>
<!-- Node1&#45;&gt;Node2 -->
<g id="edge1_Node000001_Node000002" class="edge">
<title>Node1&#45;&gt;Node2</title>
<g id="a_edge1_Node000001_Node000002"><a xlink:title=" ">
<path fill="none" stroke="#63b8ff" d="M160.64,-63.71C132.74,-53.1 91.59,-37.44 63.19,-26.64"/>
<polygon fill="#63b8ff" stroke="#63b8ff" points="64.31,-23.32 53.72,-23.04 61.83,-29.86 64.31,-23.32"/>
</a>
</g>
</g>
<!-- Node3 -->
<g id="Node000003" class="node">
<title>Node3</title>
<g id="a_Node000003"><a xlink:title=" ">
<ellipse fill="#e0e0e0" stroke="#999999" cx="132.11" cy="-13.44" rx="51.74" ry="13.37"/>
<text text-anchor="middle" x="132.11" y="-10.94" font-family="Helvetica,sans-Serif" font-size="10.00">string_view</text>
</a>
</g>
</g>
<!-- Node1&#45;&gt;Node3 -->
<g id="edge2_Node000001_Node000003" class="edge">
<title>Node1&#45;&gt;Node3</title>
<g id="a_edge2_Node000001_Node000003"><a xlink:title=" ">
<path fill="none" stroke="#63b8ff" d="M179.17,-62.99C171.1,-54.65 160.26,-43.47 151.02,-33.94"/>
<polygon fill="#63b8ff" stroke="#63b8ff" points="153.51,-31.48 144.03,-26.73 148.48,-36.35 153.51,-31.48"/>
</a>
</g>
</g>
<!-- Node4 -->
<g id="Node000004" class="node">
<title>Node4</title>
<g id="a_Node000004"><a xlink:title=" ">
<ellipse fill="#e0e0e0" stroke="#999999" cx="250.11" cy="-13.44" rx="48.58" ry="13.37"/>
<text text-anchor="middle" x="250.11" y="-10.94" font-family="Helvetica,sans-Serif" font-size="10.00">type_traits</text>
</a>
</g>
</g>
<!-- Node1&#45;&gt;Node4 -->
<g id="edge3_Node000001_Node000004" class="edge">
<title>Node1&#45;&gt;Node4</title>
<g id="a_edge3_Node000001_Node000004"><a xlink:title=" ">
<path fill="none" stroke="#63b8ff" d="M203.05,-62.99C211.13,-54.65 221.97,-43.47 231.21,-33.94"/>
<polygon fill="#63b8ff" stroke="#63b8ff" points="233.74,-36.35 238.19,-26.73 228.72,-31.48 233.74,-36.35"/>
</a>
</g>
</g>
<!-- Node5 -->
<g id="Node000005" class="node">
<title>Node5</title>
<g id="a_Node000005"><a xlink:title=" ">
<ellipse fill="#e0e0e0" stroke="#999999" cx="373.11" cy="-13.44" rx="55.72" ry="13.37"/>
<text text-anchor="middle" x="373.11" y="-10.94" font-family="Helvetica,sans-Serif" font-size="10.00">fmt/format.h</text>
</a>
</g>
</g>
<!-- Node1&#45;&gt;Node5 -->
<g id="edge4_Node000001_Node000005" class="edge">
<title>Node1&#45;&gt;Node5</title>
<g id="a_edge4_Node000001_Node000005"><a xlink:title=" ">
<path fill="none" stroke="#63b8ff" d="M224.92,-64C255.38,-53.81 300.23,-38.81 332.6,-27.98"/>
<polygon fill="#63b8ff" stroke="#63b8ff" points="333.84,-31.26 342.22,-24.77 331.62,-24.62 333.84,-31.26"/>
</a>
</g>
</g>
</g>
</svg>
