<?xml version="1.0" encoding="UTF-8" standalone="no"?>
<!DOCTYPE svg PUBLIC "-//W3C//DTD SVG 1.1//EN"
 "http://www.w3.org/Graphics/SVG/1.1/DTD/svg11.dtd">
<!-- Generated by graphviz version 2.43.0 (0)
 -->
<!-- Title: drake/common/symbolic/expression/formula.h Pages: 1 -->
<svg width="1875pt" height="408pt"
 viewBox="0.00 0.00 1874.52 408.00" xmlns="http://www.w3.org/2000/svg" xmlns:xlink="http://www.w3.org/1999/xlink">
<g id="graph0" class="graph" transform="scale(1 1) rotate(0) translate(4 404)">
<title>drake/common/symbolic/expression/formula.h</title>
<polygon fill="white" stroke="transparent" points="-4,4 -4,-404 1870.52,-404 1870.52,4 -4,4"/>
<!-- Node0 -->
<g id="node1" class="node">
<title>Node0</title>
<g id="a_node1"><a xlink:title=" ">
<polygon fill="#bfbfbf" stroke="black" points="1109.02,-369.5 1109.02,-399.5 1246.02,-399.5 1246.02,-369.5 1109.02,-369.5"/>
<text text-anchor="start" x="1117.02" y="-387.5" font-family="Helvetica,sans-Serif" font-size="10.00">drake/common/symbolic</text>
<text text-anchor="middle" x="1177.52" y="-376.5" font-family="Helvetica,sans-Serif" font-size="10.00">/expression/formula.h</text>
</a>
</g>
</g>
<!-- Node1 -->
<g id="node2" class="node">
<title>Node1</title>
<g id="a_node2"><a xlink:title=" ">
<polygon fill="white" stroke="#bfbfbf" points="335.02,-185 335.02,-204 400.02,-204 400.02,-185 335.02,-185"/>
<text text-anchor="middle" x="367.52" y="-192" font-family="Helvetica,sans-Serif" font-size="10.00">functional</text>
</a>
</g>
</g>
<!-- Node0&#45;&gt;Node1 -->
<g id="edge1" class="edge">
<title>Node0&#45;&gt;Node1</title>
<path fill="none" stroke="midnightblue" d="M1108.7,-380.15C1022.45,-374.89 870.51,-362.1 743.52,-333 669.67,-316.08 653.72,-302.87 582.52,-277 516.87,-253.15 440.52,-223.83 398.77,-207.66"/>
<polygon fill="midnightblue" stroke="midnightblue" points="400.01,-204.38 389.42,-204.03 397.47,-210.91 400.01,-204.38"/>
</g>
<!-- Node2 -->
<g id="node3" class="node">
<title>Node2</title>
<g id="a_node3"><a xlink:title=" ">
<polygon fill="white" stroke="#bfbfbf" points="1330.52,-185 1330.52,-204 1388.52,-204 1388.52,-185 1330.52,-185"/>
<text text-anchor="middle" x="1359.52" y="-192" font-family="Helvetica,sans-Serif" font-size="10.00">memory</text>
</a>
</g>
</g>
<!-- Node0&#45;&gt;Node2 -->
<g id="edge2" class="edge">
<title>Node0&#45;&gt;Node2</title>
<path fill="none" stroke="midnightblue" d="M1246.17,-375.29C1297.74,-367.55 1362.17,-353.96 1378.52,-333 1405.97,-297.8 1383.74,-241.54 1369.36,-213.14"/>
<polygon fill="midnightblue" stroke="midnightblue" points="1372.3,-211.21 1364.52,-204.02 1366.12,-214.49 1372.3,-211.21"/>
</g>
<!-- Node3 -->
<g id="node4" class="node">
<title>Node3</title>
<g id="a_node4"><a xlink:title=" ">
<polygon fill="white" stroke="#bfbfbf" points="483.02,-313.5 483.02,-332.5 540.02,-332.5 540.02,-313.5 483.02,-313.5"/>
<text text-anchor="middle" x="511.52" y="-320.5" font-family="Helvetica,sans-Serif" font-size="10.00">ostream</text>
</a>
</g>
</g>
<!-- Node0&#45;&gt;Node3 -->
<g id="edge3" class="edge">
<title>Node0&#45;&gt;Node3</title>
<path fill="none" stroke="midnightblue" d="M1108.98,-380.76C993.92,-375.53 754.81,-361.96 554.52,-333 553.05,-332.79 551.57,-332.56 550.07,-332.31"/>
<polygon fill="midnightblue" stroke="midnightblue" points="550.57,-328.85 540.11,-330.51 549.32,-335.73 550.57,-328.85"/>
</g>
<!-- Node4 -->
<g id="node5" class="node">
<title>Node4</title>
<g id="a_node5"><a xlink:title=" ">
<polygon fill="white" stroke="#bfbfbf" points="418.52,-185 418.52,-204 450.52,-204 450.52,-185 418.52,-185"/>
<text text-anchor="middle" x="434.52" y="-192" font-family="Helvetica,sans-Serif" font-size="10.00">set</text>
</a>
</g>
</g>
<!-- Node0&#45;&gt;Node4 -->
<g id="edge4" class="edge">
<title>Node0&#45;&gt;Node4</title>
<path fill="none" stroke="midnightblue" d="M1108.74,-371.08C1053.51,-361.03 973.97,-346.39 904.52,-333 780.33,-309.05 741.44,-327.57 625.52,-277 603.92,-267.58 603.45,-256.81 582.52,-246 560.89,-234.83 496.96,-214.53 460.59,-203.38"/>
<polygon fill="midnightblue" stroke="midnightblue" points="461.28,-199.93 450.69,-200.36 459.23,-206.62 461.28,-199.93"/>
</g>
<!-- Node5 -->
<g id="node6" class="node">
<title>Node5</title>
<g id="a_node6"><a xlink:title=" ">
<polygon fill="white" stroke="#bfbfbf" points="1651.52,-0.5 1651.52,-19.5 1695.52,-19.5 1695.52,-0.5 1651.52,-0.5"/>
<text text-anchor="middle" x="1673.52" y="-7.5" font-family="Helvetica,sans-Serif" font-size="10.00">string</text>
</a>
</g>
</g>
<!-- Node0&#45;&gt;Node5 -->
<g id="edge5" class="edge">
<title>Node0&#45;&gt;Node5</title>
<path fill="none" stroke="midnightblue" d="M1246.22,-382.53C1345.7,-379.82 1535.06,-369.79 1691.52,-333 1773.14,-313.81 1866.52,-346.35 1866.52,-262.5 1866.52,-262.5 1866.52,-262.5 1866.52,-126.5 1866.52,-52.4 1760.46,-24.69 1705.59,-15.31"/>
<polygon fill="midnightblue" stroke="midnightblue" points="1706.08,-11.85 1695.66,-13.72 1704.98,-18.76 1706.08,-11.85"/>
</g>
<!-- Node6 -->
<g id="node7" class="node">
<title>Node6</title>
<g id="a_node7"><a xlink:title=" ">
<polygon fill="white" stroke="#bfbfbf" points="1187.02,-118 1187.02,-137 1232.02,-137 1232.02,-118 1187.02,-118"/>
<text text-anchor="middle" x="1209.52" y="-125" font-family="Helvetica,sans-Serif" font-size="10.00">utility</text>
</a>
</g>
</g>
<!-- Node0&#45;&gt;Node6 -->
<g id="edge6" class="edge">
<title>Node0&#45;&gt;Node6</title>
<path fill="none" stroke="midnightblue" d="M1246.2,-376.53C1302.92,-369.24 1377.14,-355.64 1396.52,-333 1441.01,-280.99 1441.31,-231.6 1397.52,-179 1351.98,-124.32 1308.92,-165.8 1241.52,-143 1239.85,-142.44 1238.15,-141.81 1236.45,-141.16"/>
<polygon fill="midnightblue" stroke="midnightblue" points="1237.44,-137.78 1226.87,-137.12 1234.72,-144.23 1237.44,-137.78"/>
</g>
<!-- Node7 -->
<g id="node8" class="node">
<title>Node7</title>
<g id="a_node8"><a xlink:title=" ">
<polygon fill="white" stroke="#bfbfbf" points="1055.02,-56.5 1055.02,-75.5 1124.02,-75.5 1124.02,-56.5 1055.02,-56.5"/>
<text text-anchor="middle" x="1089.52" y="-63.5" font-family="Helvetica,sans-Serif" font-size="10.00">Eigen/Core</text>
</a>
</g>
</g>
<!-- Node0&#45;&gt;Node7 -->
<g id="edge7" class="edge">
<title>Node0&#45;&gt;Node7</title>
<path fill="none" stroke="midnightblue" d="M1162.47,-369.26C1143.4,-350.21 1111.13,-314.48 1095.52,-277 1068.18,-211.4 1078.98,-124.01 1085.7,-86"/>
<polygon fill="midnightblue" stroke="midnightblue" points="1089.2,-86.34 1087.61,-75.86 1082.32,-85.04 1089.2,-86.34"/>
</g>
<!-- Node8 -->
<g id="node9" class="node">
<title>Node8</title>
<g id="a_node9"><a xlink:href="drake__assert_8h.html" target="_top" xlink:title="Provides Drake&#39;s assertion implementation.">
<polygon fill="white" stroke="black" points="507.02,-112.5 507.02,-142.5 626.02,-142.5 626.02,-112.5 507.02,-112.5"/>
<text text-anchor="start" x="515.02" y="-130.5" font-family="Helvetica,sans-Serif" font-size="10.00">drake/common/drake</text>
<text text-anchor="middle" x="566.52" y="-119.5" font-family="Helvetica,sans-Serif" font-size="10.00">_assert.h</text>
</a>
</g>
</g>
<!-- Node0&#45;&gt;Node8 -->
<g id="edge8" class="edge">
<title>Node0&#45;&gt;Node8</title>
<path fill="none" stroke="midnightblue" d="M1108.81,-382.21C901.1,-377.47 282.86,-356.82 100.52,-277 53.52,-256.43 30.01,-255.61 6.52,-210 0.21,-197.75 -2.78,-189.17 6.52,-179 38.98,-143.48 353.69,-132.72 496.57,-129.65"/>
<polygon fill="midnightblue" stroke="midnightblue" points="497.05,-133.14 506.97,-129.43 496.9,-126.14 497.05,-133.14"/>
</g>
<!-- Node10 -->
<g id="node11" class="node">
<title>Node10</title>
<g id="a_node11"><a xlink:href="drake__bool_8h.html" target="_top" xlink:title=" ">
<polygon fill="white" stroke="black" points="110.02,-246.5 110.02,-276.5 229.02,-276.5 229.02,-246.5 110.02,-246.5"/>
<text text-anchor="start" x="118.02" y="-264.5" font-family="Helvetica,sans-Serif" font-size="10.00">drake/common/drake</text>
<text text-anchor="middle" x="169.52" y="-253.5" font-family="Helvetica,sans-Serif" font-size="10.00">_bool.h</text>
</a>
</g>
</g>
<!-- Node0&#45;&gt;Node10 -->
<g id="edge10" class="edge">
<title>Node0&#45;&gt;Node10</title>
<path fill="none" stroke="midnightblue" d="M1108.67,-382.13C982.19,-378.81 704.64,-367.87 473.52,-333 387.5,-320.02 289.8,-295.59 228.9,-279.18"/>
<polygon fill="midnightblue" stroke="midnightblue" points="229.65,-275.75 219.08,-276.52 227.82,-282.51 229.65,-275.75"/>
</g>
<!-- Node13 -->
<g id="node14" class="node">
<title>Node13</title>
<g id="a_node14"><a xlink:href="drake__copyable_8h.html" target="_top" xlink:title="Provides careful macros to selectively enable or disable the special member functions for copy&#45;constr...">
<polygon fill="white" stroke="black" points="1681.02,-112.5 1681.02,-142.5 1800.02,-142.5 1800.02,-112.5 1681.02,-112.5"/>
<text text-anchor="start" x="1689.02" y="-130.5" font-family="Helvetica,sans-Serif" font-size="10.00">drake/common/drake</text>
<text text-anchor="middle" x="1740.52" y="-119.5" font-family="Helvetica,sans-Serif" font-size="10.00">_copyable.h</text>
</a>
</g>
</g>
<!-- Node0&#45;&gt;Node13 -->
<g id="edge17" class="edge">
<title>Node0&#45;&gt;Node13</title>
<path fill="none" stroke="midnightblue" d="M1246.25,-383.65C1325.89,-381.79 1459.94,-372.31 1567.52,-333 1650.44,-302.7 1680.96,-287.36 1723.52,-210 1733.23,-192.34 1737.41,-169.73 1739.19,-152.81"/>
<polygon fill="midnightblue" stroke="midnightblue" points="1742.7,-152.88 1740.06,-142.62 1735.73,-152.29 1742.7,-152.88"/>
</g>
<!-- Node14 -->
<g id="node15" class="node">
<title>Node14</title>
<g id="a_node15"><a xlink:href="eigen__types_8h.html" target="_top" xlink:title="This file contains abbreviated definitions for certain specializations of Eigen::Matrix that are comm...">
<polygon fill="white" stroke="black" points="1464.02,-179.5 1464.02,-209.5 1583.02,-209.5 1583.02,-179.5 1464.02,-179.5"/>
<text text-anchor="start" x="1472.02" y="-197.5" font-family="Helvetica,sans-Serif" font-size="10.00">drake/common/eigen</text>
<text text-anchor="middle" x="1523.52" y="-186.5" font-family="Helvetica,sans-Serif" font-size="10.00">_types.h</text>
</a>
</g>
</g>
<!-- Node0&#45;&gt;Node14 -->
<g id="edge18" class="edge">
<title>Node0&#45;&gt;Node14</title>
<path fill="none" stroke="midnightblue" d="M1246.17,-378.21C1362.93,-367.61 1592.07,-339.2 1638.52,-277 1659.3,-249.16 1621.67,-227.14 1584.01,-213.04"/>
<polygon fill="midnightblue" stroke="midnightblue" points="1585.07,-209.7 1574.48,-209.62 1582.71,-216.29 1585.07,-209.7"/>
</g>
<!-- Node19 -->
<g id="node20" class="node">
<title>Node19</title>
<g id="a_node20"><a xlink:href="fmt_8h.html" target="_top" xlink:title=" ">
<polygon fill="white" stroke="black" points="1528.02,-56.5 1528.02,-75.5 1647.02,-75.5 1647.02,-56.5 1528.02,-56.5"/>
<text text-anchor="middle" x="1587.52" y="-63.5" font-family="Helvetica,sans-Serif" font-size="10.00">drake/common/fmt.h</text>
</a>
</g>
</g>
<!-- Node0&#45;&gt;Node19 -->
<g id="edge32" class="edge">
<title>Node0&#45;&gt;Node19</title>
<path fill="none" stroke="midnightblue" d="M1246.26,-377.89C1413.6,-363.31 1828.52,-321.24 1828.52,-262.5 1828.52,-262.5 1828.52,-262.5 1828.52,-193.5 1828.52,-156.31 1836.19,-137.92 1809.52,-112 1788.09,-91.19 1713.95,-79.23 1657.18,-72.95"/>
<polygon fill="midnightblue" stroke="midnightblue" points="1657.48,-69.46 1647.16,-71.88 1656.73,-76.42 1657.48,-69.46"/>
</g>
<!-- Node21 -->
<g id="node22" class="node">
<title>Node21</title>
<g id="a_node22"><a xlink:href="hash_8h.html" target="_top" xlink:title=" ">
<polygon fill="white" stroke="black" points="635.02,-252 635.02,-271 760.02,-271 760.02,-252 635.02,-252"/>
<text text-anchor="middle" x="697.52" y="-259" font-family="Helvetica,sans-Serif" font-size="10.00">drake/common/hash.h</text>
</a>
</g>
</g>
<!-- Node0&#45;&gt;Node21 -->
<g id="edge33" class="edge">
<title>Node0&#45;&gt;Node21</title>
<path fill="none" stroke="midnightblue" d="M1121.51,-369.38C1024.81,-345.01 828.52,-295.52 741.15,-273.5"/>
<polygon fill="midnightblue" stroke="midnightblue" points="741.85,-270.07 731.3,-271.02 740.14,-276.85 741.85,-270.07"/>
</g>
<!-- Node28 -->
<g id="node29" class="node">
<title>Node28</title>
<g id="a_node29"><a xlink:href="random_8h.html" target="_top" xlink:title=" ">
<polygon fill="white" stroke="black" points="1230.02,-313.5 1230.02,-332.5 1369.02,-332.5 1369.02,-313.5 1230.02,-313.5"/>
<text text-anchor="middle" x="1299.52" y="-320.5" font-family="Helvetica,sans-Serif" font-size="10.00">drake/common/random.h</text>
</a>
</g>
</g>
<!-- Node0&#45;&gt;Node28 -->
<g id="edge47" class="edge">
<title>Node0&#45;&gt;Node28</title>
<path fill="none" stroke="midnightblue" d="M1206.43,-369.4C1226.53,-359.59 1253.14,-346.62 1272.75,-337.05"/>
<polygon fill="midnightblue" stroke="midnightblue" points="1274.31,-340.19 1281.76,-332.66 1271.24,-333.9 1274.31,-340.19"/>
</g>
<!-- Node9 -->
<g id="node10" class="node">
<title>Node9</title>
<g id="a_node10"><a xlink:title=" ">
<polygon fill="white" stroke="#bfbfbf" points="380.02,-56.5 380.02,-75.5 449.02,-75.5 449.02,-56.5 380.02,-56.5"/>
<text text-anchor="middle" x="414.52" y="-63.5" font-family="Helvetica,sans-Serif" font-size="10.00">type_traits</text>
</a>
</g>
</g>
<!-- Node8&#45;&gt;Node9 -->
<g id="edge9" class="edge">
<title>Node8&#45;&gt;Node9</title>
<path fill="none" stroke="midnightblue" d="M530.49,-112.4C504.88,-102.37 470.79,-89.03 446.21,-79.4"/>
<polygon fill="midnightblue" stroke="midnightblue" points="447.22,-76.04 436.63,-75.66 444.67,-82.56 447.22,-76.04"/>
</g>
<!-- Node10&#45;&gt;Node7 -->
<g id="edge12" class="edge">
<title>Node10&#45;&gt;Node7</title>
<path fill="none" stroke="midnightblue" d="M168.57,-246.23C168.2,-228.01 170.5,-196.74 188.52,-179 288.65,-80.41 358.46,-132.26 497.52,-112 700.49,-82.42 945.62,-71.64 1044.72,-68.3"/>
<polygon fill="midnightblue" stroke="midnightblue" points="1045.09,-71.79 1054.97,-67.96 1044.86,-64.79 1045.09,-71.79"/>
</g>
<!-- Node10&#45;&gt;Node9 -->
<g id="edge11" class="edge">
<title>Node10&#45;&gt;Node9</title>
<path fill="none" stroke="midnightblue" d="M109.79,-253.24C52.47,-243.57 -21.53,-222.37 6.52,-179 46.35,-117.41 272.36,-83.75 369.81,-71.93"/>
<polygon fill="midnightblue" stroke="midnightblue" points="370.42,-75.38 379.93,-70.72 369.59,-68.43 370.42,-75.38"/>
</g>
<!-- Node11 -->
<g id="node12" class="node">
<title>Node11</title>
<g id="a_node12"><a xlink:href="double__overloads_8h.html" target="_top" xlink:title="Provides necessary operations on double to have it as a ScalarType in drake.">
<polygon fill="white" stroke="black" points="16.02,-179.5 16.02,-209.5 141.02,-209.5 141.02,-179.5 16.02,-179.5"/>
<text text-anchor="start" x="24.02" y="-197.5" font-family="Helvetica,sans-Serif" font-size="10.00">drake/common/double</text>
<text text-anchor="middle" x="78.52" y="-186.5" font-family="Helvetica,sans-Serif" font-size="10.00">_overloads.h</text>
</a>
</g>
</g>
<!-- Node10&#45;&gt;Node11 -->
<g id="edge13" class="edge">
<title>Node10&#45;&gt;Node11</title>
<path fill="none" stroke="midnightblue" d="M149.77,-246.4C137.13,-237.37 120.54,-225.51 106.54,-215.52"/>
<polygon fill="midnightblue" stroke="midnightblue" points="108.39,-212.54 98.22,-209.58 104.33,-218.24 108.39,-212.54"/>
</g>
<!-- Node12 -->
<g id="node13" class="node">
<title>Node12</title>
<g id="a_node13"><a xlink:href="drake__throw_8h.html" target="_top" xlink:title="Provides a convenient wrapper to throw an exception when a condition is unmet.">
<polygon fill="white" stroke="black" points="198.02,-179.5 198.02,-209.5 317.02,-209.5 317.02,-179.5 198.02,-179.5"/>
<text text-anchor="start" x="206.02" y="-197.5" font-family="Helvetica,sans-Serif" font-size="10.00">drake/common/drake</text>
<text text-anchor="middle" x="257.52" y="-186.5" font-family="Helvetica,sans-Serif" font-size="10.00">_throw.h</text>
</a>
</g>
</g>
<!-- Node10&#45;&gt;Node12 -->
<g id="edge14" class="edge">
<title>Node10&#45;&gt;Node12</title>
<path fill="none" stroke="midnightblue" d="M188.61,-246.4C200.83,-237.37 216.88,-225.51 230.41,-215.52"/>
<polygon fill="midnightblue" stroke="midnightblue" points="232.49,-218.33 238.46,-209.58 228.34,-212.7 232.49,-218.33"/>
</g>
<!-- Node12&#45;&gt;Node8 -->
<g id="edge16" class="edge">
<title>Node12&#45;&gt;Node8</title>
<path fill="none" stroke="midnightblue" d="M317.22,-180.76C320.02,-180.16 322.8,-179.57 325.52,-179 383.11,-166.83 448.48,-153.14 496.59,-143.08"/>
<polygon fill="midnightblue" stroke="midnightblue" points="497.51,-146.47 506.58,-141 496.08,-139.62 497.51,-146.47"/>
</g>
<!-- Node12&#45;&gt;Node9 -->
<g id="edge15" class="edge">
<title>Node12&#45;&gt;Node9</title>
<path fill="none" stroke="midnightblue" d="M274.92,-179.48C304.69,-155.49 365.16,-106.77 395.8,-82.08"/>
<polygon fill="midnightblue" stroke="midnightblue" points="398.02,-84.79 403.61,-75.79 393.63,-79.34 398.02,-84.79"/>
</g>
<!-- Node14&#45;&gt;Node6 -->
<g id="edge19" class="edge">
<title>Node14&#45;&gt;Node6</title>
<path fill="none" stroke="midnightblue" d="M1463.76,-181.67C1458.95,-180.76 1454.15,-179.86 1449.52,-179 1357.25,-161.98 1331.19,-170.58 1241.52,-143 1239.64,-142.42 1237.72,-141.76 1235.81,-141.04"/>
<polygon fill="midnightblue" stroke="midnightblue" points="1237.05,-137.77 1226.48,-137.15 1234.36,-144.23 1237.05,-137.77"/>
</g>
<!-- Node14&#45;&gt;Node8 -->
<g id="edge22" class="edge">
<title>Node14&#45;&gt;Node8</title>
<path fill="none" stroke="midnightblue" d="M1463.97,-185.98C1442.99,-183.51 1419.23,-180.91 1397.52,-179 1115.88,-154.26 779.47,-137.84 636.42,-131.47"/>
<polygon fill="midnightblue" stroke="midnightblue" points="636.19,-127.96 626.05,-131.02 635.88,-134.95 636.19,-127.96"/>
</g>
<!-- Node14&#45;&gt;Node13 -->
<g id="edge23" class="edge">
<title>Node14&#45;&gt;Node13</title>
<path fill="none" stroke="midnightblue" d="M1570.33,-179.48C1603.59,-169.51 1648.42,-156.09 1683.72,-145.51"/>
<polygon fill="midnightblue" stroke="midnightblue" points="1684.83,-148.83 1693.41,-142.61 1682.82,-142.13 1684.83,-148.83"/>
</g>
<!-- Node15 -->
<g id="node16" class="node">
<title>Node15</title>
<g id="a_node16"><a xlink:title=" ">
<polygon fill="white" stroke="#bfbfbf" points="1250.02,-118 1250.02,-137 1327.02,-137 1327.02,-118 1250.02,-118"/>
<text text-anchor="middle" x="1288.52" y="-125" font-family="Helvetica,sans-Serif" font-size="10.00">Eigen/Dense</text>
</a>
</g>
</g>
<!-- Node14&#45;&gt;Node15 -->
<g id="edge20" class="edge">
<title>Node14&#45;&gt;Node15</title>
<path fill="none" stroke="midnightblue" d="M1469.8,-179.44C1432.36,-169.54 1381.3,-155.81 1336.52,-143 1333.15,-142.04 1329.66,-141.02 1326.16,-139.99"/>
<polygon fill="midnightblue" stroke="midnightblue" points="1326.98,-136.58 1316.39,-137.07 1324.98,-143.29 1326.98,-136.58"/>
</g>
<!-- Node16 -->
<g id="node17" class="node">
<title>Node16</title>
<g id="a_node17"><a xlink:href="constants_8h.html" target="_top" xlink:title=" ">
<polygon fill="white" stroke="black" points="1345.02,-118 1345.02,-137 1494.02,-137 1494.02,-118 1345.02,-118"/>
<text text-anchor="middle" x="1419.52" y="-125" font-family="Helvetica,sans-Serif" font-size="10.00">drake/common/constants.h</text>
</a>
</g>
</g>
<!-- Node14&#45;&gt;Node16 -->
<g id="edge21" class="edge">
<title>Node14&#45;&gt;Node16</title>
<path fill="none" stroke="midnightblue" d="M1500.95,-179.4C1483.51,-168.5 1459.48,-153.48 1442.05,-142.58"/>
<polygon fill="midnightblue" stroke="midnightblue" points="1443.46,-139.34 1433.13,-137.01 1439.75,-145.28 1443.46,-139.34"/>
</g>
<!-- Node17 -->
<g id="node18" class="node">
<title>Node17</title>
<g id="a_node18"><a xlink:href="fmt__eigen_8h.html" target="_top" xlink:title=" ">
<polygon fill="white" stroke="black" points="1512.02,-118 1512.02,-137 1663.02,-137 1663.02,-118 1512.02,-118"/>
<text text-anchor="middle" x="1587.52" y="-125" font-family="Helvetica,sans-Serif" font-size="10.00">drake/common/fmt_eigen.h</text>
</a>
</g>
</g>
<!-- Node14&#45;&gt;Node17 -->
<g id="edge24" class="edge">
<title>Node14&#45;&gt;Node17</title>
<path fill="none" stroke="midnightblue" d="M1537.4,-179.4C1547.48,-169.16 1561.13,-155.3 1571.64,-144.62"/>
<polygon fill="midnightblue" stroke="midnightblue" points="1574.43,-146.78 1578.96,-137.19 1569.44,-141.86 1574.43,-146.78"/>
</g>
<!-- Node17&#45;&gt;Node5 -->
<g id="edge25" class="edge">
<title>Node17&#45;&gt;Node5</title>
<path fill="none" stroke="midnightblue" d="M1605.52,-117.84C1621.3,-109.34 1643.66,-94.9 1656.52,-76 1665.84,-62.29 1670.06,-43.76 1671.95,-29.99"/>
<polygon fill="midnightblue" stroke="midnightblue" points="1675.47,-30.07 1673.07,-19.75 1668.51,-29.32 1675.47,-30.07"/>
</g>
<!-- Node17&#45;&gt;Node7 -->
<g id="edge27" class="edge">
<title>Node17&#45;&gt;Node7</title>
<path fill="none" stroke="midnightblue" d="M1540.94,-117.93C1528.79,-115.83 1515.68,-113.71 1503.52,-112 1369.66,-93.19 1210.51,-77.85 1134.41,-70.95"/>
<polygon fill="midnightblue" stroke="midnightblue" points="1134.5,-67.44 1124.23,-70.03 1133.87,-74.42 1134.5,-67.44"/>
</g>
<!-- Node18 -->
<g id="node19" class="node">
<title>Node18</title>
<g id="a_node19"><a xlink:title=" ">
<polygon fill="white" stroke="#bfbfbf" points="1463.02,-0.5 1463.02,-19.5 1536.02,-19.5 1536.02,-0.5 1463.02,-0.5"/>
<text text-anchor="middle" x="1499.52" y="-7.5" font-family="Helvetica,sans-Serif" font-size="10.00">string_view</text>
</a>
</g>
</g>
<!-- Node17&#45;&gt;Node18 -->
<g id="edge26" class="edge">
<title>Node17&#45;&gt;Node18</title>
<path fill="none" stroke="midnightblue" d="M1570.55,-117.98C1555.11,-109.39 1532.76,-94.73 1519.52,-76 1509.83,-62.29 1504.73,-43.76 1502.11,-29.99"/>
<polygon fill="midnightblue" stroke="midnightblue" points="1505.51,-29.07 1500.45,-19.75 1498.6,-30.19 1505.51,-29.07"/>
</g>
<!-- Node17&#45;&gt;Node19 -->
<g id="edge28" class="edge">
<title>Node17&#45;&gt;Node19</title>
<path fill="none" stroke="midnightblue" d="M1587.52,-117.98C1587.52,-109.58 1587.52,-96.48 1587.52,-85.66"/>
<polygon fill="midnightblue" stroke="midnightblue" points="1591.02,-85.51 1587.52,-75.51 1584.02,-85.51 1591.02,-85.51"/>
</g>
<!-- Node19&#45;&gt;Node5 -->
<g id="edge29" class="edge">
<title>Node19&#45;&gt;Node5</title>
<path fill="none" stroke="midnightblue" d="M1601.33,-56.32C1614.75,-47.9 1635.34,-34.97 1651.1,-25.07"/>
<polygon fill="midnightblue" stroke="midnightblue" points="1653.12,-27.94 1659.73,-19.65 1649.4,-22.01 1653.12,-27.94"/>
</g>
<!-- Node19&#45;&gt;Node18 -->
<g id="edge30" class="edge">
<title>Node19&#45;&gt;Node18</title>
<path fill="none" stroke="midnightblue" d="M1573.38,-56.32C1559.65,-47.9 1538.58,-34.97 1522.45,-25.07"/>
<polygon fill="midnightblue" stroke="midnightblue" points="1523.97,-21.9 1513.62,-19.65 1520.31,-27.87 1523.97,-21.9"/>
</g>
<!-- Node20 -->
<g id="node21" class="node">
<title>Node20</title>
<g id="a_node21"><a xlink:title=" ">
<polygon fill="white" stroke="#bfbfbf" points="1554.02,-0.5 1554.02,-19.5 1633.02,-19.5 1633.02,-0.5 1554.02,-0.5"/>
<text text-anchor="middle" x="1593.52" y="-7.5" font-family="Helvetica,sans-Serif" font-size="10.00">fmt/format.h</text>
</a>
</g>
</g>
<!-- Node19&#45;&gt;Node20 -->
<g id="edge31" class="edge">
<title>Node19&#45;&gt;Node20</title>
<path fill="none" stroke="midnightblue" d="M1588.51,-56.08C1589.3,-48.93 1590.45,-38.64 1591.44,-29.69"/>
<polygon fill="midnightblue" stroke="midnightblue" points="1594.92,-30.08 1592.54,-19.75 1587.96,-29.3 1594.92,-30.08"/>
</g>
<!-- Node21&#45;&gt;Node1 -->
<g id="edge37" class="edge">
<title>Node21&#45;&gt;Node1</title>
<path fill="none" stroke="midnightblue" d="M634.83,-252.44C576.07,-244.19 486.06,-229.79 409.52,-210 406.48,-209.21 403.34,-208.31 400.22,-207.35"/>
<polygon fill="midnightblue" stroke="midnightblue" points="401.01,-203.93 390.42,-204.14 398.84,-210.58 401.01,-203.93"/>
</g>
<!-- Node21&#45;&gt;Node4 -->
<g id="edge40" class="edge">
<title>Node21&#45;&gt;Node4</title>
<path fill="none" stroke="midnightblue" d="M652.09,-251.98C594.52,-240.95 498.66,-221.76 464.52,-210 462.9,-209.44 461.26,-208.82 459.61,-208.16"/>
<polygon fill="midnightblue" stroke="midnightblue" points="460.97,-204.93 450.41,-204.05 458.11,-211.32 460.97,-204.93"/>
</g>
<!-- Node21&#45;&gt;Node5 -->
<g id="edge41" class="edge">
<title>Node21&#45;&gt;Node5</title>
<path fill="none" stroke="midnightblue" d="M746.61,-251.99C781.46,-244.5 828.45,-231.38 865.52,-210 882.95,-199.95 883.44,-192.33 898.52,-179 962.6,-122.36 966.99,-87.48 1046.52,-56 1167,-8.31 1495.87,-41.02 1641.16,-19.72"/>
<polygon fill="midnightblue" stroke="midnightblue" points="1641.99,-23.13 1651.3,-18.09 1640.87,-16.22 1641.99,-23.13"/>
</g>
<!-- Node21&#45;&gt;Node6 -->
<g id="edge43" class="edge">
<title>Node21&#45;&gt;Node6</title>
<path fill="none" stroke="midnightblue" d="M737.18,-251.96C777.99,-242.84 843.24,-227.33 898.52,-210 935.69,-198.34 943.17,-190.11 980.52,-179 1049.33,-158.52 1132.02,-142.29 1176.8,-134.18"/>
<polygon fill="midnightblue" stroke="midnightblue" points="1177.59,-137.59 1186.81,-132.38 1176.35,-130.7 1177.59,-137.59"/>
</g>
<!-- Node21&#45;&gt;Node8 -->
<g id="edge45" class="edge">
<title>Node21&#45;&gt;Node8</title>
<path fill="none" stroke="midnightblue" d="M649.31,-251.96C606.68,-243.31 549.18,-228.57 535.52,-210 522.33,-192.08 534.5,-167.88 547.26,-150.51"/>
<polygon fill="midnightblue" stroke="midnightblue" points="550.05,-152.62 553.46,-142.59 544.54,-148.31 550.05,-152.62"/>
</g>
<!-- Node21&#45;&gt;Node9 -->
<g id="edge42" class="edge">
<title>Node21&#45;&gt;Node9</title>
<path fill="none" stroke="midnightblue" d="M658.8,-251.97C615.34,-241.9 548.09,-224.66 526.52,-210 477.3,-176.56 439.79,-114.74 423.47,-84.53"/>
<polygon fill="midnightblue" stroke="midnightblue" points="426.52,-82.8 418.76,-75.59 420.32,-86.07 426.52,-82.8"/>
</g>
<!-- Node21&#45;&gt;Node12 -->
<g id="edge46" class="edge">
<title>Node21&#45;&gt;Node12</title>
<path fill="none" stroke="midnightblue" d="M634.77,-253.44C562.74,-245.01 440.85,-229.75 327.1,-210.21"/>
<polygon fill="midnightblue" stroke="midnightblue" points="327.62,-206.74 317.17,-208.49 326.43,-213.64 327.62,-206.74"/>
</g>
<!-- Node22 -->
<g id="node23" class="node">
<title>Node22</title>
<g id="a_node23"><a xlink:title=" ">
<polygon fill="white" stroke="#bfbfbf" points="545.02,-185 545.02,-204 592.02,-204 592.02,-185 545.02,-185"/>
<text text-anchor="middle" x="568.52" y="-192" font-family="Helvetica,sans-Serif" font-size="10.00">cmath</text>
</a>
</g>
</g>
<!-- Node21&#45;&gt;Node22 -->
<g id="edge34" class="edge">
<title>Node21&#45;&gt;Node22</title>
<path fill="none" stroke="midnightblue" d="M680.39,-251.87C658.51,-240.84 620.42,-221.66 594.85,-208.77"/>
<polygon fill="midnightblue" stroke="midnightblue" points="596.22,-205.54 585.72,-204.17 593.07,-211.79 596.22,-205.54"/>
</g>
<!-- Node23 -->
<g id="node24" class="node">
<title>Node23</title>
<g id="a_node24"><a xlink:title=" ">
<polygon fill="white" stroke="#bfbfbf" points="989.02,-185 989.02,-204 1042.02,-204 1042.02,-185 989.02,-185"/>
<text text-anchor="middle" x="1015.52" y="-192" font-family="Helvetica,sans-Serif" font-size="10.00">cstddef</text>
</a>
</g>
</g>
<!-- Node21&#45;&gt;Node23 -->
<g id="edge35" class="edge">
<title>Node21&#45;&gt;Node23</title>
<path fill="none" stroke="midnightblue" d="M739.42,-251.94C802.1,-239.12 919.28,-215.17 978.8,-203.01"/>
<polygon fill="midnightblue" stroke="midnightblue" points="979.77,-206.38 988.87,-200.95 978.37,-199.52 979.77,-206.38"/>
</g>
<!-- Node24 -->
<g id="node25" class="node">
<title>Node24</title>
<g id="a_node25"><a xlink:title=" ">
<polygon fill="white" stroke="#bfbfbf" points="610.52,-185 610.52,-204 660.52,-204 660.52,-185 610.52,-185"/>
<text text-anchor="middle" x="635.52" y="-192" font-family="Helvetica,sans-Serif" font-size="10.00">cstdint</text>
</a>
</g>
</g>
<!-- Node21&#45;&gt;Node24 -->
<g id="edge36" class="edge">
<title>Node21&#45;&gt;Node24</title>
<path fill="none" stroke="midnightblue" d="M689.15,-251.73C679.39,-241.5 663.05,-224.36 650.96,-211.69"/>
<polygon fill="midnightblue" stroke="midnightblue" points="653.18,-208.95 643.74,-204.13 648.11,-213.78 653.18,-208.95"/>
</g>
<!-- Node25 -->
<g id="node26" class="node">
<title>Node25</title>
<g id="a_node26"><a xlink:title=" ">
<polygon fill="white" stroke="#bfbfbf" points="678.52,-185 678.52,-204 716.52,-204 716.52,-185 678.52,-185"/>
<text text-anchor="middle" x="697.52" y="-192" font-family="Helvetica,sans-Serif" font-size="10.00">map</text>
</a>
</g>
</g>
<!-- Node21&#45;&gt;Node25 -->
<g id="edge38" class="edge">
<title>Node21&#45;&gt;Node25</title>
<path fill="none" stroke="midnightblue" d="M697.52,-251.73C697.52,-242.18 697.52,-226.62 697.52,-214.28"/>
<polygon fill="midnightblue" stroke="midnightblue" points="701.02,-214.13 697.52,-204.13 694.02,-214.13 701.02,-214.13"/>
</g>
<!-- Node26 -->
<g id="node27" class="node">
<title>Node26</title>
<g id="a_node27"><a xlink:title=" ">
<polygon fill="white" stroke="#bfbfbf" points="734.52,-185 734.52,-204 790.52,-204 790.52,-185 734.52,-185"/>
<text text-anchor="middle" x="762.52" y="-192" font-family="Helvetica,sans-Serif" font-size="10.00">optional</text>
</a>
</g>
</g>
<!-- Node21&#45;&gt;Node26 -->
<g id="edge39" class="edge">
<title>Node21&#45;&gt;Node26</title>
<path fill="none" stroke="midnightblue" d="M706.28,-251.73C716.61,-241.4 733.98,-224.04 746.68,-211.33"/>
<polygon fill="midnightblue" stroke="midnightblue" points="749.29,-213.67 753.89,-204.13 744.34,-208.72 749.29,-213.67"/>
</g>
<!-- Node27 -->
<g id="node28" class="node">
<title>Node27</title>
<g id="a_node28"><a xlink:title=" ">
<polygon fill="white" stroke="#bfbfbf" points="809.02,-185 809.02,-204 856.02,-204 856.02,-185 809.02,-185"/>
<text text-anchor="middle" x="832.52" y="-192" font-family="Helvetica,sans-Serif" font-size="10.00">vector</text>
</a>
</g>
</g>
<!-- Node21&#45;&gt;Node27 -->
<g id="edge44" class="edge">
<title>Node21&#45;&gt;Node27</title>
<path fill="none" stroke="midnightblue" d="M715.44,-251.87C738.44,-240.8 778.54,-221.49 805.31,-208.6"/>
<polygon fill="midnightblue" stroke="midnightblue" points="807.02,-211.66 814.51,-204.17 803.99,-205.35 807.02,-211.66"/>
</g>
<!-- Node28&#45;&gt;Node2 -->
<g id="edge48" class="edge">
<title>Node28&#45;&gt;Node2</title>
<path fill="none" stroke="midnightblue" d="M1309.88,-313.45C1319.3,-305.11 1332.84,-291.59 1340.52,-277 1350.95,-257.15 1355.71,-231.6 1357.84,-214.45"/>
<polygon fill="midnightblue" stroke="midnightblue" points="1361.37,-214.4 1358.94,-204.09 1354.41,-213.66 1361.37,-214.4"/>
</g>
<!-- Node28&#45;&gt;Node7 -->
<g id="edge50" class="edge">
<title>Node28&#45;&gt;Node7</title>
<path fill="none" stroke="midnightblue" d="M1229.53,-313.47C1183.49,-306.34 1128.97,-294.49 1113.52,-277 1088.65,-248.86 1088.2,-131.5 1089.02,-85.56"/>
<polygon fill="midnightblue" stroke="midnightblue" points="1092.52,-85.59 1089.25,-75.51 1085.53,-85.43 1092.52,-85.59"/>
</g>
<!-- Node28&#45;&gt;Node8 -->
<g id="edge57" class="edge">
<title>Node28&#45;&gt;Node8</title>
<path fill="none" stroke="midnightblue" d="M1239.27,-313.48C1194.51,-306.23 1132.33,-294.24 1079.52,-277 980.07,-244.53 965.5,-209.75 865.52,-179 788.89,-155.43 697.64,-142.04 636.26,-135.05"/>
<polygon fill="midnightblue" stroke="midnightblue" points="636.62,-131.57 626.3,-133.94 635.85,-138.52 636.62,-131.57"/>
</g>
<!-- Node28&#45;&gt;Node13 -->
<g id="edge58" class="edge">
<title>Node28&#45;&gt;Node13</title>
<path fill="none" stroke="midnightblue" d="M1369.14,-319.37C1454.92,-315 1594.68,-303.9 1638.52,-277 1686.35,-247.64 1717.24,-186.48 1731.44,-152.53"/>
<polygon fill="midnightblue" stroke="midnightblue" points="1734.82,-153.51 1735.31,-142.93 1728.32,-150.89 1734.82,-153.51"/>
</g>
<!-- Node28&#45;&gt;Node14 -->
<g id="edge59" class="edge">
<title>Node28&#45;&gt;Node14</title>
<path fill="none" stroke="midnightblue" d="M1314.91,-313.31C1350.74,-293.07 1440.38,-242.45 1489.69,-214.6"/>
<polygon fill="midnightblue" stroke="midnightblue" points="1491.42,-217.65 1498.4,-209.68 1487.97,-211.55 1491.42,-217.65"/>
</g>
<!-- Node29 -->
<g id="node30" class="node">
<title>Node29</title>
<g id="a_node30"><a xlink:title=" ">
<polygon fill="white" stroke="#bfbfbf" points="1277.52,-252 1277.52,-271 1331.52,-271 1331.52,-252 1277.52,-252"/>
<text text-anchor="middle" x="1304.52" y="-259" font-family="Helvetica,sans-Serif" font-size="10.00">random</text>
</a>
</g>
</g>
<!-- Node28&#45;&gt;Node29 -->
<g id="edge49" class="edge">
<title>Node28&#45;&gt;Node29</title>
<path fill="none" stroke="midnightblue" d="M1300.23,-313.48C1300.94,-305.08 1302.04,-291.98 1302.95,-281.16"/>
<polygon fill="midnightblue" stroke="midnightblue" points="1306.45,-281.27 1303.8,-271.01 1299.48,-280.68 1306.45,-281.27"/>
</g>
<!-- Node30 -->
<g id="node31" class="node">
<title>Node30</title>
<g id="a_node31"><a xlink:href="copyable__unique__ptr_8h.html" target="_top" xlink:title=" ">
<polygon fill="white" stroke="black" points="1122.02,-246.5 1122.02,-276.5 1259.02,-276.5 1259.02,-246.5 1122.02,-246.5"/>
<text text-anchor="start" x="1130.02" y="-264.5" font-family="Helvetica,sans-Serif" font-size="10.00">drake/common/copyable</text>
<text text-anchor="middle" x="1190.52" y="-253.5" font-family="Helvetica,sans-Serif" font-size="10.00">_unique_ptr.h</text>
</a>
</g>
</g>
<!-- Node28&#45;&gt;Node30 -->
<g id="edge51" class="edge">
<title>Node28&#45;&gt;Node30</title>
<path fill="none" stroke="midnightblue" d="M1283.9,-313.48C1268.65,-305.15 1244.94,-292.21 1225.22,-281.45"/>
<polygon fill="midnightblue" stroke="midnightblue" points="1226.66,-278.24 1216.2,-276.52 1223.31,-284.39 1226.66,-278.24"/>
</g>
<!-- Node31 -->
<g id="node32" class="node">
<title>Node31</title>
<g id="a_node32"><a xlink:href="extract__double_8h.html" target="_top" xlink:title=" ">
<polygon fill="white" stroke="black" points="1502.02,-246.5 1502.02,-276.5 1629.02,-276.5 1629.02,-246.5 1502.02,-246.5"/>
<text text-anchor="start" x="1510.02" y="-264.5" font-family="Helvetica,sans-Serif" font-size="10.00">drake/common/extract</text>
<text text-anchor="middle" x="1565.52" y="-253.5" font-family="Helvetica,sans-Serif" font-size="10.00">_double.h</text>
</a>
</g>
</g>
<!-- Node28&#45;&gt;Node31 -->
<g id="edge60" class="edge">
<title>Node28&#45;&gt;Node31</title>
<path fill="none" stroke="midnightblue" d="M1337.63,-313.48C1378.03,-304.44 1442.81,-289.95 1492.99,-278.72"/>
<polygon fill="midnightblue" stroke="midnightblue" points="1493.83,-282.12 1502.82,-276.52 1492.3,-275.29 1493.83,-282.12"/>
</g>
<!-- Node30&#45;&gt;Node2 -->
<g id="edge53" class="edge">
<title>Node30&#45;&gt;Node2</title>
<path fill="none" stroke="midnightblue" d="M1227.19,-246.4C1257.23,-234.84 1299.31,-218.66 1327.89,-207.66"/>
<polygon fill="midnightblue" stroke="midnightblue" points="1329.32,-210.86 1337.4,-204.01 1326.81,-204.33 1329.32,-210.86"/>
</g>
<!-- Node30&#45;&gt;Node6 -->
<g id="edge54" class="edge">
<title>Node30&#45;&gt;Node6</title>
<path fill="none" stroke="midnightblue" d="M1192.84,-246.36C1194.49,-236.25 1196.71,-222.3 1198.52,-210 1201.68,-188.42 1204.99,-163.58 1207.14,-147.05"/>
<polygon fill="midnightblue" stroke="midnightblue" points="1210.61,-147.44 1208.42,-137.07 1203.67,-146.54 1210.61,-147.44"/>
</g>
<!-- Node30&#45;&gt;Node8 -->
<g id="edge55" class="edge">
<title>Node30&#45;&gt;Node8</title>
<path fill="none" stroke="midnightblue" d="M1172.42,-246.42C1147,-227.49 1098.56,-194.44 1051.52,-179 976.17,-154.28 751.36,-138.69 636.19,-132.11"/>
<polygon fill="midnightblue" stroke="midnightblue" points="636.26,-128.61 626.07,-131.54 635.86,-135.6 636.26,-128.61"/>
</g>
<!-- Node30&#45;&gt;Node19 -->
<g id="edge56" class="edge">
<title>Node30&#45;&gt;Node19</title>
<path fill="none" stroke="midnightblue" d="M1183.27,-246.07C1169.69,-216.75 1144.69,-149.76 1178.52,-112 1200.7,-87.24 1406.96,-74.69 1517.81,-69.69"/>
<polygon fill="midnightblue" stroke="midnightblue" points="1518.06,-73.18 1527.9,-69.24 1517.75,-66.19 1518.06,-73.18"/>
</g>
<!-- Node30&#45;&gt;Node23 -->
<g id="edge52" class="edge">
<title>Node30&#45;&gt;Node23</title>
<path fill="none" stroke="midnightblue" d="M1152.54,-246.4C1121.29,-234.79 1077.48,-218.51 1047.88,-207.52"/>
<polygon fill="midnightblue" stroke="midnightblue" points="1049.01,-204.21 1038.42,-204.01 1046.57,-210.77 1049.01,-204.21"/>
</g>
<!-- Node31&#45;&gt;Node14 -->
<g id="edge61" class="edge">
<title>Node31&#45;&gt;Node14</title>
<path fill="none" stroke="midnightblue" d="M1556.4,-246.4C1551.06,-238.13 1544.2,-227.51 1538.12,-218.1"/>
<polygon fill="midnightblue" stroke="midnightblue" points="1540.98,-216.08 1532.61,-209.58 1535.1,-219.88 1540.98,-216.08"/>
</g>
</g>
</svg>
