<?xml version="1.0" encoding="UTF-8" standalone="no"?>
<!DOCTYPE svg PUBLIC "-//W3C//DTD SVG 1.1//EN"
 "http://www.w3.org/Graphics/SVG/1.1/DTD/svg11.dtd">
<!-- Generated by graphviz version 2.43.0 (0)
 -->
<!-- Title: drake/systems/framework/framework_common.h Pages: 1 -->
<svg width="2379pt" height="364pt"
 viewBox="0.00 0.00 2379.49 364.13" xmlns="http://www.w3.org/2000/svg" xmlns:xlink="http://www.w3.org/1999/xlink">
<g id="graph0" class="graph" transform="scale(1 1) rotate(0) translate(4 360.13)">
<title>drake/systems/framework/framework_common.h</title>
<!-- Node1 -->
<g id="Node000001" class="node">
<title>Node1</title>
<g id="a_Node000001"><a xlink:title=" ">
<ellipse fill="#999999" stroke="#666666" cx="855.25" cy="-334.92" rx="101.65" ry="21.43"/>
<text text-anchor="start" x="791.25" y="-337.92" font-family="Helvetica,sans-Serif" font-size="10.00">drake/systems/framework</text>
<text text-anchor="middle" x="855.25" y="-326.92" font-family="Helvetica,sans-Serif" font-size="10.00">/framework_common.h</text>
</a>
</g>
</g>
<!-- Node2 -->
<g id="Node000002" class="node">
<title>Node2</title>
<g id="a_Node000002"><a xlink:title=" ">
<ellipse fill="#e0e0e0" stroke="#999999" cx="45.25" cy="-256.49" rx="45.01" ry="13.37"/>
<text text-anchor="middle" x="45.25" y="-253.99" font-family="Helvetica,sans-Serif" font-size="10.00">algorithm</text>
</a>
</g>
</g>
<!-- Node1&#45;&gt;Node2 -->
<g id="edge1_Node000001_Node000002" class="edge">
<title>Node1&#45;&gt;Node2</title>
<g id="a_edge1_Node000001_Node000002"><a xlink:title=" ">
<path fill="none" stroke="#63b8ff" d="M753.3,-334.48C607.8,-333.44 332.87,-324.62 104.25,-277.71 96.28,-276.07 87.89,-273.65 80.03,-271.05"/>
<polygon fill="#63b8ff" stroke="#63b8ff" points="81.01,-267.68 70.42,-267.7 78.71,-274.29 81.01,-267.68"/>
</a>
</g>
</g>
<!-- Node3 -->
<g id="Node000003" class="node">
<title>Node3</title>
<g id="a_Node000003"><a xlink:title=" ">
<ellipse fill="#e0e0e0" stroke="#999999" cx="1877.25" cy="-99.64" rx="41.02" ry="13.37"/>
<text text-anchor="middle" x="1877.25" y="-97.14" font-family="Helvetica,sans-Serif" font-size="10.00">memory</text>
</a>
</g>
</g>
<!-- Node1&#45;&gt;Node3 -->
<g id="edge2_Node000001_Node000003" class="edge">
<title>Node1&#45;&gt;Node3</title>
<g id="a_edge2_Node000001_Node000003"><a xlink:title=" ">
<path fill="none" stroke="#63b8ff" d="M956.63,-332.66C1276.54,-327.63 2248.94,-303.78 2339.25,-199.28 2351.59,-185.01 2351.99,-170.75 2339.25,-156.85 2277.16,-89.1 2016.62,-142.31 1927.25,-120.85 1921.04,-119.36 1914.59,-117.23 1908.46,-114.9"/>
<polygon fill="#63b8ff" stroke="#63b8ff" points="1909.77,-111.66 1899.19,-111.15 1907.15,-118.15 1909.77,-111.66"/>
</a>
</g>
</g>
<!-- Node4 -->
<g id="Node000004" class="node">
<title>Node4</title>
<g id="a_Node000004"><a xlink:title=" ">
<ellipse fill="#e0e0e0" stroke="#999999" cx="372.25" cy="-99.64" rx="39.7" ry="13.37"/>
<text text-anchor="middle" x="372.25" y="-97.14" font-family="Helvetica,sans-Serif" font-size="10.00">optional</text>
</a>
</g>
</g>
<!-- Node1&#45;&gt;Node4 -->
<g id="edge3_Node000001_Node000004" class="edge">
<title>Node1&#45;&gt;Node4</title>
<g id="a_edge3_Node000001_Node000004"><a xlink:title=" ">
<path fill="none" stroke="#63b8ff" d="M755.62,-330.47C693.54,-324.81 613.69,-310.93 550.25,-277.71 476.26,-238.95 413.3,-158.99 386.32,-121.24"/>
<polygon fill="#63b8ff" stroke="#63b8ff" points="389.15,-119.18 380.54,-113.02 383.43,-123.21 389.15,-119.18"/>
</a>
</g>
</g>
<!-- Node5 -->
<g id="Node000005" class="node">
<title>Node5</title>
<g id="a_Node000005"><a xlink:title=" ">
<ellipse fill="#e0e0e0" stroke="#999999" cx="753.25" cy="-21.21" rx="31.23" ry="13.37"/>
<text text-anchor="middle" x="753.25" y="-18.71" font-family="Helvetica,sans-Serif" font-size="10.00">string</text>
</a>
</g>
</g>
<!-- Node1&#45;&gt;Node5 -->
<g id="edge4_Node000001_Node000005" class="edge">
<title>Node1&#45;&gt;Node5</title>
<g id="a_edge4_Node000001_Node000005"><a xlink:title=" ">
<path fill="none" stroke="#63b8ff" d="M761.23,-326.68C685.73,-319.19 577.62,-304.65 486.25,-277.71 323.14,-229.6 229.62,-263.64 137.25,-120.85 127.01,-105.02 124.38,-92.2 137.25,-78.43 177.63,-35.22 609.79,-51.3 668.25,-42.43 684.83,-39.91 702.93,-35.8 718.15,-31.94"/>
<polygon fill="#63b8ff" stroke="#63b8ff" points="719.38,-35.24 728.18,-29.33 717.62,-28.47 719.38,-35.24"/>
</a>
</g>
</g>
<!-- Node6 -->
<g id="Node000006" class="node">
<title>Node6</title>
<g id="a_Node000006"><a xlink:title=" ">
<ellipse fill="#e0e0e0" stroke="#999999" cx="1789.25" cy="-21.21" rx="31.64" ry="13.37"/>
<text text-anchor="middle" x="1789.25" y="-18.71" font-family="Helvetica,sans-Serif" font-size="10.00">utility</text>
</a>
</g>
</g>
<!-- Node1&#45;&gt;Node6 -->
<g id="edge5_Node000001_Node000006" class="edge">
<title>Node1&#45;&gt;Node6</title>
<g id="a_edge5_Node000001_Node000006"><a xlink:title=" ">
<path fill="none" stroke="#63b8ff" d="M957.09,-334.09C1223.52,-333.81 1936.38,-328.2 2166.25,-277.71 2255.88,-258.02 2306.15,-275.5 2357.25,-199.28 2391.57,-148.09 2343.8,-107.12 2289.25,-78.43 2249,-57.25 1943.28,-33.32 1830.7,-25.14"/>
<polygon fill="#63b8ff" stroke="#63b8ff" points="1830.65,-21.62 1820.42,-24.4 1830.15,-28.61 1830.65,-21.62"/>
</a>
</g>
</g>
<!-- Node7 -->
<g id="Node000007" class="node">
<title>Node7</title>
<g id="a_Node000007"><a xlink:title=" ">
<ellipse fill="#e0e0e0" stroke="#999999" cx="855.25" cy="-256.49" rx="36.12" ry="13.37"/>
<text text-anchor="middle" x="855.25" y="-253.99" font-family="Helvetica,sans-Serif" font-size="10.00">variant</text>
</a>
</g>
</g>
<!-- Node1&#45;&gt;Node7 -->
<g id="edge6_Node000001_Node000007" class="edge">
<title>Node1&#45;&gt;Node7</title>
<g id="a_edge6_Node000001_Node000007"><a xlink:title=" ">
<path fill="none" stroke="#63b8ff" d="M855.25,-313.44C855.25,-303.2 855.25,-290.78 855.25,-280.24"/>
<polygon fill="#63b8ff" stroke="#63b8ff" points="858.75,-280.12 855.25,-270.12 851.75,-280.12 858.75,-280.12"/>
</a>
</g>
</g>
<!-- Node8 -->
<g id="Node000008" class="node">
<title>Node8</title>
<g id="a_Node000008"><a xlink:title=" ">
<ellipse fill="#e0e0e0" stroke="#999999" cx="1519.25" cy="-99.64" rx="33.47" ry="13.37"/>
<text text-anchor="middle" x="1519.25" y="-97.14" font-family="Helvetica,sans-Serif" font-size="10.00">vector</text>
</a>
</g>
</g>
<!-- Node1&#45;&gt;Node8 -->
<g id="edge7_Node000001_Node000008" class="edge">
<title>Node1&#45;&gt;Node8</title>
<g id="a_edge7_Node000001_Node000008"><a xlink:title=" ">
<path fill="none" stroke="#63b8ff" d="M933.74,-321.37C986.15,-311.94 1056.21,-297.28 1116.25,-277.71 1242.03,-236.71 1267.03,-209.79 1388.25,-156.85 1422.24,-142.01 1461.33,-125.28 1487.9,-113.96"/>
<polygon fill="#63b8ff" stroke="#63b8ff" points="1489.6,-117.04 1497.43,-109.9 1486.86,-110.6 1489.6,-117.04"/>
</a>
</g>
</g>
<!-- Node9 -->
<g id="Node000009" class="node">
<title>Node9</title>
<g id="a_Node000009"><a xlink:href="drake__assert_8h.html" target="_top" xlink:title="Provides Drake&#39;s assertion mechanics.">
<ellipse fill="white" stroke="#666666" cx="941.25" cy="-99.64" rx="84.29" ry="21.43"/>
<text text-anchor="start" x="889.75" y="-102.64" font-family="Helvetica,sans-Serif" font-size="10.00">drake/common/drake</text>
<text text-anchor="middle" x="941.25" y="-91.64" font-family="Helvetica,sans-Serif" font-size="10.00">_assert.h</text>
</a>
</g>
</g>
<!-- Node1&#45;&gt;Node9 -->
<g id="edge8_Node000001_Node000009" class="edge">
<title>Node1&#45;&gt;Node9</title>
<g id="a_edge8_Node000001_Node000009"><a xlink:title=" ">
<path fill="none" stroke="#63b8ff" d="M833.91,-314.15C824.75,-304.21 815.06,-291.39 810.25,-277.71 804.01,-259.91 803.16,-252.75 810.25,-235.28 829.13,-188.82 872.59,-149.6 904.29,-125.68"/>
<polygon fill="#63b8ff" stroke="#63b8ff" points="906.51,-128.39 912.48,-119.64 902.36,-122.76 906.51,-128.39"/>
</a>
</g>
</g>
<!-- Node13 -->
<g id="Node000013" class="node">
<title>Node13</title>
<g id="a_Node000013"><a xlink:href="identifier_8h.html" target="_top" xlink:title=" ">
<ellipse fill="white" stroke="#666666" cx="661.25" cy="-256.49" rx="101.65" ry="13.37"/>
<text text-anchor="middle" x="661.25" y="-253.99" font-family="Helvetica,sans-Serif" font-size="10.00">drake/common/identifier.h</text>
</a>
</g>
</g>
<!-- Node1&#45;&gt;Node13 -->
<g id="edge14_Node000001_Node000013" class="edge">
<title>Node1&#45;&gt;Node13</title>
<g id="a_edge14_Node000001_Node000013"><a xlink:title=" ">
<path fill="none" stroke="#63b8ff" d="M809.28,-315.81C776.28,-302.81 732.26,-285.47 700.82,-273.08"/>
<polygon fill="#63b8ff" stroke="#63b8ff" points="702.08,-269.81 691.5,-269.41 699.52,-276.33 702.08,-269.81"/>
</a>
</g>
</g>
<!-- Node27 -->
<g id="Node000027" class="node">
<title>Node27</title>
<g id="a_Node000027"><a xlink:href="type__safe__index_8h.html" target="_top" xlink:title=" ">
<ellipse fill="white" stroke="#666666" cx="1008.25" cy="-256.49" rx="98.99" ry="21.43"/>
<text text-anchor="start" x="946.25" y="-259.49" font-family="Helvetica,sans-Serif" font-size="10.00">drake/common/type_safe</text>
<text text-anchor="middle" x="1008.25" y="-248.49" font-family="Helvetica,sans-Serif" font-size="10.00">_index.h</text>
</a>
</g>
</g>
<!-- Node1&#45;&gt;Node27 -->
<g id="edge42_Node000001_Node000027" class="edge">
<title>Node1&#45;&gt;Node27</title>
<g id="a_edge42_Node000001_Node000027"><a xlink:title=" ">
<path fill="none" stroke="#63b8ff" d="M893.08,-315.03C913.83,-304.66 939.73,-291.72 961.71,-280.74"/>
<polygon fill="#63b8ff" stroke="#63b8ff" points="963.49,-283.77 970.87,-276.17 960.36,-277.5 963.49,-283.77"/>
</a>
</g>
</g>
<!-- Node30 -->
<g id="Node000030" class="node">
<title>Node30</title>
<g id="a_Node000030"><a xlink:href="value_8h.html" target="_top" xlink:title=" ">
<ellipse fill="white" stroke="#666666" cx="1703.25" cy="-256.49" rx="90.52" ry="13.37"/>
<text text-anchor="middle" x="1703.25" y="-253.99" font-family="Helvetica,sans-Serif" font-size="10.00">drake/common/value.h</text>
</a>
</g>
</g>
<!-- Node1&#45;&gt;Node30 -->
<g id="edge49_Node000001_Node000030" class="edge">
<title>Node1&#45;&gt;Node30</title>
<g id="a_edge49_Node000001_Node000030"><a xlink:title=" ">
<path fill="none" stroke="#63b8ff" d="M947.22,-325.63C1112.73,-310.71 1458.43,-279.56 1618.53,-265.13"/>
<polygon fill="#63b8ff" stroke="#63b8ff" points="1619.16,-268.59 1628.8,-264.2 1618.53,-261.61 1619.16,-268.59"/>
</a>
</g>
</g>
<!-- Node9&#45;&gt;Node5 -->
<g id="edge10_Node000009_Node000005" class="edge">
<title>Node9&#45;&gt;Node5</title>
<g id="a_edge10_Node000009_Node000005"><a xlink:title=" ">
<path fill="none" stroke="#63b8ff" d="M898.59,-81.3C863.79,-67.15 815.45,-47.5 784.26,-34.82"/>
<polygon fill="#63b8ff" stroke="#63b8ff" points="785.35,-31.48 774.77,-30.96 782.71,-37.97 785.35,-31.48"/>
</a>
</g>
</g>
<!-- Node9&#45;&gt;Node6 -->
<g id="edge13_Node000009_Node000006" class="edge">
<title>Node9&#45;&gt;Node6</title>
<g id="a_edge13_Node000009_Node000006"><a xlink:title=" ">
<path fill="none" stroke="#63b8ff" d="M1000.04,-84.37C1011.34,-82.06 1023.12,-79.93 1034.25,-78.43 1328.91,-38.73 1407.89,-84.23 1702.25,-42.43 1719.38,-39.99 1738.1,-35.84 1753.78,-31.93"/>
<polygon fill="#63b8ff" stroke="#63b8ff" points="1754.77,-35.29 1763.59,-29.42 1753.04,-28.51 1754.77,-35.29"/>
</a>
</g>
</g>
<!-- Node10 -->
<g id="Node000010" class="node">
<title>Node10</title>
<g id="a_Node000010"><a xlink:title=" ">
<ellipse fill="#e0e0e0" stroke="#999999" cx="980.25" cy="-21.21" rx="29.9" ry="13.37"/>
<text text-anchor="middle" x="980.25" y="-18.71" font-family="Helvetica,sans-Serif" font-size="10.00">array</text>
</a>
</g>
</g>
<!-- Node9&#45;&gt;Node10 -->
<g id="edge9_Node000009_Node000010" class="edge">
<title>Node9&#45;&gt;Node10</title>
<g id="a_edge9_Node000009_Node000010"><a xlink:title=" ">
<path fill="none" stroke="#63b8ff" d="M951.5,-78.56C957.02,-67.75 963.82,-54.42 969.42,-43.44"/>
<polygon fill="#63b8ff" stroke="#63b8ff" points="972.55,-45.02 973.98,-34.52 966.31,-41.84 972.55,-45.02"/>
</a>
</g>
</g>
<!-- Node11 -->
<g id="Node000011" class="node">
<title>Node11</title>
<g id="a_Node000011"><a xlink:title=" ">
<ellipse fill="#e0e0e0" stroke="#999999" cx="903.25" cy="-21.21" rx="28.98" ry="13.37"/>
<text text-anchor="middle" x="903.25" y="-18.71" font-family="Helvetica,sans-Serif" font-size="10.00">tuple</text>
</a>
</g>
</g>
<!-- Node9&#45;&gt;Node11 -->
<g id="edge11_Node000009_Node000011" class="edge">
<title>Node9&#45;&gt;Node11</title>
<g id="a_edge11_Node000009_Node000011"><a xlink:title=" ">
<path fill="none" stroke="#63b8ff" d="M931.27,-78.56C925.95,-67.86 919.4,-54.69 913.98,-43.77"/>
<polygon fill="#63b8ff" stroke="#63b8ff" points="916.96,-41.91 909.37,-34.52 910.69,-45.03 916.96,-41.91"/>
</a>
</g>
</g>
<!-- Node12 -->
<g id="Node000012" class="node">
<title>Node12</title>
<g id="a_Node000012"><a xlink:title=" ">
<ellipse fill="#e0e0e0" stroke="#999999" cx="1298.25" cy="-21.21" rx="48.58" ry="13.37"/>
<text text-anchor="middle" x="1298.25" y="-18.71" font-family="Helvetica,sans-Serif" font-size="10.00">type_traits</text>
</a>
</g>
</g>
<!-- Node9&#45;&gt;Node12 -->
<g id="edge12_Node000009_Node000012" class="edge">
<title>Node9&#45;&gt;Node12</title>
<g id="a_edge12_Node000009_Node000012"><a xlink:title=" ">
<path fill="none" stroke="#63b8ff" d="M1003.03,-85.18C1013.45,-82.91 1024.16,-80.6 1034.25,-78.43 1110.06,-62.12 1198.17,-43.41 1251,-32.21"/>
<polygon fill="#63b8ff" stroke="#63b8ff" points="1252.02,-35.57 1261.08,-30.08 1250.57,-28.73 1252.02,-35.57"/>
</a>
</g>
</g>
<!-- Node13&#45;&gt;Node5 -->
<g id="edge16_Node000013_Node000005" class="edge">
<title>Node13&#45;&gt;Node5</title>
<g id="a_edge16_Node000013_Node000005"><a xlink:title=" ">
<path fill="none" stroke="#63b8ff" d="M670.25,-243.05C677.94,-231.98 688.9,-215.13 696.25,-199.28 721.02,-145.88 739.41,-78.76 747.96,-44.52"/>
<polygon fill="#63b8ff" stroke="#63b8ff" points="751.4,-45.17 750.38,-34.63 744.6,-43.51 751.4,-45.17"/>
</a>
</g>
</g>
<!-- Node13&#45;&gt;Node6 -->
<g id="edge17_Node000013_Node000006" class="edge">
<title>Node13&#45;&gt;Node6</title>
<g id="a_edge17_Node000013_Node000006"><a xlink:title=" ">
<path fill="none" stroke="#63b8ff" d="M725.33,-245.97C751.61,-242.28 782.35,-238.25 810.25,-235.28 1017.26,-213.28 1073.37,-241.31 1277.25,-199.28 1334.3,-187.52 1345.2,-172.7 1401.25,-156.85 1471.4,-137.03 1491.95,-143.42 1561.25,-120.85 1635.25,-96.76 1718.21,-57.62 1760.73,-36.62"/>
<polygon fill="#63b8ff" stroke="#63b8ff" points="1762.51,-39.64 1769.91,-32.06 1759.4,-33.38 1762.51,-39.64"/>
</a>
</g>
</g>
<!-- Node13&#45;&gt;Node9 -->
<g id="edge18_Node000013_Node000009" class="edge">
<title>Node13&#45;&gt;Node9</title>
<g id="a_edge18_Node000013_Node000009"><a xlink:title=" ">
<path fill="none" stroke="#63b8ff" d="M676.5,-243.13C690.36,-231.84 711.33,-214.61 729.25,-199.28 750.9,-180.78 752.65,-171.17 777.25,-156.85 806.6,-139.78 841.92,-126.84 872.26,-117.7"/>
<polygon fill="#63b8ff" stroke="#63b8ff" points="873.31,-121.04 881.92,-114.87 871.34,-114.32 873.31,-121.04"/>
</a>
</g>
</g>
<!-- Node14 -->
<g id="Node000014" class="node">
<title>Node14</title>
<g id="a_Node000014"><a xlink:title=" ">
<ellipse fill="#e0e0e0" stroke="#999999" cx="465.25" cy="-99.64" rx="35.21" ry="13.37"/>
<text text-anchor="middle" x="465.25" y="-97.14" font-family="Helvetica,sans-Serif" font-size="10.00">cstdint</text>
</a>
</g>
</g>
<!-- Node13&#45;&gt;Node14 -->
<g id="edge15_Node000013_Node000014" class="edge">
<title>Node13&#45;&gt;Node14</title>
<g id="a_edge15_Node000013_Node000014"><a xlink:title=" ">
<path fill="none" stroke="#63b8ff" d="M644.95,-243.08C630.11,-231.75 607.62,-214.5 588.25,-199.28 552.83,-171.44 512.11,-138.62 487.55,-118.74"/>
<polygon fill="#63b8ff" stroke="#63b8ff" points="489.55,-115.85 479.57,-112.27 485.14,-121.29 489.55,-115.85"/>
</a>
</g>
</g>
<!-- Node15 -->
<g id="Node000015" class="node">
<title>Node15</title>
<g id="a_Node000015"><a xlink:href="drake__copyable_8h.html" target="_top" xlink:title="Provides careful macros to selectively enable or disable the special member functions for copy&#45;constr...">
<ellipse fill="white" stroke="#666666" cx="2172.25" cy="-21.21" rx="84.29" ry="21.43"/>
<text text-anchor="start" x="2120.75" y="-24.21" font-family="Helvetica,sans-Serif" font-size="10.00">drake/common/drake</text>
<text text-anchor="middle" x="2172.25" y="-13.21" font-family="Helvetica,sans-Serif" font-size="10.00">_copyable.h</text>
</a>
</g>
</g>
<!-- Node13&#45;&gt;Node15 -->
<g id="edge19_Node000013_Node000015" class="edge">
<title>Node13&#45;&gt;Node15</title>
<g id="a_edge19_Node000013_Node000015"><a xlink:title=" ">
<path fill="none" stroke="#63b8ff" d="M722.35,-245.69C749.24,-241.77 781.24,-237.63 810.25,-235.28 884.65,-229.25 2098.41,-249.9 2153.25,-199.28 2193.19,-162.42 2187.24,-92.69 2179.59,-52.61"/>
<polygon fill="#63b8ff" stroke="#63b8ff" points="2182.98,-51.71 2177.53,-42.62 2176.12,-53.12 2182.98,-51.71"/>
</a>
</g>
</g>
<!-- Node16 -->
<g id="Node000016" class="node">
<title>Node16</title>
<g id="a_Node000016"><a xlink:href="drake__deprecated_8h.html" target="_top" xlink:title="Provides a portable macro for use in generating compile&#45;time warnings for use of code that is permitt...">
<ellipse fill="white" stroke="#666666" cx="230.25" cy="-99.64" rx="84.29" ry="21.43"/>
<text text-anchor="start" x="178.75" y="-102.64" font-family="Helvetica,sans-Serif" font-size="10.00">drake/common/drake</text>
<text text-anchor="middle" x="230.25" y="-91.64" font-family="Helvetica,sans-Serif" font-size="10.00">_deprecated.h</text>
</a>
</g>
</g>
<!-- Node13&#45;&gt;Node16 -->
<g id="edge20_Node000013_Node000016" class="edge">
<title>Node13&#45;&gt;Node16</title>
<g id="a_edge20_Node000013_Node000016"><a xlink:title=" ">
<path fill="none" stroke="#63b8ff" d="M628.51,-243.73C555.34,-217.44 377.9,-153.69 286.59,-120.88"/>
<polygon fill="#63b8ff" stroke="#63b8ff" points="287.56,-117.51 276.96,-117.42 285.19,-124.1 287.56,-117.51"/>
</a>
</g>
</g>
<!-- Node18 -->
<g id="Node000018" class="node">
<title>Node18</title>
<g id="a_Node000018"><a xlink:href="fmt_8h.html" target="_top" xlink:title=" ">
<ellipse fill="white" stroke="#666666" cx="603.25" cy="-99.64" rx="84.29" ry="13.37"/>
<text text-anchor="middle" x="603.25" y="-97.14" font-family="Helvetica,sans-Serif" font-size="10.00">drake/common/fmt.h</text>
</a>
</g>
</g>
<!-- Node13&#45;&gt;Node18 -->
<g id="edge23_Node000013_Node000018" class="edge">
<title>Node13&#45;&gt;Node18</title>
<g id="a_edge23_Node000013_Node000018"><a xlink:title=" ">
<path fill="none" stroke="#63b8ff" d="M639.96,-243.28C625.22,-233.49 606.76,-218.28 598.25,-199.28 587.33,-174.89 591.56,-143.64 596.54,-122.92"/>
<polygon fill="#63b8ff" stroke="#63b8ff" points="599.95,-123.71 599.14,-113.14 593.19,-121.91 599.95,-123.71"/>
</a>
</g>
</g>
<!-- Node20 -->
<g id="Node000020" class="node">
<title>Node20</title>
<g id="a_Node000020"><a xlink:href="hash_8h.html" target="_top" xlink:title=" ">
<ellipse fill="white" stroke="#666666" cx="1180.25" cy="-178.07" rx="88.28" ry="13.37"/>
<text text-anchor="middle" x="1180.25" y="-175.57" font-family="Helvetica,sans-Serif" font-size="10.00">drake/common/hash.h</text>
</a>
</g>
</g>
<!-- Node13&#45;&gt;Node20 -->
<g id="edge28_Node000013_Node000020" class="edge">
<title>Node13&#45;&gt;Node20</title>
<g id="a_edge28_Node000013_Node000020"><a xlink:title=" ">
<path fill="none" stroke="#63b8ff" d="M725.41,-246.04C823.09,-231.66 1008.39,-204.37 1109.72,-189.45"/>
<polygon fill="#63b8ff" stroke="#63b8ff" points="1110.47,-192.88 1119.86,-187.96 1109.45,-185.95 1110.47,-192.88"/>
</a>
</g>
</g>
<!-- Node26 -->
<g id="Node000026" class="node">
<title>Node26</title>
<g id="a_Node000026"><a xlink:title=" ">
<ellipse fill="#e0e0e0" stroke="#999999" cx="647.25" cy="-178.07" rx="40.11" ry="13.37"/>
<text text-anchor="middle" x="647.25" y="-175.57" font-family="Helvetica,sans-Serif" font-size="10.00">ostream</text>
</a>
</g>
</g>
<!-- Node13&#45;&gt;Node26 -->
<g id="edge41_Node000013_Node000026" class="edge">
<title>Node13&#45;&gt;Node26</title>
<g id="a_edge41_Node000013_Node000026"><a xlink:title=" ">
<path fill="none" stroke="#63b8ff" d="M658.94,-242.87C656.9,-231.7 653.86,-215.12 651.39,-201.67"/>
<polygon fill="#63b8ff" stroke="#63b8ff" points="654.81,-200.91 649.57,-191.71 647.93,-202.17 654.81,-200.91"/>
</a>
</g>
</g>
<!-- Node16&#45;&gt;Node5 -->
<g id="edge21_Node000016_Node000005" class="edge">
<title>Node16&#45;&gt;Node5</title>
<g id="a_edge21_Node000016_Node000005"><a xlink:title=" ">
<path fill="none" stroke="#63b8ff" d="M290.1,-84.62C301.09,-82.33 312.49,-80.15 323.25,-78.43 475.48,-54.02 516.28,-68.31 668.25,-42.43 684.66,-39.63 702.61,-35.52 717.77,-31.74"/>
<polygon fill="#63b8ff" stroke="#63b8ff" points="718.94,-35.05 727.77,-29.19 717.21,-28.27 718.94,-35.05"/>
</a>
</g>
</g>
<!-- Node17 -->
<g id="Node000017" class="node">
<title>Node17</title>
<g id="a_Node000017"><a xlink:title=" ">
<ellipse fill="#e0e0e0" stroke="#999999" cx="354.25" cy="-21.21" rx="51.74" ry="13.37"/>
<text text-anchor="middle" x="354.25" y="-18.71" font-family="Helvetica,sans-Serif" font-size="10.00">string_view</text>
</a>
</g>
</g>
<!-- Node16&#45;&gt;Node17 -->
<g id="edge22_Node000016_Node000017" class="edge">
<title>Node16&#45;&gt;Node17</title>
<g id="a_edge22_Node000016_Node000017"><a xlink:title=" ">
<path fill="none" stroke="#63b8ff" d="M260.91,-79.75C281.09,-67.31 307.29,-51.16 326.79,-39.14"/>
<polygon fill="#63b8ff" stroke="#63b8ff" points="328.83,-42 335.5,-33.77 325.15,-36.04 328.83,-42"/>
</a>
</g>
</g>
<!-- Node18&#45;&gt;Node5 -->
<g id="edge24_Node000018_Node000005" class="edge">
<title>Node18&#45;&gt;Node5</title>
<g id="a_edge24_Node000018_Node000005"><a xlink:title=" ">
<path fill="none" stroke="#63b8ff" d="M626.69,-86.7C653.34,-73.12 696.83,-50.96 725.24,-36.48"/>
<polygon fill="#63b8ff" stroke="#63b8ff" points="726.94,-39.55 734.26,-31.89 723.76,-33.31 726.94,-39.55"/>
</a>
</g>
</g>
<!-- Node18&#45;&gt;Node12 -->
<g id="edge26_Node000018_Node000012" class="edge">
<title>Node18&#45;&gt;Node12</title>
<g id="a_edge26_Node000018_Node000012"><a xlink:title=" ">
<path fill="none" stroke="#63b8ff" d="M669.58,-91.35C806.54,-76.29 1118.3,-42 1244.11,-28.17"/>
<polygon fill="#63b8ff" stroke="#63b8ff" points="1244.71,-31.62 1254.27,-27.05 1243.95,-24.66 1244.71,-31.62"/>
</a>
</g>
</g>
<!-- Node18&#45;&gt;Node17 -->
<g id="edge25_Node000018_Node000017" class="edge">
<title>Node18&#45;&gt;Node17</title>
<g id="a_edge25_Node000018_Node000017"><a xlink:title=" ">
<path fill="none" stroke="#63b8ff" d="M566.78,-87.44C521.25,-73.47 443.58,-49.63 395.8,-34.97"/>
<polygon fill="#63b8ff" stroke="#63b8ff" points="396.67,-31.57 386.08,-31.98 394.62,-38.26 396.67,-31.57"/>
</a>
</g>
</g>
<!-- Node19 -->
<g id="Node000019" class="node">
<title>Node19</title>
<g id="a_Node000019"><a xlink:title=" ">
<ellipse fill="#e0e0e0" stroke="#999999" cx="603.25" cy="-21.21" rx="55.72" ry="13.37"/>
<text text-anchor="middle" x="603.25" y="-18.71" font-family="Helvetica,sans-Serif" font-size="10.00">fmt/format.h</text>
</a>
</g>
</g>
<!-- Node18&#45;&gt;Node19 -->
<g id="edge27_Node000018_Node000019" class="edge">
<title>Node18&#45;&gt;Node19</title>
<g id="a_edge27_Node000018_Node000019"><a xlink:title=" ">
<path fill="none" stroke="#63b8ff" d="M603.25,-86.02C603.25,-74.96 603.25,-58.6 603.25,-45.21"/>
<polygon fill="#63b8ff" stroke="#63b8ff" points="606.75,-44.85 603.25,-34.85 599.75,-44.85 606.75,-44.85"/>
</a>
</g>
</g>
<!-- Node20&#45;&gt;Node4 -->
<g id="edge34_Node000020_Node000004" class="edge">
<title>Node20&#45;&gt;Node4</title>
<g id="a_edge34_Node000020_Node000004"><a xlink:title=" ">
<path fill="none" stroke="#63b8ff" d="M1119.21,-168.28C1089.93,-164.32 1054.33,-159.86 1022.25,-156.85 755.83,-131.86 682.07,-180.69 421.25,-120.85 415.16,-119.46 408.86,-117.38 402.88,-115.08"/>
<polygon fill="#63b8ff" stroke="#63b8ff" points="403.8,-111.67 393.22,-111.08 401.12,-118.14 403.8,-111.67"/>
</a>
</g>
</g>
<!-- Node20&#45;&gt;Node5 -->
<g id="edge36_Node000020_Node000005" class="edge">
<title>Node20&#45;&gt;Node5</title>
<g id="a_edge36_Node000020_Node000005"><a xlink:title=" ">
<path fill="none" stroke="#63b8ff" d="M1122.97,-167.83C1029.6,-152.72 854.31,-124.05 848.25,-120.85 843.47,-118.33 797.46,-69.52 771.27,-41.53"/>
<polygon fill="#63b8ff" stroke="#63b8ff" points="773.53,-38.83 764.15,-33.91 768.42,-43.61 773.53,-38.83"/>
</a>
</g>
</g>
<!-- Node20&#45;&gt;Node6 -->
<g id="edge38_Node000020_Node000006" class="edge">
<title>Node20&#45;&gt;Node6</title>
<g id="a_edge38_Node000020_Node000006"><a xlink:title=" ">
<path fill="none" stroke="#63b8ff" d="M1232.73,-167.23C1302.37,-153.92 1418.63,-130.7 1436.25,-120.85 1459.15,-108.07 1454,-90.55 1477.25,-78.43 1567.06,-31.61 1602.87,-61.9 1702.25,-42.43 1718.98,-39.15 1737.38,-34.96 1752.94,-31.25"/>
<polygon fill="#63b8ff" stroke="#63b8ff" points="1753.81,-34.64 1762.7,-28.89 1752.16,-27.83 1753.81,-34.64"/>
</a>
</g>
</g>
<!-- Node20&#45;&gt;Node8 -->
<g id="edge39_Node000020_Node000008" class="edge">
<title>Node20&#45;&gt;Node8</title>
<g id="a_edge39_Node000020_Node000008"><a xlink:title=" ">
<path fill="none" stroke="#63b8ff" d="M1232.53,-167.15C1314.97,-151.49 1466.52,-122.62 1472.25,-120.85 1478.02,-119.08 1484.03,-116.83 1489.76,-114.47"/>
<polygon fill="#63b8ff" stroke="#63b8ff" points="1491.23,-117.65 1499.03,-110.48 1488.46,-111.22 1491.23,-117.65"/>
</a>
</g>
</g>
<!-- Node20&#45;&gt;Node9 -->
<g id="edge40_Node000020_Node000009" class="edge">
<title>Node20&#45;&gt;Node9</title>
<g id="a_edge40_Node000020_Node000009"><a xlink:title=" ">
<path fill="none" stroke="#63b8ff" d="M1144.73,-165.71C1106.93,-153.62 1046.47,-134.29 1001.26,-119.83"/>
<polygon fill="#63b8ff" stroke="#63b8ff" points="1002.16,-116.44 991.57,-116.73 1000.03,-123.11 1002.16,-116.44"/>
</a>
</g>
</g>
<!-- Node20&#45;&gt;Node12 -->
<g id="edge37_Node000020_Node000012" class="edge">
<title>Node20&#45;&gt;Node12</title>
<g id="a_edge37_Node000020_Node000012"><a xlink:title=" ">
<path fill="none" stroke="#63b8ff" d="M1215.76,-165.6C1237.41,-156.77 1263.82,-142.37 1279.25,-120.85 1295.27,-98.53 1298.77,-66.33 1299.09,-44.86"/>
<polygon fill="#63b8ff" stroke="#63b8ff" points="1302.59,-44.69 1299.02,-34.72 1295.59,-44.74 1302.59,-44.69"/>
</a>
</g>
</g>
<!-- Node20&#45;&gt;Node14 -->
<g id="edge31_Node000020_Node000014" class="edge">
<title>Node20&#45;&gt;Node14</title>
<g id="a_edge31_Node000020_Node000014"><a xlink:title=" ">
<path fill="none" stroke="#63b8ff" d="M1118.82,-168.38C1089.61,-164.46 1054.18,-160.01 1022.25,-156.85 795.25,-134.37 731.49,-176.45 510.25,-120.85 504.75,-119.47 499.08,-117.45 493.7,-115.21"/>
<polygon fill="#63b8ff" stroke="#63b8ff" points="494.99,-111.95 484.43,-111.05 492.12,-118.34 494.99,-111.95"/>
</a>
</g>
</g>
<!-- Node21 -->
<g id="Node000021" class="node">
<title>Node21</title>
<g id="a_Node000021"><a xlink:title=" ">
<ellipse fill="#e0e0e0" stroke="#999999" cx="1359.25" cy="-99.64" rx="33.47" ry="13.37"/>
<text text-anchor="middle" x="1359.25" y="-97.14" font-family="Helvetica,sans-Serif" font-size="10.00">cmath</text>
</a>
</g>
</g>
<!-- Node20&#45;&gt;Node21 -->
<g id="edge29_Node000020_Node000021" class="edge">
<title>Node20&#45;&gt;Node21</title>
<g id="a_edge29_Node000020_Node000021"><a xlink:title=" ">
<path fill="none" stroke="#63b8ff" d="M1208.08,-165.25C1234.8,-153.9 1276.3,-136.24 1312.25,-120.85 1317.46,-118.62 1322.99,-116.25 1328.35,-113.95"/>
<polygon fill="#63b8ff" stroke="#63b8ff" points="1329.93,-117.08 1337.74,-109.91 1327.17,-110.65 1329.93,-117.08"/>
</a>
</g>
</g>
<!-- Node22 -->
<g id="Node000022" class="node">
<title>Node22</title>
<g id="a_Node000022"><a xlink:title=" ">
<ellipse fill="#e0e0e0" stroke="#999999" cx="1656.25" cy="-21.21" rx="37.45" ry="13.37"/>
<text text-anchor="middle" x="1656.25" y="-18.71" font-family="Helvetica,sans-Serif" font-size="10.00">cstddef</text>
</a>
</g>
</g>
<!-- Node20&#45;&gt;Node22 -->
<g id="edge30_Node000020_Node000022" class="edge">
<title>Node20&#45;&gt;Node22</title>
<g id="a_edge30_Node000020_Node000022"><a xlink:title=" ">
<path fill="none" stroke="#63b8ff" d="M1232.13,-167.15C1287.96,-155.9 1372.6,-137.03 1401.25,-120.85 1424.63,-107.66 1420.94,-91.74 1444.25,-78.43 1497.02,-48.29 1566.37,-33.88 1611.13,-27.31"/>
<polygon fill="#63b8ff" stroke="#63b8ff" points="1611.71,-30.76 1621.13,-25.91 1610.74,-23.83 1611.71,-30.76"/>
</a>
</g>
</g>
<!-- Node23 -->
<g id="Node000023" class="node">
<title>Node23</title>
<g id="a_Node000023"><a xlink:title=" ">
<ellipse fill="#e0e0e0" stroke="#999999" cx="1089.25" cy="-99.64" rx="45.92" ry="13.37"/>
<text text-anchor="middle" x="1089.25" y="-97.14" font-family="Helvetica,sans-Serif" font-size="10.00">functional</text>
</a>
</g>
</g>
<!-- Node20&#45;&gt;Node23 -->
<g id="edge32_Node000020_Node000023" class="edge">
<title>Node20&#45;&gt;Node23</title>
<g id="a_edge32_Node000020_Node000023"><a xlink:title=" ">
<path fill="none" stroke="#63b8ff" d="M1165.63,-164.79C1150.95,-152.46 1128.15,-133.31 1111.28,-119.14"/>
<polygon fill="#63b8ff" stroke="#63b8ff" points="1113.45,-116.39 1103.54,-112.64 1108.95,-121.75 1113.45,-116.39"/>
</a>
</g>
</g>
<!-- Node24 -->
<g id="Node000024" class="node">
<title>Node24</title>
<g id="a_Node000024"><a xlink:title=" ">
<ellipse fill="#e0e0e0" stroke="#999999" cx="1180.25" cy="-99.64" rx="26.74" ry="13.37"/>
<text text-anchor="middle" x="1180.25" y="-97.14" font-family="Helvetica,sans-Serif" font-size="10.00">map</text>
</a>
</g>
</g>
<!-- Node20&#45;&gt;Node24 -->
<g id="edge33_Node000020_Node000024" class="edge">
<title>Node20&#45;&gt;Node24</title>
<g id="a_edge33_Node000020_Node000024"><a xlink:title=" ">
<path fill="none" stroke="#63b8ff" d="M1180.25,-164.45C1180.25,-153.38 1180.25,-137.02 1180.25,-123.64"/>
<polygon fill="#63b8ff" stroke="#63b8ff" points="1183.75,-123.28 1180.25,-113.28 1176.75,-123.28 1183.75,-123.28"/>
</a>
</g>
</g>
<!-- Node25 -->
<g id="Node000025" class="node">
<title>Node25</title>
<g id="a_Node000025"><a xlink:title=" ">
<ellipse fill="#e0e0e0" stroke="#999999" cx="1247.25" cy="-99.64" rx="22.76" ry="13.37"/>
<text text-anchor="middle" x="1247.25" y="-97.14" font-family="Helvetica,sans-Serif" font-size="10.00">set</text>
</a>
</g>
</g>
<!-- Node20&#45;&gt;Node25 -->
<g id="edge35_Node000020_Node000025" class="edge">
<title>Node20&#45;&gt;Node25</title>
<g id="a_edge35_Node000020_Node000025"><a xlink:title=" ">
<path fill="none" stroke="#63b8ff" d="M1191.32,-164.45C1202.01,-152.25 1218.33,-133.63 1230.59,-119.64"/>
<polygon fill="#63b8ff" stroke="#63b8ff" points="1233.31,-121.86 1237.27,-112.03 1228.05,-117.24 1233.31,-121.86"/>
</a>
</g>
</g>
<!-- Node27&#45;&gt;Node5 -->
<g id="edge44_Node000027_Node000005" class="edge">
<title>Node27&#45;&gt;Node5</title>
<g id="a_edge44_Node000027_Node000005"><a xlink:title=" ">
<path fill="none" stroke="#63b8ff" d="M968.33,-236.97C909.19,-208.77 802.58,-154.81 777.25,-120.85 760.65,-98.6 755.4,-66.38 753.81,-44.89"/>
<polygon fill="#63b8ff" stroke="#63b8ff" points="757.29,-44.54 753.27,-34.74 750.3,-44.91 757.29,-44.54"/>
</a>
</g>
</g>
<!-- Node27&#45;&gt;Node9 -->
<g id="edge46_Node000027_Node000009" class="edge">
<title>Node27&#45;&gt;Node9</title>
<g id="a_edge46_Node000027_Node000009"><a xlink:title=" ">
<path fill="none" stroke="#63b8ff" d="M975.53,-236.38C962.69,-226.99 949.34,-214.41 942.25,-199.28 932.3,-178.01 932.72,-151.23 935.26,-130.95"/>
<polygon fill="#63b8ff" stroke="#63b8ff" points="938.73,-131.4 936.74,-120.99 931.81,-130.37 938.73,-131.4"/>
</a>
</g>
</g>
<!-- Node27&#45;&gt;Node18 -->
<g id="edge47_Node000027_Node000018" class="edge">
<title>Node27&#45;&gt;Node18</title>
<g id="a_edge47_Node000027_Node000018"><a xlink:title=" ">
<path fill="none" stroke="#63b8ff" d="M958.91,-237.99C928.39,-227.07 888.46,-212.6 853.25,-199.28 777.93,-170.77 690.53,-135.86 641.58,-116.14"/>
<polygon fill="#63b8ff" stroke="#63b8ff" points="642.61,-112.79 632.03,-112.29 639.99,-119.28 642.61,-112.79"/>
</a>
</g>
</g>
<!-- Node27&#45;&gt;Node20 -->
<g id="edge48_Node000027_Node000020" class="edge">
<title>Node27&#45;&gt;Node20</title>
<g id="a_edge48_Node000027_Node000020"><a xlink:title=" ">
<path fill="none" stroke="#63b8ff" d="M1049.45,-237.19C1078.35,-224.35 1116.6,-207.35 1144.27,-195.06"/>
<polygon fill="#63b8ff" stroke="#63b8ff" points="1145.86,-198.18 1153.58,-190.92 1143.02,-191.78 1145.86,-198.18"/>
</a>
</g>
</g>
<!-- Node28 -->
<g id="Node000028" class="node">
<title>Node28</title>
<g id="a_Node000028"><a xlink:title=" ">
<ellipse fill="#e0e0e0" stroke="#999999" cx="982.25" cy="-178.07" rx="31.23" ry="13.37"/>
<text text-anchor="middle" x="982.25" y="-175.57" font-family="Helvetica,sans-Serif" font-size="10.00">limits</text>
</a>
</g>
</g>
<!-- Node27&#45;&gt;Node28 -->
<g id="edge43_Node000027_Node000028" class="edge">
<title>Node27&#45;&gt;Node28</title>
<g id="a_edge43_Node000027_Node000028"><a xlink:title=" ">
<path fill="none" stroke="#63b8ff" d="M1001.29,-235.01C997.77,-224.67 993.49,-212.09 989.88,-201.48"/>
<polygon fill="#63b8ff" stroke="#63b8ff" points="993.08,-200.03 986.55,-191.69 986.46,-202.29 993.08,-200.03"/>
</a>
</g>
</g>
<!-- Node29 -->
<g id="Node000029" class="node">
<title>Node29</title>
<g id="a_Node000029"><a xlink:title=" ">
<ellipse fill="#e0e0e0" stroke="#999999" cx="2240.25" cy="-99.64" rx="40.11" ry="13.37"/>
<text text-anchor="middle" x="2240.25" y="-97.14" font-family="Helvetica,sans-Serif" font-size="10.00">typeinfo</text>
</a>
</g>
</g>
<!-- Node27&#45;&gt;Node29 -->
<g id="edge45_Node000027_Node000029" class="edge">
<title>Node27&#45;&gt;Node29</title>
<g id="a_edge45_Node000027_Node000029"><a xlink:title=" ">
<path fill="none" stroke="#63b8ff" d="M1105.49,-252.11C1383.52,-242.29 2163.44,-213.54 2186.25,-199.28 2213.39,-182.31 2227.91,-146.64 2234.85,-123.17"/>
<polygon fill="#63b8ff" stroke="#63b8ff" points="2238.27,-123.92 2237.52,-113.35 2231.52,-122.08 2238.27,-123.92"/>
</a>
</g>
</g>
<!-- Node30&#45;&gt;Node3 -->
<g id="edge50_Node000030_Node000003" class="edge">
<title>Node30&#45;&gt;Node3</title>
<g id="a_edge50_Node000030_Node000003"><a xlink:title=" ">
<path fill="none" stroke="#63b8ff" d="M1763,-246.38C1814.38,-237.18 1882.74,-221.19 1899.25,-199.28 1916.36,-176.58 1903,-143.1 1890.89,-121.58"/>
<polygon fill="#63b8ff" stroke="#63b8ff" points="1893.83,-119.68 1885.7,-112.89 1887.82,-123.27 1893.83,-119.68"/>
</a>
</g>
</g>
<!-- Node30&#45;&gt;Node5 -->
<g id="edge52_Node000030_Node000005" class="edge">
<title>Node30&#45;&gt;Node5</title>
<g id="a_edge52_Node000030_Node000005"><a xlink:title=" ">
<path fill="none" stroke="#63b8ff" d="M1615.47,-253.06C1468.34,-248.06 1178.72,-234.03 1083.25,-199.28 1052.22,-187.98 1052.85,-169.29 1022.25,-156.85 931.69,-120.04 884.54,-178.06 805.25,-120.85 791.81,-111.15 773.08,-70.28 762.16,-44.29"/>
<polygon fill="#63b8ff" stroke="#63b8ff" points="765.3,-42.74 758.25,-34.83 758.83,-45.41 765.3,-42.74"/>
</a>
</g>
</g>
<!-- Node30&#45;&gt;Node6 -->
<g id="edge55_Node000030_Node000006" class="edge">
<title>Node30&#45;&gt;Node6</title>
<g id="a_edge55_Node000030_Node000006"><a xlink:title=" ">
<path fill="none" stroke="#63b8ff" d="M1686.37,-243.08C1674.03,-232.88 1658.28,-217.23 1651.25,-199.28 1644.38,-181.72 1640.62,-172.43 1651.25,-156.85 1676.01,-120.59 1711.24,-150.9 1743.25,-120.85 1765.28,-100.18 1777.73,-66.87 1783.98,-44.76"/>
<polygon fill="#63b8ff" stroke="#63b8ff" points="1787.41,-45.47 1786.57,-34.91 1780.64,-43.69 1787.41,-45.47"/>
</a>
</g>
</g>
<!-- Node30&#45;&gt;Node12 -->
<g id="edge53_Node000030_Node000012" class="edge">
<title>Node30&#45;&gt;Node12</title>
<g id="a_edge53_Node000030_Node000012"><a xlink:title=" ">
<path fill="none" stroke="#63b8ff" d="M1618.83,-251.52C1539.33,-245.8 1428.48,-232.04 1401.25,-199.28 1389.2,-184.78 1389.48,-171.58 1401.25,-156.85 1446.79,-99.94 1515.72,-177.77 1561.25,-120.85 1573.03,-106.13 1573.11,-93.09 1561.25,-78.43 1535.84,-47 1424.53,-32.37 1355.12,-26.19"/>
<polygon fill="#63b8ff" stroke="#63b8ff" points="1355.04,-22.67 1344.78,-25.31 1354.44,-29.65 1355.04,-22.67"/>
</a>
</g>
</g>
<!-- Node30&#45;&gt;Node15 -->
<g id="edge62_Node000030_Node000015" class="edge">
<title>Node30&#45;&gt;Node15</title>
<g id="a_edge62_Node000030_Node000015"><a xlink:title=" ">
<path fill="none" stroke="#63b8ff" d="M1792.85,-254.37C1963.11,-251.3 2319.86,-240.03 2357.25,-199.28 2411.63,-140.03 2296.81,-76.11 2224.74,-43.7"/>
<polygon fill="#63b8ff" stroke="#63b8ff" points="2225.87,-40.37 2215.31,-39.53 2223.04,-46.78 2225.87,-40.37"/>
</a>
</g>
</g>
<!-- Node30&#45;&gt;Node20 -->
<g id="edge63_Node000030_Node000020" class="edge">
<title>Node30&#45;&gt;Node20</title>
<g id="a_edge63_Node000030_Node000020"><a xlink:title=" ">
<path fill="none" stroke="#63b8ff" d="M1641.98,-246.54C1544.35,-232.27 1354.01,-204.46 1250.83,-189.38"/>
<polygon fill="#63b8ff" stroke="#63b8ff" points="1251.22,-185.9 1240.82,-187.92 1250.2,-192.83 1251.22,-185.9"/>
</a>
</g>
</g>
<!-- Node30&#45;&gt;Node29 -->
<g id="edge54_Node000030_Node000029" class="edge">
<title>Node30&#45;&gt;Node29</title>
<g id="a_edge54_Node000030_Node000029"><a xlink:title=" ">
<path fill="none" stroke="#63b8ff" d="M1792.64,-254.14C1959.1,-250.68 2303.09,-238.78 2339.25,-199.28 2351.99,-185.37 2348.74,-173.15 2339.25,-156.85 2326.49,-134.93 2301.64,-120.86 2280.03,-112.28"/>
<polygon fill="#63b8ff" stroke="#63b8ff" points="2280.98,-108.9 2270.39,-108.71 2278.56,-115.46 2280.98,-108.9"/>
</a>
</g>
</g>
<!-- Node31 -->
<g id="Node000031" class="node">
<title>Node31</title>
<g id="a_Node000031"><a xlink:title=" ">
<ellipse fill="#e0e0e0" stroke="#999999" cx="2284.25" cy="-178.07" rx="45.92" ry="13.37"/>
<text text-anchor="middle" x="2284.25" y="-175.57" font-family="Helvetica,sans-Serif" font-size="10.00">stdexcept</text>
</a>
</g>
</g>
<!-- Node30&#45;&gt;Node31 -->
<g id="edge51_Node000030_Node000031" class="edge">
<title>Node30&#45;&gt;Node31</title>
<g id="a_edge51_Node000030_Node000031"><a xlink:title=" ">
<path fill="none" stroke="#63b8ff" d="M1788.54,-251.98C1892.48,-246.4 2072.97,-232.51 2224.25,-199.28 2232.26,-197.52 2240.68,-195.07 2248.61,-192.49"/>
<polygon fill="#63b8ff" stroke="#63b8ff" points="2249.98,-195.72 2258.32,-189.18 2247.72,-189.09 2249.98,-195.72"/>
</a>
</g>
</g>
<!-- Node32 -->
<g id="Node000032" class="node">
<title>Node32</title>
<g id="a_Node000032"><a xlink:href="copyable__unique__ptr_8h.html" target="_top" xlink:title=" ">
<ellipse fill="white" stroke="#666666" cx="1507.25" cy="-178.07" rx="96.75" ry="21.43"/>
<text text-anchor="start" x="1446.75" y="-181.07" font-family="Helvetica,sans-Serif" font-size="10.00">drake/common/copyable</text>
<text text-anchor="middle" x="1507.25" y="-170.07" font-family="Helvetica,sans-Serif" font-size="10.00">_unique_ptr.h</text>
</a>
</g>
</g>
<!-- Node30&#45;&gt;Node32 -->
<g id="edge56_Node000030_Node000032" class="edge">
<title>Node30&#45;&gt;Node32</title>
<g id="a_edge56_Node000030_Node000032"><a xlink:title=" ">
<path fill="none" stroke="#63b8ff" d="M1673.06,-243.72C1643.59,-232.23 1598.06,-214.48 1562.17,-200.48"/>
<polygon fill="#63b8ff" stroke="#63b8ff" points="1563.38,-197.2 1552.8,-196.82 1560.84,-203.72 1563.38,-197.2"/>
</a>
</g>
</g>
<!-- Node33 -->
<g id="Node000033" class="node">
<title>Node33</title>
<g id="a_Node000033"><a xlink:href="is__cloneable_8h.html" target="_top" xlink:title=" ">
<ellipse fill="white" stroke="#666666" cx="1775.25" cy="-178.07" rx="114.6" ry="13.37"/>
<text text-anchor="middle" x="1775.25" y="-175.57" font-family="Helvetica,sans-Serif" font-size="10.00">drake/common/is_cloneable.h</text>
</a>
</g>
</g>
<!-- Node30&#45;&gt;Node33 -->
<g id="edge64_Node000030_Node000033" class="edge">
<title>Node30&#45;&gt;Node33</title>
<g id="a_edge64_Node000030_Node000033"><a xlink:title=" ">
<path fill="none" stroke="#63b8ff" d="M1715.14,-242.87C1726.36,-230.96 1743.36,-212.92 1756.42,-199.05"/>
<polygon fill="#63b8ff" stroke="#63b8ff" points="1759.28,-201.13 1763.59,-191.45 1754.18,-196.33 1759.28,-201.13"/>
</a>
</g>
</g>
<!-- Node34 -->
<g id="Node000034" class="node">
<title>Node34</title>
<g id="a_Node000034"><a xlink:href="nice__type__name_8h.html" target="_top" xlink:title=" ">
<ellipse fill="white" stroke="#666666" cx="2045.25" cy="-178.07" rx="98.99" ry="21.43"/>
<text text-anchor="start" x="1983.25" y="-181.07" font-family="Helvetica,sans-Serif" font-size="10.00">drake/common/nice_type</text>
<text text-anchor="middle" x="2045.25" y="-170.07" font-family="Helvetica,sans-Serif" font-size="10.00">_name.h</text>
</a>
</g>
</g>
<!-- Node30&#45;&gt;Node34 -->
<g id="edge67_Node000030_Node000034" class="edge">
<title>Node30&#45;&gt;Node34</title>
<g id="a_edge67_Node000030_Node000034"><a xlink:title=" ">
<path fill="none" stroke="#63b8ff" d="M1750.45,-244.95C1806.83,-232.35 1901.92,-211.1 1968.83,-196.14"/>
<polygon fill="#63b8ff" stroke="#63b8ff" points="1969.91,-199.49 1978.9,-193.89 1968.38,-192.66 1969.91,-199.49"/>
</a>
</g>
</g>
<!-- Node32&#45;&gt;Node3 -->
<g id="edge58_Node000032_Node000003" class="edge">
<title>Node32&#45;&gt;Node3</title>
<g id="a_edge58_Node000032_Node000003"><a xlink:title=" ">
<path fill="none" stroke="#63b8ff" d="M1576.75,-163.24C1632.81,-152.02 1713.66,-135.69 1784.25,-120.85 1800.7,-117.4 1818.76,-113.5 1834.56,-110.05"/>
<polygon fill="#63b8ff" stroke="#63b8ff" points="1835.55,-113.42 1844.57,-107.86 1834.05,-106.58 1835.55,-113.42"/>
</a>
</g>
</g>
<!-- Node32&#45;&gt;Node6 -->
<g id="edge59_Node000032_Node000006" class="edge">
<title>Node32&#45;&gt;Node6</title>
<g id="a_edge59_Node000032_Node000006"><a xlink:title=" ">
<path fill="none" stroke="#63b8ff" d="M1574.68,-162.8C1624.05,-151.5 1686.14,-135.28 1708.25,-120.85 1738.79,-100.94 1763.52,-65.89 1777.31,-43.38"/>
<polygon fill="#63b8ff" stroke="#63b8ff" points="1780.44,-44.96 1782.53,-34.58 1774.42,-41.39 1780.44,-44.96"/>
</a>
</g>
</g>
<!-- Node32&#45;&gt;Node9 -->
<g id="edge60_Node000032_Node000009" class="edge">
<title>Node32&#45;&gt;Node9</title>
<g id="a_edge60_Node000032_Node000009"><a xlink:title=" ">
<path fill="none" stroke="#63b8ff" d="M1419.28,-169.15C1324.03,-159.99 1167.8,-143.25 1034.25,-120.85 1026.89,-119.62 1019.23,-118.19 1011.6,-116.67"/>
<polygon fill="#63b8ff" stroke="#63b8ff" points="1012.12,-113.21 1001.62,-114.64 1010.72,-120.07 1012.12,-113.21"/>
</a>
</g>
</g>
<!-- Node32&#45;&gt;Node18 -->
<g id="edge61_Node000032_Node000018" class="edge">
<title>Node32&#45;&gt;Node18</title>
<g id="a_edge61_Node000032_Node000018"><a xlink:title=" ">
<path fill="none" stroke="#63b8ff" d="M1419.07,-169.22C1376.26,-165.44 1324.08,-160.86 1277.25,-156.85 1164.46,-147.19 839.21,-120.19 685.54,-107.46"/>
<polygon fill="#63b8ff" stroke="#63b8ff" points="685.48,-103.94 675.22,-106.6 684.9,-110.92 685.48,-103.94"/>
</a>
</g>
</g>
<!-- Node32&#45;&gt;Node22 -->
<g id="edge57_Node000032_Node000022" class="edge">
<title>Node32&#45;&gt;Node22</title>
<g id="a_edge57_Node000032_Node000022"><a xlink:title=" ">
<path fill="none" stroke="#63b8ff" d="M1569.43,-161.64C1592.16,-153.1 1616.21,-140.16 1632.25,-120.85 1650.1,-99.38 1655.05,-66.72 1656.23,-44.93"/>
<polygon fill="#63b8ff" stroke="#63b8ff" points="1659.74,-44.76 1656.55,-34.65 1652.74,-44.54 1659.74,-44.76"/>
</a>
</g>
</g>
<!-- Node33&#45;&gt;Node3 -->
<g id="edge65_Node000033_Node000003" class="edge">
<title>Node33&#45;&gt;Node3</title>
<g id="a_edge65_Node000033_Node000003"><a xlink:title=" ">
<path fill="none" stroke="#63b8ff" d="M1792.1,-164.45C1808.88,-151.87 1834.79,-132.46 1853.63,-118.34"/>
<polygon fill="#63b8ff" stroke="#63b8ff" points="1855.82,-121.07 1861.73,-112.28 1851.62,-115.47 1855.82,-121.07"/>
</a>
</g>
</g>
<!-- Node33&#45;&gt;Node12 -->
<g id="edge66_Node000033_Node000012" class="edge">
<title>Node33&#45;&gt;Node12</title>
<g id="a_edge66_Node000033_Node000012"><a xlink:title=" ">
<path fill="none" stroke="#63b8ff" d="M1761.47,-164.39C1737.29,-142.94 1684.8,-99.74 1632.25,-78.43 1540.39,-41.17 1424.66,-28.6 1356.34,-24.37"/>
<polygon fill="#63b8ff" stroke="#63b8ff" points="1356.39,-20.86 1346.21,-23.78 1355.99,-27.85 1356.39,-20.86"/>
</a>
</g>
</g>
<!-- Node34&#45;&gt;Node3 -->
<g id="edge68_Node000034_Node000003" class="edge">
<title>Node34&#45;&gt;Node3</title>
<g id="a_edge68_Node000034_Node000003"><a xlink:title=" ">
<path fill="none" stroke="#63b8ff" d="M2004.59,-158.57C1975.35,-145.27 1936.48,-127.58 1909.41,-115.27"/>
<polygon fill="#63b8ff" stroke="#63b8ff" points="1910.56,-111.94 1900,-110.99 1907.66,-118.32 1910.56,-111.94"/>
</a>
</g>
</g>
<!-- Node34&#45;&gt;Node5 -->
<g id="edge69_Node000034_Node000005" class="edge">
<title>Node34&#45;&gt;Node5</title>
<g id="a_edge69_Node000034_Node000005"><a xlink:title=" ">
<path fill="none" stroke="#63b8ff" d="M1983.48,-161.38C1891.95,-138.86 1714.6,-97.91 1561.25,-78.43 1253.98,-39.39 1172.95,-78 865.25,-42.43 840.01,-39.51 811.86,-34.42 790.09,-30.08"/>
<polygon fill="#63b8ff" stroke="#63b8ff" points="790.77,-26.64 780.27,-28.08 789.37,-33.5 790.77,-26.64"/>
</a>
</g>
</g>
<!-- Node34&#45;&gt;Node6 -->
<g id="edge71_Node000034_Node000006" class="edge">
<title>Node34&#45;&gt;Node6</title>
<g id="a_edge71_Node000034_Node000006"><a xlink:title=" ">
<path fill="none" stroke="#63b8ff" d="M2080.36,-158.15C2093.88,-148.87 2107.84,-136.31 2115.25,-120.85 2123.41,-103.85 2127.4,-92.85 2115.25,-78.43 2079.4,-35.86 1911.01,-25.53 1831.29,-23.02"/>
<polygon fill="#63b8ff" stroke="#63b8ff" points="1831.21,-19.51 1821.11,-22.73 1831,-26.51 1831.21,-19.51"/>
</a>
</g>
</g>
<!-- Node34&#45;&gt;Node8 -->
<g id="edge72_Node000034_Node000008" class="edge">
<title>Node34&#45;&gt;Node8</title>
<g id="a_edge72_Node000034_Node000008"><a xlink:title=" ">
<path fill="none" stroke="#63b8ff" d="M1964.99,-165.51C1943.64,-162.56 1920.59,-159.48 1899.25,-156.85 1751.51,-138.64 1710.23,-158.68 1566.25,-120.85 1560.31,-119.29 1554.15,-117.1 1548.32,-114.73"/>
<polygon fill="#63b8ff" stroke="#63b8ff" points="1549.48,-111.42 1538.91,-110.65 1546.7,-117.84 1549.48,-111.42"/>
</a>
</g>
</g>
<!-- Node34&#45;&gt;Node29 -->
<g id="edge70_Node000034_Node000029" class="edge">
<title>Node34&#45;&gt;Node29</title>
<g id="a_edge70_Node000034_Node000029"><a xlink:title=" ">
<path fill="none" stroke="#63b8ff" d="M2090.97,-159.15C2126.27,-145.31 2174.33,-126.48 2206.27,-113.96"/>
<polygon fill="#63b8ff" stroke="#63b8ff" points="2207.6,-117.2 2215.64,-110.29 2205.05,-110.68 2207.6,-117.2"/>
</a>
</g>
</g>
<!-- Node35 -->
<g id="Node000035" class="node">
<title>Node35</title>
<g id="a_Node000035"><a xlink:href="never__destroyed_8h.html" target="_top" xlink:title=" ">
<ellipse fill="white" stroke="#666666" cx="2021.25" cy="-99.64" rx="84.71" ry="21.43"/>
<text text-anchor="start" x="1969.25" y="-102.64" font-family="Helvetica,sans-Serif" font-size="10.00">drake/common/never</text>
<text text-anchor="middle" x="2021.25" y="-91.64" font-family="Helvetica,sans-Serif" font-size="10.00">_destroyed.h</text>
</a>
</g>
</g>
<!-- Node34&#45;&gt;Node35 -->
<g id="edge73_Node000034_Node000035" class="edge">
<title>Node34&#45;&gt;Node35</title>
<g id="a_edge73_Node000034_Node000035"><a xlink:title=" ">
<path fill="none" stroke="#63b8ff" d="M2038.82,-156.59C2036.33,-148.64 2033.42,-139.38 2030.7,-130.71"/>
<polygon fill="#63b8ff" stroke="#63b8ff" points="2033.96,-129.4 2027.62,-120.91 2027.28,-131.5 2033.96,-129.4"/>
</a>
</g>
</g>
<!-- Node35&#45;&gt;Node6 -->
<g id="edge75_Node000035_Node000006" class="edge">
<title>Node35&#45;&gt;Node6</title>
<g id="a_edge75_Node000035_Node000006"><a xlink:title=" ">
<path fill="none" stroke="#63b8ff" d="M1971.77,-82.34C1926.96,-67.58 1862.16,-46.23 1823.04,-33.34"/>
<polygon fill="#63b8ff" stroke="#63b8ff" points="1824.03,-29.98 1813.43,-30.18 1821.84,-36.63 1824.03,-29.98"/>
</a>
</g>
</g>
<!-- Node35&#45;&gt;Node15 -->
<g id="edge76_Node000035_Node000015" class="edge">
<title>Node35&#45;&gt;Node15</title>
<g id="a_edge76_Node000035_Node000015"><a xlink:title=" ">
<path fill="none" stroke="#63b8ff" d="M2057.42,-80.33C2078.36,-69.74 2104.89,-56.31 2127.18,-45.03"/>
<polygon fill="#63b8ff" stroke="#63b8ff" points="2128.78,-48.14 2136.12,-40.5 2125.62,-41.9 2128.78,-48.14"/>
</a>
</g>
</g>
<!-- Node35&#45;&gt;Node22 -->
<g id="edge74_Node000035_Node000022" class="edge">
<title>Node35&#45;&gt;Node22</title>
<g id="a_edge74_Node000035_Node000022"><a xlink:title=" ">
<path fill="none" stroke="#63b8ff" d="M1959.09,-85.15C1948.47,-82.88 1937.55,-80.57 1927.25,-78.43 1847.81,-61.9 1827.66,-59.13 1748.25,-42.43 1731.45,-38.89 1712.96,-34.86 1696.98,-31.32"/>
<polygon fill="#63b8ff" stroke="#63b8ff" points="1697.41,-27.84 1686.89,-29.09 1695.9,-34.67 1697.41,-27.84"/>
</a>
</g>
</g>
</g>
</svg>
