<?xml version="1.0" encoding="UTF-8" standalone="no"?>
<!DOCTYPE svg PUBLIC "-//W3C//DTD SVG 1.1//EN"
 "http://www.w3.org/Graphics/SVG/1.1/DTD/svg11.dtd">
<!-- Generated by graphviz version 2.43.0 (0)
 -->
<!-- Title: drake/solvers/function.h Pages: 1 -->
<svg width="611pt" height="218pt"
 viewBox="0.00 0.00 610.50 218.00" xmlns="http://www.w3.org/2000/svg" xmlns:xlink="http://www.w3.org/1999/xlink">
<g id="graph0" class="graph" transform="scale(1 1) rotate(0) translate(4 214)">
<title>drake/solvers/function.h</title>
<polygon fill="white" stroke="transparent" points="-4,4 -4,-214 606.5,-214 606.5,4 -4,4"/>
<!-- Node0 -->
<g id="node1" class="node">
<title>Node0</title>
<g id="a_node1"><a xlink:title=" ">
<polygon fill="#bfbfbf" stroke="black" points="19,-190.5 19,-209.5 153,-209.5 153,-190.5 19,-190.5"/>
<text text-anchor="middle" x="86" y="-197.5" font-family="Helvetica,sans-Serif" font-size="10.00">drake/solvers/function.h</text>
</a>
</g>
</g>
<!-- Node1 -->
<g id="node2" class="node">
<title>Node1</title>
<g id="a_node2"><a xlink:title=" ">
<polygon fill="white" stroke="#bfbfbf" points="0,-129 0,-148 58,-148 58,-129 0,-129"/>
<text text-anchor="middle" x="29" y="-136" font-family="Helvetica,sans-Serif" font-size="10.00">memory</text>
</a>
</g>
</g>
<!-- Node0&#45;&gt;Node1 -->
<g id="edge1" class="edge">
<title>Node0&#45;&gt;Node1</title>
<path fill="none" stroke="midnightblue" d="M77.83,-190.48C69.11,-181.37 55.1,-166.74 44.31,-155.48"/>
<polygon fill="midnightblue" stroke="midnightblue" points="46.6,-152.81 37.15,-148.01 41.54,-157.65 46.6,-152.81"/>
</g>
<!-- Node2 -->
<g id="node3" class="node">
<title>Node2</title>
<g id="a_node3"><a xlink:title=" ">
<polygon fill="white" stroke="#bfbfbf" points="21.5,-62 21.5,-81 98.5,-81 98.5,-62 21.5,-62"/>
<text text-anchor="middle" x="60" y="-69" font-family="Helvetica,sans-Serif" font-size="10.00">Eigen/Dense</text>
</a>
</g>
</g>
<!-- Node0&#45;&gt;Node2 -->
<g id="edge2" class="edge">
<title>Node0&#45;&gt;Node2</title>
<path fill="none" stroke="midnightblue" d="M84.21,-190.31C80.04,-169.99 69.57,-119.05 63.86,-91.28"/>
<polygon fill="midnightblue" stroke="midnightblue" points="67.24,-90.35 61.8,-81.26 60.38,-91.76 67.24,-90.35"/>
</g>
<!-- Node3 -->
<g id="node4" class="node">
<title>Node3</title>
<g id="a_node4"><a xlink:href="eigen__types_8h.html" target="_top" xlink:title="This file contains abbreviated definitions for certain specializations of Eigen::Matrix that are comm...">
<polygon fill="white" stroke="black" points="167.5,-123.5 167.5,-153.5 286.5,-153.5 286.5,-123.5 167.5,-123.5"/>
<text text-anchor="start" x="175.5" y="-141.5" font-family="Helvetica,sans-Serif" font-size="10.00">drake/common/eigen</text>
<text text-anchor="middle" x="227" y="-130.5" font-family="Helvetica,sans-Serif" font-size="10.00">_types.h</text>
</a>
</g>
</g>
<!-- Node0&#45;&gt;Node3 -->
<g id="edge3" class="edge">
<title>Node0&#45;&gt;Node3</title>
<path fill="none" stroke="midnightblue" d="M106.2,-190.48C126.55,-181.89 158.56,-168.38 184.51,-157.43"/>
<polygon fill="midnightblue" stroke="midnightblue" points="185.92,-160.64 193.77,-153.52 183.2,-154.19 185.92,-160.64"/>
</g>
<!-- Node3&#45;&gt;Node2 -->
<g id="edge5" class="edge">
<title>Node3&#45;&gt;Node2</title>
<path fill="none" stroke="midnightblue" d="M190.76,-123.4C161.07,-111.84 119.49,-95.66 91.25,-84.66"/>
<polygon fill="midnightblue" stroke="midnightblue" points="92.44,-81.37 81.86,-81.01 89.91,-87.9 92.44,-81.37"/>
</g>
<!-- Node4 -->
<g id="node5" class="node">
<title>Node4</title>
<g id="a_node5"><a xlink:title=" ">
<polygon fill="white" stroke="#bfbfbf" points="116.5,-62 116.5,-81 161.5,-81 161.5,-62 116.5,-62"/>
<text text-anchor="middle" x="139" y="-69" font-family="Helvetica,sans-Serif" font-size="10.00">utility</text>
</a>
</g>
</g>
<!-- Node3&#45;&gt;Node4 -->
<g id="edge4" class="edge">
<title>Node3&#45;&gt;Node4</title>
<path fill="none" stroke="midnightblue" d="M207.91,-123.4C193.42,-112.7 173.57,-98.03 158.89,-87.19"/>
<polygon fill="midnightblue" stroke="midnightblue" points="160.64,-84.13 150.52,-81.01 156.48,-89.76 160.64,-84.13"/>
</g>
<!-- Node5 -->
<g id="node6" class="node">
<title>Node5</title>
<g id="a_node6"><a xlink:href="constants_8h.html" target="_top" xlink:title=" ">
<polygon fill="white" stroke="black" points="179.5,-62 179.5,-81 328.5,-81 328.5,-62 179.5,-62"/>
<text text-anchor="middle" x="254" y="-69" font-family="Helvetica,sans-Serif" font-size="10.00">drake/common/constants.h</text>
</a>
</g>
</g>
<!-- Node3&#45;&gt;Node5 -->
<g id="edge6" class="edge">
<title>Node3&#45;&gt;Node5</title>
<path fill="none" stroke="midnightblue" d="M232.86,-123.4C236.86,-113.76 242.2,-100.91 246.51,-90.54"/>
<polygon fill="midnightblue" stroke="midnightblue" points="249.78,-91.77 250.39,-81.19 243.32,-89.09 249.78,-91.77"/>
</g>
<!-- Node6 -->
<g id="node7" class="node">
<title>Node6</title>
<g id="a_node7"><a xlink:href="drake__assert_8h.html" target="_top" xlink:title="Provides Drake&#39;s assertion implementation.">
<polygon fill="white" stroke="black" points="346.5,-56.5 346.5,-86.5 465.5,-86.5 465.5,-56.5 346.5,-56.5"/>
<text text-anchor="start" x="354.5" y="-74.5" font-family="Helvetica,sans-Serif" font-size="10.00">drake/common/drake</text>
<text text-anchor="middle" x="406" y="-63.5" font-family="Helvetica,sans-Serif" font-size="10.00">_assert.h</text>
</a>
</g>
</g>
<!-- Node3&#45;&gt;Node6 -->
<g id="edge7" class="edge">
<title>Node3&#45;&gt;Node6</title>
<path fill="none" stroke="midnightblue" d="M265.84,-123.4C292.82,-113.6 328.94,-100.48 357.77,-90.02"/>
<polygon fill="midnightblue" stroke="midnightblue" points="359.03,-93.28 367.24,-86.58 356.64,-86.7 359.03,-93.28"/>
</g>
<!-- Node8 -->
<g id="node9" class="node">
<title>Node8</title>
<g id="a_node9"><a xlink:href="drake__copyable_8h.html" target="_top" xlink:title="Provides careful macros to selectively enable or disable the special member functions for copy&#45;constr...">
<polygon fill="white" stroke="black" points="483.5,-56.5 483.5,-86.5 602.5,-86.5 602.5,-56.5 483.5,-56.5"/>
<text text-anchor="start" x="491.5" y="-74.5" font-family="Helvetica,sans-Serif" font-size="10.00">drake/common/drake</text>
<text text-anchor="middle" x="543" y="-63.5" font-family="Helvetica,sans-Serif" font-size="10.00">_copyable.h</text>
</a>
</g>
</g>
<!-- Node3&#45;&gt;Node8 -->
<g id="edge9" class="edge">
<title>Node3&#45;&gt;Node8</title>
<path fill="none" stroke="midnightblue" d="M286.66,-125.51C334.66,-115.83 404.11,-101.74 473.51,-87.3"/>
<polygon fill="midnightblue" stroke="midnightblue" points="474.23,-90.73 483.3,-85.26 472.8,-83.87 474.23,-90.73"/>
</g>
<!-- Node7 -->
<g id="node8" class="node">
<title>Node7</title>
<g id="a_node8"><a xlink:title=" ">
<polygon fill="white" stroke="#bfbfbf" points="371.5,-0.5 371.5,-19.5 440.5,-19.5 440.5,-0.5 371.5,-0.5"/>
<text text-anchor="middle" x="406" y="-7.5" font-family="Helvetica,sans-Serif" font-size="10.00">type_traits</text>
</a>
</g>
</g>
<!-- Node6&#45;&gt;Node7 -->
<g id="edge8" class="edge">
<title>Node6&#45;&gt;Node7</title>
<path fill="none" stroke="midnightblue" d="M406,-56.4C406,-48.47 406,-38.46 406,-29.86"/>
<polygon fill="midnightblue" stroke="midnightblue" points="409.5,-29.66 406,-19.66 402.5,-29.66 409.5,-29.66"/>
</g>
</g>
</svg>
