<?xml version="1.0" encoding="UTF-8" standalone="no"?>
<!DOCTYPE svg PUBLIC "-//W3C//DTD SVG 1.1//EN"
 "http://www.w3.org/Graphics/SVG/1.1/DTD/svg11.dtd">
<!-- Generated by graphviz version 2.43.0 (0)
 -->
<!-- Title: drake/geometry/geometry_ids.h Pages: 1 -->
<svg width="1409pt" height="333pt"
 viewBox="0.00 0.00 1409.39 333.02" xmlns="http://www.w3.org/2000/svg" xmlns:xlink="http://www.w3.org/1999/xlink">
<g id="graph0" class="graph" transform="scale(1 1) rotate(0) translate(4 329.02)">
<title>drake/geometry/geometry_ids.h</title>
<!-- Node1 -->
<g id="Node000001" class="node">
<title>Node1</title>
<g id="a_Node000001"><a xlink:title=" ">
<ellipse fill="#999999" stroke="#666666" cx="456.15" cy="-303.81" rx="101.65" ry="21.43"/>
<text text-anchor="start" x="392.15" y="-306.81" font-family="Helvetica,sans-Serif" font-size="10.00">drake/geometry/geometry</text>
<text text-anchor="middle" x="456.15" y="-295.81" font-family="Helvetica,sans-Serif" font-size="10.00">_ids.h</text>
</a>
</g>
</g>
<!-- Node2 -->
<g id="Node000002" class="node">
<title>Node2</title>
<g id="a_Node000002"><a xlink:href="drake__copyable_8h.html" target="_top" xlink:title="Provides careful macros to selectively enable or disable the special member functions for copy&#45;constr...">
<ellipse fill="white" stroke="#666666" cx="194.15" cy="-162.51" rx="84.29" ry="21.43"/>
<text text-anchor="start" x="142.65" y="-165.51" font-family="Helvetica,sans-Serif" font-size="10.00">drake/common/drake</text>
<text text-anchor="middle" x="194.15" y="-154.51" font-family="Helvetica,sans-Serif" font-size="10.00">_copyable.h</text>
</a>
</g>
</g>
<!-- Node1&#45;&gt;Node2 -->
<g id="edge1_Node000001_Node000002" class="edge">
<title>Node1&#45;&gt;Node2</title>
<g id="a_edge1_Node000001_Node000002"><a xlink:title=" ">
<path fill="none" stroke="#63b8ff" d="M420.54,-283.88C373.02,-258.61 288.94,-213.91 237.7,-186.67"/>
<polygon fill="#63b8ff" stroke="#63b8ff" points="239.31,-183.56 228.84,-181.96 236.03,-189.74 239.31,-183.56"/>
</a>
</g>
</g>
<!-- Node3 -->
<g id="Node000003" class="node">
<title>Node3</title>
<g id="a_Node000003"><a xlink:href="identifier_8h.html" target="_top" xlink:title=" ">
<ellipse fill="white" stroke="#666666" cx="550.15" cy="-233.16" rx="101.65" ry="13.37"/>
<text text-anchor="middle" x="550.15" y="-230.66" font-family="Helvetica,sans-Serif" font-size="10.00">drake/common/identifier.h</text>
</a>
</g>
</g>
<!-- Node1&#45;&gt;Node3 -->
<g id="edge2_Node000001_Node000003" class="edge">
<title>Node1&#45;&gt;Node3</title>
<g id="a_edge2_Node000001_Node000003"><a xlink:title=" ">
<path fill="none" stroke="#63b8ff" d="M482.83,-283.32C496.1,-273.63 512.04,-261.98 525.08,-252.46"/>
<polygon fill="#63b8ff" stroke="#63b8ff" points="527.16,-255.28 533.17,-246.55 523.03,-249.62 527.16,-255.28"/>
</a>
</g>
</g>
<!-- Node3&#45;&gt;Node2 -->
<g id="edge12_Node000003_Node000002" class="edge">
<title>Node3&#45;&gt;Node2</title>
<g id="a_edge12_Node000003_Node000002"><a xlink:title=" ">
<path fill="none" stroke="#63b8ff" d="M493.97,-221.91C441.67,-212.3 361.57,-197.4 292.15,-183.72 284,-182.12 275.48,-180.41 267.01,-178.69"/>
<polygon fill="#63b8ff" stroke="#63b8ff" points="267.61,-175.24 257.11,-176.67 266.21,-182.1 267.61,-175.24"/>
</a>
</g>
</g>
<!-- Node4 -->
<g id="Node000004" class="node">
<title>Node4</title>
<g id="a_Node000004"><a xlink:title=" ">
<ellipse fill="#e0e0e0" stroke="#999999" cx="1349.15" cy="-84.08" rx="35.21" ry="13.37"/>
<text text-anchor="middle" x="1349.15" y="-81.58" font-family="Helvetica,sans-Serif" font-size="10.00">cstdint</text>
</a>
</g>
</g>
<!-- Node3&#45;&gt;Node4 -->
<g id="edge3_Node000003_Node000004" class="edge">
<title>Node3&#45;&gt;Node4</title>
<g id="a_edge3_Node000003_Node000004"><a xlink:title=" ">
<path fill="none" stroke="#63b8ff" d="M636.92,-226.01C724.71,-218.96 864.09,-205.48 983.15,-183.72 1121.68,-158.41 1155.2,-145.58 1290.15,-105.3 1298.33,-102.85 1307.08,-99.99 1315.26,-97.21"/>
<polygon fill="#63b8ff" stroke="#63b8ff" points="1316.58,-100.46 1324.89,-93.88 1314.29,-93.84 1316.58,-100.46"/>
</a>
</g>
</g>
<!-- Node5 -->
<g id="Node000005" class="node">
<title>Node5</title>
<g id="a_Node000005"><a xlink:title=" ">
<ellipse fill="#e0e0e0" stroke="#999999" cx="382.15" cy="-13.44" rx="31.23" ry="13.37"/>
<text text-anchor="middle" x="382.15" y="-10.94" font-family="Helvetica,sans-Serif" font-size="10.00">string</text>
</a>
</g>
</g>
<!-- Node3&#45;&gt;Node5 -->
<g id="edge4_Node000003_Node000005" class="edge">
<title>Node3&#45;&gt;Node5</title>
<g id="a_edge4_Node000003_Node000005"><a xlink:title=" ">
<path fill="none" stroke="#63b8ff" d="M527.69,-219.89C494.17,-200.34 431.64,-158.79 400.15,-105.3 387.81,-84.35 383.77,-56.46 382.52,-37.13"/>
<polygon fill="#63b8ff" stroke="#63b8ff" points="386.02,-36.94 382.08,-27.11 379.03,-37.25 386.02,-36.94"/>
</a>
</g>
</g>
<!-- Node6 -->
<g id="Node000006" class="node">
<title>Node6</title>
<g id="a_Node000006"><a xlink:title=" ">
<ellipse fill="#e0e0e0" stroke="#999999" cx="1286.15" cy="-13.44" rx="31.64" ry="13.37"/>
<text text-anchor="middle" x="1286.15" y="-10.94" font-family="Helvetica,sans-Serif" font-size="10.00">utility</text>
</a>
</g>
</g>
<!-- Node3&#45;&gt;Node6 -->
<g id="edge5_Node000003_Node000006" class="edge">
<title>Node3&#45;&gt;Node6</title>
<g id="a_edge5_Node000003_Node000006"><a xlink:title=" ">
<path fill="none" stroke="#63b8ff" d="M645.2,-228.3C753.36,-222.83 935,-210.35 1089.15,-183.72 1226.64,-159.97 1307.69,-215.6 1393.15,-105.3 1404.69,-90.39 1403.37,-78.72 1393.15,-62.87 1378.25,-39.78 1349.39,-27.58 1325.39,-21.2"/>
<polygon fill="#63b8ff" stroke="#63b8ff" points="1326,-17.75 1315.46,-18.81 1324.37,-24.55 1326,-17.75"/>
</a>
</g>
</g>
<!-- Node7 -->
<g id="Node000007" class="node">
<title>Node7</title>
<g id="a_Node000007"><a xlink:href="drake__assert_8h.html" target="_top" xlink:title="Provides Drake&#39;s assertion mechanics.">
<ellipse fill="white" stroke="#666666" cx="1174.15" cy="-84.08" rx="84.29" ry="21.43"/>
<text text-anchor="start" x="1122.65" y="-87.08" font-family="Helvetica,sans-Serif" font-size="10.00">drake/common/drake</text>
<text text-anchor="middle" x="1174.15" y="-76.08" font-family="Helvetica,sans-Serif" font-size="10.00">_assert.h</text>
</a>
</g>
</g>
<!-- Node3&#45;&gt;Node7 -->
<g id="edge6_Node000003_Node000007" class="edge">
<title>Node3&#45;&gt;Node7</title>
<g id="a_edge6_Node000003_Node000007"><a xlink:title=" ">
<path fill="none" stroke="#63b8ff" d="M631.48,-225.01C706.3,-217.35 810.95,-203.55 847.15,-183.72 869.35,-171.56 863.07,-153.68 885.15,-141.3 962.4,-97.98 994.3,-122.7 1081.15,-105.3 1088.22,-103.88 1095.58,-102.36 1102.94,-100.81"/>
<polygon fill="#63b8ff" stroke="#63b8ff" points="1103.87,-104.19 1112.92,-98.68 1102.41,-97.34 1103.87,-104.19"/>
</a>
</g>
</g>
<!-- Node11 -->
<g id="Node000011" class="node">
<title>Node11</title>
<g id="a_Node000011"><a xlink:href="drake__deprecated_8h.html" target="_top" xlink:title="Provides a portable macro for use in generating compile&#45;time warnings for use of code that is permitt...">
<ellipse fill="white" stroke="#666666" cx="270.15" cy="-84.08" rx="84.29" ry="21.43"/>
<text text-anchor="start" x="218.65" y="-87.08" font-family="Helvetica,sans-Serif" font-size="10.00">drake/common/drake</text>
<text text-anchor="middle" x="270.15" y="-76.08" font-family="Helvetica,sans-Serif" font-size="10.00">_deprecated.h</text>
</a>
</g>
</g>
<!-- Node3&#45;&gt;Node11 -->
<g id="edge13_Node000003_Node000011" class="edge">
<title>Node3&#45;&gt;Node11</title>
<g id="a_edge13_Node000003_Node000011"><a xlink:title=" ">
<path fill="none" stroke="#63b8ff" d="M482.87,-223C447.04,-216.02 403.24,-204.02 368.15,-183.72 351.48,-174.08 317.54,-138.17 294.32,-112.46"/>
<polygon fill="#63b8ff" stroke="#63b8ff" points="296.77,-109.95 287.49,-104.85 291.56,-114.62 296.77,-109.95"/>
</a>
</g>
</g>
<!-- Node13 -->
<g id="Node000013" class="node">
<title>Node13</title>
<g id="a_Node000013"><a xlink:href="fmt_8h.html" target="_top" xlink:title=" ">
<ellipse fill="white" stroke="#666666" cx="84.15" cy="-84.08" rx="84.29" ry="13.37"/>
<text text-anchor="middle" x="84.15" y="-81.58" font-family="Helvetica,sans-Serif" font-size="10.00">drake/common/fmt.h</text>
</a>
</g>
</g>
<!-- Node3&#45;&gt;Node13 -->
<g id="edge16_Node000003_Node000013" class="edge">
<title>Node3&#45;&gt;Node13</title>
<g id="a_edge16_Node000003_Node000013"><a xlink:title=" ">
<path fill="none" stroke="#63b8ff" d="M457.85,-227.43C413.47,-221.63 361.15,-209.35 320.15,-183.72 299.89,-171.06 307,-154.59 287.15,-141.3 274.57,-132.88 193.36,-111.84 137.54,-98.02"/>
<polygon fill="#63b8ff" stroke="#63b8ff" points="138.33,-94.61 127.79,-95.61 136.66,-101.41 138.33,-94.61"/>
</a>
</g>
</g>
<!-- Node15 -->
<g id="Node000015" class="node">
<title>Node15</title>
<g id="a_Node000015"><a xlink:href="hash_8h.html" target="_top" xlink:title=" ">
<ellipse fill="white" stroke="#666666" cx="750.15" cy="-162.51" rx="88.28" ry="13.37"/>
<text text-anchor="middle" x="750.15" y="-160.01" font-family="Helvetica,sans-Serif" font-size="10.00">drake/common/hash.h</text>
</a>
</g>
</g>
<!-- Node3&#45;&gt;Node15 -->
<g id="edge21_Node000003_Node000015" class="edge">
<title>Node3&#45;&gt;Node15</title>
<g id="a_edge21_Node000003_Node000015"><a xlink:title=" ">
<path fill="none" stroke="#63b8ff" d="M584.53,-220.36C618.32,-208.76 670.01,-191.02 706.64,-178.44"/>
<polygon fill="#63b8ff" stroke="#63b8ff" points="708.22,-181.6 716.55,-175.04 705.95,-174.98 708.22,-181.6"/>
</a>
</g>
</g>
<!-- Node23 -->
<g id="Node000023" class="node">
<title>Node23</title>
<g id="a_Node000023"><a xlink:title=" ">
<ellipse fill="#e0e0e0" stroke="#999999" cx="934.15" cy="-162.51" rx="40.11" ry="13.37"/>
<text text-anchor="middle" x="934.15" y="-160.01" font-family="Helvetica,sans-Serif" font-size="10.00">ostream</text>
</a>
</g>
</g>
<!-- Node3&#45;&gt;Node23 -->
<g id="edge34_Node000003_Node000023" class="edge">
<title>Node3&#45;&gt;Node23</title>
<g id="a_edge34_Node000003_Node000023"><a xlink:title=" ">
<path fill="none" stroke="#63b8ff" d="M631.79,-225.05C699.17,-218.02 796.87,-205.16 880.15,-183.72 887.05,-181.95 894.29,-179.59 901.15,-177.12"/>
<polygon fill="#63b8ff" stroke="#63b8ff" points="902.71,-180.27 910.84,-173.47 900.25,-173.72 902.71,-180.27"/>
</a>
</g>
</g>
<!-- Node7&#45;&gt;Node5 -->
<g id="edge8_Node000007_Node000005" class="edge">
<title>Node7&#45;&gt;Node5</title>
<g id="a_edge8_Node000007_Node000005"><a xlink:title=" ">
<path fill="none" stroke="#63b8ff" d="M1114.84,-68.85C1103.7,-66.56 1092.11,-64.43 1081.15,-62.87 833.19,-27.52 531.93,-17.7 423.5,-15.21"/>
<polygon fill="#63b8ff" stroke="#63b8ff" points="423.39,-11.71 413.32,-14.99 423.24,-18.71 423.39,-11.71"/>
</a>
</g>
</g>
<!-- Node7&#45;&gt;Node6 -->
<g id="edge11_Node000007_Node000006" class="edge">
<title>Node7&#45;&gt;Node6</title>
<g id="a_edge11_Node000007_Node000006"><a xlink:title=" ">
<path fill="none" stroke="#63b8ff" d="M1205.05,-64.14C1222.42,-53.49 1243.86,-40.36 1260.33,-30.26"/>
<polygon fill="#63b8ff" stroke="#63b8ff" points="1262.21,-33.21 1268.91,-25 1258.55,-27.24 1262.21,-33.21"/>
</a>
</g>
</g>
<!-- Node8 -->
<g id="Node000008" class="node">
<title>Node8</title>
<g id="a_Node000008"><a xlink:title=" ">
<ellipse fill="#e0e0e0" stroke="#999999" cx="1190.15" cy="-13.44" rx="29.9" ry="13.37"/>
<text text-anchor="middle" x="1190.15" y="-10.94" font-family="Helvetica,sans-Serif" font-size="10.00">array</text>
</a>
</g>
</g>
<!-- Node7&#45;&gt;Node8 -->
<g id="edge7_Node000007_Node000008" class="edge">
<title>Node7&#45;&gt;Node8</title>
<g id="a_edge7_Node000007_Node000008"><a xlink:title=" ">
<path fill="none" stroke="#63b8ff" d="M1178.86,-62.86C1180.75,-54.74 1182.94,-45.34 1184.89,-37"/>
<polygon fill="#63b8ff" stroke="#63b8ff" points="1188.31,-37.71 1187.18,-27.18 1181.5,-36.12 1188.31,-37.71"/>
</a>
</g>
</g>
<!-- Node9 -->
<g id="Node000009" class="node">
<title>Node9</title>
<g id="a_Node000009"><a xlink:title=" ">
<ellipse fill="#e0e0e0" stroke="#999999" cx="1113.15" cy="-13.44" rx="28.98" ry="13.37"/>
<text text-anchor="middle" x="1113.15" y="-10.94" font-family="Helvetica,sans-Serif" font-size="10.00">tuple</text>
</a>
</g>
</g>
<!-- Node7&#45;&gt;Node9 -->
<g id="edge9_Node000007_Node000009" class="edge">
<title>Node7&#45;&gt;Node9</title>
<g id="a_edge9_Node000007_Node000009"><a xlink:title=" ">
<path fill="none" stroke="#63b8ff" d="M1156.5,-63.23C1148.23,-53.92 1138.41,-42.87 1130.21,-33.64"/>
<polygon fill="#63b8ff" stroke="#63b8ff" points="1132.76,-31.24 1123.5,-26.09 1127.53,-35.89 1132.76,-31.24"/>
</a>
</g>
</g>
<!-- Node10 -->
<g id="Node000010" class="node">
<title>Node10</title>
<g id="a_Node000010"><a xlink:title=" ">
<ellipse fill="#e0e0e0" stroke="#999999" cx="783.15" cy="-13.44" rx="48.58" ry="13.37"/>
<text text-anchor="middle" x="783.15" y="-10.94" font-family="Helvetica,sans-Serif" font-size="10.00">type_traits</text>
</a>
</g>
</g>
<!-- Node7&#45;&gt;Node10 -->
<g id="edge10_Node000007_Node000010" class="edge">
<title>Node7&#45;&gt;Node10</title>
<g id="a_edge10_Node000007_Node000010"><a xlink:title=" ">
<path fill="none" stroke="#63b8ff" d="M1113.21,-69.36C1102.54,-67.09 1091.53,-64.84 1081.15,-62.87 994.98,-46.52 894.15,-30.85 834.63,-21.96"/>
<polygon fill="#63b8ff" stroke="#63b8ff" points="835.13,-18.49 824.73,-20.48 834.1,-25.42 835.13,-18.49"/>
</a>
</g>
</g>
<!-- Node11&#45;&gt;Node5 -->
<g id="edge14_Node000011_Node000005" class="edge">
<title>Node11&#45;&gt;Node5</title>
<g id="a_edge14_Node000011_Node000005"><a xlink:title=" ">
<path fill="none" stroke="#63b8ff" d="M301.05,-64.14C318.53,-53.43 340.13,-40.19 356.64,-30.07"/>
<polygon fill="#63b8ff" stroke="#63b8ff" points="358.53,-33.02 365.23,-24.81 354.87,-27.05 358.53,-33.02"/>
</a>
</g>
</g>
<!-- Node12 -->
<g id="Node000012" class="node">
<title>Node12</title>
<g id="a_Node000012"><a xlink:title=" ">
<ellipse fill="#e0e0e0" stroke="#999999" cx="240.15" cy="-13.44" rx="51.74" ry="13.37"/>
<text text-anchor="middle" x="240.15" y="-10.94" font-family="Helvetica,sans-Serif" font-size="10.00">string_view</text>
</a>
</g>
</g>
<!-- Node11&#45;&gt;Node12 -->
<g id="edge15_Node000011_Node000012" class="edge">
<title>Node11&#45;&gt;Node12</title>
<g id="a_edge15_Node000011_Node000012"><a xlink:title=" ">
<path fill="none" stroke="#63b8ff" d="M261.31,-62.86C257.68,-54.56 253.47,-44.93 249.77,-36.45"/>
<polygon fill="#63b8ff" stroke="#63b8ff" points="252.93,-34.94 245.71,-27.18 246.51,-37.74 252.93,-34.94"/>
</a>
</g>
</g>
<!-- Node13&#45;&gt;Node5 -->
<g id="edge17_Node000013_Node000005" class="edge">
<title>Node13&#45;&gt;Node5</title>
<g id="a_edge17_Node000013_Node000005"><a xlink:title=" ">
<path fill="none" stroke="#63b8ff" d="M129.41,-72.66C188.6,-59.02 291.17,-35.39 345.66,-22.84"/>
<polygon fill="#63b8ff" stroke="#63b8ff" points="346.62,-26.21 355.58,-20.56 345.04,-19.39 346.62,-26.21"/>
</a>
</g>
</g>
<!-- Node13&#45;&gt;Node10 -->
<g id="edge19_Node000013_Node000010" class="edge">
<title>Node13&#45;&gt;Node10</title>
<g id="a_edge19_Node000013_Node000010"><a xlink:title=" ">
<path fill="none" stroke="#63b8ff" d="M126.98,-72.51C142.68,-68.97 160.64,-65.31 177.15,-62.87 376.91,-33.31 616.57,-20.88 724.91,-16.49"/>
<polygon fill="#63b8ff" stroke="#63b8ff" points="725.12,-19.98 734.98,-16.09 724.85,-12.99 725.12,-19.98"/>
</a>
</g>
</g>
<!-- Node13&#45;&gt;Node12 -->
<g id="edge18_Node000013_Node000012" class="edge">
<title>Node13&#45;&gt;Node12</title>
<g id="a_edge18_Node000013_Node000012"><a xlink:title=" ">
<path fill="none" stroke="#63b8ff" d="M110.96,-71.28C137.34,-59.68 177.7,-41.92 206.27,-29.34"/>
<polygon fill="#63b8ff" stroke="#63b8ff" points="207.73,-32.52 215.48,-25.29 204.91,-26.12 207.73,-32.52"/>
</a>
</g>
</g>
<!-- Node14 -->
<g id="Node000014" class="node">
<title>Node14</title>
<g id="a_Node000014"><a xlink:title=" ">
<ellipse fill="#e0e0e0" stroke="#999999" cx="84.15" cy="-13.44" rx="55.72" ry="13.37"/>
<text text-anchor="middle" x="84.15" y="-10.94" font-family="Helvetica,sans-Serif" font-size="10.00">fmt/format.h</text>
</a>
</g>
</g>
<!-- Node13&#45;&gt;Node14 -->
<g id="edge20_Node000013_Node000014" class="edge">
<title>Node13&#45;&gt;Node14</title>
<g id="a_edge20_Node000013_Node000014"><a xlink:title=" ">
<path fill="none" stroke="#63b8ff" d="M84.15,-70.49C84.15,-61.2 84.15,-48.3 84.15,-37.22"/>
<polygon fill="#63b8ff" stroke="#63b8ff" points="87.65,-36.95 84.15,-26.95 80.65,-36.95 87.65,-36.95"/>
</a>
</g>
</g>
<!-- Node15&#45;&gt;Node4 -->
<g id="edge24_Node000015_Node000004" class="edge">
<title>Node15&#45;&gt;Node4</title>
<g id="a_edge24_Node000015_Node000004"><a xlink:title=" ">
<path fill="none" stroke="#63b8ff" d="M807.19,-152.17C831.21,-148.44 859.49,-144.33 885.15,-141.3 1069,-119.58 1120.27,-149.1 1300.15,-105.3 1306.48,-103.75 1313.07,-101.52 1319.27,-99.09"/>
<polygon fill="#63b8ff" stroke="#63b8ff" points="1320.75,-102.26 1328.63,-95.18 1318.06,-95.8 1320.75,-102.26"/>
</a>
</g>
</g>
<!-- Node15&#45;&gt;Node5 -->
<g id="edge29_Node000015_Node000005" class="edge">
<title>Node15&#45;&gt;Node5</title>
<g id="a_edge29_Node000015_Node000005"><a xlink:title=" ">
<path fill="none" stroke="#63b8ff" d="M676.2,-155.05C596.8,-146.92 476.93,-130.85 439.15,-105.3 414.62,-88.71 398.57,-57.68 389.93,-36.55"/>
<polygon fill="#63b8ff" stroke="#63b8ff" points="393.14,-35.14 386.28,-27.07 386.61,-37.66 393.14,-35.14"/>
</a>
</g>
</g>
<!-- Node15&#45;&gt;Node6 -->
<g id="edge31_Node000015_Node000006" class="edge">
<title>Node15&#45;&gt;Node6</title>
<g id="a_edge31_Node000015_Node000006"><a xlink:title=" ">
<path fill="none" stroke="#63b8ff" d="M807.53,-152.21C831.48,-148.51 859.62,-144.41 885.15,-141.3 969.78,-130.98 1203.57,-162.11 1267.15,-105.3 1285.99,-88.46 1288.88,-58.15 1288.29,-37.2"/>
<polygon fill="#63b8ff" stroke="#63b8ff" points="1291.76,-36.73 1287.7,-26.94 1284.78,-37.12 1291.76,-36.73"/>
</a>
</g>
</g>
<!-- Node15&#45;&gt;Node7 -->
<g id="edge33_Node000015_Node000007" class="edge">
<title>Node15&#45;&gt;Node7</title>
<g id="a_edge33_Node000015_Node000007"><a xlink:title=" ">
<path fill="none" stroke="#63b8ff" d="M799.36,-151.35C816.08,-148 834.9,-144.36 852.15,-141.3 953.59,-123.28 979.88,-124.25 1081.15,-105.3 1088.37,-103.94 1095.9,-102.45 1103.4,-100.91"/>
<polygon fill="#63b8ff" stroke="#63b8ff" points="1104.14,-104.33 1113.22,-98.86 1102.71,-97.48 1104.14,-104.33"/>
</a>
</g>
</g>
<!-- Node15&#45;&gt;Node10 -->
<g id="edge30_Node000015_Node000010" class="edge">
<title>Node15&#45;&gt;Node10</title>
<g id="a_edge30_Node000015_Node000010"><a xlink:title=" ">
<path fill="none" stroke="#63b8ff" d="M753.4,-149.04C756.32,-137.67 760.69,-120.39 764.15,-105.3 769.44,-82.16 774.93,-55.58 778.64,-37.16"/>
<polygon fill="#63b8ff" stroke="#63b8ff" points="782.12,-37.6 780.65,-27.11 775.26,-36.23 782.12,-37.6"/>
</a>
</g>
</g>
<!-- Node16 -->
<g id="Node000016" class="node">
<title>Node16</title>
<g id="a_Node000016"><a xlink:title=" ">
<ellipse fill="#e0e0e0" stroke="#999999" cx="629.15" cy="-84.08" rx="33.47" ry="13.37"/>
<text text-anchor="middle" x="629.15" y="-81.58" font-family="Helvetica,sans-Serif" font-size="10.00">cmath</text>
</a>
</g>
</g>
<!-- Node15&#45;&gt;Node16 -->
<g id="edge22_Node000015_Node000016" class="edge">
<title>Node15&#45;&gt;Node16</title>
<g id="a_edge22_Node000015_Node000016"><a xlink:title=" ">
<path fill="none" stroke="#63b8ff" d="M730.7,-149.23C710.06,-136.19 677.35,-115.53 654.65,-101.19"/>
<polygon fill="#63b8ff" stroke="#63b8ff" points="656.52,-98.23 646.19,-95.85 652.78,-104.15 656.52,-98.23"/>
</a>
</g>
</g>
<!-- Node17 -->
<g id="Node000017" class="node">
<title>Node17</title>
<g id="a_Node000017"><a xlink:title=" ">
<ellipse fill="#e0e0e0" stroke="#999999" cx="718.15" cy="-84.08" rx="37.45" ry="13.37"/>
<text text-anchor="middle" x="718.15" y="-81.58" font-family="Helvetica,sans-Serif" font-size="10.00">cstddef</text>
</a>
</g>
</g>
<!-- Node15&#45;&gt;Node17 -->
<g id="edge23_Node000015_Node000017" class="edge">
<title>Node15&#45;&gt;Node17</title>
<g id="a_edge23_Node000015_Node000017"><a xlink:title=" ">
<path fill="none" stroke="#63b8ff" d="M744.86,-148.89C740.11,-137.54 733.02,-120.61 727.34,-107.04"/>
<polygon fill="#63b8ff" stroke="#63b8ff" points="730.42,-105.34 723.33,-97.47 723.97,-108.04 730.42,-105.34"/>
</a>
</g>
</g>
<!-- Node18 -->
<g id="Node000018" class="node">
<title>Node18</title>
<g id="a_Node000018"><a xlink:title=" ">
<ellipse fill="#e0e0e0" stroke="#999999" cx="857.15" cy="-84.08" rx="45.92" ry="13.37"/>
<text text-anchor="middle" x="857.15" y="-81.58" font-family="Helvetica,sans-Serif" font-size="10.00">functional</text>
</a>
</g>
</g>
<!-- Node15&#45;&gt;Node18 -->
<g id="edge25_Node000015_Node000018" class="edge">
<title>Node15&#45;&gt;Node18</title>
<g id="a_edge25_Node000015_Node000018"><a xlink:title=" ">
<path fill="none" stroke="#63b8ff" d="M767.34,-149.23C784.94,-136.66 812.46,-117 832.4,-102.76"/>
<polygon fill="#63b8ff" stroke="#63b8ff" points="834.6,-105.49 840.7,-96.83 830.53,-99.79 834.6,-105.49"/>
</a>
</g>
</g>
<!-- Node19 -->
<g id="Node000019" class="node">
<title>Node19</title>
<g id="a_Node000019"><a xlink:title=" ">
<ellipse fill="#e0e0e0" stroke="#999999" cx="948.15" cy="-84.08" rx="26.74" ry="13.37"/>
<text text-anchor="middle" x="948.15" y="-81.58" font-family="Helvetica,sans-Serif" font-size="10.00">map</text>
</a>
</g>
</g>
<!-- Node15&#45;&gt;Node19 -->
<g id="edge26_Node000015_Node000019" class="edge">
<title>Node15&#45;&gt;Node19</title>
<g id="a_edge26_Node000015_Node000019"><a xlink:title=" ">
<path fill="none" stroke="#63b8ff" d="M788.53,-150.31C821.83,-140.09 871.02,-123.8 912.15,-105.3 915.79,-103.66 919.56,-101.77 923.22,-99.83"/>
<polygon fill="#63b8ff" stroke="#63b8ff" points="924.93,-102.88 931.98,-94.97 921.53,-96.76 924.93,-102.88"/>
</a>
</g>
</g>
<!-- Node20 -->
<g id="Node000020" class="node">
<title>Node20</title>
<g id="a_Node000020"><a xlink:title=" ">
<ellipse fill="#e0e0e0" stroke="#999999" cx="1032.15" cy="-84.08" rx="39.7" ry="13.37"/>
<text text-anchor="middle" x="1032.15" y="-81.58" font-family="Helvetica,sans-Serif" font-size="10.00">optional</text>
</a>
</g>
</g>
<!-- Node15&#45;&gt;Node20 -->
<g id="edge27_Node000015_Node000020" class="edge">
<title>Node15&#45;&gt;Node20</title>
<g id="a_edge27_Node000015_Node000020"><a xlink:title=" ">
<path fill="none" stroke="#63b8ff" d="M801.94,-151.6C849.81,-141.84 922.62,-125.49 984.15,-105.3 989.52,-103.53 995.12,-101.43 1000.53,-99.25"/>
<polygon fill="#63b8ff" stroke="#63b8ff" points="1002.09,-102.39 1009.97,-95.31 999.39,-95.93 1002.09,-102.39"/>
</a>
</g>
</g>
<!-- Node21 -->
<g id="Node000021" class="node">
<title>Node21</title>
<g id="a_Node000021"><a xlink:title=" ">
<ellipse fill="#e0e0e0" stroke="#999999" cx="471.15" cy="-84.08" rx="22.76" ry="13.37"/>
<text text-anchor="middle" x="471.15" y="-81.58" font-family="Helvetica,sans-Serif" font-size="10.00">set</text>
</a>
</g>
</g>
<!-- Node15&#45;&gt;Node21 -->
<g id="edge28_Node000015_Node000021" class="edge">
<title>Node15&#45;&gt;Node21</title>
<g id="a_edge28_Node000015_Node000021"><a xlink:title=" ">
<path fill="none" stroke="#63b8ff" d="M686.67,-153.14C635.68,-144.99 562.95,-130.13 503.15,-105.3 499.83,-103.92 496.47,-102.21 493.24,-100.37"/>
<polygon fill="#63b8ff" stroke="#63b8ff" points="494.95,-97.31 484.6,-95.02 491.26,-103.26 494.95,-97.31"/>
</a>
</g>
</g>
<!-- Node22 -->
<g id="Node000022" class="node">
<title>Node22</title>
<g id="a_Node000022"><a xlink:title=" ">
<ellipse fill="#e0e0e0" stroke="#999999" cx="545.15" cy="-84.08" rx="33.47" ry="13.37"/>
<text text-anchor="middle" x="545.15" y="-81.58" font-family="Helvetica,sans-Serif" font-size="10.00">vector</text>
</a>
</g>
</g>
<!-- Node15&#45;&gt;Node22 -->
<g id="edge32_Node000015_Node000022" class="edge">
<title>Node15&#45;&gt;Node22</title>
<g id="a_edge32_Node000015_Node000022"><a xlink:title=" ">
<path fill="none" stroke="#63b8ff" d="M713.44,-150.2C680.1,-139.62 629.78,-122.84 587.15,-105.3 582.82,-103.52 578.3,-101.51 573.91,-99.47"/>
<polygon fill="#63b8ff" stroke="#63b8ff" points="575.12,-96.17 564.59,-95.02 572.11,-102.49 575.12,-96.17"/>
</a>
</g>
</g>
</g>
</svg>
