<?xml version="1.0" encoding="UTF-8" standalone="no"?>
<!DOCTYPE svg PUBLIC "-//W3C//DTD SVG 1.1//EN"
 "http://www.w3.org/Graphics/SVG/1.1/DTD/svg11.dtd">
<!-- Generated by graphviz version 2.43.0 (0)
 -->
<!-- Title: drake/geometry/geometry_ids.h Pages: 1 -->
<!--zoomable 352 -->
<svg id="main" version="1.1" xmlns="http://www.w3.org/2000/svg" xmlns:xlink="http://www.w3.org/1999/xlink" xml:space="preserve" onload="init(evt)">
<style type="text/css"><![CDATA[
.edge:hover path { stroke: red; }
.edge:hover polygon { stroke: red; fill: red; }
]]></style>
<script type="text/javascript"><![CDATA[
var edges = document.getElementsByTagName('g');
if (edges && edges.length) {
  for (var i=0;i<edges.length;i++) {
    if (edges[i].id.substr(0,4)=='edge') {
      edges[i].setAttribute('class','edge');
    }
  }
}
]]></script>
        <defs>
                <circle id="rim" cx="0" cy="0" r="7"/>
                <circle id="rim2" cx="0" cy="0" r="3.5"/>
                <g id="zoomPlus">
                        <use xlink:href="#rim" fill="#404040">
                                <set attributeName="fill" to="#808080" begin="zoomplus.mouseover" end="zoomplus.mouseout"/>
                        </use>
                        <path d="M-4,0h8M0,-4v8" fill="none" stroke="white" stroke-width="1.5" pointer-events="none"/>
                </g>
                <g id="zoomMin">
                        <use xlink:href="#rim" fill="#404040">
                                <set attributeName="fill" to="#808080" begin="zoomminus.mouseover" end="zoomminus.mouseout"/>
                        </use>
                        <path d="M-4,0h8" fill="none" stroke="white" stroke-width="1.5" pointer-events="none"/>
                </g>
                <g id="dirArrow">
                        <path fill="none" stroke="white" stroke-width="1.5" d="M0,-3.0v7 M-2.5,-0.5L0,-3.0L2.5,-0.5"/>
                </g>
               <g id="resetDef">
                       <use xlink:href="#rim2" fill="#404040">
                               <set attributeName="fill" to="#808080" begin="reset.mouseover" end="reset.mouseout"/>
                       </use>
               </g>
        </defs>

<script type="text/javascript">
var viewWidth = 795;
var viewHeight = 352;
var sectionId = 'dynsection-0';
</script>
<script xlink:href="svgpan.js"/>
<svg id="graph" class="graph">
<g id="viewport">
<title>drake/geometry/geometry_ids.h</title>
<polygon fill="white" stroke="transparent" points="-4,4 -4,-348 790.5,-348 790.5,4 -4,4"/>
<!-- Node0 -->
<g id="node1" class="node">
<title>Node0</title>
<g id="a_node1"><a xlink:title=" ">
<polygon fill="#bfbfbf" stroke="black" points="268.5,-313.5 268.5,-343.5 412.5,-343.5 412.5,-313.5 268.5,-313.5"/>
<text text-anchor="start" x="276.5" y="-331.5" font-family="Helvetica,sans-Serif" font-size="10.00">drake/geometry/geometry</text>
<text text-anchor="middle" x="340.5" y="-320.5" font-family="Helvetica,sans-Serif" font-size="10.00">_ids.h</text>
</a>
</g>
</g>
<!-- Node1 -->
<g id="node2" class="node">
<title>Node1</title>
<g id="a_node2"><a xlink:href="drake__copyable_8h.html" target="_top" xlink:title="Provides careful macros to selectively enable or disable the special member functions for copy&#45;constr...">
<polygon fill="white" stroke="black" points="192,-190.5 192,-220.5 311,-220.5 311,-190.5 192,-190.5"/>
<text text-anchor="start" x="200" y="-208.5" font-family="Helvetica,sans-Serif" font-size="10.00">drake/common/drake</text>
<text text-anchor="middle" x="251.5" y="-197.5" font-family="Helvetica,sans-Serif" font-size="10.00">_copyable.h</text>
</a>
</g>
</g>
<!-- Node0&#45;&gt;Node1 -->
<g id="edge1" class="edge">
<title>Node0&#45;&gt;Node1</title>
<path fill="none" stroke="midnightblue" d="M329.94,-313.14C314.62,-292.31 286.08,-253.51 267.97,-228.9"/>
<polygon fill="midnightblue" stroke="midnightblue" points="270.79,-226.82 262.05,-220.84 265.15,-230.97 270.79,-226.82"/>
</g>
<!-- Node2 -->
<g id="node3" class="node">
<title>Node2</title>
<g id="a_node3"><a xlink:href="identifier_8h.html" target="_top" xlink:title=" ">
<polygon fill="white" stroke="black" points="357.5,-257.5 357.5,-276.5 503.5,-276.5 503.5,-257.5 357.5,-257.5"/>
<text text-anchor="middle" x="430.5" y="-264.5" font-family="Helvetica,sans-Serif" font-size="10.00">drake/common/identifier.h</text>
</a>
</g>
</g>
<!-- Node0&#45;&gt;Node2 -->
<g id="edge2" class="edge">
<title>Node0&#45;&gt;Node2</title>
<path fill="none" stroke="midnightblue" d="M361.83,-313.4C375.99,-304.04 394.51,-291.79 408.75,-282.38"/>
<polygon fill="midnightblue" stroke="midnightblue" points="410.99,-285.09 417.4,-276.66 407.13,-279.25 410.99,-285.09"/>
</g>
<!-- Node2&#45;&gt;Node1 -->
<g id="edge6" class="edge">
<title>Node2&#45;&gt;Node1</title>
<path fill="none" stroke="midnightblue" d="M404.85,-257.48C378.46,-248.7 336.6,-234.79 303.28,-223.71"/>
<polygon fill="midnightblue" stroke="midnightblue" points="304.28,-220.36 293.69,-220.52 302.07,-227 304.28,-220.36"/>
</g>
<!-- Node3 -->
<g id="node4" class="node">
<title>Node3</title>
<g id="a_node4"><a xlink:title=" ">
<polygon fill="white" stroke="#bfbfbf" points="511.5,-196 511.5,-215 561.5,-215 561.5,-196 511.5,-196"/>
<text text-anchor="middle" x="536.5" y="-203" font-family="Helvetica,sans-Serif" font-size="10.00">cstdint</text>
</a>
</g>
</g>
<!-- Node2&#45;&gt;Node3 -->
<g id="edge3" class="edge">
<title>Node2&#45;&gt;Node3</title>
<path fill="none" stroke="midnightblue" d="M445.69,-257.48C463.16,-247.67 492.08,-231.43 512.58,-219.92"/>
<polygon fill="midnightblue" stroke="midnightblue" points="514.33,-222.96 521.34,-215.01 510.91,-216.85 514.33,-222.96"/>
</g>
<!-- Node4 -->
<g id="node5" class="node">
<title>Node4</title>
<g id="a_node5"><a xlink:title=" ">
<polygon fill="white" stroke="#bfbfbf" points="580,-196 580,-215 637,-215 637,-196 580,-196"/>
<text text-anchor="middle" x="608.5" y="-203" font-family="Helvetica,sans-Serif" font-size="10.00">ostream</text>
</a>
</g>
</g>
<!-- Node2&#45;&gt;Node4 -->
<g id="edge4" class="edge">
<title>Node2&#45;&gt;Node4</title>
<path fill="none" stroke="midnightblue" d="M458.54,-257.47C486.91,-248.73 531.96,-234.54 570.5,-221 572.61,-220.26 574.78,-219.48 576.96,-218.68"/>
<polygon fill="midnightblue" stroke="midnightblue" points="578.32,-221.91 586.47,-215.13 575.88,-215.35 578.32,-221.91"/>
</g>
<!-- Node5 -->
<g id="node6" class="node">
<title>Node5</title>
<g id="a_node6"><a xlink:title=" ">
<polygon fill="white" stroke="#bfbfbf" points="742.5,-129 742.5,-148 786.5,-148 786.5,-129 742.5,-129"/>
<text text-anchor="middle" x="764.5" y="-136" font-family="Helvetica,sans-Serif" font-size="10.00">string</text>
</a>
</g>
</g>
<!-- Node2&#45;&gt;Node5 -->
<g id="edge5" class="edge">
<title>Node2&#45;&gt;Node5</title>
<path fill="none" stroke="midnightblue" d="M503.7,-258.14C546.59,-251.74 601.08,-240.47 646.5,-221 685.69,-204.2 725.26,-173.4 747.16,-154.85"/>
<polygon fill="midnightblue" stroke="midnightblue" points="749.61,-157.36 754.9,-148.18 745.04,-152.06 749.61,-157.36"/>
</g>
<!-- Node6 -->
<g id="node7" class="node">
<title>Node6</title>
<g id="a_node7"><a xlink:href="drake__throw_8h.html" target="_top" xlink:title="Provides a convenient wrapper to throw an exception when a condition is unmet.">
<polygon fill="white" stroke="black" points="0,-123.5 0,-153.5 119,-153.5 119,-123.5 0,-123.5"/>
<text text-anchor="start" x="8" y="-141.5" font-family="Helvetica,sans-Serif" font-size="10.00">drake/common/drake</text>
<text text-anchor="middle" x="59.5" y="-130.5" font-family="Helvetica,sans-Serif" font-size="10.00">_throw.h</text>
</a>
</g>
</g>
<!-- Node2&#45;&gt;Node6 -->
<g id="edge7" class="edge">
<title>Node2&#45;&gt;Node6</title>
<path fill="none" stroke="midnightblue" d="M416.06,-257.47C401.51,-248.73 378.53,-234.53 359.5,-221 341.46,-208.17 340.64,-199.2 320.5,-190 244.38,-155.23 215.74,-169.77 129.29,-154.05"/>
<polygon fill="midnightblue" stroke="midnightblue" points="129.8,-150.59 119.32,-152.15 128.49,-157.46 129.8,-150.59"/>
</g>
<!-- Node9 -->
<g id="node10" class="node">
<title>Node9</title>
<g id="a_node10"><a xlink:href="hash_8h.html" target="_top" xlink:title=" ">
<polygon fill="white" stroke="black" points="368,-196 368,-215 493,-215 493,-196 368,-196"/>
<text text-anchor="middle" x="430.5" y="-203" font-family="Helvetica,sans-Serif" font-size="10.00">drake/common/hash.h</text>
</a>
</g>
</g>
<!-- Node2&#45;&gt;Node9 -->
<g id="edge11" class="edge">
<title>Node2&#45;&gt;Node9</title>
<path fill="none" stroke="midnightblue" d="M430.5,-257.48C430.5,-249.08 430.5,-235.98 430.5,-225.16"/>
<polygon fill="midnightblue" stroke="midnightblue" points="434,-225.01 430.5,-215.01 427,-225.01 434,-225.01"/>
</g>
<!-- Node7 -->
<g id="node8" class="node">
<title>Node7</title>
<g id="a_node8"><a xlink:title=" ">
<polygon fill="white" stroke="#bfbfbf" points="307,-0.5 307,-19.5 376,-19.5 376,-0.5 307,-0.5"/>
<text text-anchor="middle" x="341.5" y="-7.5" font-family="Helvetica,sans-Serif" font-size="10.00">type_traits</text>
</a>
</g>
</g>
<!-- Node6&#45;&gt;Node7 -->
<g id="edge8" class="edge">
<title>Node6&#45;&gt;Node7</title>
<path fill="none" stroke="midnightblue" d="M90.76,-123.48C145.97,-98.71 259.95,-47.58 313.08,-23.75"/>
<polygon fill="midnightblue" stroke="midnightblue" points="314.57,-26.92 322.26,-19.63 311.7,-20.53 314.57,-26.92"/>
</g>
<!-- Node8 -->
<g id="node9" class="node">
<title>Node8</title>
<g id="a_node9"><a xlink:href="drake__assert_8h.html" target="_top" xlink:title="Provides Drake&#39;s assertion implementation.">
<polygon fill="white" stroke="black" points="282,-56.5 282,-86.5 401,-86.5 401,-56.5 282,-56.5"/>
<text text-anchor="start" x="290" y="-74.5" font-family="Helvetica,sans-Serif" font-size="10.00">drake/common/drake</text>
<text text-anchor="middle" x="341.5" y="-63.5" font-family="Helvetica,sans-Serif" font-size="10.00">_assert.h</text>
</a>
</g>
</g>
<!-- Node6&#45;&gt;Node8 -->
<g id="edge9" class="edge">
<title>Node6&#45;&gt;Node8</title>
<path fill="none" stroke="midnightblue" d="M119.3,-123.72C163.98,-113.42 225.16,-99.32 272.01,-88.52"/>
<polygon fill="midnightblue" stroke="midnightblue" points="272.82,-91.92 281.78,-86.26 271.25,-85.1 272.82,-91.92"/>
</g>
<!-- Node8&#45;&gt;Node7 -->
<g id="edge10" class="edge">
<title>Node8&#45;&gt;Node7</title>
<path fill="none" stroke="midnightblue" d="M341.5,-56.4C341.5,-48.47 341.5,-38.46 341.5,-29.86"/>
<polygon fill="midnightblue" stroke="midnightblue" points="345,-29.66 341.5,-19.66 338,-29.66 345,-29.66"/>
</g>
<!-- Node9&#45;&gt;Node5 -->
<g id="edge18" class="edge">
<title>Node9&#45;&gt;Node5</title>
<path fill="none" stroke="midnightblue" d="M471.18,-195.98C481.39,-193.93 492.33,-191.82 502.5,-190 604.79,-171.74 634.11,-184.31 733.5,-154 735.38,-153.43 737.28,-152.76 739.18,-152.04"/>
<polygon fill="midnightblue" stroke="midnightblue" points="740.62,-155.23 748.43,-148.07 737.86,-148.79 740.62,-155.23"/>
</g>
<!-- Node9&#45;&gt;Node6 -->
<g id="edge23" class="edge">
<title>Node9&#45;&gt;Node6</title>
<path fill="none" stroke="midnightblue" d="M386.16,-195.93C375.47,-193.93 364.09,-191.84 353.5,-190 256.85,-173.17 229.76,-172.45 129.26,-154.09"/>
<polygon fill="midnightblue" stroke="midnightblue" points="129.77,-150.62 119.3,-152.25 128.51,-157.51 129.77,-150.62"/>
</g>
<!-- Node9&#45;&gt;Node7 -->
<g id="edge19" class="edge">
<title>Node9&#45;&gt;Node7</title>
<path fill="none" stroke="midnightblue" d="M436.36,-195.93C445.78,-181.07 462.44,-149.57 454.5,-123 444.29,-88.87 435.73,-81.15 410.5,-56 397.99,-43.53 381.49,-32.62 367.77,-24.66"/>
<polygon fill="midnightblue" stroke="midnightblue" points="369.22,-21.47 358.79,-19.65 365.81,-27.58 369.22,-21.47"/>
</g>
<!-- Node9&#45;&gt;Node8 -->
<g id="edge22" class="edge">
<title>Node9&#45;&gt;Node8</title>
<path fill="none" stroke="midnightblue" d="M434.34,-195.9C440.72,-180.16 451.52,-146.22 437.5,-123 428.95,-108.85 414.98,-98.47 400.31,-90.93"/>
<polygon fill="midnightblue" stroke="midnightblue" points="401.66,-87.7 391.12,-86.6 398.68,-94.03 401.66,-87.7"/>
</g>
<!-- Node10 -->
<g id="node11" class="node">
<title>Node10</title>
<g id="a_node11"><a xlink:title=" ">
<polygon fill="white" stroke="#bfbfbf" points="523,-129 523,-148 570,-148 570,-129 523,-129"/>
<text text-anchor="middle" x="546.5" y="-136" font-family="Helvetica,sans-Serif" font-size="10.00">cmath</text>
</a>
</g>
</g>
<!-- Node9&#45;&gt;Node10 -->
<g id="edge12" class="edge">
<title>Node9&#45;&gt;Node10</title>
<path fill="none" stroke="midnightblue" d="M446.14,-195.73C465.71,-184.77 499.42,-165.88 522.32,-153.05"/>
<polygon fill="midnightblue" stroke="midnightblue" points="524.09,-156.07 531.1,-148.13 520.67,-149.96 524.09,-156.07"/>
</g>
<!-- Node11 -->
<g id="node12" class="node">
<title>Node11</title>
<g id="a_node12"><a xlink:title=" ">
<polygon fill="white" stroke="#bfbfbf" points="588,-129 588,-148 641,-148 641,-129 588,-129"/>
<text text-anchor="middle" x="614.5" y="-136" font-family="Helvetica,sans-Serif" font-size="10.00">cstddef</text>
</a>
</g>
</g>
<!-- Node9&#45;&gt;Node11 -->
<g id="edge13" class="edge">
<title>Node9&#45;&gt;Node11</title>
<path fill="none" stroke="midnightblue" d="M457.33,-196C487.31,-186.36 537.19,-169.91 579.5,-154 581.35,-153.31 583.24,-152.57 585.15,-151.83"/>
<polygon fill="midnightblue" stroke="midnightblue" points="586.64,-155 594.6,-148.01 584.02,-148.51 586.64,-155"/>
</g>
<!-- Node12 -->
<g id="node13" class="node">
<title>Node12</title>
<g id="a_node13"><a xlink:title=" ">
<polygon fill="white" stroke="#bfbfbf" points="659,-129 659,-148 724,-148 724,-129 659,-129"/>
<text text-anchor="middle" x="691.5" y="-136" font-family="Helvetica,sans-Serif" font-size="10.00">functional</text>
</a>
</g>
</g>
<!-- Node9&#45;&gt;Node12 -->
<g id="edge14" class="edge">
<title>Node9&#45;&gt;Node12</title>
<path fill="none" stroke="midnightblue" d="M470.45,-195.9C524.25,-184.23 617.1,-163.7 650.5,-154 653.29,-153.19 656.16,-152.3 659.03,-151.36"/>
<polygon fill="midnightblue" stroke="midnightblue" points="660.32,-154.62 668.66,-148.1 658.07,-147.99 660.32,-154.62"/>
</g>
<!-- Node13 -->
<g id="node14" class="node">
<title>Node13</title>
<g id="a_node14"><a xlink:title=" ">
<polygon fill="white" stroke="#bfbfbf" points="137.5,-129 137.5,-148 175.5,-148 175.5,-129 137.5,-129"/>
<text text-anchor="middle" x="156.5" y="-136" font-family="Helvetica,sans-Serif" font-size="10.00">map</text>
</a>
</g>
</g>
<!-- Node9&#45;&gt;Node13 -->
<g id="edge15" class="edge">
<title>Node9&#45;&gt;Node13</title>
<path fill="none" stroke="midnightblue" d="M385.68,-195.99C319.97,-183.41 203.23,-160.63 184.5,-154 183.25,-153.56 181.99,-153.07 180.73,-152.55"/>
<polygon fill="midnightblue" stroke="midnightblue" points="181.81,-149.19 171.27,-148.11 178.84,-155.53 181.81,-149.19"/>
</g>
<!-- Node14 -->
<g id="node15" class="node">
<title>Node14</title>
<g id="a_node15"><a xlink:title=" ">
<polygon fill="white" stroke="#bfbfbf" points="193.5,-129 193.5,-148 249.5,-148 249.5,-129 193.5,-129"/>
<text text-anchor="middle" x="221.5" y="-136" font-family="Helvetica,sans-Serif" font-size="10.00">optional</text>
</a>
</g>
</g>
<!-- Node9&#45;&gt;Node14 -->
<g id="edge16" class="edge">
<title>Node9&#45;&gt;Node14</title>
<path fill="none" stroke="midnightblue" d="M398.22,-195.93C363.45,-186.5 306.65,-170.47 258.5,-154 256.38,-153.27 254.2,-152.5 252.01,-151.7"/>
<polygon fill="midnightblue" stroke="midnightblue" points="253.1,-148.37 242.51,-148.1 250.63,-154.92 253.1,-148.37"/>
</g>
<!-- Node15 -->
<g id="node16" class="node">
<title>Node15</title>
<g id="a_node16"><a xlink:title=" ">
<polygon fill="white" stroke="#bfbfbf" points="267.5,-129 267.5,-148 299.5,-148 299.5,-129 267.5,-129"/>
<text text-anchor="middle" x="283.5" y="-136" font-family="Helvetica,sans-Serif" font-size="10.00">set</text>
</a>
</g>
</g>
<!-- Node9&#45;&gt;Node15 -->
<g id="edge17" class="edge">
<title>Node9&#45;&gt;Node15</title>
<path fill="none" stroke="midnightblue" d="M407.86,-195.94C383.3,-186.45 343.08,-170.31 309.5,-154 308.69,-153.6 307.86,-153.2 307.03,-152.78"/>
<polygon fill="midnightblue" stroke="midnightblue" points="308.67,-149.68 298.2,-148.08 305.38,-155.86 308.67,-149.68"/>
</g>
<!-- Node16 -->
<g id="node17" class="node">
<title>Node16</title>
<g id="a_node17"><a xlink:title=" ">
<polygon fill="white" stroke="#bfbfbf" points="318,-129 318,-148 363,-148 363,-129 318,-129"/>
<text text-anchor="middle" x="340.5" y="-136" font-family="Helvetica,sans-Serif" font-size="10.00">utility</text>
</a>
</g>
</g>
<!-- Node9&#45;&gt;Node16 -->
<g id="edge20" class="edge">
<title>Node9&#45;&gt;Node16</title>
<path fill="none" stroke="midnightblue" d="M418.36,-195.73C403.65,-185.11 378.64,-167.05 360.94,-154.26"/>
<polygon fill="midnightblue" stroke="midnightblue" points="362.6,-151.14 352.45,-148.13 358.5,-156.82 362.6,-151.14"/>
</g>
<!-- Node17 -->
<g id="node18" class="node">
<title>Node17</title>
<g id="a_node18"><a xlink:title=" ">
<polygon fill="white" stroke="#bfbfbf" points="381,-129 381,-148 428,-148 428,-129 381,-129"/>
<text text-anchor="middle" x="404.5" y="-136" font-family="Helvetica,sans-Serif" font-size="10.00">vector</text>
</a>
</g>
</g>
<!-- Node9&#45;&gt;Node17 -->
<g id="edge21" class="edge">
<title>Node9&#45;&gt;Node17</title>
<path fill="none" stroke="midnightblue" d="M426.99,-195.73C423.1,-185.99 416.69,-169.98 411.71,-157.53"/>
<polygon fill="midnightblue" stroke="midnightblue" points="414.91,-156.11 407.95,-148.13 408.42,-158.71 414.91,-156.11"/>
</g>
</g>
</svg>
        <g id="navigator" transform="translate(0 0)" fill="#404254">
                <rect fill="#f2f5e9" fill-opacity="0.5" stroke="#606060" stroke-width=".5" x="0" y="0" width="60" height="60"/>
                <use id="zoomplus" xlink:href="#zoomPlus" x="17" y="9" onmousedown="handleZoom(evt,'in')"/>
                <use id="zoomminus" xlink:href="#zoomMin" x="42" y="9" onmousedown="handleZoom(evt,'out')"/>
                <use id="reset" xlink:href="#resetDef" x="30" y="36" onmousedown="handleReset()"/>
                <g id="arrowUp" xlink:href="#dirArrow" transform="translate(30 24)" onmousedown="handlePan(0,-1)">
                  <use xlink:href="#rim" fill="#404040">
                        <set attributeName="fill" to="#808080" begin="arrowUp.mouseover" end="arrowUp.mouseout"/>
                  </use>
                  <path fill="none" stroke="white" stroke-width="1.5" d="M0,-3.0v7 M-2.5,-0.5L0,-3.0L2.5,-0.5"/>
                </g>
                <g id="arrowRight" xlink:href="#dirArrow" transform="rotate(90) translate(36 -43)" onmousedown="handlePan(1,0)">
                  <use xlink:href="#rim" fill="#404040">
                        <set attributeName="fill" to="#808080" begin="arrowRight.mouseover" end="arrowRight.mouseout"/>
                  </use>
                  <path fill="none" stroke="white" stroke-width="1.5" d="M0,-3.0v7 M-2.5,-0.5L0,-3.0L2.5,-0.5"/>
                </g>
                <g id="arrowDown" xlink:href="#dirArrow" transform="rotate(180) translate(-30 -48)" onmousedown="handlePan(0,1)">
                  <use xlink:href="#rim" fill="#404040">
                        <set attributeName="fill" to="#808080" begin="arrowDown.mouseover" end="arrowDown.mouseout"/>
                  </use>
                  <path fill="none" stroke="white" stroke-width="1.5" d="M0,-3.0v7 M-2.5,-0.5L0,-3.0L2.5,-0.5"/>
                </g>
                <g id="arrowLeft" xlink:href="#dirArrow" transform="rotate(270) translate(-36 17)" onmousedown="handlePan(-1,0)">
                  <use xlink:href="#rim" fill="#404040">
                        <set attributeName="fill" to="#808080" begin="arrowLeft.mouseover" end="arrowLeft.mouseout"/>
                  </use>
                  <path fill="none" stroke="white" stroke-width="1.5" d="M0,-3.0v7 M-2.5,-0.5L0,-3.0L2.5,-0.5"/>
                </g>
        </g>
        <svg viewBox="0 0 15 15" width="100%" height="30px" preserveAspectRatio="xMaxYMin meet">
         <g id="arrow_out" transform="scale(0.3 0.3)">
          <a xlink:href="geometry__ids_8h__incl_org.svg" target="_base">
           <rect id="button" ry="5" rx="5" y="6" x="6" height="38" width="38"
                fill="#f2f5e9" fill-opacity="0.5" stroke="#606060" stroke-width="1.0"/>
           <path id="arrow"
             d="M 11.500037,31.436501 C 11.940474,20.09759 22.043105,11.32322 32.158766,21.979434 L 37.068811,17.246167 C 37.068811,17.246167 37.088388,32 37.088388,32 L 22.160133,31.978069 C 22.160133,31.978069 26.997745,27.140456 26.997745,27.140456 C 18.528582,18.264221 13.291696,25.230495 11.500037,31.436501 z"
             style="fill:#404040;"/>
          </a>
         </g>
        </svg>
</svg>
