<?xml version="1.0" encoding="UTF-8" standalone="no"?>
<!DOCTYPE svg PUBLIC "-//W3C//DTD SVG 1.1//EN"
 "http://www.w3.org/Graphics/SVG/1.1/DTD/svg11.dtd">
<!-- Generated by graphviz version 2.43.0 (0)
 -->
<!-- Title: drake/geometry/geometry_properties.h Pages: 1 -->
<!--zoomable 352 -->
<svg id="main" version="1.1" xmlns="http://www.w3.org/2000/svg" xmlns:xlink="http://www.w3.org/1999/xlink" xml:space="preserve" onload="init(evt)">
<style type="text/css"><![CDATA[
.edge:hover path { stroke: red; }
.edge:hover polygon { stroke: red; fill: red; }
]]></style>
<script type="text/javascript"><![CDATA[
var edges = document.getElementsByTagName('g');
if (edges && edges.length) {
  for (var i=0;i<edges.length;i++) {
    if (edges[i].id.substr(0,4)=='edge') {
      edges[i].setAttribute('class','edge');
    }
  }
}
]]></script>
        <defs>
                <circle id="rim" cx="0" cy="0" r="7"/>
                <circle id="rim2" cx="0" cy="0" r="3.5"/>
                <g id="zoomPlus">
                        <use xlink:href="#rim" fill="#404040">
                                <set attributeName="fill" to="#808080" begin="zoomplus.mouseover" end="zoomplus.mouseout"/>
                        </use>
                        <path d="M-4,0h8M0,-4v8" fill="none" stroke="white" stroke-width="1.5" pointer-events="none"/>
                </g>
                <g id="zoomMin">
                        <use xlink:href="#rim" fill="#404040">
                                <set attributeName="fill" to="#808080" begin="zoomminus.mouseover" end="zoomminus.mouseout"/>
                        </use>
                        <path d="M-4,0h8" fill="none" stroke="white" stroke-width="1.5" pointer-events="none"/>
                </g>
                <g id="dirArrow">
                        <path fill="none" stroke="white" stroke-width="1.5" d="M0,-3.0v7 M-2.5,-0.5L0,-3.0L2.5,-0.5"/>
                </g>
               <g id="resetDef">
                       <use xlink:href="#rim2" fill="#404040">
                               <set attributeName="fill" to="#808080" begin="reset.mouseover" end="reset.mouseout"/>
                       </use>
               </g>
        </defs>

<script type="text/javascript">
var viewWidth = 2077;
var viewHeight = 352;
var sectionId = 'dynsection-0';
</script>
<script xlink:href="svgpan.js"/>
<svg id="graph" class="graph">
<g id="viewport">
<title>drake/geometry/geometry_properties.h</title>
<polygon fill="white" stroke="transparent" points="-4,4 -4,-348 2072.8,-348 2072.8,4 -4,4"/>
<!-- Node0 -->
<g id="node1" class="node">
<title>Node0</title>
<g id="a_node1"><a xlink:title=" ">
<polygon fill="#bfbfbf" stroke="black" points="1426.5,-313.5 1426.5,-343.5 1570.5,-343.5 1570.5,-313.5 1426.5,-313.5"/>
<text text-anchor="start" x="1434.5" y="-331.5" font-family="Helvetica,sans-Serif" font-size="10.00">drake/geometry/geometry</text>
<text text-anchor="middle" x="1498.5" y="-320.5" font-family="Helvetica,sans-Serif" font-size="10.00">_properties.h</text>
</a>
</g>
</g>
<!-- Node1 -->
<g id="node2" class="node">
<title>Node1</title>
<g id="a_node2"><a xlink:title=" ">
<polygon fill="white" stroke="#bfbfbf" points="640,-129 640,-148 705,-148 705,-129 640,-129"/>
<text text-anchor="middle" x="672.5" y="-136" font-family="Helvetica,sans-Serif" font-size="10.00">functional</text>
</a>
</g>
</g>
<!-- Node0&#45;&gt;Node1 -->
<g id="edge1" class="edge">
<title>Node0&#45;&gt;Node1</title>
<path fill="none" stroke="midnightblue" d="M1426.39,-323.57C1234.24,-312.38 721.12,-277.42 671.5,-221 656.5,-203.95 660.7,-176.24 665.92,-157.94"/>
<polygon fill="midnightblue" stroke="midnightblue" points="669.26,-159 668.98,-148.41 662.59,-156.86 669.26,-159"/>
</g>
<!-- Node2 -->
<g id="node3" class="node">
<title>Node2</title>
<g id="a_node3"><a xlink:title=" ">
<polygon fill="white" stroke="#bfbfbf" points="563.5,-129 563.5,-148 621.5,-148 621.5,-129 563.5,-129"/>
<text text-anchor="middle" x="592.5" y="-136" font-family="Helvetica,sans-Serif" font-size="10.00">memory</text>
</a>
</g>
</g>
<!-- Node0&#45;&gt;Node2 -->
<g id="edge2" class="edge">
<title>Node0&#45;&gt;Node2</title>
<path fill="none" stroke="midnightblue" d="M1426.25,-325.79C1268.53,-321.53 897.84,-308.4 776.5,-277 719.52,-262.26 702.6,-257.59 656.5,-221 633.67,-202.88 614.11,-175.06 602.82,-157.07"/>
<polygon fill="midnightblue" stroke="midnightblue" points="605.61,-154.93 597.43,-148.21 599.63,-158.57 605.61,-154.93"/>
</g>
<!-- Node3 -->
<g id="node4" class="node">
<title>Node3</title>
<g id="a_node4"><a xlink:title=" ">
<polygon fill="white" stroke="#bfbfbf" points="1451.5,-129 1451.5,-148 1483.5,-148 1483.5,-129 1451.5,-129"/>
<text text-anchor="middle" x="1467.5" y="-136" font-family="Helvetica,sans-Serif" font-size="10.00">set</text>
</a>
</g>
</g>
<!-- Node0&#45;&gt;Node3 -->
<g id="edge3" class="edge">
<title>Node0&#45;&gt;Node3</title>
<path fill="none" stroke="midnightblue" d="M1570.73,-321.68C1623.31,-314.11 1681.73,-296.75 1659.5,-257 1654.76,-248.53 1541.72,-182.42 1491.34,-153.25"/>
<polygon fill="midnightblue" stroke="midnightblue" points="1492.84,-150.08 1482.43,-148.1 1489.33,-156.14 1492.84,-150.08"/>
</g>
<!-- Node4 -->
<g id="node5" class="node">
<title>Node4</title>
<g id="a_node5"><a xlink:title=" ">
<polygon fill="white" stroke="#bfbfbf" points="1389.5,-129 1389.5,-148 1433.5,-148 1433.5,-129 1389.5,-129"/>
<text text-anchor="middle" x="1411.5" y="-136" font-family="Helvetica,sans-Serif" font-size="10.00">string</text>
</a>
</g>
</g>
<!-- Node0&#45;&gt;Node4 -->
<g id="edge4" class="edge">
<title>Node0&#45;&gt;Node4</title>
<path fill="none" stroke="midnightblue" d="M1507.39,-313.47C1515.34,-299.06 1524.71,-276.09 1517.5,-257 1500.59,-212.2 1457.57,-173.94 1431.83,-154.08"/>
<polygon fill="midnightblue" stroke="midnightblue" points="1433.93,-151.27 1423.83,-148.06 1429.72,-156.87 1433.93,-151.27"/>
</g>
<!-- Node5 -->
<g id="node6" class="node">
<title>Node5</title>
<g id="a_node6"><a xlink:title=" ">
<polygon fill="white" stroke="#bfbfbf" points="1502,-129 1502,-148 1559,-148 1559,-129 1502,-129"/>
<text text-anchor="middle" x="1530.5" y="-136" font-family="Helvetica,sans-Serif" font-size="10.00">typeinfo</text>
</a>
</g>
</g>
<!-- Node0&#45;&gt;Node5 -->
<g id="edge5" class="edge">
<title>Node0&#45;&gt;Node5</title>
<path fill="none" stroke="midnightblue" d="M1570.56,-315.95C1613.64,-307.42 1662.46,-294.28 1675.5,-277 1715.04,-224.6 1616.91,-174.54 1563.02,-151.99"/>
<polygon fill="midnightblue" stroke="midnightblue" points="1564.1,-148.65 1553.52,-148.11 1561.45,-155.13 1564.1,-148.65"/>
</g>
<!-- Node6 -->
<g id="node7" class="node">
<title>Node6</title>
<g id="a_node7"><a xlink:title=" ">
<polygon fill="white" stroke="#bfbfbf" points="1415,-257.5 1415,-276.5 1508,-276.5 1508,-257.5 1415,-257.5"/>
<text text-anchor="middle" x="1461.5" y="-264.5" font-family="Helvetica,sans-Serif" font-size="10.00">unordered_map</text>
</a>
</g>
</g>
<!-- Node0&#45;&gt;Node6 -->
<g id="edge6" class="edge">
<title>Node0&#45;&gt;Node6</title>
<path fill="none" stroke="midnightblue" d="M1489.73,-313.4C1484.52,-305.02 1477.87,-294.33 1472.33,-285.42"/>
<polygon fill="midnightblue" stroke="midnightblue" points="1475.14,-283.3 1466.88,-276.66 1469.19,-287 1475.14,-283.3"/>
</g>
<!-- Node7 -->
<g id="node8" class="node">
<title>Node7</title>
<g id="a_node8"><a xlink:title=" ">
<polygon fill="white" stroke="#bfbfbf" points="838,-62 838,-81 915,-81 915,-62 838,-62"/>
<text text-anchor="middle" x="876.5" y="-69" font-family="Helvetica,sans-Serif" font-size="10.00">Eigen/Dense</text>
</a>
</g>
</g>
<!-- Node0&#45;&gt;Node7 -->
<g id="edge7" class="edge">
<title>Node0&#45;&gt;Node7</title>
<path fill="none" stroke="midnightblue" d="M1426.43,-326.66C1230.76,-323.93 692.75,-313.23 519.5,-277 367.92,-245.3 281.58,-281.37 193.5,-154 185.66,-142.67 184.12,-133.1 193.5,-123 236.47,-76.74 678.31,-72.48 827.56,-72.37"/>
<polygon fill="midnightblue" stroke="midnightblue" points="827.79,-75.87 837.79,-72.37 827.79,-68.87 827.79,-75.87"/>
</g>
<!-- Node8 -->
<g id="node9" class="node">
<title>Node8</title>
<g id="a_node9"><a xlink:title=" ">
<polygon fill="white" stroke="#bfbfbf" points="1564.5,-257.5 1564.5,-276.5 1650.5,-276.5 1650.5,-257.5 1564.5,-257.5"/>
<text text-anchor="middle" x="1607.5" y="-264.5" font-family="Helvetica,sans-Serif" font-size="10.00">fmt/ostream.h</text>
</a>
</g>
</g>
<!-- Node0&#45;&gt;Node8 -->
<g id="edge8" class="edge">
<title>Node0&#45;&gt;Node8</title>
<path fill="none" stroke="midnightblue" d="M1524.33,-313.4C1541.97,-303.77 1565.2,-291.09 1582.63,-281.58"/>
<polygon fill="midnightblue" stroke="midnightblue" points="1584.54,-284.52 1591.64,-276.66 1581.19,-278.38 1584.54,-284.52"/>
</g>
<!-- Node9 -->
<g id="node10" class="node">
<title>Node9</title>
<g id="a_node10"><a xlink:href="copyable__unique__ptr_8h.html" target="_top" xlink:title=" ">
<polygon fill="white" stroke="black" points="395,-190.5 395,-220.5 532,-220.5 532,-190.5 395,-190.5"/>
<text text-anchor="start" x="403" y="-208.5" font-family="Helvetica,sans-Serif" font-size="10.00">drake/common/copyable</text>
<text text-anchor="middle" x="463.5" y="-197.5" font-family="Helvetica,sans-Serif" font-size="10.00">_unique_ptr.h</text>
</a>
</g>
</g>
<!-- Node0&#45;&gt;Node9 -->
<g id="edge9" class="edge">
<title>Node0&#45;&gt;Node9</title>
<path fill="none" stroke="midnightblue" d="M1426.14,-325.92C1220.64,-321.1 643.1,-305.18 562.5,-277 532.7,-266.58 503.91,-244.26 485.14,-227.5"/>
<polygon fill="midnightblue" stroke="midnightblue" points="487.47,-224.89 477.73,-220.72 482.74,-230.05 487.47,-224.89"/>
</g>
<!-- Node19 -->
<g id="node20" class="node">
<title>Node19</title>
<g id="a_node20"><a xlink:href="never__destroyed_8h.html" target="_top" xlink:title=" ">
<polygon fill="white" stroke="black" points="1714.5,-123.5 1714.5,-153.5 1834.5,-153.5 1834.5,-123.5 1714.5,-123.5"/>
<text text-anchor="start" x="1722.5" y="-141.5" font-family="Helvetica,sans-Serif" font-size="10.00">drake/common/never</text>
<text text-anchor="middle" x="1774.5" y="-130.5" font-family="Helvetica,sans-Serif" font-size="10.00">_destroyed.h</text>
</a>
</g>
</g>
<!-- Node0&#45;&gt;Node19 -->
<g id="edge20" class="edge">
<title>Node0&#45;&gt;Node19</title>
<path fill="none" stroke="midnightblue" d="M1570.59,-322.25C1610.15,-316.27 1658.17,-303.63 1693.5,-277 1732.26,-247.78 1755.9,-194.16 1766.97,-163.22"/>
<polygon fill="midnightblue" stroke="midnightblue" points="1770.31,-164.26 1770.24,-153.66 1763.69,-161.99 1770.31,-164.26"/>
</g>
<!-- Node22 -->
<g id="node23" class="node">
<title>Node22</title>
<g id="a_node23"><a xlink:href="value_8h.html" target="_top" xlink:title=" ">
<polygon fill="white" stroke="black" points="1165.5,-257.5 1165.5,-276.5 1293.5,-276.5 1293.5,-257.5 1165.5,-257.5"/>
<text text-anchor="middle" x="1229.5" y="-264.5" font-family="Helvetica,sans-Serif" font-size="10.00">drake/common/value.h</text>
</a>
</g>
</g>
<!-- Node0&#45;&gt;Node22 -->
<g id="edge25" class="edge">
<title>Node0&#45;&gt;Node22</title>
<path fill="none" stroke="midnightblue" d="M1435.09,-313.47C1386.96,-302.83 1321.79,-288.41 1277.83,-278.69"/>
<polygon fill="midnightblue" stroke="midnightblue" points="1278.48,-275.25 1267.96,-276.51 1276.97,-282.08 1278.48,-275.25"/>
</g>
<!-- Node32 -->
<g id="node33" class="node">
<title>Node32</title>
<g id="a_node33"><a xlink:href="rgba_8h.html" target="_top" xlink:title=" ">
<polygon fill="white" stroke="black" points="1854.5,-196 1854.5,-215 1982.5,-215 1982.5,-196 1854.5,-196"/>
<text text-anchor="middle" x="1918.5" y="-203" font-family="Helvetica,sans-Serif" font-size="10.00">drake/geometry/rgba.h</text>
</a>
</g>
</g>
<!-- Node0&#45;&gt;Node32 -->
<g id="edge59" class="edge">
<title>Node0&#45;&gt;Node32</title>
<path fill="none" stroke="midnightblue" d="M1570.63,-320.64C1628.72,-313.7 1711.88,-300.53 1781.5,-277 1824.16,-262.58 1869.95,-236.64 1896.31,-220.57"/>
<polygon fill="midnightblue" stroke="midnightblue" points="1898.44,-223.37 1905.1,-215.13 1894.76,-217.42 1898.44,-223.37"/>
</g>
<!-- Node9&#45;&gt;Node2 -->
<g id="edge11" class="edge">
<title>Node9&#45;&gt;Node2</title>
<path fill="none" stroke="midnightblue" d="M491.49,-190.4C513.83,-179.14 544.87,-163.5 566.63,-152.54"/>
<polygon fill="midnightblue" stroke="midnightblue" points="568.26,-155.63 575.62,-148.01 565.11,-149.38 568.26,-155.63"/>
</g>
<!-- Node10 -->
<g id="node11" class="node">
<title>Node10</title>
<g id="a_node11"><a xlink:title=" ">
<polygon fill="white" stroke="#bfbfbf" points="492,-129 492,-148 545,-148 545,-129 492,-129"/>
<text text-anchor="middle" x="518.5" y="-136" font-family="Helvetica,sans-Serif" font-size="10.00">cstddef</text>
</a>
</g>
</g>
<!-- Node9&#45;&gt;Node10 -->
<g id="edge10" class="edge">
<title>Node9&#45;&gt;Node10</title>
<path fill="none" stroke="midnightblue" d="M475.43,-190.4C484.01,-180.26 495.6,-166.57 504.59,-155.94"/>
<polygon fill="midnightblue" stroke="midnightblue" points="507.36,-158.09 511.14,-148.19 502.01,-153.57 507.36,-158.09"/>
</g>
<!-- Node11 -->
<g id="node12" class="node">
<title>Node11</title>
<g id="a_node12"><a xlink:title=" ">
<polygon fill="white" stroke="#bfbfbf" points="340,-129 340,-148 397,-148 397,-129 340,-129"/>
<text text-anchor="middle" x="368.5" y="-136" font-family="Helvetica,sans-Serif" font-size="10.00">ostream</text>
</a>
</g>
</g>
<!-- Node9&#45;&gt;Node11 -->
<g id="edge12" class="edge">
<title>Node9&#45;&gt;Node11</title>
<path fill="none" stroke="midnightblue" d="M442.89,-190.4C427.1,-179.6 405.41,-164.76 389.53,-153.89"/>
<polygon fill="midnightblue" stroke="midnightblue" points="391.16,-150.77 380.93,-148.01 387.21,-156.54 391.16,-150.77"/>
</g>
<!-- Node12 -->
<g id="node13" class="node">
<title>Node12</title>
<g id="a_node13"><a xlink:title=" ">
<polygon fill="white" stroke="#bfbfbf" points="1320,-62 1320,-81 1365,-81 1365,-62 1320,-62"/>
<text text-anchor="middle" x="1342.5" y="-69" font-family="Helvetica,sans-Serif" font-size="10.00">utility</text>
</a>
</g>
</g>
<!-- Node9&#45;&gt;Node12 -->
<g id="edge13" class="edge">
<title>Node9&#45;&gt;Node12</title>
<path fill="none" stroke="midnightblue" d="M462.37,-190.4C461.73,-171.78 463.8,-139.41 483.5,-123 491.59,-116.26 1152.44,-82.19 1309.35,-74.18"/>
<polygon fill="midnightblue" stroke="midnightblue" points="1309.95,-77.66 1319.76,-73.65 1309.6,-70.67 1309.95,-77.66"/>
</g>
<!-- Node13 -->
<g id="node14" class="node">
<title>Node13</title>
<g id="a_node14"><a xlink:href="drake__assert_8h.html" target="_top" xlink:title="Provides Drake&#39;s assertion implementation.">
<polygon fill="white" stroke="black" points="933,-56.5 933,-86.5 1052,-86.5 1052,-56.5 933,-56.5"/>
<text text-anchor="start" x="941" y="-74.5" font-family="Helvetica,sans-Serif" font-size="10.00">drake/common/drake</text>
<text text-anchor="middle" x="992.5" y="-63.5" font-family="Helvetica,sans-Serif" font-size="10.00">_assert.h</text>
</a>
</g>
</g>
<!-- Node9&#45;&gt;Node13 -->
<g id="edge14" class="edge">
<title>Node9&#45;&gt;Node13</title>
<path fill="none" stroke="midnightblue" d="M454.88,-190.41C445.09,-172.39 432.52,-141.32 449.5,-123 483.87,-85.93 838.08,-93.71 922.78,-86.77"/>
<polygon fill="midnightblue" stroke="midnightblue" points="923.31,-90.23 932.88,-85.69 922.56,-83.27 923.31,-90.23"/>
</g>
<!-- Node15 -->
<g id="node16" class="node">
<title>Node15</title>
<g id="a_node16"><a xlink:href="drake__deprecated_8h.html" target="_top" xlink:title="Provides a portable macro for use in generating compile&#45;time warnings for use of code that is permitt...">
<polygon fill="white" stroke="black" points="203,-123.5 203,-153.5 322,-153.5 322,-123.5 203,-123.5"/>
<text text-anchor="start" x="211" y="-141.5" font-family="Helvetica,sans-Serif" font-size="10.00">drake/common/drake</text>
<text text-anchor="middle" x="262.5" y="-130.5" font-family="Helvetica,sans-Serif" font-size="10.00">_deprecated.h</text>
</a>
</g>
</g>
<!-- Node9&#45;&gt;Node15 -->
<g id="edge16" class="edge">
<title>Node9&#45;&gt;Node15</title>
<path fill="none" stroke="midnightblue" d="M419.89,-190.4C389.33,-180.52 348.32,-167.25 315.82,-156.74"/>
<polygon fill="midnightblue" stroke="midnightblue" points="316.62,-153.32 306.03,-153.58 314.47,-159.98 316.62,-153.32"/>
</g>
<!-- Node16 -->
<g id="node17" class="node">
<title>Node16</title>
<g id="a_node17"><a xlink:href="fmt_8h.html" target="_top" xlink:title=" ">
<polygon fill="white" stroke="black" points="27,-129 27,-148 146,-148 146,-129 27,-129"/>
<text text-anchor="middle" x="86.5" y="-136" font-family="Helvetica,sans-Serif" font-size="10.00">drake/common/fmt.h</text>
</a>
</g>
</g>
<!-- Node9&#45;&gt;Node16 -->
<g id="edge17" class="edge">
<title>Node9&#45;&gt;Node16</title>
<path fill="none" stroke="midnightblue" d="M394.79,-192.65C323.58,-180.38 213.43,-161.38 145.87,-149.74"/>
<polygon fill="midnightblue" stroke="midnightblue" points="146.27,-146.25 135.82,-148 145.08,-153.15 146.27,-146.25"/>
</g>
<!-- Node14 -->
<g id="node15" class="node">
<title>Node14</title>
<g id="a_node15"><a xlink:title=" ">
<polygon fill="white" stroke="#bfbfbf" points="866,-0.5 866,-19.5 935,-19.5 935,-0.5 866,-0.5"/>
<text text-anchor="middle" x="900.5" y="-7.5" font-family="Helvetica,sans-Serif" font-size="10.00">type_traits</text>
</a>
</g>
</g>
<!-- Node13&#45;&gt;Node14 -->
<g id="edge15" class="edge">
<title>Node13&#45;&gt;Node14</title>
<path fill="none" stroke="midnightblue" d="M970.7,-56.4C956.09,-46.95 936.93,-34.56 922.32,-25.11"/>
<polygon fill="midnightblue" stroke="midnightblue" points="924.18,-22.15 913.89,-19.66 920.38,-28.03 924.18,-22.15"/>
</g>
<!-- Node17 -->
<g id="node18" class="node">
<title>Node17</title>
<g id="a_node18"><a xlink:title=" ">
<polygon fill="white" stroke="#bfbfbf" points="97,-62 97,-81 170,-81 170,-62 97,-62"/>
<text text-anchor="middle" x="133.5" y="-69" font-family="Helvetica,sans-Serif" font-size="10.00">string_view</text>
</a>
</g>
</g>
<!-- Node16&#45;&gt;Node17 -->
<g id="edge18" class="edge">
<title>Node16&#45;&gt;Node17</title>
<path fill="none" stroke="midnightblue" d="M92.84,-128.73C100.1,-118.7 112.16,-102.01 121.26,-89.42"/>
<polygon fill="midnightblue" stroke="midnightblue" points="124.24,-91.28 127.26,-81.13 118.57,-87.18 124.24,-91.28"/>
</g>
<!-- Node18 -->
<g id="node19" class="node">
<title>Node18</title>
<g id="a_node19"><a xlink:title=" ">
<polygon fill="white" stroke="#bfbfbf" points="0,-62 0,-81 79,-81 79,-62 0,-62"/>
<text text-anchor="middle" x="39.5" y="-69" font-family="Helvetica,sans-Serif" font-size="10.00">fmt/format.h</text>
</a>
</g>
</g>
<!-- Node16&#45;&gt;Node18 -->
<g id="edge19" class="edge">
<title>Node16&#45;&gt;Node18</title>
<path fill="none" stroke="midnightblue" d="M80.16,-128.73C72.9,-118.7 60.84,-102.01 51.74,-89.42"/>
<polygon fill="midnightblue" stroke="midnightblue" points="54.43,-87.18 45.74,-81.13 48.76,-91.28 54.43,-87.18"/>
</g>
<!-- Node19&#45;&gt;Node12 -->
<g id="edge23" class="edge">
<title>Node19&#45;&gt;Node12</title>
<path fill="none" stroke="midnightblue" d="M1714.34,-124.6C1711.35,-124.04 1708.39,-123.5 1705.5,-123 1584.33,-101.87 1439.16,-83.85 1375.34,-76.3"/>
<polygon fill="midnightblue" stroke="midnightblue" points="1375.44,-72.79 1365.1,-75.09 1374.62,-79.74 1375.44,-72.79"/>
</g>
<!-- Node19&#45;&gt;Node14 -->
<g id="edge22" class="edge">
<title>Node19&#45;&gt;Node14</title>
<path fill="none" stroke="midnightblue" d="M1767.88,-123.2C1758.14,-104.03 1737.96,-70.69 1709.5,-56 1641.61,-20.95 1106.28,-12.98 945.81,-11.37"/>
<polygon fill="midnightblue" stroke="midnightblue" points="945.39,-7.87 935.35,-11.27 945.32,-14.87 945.39,-7.87"/>
</g>
<!-- Node20 -->
<g id="node21" class="node">
<title>Node20</title>
<g id="a_node21"><a xlink:title=" ">
<polygon fill="white" stroke="#bfbfbf" points="1756,-62 1756,-81 1793,-81 1793,-62 1756,-62"/>
<text text-anchor="middle" x="1774.5" y="-69" font-family="Helvetica,sans-Serif" font-size="10.00">new</text>
</a>
</g>
</g>
<!-- Node19&#45;&gt;Node20 -->
<g id="edge21" class="edge">
<title>Node19&#45;&gt;Node20</title>
<path fill="none" stroke="midnightblue" d="M1774.5,-123.4C1774.5,-114.06 1774.5,-101.71 1774.5,-91.52"/>
<polygon fill="midnightblue" stroke="midnightblue" points="1778,-91.19 1774.5,-81.19 1771,-91.19 1778,-91.19"/>
</g>
<!-- Node21 -->
<g id="node22" class="node">
<title>Node21</title>
<g id="a_node22"><a xlink:href="drake__copyable_8h.html" target="_top" xlink:title="Provides careful macros to selectively enable or disable the special member functions for copy&#45;constr...">
<polygon fill="white" stroke="black" points="1811,-56.5 1811,-86.5 1930,-86.5 1930,-56.5 1811,-56.5"/>
<text text-anchor="start" x="1819" y="-74.5" font-family="Helvetica,sans-Serif" font-size="10.00">drake/common/drake</text>
<text text-anchor="middle" x="1870.5" y="-63.5" font-family="Helvetica,sans-Serif" font-size="10.00">_copyable.h</text>
</a>
</g>
</g>
<!-- Node19&#45;&gt;Node21 -->
<g id="edge24" class="edge">
<title>Node19&#45;&gt;Node21</title>
<path fill="none" stroke="midnightblue" d="M1795.33,-123.4C1808.79,-114.28 1826.5,-102.29 1841.35,-92.24"/>
<polygon fill="midnightblue" stroke="midnightblue" points="1843.39,-95.08 1849.71,-86.58 1839.47,-89.28 1843.39,-95.08"/>
</g>
<!-- Node22&#45;&gt;Node2 -->
<g id="edge26" class="edge">
<title>Node22&#45;&gt;Node2</title>
<path fill="none" stroke="midnightblue" d="M1165.13,-266.44C1037.54,-266.4 757.42,-261.53 671.5,-221 641.48,-206.84 616.76,-176.03 603.37,-156.61"/>
<polygon fill="midnightblue" stroke="midnightblue" points="606.18,-154.51 597.73,-148.12 600.34,-158.38 606.18,-154.51"/>
</g>
<!-- Node22&#45;&gt;Node4 -->
<g id="edge28" class="edge">
<title>Node22&#45;&gt;Node4</title>
<path fill="none" stroke="midnightblue" d="M1293.62,-261.12C1349.06,-255.41 1423.12,-243.7 1441.5,-221 1457.16,-201.67 1440.17,-173.4 1426.11,-155.75"/>
<polygon fill="midnightblue" stroke="midnightblue" points="1428.72,-153.41 1419.6,-148.02 1423.37,-157.92 1428.72,-153.41"/>
</g>
<!-- Node22&#45;&gt;Node5 -->
<g id="edge30" class="edge">
<title>Node22&#45;&gt;Node5</title>
<path fill="none" stroke="midnightblue" d="M1293.58,-264.36C1341.76,-260.63 1407.89,-250.02 1458.5,-221 1485.82,-205.33 1508.11,-175.48 1520.32,-156.58"/>
<polygon fill="midnightblue" stroke="midnightblue" points="1523.31,-158.4 1525.62,-148.06 1517.37,-154.7 1523.31,-158.4"/>
</g>
<!-- Node22&#45;&gt;Node9 -->
<g id="edge32" class="edge">
<title>Node22&#45;&gt;Node9</title>
<path fill="none" stroke="midnightblue" d="M1165.21,-261.25C1056.64,-253.19 830.06,-236.23 638.5,-221 606.96,-218.49 572.24,-215.64 542.09,-213.12"/>
<polygon fill="midnightblue" stroke="midnightblue" points="542.31,-209.63 532.06,-212.29 541.73,-216.61 542.31,-209.63"/>
</g>
<!-- Node22&#45;&gt;Node12 -->
<g id="edge31" class="edge">
<title>Node22&#45;&gt;Node12</title>
<path fill="none" stroke="midnightblue" d="M1220.99,-257.36C1207.44,-242.52 1184,-211.7 1199.5,-190 1228.17,-149.86 1267.82,-186.99 1304.5,-154 1323.14,-137.24 1333.35,-109.44 1338.37,-91.04"/>
<polygon fill="midnightblue" stroke="midnightblue" points="1341.79,-91.77 1340.8,-81.22 1335,-90.08 1341.79,-91.77"/>
</g>
<!-- Node22&#45;&gt;Node14 -->
<g id="edge29" class="edge">
<title>Node22&#45;&gt;Node14</title>
<path fill="none" stroke="midnightblue" d="M1182.79,-257.49C1074.74,-237.34 814.98,-186 791.5,-154 770.76,-125.74 815.8,-61.22 820.5,-56 833.22,-41.88 851.45,-31.15 867.29,-23.72"/>
<polygon fill="midnightblue" stroke="midnightblue" points="869.06,-26.77 876.78,-19.51 866.22,-20.37 869.06,-26.77"/>
</g>
<!-- Node22&#45;&gt;Node21 -->
<g id="edge33" class="edge">
<title>Node22&#45;&gt;Node21</title>
<path fill="none" stroke="midnightblue" d="M1293.61,-262.48C1433.9,-253.52 1762.08,-225.3 1843.5,-154 1859.9,-139.63 1866.38,-115.07 1868.91,-96.66"/>
<polygon fill="midnightblue" stroke="midnightblue" points="1872.4,-96.97 1870,-86.65 1865.44,-96.22 1872.4,-96.97"/>
</g>
<!-- Node23 -->
<g id="node24" class="node">
<title>Node23</title>
<g id="a_node24"><a xlink:title=" ">
<polygon fill="white" stroke="#bfbfbf" points="1367,-196 1367,-215 1432,-215 1432,-196 1367,-196"/>
<text text-anchor="middle" x="1399.5" y="-203" font-family="Helvetica,sans-Serif" font-size="10.00">stdexcept</text>
</a>
</g>
</g>
<!-- Node22&#45;&gt;Node23 -->
<g id="edge27" class="edge">
<title>Node22&#45;&gt;Node23</title>
<path fill="none" stroke="midnightblue" d="M1253.86,-257.48C1283.14,-247.22 1332.47,-229.96 1365.5,-218.4"/>
<polygon fill="midnightblue" stroke="midnightblue" points="1366.91,-221.62 1375.19,-215.01 1364.59,-215.01 1366.91,-221.62"/>
</g>
<!-- Node24 -->
<g id="node25" class="node">
<title>Node24</title>
<g id="a_node25"><a xlink:href="hash_8h.html" target="_top" xlink:title=" ">
<polygon fill="white" stroke="black" points="1013,-196 1013,-215 1138,-215 1138,-196 1013,-196"/>
<text text-anchor="middle" x="1075.5" y="-203" font-family="Helvetica,sans-Serif" font-size="10.00">drake/common/hash.h</text>
</a>
</g>
</g>
<!-- Node22&#45;&gt;Node24 -->
<g id="edge34" class="edge">
<title>Node22&#45;&gt;Node24</title>
<path fill="none" stroke="midnightblue" d="M1207.44,-257.48C1181.13,-247.31 1136.99,-230.26 1107.08,-218.7"/>
<polygon fill="midnightblue" stroke="midnightblue" points="1108.11,-215.35 1097.52,-215.01 1105.59,-221.88 1108.11,-215.35"/>
</g>
<!-- Node30 -->
<g id="node31" class="node">
<title>Node30</title>
<g id="a_node31"><a xlink:href="is__cloneable_8h.html" target="_top" xlink:title=" ">
<polygon fill="white" stroke="black" points="680.5,-196 680.5,-215 842.5,-215 842.5,-196 680.5,-196"/>
<text text-anchor="middle" x="761.5" y="-203" font-family="Helvetica,sans-Serif" font-size="10.00">drake/common/is_cloneable.h</text>
</a>
</g>
</g>
<!-- Node22&#45;&gt;Node30 -->
<g id="edge49" class="edge">
<title>Node22&#45;&gt;Node30</title>
<path fill="none" stroke="midnightblue" d="M1165.4,-258.89C1091.03,-250.49 964.75,-235.79 856.5,-221 846.58,-219.65 836.09,-218.13 825.85,-216.6"/>
<polygon fill="midnightblue" stroke="midnightblue" points="826.12,-213.1 815.71,-215.08 825.08,-220.03 826.12,-213.1"/>
</g>
<!-- Node31 -->
<g id="node32" class="node">
<title>Node31</title>
<g id="a_node32"><a xlink:href="nice__type__name_8h.html" target="_top" xlink:title=" ">
<polygon fill="white" stroke="black" points="1208.5,-190.5 1208.5,-220.5 1348.5,-220.5 1348.5,-190.5 1208.5,-190.5"/>
<text text-anchor="start" x="1216.5" y="-208.5" font-family="Helvetica,sans-Serif" font-size="10.00">drake/common/nice_type</text>
<text text-anchor="middle" x="1278.5" y="-197.5" font-family="Helvetica,sans-Serif" font-size="10.00">_name.h</text>
</a>
</g>
</g>
<!-- Node22&#45;&gt;Node31 -->
<g id="edge52" class="edge">
<title>Node22&#45;&gt;Node31</title>
<path fill="none" stroke="midnightblue" d="M1236.52,-257.48C1242.78,-249.87 1252.23,-238.4 1260.58,-228.26"/>
<polygon fill="midnightblue" stroke="midnightblue" points="1263.3,-230.47 1266.95,-220.52 1257.89,-226.02 1263.3,-230.47"/>
</g>
<!-- Node24&#45;&gt;Node1 -->
<g id="edge37" class="edge">
<title>Node24&#45;&gt;Node1</title>
<path fill="none" stroke="midnightblue" d="M1022.4,-195.94C941.56,-182.9 789.22,-158.33 715.13,-146.38"/>
<polygon fill="midnightblue" stroke="midnightblue" points="715.64,-142.91 705.21,-144.78 714.52,-149.82 715.64,-142.91"/>
</g>
<!-- Node24&#45;&gt;Node3 -->
<g id="edge40" class="edge">
<title>Node24&#45;&gt;Node3</title>
<path fill="none" stroke="midnightblue" d="M1138.04,-197.23C1235.24,-185.74 1414.37,-163.67 1442.5,-154 1443.57,-153.63 1444.64,-153.22 1445.71,-152.77"/>
<polygon fill="midnightblue" stroke="midnightblue" points="1447.67,-155.7 1454.98,-148.03 1444.49,-149.46 1447.67,-155.7"/>
</g>
<!-- Node24&#45;&gt;Node4 -->
<g id="edge41" class="edge">
<title>Node24&#45;&gt;Node4</title>
<path fill="none" stroke="midnightblue" d="M1119.77,-195.94C1188.36,-182.67 1318.69,-157.46 1379.17,-145.75"/>
<polygon fill="midnightblue" stroke="midnightblue" points="1380.13,-149.13 1389.28,-143.8 1378.8,-142.26 1380.13,-149.13"/>
</g>
<!-- Node24&#45;&gt;Node10 -->
<g id="edge36" class="edge">
<title>Node24&#45;&gt;Node10</title>
<path fill="none" stroke="midnightblue" d="M1012.77,-200.67C893.86,-193.05 639.91,-174.88 554.5,-154 551.83,-153.35 549.1,-152.53 546.39,-151.63"/>
<polygon fill="midnightblue" stroke="midnightblue" points="547.44,-148.29 536.85,-148.07 544.99,-154.84 547.44,-148.29"/>
</g>
<!-- Node24&#45;&gt;Node12 -->
<g id="edge43" class="edge">
<title>Node24&#45;&gt;Node12</title>
<path fill="none" stroke="midnightblue" d="M1066.97,-195.94C1052.08,-179.99 1024.66,-145.29 1043.5,-123 1077.28,-83.04 1238.9,-74.69 1309.44,-72.95"/>
<polygon fill="midnightblue" stroke="midnightblue" points="1309.63,-76.45 1319.56,-72.73 1309.48,-69.45 1309.63,-76.45"/>
</g>
<!-- Node24&#45;&gt;Node13 -->
<g id="edge45" class="edge">
<title>Node24&#45;&gt;Node13</title>
<path fill="none" stroke="midnightblue" d="M1035.04,-196C1012.15,-188.89 985.4,-176.2 971.5,-154 960.38,-136.24 968.31,-112.79 977.44,-95.61"/>
<polygon fill="midnightblue" stroke="midnightblue" points="980.56,-97.2 982.52,-86.79 974.5,-93.71 980.56,-97.2"/>
</g>
<!-- Node24&#45;&gt;Node14 -->
<g id="edge42" class="edge">
<title>Node24&#45;&gt;Node14</title>
<path fill="none" stroke="midnightblue" d="M1064.58,-195.82C1054.07,-186.69 1038.86,-171.29 1032.5,-154 1027.74,-141.07 1027.92,-135.99 1032.5,-123 1039.33,-103.62 1054.67,-106.38 1061.5,-87 1066.08,-74.01 1069.83,-66.98 1061.5,-56 1047.41,-37.43 987.62,-24.45 945.02,-17.35"/>
<polygon fill="midnightblue" stroke="midnightblue" points="945.57,-13.9 935.14,-15.76 944.46,-20.81 945.57,-13.9"/>
</g>
<!-- Node25 -->
<g id="node26" class="node">
<title>Node25</title>
<g id="a_node26"><a xlink:title=" ">
<polygon fill="white" stroke="#bfbfbf" points="1052,-129 1052,-148 1099,-148 1099,-129 1052,-129"/>
<text text-anchor="middle" x="1075.5" y="-136" font-family="Helvetica,sans-Serif" font-size="10.00">cmath</text>
</a>
</g>
</g>
<!-- Node24&#45;&gt;Node25 -->
<g id="edge35" class="edge">
<title>Node24&#45;&gt;Node25</title>
<path fill="none" stroke="midnightblue" d="M1075.5,-195.73C1075.5,-186.18 1075.5,-170.62 1075.5,-158.28"/>
<polygon fill="midnightblue" stroke="midnightblue" points="1079,-158.13 1075.5,-148.13 1072,-158.13 1079,-158.13"/>
</g>
<!-- Node26 -->
<g id="node27" class="node">
<title>Node26</title>
<g id="a_node27"><a xlink:title=" ">
<polygon fill="white" stroke="#bfbfbf" points="1117.5,-129 1117.5,-148 1155.5,-148 1155.5,-129 1117.5,-129"/>
<text text-anchor="middle" x="1136.5" y="-136" font-family="Helvetica,sans-Serif" font-size="10.00">map</text>
</a>
</g>
</g>
<!-- Node24&#45;&gt;Node26 -->
<g id="edge38" class="edge">
<title>Node24&#45;&gt;Node26</title>
<path fill="none" stroke="midnightblue" d="M1083.73,-195.73C1093.33,-185.5 1109.41,-168.36 1121.3,-155.69"/>
<polygon fill="midnightblue" stroke="midnightblue" points="1124.11,-157.81 1128.4,-148.13 1119.01,-153.02 1124.11,-157.81"/>
</g>
<!-- Node27 -->
<g id="node28" class="node">
<title>Node27</title>
<g id="a_node28"><a xlink:title=" ">
<polygon fill="white" stroke="#bfbfbf" points="1173.5,-129 1173.5,-148 1229.5,-148 1229.5,-129 1173.5,-129"/>
<text text-anchor="middle" x="1201.5" y="-136" font-family="Helvetica,sans-Serif" font-size="10.00">optional</text>
</a>
</g>
</g>
<!-- Node24&#45;&gt;Node27 -->
<g id="edge39" class="edge">
<title>Node24&#45;&gt;Node27</title>
<path fill="none" stroke="midnightblue" d="M1092.23,-195.87C1113.6,-184.84 1150.8,-165.66 1175.78,-152.77"/>
<polygon fill="midnightblue" stroke="midnightblue" points="1177.42,-155.86 1184.7,-148.17 1174.21,-149.64 1177.42,-155.86"/>
</g>
<!-- Node28 -->
<g id="node29" class="node">
<title>Node28</title>
<g id="a_node29"><a xlink:title=" ">
<polygon fill="white" stroke="#bfbfbf" points="1248,-129 1248,-148 1295,-148 1295,-129 1248,-129"/>
<text text-anchor="middle" x="1271.5" y="-136" font-family="Helvetica,sans-Serif" font-size="10.00">vector</text>
</a>
</g>
</g>
<!-- Node24&#45;&gt;Node28 -->
<g id="edge44" class="edge">
<title>Node24&#45;&gt;Node28</title>
<path fill="none" stroke="midnightblue" d="M1106.8,-195.95C1139.88,-186.64 1193.4,-170.83 1238.5,-154 1240.15,-153.38 1241.84,-152.73 1243.54,-152.05"/>
<polygon fill="midnightblue" stroke="midnightblue" points="1245.29,-155.11 1253.15,-148 1242.58,-148.65 1245.29,-155.11"/>
</g>
<!-- Node29 -->
<g id="node30" class="node">
<title>Node29</title>
<g id="a_node30"><a xlink:href="drake__throw_8h.html" target="_top" xlink:title="Provides a convenient wrapper to throw an exception when a condition is unmet.">
<polygon fill="white" stroke="black" points="800,-123.5 800,-153.5 919,-153.5 919,-123.5 800,-123.5"/>
<text text-anchor="start" x="808" y="-141.5" font-family="Helvetica,sans-Serif" font-size="10.00">drake/common/drake</text>
<text text-anchor="middle" x="859.5" y="-130.5" font-family="Helvetica,sans-Serif" font-size="10.00">_throw.h</text>
</a>
</g>
</g>
<!-- Node24&#45;&gt;Node29 -->
<g id="edge46" class="edge">
<title>Node24&#45;&gt;Node29</title>
<path fill="none" stroke="midnightblue" d="M1046.82,-195.87C1013.56,-185.86 957.95,-169.13 915.94,-156.48"/>
<polygon fill="midnightblue" stroke="midnightblue" points="916.7,-153.06 906.12,-153.53 914.68,-159.76 916.7,-153.06"/>
</g>
<!-- Node29&#45;&gt;Node13 -->
<g id="edge48" class="edge">
<title>Node29&#45;&gt;Node13</title>
<path fill="none" stroke="midnightblue" d="M888.36,-123.4C907.79,-113.9 933.62,-101.28 954.69,-90.98"/>
<polygon fill="midnightblue" stroke="midnightblue" points="956.25,-94.11 963.7,-86.58 953.18,-87.82 956.25,-94.11"/>
</g>
<!-- Node29&#45;&gt;Node14 -->
<g id="edge47" class="edge">
<title>Node29&#45;&gt;Node14</title>
<path fill="none" stroke="midnightblue" d="M847.21,-123.39C834.23,-106.69 817.22,-78.33 829.5,-56 837.39,-41.66 851.99,-31.25 865.9,-24.08"/>
<polygon fill="midnightblue" stroke="midnightblue" points="867.79,-27.06 875.34,-19.62 864.8,-20.73 867.79,-27.06"/>
</g>
<!-- Node30&#45;&gt;Node2 -->
<g id="edge50" class="edge">
<title>Node30&#45;&gt;Node2</title>
<path fill="none" stroke="midnightblue" d="M739.06,-195.87C709.68,-184.57 658.01,-164.7 624.53,-151.82"/>
<polygon fill="midnightblue" stroke="midnightblue" points="625.36,-148.39 614.77,-148.06 622.84,-154.92 625.36,-148.39"/>
</g>
<!-- Node30&#45;&gt;Node14 -->
<g id="edge51" class="edge">
<title>Node30&#45;&gt;Node14</title>
<path fill="none" stroke="midnightblue" d="M757.92,-195.72C748.46,-170.94 725.61,-99.46 757.5,-56 779.8,-25.61 822.63,-15.2 855.63,-11.89"/>
<polygon fill="midnightblue" stroke="midnightblue" points="856.28,-15.35 865.96,-11.05 855.71,-8.38 856.28,-15.35"/>
</g>
<!-- Node31&#45;&gt;Node2 -->
<g id="edge53" class="edge">
<title>Node31&#45;&gt;Node2</title>
<path fill="none" stroke="midnightblue" d="M1208.19,-196.19C1188.56,-194.01 1167.21,-191.78 1147.5,-190 918.54,-169.35 856.2,-202.55 631.5,-154 628.42,-153.33 625.26,-152.48 622.14,-151.51"/>
<polygon fill="midnightblue" stroke="midnightblue" points="623.01,-148.11 612.41,-148.15 620.72,-154.72 623.01,-148.11"/>
</g>
<!-- Node31&#45;&gt;Node4 -->
<g id="edge54" class="edge">
<title>Node31&#45;&gt;Node4</title>
<path fill="none" stroke="midnightblue" d="M1307.36,-190.4C1330.39,-179.14 1362.39,-163.5 1384.82,-152.54"/>
<polygon fill="midnightblue" stroke="midnightblue" points="1386.65,-155.54 1394.09,-148.01 1383.57,-149.25 1386.65,-155.54"/>
</g>
<!-- Node31&#45;&gt;Node5 -->
<g id="edge55" class="edge">
<title>Node31&#45;&gt;Node5</title>
<path fill="none" stroke="midnightblue" d="M1348.52,-190.44C1390.62,-181.37 1445.06,-168.58 1492.5,-154 1494.92,-153.26 1497.41,-152.44 1499.9,-151.58"/>
<polygon fill="midnightblue" stroke="midnightblue" points="1501.17,-154.84 1509.37,-148.13 1498.78,-148.26 1501.17,-154.84"/>
</g>
<!-- Node31&#45;&gt;Node12 -->
<g id="edge56" class="edge">
<title>Node31&#45;&gt;Node12</title>
<path fill="none" stroke="midnightblue" d="M1302.83,-190.42C1315.52,-181.68 1329.93,-169.21 1337.5,-154 1347.35,-134.22 1347.06,-108.32 1345.32,-91.08"/>
<polygon fill="midnightblue" stroke="midnightblue" points="1348.8,-90.63 1344.07,-81.15 1341.85,-91.51 1348.8,-90.63"/>
</g>
<!-- Node31&#45;&gt;Node19 -->
<g id="edge58" class="edge">
<title>Node31&#45;&gt;Node19</title>
<path fill="none" stroke="midnightblue" d="M1348.69,-191.47C1352,-190.95 1355.29,-190.46 1358.5,-190 1508.71,-168.63 1550.53,-177.57 1704.08,-154.11"/>
<polygon fill="midnightblue" stroke="midnightblue" points="1705.01,-157.51 1714.36,-152.52 1703.94,-150.59 1705.01,-157.51"/>
</g>
<!-- Node31&#45;&gt;Node28 -->
<g id="edge57" class="edge">
<title>Node31&#45;&gt;Node28</title>
<path fill="none" stroke="midnightblue" d="M1276.98,-190.4C1275.97,-180.96 1274.62,-168.45 1273.51,-158.19"/>
<polygon fill="midnightblue" stroke="midnightblue" points="1276.99,-157.76 1272.44,-148.19 1270.03,-158.51 1276.99,-157.76"/>
</g>
<!-- Node32&#45;&gt;Node21 -->
<g id="edge60" class="edge">
<title>Node32&#45;&gt;Node21</title>
<path fill="none" stroke="midnightblue" d="M1967.03,-195.92C2019.2,-184.53 2090.96,-161.26 2061.5,-123 2046.51,-103.53 1988.45,-90.03 1940.23,-81.92"/>
<polygon fill="midnightblue" stroke="midnightblue" points="1940.55,-78.43 1930.12,-80.27 1939.42,-85.34 1940.55,-78.43"/>
</g>
<!-- Node33 -->
<g id="node34" class="node">
<title>Node33</title>
<g id="a_node34"><a xlink:href="eigen__types_8h.html" target="_top" xlink:title="This file contains abbreviated definitions for certain specializations of Eigen::Matrix that are comm...">
<polygon fill="white" stroke="black" points="1577,-123.5 1577,-153.5 1696,-153.5 1696,-123.5 1577,-123.5"/>
<text text-anchor="start" x="1585" y="-141.5" font-family="Helvetica,sans-Serif" font-size="10.00">drake/common/eigen</text>
<text text-anchor="middle" x="1636.5" y="-130.5" font-family="Helvetica,sans-Serif" font-size="10.00">_types.h</text>
</a>
</g>
</g>
<!-- Node32&#45;&gt;Node33 -->
<g id="edge61" class="edge">
<title>Node32&#45;&gt;Node33</title>
<path fill="none" stroke="midnightblue" d="M1881.34,-195.94C1836.83,-185.68 1761.33,-168.27 1705.91,-155.5"/>
<polygon fill="midnightblue" stroke="midnightblue" points="1706.69,-152.09 1696.16,-153.25 1705.12,-158.91 1706.69,-152.09"/>
</g>
<!-- Node35 -->
<g id="node36" class="node">
<title>Node35</title>
<g id="a_node36"><a xlink:href="name__value_8h.html" target="_top" xlink:title=" ">
<polygon fill="white" stroke="black" points="1891,-129 1891,-148 2052,-148 2052,-129 1891,-129"/>
<text text-anchor="middle" x="1971.5" y="-136" font-family="Helvetica,sans-Serif" font-size="10.00">drake/common/name_value.h</text>
</a>
</g>
</g>
<!-- Node32&#45;&gt;Node35 -->
<g id="edge67" class="edge">
<title>Node32&#45;&gt;Node35</title>
<path fill="none" stroke="midnightblue" d="M1925.65,-195.73C1933.91,-185.6 1947.7,-168.69 1958,-156.06"/>
<polygon fill="midnightblue" stroke="midnightblue" points="1960.86,-158.09 1964.47,-148.13 1955.43,-153.67 1960.86,-158.09"/>
</g>
<!-- Node33&#45;&gt;Node7 -->
<g id="edge63" class="edge">
<title>Node33&#45;&gt;Node7</title>
<path fill="none" stroke="midnightblue" d="M1576.89,-124.24C1574.06,-123.79 1571.25,-123.37 1568.5,-123 1284.36,-85 1206.81,-136.8 924.5,-87 919.94,-86.2 915.2,-85.1 910.56,-83.87"/>
<polygon fill="midnightblue" stroke="midnightblue" points="911.23,-80.42 900.65,-81.01 909.29,-87.14 911.23,-80.42"/>
</g>
<!-- Node33&#45;&gt;Node12 -->
<g id="edge62" class="edge">
<title>Node33&#45;&gt;Node12</title>
<path fill="none" stroke="midnightblue" d="M1576.65,-124.27C1515.8,-110.82 1423.78,-90.47 1375.2,-79.73"/>
<polygon fill="midnightblue" stroke="midnightblue" points="1375.76,-76.27 1365.24,-77.53 1374.25,-83.1 1375.76,-76.27"/>
</g>
<!-- Node33&#45;&gt;Node13 -->
<g id="edge65" class="edge">
<title>Node33&#45;&gt;Node13</title>
<path fill="none" stroke="midnightblue" d="M1576.87,-124.35C1574.05,-123.87 1571.25,-123.41 1568.5,-123 1386.97,-95.79 1170.9,-81.69 1062.25,-75.85"/>
<polygon fill="midnightblue" stroke="midnightblue" points="1062.24,-72.34 1052.07,-75.31 1061.87,-79.33 1062.24,-72.34"/>
</g>
<!-- Node33&#45;&gt;Node21 -->
<g id="edge66" class="edge">
<title>Node33&#45;&gt;Node21</title>
<path fill="none" stroke="midnightblue" d="M1686.99,-123.48C1723,-113.47 1771.6,-99.97 1809.74,-89.38"/>
<polygon fill="midnightblue" stroke="midnightblue" points="1811,-92.66 1819.7,-86.61 1809.13,-85.92 1811,-92.66"/>
</g>
<!-- Node34 -->
<g id="node35" class="node">
<title>Node34</title>
<g id="a_node35"><a xlink:href="constants_8h.html" target="_top" xlink:title=" ">
<polygon fill="white" stroke="black" points="1551,-62 1551,-81 1700,-81 1700,-62 1551,-62"/>
<text text-anchor="middle" x="1625.5" y="-69" font-family="Helvetica,sans-Serif" font-size="10.00">drake/common/constants.h</text>
</a>
</g>
</g>
<!-- Node33&#45;&gt;Node34 -->
<g id="edge64" class="edge">
<title>Node33&#45;&gt;Node34</title>
<path fill="none" stroke="midnightblue" d="M1634.11,-123.4C1632.52,-113.96 1630.4,-101.45 1628.66,-91.19"/>
<polygon fill="midnightblue" stroke="midnightblue" points="1632.09,-90.47 1626.97,-81.19 1625.19,-91.64 1632.09,-90.47"/>
</g>
<!-- Node35&#45;&gt;Node13 -->
<g id="edge68" class="edge">
<title>Node35&#45;&gt;Node13</title>
<path fill="none" stroke="midnightblue" d="M1902.48,-129C1883.4,-126.83 1862.66,-124.65 1843.5,-123 1553.88,-98.02 1207.74,-81.64 1062.28,-75.37"/>
<polygon fill="midnightblue" stroke="midnightblue" points="1062.3,-71.87 1052.16,-74.94 1062,-78.87 1062.3,-71.87"/>
</g>
<!-- Node35&#45;&gt;Node21 -->
<g id="edge69" class="edge">
<title>Node35&#45;&gt;Node21</title>
<path fill="none" stroke="midnightblue" d="M1957.88,-128.73C1943.38,-119.4 1919.95,-104.32 1901,-92.13"/>
<polygon fill="midnightblue" stroke="midnightblue" points="1902.7,-89.06 1892.39,-86.59 1898.91,-94.94 1902.7,-89.06"/>
</g>
</g>
</svg>
        <g id="navigator" transform="translate(0 0)" fill="#404254">
                <rect fill="#f2f5e9" fill-opacity="0.5" stroke="#606060" stroke-width=".5" x="0" y="0" width="60" height="60"/>
                <use id="zoomplus" xlink:href="#zoomPlus" x="17" y="9" onmousedown="handleZoom(evt,'in')"/>
                <use id="zoomminus" xlink:href="#zoomMin" x="42" y="9" onmousedown="handleZoom(evt,'out')"/>
                <use id="reset" xlink:href="#resetDef" x="30" y="36" onmousedown="handleReset()"/>
                <g id="arrowUp" xlink:href="#dirArrow" transform="translate(30 24)" onmousedown="handlePan(0,-1)">
                  <use xlink:href="#rim" fill="#404040">
                        <set attributeName="fill" to="#808080" begin="arrowUp.mouseover" end="arrowUp.mouseout"/>
                  </use>
                  <path fill="none" stroke="white" stroke-width="1.5" d="M0,-3.0v7 M-2.5,-0.5L0,-3.0L2.5,-0.5"/>
                </g>
                <g id="arrowRight" xlink:href="#dirArrow" transform="rotate(90) translate(36 -43)" onmousedown="handlePan(1,0)">
                  <use xlink:href="#rim" fill="#404040">
                        <set attributeName="fill" to="#808080" begin="arrowRight.mouseover" end="arrowRight.mouseout"/>
                  </use>
                  <path fill="none" stroke="white" stroke-width="1.5" d="M0,-3.0v7 M-2.5,-0.5L0,-3.0L2.5,-0.5"/>
                </g>
                <g id="arrowDown" xlink:href="#dirArrow" transform="rotate(180) translate(-30 -48)" onmousedown="handlePan(0,1)">
                  <use xlink:href="#rim" fill="#404040">
                        <set attributeName="fill" to="#808080" begin="arrowDown.mouseover" end="arrowDown.mouseout"/>
                  </use>
                  <path fill="none" stroke="white" stroke-width="1.5" d="M0,-3.0v7 M-2.5,-0.5L0,-3.0L2.5,-0.5"/>
                </g>
                <g id="arrowLeft" xlink:href="#dirArrow" transform="rotate(270) translate(-36 17)" onmousedown="handlePan(-1,0)">
                  <use xlink:href="#rim" fill="#404040">
                        <set attributeName="fill" to="#808080" begin="arrowLeft.mouseover" end="arrowLeft.mouseout"/>
                  </use>
                  <path fill="none" stroke="white" stroke-width="1.5" d="M0,-3.0v7 M-2.5,-0.5L0,-3.0L2.5,-0.5"/>
                </g>
        </g>
        <svg viewBox="0 0 15 15" width="100%" height="30px" preserveAspectRatio="xMaxYMin meet">
         <g id="arrow_out" transform="scale(0.3 0.3)">
          <a xlink:href="geometry__properties_8h__incl_org.svg" target="_base">
           <rect id="button" ry="5" rx="5" y="6" x="6" height="38" width="38"
                fill="#f2f5e9" fill-opacity="0.5" stroke="#606060" stroke-width="1.0"/>
           <path id="arrow"
             d="M 11.500037,31.436501 C 11.940474,20.09759 22.043105,11.32322 32.158766,21.979434 L 37.068811,17.246167 C 37.068811,17.246167 37.088388,32 37.088388,32 L 22.160133,31.978069 C 22.160133,31.978069 26.997745,27.140456 26.997745,27.140456 C 18.528582,18.264221 13.291696,25.230495 11.500037,31.436501 z"
             style="fill:#404040;"/>
          </a>
         </g>
        </svg>
</svg>
