<?xml version="1.0" encoding="UTF-8" standalone="no"?>
<!DOCTYPE svg PUBLIC "-//W3C//DTD SVG 1.1//EN"
 "http://www.w3.org/Graphics/SVG/1.1/DTD/svg11.dtd">
<!-- Generated by graphviz version 2.43.0 (0)
 -->
<!-- Title: drake/geometry/geometry_set.h Pages: 1 -->
<svg width="795pt" height="419pt"
 viewBox="0.00 0.00 795.00 419.00" xmlns="http://www.w3.org/2000/svg" xmlns:xlink="http://www.w3.org/1999/xlink">
<g id="graph0" class="graph" transform="scale(1 1) rotate(0) translate(4 415)">
<title>drake/geometry/geometry_set.h</title>
<polygon fill="white" stroke="transparent" points="-4,4 -4,-415 791,-415 791,4 -4,4"/>
<!-- Node0 -->
<g id="node1" class="node">
<title>Node0</title>
<g id="a_node1"><a xlink:title=" ">
<polygon fill="#bfbfbf" stroke="black" points="165.5,-380.5 165.5,-410.5 309.5,-410.5 309.5,-380.5 165.5,-380.5"/>
<text text-anchor="start" x="173.5" y="-398.5" font-family="Helvetica,sans-Serif" font-size="10.00">drake/geometry/geometry</text>
<text text-anchor="middle" x="237.5" y="-387.5" font-family="Helvetica,sans-Serif" font-size="10.00">_set.h</text>
</a>
</g>
</g>
<!-- Node1 -->
<g id="node2" class="node">
<title>Node1</title>
<g id="a_node2"><a xlink:title=" ">
<polygon fill="white" stroke="#bfbfbf" points="22,-319 22,-338 105,-338 105,-319 22,-319"/>
<text text-anchor="middle" x="63.5" y="-326" font-family="Helvetica,sans-Serif" font-size="10.00">initializer_list</text>
</a>
</g>
</g>
<!-- Node0&#45;&gt;Node1 -->
<g id="edge1" class="edge">
<title>Node0&#45;&gt;Node1</title>
<path fill="none" stroke="midnightblue" d="M199.74,-380.4C168.67,-368.79 125.11,-352.51 95.67,-341.52"/>
<polygon fill="midnightblue" stroke="midnightblue" points="96.87,-338.23 86.27,-338.01 94.42,-344.79 96.87,-338.23"/>
</g>
<!-- Node2 -->
<g id="node3" class="node">
<title>Node2</title>
<g id="a_node3"><a xlink:title=" ">
<polygon fill="white" stroke="#bfbfbf" points="123.5,-319 123.5,-338 209.5,-338 209.5,-319 123.5,-319"/>
<text text-anchor="middle" x="166.5" y="-326" font-family="Helvetica,sans-Serif" font-size="10.00">unordered_set</text>
</a>
</g>
</g>
<!-- Node0&#45;&gt;Node2 -->
<g id="edge2" class="edge">
<title>Node0&#45;&gt;Node2</title>
<path fill="none" stroke="midnightblue" d="M222.09,-380.4C210.69,-369.96 195.17,-355.75 183.43,-345"/>
<polygon fill="midnightblue" stroke="midnightblue" points="185.74,-342.37 176,-338.19 181.01,-347.53 185.74,-342.37"/>
</g>
<!-- Node3 -->
<g id="node4" class="node">
<title>Node3</title>
<g id="a_node4"><a xlink:title=" ">
<polygon fill="white" stroke="#bfbfbf" points="0,-129 0,-148 47,-148 47,-129 0,-129"/>
<text text-anchor="middle" x="23.5" y="-136" font-family="Helvetica,sans-Serif" font-size="10.00">vector</text>
</a>
</g>
</g>
<!-- Node0&#45;&gt;Node3 -->
<g id="edge3" class="edge">
<title>Node0&#45;&gt;Node3</title>
<path fill="none" stroke="midnightblue" d="M236.78,-380.27C235.36,-363.2 231.12,-334.23 218.5,-313 174.48,-238.95 88.29,-179.19 46.85,-153.34"/>
<polygon fill="midnightblue" stroke="midnightblue" points="48.6,-150.31 38.25,-148.07 44.94,-156.28 48.6,-150.31"/>
</g>
<!-- Node4 -->
<g id="node5" class="node">
<title>Node4</title>
<g id="a_node5"><a xlink:href="drake__copyable_8h.html" target="_top" xlink:title="Provides careful macros to selectively enable or disable the special member functions for copy&#45;constr...">
<polygon fill="white" stroke="black" points="630,-190.5 630,-220.5 749,-220.5 749,-190.5 630,-190.5"/>
<text text-anchor="start" x="638" y="-208.5" font-family="Helvetica,sans-Serif" font-size="10.00">drake/common/drake</text>
<text text-anchor="middle" x="689.5" y="-197.5" font-family="Helvetica,sans-Serif" font-size="10.00">_copyable.h</text>
</a>
</g>
</g>
<!-- Node0&#45;&gt;Node4 -->
<g id="edge4" class="edge">
<title>Node0&#45;&gt;Node4</title>
<path fill="none" stroke="midnightblue" d="M309.71,-388.91C392.04,-381.57 520.77,-366.87 563.5,-344 614.43,-316.75 655.56,-260.71 675.82,-229.24"/>
<polygon fill="midnightblue" stroke="midnightblue" points="678.84,-231.01 681.2,-220.68 672.91,-227.29 678.84,-231.01"/>
</g>
<!-- Node5 -->
<g id="node6" class="node">
<title>Node5</title>
<g id="a_node6"><a xlink:href="geometry__ids_8h.html" target="_top" xlink:title=" ">
<polygon fill="white" stroke="black" points="410.5,-313.5 410.5,-343.5 554.5,-343.5 554.5,-313.5 410.5,-313.5"/>
<text text-anchor="start" x="418.5" y="-331.5" font-family="Helvetica,sans-Serif" font-size="10.00">drake/geometry/geometry</text>
<text text-anchor="middle" x="482.5" y="-320.5" font-family="Helvetica,sans-Serif" font-size="10.00">_ids.h</text>
</a>
</g>
</g>
<!-- Node0&#45;&gt;Node5 -->
<g id="edge5" class="edge">
<title>Node0&#45;&gt;Node5</title>
<path fill="none" stroke="midnightblue" d="M290.36,-380.48C328.23,-370.43 379.39,-356.86 419.4,-346.24"/>
<polygon fill="midnightblue" stroke="midnightblue" points="420.54,-349.56 429.31,-343.61 418.75,-342.79 420.54,-349.56"/>
</g>
<!-- Node5&#45;&gt;Node4 -->
<g id="edge6" class="edge">
<title>Node5&#45;&gt;Node4</title>
<path fill="none" stroke="midnightblue" d="M506.65,-313.38C543.81,-291.66 615.08,-250 656.82,-225.6"/>
<polygon fill="midnightblue" stroke="midnightblue" points="658.64,-228.6 665.5,-220.53 655.1,-222.55 658.64,-228.6"/>
</g>
<!-- Node6 -->
<g id="node7" class="node">
<title>Node6</title>
<g id="a_node7"><a xlink:href="identifier_8h.html" target="_top" xlink:title=" ">
<polygon fill="white" stroke="black" points="409.5,-257.5 409.5,-276.5 555.5,-276.5 555.5,-257.5 409.5,-257.5"/>
<text text-anchor="middle" x="482.5" y="-264.5" font-family="Helvetica,sans-Serif" font-size="10.00">drake/common/identifier.h</text>
</a>
</g>
</g>
<!-- Node5&#45;&gt;Node6 -->
<g id="edge7" class="edge">
<title>Node5&#45;&gt;Node6</title>
<path fill="none" stroke="midnightblue" d="M482.5,-313.4C482.5,-305.47 482.5,-295.46 482.5,-286.86"/>
<polygon fill="midnightblue" stroke="midnightblue" points="486,-286.66 482.5,-276.66 479,-286.66 486,-286.66"/>
</g>
<!-- Node6&#45;&gt;Node4 -->
<g id="edge11" class="edge">
<title>Node6&#45;&gt;Node4</title>
<path fill="none" stroke="midnightblue" d="M512.16,-257.48C543.08,-248.59 592.34,-234.43 631.1,-223.29"/>
<polygon fill="midnightblue" stroke="midnightblue" points="632.07,-226.65 640.71,-220.52 630.14,-219.92 632.07,-226.65"/>
</g>
<!-- Node7 -->
<g id="node8" class="node">
<title>Node7</title>
<g id="a_node8"><a xlink:title=" ">
<polygon fill="white" stroke="#bfbfbf" points="447.5,-196 447.5,-215 497.5,-215 497.5,-196 447.5,-196"/>
<text text-anchor="middle" x="472.5" y="-203" font-family="Helvetica,sans-Serif" font-size="10.00">cstdint</text>
</a>
</g>
</g>
<!-- Node6&#45;&gt;Node7 -->
<g id="edge8" class="edge">
<title>Node6&#45;&gt;Node7</title>
<path fill="none" stroke="midnightblue" d="M481.07,-257.48C479.66,-249.08 477.45,-235.98 475.64,-225.16"/>
<polygon fill="midnightblue" stroke="midnightblue" points="479.04,-224.29 473.93,-215.01 472.14,-225.45 479.04,-224.29"/>
</g>
<!-- Node8 -->
<g id="node9" class="node">
<title>Node8</title>
<g id="a_node9"><a xlink:title=" ">
<polygon fill="white" stroke="#bfbfbf" points="516,-196 516,-215 573,-215 573,-196 516,-196"/>
<text text-anchor="middle" x="544.5" y="-203" font-family="Helvetica,sans-Serif" font-size="10.00">ostream</text>
</a>
</g>
</g>
<!-- Node6&#45;&gt;Node8 -->
<g id="edge9" class="edge">
<title>Node6&#45;&gt;Node8</title>
<path fill="none" stroke="midnightblue" d="M491.38,-257.48C500.96,-248.28 516.41,-233.46 528.19,-222.16"/>
<polygon fill="midnightblue" stroke="midnightblue" points="530.84,-224.46 535.63,-215.01 525.99,-219.41 530.84,-224.46"/>
</g>
<!-- Node9 -->
<g id="node10" class="node">
<title>Node9</title>
<g id="a_node10"><a xlink:title=" ">
<polygon fill="white" stroke="#bfbfbf" points="65.5,-129 65.5,-148 109.5,-148 109.5,-129 65.5,-129"/>
<text text-anchor="middle" x="87.5" y="-136" font-family="Helvetica,sans-Serif" font-size="10.00">string</text>
</a>
</g>
</g>
<!-- Node6&#45;&gt;Node9 -->
<g id="edge10" class="edge">
<title>Node6&#45;&gt;Node9</title>
<path fill="none" stroke="midnightblue" d="M420.82,-257.47C383.13,-250.76 334.62,-239.39 294.5,-221 273.08,-211.18 272.77,-200.13 251.5,-190 196.21,-163.67 176.01,-175.05 118.5,-154 116.89,-153.41 115.25,-152.77 113.6,-152.1"/>
<polygon fill="midnightblue" stroke="midnightblue" points="114.89,-148.84 104.33,-148.02 112.07,-155.25 114.89,-148.84"/>
</g>
<!-- Node10 -->
<g id="node11" class="node">
<title>Node10</title>
<g id="a_node11"><a xlink:href="drake__throw_8h.html" target="_top" xlink:title="Provides a convenient wrapper to throw an exception when a condition is unmet.">
<polygon fill="white" stroke="black" points="668,-123.5 668,-153.5 787,-153.5 787,-123.5 668,-123.5"/>
<text text-anchor="start" x="676" y="-141.5" font-family="Helvetica,sans-Serif" font-size="10.00">drake/common/drake</text>
<text text-anchor="middle" x="727.5" y="-130.5" font-family="Helvetica,sans-Serif" font-size="10.00">_throw.h</text>
</a>
</g>
</g>
<!-- Node6&#45;&gt;Node10 -->
<g id="edge12" class="edge">
<title>Node6&#45;&gt;Node10</title>
<path fill="none" stroke="midnightblue" d="M505.31,-257.49C525.91,-249.38 556.7,-236.18 581.5,-221 600.39,-209.44 601.7,-201.69 620.5,-190 640.14,-177.79 663.2,-166.55 682.87,-157.79"/>
<polygon fill="midnightblue" stroke="midnightblue" points="684.47,-160.91 692.23,-153.7 681.66,-154.5 684.47,-160.91"/>
</g>
<!-- Node13 -->
<g id="node14" class="node">
<title>Node13</title>
<g id="a_node14"><a xlink:href="hash_8h.html" target="_top" xlink:title=" ">
<polygon fill="white" stroke="black" points="304,-196 304,-215 429,-215 429,-196 304,-196"/>
<text text-anchor="middle" x="366.5" y="-203" font-family="Helvetica,sans-Serif" font-size="10.00">drake/common/hash.h</text>
</a>
</g>
</g>
<!-- Node6&#45;&gt;Node13 -->
<g id="edge16" class="edge">
<title>Node6&#45;&gt;Node13</title>
<path fill="none" stroke="midnightblue" d="M465.88,-257.48C446.58,-247.58 414.54,-231.14 392.07,-219.62"/>
<polygon fill="midnightblue" stroke="midnightblue" points="393.58,-216.46 383.09,-215.01 390.39,-222.69 393.58,-216.46"/>
</g>
<!-- Node11 -->
<g id="node12" class="node">
<title>Node11</title>
<g id="a_node12"><a xlink:title=" ">
<polygon fill="white" stroke="#bfbfbf" points="597,-0.5 597,-19.5 666,-19.5 666,-0.5 597,-0.5"/>
<text text-anchor="middle" x="631.5" y="-7.5" font-family="Helvetica,sans-Serif" font-size="10.00">type_traits</text>
</a>
</g>
</g>
<!-- Node10&#45;&gt;Node11 -->
<g id="edge13" class="edge">
<title>Node10&#45;&gt;Node11</title>
<path fill="none" stroke="midnightblue" d="M725.74,-123.49C722.96,-106.12 716.15,-76.31 700.5,-56 690.15,-42.56 674.57,-31.91 660.84,-24.36"/>
<polygon fill="midnightblue" stroke="midnightblue" points="662.2,-21.12 651.71,-19.62 658.98,-27.33 662.2,-21.12"/>
</g>
<!-- Node12 -->
<g id="node13" class="node">
<title>Node12</title>
<g id="a_node13"><a xlink:href="drake__assert_8h.html" target="_top" xlink:title="Provides Drake&#39;s assertion implementation.">
<polygon fill="white" stroke="black" points="572,-56.5 572,-86.5 691,-86.5 691,-56.5 572,-56.5"/>
<text text-anchor="start" x="580" y="-74.5" font-family="Helvetica,sans-Serif" font-size="10.00">drake/common/drake</text>
<text text-anchor="middle" x="631.5" y="-63.5" font-family="Helvetica,sans-Serif" font-size="10.00">_assert.h</text>
</a>
</g>
</g>
<!-- Node10&#45;&gt;Node12 -->
<g id="edge14" class="edge">
<title>Node10&#45;&gt;Node12</title>
<path fill="none" stroke="midnightblue" d="M706.67,-123.4C693.21,-114.28 675.5,-102.29 660.65,-92.24"/>
<polygon fill="midnightblue" stroke="midnightblue" points="662.53,-89.28 652.29,-86.58 658.61,-95.08 662.53,-89.28"/>
</g>
<!-- Node12&#45;&gt;Node11 -->
<g id="edge15" class="edge">
<title>Node12&#45;&gt;Node11</title>
<path fill="none" stroke="midnightblue" d="M631.5,-56.4C631.5,-48.47 631.5,-38.46 631.5,-29.86"/>
<polygon fill="midnightblue" stroke="midnightblue" points="635,-29.66 631.5,-19.66 628,-29.66 635,-29.66"/>
</g>
<!-- Node13&#45;&gt;Node3 -->
<g id="edge26" class="edge">
<title>Node13&#45;&gt;Node3</title>
<path fill="none" stroke="midnightblue" d="M303.8,-196.19C227.04,-185.69 101.66,-167.37 56.5,-154 54.35,-153.37 52.17,-152.62 49.99,-151.82"/>
<polygon fill="midnightblue" stroke="midnightblue" points="51.24,-148.55 40.66,-148.02 48.6,-155.04 51.24,-148.55"/>
</g>
<!-- Node13&#45;&gt;Node9 -->
<g id="edge23" class="edge">
<title>Node13&#45;&gt;Node9</title>
<path fill="none" stroke="midnightblue" d="M321.62,-195.96C255.47,-183.28 137.53,-160.29 118.5,-154 116.83,-153.45 115.14,-152.83 113.44,-152.17"/>
<polygon fill="midnightblue" stroke="midnightblue" points="114.51,-148.82 103.94,-148.07 111.73,-155.25 114.51,-148.82"/>
</g>
<!-- Node13&#45;&gt;Node10 -->
<g id="edge28" class="edge">
<title>Node13&#45;&gt;Node10</title>
<path fill="none" stroke="midnightblue" d="M407.57,-195.95C417.67,-193.93 428.46,-191.83 438.5,-190 533.25,-172.75 559.99,-172.39 657.81,-154.27"/>
<polygon fill="midnightblue" stroke="midnightblue" points="658.64,-157.67 667.83,-152.4 657.36,-150.79 658.64,-157.67"/>
</g>
<!-- Node13&#45;&gt;Node11 -->
<g id="edge24" class="edge">
<title>Node13&#45;&gt;Node11</title>
<path fill="none" stroke="midnightblue" d="M402.07,-195.97C440.76,-186.11 499.38,-169.27 516.5,-154 552.41,-121.97 530.92,-92.3 562.5,-56 573.86,-42.94 589.91,-32.16 603.67,-24.44"/>
<polygon fill="midnightblue" stroke="midnightblue" points="605.58,-27.39 612.74,-19.59 602.27,-21.22 605.58,-27.39"/>
</g>
<!-- Node13&#45;&gt;Node12 -->
<g id="edge27" class="edge">
<title>Node13&#45;&gt;Node12</title>
<path fill="none" stroke="midnightblue" d="M407.02,-195.95C453.45,-185.7 526.25,-168.15 550.5,-154 576.65,-138.74 600.26,-112.93 615.15,-94.45"/>
<polygon fill="midnightblue" stroke="midnightblue" points="617.94,-96.56 621.36,-86.53 612.44,-92.24 617.94,-96.56"/>
</g>
<!-- Node14 -->
<g id="node15" class="node">
<title>Node14</title>
<g id="a_node15"><a xlink:title=" ">
<polygon fill="white" stroke="#bfbfbf" points="603,-129 603,-148 650,-148 650,-129 603,-129"/>
<text text-anchor="middle" x="626.5" y="-136" font-family="Helvetica,sans-Serif" font-size="10.00">cmath</text>
</a>
</g>
</g>
<!-- Node13&#45;&gt;Node14 -->
<g id="edge17" class="edge">
<title>Node13&#45;&gt;Node14</title>
<path fill="none" stroke="midnightblue" d="M407.31,-195.94C461.71,-184.4 555.02,-164.14 588.5,-154 591.07,-153.22 593.72,-152.35 596.36,-151.44"/>
<polygon fill="midnightblue" stroke="midnightblue" points="597.58,-154.72 605.78,-148.01 595.18,-148.14 597.58,-154.72"/>
</g>
<!-- Node15 -->
<g id="node16" class="node">
<title>Node15</title>
<g id="a_node16"><a xlink:title=" ">
<polygon fill="white" stroke="#bfbfbf" points="128,-129 128,-148 181,-148 181,-129 128,-129"/>
<text text-anchor="middle" x="154.5" y="-136" font-family="Helvetica,sans-Serif" font-size="10.00">cstddef</text>
</a>
</g>
</g>
<!-- Node13&#45;&gt;Node15 -->
<g id="edge18" class="edge">
<title>Node13&#45;&gt;Node15</title>
<path fill="none" stroke="midnightblue" d="M332.21,-195.96C296.28,-186.73 238.38,-171.04 189.5,-154 187.59,-153.33 185.63,-152.62 183.67,-151.88"/>
<polygon fill="midnightblue" stroke="midnightblue" points="184.56,-148.46 173.97,-148.03 181.97,-154.97 184.56,-148.46"/>
</g>
<!-- Node16 -->
<g id="node17" class="node">
<title>Node16</title>
<g id="a_node17"><a xlink:title=" ">
<polygon fill="white" stroke="#bfbfbf" points="199,-129 199,-148 264,-148 264,-129 199,-129"/>
<text text-anchor="middle" x="231.5" y="-136" font-family="Helvetica,sans-Serif" font-size="10.00">functional</text>
</a>
</g>
</g>
<!-- Node13&#45;&gt;Node16 -->
<g id="edge19" class="edge">
<title>Node13&#45;&gt;Node16</title>
<path fill="none" stroke="midnightblue" d="M348.57,-195.87C325.58,-184.8 285.47,-165.49 258.7,-152.6"/>
<polygon fill="midnightblue" stroke="midnightblue" points="260.03,-149.35 249.5,-148.17 256.99,-155.66 260.03,-149.35"/>
</g>
<!-- Node17 -->
<g id="node18" class="node">
<title>Node17</title>
<g id="a_node18"><a xlink:title=" ">
<polygon fill="white" stroke="#bfbfbf" points="282.5,-129 282.5,-148 320.5,-148 320.5,-129 282.5,-129"/>
<text text-anchor="middle" x="301.5" y="-136" font-family="Helvetica,sans-Serif" font-size="10.00">map</text>
</a>
</g>
</g>
<!-- Node13&#45;&gt;Node17 -->
<g id="edge20" class="edge">
<title>Node13&#45;&gt;Node17</title>
<path fill="none" stroke="midnightblue" d="M357.73,-195.73C347.4,-185.4 330.04,-168.04 317.33,-155.33"/>
<polygon fill="midnightblue" stroke="midnightblue" points="319.67,-152.72 310.13,-148.13 314.72,-157.67 319.67,-152.72"/>
</g>
<!-- Node18 -->
<g id="node19" class="node">
<title>Node18</title>
<g id="a_node19"><a xlink:title=" ">
<polygon fill="white" stroke="#bfbfbf" points="338.5,-129 338.5,-148 394.5,-148 394.5,-129 338.5,-129"/>
<text text-anchor="middle" x="366.5" y="-136" font-family="Helvetica,sans-Serif" font-size="10.00">optional</text>
</a>
</g>
</g>
<!-- Node13&#45;&gt;Node18 -->
<g id="edge21" class="edge">
<title>Node13&#45;&gt;Node18</title>
<path fill="none" stroke="midnightblue" d="M366.5,-195.73C366.5,-186.18 366.5,-170.62 366.5,-158.28"/>
<polygon fill="midnightblue" stroke="midnightblue" points="370,-158.13 366.5,-148.13 363,-158.13 370,-158.13"/>
</g>
<!-- Node19 -->
<g id="node20" class="node">
<title>Node19</title>
<g id="a_node20"><a xlink:title=" ">
<polygon fill="white" stroke="#bfbfbf" points="412.5,-129 412.5,-148 444.5,-148 444.5,-129 412.5,-129"/>
<text text-anchor="middle" x="428.5" y="-136" font-family="Helvetica,sans-Serif" font-size="10.00">set</text>
</a>
</g>
</g>
<!-- Node13&#45;&gt;Node19 -->
<g id="edge22" class="edge">
<title>Node13&#45;&gt;Node19</title>
<path fill="none" stroke="midnightblue" d="M374.86,-195.73C384.62,-185.5 400.97,-168.36 413.05,-155.69"/>
<polygon fill="midnightblue" stroke="midnightblue" points="415.9,-157.78 420.27,-148.13 410.84,-152.95 415.9,-157.78"/>
</g>
<!-- Node20 -->
<g id="node21" class="node">
<title>Node20</title>
<g id="a_node21"><a xlink:title=" ">
<polygon fill="white" stroke="#bfbfbf" points="463,-129 463,-148 508,-148 508,-129 463,-129"/>
<text text-anchor="middle" x="485.5" y="-136" font-family="Helvetica,sans-Serif" font-size="10.00">utility</text>
</a>
</g>
</g>
<!-- Node13&#45;&gt;Node20 -->
<g id="edge25" class="edge">
<title>Node13&#45;&gt;Node20</title>
<path fill="none" stroke="midnightblue" d="M382.55,-195.73C402.62,-184.77 437.2,-165.88 460.69,-153.05"/>
<polygon fill="midnightblue" stroke="midnightblue" points="462.61,-155.99 469.71,-148.13 459.25,-149.85 462.61,-155.99"/>
</g>
</g>
</svg>
