<?xml version="1.0" encoding="UTF-8" standalone="no"?>
<!DOCTYPE svg PUBLIC "-//W3C//DTD SVG 1.1//EN"
 "http://www.w3.org/Graphics/SVG/1.1/DTD/svg11.dtd">
<!-- Generated by graphviz version 2.43.0 (0)
 -->
<!-- Title: drake/math/hopf_coordinate.h Pages: 1 -->
<!--zoomable 274 -->
<svg id="main" version="1.1" xmlns="http://www.w3.org/2000/svg" xmlns:xlink="http://www.w3.org/1999/xlink" xml:space="preserve" onload="init(evt)">
<style type="text/css"><![CDATA[
.edge:hover path { stroke: red; }
.edge:hover polygon { stroke: red; fill: red; }
]]></style>
<script type="text/javascript"><![CDATA[
var edges = document.getElementsByTagName('g');
if (edges && edges.length) {
  for (var i=0;i<edges.length;i++) {
    if (edges[i].id.substr(0,4)=='edge') {
      edges[i].setAttribute('class','edge');
    }
  }
}
]]></script>
        <defs>
                <circle id="rim" cx="0" cy="0" r="7"/>
                <circle id="rim2" cx="0" cy="0" r="3.5"/>
                <g id="zoomPlus">
                        <use xlink:href="#rim" fill="#404040">
                                <set attributeName="fill" to="#808080" begin="zoomplus.mouseover" end="zoomplus.mouseout"/>
                        </use>
                        <path d="M-4,0h8M0,-4v8" fill="none" stroke="white" stroke-width="1.5" pointer-events="none"/>
                </g>
                <g id="zoomMin">
                        <use xlink:href="#rim" fill="#404040">
                                <set attributeName="fill" to="#808080" begin="zoomminus.mouseover" end="zoomminus.mouseout"/>
                        </use>
                        <path d="M-4,0h8" fill="none" stroke="white" stroke-width="1.5" pointer-events="none"/>
                </g>
                <g id="dirArrow">
                        <path fill="none" stroke="white" stroke-width="1.5" d="M0,-3.0v7 M-2.5,-0.5L0,-3.0L2.5,-0.5"/>
                </g>
               <g id="resetDef">
                       <use xlink:href="#rim2" fill="#404040">
                               <set attributeName="fill" to="#808080" begin="reset.mouseover" end="reset.mouseout"/>
                       </use>
               </g>
        </defs>

<script type="text/javascript">
var viewWidth = 758;
var viewHeight = 274;
var sectionId = 'dynsection-0';
</script>
<script xlink:href="svgpan.js"/>
<svg id="graph" class="graph">
<g id="viewport">
<title>drake/math/hopf_coordinate.h</title>
<polygon fill="white" stroke="transparent" points="-4,4 -4,-270 754,-270 754,4 -4,4"/>
<!-- Node0 -->
<g id="node1" class="node">
<title>Node0</title>
<g id="a_node1"><a xlink:title="Hopf coordinates parametrizes SO(3) locally as the Cartesian product of a one&#45;sphere and a two&#45;sphere...">
<polygon fill="#bfbfbf" stroke="black" points="85,-246.5 85,-265.5 248,-265.5 248,-246.5 85,-246.5"/>
<text text-anchor="middle" x="166.5" y="-253.5" font-family="Helvetica,sans-Serif" font-size="10.00">drake/math/hopf_coordinate.h</text>
</a>
</g>
</g>
<!-- Node1 -->
<g id="node2" class="node">
<title>Node1</title>
<g id="a_node2"><a xlink:title=" ">
<polygon fill="white" stroke="#bfbfbf" points="53,-185 53,-204 100,-204 100,-185 53,-185"/>
<text text-anchor="middle" x="76.5" y="-192" font-family="Helvetica,sans-Serif" font-size="10.00">cmath</text>
</a>
</g>
</g>
<!-- Node0&#45;&gt;Node1 -->
<g id="edge1" class="edge">
<title>Node0&#45;&gt;Node1</title>
<path fill="none" stroke="midnightblue" d="M153.61,-246.48C139.04,-236.84 115.1,-221.02 97.75,-209.55"/>
<polygon fill="midnightblue" stroke="midnightblue" points="99.64,-206.6 89.37,-204.01 95.78,-212.44 99.64,-206.6"/>
</g>
<!-- Node2 -->
<g id="node3" class="node">
<title>Node2</title>
<g id="a_node3"><a xlink:title=" ">
<polygon fill="white" stroke="#bfbfbf" points="0,-118 0,-137 77,-137 77,-118 0,-118"/>
<text text-anchor="middle" x="38.5" y="-125" font-family="Helvetica,sans-Serif" font-size="10.00">Eigen/Dense</text>
</a>
</g>
</g>
<!-- Node0&#45;&gt;Node2 -->
<g id="edge2" class="edge">
<title>Node0&#45;&gt;Node2</title>
<path fill="none" stroke="midnightblue" d="M161.13,-246.37C151.66,-231.55 130.86,-200.77 108.5,-179 94.23,-165.11 75.91,-152.03 61.6,-142.67"/>
<polygon fill="midnightblue" stroke="midnightblue" points="63.16,-139.51 52.85,-137.08 59.39,-145.41 63.16,-139.51"/>
</g>
<!-- Node3 -->
<g id="node4" class="node">
<title>Node3</title>
<g id="a_node4"><a xlink:title=" ">
<polygon fill="white" stroke="#bfbfbf" points="356,-185 356,-204 451,-204 451,-185 356,-185"/>
<text text-anchor="middle" x="403.5" y="-192" font-family="Helvetica,sans-Serif" font-size="10.00">Eigen/Geometry</text>
</a>
</g>
</g>
<!-- Node0&#45;&gt;Node3 -->
<g id="edge3" class="edge">
<title>Node0&#45;&gt;Node3</title>
<path fill="none" stroke="midnightblue" d="M200.68,-246.5C236.9,-237.48 295.75,-222.8 346.5,-210 350.91,-208.89 355.51,-207.73 360.09,-206.56"/>
<polygon fill="midnightblue" stroke="midnightblue" points="361.22,-209.89 370.05,-204.03 359.5,-203.1 361.22,-209.89"/>
</g>
<!-- Node4 -->
<g id="node5" class="node">
<title>Node4</title>
<g id="a_node5"><a xlink:href="drake__assert_8h.html" target="_top" xlink:title="Provides Drake&#39;s assertion implementation.">
<polygon fill="white" stroke="black" points="95,-112.5 95,-142.5 214,-142.5 214,-112.5 95,-112.5"/>
<text text-anchor="start" x="103" y="-130.5" font-family="Helvetica,sans-Serif" font-size="10.00">drake/common/drake</text>
<text text-anchor="middle" x="154.5" y="-119.5" font-family="Helvetica,sans-Serif" font-size="10.00">_assert.h</text>
</a>
</g>
</g>
<!-- Node0&#45;&gt;Node4 -->
<g id="edge4" class="edge">
<title>Node0&#45;&gt;Node4</title>
<path fill="none" stroke="midnightblue" d="M165.68,-246.31C163.87,-227.3 159.52,-181.47 156.81,-152.9"/>
<polygon fill="midnightblue" stroke="midnightblue" points="160.29,-152.51 155.86,-142.89 153.32,-153.17 160.29,-152.51"/>
</g>
<!-- Node6 -->
<g id="node7" class="node">
<title>Node6</title>
<g id="a_node7"><a xlink:href="eigen__types_8h.html" target="_top" xlink:title="This file contains abbreviated definitions for certain specializations of Eigen::Matrix that are comm...">
<polygon fill="white" stroke="black" points="219,-179.5 219,-209.5 338,-209.5 338,-179.5 219,-179.5"/>
<text text-anchor="start" x="227" y="-197.5" font-family="Helvetica,sans-Serif" font-size="10.00">drake/common/eigen</text>
<text text-anchor="middle" x="278.5" y="-186.5" font-family="Helvetica,sans-Serif" font-size="10.00">_types.h</text>
</a>
</g>
</g>
<!-- Node0&#45;&gt;Node6 -->
<g id="edge6" class="edge">
<title>Node0&#45;&gt;Node6</title>
<path fill="none" stroke="midnightblue" d="M182.55,-246.48C198.28,-238.12 222.8,-225.09 243.11,-214.3"/>
<polygon fill="midnightblue" stroke="midnightblue" points="244.91,-217.31 252.1,-209.52 241.63,-211.12 244.91,-217.31"/>
</g>
<!-- Node5 -->
<g id="node6" class="node">
<title>Node5</title>
<g id="a_node6"><a xlink:title=" ">
<polygon fill="white" stroke="#bfbfbf" points="120,-56.5 120,-75.5 189,-75.5 189,-56.5 120,-56.5"/>
<text text-anchor="middle" x="154.5" y="-63.5" font-family="Helvetica,sans-Serif" font-size="10.00">type_traits</text>
</a>
</g>
</g>
<!-- Node4&#45;&gt;Node5 -->
<g id="edge5" class="edge">
<title>Node4&#45;&gt;Node5</title>
<path fill="none" stroke="midnightblue" d="M154.5,-112.4C154.5,-104.47 154.5,-94.46 154.5,-85.86"/>
<polygon fill="midnightblue" stroke="midnightblue" points="158,-85.66 154.5,-75.66 151,-85.66 158,-85.66"/>
</g>
<!-- Node6&#45;&gt;Node2 -->
<g id="edge8" class="edge">
<title>Node6&#45;&gt;Node2</title>
<path fill="none" stroke="midnightblue" d="M222.16,-179.44C183.58,-169.65 131.3,-156.05 85.5,-143 82.3,-142.09 78.98,-141.12 75.66,-140.13"/>
<polygon fill="midnightblue" stroke="midnightblue" points="76.36,-136.68 65.78,-137.13 74.34,-143.38 76.36,-136.68"/>
</g>
<!-- Node6&#45;&gt;Node4 -->
<g id="edge10" class="edge">
<title>Node6&#45;&gt;Node4</title>
<path fill="none" stroke="midnightblue" d="M251.59,-179.4C233.64,-169.98 209.83,-157.5 190.28,-147.26"/>
<polygon fill="midnightblue" stroke="midnightblue" points="191.84,-144.12 181.35,-142.58 188.59,-150.32 191.84,-144.12"/>
</g>
<!-- Node7 -->
<g id="node8" class="node">
<title>Node7</title>
<g id="a_node8"><a xlink:title=" ">
<polygon fill="white" stroke="#bfbfbf" points="538,-118 538,-137 583,-137 583,-118 538,-118"/>
<text text-anchor="middle" x="560.5" y="-125" font-family="Helvetica,sans-Serif" font-size="10.00">utility</text>
</a>
</g>
</g>
<!-- Node6&#45;&gt;Node7 -->
<g id="edge7" class="edge">
<title>Node6&#45;&gt;Node7</title>
<path fill="none" stroke="midnightblue" d="M338.19,-180.72C341,-180.13 343.78,-179.56 346.5,-179 427.7,-162.36 450.71,-168.75 529.5,-143 531.17,-142.45 532.87,-141.84 534.56,-141.18"/>
<polygon fill="midnightblue" stroke="midnightblue" points="536.27,-144.26 544.07,-137.09 533.5,-137.83 536.27,-144.26"/>
</g>
<!-- Node8 -->
<g id="node9" class="node">
<title>Node8</title>
<g id="a_node9"><a xlink:href="constants_8h.html" target="_top" xlink:title=" ">
<polygon fill="white" stroke="black" points="601,-118 601,-137 750,-137 750,-118 601,-118"/>
<text text-anchor="middle" x="675.5" y="-125" font-family="Helvetica,sans-Serif" font-size="10.00">drake/common/constants.h</text>
</a>
</g>
</g>
<!-- Node6&#45;&gt;Node8 -->
<g id="edge9" class="edge">
<title>Node6&#45;&gt;Node8</title>
<path fill="none" stroke="midnightblue" d="M338.16,-180.55C340.98,-180.01 343.77,-179.49 346.5,-179 455.26,-159.47 483.4,-160.51 592.5,-143 600.8,-141.67 609.57,-140.2 618.16,-138.73"/>
<polygon fill="midnightblue" stroke="midnightblue" points="618.88,-142.16 628.13,-137.01 617.68,-135.26 618.88,-142.16"/>
</g>
<!-- Node9 -->
<g id="node10" class="node">
<title>Node9</title>
<g id="a_node10"><a xlink:href="drake__copyable_8h.html" target="_top" xlink:title="Provides careful macros to selectively enable or disable the special member functions for copy&#45;constr...">
<polygon fill="white" stroke="black" points="232,-112.5 232,-142.5 351,-142.5 351,-112.5 232,-112.5"/>
<text text-anchor="start" x="240" y="-130.5" font-family="Helvetica,sans-Serif" font-size="10.00">drake/common/drake</text>
<text text-anchor="middle" x="291.5" y="-119.5" font-family="Helvetica,sans-Serif" font-size="10.00">_copyable.h</text>
</a>
</g>
</g>
<!-- Node6&#45;&gt;Node9 -->
<g id="edge11" class="edge">
<title>Node6&#45;&gt;Node9</title>
<path fill="none" stroke="midnightblue" d="M281.32,-179.4C282.89,-171.56 284.88,-161.6 286.69,-152.57"/>
<polygon fill="midnightblue" stroke="midnightblue" points="290.16,-153.07 288.68,-142.58 283.29,-151.7 290.16,-153.07"/>
</g>
<!-- Node10 -->
<g id="node11" class="node">
<title>Node10</title>
<g id="a_node11"><a xlink:href="fmt__eigen_8h.html" target="_top" xlink:title=" ">
<polygon fill="white" stroke="black" points="369,-118 369,-137 520,-137 520,-118 369,-118"/>
<text text-anchor="middle" x="444.5" y="-125" font-family="Helvetica,sans-Serif" font-size="10.00">drake/common/fmt_eigen.h</text>
</a>
</g>
</g>
<!-- Node6&#45;&gt;Node10 -->
<g id="edge12" class="edge">
<title>Node6&#45;&gt;Node10</title>
<path fill="none" stroke="midnightblue" d="M314.52,-179.4C344.03,-167.84 385.36,-151.66 413.44,-140.66"/>
<polygon fill="midnightblue" stroke="midnightblue" points="414.74,-143.91 422.77,-137.01 412.19,-137.39 414.74,-143.91"/>
</g>
<!-- Node11 -->
<g id="node12" class="node">
<title>Node11</title>
<g id="a_node12"><a xlink:title=" ">
<polygon fill="white" stroke="#bfbfbf" points="552.5,-0.5 552.5,-19.5 596.5,-19.5 596.5,-0.5 552.5,-0.5"/>
<text text-anchor="middle" x="574.5" y="-7.5" font-family="Helvetica,sans-Serif" font-size="10.00">string</text>
</a>
</g>
</g>
<!-- Node10&#45;&gt;Node11 -->
<g id="edge13" class="edge">
<title>Node10&#45;&gt;Node11</title>
<path fill="none" stroke="midnightblue" d="M484.34,-117.99C508.79,-110.77 538.88,-97.96 557.5,-76 568.45,-63.08 572.45,-43.91 573.86,-29.73"/>
<polygon fill="midnightblue" stroke="midnightblue" points="577.36,-29.85 574.52,-19.65 570.37,-29.4 577.36,-29.85"/>
</g>
<!-- Node12 -->
<g id="node13" class="node">
<title>Node12</title>
<g id="a_node13"><a xlink:title=" ">
<polygon fill="white" stroke="#bfbfbf" points="364,-0.5 364,-19.5 437,-19.5 437,-0.5 364,-0.5"/>
<text text-anchor="middle" x="400.5" y="-7.5" font-family="Helvetica,sans-Serif" font-size="10.00">string_view</text>
</a>
</g>
</g>
<!-- Node10&#45;&gt;Node12 -->
<g id="edge14" class="edge">
<title>Node10&#45;&gt;Node12</title>
<path fill="none" stroke="midnightblue" d="M439.59,-117.77C434.16,-107.87 425.4,-91.13 419.5,-76 413.49,-60.6 408.35,-42.5 404.94,-29.32"/>
<polygon fill="midnightblue" stroke="midnightblue" points="408.32,-28.42 402.5,-19.57 401.53,-30.12 408.32,-28.42"/>
</g>
<!-- Node13 -->
<g id="node14" class="node">
<title>Node13</title>
<g id="a_node14"><a xlink:title=" ">
<polygon fill="white" stroke="#bfbfbf" points="303,-56.5 303,-75.5 372,-75.5 372,-56.5 303,-56.5"/>
<text text-anchor="middle" x="337.5" y="-63.5" font-family="Helvetica,sans-Serif" font-size="10.00">Eigen/Core</text>
</a>
</g>
</g>
<!-- Node10&#45;&gt;Node13 -->
<g id="edge15" class="edge">
<title>Node10&#45;&gt;Node13</title>
<path fill="none" stroke="midnightblue" d="M429.17,-117.98C411.53,-108.17 382.34,-91.93 361.64,-80.42"/>
<polygon fill="midnightblue" stroke="midnightblue" points="363.24,-77.31 352.8,-75.51 359.84,-83.43 363.24,-77.31"/>
</g>
<!-- Node14 -->
<g id="node15" class="node">
<title>Node14</title>
<g id="a_node15"><a xlink:href="fmt_8h.html" target="_top" xlink:title=" ">
<polygon fill="white" stroke="black" points="429,-56.5 429,-75.5 548,-75.5 548,-56.5 429,-56.5"/>
<text text-anchor="middle" x="488.5" y="-63.5" font-family="Helvetica,sans-Serif" font-size="10.00">drake/common/fmt.h</text>
</a>
</g>
</g>
<!-- Node10&#45;&gt;Node14 -->
<g id="edge16" class="edge">
<title>Node10&#45;&gt;Node14</title>
<path fill="none" stroke="midnightblue" d="M450.8,-117.98C457.4,-109.05 467.94,-94.81 476.19,-83.64"/>
<polygon fill="midnightblue" stroke="midnightblue" points="479.08,-85.63 482.21,-75.51 473.45,-81.47 479.08,-85.63"/>
</g>
<!-- Node14&#45;&gt;Node11 -->
<g id="edge17" class="edge">
<title>Node14&#45;&gt;Node11</title>
<path fill="none" stroke="midnightblue" d="M502.32,-56.32C515.73,-47.9 536.32,-34.97 552.09,-25.07"/>
<polygon fill="midnightblue" stroke="midnightblue" points="554.11,-27.94 560.72,-19.65 550.39,-22.01 554.11,-27.94"/>
</g>
<!-- Node14&#45;&gt;Node12 -->
<g id="edge18" class="edge">
<title>Node14&#45;&gt;Node12</title>
<path fill="none" stroke="midnightblue" d="M474.36,-56.32C460.63,-47.9 439.56,-34.97 423.44,-25.07"/>
<polygon fill="midnightblue" stroke="midnightblue" points="424.96,-21.9 414.6,-19.65 421.3,-27.87 424.96,-21.9"/>
</g>
<!-- Node15 -->
<g id="node16" class="node">
<title>Node15</title>
<g id="a_node16"><a xlink:title=" ">
<polygon fill="white" stroke="#bfbfbf" points="455,-0.5 455,-19.5 534,-19.5 534,-0.5 455,-0.5"/>
<text text-anchor="middle" x="494.5" y="-7.5" font-family="Helvetica,sans-Serif" font-size="10.00">fmt/format.h</text>
</a>
</g>
</g>
<!-- Node14&#45;&gt;Node15 -->
<g id="edge19" class="edge">
<title>Node14&#45;&gt;Node15</title>
<path fill="none" stroke="midnightblue" d="M489.49,-56.08C490.29,-48.93 491.43,-38.64 492.42,-29.69"/>
<polygon fill="midnightblue" stroke="midnightblue" points="495.9,-30.08 493.53,-19.75 488.94,-29.3 495.9,-30.08"/>
</g>
</g>
</svg>
        <g id="navigator" transform="translate(0 0)" fill="#404254">
                <rect fill="#f2f5e9" fill-opacity="0.5" stroke="#606060" stroke-width=".5" x="0" y="0" width="60" height="60"/>
                <use id="zoomplus" xlink:href="#zoomPlus" x="17" y="9" onmousedown="handleZoom(evt,'in')"/>
                <use id="zoomminus" xlink:href="#zoomMin" x="42" y="9" onmousedown="handleZoom(evt,'out')"/>
                <use id="reset" xlink:href="#resetDef" x="30" y="36" onmousedown="handleReset()"/>
                <g id="arrowUp" xlink:href="#dirArrow" transform="translate(30 24)" onmousedown="handlePan(0,-1)">
                  <use xlink:href="#rim" fill="#404040">
                        <set attributeName="fill" to="#808080" begin="arrowUp.mouseover" end="arrowUp.mouseout"/>
                  </use>
                  <path fill="none" stroke="white" stroke-width="1.5" d="M0,-3.0v7 M-2.5,-0.5L0,-3.0L2.5,-0.5"/>
                </g>
                <g id="arrowRight" xlink:href="#dirArrow" transform="rotate(90) translate(36 -43)" onmousedown="handlePan(1,0)">
                  <use xlink:href="#rim" fill="#404040">
                        <set attributeName="fill" to="#808080" begin="arrowRight.mouseover" end="arrowRight.mouseout"/>
                  </use>
                  <path fill="none" stroke="white" stroke-width="1.5" d="M0,-3.0v7 M-2.5,-0.5L0,-3.0L2.5,-0.5"/>
                </g>
                <g id="arrowDown" xlink:href="#dirArrow" transform="rotate(180) translate(-30 -48)" onmousedown="handlePan(0,1)">
                  <use xlink:href="#rim" fill="#404040">
                        <set attributeName="fill" to="#808080" begin="arrowDown.mouseover" end="arrowDown.mouseout"/>
                  </use>
                  <path fill="none" stroke="white" stroke-width="1.5" d="M0,-3.0v7 M-2.5,-0.5L0,-3.0L2.5,-0.5"/>
                </g>
                <g id="arrowLeft" xlink:href="#dirArrow" transform="rotate(270) translate(-36 17)" onmousedown="handlePan(-1,0)">
                  <use xlink:href="#rim" fill="#404040">
                        <set attributeName="fill" to="#808080" begin="arrowLeft.mouseover" end="arrowLeft.mouseout"/>
                  </use>
                  <path fill="none" stroke="white" stroke-width="1.5" d="M0,-3.0v7 M-2.5,-0.5L0,-3.0L2.5,-0.5"/>
                </g>
        </g>
        <svg viewBox="0 0 15 15" width="100%" height="30px" preserveAspectRatio="xMaxYMin meet">
         <g id="arrow_out" transform="scale(0.3 0.3)">
          <a xlink:href="hopf__coordinate_8h__incl_org.svg" target="_base">
           <rect id="button" ry="5" rx="5" y="6" x="6" height="38" width="38"
                fill="#f2f5e9" fill-opacity="0.5" stroke="#606060" stroke-width="1.0"/>
           <path id="arrow"
             d="M 11.500037,31.436501 C 11.940474,20.09759 22.043105,11.32322 32.158766,21.979434 L 37.068811,17.246167 C 37.068811,17.246167 37.088388,32 37.088388,32 L 22.160133,31.978069 C 22.160133,31.978069 26.997745,27.140456 26.997745,27.140456 C 18.528582,18.264221 13.291696,25.230495 11.500037,31.436501 z"
             style="fill:#404040;"/>
          </a>
         </g>
        </svg>
</svg>
