<?xml version="1.0" encoding="UTF-8" standalone="no"?>
<!DOCTYPE svg PUBLIC "-//W3C//DTD SVG 1.1//EN"
 "http://www.w3.org/Graphics/SVG/1.1/DTD/svg11.dtd">
<!-- Generated by graphviz version 2.43.0 (0)
 -->
<!-- Title: drake/bindings/pydrake/common/identifier_pybind.h Pages: 1 -->
<svg width="1422pt" height="363pt"
 viewBox="0.00 0.00 1422.00 363.00" xmlns="http://www.w3.org/2000/svg" xmlns:xlink="http://www.w3.org/1999/xlink">
<g id="graph0" class="graph" transform="scale(1 1) rotate(0) translate(4 359)">
<title>drake/bindings/pydrake/common/identifier_pybind.h</title>
<polygon fill="white" stroke="transparent" points="-4,4 -4,-359 1418,-359 1418,4 -4,4"/>
<!-- Node0 -->
<g id="node1" class="node">
<title>Node0</title>
<g id="a_node1"><a xlink:title=" ">
<polygon fill="#bfbfbf" stroke="black" points="878,-324.5 878,-354.5 1034,-354.5 1034,-324.5 878,-324.5"/>
<text text-anchor="start" x="886" y="-342.5" font-family="Helvetica,sans-Serif" font-size="10.00">drake/bindings/pydrake</text>
<text text-anchor="middle" x="956" y="-331.5" font-family="Helvetica,sans-Serif" font-size="10.00">/common/identifier_pybind.h</text>
</a>
</g>
</g>
<!-- Node1 -->
<g id="node2" class="node">
<title>Node1</title>
<g id="a_node2"><a xlink:title=" ">
<polygon fill="white" stroke="#bfbfbf" points="1097,-129 1097,-148 1141,-148 1141,-129 1097,-129"/>
<text text-anchor="middle" x="1119" y="-136" font-family="Helvetica,sans-Serif" font-size="10.00">string</text>
</a>
</g>
</g>
<!-- Node0&#45;&gt;Node1 -->
<g id="edge1" class="edge">
<title>Node0&#45;&gt;Node1</title>
<path fill="none" stroke="midnightblue" d="M975.31,-324.46C1002.15,-304.15 1050.93,-264.23 1082,-221 1096.14,-201.33 1106.77,-175.4 1112.93,-158.13"/>
<polygon fill="midnightblue" stroke="midnightblue" points="1116.41,-158.77 1116.33,-148.18 1109.79,-156.51 1116.41,-158.77"/>
</g>
<!-- Node2 -->
<g id="node3" class="node">
<title>Node2</title>
<g id="a_node3"><a xlink:title=" ">
<polygon fill="white" stroke="#bfbfbf" points="1136,-263 1136,-282 1256,-282 1256,-263 1136,-263"/>
<text text-anchor="middle" x="1196" y="-270" font-family="Helvetica,sans-Serif" font-size="10.00">pybind11/operators.h</text>
</a>
</g>
</g>
<!-- Node0&#45;&gt;Node2 -->
<g id="edge2" class="edge">
<title>Node0&#45;&gt;Node2</title>
<path fill="none" stroke="midnightblue" d="M1007.78,-324.48C1051.73,-312.57 1113.97,-295.72 1154.66,-284.7"/>
<polygon fill="midnightblue" stroke="midnightblue" points="1155.77,-288.02 1164.51,-282.03 1153.94,-281.26 1155.77,-288.02"/>
</g>
<!-- Node3 -->
<g id="node4" class="node">
<title>Node3</title>
<g id="a_node4"><a xlink:title=" ">
<polygon fill="white" stroke="#bfbfbf" points="60.5,-196 60.5,-215 179.5,-215 179.5,-196 60.5,-196"/>
<text text-anchor="middle" x="120" y="-203" font-family="Helvetica,sans-Serif" font-size="10.00">pybind11/pybind11.h</text>
</a>
</g>
</g>
<!-- Node0&#45;&gt;Node3 -->
<g id="edge3" class="edge">
<title>Node0&#45;&gt;Node3</title>
<path fill="none" stroke="midnightblue" d="M877.8,-335.41C731.22,-329.1 420.56,-313.19 316,-288 251.54,-272.47 180.87,-238.51 144.56,-219.7"/>
<polygon fill="midnightblue" stroke="midnightblue" points="146.16,-216.59 135.68,-215.04 142.91,-222.79 146.16,-216.59"/>
</g>
<!-- Node4 -->
<g id="node5" class="node">
<title>Node4</title>
<g id="a_node5"><a xlink:title=" ">
<polygon fill="white" stroke="#bfbfbf" points="1274,-257.5 1274,-287.5 1414,-287.5 1414,-257.5 1274,-257.5"/>
<text text-anchor="start" x="1282" y="-275.5" font-family="Helvetica,sans-Serif" font-size="10.00">drake/bindings/pydrake</text>
<text text-anchor="middle" x="1344" y="-264.5" font-family="Helvetica,sans-Serif" font-size="10.00">/documentation_pybind.h</text>
</a>
</g>
</g>
<!-- Node0&#45;&gt;Node4 -->
<g id="edge4" class="edge">
<title>Node0&#45;&gt;Node4</title>
<path fill="none" stroke="midnightblue" d="M1034.17,-326.16C1094.3,-316.56 1179.73,-302.71 1263.82,-288.19"/>
<polygon fill="midnightblue" stroke="midnightblue" points="1264.55,-291.61 1273.8,-286.46 1263.35,-284.72 1264.55,-291.61"/>
</g>
<!-- Node5 -->
<g id="node6" class="node">
<title>Node5</title>
<g id="a_node6"><a xlink:href="pydrake__pybind_8h.html" target="_top" xlink:title=" ">
<polygon fill="white" stroke="black" points="325,-257.5 325,-287.5 455,-287.5 455,-257.5 325,-257.5"/>
<text text-anchor="start" x="333" y="-275.5" font-family="Helvetica,sans-Serif" font-size="10.00">drake/bindings/pydrake</text>
<text text-anchor="middle" x="390" y="-264.5" font-family="Helvetica,sans-Serif" font-size="10.00">/pydrake_pybind.h</text>
</a>
</g>
</g>
<!-- Node0&#45;&gt;Node5 -->
<g id="edge5" class="edge">
<title>Node0&#45;&gt;Node5</title>
<path fill="none" stroke="midnightblue" d="M877.89,-329.53C768.9,-317.01 572.51,-294.46 465.14,-282.13"/>
<polygon fill="midnightblue" stroke="midnightblue" points="465.36,-278.63 455.03,-280.97 464.56,-285.59 465.36,-278.63"/>
</g>
<!-- Node7 -->
<g id="node8" class="node">
<title>Node7</title>
<g id="a_node8"><a xlink:href="identifier_8h.html" target="_top" xlink:title=" ">
<polygon fill="white" stroke="black" points="732,-263 732,-282 876,-282 876,-263 732,-263"/>
<text text-anchor="middle" x="804" y="-270" font-family="Helvetica,sans-Serif" font-size="10.00">drake/common/identifier.h</text>
</a>
</g>
</g>
<!-- Node0&#45;&gt;Node7 -->
<g id="edge8" class="edge">
<title>Node0&#45;&gt;Node7</title>
<path fill="none" stroke="midnightblue" d="M923.02,-324.4C896.23,-312.94 858.81,-296.94 833.12,-285.95"/>
<polygon fill="midnightblue" stroke="midnightblue" points="834.46,-282.72 823.89,-282.01 831.71,-289.16 834.46,-282.72"/>
</g>
<!-- Node5&#45;&gt;Node3 -->
<g id="edge7" class="edge">
<title>Node5&#45;&gt;Node3</title>
<path fill="none" stroke="midnightblue" d="M331.75,-257.48C281.88,-245.47 211.09,-228.43 165.35,-217.42"/>
<polygon fill="midnightblue" stroke="midnightblue" points="165.97,-213.97 155.43,-215.03 164.33,-220.77 165.97,-213.97"/>
</g>
<!-- Node6 -->
<g id="node7" class="node">
<title>Node6</title>
<g id="a_node7"><a xlink:title=" ">
<polygon fill="white" stroke="#bfbfbf" points="354.5,-129 354.5,-148 399.5,-148 399.5,-129 354.5,-129"/>
<text text-anchor="middle" x="377" y="-136" font-family="Helvetica,sans-Serif" font-size="10.00">utility</text>
</a>
</g>
</g>
<!-- Node5&#45;&gt;Node6 -->
<g id="edge6" class="edge">
<title>Node5&#45;&gt;Node6</title>
<path fill="none" stroke="midnightblue" d="M388.61,-257.37C386.25,-233.4 381.46,-184.75 378.83,-158.06"/>
<polygon fill="midnightblue" stroke="midnightblue" points="382.31,-157.71 377.85,-148.1 375.34,-158.39 382.31,-157.71"/>
</g>
<!-- Node7&#45;&gt;Node1 -->
<g id="edge11" class="edge">
<title>Node7&#45;&gt;Node1</title>
<path fill="none" stroke="midnightblue" d="M876.13,-269.29C927.98,-264.84 997.83,-252.77 1051,-221 1077.27,-205.31 1098.07,-175.68 1109.44,-156.8"/>
<polygon fill="midnightblue" stroke="midnightblue" points="1112.54,-158.45 1114.51,-148.04 1106.48,-154.94 1112.54,-158.45"/>
</g>
<!-- Node7&#45;&gt;Node6 -->
<g id="edge12" class="edge">
<title>Node7&#45;&gt;Node6</title>
<path fill="none" stroke="midnightblue" d="M759.89,-262.96C716.1,-254.05 647.27,-238.91 589,-221 509.39,-196.53 491.66,-184.08 414,-154 412.17,-153.29 410.28,-152.56 408.38,-151.82"/>
<polygon fill="midnightblue" stroke="midnightblue" points="409.49,-148.49 398.9,-148.12 406.94,-155.01 409.49,-148.49"/>
</g>
<!-- Node8 -->
<g id="node9" class="node">
<title>Node8</title>
<g id="a_node9"><a xlink:title=" ">
<polygon fill="white" stroke="#bfbfbf" points="779,-196 779,-215 829,-215 829,-196 779,-196"/>
<text text-anchor="middle" x="804" y="-203" font-family="Helvetica,sans-Serif" font-size="10.00">cstdint</text>
</a>
</g>
</g>
<!-- Node7&#45;&gt;Node8 -->
<g id="edge9" class="edge">
<title>Node7&#45;&gt;Node8</title>
<path fill="none" stroke="midnightblue" d="M804,-262.73C804,-253.18 804,-237.62 804,-225.28"/>
<polygon fill="midnightblue" stroke="midnightblue" points="807.5,-225.13 804,-215.13 800.5,-225.13 807.5,-225.13"/>
</g>
<!-- Node9 -->
<g id="node10" class="node">
<title>Node9</title>
<g id="a_node10"><a xlink:title=" ">
<polygon fill="white" stroke="#bfbfbf" points="847.5,-196 847.5,-215 904.5,-215 904.5,-196 847.5,-196"/>
<text text-anchor="middle" x="876" y="-203" font-family="Helvetica,sans-Serif" font-size="10.00">ostream</text>
</a>
</g>
</g>
<!-- Node7&#45;&gt;Node9 -->
<g id="edge10" class="edge">
<title>Node7&#45;&gt;Node9</title>
<path fill="none" stroke="midnightblue" d="M813.71,-262.73C825.26,-252.31 844.75,-234.71 858.86,-221.97"/>
<polygon fill="midnightblue" stroke="midnightblue" points="861.37,-224.43 866.44,-215.13 856.68,-219.23 861.37,-224.43"/>
</g>
<!-- Node10 -->
<g id="node11" class="node">
<title>Node10</title>
<g id="a_node11"><a xlink:href="drake__copyable_8h.html" target="_top" xlink:title="Provides careful macros to selectively enable or disable the special member functions for copy&#45;constr...">
<polygon fill="white" stroke="black" points="922.5,-190.5 922.5,-220.5 1041.5,-220.5 1041.5,-190.5 922.5,-190.5"/>
<text text-anchor="start" x="930.5" y="-208.5" font-family="Helvetica,sans-Serif" font-size="10.00">drake/common/drake</text>
<text text-anchor="middle" x="982" y="-197.5" font-family="Helvetica,sans-Serif" font-size="10.00">_copyable.h</text>
</a>
</g>
</g>
<!-- Node7&#45;&gt;Node10 -->
<g id="edge13" class="edge">
<title>Node7&#45;&gt;Node10</title>
<path fill="none" stroke="midnightblue" d="M827.64,-262.87C854.69,-252.99 899.71,-236.55 934.17,-223.97"/>
<polygon fill="midnightblue" stroke="midnightblue" points="935.39,-227.25 943.58,-220.53 932.99,-220.67 935.39,-227.25"/>
</g>
<!-- Node11 -->
<g id="node12" class="node">
<title>Node11</title>
<g id="a_node12"><a xlink:href="drake__throw_8h.html" target="_top" xlink:title="Provides a convenient wrapper to throw an exception when a condition is unmet.">
<polygon fill="white" stroke="black" points="959.5,-123.5 959.5,-153.5 1078.5,-153.5 1078.5,-123.5 959.5,-123.5"/>
<text text-anchor="start" x="967.5" y="-141.5" font-family="Helvetica,sans-Serif" font-size="10.00">drake/common/drake</text>
<text text-anchor="middle" x="1019" y="-130.5" font-family="Helvetica,sans-Serif" font-size="10.00">_throw.h</text>
</a>
</g>
</g>
<!-- Node7&#45;&gt;Node11 -->
<g id="edge14" class="edge">
<title>Node7&#45;&gt;Node11</title>
<path fill="none" stroke="midnightblue" d="M794.94,-262.78C779.49,-246.86 751.42,-212.64 770,-190 820.05,-129.01 866.96,-167.36 949.35,-154.1"/>
<polygon fill="midnightblue" stroke="midnightblue" points="950.1,-157.52 959.31,-152.28 948.84,-150.64 950.1,-157.52"/>
</g>
<!-- Node14 -->
<g id="node15" class="node">
<title>Node14</title>
<g id="a_node15"><a xlink:href="fmt__ostream_8h.html" target="_top" xlink:title=" ">
<polygon fill="white" stroke="black" points="198,-196 198,-215 362,-215 362,-196 198,-196"/>
<text text-anchor="middle" x="280" y="-203" font-family="Helvetica,sans-Serif" font-size="10.00">drake/common/fmt_ostream.h</text>
</a>
</g>
</g>
<!-- Node7&#45;&gt;Node14 -->
<g id="edge18" class="edge">
<title>Node7&#45;&gt;Node14</title>
<path fill="none" stroke="midnightblue" d="M735.23,-262.97C638.09,-250.92 461.15,-228.97 358.83,-216.28"/>
<polygon fill="midnightblue" stroke="midnightblue" points="359.21,-212.8 348.86,-215.04 358.35,-219.75 359.21,-212.8"/>
</g>
<!-- Node20 -->
<g id="node21" class="node">
<title>Node20</title>
<g id="a_node21"><a xlink:href="hash_8h.html" target="_top" xlink:title=" ">
<polygon fill="white" stroke="black" points="597.5,-196 597.5,-215 722.5,-215 722.5,-196 597.5,-196"/>
<text text-anchor="middle" x="660" y="-203" font-family="Helvetica,sans-Serif" font-size="10.00">drake/common/hash.h</text>
</a>
</g>
</g>
<!-- Node7&#45;&gt;Node20 -->
<g id="edge25" class="edge">
<title>Node7&#45;&gt;Node20</title>
<path fill="none" stroke="midnightblue" d="M784.88,-262.87C760.24,-251.75 717.19,-232.32 688.64,-219.43"/>
<polygon fill="midnightblue" stroke="midnightblue" points="689.76,-216.09 679.2,-215.17 686.88,-222.47 689.76,-216.09"/>
</g>
<!-- Node12 -->
<g id="node13" class="node">
<title>Node12</title>
<g id="a_node13"><a xlink:title=" ">
<polygon fill="white" stroke="#bfbfbf" points="732.5,-0.5 732.5,-19.5 801.5,-19.5 801.5,-0.5 732.5,-0.5"/>
<text text-anchor="middle" x="767" y="-7.5" font-family="Helvetica,sans-Serif" font-size="10.00">type_traits</text>
</a>
</g>
</g>
<!-- Node11&#45;&gt;Node12 -->
<g id="edge15" class="edge">
<title>Node11&#45;&gt;Node12</title>
<path fill="none" stroke="midnightblue" d="M991.07,-123.48C942.03,-98.86 841.14,-48.22 793.29,-24.2"/>
<polygon fill="midnightblue" stroke="midnightblue" points="794.7,-20.99 784.19,-19.63 791.56,-27.24 794.7,-20.99"/>
</g>
<!-- Node13 -->
<g id="node14" class="node">
<title>Node13</title>
<g id="a_node14"><a xlink:href="drake__assert_8h.html" target="_top" xlink:title="Provides Drake&#39;s assertion implementation.">
<polygon fill="white" stroke="black" points="707.5,-56.5 707.5,-86.5 826.5,-86.5 826.5,-56.5 707.5,-56.5"/>
<text text-anchor="start" x="715.5" y="-74.5" font-family="Helvetica,sans-Serif" font-size="10.00">drake/common/drake</text>
<text text-anchor="middle" x="767" y="-63.5" font-family="Helvetica,sans-Serif" font-size="10.00">_assert.h</text>
</a>
</g>
</g>
<!-- Node11&#45;&gt;Node13 -->
<g id="edge16" class="edge">
<title>Node11&#45;&gt;Node13</title>
<path fill="none" stroke="midnightblue" d="M964.63,-123.48C925.6,-113.41 872.84,-99.8 831.65,-89.17"/>
<polygon fill="midnightblue" stroke="midnightblue" points="832.26,-85.72 821.71,-86.61 830.52,-92.5 832.26,-85.72"/>
</g>
<!-- Node13&#45;&gt;Node12 -->
<g id="edge17" class="edge">
<title>Node13&#45;&gt;Node12</title>
<path fill="none" stroke="midnightblue" d="M767,-56.4C767,-48.47 767,-38.46 767,-29.86"/>
<polygon fill="midnightblue" stroke="midnightblue" points="770.5,-29.66 767,-19.66 763.5,-29.66 770.5,-29.66"/>
</g>
<!-- Node15 -->
<g id="node16" class="node">
<title>Node15</title>
<g id="a_node16"><a xlink:title=" ">
<polygon fill="white" stroke="#bfbfbf" points="0,-129 0,-148 56,-148 56,-129 0,-129"/>
<text text-anchor="middle" x="28" y="-136" font-family="Helvetica,sans-Serif" font-size="10.00">sstream</text>
</a>
</g>
</g>
<!-- Node14&#45;&gt;Node15 -->
<g id="edge19" class="edge">
<title>Node14&#45;&gt;Node15</title>
<path fill="none" stroke="midnightblue" d="M239.44,-195.96C196.92,-186.73 128.31,-171.03 70,-154 67.06,-153.14 64.02,-152.2 60.98,-151.22"/>
<polygon fill="midnightblue" stroke="midnightblue" points="62.01,-147.88 51.42,-148.03 59.8,-154.52 62.01,-147.88"/>
</g>
<!-- Node16 -->
<g id="node17" class="node">
<title>Node16</title>
<g id="a_node17"><a xlink:title=" ">
<polygon fill="white" stroke="#bfbfbf" points="47.5,-62 47.5,-81 120.5,-81 120.5,-62 47.5,-62"/>
<text text-anchor="middle" x="84" y="-69" font-family="Helvetica,sans-Serif" font-size="10.00">string_view</text>
</a>
</g>
</g>
<!-- Node14&#45;&gt;Node16 -->
<g id="edge20" class="edge">
<title>Node14&#45;&gt;Node16</title>
<path fill="none" stroke="midnightblue" d="M230.03,-195.92C184.37,-187.09 121.41,-172.1 104,-154 87.86,-137.22 84.08,-109.62 83.51,-91.26"/>
<polygon fill="midnightblue" stroke="midnightblue" points="87.01,-91.19 83.5,-81.2 80.01,-91.2 87.01,-91.19"/>
</g>
<!-- Node17 -->
<g id="node18" class="node">
<title>Node17</title>
<g id="a_node18"><a xlink:title=" ">
<polygon fill="white" stroke="#bfbfbf" points="250,-129 250,-148 336,-148 336,-129 250,-129"/>
<text text-anchor="middle" x="293" y="-136" font-family="Helvetica,sans-Serif" font-size="10.00">fmt/ostream.h</text>
</a>
</g>
</g>
<!-- Node14&#45;&gt;Node17 -->
<g id="edge21" class="edge">
<title>Node14&#45;&gt;Node17</title>
<path fill="none" stroke="midnightblue" d="M281.75,-195.73C283.66,-186.18 286.78,-170.62 289.24,-158.28"/>
<polygon fill="midnightblue" stroke="midnightblue" points="292.75,-158.62 291.27,-148.13 285.88,-157.25 292.75,-158.62"/>
</g>
<!-- Node18 -->
<g id="node19" class="node">
<title>Node18</title>
<g id="a_node19"><a xlink:href="fmt_8h.html" target="_top" xlink:title=" ">
<polygon fill="white" stroke="black" points="112.5,-129 112.5,-148 231.5,-148 231.5,-129 112.5,-129"/>
<text text-anchor="middle" x="172" y="-136" font-family="Helvetica,sans-Serif" font-size="10.00">drake/common/fmt.h</text>
</a>
</g>
</g>
<!-- Node14&#45;&gt;Node18 -->
<g id="edge22" class="edge">
<title>Node14&#45;&gt;Node18</title>
<path fill="none" stroke="midnightblue" d="M265.43,-195.73C247.38,-184.87 216.39,-166.22 195.08,-153.39"/>
<polygon fill="midnightblue" stroke="midnightblue" points="196.71,-150.29 186.33,-148.13 193.1,-156.28 196.71,-150.29"/>
</g>
<!-- Node18&#45;&gt;Node16 -->
<g id="edge23" class="edge">
<title>Node18&#45;&gt;Node16</title>
<path fill="none" stroke="midnightblue" d="M160.13,-128.73C145.75,-118.11 121.3,-100.05 103.99,-87.26"/>
<polygon fill="midnightblue" stroke="midnightblue" points="105.8,-84.25 95.68,-81.13 101.64,-89.88 105.8,-84.25"/>
</g>
<!-- Node19 -->
<g id="node20" class="node">
<title>Node19</title>
<g id="a_node20"><a xlink:title=" ">
<polygon fill="white" stroke="#bfbfbf" points="138.5,-62 138.5,-81 217.5,-81 217.5,-62 138.5,-62"/>
<text text-anchor="middle" x="178" y="-69" font-family="Helvetica,sans-Serif" font-size="10.00">fmt/format.h</text>
</a>
</g>
</g>
<!-- Node18&#45;&gt;Node19 -->
<g id="edge24" class="edge">
<title>Node18&#45;&gt;Node19</title>
<path fill="none" stroke="midnightblue" d="M172.81,-128.73C173.69,-119.18 175.13,-103.62 176.27,-91.28"/>
<polygon fill="midnightblue" stroke="midnightblue" points="179.77,-91.41 177.2,-81.13 172.8,-90.76 179.77,-91.41"/>
</g>
<!-- Node20&#45;&gt;Node1 -->
<g id="edge32" class="edge">
<title>Node20&#45;&gt;Node1</title>
<path fill="none" stroke="midnightblue" d="M722.51,-196.06C738.02,-194.02 754.61,-191.89 770,-190 911.18,-172.71 951.11,-192.64 1088,-154 1089.93,-153.46 1091.89,-152.8 1093.84,-152.08"/>
<polygon fill="midnightblue" stroke="midnightblue" points="1095.46,-155.19 1103.29,-148.05 1092.72,-148.75 1095.46,-155.19"/>
</g>
<!-- Node20&#45;&gt;Node6 -->
<g id="edge34" class="edge">
<title>Node20&#45;&gt;Node6</title>
<path fill="none" stroke="midnightblue" d="M604.62,-195.92C554.32,-187.47 478.38,-173.07 414,-154 411.57,-153.28 409.07,-152.47 406.58,-151.6"/>
<polygon fill="midnightblue" stroke="midnightblue" points="407.73,-148.3 397.14,-148.11 405.3,-154.86 407.73,-148.3"/>
</g>
<!-- Node20&#45;&gt;Node11 -->
<g id="edge37" class="edge">
<title>Node20&#45;&gt;Node11</title>
<path fill="none" stroke="midnightblue" d="M704.35,-195.99C715.04,-193.99 726.42,-191.89 737,-190 828.8,-173.64 854.57,-172.15 949.31,-154.28"/>
<polygon fill="midnightblue" stroke="midnightblue" points="950.15,-157.68 959.33,-152.38 948.85,-150.8 950.15,-157.68"/>
</g>
<!-- Node20&#45;&gt;Node12 -->
<g id="edge33" class="edge">
<title>Node20&#45;&gt;Node12</title>
<path fill="none" stroke="midnightblue" d="M610.04,-195.99C550.34,-185.32 457.16,-166.86 447,-154 438.45,-143.19 439.03,-134.24 447,-123 510.3,-33.78 650.36,-15.07 722.35,-11.52"/>
<polygon fill="midnightblue" stroke="midnightblue" points="722.62,-15.01 732.46,-11.1 722.33,-8.02 722.62,-15.01"/>
</g>
<!-- Node20&#45;&gt;Node13 -->
<g id="edge36" class="edge">
<title>Node20&#45;&gt;Node13</title>
<path fill="none" stroke="midnightblue" d="M667.02,-195.84C683.44,-175.58 724.77,-124.59 748.84,-94.9"/>
<polygon fill="midnightblue" stroke="midnightblue" points="751.84,-96.76 755.42,-86.78 746.41,-92.35 751.84,-96.76"/>
</g>
<!-- Node21 -->
<g id="node22" class="node">
<title>Node21</title>
<g id="a_node22"><a xlink:title=" ">
<polygon fill="white" stroke="#bfbfbf" points="740.5,-129 740.5,-148 787.5,-148 787.5,-129 740.5,-129"/>
<text text-anchor="middle" x="764" y="-136" font-family="Helvetica,sans-Serif" font-size="10.00">cmath</text>
</a>
</g>
</g>
<!-- Node20&#45;&gt;Node21 -->
<g id="edge26" class="edge">
<title>Node20&#45;&gt;Node21</title>
<path fill="none" stroke="midnightblue" d="M674.03,-195.73C691.33,-184.92 720.99,-166.38 741.49,-153.57"/>
<polygon fill="midnightblue" stroke="midnightblue" points="743.57,-156.4 750.2,-148.13 739.86,-150.46 743.57,-156.4"/>
</g>
<!-- Node22 -->
<g id="node23" class="node">
<title>Node22</title>
<g id="a_node23"><a xlink:title=" ">
<polygon fill="white" stroke="#bfbfbf" points="805.5,-129 805.5,-148 858.5,-148 858.5,-129 805.5,-129"/>
<text text-anchor="middle" x="832" y="-136" font-family="Helvetica,sans-Serif" font-size="10.00">cstddef</text>
</a>
</g>
</g>
<!-- Node20&#45;&gt;Node22 -->
<g id="edge27" class="edge">
<title>Node20&#45;&gt;Node22</title>
<path fill="none" stroke="midnightblue" d="M684.36,-195.85C711.84,-186.01 757.81,-169.33 797,-154 798.64,-153.36 800.32,-152.69 802.02,-152.01"/>
<polygon fill="midnightblue" stroke="midnightblue" points="803.76,-155.08 811.7,-148.07 801.12,-148.6 803.76,-155.08"/>
</g>
<!-- Node23 -->
<g id="node24" class="node">
<title>Node23</title>
<g id="a_node24"><a xlink:title=" ">
<polygon fill="white" stroke="#bfbfbf" points="876.5,-129 876.5,-148 941.5,-148 941.5,-129 876.5,-129"/>
<text text-anchor="middle" x="909" y="-136" font-family="Helvetica,sans-Serif" font-size="10.00">functional</text>
</a>
</g>
</g>
<!-- Node20&#45;&gt;Node23 -->
<g id="edge28" class="edge">
<title>Node20&#45;&gt;Node23</title>
<path fill="none" stroke="midnightblue" d="M700.59,-195.93C742.75,-186.73 810.48,-171.11 868,-154 870.78,-153.17 873.65,-152.27 876.52,-151.33"/>
<polygon fill="midnightblue" stroke="midnightblue" points="877.81,-154.58 886.15,-148.04 875.55,-147.96 877.81,-154.58"/>
</g>
<!-- Node24 -->
<g id="node25" class="node">
<title>Node24</title>
<g id="a_node25"><a xlink:title=" ">
<polygon fill="white" stroke="#bfbfbf" points="456,-129 456,-148 494,-148 494,-129 456,-129"/>
<text text-anchor="middle" x="475" y="-136" font-family="Helvetica,sans-Serif" font-size="10.00">map</text>
</a>
</g>
</g>
<!-- Node20&#45;&gt;Node24 -->
<g id="edge29" class="edge">
<title>Node20&#45;&gt;Node24</title>
<path fill="none" stroke="midnightblue" d="M628.17,-195.95C596.05,-186.93 545.29,-171.61 503,-154 501.96,-153.57 500.91,-153.11 499.86,-152.64"/>
<polygon fill="midnightblue" stroke="midnightblue" points="501,-149.31 490.48,-148.1 497.95,-155.61 501,-149.31"/>
</g>
<!-- Node25 -->
<g id="node26" class="node">
<title>Node25</title>
<g id="a_node26"><a xlink:title=" ">
<polygon fill="white" stroke="#bfbfbf" points="512,-129 512,-148 568,-148 568,-129 512,-129"/>
<text text-anchor="middle" x="540" y="-136" font-family="Helvetica,sans-Serif" font-size="10.00">optional</text>
</a>
</g>
</g>
<!-- Node20&#45;&gt;Node25 -->
<g id="edge30" class="edge">
<title>Node20&#45;&gt;Node25</title>
<path fill="none" stroke="midnightblue" d="M643.82,-195.73C623.57,-184.77 588.7,-165.88 565.01,-153.05"/>
<polygon fill="midnightblue" stroke="midnightblue" points="566.39,-149.81 555.93,-148.13 563.05,-155.97 566.39,-149.81"/>
</g>
<!-- Node26 -->
<g id="node27" class="node">
<title>Node26</title>
<g id="a_node27"><a xlink:title=" ">
<polygon fill="white" stroke="#bfbfbf" points="586,-129 586,-148 618,-148 618,-129 586,-129"/>
<text text-anchor="middle" x="602" y="-136" font-family="Helvetica,sans-Serif" font-size="10.00">set</text>
</a>
</g>
</g>
<!-- Node20&#45;&gt;Node26 -->
<g id="edge31" class="edge">
<title>Node20&#45;&gt;Node26</title>
<path fill="none" stroke="midnightblue" d="M652.18,-195.73C643.05,-185.5 627.76,-168.36 616.45,-155.69"/>
<polygon fill="midnightblue" stroke="midnightblue" points="618.97,-153.26 609.7,-148.13 613.74,-157.92 618.97,-153.26"/>
</g>
<!-- Node27 -->
<g id="node28" class="node">
<title>Node27</title>
<g id="a_node28"><a xlink:title=" ">
<polygon fill="white" stroke="#bfbfbf" points="636.5,-129 636.5,-148 683.5,-148 683.5,-129 636.5,-129"/>
<text text-anchor="middle" x="660" y="-136" font-family="Helvetica,sans-Serif" font-size="10.00">vector</text>
</a>
</g>
</g>
<!-- Node20&#45;&gt;Node27 -->
<g id="edge35" class="edge">
<title>Node20&#45;&gt;Node27</title>
<path fill="none" stroke="midnightblue" d="M660,-195.73C660,-186.18 660,-170.62 660,-158.28"/>
<polygon fill="midnightblue" stroke="midnightblue" points="663.5,-158.13 660,-148.13 656.5,-158.13 663.5,-158.13"/>
</g>
</g>
</svg>
