<?xml version="1.0" encoding="UTF-8" standalone="no"?>
<!DOCTYPE svg PUBLIC "-//W3C//DTD SVG 1.1//EN"
 "http://www.w3.org/Graphics/SVG/1.1/DTD/svg11.dtd">
<!-- Generated by graphviz version 2.43.0 (0)
 -->
<!-- Title: drake/manipulation/kuka_iiwa/iiwa_driver.h Pages: 1 -->
<!--zoomable 411 -->

<svg id="main" version="1.1" xmlns="http://www.w3.org/2000/svg" xmlns:xlink="http://www.w3.org/1999/xlink" xml:space="preserve" onload="init(evt)">

<style type="text/css"><![CDATA[
.node, .edge {opacity: 0.7;}
.node.selected, .edge.selected {opacity: 1;}
.edge:hover path { stroke: red; }
.edge:hover polygon { stroke: red; fill: red; }
]]></style>

<defs>
  <circle id="rim" cx="0" cy="0" r="7"/>
  <circle id="rim2" cx="0" cy="0" r="3.5"/>
  <g id="zoomPlus">
    <use xlink:href="#rim" fill="#404040"><set attributeName="fill" to="#808080" begin="zoomplus.mouseover" end="zoomplus.mouseout"/></use>
    <path d="M-4,0h8M0,-4v8" fill="none" stroke="white" stroke-width="1.5" pointer-events="none"/>
  </g>
  <g id="zoomMin">
    <use xlink:href="#rim" fill="#404040"><set attributeName="fill" to="#808080" begin="zoomminus.mouseover" end="zoomminus.mouseout"/></use>
    <path d="M-4,0h8" fill="none" stroke="white" stroke-width="1.5" pointer-events="none"/>
  </g>
  <g id="arrowUp" transform="translate(30 24)">
    <use xlink:href="#rim"/>
    <path pointer-events="none" fill="none" stroke="white" stroke-width="1.5" d="M0,-3.0v7 M-2.5,-0.5L0,-3.0L2.5,-0.5"/>
  </g>
  <g id="arrowRight" transform="rotate(90) translate(36 -43)">
    <use xlink:href="#rim"/>
    <path pointer-events="none" fill="none" stroke="white" stroke-width="1.5" d="M0,-3.0v7 M-2.5,-0.5L0,-3.0L2.5,-0.5"/>
  </g>
  <g id="arrowDown" transform="rotate(180) translate(-30 -48)">
    <use xlink:href="#rim"/>
    <path pointer-events="none" fill="none" stroke="white" stroke-width="1.5" d="M0,-3.0v7 M-2.5,-0.5L0,-3.0L2.5,-0.5"/>
  </g>
  <g id="arrowLeft" transform="rotate(270) translate(-36 17)">
    <use xlink:href="#rim"/>
    <path pointer-events="none" fill="none" stroke="white" stroke-width="1.5" d="M0,-3.0v7 M-2.5,-0.5L0,-3.0L2.5,-0.5"/>
  </g>
  <g id="resetDef">
    <use xlink:href="#rim2" fill="#404040"><set attributeName="fill" to="#808080" begin="reset.mouseover" end="reset.mouseout"/></use>
  </g>
</defs>
<script type="application/ecmascript">
var viewWidth = 1253;
var viewHeight = 411;
var sectionId = 'dynsection-0';
</script>
<script type="application/ecmascript" xlink:href="svg.min.js"/>
<svg id="graph" class="graph">
<g id="viewport">
<title>drake/manipulation/kuka_iiwa/iiwa_driver.h</title>
<!-- Node1 -->
<g id="Node000001" class="node">
<title>Node1</title>
<g id="a_Node000001"><a xlink:title=" ">
<ellipse fill="#999999" stroke="#666666" cx="146.6" cy="-382.23" rx="94.09" ry="21.43"/>
<text text-anchor="start" x="88.1" y="-385.23" font-family="Helvetica,sans-Serif" font-size="10.00">drake/manipulation</text>
<text text-anchor="middle" x="146.6" y="-374.23" font-family="Helvetica,sans-Serif" font-size="10.00">/kuka_iiwa/iiwa_driver.h</text>
</a>
</g>
</g>
<!-- Node2 -->
<g id="Node000002" class="node">
<title>Node2</title>
<g id="a_Node000002"><a xlink:title=" ">
<ellipse fill="#e0e0e0" stroke="#999999" cx="39.6" cy="-303.81" rx="39.7" ry="13.37"/>
<text text-anchor="middle" x="39.6" y="-301.31" font-family="Helvetica,sans-Serif" font-size="10.00">optional</text>
</a>
</g>
</g>
<!-- Node1&#45;&gt;Node2 -->
<g id="edge1_Node000001_Node000002" class="edge">
<title>Node1&#45;&gt;Node2</title>
<g id="a_edge1_Node000001_Node000002"><a xlink:title=" ">
<path fill="none" stroke="#63b8ff" d="M119.32,-361.75C102.29,-349.58 80.55,-334.06 64.07,-322.29"/>
<polygon fill="#63b8ff" stroke="#63b8ff" points="65.7,-319.15 55.53,-316.18 61.63,-324.84 65.7,-319.15"/>
</a>
</g>
</g>
<!-- Node3 -->
<g id="Node000003" class="node">
<title>Node3</title>
<g id="a_Node000003"><a xlink:title=" ">
<ellipse fill="#e0e0e0" stroke="#999999" cx="566.6" cy="-13.44" rx="31.23" ry="13.37"/>
<text text-anchor="middle" x="566.6" y="-10.94" font-family="Helvetica,sans-Serif" font-size="10.00">string</text>
</a>
</g>
</g>
<!-- Node1&#45;&gt;Node3 -->
<g id="edge2_Node000001_Node000003" class="edge">
<title>Node1&#45;&gt;Node3</title>
<g id="a_edge2_Node000001_Node000003"><a xlink:title=" ">
<path fill="none" stroke="#63b8ff" d="M138.14,-361.1C126.67,-331.94 107.6,-276.01 107.6,-226.38 107.6,-226.38 107.6,-226.38 107.6,-145.95 107.6,-59.33 413.55,-26.48 525.88,-17.35"/>
<polygon fill="#63b8ff" stroke="#63b8ff" points="526.43,-20.81 536.13,-16.53 525.88,-13.83 526.43,-20.81"/>
</a>
</g>
</g>
<!-- Node4 -->
<g id="Node000004" class="node">
<title>Node4</title>
<g id="a_Node000004"><a xlink:href="drake__copyable_8h.html" target="_top" xlink:title="Provides careful macros to selectively enable or disable the special member functions for copy&#45;constr...">
<ellipse fill="white" stroke="#666666" cx="219.6" cy="-146.95" rx="84.29" ry="21.43"/>
<text text-anchor="start" x="168.1" y="-149.95" font-family="Helvetica,sans-Serif" font-size="10.00">drake/common/drake</text>
<text text-anchor="middle" x="219.6" y="-138.95" font-family="Helvetica,sans-Serif" font-size="10.00">_copyable.h</text>
</a>
</g>
</g>
<!-- Node1&#45;&gt;Node4 -->
<g id="edge3_Node000001_Node000004" class="edge">
<title>Node1&#45;&gt;Node4</title>
<g id="a_edge3_Node000001_Node000004"><a xlink:title=" ">
<path fill="none" stroke="#63b8ff" d="M144.67,-361C142.29,-326.9 141.18,-256.57 165.6,-204.17 170.73,-193.16 178.89,-182.97 187.34,-174.36"/>
<polygon fill="#63b8ff" stroke="#63b8ff" points="189.97,-176.69 194.76,-167.23 185.12,-171.64 189.97,-176.69"/>
</a>
</g>
</g>
<!-- Node5 -->
<g id="Node000005" class="node">
<title>Node5</title>
<g id="a_Node000005"><a xlink:href="name__value_8h.html" target="_top" xlink:title=" ">
<ellipse fill="white" stroke="#666666" cx="288.6" cy="-225.38" rx="113.69" ry="13.37"/>
<text text-anchor="middle" x="288.6" y="-222.88" font-family="Helvetica,sans-Serif" font-size="10.00">drake/common/name_value.h</text>
</a>
</g>
</g>
<!-- Node1&#45;&gt;Node5 -->
<g id="edge4_Node000001_Node000005" class="edge">
<title>Node1&#45;&gt;Node5</title>
<g id="a_edge4_Node000001_Node000005"><a xlink:title=" ">
<path fill="none" stroke="#63b8ff" d="M164.87,-361.31C191.98,-331.74 242.6,-276.54 269.94,-246.73"/>
<polygon fill="#63b8ff" stroke="#63b8ff" points="272.81,-248.77 276.99,-239.04 267.65,-244.04 272.81,-248.77"/>
</a>
</g>
</g>
<!-- Node11 -->
<g id="Node000011" class="node">
<title>Node11</title>
<g id="a_Node000011"><a xlink:href="iiwa__constants_8h.html" target="_top" xlink:title=" ">
<ellipse fill="white" stroke="#666666" cx="515.6" cy="-303.81" rx="107.46" ry="21.43"/>
<text text-anchor="start" x="447.6" y="-306.81" font-family="Helvetica,sans-Serif" font-size="10.00">drake/manipulation</text>
<text text-anchor="middle" x="515.6" y="-295.81" font-family="Helvetica,sans-Serif" font-size="10.00">/kuka_iiwa/iiwa_constants.h</text>
</a>
</g>
</g>
<!-- Node1&#45;&gt;Node11 -->
<g id="edge12_Node000001_Node000011" class="edge">
<title>Node1&#45;&gt;Node11</title>
<g id="a_edge12_Node000001_Node000011"><a xlink:title=" ">
<path fill="none" stroke="#63b8ff" d="M213.85,-367.3C275.74,-354.49 367.68,-335.44 433.8,-321.75"/>
<polygon fill="#63b8ff" stroke="#63b8ff" points="434.69,-325.14 443.77,-319.68 433.27,-318.28 434.69,-325.14"/>
</a>
</g>
</g>
<!-- Node5&#45;&gt;Node4 -->
<g id="edge11_Node000005_Node000004" class="edge">
<title>Node5&#45;&gt;Node4</title>
<g id="a_edge11_Node000005_Node000004"><a xlink:title=" ">
<path fill="none" stroke="#63b8ff" d="M277.2,-211.76C268.27,-201.86 255.5,-187.72 244.25,-175.26"/>
<polygon fill="#63b8ff" stroke="#63b8ff" points="246.79,-172.85 237.49,-167.77 241.6,-177.54 246.79,-172.85"/>
</a>
</g>
</g>
<!-- Node6 -->
<g id="Node000006" class="node">
<title>Node6</title>
<g id="a_Node000006"><a xlink:href="drake__assert_8h.html" target="_top" xlink:title="Provides Drake&#39;s assertion mechanics.">
<ellipse fill="white" stroke="#666666" cx="405.6" cy="-146.95" rx="84.29" ry="21.43"/>
<text text-anchor="start" x="354.1" y="-149.95" font-family="Helvetica,sans-Serif" font-size="10.00">drake/common/drake</text>
<text text-anchor="middle" x="405.6" y="-138.95" font-family="Helvetica,sans-Serif" font-size="10.00">_assert.h</text>
</a>
</g>
</g>
<!-- Node5&#45;&gt;Node6 -->
<g id="edge5_Node000005_Node000006" class="edge">
<title>Node5&#45;&gt;Node6</title>
<g id="a_edge5_Node000005_Node000006"><a xlink:title=" ">
<path fill="none" stroke="#63b8ff" d="M307.4,-212.1C323.67,-201.47 347.72,-185.76 367.94,-172.55"/>
<polygon fill="#63b8ff" stroke="#63b8ff" points="369.88,-175.47 376.34,-167.07 366.05,-169.6 369.88,-175.47"/>
</a>
</g>
</g>
<!-- Node6&#45;&gt;Node3 -->
<g id="edge7_Node000006_Node000003" class="edge">
<title>Node6&#45;&gt;Node3</title>
<g id="a_edge7_Node000006_Node000003"><a xlink:title=" ">
<path fill="none" stroke="#63b8ff" d="M347.82,-131.37C303.01,-117.31 252.56,-93.65 278.6,-62.87 309.73,-26.07 453.5,-17.21 525.41,-15.1"/>
<polygon fill="#63b8ff" stroke="#63b8ff" points="525.57,-18.59 535.48,-14.83 525.39,-11.59 525.57,-18.59"/>
</a>
</g>
</g>
<!-- Node7 -->
<g id="Node000007" class="node">
<title>Node7</title>
<g id="a_Node000007"><a xlink:title=" ">
<ellipse fill="#e0e0e0" stroke="#999999" cx="350.6" cy="-76.31" rx="29.9" ry="13.37"/>
<text text-anchor="middle" x="350.6" y="-73.81" font-family="Helvetica,sans-Serif" font-size="10.00">array</text>
</a>
</g>
</g>
<!-- Node6&#45;&gt;Node7 -->
<g id="edge6_Node000006_Node000007" class="edge">
<title>Node6&#45;&gt;Node7</title>
<g id="a_edge6_Node000006_Node000007"><a xlink:title=" ">
<path fill="none" stroke="#63b8ff" d="M389.69,-126.1C382.48,-117.09 373.96,-106.47 366.72,-97.43"/>
<polygon fill="#63b8ff" stroke="#63b8ff" points="369.24,-94.98 360.26,-89.36 363.78,-99.36 369.24,-94.98"/>
</a>
</g>
</g>
<!-- Node8 -->
<g id="Node000008" class="node">
<title>Node8</title>
<g id="a_Node000008"><a xlink:title=" ">
<ellipse fill="#e0e0e0" stroke="#999999" cx="427.6" cy="-76.31" rx="28.98" ry="13.37"/>
<text text-anchor="middle" x="427.6" y="-73.81" font-family="Helvetica,sans-Serif" font-size="10.00">tuple</text>
</a>
</g>
</g>
<!-- Node6&#45;&gt;Node8 -->
<g id="edge8_Node000006_Node000008" class="edge">
<title>Node6&#45;&gt;Node8</title>
<g id="a_edge8_Node000006_Node000008"><a xlink:title=" ">
<path fill="none" stroke="#63b8ff" d="M412.08,-125.73C414.75,-117.41 417.84,-107.74 420.57,-99.25"/>
<polygon fill="#63b8ff" stroke="#63b8ff" points="423.93,-100.23 423.65,-89.64 417.26,-98.09 423.93,-100.23"/>
</a>
</g>
</g>
<!-- Node9 -->
<g id="Node000009" class="node">
<title>Node9</title>
<g id="a_Node000009"><a xlink:title=" ">
<ellipse fill="#e0e0e0" stroke="#999999" cx="731.6" cy="-13.44" rx="48.58" ry="13.37"/>
<text text-anchor="middle" x="731.6" y="-10.94" font-family="Helvetica,sans-Serif" font-size="10.00">type_traits</text>
</a>
</g>
</g>
<!-- Node6&#45;&gt;Node9 -->
<g id="edge9_Node000006_Node000009" class="edge">
<title>Node6&#45;&gt;Node9</title>
<g id="a_edge9_Node000006_Node000009"><a xlink:title=" ">
<path fill="none" stroke="#63b8ff" d="M361.76,-128.66C327.58,-112.73 289.35,-87.83 311.6,-62.87 314.62,-59.48 564.38,-32.34 677.27,-20.23"/>
<polygon fill="#63b8ff" stroke="#63b8ff" points="677.86,-23.69 687.43,-19.14 677.11,-16.73 677.86,-23.69"/>
</a>
</g>
</g>
<!-- Node10 -->
<g id="Node000010" class="node">
<title>Node10</title>
<g id="a_Node000010"><a xlink:title=" ">
<ellipse fill="#e0e0e0" stroke="#999999" cx="506.6" cy="-76.31" rx="31.64" ry="13.37"/>
<text text-anchor="middle" x="506.6" y="-73.81" font-family="Helvetica,sans-Serif" font-size="10.00">utility</text>
</a>
</g>
</g>
<!-- Node6&#45;&gt;Node10 -->
<g id="edge10_Node000006_Node000010" class="edge">
<title>Node6&#45;&gt;Node10</title>
<g id="a_edge10_Node000006_Node000010"><a xlink:title=" ">
<path fill="none" stroke="#63b8ff" d="M433.73,-126.83C449.01,-116.45 467.7,-103.74 482.33,-93.8"/>
<polygon fill="#63b8ff" stroke="#63b8ff" points="484.54,-96.53 490.85,-88.01 480.61,-90.74 484.54,-96.53"/>
</a>
</g>
</g>
<!-- Node11&#45;&gt;Node3 -->
<g id="edge13_Node000011_Node000003" class="edge">
<title>Node11&#45;&gt;Node3</title>
<g id="a_edge13_Node000011_Node000003"><a xlink:title=" ">
<path fill="none" stroke="#63b8ff" d="M519.18,-282.53C528.41,-230.36 552.93,-91.74 562.6,-37.07"/>
<polygon fill="#63b8ff" stroke="#63b8ff" points="566.08,-37.47 564.37,-27.02 559.18,-36.26 566.08,-37.47"/>
</a>
</g>
</g>
<!-- Node11&#45;&gt;Node6 -->
<g id="edge15_Node000011_Node000006" class="edge">
<title>Node11&#45;&gt;Node6</title>
<g id="a_edge15_Node000011_Node000006"><a xlink:title=" ">
<path fill="none" stroke="#63b8ff" d="M516.29,-282.48C516.03,-261.16 512.74,-227.57 496.6,-204.17 486.91,-190.12 472.44,-178.91 457.88,-170.31"/>
<polygon fill="#63b8ff" stroke="#63b8ff" points="459.29,-167.09 448.84,-165.3 455.89,-173.21 459.29,-167.09"/>
</a>
</g>
</g>
<!-- Node12 -->
<g id="Node000012" class="node">
<title>Node12</title>
<g id="a_Node000012"><a xlink:title=" ">
<ellipse fill="#e0e0e0" stroke="#999999" cx="454.6" cy="-225.38" rx="33.47" ry="13.37"/>
<text text-anchor="middle" x="454.6" y="-222.88" font-family="Helvetica,sans-Serif" font-size="10.00">vector</text>
</a>
</g>
</g>
<!-- Node11&#45;&gt;Node12 -->
<g id="edge14_Node000011_Node000012" class="edge">
<title>Node11&#45;&gt;Node12</title>
<g id="a_edge14_Node000011_Node000012"><a xlink:title=" ">
<path fill="none" stroke="#63b8ff" d="M499.57,-282.73C490.68,-271.59 479.66,-257.78 470.75,-246.62"/>
<polygon fill="#63b8ff" stroke="#63b8ff" points="473.39,-244.32 464.42,-238.69 467.92,-248.68 473.39,-244.32"/>
</a>
</g>
</g>
<!-- Node13 -->
<g id="Node000013" class="node">
<title>Node13</title>
<g id="a_Node000013"><a xlink:href="eigen__types_8h.html" target="_top" xlink:title="This file contains abbreviated definitions for certain specializations of Eigen::Matrix that are comm...">
<ellipse fill="white" stroke="#666666" cx="667.6" cy="-225.38" rx="84.29" ry="21.43"/>
<text text-anchor="start" x="616.1" y="-228.38" font-family="Helvetica,sans-Serif" font-size="10.00">drake/common/eigen</text>
<text text-anchor="middle" x="667.6" y="-217.38" font-family="Helvetica,sans-Serif" font-size="10.00">_types.h</text>
</a>
</g>
</g>
<!-- Node11&#45;&gt;Node13 -->
<g id="edge16_Node000011_Node000013" class="edge">
<title>Node11&#45;&gt;Node13</title>
<g id="a_edge16_Node000011_Node000013"><a xlink:title=" ">
<path fill="none" stroke="#63b8ff" d="M553.17,-283.91C574.02,-273.43 600.1,-260.32 622.09,-249.26"/>
<polygon fill="#63b8ff" stroke="#63b8ff" points="623.88,-252.28 631.24,-244.66 620.74,-246.02 623.88,-252.28"/>
</a>
</g>
</g>
<!-- Node13&#45;&gt;Node4 -->
<g id="edge22_Node000013_Node000004" class="edge">
<title>Node13&#45;&gt;Node4</title>
<g id="a_edge22_Node000013_Node000004"><a xlink:title=" ">
<path fill="none" stroke="#63b8ff" d="M595.66,-214.22C523.79,-203.78 410.26,-186.5 312.6,-168.17 305.37,-166.81 297.85,-165.31 290.35,-163.77"/>
<polygon fill="#63b8ff" stroke="#63b8ff" points="291.03,-160.34 280.53,-161.72 289.6,-167.19 291.03,-160.34"/>
</a>
</g>
</g>
<!-- Node13&#45;&gt;Node6 -->
<g id="edge21_Node000013_Node000006" class="edge">
<title>Node13&#45;&gt;Node6</title>
<g id="a_edge21_Node000013_Node000006"><a xlink:title=" ">
<path fill="none" stroke="#63b8ff" d="M614.26,-208.82C572.12,-196.53 513.18,-179.34 468.69,-166.36"/>
<polygon fill="#63b8ff" stroke="#63b8ff" points="469.44,-162.93 458.86,-163.49 467.48,-169.65 469.44,-162.93"/>
</a>
</g>
</g>
<!-- Node13&#45;&gt;Node10 -->
<g id="edge18_Node000013_Node000010" class="edge">
<title>Node13&#45;&gt;Node10</title>
<g id="a_edge18_Node000013_Node000010"><a xlink:title=" ">
<path fill="none" stroke="#63b8ff" d="M630.5,-206.26C612.5,-196.44 591.24,-183.24 574.6,-168.17 551.65,-147.38 531.26,-117.89 518.93,-98.2"/>
<polygon fill="#63b8ff" stroke="#63b8ff" points="521.9,-96.36 513.7,-89.66 515.93,-100.01 521.9,-96.36"/>
</a>
</g>
</g>
<!-- Node14 -->
<g id="Node000014" class="node">
<title>Node14</title>
<g id="a_Node000014"><a xlink:title=" ">
<ellipse fill="#e0e0e0" stroke="#999999" cx="620.6" cy="-146.95" rx="37.45" ry="13.37"/>
<text text-anchor="middle" x="620.6" y="-144.45" font-family="Helvetica,sans-Serif" font-size="10.00">iterator</text>
</a>
</g>
</g>
<!-- Node13&#45;&gt;Node14 -->
<g id="edge17_Node000013_Node000014" class="edge">
<title>Node13&#45;&gt;Node14</title>
<g id="a_edge17_Node000013_Node000014"><a xlink:title=" ">
<path fill="none" stroke="#63b8ff" d="M655.25,-204.3C648.53,-193.38 640.24,-179.89 633.45,-168.85"/>
<polygon fill="#63b8ff" stroke="#63b8ff" points="636.39,-166.94 628.17,-160.26 630.42,-170.61 636.39,-166.94"/>
</a>
</g>
</g>
<!-- Node15 -->
<g id="Node000015" class="node">
<title>Node15</title>
<g id="a_Node000015"><a xlink:title=" ">
<ellipse fill="#e0e0e0" stroke="#999999" cx="730.6" cy="-146.95" rx="54.39" ry="13.37"/>
<text text-anchor="middle" x="730.6" y="-144.45" font-family="Helvetica,sans-Serif" font-size="10.00">Eigen/Dense</text>
</a>
</g>
</g>
<!-- Node13&#45;&gt;Node15 -->
<g id="edge19_Node000013_Node000015" class="edge">
<title>Node13&#45;&gt;Node15</title>
<g id="a_edge19_Node000013_Node000015"><a xlink:title=" ">
<path fill="none" stroke="#63b8ff" d="M684.15,-204.3C693.33,-193.16 704.72,-179.35 713.92,-168.19"/>
<polygon fill="#63b8ff" stroke="#63b8ff" points="716.79,-170.2 720.45,-160.26 711.39,-165.75 716.79,-170.2"/>
</a>
</g>
</g>
<!-- Node16 -->
<g id="Node000016" class="node">
<title>Node16</title>
<g id="a_Node000016"><a xlink:href="constants_8h.html" target="_top" xlink:title=" ">
<ellipse fill="white" stroke="#666666" cx="908.6" cy="-146.95" rx="105.22" ry="13.37"/>
<text text-anchor="middle" x="908.6" y="-144.45" font-family="Helvetica,sans-Serif" font-size="10.00">drake/common/constants.h</text>
</a>
</g>
</g>
<!-- Node13&#45;&gt;Node16 -->
<g id="edge20_Node000013_Node000016" class="edge">
<title>Node13&#45;&gt;Node16</title>
<g id="a_edge20_Node000013_Node000016"><a xlink:title=" ">
<path fill="none" stroke="#63b8ff" d="M718.12,-208.36C760.67,-194.86 821.04,-175.72 862.34,-162.62"/>
<polygon fill="#63b8ff" stroke="#63b8ff" points="863.41,-165.95 871.89,-159.6 861.3,-159.28 863.41,-165.95"/>
</a>
</g>
</g>
<!-- Node17 -->
<g id="Node000017" class="node">
<title>Node17</title>
<g id="a_Node000017"><a xlink:href="fmt__eigen_8h.html" target="_top" xlink:title=" ">
<ellipse fill="white" stroke="#666666" cx="1138.6" cy="-146.95" rx="106.55" ry="13.37"/>
<text text-anchor="middle" x="1138.6" y="-144.45" font-family="Helvetica,sans-Serif" font-size="10.00">drake/common/fmt_eigen.h</text>
</a>
</g>
</g>
<!-- Node13&#45;&gt;Node17 -->
<g id="edge23_Node000013_Node000017" class="edge">
<title>Node13&#45;&gt;Node17</title>
<g id="a_edge23_Node000013_Node000017"><a xlink:title=" ">
<path fill="none" stroke="#63b8ff" d="M737.7,-213.61C809.35,-202.52 923.8,-184.6 1022.6,-168.17 1038.06,-165.59 1054.68,-162.75 1070.36,-160.03"/>
<polygon fill="#63b8ff" stroke="#63b8ff" points="1071.26,-163.42 1080.51,-158.26 1070.06,-156.53 1071.26,-163.42"/>
</a>
</g>
</g>
<!-- Node17&#45;&gt;Node3 -->
<g id="edge24_Node000017_Node000003" class="edge">
<title>Node17&#45;&gt;Node3</title>
<g id="a_edge24_Node000017_Node000003"><a xlink:title=" ">
<path fill="none" stroke="#63b8ff" d="M1080.51,-135.64C1062.01,-132.41 1041.45,-128.87 1022.6,-125.74 921.4,-108.93 894.3,-113.91 794.6,-89.74 723,-72.38 641.59,-43.1 598.05,-26.63"/>
<polygon fill="#63b8ff" stroke="#63b8ff" points="599.17,-23.32 588.58,-23.03 596.68,-29.86 599.17,-23.32"/>
</a>
</g>
</g>
<!-- Node18 -->
<g id="Node000018" class="node">
<title>Node18</title>
<g id="a_Node000018"><a xlink:title=" ">
<ellipse fill="#e0e0e0" stroke="#999999" cx="1080.6" cy="-13.44" rx="51.74" ry="13.37"/>
<text text-anchor="middle" x="1080.6" y="-10.94" font-family="Helvetica,sans-Serif" font-size="10.00">string_view</text>
</a>
</g>
</g>
<!-- Node17&#45;&gt;Node18 -->
<g id="edge25_Node000017_Node000018" class="edge">
<title>Node17&#45;&gt;Node18</title>
<g id="a_edge25_Node000017_Node000018"><a xlink:title=" ">
<path fill="none" stroke="#63b8ff" d="M1137.49,-133.26C1135.62,-116.44 1130.89,-86.17 1119.6,-62.87 1114.58,-52.52 1106.99,-42.4 1099.83,-34.11"/>
<polygon fill="#63b8ff" stroke="#63b8ff" points="1102.24,-31.55 1092.93,-26.49 1097.05,-36.25 1102.24,-31.55"/>
</a>
</g>
</g>
<!-- Node19 -->
<g id="Node000019" class="node">
<title>Node19</title>
<g id="a_Node000019"><a xlink:title=" ">
<ellipse fill="#e0e0e0" stroke="#999999" cx="1061.6" cy="-76.31" rx="48.58" ry="13.37"/>
<text text-anchor="middle" x="1061.6" y="-73.81" font-family="Helvetica,sans-Serif" font-size="10.00">Eigen/Core</text>
</a>
</g>
</g>
<!-- Node17&#45;&gt;Node19 -->
<g id="edge26_Node000017_Node000019" class="edge">
<title>Node17&#45;&gt;Node19</title>
<g id="a_edge26_Node000017_Node000019"><a xlink:title=" ">
<path fill="none" stroke="#63b8ff" d="M1124.47,-133.36C1112.83,-122.98 1096.12,-108.08 1082.85,-96.26"/>
<polygon fill="#63b8ff" stroke="#63b8ff" points="1084.91,-93.4 1075.12,-89.36 1080.25,-98.62 1084.91,-93.4"/>
</a>
</g>
</g>
<!-- Node20 -->
<g id="Node000020" class="node">
<title>Node20</title>
<g id="a_Node000020"><a xlink:href="fmt_8h.html" target="_top" xlink:title=" ">
<ellipse fill="white" stroke="#666666" cx="887.6" cy="-76.31" rx="84.29" ry="13.37"/>
<text text-anchor="middle" x="887.6" y="-73.81" font-family="Helvetica,sans-Serif" font-size="10.00">drake/common/fmt.h</text>
</a>
</g>
</g>
<!-- Node17&#45;&gt;Node20 -->
<g id="edge27_Node000017_Node000020" class="edge">
<title>Node17&#45;&gt;Node20</title>
<g id="a_edge27_Node000017_Node000020"><a xlink:title=" ">
<path fill="none" stroke="#63b8ff" d="M1096.87,-134.54C1052.97,-122.53 983.91,-103.65 937.25,-90.88"/>
<polygon fill="#63b8ff" stroke="#63b8ff" points="937.92,-87.44 927.35,-88.18 936.08,-94.19 937.92,-87.44"/>
</a>
</g>
</g>
<!-- Node20&#45;&gt;Node3 -->
<g id="edge28_Node000020_Node000003" class="edge">
<title>Node20&#45;&gt;Node3</title>
<g id="a_edge28_Node000020_Node000003"><a xlink:title=" ">
<path fill="none" stroke="#63b8ff" d="M836.38,-65.59C771.73,-53.33 662.01,-32.53 604.44,-21.61"/>
<polygon fill="#63b8ff" stroke="#63b8ff" points="604.8,-18.12 594.32,-19.69 603.49,-24.99 604.8,-18.12"/>
</a>
</g>
</g>
<!-- Node20&#45;&gt;Node9 -->
<g id="edge30_Node000020_Node000009" class="edge">
<title>Node20&#45;&gt;Node9</title>
<g id="a_edge30_Node000020_Node000009"><a xlink:title=" ">
<path fill="none" stroke="#63b8ff" d="M857.89,-63.71C832.22,-53.7 795.05,-39.19 767.68,-28.51"/>
<polygon fill="#63b8ff" stroke="#63b8ff" points="768.67,-25.14 758.08,-24.77 766.12,-31.66 768.67,-25.14"/>
</a>
</g>
</g>
<!-- Node20&#45;&gt;Node18 -->
<g id="edge29_Node000020_Node000018" class="edge">
<title>Node20&#45;&gt;Node18</title>
<g id="a_edge29_Node000020_Node000018"><a xlink:title=" ">
<path fill="none" stroke="#63b8ff" d="M923.45,-64C956.39,-53.61 1005.18,-38.22 1039.65,-27.35"/>
<polygon fill="#63b8ff" stroke="#63b8ff" points="1040.92,-30.62 1049.4,-24.27 1038.82,-23.94 1040.92,-30.62"/>
</a>
</g>
</g>
<!-- Node21 -->
<g id="Node000021" class="node">
<title>Node21</title>
<g id="a_Node000021"><a xlink:title=" ">
<ellipse fill="#e0e0e0" stroke="#999999" cx="887.6" cy="-13.44" rx="55.72" ry="13.37"/>
<text text-anchor="middle" x="887.6" y="-10.94" font-family="Helvetica,sans-Serif" font-size="10.00">fmt/format.h</text>
</a>
</g>
</g>
<!-- Node20&#45;&gt;Node21 -->
<g id="edge31_Node000020_Node000021" class="edge">
<title>Node20&#45;&gt;Node21</title>
<g id="a_edge31_Node000020_Node000021"><a xlink:title=" ">
<path fill="none" stroke="#63b8ff" d="M887.6,-62.69C887.6,-55.35 887.6,-45.86 887.6,-37.25"/>
<polygon fill="#63b8ff" stroke="#63b8ff" points="891.1,-37.03 887.6,-27.03 884.1,-37.03 891.1,-37.03"/>
</a>
</g>
</g>
</g>
</svg>

<g id="navigator" transform="translate(0 0)" fill="#404254">
  <rect fill="#f2f5e9" fill-opacity="0.5" stroke="#606060" stroke-width=".5" x="0" y="0" width="60" height="60"/>
  <use id="zoomplus" xlink:href="#zoomPlus" x="17" y="9" onmousedown="handleZoom(evt,'in')"/>
  <use id="zoomminus" xlink:href="#zoomMin" x="42" y="9" onmousedown="handleZoom(evt,'out')"/>
  <use id="reset" xlink:href="#resetDef" x="30" y="36" onmousedown="handleReset()"/>
   <use id="arrowup" xlink:href="#arrowUp" x="0" y="0" onmousedown="handlePan(0,-1)"/>
  <use id="arrowright" xlink:href="#arrowRight" x="0" y="0" onmousedown="handlePan(1,0)"/>
  <use id="arrowdown" xlink:href="#arrowDown" x="0" y="0" onmousedown="handlePan(0,1)"/>
  <use id="arrowleft" xlink:href="#arrowLeft" x="0" y="0" onmousedown="handlePan(-1,0)"/>
</g>
<svg viewBox="0 0 15 15" width="100%" height="30px" preserveAspectRatio="xMaxYMin meet">
 <g id="arrow_out" transform="scale(0.3 0.3)">
  <a xlink:href="iiwa__driver_8h__incl_org.svg" target="_base">
   <rect id="button" ry="5" rx="5" y="6" x="6" height="38" width="38"
        fill="#f2f5e9" fill-opacity="0.5" stroke="#606060" stroke-width="1.0"/>
   <path id="arrow"
     d="M 11.500037,31.436501 C 11.940474,20.09759 22.043105,11.32322 32.158766,21.979434 L 37.068811,17.246167 C 37.068811,17.246167 37.088388,32 37.088388,32 L 22.160133,31.978069 C 22.160133,31.978069 26.997745,27.140456 26.997745,27.140456 C 18.528582,18.264221 13.291696,25.230495 11.500037,31.436501 z"
     style="fill:#404040;"/>
  </a>
 </g>
</svg>

<style type='text/css'>
<![CDATA[
[data-mouse-over-selected='false'] { opacity: 0.7; }
[data-mouse-over-selected='true']  { opacity: 1.0; }
]]>
</style>
<script type="application/ecmascript"><![CDATA[
document.addEventListener('DOMContentLoaded', (event) => {
  highlightEdges();
  highlightAdjacentNodes();
});
]]></script>
</svg>
