<?xml version="1.0" encoding="UTF-8" standalone="no"?>
<!DOCTYPE svg PUBLIC "-//W3C//DTD SVG 1.1//EN"
 "http://www.w3.org/Graphics/SVG/1.1/DTD/svg11.dtd">
<!-- Generated by graphviz version 2.43.0 (0)
 -->
<!-- Title: drake/manipulation/kuka_iiwa/iiwa_constants.h Pages: 1 -->
<!--zoomable 184 -->
<svg id="main" version="1.1" xmlns="http://www.w3.org/2000/svg" xmlns:xlink="http://www.w3.org/1999/xlink" xml:space="preserve" onload="init(evt)">
<style type="text/css"><![CDATA[
.edge:hover path { stroke: red; }
.edge:hover polygon { stroke: red; fill: red; }
]]></style>
<script type="text/javascript"><![CDATA[
var edges = document.getElementsByTagName('g');
if (edges && edges.length) {
  for (var i=0;i<edges.length;i++) {
    if (edges[i].id.substr(0,4)=='edge') {
      edges[i].setAttribute('class','edge');
    }
  }
}
]]></script>
        <defs>
                <circle id="rim" cx="0" cy="0" r="7"/>
                <circle id="rim2" cx="0" cy="0" r="3.5"/>
                <g id="zoomPlus">
                        <use xlink:href="#rim" fill="#404040">
                                <set attributeName="fill" to="#808080" begin="zoomplus.mouseover" end="zoomplus.mouseout"/>
                        </use>
                        <path d="M-4,0h8M0,-4v8" fill="none" stroke="white" stroke-width="1.5" pointer-events="none"/>
                </g>
                <g id="zoomMin">
                        <use xlink:href="#rim" fill="#404040">
                                <set attributeName="fill" to="#808080" begin="zoomminus.mouseover" end="zoomminus.mouseout"/>
                        </use>
                        <path d="M-4,0h8" fill="none" stroke="white" stroke-width="1.5" pointer-events="none"/>
                </g>
                <g id="dirArrow">
                        <path fill="none" stroke="white" stroke-width="1.5" d="M0,-3.0v7 M-2.5,-0.5L0,-3.0L2.5,-0.5"/>
                </g>
               <g id="resetDef">
                       <use xlink:href="#rim2" fill="#404040">
                               <set attributeName="fill" to="#808080" begin="reset.mouseover" end="reset.mouseout"/>
                       </use>
               </g>
        </defs>

<script type="text/javascript">
var viewWidth = 947;
var viewHeight = 184;
var sectionId = 'dynsection-1';
</script>
<script xlink:href="svgpan.js"/>
<svg id="graph" class="graph">
<g id="viewport">
<title>drake/manipulation/kuka_iiwa/iiwa_constants.h</title>
<polygon fill="white" stroke="transparent" points="-4,4 -4,-180 942.5,-180 942.5,4 -4,4"/>
<!-- Node10 -->
<g id="node1" class="node">
<title>Node10</title>
<g id="a_node1"><a xlink:title=" ">
<polygon fill="#bfbfbf" stroke="black" points="363.5,-145.5 363.5,-175.5 515.5,-175.5 515.5,-145.5 363.5,-145.5"/>
<text text-anchor="start" x="371.5" y="-163.5" font-family="Helvetica,sans-Serif" font-size="10.00">drake/manipulation</text>
<text text-anchor="middle" x="439.5" y="-152.5" font-family="Helvetica,sans-Serif" font-size="10.00">/kuka_iiwa/iiwa_constants.h</text>
</a>
</g>
</g>
<!-- Node11 -->
<g id="node2" class="node">
<title>Node11</title>
<g id="a_node2"><a xlink:href="iiwa__common_8h.html" target="_top" xlink:title=" ">
<polygon fill="white" stroke="black" points="0,-73 0,-103 147,-103 147,-73 0,-73"/>
<text text-anchor="start" x="8" y="-91" font-family="Helvetica,sans-Serif" font-size="10.00">drake/examples/kuka</text>
<text text-anchor="middle" x="73.5" y="-80" font-family="Helvetica,sans-Serif" font-size="10.00">_iiwa_arm/iiwa_common.h</text>
</a>
</g>
</g>
<!-- Node10&#45;&gt;Node11 -->
<g id="edge1" class="edge">
<title>Node10&#45;&gt;Node11</title>
<path fill="none" stroke="midnightblue" d="M353.35,-145.64C296.9,-136.2 221.61,-122.92 155.5,-109 146.9,-107.19 137.82,-105.13 128.97,-103.03"/>
<polygon fill="midnightblue" stroke="midnightblue" points="352.87,-149.11 363.31,-147.3 354.02,-142.2 352.87,-149.11"/>
</g>
<!-- Node12 -->
<g id="node3" class="node">
<title>Node12</title>
<g id="a_node3"><a xlink:href="iiwa__command__receiver_8h.html" target="_top" xlink:title=" ">
<polygon fill="white" stroke="black" points="165,-67.5 165,-108.5 310,-108.5 310,-67.5 165,-67.5"/>
<text text-anchor="start" x="173" y="-96.5" font-family="Helvetica,sans-Serif" font-size="10.00">drake/manipulation</text>
<text text-anchor="start" x="173" y="-85.5" font-family="Helvetica,sans-Serif" font-size="10.00">/kuka_iiwa/iiwa_command</text>
<text text-anchor="middle" x="237.5" y="-74.5" font-family="Helvetica,sans-Serif" font-size="10.00">_receiver.h</text>
</a>
</g>
</g>
<!-- Node10&#45;&gt;Node12 -->
<g id="edge2" class="edge">
<title>Node10&#45;&gt;Node12</title>
<path fill="none" stroke="midnightblue" d="M389.55,-142.07C360.42,-131.9 323.61,-119.05 293.51,-108.55"/>
<polygon fill="midnightblue" stroke="midnightblue" points="388.51,-145.41 399.11,-145.4 390.82,-138.8 388.51,-145.41"/>
</g>
<!-- Node13 -->
<g id="node4" class="node">
<title>Node13</title>
<g id="a_node4"><a xlink:href="iiwa__lcm_8h.html" target="_top" xlink:title=" ">
<polygon fill="white" stroke="black" points="378.5,-0.5 378.5,-30.5 500.5,-30.5 500.5,-0.5 378.5,-0.5"/>
<text text-anchor="start" x="386.5" y="-18.5" font-family="Helvetica,sans-Serif" font-size="10.00">drake/examples/kuka</text>
<text text-anchor="middle" x="439.5" y="-7.5" font-family="Helvetica,sans-Serif" font-size="10.00">_iiwa_arm/iiwa_lcm.h</text>
</a>
</g>
</g>
<!-- Node10&#45;&gt;Node13 -->
<g id="edge6" class="edge">
<title>Node10&#45;&gt;Node13</title>
<path fill="none" stroke="midnightblue" d="M391.74,-140.45C378.61,-132.74 365.95,-122.42 358.5,-109 349.44,-92.68 349.44,-83.32 358.5,-67 367.67,-50.48 384.73,-38.66 400.84,-30.63"/>
<polygon fill="midnightblue" stroke="midnightblue" points="390.38,-143.69 400.84,-145.37 393.71,-137.54 390.38,-143.69"/>
</g>
<!-- Node14 -->
<g id="node5" class="node">
<title>Node14</title>
<g id="a_node5"><a xlink:href="iiwa__command__sender_8h.html" target="_top" xlink:title=" ">
<polygon fill="white" stroke="black" points="367,-67.5 367,-108.5 512,-108.5 512,-67.5 367,-67.5"/>
<text text-anchor="start" x="375" y="-96.5" font-family="Helvetica,sans-Serif" font-size="10.00">drake/manipulation</text>
<text text-anchor="start" x="375" y="-85.5" font-family="Helvetica,sans-Serif" font-size="10.00">/kuka_iiwa/iiwa_command</text>
<text text-anchor="middle" x="439.5" y="-74.5" font-family="Helvetica,sans-Serif" font-size="10.00">_sender.h</text>
</a>
</g>
</g>
<!-- Node10&#45;&gt;Node14 -->
<g id="edge4" class="edge">
<title>Node10&#45;&gt;Node14</title>
<path fill="none" stroke="midnightblue" d="M439.5,-134.98C439.5,-126.35 439.5,-116.76 439.5,-108.59"/>
<polygon fill="midnightblue" stroke="midnightblue" points="436,-135.23 439.5,-145.23 443,-135.23 436,-135.23"/>
</g>
<!-- Node15 -->
<g id="node6" class="node">
<title>Node15</title>
<g id="a_node6"><a xlink:href="iiwa__status__receiver_8h.html" target="_top" xlink:title=" ">
<polygon fill="white" stroke="black" points="530.5,-67.5 530.5,-108.5 656.5,-108.5 656.5,-67.5 530.5,-67.5"/>
<text text-anchor="start" x="538.5" y="-96.5" font-family="Helvetica,sans-Serif" font-size="10.00">drake/manipulation</text>
<text text-anchor="start" x="538.5" y="-85.5" font-family="Helvetica,sans-Serif" font-size="10.00">/kuka_iiwa/iiwa_status</text>
<text text-anchor="middle" x="593.5" y="-74.5" font-family="Helvetica,sans-Serif" font-size="10.00">_receiver.h</text>
</a>
</g>
</g>
<!-- Node10&#45;&gt;Node15 -->
<g id="edge7" class="edge">
<title>Node10&#45;&gt;Node15</title>
<path fill="none" stroke="midnightblue" d="M479.63,-141.13C501.49,-131.12 528.55,-118.73 550.8,-108.55"/>
<polygon fill="midnightblue" stroke="midnightblue" points="477.93,-138.06 470.29,-145.4 480.84,-144.42 477.93,-138.06"/>
</g>
<!-- Node16 -->
<g id="node7" class="node">
<title>Node16</title>
<g id="a_node7"><a xlink:href="iiwa__status__sender_8h.html" target="_top" xlink:title=" ">
<polygon fill="white" stroke="black" points="674.5,-67.5 674.5,-108.5 800.5,-108.5 800.5,-67.5 674.5,-67.5"/>
<text text-anchor="start" x="682.5" y="-96.5" font-family="Helvetica,sans-Serif" font-size="10.00">drake/manipulation</text>
<text text-anchor="start" x="682.5" y="-85.5" font-family="Helvetica,sans-Serif" font-size="10.00">/kuka_iiwa/iiwa_status</text>
<text text-anchor="middle" x="737.5" y="-74.5" font-family="Helvetica,sans-Serif" font-size="10.00">_sender.h</text>
</a>
</g>
</g>
<!-- Node10&#45;&gt;Node16 -->
<g id="edge9" class="edge">
<title>Node10&#45;&gt;Node16</title>
<path fill="none" stroke="midnightblue" d="M516.47,-143.32C560.28,-133.86 616.11,-121.37 665.5,-109 668.39,-108.28 671.35,-107.52 674.33,-106.74"/>
<polygon fill="midnightblue" stroke="midnightblue" points="515.5,-139.95 506.46,-145.48 516.97,-146.79 515.5,-139.95"/>
</g>
<!-- Node17 -->
<g id="node8" class="node">
<title>Node17</title>
<g id="a_node8"><a xlink:href="build__iiwa__control_8h.html" target="_top" xlink:title="Iiwa controller and controller plant setup.">
<polygon fill="white" stroke="black" points="818.5,-67.5 818.5,-108.5 938.5,-108.5 938.5,-67.5 818.5,-67.5"/>
<text text-anchor="start" x="826.5" y="-96.5" font-family="Helvetica,sans-Serif" font-size="10.00">drake/manipulation</text>
<text text-anchor="start" x="826.5" y="-85.5" font-family="Helvetica,sans-Serif" font-size="10.00">/kuka_iiwa/build_iiwa</text>
<text text-anchor="middle" x="878.5" y="-74.5" font-family="Helvetica,sans-Serif" font-size="10.00">_control.h</text>
</a>
</g>
</g>
<!-- Node10&#45;&gt;Node17 -->
<g id="edge11" class="edge">
<title>Node10&#45;&gt;Node17</title>
<path fill="none" stroke="midnightblue" d="M525.92,-151.33C601.3,-143.34 713.34,-129.38 809.5,-109 812.43,-108.38 815.41,-107.7 818.42,-106.98"/>
<polygon fill="midnightblue" stroke="midnightblue" points="525.11,-147.89 515.53,-152.41 525.84,-154.85 525.11,-147.89"/>
</g>
<!-- Node12&#45;&gt;Node13 -->
<g id="edge3" class="edge">
<title>Node12&#45;&gt;Node13</title>
<path fill="none" stroke="midnightblue" d="M303.13,-64.1C334.75,-53.06 371.67,-40.17 399.11,-30.6"/>
<polygon fill="midnightblue" stroke="midnightblue" points="301.79,-60.86 293.5,-67.46 304.09,-67.46 301.79,-60.86"/>
</g>
<!-- Node14&#45;&gt;Node13 -->
<g id="edge5" class="edge">
<title>Node14&#45;&gt;Node13</title>
<path fill="none" stroke="midnightblue" d="M439.5,-57.08C439.5,-48.01 439.5,-38.45 439.5,-30.89"/>
<polygon fill="midnightblue" stroke="midnightblue" points="436,-57.36 439.5,-67.36 443,-57.36 436,-57.36"/>
</g>
<!-- Node15&#45;&gt;Node13 -->
<g id="edge8" class="edge">
<title>Node15&#45;&gt;Node13</title>
<path fill="none" stroke="midnightblue" d="M541.42,-63.16C517.84,-52.36 490.77,-39.97 470.45,-30.67"/>
<polygon fill="midnightblue" stroke="midnightblue" points="540.05,-66.38 550.6,-67.36 542.97,-60.02 540.05,-66.38"/>
</g>
<!-- Node16&#45;&gt;Node13 -->
<g id="edge10" class="edge">
<title>Node16&#45;&gt;Node13</title>
<path fill="none" stroke="midnightblue" d="M664.53,-66.81C603.5,-51.66 543.88,-38.52 500.61,-29.27"/>
<polygon fill="midnightblue" stroke="midnightblue" points="663.78,-70.23 674.33,-69.26 665.48,-63.44 663.78,-70.23"/>
</g>
</g>
</svg>
        <g id="navigator" transform="translate(0 0)" fill="#404254">
                <rect fill="#f2f5e9" fill-opacity="0.5" stroke="#606060" stroke-width=".5" x="0" y="0" width="60" height="60"/>
                <use id="zoomplus" xlink:href="#zoomPlus" x="17" y="9" onmousedown="handleZoom(evt,'in')"/>
                <use id="zoomminus" xlink:href="#zoomMin" x="42" y="9" onmousedown="handleZoom(evt,'out')"/>
                <use id="reset" xlink:href="#resetDef" x="30" y="36" onmousedown="handleReset()"/>
                <g id="arrowUp" xlink:href="#dirArrow" transform="translate(30 24)" onmousedown="handlePan(0,-1)">
                  <use xlink:href="#rim" fill="#404040">
                        <set attributeName="fill" to="#808080" begin="arrowUp.mouseover" end="arrowUp.mouseout"/>
                  </use>
                  <path fill="none" stroke="white" stroke-width="1.5" d="M0,-3.0v7 M-2.5,-0.5L0,-3.0L2.5,-0.5"/>
                </g>
                <g id="arrowRight" xlink:href="#dirArrow" transform="rotate(90) translate(36 -43)" onmousedown="handlePan(1,0)">
                  <use xlink:href="#rim" fill="#404040">
                        <set attributeName="fill" to="#808080" begin="arrowRight.mouseover" end="arrowRight.mouseout"/>
                  </use>
                  <path fill="none" stroke="white" stroke-width="1.5" d="M0,-3.0v7 M-2.5,-0.5L0,-3.0L2.5,-0.5"/>
                </g>
                <g id="arrowDown" xlink:href="#dirArrow" transform="rotate(180) translate(-30 -48)" onmousedown="handlePan(0,1)">
                  <use xlink:href="#rim" fill="#404040">
                        <set attributeName="fill" to="#808080" begin="arrowDown.mouseover" end="arrowDown.mouseout"/>
                  </use>
                  <path fill="none" stroke="white" stroke-width="1.5" d="M0,-3.0v7 M-2.5,-0.5L0,-3.0L2.5,-0.5"/>
                </g>
                <g id="arrowLeft" xlink:href="#dirArrow" transform="rotate(270) translate(-36 17)" onmousedown="handlePan(-1,0)">
                  <use xlink:href="#rim" fill="#404040">
                        <set attributeName="fill" to="#808080" begin="arrowLeft.mouseover" end="arrowLeft.mouseout"/>
                  </use>
                  <path fill="none" stroke="white" stroke-width="1.5" d="M0,-3.0v7 M-2.5,-0.5L0,-3.0L2.5,-0.5"/>
                </g>
        </g>
        <svg viewBox="0 0 15 15" width="100%" height="30px" preserveAspectRatio="xMaxYMin meet">
         <g id="arrow_out" transform="scale(0.3 0.3)">
          <a xlink:href="iiwa__constants_8h__dep__incl_org.svg" target="_base">
           <rect id="button" ry="5" rx="5" y="6" x="6" height="38" width="38"
                fill="#f2f5e9" fill-opacity="0.5" stroke="#606060" stroke-width="1.0"/>
           <path id="arrow"
             d="M 11.500037,31.436501 C 11.940474,20.09759 22.043105,11.32322 32.158766,21.979434 L 37.068811,17.246167 C 37.068811,17.246167 37.088388,32 37.088388,32 L 22.160133,31.978069 C 22.160133,31.978069 26.997745,27.140456 26.997745,27.140456 C 18.528582,18.264221 13.291696,25.230495 11.500037,31.436501 z"
             style="fill:#404040;"/>
          </a>
         </g>
        </svg>
</svg>
