<?xml version="1.0" encoding="UTF-8" standalone="no"?>
<!DOCTYPE svg PUBLIC "-//W3C//DTD SVG 1.1//EN"
 "http://www.w3.org/Graphics/SVG/1.1/DTD/svg11.dtd">
<!-- Generated by graphviz version 2.43.0 (0)
 -->
<!-- Title: drake/manipulation/kuka_iiwa/iiwa_constants.h Pages: 1 -->
<svg width="1185pt" height="195pt"
 viewBox="0.00 0.00 1184.50 195.00" xmlns="http://www.w3.org/2000/svg" xmlns:xlink="http://www.w3.org/1999/xlink">
<g id="graph0" class="graph" transform="scale(1 1) rotate(0) translate(4 191)">
<title>drake/manipulation/kuka_iiwa/iiwa_constants.h</title>
<polygon fill="white" stroke="transparent" points="-4,4 -4,-191 1180.5,-191 1180.5,4 -4,4"/>
<!-- Node15 -->
<g id="node1" class="node">
<title>Node15</title>
<g id="a_node1"><a xlink:title=" ">
<polygon fill="#bfbfbf" stroke="black" points="638.5,-156.5 638.5,-186.5 790.5,-186.5 790.5,-156.5 638.5,-156.5"/>
<text text-anchor="start" x="646.5" y="-174.5" font-family="Helvetica,sans-Serif" font-size="10.00">drake/manipulation</text>
<text text-anchor="middle" x="714.5" y="-163.5" font-family="Helvetica,sans-Serif" font-size="10.00">/kuka_iiwa/iiwa_constants.h</text>
</a>
</g>
</g>
<!-- Node16 -->
<g id="node2" class="node">
<title>Node16</title>
<g id="a_node2"><a xlink:href="iiwa__driver_8h.html" target="_top" xlink:title=" ">
<polygon fill="white" stroke="black" points="225,-84 225,-114 358,-114 358,-84 225,-84"/>
<text text-anchor="start" x="233" y="-102" font-family="Helvetica,sans-Serif" font-size="10.00">drake/manipulation</text>
<text text-anchor="middle" x="291.5" y="-91" font-family="Helvetica,sans-Serif" font-size="10.00">/kuka_iiwa/iiwa_driver.h</text>
</a>
</g>
</g>
<!-- Node15&#45;&gt;Node16 -->
<g id="edge1" class="edge">
<title>Node15&#45;&gt;Node16</title>
<path fill="none" stroke="midnightblue" d="M628.17,-160.81C557.45,-152.19 454.99,-138.16 366.5,-120 358.18,-118.29 349.42,-116.22 340.93,-114.05"/>
<polygon fill="midnightblue" stroke="midnightblue" points="628.02,-164.32 638.37,-162.04 628.86,-157.37 628.02,-164.32"/>
</g>
<!-- Node21 -->
<g id="node7" class="node">
<title>Node21</title>
<g id="a_node7"><a xlink:href="iiwa__common_8h.html" target="_top" xlink:title=" ">
<polygon fill="white" stroke="black" points="376,-84 376,-114 523,-114 523,-84 376,-84"/>
<text text-anchor="start" x="384" y="-102" font-family="Helvetica,sans-Serif" font-size="10.00">drake/examples/kuka</text>
<text text-anchor="middle" x="449.5" y="-91" font-family="Helvetica,sans-Serif" font-size="10.00">_iiwa_arm/iiwa_common.h</text>
</a>
</g>
</g>
<!-- Node15&#45;&gt;Node21 -->
<g id="edge6" class="edge">
<title>Node15&#45;&gt;Node21</title>
<path fill="none" stroke="midnightblue" d="M652.08,-153.89C606.6,-141.79 545.65,-125.58 502.53,-114.11"/>
<polygon fill="midnightblue" stroke="midnightblue" points="651.26,-157.3 661.83,-156.49 653.06,-150.53 651.26,-157.3"/>
</g>
<!-- Node22 -->
<g id="node8" class="node">
<title>Node22</title>
<g id="a_node8"><a xlink:href="iiwa__command__receiver_8h.html" target="_top" xlink:title=" ">
<polygon fill="white" stroke="black" points="541,-78.5 541,-119.5 686,-119.5 686,-78.5 541,-78.5"/>
<text text-anchor="start" x="549" y="-107.5" font-family="Helvetica,sans-Serif" font-size="10.00">drake/manipulation</text>
<text text-anchor="start" x="549" y="-96.5" font-family="Helvetica,sans-Serif" font-size="10.00">/kuka_iiwa/iiwa_command</text>
<text text-anchor="middle" x="613.5" y="-85.5" font-family="Helvetica,sans-Serif" font-size="10.00">_receiver.h</text>
</a>
</g>
</g>
<!-- Node15&#45;&gt;Node22 -->
<g id="edge7" class="edge">
<title>Node15&#45;&gt;Node22</title>
<path fill="none" stroke="midnightblue" d="M685.82,-150.48C671.95,-140.8 655.36,-129.22 641.56,-119.59"/>
<polygon fill="midnightblue" stroke="midnightblue" points="683.86,-153.38 694.06,-156.23 687.86,-147.64 683.86,-153.38"/>
</g>
<!-- Node23 -->
<g id="node9" class="node">
<title>Node23</title>
<g id="a_node9"><a xlink:href="iiwa__lcm_8h.html" target="_top" xlink:title=" ">
<polygon fill="white" stroke="black" points="754.5,-6 754.5,-36 876.5,-36 876.5,-6 754.5,-6"/>
<text text-anchor="start" x="762.5" y="-24" font-family="Helvetica,sans-Serif" font-size="10.00">drake/examples/kuka</text>
<text text-anchor="middle" x="815.5" y="-13" font-family="Helvetica,sans-Serif" font-size="10.00">_iiwa_arm/iiwa_lcm.h</text>
</a>
</g>
</g>
<!-- Node15&#45;&gt;Node23 -->
<g id="edge11" class="edge">
<title>Node15&#45;&gt;Node23</title>
<path fill="none" stroke="midnightblue" d="M714.58,-146.33C715.73,-126.47 719.94,-98.38 733.5,-78 745.82,-59.49 766.54,-45.41 784.08,-36"/>
<polygon fill="midnightblue" stroke="midnightblue" points="711.08,-146.29 714.22,-156.41 718.08,-146.55 711.08,-146.29"/>
</g>
<!-- Node24 -->
<g id="node10" class="node">
<title>Node24</title>
<g id="a_node10"><a xlink:href="iiwa__command__sender_8h.html" target="_top" xlink:title=" ">
<polygon fill="white" stroke="black" points="743,-78.5 743,-119.5 888,-119.5 888,-78.5 743,-78.5"/>
<text text-anchor="start" x="751" y="-107.5" font-family="Helvetica,sans-Serif" font-size="10.00">drake/manipulation</text>
<text text-anchor="start" x="751" y="-96.5" font-family="Helvetica,sans-Serif" font-size="10.00">/kuka_iiwa/iiwa_command</text>
<text text-anchor="middle" x="815.5" y="-85.5" font-family="Helvetica,sans-Serif" font-size="10.00">_sender.h</text>
</a>
</g>
</g>
<!-- Node15&#45;&gt;Node24 -->
<g id="edge9" class="edge">
<title>Node15&#45;&gt;Node24</title>
<path fill="none" stroke="midnightblue" d="M743.18,-150.48C757.05,-140.8 773.64,-129.22 787.44,-119.59"/>
<polygon fill="midnightblue" stroke="midnightblue" points="741.14,-147.64 734.94,-156.23 745.14,-153.38 741.14,-147.64"/>
</g>
<!-- Node25 -->
<g id="node11" class="node">
<title>Node25</title>
<g id="a_node11"><a xlink:href="iiwa__status__receiver_8h.html" target="_top" xlink:title=" ">
<polygon fill="white" stroke="black" points="906.5,-78.5 906.5,-119.5 1032.5,-119.5 1032.5,-78.5 906.5,-78.5"/>
<text text-anchor="start" x="914.5" y="-107.5" font-family="Helvetica,sans-Serif" font-size="10.00">drake/manipulation</text>
<text text-anchor="start" x="914.5" y="-96.5" font-family="Helvetica,sans-Serif" font-size="10.00">/kuka_iiwa/iiwa_status</text>
<text text-anchor="middle" x="969.5" y="-85.5" font-family="Helvetica,sans-Serif" font-size="10.00">_receiver.h</text>
</a>
</g>
</g>
<!-- Node15&#45;&gt;Node25 -->
<g id="edge12" class="edge">
<title>Node15&#45;&gt;Node25</title>
<path fill="none" stroke="midnightblue" d="M775.15,-153.79C810.79,-143.97 856.71,-131.29 897.5,-120 900.38,-119.2 903.32,-118.39 906.29,-117.57"/>
<polygon fill="midnightblue" stroke="midnightblue" points="774.1,-150.45 765.39,-156.48 775.96,-157.2 774.1,-150.45"/>
</g>
<!-- Node26 -->
<g id="node12" class="node">
<title>Node26</title>
<g id="a_node12"><a xlink:href="iiwa__status__sender_8h.html" target="_top" xlink:title=" ">
<polygon fill="white" stroke="black" points="1050.5,-78.5 1050.5,-119.5 1176.5,-119.5 1176.5,-78.5 1050.5,-78.5"/>
<text text-anchor="start" x="1058.5" y="-107.5" font-family="Helvetica,sans-Serif" font-size="10.00">drake/manipulation</text>
<text text-anchor="start" x="1058.5" y="-96.5" font-family="Helvetica,sans-Serif" font-size="10.00">/kuka_iiwa/iiwa_status</text>
<text text-anchor="middle" x="1113.5" y="-85.5" font-family="Helvetica,sans-Serif" font-size="10.00">_sender.h</text>
</a>
</g>
</g>
<!-- Node15&#45;&gt;Node26 -->
<g id="edge14" class="edge">
<title>Node15&#45;&gt;Node26</title>
<path fill="none" stroke="midnightblue" d="M800.6,-160.02C866.84,-151.28 960.44,-137.45 1041.5,-120 1044.42,-119.37 1047.39,-118.7 1050.39,-117.98"/>
<polygon fill="midnightblue" stroke="midnightblue" points="800.08,-156.56 790.62,-161.33 800.99,-163.5 800.08,-156.56"/>
</g>
<!-- Node17 -->
<g id="node3" class="node">
<title>Node17</title>
<g id="a_node3"><a xlink:href="scenario_8h.html" target="_top" xlink:title=" ">
<polygon fill="white" stroke="black" points="0,-6 0,-36 143,-36 143,-6 0,-6"/>
<text text-anchor="start" x="8" y="-24" font-family="Helvetica,sans-Serif" font-size="10.00">drake/examples/hardware</text>
<text text-anchor="middle" x="71.5" y="-13" font-family="Helvetica,sans-Serif" font-size="10.00">_sim/scenario.h</text>
</a>
</g>
</g>
<!-- Node16&#45;&gt;Node17 -->
<g id="edge2" class="edge">
<title>Node16&#45;&gt;Node17</title>
<path fill="none" stroke="midnightblue" d="M241.29,-80.65C202.21,-67.16 148.68,-48.66 112.24,-36.07"/>
<polygon fill="midnightblue" stroke="midnightblue" points="240.3,-84.01 250.89,-83.97 242.58,-77.4 240.3,-84.01"/>
</g>
<!-- Node18 -->
<g id="node4" class="node">
<title>Node18</title>
<g id="a_node4"><a xlink:href="build__iiwa__control_8h.html" target="_top" xlink:title="Iiwa controller and controller plant setup.">
<polygon fill="white" stroke="black" points="161.5,-0.5 161.5,-41.5 281.5,-41.5 281.5,-0.5 161.5,-0.5"/>
<text text-anchor="start" x="169.5" y="-29.5" font-family="Helvetica,sans-Serif" font-size="10.00">drake/manipulation</text>
<text text-anchor="start" x="169.5" y="-18.5" font-family="Helvetica,sans-Serif" font-size="10.00">/kuka_iiwa/build_iiwa</text>
<text text-anchor="middle" x="221.5" y="-7.5" font-family="Helvetica,sans-Serif" font-size="10.00">_control.h</text>
</a>
</g>
</g>
<!-- Node16&#45;&gt;Node18 -->
<g id="edge3" class="edge">
<title>Node16&#45;&gt;Node18</title>
<path fill="none" stroke="midnightblue" d="M271.45,-76.23C261.42,-65.34 249.38,-52.26 239.63,-41.68"/>
<polygon fill="midnightblue" stroke="midnightblue" points="268.98,-78.72 278.33,-83.7 274.13,-73.98 268.98,-78.72"/>
</g>
<!-- Node19 -->
<g id="node5" class="node">
<title>Node19</title>
<g id="a_node5"><a xlink:href="iiwa__driver__functions_8h.html" target="_top" xlink:title=" ">
<polygon fill="white" stroke="black" points="300,-0.5 300,-41.5 425,-41.5 425,-0.5 300,-0.5"/>
<text text-anchor="start" x="308" y="-29.5" font-family="Helvetica,sans-Serif" font-size="10.00">drake/manipulation</text>
<text text-anchor="start" x="308" y="-18.5" font-family="Helvetica,sans-Serif" font-size="10.00">/kuka_iiwa/iiwa_driver</text>
<text text-anchor="middle" x="362.5" y="-7.5" font-family="Helvetica,sans-Serif" font-size="10.00">_functions.h</text>
</a>
</g>
</g>
<!-- Node16&#45;&gt;Node19 -->
<g id="edge4" class="edge">
<title>Node16&#45;&gt;Node19</title>
<path fill="none" stroke="midnightblue" d="M311.84,-76.23C322.01,-65.34 334.23,-52.26 344.11,-41.68"/>
<polygon fill="midnightblue" stroke="midnightblue" points="309.12,-74.01 304.85,-83.7 314.24,-78.79 309.12,-74.01"/>
</g>
<!-- Node20 -->
<g id="node6" class="node">
<title>Node20</title>
<g id="a_node6"><a xlink:href="sim__iiwa__driver_8h.html" target="_top" xlink:title=" ">
<polygon fill="white" stroke="black" points="443.5,-0.5 443.5,-41.5 557.5,-41.5 557.5,-0.5 443.5,-0.5"/>
<text text-anchor="start" x="451.5" y="-29.5" font-family="Helvetica,sans-Serif" font-size="10.00">drake/manipulation</text>
<text text-anchor="start" x="451.5" y="-18.5" font-family="Helvetica,sans-Serif" font-size="10.00">/kuka_iiwa/sim_iiwa</text>
<text text-anchor="middle" x="500.5" y="-7.5" font-family="Helvetica,sans-Serif" font-size="10.00">_driver.h</text>
</a>
</g>
</g>
<!-- Node16&#45;&gt;Node20 -->
<g id="edge5" class="edge">
<title>Node16&#45;&gt;Node20</title>
<path fill="none" stroke="midnightblue" d="M339.88,-80.41C371.76,-68.81 413.56,-53.61 446.52,-41.63"/>
<polygon fill="midnightblue" stroke="midnightblue" points="338.52,-77.18 330.32,-83.88 340.92,-83.75 338.52,-77.18"/>
</g>
<!-- Node22&#45;&gt;Node23 -->
<g id="edge8" class="edge">
<title>Node22&#45;&gt;Node23</title>
<path fill="none" stroke="midnightblue" d="M675.24,-74.77C708.8,-62.15 749.2,-46.94 778.01,-36.11"/>
<polygon fill="midnightblue" stroke="midnightblue" points="673.65,-71.63 665.52,-78.43 676.11,-78.18 673.65,-71.63"/>
</g>
<!-- Node24&#45;&gt;Node23 -->
<g id="edge10" class="edge">
<title>Node24&#45;&gt;Node23</title>
<path fill="none" stroke="midnightblue" d="M815.5,-68.28C815.5,-57.25 815.5,-45.25 815.5,-36.23"/>
<polygon fill="midnightblue" stroke="midnightblue" points="812,-68.43 815.5,-78.43 819,-68.43 812,-68.43"/>
</g>
<!-- Node25&#45;&gt;Node23 -->
<g id="edge13" class="edge">
<title>Node25&#45;&gt;Node23</title>
<path fill="none" stroke="midnightblue" d="M920.81,-73.97C895.65,-61.55 865.81,-46.83 844.33,-36.23"/>
<polygon fill="midnightblue" stroke="midnightblue" points="919.32,-77.14 929.84,-78.43 922.42,-70.86 919.32,-77.14"/>
</g>
<!-- Node26&#45;&gt;Node23 -->
<g id="edge15" class="edge">
<title>Node26&#45;&gt;Node23</title>
<path fill="none" stroke="midnightblue" d="M1040.34,-77.72C978.26,-61.5 917.52,-46.56 874.15,-36.05"/>
<polygon fill="midnightblue" stroke="midnightblue" points="1039.75,-81.19 1050.31,-80.34 1041.53,-74.42 1039.75,-81.19"/>
</g>
</g>
</svg>
