<?xml version="1.0" encoding="UTF-8" standalone="no"?>
<!DOCTYPE svg PUBLIC "-//W3C//DTD SVG 1.1//EN"
 "http://www.w3.org/Graphics/SVG/1.1/DTD/svg11.dtd">
<!-- Generated by graphviz version 2.43.0 (0)
 -->
<!-- Title: drake/manipulation/kuka_iiwa/iiwa_driver.h Pages: 1 -->
<svg width="1293pt" height="411pt"
 viewBox="0.00 0.00 1292.74 411.45" xmlns="http://www.w3.org/2000/svg" xmlns:xlink="http://www.w3.org/1999/xlink">
<g id="graph0" class="graph" transform="scale(1 1) rotate(0) translate(4 407.45)">
<title>drake/manipulation/kuka_iiwa/iiwa_driver.h</title>
<!-- Node1 -->
<g id="Node000001" class="node">
<title>Node1</title>
<g id="a_Node000001"><a xlink:title=" ">
<ellipse fill="#999999" stroke="#666666" cx="380.6" cy="-382.23" rx="94.09" ry="21.43"/>
<text text-anchor="start" x="322.1" y="-385.23" font-family="Helvetica,sans-Serif" font-size="10.00">drake/manipulation</text>
<text text-anchor="middle" x="380.6" y="-374.23" font-family="Helvetica,sans-Serif" font-size="10.00">/kuka_iiwa/iiwa_driver.h</text>
</a>
</g>
</g>
<!-- Node2 -->
<g id="Node000002" class="node">
<title>Node2</title>
<g id="a_Node000002"><a xlink:title=" ">
<ellipse fill="#e0e0e0" stroke="#999999" cx="39.6" cy="-303.81" rx="39.7" ry="13.37"/>
<text text-anchor="middle" x="39.6" y="-301.31" font-family="Helvetica,sans-Serif" font-size="10.00">optional</text>
</a>
</g>
</g>
<!-- Node1&#45;&gt;Node2 -->
<g id="edge1_Node000001_Node000002" class="edge">
<title>Node1&#45;&gt;Node2</title>
<g id="a_edge1_Node000001_Node000002"><a xlink:title=" ">
<path fill="none" stroke="#63b8ff" d="M304.26,-369.8C245.96,-360.23 163.95,-344.93 93.6,-325.02 86.8,-323.1 79.65,-320.7 72.86,-318.23"/>
<polygon fill="#63b8ff" stroke="#63b8ff" points="73.83,-314.86 63.24,-314.62 71.37,-321.41 73.83,-314.86"/>
</a>
</g>
</g>
<!-- Node3 -->
<g id="Node000003" class="node">
<title>Node3</title>
<g id="a_Node000003"><a xlink:title=" ">
<ellipse fill="#e0e0e0" stroke="#999999" cx="267.6" cy="-13.44" rx="31.23" ry="13.37"/>
<text text-anchor="middle" x="267.6" y="-10.94" font-family="Helvetica,sans-Serif" font-size="10.00">string</text>
</a>
</g>
</g>
<!-- Node1&#45;&gt;Node3 -->
<g id="edge2_Node000001_Node000003" class="edge">
<title>Node1&#45;&gt;Node3</title>
<g id="a_edge2_Node000001_Node000003"><a xlink:title=" ">
<path fill="none" stroke="#63b8ff" d="M301.64,-370.52C221.01,-354.63 107.6,-316.29 107.6,-226.38 107.6,-226.38 107.6,-226.38 107.6,-145.95 107.6,-104.17 120.73,-91.03 151.6,-62.87 173.84,-42.57 205.81,-30.08 230.56,-22.88"/>
<polygon fill="#63b8ff" stroke="#63b8ff" points="231.61,-26.22 240.33,-20.2 229.76,-19.47 231.61,-26.22"/>
</a>
</g>
</g>
<!-- Node4 -->
<g id="Node000004" class="node">
<title>Node4</title>
<g id="a_Node000004"><a xlink:href="drake__copyable_8h.html" target="_top" xlink:title="Provides careful macros to selectively enable or disable the special member functions for copy&#45;constr...">
<ellipse fill="white" stroke="#666666" cx="1200.6" cy="-146.95" rx="84.29" ry="21.43"/>
<text text-anchor="start" x="1149.1" y="-149.95" font-family="Helvetica,sans-Serif" font-size="10.00">drake/common/drake</text>
<text text-anchor="middle" x="1200.6" y="-138.95" font-family="Helvetica,sans-Serif" font-size="10.00">_copyable.h</text>
</a>
</g>
</g>
<!-- Node1&#45;&gt;Node4 -->
<g id="edge3_Node000001_Node000004" class="edge">
<title>Node1&#45;&gt;Node4</title>
<g id="a_edge3_Node000001_Node000004"><a xlink:title=" ">
<path fill="none" stroke="#63b8ff" d="M468.3,-374.51C643.47,-359.68 1029.11,-319.55 1137.6,-246.59 1162.27,-230 1179.33,-200.14 1189.41,-177.61"/>
<polygon fill="#63b8ff" stroke="#63b8ff" points="1192.73,-178.73 1193.42,-168.15 1186.29,-175.99 1192.73,-178.73"/>
</a>
</g>
</g>
<!-- Node5 -->
<g id="Node000005" class="node">
<title>Node5</title>
<g id="a_Node000005"><a xlink:href="name__value_8h.html" target="_top" xlink:title=" ">
<ellipse fill="white" stroke="#666666" cx="1014.6" cy="-225.38" rx="113.69" ry="13.37"/>
<text text-anchor="middle" x="1014.6" y="-222.88" font-family="Helvetica,sans-Serif" font-size="10.00">drake/common/name_value.h</text>
</a>
</g>
</g>
<!-- Node1&#45;&gt;Node5 -->
<g id="edge4_Node000001_Node000005" class="edge">
<title>Node1&#45;&gt;Node5</title>
<g id="a_edge4_Node000001_Node000005"><a xlink:title=" ">
<path fill="none" stroke="#63b8ff" d="M442.25,-366.17C565.31,-336.12 839.74,-269.09 958.28,-240.14"/>
<polygon fill="#63b8ff" stroke="#63b8ff" points="959.35,-243.48 968.24,-237.7 957.69,-236.68 959.35,-243.48"/>
</a>
</g>
</g>
<!-- Node11 -->
<g id="Node000011" class="node">
<title>Node11</title>
<g id="a_Node000011"><a xlink:href="iiwa__constants_8h.html" target="_top" xlink:title=" ">
<ellipse fill="white" stroke="#666666" cx="380.6" cy="-303.81" rx="107.46" ry="21.43"/>
<text text-anchor="start" x="312.6" y="-306.81" font-family="Helvetica,sans-Serif" font-size="10.00">drake/manipulation</text>
<text text-anchor="middle" x="380.6" y="-295.81" font-family="Helvetica,sans-Serif" font-size="10.00">/kuka_iiwa/iiwa_constants.h</text>
</a>
</g>
</g>
<!-- Node1&#45;&gt;Node11 -->
<g id="edge12_Node000001_Node000011" class="edge">
<title>Node1&#45;&gt;Node11</title>
<g id="a_edge12_Node000001_Node000011"><a xlink:title=" ">
<path fill="none" stroke="#63b8ff" d="M380.6,-360.75C380.6,-352.89 380.6,-343.75 380.6,-335.16"/>
<polygon fill="#63b8ff" stroke="#63b8ff" points="384.1,-335.08 380.6,-325.08 377.1,-335.08 384.1,-335.08"/>
</a>
</g>
</g>
<!-- Node5&#45;&gt;Node4 -->
<g id="edge11_Node000005_Node000004" class="edge">
<title>Node5&#45;&gt;Node4</title>
<g id="a_edge11_Node000005_Node000004"><a xlink:title=" ">
<path fill="none" stroke="#63b8ff" d="M1044.07,-212.27C1072.16,-200.73 1115.06,-183.1 1148.85,-169.22"/>
<polygon fill="#63b8ff" stroke="#63b8ff" points="1150.2,-172.45 1158.12,-165.41 1147.54,-165.97 1150.2,-172.45"/>
</a>
</g>
</g>
<!-- Node6 -->
<g id="Node000006" class="node">
<title>Node6</title>
<g id="a_Node000006"><a xlink:href="drake__assert_8h.html" target="_top" xlink:title="Provides Drake&#39;s assertion mechanics.">
<ellipse fill="white" stroke="#666666" cx="1014.6" cy="-146.95" rx="84.29" ry="21.43"/>
<text text-anchor="start" x="963.1" y="-149.95" font-family="Helvetica,sans-Serif" font-size="10.00">drake/common/drake</text>
<text text-anchor="middle" x="1014.6" y="-138.95" font-family="Helvetica,sans-Serif" font-size="10.00">_assert.h</text>
</a>
</g>
</g>
<!-- Node5&#45;&gt;Node6 -->
<g id="edge5_Node000005_Node000006" class="edge">
<title>Node5&#45;&gt;Node6</title>
<g id="a_edge5_Node000005_Node000006"><a xlink:title=" ">
<path fill="none" stroke="#63b8ff" d="M1014.6,-211.76C1014.6,-202.74 1014.6,-190.19 1014.6,-178.61"/>
<polygon fill="#63b8ff" stroke="#63b8ff" points="1018.1,-178.37 1014.6,-168.37 1011.1,-178.37 1018.1,-178.37"/>
</a>
</g>
</g>
<!-- Node6&#45;&gt;Node3 -->
<g id="edge7_Node000006_Node000003" class="edge">
<title>Node6&#45;&gt;Node3</title>
<g id="a_edge7_Node000006_Node000003"><a xlink:title=" ">
<path fill="none" stroke="#63b8ff" d="M954.88,-131.96C943.54,-129.63 931.74,-127.43 920.6,-125.74 741.48,-98.65 684.65,-152.19 514.6,-89.74 495.18,-82.61 495.47,-71.33 476.6,-62.87 420.87,-37.88 350.78,-25.03 307.6,-19.02"/>
<polygon fill="#63b8ff" stroke="#63b8ff" points="307.86,-15.53 297.49,-17.67 306.93,-22.47 307.86,-15.53"/>
</a>
</g>
</g>
<!-- Node7 -->
<g id="Node000007" class="node">
<title>Node7</title>
<g id="a_Node000007"><a xlink:title=" ">
<ellipse fill="#e0e0e0" stroke="#999999" cx="908.6" cy="-76.31" rx="29.9" ry="13.37"/>
<text text-anchor="middle" x="908.6" y="-73.81" font-family="Helvetica,sans-Serif" font-size="10.00">array</text>
</a>
</g>
</g>
<!-- Node6&#45;&gt;Node7 -->
<g id="edge6_Node000006_Node000007" class="edge">
<title>Node6&#45;&gt;Node7</title>
<g id="a_edge6_Node000006_Node000007"><a xlink:title=" ">
<path fill="none" stroke="#63b8ff" d="M985.35,-127.01C968.96,-116.4 948.75,-103.31 933.18,-93.22"/>
<polygon fill="#63b8ff" stroke="#63b8ff" points="934.91,-90.17 924.61,-87.68 931.1,-96.05 934.91,-90.17"/>
</a>
</g>
</g>
<!-- Node8 -->
<g id="Node000008" class="node">
<title>Node8</title>
<g id="a_Node000008"><a xlink:title=" ">
<ellipse fill="#e0e0e0" stroke="#999999" cx="985.6" cy="-76.31" rx="28.98" ry="13.37"/>
<text text-anchor="middle" x="985.6" y="-73.81" font-family="Helvetica,sans-Serif" font-size="10.00">tuple</text>
</a>
</g>
</g>
<!-- Node6&#45;&gt;Node8 -->
<g id="edge8_Node000006_Node000008" class="edge">
<title>Node6&#45;&gt;Node8</title>
<g id="a_edge8_Node000006_Node000008"><a xlink:title=" ">
<path fill="none" stroke="#63b8ff" d="M1006.05,-125.73C1002.5,-117.31 998.37,-107.53 994.75,-98.97"/>
<polygon fill="#63b8ff" stroke="#63b8ff" points="997.92,-97.49 990.81,-89.64 991.48,-100.21 997.92,-97.49"/>
</a>
</g>
</g>
<!-- Node9 -->
<g id="Node000009" class="node">
<title>Node9</title>
<g id="a_Node000009"><a xlink:title=" ">
<ellipse fill="#e0e0e0" stroke="#999999" cx="925.6" cy="-13.44" rx="48.58" ry="13.37"/>
<text text-anchor="middle" x="925.6" y="-10.94" font-family="Helvetica,sans-Serif" font-size="10.00">type_traits</text>
</a>
</g>
</g>
<!-- Node6&#45;&gt;Node9 -->
<g id="edge9_Node000006_Node000009" class="edge">
<title>Node6&#45;&gt;Node9</title>
<g id="a_edge9_Node000006_Node000009"><a xlink:title=" ">
<path fill="none" stroke="#63b8ff" d="M1023.49,-125.58C1029.81,-107.72 1035.31,-81.73 1023.6,-62.87 1012.2,-44.53 991.58,-32.92 972.18,-25.69"/>
<polygon fill="#63b8ff" stroke="#63b8ff" points="973.1,-22.3 962.5,-22.39 970.84,-28.93 973.1,-22.3"/>
</a>
</g>
</g>
<!-- Node10 -->
<g id="Node000010" class="node">
<title>Node10</title>
<g id="a_Node000010"><a xlink:title=" ">
<ellipse fill="#e0e0e0" stroke="#999999" cx="818.6" cy="-76.31" rx="31.64" ry="13.37"/>
<text text-anchor="middle" x="818.6" y="-73.81" font-family="Helvetica,sans-Serif" font-size="10.00">utility</text>
</a>
</g>
</g>
<!-- Node6&#45;&gt;Node10 -->
<g id="edge10_Node000006_Node000010" class="edge">
<title>Node6&#45;&gt;Node10</title>
<g id="a_edge10_Node000006_Node000010"><a xlink:title=" ">
<path fill="none" stroke="#63b8ff" d="M967.15,-129.34C931.37,-116.8 883.21,-99.93 851.55,-88.85"/>
<polygon fill="#63b8ff" stroke="#63b8ff" points="852.49,-85.47 841.89,-85.46 850.17,-92.07 852.49,-85.47"/>
</a>
</g>
</g>
<!-- Node11&#45;&gt;Node3 -->
<g id="edge13_Node000011_Node000003" class="edge">
<title>Node11&#45;&gt;Node3</title>
<g id="a_edge13_Node000011_Node000003"><a xlink:title=" ">
<path fill="none" stroke="#63b8ff" d="M304.89,-288.58C277.21,-280.22 247.39,-267.09 225.6,-246.59 197.93,-220.56 205.35,-203.58 191.6,-168.17 174.11,-123.13 138.71,-103.66 164.6,-62.87 178.8,-40.49 206.41,-28.27 229.46,-21.7"/>
<polygon fill="#63b8ff" stroke="#63b8ff" points="230.54,-25.03 239.34,-19.14 228.78,-18.26 230.54,-25.03"/>
</a>
</g>
</g>
<!-- Node11&#45;&gt;Node6 -->
<g id="edge15_Node000011_Node000006" class="edge">
<title>Node11&#45;&gt;Node6</title>
<g id="a_edge15_Node000011_Node000006"><a xlink:title=" ">
<path fill="none" stroke="#63b8ff" d="M458.96,-289.2C516.65,-278.74 596.84,-263.3 666.6,-246.59 768.02,-222.29 884.32,-188.01 953.5,-166.92"/>
<polygon fill="#63b8ff" stroke="#63b8ff" points="954.81,-170.18 963.35,-163.91 952.77,-163.48 954.81,-170.18"/>
</a>
</g>
</g>
<!-- Node12 -->
<g id="Node000012" class="node">
<title>Node12</title>
<g id="a_Node000012"><a xlink:title=" ">
<ellipse fill="#e0e0e0" stroke="#999999" cx="206.6" cy="-76.31" rx="33.47" ry="13.37"/>
<text text-anchor="middle" x="206.6" y="-73.81" font-family="Helvetica,sans-Serif" font-size="10.00">vector</text>
</a>
</g>
</g>
<!-- Node11&#45;&gt;Node12 -->
<g id="edge14_Node000011_Node000012" class="edge">
<title>Node11&#45;&gt;Node12</title>
<g id="a_edge14_Node000011_Node000012"><a xlink:title=" ">
<path fill="none" stroke="#63b8ff" d="M337.13,-284.22C294.02,-263.12 230.47,-224.19 202.6,-168.17 191.92,-146.7 195.32,-118.72 199.85,-99.52"/>
<polygon fill="#63b8ff" stroke="#63b8ff" points="203.23,-100.41 202.4,-89.85 196.47,-98.62 203.23,-100.41"/>
</a>
</g>
</g>
<!-- Node13 -->
<g id="Node000013" class="node">
<title>Node13</title>
<g id="a_Node000013"><a xlink:href="eigen__types_8h.html" target="_top" xlink:title="This file contains abbreviated definitions for certain specializations of Eigen::Matrix that are comm...">
<ellipse fill="white" stroke="#666666" cx="573.6" cy="-225.38" rx="84.29" ry="21.43"/>
<text text-anchor="start" x="522.1" y="-228.38" font-family="Helvetica,sans-Serif" font-size="10.00">drake/common/eigen</text>
<text text-anchor="middle" x="573.6" y="-217.38" font-family="Helvetica,sans-Serif" font-size="10.00">_types.h</text>
</a>
</g>
</g>
<!-- Node11&#45;&gt;Node13 -->
<g id="edge16_Node000011_Node000013" class="edge">
<title>Node11&#45;&gt;Node13</title>
<g id="a_edge16_Node000011_Node000013"><a xlink:title=" ">
<path fill="none" stroke="#63b8ff" d="M426.83,-284.5C454.98,-273.35 491.05,-259.07 520.39,-247.45"/>
<polygon fill="#63b8ff" stroke="#63b8ff" points="522.06,-250.55 530.06,-243.62 519.48,-244.05 522.06,-250.55"/>
</a>
</g>
</g>
<!-- Node13&#45;&gt;Node4 -->
<g id="edge22_Node000013_Node000004" class="edge">
<title>Node13&#45;&gt;Node4</title>
<g id="a_edge22_Node000013_Node000004"><a xlink:title=" ">
<path fill="none" stroke="#63b8ff" d="M653.57,-218.7C758.31,-210.63 947.45,-193.92 1107.6,-168.17 1115.17,-166.95 1123.05,-165.51 1130.88,-163.97"/>
<polygon fill="#63b8ff" stroke="#63b8ff" points="1131.64,-167.38 1140.75,-161.97 1130.25,-160.52 1131.64,-167.38"/>
</a>
</g>
</g>
<!-- Node13&#45;&gt;Node6 -->
<g id="edge21_Node000013_Node000006" class="edge">
<title>Node13&#45;&gt;Node6</title>
<g id="a_edge21_Node000013_Node000006"><a xlink:title=" ">
<path fill="none" stroke="#63b8ff" d="M644.56,-213.97C714.83,-203.41 825.39,-186.1 920.6,-168.17 928.1,-166.75 935.91,-165.2 943.69,-163.6"/>
<polygon fill="#63b8ff" stroke="#63b8ff" points="944.43,-167.03 953.51,-161.56 943,-160.17 944.43,-167.03"/>
</a>
</g>
</g>
<!-- Node13&#45;&gt;Node10 -->
<g id="edge18_Node000013_Node000010" class="edge">
<title>Node13&#45;&gt;Node10</title>
<g id="a_edge18_Node000013_Node000010"><a xlink:title=" ">
<path fill="none" stroke="#63b8ff" d="M522.37,-208.47C503.27,-199.77 483.58,-186.85 472.6,-168.17 463.04,-151.91 460.21,-139.96 472.6,-125.74 511.07,-81.6 675.63,-97.98 733.6,-89.74 748.45,-87.63 764.75,-85.26 779.07,-83.16"/>
<polygon fill="#63b8ff" stroke="#63b8ff" points="779.72,-86.6 789.1,-81.68 778.7,-79.67 779.72,-86.6"/>
</a>
</g>
</g>
<!-- Node14 -->
<g id="Node000014" class="node">
<title>Node14</title>
<g id="a_Node000014"><a xlink:title=" ">
<ellipse fill="#e0e0e0" stroke="#999999" cx="518.6" cy="-146.95" rx="37.45" ry="13.37"/>
<text text-anchor="middle" x="518.6" y="-144.45" font-family="Helvetica,sans-Serif" font-size="10.00">iterator</text>
</a>
</g>
</g>
<!-- Node13&#45;&gt;Node14 -->
<g id="edge17_Node000013_Node000014" class="edge">
<title>Node13&#45;&gt;Node14</title>
<g id="a_edge17_Node000013_Node000014"><a xlink:title=" ">
<path fill="none" stroke="#63b8ff" d="M559.15,-204.3C551.21,-193.27 541.39,-179.62 533.4,-168.52"/>
<polygon fill="#63b8ff" stroke="#63b8ff" points="536.14,-166.33 527.45,-160.26 530.45,-170.42 536.14,-166.33"/>
</a>
</g>
</g>
<!-- Node15 -->
<g id="Node000015" class="node">
<title>Node15</title>
<g id="a_Node000015"><a xlink:title=" ">
<ellipse fill="#e0e0e0" stroke="#999999" cx="628.6" cy="-146.95" rx="54.39" ry="13.37"/>
<text text-anchor="middle" x="628.6" y="-144.45" font-family="Helvetica,sans-Serif" font-size="10.00">Eigen/Dense</text>
</a>
</g>
</g>
<!-- Node13&#45;&gt;Node15 -->
<g id="edge19_Node000013_Node000015" class="edge">
<title>Node13&#45;&gt;Node15</title>
<g id="a_edge19_Node000013_Node000015"><a xlink:title=" ">
<path fill="none" stroke="#63b8ff" d="M588.05,-204.3C595.98,-193.27 605.81,-179.62 613.8,-168.52"/>
<polygon fill="#63b8ff" stroke="#63b8ff" points="616.74,-170.42 619.74,-160.26 611.06,-166.33 616.74,-170.42"/>
</a>
</g>
</g>
<!-- Node16 -->
<g id="Node000016" class="node">
<title>Node16</title>
<g id="a_Node000016"><a xlink:href="constants_8h.html" target="_top" xlink:title=" ">
<ellipse fill="white" stroke="#666666" cx="806.6" cy="-146.95" rx="105.22" ry="13.37"/>
<text text-anchor="middle" x="806.6" y="-144.45" font-family="Helvetica,sans-Serif" font-size="10.00">drake/common/constants.h</text>
</a>
</g>
</g>
<!-- Node13&#45;&gt;Node16 -->
<g id="edge20_Node000013_Node000016" class="edge">
<title>Node13&#45;&gt;Node16</title>
<g id="a_edge20_Node000013_Node000016"><a xlink:title=" ">
<path fill="none" stroke="#63b8ff" d="M623.01,-208.17C663.9,-194.76 721.5,-175.87 761.23,-162.83"/>
<polygon fill="#63b8ff" stroke="#63b8ff" points="762.51,-166.1 770.92,-159.65 760.33,-159.45 762.51,-166.1"/>
</a>
</g>
</g>
<!-- Node17 -->
<g id="Node000017" class="node">
<title>Node17</title>
<g id="a_Node000017"><a xlink:href="fmt__eigen_8h.html" target="_top" xlink:title=" ">
<ellipse fill="white" stroke="#666666" cx="318.6" cy="-146.95" rx="106.55" ry="13.37"/>
<text text-anchor="middle" x="318.6" y="-144.45" font-family="Helvetica,sans-Serif" font-size="10.00">drake/common/fmt_eigen.h</text>
</a>
</g>
</g>
<!-- Node13&#45;&gt;Node17 -->
<g id="edge23_Node000013_Node000017" class="edge">
<title>Node13&#45;&gt;Node17</title>
<g id="a_edge23_Node000013_Node000017"><a xlink:title=" ">
<path fill="none" stroke="#63b8ff" d="M521.38,-208.73C476.13,-195.17 411.18,-175.7 367.07,-162.48"/>
<polygon fill="#63b8ff" stroke="#63b8ff" points="368.02,-159.11 357.44,-159.59 366.01,-165.82 368.02,-159.11"/>
</a>
</g>
</g>
<!-- Node17&#45;&gt;Node3 -->
<g id="edge25_Node000017_Node000003" class="edge">
<title>Node17&#45;&gt;Node3</title>
<g id="a_edge25_Node000017_Node000003"><a xlink:title=" ">
<path fill="none" stroke="#63b8ff" d="M310.2,-133.5C303.05,-122.42 292.97,-105.58 286.6,-89.74 279.72,-72.63 274.76,-52.3 271.64,-37.08"/>
<polygon fill="#63b8ff" stroke="#63b8ff" points="275.03,-36.17 269.69,-27.02 268.16,-37.5 275.03,-36.17"/>
</a>
</g>
</g>
<!-- Node17&#45;&gt;Node12 -->
<g id="edge27_Node000017_Node000012" class="edge">
<title>Node17&#45;&gt;Node12</title>
<g id="a_edge27_Node000017_Node000012"><a xlink:title=" ">
<path fill="none" stroke="#63b8ff" d="M298.57,-133.68C280.13,-122.38 252.66,-105.54 232.54,-93.21"/>
<polygon fill="#63b8ff" stroke="#63b8ff" points="234.23,-90.14 223.88,-87.9 230.57,-96.11 234.23,-90.14"/>
</a>
</g>
</g>
<!-- Node18 -->
<g id="Node000018" class="node">
<title>Node18</title>
<g id="a_Node000018"><a xlink:title=" ">
<ellipse fill="#e0e0e0" stroke="#999999" cx="323.6" cy="-76.31" rx="28.07" ry="13.37"/>
<text text-anchor="middle" x="323.6" y="-73.81" font-family="Helvetica,sans-Serif" font-size="10.00">span</text>
</a>
</g>
</g>
<!-- Node17&#45;&gt;Node18 -->
<g id="edge24_Node000017_Node000018" class="edge">
<title>Node17&#45;&gt;Node18</title>
<g id="a_edge24_Node000017_Node000018"><a xlink:title=" ">
<path fill="none" stroke="#63b8ff" d="M319.52,-133.36C320.19,-124.07 321.13,-111.17 321.94,-100.09"/>
<polygon fill="#63b8ff" stroke="#63b8ff" points="325.45,-100.04 322.69,-89.82 318.47,-99.54 325.45,-100.04"/>
</a>
</g>
</g>
<!-- Node19 -->
<g id="Node000019" class="node">
<title>Node19</title>
<g id="a_Node000019"><a xlink:title=" ">
<ellipse fill="#e0e0e0" stroke="#999999" cx="719.6" cy="-13.44" rx="51.74" ry="13.37"/>
<text text-anchor="middle" x="719.6" y="-10.94" font-family="Helvetica,sans-Serif" font-size="10.00">string_view</text>
</a>
</g>
</g>
<!-- Node17&#45;&gt;Node19 -->
<g id="edge26_Node000017_Node000019" class="edge">
<title>Node17&#45;&gt;Node19</title>
<g id="a_edge26_Node000017_Node000019"><a xlink:title=" ">
<path fill="none" stroke="#63b8ff" d="M385.26,-136.38C494.35,-120.68 699.14,-91.06 700.6,-89.74 715.12,-76.61 719.28,-54.15 720.16,-37.17"/>
<polygon fill="#63b8ff" stroke="#63b8ff" points="723.67,-37.01 720.35,-26.95 716.67,-36.89 723.67,-37.01"/>
</a>
</g>
</g>
<!-- Node20 -->
<g id="Node000020" class="node">
<title>Node20</title>
<g id="a_Node000020"><a xlink:title=" ">
<ellipse fill="#e0e0e0" stroke="#999999" cx="418.6" cy="-76.31" rx="48.58" ry="13.37"/>
<text text-anchor="middle" x="418.6" y="-73.81" font-family="Helvetica,sans-Serif" font-size="10.00">Eigen/Core</text>
</a>
</g>
</g>
<!-- Node17&#45;&gt;Node20 -->
<g id="edge28_Node000017_Node000020" class="edge">
<title>Node17&#45;&gt;Node20</title>
<g id="a_edge28_Node000017_Node000020"><a xlink:title=" ">
<path fill="none" stroke="#63b8ff" d="M336.48,-133.68C352.17,-122.91 375.18,-107.11 392.85,-94.98"/>
<polygon fill="#63b8ff" stroke="#63b8ff" points="395.28,-97.56 401.54,-89.01 391.32,-91.79 395.28,-97.56"/>
</a>
</g>
</g>
<!-- Node21 -->
<g id="Node000021" class="node">
<title>Node21</title>
<g id="a_Node000021"><a xlink:href="fmt_8h.html" target="_top" xlink:title=" ">
<ellipse fill="white" stroke="#666666" cx="607.6" cy="-76.31" rx="84.29" ry="13.37"/>
<text text-anchor="middle" x="607.6" y="-73.81" font-family="Helvetica,sans-Serif" font-size="10.00">drake/common/fmt.h</text>
</a>
</g>
</g>
<!-- Node17&#45;&gt;Node21 -->
<g id="edge29_Node000017_Node000021" class="edge">
<title>Node17&#45;&gt;Node21</title>
<g id="a_edge29_Node000017_Node000021"><a xlink:title=" ">
<path fill="none" stroke="#63b8ff" d="M365.35,-134.85C416.79,-122.63 499.32,-103.02 553.51,-90.15"/>
<polygon fill="#63b8ff" stroke="#63b8ff" points="554.36,-93.55 563.28,-87.83 552.75,-86.74 554.36,-93.55"/>
</a>
</g>
</g>
<!-- Node21&#45;&gt;Node3 -->
<g id="edge30_Node000021_Node000003" class="edge">
<title>Node21&#45;&gt;Node3</title>
<g id="a_edge30_Node000021_Node000003"><a xlink:title=" ">
<path fill="none" stroke="#63b8ff" d="M554.47,-65.79C485.44,-53.44 366.57,-32.15 305.8,-21.27"/>
<polygon fill="#63b8ff" stroke="#63b8ff" points="306.32,-17.81 295.86,-19.49 305.08,-24.7 306.32,-17.81"/>
</a>
</g>
</g>
<!-- Node21&#45;&gt;Node9 -->
<g id="edge32_Node000021_Node000009" class="edge">
<title>Node21&#45;&gt;Node9</title>
<g id="a_edge32_Node000021_Node000009"><a xlink:title=" ">
<path fill="none" stroke="#63b8ff" d="M658.69,-65.53C718.81,-54.02 817.91,-35.05 876.95,-23.75"/>
<polygon fill="#63b8ff" stroke="#63b8ff" points="877.97,-27.12 887.13,-21.8 876.65,-20.24 877.97,-27.12"/>
</a>
</g>
</g>
<!-- Node21&#45;&gt;Node19 -->
<g id="edge31_Node000021_Node000019" class="edge">
<title>Node21&#45;&gt;Node19</title>
<g id="a_edge31_Node000021_Node000019"><a xlink:title=" ">
<path fill="none" stroke="#63b8ff" d="M629.73,-63.28C646.93,-53.93 670.96,-40.87 689.85,-30.6"/>
<polygon fill="#63b8ff" stroke="#63b8ff" points="691.54,-33.67 698.65,-25.82 688.2,-27.52 691.54,-33.67"/>
</a>
</g>
</g>
<!-- Node22 -->
<g id="Node000022" class="node">
<title>Node22</title>
<g id="a_Node000022"><a xlink:title=" ">
<ellipse fill="#e0e0e0" stroke="#999999" cx="594.6" cy="-13.44" rx="55.72" ry="13.37"/>
<text text-anchor="middle" x="594.6" y="-10.94" font-family="Helvetica,sans-Serif" font-size="10.00">fmt/format.h</text>
</a>
</g>
</g>
<!-- Node21&#45;&gt;Node22 -->
<g id="edge33_Node000021_Node000022" class="edge">
<title>Node21&#45;&gt;Node22</title>
<g id="a_edge33_Node000021_Node000022"><a xlink:title=" ">
<path fill="none" stroke="#63b8ff" d="M604.9,-62.69C603.32,-55.27 601.27,-45.65 599.41,-36.96"/>
<polygon fill="#63b8ff" stroke="#63b8ff" points="602.8,-36.08 597.29,-27.03 595.95,-37.54 602.8,-36.08"/>
</a>
</g>
</g>
</g>
</svg>
