<?xml version="1.0" encoding="UTF-8" standalone="no"?>
<!DOCTYPE svg PUBLIC "-//W3C//DTD SVG 1.1//EN"
 "http://www.w3.org/Graphics/SVG/1.1/DTD/svg11.dtd">
<!-- Generated by graphviz version 2.43.0 (0)
 -->
<!-- Title: Graphical Class Hierarchy Pages: 1 -->
<svg width="174pt" height="332pt"
 viewBox="0.00 0.00 174.00 332.00" xmlns="http://www.w3.org/2000/svg" xmlns:xlink="http://www.w3.org/1999/xlink">
<g id="graph0" class="graph" transform="scale(1 1) rotate(0) translate(4 328)">
<title>Graphical Class Hierarchy</title>
<polygon fill="white" stroke="transparent" points="-4,4 -4,-328 170,-328 170,4 -4,4"/>
<!-- Node0 -->
<g id="node1" class="node">
<title>Node0</title>
<g id="a_node1"><a xlink:href="classdrake_1_1geometry_1_1_shape.html" target="_top" xlink:title="The abstract base class for all shape specifications.">
<polygon fill="white" stroke="black" points="0,-152.5 0,-171.5 47,-171.5 47,-152.5 0,-152.5"/>
<text text-anchor="middle" x="23.5" y="-159.5" font-family="Helvetica,sans-Serif" font-size="10.00">Shape</text>
</a>
</g>
</g>
<!-- Node1 -->
<g id="node2" class="node">
<title>Node1</title>
<g id="a_node2"><a xlink:href="classdrake_1_1geometry_1_1_box.html" target="_top" xlink:title="Definition of a box.">
<polygon fill="white" stroke="black" points="107,-304.5 107,-323.5 142,-323.5 142,-304.5 107,-304.5"/>
<text text-anchor="middle" x="124.5" y="-311.5" font-family="Helvetica,sans-Serif" font-size="10.00">Box</text>
</a>
</g>
</g>
<!-- Node0&#45;&gt;Node1 -->
<g id="edge1" class="edge">
<title>Node0&#45;&gt;Node1</title>
<path fill="none" stroke="midnightblue" d="M28.51,-181.57C35.23,-209.9 51.27,-262.49 83,-295 89.51,-301.67 98.82,-306.26 106.87,-309.26"/>
<polygon fill="midnightblue" stroke="midnightblue" points="31.9,-180.68 26.31,-171.68 25.06,-182.2 31.9,-180.68"/>
</g>
<!-- Node2 -->
<g id="node3" class="node">
<title>Node2</title>
<g id="a_node3"><a xlink:href="classdrake_1_1geometry_1_1_capsule.html" target="_top" xlink:title="Definition of a capsule.">
<polygon fill="white" stroke="black" points="96.5,-266.5 96.5,-285.5 152.5,-285.5 152.5,-266.5 96.5,-266.5"/>
<text text-anchor="middle" x="124.5" y="-273.5" font-family="Helvetica,sans-Serif" font-size="10.00">Capsule</text>
</a>
</g>
</g>
<!-- Node0&#45;&gt;Node2 -->
<g id="edge2" class="edge">
<title>Node0&#45;&gt;Node2</title>
<path fill="none" stroke="midnightblue" d="M32.22,-181.04C41.55,-202.02 59.02,-235.59 83,-257 87.17,-260.72 92.2,-263.86 97.27,-266.43"/>
<polygon fill="midnightblue" stroke="midnightblue" points="35.34,-179.44 28.2,-171.61 28.9,-182.19 35.34,-179.44"/>
</g>
<!-- Node3 -->
<g id="node4" class="node">
<title>Node3</title>
<g id="a_node4"><a xlink:href="classdrake_1_1geometry_1_1_convex.html" target="_top" xlink:title="Definition of a convex surface mesh.">
<polygon fill="white" stroke="black" points="98,-228.5 98,-247.5 151,-247.5 151,-228.5 98,-228.5"/>
<text text-anchor="middle" x="124.5" y="-235.5" font-family="Helvetica,sans-Serif" font-size="10.00">Convex</text>
</a>
</g>
</g>
<!-- Node0&#45;&gt;Node3 -->
<g id="edge3" class="edge">
<title>Node0&#45;&gt;Node3</title>
<path fill="none" stroke="midnightblue" d="M39.65,-179.61C50.77,-191.77 66.71,-207.72 83,-219 88.11,-222.54 93.98,-225.72 99.64,-228.42"/>
<polygon fill="midnightblue" stroke="midnightblue" points="42.05,-177.04 32.78,-171.9 36.82,-181.69 42.05,-177.04"/>
</g>
<!-- Node4 -->
<g id="node5" class="node">
<title>Node4</title>
<g id="a_node5"><a xlink:href="classdrake_1_1geometry_1_1_cylinder.html" target="_top" xlink:title="Definition of a cylinder.">
<polygon fill="white" stroke="black" points="96,-190.5 96,-209.5 153,-209.5 153,-190.5 96,-190.5"/>
<text text-anchor="middle" x="124.5" y="-197.5" font-family="Helvetica,sans-Serif" font-size="10.00">Cylinder</text>
</a>
</g>
</g>
<!-- Node0&#45;&gt;Node4 -->
<g id="edge4" class="edge">
<title>Node0&#45;&gt;Node4</title>
<path fill="none" stroke="midnightblue" d="M56.91,-174.44C70.46,-179.64 85.95,-185.59 98.58,-190.44"/>
<polygon fill="midnightblue" stroke="midnightblue" points="58.05,-171.13 47.46,-170.81 55.54,-177.66 58.05,-171.13"/>
</g>
<!-- Node5 -->
<g id="node6" class="node">
<title>Node5</title>
<g id="a_node6"><a xlink:href="classdrake_1_1geometry_1_1_ellipsoid.html" target="_top" xlink:title="Definition of an ellipsoid.">
<polygon fill="white" stroke="black" points="95.5,-152.5 95.5,-171.5 153.5,-171.5 153.5,-152.5 95.5,-152.5"/>
<text text-anchor="middle" x="124.5" y="-159.5" font-family="Helvetica,sans-Serif" font-size="10.00">Ellipsoid</text>
</a>
</g>
</g>
<!-- Node0&#45;&gt;Node5 -->
<g id="edge5" class="edge">
<title>Node0&#45;&gt;Node5</title>
<path fill="none" stroke="midnightblue" d="M57.72,-162C69.94,-162 83.64,-162 95.36,-162"/>
<polygon fill="midnightblue" stroke="midnightblue" points="57.46,-158.5 47.46,-162 57.46,-165.5 57.46,-158.5"/>
</g>
<!-- Node6 -->
<g id="node7" class="node">
<title>Node6</title>
<g id="a_node7"><a xlink:href="classdrake_1_1geometry_1_1_half_space.html" target="_top" xlink:title="Definition of a half space.">
<polygon fill="white" stroke="black" points="91.5,-114.5 91.5,-133.5 157.5,-133.5 157.5,-114.5 91.5,-114.5"/>
<text text-anchor="middle" x="124.5" y="-121.5" font-family="Helvetica,sans-Serif" font-size="10.00">HalfSpace</text>
</a>
</g>
</g>
<!-- Node0&#45;&gt;Node6 -->
<g id="edge6" class="edge">
<title>Node0&#45;&gt;Node6</title>
<path fill="none" stroke="midnightblue" d="M56.91,-149.56C70.46,-144.36 85.95,-138.41 98.58,-133.56"/>
<polygon fill="midnightblue" stroke="midnightblue" points="55.54,-146.34 47.46,-153.19 58.05,-152.87 55.54,-146.34"/>
</g>
<!-- Node7 -->
<g id="node8" class="node">
<title>Node7</title>
<g id="a_node8"><a xlink:href="classdrake_1_1geometry_1_1_mesh.html" target="_top" xlink:title="Definition of a general (possibly non&#45;convex) triangular surface mesh.">
<polygon fill="white" stroke="black" points="103,-76.5 103,-95.5 146,-95.5 146,-76.5 103,-76.5"/>
<text text-anchor="middle" x="124.5" y="-83.5" font-family="Helvetica,sans-Serif" font-size="10.00">Mesh</text>
</a>
</g>
</g>
<!-- Node0&#45;&gt;Node7 -->
<g id="edge7" class="edge">
<title>Node0&#45;&gt;Node7</title>
<path fill="none" stroke="midnightblue" d="M39.65,-144.39C50.77,-132.23 66.71,-116.28 83,-105 89.13,-100.76 96.36,-97.02 103,-94.01"/>
<polygon fill="midnightblue" stroke="midnightblue" points="36.82,-142.31 32.78,-152.1 42.05,-146.96 36.82,-142.31"/>
</g>
<!-- Node8 -->
<g id="node9" class="node">
<title>Node8</title>
<g id="a_node9"><a xlink:href="classdrake_1_1geometry_1_1_meshcat_cone.html" target="_top" xlink:title="Definition of a cone.">
<polygon fill="white" stroke="black" points="83,-38.5 83,-57.5 166,-57.5 166,-38.5 83,-38.5"/>
<text text-anchor="middle" x="124.5" y="-45.5" font-family="Helvetica,sans-Serif" font-size="10.00">MeshcatCone</text>
</a>
</g>
</g>
<!-- Node0&#45;&gt;Node8 -->
<g id="edge8" class="edge">
<title>Node0&#45;&gt;Node8</title>
<path fill="none" stroke="midnightblue" d="M32.22,-142.96C41.55,-121.98 59.02,-88.41 83,-67 87.17,-63.28 92.2,-60.14 97.27,-57.57"/>
<polygon fill="midnightblue" stroke="midnightblue" points="28.9,-141.81 28.2,-152.39 35.34,-144.56 28.9,-141.81"/>
</g>
<!-- Node9 -->
<g id="node10" class="node">
<title>Node9</title>
<g id="a_node10"><a xlink:href="classdrake_1_1geometry_1_1_sphere.html" target="_top" xlink:title="Definition of sphere.">
<polygon fill="white" stroke="black" points="99.5,-0.5 99.5,-19.5 149.5,-19.5 149.5,-0.5 99.5,-0.5"/>
<text text-anchor="middle" x="124.5" y="-7.5" font-family="Helvetica,sans-Serif" font-size="10.00">Sphere</text>
</a>
</g>
</g>
<!-- Node0&#45;&gt;Node9 -->
<g id="edge9" class="edge">
<title>Node0&#45;&gt;Node9</title>
<path fill="none" stroke="midnightblue" d="M28.51,-142.43C35.23,-114.1 51.27,-61.51 83,-29 87.56,-24.33 93.48,-20.68 99.39,-17.88"/>
<polygon fill="midnightblue" stroke="midnightblue" points="25.06,-141.8 26.31,-152.32 31.9,-143.32 25.06,-141.8"/>
</g>
</g>
</svg>
