<?xml version="1.0" encoding="UTF-8" standalone="no"?>
<!DOCTYPE svg PUBLIC "-//W3C//DTD SVG 1.1//EN"
 "http://www.w3.org/Graphics/SVG/1.1/DTD/svg11.dtd">
<!-- Generated by graphviz version 2.43.0 (0)
 -->
<!-- Title: Graphical Class Hierarchy Pages: 1 -->
<svg width="345pt" height="88pt"
 viewBox="0.00 0.00 345.00 88.00" xmlns="http://www.w3.org/2000/svg" xmlns:xlink="http://www.w3.org/1999/xlink">
<g id="graph0" class="graph" transform="scale(1 1) rotate(0) translate(4 84)">
<title>Graphical Class Hierarchy</title>
<polygon fill="white" stroke="transparent" points="-4,4 -4,-84 341,-84 341,4 -4,4"/>
<!-- Node0 -->
<g id="node1" class="node">
<title>Node0</title>
<g id="a_node1"><a xlink:href="classdrake_1_1systems_1_1_event_collection.html" target="_top" xlink:title="There are three concrete event types for any System: publish, discrete state update,...">
<polygon fill="white" stroke="black" points="0,-30 0,-49 166,-49 166,-30 0,-30"/>
<text text-anchor="middle" x="83" y="-37" font-family="Helvetica,sans-Serif" font-size="10.00">EventCollection&lt; EventType &gt;</text>
</a>
</g>
</g>
<!-- Node1 -->
<g id="node2" class="node">
<title>Node1</title>
<g id="a_node2"><a xlink:href="classdrake_1_1systems_1_1_diagram_event_collection.html" target="_top" xlink:title="A concrete class that holds all simultaneous homogeneous events for a Diagram.">
<polygon fill="white" stroke="black" points="202,-49.5 202,-79.5 337,-79.5 337,-49.5 202,-49.5"/>
<text text-anchor="start" x="210" y="-67.5" font-family="Helvetica,sans-Serif" font-size="10.00">DiagramEventCollection</text>
<text text-anchor="middle" x="269.5" y="-56.5" font-family="Helvetica,sans-Serif" font-size="10.00">&lt; EventType &gt;</text>
</a>
</g>
</g>
<!-- Node0&#45;&gt;Node1 -->
<g id="edge1" class="edge">
<title>Node0&#45;&gt;Node1</title>
<path fill="none" stroke="midnightblue" d="M164.24,-50.37C176.76,-52.07 189.58,-53.81 201.76,-55.46"/>
<polygon fill="midnightblue" stroke="midnightblue" points="164.66,-46.9 154.28,-49.02 163.72,-53.83 164.66,-46.9"/>
</g>
<!-- Node2 -->
<g id="node3" class="node">
<title>Node2</title>
<g id="a_node3"><a xlink:href="classdrake_1_1systems_1_1_leaf_event_collection.html" target="_top" xlink:title="A concrete class that holds all simultaneous homogeneous events for a LeafSystem.">
<polygon fill="white" stroke="black" points="212.5,-0.5 212.5,-30.5 326.5,-30.5 326.5,-0.5 212.5,-0.5"/>
<text text-anchor="start" x="220.5" y="-18.5" font-family="Helvetica,sans-Serif" font-size="10.00">LeafEventCollection</text>
<text text-anchor="middle" x="269.5" y="-7.5" font-family="Helvetica,sans-Serif" font-size="10.00">&lt; EventType &gt;</text>
</a>
</g>
</g>
<!-- Node0&#45;&gt;Node2 -->
<g id="edge2" class="edge">
<title>Node0&#45;&gt;Node2</title>
<path fill="none" stroke="midnightblue" d="M167.19,-28.68C182.53,-26.68 198.2,-24.65 212.49,-22.79"/>
<polygon fill="midnightblue" stroke="midnightblue" points="166.65,-25.22 157.18,-29.98 167.55,-32.16 166.65,-25.22"/>
</g>
</g>
</svg>
