<?xml version="1.0" encoding="UTF-8" standalone="no"?>
<!DOCTYPE svg PUBLIC "-//W3C//DTD SVG 1.1//EN"
 "http://www.w3.org/Graphics/SVG/1.1/DTD/svg11.dtd">
<!-- Generated by graphviz version 2.43.0 (0)
 -->
<!-- Title: Graphical Class Hierarchy Pages: 1 -->
<svg width="546pt" height="180pt"
 viewBox="0.00 0.00 546.00 180.00" xmlns="http://www.w3.org/2000/svg" xmlns:xlink="http://www.w3.org/1999/xlink">
<g id="graph0" class="graph" transform="scale(1 1) rotate(0) translate(4 176)">
<title>Graphical Class Hierarchy</title>
<polygon fill="white" stroke="transparent" points="-4,4 -4,-176 542,-176 542,4 -4,4"/>
<!-- Node0 -->
<g id="node1" class="node">
<title>Node0</title>
<g id="a_node1"><a xlink:href="classdrake_1_1systems_1_1_port_base.html" target="_top" xlink:title="A PortBase is base class for System ports; users will typically use the InputPort&lt;T&gt; or OutputPort&lt;T&gt;...">
<polygon fill="white" stroke="black" points="0,-57.5 0,-76.5 60,-76.5 60,-57.5 0,-57.5"/>
<text text-anchor="middle" x="30" y="-64.5" font-family="Helvetica,sans-Serif" font-size="10.00">PortBase</text>
</a>
</g>
</g>
<!-- Node1 -->
<g id="node2" class="node">
<title>Node1</title>
<g id="a_node2"><a xlink:href="classdrake_1_1systems_1_1_input_port_base.html" target="_top" xlink:title="An InputPort is a System resource that describes the kind of input a System accepts,...">
<polygon fill="white" stroke="black" points="100,-95.5 100,-114.5 185,-114.5 185,-95.5 100,-95.5"/>
<text text-anchor="middle" x="142.5" y="-102.5" font-family="Helvetica,sans-Serif" font-size="10.00">InputPortBase</text>
</a>
</g>
</g>
<!-- Node0&#45;&gt;Node1 -->
<g id="edge1" class="edge">
<title>Node0&#45;&gt;Node1</title>
<path fill="none" stroke="midnightblue" d="M68.72,-79.97C83.44,-85.03 100.02,-90.73 113.63,-95.41"/>
<polygon fill="midnightblue" stroke="midnightblue" points="69.48,-76.53 58.88,-76.59 67.2,-83.15 69.48,-76.53"/>
</g>
<!-- Node5 -->
<g id="node6" class="node">
<title>Node5</title>
<g id="a_node6"><a xlink:href="classdrake_1_1systems_1_1_output_port_base.html" target="_top" xlink:title="OutputPortBase handles the scalar type&#45;independent aspects of an OutputPort.">
<polygon fill="white" stroke="black" points="96,-38.5 96,-57.5 189,-57.5 189,-38.5 96,-38.5"/>
<text text-anchor="middle" x="142.5" y="-45.5" font-family="Helvetica,sans-Serif" font-size="10.00">OutputPortBase</text>
</a>
</g>
</g>
<!-- Node0&#45;&gt;Node5 -->
<g id="edge5" class="edge">
<title>Node0&#45;&gt;Node5</title>
<path fill="none" stroke="midnightblue" d="M69.96,-60.3C78.38,-58.85 87.35,-57.31 95.99,-55.83"/>
<polygon fill="midnightblue" stroke="midnightblue" points="69.29,-56.86 60.03,-62.01 70.48,-63.76 69.29,-56.86"/>
</g>
<!-- Node2 -->
<g id="node3" class="node">
<title>Node2</title>
<g id="a_node3"><a xlink:href="classdrake_1_1systems_1_1_input_port.html" target="_top" xlink:title="An InputPort is a System resource that describes the kind of input a System accepts,...">
<polygon fill="white" stroke="black" points="249,-152.5 249,-171.5 338,-171.5 338,-152.5 249,-152.5"/>
<text text-anchor="middle" x="293.5" y="-159.5" font-family="Helvetica,sans-Serif" font-size="10.00">InputPort&lt; T &gt;</text>
</a>
</g>
</g>
<!-- Node1&#45;&gt;Node2 -->
<g id="edge2" class="edge">
<title>Node1&#45;&gt;Node2</title>
<path fill="none" stroke="midnightblue" d="M170.98,-119.17C186.57,-126.86 206.58,-136.16 225,-143 234.36,-146.47 244.65,-149.67 254.31,-152.41"/>
<polygon fill="midnightblue" stroke="midnightblue" points="172.42,-115.98 161.91,-114.63 169.28,-122.24 172.42,-115.98"/>
</g>
<!-- Node3 -->
<g id="node4" class="node">
<title>Node3</title>
<g id="a_node4"><a xlink:href="classdrake_1_1systems_1_1_input_port.html" target="_top" xlink:title=" ">
<polygon fill="white" stroke="black" points="225,-114.5 225,-133.5 362,-133.5 362,-114.5 225,-114.5"/>
<text text-anchor="middle" x="293.5" y="-121.5" font-family="Helvetica,sans-Serif" font-size="10.00">InputPort&lt; AutoDiffXd &gt;</text>
</a>
</g>
</g>
<!-- Node1&#45;&gt;Node3 -->
<g id="edge3" class="edge">
<title>Node1&#45;&gt;Node3</title>
<path fill="none" stroke="midnightblue" d="M195.17,-111.59C204.78,-112.81 214.95,-114.11 224.95,-115.39"/>
<polygon fill="midnightblue" stroke="midnightblue" points="195.37,-108.09 185,-110.29 194.48,-115.03 195.37,-108.09"/>
</g>
<!-- Node4 -->
<g id="node5" class="node">
<title>Node4</title>
<g id="a_node5"><a xlink:href="classdrake_1_1systems_1_1_input_port.html" target="_top" xlink:title=" ">
<polygon fill="white" stroke="black" points="235.5,-76.5 235.5,-95.5 351.5,-95.5 351.5,-76.5 235.5,-76.5"/>
<text text-anchor="middle" x="293.5" y="-83.5" font-family="Helvetica,sans-Serif" font-size="10.00">InputPort&lt; double &gt;</text>
</a>
</g>
</g>
<!-- Node1&#45;&gt;Node4 -->
<g id="edge4" class="edge">
<title>Node1&#45;&gt;Node4</title>
<path fill="none" stroke="midnightblue" d="M195.16,-98.41C208.13,-96.76 222.13,-94.97 235.35,-93.29"/>
<polygon fill="midnightblue" stroke="midnightblue" points="194.48,-94.97 185,-99.71 195.37,-101.91 194.48,-94.97"/>
</g>
<!-- Node6 -->
<g id="node7" class="node">
<title>Node6</title>
<g id="a_node7"><a xlink:href="classdrake_1_1systems_1_1_output_port.html" target="_top" xlink:title="An OutputPort belongs to a System and represents the properties of one of that System&#39;s output ports.">
<polygon fill="white" stroke="black" points="244.5,-38.5 244.5,-57.5 342.5,-57.5 342.5,-38.5 244.5,-38.5"/>
<text text-anchor="middle" x="293.5" y="-45.5" font-family="Helvetica,sans-Serif" font-size="10.00">OutputPort&lt; T &gt;</text>
</a>
</g>
</g>
<!-- Node5&#45;&gt;Node6 -->
<g id="edge6" class="edge">
<title>Node5&#45;&gt;Node6</title>
<path fill="none" stroke="midnightblue" d="M199.12,-48C214.01,-48 229.98,-48 244.42,-48"/>
<polygon fill="midnightblue" stroke="midnightblue" points="199.01,-44.5 189.01,-48 199.01,-51.5 199.01,-44.5"/>
</g>
<!-- Node9 -->
<g id="node10" class="node">
<title>Node9</title>
<g id="a_node10"><a xlink:href="classdrake_1_1systems_1_1_output_port.html" target="_top" xlink:title=" ">
<polygon fill="white" stroke="black" points="231,-0.5 231,-19.5 356,-19.5 356,-0.5 231,-0.5"/>
<text text-anchor="middle" x="293.5" y="-7.5" font-family="Helvetica,sans-Serif" font-size="10.00">OutputPort&lt; double &gt;</text>
</a>
</g>
</g>
<!-- Node5&#45;&gt;Node9 -->
<g id="edge9" class="edge">
<title>Node5&#45;&gt;Node9</title>
<path fill="none" stroke="midnightblue" d="M190.99,-35.89C211.74,-30.6 235.73,-24.48 255.17,-19.52"/>
<polygon fill="midnightblue" stroke="midnightblue" points="189.92,-32.55 181.1,-38.41 191.65,-39.33 189.92,-32.55"/>
</g>
<!-- Node7 -->
<g id="node8" class="node">
<title>Node7</title>
<g id="a_node8"><a xlink:href="classdrake_1_1systems_1_1_diagram_output_port.html" target="_top" xlink:title="(Advanced.) Holds information about a subsystem output port that has been exported to become one of t...">
<polygon fill="white" stroke="black" points="398,-57.5 398,-76.5 538,-76.5 538,-57.5 398,-57.5"/>
<text text-anchor="middle" x="468" y="-64.5" font-family="Helvetica,sans-Serif" font-size="10.00">DiagramOutputPort&lt; T &gt;</text>
</a>
</g>
</g>
<!-- Node6&#45;&gt;Node7 -->
<g id="edge7" class="edge">
<title>Node6&#45;&gt;Node7</title>
<path fill="none" stroke="midnightblue" d="M352.86,-54.43C367.34,-56.02 382.99,-57.75 397.93,-59.39"/>
<polygon fill="midnightblue" stroke="midnightblue" points="352.87,-50.91 342.55,-53.29 352.11,-57.87 352.87,-50.91"/>
</g>
<!-- Node8 -->
<g id="node9" class="node">
<title>Node8</title>
<g id="a_node9"><a xlink:href="classdrake_1_1systems_1_1_leaf_output_port.html" target="_top" xlink:title="(Advanced.) Implements an output port whose value is managed by a cache entry in the same LeafSystem ...">
<polygon fill="white" stroke="black" points="408.5,-19.5 408.5,-38.5 527.5,-38.5 527.5,-19.5 408.5,-19.5"/>
<text text-anchor="middle" x="468" y="-26.5" font-family="Helvetica,sans-Serif" font-size="10.00">LeafOutputPort&lt; T &gt;</text>
</a>
</g>
</g>
<!-- Node6&#45;&gt;Node8 -->
<g id="edge8" class="edge">
<title>Node6&#45;&gt;Node8</title>
<path fill="none" stroke="midnightblue" d="M352.62,-41.6C370.62,-39.62 390.45,-37.43 408.47,-35.45"/>
<polygon fill="midnightblue" stroke="midnightblue" points="352.11,-38.13 342.55,-42.71 352.87,-45.09 352.11,-38.13"/>
</g>
</g>
</svg>
