<?xml version="1.0" encoding="UTF-8" standalone="no"?>
<!DOCTYPE svg PUBLIC "-//W3C//DTD SVG 1.1//EN"
 "http://www.w3.org/Graphics/SVG/1.1/DTD/svg11.dtd">
<!-- Generated by graphviz version 2.43.0 (0)
 -->
<!-- Title: Graphical Class Hierarchy Pages: 1 -->
<svg width="527pt" height="674pt"
 viewBox="0.00 0.00 527.00 674.00" xmlns="http://www.w3.org/2000/svg" xmlns:xlink="http://www.w3.org/1999/xlink">
<g id="graph0" class="graph" transform="scale(1 1) rotate(0) translate(4 670)">
<title>Graphical Class Hierarchy</title>
<polygon fill="white" stroke="transparent" points="-4,4 -4,-670 523,-670 523,4 -4,4"/>
<!-- Node0 -->
<g id="node1" class="node">
<title>Node0</title>
<g id="a_node1"><a xlink:href="classdrake_1_1multibody_1_1_multibody_element.html" target="_top" xlink:title="A class representing an element (subcomponent) of a MultibodyPlant or (internally) a MultibodyTree.">
<polygon fill="white" stroke="black" points="0,-304.5 0,-323.5 134,-323.5 134,-304.5 0,-304.5"/>
<text text-anchor="middle" x="67" y="-311.5" font-family="Helvetica,sans-Serif" font-size="10.00">MultibodyElement&lt; T &gt;</text>
</a>
</g>
</g>
<!-- Node1 -->
<g id="node2" class="node">
<title>Node1</title>
<g id="a_node2"><a xlink:href="classdrake_1_1multibody_1_1_deformable_body.html" target="_top" xlink:title="The DeformableBody class represents a single deformable element within a MultibodyPlant.">
<polygon fill="white" stroke="black" points="170,-551.5 170,-570.5 298,-570.5 298,-551.5 170,-551.5"/>
<text text-anchor="middle" x="234" y="-558.5" font-family="Helvetica,sans-Serif" font-size="10.00">DeformableBody&lt; T &gt;</text>
</a>
</g>
</g>
<!-- Node0&#45;&gt;Node1 -->
<g id="edge1" class="edge">
<title>Node0&#45;&gt;Node1</title>
<path fill="none" stroke="midnightblue" d="M71.21,-333.98C79.35,-378.18 105.01,-484.82 170,-542 174.37,-545.85 179.51,-548.92 184.92,-551.37"/>
<polygon fill="midnightblue" stroke="midnightblue" points="74.62,-333.19 69.46,-323.93 67.72,-334.39 74.62,-333.19"/>
</g>
<!-- Node2 -->
<g id="node3" class="node">
<title>Node2</title>
<g id="a_node3"><a xlink:href="classdrake_1_1multibody_1_1_force_element.html" target="_top" xlink:title="A ForceElement allows modeling state and time dependent forces in a MultibodyTree model.">
<polygon fill="white" stroke="black" points="178,-513.5 178,-532.5 290,-532.5 290,-513.5 178,-513.5"/>
<text text-anchor="middle" x="234" y="-520.5" font-family="Helvetica,sans-Serif" font-size="10.00">ForceElement&lt; T &gt;</text>
</a>
</g>
</g>
<!-- Node0&#45;&gt;Node2 -->
<g id="edge2" class="edge">
<title>Node0&#45;&gt;Node2</title>
<path fill="none" stroke="midnightblue" d="M81.85,-331.54C115.31,-373.93 199.71,-480.83 225.44,-513.42"/>
<polygon fill="midnightblue" stroke="midnightblue" points="84.46,-329.2 75.52,-323.52 78.97,-333.54 84.46,-329.2"/>
</g>
<!-- Node9 -->
<g id="node10" class="node">
<title>Node9</title>
<g id="a_node10"><a xlink:href="classdrake_1_1multibody_1_1_frame.html" target="_top" xlink:title="Frame is an abstract class representing a material frame (also called a physical frame) of its underl...">
<polygon fill="white" stroke="black" points="196,-380.5 196,-399.5 272,-399.5 272,-380.5 196,-380.5"/>
<text text-anchor="middle" x="234" y="-387.5" font-family="Helvetica,sans-Serif" font-size="10.00">Frame&lt; T &gt;</text>
</a>
</g>
</g>
<!-- Node0&#45;&gt;Node9 -->
<g id="edge9" class="edge">
<title>Node0&#45;&gt;Node9</title>
<path fill="none" stroke="midnightblue" d="M98.1,-327.86C131.19,-343.1 183.48,-367.19 212.27,-380.45"/>
<polygon fill="midnightblue" stroke="midnightblue" points="99.44,-324.63 88.9,-323.63 96.52,-330.99 99.44,-324.63"/>
</g>
<!-- Node12 -->
<g id="node13" class="node">
<title>Node12</title>
<g id="a_node13"><a xlink:href="classdrake_1_1multibody_1_1_joint.html" target="_top" xlink:title="A Joint models the kinematical relationship which characterizes the possible relative motion between ...">
<polygon fill="white" stroke="black" points="200.5,-228.5 200.5,-247.5 267.5,-247.5 267.5,-228.5 200.5,-228.5"/>
<text text-anchor="middle" x="234" y="-235.5" font-family="Helvetica,sans-Serif" font-size="10.00">Joint&lt; T &gt;</text>
</a>
</g>
</g>
<!-- Node0&#45;&gt;Node12 -->
<g id="edge12" class="edge">
<title>Node0&#45;&gt;Node12</title>
<path fill="none" stroke="midnightblue" d="M98.1,-300.14C131.19,-284.9 183.48,-260.81 212.27,-247.55"/>
<polygon fill="midnightblue" stroke="midnightblue" points="96.52,-297.01 88.9,-304.37 99.44,-303.37 96.52,-297.01"/>
</g>
<!-- Node23 -->
<g id="node24" class="node">
<title>Node23</title>
<g id="a_node24"><a xlink:href="classdrake_1_1multibody_1_1_joint_actuator.html" target="_top" xlink:title="The JointActuator class is mostly a simple bookkeeping structure to represent an actuator acting on a...">
<polygon fill="white" stroke="black" points="180,-190.5 180,-209.5 288,-209.5 288,-190.5 180,-190.5"/>
<text text-anchor="middle" x="234" y="-197.5" font-family="Helvetica,sans-Serif" font-size="10.00">JointActuator&lt; T &gt;</text>
</a>
</g>
</g>
<!-- Node0&#45;&gt;Node23 -->
<g id="edge23" class="edge">
<title>Node0&#45;&gt;Node23</title>
<path fill="none" stroke="midnightblue" d="M82.28,-296.5C100.51,-275.24 134.04,-239.66 170,-219 176.64,-215.19 184.12,-212.07 191.54,-209.54"/>
<polygon fill="midnightblue" stroke="midnightblue" points="79.4,-294.48 75.64,-304.39 84.76,-298.99 79.4,-294.48"/>
</g>
<!-- Node24 -->
<g id="node25" class="node">
<title>Node24</title>
<g id="a_node25"><a xlink:href="classdrake_1_1multibody_1_1_rigid_body.html" target="_top" xlink:title="The term rigid body implies that the deformations of the body under consideration are so small that t...">
<polygon fill="white" stroke="black" points="186.5,-152.5 186.5,-171.5 281.5,-171.5 281.5,-152.5 186.5,-152.5"/>
<text text-anchor="middle" x="234" y="-159.5" font-family="Helvetica,sans-Serif" font-size="10.00">RigidBody&lt; T &gt;</text>
</a>
</g>
</g>
<!-- Node0&#45;&gt;Node24 -->
<g id="edge24" class="edge">
<title>Node0&#45;&gt;Node24</title>
<path fill="none" stroke="midnightblue" d="M77.37,-295.29C92.76,-266.46 126.1,-211.34 170,-181 175.64,-177.1 182.1,-173.99 188.68,-171.5"/>
<polygon fill="midnightblue" stroke="midnightblue" points="74.19,-293.82 72.69,-304.31 80.4,-297.04 74.19,-293.82"/>
</g>
<!-- Node3 -->
<g id="node4" class="node">
<title>Node3</title>
<g id="a_node4"><a xlink:href="classdrake_1_1multibody_1_1_door_hinge.html" target="_top" xlink:title="This ForceElement models a revolute DoorHinge joint that could exhibit different force/torque charact...">
<polygon fill="white" stroke="black" points="378,-646.5 378,-665.5 475,-665.5 475,-646.5 378,-646.5"/>
<text text-anchor="middle" x="426.5" y="-653.5" font-family="Helvetica,sans-Serif" font-size="10.00">DoorHinge&lt; T &gt;</text>
</a>
</g>
</g>
<!-- Node2&#45;&gt;Node3 -->
<g id="edge3" class="edge">
<title>Node2&#45;&gt;Node3</title>
<path fill="none" stroke="midnightblue" d="M292.56,-537.63C294.48,-538.97 296.3,-540.42 298,-542 331.01,-572.8 299.66,-607.68 334,-637 346.09,-647.32 362.34,-652.53 377.78,-655.02"/>
<polygon fill="midnightblue" stroke="midnightblue" points="294.04,-534.45 283.62,-532.54 290.57,-540.53 294.04,-534.45"/>
</g>
<!-- Node4 -->
<g id="node5" class="node">
<title>Node4</title>
<g id="a_node5"><a xlink:href="classdrake_1_1multibody_1_1_linear_bushing_roll_pitch_yaw.html" target="_top" xlink:title="This ForceElement models a massless flexible bushing that connects a frame A of a link (body) L0 to a...">
<polygon fill="white" stroke="black" points="338.5,-608.5 338.5,-627.5 514.5,-627.5 514.5,-608.5 338.5,-608.5"/>
<text text-anchor="middle" x="426.5" y="-615.5" font-family="Helvetica,sans-Serif" font-size="10.00">LinearBushingRollPitchYaw&lt; T &gt;</text>
</a>
</g>
</g>
<!-- Node2&#45;&gt;Node4 -->
<g id="edge4" class="edge">
<title>Node2&#45;&gt;Node4</title>
<path fill="none" stroke="midnightblue" d="M290.11,-536.91C292.88,-538.43 295.53,-540.12 298,-542 321.85,-560.14 309.37,-581.93 334,-599 339.47,-602.79 345.53,-605.85 351.86,-608.32"/>
<polygon fill="midnightblue" stroke="midnightblue" points="291.49,-533.69 280.95,-532.58 288.5,-540.01 291.49,-533.69"/>
</g>
<!-- Node5 -->
<g id="node6" class="node">
<title>Node5</title>
<g id="a_node6"><a xlink:href="classdrake_1_1multibody_1_1_linear_spring_damper.html" target="_top" xlink:title="This ForceElement models a spring&#45;damper attached between two points on two different bodies.">
<polygon fill="white" stroke="black" points="354,-570.5 354,-589.5 499,-589.5 499,-570.5 354,-570.5"/>
<text text-anchor="middle" x="426.5" y="-577.5" font-family="Helvetica,sans-Serif" font-size="10.00">LinearSpringDamper&lt; T &gt;</text>
</a>
</g>
</g>
<!-- Node2&#45;&gt;Node5 -->
<g id="edge5" class="edge">
<title>Node2&#45;&gt;Node5</title>
<path fill="none" stroke="midnightblue" d="M280.82,-535.68C286.67,-537.63 292.52,-539.75 298,-542 314.74,-548.87 316.98,-554.88 334,-561 344.53,-564.79 356.04,-567.91 367.22,-570.46"/>
<polygon fill="midnightblue" stroke="midnightblue" points="281.66,-532.28 271.07,-532.57 279.53,-538.95 281.66,-532.28"/>
</g>
<!-- Node6 -->
<g id="node7" class="node">
<title>Node6</title>
<g id="a_node7"><a xlink:href="classdrake_1_1multibody_1_1_prismatic_spring.html" target="_top" xlink:title="This ForceElement models a linear spring attached to a PrismaticJoint and applies a force to that joi...">
<polygon fill="white" stroke="black" points="365.5,-532.5 365.5,-551.5 487.5,-551.5 487.5,-532.5 365.5,-532.5"/>
<text text-anchor="middle" x="426.5" y="-539.5" font-family="Helvetica,sans-Serif" font-size="10.00">PrismaticSpring&lt; T &gt;</text>
</a>
</g>
</g>
<!-- Node2&#45;&gt;Node6 -->
<g id="edge6" class="edge">
<title>Node2&#45;&gt;Node6</title>
<path fill="none" stroke="midnightblue" d="M300.24,-529.51C321.29,-531.61 344.51,-533.92 365.19,-535.98"/>
<polygon fill="midnightblue" stroke="midnightblue" points="300.4,-526.01 290.1,-528.5 299.7,-532.97 300.4,-526.01"/>
</g>
<!-- Node7 -->
<g id="node8" class="node">
<title>Node7</title>
<g id="a_node8"><a xlink:href="classdrake_1_1multibody_1_1_revolute_spring.html" target="_top" xlink:title="This ForceElement models a torsional spring attached to a RevoluteJoint and applies a torque to that ...">
<polygon fill="white" stroke="black" points="367,-494.5 367,-513.5 486,-513.5 486,-494.5 367,-494.5"/>
<text text-anchor="middle" x="426.5" y="-501.5" font-family="Helvetica,sans-Serif" font-size="10.00">RevoluteSpring&lt; T &gt;</text>
</a>
</g>
</g>
<!-- Node2&#45;&gt;Node7 -->
<g id="edge7" class="edge">
<title>Node2&#45;&gt;Node7</title>
<path fill="none" stroke="midnightblue" d="M300.19,-516.5C321.82,-514.34 345.76,-511.95 366.87,-509.85"/>
<polygon fill="midnightblue" stroke="midnightblue" points="299.7,-513.03 290.1,-517.5 300.4,-519.99 299.7,-513.03"/>
</g>
<!-- Node8 -->
<g id="node9" class="node">
<title>Node8</title>
<g id="a_node9"><a xlink:href="classdrake_1_1multibody_1_1_uniform_gravity_field_element.html" target="_top" xlink:title="This ForceElement allows modeling the effect of a uniform gravity field as felt by bodies on the surf...">
<polygon fill="white" stroke="black" points="334,-456.5 334,-475.5 519,-475.5 519,-456.5 334,-456.5"/>
<text text-anchor="middle" x="426.5" y="-463.5" font-family="Helvetica,sans-Serif" font-size="10.00">UniformGravityFieldElement&lt; T &gt;</text>
</a>
</g>
</g>
<!-- Node2&#45;&gt;Node8 -->
<g id="edge8" class="edge">
<title>Node2&#45;&gt;Node8</title>
<path fill="none" stroke="midnightblue" d="M266.52,-509.4C285.75,-501.48 310.99,-491.76 334,-485 346.3,-481.39 359.72,-478.2 372.4,-475.51"/>
<polygon fill="midnightblue" stroke="midnightblue" points="264.94,-506.27 257.06,-513.35 267.63,-512.73 264.94,-506.27"/>
</g>
<!-- Node10 -->
<g id="node11" class="node">
<title>Node10</title>
<g id="a_node11"><a xlink:href="classdrake_1_1multibody_1_1_fixed_offset_frame.html" target="_top" xlink:title="FixedOffsetFrame represents a material frame F whose pose is fixed with respect to a parent material ...">
<polygon fill="white" stroke="black" points="361,-418.5 361,-437.5 492,-437.5 492,-418.5 361,-418.5"/>
<text text-anchor="middle" x="426.5" y="-425.5" font-family="Helvetica,sans-Serif" font-size="10.00">FixedOffsetFrame&lt; T &gt;</text>
</a>
</g>
</g>
<!-- Node9&#45;&gt;Node10 -->
<g id="edge10" class="edge">
<title>Node9&#45;&gt;Node10</title>
<path fill="none" stroke="midnightblue" d="M282.1,-399.39C311.16,-405.19 348.34,-412.61 377.56,-418.44"/>
<polygon fill="midnightblue" stroke="midnightblue" points="282.67,-395.94 272.18,-397.42 281.3,-402.81 282.67,-395.94"/>
</g>
<!-- Node11 -->
<g id="node12" class="node">
<title>Node11</title>
<g id="a_node12"><a xlink:href="classdrake_1_1multibody_1_1_rigid_body_frame.html" target="_top" xlink:title="A RigidBodyFrame is a material Frame that serves as the unique reference frame for a RigidBody.">
<polygon fill="white" stroke="black" points="364,-380.5 364,-399.5 489,-399.5 489,-380.5 364,-380.5"/>
<text text-anchor="middle" x="426.5" y="-387.5" font-family="Helvetica,sans-Serif" font-size="10.00">RigidBodyFrame&lt; T &gt;</text>
</a>
</g>
</g>
<!-- Node9&#45;&gt;Node11 -->
<g id="edge11" class="edge">
<title>Node9&#45;&gt;Node11</title>
<path fill="none" stroke="midnightblue" d="M282.34,-390C306.92,-390 337.25,-390 363.67,-390"/>
<polygon fill="midnightblue" stroke="midnightblue" points="282.18,-386.5 272.18,-390 282.18,-393.5 282.18,-386.5"/>
</g>
<!-- Node13 -->
<g id="node14" class="node">
<title>Node13</title>
<g id="a_node14"><a xlink:href="classdrake_1_1multibody_1_1_ball_rpy_joint.html" target="_top" xlink:title="This Joint allows two bodies to rotate freely relative to one another.">
<polygon fill="white" stroke="black" points="374.5,-342.5 374.5,-361.5 478.5,-361.5 478.5,-342.5 374.5,-342.5"/>
<text text-anchor="middle" x="426.5" y="-349.5" font-family="Helvetica,sans-Serif" font-size="10.00">BallRpyJoint&lt; T &gt;</text>
</a>
</g>
</g>
<!-- Node12&#45;&gt;Node13 -->
<g id="edge13" class="edge">
<title>Node12&#45;&gt;Node13</title>
<path fill="none" stroke="midnightblue" d="M248.19,-255.7C265.42,-277.47 297.69,-313.88 334,-333 346.35,-339.5 360.72,-343.78 374.37,-346.59"/>
<polygon fill="midnightblue" stroke="midnightblue" points="250.84,-253.4 241.96,-247.62 245.3,-257.68 250.84,-253.4"/>
</g>
<!-- Node14 -->
<g id="node15" class="node">
<title>Node14</title>
<g id="a_node15"><a xlink:href="classdrake_1_1multibody_1_1_curvilinear_joint.html" target="_top" xlink:title="A Joint that allows a body to move along a piecewise constant curvature path contained in a plane.">
<polygon fill="white" stroke="black" points="366.5,-304.5 366.5,-323.5 486.5,-323.5 486.5,-304.5 366.5,-304.5"/>
<text text-anchor="middle" x="426.5" y="-311.5" font-family="Helvetica,sans-Serif" font-size="10.00">CurvilinearJoint&lt; T &gt;</text>
</a>
</g>
</g>
<!-- Node12&#45;&gt;Node14 -->
<g id="edge14" class="edge">
<title>Node12&#45;&gt;Node14</title>
<path fill="none" stroke="midnightblue" d="M256.82,-253.29C276.23,-266.21 305.84,-284.28 334,-295 344.16,-298.87 355.27,-302.01 366.13,-304.54"/>
<polygon fill="midnightblue" stroke="midnightblue" points="258.64,-250.3 248.4,-247.58 254.72,-256.09 258.64,-250.3"/>
</g>
<!-- Node15 -->
<g id="node16" class="node">
<title>Node15</title>
<g id="a_node16"><a xlink:href="classdrake_1_1multibody_1_1_planar_joint.html" target="_top" xlink:title="This joint models a planar joint allowing two bodies to translate and rotate relative to one another ...">
<polygon fill="white" stroke="black" points="377.5,-266.5 377.5,-285.5 475.5,-285.5 475.5,-266.5 377.5,-266.5"/>
<text text-anchor="middle" x="426.5" y="-273.5" font-family="Helvetica,sans-Serif" font-size="10.00">PlanarJoint&lt; T &gt;</text>
</a>
</g>
</g>
<!-- Node12&#45;&gt;Node15 -->
<g id="edge15" class="edge">
<title>Node12&#45;&gt;Node15</title>
<path fill="none" stroke="midnightblue" d="M277.82,-246.54C307.53,-252.47 347.13,-260.37 377.85,-266.49"/>
<polygon fill="midnightblue" stroke="midnightblue" points="278.24,-243.06 267.75,-244.53 276.87,-249.92 278.24,-243.06"/>
</g>
<!-- Node16 -->
<g id="node17" class="node">
<title>Node16</title>
<g id="a_node17"><a xlink:href="classdrake_1_1multibody_1_1_prismatic_joint.html" target="_top" xlink:title="This Joint allows two bodies to translate relative to one another along a common axis.">
<polygon fill="white" stroke="black" points="370,-228.5 370,-247.5 483,-247.5 483,-228.5 370,-228.5"/>
<text text-anchor="middle" x="426.5" y="-235.5" font-family="Helvetica,sans-Serif" font-size="10.00">PrismaticJoint&lt; T &gt;</text>
</a>
</g>
</g>
<!-- Node12&#45;&gt;Node16 -->
<g id="edge16" class="edge">
<title>Node12&#45;&gt;Node16</title>
<path fill="none" stroke="midnightblue" d="M278.08,-238C305.2,-238 340.47,-238 369.71,-238"/>
<polygon fill="midnightblue" stroke="midnightblue" points="277.75,-234.5 267.75,-238 277.75,-241.5 277.75,-234.5"/>
</g>
<!-- Node17 -->
<g id="node18" class="node">
<title>Node17</title>
<g id="a_node18"><a xlink:href="classdrake_1_1multibody_1_1_quaternion_floating_joint.html" target="_top" xlink:title="This Joint allows two bodies to move freely relatively to one another.">
<polygon fill="white" stroke="black" points="346,-190.5 346,-209.5 507,-209.5 507,-190.5 346,-190.5"/>
<text text-anchor="middle" x="426.5" y="-197.5" font-family="Helvetica,sans-Serif" font-size="10.00">QuaternionFloatingJoint&lt; T &gt;</text>
</a>
</g>
</g>
<!-- Node12&#45;&gt;Node17 -->
<g id="edge17" class="edge">
<title>Node12&#45;&gt;Node17</title>
<path fill="none" stroke="midnightblue" d="M277.82,-229.46C307.53,-223.53 347.13,-215.63 377.85,-209.51"/>
<polygon fill="midnightblue" stroke="midnightblue" points="276.87,-226.08 267.75,-231.47 278.24,-232.94 276.87,-226.08"/>
</g>
<!-- Node18 -->
<g id="node19" class="node">
<title>Node18</title>
<g id="a_node19"><a xlink:href="classdrake_1_1multibody_1_1_revolute_joint.html" target="_top" xlink:title="This Joint allows two bodies to rotate relatively to one another around a common axis.">
<polygon fill="white" stroke="black" points="371.5,-152.5 371.5,-171.5 481.5,-171.5 481.5,-152.5 371.5,-152.5"/>
<text text-anchor="middle" x="426.5" y="-159.5" font-family="Helvetica,sans-Serif" font-size="10.00">RevoluteJoint&lt; T &gt;</text>
</a>
</g>
</g>
<!-- Node12&#45;&gt;Node18 -->
<g id="edge18" class="edge">
<title>Node12&#45;&gt;Node18</title>
<path fill="none" stroke="midnightblue" d="M277.45,-228.52C284.59,-226.01 291.72,-222.88 298,-219 317.8,-206.79 313.68,-192.33 334,-181 345.34,-174.68 358.52,-170.45 371.3,-167.63"/>
<polygon fill="midnightblue" stroke="midnightblue" points="276.26,-225.22 267.78,-231.58 278.37,-231.9 276.26,-225.22"/>
</g>
<!-- Node19 -->
<g id="node20" class="node">
<title>Node19</title>
<g id="a_node20"><a xlink:href="classdrake_1_1multibody_1_1_rpy_floating_joint.html" target="_top" xlink:title="This Joint allows a rigid body to move freely with respect to its parent rigid body.">
<polygon fill="white" stroke="black" points="364,-114.5 364,-133.5 489,-133.5 489,-114.5 364,-114.5"/>
<text text-anchor="middle" x="426.5" y="-121.5" font-family="Helvetica,sans-Serif" font-size="10.00">RpyFloatingJoint&lt; T &gt;</text>
</a>
</g>
</g>
<!-- Node12&#45;&gt;Node19 -->
<g id="edge19" class="edge">
<title>Node12&#45;&gt;Node19</title>
<path fill="none" stroke="midnightblue" d="M277.45,-230.53C284.88,-227.8 292.1,-224.08 298,-219 326.33,-194.62 304.62,-166.11 334,-143 342.67,-136.18 353.19,-131.64 363.97,-128.65"/>
<polygon fill="midnightblue" stroke="midnightblue" points="276.18,-227.26 267.67,-233.57 278.26,-233.94 276.18,-227.26"/>
</g>
<!-- Node20 -->
<g id="node21" class="node">
<title>Node20</title>
<g id="a_node21"><a xlink:href="classdrake_1_1multibody_1_1_screw_joint.html" target="_top" xlink:title="This joint models a screw joint allowing two bodies to rotate about one axis while translating along ...">
<polygon fill="white" stroke="black" points="378.5,-76.5 378.5,-95.5 474.5,-95.5 474.5,-76.5 378.5,-76.5"/>
<text text-anchor="middle" x="426.5" y="-83.5" font-family="Helvetica,sans-Serif" font-size="10.00">ScrewJoint&lt; T &gt;</text>
</a>
</g>
</g>
<!-- Node12&#45;&gt;Node20 -->
<g id="edge20" class="edge">
<title>Node12&#45;&gt;Node20</title>
<path fill="none" stroke="midnightblue" d="M277.33,-231.42C284.95,-228.62 292.28,-224.64 298,-219 335.81,-181.67 294.58,-140.62 334,-105 346.04,-94.12 362.63,-88.84 378.39,-86.45"/>
<polygon fill="midnightblue" stroke="midnightblue" points="276.16,-228.12 267.61,-234.37 278.2,-234.81 276.16,-228.12"/>
</g>
<!-- Node21 -->
<g id="node22" class="node">
<title>Node21</title>
<g id="a_node22"><a xlink:href="classdrake_1_1multibody_1_1_universal_joint.html" target="_top" xlink:title="This joint models a universal joint allowing two bodies to rotate relative to one another with two de...">
<polygon fill="white" stroke="black" points="370,-38.5 370,-57.5 483,-57.5 483,-38.5 370,-38.5"/>
<text text-anchor="middle" x="426.5" y="-45.5" font-family="Helvetica,sans-Serif" font-size="10.00">UniversalJoint&lt; T &gt;</text>
</a>
</g>
</g>
<!-- Node12&#45;&gt;Node21 -->
<g id="edge21" class="edge">
<title>Node12&#45;&gt;Node21</title>
<path fill="none" stroke="midnightblue" d="M277.43,-231.83C285.12,-229 292.44,-224.91 298,-219 345.59,-168.45 284.23,-115.4 334,-67 343.65,-57.61 356.67,-52.31 369.84,-49.44"/>
<polygon fill="midnightblue" stroke="midnightblue" points="276.19,-228.55 267.62,-234.78 278.21,-235.25 276.19,-228.55"/>
</g>
<!-- Node22 -->
<g id="node23" class="node">
<title>Node22</title>
<g id="a_node23"><a xlink:href="classdrake_1_1multibody_1_1_weld_joint.html" target="_top" xlink:title="This Joint fixes the relative pose between two frames as if &quot;welding&quot; them together.">
<polygon fill="white" stroke="black" points="381,-0.5 381,-19.5 472,-19.5 472,-0.5 381,-0.5"/>
<text text-anchor="middle" x="426.5" y="-7.5" font-family="Helvetica,sans-Serif" font-size="10.00">WeldJoint&lt; T &gt;</text>
</a>
</g>
</g>
<!-- Node12&#45;&gt;Node22 -->
<g id="edge22" class="edge">
<title>Node12&#45;&gt;Node22</title>
<path fill="none" stroke="midnightblue" d="M277.16,-232.2C285,-229.35 292.46,-225.16 298,-219 355.48,-155.1 273.76,-90.3 334,-29 346.17,-16.62 364.15,-11.27 380.96,-9.23"/>
<polygon fill="midnightblue" stroke="midnightblue" points="276.11,-228.86 267.51,-235.05 278.09,-235.58 276.11,-228.86"/>
</g>
</g>
</svg>
