<?xml version="1.0" encoding="UTF-8" standalone="no"?>
<!DOCTYPE svg PUBLIC "-//W3C//DTD SVG 1.1//EN"
 "http://www.w3.org/Graphics/SVG/1.1/DTD/svg11.dtd">
<!-- Generated by graphviz version 2.43.0 (0)
 -->
<!-- Title: Graphical Class Hierarchy Pages: 1 -->
<svg width="328pt" height="1066pt"
 viewBox="0.00 0.00 328.00 1065.50" xmlns="http://www.w3.org/2000/svg" xmlns:xlink="http://www.w3.org/1999/xlink">
<g id="graph0" class="graph" transform="scale(1 1) rotate(0) translate(4 1061.5)">
<title>Graphical Class Hierarchy</title>
<polygon fill="white" stroke="transparent" points="-4,4 -4,-1061.5 324,-1061.5 324,4 -4,4"/>
<!-- Node56 -->
<g id="node1" class="node">
<title>Node56</title>
<g id="a_node1"><a xlink:title="STL class.">
<polygon fill="white" stroke="#bfbfbf" points="0,-519.5 0,-538.5 97,-538.5 97,-519.5 0,-519.5"/>
<text text-anchor="middle" x="48.5" y="-526.5" font-family="Helvetica,sans-Serif" font-size="10.00">unique_ptr&lt; T &gt;</text>
</a>
</g>
</g>
<!-- Node0 -->
<g id="node2" class="node">
<title>Node0</title>
<g id="a_node2"><a xlink:href="classdrake_1_1copyable__unique__ptr.html" target="_top" xlink:title=" ">
<polygon fill="white" stroke="black" points="167.5,-1027 167.5,-1057 285.5,-1057 285.5,-1027 167.5,-1027"/>
<text text-anchor="start" x="175.5" y="-1045" font-family="Helvetica,sans-Serif" font-size="10.00">copyable_unique_ptr</text>
<text text-anchor="middle" x="226.5" y="-1034" font-family="Helvetica,sans-Serif" font-size="10.00">&lt; ConvexSet &gt;</text>
</a>
</g>
</g>
<!-- Node56&#45;&gt;Node0 -->
<g id="edge1" class="edge">
<title>Node56&#45;&gt;Node0</title>
<path fill="none" stroke="midnightblue" d="M50.1,-548.8C53.02,-631.41 68.31,-947.58 133,-1018 141.98,-1027.77 154.38,-1033.78 167.19,-1037.43"/>
<polygon fill="midnightblue" stroke="midnightblue" points="53.6,-548.62 49.77,-538.74 46.6,-548.85 53.6,-548.62"/>
</g>
<!-- Node58 -->
<g id="node3" class="node">
<title>Node58</title>
<g id="a_node3"><a xlink:href="classdrake_1_1copyable__unique__ptr.html" target="_top" xlink:title=" ">
<polygon fill="white" stroke="black" points="156.5,-978 156.5,-1008 296.5,-1008 296.5,-978 156.5,-978"/>
<text text-anchor="start" x="164.5" y="-996" font-family="Helvetica,sans-Serif" font-size="10.00">copyable_unique_ptr</text>
<text text-anchor="middle" x="226.5" y="-985" font-family="Helvetica,sans-Serif" font-size="10.00">&lt; drake::AbstractValue &gt;</text>
</a>
</g>
</g>
<!-- Node56&#45;&gt;Node58 -->
<g id="edge2" class="edge">
<title>Node56&#45;&gt;Node58</title>
<path fill="none" stroke="midnightblue" d="M50.51,-548.74C54.86,-625.99 74.51,-906.5 133,-969 139.46,-975.9 147.63,-980.92 156.43,-984.56"/>
<polygon fill="midnightblue" stroke="midnightblue" points="53.99,-548.31 49.96,-538.51 47,-548.69 53.99,-548.31"/>
</g>
<!-- Node59 -->
<g id="node4" class="node">
<title>Node59</title>
<g id="a_node4"><a xlink:href="classdrake_1_1copyable__unique__ptr.html" target="_top" xlink:title=" ">
<polygon fill="white" stroke="black" points="149,-929 149,-959 304,-959 304,-929 149,-929"/>
<text text-anchor="start" x="157" y="-947" font-family="Helvetica,sans-Serif" font-size="10.00">copyable_unique_ptr</text>
<text text-anchor="middle" x="226.5" y="-936" font-family="Helvetica,sans-Serif" font-size="10.00">&lt; drake::geometry::Shape &gt;</text>
</a>
</g>
</g>
<!-- Node56&#45;&gt;Node59 -->
<g id="edge3" class="edge">
<title>Node56&#45;&gt;Node59</title>
<path fill="none" stroke="midnightblue" d="M51.09,-549.2C57.16,-621.28 81.21,-864.39 133,-919 137.58,-923.83 142.98,-927.76 148.85,-930.95"/>
<polygon fill="midnightblue" stroke="midnightblue" points="54.54,-548.5 50.24,-538.82 47.57,-549.07 54.54,-548.5"/>
</g>
<!-- Node60 -->
<g id="node5" class="node">
<title>Node60</title>
<g id="a_node5"><a xlink:href="classdrake_1_1copyable__unique__ptr.html" target="_top" xlink:title=" ">
<polygon fill="white" stroke="black" points="141.5,-868.5 141.5,-909.5 311.5,-909.5 311.5,-868.5 141.5,-868.5"/>
<text text-anchor="start" x="149.5" y="-897.5" font-family="Helvetica,sans-Serif" font-size="10.00">copyable_unique_ptr</text>
<text text-anchor="start" x="149.5" y="-886.5" font-family="Helvetica,sans-Serif" font-size="10.00">&lt; drake::solvers::Mathematical</text>
<text text-anchor="middle" x="226.5" y="-875.5" font-family="Helvetica,sans-Serif" font-size="10.00">Program &gt;</text>
</a>
</g>
</g>
<!-- Node56&#45;&gt;Node60 -->
<g id="edge4" class="edge">
<title>Node56&#45;&gt;Node60</title>
<path fill="none" stroke="midnightblue" d="M51.94,-548.46C60.3,-612.11 89.66,-812.71 133,-859 136.35,-862.57 140.12,-865.72 144.19,-868.5"/>
<polygon fill="midnightblue" stroke="midnightblue" points="55.41,-548.01 50.67,-538.53 48.47,-548.9 55.41,-548.01"/>
</g>
<!-- Node61 -->
<g id="node6" class="node">
<title>Node61</title>
<g id="a_node6"><a xlink:href="classdrake_1_1copyable__unique__ptr.html" target="_top" xlink:title=" ">
<polygon fill="white" stroke="black" points="144.5,-808.5 144.5,-849.5 308.5,-849.5 308.5,-808.5 144.5,-808.5"/>
<text text-anchor="start" x="152.5" y="-837.5" font-family="Helvetica,sans-Serif" font-size="10.00">copyable_unique_ptr</text>
<text text-anchor="start" x="152.5" y="-826.5" font-family="Helvetica,sans-Serif" font-size="10.00">&lt; drake::systems::CacheEntry</text>
<text text-anchor="middle" x="226.5" y="-815.5" font-family="Helvetica,sans-Serif" font-size="10.00">Value &gt;</text>
</a>
</g>
</g>
<!-- Node56&#45;&gt;Node61 -->
<g id="edge5" class="edge">
<title>Node56&#45;&gt;Node61</title>
<path fill="none" stroke="midnightblue" d="M49.73,-548.98C51.41,-598.43 62.66,-727.69 133,-799 136.44,-802.49 140.28,-805.57 144.4,-808.29"/>
<polygon fill="midnightblue" stroke="midnightblue" points="53.22,-548.61 49.49,-538.69 46.23,-548.77 53.22,-548.61"/>
</g>
<!-- Node62 -->
<g id="node7" class="node">
<title>Node62</title>
<g id="a_node7"><a xlink:href="classdrake_1_1copyable__unique__ptr.html" target="_top" xlink:title=" ">
<polygon fill="white" stroke="black" points="153.5,-748.5 153.5,-789.5 299.5,-789.5 299.5,-748.5 153.5,-748.5"/>
<text text-anchor="start" x="161.5" y="-777.5" font-family="Helvetica,sans-Serif" font-size="10.00">copyable_unique_ptr</text>
<text text-anchor="start" x="161.5" y="-766.5" font-family="Helvetica,sans-Serif" font-size="10.00">&lt; drake::systems::Context</text>
<text text-anchor="middle" x="226.5" y="-755.5" font-family="Helvetica,sans-Serif" font-size="10.00">&lt; T &gt; &gt;</text>
</a>
</g>
</g>
<!-- Node56&#45;&gt;Node62 -->
<g id="edge6" class="edge">
<title>Node56&#45;&gt;Node62</title>
<path fill="none" stroke="midnightblue" d="M51.74,-548.62C57.47,-589.85 76.48,-686.03 133,-739 138.91,-744.54 145.86,-749.06 153.25,-752.74"/>
<polygon fill="midnightblue" stroke="midnightblue" points="55.19,-548.01 50.45,-538.53 48.24,-548.9 55.19,-548.01"/>
</g>
<!-- Node63 -->
<g id="node8" class="node">
<title>Node63</title>
<g id="a_node8"><a xlink:href="classdrake_1_1copyable__unique__ptr.html" target="_top" xlink:title=" ">
<polygon fill="white" stroke="black" points="147.5,-688.5 147.5,-729.5 305.5,-729.5 305.5,-688.5 147.5,-688.5"/>
<text text-anchor="start" x="155.5" y="-717.5" font-family="Helvetica,sans-Serif" font-size="10.00">copyable_unique_ptr</text>
<text text-anchor="start" x="155.5" y="-706.5" font-family="Helvetica,sans-Serif" font-size="10.00">&lt; drake::systems::FixedInput</text>
<text text-anchor="middle" x="226.5" y="-695.5" font-family="Helvetica,sans-Serif" font-size="10.00">PortValue &gt;</text>
</a>
</g>
</g>
<!-- Node56&#45;&gt;Node63 -->
<g id="edge7" class="edge">
<title>Node56&#45;&gt;Node63</title>
<path fill="none" stroke="midnightblue" d="M55.2,-548.58C65.49,-580.52 90.17,-643.78 133,-679 137.43,-682.65 142.32,-685.85 147.46,-688.67"/>
<polygon fill="midnightblue" stroke="midnightblue" points="58.44,-547.22 52.16,-538.69 51.75,-549.28 58.44,-547.22"/>
</g>
<!-- Node64 -->
<g id="node9" class="node">
<title>Node64</title>
<g id="a_node9"><a xlink:href="classdrake_1_1copyable__unique__ptr.html" target="_top" xlink:title=" ">
<polygon fill="white" stroke="black" points="144.5,-628.5 144.5,-669.5 308.5,-669.5 308.5,-628.5 144.5,-628.5"/>
<text text-anchor="start" x="152.5" y="-657.5" font-family="Helvetica,sans-Serif" font-size="10.00">copyable_unique_ptr</text>
<text text-anchor="start" x="152.5" y="-646.5" font-family="Helvetica,sans-Serif" font-size="10.00">&lt; drake::systems::Parameters</text>
<text text-anchor="middle" x="226.5" y="-635.5" font-family="Helvetica,sans-Serif" font-size="10.00">&lt; AutoDiffXd &gt; &gt;</text>
</a>
</g>
</g>
<!-- Node56&#45;&gt;Node64 -->
<g id="edge8" class="edge">
<title>Node56&#45;&gt;Node64</title>
<path fill="none" stroke="midnightblue" d="M61.78,-546.99C76.49,-567.24 102.93,-599.8 133,-619 138.41,-622.45 144.25,-625.54 150.27,-628.3"/>
<polygon fill="midnightblue" stroke="midnightblue" points="64.51,-544.79 55.88,-538.65 58.8,-548.83 64.51,-544.79"/>
</g>
<!-- Node65 -->
<g id="node10" class="node">
<title>Node65</title>
<g id="a_node10"><a xlink:href="classdrake_1_1copyable__unique__ptr.html" target="_top" xlink:title=" ">
<polygon fill="white" stroke="black" points="144.5,-568.5 144.5,-609.5 308.5,-609.5 308.5,-568.5 144.5,-568.5"/>
<text text-anchor="start" x="152.5" y="-597.5" font-family="Helvetica,sans-Serif" font-size="10.00">copyable_unique_ptr</text>
<text text-anchor="start" x="152.5" y="-586.5" font-family="Helvetica,sans-Serif" font-size="10.00">&lt; drake::systems::Parameters</text>
<text text-anchor="middle" x="226.5" y="-575.5" font-family="Helvetica,sans-Serif" font-size="10.00">&lt; double &gt; &gt;</text>
</a>
</g>
</g>
<!-- Node56&#45;&gt;Node65 -->
<g id="edge9" class="edge">
<title>Node56&#45;&gt;Node65</title>
<path fill="none" stroke="midnightblue" d="M85.15,-542.08C99.92,-547.43 117.25,-553.62 133,-559 142.11,-562.11 151.74,-565.32 161.22,-568.44"/>
<polygon fill="midnightblue" stroke="midnightblue" points="85.97,-538.66 75.38,-538.53 83.58,-545.24 85.97,-538.66"/>
</g>
<!-- Node66 -->
<g id="node11" class="node">
<title>Node66</title>
<g id="a_node11"><a xlink:href="classdrake_1_1copyable__unique__ptr.html" target="_top" xlink:title=" ">
<polygon fill="white" stroke="black" points="133,-508.5 133,-549.5 320,-549.5 320,-508.5 133,-508.5"/>
<text text-anchor="start" x="141" y="-537.5" font-family="Helvetica,sans-Serif" font-size="10.00">copyable_unique_ptr</text>
<text text-anchor="start" x="141" y="-526.5" font-family="Helvetica,sans-Serif" font-size="10.00">&lt; drake::systems::Parameters</text>
<text text-anchor="middle" x="226.5" y="-515.5" font-family="Helvetica,sans-Serif" font-size="10.00">&lt; drake::symbolic::Expression &gt; &gt;</text>
</a>
</g>
</g>
<!-- Node56&#45;&gt;Node66 -->
<g id="edge10" class="edge">
<title>Node56&#45;&gt;Node66</title>
<path fill="none" stroke="midnightblue" d="M107.27,-529C115.47,-529 124.07,-529 132.73,-529"/>
<polygon fill="midnightblue" stroke="midnightblue" points="107.13,-525.5 97.13,-529 107.13,-532.5 107.13,-525.5"/>
</g>
<!-- Node67 -->
<g id="node12" class="node">
<title>Node67</title>
<g id="a_node12"><a xlink:href="classdrake_1_1copyable__unique__ptr.html" target="_top" xlink:title=" ">
<polygon fill="white" stroke="black" points="144.5,-448.5 144.5,-489.5 308.5,-489.5 308.5,-448.5 144.5,-448.5"/>
<text text-anchor="start" x="152.5" y="-477.5" font-family="Helvetica,sans-Serif" font-size="10.00">copyable_unique_ptr</text>
<text text-anchor="start" x="152.5" y="-466.5" font-family="Helvetica,sans-Serif" font-size="10.00">&lt; drake::systems::Parameters</text>
<text text-anchor="middle" x="226.5" y="-455.5" font-family="Helvetica,sans-Serif" font-size="10.00">&lt; T &gt; &gt;</text>
</a>
</g>
</g>
<!-- Node56&#45;&gt;Node67 -->
<g id="edge11" class="edge">
<title>Node56&#45;&gt;Node67</title>
<path fill="none" stroke="midnightblue" d="M85.15,-515.92C99.92,-510.57 117.25,-504.38 133,-499 142.11,-495.89 151.74,-492.68 161.22,-489.56"/>
<polygon fill="midnightblue" stroke="midnightblue" points="83.58,-512.76 75.38,-519.47 85.97,-519.34 83.58,-512.76"/>
</g>
<!-- Node68 -->
<g id="node13" class="node">
<title>Node68</title>
<g id="a_node13"><a xlink:href="classdrake_1_1copyable__unique__ptr.html" target="_top" xlink:title=" ">
<polygon fill="white" stroke="black" points="158,-388.5 158,-429.5 295,-429.5 295,-388.5 158,-388.5"/>
<text text-anchor="start" x="166" y="-417.5" font-family="Helvetica,sans-Serif" font-size="10.00">copyable_unique_ptr</text>
<text text-anchor="start" x="166" y="-406.5" font-family="Helvetica,sans-Serif" font-size="10.00">&lt; drake::trajectories</text>
<text text-anchor="middle" x="226.5" y="-395.5" font-family="Helvetica,sans-Serif" font-size="10.00">::Trajectory&lt; double &gt; &gt;</text>
</a>
</g>
</g>
<!-- Node56&#45;&gt;Node68 -->
<g id="edge12" class="edge">
<title>Node56&#45;&gt;Node68</title>
<path fill="none" stroke="midnightblue" d="M61.78,-511.01C76.49,-490.76 102.93,-458.2 133,-439 140.68,-434.09 149.24,-429.92 157.96,-426.39"/>
<polygon fill="midnightblue" stroke="midnightblue" points="58.8,-509.17 55.88,-519.35 64.51,-513.21 58.8,-509.17"/>
</g>
<!-- Node69 -->
<g id="node14" class="node">
<title>Node69</title>
<g id="a_node14"><a xlink:href="classdrake_1_1copyable__unique__ptr.html" target="_top" xlink:title=" ">
<polygon fill="white" stroke="black" points="167.5,-328.5 167.5,-369.5 285.5,-369.5 285.5,-328.5 167.5,-328.5"/>
<text text-anchor="start" x="175.5" y="-357.5" font-family="Helvetica,sans-Serif" font-size="10.00">copyable_unique_ptr</text>
<text text-anchor="start" x="175.5" y="-346.5" font-family="Helvetica,sans-Serif" font-size="10.00">&lt; drake::trajectories</text>
<text text-anchor="middle" x="226.5" y="-335.5" font-family="Helvetica,sans-Serif" font-size="10.00">::Trajectory&lt; T &gt; &gt;</text>
</a>
</g>
</g>
<!-- Node56&#45;&gt;Node69 -->
<g id="edge13" class="edge">
<title>Node56&#45;&gt;Node69</title>
<path fill="none" stroke="midnightblue" d="M55.2,-509.42C65.49,-477.48 90.17,-414.22 133,-379 142.91,-370.85 155.09,-364.9 167.31,-360.55"/>
<polygon fill="midnightblue" stroke="midnightblue" points="51.75,-508.72 52.16,-519.31 58.44,-510.78 51.75,-508.72"/>
</g>
<!-- Node70 -->
<g id="node15" class="node">
<title>Node70</title>
<g id="a_node15"><a xlink:href="classdrake_1_1copyable__unique__ptr.html" target="_top" xlink:title=" ">
<polygon fill="white" stroke="black" points="167.5,-279 167.5,-309 285.5,-309 285.5,-279 167.5,-279"/>
<text text-anchor="start" x="175.5" y="-297" font-family="Helvetica,sans-Serif" font-size="10.00">copyable_unique_ptr</text>
<text text-anchor="middle" x="226.5" y="-286" font-family="Helvetica,sans-Serif" font-size="10.00">&lt; Engine &gt;</text>
</a>
</g>
</g>
<!-- Node56&#45;&gt;Node70 -->
<g id="edge14" class="edge">
<title>Node56&#45;&gt;Node70</title>
<path fill="none" stroke="midnightblue" d="M51.53,-509.15C56.88,-467.5 75.18,-370.55 133,-319 142.56,-310.48 154.74,-304.82 167.09,-301.07"/>
<polygon fill="midnightblue" stroke="midnightblue" points="48.03,-509.01 50.35,-519.35 54.98,-509.82 48.03,-509.01"/>
</g>
<!-- Node71 -->
<g id="node16" class="node">
<title>Node71</title>
<g id="a_node16"><a xlink:href="classdrake_1_1copyable__unique__ptr.html" target="_top" xlink:title=" ">
<polygon fill="white" stroke="black" points="149,-218.5 149,-259.5 304,-259.5 304,-218.5 149,-218.5"/>
<text text-anchor="start" x="157" y="-247.5" font-family="Helvetica,sans-Serif" font-size="10.00">copyable_unique_ptr</text>
<text text-anchor="start" x="157" y="-236.5" font-family="Helvetica,sans-Serif" font-size="10.00">&lt; internal::CollisionFilter</text>
<text text-anchor="middle" x="226.5" y="-225.5" font-family="Helvetica,sans-Serif" font-size="10.00">GroupsImpl&lt; std::string &gt; &gt;</text>
</a>
</g>
</g>
<!-- Node56&#45;&gt;Node71 -->
<g id="edge15" class="edge">
<title>Node56&#45;&gt;Node71</title>
<path fill="none" stroke="midnightblue" d="M50.08,-509.23C52.55,-461.39 65.49,-338.29 133,-270 137.64,-265.3 143.02,-261.32 148.8,-257.94"/>
<polygon fill="midnightblue" stroke="midnightblue" points="46.57,-509.32 49.65,-519.46 53.56,-509.61 46.57,-509.32"/>
</g>
<!-- Node72 -->
<g id="node17" class="node">
<title>Node72</title>
<g id="a_node17"><a xlink:href="classdrake_1_1copyable__unique__ptr.html" target="_top" xlink:title=" ">
<polygon fill="white" stroke="black" points="150.5,-158.5 150.5,-199.5 302.5,-199.5 302.5,-158.5 150.5,-158.5"/>
<text text-anchor="start" x="158.5" y="-187.5" font-family="Helvetica,sans-Serif" font-size="10.00">copyable_unique_ptr</text>
<text text-anchor="start" x="158.5" y="-176.5" font-family="Helvetica,sans-Serif" font-size="10.00">&lt; internal::ProximityEngine</text>
<text text-anchor="middle" x="226.5" y="-165.5" font-family="Helvetica,sans-Serif" font-size="10.00">&lt; AutoDiffXd &gt; &gt;</text>
</a>
</g>
</g>
<!-- Node56&#45;&gt;Node72 -->
<g id="edge16" class="edge">
<title>Node56&#45;&gt;Node72</title>
<path fill="none" stroke="midnightblue" d="M52.14,-509.33C60.9,-446.73 90.9,-253.63 133,-209 137.98,-203.72 143.9,-199.37 150.3,-195.78"/>
<polygon fill="midnightblue" stroke="midnightblue" points="48.64,-509.05 50.75,-519.44 55.58,-510.01 48.64,-509.05"/>
</g>
<!-- Node73 -->
<g id="node18" class="node">
<title>Node73</title>
<g id="a_node18"><a xlink:href="classdrake_1_1copyable__unique__ptr.html" target="_top" xlink:title=" ">
<polygon fill="white" stroke="black" points="150.5,-98.5 150.5,-139.5 302.5,-139.5 302.5,-98.5 150.5,-98.5"/>
<text text-anchor="start" x="158.5" y="-127.5" font-family="Helvetica,sans-Serif" font-size="10.00">copyable_unique_ptr</text>
<text text-anchor="start" x="158.5" y="-116.5" font-family="Helvetica,sans-Serif" font-size="10.00">&lt; internal::ProximityEngine</text>
<text text-anchor="middle" x="226.5" y="-105.5" font-family="Helvetica,sans-Serif" font-size="10.00">&lt; double &gt; &gt;</text>
</a>
</g>
</g>
<!-- Node56&#45;&gt;Node73 -->
<g id="edge17" class="edge">
<title>Node56&#45;&gt;Node73</title>
<path fill="none" stroke="midnightblue" d="M51.26,-509.39C57.91,-439.44 83.67,-203.38 133,-149 137.88,-143.62 143.73,-139.21 150.08,-135.58"/>
<polygon fill="midnightblue" stroke="midnightblue" points="47.76,-509.19 50.32,-519.47 54.73,-509.84 47.76,-509.19"/>
</g>
<!-- Node74 -->
<g id="node19" class="node">
<title>Node74</title>
<g id="a_node19"><a xlink:href="classdrake_1_1copyable__unique__ptr.html" target="_top" xlink:title=" ">
<polygon fill="white" stroke="black" points="150.5,-38.5 150.5,-79.5 302.5,-79.5 302.5,-38.5 150.5,-38.5"/>
<text text-anchor="start" x="158.5" y="-67.5" font-family="Helvetica,sans-Serif" font-size="10.00">copyable_unique_ptr</text>
<text text-anchor="start" x="158.5" y="-56.5" font-family="Helvetica,sans-Serif" font-size="10.00">&lt; internal::ProximityEngine</text>
<text text-anchor="middle" x="226.5" y="-45.5" font-family="Helvetica,sans-Serif" font-size="10.00">&lt; T &gt; &gt;</text>
</a>
</g>
</g>
<!-- Node56&#45;&gt;Node74 -->
<g id="edge18" class="edge">
<title>Node56&#45;&gt;Node74</title>
<path fill="none" stroke="midnightblue" d="M50.65,-508.86C55.48,-431.29 76.52,-153.09 133,-89 137.91,-83.43 143.87,-78.88 150.36,-75.18"/>
<polygon fill="midnightblue" stroke="midnightblue" points="47.14,-508.97 50.03,-519.16 54.13,-509.39 47.14,-508.97"/>
</g>
<!-- Node75 -->
<g id="node20" class="node">
<title>Node75</title>
<g id="a_node20"><a xlink:href="classdrake_1_1copyable__unique__ptr.html" target="_top" xlink:title="A smart pointer with deep copy semantics.">
<polygon fill="white" stroke="black" points="153.5,-0.5 153.5,-19.5 299.5,-19.5 299.5,-0.5 153.5,-0.5"/>
<text text-anchor="middle" x="226.5" y="-7.5" font-family="Helvetica,sans-Serif" font-size="10.00">copyable_unique_ptr&lt; T &gt;</text>
</a>
</g>
</g>
<!-- Node56&#45;&gt;Node75 -->
<g id="edge19" class="edge">
<title>Node56&#45;&gt;Node75</title>
<path fill="none" stroke="midnightblue" d="M49.92,-509.21C52.14,-425.25 65.05,-99.52 133,-29 138.69,-23.1 145.68,-18.78 153.26,-15.64"/>
<polygon fill="midnightblue" stroke="midnightblue" points="46.42,-509.32 49.68,-519.41 53.42,-509.49 46.42,-509.32"/>
</g>
</g>
</svg>
