<?xml version="1.0" encoding="UTF-8" standalone="no"?>
<!DOCTYPE svg PUBLIC "-//W3C//DTD SVG 1.1//EN"
 "http://www.w3.org/Graphics/SVG/1.1/DTD/svg11.dtd">
<!-- Generated by graphviz version 2.43.0 (0)
 -->
<!-- Title: Graphical Class Hierarchy Pages: 1 -->
<svg width="513pt" height="1790pt"
 viewBox="0.00 0.00 513.00 1789.50" xmlns="http://www.w3.org/2000/svg" xmlns:xlink="http://www.w3.org/1999/xlink">
<g id="graph0" class="graph" transform="scale(1 1) rotate(0) translate(4 1785.5)">
<title>Graphical Class Hierarchy</title>
<polygon fill="white" stroke="transparent" points="-4,4 -4,-1785.5 509,-1785.5 509,4 -4,4"/>
<!-- Node789 -->
<g id="node1" class="node">
<title>Node789</title>
<g id="a_node1"><a xlink:title=" ">
<polygon fill="white" stroke="#bfbfbf" points="0,-872 0,-891 63,-891 63,-872 0,-872"/>
<text text-anchor="middle" x="31.5" y="-879" font-family="Helvetica,sans-Serif" font-size="10.00">formatter</text>
</a>
</g>
</g>
<!-- Node0 -->
<g id="node2" class="node">
<title>Node0</title>
<g id="a_node2"><a xlink:href="structdrake_1_1ostream__formatter.html" target="_top" xlink:title="When using fmt &gt;= 9, this is an alias for fmt::ostream_formatter.">
<polygon fill="white" stroke="black" points="122,-894 122,-913 231,-913 231,-894 122,-894"/>
<text text-anchor="middle" x="176.5" y="-901" font-family="Helvetica,sans-Serif" font-size="10.00">ostream_formatter</text>
</a>
</g>
</g>
<!-- Node789&#45;&gt;Node0 -->
<g id="edge1" class="edge">
<title>Node789&#45;&gt;Node0</title>
<path fill="none" stroke="midnightblue" d="M73.23,-887.77C88.33,-890.09 105.7,-892.76 121.78,-895.24"/>
<polygon fill="midnightblue" stroke="midnightblue" points="73.59,-884.28 63.18,-886.22 72.53,-891.2 73.59,-884.28"/>
</g>
<!-- Node827 -->
<g id="node39" class="node">
<title>Node827</title>
<g id="a_node39"><a xlink:href="structfmt_1_1formatter_3_01drake_1_1geometry_1_1_geometry_id_01_4.html" target="_top" xlink:title=" ">
<polygon fill="white" stroke="black" points="99,-844.5 99,-874.5 254,-874.5 254,-844.5 99,-844.5"/>
<text text-anchor="start" x="107" y="-862.5" font-family="Helvetica,sans-Serif" font-size="10.00">formatter&lt; drake::geometry</text>
<text text-anchor="middle" x="176.5" y="-851.5" font-family="Helvetica,sans-Serif" font-size="10.00">::GeometryId &gt;</text>
</a>
</g>
</g>
<!-- Node789&#45;&gt;Node827 -->
<g id="edge38" class="edge">
<title>Node789&#45;&gt;Node827</title>
<path fill="none" stroke="midnightblue" d="M73.31,-875.22C81.33,-873.99 89.99,-872.66 98.75,-871.31"/>
<polygon fill="midnightblue" stroke="midnightblue" points="72.53,-871.8 63.18,-876.78 73.59,-878.72 72.53,-871.8"/>
</g>
<!-- Node1 -->
<g id="node3" class="node">
<title>Node1</title>
<g id="a_node3"><a xlink:href="structfmt_1_1formatter_3_01drake_1_1_auto_diff_xd_01_4.html" target="_top" xlink:title=" ">
<polygon fill="white" stroke="black" points="312,-1762 312,-1781 483,-1781 483,-1762 312,-1762"/>
<text text-anchor="middle" x="397.5" y="-1769" font-family="Helvetica,sans-Serif" font-size="10.00">formatter&lt; drake::AutoDiffXd &gt;</text>
</a>
</g>
</g>
<!-- Node0&#45;&gt;Node1 -->
<g id="edge2" class="edge">
<title>Node0&#45;&gt;Node1</title>
<path fill="none" stroke="midnightblue" d="M177.1,-923.28C175.21,-1039.12 171.53,-1628.6 290,-1752.5 296.17,-1758.95 303.71,-1763.66 311.91,-1767.05"/>
<polygon fill="midnightblue" stroke="midnightblue" points="180.61,-923.12 177.29,-913.06 173.61,-923 180.61,-923.12"/>
</g>
<!-- Node2 -->
<g id="node4" class="node">
<title>Node2</title>
<g id="a_node4"><a xlink:href="structfmt_1_1formatter_3_01drake_1_1geometry_1_1_geometry_properties_01_4.html" target="_top" xlink:title=" ">
<polygon fill="white" stroke="black" points="320,-1712.5 320,-1742.5 475,-1742.5 475,-1712.5 320,-1712.5"/>
<text text-anchor="start" x="328" y="-1730.5" font-family="Helvetica,sans-Serif" font-size="10.00">formatter&lt; drake::geometry</text>
<text text-anchor="middle" x="397.5" y="-1719.5" font-family="Helvetica,sans-Serif" font-size="10.00">::GeometryProperties &gt;</text>
</a>
</g>
</g>
<!-- Node0&#45;&gt;Node2 -->
<g id="edge3" class="edge">
<title>Node0&#45;&gt;Node2</title>
<path fill="none" stroke="midnightblue" d="M177.36,-923.46C177.01,-1035.45 180.89,-1585.07 290,-1703.5 298.09,-1712.28 308.65,-1718.2 319.97,-1722.12"/>
<polygon fill="midnightblue" stroke="midnightblue" points="180.86,-923.26 177.41,-913.25 173.86,-923.23 180.86,-923.26"/>
</g>
<!-- Node3 -->
<g id="node5" class="node">
<title>Node3</title>
<g id="a_node5"><a xlink:href="structfmt_1_1formatter_3_01drake_1_1geometry_1_1render_1_1_render_label_01_4.html" target="_top" xlink:title=" ">
<polygon fill="white" stroke="black" points="320,-1663.5 320,-1693.5 475,-1693.5 475,-1663.5 320,-1663.5"/>
<text text-anchor="start" x="328" y="-1681.5" font-family="Helvetica,sans-Serif" font-size="10.00">formatter&lt; drake::geometry</text>
<text text-anchor="middle" x="397.5" y="-1670.5" font-family="Helvetica,sans-Serif" font-size="10.00">::render::RenderLabel &gt;</text>
</a>
</g>
</g>
<!-- Node0&#45;&gt;Node3 -->
<g id="edge4" class="edge">
<title>Node0&#45;&gt;Node3</title>
<path fill="none" stroke="midnightblue" d="M177.56,-923.24C178.31,-1030.65 187.26,-1543.98 290,-1654.5 298.07,-1663.18 308.54,-1669.05 319.77,-1672.96"/>
<polygon fill="midnightblue" stroke="midnightblue" points="181.06,-923.13 177.51,-913.15 174.06,-923.17 181.06,-923.13"/>
</g>
<!-- Node4 -->
<g id="node6" class="node">
<title>Node4</title>
<g id="a_node6"><a xlink:href="structfmt_1_1formatter_3_01drake_1_1geometry_1_1_role_01_4.html" target="_top" xlink:title=" ">
<polygon fill="white" stroke="black" points="320,-1614.5 320,-1644.5 475,-1644.5 475,-1614.5 320,-1614.5"/>
<text text-anchor="start" x="328" y="-1632.5" font-family="Helvetica,sans-Serif" font-size="10.00">formatter&lt; drake::geometry</text>
<text text-anchor="middle" x="397.5" y="-1621.5" font-family="Helvetica,sans-Serif" font-size="10.00">::Role &gt;</text>
</a>
</g>
</g>
<!-- Node0&#45;&gt;Node4 -->
<g id="edge5" class="edge">
<title>Node0&#45;&gt;Node4</title>
<path fill="none" stroke="midnightblue" d="M177.79,-923.55C179.73,-1027.38 193.79,-1503.06 290,-1605.5 298.11,-1614.13 308.61,-1619.98 319.84,-1623.89"/>
<polygon fill="midnightblue" stroke="midnightblue" points="181.29,-923.19 177.62,-913.25 174.29,-923.3 181.29,-923.19"/>
</g>
<!-- Node5 -->
<g id="node7" class="node">
<title>Node5</title>
<g id="a_node7"><a xlink:href="structfmt_1_1formatter_3_01drake_1_1_identifier_3_01_tag_01_4_01_4.html" target="_top" xlink:title=" ">
<polygon fill="white" stroke="black" points="322,-1565.5 322,-1595.5 473,-1595.5 473,-1565.5 322,-1565.5"/>
<text text-anchor="start" x="330" y="-1583.5" font-family="Helvetica,sans-Serif" font-size="10.00">formatter&lt; drake::Identifier</text>
<text text-anchor="middle" x="397.5" y="-1572.5" font-family="Helvetica,sans-Serif" font-size="10.00">&lt; Tag &gt; &gt;</text>
</a>
</g>
</g>
<!-- Node0&#45;&gt;Node5 -->
<g id="edge6" class="edge">
<title>Node0&#45;&gt;Node5</title>
<path fill="none" stroke="midnightblue" d="M178.04,-923.08C181.17,-1021.58 200.06,-1461.84 290,-1556.5 298.62,-1565.57 309.87,-1571.56 321.83,-1575.45"/>
<polygon fill="midnightblue" stroke="midnightblue" points="181.54,-922.92 177.74,-913.03 174.54,-923.13 181.54,-922.92"/>
</g>
<!-- Node6 -->
<g id="node8" class="node">
<title>Node6</title>
<g id="a_node8"><a xlink:href="structfmt_1_1formatter_3_01drake_1_1math_1_1_rigid_transform_3_01_t_01_4_01_4.html" target="_top" xlink:title=" ">
<polygon fill="white" stroke="black" points="329.5,-1516.5 329.5,-1546.5 465.5,-1546.5 465.5,-1516.5 329.5,-1516.5"/>
<text text-anchor="start" x="337.5" y="-1534.5" font-family="Helvetica,sans-Serif" font-size="10.00">formatter&lt; drake::math</text>
<text text-anchor="middle" x="397.5" y="-1523.5" font-family="Helvetica,sans-Serif" font-size="10.00">::RigidTransform&lt; T &gt; &gt;</text>
</a>
</g>
</g>
<!-- Node0&#45;&gt;Node6 -->
<g id="edge7" class="edge">
<title>Node0&#45;&gt;Node6</title>
<path fill="none" stroke="midnightblue" d="M178.35,-923.37C182.81,-1017.88 206.54,-1420.85 290,-1507.5 300.45,-1518.35 314.68,-1524.78 329.34,-1528.48"/>
<polygon fill="midnightblue" stroke="midnightblue" points="181.84,-923.04 177.89,-913.2 174.85,-923.35 181.84,-923.04"/>
</g>
<!-- Node7 -->
<g id="node9" class="node">
<title>Node7</title>
<g id="a_node9"><a xlink:href="structfmt_1_1formatter_3_01drake_1_1math_1_1_roll_pitch_yaw_3_01_t_01_4_01_4.html" target="_top" xlink:title=" ">
<polygon fill="white" stroke="black" points="331,-1467.5 331,-1497.5 464,-1497.5 464,-1467.5 331,-1467.5"/>
<text text-anchor="start" x="339" y="-1485.5" font-family="Helvetica,sans-Serif" font-size="10.00">formatter&lt; drake::math</text>
<text text-anchor="middle" x="397.5" y="-1474.5" font-family="Helvetica,sans-Serif" font-size="10.00">::RollPitchYaw&lt; T &gt; &gt;</text>
</a>
</g>
</g>
<!-- Node0&#45;&gt;Node7 -->
<g id="edge8" class="edge">
<title>Node0&#45;&gt;Node7</title>
<path fill="none" stroke="midnightblue" d="M178.71,-923.45C184.57,-1013.34 212.93,-1379.74 290,-1458.5 300.87,-1469.61 315.7,-1476.06 330.85,-1479.7"/>
<polygon fill="midnightblue" stroke="midnightblue" points="182.19,-923.03 178.07,-913.27 175.2,-923.47 182.19,-923.03"/>
</g>
<!-- Node8 -->
<g id="node10" class="node">
<title>Node8</title>
<g id="a_node10"><a xlink:href="structfmt_1_1formatter_3_01drake_1_1multibody_1_1_collision_filter_groups_01_4.html" target="_top" xlink:title=" ">
<polygon fill="white" stroke="black" points="319,-1418.5 319,-1448.5 476,-1448.5 476,-1418.5 319,-1418.5"/>
<text text-anchor="start" x="327" y="-1436.5" font-family="Helvetica,sans-Serif" font-size="10.00">formatter&lt; drake::multibody</text>
<text text-anchor="middle" x="397.5" y="-1425.5" font-family="Helvetica,sans-Serif" font-size="10.00">::CollisionFilterGroups &gt;</text>
</a>
</g>
</g>
<!-- Node0&#45;&gt;Node8 -->
<g id="edge9" class="edge">
<title>Node0&#45;&gt;Node8</title>
<path fill="none" stroke="midnightblue" d="M179.14,-923.23C186.55,-1007.65 219.66,-1337.36 290,-1408.5 298.01,-1416.6 308.12,-1422.28 318.9,-1426.23"/>
<polygon fill="midnightblue" stroke="midnightblue" points="182.62,-922.86 178.28,-913.19 175.65,-923.46 182.62,-922.86"/>
</g>
<!-- Node9 -->
<g id="node11" class="node">
<title>Node9</title>
<g id="a_node11"><a xlink:href="structfmt_1_1formatter_3_01drake_1_1multibody_1_1_differential_inverse_kinematics_status_01_4.html" target="_top" xlink:title=" ">
<polygon fill="white" stroke="black" points="313.5,-1358 313.5,-1399 481.5,-1399 481.5,-1358 313.5,-1358"/>
<text text-anchor="start" x="321.5" y="-1387" font-family="Helvetica,sans-Serif" font-size="10.00">formatter&lt; drake::multibody</text>
<text text-anchor="start" x="321.5" y="-1376" font-family="Helvetica,sans-Serif" font-size="10.00">::DifferentialInverseKinematics</text>
<text text-anchor="middle" x="397.5" y="-1365" font-family="Helvetica,sans-Serif" font-size="10.00">Status &gt;</text>
</a>
</g>
</g>
<!-- Node0&#45;&gt;Node9 -->
<g id="edge10" class="edge">
<title>Node0&#45;&gt;Node9</title>
<path fill="none" stroke="midnightblue" d="M179.9,-923.49C189.65,-1001.68 228.8,-1285.63 290,-1348.5 296.63,-1355.31 304.68,-1360.61 313.35,-1364.73"/>
<polygon fill="midnightblue" stroke="midnightblue" points="183.32,-922.63 178.63,-913.13 176.37,-923.48 183.32,-922.63"/>
</g>
<!-- Node10 -->
<g id="node12" class="node">
<title>Node10</title>
<g id="a_node12"><a xlink:href="structfmt_1_1formatter_3_01drake_1_1multibody_1_1_package_map_01_4.html" target="_top" xlink:title=" ">
<polygon fill="white" stroke="black" points="319,-1308.5 319,-1338.5 476,-1338.5 476,-1308.5 319,-1308.5"/>
<text text-anchor="start" x="327" y="-1326.5" font-family="Helvetica,sans-Serif" font-size="10.00">formatter&lt; drake::multibody</text>
<text text-anchor="middle" x="397.5" y="-1315.5" font-family="Helvetica,sans-Serif" font-size="10.00">::PackageMap &gt;</text>
</a>
</g>
</g>
<!-- Node0&#45;&gt;Node10 -->
<g id="edge11" class="edge">
<title>Node0&#45;&gt;Node10</title>
<path fill="none" stroke="midnightblue" d="M180.41,-923.23C191.5,-995.71 233.33,-1245.88 290,-1299.5 298.12,-1307.19 308.16,-1312.6 318.79,-1316.39"/>
<polygon fill="midnightblue" stroke="midnightblue" points="183.85,-922.54 178.9,-913.18 176.93,-923.59 183.85,-922.54"/>
</g>
<!-- Node11 -->
<g id="node13" class="node">
<title>Node11</title>
<g id="a_node13"><a xlink:href="structfmt_1_1formatter_3_01drake_1_1multibody_1_1_rotational_inertia_3_01_t_01_4_01_4.html" target="_top" xlink:title=" ">
<polygon fill="white" stroke="black" points="319,-1259.5 319,-1289.5 476,-1289.5 476,-1259.5 319,-1259.5"/>
<text text-anchor="start" x="327" y="-1277.5" font-family="Helvetica,sans-Serif" font-size="10.00">formatter&lt; drake::multibody</text>
<text text-anchor="middle" x="397.5" y="-1266.5" font-family="Helvetica,sans-Serif" font-size="10.00">::RotationalInertia&lt; T &gt; &gt;</text>
</a>
</g>
</g>
<!-- Node0&#45;&gt;Node11 -->
<g id="edge12" class="edge">
<title>Node0&#45;&gt;Node11</title>
<path fill="none" stroke="midnightblue" d="M177.55,-923.21C178.82,-982.43 191.08,-1160.28 290,-1250.5 298.19,-1257.97 308.2,-1263.28 318.77,-1267.03"/>
<polygon fill="midnightblue" stroke="midnightblue" points="181.04,-922.96 177.42,-913 174.04,-923.05 181.04,-922.96"/>
</g>
<!-- Node12 -->
<g id="node14" class="node">
<title>Node12</title>
<g id="a_node14"><a xlink:href="structfmt_1_1formatter_3_01drake_1_1multibody_1_1_spatial_inertia_3_01_t_01_4_01_4.html" target="_top" xlink:title=" ">
<polygon fill="white" stroke="black" points="319,-1210.5 319,-1240.5 476,-1240.5 476,-1210.5 319,-1210.5"/>
<text text-anchor="start" x="327" y="-1228.5" font-family="Helvetica,sans-Serif" font-size="10.00">formatter&lt; drake::multibody</text>
<text text-anchor="middle" x="397.5" y="-1217.5" font-family="Helvetica,sans-Serif" font-size="10.00">::SpatialInertia&lt; T &gt; &gt;</text>
</a>
</g>
</g>
<!-- Node0&#45;&gt;Node12 -->
<g id="edge13" class="edge">
<title>Node0&#45;&gt;Node12</title>
<path fill="none" stroke="midnightblue" d="M178.74,-923.23C183.23,-976.82 203.3,-1126.11 290,-1201.5 298.3,-1208.71 308.3,-1213.89 318.81,-1217.58"/>
<polygon fill="midnightblue" stroke="midnightblue" points="182.22,-922.76 177.99,-913.04 175.24,-923.28 182.22,-922.76"/>
</g>
<!-- Node13 -->
<g id="node15" class="node">
<title>Node13</title>
<g id="a_node15"><a xlink:href="structfmt_1_1formatter_3_01drake_1_1multibody_1_1_spatial_vector_3_01_spatial_quantity_00_01_t_01_4_01_4.html" target="_top" xlink:title=" ">
<polygon fill="white" stroke="black" points="293,-1161.5 293,-1191.5 502,-1191.5 502,-1161.5 293,-1161.5"/>
<text text-anchor="start" x="301" y="-1179.5" font-family="Helvetica,sans-Serif" font-size="10.00">formatter&lt; drake::multibody</text>
<text text-anchor="middle" x="397.5" y="-1168.5" font-family="Helvetica,sans-Serif" font-size="10.00">::SpatialVector&lt; SpatialQuantity, T &gt; &gt;</text>
</a>
</g>
</g>
<!-- Node0&#45;&gt;Node13 -->
<g id="edge14" class="edge">
<title>Node0&#45;&gt;Node13</title>
<path fill="none" stroke="midnightblue" d="M180.35,-923.13C188.3,-970.48 215.29,-1091.58 290,-1152.5 294.19,-1155.91 298.76,-1158.86 303.58,-1161.41"/>
<polygon fill="midnightblue" stroke="midnightblue" points="183.8,-922.56 178.79,-913.23 176.89,-923.65 183.8,-922.56"/>
</g>
<!-- Node14 -->
<g id="node16" class="node">
<title>Node14</title>
<g id="a_node16"><a xlink:href="structfmt_1_1formatter_3_01drake_1_1perception_1_1pc__flags_1_1_fields_01_4.html" target="_top" xlink:title=" ">
<polygon fill="white" stroke="black" points="318,-1112.5 318,-1142.5 477,-1142.5 477,-1112.5 318,-1112.5"/>
<text text-anchor="start" x="326" y="-1130.5" font-family="Helvetica,sans-Serif" font-size="10.00">formatter&lt; drake::perception</text>
<text text-anchor="middle" x="397.5" y="-1119.5" font-family="Helvetica,sans-Serif" font-size="10.00">::pc_flags::Fields &gt;</text>
</a>
</g>
</g>
<!-- Node0&#45;&gt;Node14 -->
<g id="edge15" class="edge">
<title>Node0&#45;&gt;Node14</title>
<path fill="none" stroke="midnightblue" d="M182.65,-923.04C194.38,-963.51 227.07,-1056.64 290,-1103.5 298.29,-1109.67 307.87,-1114.3 317.82,-1117.77"/>
<polygon fill="midnightblue" stroke="midnightblue" points="186,-922.01 179.95,-913.31 179.25,-923.88 186,-922.01"/>
</g>
<!-- Node15 -->
<g id="node17" class="node">
<title>Node15</title>
<g id="a_node17"><a xlink:href="structfmt_1_1formatter_3_01drake_1_1_polynomial_3_01double_01_4_1_1_monomial_01_4.html" target="_top" xlink:title=" ">
<polygon fill="white" stroke="black" points="316.5,-1063.5 316.5,-1093.5 478.5,-1093.5 478.5,-1063.5 316.5,-1063.5"/>
<text text-anchor="start" x="324.5" y="-1081.5" font-family="Helvetica,sans-Serif" font-size="10.00">formatter&lt; drake::Polynomial</text>
<text text-anchor="middle" x="397.5" y="-1070.5" font-family="Helvetica,sans-Serif" font-size="10.00">&lt; double &gt;::Monomial &gt;</text>
</a>
</g>
</g>
<!-- Node0&#45;&gt;Node15 -->
<g id="edge16" class="edge">
<title>Node0&#45;&gt;Node15</title>
<path fill="none" stroke="midnightblue" d="M186.04,-922.41C201.72,-954.87 238.3,-1020.92 290,-1054.5 298.03,-1059.71 307.03,-1063.8 316.31,-1067.01"/>
<polygon fill="midnightblue" stroke="midnightblue" points="189.1,-920.7 181.69,-913.14 182.77,-923.68 189.1,-920.7"/>
</g>
<!-- Node16 -->
<g id="node18" class="node">
<title>Node16</title>
<g id="a_node18"><a xlink:href="structfmt_1_1formatter_3_01drake_1_1_polynomial_3_01_t_01_4_01_4.html" target="_top" xlink:title=" ">
<polygon fill="white" stroke="black" points="316.5,-1014.5 316.5,-1044.5 478.5,-1044.5 478.5,-1014.5 316.5,-1014.5"/>
<text text-anchor="start" x="324.5" y="-1032.5" font-family="Helvetica,sans-Serif" font-size="10.00">formatter&lt; drake::Polynomial</text>
<text text-anchor="middle" x="397.5" y="-1021.5" font-family="Helvetica,sans-Serif" font-size="10.00">&lt; T &gt; &gt;</text>
</a>
</g>
</g>
<!-- Node0&#45;&gt;Node16 -->
<g id="edge17" class="edge">
<title>Node0&#45;&gt;Node16</title>
<path fill="none" stroke="midnightblue" d="M191.67,-921.06C211.27,-944.12 248.92,-984.16 290,-1005.5 298.24,-1009.78 307.23,-1013.3 316.38,-1016.2"/>
<polygon fill="midnightblue" stroke="midnightblue" points="194.16,-918.58 185.07,-913.13 188.78,-923.06 194.16,-918.58"/>
</g>
<!-- Node17 -->
<g id="node19" class="node">
<title>Node17</title>
<g id="a_node19"><a xlink:href="structfmt_1_1formatter_3_01drake_1_1solvers_1_1_binding_3_01_c_01_4_01_4.html" target="_top" xlink:title=" ">
<polygon fill="white" stroke="black" points="326,-965.5 326,-995.5 469,-995.5 469,-965.5 326,-965.5"/>
<text text-anchor="start" x="334" y="-983.5" font-family="Helvetica,sans-Serif" font-size="10.00">formatter&lt; drake::solvers</text>
<text text-anchor="middle" x="397.5" y="-972.5" font-family="Helvetica,sans-Serif" font-size="10.00">::Binding&lt; C &gt; &gt;</text>
</a>
</g>
</g>
<!-- Node0&#45;&gt;Node17 -->
<g id="edge18" class="edge">
<title>Node0&#45;&gt;Node17</title>
<path fill="none" stroke="midnightblue" d="M203.81,-917.91C226.18,-929.67 259.45,-946 290,-956.5 301.47,-960.44 313.86,-963.91 326,-966.9"/>
<polygon fill="midnightblue" stroke="midnightblue" points="205.4,-914.79 194.92,-913.18 202.11,-920.97 205.4,-914.79"/>
</g>
<!-- Node18 -->
<g id="node20" class="node">
<title>Node18</title>
<g id="a_node20"><a xlink:href="structfmt_1_1formatter_3_01drake_1_1solvers_1_1_common_solver_option_01_4.html" target="_top" xlink:title=" ">
<polygon fill="white" stroke="black" points="326,-916.5 326,-946.5 469,-946.5 469,-916.5 326,-916.5"/>
<text text-anchor="start" x="334" y="-934.5" font-family="Helvetica,sans-Serif" font-size="10.00">formatter&lt; drake::solvers</text>
<text text-anchor="middle" x="397.5" y="-923.5" font-family="Helvetica,sans-Serif" font-size="10.00">::CommonSolverOption &gt;</text>
</a>
</g>
</g>
<!-- Node0&#45;&gt;Node18 -->
<g id="edge19" class="edge">
<title>Node0&#45;&gt;Node18</title>
<path fill="none" stroke="midnightblue" d="M241.01,-911.62C267.53,-915.01 298.44,-918.96 325.69,-922.45"/>
<polygon fill="midnightblue" stroke="midnightblue" points="241.44,-908.15 231.07,-910.35 240.55,-915.09 241.44,-908.15"/>
</g>
<!-- Node19 -->
<g id="node21" class="node">
<title>Node19</title>
<g id="a_node21"><a xlink:href="structfmt_1_1formatter_3_01drake_1_1solvers_1_1_mixed_integer_rotation_constraint_generator_1_1_approach_01_4.html" target="_top" xlink:title=" ">
<polygon fill="white" stroke="black" points="308.5,-856 308.5,-897 486.5,-897 486.5,-856 308.5,-856"/>
<text text-anchor="start" x="316.5" y="-885" font-family="Helvetica,sans-Serif" font-size="10.00">formatter&lt; drake::solvers</text>
<text text-anchor="start" x="316.5" y="-874" font-family="Helvetica,sans-Serif" font-size="10.00">::MixedIntegerRotationConstraint</text>
<text text-anchor="middle" x="397.5" y="-863" font-family="Helvetica,sans-Serif" font-size="10.00">Generator::Approach &gt;</text>
</a>
</g>
</g>
<!-- Node0&#45;&gt;Node19 -->
<g id="edge20" class="edge">
<title>Node0&#45;&gt;Node19</title>
<path fill="none" stroke="midnightblue" d="M241.16,-895.65C262.19,-893.06 285.98,-890.13 308.5,-887.35"/>
<polygon fill="midnightblue" stroke="midnightblue" points="240.57,-892.2 231.07,-896.9 241.43,-899.15 240.57,-892.2"/>
</g>
<!-- Node20 -->
<g id="node22" class="node">
<title>Node20</title>
<g id="a_node22"><a xlink:href="structfmt_1_1formatter_3_01drake_1_1solvers_1_1_program_attribute_01_4.html" target="_top" xlink:title=" ">
<polygon fill="white" stroke="black" points="326,-806.5 326,-836.5 469,-836.5 469,-806.5 326,-806.5"/>
<text text-anchor="start" x="334" y="-824.5" font-family="Helvetica,sans-Serif" font-size="10.00">formatter&lt; drake::solvers</text>
<text text-anchor="middle" x="397.5" y="-813.5" font-family="Helvetica,sans-Serif" font-size="10.00">::ProgramAttribute &gt;</text>
</a>
</g>
</g>
<!-- Node0&#45;&gt;Node20 -->
<g id="edge21" class="edge">
<title>Node0&#45;&gt;Node20</title>
<path fill="none" stroke="midnightblue" d="M240.84,-890.87C245.42,-889.02 249.86,-886.91 254,-884.5 274.1,-872.78 269.83,-858.09 290,-846.5 300.95,-840.21 313.4,-835.5 325.83,-831.97"/>
<polygon fill="midnightblue" stroke="midnightblue" points="239.53,-887.62 231.29,-894.29 241.89,-894.21 239.53,-887.62"/>
</g>
<!-- Node21 -->
<g id="node23" class="node">
<title>Node21</title>
<g id="a_node23"><a xlink:href="structfmt_1_1formatter_3_01drake_1_1solvers_1_1_program_attributes_01_4.html" target="_top" xlink:title=" ">
<polygon fill="white" stroke="black" points="326,-757.5 326,-787.5 469,-787.5 469,-757.5 326,-757.5"/>
<text text-anchor="start" x="334" y="-775.5" font-family="Helvetica,sans-Serif" font-size="10.00">formatter&lt; drake::solvers</text>
<text text-anchor="middle" x="397.5" y="-764.5" font-family="Helvetica,sans-Serif" font-size="10.00">::ProgramAttributes &gt;</text>
</a>
</g>
</g>
<!-- Node0&#45;&gt;Node21 -->
<g id="edge22" class="edge">
<title>Node0&#45;&gt;Node21</title>
<path fill="none" stroke="midnightblue" d="M240.73,-893.09C245.51,-890.76 250.02,-887.93 254,-884.5 285.71,-857.19 258.12,-824.6 290,-797.5 300.2,-788.83 312.86,-783.04 325.85,-779.2"/>
<polygon fill="midnightblue" stroke="midnightblue" points="239.16,-889.94 231.24,-896.98 241.82,-896.42 239.16,-889.94"/>
</g>
<!-- Node22 -->
<g id="node24" class="node">
<title>Node22</title>
<g id="a_node24"><a xlink:href="structfmt_1_1formatter_3_01drake_1_1solvers_1_1_program_type_01_4.html" target="_top" xlink:title=" ">
<polygon fill="white" stroke="black" points="326,-708.5 326,-738.5 469,-738.5 469,-708.5 326,-708.5"/>
<text text-anchor="start" x="334" y="-726.5" font-family="Helvetica,sans-Serif" font-size="10.00">formatter&lt; drake::solvers</text>
<text text-anchor="middle" x="397.5" y="-715.5" font-family="Helvetica,sans-Serif" font-size="10.00">::ProgramType &gt;</text>
</a>
</g>
</g>
<!-- Node0&#45;&gt;Node22 -->
<g id="edge23" class="edge">
<title>Node0&#45;&gt;Node22</title>
<path fill="none" stroke="midnightblue" d="M240.42,-894.07C245.41,-891.54 250.04,-888.4 254,-884.5 298.55,-840.63 245.17,-792.08 290,-748.5 299.8,-738.97 312.52,-732.82 325.73,-728.91"/>
<polygon fill="midnightblue" stroke="midnightblue" points="238.99,-890.87 231.13,-897.98 241.7,-897.33 238.99,-890.87"/>
</g>
<!-- Node23 -->
<g id="node25" class="node">
<title>Node23</title>
<g id="a_node25"><a xlink:href="structfmt_1_1formatter_3_01drake_1_1solvers_1_1_solver_id_01_4.html" target="_top" xlink:title=" ">
<polygon fill="white" stroke="black" points="326,-659.5 326,-689.5 469,-689.5 469,-659.5 326,-659.5"/>
<text text-anchor="start" x="334" y="-677.5" font-family="Helvetica,sans-Serif" font-size="10.00">formatter&lt; drake::solvers</text>
<text text-anchor="middle" x="397.5" y="-666.5" font-family="Helvetica,sans-Serif" font-size="10.00">::SolverId &gt;</text>
</a>
</g>
</g>
<!-- Node0&#45;&gt;Node23 -->
<g id="edge24" class="edge">
<title>Node0&#45;&gt;Node23</title>
<path fill="none" stroke="midnightblue" d="M240.47,-894.46C245.49,-891.86 250.11,-888.59 254,-884.5 311.69,-823.77 231.92,-759.86 290,-699.5 299.61,-689.51 312.4,-683.18 325.78,-679.25"/>
<polygon fill="midnightblue" stroke="midnightblue" points="238.92,-891.32 231.09,-898.46 241.66,-897.76 238.92,-891.32"/>
</g>
<!-- Node24 -->
<g id="node26" class="node">
<title>Node24</title>
<g id="a_node26"><a xlink:href="structfmt_1_1formatter_3_01drake_1_1solvers_1_1_solver_options_01_4.html" target="_top" xlink:title=" ">
<polygon fill="white" stroke="black" points="326,-610.5 326,-640.5 469,-640.5 469,-610.5 326,-610.5"/>
<text text-anchor="start" x="334" y="-628.5" font-family="Helvetica,sans-Serif" font-size="10.00">formatter&lt; drake::solvers</text>
<text text-anchor="middle" x="397.5" y="-617.5" font-family="Helvetica,sans-Serif" font-size="10.00">::SolverOptions &gt;</text>
</a>
</g>
</g>
<!-- Node0&#45;&gt;Node24 -->
<g id="edge25" class="edge">
<title>Node0&#45;&gt;Node24</title>
<path fill="none" stroke="midnightblue" d="M240.65,-894.62C245.63,-891.99 250.19,-888.67 254,-884.5 324.95,-806.8 218.55,-727.75 290,-650.5 299.48,-640.25 312.29,-633.83 325.75,-629.88"/>
<polygon fill="midnightblue" stroke="midnightblue" points="239.09,-891.48 231.3,-898.66 241.87,-897.9 239.09,-891.48"/>
</g>
<!-- Node25 -->
<g id="node27" class="node">
<title>Node25</title>
<g id="a_node27"><a xlink:href="structfmt_1_1formatter_3_01drake_1_1symbolic_1_1_chebyshev_basis_element_01_4.html" target="_top" xlink:title=" ">
<polygon fill="white" stroke="black" points="320,-561.5 320,-591.5 475,-591.5 475,-561.5 320,-561.5"/>
<text text-anchor="start" x="328" y="-579.5" font-family="Helvetica,sans-Serif" font-size="10.00">formatter&lt; drake::symbolic</text>
<text text-anchor="middle" x="397.5" y="-568.5" font-family="Helvetica,sans-Serif" font-size="10.00">::ChebyshevBasisElement &gt;</text>
</a>
</g>
</g>
<!-- Node0&#45;&gt;Node25 -->
<g id="edge26" class="edge">
<title>Node0&#45;&gt;Node25</title>
<path fill="none" stroke="midnightblue" d="M240.54,-894.85C245.58,-892.17 250.19,-888.78 254,-884.5 338.26,-789.76 205.13,-695.7 290,-601.5 298.01,-592.61 308.53,-586.58 319.83,-582.55"/>
<polygon fill="midnightblue" stroke="midnightblue" points="238.86,-891.76 231.06,-898.93 241.63,-898.19 238.86,-891.76"/>
</g>
<!-- Node26 -->
<g id="node28" class="node">
<title>Node26</title>
<g id="a_node28"><a xlink:href="structfmt_1_1formatter_3_01drake_1_1symbolic_1_1_chebyshev_polynomial_01_4.html" target="_top" xlink:title=" ">
<polygon fill="white" stroke="black" points="321.5,-512.5 321.5,-542.5 473.5,-542.5 473.5,-512.5 321.5,-512.5"/>
<text text-anchor="start" x="329.5" y="-530.5" font-family="Helvetica,sans-Serif" font-size="10.00">formatter&lt; drake::symbolic</text>
<text text-anchor="middle" x="397.5" y="-519.5" font-family="Helvetica,sans-Serif" font-size="10.00">::ChebyshevPolynomial &gt;</text>
</a>
</g>
</g>
<!-- Node0&#45;&gt;Node26 -->
<g id="edge27" class="edge">
<title>Node0&#45;&gt;Node26</title>
<path fill="none" stroke="midnightblue" d="M240.62,-894.92C245.65,-892.23 250.23,-888.82 254,-884.5 351.61,-772.69 191.67,-663.68 290,-552.5 298.3,-543.11 309.41,-536.9 321.31,-532.86"/>
<polygon fill="midnightblue" stroke="midnightblue" points="238.95,-891.83 231.16,-899.02 241.73,-898.25 238.95,-891.83"/>
</g>
<!-- Node27 -->
<g id="node29" class="node">
<title>Node27</title>
<g id="a_node29"><a xlink:href="structfmt_1_1formatter_3_01drake_1_1symbolic_1_1_generic_polynomial_3_01_basis_element_01_4_01_4.html" target="_top" xlink:title=" ">
<polygon fill="white" stroke="black" points="290,-463.5 290,-493.5 505,-493.5 505,-463.5 290,-463.5"/>
<text text-anchor="start" x="298" y="-481.5" font-family="Helvetica,sans-Serif" font-size="10.00">formatter&lt; drake::symbolic</text>
<text text-anchor="middle" x="397.5" y="-470.5" font-family="Helvetica,sans-Serif" font-size="10.00">::GenericPolynomial&lt; BasisElement &gt; &gt;</text>
</a>
</g>
</g>
<!-- Node0&#45;&gt;Node27 -->
<g id="edge28" class="edge">
<title>Node0&#45;&gt;Node27</title>
<path fill="none" stroke="midnightblue" d="M240.68,-894.97C245.7,-892.27 250.26,-888.84 254,-884.5 309.48,-820.05 234.1,-567.59 290,-503.5 293.25,-499.78 296.93,-496.56 300.93,-493.77"/>
<polygon fill="midnightblue" stroke="midnightblue" points="239.01,-891.88 231.24,-899.09 241.81,-898.3 239.01,-891.88"/>
</g>
<!-- Node28 -->
<g id="node30" class="node">
<title>Node28</title>
<g id="a_node30"><a xlink:href="structfmt_1_1formatter_3_01drake_1_1symbolic_1_1_monomial_basis_element_01_4.html" target="_top" xlink:title=" ">
<polygon fill="white" stroke="black" points="321.5,-414.5 321.5,-444.5 473.5,-444.5 473.5,-414.5 321.5,-414.5"/>
<text text-anchor="start" x="329.5" y="-432.5" font-family="Helvetica,sans-Serif" font-size="10.00">formatter&lt; drake::symbolic</text>
<text text-anchor="middle" x="397.5" y="-421.5" font-family="Helvetica,sans-Serif" font-size="10.00">::MonomialBasisElement &gt;</text>
</a>
</g>
</g>
<!-- Node0&#45;&gt;Node28 -->
<g id="edge29" class="edge">
<title>Node0&#45;&gt;Node28</title>
<path fill="none" stroke="midnightblue" d="M240.73,-895.02C245.74,-892.31 250.28,-888.86 254,-884.5 316.17,-811.5 227.36,-527.1 290,-454.5 298.25,-444.94 309.4,-438.66 321.39,-434.6"/>
<polygon fill="midnightblue" stroke="midnightblue" points="239.06,-891.92 231.3,-899.14 241.87,-898.34 239.06,-891.92"/>
</g>
<!-- Node29 -->
<g id="node31" class="node">
<title>Node29</title>
<g id="a_node31"><a xlink:href="structfmt_1_1formatter_3_01drake_1_1symbolic_1_1_polynomial_01_4.html" target="_top" xlink:title=" ">
<polygon fill="white" stroke="black" points="321.5,-365.5 321.5,-395.5 473.5,-395.5 473.5,-365.5 321.5,-365.5"/>
<text text-anchor="start" x="329.5" y="-383.5" font-family="Helvetica,sans-Serif" font-size="10.00">formatter&lt; drake::symbolic</text>
<text text-anchor="middle" x="397.5" y="-372.5" font-family="Helvetica,sans-Serif" font-size="10.00">::Polynomial &gt;</text>
</a>
</g>
</g>
<!-- Node0&#45;&gt;Node29 -->
<g id="edge30" class="edge">
<title>Node0&#45;&gt;Node29</title>
<path fill="none" stroke="midnightblue" d="M240.77,-895.05C245.77,-892.33 250.3,-888.88 254,-884.5 322.86,-802.94 220.61,-486.62 290,-405.5 298.21,-395.9 309.34,-389.6 321.32,-385.54"/>
<polygon fill="midnightblue" stroke="midnightblue" points="239.1,-891.96 231.35,-899.18 241.91,-898.37 239.1,-891.96"/>
</g>
<!-- Node30 -->
<g id="node32" class="node">
<title>Node30</title>
<g id="a_node32"><a xlink:href="structfmt_1_1formatter_3_01drake_1_1symbolic_1_1_rational_function_01_4.html" target="_top" xlink:title=" ">
<polygon fill="white" stroke="black" points="321.5,-316.5 321.5,-346.5 473.5,-346.5 473.5,-316.5 321.5,-316.5"/>
<text text-anchor="start" x="329.5" y="-334.5" font-family="Helvetica,sans-Serif" font-size="10.00">formatter&lt; drake::symbolic</text>
<text text-anchor="middle" x="397.5" y="-323.5" font-family="Helvetica,sans-Serif" font-size="10.00">::RationalFunction &gt;</text>
</a>
</g>
</g>
<!-- Node0&#45;&gt;Node30 -->
<g id="edge31" class="edge">
<title>Node0&#45;&gt;Node30</title>
<path fill="none" stroke="midnightblue" d="M240.2,-895.4C245.43,-892.63 250.17,-889.07 254,-884.5 329.56,-794.38 213.86,-446.13 290,-356.5 298.18,-346.87 309.29,-340.56 321.27,-336.49"/>
<polygon fill="midnightblue" stroke="midnightblue" points="238.81,-892.19 231,-899.35 241.57,-898.62 238.81,-892.19"/>
</g>
<!-- Node31 -->
<g id="node33" class="node">
<title>Node31</title>
<g id="a_node33"><a xlink:href="structfmt_1_1formatter_3_01drake_1_1symbolic_1_1_variable_01_4.html" target="_top" xlink:title=" ">
<polygon fill="white" stroke="black" points="321.5,-267.5 321.5,-297.5 473.5,-297.5 473.5,-267.5 321.5,-267.5"/>
<text text-anchor="start" x="329.5" y="-285.5" font-family="Helvetica,sans-Serif" font-size="10.00">formatter&lt; drake::symbolic</text>
<text text-anchor="middle" x="397.5" y="-274.5" font-family="Helvetica,sans-Serif" font-size="10.00">::Variable &gt;</text>
</a>
</g>
</g>
<!-- Node0&#45;&gt;Node31 -->
<g id="edge32" class="edge">
<title>Node0&#45;&gt;Node31</title>
<path fill="none" stroke="midnightblue" d="M240.22,-895.42C245.45,-892.65 250.18,-889.08 254,-884.5 336.25,-785.81 207.11,-405.66 290,-307.5 298.21,-297.78 309.42,-291.43 321.49,-287.36"/>
<polygon fill="midnightblue" stroke="midnightblue" points="238.84,-892.21 231.04,-899.37 241.6,-898.64 238.84,-892.21"/>
</g>
<!-- Node32 -->
<g id="node34" class="node">
<title>Node32</title>
<g id="a_node34"><a xlink:href="structfmt_1_1formatter_3_01drake_1_1symbolic_1_1_variable_1_1_type_01_4.html" target="_top" xlink:title=" ">
<polygon fill="white" stroke="black" points="321.5,-218.5 321.5,-248.5 473.5,-248.5 473.5,-218.5 321.5,-218.5"/>
<text text-anchor="start" x="329.5" y="-236.5" font-family="Helvetica,sans-Serif" font-size="10.00">formatter&lt; drake::symbolic</text>
<text text-anchor="middle" x="397.5" y="-225.5" font-family="Helvetica,sans-Serif" font-size="10.00">::Variable::Type &gt;</text>
</a>
</g>
</g>
<!-- Node0&#45;&gt;Node32 -->
<g id="edge33" class="edge">
<title>Node0&#45;&gt;Node32</title>
<path fill="none" stroke="midnightblue" d="M240.63,-895.24C245.7,-892.49 250.29,-888.98 254,-884.5 342.95,-777.25 200.36,-365.18 290,-258.5 298.19,-248.76 309.38,-242.4 321.45,-238.33"/>
<polygon fill="midnightblue" stroke="midnightblue" points="238.84,-892.2 231.06,-899.4 241.63,-898.62 238.84,-892.2"/>
</g>
<!-- Node33 -->
<g id="node35" class="node">
<title>Node33</title>
<g id="a_node35"><a xlink:href="structfmt_1_1formatter_3_01drake_1_1systems_1_1_vector_base_3_01_t_01_4_01_4.html" target="_top" xlink:title=" ">
<polygon fill="white" stroke="black" points="323,-169.5 323,-199.5 472,-199.5 472,-169.5 323,-169.5"/>
<text text-anchor="start" x="331" y="-187.5" font-family="Helvetica,sans-Serif" font-size="10.00">formatter&lt; drake::systems</text>
<text text-anchor="middle" x="397.5" y="-176.5" font-family="Helvetica,sans-Serif" font-size="10.00">::VectorBase&lt; T &gt; &gt;</text>
</a>
</g>
</g>
<!-- Node0&#45;&gt;Node33 -->
<g id="edge34" class="edge">
<title>Node0&#45;&gt;Node33</title>
<path fill="none" stroke="midnightblue" d="M240.65,-895.25C245.71,-892.5 250.3,-888.98 254,-884.5 349.65,-768.68 193.6,-324.7 290,-209.5 298.47,-199.38 310.19,-192.91 322.77,-188.85"/>
<polygon fill="midnightblue" stroke="midnightblue" points="238.86,-892.22 231.09,-899.42 241.65,-898.63 238.86,-892.22"/>
</g>
<!-- Node34 -->
<g id="node36" class="node">
<title>Node34</title>
<g id="a_node36"><a xlink:href="structfmt_1_1formatter_3_01drake_1_1_type_safe_index_3_01_tag_01_4_01_4.html" target="_top" xlink:title=" ">
<polygon fill="white" stroke="black" points="321.5,-120.5 321.5,-150.5 473.5,-150.5 473.5,-120.5 321.5,-120.5"/>
<text text-anchor="start" x="329.5" y="-138.5" font-family="Helvetica,sans-Serif" font-size="10.00">formatter&lt; drake::TypeSafe</text>
<text text-anchor="middle" x="397.5" y="-127.5" font-family="Helvetica,sans-Serif" font-size="10.00">Index&lt; Tag &gt; &gt;</text>
</a>
</g>
</g>
<!-- Node0&#45;&gt;Node34 -->
<g id="edge35" class="edge">
<title>Node0&#45;&gt;Node34</title>
<path fill="none" stroke="midnightblue" d="M240.66,-895.27C245.73,-892.51 250.3,-888.99 254,-884.5 356.35,-760.11 186.85,-284.23 290,-160.5 298.15,-150.73 309.33,-144.36 321.39,-140.28"/>
<polygon fill="midnightblue" stroke="midnightblue" points="238.88,-892.23 231.11,-899.44 241.67,-898.65 238.88,-892.23"/>
</g>
<!-- Node35 -->
<g id="node37" class="node">
<title>Node35</title>
<g id="a_node37"><a xlink:href="structfmt_1_1formatter_3_01drake_1_1yaml_1_1_load_yaml_options_01_4.html" target="_top" xlink:title=" ">
<polygon fill="white" stroke="black" points="331.5,-71.5 331.5,-101.5 463.5,-101.5 463.5,-71.5 331.5,-71.5"/>
<text text-anchor="start" x="339.5" y="-89.5" font-family="Helvetica,sans-Serif" font-size="10.00">formatter&lt; drake::yaml</text>
<text text-anchor="middle" x="397.5" y="-78.5" font-family="Helvetica,sans-Serif" font-size="10.00">::LoadYamlOptions &gt;</text>
</a>
</g>
</g>
<!-- Node0&#45;&gt;Node35 -->
<g id="edge36" class="edge">
<title>Node0&#45;&gt;Node35</title>
<path fill="none" stroke="midnightblue" d="M240.68,-895.28C245.74,-892.52 250.31,-889 254,-884.5 308.53,-818.02 235.05,-177.63 290,-111.5 300.32,-99.08 315.53,-92.16 331.24,-88.44"/>
<polygon fill="midnightblue" stroke="midnightblue" points="238.89,-892.24 231.13,-899.45 241.69,-898.66 238.89,-892.24"/>
</g>
<!-- Node36 -->
<g id="node38" class="node">
<title>Node36</title>
<g id="a_node38"><a xlink:href="structfmt_1_1formatter_3_01_t_00_01std_1_1enable__if__t_3_01std_1_1is__base__of__v_3_01drake_1_12b85009adc7d5953d070359a51d8a68c.html" target="_top" xlink:title=" ">
<polygon fill="white" stroke="black" points="314.5,-0.5 314.5,-52.5 480.5,-52.5 480.5,-0.5 314.5,-0.5"/>
<text text-anchor="start" x="322.5" y="-40.5" font-family="Helvetica,sans-Serif" font-size="10.00">formatter&lt; T, std::</text>
<text text-anchor="start" x="322.5" y="-29.5" font-family="Helvetica,sans-Serif" font-size="10.00">enable_if_t&lt; std::is</text>
<text text-anchor="start" x="322.5" y="-18.5" font-family="Helvetica,sans-Serif" font-size="10.00">_base_of_v&lt; drake::solvers</text>
<text text-anchor="middle" x="397.5" y="-7.5" font-family="Helvetica,sans-Serif" font-size="10.00">::EvaluatorBase, T &gt;, char &gt; &gt;</text>
</a>
</g>
</g>
<!-- Node0&#45;&gt;Node36 -->
<g id="edge37" class="edge">
<title>Node0&#45;&gt;Node36</title>
<path fill="none" stroke="midnightblue" d="M240.69,-895.29C245.75,-892.53 250.32,-889 254,-884.5 311.88,-813.73 235.09,-135.59 290,-62.5 296.39,-54 304.88,-47.48 314.3,-42.49"/>
<polygon fill="midnightblue" stroke="midnightblue" points="238.9,-892.25 231.14,-899.46 241.71,-898.67 238.9,-892.25"/>
</g>
</g>
</svg>
