<?xml version="1.0" encoding="UTF-8" standalone="no"?>
<!DOCTYPE svg PUBLIC "-//W3C//DTD SVG 1.1//EN"
 "http://www.w3.org/Graphics/SVG/1.1/DTD/svg11.dtd">
<!-- Generated by graphviz version 2.43.0 (0)
 -->
<!-- Title: Graphical Class Hierarchy Pages: 1 -->
<svg width="606pt" height="890pt"
 viewBox="0.00 0.00 606.09 889.87" xmlns="http://www.w3.org/2000/svg" xmlns:xlink="http://www.w3.org/1999/xlink">
<g id="graph0" class="graph" transform="scale(1 1) rotate(0) translate(4 885.87)">
<title>Graphical Class Hierarchy</title>
<!-- Node0 -->
<g id="Node000000" class="node">
<title>Node0</title>
<g id="a_Node000000"><a xlink:href="classdrake_1_1symbolic_1_1_expression_cell.html" target="_top" xlink:title="Represents an abstract class which is the base of concrete symbolic&#45;expression classes.">
<ellipse fill="white" stroke="#666666" cx="62.93" cy="-575.44" rx="62.87" ry="13.37"/>
<text text-anchor="middle" x="62.93" y="-572.94" font-family="Helvetica,sans-Serif" font-size="10.00">ExpressionCell</text>
</a>
</g>
</g>
<!-- Node1 -->
<g id="Node000001" class="node">
<title>Node1</title>
<g id="a_Node000001"><a xlink:href="classdrake_1_1symbolic_1_1_binary_expression_cell.html" target="_top" xlink:title="Represents the base class for binary expressions.">
<ellipse fill="white" stroke="#666666" cx="288.44" cy="-755.44" rx="84.71" ry="13.37"/>
<text text-anchor="middle" x="288.44" y="-752.94" font-family="Helvetica,sans-Serif" font-size="10.00">BinaryExpressionCell</text>
</a>
</g>
</g>
<!-- Node0&#45;&gt;Node1 -->
<g id="edge275_Node000000_Node000001" class="edge">
<title>Node0&#45;&gt;Node1</title>
<g id="a_edge275_Node000000_Node000001"><a xlink:title=" ">
<path fill="none" stroke="#63b8ff" d="M74.92,-598.2C90.38,-627.99 121.29,-679.99 161.87,-710.44 183.82,-726.9 212.35,-737.77 236.67,-744.69"/>
<polygon fill="#63b8ff" stroke="#63b8ff" points="77.91,-596.35 70.27,-589.01 71.66,-599.51 77.91,-596.35"/>
</a>
</g>
</g>
<!-- Node7 -->
<g id="Node000007" class="node">
<title>Node7</title>
<g id="a_Node000007"><a xlink:href="classdrake_1_1symbolic_1_1_expression_add.html" target="_top" xlink:title="Symbolic expression representing an addition which is a sum of products.">
<ellipse fill="white" stroke="#666666" cx="288.44" cy="-688.44" rx="62.87" ry="13.37"/>
<text text-anchor="middle" x="288.44" y="-685.94" font-family="Helvetica,sans-Serif" font-size="10.00">ExpressionAdd</text>
</a>
</g>
</g>
<!-- Node0&#45;&gt;Node7 -->
<g id="edge281_Node000000_Node000007" class="edge">
<title>Node0&#45;&gt;Node7</title>
<g id="a_edge281_Node000000_Node000007"><a xlink:title=" ">
<path fill="none" stroke="#63b8ff" d="M80.74,-596.7C98.56,-617.66 128.66,-648.89 161.87,-665.44 182.2,-675.56 206.38,-681.27 228.07,-684.47"/>
<polygon fill="#63b8ff" stroke="#63b8ff" points="83.4,-594.42 74.32,-588.95 78.01,-598.88 83.4,-594.42"/>
</a>
</g>
</g>
<!-- Node8 -->
<g id="Node000008" class="node">
<title>Node8</title>
<g id="a_Node000008"><a xlink:href="classdrake_1_1symbolic_1_1_expression_if_then_else.html" target="_top" xlink:title="Symbolic expression representing if&#45;then&#45;else expression.">
<ellipse fill="white" stroke="#666666" cx="288.44" cy="-643.44" rx="85.62" ry="13.37"/>
<text text-anchor="middle" x="288.44" y="-640.94" font-family="Helvetica,sans-Serif" font-size="10.00">ExpressionIfThenElse</text>
</a>
</g>
</g>
<!-- Node0&#45;&gt;Node8 -->
<g id="edge282_Node000000_Node000008" class="edge">
<title>Node0&#45;&gt;Node8</title>
<g id="a_edge282_Node000000_Node000008"><a xlink:title=" ">
<path fill="none" stroke="#63b8ff" d="M96.01,-592.64C114.75,-602.07 139.12,-613.25 161.87,-620.44 181.31,-626.58 202.99,-631.27 222.8,-634.77"/>
<polygon fill="#63b8ff" stroke="#63b8ff" points="97.52,-589.49 87.02,-588.05 94.33,-595.72 97.52,-589.49"/>
</a>
</g>
</g>
<!-- Node9 -->
<g id="Node000009" class="node">
<title>Node9</title>
<g id="a_Node000009"><a xlink:href="classdrake_1_1symbolic_1_1_expression_mul.html" target="_top" xlink:title="Symbolic expression representing a multiplication of powers.">
<ellipse fill="white" stroke="#666666" cx="288.44" cy="-598.44" rx="62.45" ry="13.37"/>
<text text-anchor="middle" x="288.44" y="-595.94" font-family="Helvetica,sans-Serif" font-size="10.00">ExpressionMul</text>
</a>
</g>
</g>
<!-- Node0&#45;&gt;Node9 -->
<g id="edge283_Node000000_Node000009" class="edge">
<title>Node0&#45;&gt;Node9</title>
<g id="a_edge283_Node000000_Node000009"><a xlink:title=" ">
<path fill="none" stroke="#63b8ff" d="M130.33,-582.27C162.74,-585.6 201.28,-589.57 232.08,-592.74"/>
<polygon fill="#63b8ff" stroke="#63b8ff" points="130.35,-578.75 120.04,-581.21 129.63,-585.71 130.35,-578.75"/>
</a>
</g>
</g>
<!-- Node10 -->
<g id="Node000010" class="node">
<title>Node10</title>
<g id="a_Node000010"><a xlink:href="classdrake_1_1symbolic_1_1_expression_na_n.html" target="_top" xlink:title="Symbolic expression representing NaN (not&#45;a&#45;number).">
<ellipse fill="white" stroke="#666666" cx="288.44" cy="-553.44" rx="64.19" ry="13.37"/>
<text text-anchor="middle" x="288.44" y="-550.94" font-family="Helvetica,sans-Serif" font-size="10.00">ExpressionNaN</text>
</a>
</g>
</g>
<!-- Node0&#45;&gt;Node10 -->
<g id="edge284_Node000000_Node000010" class="edge">
<title>Node0&#45;&gt;Node10</title>
<g id="a_edge284_Node000000_Node000010"><a xlink:title=" ">
<path fill="none" stroke="#63b8ff" d="M130.38,-568.89C162.02,-565.78 199.48,-562.09 229.89,-559.1"/>
<polygon fill="#63b8ff" stroke="#63b8ff" points="129.94,-565.42 120.33,-569.88 130.63,-572.39 129.94,-565.42"/>
</a>
</g>
</g>
<!-- Node11 -->
<g id="Node000011" class="node">
<title>Node11</title>
<g id="a_Node000011"><a xlink:href="classdrake_1_1symbolic_1_1_expression_uninterpreted_function.html" target="_top" xlink:title="Symbolic expression representing an uninterpreted function.">
<ellipse fill="white" stroke="#666666" cx="288.44" cy="-508.44" rx="126.64" ry="13.37"/>
<text text-anchor="middle" x="288.44" y="-505.94" font-family="Helvetica,sans-Serif" font-size="10.00">ExpressionUninterpretedFunction</text>
</a>
</g>
</g>
<!-- Node0&#45;&gt;Node11 -->
<g id="edge285_Node000000_Node000011" class="edge">
<title>Node0&#45;&gt;Node11</title>
<g id="a_edge285_Node000000_Node000011"><a xlink:title=" ">
<path fill="none" stroke="#63b8ff" d="M96.43,-558.45C115.13,-549.29 139.33,-538.45 161.87,-531.44 177.84,-526.46 195.32,-522.42 212.02,-519.2"/>
<polygon fill="#63b8ff" stroke="#63b8ff" points="94.84,-555.33 87.45,-562.93 97.96,-561.6 94.84,-555.33"/>
</a>
</g>
</g>
<!-- Node12 -->
<g id="Node000012" class="node">
<title>Node12</title>
<g id="a_Node000012"><a xlink:href="classdrake_1_1symbolic_1_1_expression_var.html" target="_top" xlink:title="Symbolic expression representing a variable.">
<ellipse fill="white" stroke="#666666" cx="288.44" cy="-463.44" rx="60.62" ry="13.37"/>
<text text-anchor="middle" x="288.44" y="-460.94" font-family="Helvetica,sans-Serif" font-size="10.00">ExpressionVar</text>
</a>
</g>
</g>
<!-- Node0&#45;&gt;Node12 -->
<g id="edge286_Node000000_Node000012" class="edge">
<title>Node0&#45;&gt;Node12</title>
<g id="a_edge286_Node000000_Node000012"><a xlink:title=" ">
<path fill="none" stroke="#63b8ff" d="M80.79,-554.41C98.65,-533.68 128.78,-502.8 161.87,-486.44 182.82,-476.07 207.83,-470.34 230,-467.19"/>
<polygon fill="#63b8ff" stroke="#63b8ff" points="78.11,-552.16 74.36,-562.07 83.47,-556.67 78.11,-552.16"/>
</a>
</g>
</g>
<!-- Node13 -->
<g id="Node000013" class="node">
<title>Node13</title>
<g id="a_Node000013"><a xlink:href="classdrake_1_1symbolic_1_1_unary_expression_cell.html" target="_top" xlink:title="Represents the base class for unary expressions.">
<ellipse fill="white" stroke="#666666" cx="288.44" cy="-351.44" rx="83.38" ry="13.37"/>
<text text-anchor="middle" x="288.44" y="-348.94" font-family="Helvetica,sans-Serif" font-size="10.00">UnaryExpressionCell</text>
</a>
</g>
</g>
<!-- Node0&#45;&gt;Node13 -->
<g id="edge287_Node000000_Node000013" class="edge">
<title>Node0&#45;&gt;Node13</title>
<g id="a_edge287_Node000000_Node000013"><a xlink:title=" ">
<path fill="none" stroke="#63b8ff" d="M77.12,-553.13C94.37,-525.1 126.56,-476.42 161.87,-441.44 194.07,-409.53 238.48,-380.53 264.94,-364.5"/>
<polygon fill="#63b8ff" stroke="#63b8ff" points="74.06,-551.43 71.87,-561.8 80.04,-555.06 74.06,-551.43"/>
</a>
</g>
</g>
<!-- Node2 -->
<g id="Node000002" class="node">
<title>Node2</title>
<g id="a_Node000002"><a xlink:href="classdrake_1_1symbolic_1_1_expression_atan2.html" target="_top" xlink:title="Symbolic expression representing atan2 function (arctangent function with two arguments).">
<ellipse fill="white" stroke="#666666" cx="524.55" cy="-868.44" rx="69.09" ry="13.37"/>
<text text-anchor="middle" x="524.55" y="-865.94" font-family="Helvetica,sans-Serif" font-size="10.00">ExpressionAtan2</text>
</a>
</g>
</g>
<!-- Node1&#45;&gt;Node2 -->
<g id="edge276_Node000001_Node000002" class="edge">
<title>Node1&#45;&gt;Node2</title>
<g id="a_edge276_Node000001_Node000002"><a xlink:title=" ">
<path fill="none" stroke="#63b8ff" d="M318.41,-773.92C350.06,-793.56 402.72,-824.58 451.01,-845.44 461.44,-849.94 473.05,-854.01 483.87,-857.44"/>
<polygon fill="#63b8ff" stroke="#63b8ff" points="320.01,-770.8 309.67,-768.46 316.3,-776.73 320.01,-770.8"/>
</a>
</g>
</g>
<!-- Node3 -->
<g id="Node000003" class="node">
<title>Node3</title>
<g id="a_Node000003"><a xlink:href="classdrake_1_1symbolic_1_1_expression_div.html" target="_top" xlink:title="Symbolic expression representing division.">
<ellipse fill="white" stroke="#666666" cx="524.55" cy="-823.44" rx="60.62" ry="13.37"/>
<text text-anchor="middle" x="524.55" y="-820.94" font-family="Helvetica,sans-Serif" font-size="10.00">ExpressionDiv</text>
</a>
</g>
</g>
<!-- Node1&#45;&gt;Node3 -->
<g id="edge277_Node000001_Node000003" class="edge">
<title>Node1&#45;&gt;Node3</title>
<g id="a_edge277_Node000001_Node000003"><a xlink:title=" ">
<path fill="none" stroke="#63b8ff" d="M339.65,-770.02C383.92,-782.88 447.38,-801.31 486.99,-812.82"/>
<polygon fill="#63b8ff" stroke="#63b8ff" points="340.53,-766.63 329.95,-767.2 338.58,-773.35 340.53,-766.63"/>
</a>
</g>
</g>
<!-- Node4 -->
<g id="Node000004" class="node">
<title>Node4</title>
<g id="a_Node000004"><a xlink:href="classdrake_1_1symbolic_1_1_expression_max.html" target="_top" xlink:title="Symbolic expression representing max function.">
<ellipse fill="white" stroke="#666666" cx="524.55" cy="-778.44" rx="64.19" ry="13.37"/>
<text text-anchor="middle" x="524.55" y="-775.94" font-family="Helvetica,sans-Serif" font-size="10.00">ExpressionMax</text>
</a>
</g>
</g>
<!-- Node1&#45;&gt;Node4 -->
<g id="edge278_Node000001_Node000004" class="edge">
<title>Node1&#45;&gt;Node4</title>
<g id="a_edge278_Node000001_Node000004"><a xlink:title=" ">
<path fill="none" stroke="#63b8ff" d="M370.96,-763.44C402.22,-766.52 437.22,-769.95 465.8,-772.76"/>
<polygon fill="#63b8ff" stroke="#63b8ff" points="371.24,-759.96 360.95,-762.46 370.56,-766.92 371.24,-759.96"/>
</a>
</g>
</g>
<!-- Node5 -->
<g id="Node000005" class="node">
<title>Node5</title>
<g id="a_Node000005"><a xlink:href="classdrake_1_1symbolic_1_1_expression_min.html" target="_top" xlink:title="Symbolic expression representing min function.">
<ellipse fill="white" stroke="#666666" cx="524.55" cy="-733.44" rx="62.45" ry="13.37"/>
<text text-anchor="middle" x="524.55" y="-730.94" font-family="Helvetica,sans-Serif" font-size="10.00">ExpressionMin</text>
</a>
</g>
</g>
<!-- Node1&#45;&gt;Node5 -->
<g id="edge279_Node000001_Node000005" class="edge">
<title>Node1&#45;&gt;Node5</title>
<g id="a_edge279_Node000001_Node000005"><a xlink:title=" ">
<path fill="none" stroke="#63b8ff" d="M371.98,-747.68C403.42,-744.72 438.52,-741.43 467.01,-738.75"/>
<polygon fill="#63b8ff" stroke="#63b8ff" points="371.54,-744.2 361.91,-748.62 372.19,-751.17 371.54,-744.2"/>
</a>
</g>
</g>
<!-- Node6 -->
<g id="Node000006" class="node">
<title>Node6</title>
<g id="a_Node000006"><a xlink:href="classdrake_1_1symbolic_1_1_expression_pow.html" target="_top" xlink:title="Symbolic expression representing power function.">
<ellipse fill="white" stroke="#666666" cx="524.55" cy="-688.44" rx="63.78" ry="13.37"/>
<text text-anchor="middle" x="524.55" y="-685.94" font-family="Helvetica,sans-Serif" font-size="10.00">ExpressionPow</text>
</a>
</g>
</g>
<!-- Node1&#45;&gt;Node6 -->
<g id="edge280_Node000001_Node000006" class="edge">
<title>Node1&#45;&gt;Node6</title>
<g id="a_edge280_Node000001_Node000006"><a xlink:title=" ">
<path fill="none" stroke="#63b8ff" d="M340.11,-740.93C384,-728.37 446.5,-710.49 486.03,-699.17"/>
<polygon fill="#63b8ff" stroke="#63b8ff" points="339.14,-737.57 330.48,-743.69 341.06,-744.3 339.14,-737.57"/>
</a>
</g>
</g>
<!-- Node14 -->
<g id="Node000014" class="node">
<title>Node14</title>
<g id="a_Node000014"><a xlink:href="classdrake_1_1symbolic_1_1_expression_abs.html" target="_top" xlink:title="Symbolic expression representing absolute value function.">
<ellipse fill="white" stroke="#666666" cx="524.55" cy="-643.44" rx="62.45" ry="13.37"/>
<text text-anchor="middle" x="524.55" y="-640.94" font-family="Helvetica,sans-Serif" font-size="10.00">ExpressionAbs</text>
</a>
</g>
</g>
<!-- Node13&#45;&gt;Node14 -->
<g id="edge288_Node000013_Node000014" class="edge">
<title>Node13&#45;&gt;Node14</title>
<g id="a_edge288_Node000013_Node000014"><a xlink:title=" ">
<path fill="none" stroke="#63b8ff" d="M326.92,-368.59C355.57,-383.68 393.66,-408.4 415.01,-441.44 459.05,-509.59 396.83,-560.03 451.01,-620.44 457.18,-627.32 465.41,-632.16 474.09,-635.56"/>
<polygon fill="#63b8ff" stroke="#63b8ff" points="328.49,-365.46 317.99,-364.03 325.3,-371.7 328.49,-365.46"/>
</a>
</g>
</g>
<!-- Node15 -->
<g id="Node000015" class="node">
<title>Node15</title>
<g id="a_Node000015"><a xlink:href="classdrake_1_1symbolic_1_1_expression_acos.html" target="_top" xlink:title="Symbolic expression representing arccosine function.">
<ellipse fill="white" stroke="#666666" cx="524.55" cy="-598.44" rx="65.52" ry="13.37"/>
<text text-anchor="middle" x="524.55" y="-595.94" font-family="Helvetica,sans-Serif" font-size="10.00">ExpressionAcos</text>
</a>
</g>
</g>
<!-- Node13&#45;&gt;Node15 -->
<g id="edge289_Node000013_Node000015" class="edge">
<title>Node13&#45;&gt;Node15</title>
<g id="a_edge289_Node000013_Node000015"><a xlink:title=" ">
<path fill="none" stroke="#63b8ff" d="M326.2,-368.89C354.54,-384.19 392.58,-409.04 415.01,-441.44 450.12,-492.13 408.39,-530.87 451.01,-575.44 457.13,-581.83 465.01,-586.46 473.32,-589.8"/>
<polygon fill="#63b8ff" stroke="#63b8ff" points="327.48,-365.61 316.99,-364.07 324.23,-371.81 327.48,-365.61"/>
</a>
</g>
</g>
<!-- Node16 -->
<g id="Node000016" class="node">
<title>Node16</title>
<g id="a_Node000016"><a xlink:href="classdrake_1_1symbolic_1_1_expression_asin.html" target="_top" xlink:title="Symbolic expression representing arcsine function.">
<ellipse fill="white" stroke="#666666" cx="524.55" cy="-553.44" rx="64.19" ry="13.37"/>
<text text-anchor="middle" x="524.55" y="-550.94" font-family="Helvetica,sans-Serif" font-size="10.00">ExpressionAsin</text>
</a>
</g>
</g>
<!-- Node13&#45;&gt;Node16 -->
<g id="edge290_Node000013_Node000016" class="edge">
<title>Node13&#45;&gt;Node16</title>
<g id="a_edge290_Node000013_Node000016"><a xlink:title=" ">
<path fill="none" stroke="#63b8ff" d="M324.38,-369.24C352.2,-384.95 390.42,-410.19 415.01,-441.44 441.39,-474.97 419.69,-501.45 451.01,-530.44 457.89,-536.81 466.54,-541.41 475.44,-544.74"/>
<polygon fill="#63b8ff" stroke="#63b8ff" points="325.83,-366.04 315.38,-364.28 322.45,-372.17 325.83,-366.04"/>
</a>
</g>
</g>
<!-- Node17 -->
<g id="Node000017" class="node">
<title>Node17</title>
<g id="a_Node000017"><a xlink:href="classdrake_1_1symbolic_1_1_expression_atan.html" target="_top" xlink:title="Symbolic expression representing arctangent function.">
<ellipse fill="white" stroke="#666666" cx="524.55" cy="-508.44" rx="65.11" ry="13.37"/>
<text text-anchor="middle" x="524.55" y="-505.94" font-family="Helvetica,sans-Serif" font-size="10.00">ExpressionAtan</text>
</a>
</g>
</g>
<!-- Node13&#45;&gt;Node17 -->
<g id="edge291_Node000013_Node000017" class="edge">
<title>Node13&#45;&gt;Node17</title>
<g id="a_edge291_Node000013_Node000017"><a xlink:title=" ">
<path fill="none" stroke="#63b8ff" d="M319.67,-369.87C346.21,-386.79 385.13,-413.41 415.01,-441.44 433.44,-458.72 430.1,-471.25 451.01,-485.44 459.43,-491.15 469.34,-495.5 479.1,-498.8"/>
<polygon fill="#63b8ff" stroke="#63b8ff" points="321.5,-366.89 311.17,-364.52 317.77,-372.81 321.5,-366.89"/>
</a>
</g>
</g>
<!-- Node18 -->
<g id="Node000018" class="node">
<title>Node18</title>
<g id="a_Node000018"><a xlink:href="classdrake_1_1symbolic_1_1_expression_ceiling.html" target="_top" xlink:title="Symbolic expression representing ceil function.">
<ellipse fill="white" stroke="#666666" cx="524.55" cy="-463.44" rx="73.58" ry="13.37"/>
<text text-anchor="middle" x="524.55" y="-460.94" font-family="Helvetica,sans-Serif" font-size="10.00">ExpressionCeiling</text>
</a>
</g>
</g>
<!-- Node13&#45;&gt;Node18 -->
<g id="edge292_Node000013_Node000018" class="edge">
<title>Node13&#45;&gt;Node18</title>
<g id="a_edge292_Node000013_Node000018"><a xlink:title=" ">
<path fill="none" stroke="#63b8ff" d="M318.7,-369.86C350.41,-389.26 402.93,-419.81 451.01,-440.44 461.33,-444.86 472.79,-448.89 483.5,-452.28"/>
<polygon fill="#63b8ff" stroke="#63b8ff" points="320.29,-366.73 309.95,-364.46 316.62,-372.68 320.29,-366.73"/>
</a>
</g>
</g>
<!-- Node19 -->
<g id="Node000019" class="node">
<title>Node19</title>
<g id="a_Node000019"><a xlink:href="classdrake_1_1symbolic_1_1_expression_cos.html" target="_top" xlink:title="Symbolic expression representing cosine function.">
<ellipse fill="white" stroke="#666666" cx="524.55" cy="-418.44" rx="62.45" ry="13.37"/>
<text text-anchor="middle" x="524.55" y="-415.94" font-family="Helvetica,sans-Serif" font-size="10.00">ExpressionCos</text>
</a>
</g>
</g>
<!-- Node13&#45;&gt;Node19 -->
<g id="edge293_Node000013_Node000019" class="edge">
<title>Node13&#45;&gt;Node19</title>
<g id="a_edge293_Node000013_Node000019"><a xlink:title=" ">
<path fill="none" stroke="#63b8ff" d="M339.86,-365.87C383.87,-378.46 446.73,-396.45 486.32,-407.78"/>
<polygon fill="#63b8ff" stroke="#63b8ff" points="340.79,-362.49 330.22,-363.11 338.87,-369.22 340.79,-362.49"/>
</a>
</g>
</g>
<!-- Node20 -->
<g id="Node000020" class="node">
<title>Node20</title>
<g id="a_Node000020"><a xlink:href="classdrake_1_1symbolic_1_1_expression_cosh.html" target="_top" xlink:title="Symbolic expression representing hyperbolic cosine function.">
<ellipse fill="white" stroke="#666666" cx="524.55" cy="-373.44" rx="66.44" ry="13.37"/>
<text text-anchor="middle" x="524.55" y="-370.94" font-family="Helvetica,sans-Serif" font-size="10.00">ExpressionCosh</text>
</a>
</g>
</g>
<!-- Node13&#45;&gt;Node20 -->
<g id="edge294_Node000013_Node000020" class="edge">
<title>Node13&#45;&gt;Node20</title>
<g id="a_edge294_Node000013_Node000020"><a xlink:title=" ">
<path fill="none" stroke="#63b8ff" d="M371.15,-359.11C401.67,-361.98 435.73,-365.18 463.89,-367.83"/>
<polygon fill="#63b8ff" stroke="#63b8ff" points="371.23,-355.61 360.95,-358.16 370.58,-362.58 371.23,-355.61"/>
</a>
</g>
</g>
<!-- Node21 -->
<g id="Node000021" class="node">
<title>Node21</title>
<g id="a_Node000021"><a xlink:href="classdrake_1_1symbolic_1_1_expression_exp.html" target="_top" xlink:title="Symbolic expression representing exponentiation using the base of natural logarithms.">
<ellipse fill="white" stroke="#666666" cx="524.55" cy="-328.44" rx="62.45" ry="13.37"/>
<text text-anchor="middle" x="524.55" y="-325.94" font-family="Helvetica,sans-Serif" font-size="10.00">ExpressionExp</text>
</a>
</g>
</g>
<!-- Node13&#45;&gt;Node21 -->
<g id="edge295_Node000013_Node000021" class="edge">
<title>Node13&#45;&gt;Node21</title>
<g id="a_edge295_Node000013_Node000021"><a xlink:title=" ">
<path fill="none" stroke="#63b8ff" d="M370.26,-343.49C402.37,-340.34 438.5,-336.79 467.62,-333.93"/>
<polygon fill="#63b8ff" stroke="#63b8ff" points="369.61,-340.04 360,-344.5 370.29,-347.01 369.61,-340.04"/>
</a>
</g>
</g>
<!-- Node22 -->
<g id="Node000022" class="node">
<title>Node22</title>
<g id="a_Node000022"><a xlink:href="classdrake_1_1symbolic_1_1_expression_floor.html" target="_top" xlink:title="Symbolic expression representing floor function.">
<ellipse fill="white" stroke="#666666" cx="524.55" cy="-283.44" rx="67.35" ry="13.37"/>
<text text-anchor="middle" x="524.55" y="-280.94" font-family="Helvetica,sans-Serif" font-size="10.00">ExpressionFloor</text>
</a>
</g>
</g>
<!-- Node13&#45;&gt;Node22 -->
<g id="edge296_Node000013_Node000022" class="edge">
<title>Node13&#45;&gt;Node22</title>
<g id="a_edge296_Node000013_Node000022"><a xlink:title=" ">
<path fill="none" stroke="#63b8ff" d="M339.56,-336.88C383.38,-324.15 446.05,-305.94 485.76,-294.41"/>
<polygon fill="#63b8ff" stroke="#63b8ff" points="338.31,-333.59 329.68,-339.75 340.26,-340.32 338.31,-333.59"/>
</a>
</g>
</g>
<!-- Node23 -->
<g id="Node000023" class="node">
<title>Node23</title>
<g id="a_Node000023"><a xlink:href="classdrake_1_1symbolic_1_1_expression_log.html" target="_top" xlink:title="Symbolic expression representing logarithms.">
<ellipse fill="white" stroke="#666666" cx="524.55" cy="-238.44" rx="61.54" ry="13.37"/>
<text text-anchor="middle" x="524.55" y="-235.94" font-family="Helvetica,sans-Serif" font-size="10.00">ExpressionLog</text>
</a>
</g>
</g>
<!-- Node13&#45;&gt;Node23 -->
<g id="edge297_Node000013_Node000023" class="edge">
<title>Node13&#45;&gt;Node23</title>
<g id="a_edge297_Node000013_Node000023"><a xlink:title=" ">
<path fill="none" stroke="#63b8ff" d="M318.41,-332.95C350.06,-313.31 402.72,-282.29 451.01,-261.44 461.93,-256.72 474.13,-252.48 485.37,-248.96"/>
<polygon fill="#63b8ff" stroke="#63b8ff" points="316.3,-330.14 309.67,-338.41 320.01,-336.07 316.3,-330.14"/>
</a>
</g>
</g>
<!-- Node24 -->
<g id="Node000024" class="node">
<title>Node24</title>
<g id="a_Node000024"><a xlink:href="classdrake_1_1symbolic_1_1_expression_sin.html" target="_top" xlink:title="Symbolic expression representing sine function.">
<ellipse fill="white" stroke="#666666" cx="524.55" cy="-193.44" rx="60.21" ry="13.37"/>
<text text-anchor="middle" x="524.55" y="-190.94" font-family="Helvetica,sans-Serif" font-size="10.00">ExpressionSin</text>
</a>
</g>
</g>
<!-- Node13&#45;&gt;Node24 -->
<g id="edge298_Node000013_Node000024" class="edge">
<title>Node13&#45;&gt;Node24</title>
<g id="a_edge298_Node000013_Node000024"><a xlink:title=" ">
<path fill="none" stroke="#63b8ff" d="M308.92,-330.68C337.5,-301.36 393.64,-247.89 451.01,-216.44 460.86,-211.04 472.16,-206.69 482.87,-203.29"/>
<polygon fill="#63b8ff" stroke="#63b8ff" points="306.36,-328.3 301.94,-337.93 311.4,-333.16 306.36,-328.3"/>
</a>
</g>
</g>
<!-- Node25 -->
<g id="Node000025" class="node">
<title>Node25</title>
<g id="a_Node000025"><a xlink:href="classdrake_1_1symbolic_1_1_expression_sinh.html" target="_top" xlink:title="Symbolic expression representing hyperbolic sine function.">
<ellipse fill="white" stroke="#666666" cx="524.55" cy="-148.44" rx="64.19" ry="13.37"/>
<text text-anchor="middle" x="524.55" y="-145.94" font-family="Helvetica,sans-Serif" font-size="10.00">ExpressionSinh</text>
</a>
</g>
</g>
<!-- Node13&#45;&gt;Node25 -->
<g id="edge299_Node000013_Node000025" class="edge">
<title>Node13&#45;&gt;Node25</title>
<g id="a_edge299_Node000013_Node000025"><a xlink:title=" ">
<path fill="none" stroke="#63b8ff" d="M303.52,-329.18C328.6,-291.31 384.66,-214.26 451.01,-171.44 459.67,-165.85 469.78,-161.53 479.67,-158.23"/>
<polygon fill="#63b8ff" stroke="#63b8ff" points="300.35,-327.63 297.82,-337.92 306.21,-331.46 300.35,-327.63"/>
</a>
</g>
</g>
<!-- Node26 -->
<g id="Node000026" class="node">
<title>Node26</title>
<g id="a_Node000026"><a xlink:href="classdrake_1_1symbolic_1_1_expression_sqrt.html" target="_top" xlink:title="Symbolic expression representing square&#45;root.">
<ellipse fill="white" stroke="#666666" cx="524.55" cy="-103.44" rx="62.87" ry="13.37"/>
<text text-anchor="middle" x="524.55" y="-100.94" font-family="Helvetica,sans-Serif" font-size="10.00">ExpressionSqrt</text>
</a>
</g>
</g>
<!-- Node13&#45;&gt;Node26 -->
<g id="edge300_Node000013_Node000026" class="edge">
<title>Node13&#45;&gt;Node26</title>
<g id="a_edge300_Node000013_Node000026"><a xlink:title=" ">
<path fill="none" stroke="#63b8ff" d="M299.58,-328.74C320.96,-283.47 375.01,-181.56 451.01,-126.44 459.24,-120.46 469.09,-116 478.83,-112.68"/>
<polygon fill="#63b8ff" stroke="#63b8ff" points="296.32,-327.45 295.29,-338 302.67,-330.39 296.32,-327.45"/>
</a>
</g>
</g>
<!-- Node27 -->
<g id="Node000027" class="node">
<title>Node27</title>
<g id="a_Node000027"><a xlink:href="classdrake_1_1symbolic_1_1_expression_tan.html" target="_top" xlink:title="Symbolic expression representing tangent function.">
<ellipse fill="white" stroke="#666666" cx="524.55" cy="-58.44" rx="60.62" ry="13.37"/>
<text text-anchor="middle" x="524.55" y="-55.94" font-family="Helvetica,sans-Serif" font-size="10.00">ExpressionTan</text>
</a>
</g>
</g>
<!-- Node13&#45;&gt;Node27 -->
<g id="edge301_Node000013_Node000027" class="edge">
<title>Node13&#45;&gt;Node27</title>
<g id="a_edge301_Node000013_Node000027"><a xlink:title=" ">
<path fill="none" stroke="#63b8ff" d="M296.89,-328.22C314.8,-276.15 365.24,-149.29 451.01,-81.44 458.88,-75.21 468.48,-70.65 478.07,-67.32"/>
<polygon fill="#63b8ff" stroke="#63b8ff" points="293.52,-327.28 293.65,-337.87 300.15,-329.51 293.52,-327.28"/>
</a>
</g>
</g>
<!-- Node28 -->
<g id="Node000028" class="node">
<title>Node28</title>
<g id="a_Node000028"><a xlink:href="classdrake_1_1symbolic_1_1_expression_tanh.html" target="_top" xlink:title="Symbolic expression representing hyperbolic tangent function.">
<ellipse fill="white" stroke="#666666" cx="524.55" cy="-13.44" rx="65.11" ry="13.37"/>
<text text-anchor="middle" x="524.55" y="-10.94" font-family="Helvetica,sans-Serif" font-size="10.00">ExpressionTanh</text>
</a>
</g>
</g>
<!-- Node13&#45;&gt;Node28 -->
<g id="edge302_Node000013_Node000028" class="edge">
<title>Node13&#45;&gt;Node28</title>
<g id="a_edge302_Node000013_Node000028"><a xlink:title=" ">
<path fill="none" stroke="#63b8ff" d="M294.82,-327.99C309.39,-269.78 355.14,-117.51 451.01,-36.44 458.27,-30.29 467.19,-25.79 476.25,-22.48"/>
<polygon fill="#63b8ff" stroke="#63b8ff" points="291.41,-327.18 292.45,-337.73 298.21,-328.83 291.41,-327.18"/>
</a>
</g>
</g>
</g>
</svg>
