<?xml version="1.0" encoding="UTF-8" standalone="no"?>
<!DOCTYPE svg PUBLIC "-//W3C//DTD SVG 1.1//EN"
 "http://www.w3.org/Graphics/SVG/1.1/DTD/svg11.dtd">
<!-- Generated by graphviz version 2.43.0 (0)
 -->
<!-- Title: Graphical Class Hierarchy Pages: 1 -->
<svg width="644pt" height="591pt"
 viewBox="0.00 0.00 644.27 590.87" xmlns="http://www.w3.org/2000/svg" xmlns:xlink="http://www.w3.org/1999/xlink">
<g id="graph0" class="graph" transform="scale(1 1) rotate(0) translate(4 586.87)">
<title>Graphical Class Hierarchy</title>
<!-- Node0 -->
<g id="Node000000" class="node">
<title>Node0</title>
<g id="a_Node000000"><a xlink:href="classdrake_1_1systems_1_1_vector_base.html" target="_top" xlink:title="VectorBase is an abstract base class that real&#45;valued signals between Systems and real&#45;valued System ...">
<ellipse fill="white" stroke="#666666" cx="70.71" cy="-254.44" rx="70.92" ry="13.37"/>
<text text-anchor="middle" x="70.71" y="-251.94" font-family="Helvetica,sans-Serif" font-size="10.00">VectorBase&lt; T &gt;</text>
</a>
</g>
</g>
<!-- Node1 -->
<g id="Node000001" class="node">
<title>Node1</title>
<g id="a_Node000001"><a xlink:href="classdrake_1_1systems_1_1_basic_vector.html" target="_top" xlink:title="BasicVector is a semantics&#45;free wrapper around an Eigen vector that satisfies VectorBase.">
<ellipse fill="white" stroke="#666666" cx="250.96" cy="-299.44" rx="72.25" ry="13.37"/>
<text text-anchor="middle" x="250.96" y="-296.94" font-family="Helvetica,sans-Serif" font-size="10.00">BasicVector&lt; T &gt;</text>
</a>
</g>
</g>
<!-- Node0&#45;&gt;Node1 -->
<g id="edge543_Node000000_Node000001" class="edge">
<title>Node0&#45;&gt;Node1</title>
<g id="a_edge543_Node000000_Node000001"><a xlink:title=" ">
<path fill="none" stroke="#63b8ff" d="M123.85,-267.6C150.43,-274.31 182.33,-282.36 207.4,-288.69"/>
<polygon fill="#63b8ff" stroke="#63b8ff" points="124.51,-264.15 113.95,-265.1 122.79,-270.94 124.51,-264.15"/>
</a>
</g>
</g>
<!-- Node15 -->
<g id="Node000015" class="node">
<title>Node15</title>
<g id="a_Node000015"><a xlink:href="classdrake_1_1systems_1_1_subvector.html" target="_top" xlink:title="Subvector is a concrete class template that implements VectorBase by providing a sliced view of a Vec...">
<ellipse fill="white" stroke="#666666" cx="250.96" cy="-254.44" rx="66.44" ry="13.37"/>
<text text-anchor="middle" x="250.96" y="-251.94" font-family="Helvetica,sans-Serif" font-size="10.00">Subvector&lt; T &gt;</text>
</a>
</g>
</g>
<!-- Node0&#45;&gt;Node15 -->
<g id="edge557_Node000000_Node000015" class="edge">
<title>Node0&#45;&gt;Node15</title>
<g id="a_edge557_Node000000_Node000015"><a xlink:title=" ">
<path fill="none" stroke="#63b8ff" d="M151.95,-254.44C162.77,-254.44 173.77,-254.44 184.3,-254.44"/>
<polygon fill="#63b8ff" stroke="#63b8ff" points="151.65,-250.94 141.65,-254.44 151.65,-257.94 151.65,-250.94"/>
</a>
</g>
</g>
<!-- Node16 -->
<g id="Node000016" class="node">
<title>Node16</title>
<g id="a_Node000016"><a xlink:href="classdrake_1_1systems_1_1_supervector.html" target="_top" xlink:title="Supervector is a concrete class template that implements VectorBase by concatenating multiple VectorB...">
<ellipse fill="white" stroke="#666666" cx="250.96" cy="-209.44" rx="73.58" ry="13.37"/>
<text text-anchor="middle" x="250.96" y="-206.94" font-family="Helvetica,sans-Serif" font-size="10.00">Supervector&lt; T &gt;</text>
</a>
</g>
</g>
<!-- Node0&#45;&gt;Node16 -->
<g id="edge558_Node000000_Node000016" class="edge">
<title>Node0&#45;&gt;Node16</title>
<g id="a_edge558_Node000000_Node000016"><a xlink:title=" ">
<path fill="none" stroke="#63b8ff" d="M123.81,-241.28C150.29,-234.6 182.06,-226.58 207.09,-220.26"/>
<polygon fill="#63b8ff" stroke="#63b8ff" points="122.79,-237.93 113.95,-243.77 124.51,-244.72 122.79,-237.93"/>
</a>
</g>
</g>
<!-- Node2 -->
<g id="Node000002" class="node">
<title>Node2</title>
<g id="a_Node000002"><a xlink:href="classdrake_1_1examples_1_1acrobot_1_1_acrobot_input.html" target="_top" xlink:title="Specializes BasicVector with specific getters and setters.">
<ellipse fill="white" stroke="#666666" cx="498.39" cy="-569.44" rx="75.82" ry="13.37"/>
<text text-anchor="middle" x="498.39" y="-566.94" font-family="Helvetica,sans-Serif" font-size="10.00">AcrobotInput&lt; T &gt;</text>
</a>
</g>
</g>
<!-- Node1&#45;&gt;Node2 -->
<g id="edge544_Node000001_Node000002" class="edge">
<title>Node1&#45;&gt;Node2</title>
<g id="a_edge544_Node000001_Node000002"><a xlink:title=" ">
<path fill="none" stroke="#63b8ff" d="M254.93,-323.29C262.53,-373.38 287.49,-489.58 360.5,-546.44 378.09,-560.13 400.84,-566.93 422.72,-570.03"/>
<polygon fill="#63b8ff" stroke="#63b8ff" points="258.36,-322.52 253.49,-313.11 251.43,-323.5 258.36,-322.52"/>
</a>
</g>
</g>
<!-- Node3 -->
<g id="Node000003" class="node">
<title>Node3</title>
<g id="a_Node000003"><a xlink:href="classdrake_1_1examples_1_1acrobot_1_1_acrobot_params.html" target="_top" xlink:title="Specializes BasicVector with specific getters and setters.">
<ellipse fill="white" stroke="#666666" cx="498.39" cy="-524.44" rx="84.29" ry="13.37"/>
<text text-anchor="middle" x="498.39" y="-521.94" font-family="Helvetica,sans-Serif" font-size="10.00">AcrobotParams&lt; T &gt;</text>
</a>
</g>
</g>
<!-- Node1&#45;&gt;Node3 -->
<g id="edge545_Node000001_Node000003" class="edge">
<title>Node1&#45;&gt;Node3</title>
<g id="a_edge545_Node000001_Node000003"><a xlink:title=" ">
<path fill="none" stroke="#63b8ff" d="M257.32,-322.81C268.47,-365.78 298.46,-456.95 360.5,-501.44 376.26,-512.74 395.65,-519.21 414.82,-522.77"/>
<polygon fill="#63b8ff" stroke="#63b8ff" points="260.68,-321.85 254.88,-312.99 253.89,-323.54 260.68,-321.85"/>
</a>
</g>
</g>
<!-- Node4 -->
<g id="Node000004" class="node">
<title>Node4</title>
<g id="a_Node000004"><a xlink:href="classdrake_1_1examples_1_1acrobot_1_1_acrobot_state.html" target="_top" xlink:title="Specializes BasicVector with specific getters and setters.">
<ellipse fill="white" stroke="#666666" cx="498.39" cy="-479.44" rx="76.24" ry="13.37"/>
<text text-anchor="middle" x="498.39" y="-476.94" font-family="Helvetica,sans-Serif" font-size="10.00">AcrobotState&lt; T &gt;</text>
</a>
</g>
</g>
<!-- Node1&#45;&gt;Node4 -->
<g id="edge546_Node000001_Node000004" class="edge">
<title>Node1&#45;&gt;Node4</title>
<g id="a_edge546_Node000001_Node000004"><a xlink:title=" ">
<path fill="none" stroke="#63b8ff" d="M260.93,-322.55C275.87,-357.7 309.34,-423.92 360.5,-456.44 378.8,-468.07 401.16,-474.37 422.45,-477.64"/>
<polygon fill="#63b8ff" stroke="#63b8ff" points="264.09,-321.03 257.05,-313.11 257.62,-323.69 264.09,-321.03"/>
</a>
</g>
</g>
<!-- Node5 -->
<g id="Node000005" class="node">
<title>Node5</title>
<g id="a_Node000005"><a xlink:href="classdrake_1_1examples_1_1acrobot_1_1_spong_controller_params.html" target="_top" xlink:title="Specializes BasicVector with specific getters and setters.">
<ellipse fill="white" stroke="#666666" cx="498.39" cy="-434.44" rx="112.36" ry="13.37"/>
<text text-anchor="middle" x="498.39" y="-431.94" font-family="Helvetica,sans-Serif" font-size="10.00">SpongControllerParams&lt; T &gt;</text>
</a>
</g>
</g>
<!-- Node1&#45;&gt;Node5 -->
<g id="edge547_Node000001_Node000005" class="edge">
<title>Node1&#45;&gt;Node5</title>
<g id="a_edge547_Node000001_Node000005"><a xlink:title=" ">
<path fill="none" stroke="#63b8ff" d="M266.4,-321.22C284.91,-347.23 319.55,-389.92 360.5,-411.44 373.94,-418.5 389.05,-423.48 404.21,-426.97"/>
<polygon fill="#63b8ff" stroke="#63b8ff" points="269.12,-319 260.54,-312.78 263.37,-322.99 269.12,-319"/>
</a>
</g>
</g>
<!-- Node6 -->
<g id="Node000006" class="node">
<title>Node6</title>
<g id="a_Node000006"><a xlink:href="classdrake_1_1examples_1_1compass__gait_1_1_compass_gait_continuous_state.html" target="_top" xlink:title="Specializes BasicVector with specific getters and setters.">
<ellipse fill="white" stroke="#666666" cx="498.39" cy="-389.44" rx="135.11" ry="13.37"/>
<text text-anchor="middle" x="498.39" y="-386.94" font-family="Helvetica,sans-Serif" font-size="10.00">CompassGaitContinuousState&lt; T &gt;</text>
</a>
</g>
</g>
<!-- Node1&#45;&gt;Node6 -->
<g id="edge548_Node000001_Node000006" class="edge">
<title>Node1&#45;&gt;Node6</title>
<g id="a_edge548_Node000001_Node000006"><a xlink:title=" ">
<path fill="none" stroke="#63b8ff" d="M276.63,-318.55C297.74,-333.91 329.53,-354.79 360.5,-366.44 375.27,-371.99 391.45,-376.21 407.34,-379.41"/>
<polygon fill="#63b8ff" stroke="#63b8ff" points="278.66,-315.7 268.55,-312.55 274.49,-321.32 278.66,-315.7"/>
</a>
</g>
</g>
<!-- Node7 -->
<g id="Node000007" class="node">
<title>Node7</title>
<g id="a_Node000007"><a xlink:href="classdrake_1_1examples_1_1compass__gait_1_1_compass_gait_params.html" target="_top" xlink:title="Specializes BasicVector with specific getters and setters.">
<ellipse fill="white" stroke="#666666" cx="498.39" cy="-344.44" rx="103.48" ry="13.37"/>
<text text-anchor="middle" x="498.39" y="-341.94" font-family="Helvetica,sans-Serif" font-size="10.00">CompassGaitParams&lt; T &gt;</text>
</a>
</g>
</g>
<!-- Node1&#45;&gt;Node7 -->
<g id="edge549_Node000001_Node000007" class="edge">
<title>Node1&#45;&gt;Node7</title>
<g id="a_edge549_Node000001_Node000007"><a xlink:title=" ">
<path fill="none" stroke="#63b8ff" d="M309.47,-311.47C325.93,-314.81 343.9,-318.36 360.5,-321.44 383.96,-325.78 409.74,-330.21 432.55,-334"/>
<polygon fill="#63b8ff" stroke="#63b8ff" points="309.94,-307.99 299.44,-309.42 308.54,-314.85 309.94,-307.99"/>
</a>
</g>
</g>
<!-- Node8 -->
<g id="Node000008" class="node">
<title>Node8</title>
<g id="a_Node000008"><a xlink:href="classdrake_1_1examples_1_1pendulum_1_1_pendulum_input.html" target="_top" xlink:title="Specializes BasicVector with specific getters and setters.">
<ellipse fill="white" stroke="#666666" cx="498.39" cy="-299.44" rx="84.29" ry="13.37"/>
<text text-anchor="middle" x="498.39" y="-296.94" font-family="Helvetica,sans-Serif" font-size="10.00">PendulumInput&lt; T &gt;</text>
</a>
</g>
</g>
<!-- Node1&#45;&gt;Node8 -->
<g id="edge550_Node000001_Node000008" class="edge">
<title>Node1&#45;&gt;Node8</title>
<g id="a_edge550_Node000001_Node000008"><a xlink:title=" ">
<path fill="none" stroke="#63b8ff" d="M333.45,-299.44C359.4,-299.44 388.13,-299.44 414.2,-299.44"/>
<polygon fill="#63b8ff" stroke="#63b8ff" points="333.28,-295.94 323.28,-299.44 333.28,-302.94 333.28,-295.94"/>
</a>
</g>
</g>
<!-- Node9 -->
<g id="Node000009" class="node">
<title>Node9</title>
<g id="a_Node000009"><a xlink:href="classdrake_1_1examples_1_1pendulum_1_1_pendulum_params.html" target="_top" xlink:title="Specializes BasicVector with specific getters and setters.">
<ellipse fill="white" stroke="#666666" cx="498.39" cy="-254.44" rx="91.85" ry="13.37"/>
<text text-anchor="middle" x="498.39" y="-251.94" font-family="Helvetica,sans-Serif" font-size="10.00">PendulumParams&lt; T &gt;</text>
</a>
</g>
</g>
<!-- Node1&#45;&gt;Node9 -->
<g id="edge551_Node000001_Node000009" class="edge">
<title>Node1&#45;&gt;Node9</title>
<g id="a_edge551_Node000001_Node000009"><a xlink:title=" ">
<path fill="none" stroke="#63b8ff" d="M309.47,-287.4C325.93,-284.06 343.9,-280.51 360.5,-277.44 385.14,-272.87 412.35,-268.22 435.98,-264.3"/>
<polygon fill="#63b8ff" stroke="#63b8ff" points="308.54,-284.02 299.44,-289.45 309.94,-290.88 308.54,-284.02"/>
</a>
</g>
</g>
<!-- Node10 -->
<g id="Node000010" class="node">
<title>Node10</title>
<g id="a_Node000010"><a xlink:href="classdrake_1_1examples_1_1pendulum_1_1_pendulum_state.html" target="_top" xlink:title="Specializes BasicVector with specific getters and setters.">
<ellipse fill="white" stroke="#666666" cx="498.39" cy="-209.44" rx="84.29" ry="13.37"/>
<text text-anchor="middle" x="498.39" y="-206.94" font-family="Helvetica,sans-Serif" font-size="10.00">PendulumState&lt; T &gt;</text>
</a>
</g>
</g>
<!-- Node1&#45;&gt;Node10 -->
<g id="edge552_Node000001_Node000010" class="edge">
<title>Node1&#45;&gt;Node10</title>
<g id="a_edge552_Node000001_Node000010"><a xlink:title=" ">
<path fill="none" stroke="#63b8ff" d="M307.69,-285.49C313.6,-282.93 319.33,-279.94 324.5,-276.44 345.41,-262.25 338.65,-245.12 360.5,-232.44 377.59,-222.52 397.78,-216.59 417.32,-213.12"/>
<polygon fill="#63b8ff" stroke="#63b8ff" points="306.36,-282.25 298.31,-289.15 308.9,-288.77 306.36,-282.25"/>
</a>
</g>
</g>
<!-- Node11 -->
<g id="Node000011" class="node">
<title>Node11</title>
<g id="a_Node000011"><a xlink:href="classdrake_1_1examples_1_1rimless__wheel_1_1_rimless_wheel_continuous_state.html" target="_top" xlink:title="Specializes BasicVector with specific getters and setters.">
<ellipse fill="white" stroke="#666666" cx="498.39" cy="-164.44" rx="137.77" ry="13.37"/>
<text text-anchor="middle" x="498.39" y="-161.94" font-family="Helvetica,sans-Serif" font-size="10.00">RimlessWheelContinuousState&lt; T &gt;</text>
</a>
</g>
</g>
<!-- Node1&#45;&gt;Node11 -->
<g id="edge553_Node000001_Node000011" class="edge">
<title>Node1&#45;&gt;Node11</title>
<g id="a_edge553_Node000001_Node000011"><a xlink:title=" ">
<path fill="none" stroke="#63b8ff" d="M311.6,-285.54C316.27,-282.99 320.66,-279.99 324.5,-276.44 355.81,-247.45 327.23,-214.15 360.5,-187.44 368.39,-181.1 377.38,-176.22 386.89,-172.5"/>
<polygon fill="#63b8ff" stroke="#63b8ff" points="309.9,-282.47 302.32,-289.87 312.86,-288.81 309.9,-282.47"/>
</a>
</g>
</g>
<!-- Node12 -->
<g id="Node000012" class="node">
<title>Node12</title>
<g id="a_Node000012"><a xlink:href="classdrake_1_1examples_1_1rimless__wheel_1_1_rimless_wheel_params.html" target="_top" xlink:title="Specializes BasicVector with specific getters and setters.">
<ellipse fill="white" stroke="#666666" cx="498.39" cy="-119.44" rx="106.55" ry="13.37"/>
<text text-anchor="middle" x="498.39" y="-116.94" font-family="Helvetica,sans-Serif" font-size="10.00">RimlessWheelParams&lt; T &gt;</text>
</a>
</g>
</g>
<!-- Node1&#45;&gt;Node12 -->
<g id="edge554_Node000001_Node000012" class="edge">
<title>Node1&#45;&gt;Node12</title>
<g id="a_edge554_Node000001_Node000012"><a xlink:title=" ">
<path fill="none" stroke="#63b8ff" d="M312.83,-285.58C317.12,-283.03 321.08,-280.01 324.5,-276.44 367.12,-231.87 314.85,-183.9 360.5,-142.44 370.4,-133.44 382.44,-127.27 395.23,-123.11"/>
<polygon fill="#63b8ff" stroke="#63b8ff" points="311.03,-282.56 303.67,-290.18 314.18,-288.82 311.03,-282.56"/>
</a>
</g>
</g>
<!-- Node13 -->
<g id="Node000013" class="node">
<title>Node13</title>
<g id="a_Node000013"><a xlink:href="classdrake_1_1manipulation_1_1schunk__wsg_1_1_schunk_wsg_trajectory_generator_state_vector.html" target="_top" xlink:title="Specializes BasicVector with specific getters and setters.">
<ellipse fill="white" stroke="#666666" cx="498.39" cy="-66.44" rx="120.42" ry="21.43"/>
<text text-anchor="start" x="421.39" y="-69.44" font-family="Helvetica,sans-Serif" font-size="10.00">SchunkWsgTrajectoryGenerator</text>
<text text-anchor="middle" x="498.39" y="-58.44" font-family="Helvetica,sans-Serif" font-size="10.00">StateVector&lt; T &gt;</text>
</a>
</g>
</g>
<!-- Node1&#45;&gt;Node13 -->
<g id="edge555_Node000001_Node000013" class="edge">
<title>Node1&#45;&gt;Node13</title>
<g id="a_edge555_Node000001_Node000013"><a xlink:title=" ">
<path fill="none" stroke="#63b8ff" d="M313.29,-285.69C317.44,-283.11 321.25,-280.06 324.5,-276.44 378.68,-216.03 303.82,-155.51 360.5,-97.44 369.52,-88.19 380.67,-81.45 392.69,-76.57"/>
<polygon fill="#63b8ff" stroke="#63b8ff" points="311.62,-282.61 304.37,-290.33 314.86,-288.82 311.62,-282.61"/>
</a>
</g>
</g>
<!-- Node14 -->
<g id="Node000014" class="node">
<title>Node14</title>
<g id="a_Node000014"><a xlink:href="classdrake_1_1systems_1_1sensors_1_1_beam_model_params.html" target="_top" xlink:title="Specializes BasicVector with specific getters and setters.">
<ellipse fill="white" stroke="#666666" cx="498.39" cy="-13.44" rx="98.99" ry="13.37"/>
<text text-anchor="middle" x="498.39" y="-10.94" font-family="Helvetica,sans-Serif" font-size="10.00">BeamModelParams&lt; T &gt;</text>
</a>
</g>
</g>
<!-- Node1&#45;&gt;Node14 -->
<g id="edge556_Node000001_Node000014" class="edge">
<title>Node1&#45;&gt;Node14</title>
<g id="a_edge556_Node000001_Node000014"><a xlink:title=" ">
<path fill="none" stroke="#63b8ff" d="M314,-285.53C317.91,-282.98 321.48,-279.98 324.5,-276.44 394.5,-194.38 284.9,-113.37 360.5,-36.44 371.14,-25.61 384.83,-18.71 399.43,-14.48"/>
<polygon fill="#63b8ff" stroke="#63b8ff" points="312.13,-282.56 305,-290.4 315.46,-288.72 312.13,-282.56"/>
</a>
</g>
</g>
</g>
</svg>
