<?xml version="1.0" encoding="UTF-8" standalone="no"?>
<!DOCTYPE svg PUBLIC "-//W3C//DTD SVG 1.1//EN"
 "http://www.w3.org/Graphics/SVG/1.1/DTD/svg11.dtd">
<!-- Generated by graphviz version 2.43.0 (0)
 -->
<!-- Title: drake/geometry/render_gl/internal_opengl_includes.h Pages: 1 -->
<svg width="844pt" height="184pt"
 viewBox="0.00 0.00 844.00 184.00" xmlns="http://www.w3.org/2000/svg" xmlns:xlink="http://www.w3.org/1999/xlink">
<g id="graph0" class="graph" transform="scale(1 1) rotate(0) translate(4 180)">
<title>drake/geometry/render_gl/internal_opengl_includes.h</title>
<polygon fill="white" stroke="transparent" points="-4,4 -4,-180 840,-180 840,4 -4,4"/>
<!-- Node2 -->
<g id="node1" class="node">
<title>Node2</title>
<g id="a_node1"><a xlink:title=" ">
<polygon fill="#bfbfbf" stroke="black" points="339,-145.5 339,-175.5 503,-175.5 503,-145.5 339,-145.5"/>
<text text-anchor="start" x="347" y="-163.5" font-family="Helvetica,sans-Serif" font-size="10.00">drake/geometry/render</text>
<text text-anchor="middle" x="421" y="-152.5" font-family="Helvetica,sans-Serif" font-size="10.00">_gl/internal_opengl_includes.h</text>
</a>
</g>
</g>
<!-- Node3 -->
<g id="node2" class="node">
<title>Node3</title>
<g id="a_node2"><a xlink:href="internal__buffer__dim_8h.html" target="_top" xlink:title=" ">
<polygon fill="white" stroke="black" points="0,-73 0,-103 138,-103 138,-73 0,-73"/>
<text text-anchor="start" x="8" y="-91" font-family="Helvetica,sans-Serif" font-size="10.00">drake/geometry/render</text>
<text text-anchor="middle" x="69" y="-80" font-family="Helvetica,sans-Serif" font-size="10.00">_gl/internal_buffer_dim.h</text>
</a>
</g>
</g>
<!-- Node2&#45;&gt;Node3 -->
<g id="edge1" class="edge">
<title>Node2&#45;&gt;Node3</title>
<path fill="none" stroke="midnightblue" d="M328.76,-144.13C275.47,-134.84 207.25,-122.26 147,-109 138.81,-107.2 130.17,-105.14 121.75,-103.05"/>
<polygon fill="midnightblue" stroke="midnightblue" points="328.42,-147.62 338.88,-145.88 329.62,-140.73 328.42,-147.62"/>
</g>
<!-- Node5 -->
<g id="node4" class="node">
<title>Node5</title>
<g id="a_node4"><a xlink:href="internal__opengl__context_8h.html" target="_top" xlink:title=" ">
<polygon fill="white" stroke="black" points="156.5,-73 156.5,-103 317.5,-103 317.5,-73 156.5,-73"/>
<text text-anchor="start" x="164.5" y="-91" font-family="Helvetica,sans-Serif" font-size="10.00">drake/geometry/render</text>
<text text-anchor="middle" x="237" y="-80" font-family="Helvetica,sans-Serif" font-size="10.00">_gl/internal_opengl_context.h</text>
</a>
</g>
</g>
<!-- Node2&#45;&gt;Node5 -->
<g id="edge3" class="edge">
<title>Node2&#45;&gt;Node5</title>
<path fill="none" stroke="midnightblue" d="M374.83,-141.81C343.56,-129.83 302.8,-114.21 273.73,-103.07"/>
<polygon fill="midnightblue" stroke="midnightblue" points="373.62,-145.09 384.21,-145.4 376.12,-138.56 373.62,-145.09"/>
</g>
<!-- Node6 -->
<g id="node5" class="node">
<title>Node6</title>
<g id="a_node5"><a xlink:href="internal__opengl__geometry_8h.html" target="_top" xlink:title=" ">
<polygon fill="white" stroke="black" points="336,-73 336,-103 506,-103 506,-73 336,-73"/>
<text text-anchor="start" x="344" y="-91" font-family="Helvetica,sans-Serif" font-size="10.00">drake/geometry/render</text>
<text text-anchor="middle" x="421" y="-80" font-family="Helvetica,sans-Serif" font-size="10.00">_gl/internal_opengl_geometry.h</text>
</a>
</g>
</g>
<!-- Node2&#45;&gt;Node6 -->
<g id="edge5" class="edge">
<title>Node2&#45;&gt;Node6</title>
<path fill="none" stroke="midnightblue" d="M421,-135.23C421,-124.57 421,-112.41 421,-103.25"/>
<polygon fill="midnightblue" stroke="midnightblue" points="417.5,-135.23 421,-145.23 424.5,-135.23 417.5,-135.23"/>
</g>
<!-- Node7 -->
<g id="node6" class="node">
<title>Node7</title>
<g id="a_node6"><a xlink:href="internal__shader__program_8h.html" target="_top" xlink:title=" ">
<polygon fill="white" stroke="black" points="524.5,-73 524.5,-103 689.5,-103 689.5,-73 524.5,-73"/>
<text text-anchor="start" x="532.5" y="-91" font-family="Helvetica,sans-Serif" font-size="10.00">drake/geometry/render</text>
<text text-anchor="middle" x="607" y="-80" font-family="Helvetica,sans-Serif" font-size="10.00">_gl/internal_shader_program.h</text>
</a>
</g>
</g>
<!-- Node2&#45;&gt;Node7 -->
<g id="edge7" class="edge">
<title>Node2&#45;&gt;Node7</title>
<path fill="none" stroke="midnightblue" d="M467.67,-141.81C499.28,-129.83 540.49,-114.21 569.87,-103.07"/>
<polygon fill="midnightblue" stroke="midnightblue" points="466.3,-138.59 458.19,-145.4 468.78,-145.13 466.3,-138.59"/>
</g>
<!-- Node8 -->
<g id="node7" class="node">
<title>Node8</title>
<g id="a_node7"><a xlink:href="internal__texture__library_8h.html" target="_top" xlink:title=" ">
<polygon fill="white" stroke="black" points="708,-67.5 708,-108.5 836,-108.5 836,-67.5 708,-67.5"/>
<text text-anchor="start" x="716" y="-96.5" font-family="Helvetica,sans-Serif" font-size="10.00">drake/geometry/render</text>
<text text-anchor="start" x="716" y="-85.5" font-family="Helvetica,sans-Serif" font-size="10.00">_gl/internal_texture</text>
<text text-anchor="middle" x="772" y="-74.5" font-family="Helvetica,sans-Serif" font-size="10.00">_library.h</text>
</a>
</g>
</g>
<!-- Node2&#45;&gt;Node8 -->
<g id="edge9" class="edge">
<title>Node2&#45;&gt;Node8</title>
<path fill="none" stroke="midnightblue" d="M513.15,-144.85C567.47,-135.69 637.42,-123 699,-109 701.95,-108.33 704.95,-107.62 707.99,-106.88"/>
<polygon fill="midnightblue" stroke="midnightblue" points="512.47,-141.41 503.19,-146.52 513.63,-148.32 512.47,-141.41"/>
</g>
<!-- Node4 -->
<g id="node3" class="node">
<title>Node4</title>
<g id="a_node3"><a xlink:href="internal__render__engine__gl_8h.html" target="_top" xlink:title=" ">
<polygon fill="white" stroke="black" points="336,-0.5 336,-30.5 506,-30.5 506,-0.5 336,-0.5"/>
<text text-anchor="start" x="344" y="-18.5" font-family="Helvetica,sans-Serif" font-size="10.00">drake/geometry/render</text>
<text text-anchor="middle" x="421" y="-7.5" font-family="Helvetica,sans-Serif" font-size="10.00">_gl/internal_render_engine_gl.h</text>
</a>
</g>
</g>
<!-- Node3&#45;&gt;Node4 -->
<g id="edge2" class="edge">
<title>Node3&#45;&gt;Node4</title>
<path fill="none" stroke="midnightblue" d="M131.68,-70.53C136.85,-69.29 142.01,-68.1 147,-67 210.18,-53.09 282.14,-39.93 336.45,-30.54"/>
<polygon fill="midnightblue" stroke="midnightblue" points="130.63,-67.18 121.75,-72.95 132.29,-73.98 130.63,-67.18"/>
</g>
<!-- Node5&#45;&gt;Node4 -->
<g id="edge4" class="edge">
<title>Node5&#45;&gt;Node4</title>
<path fill="none" stroke="midnightblue" d="M283.17,-69.31C314.44,-57.33 355.2,-41.71 384.27,-30.57"/>
<polygon fill="midnightblue" stroke="midnightblue" points="281.88,-66.06 273.79,-72.9 284.38,-72.59 281.88,-66.06"/>
</g>
<!-- Node6&#45;&gt;Node4 -->
<g id="edge6" class="edge">
<title>Node6&#45;&gt;Node4</title>
<path fill="none" stroke="midnightblue" d="M421,-62.73C421,-52.07 421,-39.91 421,-30.75"/>
<polygon fill="midnightblue" stroke="midnightblue" points="417.5,-62.73 421,-72.73 424.5,-62.73 417.5,-62.73"/>
</g>
<!-- Node7&#45;&gt;Node4 -->
<g id="edge8" class="edge">
<title>Node7&#45;&gt;Node4</title>
<path fill="none" stroke="midnightblue" d="M560.33,-69.31C528.72,-57.33 487.51,-41.71 458.13,-30.57"/>
<polygon fill="midnightblue" stroke="midnightblue" points="559.22,-72.63 569.81,-72.9 561.7,-66.09 559.22,-72.63"/>
</g>
<!-- Node8&#45;&gt;Node4 -->
<g id="edge10" class="edge">
<title>Node8&#45;&gt;Node4</title>
<path fill="none" stroke="midnightblue" d="M698.12,-66.89C628.23,-51.22 558.99,-38.81 506.25,-30"/>
<polygon fill="midnightblue" stroke="midnightblue" points="697.46,-70.33 707.99,-69.12 699,-63.5 697.46,-70.33"/>
</g>
</g>
</svg>
