<?xml version="1.0" encoding="UTF-8" standalone="no"?>
<!DOCTYPE svg PUBLIC "-//W3C//DTD SVG 1.1//EN"
 "http://www.w3.org/Graphics/SVG/1.1/DTD/svg11.dtd">
<!-- Generated by graphviz version 2.43.0 (0)
 -->
<!-- Title: drake/lcm/lcm_messages.h Pages: 1 -->
<!--zoomable 229 -->
<svg id="main" version="1.1" xmlns="http://www.w3.org/2000/svg" xmlns:xlink="http://www.w3.org/1999/xlink" xml:space="preserve" onload="init(evt)">
<style type="text/css"><![CDATA[
.edge:hover path { stroke: red; }
.edge:hover polygon { stroke: red; fill: red; }
]]></style>
<script type="text/javascript"><![CDATA[
var edges = document.getElementsByTagName('g');
if (edges && edges.length) {
  for (var i=0;i<edges.length;i++) {
    if (edges[i].id.substr(0,4)=='edge') {
      edges[i].setAttribute('class','edge');
    }
  }
}
]]></script>
        <defs>
                <circle id="rim" cx="0" cy="0" r="7"/>
                <circle id="rim2" cx="0" cy="0" r="3.5"/>
                <g id="zoomPlus">
                        <use xlink:href="#rim" fill="#404040">
                                <set attributeName="fill" to="#808080" begin="zoomplus.mouseover" end="zoomplus.mouseout"/>
                        </use>
                        <path d="M-4,0h8M0,-4v8" fill="none" stroke="white" stroke-width="1.5" pointer-events="none"/>
                </g>
                <g id="zoomMin">
                        <use xlink:href="#rim" fill="#404040">
                                <set attributeName="fill" to="#808080" begin="zoomminus.mouseover" end="zoomminus.mouseout"/>
                        </use>
                        <path d="M-4,0h8" fill="none" stroke="white" stroke-width="1.5" pointer-events="none"/>
                </g>
                <g id="dirArrow">
                        <path fill="none" stroke="white" stroke-width="1.5" d="M0,-3.0v7 M-2.5,-0.5L0,-3.0L2.5,-0.5"/>
                </g>
               <g id="resetDef">
                       <use xlink:href="#rim2" fill="#404040">
                               <set attributeName="fill" to="#808080" begin="reset.mouseover" end="reset.mouseout"/>
                       </use>
               </g>
        </defs>

<script type="text/javascript">
var viewWidth = 685;
var viewHeight = 229;
var sectionId = 'dynsection-0';
</script>
<script xlink:href="svgpan.js"/>
<svg id="graph" class="graph">
<g id="viewport">
<title>drake/lcm/lcm_messages.h</title>
<polygon fill="white" stroke="transparent" points="-4,4 -4,-225 680.5,-225 680.5,4 -4,4"/>
<!-- Node0 -->
<g id="node1" class="node">
<title>Node0</title>
<g id="a_node1"><a xlink:title=" ">
<polygon fill="#bfbfbf" stroke="black" points="87.5,-201.5 87.5,-220.5 236.5,-220.5 236.5,-201.5 87.5,-201.5"/>
<text text-anchor="middle" x="162" y="-208.5" font-family="Helvetica,sans-Serif" font-size="10.00">drake/lcm/lcm_messages.h</text>
</a>
</g>
</g>
<!-- Node1 -->
<g id="node2" class="node">
<title>Node1</title>
<g id="a_node2"><a xlink:title=" ">
<polygon fill="white" stroke="#bfbfbf" points="0,-140 0,-159 50,-159 50,-140 0,-140"/>
<text text-anchor="middle" x="25" y="-147" font-family="Helvetica,sans-Serif" font-size="10.00">cstdint</text>
</a>
</g>
</g>
<!-- Node0&#45;&gt;Node1 -->
<g id="edge1" class="edge">
<title>Node0&#45;&gt;Node1</title>
<path fill="none" stroke="midnightblue" d="M142.37,-201.48C119.18,-191.4 80.38,-174.55 53.79,-163"/>
<polygon fill="midnightblue" stroke="midnightblue" points="55.16,-159.78 44.59,-159.01 52.37,-166.2 55.16,-159.78"/>
</g>
<!-- Node2 -->
<g id="node3" class="node">
<title>Node2</title>
<g id="a_node3"><a xlink:title=" ">
<polygon fill="white" stroke="#bfbfbf" points="68.5,-140 68.5,-159 133.5,-159 133.5,-140 68.5,-140"/>
<text text-anchor="middle" x="101" y="-147" font-family="Helvetica,sans-Serif" font-size="10.00">stdexcept</text>
</a>
</g>
</g>
<!-- Node0&#45;&gt;Node2 -->
<g id="edge2" class="edge">
<title>Node0&#45;&gt;Node2</title>
<path fill="none" stroke="midnightblue" d="M153.26,-201.48C143.84,-192.28 128.64,-177.46 117.05,-166.16"/>
<polygon fill="midnightblue" stroke="midnightblue" points="119.33,-163.49 109.72,-159.01 114.44,-168.5 119.33,-163.49"/>
</g>
<!-- Node3 -->
<g id="node4" class="node">
<title>Node3</title>
<g id="a_node4"><a xlink:title=" ">
<polygon fill="white" stroke="#bfbfbf" points="62.5,-73 62.5,-92 109.5,-92 109.5,-73 62.5,-73"/>
<text text-anchor="middle" x="86" y="-80" font-family="Helvetica,sans-Serif" font-size="10.00">vector</text>
</a>
</g>
</g>
<!-- Node0&#45;&gt;Node3 -->
<g id="edge3" class="edge">
<title>Node0&#45;&gt;Node3</title>
<path fill="none" stroke="midnightblue" d="M161.34,-201.4C159.88,-186.62 155.34,-155.91 142,-134 133.34,-119.79 119.47,-107.23 107.7,-98.2"/>
<polygon fill="midnightblue" stroke="midnightblue" points="109.74,-95.36 99.61,-92.27 105.6,-101 109.74,-95.36"/>
</g>
<!-- Node4 -->
<g id="node5" class="node">
<title>Node4</title>
<g id="a_node5"><a xlink:href="drake__throw_8h.html" target="_top" xlink:title="Provides a convenient wrapper to throw an exception when a condition is unmet.">
<polygon fill="white" stroke="black" points="469.5,-134.5 469.5,-164.5 588.5,-164.5 588.5,-134.5 469.5,-134.5"/>
<text text-anchor="start" x="477.5" y="-152.5" font-family="Helvetica,sans-Serif" font-size="10.00">drake/common/drake</text>
<text text-anchor="middle" x="529" y="-141.5" font-family="Helvetica,sans-Serif" font-size="10.00">_throw.h</text>
</a>
</g>
</g>
<!-- Node0&#45;&gt;Node4 -->
<g id="edge4" class="edge">
<title>Node0&#45;&gt;Node4</title>
<path fill="none" stroke="midnightblue" d="M214.58,-201.48C278.81,-191.06 387.69,-173.41 458.97,-161.85"/>
<polygon fill="midnightblue" stroke="midnightblue" points="459.89,-165.25 469.21,-160.19 458.77,-158.34 459.89,-165.25"/>
</g>
<!-- Node7 -->
<g id="node8" class="node">
<title>Node7</title>
<g id="a_node8"><a xlink:href="nice__type__name_8h.html" target="_top" xlink:title=" ">
<polygon fill="white" stroke="black" points="190,-134.5 190,-164.5 330,-164.5 330,-134.5 190,-134.5"/>
<text text-anchor="start" x="198" y="-152.5" font-family="Helvetica,sans-Serif" font-size="10.00">drake/common/nice_type</text>
<text text-anchor="middle" x="260" y="-141.5" font-family="Helvetica,sans-Serif" font-size="10.00">_name.h</text>
</a>
</g>
</g>
<!-- Node0&#45;&gt;Node7 -->
<g id="edge8" class="edge">
<title>Node0&#45;&gt;Node7</title>
<path fill="none" stroke="midnightblue" d="M176.04,-201.48C189.56,-193.27 210.49,-180.56 228.07,-169.88"/>
<polygon fill="midnightblue" stroke="midnightblue" points="230.17,-172.7 236.9,-164.52 226.54,-166.72 230.17,-172.7"/>
</g>
<!-- Node5 -->
<g id="node6" class="node">
<title>Node5</title>
<g id="a_node6"><a xlink:title=" ">
<polygon fill="white" stroke="#bfbfbf" points="582.5,-6 582.5,-25 651.5,-25 651.5,-6 582.5,-6"/>
<text text-anchor="middle" x="617" y="-13" font-family="Helvetica,sans-Serif" font-size="10.00">type_traits</text>
</a>
</g>
</g>
<!-- Node4&#45;&gt;Node5 -->
<g id="edge5" class="edge">
<title>Node4&#45;&gt;Node5</title>
<path fill="none" stroke="midnightblue" d="M529.59,-134.38C530.92,-117.14 535.22,-87.75 549,-67 559.35,-51.43 576.19,-38.86 590.52,-30.17"/>
<polygon fill="midnightblue" stroke="midnightblue" points="592.56,-33.03 599.49,-25.01 589.07,-26.96 592.56,-33.03"/>
</g>
<!-- Node6 -->
<g id="node7" class="node">
<title>Node6</title>
<g id="a_node7"><a xlink:href="drake__assert_8h.html" target="_top" xlink:title="Provides Drake&#39;s assertion implementation.">
<polygon fill="white" stroke="black" points="557.5,-67.5 557.5,-97.5 676.5,-97.5 676.5,-67.5 557.5,-67.5"/>
<text text-anchor="start" x="565.5" y="-85.5" font-family="Helvetica,sans-Serif" font-size="10.00">drake/common/drake</text>
<text text-anchor="middle" x="617" y="-74.5" font-family="Helvetica,sans-Serif" font-size="10.00">_assert.h</text>
</a>
</g>
</g>
<!-- Node4&#45;&gt;Node6 -->
<g id="edge6" class="edge">
<title>Node4&#45;&gt;Node6</title>
<path fill="none" stroke="midnightblue" d="M548.09,-134.4C560.32,-125.37 576.37,-113.51 589.9,-103.52"/>
<polygon fill="midnightblue" stroke="midnightblue" points="591.98,-106.33 597.94,-97.58 587.82,-100.7 591.98,-106.33"/>
</g>
<!-- Node6&#45;&gt;Node5 -->
<g id="edge7" class="edge">
<title>Node6&#45;&gt;Node5</title>
<path fill="none" stroke="midnightblue" d="M617,-67.4C617,-58.06 617,-45.71 617,-35.52"/>
<polygon fill="midnightblue" stroke="midnightblue" points="620.5,-35.19 617,-25.19 613.5,-35.19 620.5,-35.19"/>
</g>
<!-- Node7&#45;&gt;Node3 -->
<g id="edge13" class="edge">
<title>Node7&#45;&gt;Node3</title>
<path fill="none" stroke="midnightblue" d="M218.38,-134.45C190.15,-124.71 152.1,-111.18 119,-98 117.4,-97.36 115.77,-96.7 114.12,-96.01"/>
<polygon fill="midnightblue" stroke="midnightblue" points="115.32,-92.72 104.75,-92.01 112.57,-99.16 115.32,-92.72"/>
</g>
<!-- Node8 -->
<g id="node9" class="node">
<title>Node8</title>
<g id="a_node9"><a xlink:title=" ">
<polygon fill="white" stroke="#bfbfbf" points="128,-73 128,-92 186,-92 186,-73 128,-73"/>
<text text-anchor="middle" x="157" y="-80" font-family="Helvetica,sans-Serif" font-size="10.00">memory</text>
</a>
</g>
</g>
<!-- Node7&#45;&gt;Node8 -->
<g id="edge9" class="edge">
<title>Node7&#45;&gt;Node8</title>
<path fill="none" stroke="midnightblue" d="M237.65,-134.4C220.38,-123.5 196.58,-108.48 179.32,-97.58"/>
<polygon fill="midnightblue" stroke="midnightblue" points="180.81,-94.38 170.48,-92.01 177.07,-100.3 180.81,-94.38"/>
</g>
<!-- Node9 -->
<g id="node10" class="node">
<title>Node9</title>
<g id="a_node10"><a xlink:title=" ">
<polygon fill="white" stroke="#bfbfbf" points="204,-73 204,-92 248,-92 248,-73 204,-73"/>
<text text-anchor="middle" x="226" y="-80" font-family="Helvetica,sans-Serif" font-size="10.00">string</text>
</a>
</g>
</g>
<!-- Node7&#45;&gt;Node9 -->
<g id="edge10" class="edge">
<title>Node7&#45;&gt;Node9</title>
<path fill="none" stroke="midnightblue" d="M252.62,-134.4C247.53,-124.66 240.72,-111.65 235.27,-101.21"/>
<polygon fill="midnightblue" stroke="midnightblue" points="238.28,-99.43 230.55,-92.19 232.08,-102.68 238.28,-99.43"/>
</g>
<!-- Node10 -->
<g id="node11" class="node">
<title>Node10</title>
<g id="a_node11"><a xlink:title=" ">
<polygon fill="white" stroke="#bfbfbf" points="266.5,-73 266.5,-92 323.5,-92 323.5,-73 266.5,-73"/>
<text text-anchor="middle" x="295" y="-80" font-family="Helvetica,sans-Serif" font-size="10.00">typeinfo</text>
</a>
</g>
</g>
<!-- Node7&#45;&gt;Node10 -->
<g id="edge11" class="edge">
<title>Node7&#45;&gt;Node10</title>
<path fill="none" stroke="midnightblue" d="M267.59,-134.4C272.84,-124.66 279.84,-111.65 285.46,-101.21"/>
<polygon fill="midnightblue" stroke="midnightblue" points="288.66,-102.66 290.32,-92.19 282.5,-99.34 288.66,-102.66"/>
</g>
<!-- Node11 -->
<g id="node12" class="node">
<title>Node11</title>
<g id="a_node12"><a xlink:title=" ">
<polygon fill="white" stroke="#bfbfbf" points="327.5,-6 327.5,-25 372.5,-25 372.5,-6 327.5,-6"/>
<text text-anchor="middle" x="350" y="-13" font-family="Helvetica,sans-Serif" font-size="10.00">utility</text>
</a>
</g>
</g>
<!-- Node7&#45;&gt;Node11 -->
<g id="edge12" class="edge">
<title>Node7&#45;&gt;Node11</title>
<path fill="none" stroke="midnightblue" d="M290.52,-134.35C305.54,-125.87 322.61,-113.67 333,-98 345.52,-79.13 349.08,-52.83 349.96,-35.26"/>
<polygon fill="midnightblue" stroke="midnightblue" points="353.46,-35.23 350.22,-25.14 346.47,-35.05 353.46,-35.23"/>
</g>
<!-- Node12 -->
<g id="node13" class="node">
<title>Node12</title>
<g id="a_node13"><a xlink:href="never__destroyed_8h.html" target="_top" xlink:title=" ">
<polygon fill="white" stroke="black" points="380,-67.5 380,-97.5 500,-97.5 500,-67.5 380,-67.5"/>
<text text-anchor="start" x="388" y="-85.5" font-family="Helvetica,sans-Serif" font-size="10.00">drake/common/never</text>
<text text-anchor="middle" x="440" y="-74.5" font-family="Helvetica,sans-Serif" font-size="10.00">_destroyed.h</text>
</a>
</g>
</g>
<!-- Node7&#45;&gt;Node12 -->
<g id="edge14" class="edge">
<title>Node7&#45;&gt;Node12</title>
<path fill="none" stroke="midnightblue" d="M299.06,-134.4C326.18,-124.6 362.51,-111.48 391.5,-101.02"/>
<polygon fill="midnightblue" stroke="midnightblue" points="392.8,-104.26 401.02,-97.58 390.42,-97.68 392.8,-104.26"/>
</g>
<!-- Node12&#45;&gt;Node5 -->
<g id="edge16" class="edge">
<title>Node12&#45;&gt;Node5</title>
<path fill="none" stroke="midnightblue" d="M478.41,-67.4C510.01,-55.79 554.33,-39.51 584.27,-28.52"/>
<polygon fill="midnightblue" stroke="midnightblue" points="585.65,-31.74 593.83,-25.01 583.24,-25.17 585.65,-31.74"/>
</g>
<!-- Node12&#45;&gt;Node11 -->
<g id="edge17" class="edge">
<title>Node12&#45;&gt;Node11</title>
<path fill="none" stroke="midnightblue" d="M420.47,-67.4C405.52,-56.6 384.97,-41.76 369.92,-30.89"/>
<polygon fill="midnightblue" stroke="midnightblue" points="371.93,-28.02 361.78,-25.01 367.84,-33.7 371.93,-28.02"/>
</g>
<!-- Node13 -->
<g id="node14" class="node">
<title>Node13</title>
<g id="a_node14"><a xlink:title=" ">
<polygon fill="white" stroke="#bfbfbf" points="390.5,-6 390.5,-25 427.5,-25 427.5,-6 390.5,-6"/>
<text text-anchor="middle" x="409" y="-13" font-family="Helvetica,sans-Serif" font-size="10.00">new</text>
</a>
</g>
</g>
<!-- Node12&#45;&gt;Node13 -->
<g id="edge15" class="edge">
<title>Node12&#45;&gt;Node13</title>
<path fill="none" stroke="midnightblue" d="M433.27,-67.4C428.68,-57.76 422.55,-44.91 417.6,-34.54"/>
<polygon fill="midnightblue" stroke="midnightblue" points="420.61,-32.71 413.15,-25.19 414.29,-35.73 420.61,-32.71"/>
</g>
<!-- Node14 -->
<g id="node15" class="node">
<title>Node14</title>
<g id="a_node15"><a xlink:href="drake__copyable_8h.html" target="_top" xlink:title="Provides careful macros to selectively enable or disable the special member functions for copy&#45;constr...">
<polygon fill="white" stroke="black" points="445.5,-0.5 445.5,-30.5 564.5,-30.5 564.5,-0.5 445.5,-0.5"/>
<text text-anchor="start" x="453.5" y="-18.5" font-family="Helvetica,sans-Serif" font-size="10.00">drake/common/drake</text>
<text text-anchor="middle" x="505" y="-7.5" font-family="Helvetica,sans-Serif" font-size="10.00">_copyable.h</text>
</a>
</g>
</g>
<!-- Node12&#45;&gt;Node14 -->
<g id="edge18" class="edge">
<title>Node12&#45;&gt;Node14</title>
<path fill="none" stroke="midnightblue" d="M454.1,-67.4C462.79,-58.71 474.1,-47.4 483.84,-37.66"/>
<polygon fill="midnightblue" stroke="midnightblue" points="486.33,-40.12 490.92,-30.58 481.38,-35.17 486.33,-40.12"/>
</g>
</g>
</svg>
        <g id="navigator" transform="translate(0 0)" fill="#404254">
                <rect fill="#f2f5e9" fill-opacity="0.5" stroke="#606060" stroke-width=".5" x="0" y="0" width="60" height="60"/>
                <use id="zoomplus" xlink:href="#zoomPlus" x="17" y="9" onmousedown="handleZoom(evt,'in')"/>
                <use id="zoomminus" xlink:href="#zoomMin" x="42" y="9" onmousedown="handleZoom(evt,'out')"/>
                <use id="reset" xlink:href="#resetDef" x="30" y="36" onmousedown="handleReset()"/>
                <g id="arrowUp" xlink:href="#dirArrow" transform="translate(30 24)" onmousedown="handlePan(0,-1)">
                  <use xlink:href="#rim" fill="#404040">
                        <set attributeName="fill" to="#808080" begin="arrowUp.mouseover" end="arrowUp.mouseout"/>
                  </use>
                  <path fill="none" stroke="white" stroke-width="1.5" d="M0,-3.0v7 M-2.5,-0.5L0,-3.0L2.5,-0.5"/>
                </g>
                <g id="arrowRight" xlink:href="#dirArrow" transform="rotate(90) translate(36 -43)" onmousedown="handlePan(1,0)">
                  <use xlink:href="#rim" fill="#404040">
                        <set attributeName="fill" to="#808080" begin="arrowRight.mouseover" end="arrowRight.mouseout"/>
                  </use>
                  <path fill="none" stroke="white" stroke-width="1.5" d="M0,-3.0v7 M-2.5,-0.5L0,-3.0L2.5,-0.5"/>
                </g>
                <g id="arrowDown" xlink:href="#dirArrow" transform="rotate(180) translate(-30 -48)" onmousedown="handlePan(0,1)">
                  <use xlink:href="#rim" fill="#404040">
                        <set attributeName="fill" to="#808080" begin="arrowDown.mouseover" end="arrowDown.mouseout"/>
                  </use>
                  <path fill="none" stroke="white" stroke-width="1.5" d="M0,-3.0v7 M-2.5,-0.5L0,-3.0L2.5,-0.5"/>
                </g>
                <g id="arrowLeft" xlink:href="#dirArrow" transform="rotate(270) translate(-36 17)" onmousedown="handlePan(-1,0)">
                  <use xlink:href="#rim" fill="#404040">
                        <set attributeName="fill" to="#808080" begin="arrowLeft.mouseover" end="arrowLeft.mouseout"/>
                  </use>
                  <path fill="none" stroke="white" stroke-width="1.5" d="M0,-3.0v7 M-2.5,-0.5L0,-3.0L2.5,-0.5"/>
                </g>
        </g>
        <svg viewBox="0 0 15 15" width="100%" height="30px" preserveAspectRatio="xMaxYMin meet">
         <g id="arrow_out" transform="scale(0.3 0.3)">
          <a xlink:href="lcm__messages_8h__incl_org.svg" target="_base">
           <rect id="button" ry="5" rx="5" y="6" x="6" height="38" width="38"
                fill="#f2f5e9" fill-opacity="0.5" stroke="#606060" stroke-width="1.0"/>
           <path id="arrow"
             d="M 11.500037,31.436501 C 11.940474,20.09759 22.043105,11.32322 32.158766,21.979434 L 37.068811,17.246167 C 37.068811,17.246167 37.088388,32 37.088388,32 L 22.160133,31.978069 C 22.160133,31.978069 26.997745,27.140456 26.997745,27.140456 C 18.528582,18.264221 13.291696,25.230495 11.500037,31.436501 z"
             style="fill:#404040;"/>
          </a>
         </g>
        </svg>
</svg>
