<?xml version="1.0" encoding="UTF-8" standalone="no"?>
<!DOCTYPE svg PUBLIC "-//W3C//DTD SVG 1.1//EN"
 "http://www.w3.org/Graphics/SVG/1.1/DTD/svg11.dtd">
<!-- Generated by graphviz version 2.43.0 (0)
 -->
<!-- Title: drake/systems/lcm/lcm_buses.h Pages: 1 -->
<svg width="1051pt" height="184pt"
 viewBox="0.00 0.00 1050.50 184.00" xmlns="http://www.w3.org/2000/svg" xmlns:xlink="http://www.w3.org/1999/xlink">
<g id="graph0" class="graph" transform="scale(1 1) rotate(0) translate(4 180)">
<title>drake/systems/lcm/lcm_buses.h</title>
<polygon fill="white" stroke="transparent" points="-4,4 -4,-180 1046.5,-180 1046.5,4 -4,4"/>
<!-- Node24 -->
<g id="node1" class="node">
<title>Node24</title>
<g id="a_node1"><a xlink:title=" ">
<polygon fill="#bfbfbf" stroke="black" points="465.5,-145.5 465.5,-175.5 595.5,-175.5 595.5,-145.5 465.5,-145.5"/>
<text text-anchor="start" x="473.5" y="-163.5" font-family="Helvetica,sans-Serif" font-size="10.00">drake/systems/lcm/lcm</text>
<text text-anchor="middle" x="530.5" y="-152.5" font-family="Helvetica,sans-Serif" font-size="10.00">_buses.h</text>
</a>
</g>
</g>
<!-- Node25 -->
<g id="node2" class="node">
<title>Node25</title>
<g id="a_node2"><a xlink:href="iiwa__driver__functions_8h.html" target="_top" xlink:title=" ">
<polygon fill="white" stroke="black" points="0,-67.5 0,-108.5 125,-108.5 125,-67.5 0,-67.5"/>
<text text-anchor="start" x="8" y="-96.5" font-family="Helvetica,sans-Serif" font-size="10.00">drake/manipulation</text>
<text text-anchor="start" x="8" y="-85.5" font-family="Helvetica,sans-Serif" font-size="10.00">/kuka_iiwa/iiwa_driver</text>
<text text-anchor="middle" x="62.5" y="-74.5" font-family="Helvetica,sans-Serif" font-size="10.00">_functions.h</text>
</a>
</g>
</g>
<!-- Node24&#45;&gt;Node25 -->
<g id="edge1" class="edge">
<title>Node24&#45;&gt;Node25</title>
<path fill="none" stroke="midnightblue" d="M455.22,-153.16C375.16,-145.65 245.1,-131.29 134.5,-109 131.45,-108.38 128.34,-107.71 125.2,-106.99"/>
<polygon fill="midnightblue" stroke="midnightblue" points="454.93,-156.64 465.21,-154.08 455.58,-149.67 454.93,-156.64"/>
</g>
<!-- Node26 -->
<g id="node3" class="node">
<title>Node26</title>
<g id="a_node3"><a xlink:href="schunk__wsg__driver__functions_8h.html" target="_top" xlink:title=" ">
<polygon fill="white" stroke="black" points="143,-67.5 143,-108.5 284,-108.5 284,-67.5 143,-67.5"/>
<text text-anchor="start" x="151" y="-96.5" font-family="Helvetica,sans-Serif" font-size="10.00">drake/manipulation</text>
<text text-anchor="start" x="151" y="-85.5" font-family="Helvetica,sans-Serif" font-size="10.00">/schunk_wsg/schunk_wsg</text>
<text text-anchor="middle" x="213.5" y="-74.5" font-family="Helvetica,sans-Serif" font-size="10.00">_driver_functions.h</text>
</a>
</g>
</g>
<!-- Node24&#45;&gt;Node26 -->
<g id="edge2" class="edge">
<title>Node24&#45;&gt;Node26</title>
<path fill="none" stroke="midnightblue" d="M455.45,-144.21C408.76,-134.52 347.53,-121.51 293.5,-109 290.43,-108.29 287.3,-107.55 284.14,-106.8"/>
<polygon fill="midnightblue" stroke="midnightblue" points="454.98,-147.69 465.48,-146.29 456.4,-140.83 454.98,-147.69"/>
</g>
<!-- Node27 -->
<g id="node4" class="node">
<title>Node27</title>
<g id="a_node4"><a xlink:href="apply__driver__configs_8h.html" target="_top" xlink:title=" ">
<polygon fill="white" stroke="black" points="302.5,-73 302.5,-103 450.5,-103 450.5,-73 302.5,-73"/>
<text text-anchor="start" x="310.5" y="-91" font-family="Helvetica,sans-Serif" font-size="10.00">drake/manipulation</text>
<text text-anchor="middle" x="376.5" y="-80" font-family="Helvetica,sans-Serif" font-size="10.00">/util/apply_driver_configs.h</text>
</a>
</g>
</g>
<!-- Node24&#45;&gt;Node27 -->
<g id="edge3" class="edge">
<title>Node24&#45;&gt;Node27</title>
<path fill="none" stroke="midnightblue" d="M490.5,-141.19C464.51,-129.29 431.15,-114.02 407.24,-103.07"/>
<polygon fill="midnightblue" stroke="midnightblue" points="489.16,-144.42 499.71,-145.4 492.07,-138.06 489.16,-144.42"/>
</g>
<!-- Node28 -->
<g id="node5" class="node">
<title>Node28</title>
<g id="a_node5"><a xlink:href="zero__force__driver__functions_8h.html" target="_top" xlink:title=" ">
<polygon fill="white" stroke="black" points="469,-67.5 469,-108.5 592,-108.5 592,-67.5 469,-67.5"/>
<text text-anchor="start" x="477" y="-96.5" font-family="Helvetica,sans-Serif" font-size="10.00">drake/manipulation</text>
<text text-anchor="start" x="477" y="-85.5" font-family="Helvetica,sans-Serif" font-size="10.00">/util/zero_force_driver</text>
<text text-anchor="middle" x="530.5" y="-74.5" font-family="Helvetica,sans-Serif" font-size="10.00">_functions.h</text>
</a>
</g>
</g>
<!-- Node24&#45;&gt;Node28 -->
<g id="edge4" class="edge">
<title>Node24&#45;&gt;Node28</title>
<path fill="none" stroke="midnightblue" d="M530.5,-134.98C530.5,-126.35 530.5,-116.76 530.5,-108.59"/>
<polygon fill="midnightblue" stroke="midnightblue" points="527,-135.23 530.5,-145.23 534,-135.23 527,-135.23"/>
</g>
<!-- Node29 -->
<g id="node6" class="node">
<title>Node29</title>
<g id="a_node6"><a xlink:href="visualization__config__functions_8h.html" target="_top" xlink:title=" ">
<polygon fill="white" stroke="black" points="610.5,-67.5 610.5,-108.5 726.5,-108.5 726.5,-67.5 610.5,-67.5"/>
<text text-anchor="start" x="618.5" y="-96.5" font-family="Helvetica,sans-Serif" font-size="10.00">drake/visualization</text>
<text text-anchor="start" x="618.5" y="-85.5" font-family="Helvetica,sans-Serif" font-size="10.00">/visualization_config</text>
<text text-anchor="middle" x="668.5" y="-74.5" font-family="Helvetica,sans-Serif" font-size="10.00">_functions.h</text>
</a>
</g>
</g>
<!-- Node24&#45;&gt;Node29 -->
<g id="edge5" class="edge">
<title>Node24&#45;&gt;Node29</title>
<path fill="none" stroke="midnightblue" d="M567.25,-140.72C586.7,-130.79 610.57,-118.6 630.24,-108.55"/>
<polygon fill="midnightblue" stroke="midnightblue" points="565.41,-137.74 558.09,-145.4 568.59,-143.97 565.41,-137.74"/>
</g>
<!-- Node31 -->
<g id="node8" class="node">
<title>Node31</title>
<g id="a_node8"><a xlink:href="lcm__config__functions_8h.html" target="_top" xlink:title=" ">
<polygon fill="white" stroke="black" points="744.5,-73 744.5,-103 874.5,-103 874.5,-73 744.5,-73"/>
<text text-anchor="start" x="752.5" y="-91" font-family="Helvetica,sans-Serif" font-size="10.00">drake/systems/lcm/lcm</text>
<text text-anchor="middle" x="809.5" y="-80" font-family="Helvetica,sans-Serif" font-size="10.00">_config_functions.h</text>
</a>
</g>
</g>
<!-- Node24&#45;&gt;Node31 -->
<g id="edge7" class="edge">
<title>Node24&#45;&gt;Node31</title>
<path fill="none" stroke="midnightblue" d="M598.8,-143.08C638.71,-133.39 690.02,-120.75 735.5,-109 742.84,-107.1 750.59,-105.06 758.19,-103.03"/>
<polygon fill="midnightblue" stroke="midnightblue" points="597.8,-139.72 588.91,-145.48 599.45,-146.52 597.8,-139.72"/>
</g>
<!-- Node32 -->
<g id="node9" class="node">
<title>Node32</title>
<g id="a_node9"><a xlink:href="camera__config__functions_8h.html" target="_top" xlink:title=" ">
<polygon fill="white" stroke="black" points="892.5,-73 892.5,-103 1042.5,-103 1042.5,-73 892.5,-73"/>
<text text-anchor="start" x="900.5" y="-91" font-family="Helvetica,sans-Serif" font-size="10.00">drake/systems/sensors</text>
<text text-anchor="middle" x="967.5" y="-80" font-family="Helvetica,sans-Serif" font-size="10.00">/camera_config_functions.h</text>
</a>
</g>
</g>
<!-- Node24&#45;&gt;Node32 -->
<g id="edge8" class="edge">
<title>Node24&#45;&gt;Node32</title>
<path fill="none" stroke="midnightblue" d="M605.82,-150.76C677.52,-141.95 788.29,-127.11 883.5,-109 892.63,-107.26 902.27,-105.2 911.63,-103.06"/>
<polygon fill="midnightblue" stroke="midnightblue" points="605.03,-147.32 595.53,-152.01 605.88,-154.27 605.03,-147.32"/>
</g>
<!-- Node30 -->
<g id="node7" class="node">
<title>Node30</title>
<g id="a_node7"><a xlink:href="robot__model_8h.html" target="_top" xlink:title=" ">
<polygon fill="white" stroke="black" points="602.5,-0.5 602.5,-30.5 734.5,-30.5 734.5,-0.5 602.5,-0.5"/>
<text text-anchor="start" x="610.5" y="-18.5" font-family="Helvetica,sans-Serif" font-size="10.00">drake/multibody/test</text>
<text text-anchor="middle" x="668.5" y="-7.5" font-family="Helvetica,sans-Serif" font-size="10.00">_utilities/robot_model.h</text>
</a>
</g>
</g>
<!-- Node29&#45;&gt;Node30 -->
<g id="edge6" class="edge">
<title>Node29&#45;&gt;Node30</title>
<path fill="none" stroke="midnightblue" d="M668.5,-57.08C668.5,-48.01 668.5,-38.45 668.5,-30.89"/>
<polygon fill="midnightblue" stroke="midnightblue" points="665,-57.36 668.5,-67.36 672,-57.36 665,-57.36"/>
</g>
</g>
</svg>
