<?xml version="1.0" encoding="UTF-8" standalone="no"?>
<!DOCTYPE svg PUBLIC "-//W3C//DTD SVG 1.1//EN"
 "http://www.w3.org/Graphics/SVG/1.1/DTD/svg11.dtd">
<!-- Generated by graphviz version 2.43.0 (0)
 -->
<!-- Title: drake/geometry/render/light_parameter.h Pages: 1 -->
<svg width="1121pt" height="341pt"
 viewBox="0.00 0.00 1120.50 341.00" xmlns="http://www.w3.org/2000/svg" xmlns:xlink="http://www.w3.org/1999/xlink">
<g id="graph0" class="graph" transform="scale(1 1) rotate(0) translate(4 337)">
<title>drake/geometry/render/light_parameter.h</title>
<polygon fill="white" stroke="transparent" points="-4,4 -4,-337 1116.5,-337 1116.5,4 -4,4"/>
<!-- Node0 -->
<g id="node1" class="node">
<title>Node0</title>
<g id="a_node1"><a xlink:title=" ">
<polygon fill="#bfbfbf" stroke="black" points="393.5,-302.5 393.5,-332.5 521.5,-332.5 521.5,-302.5 393.5,-302.5"/>
<text text-anchor="start" x="401.5" y="-320.5" font-family="Helvetica,sans-Serif" font-size="10.00">drake/geometry/render</text>
<text text-anchor="middle" x="457.5" y="-309.5" font-family="Helvetica,sans-Serif" font-size="10.00">/light_parameter.h</text>
</a>
</g>
</g>
<!-- Node1 -->
<g id="node2" class="node">
<title>Node1</title>
<g id="a_node2"><a xlink:title=" ">
<polygon fill="white" stroke="#bfbfbf" points="0,-246.5 0,-265.5 57,-265.5 57,-246.5 0,-246.5"/>
<text text-anchor="middle" x="28.5" y="-253.5" font-family="Helvetica,sans-Serif" font-size="10.00">ostream</text>
</a>
</g>
</g>
<!-- Node0&#45;&gt;Node1 -->
<g id="edge1" class="edge">
<title>Node0&#45;&gt;Node1</title>
<path fill="none" stroke="midnightblue" d="M393.42,-309.63C316.65,-301.05 184.27,-285.15 71.5,-266 70.04,-265.75 68.56,-265.49 67.06,-265.22"/>
<polygon fill="midnightblue" stroke="midnightblue" points="67.6,-261.76 57.12,-263.31 66.28,-268.63 67.6,-261.76"/>
</g>
<!-- Node2 -->
<g id="node3" class="node">
<title>Node2</title>
<g id="a_node3"><a xlink:title=" ">
<polygon fill="white" stroke="#bfbfbf" points="859.5,-0.5 859.5,-19.5 903.5,-19.5 903.5,-0.5 859.5,-0.5"/>
<text text-anchor="middle" x="881.5" y="-7.5" font-family="Helvetica,sans-Serif" font-size="10.00">string</text>
</a>
</g>
</g>
<!-- Node0&#45;&gt;Node2 -->
<g id="edge2" class="edge">
<title>Node0&#45;&gt;Node2</title>
<path fill="none" stroke="midnightblue" d="M521.8,-311.35C686.83,-297.27 1112.5,-255.16 1112.5,-195.5 1112.5,-195.5 1112.5,-195.5 1112.5,-126.5 1112.5,-38.76 977.53,-17.67 913.93,-12.6"/>
<polygon fill="midnightblue" stroke="midnightblue" points="913.87,-9.09 903.65,-11.87 913.38,-16.07 913.87,-9.09"/>
</g>
<!-- Node3 -->
<g id="node4" class="node">
<title>Node3</title>
<g id="a_node4"><a xlink:title=" ">
<polygon fill="white" stroke="#bfbfbf" points="1007,-118 1007,-137 1084,-137 1084,-118 1007,-118"/>
<text text-anchor="middle" x="1045.5" y="-125" font-family="Helvetica,sans-Serif" font-size="10.00">Eigen/Dense</text>
</a>
</g>
</g>
<!-- Node0&#45;&gt;Node3 -->
<g id="edge3" class="edge">
<title>Node0&#45;&gt;Node3</title>
<path fill="none" stroke="midnightblue" d="M521.66,-304.66C605.48,-288.22 756.08,-255.31 879.5,-210 931.94,-190.75 989.78,-160.02 1021.46,-142.3"/>
<polygon fill="midnightblue" stroke="midnightblue" points="1023.42,-145.21 1030.41,-137.25 1019.98,-139.12 1023.42,-145.21"/>
</g>
<!-- Node4 -->
<g id="node5" class="node">
<title>Node4</title>
<g id="a_node5"><a xlink:title=" ">
<polygon fill="white" stroke="#bfbfbf" points="267,-0.5 267,-19.5 346,-19.5 346,-0.5 267,-0.5"/>
<text text-anchor="middle" x="306.5" y="-7.5" font-family="Helvetica,sans-Serif" font-size="10.00">fmt/format.h</text>
</a>
</g>
</g>
<!-- Node0&#45;&gt;Node4 -->
<g id="edge4" class="edge">
<title>Node0&#45;&gt;Node4</title>
<path fill="none" stroke="midnightblue" d="M393.13,-308.99C286.66,-294.76 85.5,-259.42 85.5,-195.5 85.5,-195.5 85.5,-195.5 85.5,-126.5 85.5,-93.54 84.15,-78.21 108.5,-56 129.93,-36.46 205.6,-23.45 256.94,-16.64"/>
<polygon fill="midnightblue" stroke="midnightblue" points="257.39,-20.12 266.86,-15.37 256.49,-13.17 257.39,-20.12"/>
</g>
<!-- Node5 -->
<g id="node6" class="node">
<title>Node5</title>
<g id="a_node6"><a xlink:href="fmt__ostream_8h.html" target="_top" xlink:title=" ">
<polygon fill="white" stroke="black" points="113.5,-118 113.5,-137 277.5,-137 277.5,-118 113.5,-118"/>
<text text-anchor="middle" x="195.5" y="-125" font-family="Helvetica,sans-Serif" font-size="10.00">drake/common/fmt_ostream.h</text>
</a>
</g>
</g>
<!-- Node0&#45;&gt;Node5 -->
<g id="edge5" class="edge">
<title>Node0&#45;&gt;Node5</title>
<path fill="none" stroke="midnightblue" d="M401.29,-302.49C350.74,-287.31 277.42,-258.49 230.5,-210 213.48,-192.4 204.1,-165.23 199.43,-147.16"/>
<polygon fill="midnightblue" stroke="midnightblue" points="202.8,-146.19 197.11,-137.25 195.99,-147.78 202.8,-146.19"/>
</g>
<!-- Node10 -->
<g id="node11" class="node">
<title>Node10</title>
<g id="a_node11"><a xlink:href="name__value_8h.html" target="_top" xlink:title=" ">
<polygon fill="white" stroke="black" points="377,-185 377,-204 538,-204 538,-185 377,-185"/>
<text text-anchor="middle" x="457.5" y="-192" font-family="Helvetica,sans-Serif" font-size="10.00">drake/common/name_value.h</text>
</a>
</g>
</g>
<!-- Node0&#45;&gt;Node10 -->
<g id="edge13" class="edge">
<title>Node0&#45;&gt;Node10</title>
<path fill="none" stroke="midnightblue" d="M457.5,-302.14C457.5,-280.2 457.5,-238.33 457.5,-214.09"/>
<polygon fill="midnightblue" stroke="midnightblue" points="461,-214.05 457.5,-204.05 454,-214.05 461,-214.05"/>
</g>
<!-- Node14 -->
<g id="node15" class="node">
<title>Node14</title>
<g id="a_node15"><a xlink:href="rgba_8h.html" target="_top" xlink:title=" ">
<polygon fill="white" stroke="black" points="502.5,-246.5 502.5,-265.5 630.5,-265.5 630.5,-246.5 502.5,-246.5"/>
<text text-anchor="middle" x="566.5" y="-253.5" font-family="Helvetica,sans-Serif" font-size="10.00">drake/geometry/rgba.h</text>
</a>
</g>
</g>
<!-- Node0&#45;&gt;Node14 -->
<g id="edge17" class="edge">
<title>Node0&#45;&gt;Node14</title>
<path fill="none" stroke="midnightblue" d="M483.33,-302.4C500.97,-292.77 524.2,-280.09 541.63,-270.58"/>
<polygon fill="midnightblue" stroke="midnightblue" points="543.54,-273.52 550.64,-265.66 540.19,-267.38 543.54,-273.52"/>
</g>
<!-- Node6 -->
<g id="node7" class="node">
<title>Node6</title>
<g id="a_node7"><a xlink:title=" ">
<polygon fill="white" stroke="#bfbfbf" points="221.5,-56.5 221.5,-75.5 277.5,-75.5 277.5,-56.5 221.5,-56.5"/>
<text text-anchor="middle" x="249.5" y="-63.5" font-family="Helvetica,sans-Serif" font-size="10.00">sstream</text>
</a>
</g>
</g>
<!-- Node5&#45;&gt;Node6 -->
<g id="edge6" class="edge">
<title>Node5&#45;&gt;Node6</title>
<path fill="none" stroke="midnightblue" d="M203.24,-117.98C211.5,-108.87 224.78,-94.24 234.99,-82.98"/>
<polygon fill="midnightblue" stroke="midnightblue" points="237.65,-85.27 241.78,-75.51 232.47,-80.56 237.65,-85.27"/>
</g>
<!-- Node7 -->
<g id="node8" class="node">
<title>Node7</title>
<g id="a_node8"><a xlink:title=" ">
<polygon fill="white" stroke="#bfbfbf" points="527,-0.5 527,-19.5 600,-19.5 600,-0.5 527,-0.5"/>
<text text-anchor="middle" x="563.5" y="-7.5" font-family="Helvetica,sans-Serif" font-size="10.00">string_view</text>
</a>
</g>
</g>
<!-- Node5&#45;&gt;Node7 -->
<g id="edge7" class="edge">
<title>Node5&#45;&gt;Node7</title>
<path fill="none" stroke="midnightblue" d="M209.25,-117.97C233.73,-103.17 286.85,-72.7 335.5,-56 396.34,-35.11 469.84,-22.79 516.63,-16.46"/>
<polygon fill="midnightblue" stroke="midnightblue" points="517.31,-19.9 526.77,-15.13 516.4,-12.96 517.31,-19.9"/>
</g>
<!-- Node8 -->
<g id="node9" class="node">
<title>Node8</title>
<g id="a_node9"><a xlink:title=" ">
<polygon fill="white" stroke="#bfbfbf" points="117.5,-56.5 117.5,-75.5 203.5,-75.5 203.5,-56.5 117.5,-56.5"/>
<text text-anchor="middle" x="160.5" y="-63.5" font-family="Helvetica,sans-Serif" font-size="10.00">fmt/ostream.h</text>
</a>
</g>
</g>
<!-- Node5&#45;&gt;Node8 -->
<g id="edge8" class="edge">
<title>Node5&#45;&gt;Node8</title>
<path fill="none" stroke="midnightblue" d="M190.49,-117.98C185.34,-109.23 177.19,-95.37 170.68,-84.31"/>
<polygon fill="midnightblue" stroke="midnightblue" points="173.59,-82.35 165.51,-75.51 167.56,-85.9 173.59,-82.35"/>
</g>
<!-- Node9 -->
<g id="node10" class="node">
<title>Node9</title>
<g id="a_node10"><a xlink:href="fmt_8h.html" target="_top" xlink:title=" ">
<polygon fill="white" stroke="black" points="504,-56.5 504,-75.5 623,-75.5 623,-56.5 504,-56.5"/>
<text text-anchor="middle" x="563.5" y="-63.5" font-family="Helvetica,sans-Serif" font-size="10.00">drake/common/fmt.h</text>
</a>
</g>
</g>
<!-- Node5&#45;&gt;Node9 -->
<g id="edge9" class="edge">
<title>Node5&#45;&gt;Node9</title>
<path fill="none" stroke="midnightblue" d="M248.23,-117.98C314.9,-107.19 429.57,-88.65 500.7,-77.15"/>
<polygon fill="midnightblue" stroke="midnightblue" points="501.56,-80.56 510.87,-75.51 500.44,-73.65 501.56,-80.56"/>
</g>
<!-- Node9&#45;&gt;Node2 -->
<g id="edge10" class="edge">
<title>Node9&#45;&gt;Node2</title>
<path fill="none" stroke="midnightblue" d="M613.89,-56.44C680.03,-45.21 794.2,-25.82 849.56,-16.42"/>
<polygon fill="midnightblue" stroke="midnightblue" points="850.23,-19.86 859.5,-14.74 849.05,-12.96 850.23,-19.86"/>
</g>
<!-- Node9&#45;&gt;Node4 -->
<g id="edge12" class="edge">
<title>Node9&#45;&gt;Node4</title>
<path fill="none" stroke="midnightblue" d="M522.78,-56.44C477.59,-46.95 404.65,-31.62 356.15,-21.43"/>
<polygon fill="midnightblue" stroke="midnightblue" points="356.69,-17.97 346.19,-19.34 355.25,-24.82 356.69,-17.97"/>
</g>
<!-- Node9&#45;&gt;Node7 -->
<g id="edge11" class="edge">
<title>Node9&#45;&gt;Node7</title>
<path fill="none" stroke="midnightblue" d="M563.5,-56.08C563.5,-49.01 563.5,-38.86 563.5,-29.99"/>
<polygon fill="midnightblue" stroke="midnightblue" points="567,-29.75 563.5,-19.75 560,-29.75 567,-29.75"/>
</g>
<!-- Node11 -->
<g id="node12" class="node">
<title>Node11</title>
<g id="a_node12"><a xlink:href="drake__assert_8h.html" target="_top" xlink:title="Provides Drake&#39;s assertion implementation.">
<polygon fill="white" stroke="black" points="334,-112.5 334,-142.5 453,-142.5 453,-112.5 334,-112.5"/>
<text text-anchor="start" x="342" y="-130.5" font-family="Helvetica,sans-Serif" font-size="10.00">drake/common/drake</text>
<text text-anchor="middle" x="393.5" y="-119.5" font-family="Helvetica,sans-Serif" font-size="10.00">_assert.h</text>
</a>
</g>
</g>
<!-- Node10&#45;&gt;Node11 -->
<g id="edge14" class="edge">
<title>Node10&#45;&gt;Node11</title>
<path fill="none" stroke="midnightblue" d="M448.87,-184.73C440.14,-175.86 426.3,-161.81 414.64,-149.97"/>
<polygon fill="midnightblue" stroke="midnightblue" points="416.88,-147.26 407.37,-142.59 411.89,-152.17 416.88,-147.26"/>
</g>
<!-- Node13 -->
<g id="node14" class="node">
<title>Node13</title>
<g id="a_node14"><a xlink:href="drake__copyable_8h.html" target="_top" xlink:title="Provides careful macros to selectively enable or disable the special member functions for copy&#45;constr...">
<polygon fill="white" stroke="black" points="471,-112.5 471,-142.5 590,-142.5 590,-112.5 471,-112.5"/>
<text text-anchor="start" x="479" y="-130.5" font-family="Helvetica,sans-Serif" font-size="10.00">drake/common/drake</text>
<text text-anchor="middle" x="530.5" y="-119.5" font-family="Helvetica,sans-Serif" font-size="10.00">_copyable.h</text>
</a>
</g>
</g>
<!-- Node10&#45;&gt;Node13 -->
<g id="edge16" class="edge">
<title>Node10&#45;&gt;Node13</title>
<path fill="none" stroke="midnightblue" d="M467.35,-184.73C477.5,-175.7 493.69,-161.27 507.14,-149.3"/>
<polygon fill="midnightblue" stroke="midnightblue" points="509.54,-151.85 514.68,-142.59 504.88,-146.63 509.54,-151.85"/>
</g>
<!-- Node12 -->
<g id="node13" class="node">
<title>Node12</title>
<g id="a_node13"><a xlink:title=" ">
<polygon fill="white" stroke="#bfbfbf" points="345,-56.5 345,-75.5 414,-75.5 414,-56.5 345,-56.5"/>
<text text-anchor="middle" x="379.5" y="-63.5" font-family="Helvetica,sans-Serif" font-size="10.00">type_traits</text>
</a>
</g>
</g>
<!-- Node11&#45;&gt;Node12 -->
<g id="edge15" class="edge">
<title>Node11&#45;&gt;Node12</title>
<path fill="none" stroke="midnightblue" d="M390.18,-112.4C388.29,-104.38 385.91,-94.23 383.87,-85.57"/>
<polygon fill="midnightblue" stroke="midnightblue" points="387.23,-84.59 381.54,-75.66 380.42,-86.19 387.23,-84.59"/>
</g>
<!-- Node14&#45;&gt;Node10 -->
<g id="edge35" class="edge">
<title>Node14&#45;&gt;Node10</title>
<path fill="none" stroke="midnightblue" d="M550.88,-246.48C532.91,-236.67 503.18,-220.43 482.09,-208.92"/>
<polygon fill="midnightblue" stroke="midnightblue" points="483.54,-205.73 473.09,-204.01 480.19,-211.87 483.54,-205.73"/>
</g>
<!-- Node14&#45;&gt;Node13 -->
<g id="edge20" class="edge">
<title>Node14&#45;&gt;Node13</title>
<path fill="none" stroke="midnightblue" d="M564.3,-246.07C560.76,-231.82 553.49,-203.11 546.5,-179 543.95,-170.21 540.97,-160.62 538.27,-152.18"/>
<polygon fill="midnightblue" stroke="midnightblue" points="541.58,-151.03 535.17,-142.59 534.92,-153.18 541.58,-151.03"/>
</g>
<!-- Node15 -->
<g id="node16" class="node">
<title>Node15</title>
<g id="a_node16"><a xlink:title=" ">
<polygon fill="white" stroke="#bfbfbf" points="594.5,-185 594.5,-204 658.5,-204 658.5,-185 594.5,-185"/>
<text text-anchor="middle" x="626.5" y="-192" font-family="Helvetica,sans-Serif" font-size="10.00">algorithm</text>
</a>
</g>
</g>
<!-- Node14&#45;&gt;Node15 -->
<g id="edge18" class="edge">
<title>Node14&#45;&gt;Node15</title>
<path fill="none" stroke="midnightblue" d="M575.1,-246.48C584.36,-237.28 599.32,-222.46 610.71,-211.16"/>
<polygon fill="midnightblue" stroke="midnightblue" points="613.28,-213.54 617.92,-204.01 608.35,-208.57 613.28,-213.54"/>
</g>
<!-- Node16 -->
<g id="node17" class="node">
<title>Node16</title>
<g id="a_node17"><a xlink:title=" ">
<polygon fill="white" stroke="#bfbfbf" points="676.5,-185 676.5,-204 732.5,-204 732.5,-185 676.5,-185"/>
<text text-anchor="middle" x="704.5" y="-192" font-family="Helvetica,sans-Serif" font-size="10.00">optional</text>
</a>
</g>
</g>
<!-- Node14&#45;&gt;Node16 -->
<g id="edge19" class="edge">
<title>Node14&#45;&gt;Node16</title>
<path fill="none" stroke="midnightblue" d="M586.27,-246.48C609.64,-236.4 648.71,-219.55 675.5,-208"/>
<polygon fill="midnightblue" stroke="midnightblue" points="676.97,-211.18 684.76,-204.01 674.2,-204.75 676.97,-211.18"/>
</g>
<!-- Node17 -->
<g id="node18" class="node">
<title>Node17</title>
<g id="a_node18"><a xlink:href="drake__throw_8h.html" target="_top" xlink:title="Provides a convenient wrapper to throw an exception when a condition is unmet.">
<polygon fill="white" stroke="black" points="240,-179.5 240,-209.5 359,-209.5 359,-179.5 240,-179.5"/>
<text text-anchor="start" x="248" y="-197.5" font-family="Helvetica,sans-Serif" font-size="10.00">drake/common/drake</text>
<text text-anchor="middle" x="299.5" y="-186.5" font-family="Helvetica,sans-Serif" font-size="10.00">_throw.h</text>
</a>
</g>
</g>
<!-- Node14&#45;&gt;Node17 -->
<g id="edge21" class="edge">
<title>Node14&#45;&gt;Node17</title>
<path fill="none" stroke="midnightblue" d="M528.25,-246.48C486.81,-237.24 419.84,-222.32 369.04,-211"/>
<polygon fill="midnightblue" stroke="midnightblue" points="369.63,-207.54 359.11,-208.78 368.11,-214.38 369.63,-207.54"/>
</g>
<!-- Node18 -->
<g id="node19" class="node">
<title>Node18</title>
<g id="a_node19"><a xlink:href="eigen__types_8h.html" target="_top" xlink:title="This file contains abbreviated definitions for certain specializations of Eigen::Matrix that are comm...">
<polygon fill="white" stroke="black" points="751,-179.5 751,-209.5 870,-209.5 870,-179.5 751,-179.5"/>
<text text-anchor="start" x="759" y="-197.5" font-family="Helvetica,sans-Serif" font-size="10.00">drake/common/eigen</text>
<text text-anchor="middle" x="810.5" y="-186.5" font-family="Helvetica,sans-Serif" font-size="10.00">_types.h</text>
</a>
</g>
</g>
<!-- Node14&#45;&gt;Node18 -->
<g id="edge24" class="edge">
<title>Node14&#45;&gt;Node18</title>
<path fill="none" stroke="midnightblue" d="M601.46,-246.48C638.29,-237.49 697.2,-223.13 743.11,-211.93"/>
<polygon fill="midnightblue" stroke="midnightblue" points="744.11,-215.29 752.99,-209.52 742.45,-208.49 744.11,-215.29"/>
</g>
<!-- Node17&#45;&gt;Node11 -->
<g id="edge23" class="edge">
<title>Node17&#45;&gt;Node11</title>
<path fill="none" stroke="midnightblue" d="M319.9,-179.4C332.95,-170.37 350.1,-158.51 364.55,-148.52"/>
<polygon fill="midnightblue" stroke="midnightblue" points="366.91,-151.14 373.14,-142.58 362.93,-145.39 366.91,-151.14"/>
</g>
<!-- Node17&#45;&gt;Node12 -->
<g id="edge22" class="edge">
<title>Node17&#45;&gt;Node12</title>
<path fill="none" stroke="midnightblue" d="M301.27,-179.46C303.98,-162.32 310.39,-133.01 324.5,-112 332.75,-99.72 345.34,-89.06 356.4,-81.21"/>
<polygon fill="midnightblue" stroke="midnightblue" points="358.48,-84.03 364.82,-75.54 354.57,-78.22 358.48,-84.03"/>
</g>
<!-- Node18&#45;&gt;Node3 -->
<g id="edge26" class="edge">
<title>Node18&#45;&gt;Node3</title>
<path fill="none" stroke="midnightblue" d="M864.94,-179.44C902.56,-169.59 953.69,-155.93 998.5,-143 1001.7,-142.08 1005.02,-141.1 1008.34,-140.1"/>
<polygon fill="midnightblue" stroke="midnightblue" points="1009.66,-143.36 1018.21,-137.1 1007.63,-136.66 1009.66,-143.36"/>
</g>
<!-- Node18&#45;&gt;Node11 -->
<g id="edge28" class="edge">
<title>Node18&#45;&gt;Node11</title>
<path fill="none" stroke="midnightblue" d="M750.72,-180.63C747.6,-180.06 744.52,-179.51 741.5,-179 620.93,-158.61 586.9,-163.81 463.02,-143.18"/>
<polygon fill="midnightblue" stroke="midnightblue" points="463.59,-139.72 453.15,-141.51 462.43,-146.63 463.59,-139.72"/>
</g>
<!-- Node18&#45;&gt;Node13 -->
<g id="edge29" class="edge">
<title>Node18&#45;&gt;Node13</title>
<path fill="none" stroke="midnightblue" d="M750.78,-179.64C706.63,-169.39 646.41,-155.41 600.09,-144.66"/>
<polygon fill="midnightblue" stroke="midnightblue" points="600.66,-141.2 590.13,-142.34 599.08,-148.01 600.66,-141.2"/>
</g>
<!-- Node19 -->
<g id="node20" class="node">
<title>Node19</title>
<g id="a_node20"><a xlink:title=" ">
<polygon fill="white" stroke="#bfbfbf" points="944,-118 944,-137 989,-137 989,-118 944,-118"/>
<text text-anchor="middle" x="966.5" y="-125" font-family="Helvetica,sans-Serif" font-size="10.00">utility</text>
</a>
</g>
</g>
<!-- Node18&#45;&gt;Node19 -->
<g id="edge25" class="edge">
<title>Node18&#45;&gt;Node19</title>
<path fill="none" stroke="midnightblue" d="M846.82,-179.42C871.88,-169.56 905.89,-155.9 935.5,-143 936.7,-142.48 937.91,-141.94 939.14,-141.39"/>
<polygon fill="midnightblue" stroke="midnightblue" points="940.9,-144.44 948.54,-137.1 937.99,-138.07 940.9,-144.44"/>
</g>
<!-- Node20 -->
<g id="node21" class="node">
<title>Node20</title>
<g id="a_node21"><a xlink:href="constants_8h.html" target="_top" xlink:title=" ">
<polygon fill="white" stroke="black" points="608,-118 608,-137 757,-137 757,-118 608,-118"/>
<text text-anchor="middle" x="682.5" y="-125" font-family="Helvetica,sans-Serif" font-size="10.00">drake/common/constants.h</text>
</a>
</g>
</g>
<!-- Node18&#45;&gt;Node20 -->
<g id="edge27" class="edge">
<title>Node18&#45;&gt;Node20</title>
<path fill="none" stroke="midnightblue" d="M782.73,-179.4C760.56,-168.14 729.76,-152.5 708.17,-141.54"/>
<polygon fill="midnightblue" stroke="midnightblue" points="709.75,-138.41 699.25,-137.01 706.58,-144.66 709.75,-138.41"/>
</g>
<!-- Node21 -->
<g id="node22" class="node">
<title>Node21</title>
<g id="a_node22"><a xlink:href="fmt__eigen_8h.html" target="_top" xlink:title=" ">
<polygon fill="white" stroke="black" points="775,-118 775,-137 926,-137 926,-118 775,-118"/>
<text text-anchor="middle" x="850.5" y="-125" font-family="Helvetica,sans-Serif" font-size="10.00">drake/common/fmt_eigen.h</text>
</a>
</g>
</g>
<!-- Node18&#45;&gt;Node21 -->
<g id="edge30" class="edge">
<title>Node18&#45;&gt;Node21</title>
<path fill="none" stroke="midnightblue" d="M819.18,-179.4C825.23,-169.56 833.34,-156.38 839.8,-145.89"/>
<polygon fill="midnightblue" stroke="midnightblue" points="842.89,-147.55 845.15,-137.19 836.93,-143.88 842.89,-147.55"/>
</g>
<!-- Node21&#45;&gt;Node2 -->
<g id="edge31" class="edge">
<title>Node21&#45;&gt;Node2</title>
<path fill="none" stroke="midnightblue" d="M852.83,-117.82C857.83,-99.17 869.71,-54.94 876.5,-29.63"/>
<polygon fill="midnightblue" stroke="midnightblue" points="879.93,-30.35 879.14,-19.78 873.17,-28.53 879.93,-30.35"/>
</g>
<!-- Node21&#45;&gt;Node7 -->
<g id="edge32" class="edge">
<title>Node21&#45;&gt;Node7</title>
<path fill="none" stroke="midnightblue" d="M828.93,-117.82C778.53,-97.53 652.89,-46.97 594.38,-23.43"/>
<polygon fill="midnightblue" stroke="midnightblue" points="595.51,-20.11 584.93,-19.62 592.9,-26.6 595.51,-20.11"/>
</g>
<!-- Node21&#45;&gt;Node9 -->
<g id="edge34" class="edge">
<title>Node21&#45;&gt;Node9</title>
<path fill="none" stroke="midnightblue" d="M809.38,-117.98C758.02,-107.33 670.14,-89.11 614.54,-77.58"/>
<polygon fill="midnightblue" stroke="midnightblue" points="615.05,-74.11 604.54,-75.51 613.63,-80.97 615.05,-74.11"/>
</g>
<!-- Node22 -->
<g id="node23" class="node">
<title>Node22</title>
<g id="a_node23"><a xlink:title=" ">
<polygon fill="white" stroke="#bfbfbf" points="784,-56.5 784,-75.5 853,-75.5 853,-56.5 784,-56.5"/>
<text text-anchor="middle" x="818.5" y="-63.5" font-family="Helvetica,sans-Serif" font-size="10.00">Eigen/Core</text>
</a>
</g>
</g>
<!-- Node21&#45;&gt;Node22 -->
<g id="edge33" class="edge">
<title>Node21&#45;&gt;Node22</title>
<path fill="none" stroke="midnightblue" d="M845.92,-117.98C841.26,-109.32 833.91,-95.65 827.99,-84.65"/>
<polygon fill="midnightblue" stroke="midnightblue" points="830.9,-82.66 823.08,-75.51 824.73,-85.97 830.9,-82.66"/>
</g>
</g>
</svg>
