<?xml version="1.0" encoding="UTF-8" standalone="no"?>
<!DOCTYPE svg PUBLIC "-//W3C//DTD SVG 1.1//EN"
 "http://www.w3.org/Graphics/SVG/1.1/DTD/svg11.dtd">
<!-- Generated by graphviz version 2.43.0 (0)
 -->
<!-- Title: drake/multibody/fem/linear_constitutive_model_data.h Pages: 1 -->
<svg width="1149pt" height="385pt"
 viewBox="0.00 0.00 1148.80 385.00" xmlns="http://www.w3.org/2000/svg" xmlns:xlink="http://www.w3.org/1999/xlink">
<g id="graph0" class="graph" transform="scale(1 1) rotate(0) translate(4 381)">
<title>drake/multibody/fem/linear_constitutive_model_data.h</title>
<polygon fill="white" stroke="transparent" points="-4,4 -4,-381 1144.8,-381 1144.8,4 -4,4"/>
<!-- Node0 -->
<g id="node1" class="node">
<title>Node0</title>
<g id="a_node1"><a xlink:title=" ">
<polygon fill="#bfbfbf" stroke="black" points="117.8,-335.5 117.8,-376.5 236.8,-376.5 236.8,-335.5 117.8,-335.5"/>
<text text-anchor="start" x="125.8" y="-364.5" font-family="Helvetica,sans-Serif" font-size="10.00">drake/multibody/fem</text>
<text text-anchor="start" x="125.8" y="-353.5" font-family="Helvetica,sans-Serif" font-size="10.00">/linear_constitutive</text>
<text text-anchor="middle" x="177.3" y="-342.5" font-family="Helvetica,sans-Serif" font-size="10.00">_model_data.h</text>
</a>
</g>
</g>
<!-- Node1 -->
<g id="node2" class="node">
<title>Node1</title>
<g id="a_node2"><a xlink:title=" ">
<polygon fill="white" stroke="#bfbfbf" points="53.3,-196 53.3,-215 95.3,-215 95.3,-196 53.3,-196"/>
<text text-anchor="middle" x="74.3" y="-203" font-family="Helvetica,sans-Serif" font-size="10.00">array</text>
</a>
</g>
</g>
<!-- Node0&#45;&gt;Node1 -->
<g id="edge1" class="edge">
<title>Node0&#45;&gt;Node1</title>
<path fill="none" stroke="midnightblue" d="M163.62,-335.28C143.27,-305.93 105.35,-251.26 86.12,-223.55"/>
<polygon fill="midnightblue" stroke="midnightblue" points="88.95,-221.48 80.37,-215.26 83.2,-225.47 88.95,-221.48"/>
</g>
<!-- Node2 -->
<g id="node3" class="node">
<title>Node2</title>
<g id="a_node3"><a xlink:href="deformation__gradient__data_8h.html" target="_top" xlink:title=" ">
<polygon fill="white" stroke="black" points="169.8,-257.5 169.8,-298.5 294.8,-298.5 294.8,-257.5 169.8,-257.5"/>
<text text-anchor="start" x="177.8" y="-286.5" font-family="Helvetica,sans-Serif" font-size="10.00">drake/multibody/fem</text>
<text text-anchor="start" x="177.8" y="-275.5" font-family="Helvetica,sans-Serif" font-size="10.00">/deformation_gradient</text>
<text text-anchor="middle" x="232.3" y="-264.5" font-family="Helvetica,sans-Serif" font-size="10.00">_data.h</text>
</a>
</g>
</g>
<!-- Node0&#45;&gt;Node2 -->
<g id="edge2" class="edge">
<title>Node0&#45;&gt;Node2</title>
<path fill="none" stroke="midnightblue" d="M191.46,-335.43C197.75,-326.74 205.26,-316.36 212.12,-306.88"/>
<polygon fill="midnightblue" stroke="midnightblue" points="215.16,-308.66 218.18,-298.51 209.49,-304.55 215.16,-308.66"/>
</g>
<!-- Node2&#45;&gt;Node1 -->
<g id="edge3" class="edge">
<title>Node2&#45;&gt;Node1</title>
<path fill="none" stroke="midnightblue" d="M186.5,-257.46C162.01,-246.89 131.4,-233.47 104.3,-221 103.15,-220.47 101.97,-219.92 100.79,-219.37"/>
<polygon fill="midnightblue" stroke="midnightblue" points="102.23,-216.18 91.7,-215.05 99.22,-222.5 102.23,-216.18"/>
</g>
<!-- Node3 -->
<g id="node4" class="node">
<title>Node3</title>
<g id="a_node4"><a xlink:title=" ">
<polygon fill="white" stroke="#bfbfbf" points="277.8,-62 277.8,-81 322.8,-81 322.8,-62 277.8,-62"/>
<text text-anchor="middle" x="300.3" y="-69" font-family="Helvetica,sans-Serif" font-size="10.00">utility</text>
</a>
</g>
</g>
<!-- Node2&#45;&gt;Node3 -->
<g id="edge4" class="edge">
<title>Node2&#45;&gt;Node3</title>
<path fill="none" stroke="midnightblue" d="M244.34,-257.34C250.38,-246.85 257.42,-233.54 262.3,-221 279.86,-175.88 291.65,-119.89 297.01,-91.27"/>
<polygon fill="midnightblue" stroke="midnightblue" points="300.51,-91.56 298.85,-81.1 293.62,-90.31 300.51,-91.56"/>
</g>
<!-- Node4 -->
<g id="node5" class="node">
<title>Node4</title>
<g id="a_node5"><a xlink:title=" ">
<polygon fill="white" stroke="#bfbfbf" points="1061.8,-0.5 1061.8,-19.5 1140.8,-19.5 1140.8,-0.5 1061.8,-0.5"/>
<text text-anchor="middle" x="1101.3" y="-7.5" font-family="Helvetica,sans-Serif" font-size="10.00">fmt/format.h</text>
</a>
</g>
</g>
<!-- Node2&#45;&gt;Node4 -->
<g id="edge5" class="edge">
<title>Node2&#45;&gt;Node4</title>
<path fill="none" stroke="midnightblue" d="M294.93,-277.48C472.64,-277.42 974.25,-267.04 1082.3,-154 1114.52,-120.29 1109.92,-59.96 1105.02,-29.57"/>
<polygon fill="midnightblue" stroke="midnightblue" points="1108.42,-28.73 1103.2,-19.51 1101.53,-29.97 1108.42,-28.73"/>
</g>
<!-- Node5 -->
<g id="node6" class="node">
<title>Node5</title>
<g id="a_node6"><a xlink:href="eigen__types_8h.html" target="_top" xlink:title="This file contains abbreviated definitions for certain specializations of Eigen::Matrix that are comm...">
<polygon fill="white" stroke="black" points="580.8,-190.5 580.8,-220.5 699.8,-220.5 699.8,-190.5 580.8,-190.5"/>
<text text-anchor="start" x="588.8" y="-208.5" font-family="Helvetica,sans-Serif" font-size="10.00">drake/common/eigen</text>
<text text-anchor="middle" x="640.3" y="-197.5" font-family="Helvetica,sans-Serif" font-size="10.00">_types.h</text>
</a>
</g>
</g>
<!-- Node2&#45;&gt;Node5 -->
<g id="edge6" class="edge">
<title>Node2&#45;&gt;Node5</title>
<path fill="none" stroke="midnightblue" d="M295.16,-266.14C369.6,-253.28 493.24,-231.91 570.57,-218.55"/>
<polygon fill="midnightblue" stroke="midnightblue" points="571.44,-221.95 580.69,-216.8 570.24,-215.05 571.44,-221.95"/>
</g>
<!-- Node16 -->
<g id="node17" class="node">
<title>Node16</title>
<g id="a_node17"><a xlink:href="nice__type__name_8h.html" target="_top" xlink:title=" ">
<polygon fill="white" stroke="black" points="113.3,-190.5 113.3,-220.5 253.3,-220.5 253.3,-190.5 113.3,-190.5"/>
<text text-anchor="start" x="121.3" y="-208.5" font-family="Helvetica,sans-Serif" font-size="10.00">drake/common/nice_type</text>
<text text-anchor="middle" x="183.3" y="-197.5" font-family="Helvetica,sans-Serif" font-size="10.00">_name.h</text>
</a>
</g>
</g>
<!-- Node2&#45;&gt;Node16 -->
<g id="edge21" class="edge">
<title>Node2&#45;&gt;Node16</title>
<path fill="none" stroke="midnightblue" d="M218.65,-257.36C212.56,-248.59 205.34,-238.21 199.02,-229.12"/>
<polygon fill="midnightblue" stroke="midnightblue" points="201.88,-227.11 193.3,-220.89 196.14,-231.1 201.88,-227.11"/>
</g>
<!-- Node5&#45;&gt;Node3 -->
<g id="edge7" class="edge">
<title>Node5&#45;&gt;Node3</title>
<path fill="none" stroke="midnightblue" d="M580.51,-201.04C503.58,-195.49 375.43,-182.23 338.3,-154 318.04,-138.6 308.18,-109.77 303.68,-90.85"/>
<polygon fill="midnightblue" stroke="midnightblue" points="307.1,-90.1 301.62,-81.04 300.25,-91.54 307.1,-90.1"/>
</g>
<!-- Node6 -->
<g id="node7" class="node">
<title>Node6</title>
<g id="a_node7"><a xlink:title=" ">
<polygon fill="white" stroke="#bfbfbf" points="485.8,-129 485.8,-148 562.8,-148 562.8,-129 485.8,-129"/>
<text text-anchor="middle" x="524.3" y="-136" font-family="Helvetica,sans-Serif" font-size="10.00">Eigen/Dense</text>
</a>
</g>
</g>
<!-- Node5&#45;&gt;Node6 -->
<g id="edge8" class="edge">
<title>Node5&#45;&gt;Node6</title>
<path fill="none" stroke="midnightblue" d="M615.13,-190.4C595.32,-179.29 567.88,-163.92 548.36,-152.98"/>
<polygon fill="midnightblue" stroke="midnightblue" points="549.92,-149.84 539.48,-148.01 546.49,-155.95 549.92,-149.84"/>
</g>
<!-- Node7 -->
<g id="node8" class="node">
<title>Node7</title>
<g id="a_node8"><a xlink:href="constants_8h.html" target="_top" xlink:title=" ">
<polygon fill="white" stroke="black" points="755.8,-129 755.8,-148 904.8,-148 904.8,-129 755.8,-129"/>
<text text-anchor="middle" x="830.3" y="-136" font-family="Helvetica,sans-Serif" font-size="10.00">drake/common/constants.h</text>
</a>
</g>
</g>
<!-- Node5&#45;&gt;Node7 -->
<g id="edge9" class="edge">
<title>Node5&#45;&gt;Node7</title>
<path fill="none" stroke="midnightblue" d="M681.53,-190.4C715.6,-178.74 763.44,-162.37 795.58,-151.38"/>
<polygon fill="midnightblue" stroke="midnightblue" points="797.1,-154.56 805.43,-148.01 794.84,-147.93 797.1,-154.56"/>
</g>
<!-- Node8 -->
<g id="node9" class="node">
<title>Node8</title>
<g id="a_node9"><a xlink:href="drake__assert_8h.html" target="_top" xlink:title="Provides Drake&#39;s assertion implementation.">
<polygon fill="white" stroke="black" points="580.8,-123.5 580.8,-153.5 699.8,-153.5 699.8,-123.5 580.8,-123.5"/>
<text text-anchor="start" x="588.8" y="-141.5" font-family="Helvetica,sans-Serif" font-size="10.00">drake/common/drake</text>
<text text-anchor="middle" x="640.3" y="-130.5" font-family="Helvetica,sans-Serif" font-size="10.00">_assert.h</text>
</a>
</g>
</g>
<!-- Node5&#45;&gt;Node8 -->
<g id="edge10" class="edge">
<title>Node5&#45;&gt;Node8</title>
<path fill="none" stroke="midnightblue" d="M640.3,-190.4C640.3,-182.64 640.3,-172.81 640.3,-163.86"/>
<polygon fill="midnightblue" stroke="midnightblue" points="643.8,-163.58 640.3,-153.58 636.8,-163.58 643.8,-163.58"/>
</g>
<!-- Node10 -->
<g id="node11" class="node">
<title>Node10</title>
<g id="a_node11"><a xlink:href="drake__copyable_8h.html" target="_top" xlink:title="Provides careful macros to selectively enable or disable the special member functions for copy&#45;constr...">
<polygon fill="white" stroke="black" points="628.8,-56.5 628.8,-86.5 747.8,-86.5 747.8,-56.5 628.8,-56.5"/>
<text text-anchor="start" x="636.8" y="-74.5" font-family="Helvetica,sans-Serif" font-size="10.00">drake/common/drake</text>
<text text-anchor="middle" x="688.3" y="-63.5" font-family="Helvetica,sans-Serif" font-size="10.00">_copyable.h</text>
</a>
</g>
</g>
<!-- Node5&#45;&gt;Node10 -->
<g id="edge12" class="edge">
<title>Node5&#45;&gt;Node10</title>
<path fill="none" stroke="midnightblue" d="M670.42,-190.44C684.68,-182.05 700.3,-169.9 708.3,-154 717.55,-135.61 710.5,-112.7 702.32,-95.86"/>
<polygon fill="midnightblue" stroke="midnightblue" points="705.26,-93.92 697.49,-86.72 699.07,-97.2 705.26,-93.92"/>
</g>
<!-- Node11 -->
<g id="node12" class="node">
<title>Node11</title>
<g id="a_node12"><a xlink:href="fmt__eigen_8h.html" target="_top" xlink:title=" ">
<polygon fill="white" stroke="black" points="922.8,-129 922.8,-148 1073.8,-148 1073.8,-129 922.8,-129"/>
<text text-anchor="middle" x="998.3" y="-136" font-family="Helvetica,sans-Serif" font-size="10.00">drake/common/fmt_eigen.h</text>
</a>
</g>
</g>
<!-- Node5&#45;&gt;Node11 -->
<g id="edge13" class="edge">
<title>Node5&#45;&gt;Node11</title>
<path fill="none" stroke="midnightblue" d="M699.82,-193.69C766.82,-181.53 874.92,-161.9 940.99,-149.9"/>
<polygon fill="midnightblue" stroke="midnightblue" points="942.01,-153.28 951.22,-148.05 940.76,-146.39 942.01,-153.28"/>
</g>
<!-- Node9 -->
<g id="node10" class="node">
<title>Node9</title>
<g id="a_node10"><a xlink:title=" ">
<polygon fill="white" stroke="#bfbfbf" points="476.8,-62 476.8,-81 545.8,-81 545.8,-62 476.8,-62"/>
<text text-anchor="middle" x="511.3" y="-69" font-family="Helvetica,sans-Serif" font-size="10.00">type_traits</text>
</a>
</g>
</g>
<!-- Node8&#45;&gt;Node9 -->
<g id="edge11" class="edge">
<title>Node8&#45;&gt;Node9</title>
<path fill="none" stroke="midnightblue" d="M612.31,-123.4C589.97,-112.14 558.93,-96.5 537.17,-85.54"/>
<polygon fill="midnightblue" stroke="midnightblue" points="538.69,-82.38 528.18,-81.01 535.54,-88.63 538.69,-82.38"/>
</g>
<!-- Node12 -->
<g id="node13" class="node">
<title>Node12</title>
<g id="a_node13"><a xlink:title=" ">
<polygon fill="white" stroke="#bfbfbf" points="873.3,-0.5 873.3,-19.5 917.3,-19.5 917.3,-0.5 873.3,-0.5"/>
<text text-anchor="middle" x="895.3" y="-7.5" font-family="Helvetica,sans-Serif" font-size="10.00">string</text>
</a>
</g>
</g>
<!-- Node11&#45;&gt;Node12 -->
<g id="edge14" class="edge">
<title>Node11&#45;&gt;Node12</title>
<path fill="none" stroke="midnightblue" d="M974.06,-128.93C955.02,-120.96 929.28,-107.24 914.3,-87 901.94,-70.3 897.56,-46.47 896.05,-29.97"/>
<polygon fill="midnightblue" stroke="midnightblue" points="899.53,-29.64 895.39,-19.89 892.55,-30.09 899.53,-29.64"/>
</g>
<!-- Node13 -->
<g id="node14" class="node">
<title>Node13</title>
<g id="a_node14"><a xlink:title=" ">
<polygon fill="white" stroke="#bfbfbf" points="954.8,-0.5 954.8,-19.5 1027.8,-19.5 1027.8,-0.5 954.8,-0.5"/>
<text text-anchor="middle" x="991.3" y="-7.5" font-family="Helvetica,sans-Serif" font-size="10.00">string_view</text>
</a>
</g>
</g>
<!-- Node11&#45;&gt;Node13 -->
<g id="edge15" class="edge">
<title>Node11&#45;&gt;Node13</title>
<path fill="none" stroke="midnightblue" d="M1012.67,-128.75C1025.52,-119.99 1043.49,-105.22 1051.3,-87 1056.73,-74.34 1057.46,-68.32 1051.3,-56 1044.57,-42.54 1031.69,-32.07 1019.59,-24.62"/>
<polygon fill="midnightblue" stroke="midnightblue" points="1021.02,-21.41 1010.6,-19.52 1017.57,-27.5 1021.02,-21.41"/>
</g>
<!-- Node14 -->
<g id="node15" class="node">
<title>Node14</title>
<g id="a_node15"><a xlink:title=" ">
<polygon fill="white" stroke="#bfbfbf" points="797.8,-62 797.8,-81 866.8,-81 866.8,-62 797.8,-62"/>
<text text-anchor="middle" x="832.3" y="-69" font-family="Helvetica,sans-Serif" font-size="10.00">Eigen/Core</text>
</a>
</g>
</g>
<!-- Node11&#45;&gt;Node14 -->
<g id="edge16" class="edge">
<title>Node11&#45;&gt;Node14</title>
<path fill="none" stroke="midnightblue" d="M976.26,-128.87C947.4,-117.57 896.65,-97.7 863.76,-84.82"/>
<polygon fill="midnightblue" stroke="midnightblue" points="864.76,-81.45 854.17,-81.06 862.21,-87.97 864.76,-81.45"/>
</g>
<!-- Node15 -->
<g id="node16" class="node">
<title>Node15</title>
<g id="a_node16"><a xlink:href="fmt_8h.html" target="_top" xlink:title=" ">
<polygon fill="white" stroke="black" points="923.8,-62 923.8,-81 1042.8,-81 1042.8,-62 923.8,-62"/>
<text text-anchor="middle" x="983.3" y="-69" font-family="Helvetica,sans-Serif" font-size="10.00">drake/common/fmt.h</text>
</a>
</g>
</g>
<!-- Node11&#45;&gt;Node15 -->
<g id="edge17" class="edge">
<title>Node11&#45;&gt;Node15</title>
<path fill="none" stroke="midnightblue" d="M996.28,-128.73C994.05,-119.09 990.41,-103.3 987.55,-90.91"/>
<polygon fill="midnightblue" stroke="midnightblue" points="990.95,-90.08 985.29,-81.13 984.13,-91.66 990.95,-90.08"/>
</g>
<!-- Node15&#45;&gt;Node4 -->
<g id="edge20" class="edge">
<title>Node15&#45;&gt;Node4</title>
<path fill="none" stroke="midnightblue" d="M1000.21,-61.98C1019.83,-52.08 1052.43,-35.64 1075.29,-24.12"/>
<polygon fill="midnightblue" stroke="midnightblue" points="1077.07,-27.14 1084.42,-19.51 1073.92,-20.89 1077.07,-27.14"/>
</g>
<!-- Node15&#45;&gt;Node12 -->
<g id="edge18" class="edge">
<title>Node15&#45;&gt;Node12</title>
<path fill="none" stroke="midnightblue" d="M970.69,-61.98C956.58,-52.43 933.47,-36.81 916.55,-25.37"/>
<polygon fill="midnightblue" stroke="midnightblue" points="918.13,-22.21 907.88,-19.51 914.21,-28.01 918.13,-22.21"/>
</g>
<!-- Node15&#45;&gt;Node13 -->
<g id="edge19" class="edge">
<title>Node15&#45;&gt;Node13</title>
<path fill="none" stroke="midnightblue" d="M984.45,-61.98C985.57,-53.58 987.34,-40.48 988.79,-29.66"/>
<polygon fill="midnightblue" stroke="midnightblue" points="992.29,-29.89 990.16,-19.51 985.35,-28.95 992.29,-29.89"/>
</g>
<!-- Node16&#45;&gt;Node3 -->
<g id="edge25" class="edge">
<title>Node16&#45;&gt;Node3</title>
<path fill="none" stroke="midnightblue" d="M149.89,-190.34C134.91,-182.09 118.74,-170.11 110.3,-154 103.9,-141.8 101.9,-133.92 110.3,-123 129.34,-98.23 218.31,-83.06 267.46,-76.43"/>
<polygon fill="midnightblue" stroke="midnightblue" points="268.13,-79.87 277.59,-75.11 267.22,-72.93 268.13,-79.87"/>
</g>
<!-- Node16&#45;&gt;Node12 -->
<g id="edge23" class="edge">
<title>Node16&#45;&gt;Node12</title>
<path fill="none" stroke="midnightblue" d="M120.14,-190.39C72.25,-179.05 13.47,-163.5 6.3,-154 -2,-143 -2.15,-133.88 6.3,-123 80.01,-28.07 149.66,-75.27 268.3,-56 493.93,-19.36 770.08,-12.55 863.03,-11.29"/>
<polygon fill="midnightblue" stroke="midnightblue" points="863.24,-14.79 873.2,-11.16 863.16,-7.79 863.24,-14.79"/>
</g>
<!-- Node17 -->
<g id="node18" class="node">
<title>Node17</title>
<g id="a_node18"><a xlink:title=" ">
<polygon fill="white" stroke="#bfbfbf" points="119.3,-129 119.3,-148 177.3,-148 177.3,-129 119.3,-129"/>
<text text-anchor="middle" x="148.3" y="-136" font-family="Helvetica,sans-Serif" font-size="10.00">memory</text>
</a>
</g>
</g>
<!-- Node16&#45;&gt;Node17 -->
<g id="edge22" class="edge">
<title>Node16&#45;&gt;Node17</title>
<path fill="none" stroke="midnightblue" d="M175.71,-190.4C170.46,-180.66 163.46,-167.65 157.84,-157.21"/>
<polygon fill="midnightblue" stroke="midnightblue" points="160.8,-155.34 152.98,-148.19 154.64,-158.66 160.8,-155.34"/>
</g>
<!-- Node18 -->
<g id="node19" class="node">
<title>Node18</title>
<g id="a_node19"><a xlink:title=" ">
<polygon fill="white" stroke="#bfbfbf" points="195.8,-129 195.8,-148 252.8,-148 252.8,-129 195.8,-129"/>
<text text-anchor="middle" x="224.3" y="-136" font-family="Helvetica,sans-Serif" font-size="10.00">typeinfo</text>
</a>
</g>
</g>
<!-- Node16&#45;&gt;Node18 -->
<g id="edge24" class="edge">
<title>Node16&#45;&gt;Node18</title>
<path fill="none" stroke="midnightblue" d="M192.2,-190.4C198.4,-180.56 206.72,-167.38 213.33,-156.89"/>
<polygon fill="midnightblue" stroke="midnightblue" points="216.44,-158.52 218.82,-148.19 210.52,-154.79 216.44,-158.52"/>
</g>
<!-- Node19 -->
<g id="node20" class="node">
<title>Node19</title>
<g id="a_node20"><a xlink:title=" ">
<polygon fill="white" stroke="#bfbfbf" points="15.8,-129 15.8,-148 62.8,-148 62.8,-129 15.8,-129"/>
<text text-anchor="middle" x="39.3" y="-136" font-family="Helvetica,sans-Serif" font-size="10.00">vector</text>
</a>
</g>
</g>
<!-- Node16&#45;&gt;Node19 -->
<g id="edge26" class="edge">
<title>Node16&#45;&gt;Node19</title>
<path fill="none" stroke="midnightblue" d="M152.05,-190.4C126.9,-179.04 91.85,-163.22 67.53,-152.24"/>
<polygon fill="midnightblue" stroke="midnightblue" points="68.7,-148.93 58.15,-148.01 65.82,-155.31 68.7,-148.93"/>
</g>
<!-- Node20 -->
<g id="node21" class="node">
<title>Node20</title>
<g id="a_node21"><a xlink:href="never__destroyed_8h.html" target="_top" xlink:title=" ">
<polygon fill="white" stroke="black" points="347.3,-123.5 347.3,-153.5 467.3,-153.5 467.3,-123.5 347.3,-123.5"/>
<text text-anchor="start" x="355.3" y="-141.5" font-family="Helvetica,sans-Serif" font-size="10.00">drake/common/never</text>
<text text-anchor="middle" x="407.3" y="-130.5" font-family="Helvetica,sans-Serif" font-size="10.00">_destroyed.h</text>
</a>
</g>
</g>
<!-- Node16&#45;&gt;Node20 -->
<g id="edge27" class="edge">
<title>Node16&#45;&gt;Node20</title>
<path fill="none" stroke="midnightblue" d="M231.63,-190.48C265.96,-180.51 312.23,-167.09 348.67,-156.51"/>
<polygon fill="midnightblue" stroke="midnightblue" points="350.04,-159.76 358.67,-153.61 348.09,-153.04 350.04,-159.76"/>
</g>
<!-- Node20&#45;&gt;Node3 -->
<g id="edge30" class="edge">
<title>Node20&#45;&gt;Node3</title>
<path fill="none" stroke="midnightblue" d="M384.08,-123.4C365.97,-112.39 340.96,-97.2 322.99,-86.28"/>
<polygon fill="midnightblue" stroke="midnightblue" points="324.67,-83.21 314.3,-81.01 321.03,-89.19 324.67,-83.21"/>
</g>
<!-- Node20&#45;&gt;Node9 -->
<g id="edge29" class="edge">
<title>Node20&#45;&gt;Node9</title>
<path fill="none" stroke="midnightblue" d="M429.87,-123.4C447.31,-112.5 471.33,-97.48 488.77,-86.58"/>
<polygon fill="midnightblue" stroke="midnightblue" points="491.06,-89.28 497.69,-81.01 487.35,-83.34 491.06,-89.28"/>
</g>
<!-- Node20&#45;&gt;Node10 -->
<g id="edge31" class="edge">
<title>Node20&#45;&gt;Node10</title>
<path fill="none" stroke="midnightblue" d="M467.58,-123.56C511.9,-113.3 572.24,-99.35 618.63,-88.62"/>
<polygon fill="midnightblue" stroke="midnightblue" points="619.65,-91.97 628.6,-86.31 618.07,-85.15 619.65,-91.97"/>
</g>
<!-- Node21 -->
<g id="node22" class="node">
<title>Node21</title>
<g id="a_node22"><a xlink:title=" ">
<polygon fill="white" stroke="#bfbfbf" points="388.8,-62 388.8,-81 425.8,-81 425.8,-62 388.8,-62"/>
<text text-anchor="middle" x="407.3" y="-69" font-family="Helvetica,sans-Serif" font-size="10.00">new</text>
</a>
</g>
</g>
<!-- Node20&#45;&gt;Node21 -->
<g id="edge28" class="edge">
<title>Node20&#45;&gt;Node21</title>
<path fill="none" stroke="midnightblue" d="M407.3,-123.4C407.3,-114.06 407.3,-101.71 407.3,-91.52"/>
<polygon fill="midnightblue" stroke="midnightblue" points="410.8,-91.19 407.3,-81.19 403.8,-91.19 410.8,-91.19"/>
</g>
</g>
</svg>
