<?xml version="1.0" encoding="UTF-8" standalone="no"?>
<!DOCTYPE svg PUBLIC "-//W3C//DTD SVG 1.1//EN"
 "http://www.w3.org/Graphics/SVG/1.1/DTD/svg11.dtd">
<!-- Generated by graphviz version 2.43.0 (0)
 -->
<!-- Title: drake/multibody/tree/linear_bushing_roll_pitch_yaw.h Pages: 1 -->
<svg width="628pt" height="184pt"
 viewBox="0.00 0.00 628.00 184.00" xmlns="http://www.w3.org/2000/svg" xmlns:xlink="http://www.w3.org/1999/xlink">
<g id="graph0" class="graph" transform="scale(1 1) rotate(0) translate(4 180)">
<title>drake/multibody/tree/linear_bushing_roll_pitch_yaw.h</title>
<polygon fill="white" stroke="transparent" points="-4,4 -4,-180 624,-180 624,4 -4,4"/>
<!-- Node163 -->
<g id="node1" class="node">
<title>Node163</title>
<g id="a_node1"><a xlink:title=" ">
<polygon fill="#bfbfbf" stroke="black" points="244,-134.5 244,-175.5 363,-175.5 363,-134.5 244,-134.5"/>
<text text-anchor="start" x="252" y="-163.5" font-family="Helvetica,sans-Serif" font-size="10.00">drake/multibody/tree</text>
<text text-anchor="start" x="252" y="-152.5" font-family="Helvetica,sans-Serif" font-size="10.00">/linear_bushing_roll</text>
<text text-anchor="middle" x="303.5" y="-141.5" font-family="Helvetica,sans-Serif" font-size="10.00">_pitch_yaw.h</text>
</a>
</g>
</g>
<!-- Node164 -->
<g id="node2" class="node">
<title>Node164</title>
<g id="a_node2"><a xlink:href="detail__common_8h.html" target="_top" xlink:title=" ">
<polygon fill="white" stroke="black" points="236,-67.5 236,-97.5 371,-97.5 371,-67.5 236,-67.5"/>
<text text-anchor="start" x="244" y="-85.5" font-family="Helvetica,sans-Serif" font-size="10.00">drake/multibody/parsing</text>
<text text-anchor="middle" x="303.5" y="-74.5" font-family="Helvetica,sans-Serif" font-size="10.00">/detail_common.h</text>
</a>
</g>
</g>
<!-- Node163&#45;&gt;Node164 -->
<g id="edge1" class="edge">
<title>Node163&#45;&gt;Node164</title>
<path fill="none" stroke="midnightblue" d="M303.5,-124.08C303.5,-115.01 303.5,-105.45 303.5,-97.89"/>
<polygon fill="midnightblue" stroke="midnightblue" points="300,-124.36 303.5,-134.36 307,-124.36 300,-124.36"/>
</g>
<!-- Node165 -->
<g id="node3" class="node">
<title>Node165</title>
<g id="a_node3"><a xlink:href="detail__mujoco__parser_8h.html" target="_top" xlink:title=" ">
<polygon fill="white" stroke="black" points="0,-0.5 0,-30.5 135,-30.5 135,-0.5 0,-0.5"/>
<text text-anchor="start" x="8" y="-18.5" font-family="Helvetica,sans-Serif" font-size="10.00">drake/multibody/parsing</text>
<text text-anchor="middle" x="67.5" y="-7.5" font-family="Helvetica,sans-Serif" font-size="10.00">/detail_mujoco_parser.h</text>
</a>
</g>
</g>
<!-- Node164&#45;&gt;Node165 -->
<g id="edge2" class="edge">
<title>Node164&#45;&gt;Node165</title>
<path fill="none" stroke="midnightblue" d="M242.56,-64.71C204.15,-54.14 155.13,-40.63 118.73,-30.61"/>
<polygon fill="midnightblue" stroke="midnightblue" points="242.01,-68.19 252.58,-67.48 243.87,-61.45 242.01,-68.19"/>
</g>
<!-- Node166 -->
<g id="node4" class="node">
<title>Node166</title>
<g id="a_node4"><a xlink:href="detail__sdf__parser_8h.html" target="_top" xlink:title=" ">
<polygon fill="white" stroke="black" points="153,-0.5 153,-30.5 288,-30.5 288,-0.5 153,-0.5"/>
<text text-anchor="start" x="161" y="-18.5" font-family="Helvetica,sans-Serif" font-size="10.00">drake/multibody/parsing</text>
<text text-anchor="middle" x="220.5" y="-7.5" font-family="Helvetica,sans-Serif" font-size="10.00">/detail_sdf_parser.h</text>
</a>
</g>
</g>
<!-- Node164&#45;&gt;Node166 -->
<g id="edge3" class="edge">
<title>Node164&#45;&gt;Node166</title>
<path fill="none" stroke="midnightblue" d="M277.54,-61.17C264.85,-51.23 249.89,-39.51 238.47,-30.58"/>
<polygon fill="midnightblue" stroke="midnightblue" points="275.46,-63.99 285.49,-67.4 279.78,-58.47 275.46,-63.99"/>
</g>
<!-- Node167 -->
<g id="node5" class="node">
<title>Node167</title>
<g id="a_node5"><a xlink:href="detail__tinyxml2__diagnostic_8h.html" target="_top" xlink:title=" ">
<polygon fill="white" stroke="black" points="306,-0.5 306,-30.5 467,-30.5 467,-0.5 306,-0.5"/>
<text text-anchor="start" x="314" y="-18.5" font-family="Helvetica,sans-Serif" font-size="10.00">drake/multibody/parsing</text>
<text text-anchor="middle" x="386.5" y="-7.5" font-family="Helvetica,sans-Serif" font-size="10.00">/detail_tinyxml2_diagnostic.h</text>
</a>
</g>
</g>
<!-- Node164&#45;&gt;Node167 -->
<g id="edge4" class="edge">
<title>Node164&#45;&gt;Node167</title>
<path fill="none" stroke="midnightblue" d="M329.46,-61.17C342.15,-51.23 357.11,-39.51 368.53,-30.58"/>
<polygon fill="midnightblue" stroke="midnightblue" points="327.22,-58.47 321.51,-67.4 331.54,-63.99 327.22,-58.47"/>
</g>
<!-- Node168 -->
<g id="node6" class="node">
<title>Node168</title>
<g id="a_node6"><a xlink:href="detail__urdf__parser_8h.html" target="_top" xlink:title=" ">
<polygon fill="white" stroke="black" points="485,-0.5 485,-30.5 620,-30.5 620,-0.5 485,-0.5"/>
<text text-anchor="start" x="493" y="-18.5" font-family="Helvetica,sans-Serif" font-size="10.00">drake/multibody/parsing</text>
<text text-anchor="middle" x="552.5" y="-7.5" font-family="Helvetica,sans-Serif" font-size="10.00">/detail_urdf_parser.h</text>
</a>
</g>
</g>
<!-- Node164&#45;&gt;Node168 -->
<g id="edge5" class="edge">
<title>Node164&#45;&gt;Node168</title>
<path fill="none" stroke="midnightblue" d="M367.03,-64.92C407.66,-54.31 459.8,-40.7 498.44,-30.61"/>
<polygon fill="midnightblue" stroke="midnightblue" points="366.01,-61.56 357.22,-67.48 367.78,-68.34 366.01,-61.56"/>
</g>
</g>
</svg>
