<?xml version="1.0" encoding="UTF-8" standalone="no"?>
<!DOCTYPE svg PUBLIC "-//W3C//DTD SVG 1.1//EN"
 "http://www.w3.org/Graphics/SVG/1.1/DTD/svg11.dtd">
<!-- Generated by graphviz version 2.43.0 (0)
 -->
<!-- Title: drake/multibody/fem/linear_constitutive_model_data.h Pages: 1 -->
<svg width="987pt" height="385pt"
 viewBox="0.00 0.00 986.54 385.00" xmlns="http://www.w3.org/2000/svg" xmlns:xlink="http://www.w3.org/1999/xlink">
<g id="graph0" class="graph" transform="scale(1 1) rotate(0) translate(4 381)">
<title>drake/multibody/fem/linear_constitutive_model_data.h</title>
<polygon fill="white" stroke="transparent" points="-4,4 -4,-381 982.54,-381 982.54,4 -4,4"/>
<!-- Node0 -->
<g id="node1" class="node">
<title>Node0</title>
<g id="a_node1"><a xlink:title=" ">
<polygon fill="#bfbfbf" stroke="black" points="542,-335.5 542,-376.5 661,-376.5 661,-335.5 542,-335.5"/>
<text text-anchor="start" x="550" y="-364.5" font-family="Helvetica,sans-Serif" font-size="10.00">drake/multibody/fem</text>
<text text-anchor="start" x="550" y="-353.5" font-family="Helvetica,sans-Serif" font-size="10.00">/linear_constitutive</text>
<text text-anchor="middle" x="601.5" y="-342.5" font-family="Helvetica,sans-Serif" font-size="10.00">_model_data.h</text>
</a>
</g>
</g>
<!-- Node1 -->
<g id="node2" class="node">
<title>Node1</title>
<g id="a_node2"><a xlink:title=" ">
<polygon fill="white" stroke="#bfbfbf" points="345.5,-196 345.5,-215 387.5,-215 387.5,-196 345.5,-196"/>
<text text-anchor="middle" x="366.5" y="-203" font-family="Helvetica,sans-Serif" font-size="10.00">array</text>
</a>
</g>
</g>
<!-- Node0&#45;&gt;Node1 -->
<g id="edge1" class="edge">
<title>Node0&#45;&gt;Node1</title>
<path fill="none" stroke="midnightblue" d="M570.29,-335.28C522.12,-304.84 430.83,-247.15 388.75,-220.56"/>
<polygon fill="midnightblue" stroke="midnightblue" points="390.42,-217.47 380.09,-215.09 386.68,-223.39 390.42,-217.47"/>
</g>
<!-- Node2 -->
<g id="node3" class="node">
<title>Node2</title>
<g id="a_node3"><a xlink:href="deformation__gradient__data_8h.html" target="_top" xlink:title=" ">
<polygon fill="white" stroke="black" points="589,-257.5 589,-298.5 714,-298.5 714,-257.5 589,-257.5"/>
<text text-anchor="start" x="597" y="-286.5" font-family="Helvetica,sans-Serif" font-size="10.00">drake/multibody/fem</text>
<text text-anchor="start" x="597" y="-275.5" font-family="Helvetica,sans-Serif" font-size="10.00">/deformation_gradient</text>
<text text-anchor="middle" x="651.5" y="-264.5" font-family="Helvetica,sans-Serif" font-size="10.00">_data.h</text>
</a>
</g>
</g>
<!-- Node0&#45;&gt;Node2 -->
<g id="edge2" class="edge">
<title>Node0&#45;&gt;Node2</title>
<path fill="none" stroke="midnightblue" d="M614.38,-335.43C620.09,-326.74 626.92,-316.36 633.16,-306.88"/>
<polygon fill="midnightblue" stroke="midnightblue" points="636.1,-308.78 638.67,-298.51 630.25,-304.94 636.1,-308.78"/>
</g>
<!-- Node2&#45;&gt;Node1 -->
<g id="edge3" class="edge">
<title>Node2&#45;&gt;Node1</title>
<path fill="none" stroke="midnightblue" d="M588.76,-261.26C582.6,-259.79 576.43,-258.35 570.5,-257 493.49,-239.53 471.28,-246.37 396.5,-221 394.88,-220.45 393.24,-219.83 391.59,-219.17"/>
<polygon fill="midnightblue" stroke="midnightblue" points="392.94,-215.95 382.39,-215.08 390.1,-222.34 392.94,-215.95"/>
</g>
<!-- Node3 -->
<g id="node4" class="node">
<title>Node3</title>
<g id="a_node4"><a xlink:title=" ">
<polygon fill="white" stroke="#bfbfbf" points="804,-62 804,-81 849,-81 849,-62 804,-62"/>
<text text-anchor="middle" x="826.5" y="-69" font-family="Helvetica,sans-Serif" font-size="10.00">utility</text>
</a>
</g>
</g>
<!-- Node2&#45;&gt;Node3 -->
<g id="edge4" class="edge">
<title>Node2&#45;&gt;Node3</title>
<path fill="none" stroke="midnightblue" d="M714.27,-269.66C782.31,-260.7 885.48,-243.86 917.5,-221 955.79,-193.66 984.12,-161.79 957.5,-123 935.57,-91.04 890.33,-79.3 859.21,-74.99"/>
<polygon fill="midnightblue" stroke="midnightblue" points="859.6,-71.51 849.25,-73.8 858.76,-78.46 859.6,-71.51"/>
</g>
<!-- Node4 -->
<g id="node5" class="node">
<title>Node4</title>
<g id="a_node5"><a xlink:title=" ">
<polygon fill="white" stroke="#bfbfbf" points="743,-0.5 743,-19.5 822,-19.5 822,-0.5 743,-0.5"/>
<text text-anchor="middle" x="782.5" y="-7.5" font-family="Helvetica,sans-Serif" font-size="10.00">fmt/format.h</text>
</a>
</g>
</g>
<!-- Node2&#45;&gt;Node4 -->
<g id="edge5" class="edge">
<title>Node2&#45;&gt;Node4</title>
<path fill="none" stroke="midnightblue" d="M714.12,-272.13C790.35,-265.05 913.28,-249.52 948.5,-221 973.58,-200.69 970.15,-185.64 976.5,-154 986.73,-102.99 956.27,-84.11 912.5,-56 888.02,-40.28 857.39,-29.33 832.02,-22.17"/>
<polygon fill="midnightblue" stroke="midnightblue" points="832.79,-18.75 822.22,-19.52 830.96,-25.51 832.79,-18.75"/>
</g>
<!-- Node5 -->
<g id="node6" class="node">
<title>Node5</title>
<g id="a_node6"><a xlink:href="eigen__types_8h.html" target="_top" xlink:title="This file contains abbreviated definitions for certain specializations of Eigen::Matrix that are comm...">
<polygon fill="white" stroke="black" points="406,-190.5 406,-220.5 525,-220.5 525,-190.5 406,-190.5"/>
<text text-anchor="start" x="414" y="-208.5" font-family="Helvetica,sans-Serif" font-size="10.00">drake/common/eigen</text>
<text text-anchor="middle" x="465.5" y="-197.5" font-family="Helvetica,sans-Serif" font-size="10.00">_types.h</text>
</a>
</g>
</g>
<!-- Node2&#45;&gt;Node5 -->
<g id="edge6" class="edge">
<title>Node2&#45;&gt;Node5</title>
<path fill="none" stroke="midnightblue" d="M599.69,-257.36C572.21,-246.95 538.73,-234.25 512.08,-224.15"/>
<polygon fill="midnightblue" stroke="midnightblue" points="513.18,-220.83 502.59,-220.56 510.7,-227.38 513.18,-220.83"/>
</g>
<!-- Node16 -->
<g id="node17" class="node">
<title>Node16</title>
<g id="a_node17"><a xlink:href="nice__type__name_8h.html" target="_top" xlink:title=" ">
<polygon fill="white" stroke="black" points="768.5,-190.5 768.5,-220.5 908.5,-220.5 908.5,-190.5 768.5,-190.5"/>
<text text-anchor="start" x="776.5" y="-208.5" font-family="Helvetica,sans-Serif" font-size="10.00">drake/common/nice_type</text>
<text text-anchor="middle" x="838.5" y="-197.5" font-family="Helvetica,sans-Serif" font-size="10.00">_name.h</text>
</a>
</g>
</g>
<!-- Node2&#45;&gt;Node16 -->
<g id="edge22" class="edge">
<title>Node2&#45;&gt;Node16</title>
<path fill="none" stroke="midnightblue" d="M703.59,-257.36C731.21,-246.95 764.88,-234.25 791.67,-224.15"/>
<polygon fill="midnightblue" stroke="midnightblue" points="793.08,-227.36 801.21,-220.56 790.62,-220.81 793.08,-227.36"/>
</g>
<!-- Node5&#45;&gt;Node3 -->
<g id="edge7" class="edge">
<title>Node5&#45;&gt;Node3</title>
<path fill="none" stroke="midnightblue" d="M525.2,-198.38C571.13,-191.93 635.23,-179.05 686.5,-154 706.08,-144.43 706.17,-134.8 724.5,-123 747.59,-108.13 775.68,-94.52 796.52,-85.19"/>
<polygon fill="midnightblue" stroke="midnightblue" points="798.1,-88.32 805.84,-81.09 795.27,-81.91 798.1,-88.32"/>
</g>
<!-- Node6 -->
<g id="node7" class="node">
<title>Node6</title>
<g id="a_node7"><a xlink:title=" ">
<polygon fill="white" stroke="#bfbfbf" points="296,-129 296,-148 373,-148 373,-129 296,-129"/>
<text text-anchor="middle" x="334.5" y="-136" font-family="Helvetica,sans-Serif" font-size="10.00">Eigen/Dense</text>
</a>
</g>
</g>
<!-- Node5&#45;&gt;Node6 -->
<g id="edge8" class="edge">
<title>Node5&#45;&gt;Node6</title>
<path fill="none" stroke="midnightblue" d="M437.07,-190.4C414.39,-179.14 382.87,-163.5 360.78,-152.54"/>
<polygon fill="midnightblue" stroke="midnightblue" points="362.16,-149.32 351.64,-148.01 359.05,-155.59 362.16,-149.32"/>
</g>
<!-- Node7 -->
<g id="node8" class="node">
<title>Node7</title>
<g id="a_node8"><a xlink:href="constants_8h.html" target="_top" xlink:title=" ">
<polygon fill="white" stroke="black" points="391,-129 391,-148 540,-148 540,-129 391,-129"/>
<text text-anchor="middle" x="465.5" y="-136" font-family="Helvetica,sans-Serif" font-size="10.00">drake/common/constants.h</text>
</a>
</g>
</g>
<!-- Node5&#45;&gt;Node7 -->
<g id="edge9" class="edge">
<title>Node5&#45;&gt;Node7</title>
<path fill="none" stroke="midnightblue" d="M465.5,-190.4C465.5,-181.06 465.5,-168.71 465.5,-158.52"/>
<polygon fill="midnightblue" stroke="midnightblue" points="469,-158.19 465.5,-148.19 462,-158.19 469,-158.19"/>
</g>
<!-- Node8 -->
<g id="node9" class="node">
<title>Node8</title>
<g id="a_node9"><a xlink:href="drake__assert_8h.html" target="_top" xlink:title="Provides Drake&#39;s assertion implementation.">
<polygon fill="white" stroke="black" points="0,-56.5 0,-86.5 119,-86.5 119,-56.5 0,-56.5"/>
<text text-anchor="start" x="8" y="-74.5" font-family="Helvetica,sans-Serif" font-size="10.00">drake/common/drake</text>
<text text-anchor="middle" x="59.5" y="-63.5" font-family="Helvetica,sans-Serif" font-size="10.00">_assert.h</text>
</a>
</g>
</g>
<!-- Node5&#45;&gt;Node8 -->
<g id="edge10" class="edge">
<title>Node5&#45;&gt;Node8</title>
<path fill="none" stroke="midnightblue" d="M405.73,-191.58C402.61,-191.02 399.52,-190.49 396.5,-190 326.29,-178.67 131.63,-201.28 78.5,-154 62.62,-139.87 58.69,-115.28 58.23,-96.79"/>
<polygon fill="midnightblue" stroke="midnightblue" points="61.73,-96.76 58.3,-86.74 54.73,-96.71 61.73,-96.76"/>
</g>
<!-- Node10 -->
<g id="node11" class="node">
<title>Node10</title>
<g id="a_node11"><a xlink:href="drake__copyable_8h.html" target="_top" xlink:title="Provides careful macros to selectively enable or disable the special member functions for copy&#45;constr...">
<polygon fill="white" stroke="black" points="447,-56.5 447,-86.5 566,-86.5 566,-56.5 447,-56.5"/>
<text text-anchor="start" x="455" y="-74.5" font-family="Helvetica,sans-Serif" font-size="10.00">drake/common/drake</text>
<text text-anchor="middle" x="506.5" y="-63.5" font-family="Helvetica,sans-Serif" font-size="10.00">_copyable.h</text>
</a>
</g>
</g>
<!-- Node5&#45;&gt;Node10 -->
<g id="edge12" class="edge">
<title>Node5&#45;&gt;Node10</title>
<path fill="none" stroke="midnightblue" d="M405.99,-191.45C356.84,-180.07 293.98,-163.88 286.5,-154 278.18,-143.01 277.92,-133.78 286.5,-123 291.33,-116.94 374.29,-99.06 436.92,-86.31"/>
<polygon fill="midnightblue" stroke="midnightblue" points="437.68,-89.72 446.78,-84.3 436.28,-82.86 437.68,-89.72"/>
</g>
<!-- Node11 -->
<g id="node12" class="node">
<title>Node11</title>
<g id="a_node12"><a xlink:href="fmt__eigen_8h.html" target="_top" xlink:title=" ">
<polygon fill="white" stroke="black" points="88,-129 88,-148 239,-148 239,-129 88,-129"/>
<text text-anchor="middle" x="163.5" y="-136" font-family="Helvetica,sans-Serif" font-size="10.00">drake/common/fmt_eigen.h</text>
</a>
</g>
</g>
<!-- Node5&#45;&gt;Node11 -->
<g id="edge13" class="edge">
<title>Node5&#45;&gt;Node11</title>
<path fill="none" stroke="midnightblue" d="M405.83,-191.66C349.47,-179.53 265.92,-161.54 213.12,-150.18"/>
<polygon fill="midnightblue" stroke="midnightblue" points="213.82,-146.75 203.3,-148.07 212.34,-153.59 213.82,-146.75"/>
</g>
<!-- Node9 -->
<g id="node10" class="node">
<title>Node9</title>
<g id="a_node10"><a xlink:title=" ">
<polygon fill="white" stroke="#bfbfbf" points="69,-0.5 69,-19.5 138,-19.5 138,-0.5 69,-0.5"/>
<text text-anchor="middle" x="103.5" y="-7.5" font-family="Helvetica,sans-Serif" font-size="10.00">type_traits</text>
</a>
</g>
</g>
<!-- Node8&#45;&gt;Node9 -->
<g id="edge11" class="edge">
<title>Node8&#45;&gt;Node9</title>
<path fill="none" stroke="midnightblue" d="M69.93,-56.4C76.26,-47.84 84.37,-36.87 91.03,-27.86"/>
<polygon fill="midnightblue" stroke="midnightblue" points="93.97,-29.78 97.1,-19.66 88.34,-25.62 93.97,-29.78"/>
</g>
<!-- Node12 -->
<g id="node13" class="node">
<title>Node12</title>
<g id="a_node13"><a xlink:title=" ">
<polygon fill="white" stroke="#bfbfbf" points="388.5,-0.5 388.5,-19.5 432.5,-19.5 432.5,-0.5 388.5,-0.5"/>
<text text-anchor="middle" x="410.5" y="-7.5" font-family="Helvetica,sans-Serif" font-size="10.00">string</text>
</a>
</g>
</g>
<!-- Node11&#45;&gt;Node12 -->
<g id="edge14" class="edge">
<title>Node11&#45;&gt;Node12</title>
<path fill="none" stroke="midnightblue" d="M214.83,-128.98C277.81,-118.08 377.86,-99.16 390.5,-87 405.9,-72.18 409.94,-47.03 410.76,-29.75"/>
<polygon fill="midnightblue" stroke="midnightblue" points="414.26,-29.77 410.92,-19.72 407.26,-29.66 414.26,-29.77"/>
</g>
<!-- Node13 -->
<g id="node14" class="node">
<title>Node13</title>
<g id="a_node14"><a xlink:title=" ">
<polygon fill="white" stroke="#bfbfbf" points="243,-0.5 243,-19.5 316,-19.5 316,-0.5 243,-0.5"/>
<text text-anchor="middle" x="279.5" y="-7.5" font-family="Helvetica,sans-Serif" font-size="10.00">string_view</text>
</a>
</g>
</g>
<!-- Node11&#45;&gt;Node13 -->
<g id="edge15" class="edge">
<title>Node11&#45;&gt;Node13</title>
<path fill="none" stroke="midnightblue" d="M161.03,-128.93C156.98,-112.95 150.83,-78.21 166.5,-56 181.68,-34.48 208.88,-23.25 232.79,-17.39"/>
<polygon fill="midnightblue" stroke="midnightblue" points="233.77,-20.76 242.79,-15.19 232.27,-13.92 233.77,-20.76"/>
</g>
<!-- Node14 -->
<g id="node15" class="node">
<title>Node14</title>
<g id="a_node15"><a xlink:title=" ">
<polygon fill="white" stroke="#bfbfbf" points="176,-62 176,-81 245,-81 245,-62 176,-62"/>
<text text-anchor="middle" x="210.5" y="-69" font-family="Helvetica,sans-Serif" font-size="10.00">Eigen/Core</text>
</a>
</g>
</g>
<!-- Node11&#45;&gt;Node14 -->
<g id="edge16" class="edge">
<title>Node11&#45;&gt;Node14</title>
<path fill="none" stroke="midnightblue" d="M169.84,-128.73C177.1,-118.7 189.16,-102.01 198.26,-89.42"/>
<polygon fill="midnightblue" stroke="midnightblue" points="201.24,-91.28 204.26,-81.13 195.57,-87.18 201.24,-91.28"/>
</g>
<!-- Node15 -->
<g id="node16" class="node">
<title>Node15</title>
<g id="a_node16"><a xlink:href="fmt_8h.html" target="_top" xlink:title=" ">
<polygon fill="white" stroke="black" points="263,-62 263,-81 382,-81 382,-62 263,-62"/>
<text text-anchor="middle" x="322.5" y="-69" font-family="Helvetica,sans-Serif" font-size="10.00">drake/common/fmt.h</text>
</a>
</g>
</g>
<!-- Node11&#45;&gt;Node15 -->
<g id="edge17" class="edge">
<title>Node11&#45;&gt;Node15</title>
<path fill="none" stroke="midnightblue" d="M184.61,-128.87C212.13,-117.62 260.45,-97.87 291.96,-84.99"/>
<polygon fill="midnightblue" stroke="midnightblue" points="293.62,-88.09 301.55,-81.06 290.97,-81.61 293.62,-88.09"/>
</g>
<!-- Node15&#45;&gt;Node4 -->
<g id="edge21" class="edge">
<title>Node15&#45;&gt;Node4</title>
<path fill="none" stroke="midnightblue" d="M382.17,-62.78C473.85,-50.92 647.7,-28.44 732.91,-17.41"/>
<polygon fill="midnightblue" stroke="midnightblue" points="733.38,-20.88 742.85,-16.13 732.48,-13.94 733.38,-20.88"/>
</g>
<!-- Node15&#45;&gt;Node9 -->
<g id="edge20" class="edge">
<title>Node15&#45;&gt;Node9</title>
<path fill="none" stroke="midnightblue" d="M291.12,-61.98C252.58,-51.5 187.09,-33.71 144.58,-22.16"/>
<polygon fill="midnightblue" stroke="midnightblue" points="145.39,-18.75 134.82,-19.51 143.55,-25.51 145.39,-18.75"/>
</g>
<!-- Node15&#45;&gt;Node12 -->
<g id="edge18" class="edge">
<title>Node15&#45;&gt;Node12</title>
<path fill="none" stroke="midnightblue" d="M335.11,-61.98C349.22,-52.43 372.33,-36.81 389.25,-25.37"/>
<polygon fill="midnightblue" stroke="midnightblue" points="391.59,-28.01 397.92,-19.51 387.67,-22.21 391.59,-28.01"/>
</g>
<!-- Node15&#45;&gt;Node13 -->
<g id="edge19" class="edge">
<title>Node15&#45;&gt;Node13</title>
<path fill="none" stroke="midnightblue" d="M316.34,-61.98C309.89,-53.05 299.6,-38.81 291.53,-27.64"/>
<polygon fill="midnightblue" stroke="midnightblue" points="294.34,-25.56 285.65,-19.51 288.67,-29.66 294.34,-25.56"/>
</g>
<!-- Node16&#45;&gt;Node3 -->
<g id="edge26" class="edge">
<title>Node16&#45;&gt;Node3</title>
<path fill="none" stroke="midnightblue" d="M893.54,-190.49C912.04,-182.87 930.7,-171.32 941.5,-154 948.79,-142.31 949.03,-134.54 941.5,-123 923.42,-95.32 886.41,-82.71 859.24,-77.03"/>
<polygon fill="midnightblue" stroke="midnightblue" points="859.85,-73.59 849.37,-75.18 858.55,-80.46 859.85,-73.59"/>
</g>
<!-- Node16&#45;&gt;Node12 -->
<g id="edge24" class="edge">
<title>Node16&#45;&gt;Node12</title>
<path fill="none" stroke="midnightblue" d="M907.47,-190.44C926.92,-182.95 945.92,-171.5 957.5,-154 1001.69,-87.24 885.49,-65.78 858.5,-56 781.78,-28.21 532.26,-15.82 442.79,-12.19"/>
<polygon fill="midnightblue" stroke="midnightblue" points="442.83,-8.69 432.7,-11.79 442.55,-15.69 442.83,-8.69"/>
</g>
<!-- Node17 -->
<g id="node18" class="node">
<title>Node17</title>
<g id="a_node18"><a xlink:title=" ">
<polygon fill="white" stroke="#bfbfbf" points="733.5,-129 733.5,-148 791.5,-148 791.5,-129 733.5,-129"/>
<text text-anchor="middle" x="762.5" y="-136" font-family="Helvetica,sans-Serif" font-size="10.00">memory</text>
</a>
</g>
</g>
<!-- Node16&#45;&gt;Node17 -->
<g id="edge23" class="edge">
<title>Node16&#45;&gt;Node17</title>
<path fill="none" stroke="midnightblue" d="M822.01,-190.4C809.81,-179.96 793.19,-165.75 780.62,-155"/>
<polygon fill="midnightblue" stroke="midnightblue" points="782.54,-152.03 772.67,-148.19 777.99,-157.35 782.54,-152.03"/>
</g>
<!-- Node18 -->
<g id="node19" class="node">
<title>Node18</title>
<g id="a_node19"><a xlink:title=" ">
<polygon fill="white" stroke="#bfbfbf" points="810,-129 810,-148 867,-148 867,-129 810,-129"/>
<text text-anchor="middle" x="838.5" y="-136" font-family="Helvetica,sans-Serif" font-size="10.00">typeinfo</text>
</a>
</g>
</g>
<!-- Node16&#45;&gt;Node18 -->
<g id="edge25" class="edge">
<title>Node16&#45;&gt;Node18</title>
<path fill="none" stroke="midnightblue" d="M838.5,-190.4C838.5,-181.06 838.5,-168.71 838.5,-158.52"/>
<polygon fill="midnightblue" stroke="midnightblue" points="842,-158.19 838.5,-148.19 835,-158.19 842,-158.19"/>
</g>
<!-- Node19 -->
<g id="node20" class="node">
<title>Node19</title>
<g id="a_node20"><a xlink:title=" ">
<polygon fill="white" stroke="#bfbfbf" points="885,-129 885,-148 932,-148 932,-129 885,-129"/>
<text text-anchor="middle" x="908.5" y="-136" font-family="Helvetica,sans-Serif" font-size="10.00">vector</text>
</a>
</g>
</g>
<!-- Node16&#45;&gt;Node19 -->
<g id="edge27" class="edge">
<title>Node16&#45;&gt;Node19</title>
<path fill="none" stroke="midnightblue" d="M853.69,-190.4C864.82,-180.06 879.94,-166.02 891.47,-155.31"/>
<polygon fill="midnightblue" stroke="midnightblue" points="894.19,-157.56 899.14,-148.19 889.43,-152.43 894.19,-157.56"/>
</g>
<!-- Node20 -->
<g id="node21" class="node">
<title>Node20</title>
<g id="a_node21"><a xlink:href="never__destroyed_8h.html" target="_top" xlink:title=" ">
<polygon fill="white" stroke="black" points="557.5,-123.5 557.5,-153.5 677.5,-153.5 677.5,-123.5 557.5,-123.5"/>
<text text-anchor="start" x="565.5" y="-141.5" font-family="Helvetica,sans-Serif" font-size="10.00">drake/common/never</text>
<text text-anchor="middle" x="617.5" y="-130.5" font-family="Helvetica,sans-Serif" font-size="10.00">_destroyed.h</text>
</a>
</g>
</g>
<!-- Node16&#45;&gt;Node20 -->
<g id="edge28" class="edge">
<title>Node16&#45;&gt;Node20</title>
<path fill="none" stroke="midnightblue" d="M790.82,-190.48C756.95,-180.51 711.29,-167.09 675.34,-156.51"/>
<polygon fill="midnightblue" stroke="midnightblue" points="676.06,-153.07 665.48,-153.61 674.08,-159.79 676.06,-153.07"/>
</g>
<!-- Node20&#45;&gt;Node3 -->
<g id="edge30" class="edge">
<title>Node20&#45;&gt;Node3</title>
<path fill="none" stroke="midnightblue" d="M662.59,-123.48C702.13,-111.18 758.66,-93.6 793.93,-82.63"/>
<polygon fill="midnightblue" stroke="midnightblue" points="795.21,-85.9 803.72,-79.58 793.14,-79.21 795.21,-85.9"/>
</g>
<!-- Node20&#45;&gt;Node10 -->
<g id="edge31" class="edge">
<title>Node20&#45;&gt;Node10</title>
<path fill="none" stroke="midnightblue" d="M593.41,-123.4C577.56,-114.11 556.61,-101.84 539.24,-91.67"/>
<polygon fill="midnightblue" stroke="midnightblue" points="540.94,-88.61 530.54,-86.58 537.4,-94.65 540.94,-88.61"/>
</g>
<!-- Node21 -->
<g id="node22" class="node">
<title>Node21</title>
<g id="a_node22"><a xlink:title=" ">
<polygon fill="white" stroke="#bfbfbf" points="591,-62 591,-81 644,-81 644,-62 591,-62"/>
<text text-anchor="middle" x="617.5" y="-69" font-family="Helvetica,sans-Serif" font-size="10.00">cstddef</text>
</a>
</g>
</g>
<!-- Node20&#45;&gt;Node21 -->
<g id="edge29" class="edge">
<title>Node20&#45;&gt;Node21</title>
<path fill="none" stroke="midnightblue" d="M617.5,-123.4C617.5,-114.06 617.5,-101.71 617.5,-91.52"/>
<polygon fill="midnightblue" stroke="midnightblue" points="621,-91.19 617.5,-81.19 614,-91.19 621,-91.19"/>
</g>
</g>
</svg>
