<?xml version="1.0" encoding="UTF-8" standalone="no"?>
<!DOCTYPE svg PUBLIC "-//W3C//DTD SVG 1.1//EN"
 "http://www.w3.org/Graphics/SVG/1.1/DTD/svg11.dtd">
<!-- Generated by graphviz version 2.43.0 (0)
 -->
<!-- Title: drake/multibody/fem/linear_constitutive_model_data.h Pages: 1 -->
<!--zoomable 329 -->
<svg id="main" version="1.1" xmlns="http://www.w3.org/2000/svg" xmlns:xlink="http://www.w3.org/1999/xlink" xml:space="preserve" onload="init(evt)">
<style type="text/css"><![CDATA[
.edge:hover path { stroke: red; }
.edge:hover polygon { stroke: red; fill: red; }
]]></style>
<script type="text/javascript"><![CDATA[
var edges = document.getElementsByTagName('g');
if (edges && edges.length) {
  for (var i=0;i<edges.length;i++) {
    if (edges[i].id.substr(0,4)=='edge') {
      edges[i].setAttribute('class','edge');
    }
  }
}
]]></script>
        <defs>
                <circle id="rim" cx="0" cy="0" r="7"/>
                <circle id="rim2" cx="0" cy="0" r="3.5"/>
                <g id="zoomPlus">
                        <use xlink:href="#rim" fill="#404040">
                                <set attributeName="fill" to="#808080" begin="zoomplus.mouseover" end="zoomplus.mouseout"/>
                        </use>
                        <path d="M-4,0h8M0,-4v8" fill="none" stroke="white" stroke-width="1.5" pointer-events="none"/>
                </g>
                <g id="zoomMin">
                        <use xlink:href="#rim" fill="#404040">
                                <set attributeName="fill" to="#808080" begin="zoomminus.mouseover" end="zoomminus.mouseout"/>
                        </use>
                        <path d="M-4,0h8" fill="none" stroke="white" stroke-width="1.5" pointer-events="none"/>
                </g>
                <g id="dirArrow">
                        <path fill="none" stroke="white" stroke-width="1.5" d="M0,-3.0v7 M-2.5,-0.5L0,-3.0L2.5,-0.5"/>
                </g>
               <g id="resetDef">
                       <use xlink:href="#rim2" fill="#404040">
                               <set attributeName="fill" to="#808080" begin="reset.mouseover" end="reset.mouseout"/>
                       </use>
               </g>
        </defs>

<script type="text/javascript">
var viewWidth = 916;
var viewHeight = 329;
var sectionId = 'dynsection-0';
</script>
<script xlink:href="svgpan.js"/>
<svg id="graph" class="graph">
<g id="viewport">
<title>drake/multibody/fem/linear_constitutive_model_data.h</title>
<polygon fill="white" stroke="transparent" points="-4,4 -4,-325 911.68,-325 911.68,4 -4,4"/>
<!-- Node0 -->
<g id="node1" class="node">
<title>Node0</title>
<g id="a_node1"><a xlink:title=" ">
<polygon fill="#bfbfbf" stroke="black" points="432.46,-279.5 432.46,-320.5 551.46,-320.5 551.46,-279.5 432.46,-279.5"/>
<text text-anchor="start" x="440.46" y="-308.5" font-family="Helvetica,sans-Serif" font-size="10.00">drake/multibody/fem</text>
<text text-anchor="start" x="440.46" y="-297.5" font-family="Helvetica,sans-Serif" font-size="10.00">/linear_constitutive</text>
<text text-anchor="middle" x="491.96" y="-286.5" font-family="Helvetica,sans-Serif" font-size="10.00">_model_data.h</text>
</a>
</g>
</g>
<!-- Node1 -->
<g id="node2" class="node">
<title>Node1</title>
<g id="a_node2"><a xlink:title=" ">
<polygon fill="white" stroke="#bfbfbf" points="293.96,-140 293.96,-159 335.96,-159 335.96,-140 293.96,-140"/>
<text text-anchor="middle" x="314.96" y="-147" font-family="Helvetica,sans-Serif" font-size="10.00">array</text>
</a>
</g>
</g>
<!-- Node0&#45;&gt;Node1 -->
<g id="edge1" class="edge">
<title>Node0&#45;&gt;Node1</title>
<path fill="none" stroke="midnightblue" d="M468.46,-279.28C432.72,-249.3 365.47,-192.87 333.17,-165.78"/>
<polygon fill="midnightblue" stroke="midnightblue" points="335.31,-163 325.4,-159.26 330.81,-168.37 335.31,-163"/>
</g>
<!-- Node2 -->
<g id="node3" class="node">
<title>Node2</title>
<g id="a_node3"><a xlink:href="deformation__gradient__data_8h.html" target="_top" xlink:title=" ">
<polygon fill="white" stroke="black" points="479.46,-201.5 479.46,-242.5 604.46,-242.5 604.46,-201.5 479.46,-201.5"/>
<text text-anchor="start" x="487.46" y="-230.5" font-family="Helvetica,sans-Serif" font-size="10.00">drake/multibody/fem</text>
<text text-anchor="start" x="487.46" y="-219.5" font-family="Helvetica,sans-Serif" font-size="10.00">/deformation_gradient</text>
<text text-anchor="middle" x="541.96" y="-208.5" font-family="Helvetica,sans-Serif" font-size="10.00">_data.h</text>
</a>
</g>
</g>
<!-- Node0&#45;&gt;Node2 -->
<g id="edge2" class="edge">
<title>Node0&#45;&gt;Node2</title>
<path fill="none" stroke="midnightblue" d="M504.84,-279.43C510.56,-270.74 517.39,-260.36 523.62,-250.88"/>
<polygon fill="midnightblue" stroke="midnightblue" points="526.56,-252.78 529.13,-242.51 520.71,-248.94 526.56,-252.78"/>
</g>
<!-- Node2&#45;&gt;Node1 -->
<g id="edge3" class="edge">
<title>Node2&#45;&gt;Node1</title>
<path fill="none" stroke="midnightblue" d="M479.01,-204.37C431.14,-191.5 369.47,-174.33 344.96,-165 343.54,-164.46 342.1,-163.88 340.65,-163.27"/>
<polygon fill="midnightblue" stroke="midnightblue" points="341.8,-159.94 331.24,-159 338.9,-166.32 341.8,-159.94"/>
</g>
<!-- Node3 -->
<g id="node4" class="node">
<title>Node3</title>
<g id="a_node4"><a xlink:title=" ">
<polygon fill="white" stroke="#bfbfbf" points="594.46,-6 594.46,-25 639.46,-25 639.46,-6 594.46,-6"/>
<text text-anchor="middle" x="616.96" y="-13" font-family="Helvetica,sans-Serif" font-size="10.00">utility</text>
</a>
</g>
</g>
<!-- Node2&#45;&gt;Node3 -->
<g id="edge4" class="edge">
<title>Node2&#45;&gt;Node3</title>
<path fill="none" stroke="midnightblue" d="M604.58,-217.05C662.77,-211.41 750.65,-197.79 819.96,-165 862.5,-144.87 881.8,-140.52 901.96,-98 907.87,-85.55 910.82,-77.56 901.96,-67 870.09,-28.99 717.86,-19.57 649.88,-17.25"/>
<polygon fill="midnightblue" stroke="midnightblue" points="649.83,-13.75 639.72,-16.94 649.61,-20.74 649.83,-13.75"/>
</g>
<!-- Node4 -->
<g id="node5" class="node">
<title>Node4</title>
<g id="a_node5"><a xlink:title=" ">
<polygon fill="white" stroke="#bfbfbf" points="731.46,-140 731.46,-159 810.46,-159 810.46,-140 731.46,-140"/>
<text text-anchor="middle" x="770.96" y="-147" font-family="Helvetica,sans-Serif" font-size="10.00">fmt/format.h</text>
</a>
</g>
</g>
<!-- Node2&#45;&gt;Node4 -->
<g id="edge5" class="edge">
<title>Node2&#45;&gt;Node4</title>
<path fill="none" stroke="midnightblue" d="M604.54,-201.74C645.76,-189.05 698.37,-172.85 733.29,-162.1"/>
<polygon fill="midnightblue" stroke="midnightblue" points="734.56,-165.37 743.08,-159.08 732.5,-158.68 734.56,-165.37"/>
</g>
<!-- Node5 -->
<g id="node6" class="node">
<title>Node5</title>
<g id="a_node6"><a xlink:href="eigen__types_8h.html" target="_top" xlink:title="This file contains abbreviated definitions for certain specializations of Eigen::Matrix that are comm...">
<polygon fill="white" stroke="black" points="354.46,-134.5 354.46,-164.5 473.46,-164.5 473.46,-134.5 354.46,-134.5"/>
<text text-anchor="start" x="362.46" y="-152.5" font-family="Helvetica,sans-Serif" font-size="10.00">drake/common/eigen</text>
<text text-anchor="middle" x="413.96" y="-141.5" font-family="Helvetica,sans-Serif" font-size="10.00">_types.h</text>
</a>
</g>
</g>
<!-- Node2&#45;&gt;Node5 -->
<g id="edge6" class="edge">
<title>Node2&#45;&gt;Node5</title>
<path fill="none" stroke="midnightblue" d="M506.31,-201.36C488.29,-191.44 466.52,-179.45 448.64,-169.6"/>
<polygon fill="midnightblue" stroke="midnightblue" points="450.14,-166.43 439.69,-164.67 446.76,-172.56 450.14,-166.43"/>
</g>
<!-- Node11 -->
<g id="node12" class="node">
<title>Node11</title>
<g id="a_node12"><a xlink:href="nice__type__name_8h.html" target="_top" xlink:title=" ">
<polygon fill="white" stroke="black" points="572.96,-134.5 572.96,-164.5 712.96,-164.5 712.96,-134.5 572.96,-134.5"/>
<text text-anchor="start" x="580.96" y="-152.5" font-family="Helvetica,sans-Serif" font-size="10.00">drake/common/nice_type</text>
<text text-anchor="middle" x="642.96" y="-141.5" font-family="Helvetica,sans-Serif" font-size="10.00">_name.h</text>
</a>
</g>
</g>
<!-- Node2&#45;&gt;Node11 -->
<g id="edge13" class="edge">
<title>Node2&#45;&gt;Node11</title>
<path fill="none" stroke="midnightblue" d="M570.1,-201.36C583.92,-191.71 600.55,-180.11 614.43,-170.42"/>
<polygon fill="midnightblue" stroke="midnightblue" points="616.47,-173.26 622.66,-164.67 612.46,-167.52 616.47,-173.26"/>
</g>
<!-- Node5&#45;&gt;Node3 -->
<g id="edge7" class="edge">
<title>Node5&#45;&gt;Node3</title>
<path fill="none" stroke="midnightblue" d="M467.96,-134.44C493.09,-126.3 522.53,-114.37 545.96,-98 571.12,-80.43 593.1,-52.06 605.7,-33.85"/>
<polygon fill="midnightblue" stroke="midnightblue" points="608.73,-35.62 611.41,-25.37 602.92,-31.71 608.73,-35.62"/>
</g>
<!-- Node6 -->
<g id="node7" class="node">
<title>Node6</title>
<g id="a_node7"><a xlink:title=" ">
<polygon fill="white" stroke="#bfbfbf" points="321.46,-73 321.46,-92 398.46,-92 398.46,-73 321.46,-73"/>
<text text-anchor="middle" x="359.96" y="-80" font-family="Helvetica,sans-Serif" font-size="10.00">Eigen/Dense</text>
</a>
</g>
</g>
<!-- Node5&#45;&gt;Node6 -->
<g id="edge8" class="edge">
<title>Node5&#45;&gt;Node6</title>
<path fill="none" stroke="midnightblue" d="M402.25,-134.4C393.83,-124.26 382.45,-110.57 373.62,-99.94"/>
<polygon fill="midnightblue" stroke="midnightblue" points="376.27,-97.65 367.19,-92.19 370.88,-102.12 376.27,-97.65"/>
</g>
<!-- Node7 -->
<g id="node8" class="node">
<title>Node7</title>
<g id="a_node8"><a xlink:href="constants_8h.html" target="_top" xlink:title=" ">
<polygon fill="white" stroke="black" points="17.46,-73 17.46,-92 166.46,-92 166.46,-73 17.46,-73"/>
<text text-anchor="middle" x="91.96" y="-80" font-family="Helvetica,sans-Serif" font-size="10.00">drake/common/constants.h</text>
</a>
</g>
</g>
<!-- Node5&#45;&gt;Node7 -->
<g id="edge9" class="edge">
<title>Node5&#45;&gt;Node7</title>
<path fill="none" stroke="midnightblue" d="M354.13,-135.89C351.03,-135.25 347.96,-134.61 344.96,-134 276.06,-119.88 196.49,-104.08 145.27,-93.98"/>
<polygon fill="midnightblue" stroke="midnightblue" points="145.9,-90.54 135.42,-92.03 144.55,-97.4 145.9,-90.54"/>
</g>
<!-- Node8 -->
<g id="node9" class="node">
<title>Node8</title>
<g id="a_node9"><a xlink:href="drake__assert_8h.html" target="_top" xlink:title="Provides Drake&#39;s assertion implementation.">
<polygon fill="white" stroke="black" points="184.46,-67.5 184.46,-97.5 303.46,-97.5 303.46,-67.5 184.46,-67.5"/>
<text text-anchor="start" x="192.46" y="-85.5" font-family="Helvetica,sans-Serif" font-size="10.00">drake/common/drake</text>
<text text-anchor="middle" x="243.96" y="-74.5" font-family="Helvetica,sans-Serif" font-size="10.00">_assert.h</text>
</a>
</g>
</g>
<!-- Node5&#45;&gt;Node8 -->
<g id="edge10" class="edge">
<title>Node5&#45;&gt;Node8</title>
<path fill="none" stroke="midnightblue" d="M377.08,-134.4C351.57,-124.64 317.44,-111.59 290.13,-101.15"/>
<polygon fill="midnightblue" stroke="midnightblue" points="291.37,-97.88 280.78,-97.58 288.87,-104.42 291.37,-97.88"/>
</g>
<!-- Node10 -->
<g id="node11" class="node">
<title>Node10</title>
<g id="a_node11"><a xlink:href="drake__copyable_8h.html" target="_top" xlink:title="Provides careful macros to selectively enable or disable the special member functions for copy&#45;constr...">
<polygon fill="white" stroke="black" points="82.46,-0.5 82.46,-30.5 201.46,-30.5 201.46,-0.5 82.46,-0.5"/>
<text text-anchor="start" x="90.46" y="-18.5" font-family="Helvetica,sans-Serif" font-size="10.00">drake/common/drake</text>
<text text-anchor="middle" x="141.96" y="-7.5" font-family="Helvetica,sans-Serif" font-size="10.00">_copyable.h</text>
</a>
</g>
</g>
<!-- Node5&#45;&gt;Node10 -->
<g id="edge12" class="edge">
<title>Node5&#45;&gt;Node10</title>
<path fill="none" stroke="midnightblue" d="M354.19,-135.55C351.08,-135 347.99,-134.48 344.96,-134 270.57,-122.24 58.31,-154.01 7.96,-98 -18.24,-68.85 27.39,-46.72 72.35,-32.92"/>
<polygon fill="midnightblue" stroke="midnightblue" points="73.6,-36.2 82.21,-30.02 71.63,-29.49 73.6,-36.2"/>
</g>
<!-- Node9 -->
<g id="node10" class="node">
<title>Node9</title>
<g id="a_node10"><a xlink:title=" ">
<polygon fill="white" stroke="#bfbfbf" points="290.46,-6 290.46,-25 359.46,-25 359.46,-6 290.46,-6"/>
<text text-anchor="middle" x="324.96" y="-13" font-family="Helvetica,sans-Serif" font-size="10.00">type_traits</text>
</a>
</g>
</g>
<!-- Node8&#45;&gt;Node9 -->
<g id="edge11" class="edge">
<title>Node8&#45;&gt;Node9</title>
<path fill="none" stroke="midnightblue" d="M261.54,-67.4C274.67,-56.86 292.59,-42.48 306.04,-31.69"/>
<polygon fill="midnightblue" stroke="midnightblue" points="308.52,-34.18 314.13,-25.19 304.14,-28.72 308.52,-34.18"/>
</g>
<!-- Node11&#45;&gt;Node3 -->
<g id="edge17" class="edge">
<title>Node11&#45;&gt;Node3</title>
<path fill="none" stroke="midnightblue" d="M647.29,-134.34C651.63,-117.82 656.77,-89.87 649.96,-67 646.25,-54.52 638.36,-42.26 631.23,-32.94"/>
<polygon fill="midnightblue" stroke="midnightblue" points="633.81,-30.56 624.79,-25 628.37,-34.97 633.81,-30.56"/>
</g>
<!-- Node12 -->
<g id="node13" class="node">
<title>Node12</title>
<g id="a_node13"><a xlink:title=" ">
<polygon fill="white" stroke="#bfbfbf" points="696.96,-73 696.96,-92 754.96,-92 754.96,-73 696.96,-73"/>
<text text-anchor="middle" x="725.96" y="-80" font-family="Helvetica,sans-Serif" font-size="10.00">memory</text>
</a>
</g>
</g>
<!-- Node11&#45;&gt;Node12 -->
<g id="edge14" class="edge">
<title>Node11&#45;&gt;Node12</title>
<path fill="none" stroke="midnightblue" d="M660.97,-134.4C674.56,-123.76 693.14,-109.2 706.96,-98.38"/>
<polygon fill="midnightblue" stroke="midnightblue" points="709.15,-101.12 714.86,-92.19 704.83,-95.6 709.15,-101.12"/>
</g>
<!-- Node13 -->
<g id="node14" class="node">
<title>Node13</title>
<g id="a_node14"><a xlink:title=" ">
<polygon fill="white" stroke="#bfbfbf" points="772.96,-73 772.96,-92 816.96,-92 816.96,-73 772.96,-73"/>
<text text-anchor="middle" x="794.96" y="-80" font-family="Helvetica,sans-Serif" font-size="10.00">string</text>
</a>
</g>
</g>
<!-- Node11&#45;&gt;Node13 -->
<g id="edge15" class="edge">
<title>Node11&#45;&gt;Node13</title>
<path fill="none" stroke="midnightblue" d="M677.81,-134.41C702.08,-124.49 735.13,-110.75 763.96,-98 765.16,-97.47 766.37,-96.93 767.6,-96.38"/>
<polygon fill="midnightblue" stroke="midnightblue" points="769.36,-99.42 776.99,-92.06 766.44,-93.06 769.36,-99.42"/>
</g>
<!-- Node14 -->
<g id="node15" class="node">
<title>Node14</title>
<g id="a_node15"><a xlink:title=" ">
<polygon fill="white" stroke="#bfbfbf" points="835.46,-73 835.46,-92 892.46,-92 892.46,-73 835.46,-73"/>
<text text-anchor="middle" x="863.96" y="-80" font-family="Helvetica,sans-Serif" font-size="10.00">typeinfo</text>
</a>
</g>
</g>
<!-- Node11&#45;&gt;Node14 -->
<g id="edge16" class="edge">
<title>Node11&#45;&gt;Node14</title>
<path fill="none" stroke="midnightblue" d="M699.44,-134.4C735.83,-124.95 784,-111.76 825.96,-98 828.23,-97.26 830.56,-96.46 832.89,-95.63"/>
<polygon fill="midnightblue" stroke="midnightblue" points="834.21,-98.88 842.39,-92.14 831.79,-92.31 834.21,-98.88"/>
</g>
<!-- Node15 -->
<g id="node16" class="node">
<title>Node15</title>
<g id="a_node16"><a xlink:title=" ">
<polygon fill="white" stroke="#bfbfbf" points="593.46,-73 593.46,-92 640.46,-92 640.46,-73 593.46,-73"/>
<text text-anchor="middle" x="616.96" y="-80" font-family="Helvetica,sans-Serif" font-size="10.00">vector</text>
</a>
</g>
</g>
<!-- Node11&#45;&gt;Node15 -->
<g id="edge18" class="edge">
<title>Node11&#45;&gt;Node15</title>
<path fill="none" stroke="midnightblue" d="M637.32,-134.4C633.47,-124.76 628.33,-111.91 624.18,-101.54"/>
<polygon fill="midnightblue" stroke="midnightblue" points="627.4,-100.18 620.44,-92.19 620.91,-102.78 627.4,-100.18"/>
</g>
<!-- Node16 -->
<g id="node17" class="node">
<title>Node16</title>
<g id="a_node17"><a xlink:href="never__destroyed_8h.html" target="_top" xlink:title=" ">
<polygon fill="white" stroke="black" points="416.96,-67.5 416.96,-97.5 536.96,-97.5 536.96,-67.5 416.96,-67.5"/>
<text text-anchor="start" x="424.96" y="-85.5" font-family="Helvetica,sans-Serif" font-size="10.00">drake/common/never</text>
<text text-anchor="middle" x="476.96" y="-74.5" font-family="Helvetica,sans-Serif" font-size="10.00">_destroyed.h</text>
</a>
</g>
</g>
<!-- Node11&#45;&gt;Node16 -->
<g id="edge19" class="edge">
<title>Node11&#45;&gt;Node16</title>
<path fill="none" stroke="midnightblue" d="M606.94,-134.4C582.15,-124.69 549,-111.71 522.39,-101.29"/>
<polygon fill="midnightblue" stroke="midnightblue" points="523.5,-97.96 512.91,-97.58 520.95,-104.48 523.5,-97.96"/>
</g>
<!-- Node16&#45;&gt;Node3 -->
<g id="edge22" class="edge">
<title>Node16&#45;&gt;Node3</title>
<path fill="none" stroke="midnightblue" d="M507.34,-67.4C531.8,-56.04 565.87,-40.22 589.52,-29.24"/>
<polygon fill="midnightblue" stroke="midnightblue" points="591.04,-32.39 598.64,-25.01 588.1,-26.04 591.04,-32.39"/>
</g>
<!-- Node16&#45;&gt;Node9 -->
<g id="edge21" class="edge">
<title>Node16&#45;&gt;Node9</title>
<path fill="none" stroke="midnightblue" d="M443.98,-67.4C417.19,-55.94 379.77,-39.94 354.08,-28.95"/>
<polygon fill="midnightblue" stroke="midnightblue" points="355.43,-25.72 344.86,-25.01 352.68,-32.16 355.43,-25.72"/>
</g>
<!-- Node16&#45;&gt;Node10 -->
<g id="edge23" class="edge">
<title>Node16&#45;&gt;Node10</title>
<path fill="none" stroke="midnightblue" d="M416.65,-68.94C413.37,-68.28 410.13,-67.63 406.96,-67 340.72,-53.83 265.02,-39.47 211.54,-29.44"/>
<polygon fill="midnightblue" stroke="midnightblue" points="211.95,-25.96 201.48,-27.56 210.67,-32.84 211.95,-25.96"/>
</g>
<!-- Node17 -->
<g id="node18" class="node">
<title>Node17</title>
<g id="a_node18"><a xlink:title=" ">
<polygon fill="white" stroke="#bfbfbf" points="458.46,-6 458.46,-25 495.46,-25 495.46,-6 458.46,-6"/>
<text text-anchor="middle" x="476.96" y="-13" font-family="Helvetica,sans-Serif" font-size="10.00">new</text>
</a>
</g>
</g>
<!-- Node16&#45;&gt;Node17 -->
<g id="edge20" class="edge">
<title>Node16&#45;&gt;Node17</title>
<path fill="none" stroke="midnightblue" d="M476.96,-67.4C476.96,-58.06 476.96,-45.71 476.96,-35.52"/>
<polygon fill="midnightblue" stroke="midnightblue" points="480.46,-35.19 476.96,-25.19 473.46,-35.19 480.46,-35.19"/>
</g>
</g>
</svg>
        <g id="navigator" transform="translate(0 0)" fill="#404254">
                <rect fill="#f2f5e9" fill-opacity="0.5" stroke="#606060" stroke-width=".5" x="0" y="0" width="60" height="60"/>
                <use id="zoomplus" xlink:href="#zoomPlus" x="17" y="9" onmousedown="handleZoom(evt,'in')"/>
                <use id="zoomminus" xlink:href="#zoomMin" x="42" y="9" onmousedown="handleZoom(evt,'out')"/>
                <use id="reset" xlink:href="#resetDef" x="30" y="36" onmousedown="handleReset()"/>
                <g id="arrowUp" xlink:href="#dirArrow" transform="translate(30 24)" onmousedown="handlePan(0,-1)">
                  <use xlink:href="#rim" fill="#404040">
                        <set attributeName="fill" to="#808080" begin="arrowUp.mouseover" end="arrowUp.mouseout"/>
                  </use>
                  <path fill="none" stroke="white" stroke-width="1.5" d="M0,-3.0v7 M-2.5,-0.5L0,-3.0L2.5,-0.5"/>
                </g>
                <g id="arrowRight" xlink:href="#dirArrow" transform="rotate(90) translate(36 -43)" onmousedown="handlePan(1,0)">
                  <use xlink:href="#rim" fill="#404040">
                        <set attributeName="fill" to="#808080" begin="arrowRight.mouseover" end="arrowRight.mouseout"/>
                  </use>
                  <path fill="none" stroke="white" stroke-width="1.5" d="M0,-3.0v7 M-2.5,-0.5L0,-3.0L2.5,-0.5"/>
                </g>
                <g id="arrowDown" xlink:href="#dirArrow" transform="rotate(180) translate(-30 -48)" onmousedown="handlePan(0,1)">
                  <use xlink:href="#rim" fill="#404040">
                        <set attributeName="fill" to="#808080" begin="arrowDown.mouseover" end="arrowDown.mouseout"/>
                  </use>
                  <path fill="none" stroke="white" stroke-width="1.5" d="M0,-3.0v7 M-2.5,-0.5L0,-3.0L2.5,-0.5"/>
                </g>
                <g id="arrowLeft" xlink:href="#dirArrow" transform="rotate(270) translate(-36 17)" onmousedown="handlePan(-1,0)">
                  <use xlink:href="#rim" fill="#404040">
                        <set attributeName="fill" to="#808080" begin="arrowLeft.mouseover" end="arrowLeft.mouseout"/>
                  </use>
                  <path fill="none" stroke="white" stroke-width="1.5" d="M0,-3.0v7 M-2.5,-0.5L0,-3.0L2.5,-0.5"/>
                </g>
        </g>
        <svg viewBox="0 0 15 15" width="100%" height="30px" preserveAspectRatio="xMaxYMin meet">
         <g id="arrow_out" transform="scale(0.3 0.3)">
          <a xlink:href="linear__constitutive__model__data_8h__incl_org.svg" target="_base">
           <rect id="button" ry="5" rx="5" y="6" x="6" height="38" width="38"
                fill="#f2f5e9" fill-opacity="0.5" stroke="#606060" stroke-width="1.0"/>
           <path id="arrow"
             d="M 11.500037,31.436501 C 11.940474,20.09759 22.043105,11.32322 32.158766,21.979434 L 37.068811,17.246167 C 37.068811,17.246167 37.088388,32 37.088388,32 L 22.160133,31.978069 C 22.160133,31.978069 26.997745,27.140456 26.997745,27.140456 C 18.528582,18.264221 13.291696,25.230495 11.500037,31.436501 z"
             style="fill:#404040;"/>
          </a>
         </g>
        </svg>
</svg>
