<?xml version="1.0" encoding="UTF-8" standalone="no"?>
<!DOCTYPE svg PUBLIC "-//W3C//DTD SVG 1.1//EN"
 "http://www.w3.org/Graphics/SVG/1.1/DTD/svg11.dtd">
<!-- Generated by graphviz version 2.43.0 (0)
 -->
<!-- Title: drake/solvers/mathematical_program_result.h Pages: 1 -->
<!--zoomable 463 -->
<svg id="main" version="1.1" xmlns="http://www.w3.org/2000/svg" xmlns:xlink="http://www.w3.org/1999/xlink" xml:space="preserve" onload="init(evt)">
<style type="text/css"><![CDATA[
.edge:hover path { stroke: red; }
.edge:hover polygon { stroke: red; fill: red; }
]]></style>
<script type="text/javascript"><![CDATA[
var edges = document.getElementsByTagName('g');
if (edges && edges.length) {
  for (var i=0;i<edges.length;i++) {
    if (edges[i].id.substr(0,4)=='edge') {
      edges[i].setAttribute('class','edge');
    }
  }
}
]]></script>
        <defs>
                <circle id="rim" cx="0" cy="0" r="7"/>
                <circle id="rim2" cx="0" cy="0" r="3.5"/>
                <g id="zoomPlus">
                        <use xlink:href="#rim" fill="#404040">
                                <set attributeName="fill" to="#808080" begin="zoomplus.mouseover" end="zoomplus.mouseout"/>
                        </use>
                        <path d="M-4,0h8M0,-4v8" fill="none" stroke="white" stroke-width="1.5" pointer-events="none"/>
                </g>
                <g id="zoomMin">
                        <use xlink:href="#rim" fill="#404040">
                                <set attributeName="fill" to="#808080" begin="zoomminus.mouseover" end="zoomminus.mouseout"/>
                        </use>
                        <path d="M-4,0h8" fill="none" stroke="white" stroke-width="1.5" pointer-events="none"/>
                </g>
                <g id="dirArrow">
                        <path fill="none" stroke="white" stroke-width="1.5" d="M0,-3.0v7 M-2.5,-0.5L0,-3.0L2.5,-0.5"/>
                </g>
               <g id="resetDef">
                       <use xlink:href="#rim2" fill="#404040">
                               <set attributeName="fill" to="#808080" begin="reset.mouseover" end="reset.mouseout"/>
                       </use>
               </g>
        </defs>

<script type="text/javascript">
var viewWidth = 2597;
var viewHeight = 463;
var sectionId = 'dynsection-1';
</script>
<script xlink:href="svgpan.js"/>
<svg id="graph" class="graph">
<g id="viewport">
<title>drake/solvers/mathematical_program_result.h</title>
<polygon fill="white" stroke="transparent" points="-4,4 -4,-459 2592.5,-459 2592.5,4 -4,4"/>
<!-- Node99 -->
<g id="node1" class="node">
<title>Node99</title>
<g id="a_node1"><a xlink:title=" ">
<polygon fill="#bfbfbf" stroke="black" points="1134.5,-424.5 1134.5,-454.5 1287.5,-454.5 1287.5,-424.5 1134.5,-424.5"/>
<text text-anchor="start" x="1142.5" y="-442.5" font-family="Helvetica,sans-Serif" font-size="10.00">drake/solvers/mathematical</text>
<text text-anchor="middle" x="1211" y="-431.5" font-family="Helvetica,sans-Serif" font-size="10.00">_program_result.h</text>
</a>
</g>
</g>
<!-- Node100 -->
<g id="node2" class="node">
<title>Node100</title>
<g id="a_node2"><a xlink:href="solver__interface_8h.html" target="_top" xlink:title=" ">
<polygon fill="white" stroke="black" points="1067.5,-352 1067.5,-382 1182.5,-382 1182.5,-352 1067.5,-352"/>
<text text-anchor="start" x="1075.5" y="-370" font-family="Helvetica,sans-Serif" font-size="10.00">drake/solvers/solver</text>
<text text-anchor="middle" x="1125" y="-359" font-family="Helvetica,sans-Serif" font-size="10.00">_interface.h</text>
</a>
</g>
</g>
<!-- Node99&#45;&gt;Node100 -->
<g id="edge1" class="edge">
<title>Node99&#45;&gt;Node100</title>
<path fill="none" stroke="midnightblue" d="M1185.73,-417.79C1171.68,-406.27 1154.56,-392.23 1142.08,-382"/>
<polygon fill="midnightblue" stroke="midnightblue" points="1183.64,-420.6 1193.6,-424.23 1188.08,-415.19 1183.64,-420.6"/>
</g>
<!-- Node105 -->
<g id="node7" class="node">
<title>Node105</title>
<g id="a_node7"><a xlink:href="mosek__solver_8h.html" target="_top" xlink:title=" ">
<polygon fill="white" stroke="black" points="492,-207 492,-237 610,-237 610,-207 492,-207"/>
<text text-anchor="start" x="500" y="-225" font-family="Helvetica,sans-Serif" font-size="10.00">drake/solvers/mosek</text>
<text text-anchor="middle" x="551" y="-214" font-family="Helvetica,sans-Serif" font-size="10.00">_solver.h</text>
</a>
</g>
</g>
<!-- Node99&#45;&gt;Node105 -->
<g id="edge35" class="edge">
<title>Node99&#45;&gt;Node105</title>
<path fill="none" stroke="midnightblue" d="M1124.33,-425.25C1075.27,-416.72 1013.08,-404.2 959,-388 812.8,-344.21 646.35,-268.3 580.26,-237.05"/>
<polygon fill="midnightblue" stroke="midnightblue" points="1123.83,-428.71 1134.28,-426.95 1125.01,-421.81 1123.83,-428.71"/>
</g>
<!-- Node106 -->
<g id="node8" class="node">
<title>Node106</title>
<g id="a_node8"><a xlink:href="cspace__free__structs_8h.html" target="_top" xlink:title=" ">
<polygon fill="white" stroke="black" points="189,-134.5 189,-164.5 347,-164.5 347,-134.5 189,-134.5"/>
<text text-anchor="start" x="197" y="-152.5" font-family="Helvetica,sans-Serif" font-size="10.00">drake/geometry/optimization</text>
<text text-anchor="middle" x="268" y="-141.5" font-family="Helvetica,sans-Serif" font-size="10.00">/cspace_free_structs.h</text>
</a>
</g>
</g>
<!-- Node99&#45;&gt;Node106 -->
<g id="edge34" class="edge">
<title>Node99&#45;&gt;Node106</title>
<path fill="none" stroke="midnightblue" d="M1124.19,-436.75C937.13,-432.41 508.17,-419.15 450,-388 352.91,-336.02 291.81,-207.25 273.68,-164.53"/>
<polygon fill="midnightblue" stroke="midnightblue" points="1124.19,-440.25 1134.27,-436.98 1124.35,-433.25 1124.19,-440.25"/>
</g>
<!-- Node108 -->
<g id="node10" class="node">
<title>Node108</title>
<g id="a_node10"><a xlink:href="cspace__free__box_8h.html" target="_top" xlink:title=" ">
<polygon fill="white" stroke="black" points="0,-0.5 0,-30.5 158,-30.5 158,-0.5 0,-0.5"/>
<text text-anchor="start" x="8" y="-18.5" font-family="Helvetica,sans-Serif" font-size="10.00">drake/geometry/optimization</text>
<text text-anchor="middle" x="79" y="-7.5" font-family="Helvetica,sans-Serif" font-size="10.00">/cspace_free_box.h</text>
</a>
</g>
</g>
<!-- Node99&#45;&gt;Node108 -->
<g id="edge36" class="edge">
<title>Node99&#45;&gt;Node108</title>
<path fill="none" stroke="midnightblue" d="M1124.05,-437C852.92,-431.17 41,-404.6 41,-295.5 41,-295.5 41,-295.5 41,-148.5 41,-104.14 61.06,-54.56 72.03,-30.76"/>
<polygon fill="midnightblue" stroke="midnightblue" points="1124.16,-440.5 1134.23,-437.21 1124.31,-433.5 1124.16,-440.5"/>
</g>
<!-- Node109 -->
<g id="node11" class="node">
<title>Node109</title>
<g id="a_node11"><a xlink:href="cspace__free__polytope_8h.html" target="_top" xlink:title=" ">
<polygon fill="white" stroke="black" points="379,-0.5 379,-30.5 537,-30.5 537,-0.5 379,-0.5"/>
<text text-anchor="start" x="387" y="-18.5" font-family="Helvetica,sans-Serif" font-size="10.00">drake/geometry/optimization</text>
<text text-anchor="middle" x="458" y="-7.5" font-family="Helvetica,sans-Serif" font-size="10.00">/cspace_free_polytope.h</text>
</a>
</g>
</g>
<!-- Node99&#45;&gt;Node109 -->
<g id="edge37" class="edge">
<title>Node99&#45;&gt;Node109</title>
<path fill="none" stroke="midnightblue" d="M1124,-433.32C1046.56,-427.19 930.75,-414.29 833,-388 670.4,-344.26 576.54,-383 483,-243 472.63,-227.48 480.48,-219.5 483,-201 485.24,-184.55 490.63,-181.44 493,-165 499.2,-121.89 507.27,-108.49 494,-67 489.6,-53.26 479.95,-40.07 471.74,-30.61"/>
<polygon fill="midnightblue" stroke="midnightblue" points="1123.95,-436.83 1134.19,-434.1 1124.49,-429.85 1123.95,-436.83"/>
</g>
<!-- Node121 -->
<g id="node23" class="node">
<title>Node121</title>
<g id="a_node23"><a xlink:href="solve_8h.html" target="_top" xlink:title=" ">
<polygon fill="white" stroke="black" points="628,-212.5 628,-231.5 748,-231.5 748,-212.5 628,-212.5"/>
<text text-anchor="middle" x="688" y="-219.5" font-family="Helvetica,sans-Serif" font-size="10.00">drake/solvers/solve.h</text>
</a>
</g>
</g>
<!-- Node99&#45;&gt;Node121 -->
<g id="edge47" class="edge">
<title>Node99&#45;&gt;Node121</title>
<path fill="none" stroke="midnightblue" d="M1154.77,-421.44C1125.64,-412.22 1089.64,-400.24 1058,-388 919.59,-334.45 757.99,-257.08 705.45,-231.54"/>
<polygon fill="midnightblue" stroke="midnightblue" points="1153.78,-424.79 1164.37,-424.45 1155.88,-418.11 1153.78,-424.79"/>
</g>
<!-- Node124 -->
<g id="node26" class="node">
<title>Node124</title>
<g id="a_node26"><a xlink:href="graph__of__convex__sets_8h.html" target="_top" xlink:title=" ">
<polygon fill="white" stroke="black" points="1557,-279.5 1557,-309.5 1715,-309.5 1715,-279.5 1557,-279.5"/>
<text text-anchor="start" x="1565" y="-297.5" font-family="Helvetica,sans-Serif" font-size="10.00">drake/geometry/optimization</text>
<text text-anchor="middle" x="1636" y="-286.5" font-family="Helvetica,sans-Serif" font-size="10.00">/graph_of_convex_sets.h</text>
</a>
</g>
</g>
<!-- Node99&#45;&gt;Node124 -->
<g id="edge38" class="edge">
<title>Node99&#45;&gt;Node124</title>
<path fill="none" stroke="midnightblue" d="M1208.77,-414.32C1208.27,-393.1 1211.35,-363.05 1230,-346 1282.32,-298.16 1476.77,-319.7 1547,-310 1550.26,-309.55 1553.58,-309.08 1556.93,-308.59"/>
<polygon fill="midnightblue" stroke="midnightblue" points="1205.29,-414.68 1209.3,-424.49 1212.28,-414.32 1205.29,-414.68"/>
</g>
<!-- Node128 -->
<g id="node30" class="node">
<title>Node128</title>
<g id="a_node30"><a xlink:href="global__inverse__kinematics_8h.html" target="_top" xlink:title=" ">
<polygon fill="white" stroke="black" points="1239,-346.5 1239,-387.5 1389,-387.5 1389,-346.5 1239,-346.5"/>
<text text-anchor="start" x="1247" y="-375.5" font-family="Helvetica,sans-Serif" font-size="10.00">drake/multibody/inverse</text>
<text text-anchor="start" x="1247" y="-364.5" font-family="Helvetica,sans-Serif" font-size="10.00">_kinematics/global_inverse</text>
<text text-anchor="middle" x="1314" y="-353.5" font-family="Helvetica,sans-Serif" font-size="10.00">_kinematics.h</text>
</a>
</g>
</g>
<!-- Node99&#45;&gt;Node128 -->
<g id="edge39" class="edge">
<title>Node99&#45;&gt;Node128</title>
<path fill="none" stroke="midnightblue" d="M1240.24,-418.48C1254.39,-408.8 1271.32,-397.22 1285.38,-387.59"/>
<polygon fill="midnightblue" stroke="midnightblue" points="1238.12,-415.7 1231.84,-424.23 1242.07,-421.47 1238.12,-415.7"/>
</g>
<!-- Node129 -->
<g id="node31" class="node">
<title>Node129</title>
<g id="a_node31"><a xlink:href="static__equilibrium__problem_8h.html" target="_top" xlink:title=" ">
<polygon fill="white" stroke="black" points="1407,-352 1407,-382 1569,-382 1569,-352 1407,-352"/>
<text text-anchor="start" x="1415" y="-370" font-family="Helvetica,sans-Serif" font-size="10.00">drake/multibody/optimization</text>
<text text-anchor="middle" x="1488" y="-359" font-family="Helvetica,sans-Serif" font-size="10.00">/static_equilibrium_problem.h</text>
</a>
</g>
</g>
<!-- Node99&#45;&gt;Node129 -->
<g id="edge40" class="edge">
<title>Node99&#45;&gt;Node129</title>
<path fill="none" stroke="midnightblue" d="M1275.95,-421.97C1323.52,-409.86 1387.4,-393.6 1432.57,-382.11"/>
<polygon fill="midnightblue" stroke="midnightblue" points="1274.89,-418.63 1266.06,-424.49 1276.61,-425.41 1274.89,-418.63"/>
</g>
<!-- Node130 -->
<g id="node32" class="node">
<title>Node130</title>
<g id="a_node32"><a xlink:href="multiple__shooting_8h.html" target="_top" xlink:title=" ">
<polygon fill="white" stroke="black" points="1587.5,-346.5 1587.5,-387.5 1726.5,-387.5 1726.5,-346.5 1587.5,-346.5"/>
<text text-anchor="start" x="1595.5" y="-375.5" font-family="Helvetica,sans-Serif" font-size="10.00">drake/planning/trajectory</text>
<text text-anchor="start" x="1595.5" y="-364.5" font-family="Helvetica,sans-Serif" font-size="10.00">_optimization/multiple</text>
<text text-anchor="middle" x="1657" y="-353.5" font-family="Helvetica,sans-Serif" font-size="10.00">_shooting.h</text>
</a>
</g>
</g>
<!-- Node99&#45;&gt;Node130 -->
<g id="edge41" class="edge">
<title>Node99&#45;&gt;Node130</title>
<path fill="none" stroke="midnightblue" d="M1297.96,-429.29C1372.61,-420.74 1482.89,-406.52 1578,-388 1581.06,-387.4 1584.17,-386.76 1587.31,-386.09"/>
<polygon fill="midnightblue" stroke="midnightblue" points="1297.21,-425.86 1287.67,-430.46 1298,-432.81 1297.21,-425.86"/>
</g>
<!-- Node133 -->
<g id="node35" class="node">
<title>Node133</title>
<g id="a_node35"><a xlink:href="kinematic__trajectory__optimization_8h.html" target="_top" xlink:title=" ">
<polygon fill="white" stroke="black" points="1744.5,-346.5 1744.5,-387.5 1889.5,-387.5 1889.5,-346.5 1744.5,-346.5"/>
<text text-anchor="start" x="1752.5" y="-375.5" font-family="Helvetica,sans-Serif" font-size="10.00">drake/planning/trajectory</text>
<text text-anchor="start" x="1752.5" y="-364.5" font-family="Helvetica,sans-Serif" font-size="10.00">_optimization/kinematic</text>
<text text-anchor="middle" x="1817" y="-353.5" font-family="Helvetica,sans-Serif" font-size="10.00">_trajectory_optimization.h</text>
</a>
</g>
</g>
<!-- Node99&#45;&gt;Node133 -->
<g id="edge44" class="edge">
<title>Node99&#45;&gt;Node133</title>
<path fill="none" stroke="midnightblue" d="M1297.72,-434.05C1402.24,-427.79 1582.91,-414.12 1736,-388 1738.71,-387.54 1741.47,-387.03 1744.25,-386.5"/>
<polygon fill="midnightblue" stroke="midnightblue" points="1297.31,-430.57 1287.54,-434.65 1297.73,-437.56 1297.31,-430.57"/>
</g>
<!-- Node134 -->
<g id="node36" class="node">
<title>Node134</title>
<g id="a_node36"><a xlink:href="branch__and__bound_8h.html" target="_top" xlink:title=" ">
<polygon fill="white" stroke="black" points="1908,-352 1908,-382 2026,-382 2026,-352 1908,-352"/>
<text text-anchor="start" x="1916" y="-370" font-family="Helvetica,sans-Serif" font-size="10.00">drake/solvers/branch</text>
<text text-anchor="middle" x="1967" y="-359" font-family="Helvetica,sans-Serif" font-size="10.00">_and_bound.h</text>
</a>
</g>
</g>
<!-- Node99&#45;&gt;Node134 -->
<g id="edge45" class="edge">
<title>Node99&#45;&gt;Node134</title>
<path fill="none" stroke="midnightblue" d="M1297.9,-438.02C1429.14,-435.98 1685.31,-426.81 1899,-388 1907.23,-386.5 1915.89,-384.39 1924.17,-382.1"/>
<polygon fill="midnightblue" stroke="midnightblue" points="1297.46,-434.53 1287.51,-438.17 1297.56,-441.53 1297.46,-434.53"/>
</g>
<!-- Node135 -->
<g id="node37" class="node">
<title>Node135</title>
<g id="a_node37"><a xlink:href="mosek__solver__internal_8h.html" target="_top" xlink:title=" ">
<polygon fill="white" stroke="black" points="2044,-352 2044,-382 2162,-382 2162,-352 2044,-352"/>
<text text-anchor="start" x="2052" y="-370" font-family="Helvetica,sans-Serif" font-size="10.00">drake/solvers/mosek</text>
<text text-anchor="middle" x="2103" y="-359" font-family="Helvetica,sans-Serif" font-size="10.00">_solver_internal.h</text>
</a>
</g>
</g>
<!-- Node99&#45;&gt;Node135 -->
<g id="edge46" class="edge">
<title>Node99&#45;&gt;Node135</title>
<path fill="none" stroke="midnightblue" d="M1297.86,-435.65C1479.76,-429.28 1895.41,-412.48 2035,-388 2043.36,-386.53 2052.16,-384.4 2060.54,-382.08"/>
<polygon fill="midnightblue" stroke="midnightblue" points="1297.67,-432.15 1287.8,-436 1297.91,-439.15 1297.67,-432.15"/>
</g>
<!-- Node101 -->
<g id="node3" class="node">
<title>Node101</title>
<g id="a_node3"><a xlink:href="solver__base_8h.html" target="_top" xlink:title=" ">
<polygon fill="white" stroke="black" points="1067.5,-279.5 1067.5,-309.5 1182.5,-309.5 1182.5,-279.5 1067.5,-279.5"/>
<text text-anchor="start" x="1075.5" y="-297.5" font-family="Helvetica,sans-Serif" font-size="10.00">drake/solvers/solver</text>
<text text-anchor="middle" x="1125" y="-286.5" font-family="Helvetica,sans-Serif" font-size="10.00">_base.h</text>
</a>
</g>
</g>
<!-- Node100&#45;&gt;Node101 -->
<g id="edge2" class="edge">
<title>Node100&#45;&gt;Node101</title>
<path fill="none" stroke="midnightblue" d="M1125,-341.73C1125,-331.07 1125,-318.91 1125,-309.75"/>
<polygon fill="midnightblue" stroke="midnightblue" points="1121.5,-341.73 1125,-351.73 1128.5,-341.73 1121.5,-341.73"/>
</g>
<!-- Node123 -->
<g id="node25" class="node">
<title>Node123</title>
<g id="a_node25"><a xlink:href="choose__best__solver_8h.html" target="_top" xlink:title=" ">
<polygon fill="white" stroke="black" points="365.5,-134.5 365.5,-164.5 484.5,-164.5 484.5,-134.5 365.5,-134.5"/>
<text text-anchor="start" x="373.5" y="-152.5" font-family="Helvetica,sans-Serif" font-size="10.00">drake/solvers/choose</text>
<text text-anchor="middle" x="425" y="-141.5" font-family="Helvetica,sans-Serif" font-size="10.00">_best_solver.h</text>
</a>
</g>
</g>
<!-- Node100&#45;&gt;Node123 -->
<g id="edge28" class="edge">
<title>Node100&#45;&gt;Node123</title>
<path fill="none" stroke="midnightblue" d="M1057.23,-359.87C911.94,-345.66 576.13,-306.71 483,-243 454.68,-223.63 437.42,-185.41 429.73,-164.68"/>
<polygon fill="midnightblue" stroke="midnightblue" points="1057.06,-363.37 1067.35,-360.85 1057.74,-356.41 1057.06,-363.37"/>
</g>
<!-- Node100&#45;&gt;Node124 -->
<g id="edge30" class="edge">
<title>Node100&#45;&gt;Node124</title>
<path fill="none" stroke="midnightblue" d="M1181.3,-349.39C1186.58,-348.13 1191.87,-346.97 1197,-346 1350.66,-316.97 1391.98,-330.58 1547,-310 1550.26,-309.57 1553.58,-309.11 1556.94,-308.63"/>
<polygon fill="midnightblue" stroke="midnightblue" points="1180.05,-346.1 1171.21,-351.93 1181.76,-352.88 1180.05,-346.1"/>
</g>
<!-- Node126 -->
<g id="node28" class="node">
<title>Node126</title>
<g id="a_node28"><a xlink:href="iris__internal_8h.html" target="_top" xlink:title=" ">
<polygon fill="white" stroke="black" points="1201,-279.5 1201,-309.5 1359,-309.5 1359,-279.5 1201,-279.5"/>
<text text-anchor="start" x="1209" y="-297.5" font-family="Helvetica,sans-Serif" font-size="10.00">drake/geometry/optimization</text>
<text text-anchor="middle" x="1280" y="-286.5" font-family="Helvetica,sans-Serif" font-size="10.00">/iris_internal.h</text>
</a>
</g>
</g>
<!-- Node100&#45;&gt;Node126 -->
<g id="edge32" class="edge">
<title>Node100&#45;&gt;Node126</title>
<path fill="none" stroke="midnightblue" d="M1165.26,-347.69C1191.42,-335.79 1225,-320.52 1249.06,-309.57"/>
<polygon fill="midnightblue" stroke="midnightblue" points="1163.65,-344.58 1155.99,-351.9 1166.55,-350.95 1163.65,-344.58"/>
</g>
<!-- Node127 -->
<g id="node29" class="node">
<title>Node127</title>
<g id="a_node29"><a xlink:href="toppra_8h.html" target="_top" xlink:title=" ">
<polygon fill="white" stroke="black" points="1377.5,-279.5 1377.5,-309.5 1538.5,-309.5 1538.5,-279.5 1377.5,-279.5"/>
<text text-anchor="start" x="1385.5" y="-297.5" font-family="Helvetica,sans-Serif" font-size="10.00">drake/multibody/optimization</text>
<text text-anchor="middle" x="1458" y="-286.5" font-family="Helvetica,sans-Serif" font-size="10.00">/toppra.h</text>
</a>
</g>
</g>
<!-- Node100&#45;&gt;Node127 -->
<g id="edge33" class="edge">
<title>Node100&#45;&gt;Node127</title>
<path fill="none" stroke="midnightblue" d="M1183.57,-349.31C1188.1,-348.15 1192.62,-347.03 1197,-346 1257.09,-331.86 1325.63,-318.72 1377.4,-309.38"/>
<polygon fill="midnightblue" stroke="midnightblue" points="1182.45,-345.99 1173.66,-351.92 1184.23,-352.76 1182.45,-345.99"/>
</g>
<!-- Node102 -->
<g id="node4" class="node">
<title>Node102</title>
<g id="a_node4"><a xlink:href="moby__lcp__solver_8h.html" target="_top" xlink:title=" ">
<polygon fill="white" stroke="black" points="1209.5,-207 1209.5,-237 1322.5,-237 1322.5,-207 1209.5,-207"/>
<text text-anchor="start" x="1217.5" y="-225" font-family="Helvetica,sans-Serif" font-size="10.00">drake/solvers/moby</text>
<text text-anchor="middle" x="1266" y="-214" font-family="Helvetica,sans-Serif" font-size="10.00">_lcp_solver.h</text>
</a>
</g>
</g>
<!-- Node101&#45;&gt;Node102 -->
<g id="edge3" class="edge">
<title>Node101&#45;&gt;Node102</title>
<path fill="none" stroke="midnightblue" d="M1162.25,-274.87C1185.95,-263.02 1216.16,-247.92 1237.85,-237.07"/>
<polygon fill="midnightblue" stroke="midnightblue" points="1160.57,-271.8 1153.19,-279.4 1163.7,-278.06 1160.57,-271.8"/>
</g>
<!-- Node101&#45;&gt;Node105 -->
<g id="edge7" class="edge">
<title>Node101&#45;&gt;Node105</title>
<path fill="none" stroke="midnightblue" d="M1057.17,-290.75C959.52,-285.89 774.03,-273.26 619,-243 610.91,-241.42 602.39,-239.3 594.23,-237.02"/>
<polygon fill="midnightblue" stroke="midnightblue" points="1057.04,-294.25 1067.2,-291.24 1057.38,-287.26 1057.04,-294.25"/>
</g>
<!-- Node111 -->
<g id="node13" class="node">
<title>Node111</title>
<g id="a_node13"><a xlink:href="clp__solver_8h.html" target="_top" xlink:title=" ">
<polygon fill="white" stroke="black" points="1340.5,-212.5 1340.5,-231.5 1483.5,-231.5 1483.5,-212.5 1340.5,-212.5"/>
<text text-anchor="middle" x="1412" y="-219.5" font-family="Helvetica,sans-Serif" font-size="10.00">drake/solvers/clp_solver.h</text>
</a>
</g>
</g>
<!-- Node101&#45;&gt;Node111 -->
<g id="edge16" class="edge">
<title>Node101&#45;&gt;Node111</title>
<path fill="none" stroke="midnightblue" d="M1192.25,-277.04C1232.5,-267.19 1284.69,-254.39 1331,-243 1346.19,-239.26 1362.98,-235.12 1377.32,-231.58"/>
<polygon fill="midnightblue" stroke="midnightblue" points="1191.16,-273.71 1182.28,-279.48 1192.83,-280.51 1191.16,-273.71"/>
</g>
<!-- Node112 -->
<g id="node14" class="node">
<title>Node112</title>
<g id="a_node14"><a xlink:href="csdp__solver_8h.html" target="_top" xlink:title=" ">
<polygon fill="white" stroke="black" points="1501.5,-207 1501.5,-237 1608.5,-237 1608.5,-207 1501.5,-207"/>
<text text-anchor="start" x="1509.5" y="-225" font-family="Helvetica,sans-Serif" font-size="10.00">drake/solvers/csdp</text>
<text text-anchor="middle" x="1555" y="-214" font-family="Helvetica,sans-Serif" font-size="10.00">_solver.h</text>
</a>
</g>
</g>
<!-- Node101&#45;&gt;Node112 -->
<g id="edge17" class="edge">
<title>Node101&#45;&gt;Node112</title>
<path fill="none" stroke="midnightblue" d="M1192.87,-278.98C1326.27,-257.46 1363.96,-270.75 1492,-243 1499.4,-241.4 1507.17,-239.29 1514.64,-237.05"/>
<polygon fill="midnightblue" stroke="midnightblue" points="1191.97,-275.58 1182.68,-280.66 1193.11,-282.48 1191.97,-275.58"/>
</g>
<!-- Node113 -->
<g id="node15" class="node">
<title>Node113</title>
<g id="a_node15"><a xlink:href="equality__constrained__qp__solver_8h.html" target="_top" xlink:title=" ">
<polygon fill="white" stroke="black" points="1627,-207 1627,-237 1767,-237 1767,-207 1627,-207"/>
<text text-anchor="start" x="1635" y="-225" font-family="Helvetica,sans-Serif" font-size="10.00">drake/solvers/equality</text>
<text text-anchor="middle" x="1697" y="-214" font-family="Helvetica,sans-Serif" font-size="10.00">_constrained_qp_solver.h</text>
</a>
</g>
</g>
<!-- Node101&#45;&gt;Node113 -->
<g id="edge18" class="edge">
<title>Node101&#45;&gt;Node113</title>
<path fill="none" stroke="midnightblue" d="M1192.62,-279.06C1381.24,-251.67 1433.2,-273.56 1617,-243 1626.46,-241.43 1636.45,-239.31 1646.04,-237.04"/>
<polygon fill="midnightblue" stroke="midnightblue" points="1192.04,-275.6 1182.66,-280.53 1193.06,-282.53 1192.04,-275.6"/>
</g>
<!-- Node114 -->
<g id="node16" class="node">
<title>Node114</title>
<g id="a_node16"><a xlink:href="gurobi__solver_8h.html" target="_top" xlink:title=" ">
<polygon fill="white" stroke="black" points="1785,-207 1785,-237 1901,-237 1901,-207 1785,-207"/>
<text text-anchor="start" x="1793" y="-225" font-family="Helvetica,sans-Serif" font-size="10.00">drake/solvers/gurobi</text>
<text text-anchor="middle" x="1843" y="-214" font-family="Helvetica,sans-Serif" font-size="10.00">_solver.h</text>
</a>
</g>
</g>
<!-- Node101&#45;&gt;Node114 -->
<g id="edge19" class="edge">
<title>Node101&#45;&gt;Node114</title>
<path fill="none" stroke="midnightblue" d="M1192.72,-279.07C1451.42,-244.53 1523.21,-287.91 1776,-243 1784.25,-241.53 1792.92,-239.41 1801.18,-237.08"/>
<polygon fill="midnightblue" stroke="midnightblue" points="1192.08,-275.63 1182.64,-280.44 1193.03,-282.56 1192.08,-275.63"/>
</g>
<!-- Node115 -->
<g id="node17" class="node">
<title>Node115</title>
<g id="a_node17"><a xlink:href="ipopt__solver_8h.html" target="_top" xlink:title=" ">
<polygon fill="white" stroke="black" points="1919,-207 1919,-237 2029,-237 2029,-207 1919,-207"/>
<text text-anchor="start" x="1927" y="-225" font-family="Helvetica,sans-Serif" font-size="10.00">drake/solvers/ipopt</text>
<text text-anchor="middle" x="1974" y="-214" font-family="Helvetica,sans-Serif" font-size="10.00">_solver.h</text>
</a>
</g>
</g>
<!-- Node101&#45;&gt;Node115 -->
<g id="edge20" class="edge">
<title>Node101&#45;&gt;Node115</title>
<path fill="none" stroke="midnightblue" d="M1192.6,-279.1C1510.55,-238.33 1598.68,-298.52 1910,-243 1918.02,-241.57 1926.44,-239.43 1934.44,-237.07"/>
<polygon fill="midnightblue" stroke="midnightblue" points="1192.1,-275.64 1182.64,-280.4 1193.01,-282.58 1192.1,-275.64"/>
</g>
<!-- Node116 -->
<g id="node18" class="node">
<title>Node116</title>
<g id="a_node18"><a xlink:href="linear__system__solver_8h.html" target="_top" xlink:title=" ">
<polygon fill="white" stroke="black" points="2047.5,-207 2047.5,-237 2160.5,-237 2160.5,-207 2047.5,-207"/>
<text text-anchor="start" x="2055.5" y="-225" font-family="Helvetica,sans-Serif" font-size="10.00">drake/solvers/linear</text>
<text text-anchor="middle" x="2104" y="-214" font-family="Helvetica,sans-Serif" font-size="10.00">_system_solver.h</text>
</a>
</g>
</g>
<!-- Node101&#45;&gt;Node116 -->
<g id="edge21" class="edge">
<title>Node101&#45;&gt;Node116</title>
<path fill="none" stroke="midnightblue" d="M1192.66,-279.1C1567.08,-232.33 1670.24,-305.52 2038,-243 2046.38,-241.58 2055.19,-239.4 2063.54,-237.01"/>
<polygon fill="midnightblue" stroke="midnightblue" points="1192.11,-275.64 1182.64,-280.37 1193,-282.59 1192.11,-275.64"/>
</g>
<!-- Node117 -->
<g id="node19" class="node">
<title>Node117</title>
<g id="a_node19"><a xlink:href="nlopt__solver_8h.html" target="_top" xlink:title=" ">
<polygon fill="white" stroke="black" points="2179,-207 2179,-237 2289,-237 2289,-207 2179,-207"/>
<text text-anchor="start" x="2187" y="-225" font-family="Helvetica,sans-Serif" font-size="10.00">drake/solvers/nlopt</text>
<text text-anchor="middle" x="2234" y="-214" font-family="Helvetica,sans-Serif" font-size="10.00">_solver.h</text>
</a>
</g>
</g>
<!-- Node101&#45;&gt;Node117 -->
<g id="edge22" class="edge">
<title>Node101&#45;&gt;Node117</title>
<path fill="none" stroke="midnightblue" d="M1192.59,-279.12C1625.37,-226.17 1744.54,-315.96 2170,-243 2178.15,-241.6 2186.7,-239.44 2194.8,-237.05"/>
<polygon fill="midnightblue" stroke="midnightblue" points="1192.12,-275.65 1182.63,-280.35 1192.99,-282.59 1192.12,-275.65"/>
</g>
<!-- Node118 -->
<g id="node20" class="node">
<title>Node118</title>
<g id="a_node20"><a xlink:href="osqp__solver_8h.html" target="_top" xlink:title=" ">
<polygon fill="white" stroke="black" points="2307,-207 2307,-237 2415,-237 2415,-207 2307,-207"/>
<text text-anchor="start" x="2315" y="-225" font-family="Helvetica,sans-Serif" font-size="10.00">drake/solvers/osqp</text>
<text text-anchor="middle" x="2361" y="-214" font-family="Helvetica,sans-Serif" font-size="10.00">_solver.h</text>
</a>
</g>
</g>
<!-- Node101&#45;&gt;Node118 -->
<g id="edge23" class="edge">
<title>Node101&#45;&gt;Node118</title>
<path fill="none" stroke="midnightblue" d="M1192.78,-279.1C1681.95,-220.2 1816.58,-325.62 2298,-243 2306.03,-241.62 2314.45,-239.47 2322.43,-237.08"/>
<polygon fill="midnightblue" stroke="midnightblue" points="1192.13,-275.65 1182.63,-280.34 1192.98,-282.6 1192.13,-275.65"/>
</g>
<!-- Node119 -->
<g id="node21" class="node">
<title>Node119</title>
<g id="a_node21"><a xlink:href="scs__solver_8h.html" target="_top" xlink:title=" ">
<polygon fill="white" stroke="black" points="766,-212.5 766,-231.5 910,-231.5 910,-212.5 766,-212.5"/>
<text text-anchor="middle" x="838" y="-219.5" font-family="Helvetica,sans-Serif" font-size="10.00">drake/solvers/scs_solver.h</text>
</a>
</g>
</g>
<!-- Node101&#45;&gt;Node119 -->
<g id="edge24" class="edge">
<title>Node101&#45;&gt;Node119</title>
<path fill="none" stroke="midnightblue" d="M1057.75,-277.04C1017.5,-267.19 965.31,-254.39 919,-243 903.81,-239.26 887.02,-235.12 872.68,-231.58"/>
<polygon fill="midnightblue" stroke="midnightblue" points="1057.17,-280.51 1067.72,-279.48 1058.84,-273.71 1057.17,-280.51"/>
</g>
<!-- Node120 -->
<g id="node22" class="node">
<title>Node120</title>
<g id="a_node22"><a xlink:href="snopt__solver_8h.html" target="_top" xlink:title=" ">
<polygon fill="white" stroke="black" points="928,-207 928,-237 1040,-237 1040,-207 928,-207"/>
<text text-anchor="start" x="936" y="-225" font-family="Helvetica,sans-Serif" font-size="10.00">drake/solvers/snopt</text>
<text text-anchor="middle" x="984" y="-214" font-family="Helvetica,sans-Serif" font-size="10.00">_solver.h</text>
</a>
</g>
</g>
<!-- Node101&#45;&gt;Node120 -->
<g id="edge25" class="edge">
<title>Node101&#45;&gt;Node120</title>
<path fill="none" stroke="midnightblue" d="M1087.75,-274.87C1064.05,-263.02 1033.84,-247.92 1012.15,-237.07"/>
<polygon fill="midnightblue" stroke="midnightblue" points="1086.3,-278.06 1096.81,-279.4 1089.43,-271.8 1086.3,-278.06"/>
</g>
<!-- Node101&#45;&gt;Node121 -->
<g id="edge26" class="edge">
<title>Node101&#45;&gt;Node121</title>
<path fill="none" stroke="midnightblue" d="M1057.03,-287.17C982.79,-279.56 860.63,-265.01 757,-243 742.6,-239.94 726.82,-235.45 713.98,-231.5"/>
<polygon fill="midnightblue" stroke="midnightblue" points="1056.88,-290.67 1067.18,-288.2 1057.59,-283.71 1056.88,-290.67"/>
</g>
<!-- Node122 -->
<g id="node24" class="node">
<title>Node122</title>
<g id="a_node24"><a xlink:href="unrevised__lemke__solver_8h.html" target="_top" xlink:title=" ">
<polygon fill="white" stroke="black" points="1058.5,-207 1058.5,-237 1191.5,-237 1191.5,-207 1058.5,-207"/>
<text text-anchor="start" x="1066.5" y="-225" font-family="Helvetica,sans-Serif" font-size="10.00">drake/solvers/unrevised</text>
<text text-anchor="middle" x="1125" y="-214" font-family="Helvetica,sans-Serif" font-size="10.00">_lemke_solver.h</text>
</a>
</g>
</g>
<!-- Node101&#45;&gt;Node122 -->
<g id="edge27" class="edge">
<title>Node101&#45;&gt;Node122</title>
<path fill="none" stroke="midnightblue" d="M1125,-269.23C1125,-258.57 1125,-246.41 1125,-237.25"/>
<polygon fill="midnightblue" stroke="midnightblue" points="1121.5,-269.23 1125,-279.23 1128.5,-269.23 1121.5,-269.23"/>
</g>
<!-- Node103 -->
<g id="node5" class="node">
<title>Node103</title>
<g id="a_node5"><a xlink:href="constraint__solver_8h.html" target="_top" xlink:title=" ">
<polygon fill="white" stroke="black" points="1243,-134.5 1243,-164.5 1391,-164.5 1391,-134.5 1243,-134.5"/>
<text text-anchor="start" x="1251" y="-152.5" font-family="Helvetica,sans-Serif" font-size="10.00">drake/multibody/constraint</text>
<text text-anchor="middle" x="1317" y="-141.5" font-family="Helvetica,sans-Serif" font-size="10.00">/constraint_solver.h</text>
</a>
</g>
</g>
<!-- Node102&#45;&gt;Node103 -->
<g id="edge4" class="edge">
<title>Node102&#45;&gt;Node103</title>
<path fill="none" stroke="midnightblue" d="M1282.36,-198.39C1290.35,-187.34 1299.72,-174.39 1306.69,-164.75"/>
<polygon fill="midnightblue" stroke="midnightblue" points="1279.35,-196.58 1276.32,-206.73 1285.02,-200.68 1279.35,-196.58"/>
</g>
<!-- Node104 -->
<g id="node6" class="node">
<title>Node104</title>
<g id="a_node6"><a xlink:href="rod2d_8h.html" target="_top" xlink:title=" ">
<polygon fill="white" stroke="black" points="1203.5,-67.5 1203.5,-97.5 1328.5,-97.5 1328.5,-67.5 1203.5,-67.5"/>
<text text-anchor="start" x="1211.5" y="-85.5" font-family="Helvetica,sans-Serif" font-size="10.00">drake/examples/rod2d</text>
<text text-anchor="middle" x="1266" y="-74.5" font-family="Helvetica,sans-Serif" font-size="10.00">/rod2d.h</text>
</a>
</g>
</g>
<!-- Node102&#45;&gt;Node104 -->
<g id="edge6" class="edge">
<title>Node102&#45;&gt;Node104</title>
<path fill="none" stroke="midnightblue" d="M1249.33,-198.1C1243.24,-188.4 1237.09,-176.65 1234,-165 1230.46,-151.68 1230.16,-147.23 1234,-134 1237.88,-120.64 1246.46,-107.43 1253.76,-97.88"/>
<polygon fill="midnightblue" stroke="midnightblue" points="1246.6,-200.32 1255.04,-206.72 1252.43,-196.45 1246.6,-200.32"/>
</g>
<!-- Node103&#45;&gt;Node104 -->
<g id="edge5" class="edge">
<title>Node103&#45;&gt;Node104</title>
<path fill="none" stroke="midnightblue" d="M1299.7,-126.45C1292.21,-116.9 1283.66,-106 1277.04,-97.58"/>
<polygon fill="midnightblue" stroke="midnightblue" points="1297.01,-128.69 1305.93,-134.4 1302.51,-124.37 1297.01,-128.69"/>
</g>
<!-- Node105&#45;&gt;Node106 -->
<g id="edge8" class="edge">
<title>Node105&#45;&gt;Node106</title>
<path fill="none" stroke="midnightblue" d="M484.95,-204.55C436.32,-192.43 370.88,-176.13 324.63,-164.61"/>
<polygon fill="midnightblue" stroke="midnightblue" points="484.2,-207.97 494.75,-206.99 485.89,-201.17 484.2,-207.97"/>
</g>
<!-- Node105&#45;&gt;Node109 -->
<g id="edge15" class="edge">
<title>Node105&#45;&gt;Node109</title>
<path fill="none" stroke="midnightblue" d="M552.72,-196.34C553.78,-164.19 551.54,-107.32 527,-67 517.51,-51.4 501.21,-39.14 486.83,-30.6"/>
<polygon fill="midnightblue" stroke="midnightblue" points="549.21,-196.46 552.23,-206.61 556.2,-196.79 549.21,-196.46"/>
</g>
<!-- Node107 -->
<g id="node9" class="node">
<title>Node107</title>
<g id="a_node9"><a xlink:href="cspace__free__polytope__base_8h.html" target="_top" xlink:title=" ">
<polygon fill="white" stroke="black" points="321,-67.5 321,-97.5 485,-97.5 485,-67.5 321,-67.5"/>
<text text-anchor="start" x="329" y="-85.5" font-family="Helvetica,sans-Serif" font-size="10.00">drake/geometry/optimization</text>
<text text-anchor="middle" x="403" y="-74.5" font-family="Helvetica,sans-Serif" font-size="10.00">/cspace_free_polytope_base.h</text>
</a>
</g>
</g>
<!-- Node106&#45;&gt;Node107 -->
<g id="edge9" class="edge">
<title>Node106&#45;&gt;Node107</title>
<path fill="none" stroke="midnightblue" d="M306.44,-129.99C327.84,-119.69 354.05,-107.07 373.76,-97.58"/>
<polygon fill="midnightblue" stroke="midnightblue" points="304.78,-126.9 297.29,-134.4 307.82,-133.21 304.78,-126.9"/>
</g>
<!-- Node106&#45;&gt;Node108 -->
<g id="edge12" class="edge">
<title>Node106&#45;&gt;Node108</title>
<path fill="none" stroke="midnightblue" d="M178.83,-140.01C149.5,-132.95 119.05,-120.35 98,-98 80.67,-79.6 78.12,-48.56 78.26,-30.56"/>
<polygon fill="midnightblue" stroke="midnightblue" points="178.2,-143.45 188.72,-142.19 179.71,-136.62 178.2,-143.45"/>
</g>
<!-- Node106&#45;&gt;Node109 -->
<g id="edge14" class="edge">
<title>Node106&#45;&gt;Node109</title>
<path fill="none" stroke="midnightblue" d="M275.46,-124.76C282.29,-106.62 294.09,-82.22 312,-67 332.44,-49.63 359.19,-38.13 384.2,-30.55"/>
<polygon fill="midnightblue" stroke="midnightblue" points="272.11,-123.75 272.09,-134.35 278.71,-126.08 272.11,-123.75"/>
</g>
<!-- Node110 -->
<g id="node12" class="node">
<title>Node110</title>
<g id="a_node12"><a xlink:href="cspace__free__internal_8h.html" target="_top" xlink:title=" ">
<polygon fill="white" stroke="black" points="107,-67.5 107,-97.5 265,-97.5 265,-67.5 107,-67.5"/>
<text text-anchor="start" x="115" y="-85.5" font-family="Helvetica,sans-Serif" font-size="10.00">drake/geometry/optimization</text>
<text text-anchor="middle" x="186" y="-74.5" font-family="Helvetica,sans-Serif" font-size="10.00">/cspace_free_internal.h</text>
</a>
</g>
</g>
<!-- Node106&#45;&gt;Node110 -->
<g id="edge13" class="edge">
<title>Node106&#45;&gt;Node110</title>
<path fill="none" stroke="midnightblue" d="M242.35,-128.17C229.81,-118.23 215.03,-106.51 203.76,-97.58"/>
<polygon fill="midnightblue" stroke="midnightblue" points="240.2,-130.93 250.21,-134.4 244.54,-125.44 240.2,-130.93"/>
</g>
<!-- Node107&#45;&gt;Node108 -->
<g id="edge10" class="edge">
<title>Node107&#45;&gt;Node108</title>
<path fill="none" stroke="midnightblue" d="M322.99,-65.45C269.66,-54.75 200.21,-40.82 149.06,-30.55"/>
<polygon fill="midnightblue" stroke="midnightblue" points="322.6,-68.94 333.1,-67.48 323.98,-62.08 322.6,-68.94"/>
</g>
<!-- Node107&#45;&gt;Node109 -->
<g id="edge11" class="edge">
<title>Node107&#45;&gt;Node109</title>
<path fill="none" stroke="midnightblue" d="M421.42,-59.74C429.55,-50.12 438.89,-39.09 446.09,-30.58"/>
<polygon fill="midnightblue" stroke="midnightblue" points="418.72,-57.5 414.93,-67.4 424.07,-62.02 418.72,-57.5"/>
</g>
<!-- Node123&#45;&gt;Node107 -->
<g id="edge29" class="edge">
<title>Node123&#45;&gt;Node107</title>
<path fill="none" stroke="midnightblue" d="M416.94,-124.7C413.86,-115.59 410.44,-105.49 407.76,-97.58"/>
<polygon fill="midnightblue" stroke="midnightblue" points="413.71,-126.05 420.23,-134.4 420.34,-123.8 413.71,-126.05"/>
</g>
<!-- Node125 -->
<g id="node27" class="node">
<title>Node125</title>
<g id="a_node27"><a xlink:href="gcs__trajectory__optimization_8h.html" target="_top" xlink:title=" ">
<polygon fill="white" stroke="black" points="2433.5,-201.5 2433.5,-242.5 2588.5,-242.5 2588.5,-201.5 2433.5,-201.5"/>
<text text-anchor="start" x="2441.5" y="-230.5" font-family="Helvetica,sans-Serif" font-size="10.00">drake/planning/trajectory</text>
<text text-anchor="start" x="2441.5" y="-219.5" font-family="Helvetica,sans-Serif" font-size="10.00">_optimization/gcs_trajectory</text>
<text text-anchor="middle" x="2511" y="-208.5" font-family="Helvetica,sans-Serif" font-size="10.00">_optimization.h</text>
</a>
</g>
</g>
<!-- Node124&#45;&gt;Node125 -->
<g id="edge31" class="edge">
<title>Node124&#45;&gt;Node125</title>
<path fill="none" stroke="midnightblue" d="M1725.28,-278.95C2035.51,-246.48 2118.78,-285.6 2424,-243 2427.07,-242.57 2430.19,-242.09 2433.34,-241.56"/>
<polygon fill="midnightblue" stroke="midnightblue" points="1724.67,-275.5 1715.1,-280.04 1725.41,-282.46 1724.67,-275.5"/>
</g>
<!-- Node131 -->
<g id="node33" class="node">
<title>Node131</title>
<g id="a_node33"><a xlink:href="direct__collocation_8h.html" target="_top" xlink:title=" ">
<polygon fill="white" stroke="black" points="1733,-279.5 1733,-309.5 1915,-309.5 1915,-279.5 1733,-279.5"/>
<text text-anchor="start" x="1741" y="-297.5" font-family="Helvetica,sans-Serif" font-size="10.00">drake/planning/trajectory</text>
<text text-anchor="middle" x="1824" y="-286.5" font-family="Helvetica,sans-Serif" font-size="10.00">_optimization/direct_collocation.h</text>
</a>
</g>
</g>
<!-- Node130&#45;&gt;Node131 -->
<g id="edge42" class="edge">
<title>Node130&#45;&gt;Node131</title>
<path fill="none" stroke="midnightblue" d="M1712.83,-342.43C1738.65,-331.53 1768.45,-318.95 1790.7,-309.56"/>
<polygon fill="midnightblue" stroke="midnightblue" points="1711.37,-339.25 1703.52,-346.36 1714.09,-345.7 1711.37,-339.25"/>
</g>
<!-- Node132 -->
<g id="node34" class="node">
<title>Node132</title>
<g id="a_node34"><a xlink:href="direct__transcription_8h.html" target="_top" xlink:title=" ">
<polygon fill="white" stroke="black" points="1933,-279.5 1933,-309.5 2123,-309.5 2123,-279.5 1933,-279.5"/>
<text text-anchor="start" x="1941" y="-297.5" font-family="Helvetica,sans-Serif" font-size="10.00">drake/planning/trajectory</text>
<text text-anchor="middle" x="2028" y="-286.5" font-family="Helvetica,sans-Serif" font-size="10.00">_optimization/direct_transcription.h</text>
</a>
</g>
</g>
<!-- Node130&#45;&gt;Node132 -->
<g id="edge43" class="edge">
<title>Node130&#45;&gt;Node132</title>
<path fill="none" stroke="midnightblue" d="M1736.51,-345.97C1809.16,-330.7 1881.03,-318.39 1936.25,-309.52"/>
<polygon fill="midnightblue" stroke="midnightblue" points="1735.78,-342.54 1726.72,-348.04 1737.23,-349.39 1735.78,-342.54"/>
</g>
</g>
</svg>
        <g id="navigator" transform="translate(0 0)" fill="#404254">
                <rect fill="#f2f5e9" fill-opacity="0.5" stroke="#606060" stroke-width=".5" x="0" y="0" width="60" height="60"/>
                <use id="zoomplus" xlink:href="#zoomPlus" x="17" y="9" onmousedown="handleZoom(evt,'in')"/>
                <use id="zoomminus" xlink:href="#zoomMin" x="42" y="9" onmousedown="handleZoom(evt,'out')"/>
                <use id="reset" xlink:href="#resetDef" x="30" y="36" onmousedown="handleReset()"/>
                <g id="arrowUp" xlink:href="#dirArrow" transform="translate(30 24)" onmousedown="handlePan(0,-1)">
                  <use xlink:href="#rim" fill="#404040">
                        <set attributeName="fill" to="#808080" begin="arrowUp.mouseover" end="arrowUp.mouseout"/>
                  </use>
                  <path fill="none" stroke="white" stroke-width="1.5" d="M0,-3.0v7 M-2.5,-0.5L0,-3.0L2.5,-0.5"/>
                </g>
                <g id="arrowRight" xlink:href="#dirArrow" transform="rotate(90) translate(36 -43)" onmousedown="handlePan(1,0)">
                  <use xlink:href="#rim" fill="#404040">
                        <set attributeName="fill" to="#808080" begin="arrowRight.mouseover" end="arrowRight.mouseout"/>
                  </use>
                  <path fill="none" stroke="white" stroke-width="1.5" d="M0,-3.0v7 M-2.5,-0.5L0,-3.0L2.5,-0.5"/>
                </g>
                <g id="arrowDown" xlink:href="#dirArrow" transform="rotate(180) translate(-30 -48)" onmousedown="handlePan(0,1)">
                  <use xlink:href="#rim" fill="#404040">
                        <set attributeName="fill" to="#808080" begin="arrowDown.mouseover" end="arrowDown.mouseout"/>
                  </use>
                  <path fill="none" stroke="white" stroke-width="1.5" d="M0,-3.0v7 M-2.5,-0.5L0,-3.0L2.5,-0.5"/>
                </g>
                <g id="arrowLeft" xlink:href="#dirArrow" transform="rotate(270) translate(-36 17)" onmousedown="handlePan(-1,0)">
                  <use xlink:href="#rim" fill="#404040">
                        <set attributeName="fill" to="#808080" begin="arrowLeft.mouseover" end="arrowLeft.mouseout"/>
                  </use>
                  <path fill="none" stroke="white" stroke-width="1.5" d="M0,-3.0v7 M-2.5,-0.5L0,-3.0L2.5,-0.5"/>
                </g>
        </g>
        <svg viewBox="0 0 15 15" width="100%" height="30px" preserveAspectRatio="xMaxYMin meet">
         <g id="arrow_out" transform="scale(0.3 0.3)">
          <a xlink:href="mathematical__program__result_8h__dep__incl_org.svg" target="_base">
           <rect id="button" ry="5" rx="5" y="6" x="6" height="38" width="38"
                fill="#f2f5e9" fill-opacity="0.5" stroke="#606060" stroke-width="1.0"/>
           <path id="arrow"
             d="M 11.500037,31.436501 C 11.940474,20.09759 22.043105,11.32322 32.158766,21.979434 L 37.068811,17.246167 C 37.068811,17.246167 37.088388,32 37.088388,32 L 22.160133,31.978069 C 22.160133,31.978069 26.997745,27.140456 26.997745,27.140456 C 18.528582,18.264221 13.291696,25.230495 11.500037,31.436501 z"
             style="fill:#404040;"/>
          </a>
         </g>
        </svg>
</svg>
