<?xml version="1.0" encoding="UTF-8" standalone="no"?>
<!DOCTYPE svg PUBLIC "-//W3C//DTD SVG 1.1//EN"
 "http://www.w3.org/Graphics/SVG/1.1/DTD/svg11.dtd">
<!-- Generated by graphviz version 2.43.0 (0)
 -->
<!-- Title: drake/math/autodiff.h Pages: 1 -->
<!--zoomable 616 -->

<svg id="main" version="1.1" xmlns="http://www.w3.org/2000/svg" xmlns:xlink="http://www.w3.org/1999/xlink" xml:space="preserve" onload="init(evt)">

<style type="text/css"><![CDATA[
.node, .edge {opacity: 0.7;}
.node.selected, .edge.selected {opacity: 1;}
.edge:hover path { stroke: red; }
.edge:hover polygon { stroke: red; fill: red; }
]]></style>

<defs>
  <circle id="rim" cx="0" cy="0" r="7"/>
  <circle id="rim2" cx="0" cy="0" r="3.5"/>
  <g id="zoomPlus">
    <use xlink:href="#rim" fill="#404040"><set attributeName="fill" to="#808080" begin="zoomplus.mouseover" end="zoomplus.mouseout"/></use>
    <path d="M-4,0h8M0,-4v8" fill="none" stroke="white" stroke-width="1.5" pointer-events="none"/>
  </g>
  <g id="zoomMin">
    <use xlink:href="#rim" fill="#404040"><set attributeName="fill" to="#808080" begin="zoomminus.mouseover" end="zoomminus.mouseout"/></use>
    <path d="M-4,0h8" fill="none" stroke="white" stroke-width="1.5" pointer-events="none"/>
  </g>
  <g id="arrowUp" transform="translate(30 24)">
    <use xlink:href="#rim"/>
    <path pointer-events="none" fill="none" stroke="white" stroke-width="1.5" d="M0,-3.0v7 M-2.5,-0.5L0,-3.0L2.5,-0.5"/>
  </g>
  <g id="arrowRight" transform="rotate(90) translate(36 -43)">
    <use xlink:href="#rim"/>
    <path pointer-events="none" fill="none" stroke="white" stroke-width="1.5" d="M0,-3.0v7 M-2.5,-0.5L0,-3.0L2.5,-0.5"/>
  </g>
  <g id="arrowDown" transform="rotate(180) translate(-30 -48)">
    <use xlink:href="#rim"/>
    <path pointer-events="none" fill="none" stroke="white" stroke-width="1.5" d="M0,-3.0v7 M-2.5,-0.5L0,-3.0L2.5,-0.5"/>
  </g>
  <g id="arrowLeft" transform="rotate(270) translate(-36 17)">
    <use xlink:href="#rim"/>
    <path pointer-events="none" fill="none" stroke="white" stroke-width="1.5" d="M0,-3.0v7 M-2.5,-0.5L0,-3.0L2.5,-0.5"/>
  </g>
  <g id="resetDef">
    <use xlink:href="#rim2" fill="#404040"><set attributeName="fill" to="#808080" begin="reset.mouseover" end="reset.mouseout"/></use>
  </g>
</defs>
<script type="application/ecmascript">
var viewWidth = 1821;
var viewHeight = 616;
var sectionId = 'dynsection-0';
</script>
<script type="application/ecmascript" xlink:href="svg.min.js"/>
<svg id="graph" class="graph">
<g id="viewport">
<title>drake/math/autodiff.h</title>
<!-- Node1 -->
<g id="Node000001" class="node">
<title>Node1</title>
<g id="a_Node000001"><a xlink:title="Utilities for arithmetic on AutoDiffScalar.">
<ellipse fill="#999999" stroke="#666666" cx="388.7" cy="-594.18" rx="86.03" ry="13.37"/>
<text text-anchor="middle" x="388.7" y="-591.68" font-family="Helvetica,sans-Serif" font-size="10.00">drake/math/autodiff.h</text>
</a>
</g>
</g>
<!-- Node2 -->
<g id="Node000002" class="node">
<title>Node2</title>
<g id="a_Node000002"><a xlink:title=" ">
<ellipse fill="#e0e0e0" stroke="#999999" cx="29.7" cy="-76.31" rx="29.9" ry="13.37"/>
<text text-anchor="middle" x="29.7" y="-73.81" font-family="Helvetica,sans-Serif" font-size="10.00">array</text>
</a>
</g>
</g>
<!-- Node1&#45;&gt;Node2 -->
<g id="edge1_Node000001_Node000002" class="edge">
<title>Node1&#45;&gt;Node2</title>
<g id="a_edge1_Node000001_Node000002"><a xlink:title=" ">
<path fill="none" stroke="#63b8ff" d="M307.6,-589.47C253.31,-584.37 181.47,-572.44 123.7,-544.74 72.82,-520.35 27.7,-518.09 27.7,-461.66 27.7,-461.66 27.7,-461.66 27.7,-224.38 27.7,-180.42 28.6,-129.08 29.2,-100.16"/>
<polygon fill="#63b8ff" stroke="#63b8ff" points="32.7,-99.97 29.41,-89.9 25.7,-99.82 32.7,-99.97"/>
</a>
</g>
</g>
<!-- Node3 -->
<g id="Node000003" class="node">
<title>Node3</title>
<g id="a_Node000003"><a xlink:title=" ">
<ellipse fill="#e0e0e0" stroke="#999999" cx="1462.7" cy="-303.81" rx="33.47" ry="13.37"/>
<text text-anchor="middle" x="1462.7" y="-301.31" font-family="Helvetica,sans-Serif" font-size="10.00">cmath</text>
</a>
</g>
</g>
<!-- Node1&#45;&gt;Node3 -->
<g id="edge2_Node000001_Node000003" class="edge">
<title>Node1&#45;&gt;Node3</title>
<g id="a_edge2_Node000001_Node000003"><a xlink:title=" ">
<path fill="none" stroke="#63b8ff" d="M469.68,-589.51C572.73,-583.96 755.94,-571.15 910.7,-544.74 1165.43,-501.28 1315.72,-607.17 1474.7,-403.45 1491.74,-381.61 1482.68,-348.36 1473.56,-326.6"/>
<polygon fill="#63b8ff" stroke="#63b8ff" points="1476.63,-324.9 1469.33,-317.22 1470.25,-327.78 1476.63,-324.9"/>
</a>
</g>
</g>
<!-- Node4 -->
<g id="Node000004" class="node">
<title>Node4</title>
<g id="a_Node000004"><a xlink:title=" ">
<ellipse fill="#e0e0e0" stroke="#999999" cx="1561.7" cy="-531.31" rx="39.7" ry="13.37"/>
<text text-anchor="middle" x="1561.7" y="-528.81" font-family="Helvetica,sans-Serif" font-size="10.00">optional</text>
</a>
</g>
</g>
<!-- Node1&#45;&gt;Node4 -->
<g id="edge3_Node000001_Node000004" class="edge">
<title>Node1&#45;&gt;Node4</title>
<g id="a_edge3_Node000001_Node000004"><a xlink:title=" ">
<path fill="none" stroke="#63b8ff" d="M473.67,-591.51C698.99,-586.78 1308.15,-571.81 1507.7,-544.74 1512.27,-544.12 1517.03,-543.3 1521.74,-542.37"/>
<polygon fill="#63b8ff" stroke="#63b8ff" points="1522.84,-545.71 1531.89,-540.2 1521.38,-538.87 1522.84,-545.71"/>
</a>
</g>
</g>
<!-- Node5 -->
<g id="Node000005" class="node">
<title>Node5</title>
<g id="a_Node000005"><a xlink:title=" ">
<ellipse fill="#e0e0e0" stroke="#999999" cx="110.7" cy="-76.31" rx="28.98" ry="13.37"/>
<text text-anchor="middle" x="110.7" y="-73.81" font-family="Helvetica,sans-Serif" font-size="10.00">tuple</text>
</a>
</g>
</g>
<!-- Node1&#45;&gt;Node5 -->
<g id="edge4_Node000001_Node000005" class="edge">
<title>Node1&#45;&gt;Node5</title>
<g id="a_edge4_Node000001_Node000005"><a xlink:title=" ">
<path fill="none" stroke="#63b8ff" d="M337.16,-583.3C245.97,-564.35 65.7,-519.56 65.7,-461.66 65.7,-461.66 65.7,-461.66 65.7,-224.38 65.7,-179.73 69.75,-167.81 84.7,-125.74 88.04,-116.33 93,-106.52 97.68,-98.21"/>
<polygon fill="#63b8ff" stroke="#63b8ff" points="100.72,-99.96 102.77,-89.57 94.68,-96.42 100.72,-99.96"/>
</a>
</g>
</g>
<!-- Node6 -->
<g id="Node000006" class="node">
<title>Node6</title>
<g id="a_Node000006"><a xlink:title=" ">
<ellipse fill="#e0e0e0" stroke="#999999" cx="267.7" cy="-76.31" rx="31.64" ry="13.37"/>
<text text-anchor="middle" x="267.7" y="-73.81" font-family="Helvetica,sans-Serif" font-size="10.00">utility</text>
</a>
</g>
</g>
<!-- Node1&#45;&gt;Node6 -->
<g id="edge5_Node000001_Node000006" class="edge">
<title>Node1&#45;&gt;Node6</title>
<g id="a_edge5_Node000001_Node000006"><a xlink:title=" ">
<path fill="none" stroke="#63b8ff" d="M370.54,-580.98C341.96,-560.16 289.7,-514.82 289.7,-461.66 289.7,-461.66 289.7,-461.66 289.7,-224.38 289.7,-179.74 279.66,-128.3 273.15,-99.62"/>
<polygon fill="#63b8ff" stroke="#63b8ff" points="276.54,-98.74 270.85,-89.8 269.72,-100.34 276.54,-98.74"/>
</a>
</g>
</g>
<!-- Node7 -->
<g id="Node000007" class="node">
<title>Node7</title>
<g id="a_Node000007"><a xlink:title=" ">
<ellipse fill="#e0e0e0" stroke="#999999" cx="409.7" cy="-146.95" rx="54.39" ry="13.37"/>
<text text-anchor="middle" x="409.7" y="-144.45" font-family="Helvetica,sans-Serif" font-size="10.00">Eigen/Dense</text>
</a>
</g>
</g>
<!-- Node1&#45;&gt;Node7 -->
<g id="edge6_Node000001_Node000007" class="edge">
<title>Node1&#45;&gt;Node7</title>
<g id="a_edge6_Node000001_Node000007"><a xlink:title=" ">
<path fill="none" stroke="#63b8ff" d="M385.65,-580.57C380.27,-557.25 369.7,-505.72 369.7,-461.66 369.7,-461.66 369.7,-461.66 369.7,-302.81 369.7,-254.12 388.46,-199.49 400.29,-169.89"/>
<polygon fill="#63b8ff" stroke="#63b8ff" points="403.57,-171.1 404.14,-160.52 397.1,-168.44 403.57,-171.1"/>
</a>
</g>
</g>
<!-- Node8 -->
<g id="Node000008" class="node">
<title>Node8</title>
<g id="a_Node000008"><a xlink:href="common_2autodiff_8h.html" target="_top" xlink:title="This header provides a single inclusion point for autodiff&#45;related header files in the drake/common d...">
<ellipse fill="white" stroke="#666666" cx="803.7" cy="-531.31" rx="98.08" ry="13.37"/>
<text text-anchor="middle" x="803.7" y="-528.81" font-family="Helvetica,sans-Serif" font-size="10.00">drake/common/autodiff.h</text>
</a>
</g>
</g>
<!-- Node1&#45;&gt;Node8 -->
<g id="edge7_Node000001_Node000008" class="edge">
<title>Node1&#45;&gt;Node8</title>
<g id="a_edge7_Node000001_Node000008"><a xlink:title=" ">
<path fill="none" stroke="#63b8ff" d="M448.6,-584.39C523.08,-573.47 650.16,-554.83 730.38,-543.06"/>
<polygon fill="#63b8ff" stroke="#63b8ff" points="731.03,-546.5 740.41,-541.59 730.01,-539.58 731.03,-546.5"/>
</a>
</g>
</g>
<!-- Node14 -->
<g id="Node000014" class="node">
<title>Node14</title>
<g id="a_Node000014"><a xlink:href="eigen__types_8h.html" target="_top" xlink:title="This file contains abbreviated definitions for certain specializations of Eigen::Matrix that are comm...">
<ellipse fill="white" stroke="#666666" cx="669.7" cy="-225.38" rx="84.29" ry="21.43"/>
<text text-anchor="start" x="618.2" y="-228.38" font-family="Helvetica,sans-Serif" font-size="10.00">drake/common/eigen</text>
<text text-anchor="middle" x="669.7" y="-217.38" font-family="Helvetica,sans-Serif" font-size="10.00">_types.h</text>
</a>
</g>
</g>
<!-- Node1&#45;&gt;Node14 -->
<g id="edge49_Node000001_Node000014" class="edge">
<title>Node1&#45;&gt;Node14</title>
<g id="a_edge49_Node000001_Node000014"><a xlink:title=" ">
<path fill="none" stroke="#63b8ff" d="M391.75,-580.57C397.12,-557.25 407.7,-505.72 407.7,-461.66 407.7,-461.66 407.7,-461.66 407.7,-381.23 407.7,-336.59 395.72,-314.74 426.7,-282.59 448.44,-260.03 523.23,-245.02 584.16,-236.23"/>
<polygon fill="#63b8ff" stroke="#63b8ff" points="584.78,-239.67 594.2,-234.81 583.81,-232.74 584.78,-239.67"/>
</a>
</g>
</g>
<!-- Node17 -->
<g id="Node000017" class="node">
<title>Node17</title>
<g id="a_Node000017"><a xlink:href="drake__assert_8h.html" target="_top" xlink:title="Provides Drake&#39;s assertion mechanics.">
<ellipse fill="white" stroke="#666666" cx="177.7" cy="-146.95" rx="84.29" ry="21.43"/>
<text text-anchor="start" x="126.2" y="-149.95" font-family="Helvetica,sans-Serif" font-size="10.00">drake/common/drake</text>
<text text-anchor="middle" x="177.7" y="-138.95" font-family="Helvetica,sans-Serif" font-size="10.00">_assert.h</text>
</a>
</g>
</g>
<!-- Node1&#45;&gt;Node17 -->
<g id="edge48_Node000001_Node000017" class="edge">
<title>Node1&#45;&gt;Node17</title>
<g id="a_edge48_Node000001_Node000017"><a xlink:title=" ">
<path fill="none" stroke="#63b8ff" d="M348.34,-582.2C296.94,-565.48 214.7,-528.3 214.7,-461.66 214.7,-461.66 214.7,-461.66 214.7,-302.81 214.7,-258.35 200.1,-208.64 189.24,-177.82"/>
<polygon fill="#63b8ff" stroke="#63b8ff" points="192.42,-176.34 185.73,-168.13 185.84,-178.72 192.42,-176.34"/>
</a>
</g>
</g>
<!-- Node30 -->
<g id="Node000030" class="node">
<title>Node30</title>
<g id="a_Node000030"><a xlink:href="unused_8h.html" target="_top" xlink:title=" ">
<ellipse fill="white" stroke="#666666" cx="1715.7" cy="-531.31" rx="96.75" ry="13.37"/>
<text text-anchor="middle" x="1715.7" y="-528.81" font-family="Helvetica,sans-Serif" font-size="10.00">drake/common/unused.h</text>
</a>
</g>
</g>
<!-- Node1&#45;&gt;Node30 -->
<g id="edge50_Node000001_Node000030" class="edge">
<title>Node1&#45;&gt;Node30</title>
<g id="a_edge50_Node000001_Node000030"><a xlink:title=" ">
<path fill="none" stroke="#63b8ff" d="M474.02,-592.09C673.3,-589.05 1184.73,-578.36 1610.7,-544.74 1619.7,-544.03 1629.12,-543.13 1638.47,-542.15"/>
<polygon fill="#63b8ff" stroke="#63b8ff" points="1639,-545.61 1648.56,-541.05 1638.24,-538.65 1639,-545.61"/>
</a>
</g>
</g>
<!-- Node9 -->
<g id="Node000009" class="node">
<title>Node9</title>
<g id="a_Node000009"><a xlink:href="autodiff__config_8h.html" target="_top" xlink:title=" ">
<ellipse fill="white" stroke="#666666" cx="703.7" cy="-460.66" rx="91.85" ry="21.43"/>
<text text-anchor="start" x="646.7" y="-463.66" font-family="Helvetica,sans-Serif" font-size="10.00">drake/common/autodiff</text>
<text text-anchor="middle" x="703.7" y="-452.66" font-family="Helvetica,sans-Serif" font-size="10.00">_config.h</text>
</a>
</g>
</g>
<!-- Node8&#45;&gt;Node9 -->
<g id="edge8_Node000008_Node000009" class="edge">
<title>Node8&#45;&gt;Node9</title>
<g id="a_edge8_Node000008_Node000009"><a xlink:title=" ">
<path fill="none" stroke="#63b8ff" d="M785.82,-518.03C773.21,-509.38 755.88,-497.48 740.38,-486.84"/>
<polygon fill="#63b8ff" stroke="#63b8ff" points="742.23,-483.87 732.01,-481.09 738.27,-489.64 742.23,-483.87"/>
</a>
</g>
</g>
<!-- Node10 -->
<g id="Node000010" class="node">
<title>Node10</title>
<g id="a_Node000010"><a xlink:title=" ">
<ellipse fill="#e0e0e0" stroke="#999999" cx="1307.7" cy="-76.31" rx="48.58" ry="13.37"/>
<text text-anchor="middle" x="1307.7" y="-73.81" font-family="Helvetica,sans-Serif" font-size="10.00">Eigen/Core</text>
</a>
</g>
</g>
<!-- Node8&#45;&gt;Node10 -->
<g id="edge9_Node000008_Node000010" class="edge">
<title>Node8&#45;&gt;Node10</title>
<g id="a_edge9_Node000008_Node000010"><a xlink:title=" ">
<path fill="none" stroke="#63b8ff" d="M884.08,-523.49C1040.87,-508.87 1380.47,-470.27 1474.7,-403.45 1516,-374.16 1531.7,-355.44 1531.7,-304.81 1531.7,-304.81 1531.7,-304.81 1531.7,-224.38 1531.7,-141.19 1422.4,-102.46 1356.5,-86.66"/>
<polygon fill="#63b8ff" stroke="#63b8ff" points="1357.25,-83.24 1346.72,-84.41 1355.68,-90.07 1357.25,-83.24"/>
</a>
</g>
</g>
<!-- Node11 -->
<g id="Node000011" class="node">
<title>Node11</title>
<g id="a_Node000011"><a xlink:href="auto__diff_8h.html" target="_top" xlink:title=" ">
<ellipse fill="white" stroke="#666666" cx="904.7" cy="-460.66" rx="91.43" ry="21.43"/>
<text text-anchor="start" x="848.2" y="-463.66" font-family="Helvetica,sans-Serif" font-size="10.00">drake/common/ad/auto</text>
<text text-anchor="middle" x="904.7" y="-452.66" font-family="Helvetica,sans-Serif" font-size="10.00">_diff.h</text>
</a>
</g>
</g>
<!-- Node8&#45;&gt;Node11 -->
<g id="edge10_Node000008_Node000011" class="edge">
<title>Node8&#45;&gt;Node11</title>
<g id="a_edge10_Node000008_Node000011"><a xlink:title=" ">
<path fill="none" stroke="#63b8ff" d="M821.76,-518.03C834.49,-509.38 852,-497.48 867.65,-486.84"/>
<polygon fill="#63b8ff" stroke="#63b8ff" points="869.81,-489.61 876.11,-481.09 865.87,-483.82 869.81,-489.61"/>
</a>
</g>
</g>
<!-- Node12 -->
<g id="Node000012" class="node">
<title>Node12</title>
<g id="a_Node000012"><a xlink:href="derivatives__xpr_8h.html" target="_top" xlink:title=" ">
<ellipse fill="white" stroke="#666666" cx="538.7" cy="-303.81" rx="102.56" ry="21.43"/>
<text text-anchor="start" x="474.2" y="-306.81" font-family="Helvetica,sans-Serif" font-size="10.00">drake/common/ad/internal</text>
<text text-anchor="middle" x="538.7" y="-295.81" font-family="Helvetica,sans-Serif" font-size="10.00">/derivatives_xpr.h</text>
</a>
</g>
</g>
<!-- Node11&#45;&gt;Node12 -->
<g id="edge11_Node000011_Node000012" class="edge">
<title>Node11&#45;&gt;Node12</title>
<g id="a_edge11_Node000011_Node000012"><a xlink:title=" ">
<path fill="none" stroke="#63b8ff" d="M840.04,-445.67C828.31,-443.39 816.17,-441.21 804.7,-439.45 729.6,-427.91 515.52,-459.93 464.7,-403.45 452.09,-389.43 456.32,-377.91 464.7,-361.02 470.93,-348.46 481.46,-337.95 492.65,-329.54"/>
<polygon fill="#63b8ff" stroke="#63b8ff" points="494.68,-332.4 500.86,-323.8 490.66,-326.66 494.68,-332.4"/>
</a>
</g>
</g>
<!-- Node11&#45;&gt;Node14 -->
<g id="edge39_Node000011_Node000014" class="edge">
<title>Node11&#45;&gt;Node14</title>
<g id="a_edge39_Node000011_Node000014"><a xlink:title=" ">
<path fill="none" stroke="#63b8ff" d="M839.48,-445.69C795.62,-435.08 742.96,-419.61 726.7,-403.45 686.74,-363.71 674.77,-295.87 671.2,-256.71"/>
<polygon fill="#63b8ff" stroke="#63b8ff" points="674.69,-256.4 670.42,-246.7 667.71,-256.95 674.69,-256.4"/>
</a>
</g>
</g>
<!-- Node19 -->
<g id="Node000019" class="node">
<title>Node19</title>
<g id="a_Node000019"><a xlink:href="drake__copyable_8h.html" target="_top" xlink:title="Provides careful macros to selectively enable or disable the special member functions for copy&#45;constr...">
<ellipse fill="white" stroke="#666666" cx="1157.7" cy="-146.95" rx="84.29" ry="21.43"/>
<text text-anchor="start" x="1106.2" y="-149.95" font-family="Helvetica,sans-Serif" font-size="10.00">drake/common/drake</text>
<text text-anchor="middle" x="1157.7" y="-138.95" font-family="Helvetica,sans-Serif" font-size="10.00">_copyable.h</text>
</a>
</g>
</g>
<!-- Node11&#45;&gt;Node19 -->
<g id="edge38_Node000011_Node000019" class="edge">
<title>Node11&#45;&gt;Node19</title>
<g id="a_edge38_Node000011_Node000019"><a xlink:title=" ">
<path fill="none" stroke="#63b8ff" d="M993.46,-455.75C1074.32,-450.11 1185.2,-436.42 1212.7,-403.45 1268.08,-337.05 1210.54,-227.93 1177.5,-176.49"/>
<polygon fill="#63b8ff" stroke="#63b8ff" points="1180.26,-174.31 1171.84,-167.87 1174.4,-178.15 1180.26,-174.31"/>
</a>
</g>
</g>
<!-- Node22 -->
<g id="Node000022" class="node">
<title>Node22</title>
<g id="a_Node000022"><a xlink:href="fmt_8h.html" target="_top" xlink:title=" ">
<ellipse fill="white" stroke="#666666" cx="891.7" cy="-76.31" rx="84.29" ry="13.37"/>
<text text-anchor="middle" x="891.7" y="-73.81" font-family="Helvetica,sans-Serif" font-size="10.00">drake/common/fmt.h</text>
</a>
</g>
</g>
<!-- Node11&#45;&gt;Node22 -->
<g id="edge40_Node000011_Node000022" class="edge">
<title>Node11&#45;&gt;Node22</title>
<g id="a_edge40_Node000011_Node000022"><a xlink:title=" ">
<path fill="none" stroke="#63b8ff" d="M921.53,-439.45C938.34,-419.37 965.01,-387.81 988.7,-361.02 1020.04,-325.57 1024.06,-312.53 1060.7,-282.59 1137.03,-220.22 1202.2,-253.99 1250.7,-168.17 1259.98,-151.75 1263.11,-139.94 1250.7,-125.74 1217,-87.19 1080.95,-78.09 986.37,-76.56"/>
<polygon fill="#63b8ff" stroke="#63b8ff" points="986.25,-73.06 976.21,-76.43 986.16,-80.06 986.25,-73.06"/>
</a>
</g>
</g>
<!-- Node24 -->
<g id="Node000024" class="node">
<title>Node24</title>
<g id="a_Node000024"><a xlink:href="partials_8h.html" target="_top" xlink:title=" ">
<ellipse fill="white" stroke="#666666" cx="576.7" cy="-382.23" rx="102.56" ry="21.43"/>
<text text-anchor="start" x="512.2" y="-385.23" font-family="Helvetica,sans-Serif" font-size="10.00">drake/common/ad/internal</text>
<text text-anchor="middle" x="576.7" y="-374.23" font-family="Helvetica,sans-Serif" font-size="10.00">/partials.h</text>
</a>
</g>
</g>
<!-- Node11&#45;&gt;Node24 -->
<g id="edge34_Node000011_Node000024" class="edge">
<title>Node11&#45;&gt;Node24</title>
<g id="a_edge34_Node000011_Node000024"><a xlink:title=" ">
<path fill="none" stroke="#63b8ff" d="M842.23,-445.1C788.2,-432.51 709.93,-414.28 652.36,-400.86"/>
<polygon fill="#63b8ff" stroke="#63b8ff" points="653.12,-397.45 642.59,-398.59 651.53,-404.26 653.12,-397.45"/>
</a>
</g>
</g>
<!-- Node25 -->
<g id="Node000025" class="node">
<title>Node25</title>
<g id="a_Node000025"><a xlink:href="standard__operations_8h.html" target="_top" xlink:title=" ">
<ellipse fill="white" stroke="#666666" cx="1362.7" cy="-382.23" rx="102.56" ry="21.43"/>
<text text-anchor="start" x="1298.2" y="-385.23" font-family="Helvetica,sans-Serif" font-size="10.00">drake/common/ad/internal</text>
<text text-anchor="middle" x="1362.7" y="-374.23" font-family="Helvetica,sans-Serif" font-size="10.00">/standard_operations.h</text>
</a>
</g>
</g>
<!-- Node11&#45;&gt;Node25 -->
<g id="edge41_Node000011_Node000025" class="edge">
<title>Node11&#45;&gt;Node25</title>
<g id="a_edge41_Node000011_Node000025"><a xlink:title=" ">
<path fill="none" stroke="#63b8ff" d="M977.56,-447.81C1046.63,-436.55 1153.26,-419.05 1245.7,-403.45 1255.71,-401.76 1266.2,-399.97 1276.62,-398.18"/>
<polygon fill="#63b8ff" stroke="#63b8ff" points="1277.3,-401.62 1286.56,-396.47 1276.11,-394.72 1277.3,-401.62"/>
</a>
</g>
</g>
<!-- Node27 -->
<g id="Node000027" class="node">
<title>Node27</title>
<g id="a_Node000027"><a xlink:href="eigen__specializations_8h.html" target="_top" xlink:title=" ">
<ellipse fill="white" stroke="#666666" cx="1100.7" cy="-382.23" rx="102.56" ry="21.43"/>
<text text-anchor="start" x="1036.2" y="-385.23" font-family="Helvetica,sans-Serif" font-size="10.00">drake/common/ad/internal</text>
<text text-anchor="middle" x="1100.7" y="-374.23" font-family="Helvetica,sans-Serif" font-size="10.00">/eigen_specializations.h</text>
</a>
</g>
</g>
<!-- Node11&#45;&gt;Node27 -->
<g id="edge44_Node000011_Node000027" class="edge">
<title>Node11&#45;&gt;Node27</title>
<g id="a_edge44_Node000011_Node000027"><a xlink:title=" ">
<path fill="none" stroke="#63b8ff" d="M949.66,-442.13C978.02,-431.07 1014.84,-416.71 1045.03,-404.94"/>
<polygon fill="#63b8ff" stroke="#63b8ff" points="1046.54,-408.11 1054.58,-401.22 1043.99,-401.59 1046.54,-408.11"/>
</a>
</g>
</g>
<!-- Node29 -->
<g id="Node000029" class="node">
<title>Node29</title>
<g id="a_Node000029"><a xlink:href="drake__operations_8h.html" target="_top" xlink:title=" ">
<ellipse fill="white" stroke="#666666" cx="838.7" cy="-382.23" rx="102.56" ry="21.43"/>
<text text-anchor="start" x="774.2" y="-385.23" font-family="Helvetica,sans-Serif" font-size="10.00">drake/common/ad/internal</text>
<text text-anchor="middle" x="838.7" y="-374.23" font-family="Helvetica,sans-Serif" font-size="10.00">/drake_operations.h</text>
</a>
</g>
</g>
<!-- Node11&#45;&gt;Node29 -->
<g id="edge47_Node000011_Node000029" class="edge">
<title>Node11&#45;&gt;Node29</title>
<g id="a_edge47_Node000011_Node000029"><a xlink:title=" ">
<path fill="none" stroke="#63b8ff" d="M887.36,-439.58C879.78,-430.8 870.77,-420.37 862.57,-410.87"/>
<polygon fill="#63b8ff" stroke="#63b8ff" points="865.11,-408.46 855.92,-403.18 859.81,-413.03 865.11,-408.46"/>
</a>
</g>
</g>
<!-- Node13 -->
<g id="Node000013" class="node">
<title>Node13</title>
<g id="a_Node000013"><a xlink:title=" ">
<ellipse fill="#e0e0e0" stroke="#999999" cx="327.7" cy="-13.44" rx="48.58" ry="13.37"/>
<text text-anchor="middle" x="327.7" y="-10.94" font-family="Helvetica,sans-Serif" font-size="10.00">type_traits</text>
</a>
</g>
</g>
<!-- Node12&#45;&gt;Node13 -->
<g id="edge12_Node000012_Node000013" class="edge">
<title>Node12&#45;&gt;Node13</title>
<g id="a_edge12_Node000012_Node000013"><a xlink:title=" ">
<path fill="none" stroke="#63b8ff" d="M493.79,-284.54C448.53,-263.6 380.67,-224.7 346.7,-168.17 322.04,-127.13 322.49,-68.83 325.05,-37.12"/>
<polygon fill="#63b8ff" stroke="#63b8ff" points="328.54,-37.37 326.01,-27.08 321.57,-36.71 328.54,-37.37"/>
</a>
</g>
</g>
<!-- Node12&#45;&gt;Node14 -->
<g id="edge13_Node000012_Node000014" class="edge">
<title>Node12&#45;&gt;Node14</title>
<g id="a_edge13_Node000012_Node000014"><a xlink:title=" ">
<path fill="none" stroke="#63b8ff" d="M571.76,-283.52C589.08,-273.41 610.46,-260.94 628.82,-250.23"/>
<polygon fill="#63b8ff" stroke="#63b8ff" points="630.68,-253.19 637.56,-245.13 627.16,-247.15 630.68,-253.19"/>
</a>
</g>
</g>
<!-- Node14&#45;&gt;Node6 -->
<g id="edge15_Node000014_Node000006" class="edge">
<title>Node14&#45;&gt;Node6</title>
<g id="a_edge15_Node000014_Node000006"><a xlink:title=" ">
<path fill="none" stroke="#63b8ff" d="M733.06,-211.26C756.54,-203 780.81,-189.65 794.7,-168.17 804.94,-152.33 807.41,-139.67 794.7,-125.74 762.2,-90.12 428.66,-80.35 309.63,-77.99"/>
<polygon fill="#63b8ff" stroke="#63b8ff" points="309.51,-74.48 299.45,-77.79 309.38,-81.48 309.51,-74.48"/>
</a>
</g>
</g>
<!-- Node14&#45;&gt;Node7 -->
<g id="edge16_Node000014_Node000007" class="edge">
<title>Node14&#45;&gt;Node7</title>
<g id="a_edge16_Node000014_Node000007"><a xlink:title=" ">
<path fill="none" stroke="#63b8ff" d="M615.09,-209.14C575.71,-198.04 521.32,-182.51 473.7,-168.17 466.17,-165.9 458.16,-163.42 450.45,-161"/>
<polygon fill="#63b8ff" stroke="#63b8ff" points="451.49,-157.66 440.9,-157.99 449.38,-164.34 451.49,-157.66"/>
</a>
</g>
</g>
<!-- Node15 -->
<g id="Node000015" class="node">
<title>Node15</title>
<g id="a_Node000015"><a xlink:title=" ">
<ellipse fill="#e0e0e0" stroke="#999999" cx="519.7" cy="-146.95" rx="37.45" ry="13.37"/>
<text text-anchor="middle" x="519.7" y="-144.45" font-family="Helvetica,sans-Serif" font-size="10.00">iterator</text>
</a>
</g>
</g>
<!-- Node14&#45;&gt;Node15 -->
<g id="edge14_Node000014_Node000015" class="edge">
<title>Node14&#45;&gt;Node15</title>
<g id="a_edge14_Node000014_Node000015"><a xlink:title=" ">
<path fill="none" stroke="#63b8ff" d="M633.77,-206.07C607.91,-192.9 573.45,-175.34 549.19,-162.98"/>
<polygon fill="#63b8ff" stroke="#63b8ff" points="550.62,-159.78 540.12,-158.36 547.44,-166.02 550.62,-159.78"/>
</a>
</g>
</g>
<!-- Node16 -->
<g id="Node000016" class="node">
<title>Node16</title>
<g id="a_Node000016"><a xlink:href="constants_8h.html" target="_top" xlink:title=" ">
<ellipse fill="white" stroke="#666666" cx="680.7" cy="-146.95" rx="105.22" ry="13.37"/>
<text text-anchor="middle" x="680.7" y="-144.45" font-family="Helvetica,sans-Serif" font-size="10.00">drake/common/constants.h</text>
</a>
</g>
</g>
<!-- Node14&#45;&gt;Node16 -->
<g id="edge17_Node000014_Node000016" class="edge">
<title>Node14&#45;&gt;Node16</title>
<g id="a_edge17_Node000014_Node000016"><a xlink:title=" ">
<path fill="none" stroke="#63b8ff" d="M672.65,-203.9C674.12,-193.66 675.91,-181.24 677.42,-170.7"/>
<polygon fill="#63b8ff" stroke="#63b8ff" points="680.92,-170.98 678.88,-160.58 673.99,-169.98 680.92,-170.98"/>
</a>
</g>
</g>
<!-- Node14&#45;&gt;Node17 -->
<g id="edge18_Node000014_Node000017" class="edge">
<title>Node14&#45;&gt;Node17</title>
<g id="a_edge18_Node000014_Node000017"><a xlink:title=" ">
<path fill="none" stroke="#63b8ff" d="M599.73,-213.51C509.5,-199.49 352.92,-175.17 257.95,-160.42"/>
<polygon fill="#63b8ff" stroke="#63b8ff" points="258.24,-156.92 247.82,-158.85 257.17,-163.84 258.24,-156.92"/>
</a>
</g>
</g>
<!-- Node14&#45;&gt;Node19 -->
<g id="edge24_Node000014_Node000019" class="edge">
<title>Node14&#45;&gt;Node19</title>
<g id="a_edge24_Node000014_Node000019"><a xlink:title=" ">
<path fill="none" stroke="#63b8ff" d="M744.21,-215.42C823.82,-205.46 953.57,-188.12 1064.7,-168.17 1072.05,-166.85 1079.7,-165.36 1087.32,-163.81"/>
<polygon fill="#63b8ff" stroke="#63b8ff" points="1088.21,-167.2 1097.29,-161.75 1086.79,-160.35 1088.21,-167.2"/>
</a>
</g>
</g>
<!-- Node20 -->
<g id="Node000020" class="node">
<title>Node20</title>
<g id="a_Node000020"><a xlink:href="fmt__eigen_8h.html" target="_top" xlink:title=" ">
<ellipse fill="white" stroke="#666666" cx="948.7" cy="-146.95" rx="106.55" ry="13.37"/>
<text text-anchor="middle" x="948.7" y="-144.45" font-family="Helvetica,sans-Serif" font-size="10.00">drake/common/fmt_eigen.h</text>
</a>
</g>
</g>
<!-- Node14&#45;&gt;Node20 -->
<g id="edge25_Node000014_Node000020" class="edge">
<title>Node14&#45;&gt;Node20</title>
<g id="a_edge25_Node000014_Node000020"><a xlink:title=" ">
<path fill="none" stroke="#63b8ff" d="M724.82,-209.28C774.89,-195.57 848.19,-175.49 897.12,-162.08"/>
<polygon fill="#63b8ff" stroke="#63b8ff" points="898.15,-165.43 906.87,-159.41 896.3,-158.68 898.15,-165.43"/>
</a>
</g>
</g>
<!-- Node17&#45;&gt;Node2 -->
<g id="edge19_Node000017_Node000002" class="edge">
<title>Node17&#45;&gt;Node2</title>
<g id="a_edge19_Node000017_Node000002"><a xlink:title=" ">
<path fill="none" stroke="#63b8ff" d="M138.81,-127.92C113.63,-116.24 81.39,-101.28 58.5,-90.67"/>
<polygon fill="#63b8ff" stroke="#63b8ff" points="59.86,-87.44 49.31,-86.4 56.91,-93.79 59.86,-87.44"/>
</a>
</g>
</g>
<!-- Node17&#45;&gt;Node5 -->
<g id="edge21_Node000017_Node000005" class="edge">
<title>Node17&#45;&gt;Node5</title>
<g id="a_edge21_Node000017_Node000005"><a xlink:title=" ">
<path fill="none" stroke="#63b8ff" d="M158.32,-126.1C149.14,-116.69 138.23,-105.51 129.17,-96.23"/>
<polygon fill="#63b8ff" stroke="#63b8ff" points="131.56,-93.67 122.07,-88.96 126.55,-98.56 131.56,-93.67"/>
</a>
</g>
</g>
<!-- Node17&#45;&gt;Node6 -->
<g id="edge23_Node000017_Node000006" class="edge">
<title>Node17&#45;&gt;Node6</title>
<g id="a_edge23_Node000017_Node000006"><a xlink:title=" ">
<path fill="none" stroke="#63b8ff" d="M203.25,-126.47C216.42,-116.42 232.35,-104.27 245.08,-94.56"/>
<polygon fill="#63b8ff" stroke="#63b8ff" points="247.47,-97.13 253.3,-88.29 243.23,-91.57 247.47,-97.13"/>
</a>
</g>
</g>
<!-- Node17&#45;&gt;Node13 -->
<g id="edge22_Node000017_Node000013" class="edge">
<title>Node17&#45;&gt;Node13</title>
<g id="a_edge22_Node000017_Node000013"><a xlink:title=" ">
<path fill="none" stroke="#63b8ff" d="M176.3,-125.44C176.16,-106.99 178.91,-80.18 193.7,-62.87 213.59,-39.59 245.58,-27.5 273.32,-21.22"/>
<polygon fill="#63b8ff" stroke="#63b8ff" points="274.22,-24.6 283.31,-19.16 272.81,-17.75 274.22,-24.6"/>
</a>
</g>
</g>
<!-- Node18 -->
<g id="Node000018" class="node">
<title>Node18</title>
<g id="a_Node000018"><a xlink:title=" ">
<ellipse fill="#e0e0e0" stroke="#999999" cx="775.7" cy="-13.44" rx="31.23" ry="13.37"/>
<text text-anchor="middle" x="775.7" y="-10.94" font-family="Helvetica,sans-Serif" font-size="10.00">string</text>
</a>
</g>
</g>
<!-- Node17&#45;&gt;Node18 -->
<g id="edge20_Node000017_Node000018" class="edge">
<title>Node17&#45;&gt;Node18</title>
<g id="a_edge20_Node000017_Node000018"><a xlink:title=" ">
<path fill="none" stroke="#63b8ff" d="M183.64,-125.7C190.56,-106.05 204.04,-77.17 226.7,-62.87 269.36,-35.95 614.28,-20.51 734.53,-15.91"/>
<polygon fill="#63b8ff" stroke="#63b8ff" points="734.93,-19.4 744.79,-15.52 734.67,-12.4 734.93,-19.4"/>
</a>
</g>
</g>
<!-- Node20&#45;&gt;Node10 -->
<g id="edge28_Node000020_Node000010" class="edge">
<title>Node20&#45;&gt;Node10</title>
<g id="a_edge28_Node000020_Node000010"><a xlink:title=" ">
<path fill="none" stroke="#63b8ff" d="M1004.01,-135.38C1073.74,-122.04 1192.51,-99.33 1258.98,-86.62"/>
<polygon fill="#63b8ff" stroke="#63b8ff" points="1260.02,-89.99 1269.18,-84.67 1258.7,-83.11 1260.02,-89.99"/>
</a>
</g>
</g>
<!-- Node20&#45;&gt;Node18 -->
<g id="edge26_Node000020_Node000018" class="edge">
<title>Node20&#45;&gt;Node18</title>
<g id="a_edge26_Node000020_Node000018"><a xlink:title=" ">
<path fill="none" stroke="#63b8ff" d="M886.78,-136C856.51,-128.16 821.74,-114.26 798.7,-89.74 785.39,-75.58 779.77,-53.91 777.4,-37.45"/>
<polygon fill="#63b8ff" stroke="#63b8ff" points="780.83,-36.59 776.23,-27.05 773.87,-37.37 780.83,-36.59"/>
</a>
</g>
</g>
<!-- Node21 -->
<g id="Node000021" class="node">
<title>Node21</title>
<g id="a_Node000021"><a xlink:title=" ">
<ellipse fill="#e0e0e0" stroke="#999999" cx="1005.7" cy="-13.44" rx="51.74" ry="13.37"/>
<text text-anchor="middle" x="1005.7" y="-10.94" font-family="Helvetica,sans-Serif" font-size="10.00">string_view</text>
</a>
</g>
</g>
<!-- Node20&#45;&gt;Node21 -->
<g id="edge27_Node000020_Node000021" class="edge">
<title>Node20&#45;&gt;Node21</title>
<g id="a_edge27_Node000020_Node000021"><a xlink:title=" ">
<path fill="none" stroke="#63b8ff" d="M958.45,-133.18C966.46,-122.18 977.6,-105.61 984.7,-89.74 992.28,-72.79 997.76,-52.45 1001.21,-37.19"/>
<polygon fill="#63b8ff" stroke="#63b8ff" points="1004.7,-37.6 1003.37,-27.09 997.86,-36.14 1004.7,-37.6"/>
</a>
</g>
</g>
<!-- Node20&#45;&gt;Node22 -->
<g id="edge29_Node000020_Node000022" class="edge">
<title>Node20&#45;&gt;Node22</title>
<g id="a_edge29_Node000020_Node000022"><a xlink:title=" ">
<path fill="none" stroke="#63b8ff" d="M938.24,-133.36C929.97,-123.4 918.24,-109.27 908.63,-97.7"/>
<polygon fill="#63b8ff" stroke="#63b8ff" points="911.17,-95.27 902.09,-89.82 905.78,-99.75 911.17,-95.27"/>
</a>
</g>
</g>
<!-- Node22&#45;&gt;Node13 -->
<g id="edge32_Node000022_Node000013" class="edge">
<title>Node22&#45;&gt;Node13</title>
<g id="a_edge32_Node000022_Node000013"><a xlink:title=" ">
<path fill="none" stroke="#63b8ff" d="M824.79,-68.08C711.94,-55.9 485.98,-31.52 382.15,-20.31"/>
<polygon fill="#63b8ff" stroke="#63b8ff" points="382.21,-16.8 371.9,-19.21 381.46,-23.76 382.21,-16.8"/>
</a>
</g>
</g>
<!-- Node22&#45;&gt;Node18 -->
<g id="edge30_Node000022_Node000018" class="edge">
<title>Node22&#45;&gt;Node18</title>
<g id="a_edge30_Node000022_Node000018"><a xlink:title=" ">
<path fill="none" stroke="#63b8ff" d="M868.78,-63.28C849.97,-53.41 823.28,-39.4 803.29,-28.91"/>
<polygon fill="#63b8ff" stroke="#63b8ff" points="804.84,-25.78 794.36,-24.23 801.59,-31.97 804.84,-25.78"/>
</a>
</g>
</g>
<!-- Node22&#45;&gt;Node21 -->
<g id="edge31_Node000022_Node000021" class="edge">
<title>Node22&#45;&gt;Node21</title>
<g id="a_edge31_Node000022_Node000021"><a xlink:title=" ">
<path fill="none" stroke="#63b8ff" d="M914.22,-63.28C931.73,-53.93 956.19,-40.87 975.42,-30.6"/>
<polygon fill="#63b8ff" stroke="#63b8ff" points="977.21,-33.62 984.38,-25.82 973.91,-27.44 977.21,-33.62"/>
</a>
</g>
</g>
<!-- Node23 -->
<g id="Node000023" class="node">
<title>Node23</title>
<g id="a_Node000023"><a xlink:title=" ">
<ellipse fill="#e0e0e0" stroke="#999999" cx="880.7" cy="-13.44" rx="55.72" ry="13.37"/>
<text text-anchor="middle" x="880.7" y="-10.94" font-family="Helvetica,sans-Serif" font-size="10.00">fmt/format.h</text>
</a>
</g>
</g>
<!-- Node22&#45;&gt;Node23 -->
<g id="edge33_Node000022_Node000023" class="edge">
<title>Node22&#45;&gt;Node23</title>
<g id="a_edge33_Node000022_Node000023"><a xlink:title=" ">
<path fill="none" stroke="#63b8ff" d="M889.42,-62.69C888.08,-55.27 886.34,-45.65 884.77,-36.96"/>
<polygon fill="#63b8ff" stroke="#63b8ff" points="888.2,-36.25 882.97,-27.03 881.31,-37.49 888.2,-36.25"/>
</a>
</g>
</g>
<!-- Node24&#45;&gt;Node12 -->
<g id="edge35_Node000024_Node000012" class="edge">
<title>Node24&#45;&gt;Node12</title>
<g id="a_edge35_Node000024_Node000012"><a xlink:title=" ">
<path fill="none" stroke="#63b8ff" d="M566.52,-360.75C562.48,-352.63 557.76,-343.14 553.37,-334.31"/>
<polygon fill="#63b8ff" stroke="#63b8ff" points="556.36,-332.47 548.78,-325.08 550.1,-335.59 556.36,-332.47"/>
</a>
</g>
</g>
<!-- Node24&#45;&gt;Node14 -->
<g id="edge37_Node000024_Node000014" class="edge">
<title>Node24&#45;&gt;Node14</title>
<g id="a_edge37_Node000024_Node000014"><a xlink:title=" ">
<path fill="none" stroke="#63b8ff" d="M611.93,-362.2C626.08,-352.82 641.25,-340.23 650.7,-325.02 663.39,-304.58 667.92,-277.53 669.4,-256.92"/>
<polygon fill="#63b8ff" stroke="#63b8ff" points="672.9,-256.97 669.92,-246.8 665.91,-256.61 672.9,-256.97"/>
</a>
</g>
</g>
<!-- Node24&#45;&gt;Node19 -->
<g id="edge36_Node000024_Node000019" class="edge">
<title>Node24&#45;&gt;Node19</title>
<g id="a_edge36_Node000024_Node000019"><a xlink:title=" ">
<path fill="none" stroke="#63b8ff" d="M621.81,-363.12C727.76,-320.58 992.1,-214.44 1105.11,-169.07"/>
<polygon fill="#63b8ff" stroke="#63b8ff" points="1106.62,-172.23 1114.6,-165.26 1104.02,-165.74 1106.62,-172.23"/>
</a>
</g>
</g>
<!-- Node25&#45;&gt;Node3 -->
<g id="edge42_Node000025_Node000003" class="edge">
<title>Node25&#45;&gt;Node3</title>
<g id="a_edge42_Node000025_Node000003"><a xlink:title=" ">
<path fill="none" stroke="#63b8ff" d="M1388.45,-361.55C1404.47,-349.31 1424.86,-333.72 1440.22,-321.98"/>
<polygon fill="#63b8ff" stroke="#63b8ff" points="1442.36,-324.76 1448.18,-315.9 1438.11,-319.2 1442.36,-324.76"/>
</a>
</g>
</g>
<!-- Node26 -->
<g id="Node000026" class="node">
<title>Node26</title>
<g id="a_Node000026"><a xlink:title=" ">
<ellipse fill="#e0e0e0" stroke="#999999" cx="1369.7" cy="-303.81" rx="33.88" ry="13.37"/>
<text text-anchor="middle" x="1369.7" y="-301.31" font-family="Helvetica,sans-Serif" font-size="10.00">iosfwd</text>
</a>
</g>
</g>
<!-- Node25&#45;&gt;Node26 -->
<g id="edge43_Node000025_Node000026" class="edge">
<title>Node25&#45;&gt;Node26</title>
<g id="a_edge43_Node000025_Node000026"><a xlink:title=" ">
<path fill="none" stroke="#63b8ff" d="M1364.57,-360.75C1365.51,-350.51 1366.65,-338.09 1367.61,-327.56"/>
<polygon fill="#63b8ff" stroke="#63b8ff" points="1371.12,-327.71 1368.54,-317.43 1364.14,-327.07 1371.12,-327.71"/>
</a>
</g>
</g>
<!-- Node27&#45;&gt;Node10 -->
<g id="edge46_Node000027_Node000010" class="edge">
<title>Node27&#45;&gt;Node10</title>
<g id="a_edge46_Node000027_Node000010"><a xlink:title=" ">
<path fill="none" stroke="#63b8ff" d="M1142.55,-362.69C1185.55,-341.28 1250.72,-301.78 1283.7,-246.59 1311.33,-200.35 1311.85,-134.59 1309.81,-100.23"/>
<polygon fill="#63b8ff" stroke="#63b8ff" points="1313.27,-99.57 1309.05,-89.85 1306.29,-100.08 1313.27,-99.57"/>
</a>
</g>
</g>
<!-- Node28 -->
<g id="Node000028" class="node">
<title>Node28</title>
<g id="a_Node000028"><a xlink:title=" ">
<ellipse fill="#e0e0e0" stroke="#999999" cx="1100.7" cy="-303.81" rx="31.23" ry="13.37"/>
<text text-anchor="middle" x="1100.7" y="-301.31" font-family="Helvetica,sans-Serif" font-size="10.00">limits</text>
</a>
</g>
</g>
<!-- Node27&#45;&gt;Node28 -->
<g id="edge45_Node000027_Node000028" class="edge">
<title>Node27&#45;&gt;Node28</title>
<g id="a_edge45_Node000027_Node000028"><a xlink:title=" ">
<path fill="none" stroke="#63b8ff" d="M1100.7,-360.75C1100.7,-350.51 1100.7,-338.09 1100.7,-327.56"/>
<polygon fill="#63b8ff" stroke="#63b8ff" points="1104.2,-327.43 1100.7,-317.43 1097.2,-327.43 1104.2,-327.43"/>
</a>
</g>
</g>
</g>
</svg>

<g id="navigator" transform="translate(0 0)" fill="#404254">
  <rect fill="#f2f5e9" fill-opacity="0.5" stroke="#606060" stroke-width=".5" x="0" y="0" width="60" height="60"/>
  <use id="zoomplus" xlink:href="#zoomPlus" x="17" y="9" onmousedown="handleZoom(evt,'in')"/>
  <use id="zoomminus" xlink:href="#zoomMin" x="42" y="9" onmousedown="handleZoom(evt,'out')"/>
  <use id="reset" xlink:href="#resetDef" x="30" y="36" onmousedown="handleReset()"/>
   <use id="arrowup" xlink:href="#arrowUp" x="0" y="0" onmousedown="handlePan(0,-1)"/>
  <use id="arrowright" xlink:href="#arrowRight" x="0" y="0" onmousedown="handlePan(1,0)"/>
  <use id="arrowdown" xlink:href="#arrowDown" x="0" y="0" onmousedown="handlePan(0,1)"/>
  <use id="arrowleft" xlink:href="#arrowLeft" x="0" y="0" onmousedown="handlePan(-1,0)"/>
</g>
<svg viewBox="0 0 15 15" width="100%" height="30px" preserveAspectRatio="xMaxYMin meet">
 <g id="arrow_out" transform="scale(0.3 0.3)">
  <a xlink:href="math_2autodiff_8h__incl_org.svg" target="_base">
   <rect id="button" ry="5" rx="5" y="6" x="6" height="38" width="38"
        fill="#f2f5e9" fill-opacity="0.5" stroke="#606060" stroke-width="1.0"/>
   <path id="arrow"
     d="M 11.500037,31.436501 C 11.940474,20.09759 22.043105,11.32322 32.158766,21.979434 L 37.068811,17.246167 C 37.068811,17.246167 37.088388,32 37.088388,32 L 22.160133,31.978069 C 22.160133,31.978069 26.997745,27.140456 26.997745,27.140456 C 18.528582,18.264221 13.291696,25.230495 11.500037,31.436501 z"
     style="fill:#404040;"/>
  </a>
 </g>
</svg>

<style type='text/css'>
<![CDATA[
[data-mouse-over-selected='false'] { opacity: 0.7; }
[data-mouse-over-selected='true']  { opacity: 1.0; }
]]>
</style>
<script type="application/ecmascript"><![CDATA[
document.addEventListener('DOMContentLoaded', (event) => {
  highlightEdges();
  highlightAdjacentNodes();
});
]]></script>
</svg>
