<?xml version="1.0" encoding="UTF-8" standalone="no"?>
<!DOCTYPE svg PUBLIC "-//W3C//DTD SVG 1.1//EN"
 "http://www.w3.org/Graphics/SVG/1.1/DTD/svg11.dtd">
<!-- Generated by graphviz version 2.40.1 (20161225.0304)
 -->
<!-- Title: drake/solvers/mathematical_program_result.h Pages: 1 -->
<svg width="2706pt" height="385pt"
 viewBox="0.00 0.00 2705.50 385.00" xmlns="http://www.w3.org/2000/svg" xmlns:xlink="http://www.w3.org/1999/xlink">
<g id="graph0" class="graph" transform="scale(1 1) rotate(0) translate(4 381)">
<title>drake/solvers/mathematical_program_result.h</title>
<polygon fill="#ffffff" stroke="transparent" points="-4,4 -4,-381 2701.5,-381 2701.5,4 -4,4"/>
<!-- Node100 -->
<g id="node1" class="node">
<title>Node100</title>
<g id="a_node1"><a xlink:title=" ">
<polygon fill="#bfbfbf" stroke="#000000" points="1978.5,-346.5 1978.5,-376.5 2132.5,-376.5 2132.5,-346.5 1978.5,-346.5"/>
<text text-anchor="start" x="1986.5" y="-364.5" font-family="Helvetica,sans-Serif" font-size="10.00" fill="#000000">drake/solvers/mathematical</text>
<text text-anchor="middle" x="2055.5" y="-353.5" font-family="Helvetica,sans-Serif" font-size="10.00" fill="#000000">_program_result.h</text>
</a>
</g>
</g>
<!-- Node101 -->
<g id="node2" class="node">
<title>Node101</title>
<g id="a_node2"><a xlink:href="solver__interface_8h.html" target="_top" xlink:title=" ">
<polygon fill="#ffffff" stroke="#000000" points="1478.5,-274 1478.5,-304 1594.5,-304 1594.5,-274 1478.5,-274"/>
<text text-anchor="start" x="1486.5" y="-292" font-family="Helvetica,sans-Serif" font-size="10.00" fill="#000000">drake/solvers/solver</text>
<text text-anchor="middle" x="1536.5" y="-281" font-family="Helvetica,sans-Serif" font-size="10.00" fill="#000000">_interface.h</text>
</a>
</g>
</g>
<!-- Node100&#45;&gt;Node101 -->
<g id="edge1" class="edge">
<title>Node100&#45;&gt;Node101</title>
<path fill="none" stroke="#191970" d="M1968.3097,-349.3202C1862.1288,-334.4876 1685.722,-309.8451 1594.7396,-297.1356"/>
<polygon fill="#191970" stroke="#191970" points="1967.9728,-352.8071 1978.3609,-350.7243 1968.9413,-345.8744 1967.9728,-352.8071"/>
</g>
<!-- Node114 -->
<g id="node15" class="node">
<title>Node114</title>
<g id="a_node15"><a xlink:href="mosek__solver_8h.html" target="_top" xlink:title=" ">
<polygon fill="#ffffff" stroke="#000000" points="1873,-134.5 1873,-164.5 1992,-164.5 1992,-134.5 1873,-134.5"/>
<text text-anchor="start" x="1881" y="-152.5" font-family="Helvetica,sans-Serif" font-size="10.00" fill="#000000">drake/solvers/mosek</text>
<text text-anchor="middle" x="1932.5" y="-141.5" font-family="Helvetica,sans-Serif" font-size="10.00" fill="#000000">_solver.h</text>
</a>
</g>
</g>
<!-- Node100&#45;&gt;Node114 -->
<g id="edge25" class="edge">
<title>Node100&#45;&gt;Node114</title>
<path fill="none" stroke="#191970" d="M1968.4452,-355.7401C1902.2447,-349.3318 1818.989,-336.2024 1797.5,-310 1753.2839,-256.0856 1850.7618,-193.0205 1902.6883,-164.6642"/>
<polygon fill="#191970" stroke="#191970" points="1968.2136,-359.2335 1978.4948,-356.6747 1968.8619,-352.2636 1968.2136,-359.2335"/>
</g>
<!-- Node121 -->
<g id="node22" class="node">
<title>Node121</title>
<g id="a_node22"><a xlink:href="global__inverse__kinematics_8h.html" target="_top" xlink:title=" ">
<polygon fill="#ffffff" stroke="#000000" points="1806.5,-268.5 1806.5,-309.5 1956.5,-309.5 1956.5,-268.5 1806.5,-268.5"/>
<text text-anchor="start" x="1814.5" y="-297.5" font-family="Helvetica,sans-Serif" font-size="10.00" fill="#000000">drake/multibody/inverse</text>
<text text-anchor="start" x="1814.5" y="-286.5" font-family="Helvetica,sans-Serif" font-size="10.00" fill="#000000">_kinematics/global_inverse</text>
<text text-anchor="middle" x="1881.5" y="-275.5" font-family="Helvetica,sans-Serif" font-size="10.00" fill="#000000">_kinematics.h</text>
</a>
</g>
</g>
<!-- Node100&#45;&gt;Node121 -->
<g id="edge22" class="edge">
<title>Node100&#45;&gt;Node121</title>
<path fill="none" stroke="#191970" d="M2010.0668,-342.5695C1985.6931,-332.4138 1955.6293,-319.8872 1930.7036,-309.5015"/>
<polygon fill="#191970" stroke="#191970" points="2008.8701,-345.8625 2019.4471,-346.478 2011.5625,-339.401 2008.8701,-345.8625"/>
</g>
<!-- Node122 -->
<g id="node23" class="node">
<title>Node122</title>
<g id="a_node23"><a xlink:href="static__equilibrium__problem_8h.html" target="_top" xlink:title=" ">
<polygon fill="#ffffff" stroke="#000000" points="1974.5,-274 1974.5,-304 2136.5,-304 2136.5,-274 1974.5,-274"/>
<text text-anchor="start" x="1982.5" y="-292" font-family="Helvetica,sans-Serif" font-size="10.00" fill="#000000">drake/multibody/optimization</text>
<text text-anchor="middle" x="2055.5" y="-281" font-family="Helvetica,sans-Serif" font-size="10.00" fill="#000000">/static_equilibrium_problem.h</text>
</a>
</g>
</g>
<!-- Node100&#45;&gt;Node122 -->
<g id="edge23" class="edge">
<title>Node100&#45;&gt;Node122</title>
<path fill="none" stroke="#191970" d="M2055.5,-336.3409C2055.5,-325.5601 2055.5,-313.3309 2055.5,-304.0028"/>
<polygon fill="#191970" stroke="#191970" points="2052.0001,-336.4779 2055.5,-346.478 2059.0001,-336.478 2052.0001,-336.4779"/>
</g>
<!-- Node123 -->
<g id="node24" class="node">
<title>Node123</title>
<g id="a_node24"><a xlink:href="branch__and__bound_8h.html" target="_top" xlink:title=" ">
<polygon fill="#ffffff" stroke="#000000" points="2155,-274 2155,-304 2274,-304 2274,-274 2155,-274"/>
<text text-anchor="start" x="2163" y="-292" font-family="Helvetica,sans-Serif" font-size="10.00" fill="#000000">drake/solvers/branch</text>
<text text-anchor="middle" x="2214.5" y="-281" font-family="Helvetica,sans-Serif" font-size="10.00" fill="#000000">_and_bound.h</text>
</a>
</g>
</g>
<!-- Node100&#45;&gt;Node123 -->
<g id="edge24" class="edge">
<title>Node100&#45;&gt;Node123</title>
<path fill="none" stroke="#191970" d="M2097.7748,-342.2237C2124.0389,-330.248 2157.304,-315.0799 2181.5973,-304.0028"/>
<polygon fill="#191970" stroke="#191970" points="2096.0916,-339.1445 2088.4449,-346.478 2098.9958,-345.5137 2096.0916,-339.1445"/>
</g>
<!-- Node124 -->
<g id="node25" class="node">
<title>Node124</title>
<g id="a_node25"><a xlink:href="solve_8h.html" target="_top" xlink:title=" ">
<polygon fill="#ffffff" stroke="#000000" points="2292,-279.5 2292,-298.5 2413,-298.5 2413,-279.5 2292,-279.5"/>
<text text-anchor="middle" x="2352.5" y="-286.5" font-family="Helvetica,sans-Serif" font-size="10.00" fill="#000000">drake/solvers/solve.h</text>
</a>
</g>
</g>
<!-- Node100&#45;&gt;Node124 -->
<g id="edge26" class="edge">
<title>Node100&#45;&gt;Node124</title>
<path fill="none" stroke="#191970" d="M2137.5409,-344.3051C2180.8297,-334.8751 2234.7315,-322.5682 2282.5,-310 2295.6292,-306.5456 2310.012,-302.3102 2322.3069,-298.5502"/>
<polygon fill="#191970" stroke="#191970" points="2136.6572,-340.9153 2127.6261,-346.4551 2138.1408,-347.7563 2136.6572,-340.9153"/>
</g>
<!-- Node125 -->
<g id="node26" class="node">
<title>Node125</title>
<g id="a_node26"><a xlink:href="multiple__shooting_8h.html" target="_top" xlink:title=" ">
<polygon fill="#ffffff" stroke="#000000" points="2431,-268.5 2431,-309.5 2570,-309.5 2570,-268.5 2431,-268.5"/>
<text text-anchor="start" x="2439" y="-297.5" font-family="Helvetica,sans-Serif" font-size="10.00" fill="#000000">drake/systems/trajectory</text>
<text text-anchor="start" x="2439" y="-286.5" font-family="Helvetica,sans-Serif" font-size="10.00" fill="#000000">_optimization/multiple</text>
<text text-anchor="middle" x="2500.5" y="-275.5" font-family="Helvetica,sans-Serif" font-size="10.00" fill="#000000">_shooting.h</text>
</a>
</g>
</g>
<!-- Node100&#45;&gt;Node125 -->
<g id="edge27" class="edge">
<title>Node100&#45;&gt;Node125</title>
<path fill="none" stroke="#191970" d="M2142.8862,-352.3165C2217.5693,-343.7349 2327.6698,-329.3421 2422.5,-310 2425.2482,-309.4395 2428.0431,-308.8383 2430.8605,-308.2064"/>
<polygon fill="#191970" stroke="#191970" points="2142.1283,-348.8801 2132.5884,-353.4888 2142.9201,-355.8352 2142.1283,-348.8801"/>
</g>
<!-- Node102 -->
<g id="node3" class="node">
<title>Node102</title>
<g id="a_node3"><a xlink:href="solver__base_8h.html" target="_top" xlink:title=" ">
<polygon fill="#ffffff" stroke="#000000" points="1035.5,-201.5 1035.5,-231.5 1151.5,-231.5 1151.5,-201.5 1035.5,-201.5"/>
<text text-anchor="start" x="1043.5" y="-219.5" font-family="Helvetica,sans-Serif" font-size="10.00" fill="#000000">drake/solvers/solver</text>
<text text-anchor="middle" x="1093.5" y="-208.5" font-family="Helvetica,sans-Serif" font-size="10.00" fill="#000000">_base.h</text>
</a>
</g>
</g>
<!-- Node101&#45;&gt;Node102 -->
<g id="edge2" class="edge">
<title>Node101&#45;&gt;Node102</title>
<path fill="none" stroke="#191970" d="M1468.121,-277.8093C1381.3611,-263.6105 1233.225,-239.367 1151.647,-226.0162"/>
<polygon fill="#191970" stroke="#191970" points="1467.6959,-281.2862 1478.1299,-279.4473 1468.8265,-274.3781 1467.6959,-281.2862"/>
</g>
<!-- Node120 -->
<g id="node21" class="node">
<title>Node120</title>
<g id="a_node21"><a xlink:href="choose__best__solver_8h.html" target="_top" xlink:title=" ">
<polygon fill="#ffffff" stroke="#000000" points="1476.5,-201.5 1476.5,-231.5 1596.5,-231.5 1596.5,-201.5 1476.5,-201.5"/>
<text text-anchor="start" x="1484.5" y="-219.5" font-family="Helvetica,sans-Serif" font-size="10.00" fill="#000000">drake/solvers/choose</text>
<text text-anchor="middle" x="1536.5" y="-208.5" font-family="Helvetica,sans-Serif" font-size="10.00" fill="#000000">_best_solver.h</text>
</a>
</g>
</g>
<!-- Node101&#45;&gt;Node120 -->
<g id="edge21" class="edge">
<title>Node101&#45;&gt;Node120</title>
<path fill="none" stroke="#191970" d="M1536.5,-263.8409C1536.5,-253.0601 1536.5,-240.8309 1536.5,-231.5028"/>
<polygon fill="#191970" stroke="#191970" points="1533.0001,-263.9779 1536.5,-273.978 1540.0001,-263.978 1533.0001,-263.9779"/>
</g>
<!-- Node103 -->
<g id="node4" class="node">
<title>Node103</title>
<g id="a_node4"><a xlink:href="moby__lcp__solver_8h.html" target="_top" xlink:title=" ">
<polygon fill="#ffffff" stroke="#000000" points="69,-134.5 69,-164.5 182,-164.5 182,-134.5 69,-134.5"/>
<text text-anchor="start" x="77" y="-152.5" font-family="Helvetica,sans-Serif" font-size="10.00" fill="#000000">drake/solvers/moby</text>
<text text-anchor="middle" x="125.5" y="-141.5" font-family="Helvetica,sans-Serif" font-size="10.00" fill="#000000">_lcp_solver.h</text>
</a>
</g>
</g>
<!-- Node102&#45;&gt;Node103 -->
<g id="edge3" class="edge">
<title>Node102&#45;&gt;Node103</title>
<path fill="none" stroke="#191970" d="M1025.2688,-214.1413C843.831,-207.6233 352.3416,-188.2981 191.5,-165 188.4714,-164.5613 185.3772,-164.0518 182.2619,-163.4905"/>
<polygon fill="#191970" stroke="#191970" points="1025.3615,-217.6468 1035.4802,-214.5064 1025.6116,-210.6512 1025.3615,-217.6468"/>
</g>
<!-- Node106 -->
<g id="node7" class="node">
<title>Node106</title>
<g id="a_node7"><a xlink:href="clp__solver_8h.html" target="_top" xlink:title=" ">
<polygon fill="#ffffff" stroke="#000000" points="200.5,-140 200.5,-159 344.5,-159 344.5,-140 200.5,-140"/>
<text text-anchor="middle" x="272.5" y="-147" font-family="Helvetica,sans-Serif" font-size="10.00" fill="#000000">drake/solvers/clp_solver.h</text>
</a>
</g>
</g>
<!-- Node102&#45;&gt;Node106 -->
<g id="edge7" class="edge">
<title>Node102&#45;&gt;Node106</title>
<path fill="none" stroke="#191970" d="M1024.9473,-214.4677C893.9896,-209.9796 599.3843,-196.9656 353.5,-165 341.7155,-163.468 329.058,-161.3001 317.3323,-159.0696"/>
<polygon fill="#191970" stroke="#191970" points="1025.1103,-217.975 1035.2225,-214.8137 1025.346,-210.979 1025.1103,-217.975"/>
</g>
<!-- Node107 -->
<g id="node8" class="node">
<title>Node107</title>
<g id="a_node8"><a xlink:href="csdp__solver_8h.html" target="_top" xlink:title=" ">
<polygon fill="#ffffff" stroke="#000000" points="362.5,-134.5 362.5,-164.5 470.5,-164.5 470.5,-134.5 362.5,-134.5"/>
<text text-anchor="start" x="370.5" y="-152.5" font-family="Helvetica,sans-Serif" font-size="10.00" fill="#000000">drake/solvers/csdp</text>
<text text-anchor="middle" x="416.5" y="-141.5" font-family="Helvetica,sans-Serif" font-size="10.00" fill="#000000">_solver.h</text>
</a>
</g>
</g>
<!-- Node102&#45;&gt;Node107 -->
<g id="edge8" class="edge">
<title>Node102&#45;&gt;Node107</title>
<path fill="none" stroke="#191970" d="M1024.8235,-214.2687C910.8648,-209.7787 675.7891,-197.1728 479.5,-165 476.61,-164.5263 473.6572,-163.989 470.6842,-163.4058"/>
<polygon fill="#191970" stroke="#191970" points="1025.01,-217.7784 1035.1373,-214.6659 1025.2794,-210.7836 1025.01,-217.7784"/>
</g>
<!-- Node109 -->
<g id="node10" class="node">
<title>Node109</title>
<g id="a_node10"><a xlink:href="dreal__solver_8h.html" target="_top" xlink:title=" ">
<polygon fill="#ffffff" stroke="#000000" points="488.5,-134.5 488.5,-164.5 598.5,-164.5 598.5,-134.5 488.5,-134.5"/>
<text text-anchor="start" x="496.5" y="-152.5" font-family="Helvetica,sans-Serif" font-size="10.00" fill="#000000">drake/solvers/dreal</text>
<text text-anchor="middle" x="543.5" y="-141.5" font-family="Helvetica,sans-Serif" font-size="10.00" fill="#000000">_solver.h</text>
</a>
</g>
</g>
<!-- Node102&#45;&gt;Node109 -->
<g id="edge10" class="edge">
<title>Node102&#45;&gt;Node109</title>
<path fill="none" stroke="#191970" d="M1025.186,-212.1181C930.7748,-205.4139 755.3135,-190.6156 607.5,-165 604.5712,-164.4925 601.5772,-163.9281 598.5614,-163.3238"/>
<polygon fill="#191970" stroke="#191970" points="1024.9578,-215.6106 1035.1782,-212.8188 1025.4476,-208.6277 1024.9578,-215.6106"/>
</g>
<!-- Node110 -->
<g id="node11" class="node">
<title>Node110</title>
<g id="a_node11"><a xlink:href="equality__constrained__qp__solver_8h.html" target="_top" xlink:title=" ">
<polygon fill="#ffffff" stroke="#000000" points="616.5,-134.5 616.5,-164.5 756.5,-164.5 756.5,-134.5 616.5,-134.5"/>
<text text-anchor="start" x="624.5" y="-152.5" font-family="Helvetica,sans-Serif" font-size="10.00" fill="#000000">drake/solvers/equality</text>
<text text-anchor="middle" x="686.5" y="-141.5" font-family="Helvetica,sans-Serif" font-size="10.00" fill="#000000">_constrained_qp_solver.h</text>
</a>
</g>
</g>
<!-- Node102&#45;&gt;Node110 -->
<g id="edge11" class="edge">
<title>Node102&#45;&gt;Node110</title>
<path fill="none" stroke="#191970" d="M1025.3974,-206.5782C958.9702,-196.7188 855.1277,-180.823 765.5,-165 762.6096,-164.4897 759.6618,-163.9589 756.6854,-163.4142"/>
<polygon fill="#191970" stroke="#191970" points="1024.9198,-210.0456 1035.3247,-208.0481 1025.9452,-203.1211 1024.9198,-210.0456"/>
</g>
<!-- Node111 -->
<g id="node12" class="node">
<title>Node111</title>
<g id="a_node12"><a xlink:href="gurobi__solver_8h.html" target="_top" xlink:title=" ">
<polygon fill="#ffffff" stroke="#000000" points="774.5,-134.5 774.5,-164.5 890.5,-164.5 890.5,-134.5 774.5,-134.5"/>
<text text-anchor="start" x="782.5" y="-152.5" font-family="Helvetica,sans-Serif" font-size="10.00" fill="#000000">drake/solvers/gurobi</text>
<text text-anchor="middle" x="832.5" y="-141.5" font-family="Helvetica,sans-Serif" font-size="10.00" fill="#000000">_solver.h</text>
</a>
</g>
</g>
<!-- Node102&#45;&gt;Node111 -->
<g id="edge12" class="edge">
<title>Node102&#45;&gt;Node111</title>
<path fill="none" stroke="#191970" d="M1025.4093,-199.0208C983.536,-188.2717 930.4499,-174.6442 890.5706,-164.407"/>
<polygon fill="#191970" stroke="#191970" points="1024.6951,-202.4509 1035.2514,-201.5473 1026.4357,-195.6707 1024.6951,-202.4509"/>
</g>
<!-- Node112 -->
<g id="node13" class="node">
<title>Node112</title>
<g id="a_node13"><a xlink:href="ipopt__solver_8h.html" target="_top" xlink:title=" ">
<polygon fill="#ffffff" stroke="#000000" points="908.5,-134.5 908.5,-164.5 1018.5,-164.5 1018.5,-134.5 908.5,-134.5"/>
<text text-anchor="start" x="916.5" y="-152.5" font-family="Helvetica,sans-Serif" font-size="10.00" fill="#000000">drake/solvers/ipopt</text>
<text text-anchor="middle" x="963.5" y="-141.5" font-family="Helvetica,sans-Serif" font-size="10.00" fill="#000000">_solver.h</text>
</a>
</g>
</g>
<!-- Node102&#45;&gt;Node112 -->
<g id="edge13" class="edge">
<title>Node102&#45;&gt;Node112</title>
<path fill="none" stroke="#191970" d="M1055.2262,-196.7743C1035.356,-186.5335 1011.4509,-174.2132 993.027,-164.7177"/>
<polygon fill="#191970" stroke="#191970" points="1053.8331,-199.9938 1064.3255,-201.4639 1057.04,-193.7715 1053.8331,-199.9938"/>
</g>
<!-- Node113 -->
<g id="node14" class="node">
<title>Node113</title>
<g id="a_node14"><a xlink:href="linear__system__solver_8h.html" target="_top" xlink:title=" ">
<polygon fill="#ffffff" stroke="#000000" points="1037,-134.5 1037,-164.5 1150,-164.5 1150,-134.5 1037,-134.5"/>
<text text-anchor="start" x="1045" y="-152.5" font-family="Helvetica,sans-Serif" font-size="10.00" fill="#000000">drake/solvers/linear</text>
<text text-anchor="middle" x="1093.5" y="-141.5" font-family="Helvetica,sans-Serif" font-size="10.00" fill="#000000">_system_solver.h</text>
</a>
</g>
</g>
<!-- Node102&#45;&gt;Node113 -->
<g id="edge14" class="edge">
<title>Node102&#45;&gt;Node113</title>
<path fill="none" stroke="#191970" d="M1093.5,-191.0249C1093.5,-182.128 1093.5,-172.4287 1093.5,-164.6432"/>
<polygon fill="#191970" stroke="#191970" points="1090.0001,-191.2966 1093.5,-201.2967 1097.0001,-191.2967 1090.0001,-191.2966"/>
</g>
<!-- Node102&#45;&gt;Node114 -->
<g id="edge15" class="edge">
<title>Node102&#45;&gt;Node114</title>
<path fill="none" stroke="#191970" d="M1162.0259,-213.2755C1324.4072,-205.4148 1729.0505,-184.4787 1863.5,-165 1866.5377,-164.5599 1869.6402,-164.0579 1872.7657,-163.5104"/>
<polygon fill="#191970" stroke="#191970" points="1161.5057,-209.7964 1151.686,-213.7742 1161.843,-216.7883 1161.5057,-209.7964"/>
</g>
<!-- Node115 -->
<g id="node16" class="node">
<title>Node115</title>
<g id="a_node16"><a xlink:href="nlopt__solver_8h.html" target="_top" xlink:title=" ">
<polygon fill="#ffffff" stroke="#000000" points="1168.5,-134.5 1168.5,-164.5 1278.5,-164.5 1278.5,-134.5 1168.5,-134.5"/>
<text text-anchor="start" x="1176.5" y="-152.5" font-family="Helvetica,sans-Serif" font-size="10.00" fill="#000000">drake/solvers/nlopt</text>
<text text-anchor="middle" x="1223.5" y="-141.5" font-family="Helvetica,sans-Serif" font-size="10.00" fill="#000000">_solver.h</text>
</a>
</g>
</g>
<!-- Node102&#45;&gt;Node115 -->
<g id="edge16" class="edge">
<title>Node102&#45;&gt;Node115</title>
<path fill="none" stroke="#191970" d="M1131.7738,-196.7743C1151.644,-186.5335 1175.5491,-174.2132 1193.973,-164.7177"/>
<polygon fill="#191970" stroke="#191970" points="1129.96,-193.7715 1122.6745,-201.4639 1133.1669,-199.9938 1129.96,-193.7715"/>
</g>
<!-- Node116 -->
<g id="node17" class="node">
<title>Node116</title>
<g id="a_node17"><a xlink:href="osqp__solver_8h.html" target="_top" xlink:title=" ">
<polygon fill="#ffffff" stroke="#000000" points="1297,-134.5 1297,-164.5 1406,-164.5 1406,-134.5 1297,-134.5"/>
<text text-anchor="start" x="1305" y="-152.5" font-family="Helvetica,sans-Serif" font-size="10.00" fill="#000000">drake/solvers/osqp</text>
<text text-anchor="middle" x="1351.5" y="-141.5" font-family="Helvetica,sans-Serif" font-size="10.00" fill="#000000">_solver.h</text>
</a>
</g>
</g>
<!-- Node102&#45;&gt;Node116 -->
<g id="edge17" class="edge">
<title>Node102&#45;&gt;Node116</title>
<path fill="none" stroke="#191970" d="M1161.339,-198.8829C1203.633,-187.8996 1257.3396,-173.9525 1296.8822,-163.6837"/>
<polygon fill="#191970" stroke="#191970" points="1160.1994,-195.5627 1151.4002,-201.4639 1161.959,-202.3379 1160.1994,-195.5627"/>
</g>
<!-- Node117 -->
<g id="node18" class="node">
<title>Node117</title>
<g id="a_node18"><a xlink:href="scs__solver_8h.html" target="_top" xlink:title=" ">
<polygon fill="#ffffff" stroke="#000000" points="1424.5,-140 1424.5,-159 1570.5,-159 1570.5,-140 1424.5,-140"/>
<text text-anchor="middle" x="1497.5" y="-147" font-family="Helvetica,sans-Serif" font-size="10.00" fill="#000000">drake/solvers/scs_solver.h</text>
</a>
</g>
</g>
<!-- Node102&#45;&gt;Node117 -->
<g id="edge18" class="edge">
<title>Node102&#45;&gt;Node117</title>
<path fill="none" stroke="#191970" d="M1161.6885,-206.077C1226.727,-196.0132 1327.4023,-180.1169 1414.5,-165 1425.1878,-163.145 1436.6319,-161.0673 1447.5021,-159.0506"/>
<polygon fill="#191970" stroke="#191970" points="1160.9121,-202.6553 1151.5637,-207.6411 1161.9809,-209.5732 1160.9121,-202.6553"/>
</g>
<!-- Node118 -->
<g id="node19" class="node">
<title>Node118</title>
<g id="a_node19"><a xlink:href="snopt__solver_8h.html" target="_top" xlink:title=" ">
<polygon fill="#ffffff" stroke="#000000" points="1589,-134.5 1589,-164.5 1702,-164.5 1702,-134.5 1589,-134.5"/>
<text text-anchor="start" x="1597" y="-152.5" font-family="Helvetica,sans-Serif" font-size="10.00" fill="#000000">drake/solvers/snopt</text>
<text text-anchor="middle" x="1645.5" y="-141.5" font-family="Helvetica,sans-Serif" font-size="10.00" fill="#000000">_solver.h</text>
</a>
</g>
</g>
<!-- Node102&#45;&gt;Node118 -->
<g id="edge19" class="edge">
<title>Node102&#45;&gt;Node118</title>
<path fill="none" stroke="#191970" d="M1161.7887,-211.9707C1256.1708,-205.0962 1431.5984,-190.1023 1579.5,-165 1582.5171,-164.4879 1585.6021,-163.92 1588.7101,-163.3128"/>
<polygon fill="#191970" stroke="#191970" points="1161.5225,-208.4807 1151.7997,-212.6899 1162.0253,-215.4627 1161.5225,-208.4807"/>
</g>
<!-- Node119 -->
<g id="node20" class="node">
<title>Node119</title>
<g id="a_node20"><a xlink:href="unrevised__lemke__solver_8h.html" target="_top" xlink:title=" ">
<polygon fill="#ffffff" stroke="#000000" points="1720.5,-134.5 1720.5,-164.5 1854.5,-164.5 1854.5,-134.5 1720.5,-134.5"/>
<text text-anchor="start" x="1728.5" y="-152.5" font-family="Helvetica,sans-Serif" font-size="10.00" fill="#000000">drake/solvers/unrevised</text>
<text text-anchor="middle" x="1787.5" y="-141.5" font-family="Helvetica,sans-Serif" font-size="10.00" fill="#000000">_lemke_solver.h</text>
</a>
</g>
</g>
<!-- Node102&#45;&gt;Node119 -->
<g id="edge20" class="edge">
<title>Node102&#45;&gt;Node119</title>
<path fill="none" stroke="#191970" d="M1161.9212,-213.3722C1276.0605,-207.5769 1512.351,-193.1175 1710.5,-165 1713.7402,-164.5402 1717.0497,-164.0304 1720.3869,-163.484"/>
<polygon fill="#191970" stroke="#191970" points="1161.4057,-209.8935 1151.5935,-213.8897 1161.7561,-216.8847 1161.4057,-209.8935"/>
</g>
<!-- Node104 -->
<g id="node5" class="node">
<title>Node104</title>
<g id="a_node5"><a xlink:href="constraint__solver_8h.html" target="_top" xlink:title=" ">
<polygon fill="#ffffff" stroke="#000000" points="0,-67.5 0,-97.5 149,-97.5 149,-67.5 0,-67.5"/>
<text text-anchor="start" x="8" y="-85.5" font-family="Helvetica,sans-Serif" font-size="10.00" fill="#000000">drake/multibody/constraint</text>
<text text-anchor="middle" x="74.5" y="-74.5" font-family="Helvetica,sans-Serif" font-size="10.00" fill="#000000">/constraint_solver.h</text>
</a>
</g>
</g>
<!-- Node103&#45;&gt;Node104 -->
<g id="edge4" class="edge">
<title>Node103&#45;&gt;Node104</title>
<path fill="none" stroke="#191970" d="M107.6596,-126.0626C100.4807,-116.6315 92.4091,-106.0276 86.0269,-97.6432"/>
<polygon fill="#191970" stroke="#191970" points="105.0854,-128.4595 113.9273,-134.2967 110.6554,-124.2197 105.0854,-128.4595"/>
</g>
<!-- Node105 -->
<g id="node6" class="node">
<title>Node105</title>
<g id="a_node6"><a xlink:href="rod2d_8h.html" target="_top" xlink:title=" ">
<polygon fill="#ffffff" stroke="#000000" points="62.5,-.5 62.5,-30.5 188.5,-30.5 188.5,-.5 62.5,-.5"/>
<text text-anchor="start" x="70.5" y="-18.5" font-family="Helvetica,sans-Serif" font-size="10.00" fill="#000000">drake/examples/rod2d</text>
<text text-anchor="middle" x="125.5" y="-7.5" font-family="Helvetica,sans-Serif" font-size="10.00" fill="#000000">/rod2d.h</text>
</a>
</g>
</g>
<!-- Node103&#45;&gt;Node105 -->
<g id="edge6" class="edge">
<title>Node103&#45;&gt;Node105</title>
<path fill="none" stroke="#191970" d="M143.9667,-125.9251C149.4319,-117.5778 154.6998,-107.8123 157.5,-98 161.2809,-84.7512 161.2809,-80.2488 157.5,-67 153.6869,-53.6386 145.2983,-40.3639 138.0664,-30.6388"/>
<polygon fill="#191970" stroke="#191970" points="140.9297,-124.1606 138.0664,-134.3612 146.666,-128.1726 140.9297,-124.1606"/>
</g>
<!-- Node104&#45;&gt;Node105 -->
<g id="edge5" class="edge">
<title>Node104&#45;&gt;Node105</title>
<path fill="none" stroke="#191970" d="M92.3404,-59.0626C99.5193,-49.6315 107.5909,-39.0276 113.9731,-30.6432"/>
<polygon fill="#191970" stroke="#191970" points="89.3446,-57.2197 86.0727,-67.2967 94.9146,-61.4595 89.3446,-57.2197"/>
</g>
<!-- Node108 -->
<g id="node9" class="node">
<title>Node108</title>
<g id="a_node9"><a xlink:href="csdp__solver__internal_8h.html" target="_top" xlink:title=" ">
<polygon fill="#ffffff" stroke="#000000" points="362.5,-67.5 362.5,-97.5 470.5,-97.5 470.5,-67.5 362.5,-67.5"/>
<text text-anchor="start" x="370.5" y="-85.5" font-family="Helvetica,sans-Serif" font-size="10.00" fill="#000000">drake/solvers/csdp</text>
<text text-anchor="middle" x="416.5" y="-74.5" font-family="Helvetica,sans-Serif" font-size="10.00" fill="#000000">_solver_internal.h</text>
</a>
</g>
</g>
<!-- Node107&#45;&gt;Node108 -->
<g id="edge9" class="edge">
<title>Node107&#45;&gt;Node108</title>
<path fill="none" stroke="#191970" d="M416.5,-124.0249C416.5,-115.128 416.5,-105.4287 416.5,-97.6432"/>
<polygon fill="#191970" stroke="#191970" points="413.0001,-124.2966 416.5,-134.2967 420.0001,-124.2967 413.0001,-124.2966"/>
</g>
<!-- Node126 -->
<g id="node27" class="node">
<title>Node126</title>
<g id="a_node27"><a xlink:href="direct__collocation_8h.html" target="_top" xlink:title=" ">
<polygon fill="#ffffff" stroke="#000000" points="2307.5,-201.5 2307.5,-231.5 2489.5,-231.5 2489.5,-201.5 2307.5,-201.5"/>
<text text-anchor="start" x="2315.5" y="-219.5" font-family="Helvetica,sans-Serif" font-size="10.00" fill="#000000">drake/systems/trajectory</text>
<text text-anchor="middle" x="2398.5" y="-208.5" font-family="Helvetica,sans-Serif" font-size="10.00" fill="#000000">_optimization/direct_collocation.h</text>
</a>
</g>
</g>
<!-- Node125&#45;&gt;Node126 -->
<g id="edge28" class="edge">
<title>Node125&#45;&gt;Node126</title>
<path fill="none" stroke="#191970" d="M2463.1596,-262.459C2448.534,-252.0634 2432.2905,-240.5177 2419.7429,-231.5991"/>
<polygon fill="#191970" stroke="#191970" points="2461.3652,-265.4776 2471.5437,-268.4183 2465.4206,-259.772 2461.3652,-265.4776"/>
</g>
<!-- Node127 -->
<g id="node28" class="node">
<title>Node127</title>
<g id="a_node28"><a xlink:href="direct__transcription_8h.html" target="_top" xlink:title=" ">
<polygon fill="#ffffff" stroke="#000000" points="2507.5,-201.5 2507.5,-231.5 2697.5,-231.5 2697.5,-201.5 2507.5,-201.5"/>
<text text-anchor="start" x="2515.5" y="-219.5" font-family="Helvetica,sans-Serif" font-size="10.00" fill="#000000">drake/systems/trajectory</text>
<text text-anchor="middle" x="2602.5" y="-208.5" font-family="Helvetica,sans-Serif" font-size="10.00" fill="#000000">_optimization/direct_transcription.h</text>
</a>
</g>
</g>
<!-- Node125&#45;&gt;Node127 -->
<g id="edge29" class="edge">
<title>Node125&#45;&gt;Node127</title>
<path fill="none" stroke="#191970" d="M2537.8404,-262.459C2552.466,-252.0634 2568.7095,-240.5177 2581.2571,-231.5991"/>
<polygon fill="#191970" stroke="#191970" points="2535.5794,-259.772 2529.4563,-268.4183 2539.6348,-265.4776 2535.5794,-259.772"/>
</g>
</g>
</svg>
