<?xml version="1.0" encoding="UTF-8" standalone="no"?>
<!DOCTYPE svg PUBLIC "-//W3C//DTD SVG 1.1//EN"
 "http://www.w3.org/Graphics/SVG/1.1/DTD/svg11.dtd">
<!-- Generated by graphviz version 2.43.0 (0)
 -->
<!-- Title: drake/planning/graph_algorithms/max_clique_solver_base.h Pages: 1 -->
<svg width="844pt" height="296pt"
 viewBox="0.00 0.00 843.50 296.00" xmlns="http://www.w3.org/2000/svg" xmlns:xlink="http://www.w3.org/1999/xlink">
<g id="graph0" class="graph" transform="scale(1 1) rotate(0) translate(4 292)">
<title>drake/planning/graph_algorithms/max_clique_solver_base.h</title>
<polygon fill="white" stroke="transparent" points="-4,4 -4,-292 839.5,-292 839.5,4 -4,4"/>
<!-- Node0 -->
<g id="node1" class="node">
<title>Node0</title>
<g id="a_node1"><a xlink:title=" ">
<polygon fill="#bfbfbf" stroke="black" points="123.5,-246.5 123.5,-287.5 257.5,-287.5 257.5,-246.5 123.5,-246.5"/>
<text text-anchor="start" x="131.5" y="-275.5" font-family="Helvetica,sans-Serif" font-size="10.00">drake/planning/graph</text>
<text text-anchor="start" x="131.5" y="-264.5" font-family="Helvetica,sans-Serif" font-size="10.00">_algorithms/max_clique</text>
<text text-anchor="middle" x="190.5" y="-253.5" font-family="Helvetica,sans-Serif" font-size="10.00">_solver_base.h</text>
</a>
</g>
</g>
<!-- Node1 -->
<g id="node2" class="node">
<title>Node1</title>
<g id="a_node2"><a xlink:title=" ">
<polygon fill="white" stroke="#bfbfbf" points="74.5,-185 74.5,-204 132.5,-204 132.5,-185 74.5,-185"/>
<text text-anchor="middle" x="103.5" y="-192" font-family="Helvetica,sans-Serif" font-size="10.00">memory</text>
</a>
</g>
</g>
<!-- Node0&#45;&gt;Node1 -->
<g id="edge1" class="edge">
<title>Node0&#45;&gt;Node1</title>
<path fill="none" stroke="midnightblue" d="M166.27,-246.36C152.38,-235.11 135.2,-221.19 122.33,-210.76"/>
<polygon fill="midnightblue" stroke="midnightblue" points="124.18,-207.75 114.2,-204.17 119.77,-213.19 124.18,-207.75"/>
</g>
<!-- Node2 -->
<g id="node3" class="node">
<title>Node2</title>
<g id="a_node3"><a xlink:title=" ">
<polygon fill="white" stroke="#bfbfbf" points="150.5,-185 150.5,-204 230.5,-204 230.5,-185 150.5,-185"/>
<text text-anchor="middle" x="190.5" y="-192" font-family="Helvetica,sans-Serif" font-size="10.00">Eigen/Sparse</text>
</a>
</g>
</g>
<!-- Node0&#45;&gt;Node2 -->
<g id="edge2" class="edge">
<title>Node0&#45;&gt;Node2</title>
<path fill="none" stroke="midnightblue" d="M190.5,-246.36C190.5,-236.3 190.5,-224.1 190.5,-214.18"/>
<polygon fill="midnightblue" stroke="midnightblue" points="194,-214.17 190.5,-204.17 187,-214.17 194,-214.17"/>
</g>
<!-- Node3 -->
<g id="node4" class="node">
<title>Node3</title>
<g id="a_node4"><a xlink:href="eigen__types_8h.html" target="_top" xlink:title="This file contains abbreviated definitions for certain specializations of Eigen::Matrix that are comm...">
<polygon fill="white" stroke="black" points="249,-179.5 249,-209.5 368,-209.5 368,-179.5 249,-179.5"/>
<text text-anchor="start" x="257" y="-197.5" font-family="Helvetica,sans-Serif" font-size="10.00">drake/common/eigen</text>
<text text-anchor="middle" x="308.5" y="-186.5" font-family="Helvetica,sans-Serif" font-size="10.00">_types.h</text>
</a>
</g>
</g>
<!-- Node0&#45;&gt;Node3 -->
<g id="edge3" class="edge">
<title>Node0&#45;&gt;Node3</title>
<path fill="none" stroke="midnightblue" d="M223.37,-246.36C239.83,-236.53 259.68,-224.67 276.07,-214.87"/>
<polygon fill="midnightblue" stroke="midnightblue" points="277.99,-217.8 284.78,-209.67 274.4,-211.79 277.99,-217.8"/>
</g>
<!-- Node4 -->
<g id="node5" class="node">
<title>Node4</title>
<g id="a_node5"><a xlink:title=" ">
<polygon fill="white" stroke="#bfbfbf" points="0,-118 0,-137 45,-137 45,-118 0,-118"/>
<text text-anchor="middle" x="22.5" y="-125" font-family="Helvetica,sans-Serif" font-size="10.00">utility</text>
</a>
</g>
</g>
<!-- Node3&#45;&gt;Node4 -->
<g id="edge4" class="edge">
<title>Node3&#45;&gt;Node4</title>
<path fill="none" stroke="midnightblue" d="M248.67,-180.87C245.57,-180.23 242.5,-179.61 239.5,-179 156.96,-162.34 133.57,-169.03 53.5,-143 51.83,-142.46 50.13,-141.85 48.43,-141.19"/>
<polygon fill="midnightblue" stroke="midnightblue" points="49.5,-137.84 38.93,-137.1 46.73,-144.27 49.5,-137.84"/>
</g>
<!-- Node5 -->
<g id="node6" class="node">
<title>Node5</title>
<g id="a_node6"><a xlink:title=" ">
<polygon fill="white" stroke="#bfbfbf" points="63,-118 63,-137 140,-137 140,-118 63,-118"/>
<text text-anchor="middle" x="101.5" y="-125" font-family="Helvetica,sans-Serif" font-size="10.00">Eigen/Dense</text>
</a>
</g>
</g>
<!-- Node3&#45;&gt;Node5 -->
<g id="edge5" class="edge">
<title>Node3&#45;&gt;Node5</title>
<path fill="none" stroke="midnightblue" d="M263.84,-179.48C226.41,-167.72 173.61,-151.14 138.51,-140.12"/>
<polygon fill="midnightblue" stroke="midnightblue" points="139.25,-136.69 128.66,-137.03 137.15,-143.36 139.25,-136.69"/>
</g>
<!-- Node6 -->
<g id="node7" class="node">
<title>Node6</title>
<g id="a_node7"><a xlink:href="constants_8h.html" target="_top" xlink:title=" ">
<polygon fill="white" stroke="black" points="158,-118 158,-137 307,-137 307,-118 158,-118"/>
<text text-anchor="middle" x="232.5" y="-125" font-family="Helvetica,sans-Serif" font-size="10.00">drake/common/constants.h</text>
</a>
</g>
</g>
<!-- Node3&#45;&gt;Node6 -->
<g id="edge6" class="edge">
<title>Node3&#45;&gt;Node6</title>
<path fill="none" stroke="midnightblue" d="M292.01,-179.4C279.81,-168.96 263.19,-154.75 250.62,-144"/>
<polygon fill="midnightblue" stroke="midnightblue" points="252.54,-141.03 242.67,-137.19 247.99,-146.35 252.54,-141.03"/>
</g>
<!-- Node7 -->
<g id="node8" class="node">
<title>Node7</title>
<g id="a_node8"><a xlink:href="drake__assert_8h.html" target="_top" xlink:title="Provides Drake&#39;s assertion implementation.">
<polygon fill="white" stroke="black" points="325,-112.5 325,-142.5 444,-142.5 444,-112.5 325,-112.5"/>
<text text-anchor="start" x="333" y="-130.5" font-family="Helvetica,sans-Serif" font-size="10.00">drake/common/drake</text>
<text text-anchor="middle" x="384.5" y="-119.5" font-family="Helvetica,sans-Serif" font-size="10.00">_assert.h</text>
</a>
</g>
</g>
<!-- Node3&#45;&gt;Node7 -->
<g id="edge7" class="edge">
<title>Node3&#45;&gt;Node7</title>
<path fill="none" stroke="midnightblue" d="M324.99,-179.4C335.35,-170.54 348.88,-158.96 360.43,-149.09"/>
<polygon fill="midnightblue" stroke="midnightblue" points="362.72,-151.74 368.04,-142.58 358.17,-146.42 362.72,-151.74"/>
</g>
<!-- Node9 -->
<g id="node10" class="node">
<title>Node9</title>
<g id="a_node10"><a xlink:href="drake__copyable_8h.html" target="_top" xlink:title="Provides careful macros to selectively enable or disable the special member functions for copy&#45;constr...">
<polygon fill="white" stroke="black" points="462,-112.5 462,-142.5 581,-142.5 581,-112.5 462,-112.5"/>
<text text-anchor="start" x="470" y="-130.5" font-family="Helvetica,sans-Serif" font-size="10.00">drake/common/drake</text>
<text text-anchor="middle" x="521.5" y="-119.5" font-family="Helvetica,sans-Serif" font-size="10.00">_copyable.h</text>
</a>
</g>
</g>
<!-- Node3&#45;&gt;Node9 -->
<g id="edge9" class="edge">
<title>Node3&#45;&gt;Node9</title>
<path fill="none" stroke="midnightblue" d="M354.46,-179.48C386.96,-169.56 430.73,-156.2 465.31,-145.65"/>
<polygon fill="midnightblue" stroke="midnightblue" points="466.72,-148.88 475.26,-142.61 464.67,-142.18 466.72,-148.88"/>
</g>
<!-- Node10 -->
<g id="node11" class="node">
<title>Node10</title>
<g id="a_node11"><a xlink:href="fmt__eigen_8h.html" target="_top" xlink:title=" ">
<polygon fill="white" stroke="black" points="599,-118 599,-137 750,-137 750,-118 599,-118"/>
<text text-anchor="middle" x="674.5" y="-125" font-family="Helvetica,sans-Serif" font-size="10.00">drake/common/fmt_eigen.h</text>
</a>
</g>
</g>
<!-- Node3&#45;&gt;Node10 -->
<g id="edge10" class="edge">
<title>Node3&#45;&gt;Node10</title>
<path fill="none" stroke="midnightblue" d="M368.12,-182.91C436.71,-170.73 548.58,-150.86 616.49,-138.8"/>
<polygon fill="midnightblue" stroke="midnightblue" points="617.35,-142.2 626.59,-137.01 616.13,-135.31 617.35,-142.2"/>
</g>
<!-- Node8 -->
<g id="node9" class="node">
<title>Node8</title>
<g id="a_node9"><a xlink:title=" ">
<polygon fill="white" stroke="#bfbfbf" points="350,-56.5 350,-75.5 419,-75.5 419,-56.5 350,-56.5"/>
<text text-anchor="middle" x="384.5" y="-63.5" font-family="Helvetica,sans-Serif" font-size="10.00">type_traits</text>
</a>
</g>
</g>
<!-- Node7&#45;&gt;Node8 -->
<g id="edge8" class="edge">
<title>Node7&#45;&gt;Node8</title>
<path fill="none" stroke="midnightblue" d="M384.5,-112.4C384.5,-104.47 384.5,-94.46 384.5,-85.86"/>
<polygon fill="midnightblue" stroke="midnightblue" points="388,-85.66 384.5,-75.66 381,-85.66 388,-85.66"/>
</g>
<!-- Node11 -->
<g id="node12" class="node">
<title>Node11</title>
<g id="a_node12"><a xlink:title=" ">
<polygon fill="white" stroke="#bfbfbf" points="791.5,-0.5 791.5,-19.5 835.5,-19.5 835.5,-0.5 791.5,-0.5"/>
<text text-anchor="middle" x="813.5" y="-7.5" font-family="Helvetica,sans-Serif" font-size="10.00">string</text>
</a>
</g>
</g>
<!-- Node10&#45;&gt;Node11 -->
<g id="edge11" class="edge">
<title>Node10&#45;&gt;Node11</title>
<path fill="none" stroke="midnightblue" d="M724.4,-117.95C750.42,-110.95 780.66,-98.39 799.5,-76 810.29,-63.18 813.34,-43.99 813.97,-29.78"/>
<polygon fill="midnightblue" stroke="midnightblue" points="817.47,-29.7 814.05,-19.68 810.47,-29.65 817.47,-29.7"/>
</g>
<!-- Node12 -->
<g id="node13" class="node">
<title>Node12</title>
<g id="a_node13"><a xlink:title=" ">
<polygon fill="white" stroke="#bfbfbf" points="560,-0.5 560,-19.5 633,-19.5 633,-0.5 560,-0.5"/>
<text text-anchor="middle" x="596.5" y="-7.5" font-family="Helvetica,sans-Serif" font-size="10.00">string_view</text>
</a>
</g>
</g>
<!-- Node10&#45;&gt;Node12 -->
<g id="edge12" class="edge">
<title>Node10&#45;&gt;Node12</title>
<path fill="none" stroke="midnightblue" d="M636.82,-117.99C614.52,-110.8 588.06,-98.03 574.5,-76 565.27,-61 574.04,-41.64 583.1,-27.96"/>
<polygon fill="midnightblue" stroke="midnightblue" points="586.18,-29.68 589.2,-19.52 580.5,-25.58 586.18,-29.68"/>
</g>
<!-- Node13 -->
<g id="node14" class="node">
<title>Node13</title>
<g id="a_node14"><a xlink:title=" ">
<polygon fill="white" stroke="#bfbfbf" points="584,-56.5 584,-75.5 653,-75.5 653,-56.5 584,-56.5"/>
<text text-anchor="middle" x="618.5" y="-63.5" font-family="Helvetica,sans-Serif" font-size="10.00">Eigen/Core</text>
</a>
</g>
</g>
<!-- Node10&#45;&gt;Node13 -->
<g id="edge13" class="edge">
<title>Node10&#45;&gt;Node13</title>
<path fill="none" stroke="midnightblue" d="M666.48,-117.98C657.91,-108.87 644.14,-94.24 633.54,-82.98"/>
<polygon fill="midnightblue" stroke="midnightblue" points="635.91,-80.39 626.51,-75.51 630.81,-85.19 635.91,-80.39"/>
</g>
<!-- Node14 -->
<g id="node15" class="node">
<title>Node14</title>
<g id="a_node15"><a xlink:href="fmt_8h.html" target="_top" xlink:title=" ">
<polygon fill="white" stroke="black" points="671,-56.5 671,-75.5 790,-75.5 790,-56.5 671,-56.5"/>
<text text-anchor="middle" x="730.5" y="-63.5" font-family="Helvetica,sans-Serif" font-size="10.00">drake/common/fmt.h</text>
</a>
</g>
</g>
<!-- Node10&#45;&gt;Node14 -->
<g id="edge14" class="edge">
<title>Node10&#45;&gt;Node14</title>
<path fill="none" stroke="midnightblue" d="M682.52,-117.98C691.09,-108.87 704.86,-94.24 715.46,-82.98"/>
<polygon fill="midnightblue" stroke="midnightblue" points="718.19,-85.19 722.49,-75.51 713.09,-80.39 718.19,-85.19"/>
</g>
<!-- Node14&#45;&gt;Node11 -->
<g id="edge15" class="edge">
<title>Node14&#45;&gt;Node11</title>
<path fill="none" stroke="midnightblue" d="M743.84,-56.32C756.66,-47.98 776.28,-35.21 791.44,-25.35"/>
<polygon fill="midnightblue" stroke="midnightblue" points="793.72,-28.04 800.2,-19.65 789.91,-22.17 793.72,-28.04"/>
</g>
<!-- Node14&#45;&gt;Node12 -->
<g id="edge16" class="edge">
<title>Node14&#45;&gt;Node12</title>
<path fill="none" stroke="midnightblue" d="M709.27,-56.44C687.12,-47.52 652.18,-33.44 627.06,-23.32"/>
<polygon fill="midnightblue" stroke="midnightblue" points="628.22,-20.01 617.63,-19.52 625.6,-26.5 628.22,-20.01"/>
</g>
<!-- Node15 -->
<g id="node16" class="node">
<title>Node15</title>
<g id="a_node16"><a xlink:title=" ">
<polygon fill="white" stroke="#bfbfbf" points="691,-0.5 691,-19.5 770,-19.5 770,-0.5 691,-0.5"/>
<text text-anchor="middle" x="730.5" y="-7.5" font-family="Helvetica,sans-Serif" font-size="10.00">fmt/format.h</text>
</a>
</g>
</g>
<!-- Node14&#45;&gt;Node15 -->
<g id="edge17" class="edge">
<title>Node14&#45;&gt;Node15</title>
<path fill="none" stroke="midnightblue" d="M730.5,-56.08C730.5,-49.01 730.5,-38.86 730.5,-29.99"/>
<polygon fill="midnightblue" stroke="midnightblue" points="734,-29.75 730.5,-19.75 727,-29.75 734,-29.75"/>
</g>
</g>
</svg>
