<?xml version="1.0" encoding="UTF-8" standalone="no"?>
<!DOCTYPE svg PUBLIC "-//W3C//DTD SVG 1.1//EN"
 "http://www.w3.org/Graphics/SVG/1.1/DTD/svg11.dtd">
<!-- Generated by graphviz version 2.43.0 (0)
 -->
<!-- Title: drake/planning/graph_algorithms/max_clique_solver_base.h Pages: 1 -->
<svg width="591pt" height="240pt"
 viewBox="0.00 0.00 590.50 240.00" xmlns="http://www.w3.org/2000/svg" xmlns:xlink="http://www.w3.org/1999/xlink">
<g id="graph0" class="graph" transform="scale(1 1) rotate(0) translate(4 236)">
<title>drake/planning/graph_algorithms/max_clique_solver_base.h</title>
<polygon fill="white" stroke="transparent" points="-4,4 -4,-236 586.5,-236 586.5,4 -4,4"/>
<!-- Node0 -->
<g id="node1" class="node">
<title>Node0</title>
<g id="a_node1"><a xlink:title=" ">
<polygon fill="#bfbfbf" stroke="black" points="49,-190.5 49,-231.5 183,-231.5 183,-190.5 49,-190.5"/>
<text text-anchor="start" x="57" y="-219.5" font-family="Helvetica,sans-Serif" font-size="10.00">drake/planning/graph</text>
<text text-anchor="start" x="57" y="-208.5" font-family="Helvetica,sans-Serif" font-size="10.00">_algorithms/max_clique</text>
<text text-anchor="middle" x="116" y="-197.5" font-family="Helvetica,sans-Serif" font-size="10.00">_solver_base.h</text>
</a>
</g>
</g>
<!-- Node1 -->
<g id="node2" class="node">
<title>Node1</title>
<g id="a_node2"><a xlink:title=" ">
<polygon fill="white" stroke="#bfbfbf" points="0,-129 0,-148 58,-148 58,-129 0,-129"/>
<text text-anchor="middle" x="29" y="-136" font-family="Helvetica,sans-Serif" font-size="10.00">memory</text>
</a>
</g>
</g>
<!-- Node0&#45;&gt;Node1 -->
<g id="edge1" class="edge">
<title>Node0&#45;&gt;Node1</title>
<path fill="none" stroke="midnightblue" d="M91.77,-190.36C77.88,-179.11 60.7,-165.19 47.83,-154.76"/>
<polygon fill="midnightblue" stroke="midnightblue" points="49.68,-151.75 39.7,-148.17 45.27,-157.19 49.68,-151.75"/>
</g>
<!-- Node2 -->
<g id="node3" class="node">
<title>Node2</title>
<g id="a_node3"><a xlink:title=" ">
<polygon fill="white" stroke="#bfbfbf" points="76,-129 76,-148 156,-148 156,-129 76,-129"/>
<text text-anchor="middle" x="116" y="-136" font-family="Helvetica,sans-Serif" font-size="10.00">Eigen/Sparse</text>
</a>
</g>
</g>
<!-- Node0&#45;&gt;Node2 -->
<g id="edge2" class="edge">
<title>Node0&#45;&gt;Node2</title>
<path fill="none" stroke="midnightblue" d="M116,-190.36C116,-180.3 116,-168.1 116,-158.18"/>
<polygon fill="midnightblue" stroke="midnightblue" points="119.5,-158.17 116,-148.17 112.5,-158.17 119.5,-158.17"/>
</g>
<!-- Node3 -->
<g id="node4" class="node">
<title>Node3</title>
<g id="a_node4"><a xlink:href="eigen__types_8h.html" target="_top" xlink:title="This file contains abbreviated definitions for certain specializations of Eigen::Matrix that are comm...">
<polygon fill="white" stroke="black" points="174.5,-123.5 174.5,-153.5 293.5,-153.5 293.5,-123.5 174.5,-123.5"/>
<text text-anchor="start" x="182.5" y="-141.5" font-family="Helvetica,sans-Serif" font-size="10.00">drake/common/eigen</text>
<text text-anchor="middle" x="234" y="-130.5" font-family="Helvetica,sans-Serif" font-size="10.00">_types.h</text>
</a>
</g>
</g>
<!-- Node0&#45;&gt;Node3 -->
<g id="edge3" class="edge">
<title>Node0&#45;&gt;Node3</title>
<path fill="none" stroke="midnightblue" d="M148.87,-190.36C165.33,-180.53 185.18,-168.67 201.57,-158.87"/>
<polygon fill="midnightblue" stroke="midnightblue" points="203.49,-161.8 210.28,-153.67 199.9,-155.79 203.49,-161.8"/>
</g>
<!-- Node4 -->
<g id="node5" class="node">
<title>Node4</title>
<g id="a_node5"><a xlink:title=" ">
<polygon fill="white" stroke="#bfbfbf" points="1.5,-62 1.5,-81 46.5,-81 46.5,-62 1.5,-62"/>
<text text-anchor="middle" x="24" y="-69" font-family="Helvetica,sans-Serif" font-size="10.00">utility</text>
</a>
</g>
</g>
<!-- Node3&#45;&gt;Node4 -->
<g id="edge4" class="edge">
<title>Node3&#45;&gt;Node4</title>
<path fill="none" stroke="midnightblue" d="M176.39,-123.48C141.2,-114.35 95.52,-101.47 56,-87 54.39,-86.41 52.74,-85.77 51.09,-85.11"/>
<polygon fill="midnightblue" stroke="midnightblue" points="52.32,-81.83 41.74,-81.11 49.56,-88.26 52.32,-81.83"/>
</g>
<!-- Node5 -->
<g id="node6" class="node">
<title>Node5</title>
<g id="a_node6"><a xlink:title=" ">
<polygon fill="white" stroke="#bfbfbf" points="64.5,-62 64.5,-81 141.5,-81 141.5,-62 64.5,-62"/>
<text text-anchor="middle" x="103" y="-69" font-family="Helvetica,sans-Serif" font-size="10.00">Eigen/Dense</text>
</a>
</g>
</g>
<!-- Node3&#45;&gt;Node5 -->
<g id="edge5" class="edge">
<title>Node3&#45;&gt;Node5</title>
<path fill="none" stroke="midnightblue" d="M205.57,-123.4C182.89,-112.14 151.37,-96.5 129.28,-85.54"/>
<polygon fill="midnightblue" stroke="midnightblue" points="130.66,-82.32 120.14,-81.01 127.55,-88.59 130.66,-82.32"/>
</g>
<!-- Node6 -->
<g id="node7" class="node">
<title>Node6</title>
<g id="a_node7"><a xlink:href="constants_8h.html" target="_top" xlink:title=" ">
<polygon fill="white" stroke="black" points="159.5,-62 159.5,-81 308.5,-81 308.5,-62 159.5,-62"/>
<text text-anchor="middle" x="234" y="-69" font-family="Helvetica,sans-Serif" font-size="10.00">drake/common/constants.h</text>
</a>
</g>
</g>
<!-- Node3&#45;&gt;Node6 -->
<g id="edge6" class="edge">
<title>Node3&#45;&gt;Node6</title>
<path fill="none" stroke="midnightblue" d="M234,-123.4C234,-114.06 234,-101.71 234,-91.52"/>
<polygon fill="midnightblue" stroke="midnightblue" points="237.5,-91.19 234,-81.19 230.5,-91.19 237.5,-91.19"/>
</g>
<!-- Node7 -->
<g id="node8" class="node">
<title>Node7</title>
<g id="a_node8"><a xlink:href="drake__assert_8h.html" target="_top" xlink:title="Provides Drake&#39;s assertion implementation.">
<polygon fill="white" stroke="black" points="326.5,-56.5 326.5,-86.5 445.5,-86.5 445.5,-56.5 326.5,-56.5"/>
<text text-anchor="start" x="334.5" y="-74.5" font-family="Helvetica,sans-Serif" font-size="10.00">drake/common/drake</text>
<text text-anchor="middle" x="386" y="-63.5" font-family="Helvetica,sans-Serif" font-size="10.00">_assert.h</text>
</a>
</g>
</g>
<!-- Node3&#45;&gt;Node7 -->
<g id="edge7" class="edge">
<title>Node3&#45;&gt;Node7</title>
<path fill="none" stroke="midnightblue" d="M266.98,-123.4C289.49,-113.77 319.5,-100.94 343.76,-90.56"/>
<polygon fill="midnightblue" stroke="midnightblue" points="345.26,-93.73 353.08,-86.58 342.51,-87.29 345.26,-93.73"/>
</g>
<!-- Node9 -->
<g id="node10" class="node">
<title>Node9</title>
<g id="a_node10"><a xlink:href="drake__copyable_8h.html" target="_top" xlink:title="Provides careful macros to selectively enable or disable the special member functions for copy&#45;constr...">
<polygon fill="white" stroke="black" points="463.5,-56.5 463.5,-86.5 582.5,-86.5 582.5,-56.5 463.5,-56.5"/>
<text text-anchor="start" x="471.5" y="-74.5" font-family="Helvetica,sans-Serif" font-size="10.00">drake/common/drake</text>
<text text-anchor="middle" x="523" y="-63.5" font-family="Helvetica,sans-Serif" font-size="10.00">_copyable.h</text>
</a>
</g>
</g>
<!-- Node3&#45;&gt;Node9 -->
<g id="edge9" class="edge">
<title>Node3&#45;&gt;Node9</title>
<path fill="none" stroke="midnightblue" d="M293.53,-124.11C339.91,-113.68 404.39,-99.18 453.2,-88.2"/>
<polygon fill="midnightblue" stroke="midnightblue" points="454.06,-91.59 463.05,-85.98 452.53,-84.76 454.06,-91.59"/>
</g>
<!-- Node8 -->
<g id="node9" class="node">
<title>Node8</title>
<g id="a_node9"><a xlink:title=" ">
<polygon fill="white" stroke="#bfbfbf" points="351.5,-0.5 351.5,-19.5 420.5,-19.5 420.5,-0.5 351.5,-0.5"/>
<text text-anchor="middle" x="386" y="-7.5" font-family="Helvetica,sans-Serif" font-size="10.00">type_traits</text>
</a>
</g>
</g>
<!-- Node7&#45;&gt;Node8 -->
<g id="edge8" class="edge">
<title>Node7&#45;&gt;Node8</title>
<path fill="none" stroke="midnightblue" d="M386,-56.4C386,-48.47 386,-38.46 386,-29.86"/>
<polygon fill="midnightblue" stroke="midnightblue" points="389.5,-29.66 386,-19.66 382.5,-29.66 389.5,-29.66"/>
</g>
</g>
</svg>
