<?xml version="1.0" encoding="UTF-8" standalone="no"?>
<!DOCTYPE svg PUBLIC "-//W3C//DTD SVG 1.1//EN"
 "http://www.w3.org/Graphics/SVG/1.1/DTD/svg11.dtd">
<!-- Generated by graphviz version 2.43.0 (0)
 -->
<!-- Title: drake/geometry/meshcat.h Pages: 1 -->
<svg width="1304pt" height="106pt"
 viewBox="0.00 0.00 1303.50 106.00" xmlns="http://www.w3.org/2000/svg" xmlns:xlink="http://www.w3.org/1999/xlink">
<g id="graph0" class="graph" transform="scale(1 1) rotate(0) translate(4 102)">
<title>drake/geometry/meshcat.h</title>
<polygon fill="white" stroke="transparent" points="-4,4 -4,-102 1299.5,-102 1299.5,4 -4,4"/>
<!-- Node83 -->
<g id="node1" class="node">
<title>Node83</title>
<g id="a_node1"><a xlink:title=" ">
<polygon fill="#bfbfbf" stroke="black" points="578,-78.5 578,-97.5 726,-97.5 726,-78.5 578,-78.5"/>
<text text-anchor="middle" x="652" y="-85.5" font-family="Helvetica,sans-Serif" font-size="10.00">drake/geometry/meshcat.h</text>
</a>
</g>
</g>
<!-- Node84 -->
<g id="node2" class="node">
<title>Node84</title>
<g id="a_node2"><a xlink:href="meshcat__point__cloud__visualizer_8h.html" target="_top" xlink:title=" ">
<polygon fill="white" stroke="black" points="0,-6 0,-36 140,-36 140,-6 0,-6"/>
<text text-anchor="start" x="8" y="-24" font-family="Helvetica,sans-Serif" font-size="10.00">drake/geometry/meshcat</text>
<text text-anchor="middle" x="70" y="-13" font-family="Helvetica,sans-Serif" font-size="10.00">_point_cloud_visualizer.h</text>
</a>
</g>
</g>
<!-- Node83&#45;&gt;Node84 -->
<g id="edge1" class="edge">
<title>Node83&#45;&gt;Node84</title>
<path fill="none" stroke="midnightblue" d="M567.72,-83.55C467.39,-78.5 295.03,-66.85 149,-42 139.66,-40.41 129.79,-38.28 120.32,-36.01"/>
<polygon fill="midnightblue" stroke="midnightblue" points="567.64,-87.05 577.8,-84.05 567.99,-80.06 567.64,-87.05"/>
</g>
<!-- Node85 -->
<g id="node3" class="node">
<title>Node85</title>
<g id="a_node3"><a xlink:href="meshcat__types_8h.html" target="_top" xlink:title=" ">
<polygon fill="white" stroke="black" points="158.5,-6 158.5,-36 297.5,-36 297.5,-6 158.5,-6"/>
<text text-anchor="start" x="166.5" y="-24" font-family="Helvetica,sans-Serif" font-size="10.00">drake/geometry/meshcat</text>
<text text-anchor="middle" x="228" y="-13" font-family="Helvetica,sans-Serif" font-size="10.00">_types.h</text>
</a>
</g>
</g>
<!-- Node83&#45;&gt;Node85 -->
<g id="edge2" class="edge">
<title>Node83&#45;&gt;Node85</title>
<path fill="none" stroke="midnightblue" d="M567.54,-78.92C497.2,-71.49 394.59,-59.05 306,-42 297.21,-40.31 287.95,-38.21 278.99,-36.02"/>
<polygon fill="midnightblue" stroke="midnightblue" points="567.37,-82.42 577.68,-79.98 568.09,-75.46 567.37,-82.42"/>
</g>
<!-- Node86 -->
<g id="node4" class="node">
<title>Node86</title>
<g id="a_node4"><a xlink:href="meshcat__visualizer_8h.html" target="_top" xlink:title=" ">
<polygon fill="white" stroke="black" points="315.5,-6 315.5,-36 454.5,-36 454.5,-6 315.5,-6"/>
<text text-anchor="start" x="323.5" y="-24" font-family="Helvetica,sans-Serif" font-size="10.00">drake/geometry/meshcat</text>
<text text-anchor="middle" x="385" y="-13" font-family="Helvetica,sans-Serif" font-size="10.00">_visualizer.h</text>
</a>
</g>
</g>
<!-- Node83&#45;&gt;Node86 -->
<g id="edge3" class="edge">
<title>Node83&#45;&gt;Node86</title>
<path fill="none" stroke="midnightblue" d="M605.8,-76.12C567.72,-67.11 512.31,-53.9 464,-42 456.31,-40.11 448.2,-38.08 440.23,-36.08"/>
<polygon fill="midnightblue" stroke="midnightblue" points="605.04,-79.53 615.57,-78.43 606.65,-72.72 605.04,-79.53"/>
</g>
<!-- Node87 -->
<g id="node5" class="node">
<title>Node87</title>
<g id="a_node5"><a xlink:href="meshcat__environment_8h.html" target="_top" xlink:title=" ">
<polygon fill="white" stroke="black" points="473,-6 473,-36 653,-36 653,-6 473,-6"/>
<text text-anchor="start" x="481" y="-24" font-family="Helvetica,sans-Serif" font-size="10.00">drake/geometry/test</text>
<text text-anchor="middle" x="563" y="-13" font-family="Helvetica,sans-Serif" font-size="10.00">_utilities/meshcat_environment.h</text>
</a>
</g>
</g>
<!-- Node83&#45;&gt;Node87 -->
<g id="edge4" class="edge">
<title>Node83&#45;&gt;Node87</title>
<path fill="none" stroke="midnightblue" d="M631.52,-72.04C616.71,-61.23 596.82,-46.7 582.29,-36.09"/>
<polygon fill="midnightblue" stroke="midnightblue" points="629.86,-75.16 640,-78.23 633.99,-69.51 629.86,-75.16"/>
</g>
<!-- Node88 -->
<g id="node6" class="node">
<title>Node88</title>
<g id="a_node6"><a xlink:href="contact__visualizer_8h.html" target="_top" xlink:title=" ">
<polygon fill="white" stroke="black" points="671.5,-6 671.5,-36 812.5,-36 812.5,-6 671.5,-6"/>
<text text-anchor="start" x="679.5" y="-24" font-family="Helvetica,sans-Serif" font-size="10.00">drake/multibody/meshcat</text>
<text text-anchor="middle" x="742" y="-13" font-family="Helvetica,sans-Serif" font-size="10.00">/contact_visualizer.h</text>
</a>
</g>
</g>
<!-- Node83&#45;&gt;Node88 -->
<g id="edge5" class="edge">
<title>Node83&#45;&gt;Node88</title>
<path fill="none" stroke="midnightblue" d="M672.29,-72.35C687.31,-61.5 707.66,-46.8 722.49,-36.09"/>
<polygon fill="midnightblue" stroke="midnightblue" points="670.2,-69.54 664.14,-78.23 674.29,-75.22 670.2,-69.54"/>
</g>
<!-- Node89 -->
<g id="node7" class="node">
<title>Node89</title>
<g id="a_node7"><a xlink:href="hydroelastic__contact__visualizer_8h.html" target="_top" xlink:title=" ">
<polygon fill="white" stroke="black" points="830.5,-0.5 830.5,-41.5 971.5,-41.5 971.5,-0.5 830.5,-0.5"/>
<text text-anchor="start" x="838.5" y="-29.5" font-family="Helvetica,sans-Serif" font-size="10.00">drake/multibody/meshcat</text>
<text text-anchor="start" x="838.5" y="-18.5" font-family="Helvetica,sans-Serif" font-size="10.00">/hydroelastic_contact</text>
<text text-anchor="middle" x="901" y="-7.5" font-family="Helvetica,sans-Serif" font-size="10.00">_visualizer.h</text>
</a>
</g>
</g>
<!-- Node83&#45;&gt;Node89 -->
<g id="edge6" class="edge">
<title>Node83&#45;&gt;Node89</title>
<path fill="none" stroke="midnightblue" d="M694.82,-75.82C732.02,-66.11 786.65,-51.85 830.32,-40.45"/>
<polygon fill="midnightblue" stroke="midnightblue" points="693.6,-72.52 684.81,-78.44 695.37,-79.3 693.6,-72.52"/>
</g>
<!-- Node90 -->
<g id="node8" class="node">
<title>Node90</title>
<g id="a_node8"><a xlink:href="joint__sliders_8h.html" target="_top" xlink:title=" ">
<polygon fill="white" stroke="black" points="989.5,-6 989.5,-36 1130.5,-36 1130.5,-6 989.5,-6"/>
<text text-anchor="start" x="997.5" y="-24" font-family="Helvetica,sans-Serif" font-size="10.00">drake/multibody/meshcat</text>
<text text-anchor="middle" x="1060" y="-13" font-family="Helvetica,sans-Serif" font-size="10.00">/joint_sliders.h</text>
</a>
</g>
</g>
<!-- Node83&#45;&gt;Node90 -->
<g id="edge7" class="edge">
<title>Node83&#45;&gt;Node90</title>
<path fill="none" stroke="midnightblue" d="M736.26,-78.11C802.98,-70.44 898.37,-58.06 981,-42 989.75,-40.3 998.98,-38.22 1007.92,-36.06"/>
<polygon fill="midnightblue" stroke="midnightblue" points="735.75,-74.64 726.22,-79.25 736.55,-81.6 735.75,-74.64"/>
</g>
<!-- Node91 -->
<g id="node9" class="node">
<title>Node91</title>
<g id="a_node9"><a xlink:href="point__contact__visualizer_8h.html" target="_top" xlink:title=" ">
<polygon fill="white" stroke="black" points="1148.5,-6 1148.5,-36 1295.5,-36 1295.5,-6 1148.5,-6"/>
<text text-anchor="start" x="1156.5" y="-24" font-family="Helvetica,sans-Serif" font-size="10.00">drake/multibody/meshcat</text>
<text text-anchor="middle" x="1222" y="-13" font-family="Helvetica,sans-Serif" font-size="10.00">/point_contact_visualizer.h</text>
</a>
</g>
</g>
<!-- Node83&#45;&gt;Node91 -->
<g id="edge8" class="edge">
<title>Node83&#45;&gt;Node91</title>
<path fill="none" stroke="midnightblue" d="M736.12,-83.01C833.76,-77.52 999.38,-65.5 1140,-42 1149.54,-40.41 1159.61,-38.3 1169.3,-36.06"/>
<polygon fill="midnightblue" stroke="midnightblue" points="735.81,-79.53 726.02,-83.57 736.19,-86.51 735.81,-79.53"/>
</g>
</g>
</svg>
