<?xml version="1.0" encoding="UTF-8" standalone="no"?>
<!DOCTYPE svg PUBLIC "-//W3C//DTD SVG 1.1//EN"
 "http://www.w3.org/Graphics/SVG/1.1/DTD/svg11.dtd">
<!-- Generated by graphviz version 2.43.0 (0)
 -->
<!-- Title: drake/geometry/meshcat_animation.h Pages: 1 -->
<!--zoomable 240 -->
<svg id="main" version="1.1" xmlns="http://www.w3.org/2000/svg" xmlns:xlink="http://www.w3.org/1999/xlink" xml:space="preserve" onload="init(evt)">
<style type="text/css"><![CDATA[
.edge:hover path { stroke: red; }
.edge:hover polygon { stroke: red; fill: red; }
]]></style>
<script type="text/javascript"><![CDATA[
var edges = document.getElementsByTagName('g');
if (edges && edges.length) {
  for (var i=0;i<edges.length;i++) {
    if (edges[i].id.substr(0,4)=='edge') {
      edges[i].setAttribute('class','edge');
    }
  }
}
]]></script>
        <defs>
                <circle id="rim" cx="0" cy="0" r="7"/>
                <circle id="rim2" cx="0" cy="0" r="3.5"/>
                <g id="zoomPlus">
                        <use xlink:href="#rim" fill="#404040">
                                <set attributeName="fill" to="#808080" begin="zoomplus.mouseover" end="zoomplus.mouseout"/>
                        </use>
                        <path d="M-4,0h8M0,-4v8" fill="none" stroke="white" stroke-width="1.5" pointer-events="none"/>
                </g>
                <g id="zoomMin">
                        <use xlink:href="#rim" fill="#404040">
                                <set attributeName="fill" to="#808080" begin="zoomminus.mouseover" end="zoomminus.mouseout"/>
                        </use>
                        <path d="M-4,0h8" fill="none" stroke="white" stroke-width="1.5" pointer-events="none"/>
                </g>
                <g id="dirArrow">
                        <path fill="none" stroke="white" stroke-width="1.5" d="M0,-3.0v7 M-2.5,-0.5L0,-3.0L2.5,-0.5"/>
                </g>
               <g id="resetDef">
                       <use xlink:href="#rim2" fill="#404040">
                               <set attributeName="fill" to="#808080" begin="reset.mouseover" end="reset.mouseout"/>
                       </use>
               </g>
        </defs>

<script type="text/javascript">
var viewWidth = 1303;
var viewHeight = 240;
var sectionId = 'dynsection-1';
</script>
<script xlink:href="svgpan.js"/>
<svg id="graph" class="graph">
<g id="viewport">
<title>drake/geometry/meshcat_animation.h</title>
<polygon fill="white" stroke="transparent" points="-4,4 -4,-236 1299,-236 1299,4 -4,4"/>
<!-- Node74 -->
<g id="node1" class="node">
<title>Node74</title>
<g id="a_node1"><a xlink:title=" ">
<polygon fill="#bfbfbf" stroke="black" points="157,-201.5 157,-231.5 296,-231.5 296,-201.5 157,-201.5"/>
<text text-anchor="start" x="165" y="-219.5" font-family="Helvetica,sans-Serif" font-size="10.00">drake/geometry/meshcat</text>
<text text-anchor="middle" x="226.5" y="-208.5" font-family="Helvetica,sans-Serif" font-size="10.00">_animation.h</text>
</a>
</g>
</g>
<!-- Node75 -->
<g id="node2" class="node">
<title>Node75</title>
<g id="a_node2"><a xlink:href="meshcat_8h.html" target="_top" xlink:title=" ">
<polygon fill="white" stroke="black" points="488.5,-145.5 488.5,-164.5 636.5,-164.5 636.5,-145.5 488.5,-145.5"/>
<text text-anchor="middle" x="562.5" y="-152.5" font-family="Helvetica,sans-Serif" font-size="10.00">drake/geometry/meshcat.h</text>
</a>
</g>
</g>
<!-- Node74&#45;&gt;Node75 -->
<g id="edge1" class="edge">
<title>Node74&#45;&gt;Node75</title>
<path fill="none" stroke="midnightblue" d="M306.29,-201.37C371.01,-189.91 460.12,-174.13 514.39,-164.52"/>
<polygon fill="midnightblue" stroke="midnightblue" points="305.36,-197.98 296.12,-203.17 306.58,-204.87 305.36,-197.98"/>
</g>
<!-- Node77 -->
<g id="node4" class="node">
<title>Node77</title>
<g id="a_node4"><a xlink:href="meshcat__types_8h.html" target="_top" xlink:title=" ">
<polygon fill="white" stroke="black" points="0,-73 0,-103 139,-103 139,-73 0,-73"/>
<text text-anchor="start" x="8" y="-91" font-family="Helvetica,sans-Serif" font-size="10.00">drake/geometry/meshcat</text>
<text text-anchor="middle" x="69.5" y="-80" font-family="Helvetica,sans-Serif" font-size="10.00">_types.h</text>
</a>
</g>
</g>
<!-- Node74&#45;&gt;Node77 -->
<g id="edge11" class="edge">
<title>Node74&#45;&gt;Node77</title>
<path fill="none" stroke="midnightblue" d="M201.07,-195.01C169.01,-169.18 114.73,-125.45 86.98,-103.08"/>
<polygon fill="midnightblue" stroke="midnightblue" points="199.12,-197.93 209.1,-201.48 203.51,-192.48 199.12,-197.93"/>
</g>
<!-- Node78 -->
<g id="node5" class="node">
<title>Node78</title>
<g id="a_node5"><a xlink:href="meshcat__visualizer_8h.html" target="_top" xlink:title=" ">
<polygon fill="white" stroke="black" points="157,-73 157,-103 296,-103 296,-73 157,-73"/>
<text text-anchor="start" x="165" y="-91" font-family="Helvetica,sans-Serif" font-size="10.00">drake/geometry/meshcat</text>
<text text-anchor="middle" x="226.5" y="-80" font-family="Helvetica,sans-Serif" font-size="10.00">_visualizer.h</text>
</a>
</g>
</g>
<!-- Node74&#45;&gt;Node78 -->
<g id="edge12" class="edge">
<title>Node74&#45;&gt;Node78</title>
<path fill="none" stroke="midnightblue" d="M226.5,-191.27C226.5,-165.13 226.5,-124.4 226.5,-103.08"/>
<polygon fill="midnightblue" stroke="midnightblue" points="223,-191.48 226.5,-201.48 230,-191.48 223,-191.48"/>
</g>
<!-- Node76 -->
<g id="node3" class="node">
<title>Node76</title>
<g id="a_node3"><a xlink:href="meshcat__point__cloud__visualizer_8h.html" target="_top" xlink:title=" ">
<polygon fill="white" stroke="black" points="314.5,-73 314.5,-103 454.5,-103 454.5,-73 314.5,-73"/>
<text text-anchor="start" x="322.5" y="-91" font-family="Helvetica,sans-Serif" font-size="10.00">drake/geometry/meshcat</text>
<text text-anchor="middle" x="384.5" y="-80" font-family="Helvetica,sans-Serif" font-size="10.00">_point_cloud_visualizer.h</text>
</a>
</g>
</g>
<!-- Node75&#45;&gt;Node76 -->
<g id="edge2" class="edge">
<title>Node75&#45;&gt;Node76</title>
<path fill="none" stroke="midnightblue" d="M529.22,-141.85C499.05,-130.83 454.58,-114.59 422.92,-103.03"/>
<polygon fill="midnightblue" stroke="midnightblue" points="528.27,-145.23 538.86,-145.37 530.67,-138.65 528.27,-145.23"/>
</g>
<!-- Node75&#45;&gt;Node77 -->
<g id="edge3" class="edge">
<title>Node75&#45;&gt;Node77</title>
<path fill="none" stroke="midnightblue" d="M478.39,-148.32C394.4,-141.84 261.83,-129.4 148.5,-109 139.45,-107.37 129.9,-105.28 120.69,-103.07"/>
<polygon fill="midnightblue" stroke="midnightblue" points="478.15,-151.81 488.39,-149.08 478.69,-144.83 478.15,-151.81"/>
</g>
<!-- Node75&#45;&gt;Node78 -->
<g id="edge4" class="edge">
<title>Node75&#45;&gt;Node78</title>
<path fill="none" stroke="midnightblue" d="M496.76,-143.88C444.68,-135.52 370.18,-122.83 305.5,-109 297.2,-107.23 288.45,-105.18 279.92,-103.1"/>
<polygon fill="midnightblue" stroke="midnightblue" points="496.45,-147.37 506.87,-145.49 497.55,-140.46 496.45,-147.37"/>
</g>
<!-- Node79 -->
<g id="node6" class="node">
<title>Node79</title>
<g id="a_node6"><a xlink:href="meshcat__environment_8h.html" target="_top" xlink:title=" ">
<polygon fill="white" stroke="black" points="472.5,-73 472.5,-103 652.5,-103 652.5,-73 472.5,-73"/>
<text text-anchor="start" x="480.5" y="-91" font-family="Helvetica,sans-Serif" font-size="10.00">drake/geometry/test</text>
<text text-anchor="middle" x="562.5" y="-80" font-family="Helvetica,sans-Serif" font-size="10.00">_utilities/meshcat_environment.h</text>
</a>
</g>
</g>
<!-- Node75&#45;&gt;Node79 -->
<g id="edge5" class="edge">
<title>Node75&#45;&gt;Node79</title>
<path fill="none" stroke="midnightblue" d="M562.5,-134.91C562.5,-124.72 562.5,-112.4 562.5,-103.09"/>
<polygon fill="midnightblue" stroke="midnightblue" points="559,-135.23 562.5,-145.23 566,-135.23 559,-135.23"/>
</g>
<!-- Node80 -->
<g id="node7" class="node">
<title>Node80</title>
<g id="a_node7"><a xlink:href="contact__visualizer_8h.html" target="_top" xlink:title=" ">
<polygon fill="white" stroke="black" points="671,-73 671,-103 812,-103 812,-73 671,-73"/>
<text text-anchor="start" x="679" y="-91" font-family="Helvetica,sans-Serif" font-size="10.00">drake/multibody/meshcat</text>
<text text-anchor="middle" x="741.5" y="-80" font-family="Helvetica,sans-Serif" font-size="10.00">/contact_visualizer.h</text>
</a>
</g>
</g>
<!-- Node75&#45;&gt;Node80 -->
<g id="edge6" class="edge">
<title>Node75&#45;&gt;Node80</title>
<path fill="none" stroke="midnightblue" d="M595.97,-141.85C626.31,-130.83 671.02,-114.59 702.87,-103.03"/>
<polygon fill="midnightblue" stroke="midnightblue" points="594.47,-138.67 586.27,-145.37 596.86,-145.25 594.47,-138.67"/>
</g>
<!-- Node82 -->
<g id="node9" class="node">
<title>Node82</title>
<g id="a_node9"><a xlink:href="hydroelastic__contact__visualizer_8h.html" target="_top" xlink:title=" ">
<polygon fill="white" stroke="black" points="830,-67.5 830,-108.5 971,-108.5 971,-67.5 830,-67.5"/>
<text text-anchor="start" x="838" y="-96.5" font-family="Helvetica,sans-Serif" font-size="10.00">drake/multibody/meshcat</text>
<text text-anchor="start" x="838" y="-85.5" font-family="Helvetica,sans-Serif" font-size="10.00">/hydroelastic_contact</text>
<text text-anchor="middle" x="900.5" y="-74.5" font-family="Helvetica,sans-Serif" font-size="10.00">_visualizer.h</text>
</a>
</g>
</g>
<!-- Node75&#45;&gt;Node82 -->
<g id="edge8" class="edge">
<title>Node75&#45;&gt;Node82</title>
<path fill="none" stroke="midnightblue" d="M629,-143.87C681.48,-135.53 756.43,-122.87 821.5,-109 824.27,-108.41 827.08,-107.79 829.93,-107.15"/>
<polygon fill="midnightblue" stroke="midnightblue" points="628.15,-140.46 618.82,-145.48 629.24,-147.38 628.15,-140.46"/>
</g>
<!-- Node83 -->
<g id="node10" class="node">
<title>Node83</title>
<g id="a_node10"><a xlink:href="joint__sliders_8h.html" target="_top" xlink:title=" ">
<polygon fill="white" stroke="black" points="989,-73 989,-103 1130,-103 1130,-73 989,-73"/>
<text text-anchor="start" x="997" y="-91" font-family="Helvetica,sans-Serif" font-size="10.00">drake/multibody/meshcat</text>
<text text-anchor="middle" x="1059.5" y="-80" font-family="Helvetica,sans-Serif" font-size="10.00">/joint_sliders.h</text>
</a>
</g>
</g>
<!-- Node75&#45;&gt;Node83 -->
<g id="edge9" class="edge">
<title>Node75&#45;&gt;Node83</title>
<path fill="none" stroke="midnightblue" d="M646.65,-148.44C731.42,-142.01 865.73,-129.6 980.5,-109 989.55,-107.38 999.1,-105.29 1008.31,-103.07"/>
<polygon fill="midnightblue" stroke="midnightblue" points="646.28,-144.95 636.57,-149.19 646.8,-151.93 646.28,-144.95"/>
</g>
<!-- Node84 -->
<g id="node11" class="node">
<title>Node84</title>
<g id="a_node11"><a xlink:href="point__contact__visualizer_8h.html" target="_top" xlink:title=" ">
<polygon fill="white" stroke="black" points="1148,-73 1148,-103 1295,-103 1295,-73 1148,-73"/>
<text text-anchor="start" x="1156" y="-91" font-family="Helvetica,sans-Serif" font-size="10.00">drake/multibody/meshcat</text>
<text text-anchor="middle" x="1221.5" y="-80" font-family="Helvetica,sans-Serif" font-size="10.00">/point_contact_visualizer.h</text>
</a>
</g>
</g>
<!-- Node75&#45;&gt;Node84 -->
<g id="edge10" class="edge">
<title>Node75&#45;&gt;Node84</title>
<path fill="none" stroke="midnightblue" d="M647.02,-151.68C759.91,-147.6 965.83,-136.76 1139.5,-109 1149.19,-107.45 1159.43,-105.34 1169.26,-103.07"/>
<polygon fill="midnightblue" stroke="midnightblue" points="646.6,-148.19 636.73,-152.04 646.84,-155.18 646.6,-148.19"/>
</g>
<!-- Node81 -->
<g id="node8" class="node">
<title>Node81</title>
<g id="a_node8"><a xlink:href="contact__results__to__meshcat_8h.html" target="_top" xlink:title=" ">
<polygon fill="white" stroke="black" points="659,-0.5 659,-30.5 824,-30.5 824,-0.5 659,-0.5"/>
<text text-anchor="start" x="667" y="-18.5" font-family="Helvetica,sans-Serif" font-size="10.00">drake/multibody/plant</text>
<text text-anchor="middle" x="741.5" y="-7.5" font-family="Helvetica,sans-Serif" font-size="10.00">/contact_results_to_meshcat.h</text>
</a>
</g>
</g>
<!-- Node80&#45;&gt;Node81 -->
<g id="edge7" class="edge">
<title>Node80&#45;&gt;Node81</title>
<path fill="none" stroke="midnightblue" d="M741.5,-62.73C741.5,-52.07 741.5,-39.91 741.5,-30.75"/>
<polygon fill="midnightblue" stroke="midnightblue" points="738,-62.73 741.5,-72.73 745,-62.73 738,-62.73"/>
</g>
</g>
</svg>
        <g id="navigator" transform="translate(0 0)" fill="#404254">
                <rect fill="#f2f5e9" fill-opacity="0.5" stroke="#606060" stroke-width=".5" x="0" y="0" width="60" height="60"/>
                <use id="zoomplus" xlink:href="#zoomPlus" x="17" y="9" onmousedown="handleZoom(evt,'in')"/>
                <use id="zoomminus" xlink:href="#zoomMin" x="42" y="9" onmousedown="handleZoom(evt,'out')"/>
                <use id="reset" xlink:href="#resetDef" x="30" y="36" onmousedown="handleReset()"/>
                <g id="arrowUp" xlink:href="#dirArrow" transform="translate(30 24)" onmousedown="handlePan(0,-1)">
                  <use xlink:href="#rim" fill="#404040">
                        <set attributeName="fill" to="#808080" begin="arrowUp.mouseover" end="arrowUp.mouseout"/>
                  </use>
                  <path fill="none" stroke="white" stroke-width="1.5" d="M0,-3.0v7 M-2.5,-0.5L0,-3.0L2.5,-0.5"/>
                </g>
                <g id="arrowRight" xlink:href="#dirArrow" transform="rotate(90) translate(36 -43)" onmousedown="handlePan(1,0)">
                  <use xlink:href="#rim" fill="#404040">
                        <set attributeName="fill" to="#808080" begin="arrowRight.mouseover" end="arrowRight.mouseout"/>
                  </use>
                  <path fill="none" stroke="white" stroke-width="1.5" d="M0,-3.0v7 M-2.5,-0.5L0,-3.0L2.5,-0.5"/>
                </g>
                <g id="arrowDown" xlink:href="#dirArrow" transform="rotate(180) translate(-30 -48)" onmousedown="handlePan(0,1)">
                  <use xlink:href="#rim" fill="#404040">
                        <set attributeName="fill" to="#808080" begin="arrowDown.mouseover" end="arrowDown.mouseout"/>
                  </use>
                  <path fill="none" stroke="white" stroke-width="1.5" d="M0,-3.0v7 M-2.5,-0.5L0,-3.0L2.5,-0.5"/>
                </g>
                <g id="arrowLeft" xlink:href="#dirArrow" transform="rotate(270) translate(-36 17)" onmousedown="handlePan(-1,0)">
                  <use xlink:href="#rim" fill="#404040">
                        <set attributeName="fill" to="#808080" begin="arrowLeft.mouseover" end="arrowLeft.mouseout"/>
                  </use>
                  <path fill="none" stroke="white" stroke-width="1.5" d="M0,-3.0v7 M-2.5,-0.5L0,-3.0L2.5,-0.5"/>
                </g>
        </g>
        <svg viewBox="0 0 15 15" width="100%" height="30px" preserveAspectRatio="xMaxYMin meet">
         <g id="arrow_out" transform="scale(0.3 0.3)">
          <a xlink:href="meshcat__animation_8h__dep__incl_org.svg" target="_base">
           <rect id="button" ry="5" rx="5" y="6" x="6" height="38" width="38"
                fill="#f2f5e9" fill-opacity="0.5" stroke="#606060" stroke-width="1.0"/>
           <path id="arrow"
             d="M 11.500037,31.436501 C 11.940474,20.09759 22.043105,11.32322 32.158766,21.979434 L 37.068811,17.246167 C 37.068811,17.246167 37.088388,32 37.088388,32 L 22.160133,31.978069 C 22.160133,31.978069 26.997745,27.140456 26.997745,27.140456 C 18.528582,18.264221 13.291696,25.230495 11.500037,31.436501 z"
             style="fill:#404040;"/>
          </a>
         </g>
        </svg>
</svg>
