<?xml version="1.0" encoding="UTF-8" standalone="no"?>
<!DOCTYPE svg PUBLIC "-//W3C//DTD SVG 1.1//EN"
 "http://www.w3.org/Graphics/SVG/1.1/DTD/svg11.dtd">
<!-- Generated by graphviz version 2.43.0 (0)
 -->
<!-- Title: drake/geometry/meshcat_visualizer_params.h Pages: 1 -->
<svg width="2226pt" height="486pt"
 viewBox="0.00 0.00 2226.00 486.00" xmlns="http://www.w3.org/2000/svg" xmlns:xlink="http://www.w3.org/1999/xlink">
<g id="graph0" class="graph" transform="scale(1 1) rotate(0) translate(4 482)">
<title>drake/geometry/meshcat_visualizer_params.h</title>
<polygon fill="white" stroke="transparent" points="-4,4 -4,-482 2222,-482 2222,4 -4,4"/>
<!-- Node0 -->
<g id="node1" class="node">
<title>Node0</title>
<g id="a_node1"><a xlink:title=" ">
<polygon fill="#bfbfbf" stroke="black" points="444.5,-447.5 444.5,-477.5 583.5,-477.5 583.5,-447.5 444.5,-447.5"/>
<text text-anchor="start" x="452.5" y="-465.5" font-family="Helvetica,sans-Serif" font-size="10.00">drake/geometry/meshcat</text>
<text text-anchor="middle" x="514" y="-454.5" font-family="Helvetica,sans-Serif" font-size="10.00">_visualizer_params.h</text>
</a>
</g>
</g>
<!-- Node1 -->
<g id="node2" class="node">
<title>Node1</title>
<g id="a_node2"><a xlink:title=" ">
<polygon fill="white" stroke="#bfbfbf" points="2158,-129 2158,-148 2202,-148 2202,-129 2158,-129"/>
<text text-anchor="middle" x="2180" y="-136" font-family="Helvetica,sans-Serif" font-size="10.00">string</text>
</a>
</g>
</g>
<!-- Node0&#45;&gt;Node1 -->
<g id="edge1" class="edge">
<title>Node0&#45;&gt;Node1</title>
<path fill="none" stroke="midnightblue" d="M583.71,-459.81C903.89,-451.61 2218,-412.88 2218,-329.5 2218,-329.5 2218,-329.5 2218,-266 2218,-225.85 2200.22,-181.45 2188.99,-157.39"/>
<polygon fill="midnightblue" stroke="midnightblue" points="2192.01,-155.6 2184.51,-148.13 2185.71,-158.65 2192.01,-155.6"/>
</g>
<!-- Node2 -->
<g id="node3" class="node">
<title>Node2</title>
<g id="a_node3"><a xlink:href="name__value_8h.html" target="_top" xlink:title=" ">
<polygon fill="white" stroke="black" points="28.5,-196 28.5,-215 189.5,-215 189.5,-196 28.5,-196"/>
<text text-anchor="middle" x="109" y="-203" font-family="Helvetica,sans-Serif" font-size="10.00">drake/common/name_value.h</text>
</a>
</g>
</g>
<!-- Node0&#45;&gt;Node2 -->
<g id="edge2" class="edge">
<title>Node0&#45;&gt;Node2</title>
<path fill="none" stroke="midnightblue" d="M491.65,-447.43C420.87,-402.86 202.16,-265.16 131.36,-220.58"/>
<polygon fill="midnightblue" stroke="midnightblue" points="133.08,-217.52 122.75,-215.16 129.35,-223.45 133.08,-217.52"/>
</g>
<!-- Node6 -->
<g id="node7" class="node">
<title>Node6</title>
<g id="a_node7"><a xlink:href="geometry__roles_8h.html" target="_top" xlink:title=" ">
<polygon fill="white" stroke="black" points="492,-380.5 492,-410.5 636,-410.5 636,-380.5 492,-380.5"/>
<text text-anchor="start" x="500" y="-398.5" font-family="Helvetica,sans-Serif" font-size="10.00">drake/geometry/geometry</text>
<text text-anchor="middle" x="564" y="-387.5" font-family="Helvetica,sans-Serif" font-size="10.00">_roles.h</text>
</a>
</g>
</g>
<!-- Node0&#45;&gt;Node6 -->
<g id="edge6" class="edge">
<title>Node0&#45;&gt;Node6</title>
<path fill="none" stroke="midnightblue" d="M524.85,-447.4C531.34,-438.96 539.72,-428.07 547.06,-418.52"/>
<polygon fill="midnightblue" stroke="midnightblue" points="549.85,-420.64 553.17,-410.58 544.3,-416.37 549.85,-420.64"/>
</g>
<!-- Node39 -->
<g id="node40" class="node">
<title>Node39</title>
<g id="a_node40"><a xlink:href="rgba_8h.html" target="_top" xlink:title=" ">
<polygon fill="white" stroke="black" points="330,-257.5 330,-276.5 458,-276.5 458,-257.5 330,-257.5"/>
<text text-anchor="middle" x="394" y="-264.5" font-family="Helvetica,sans-Serif" font-size="10.00">drake/geometry/rgba.h</text>
</a>
</g>
</g>
<!-- Node0&#45;&gt;Node39 -->
<g id="edge86" class="edge">
<title>Node0&#45;&gt;Node39</title>
<path fill="none" stroke="midnightblue" d="M505.18,-447.27C483.61,-412.5 428.29,-323.3 404.81,-285.42"/>
<polygon fill="midnightblue" stroke="midnightblue" points="407.56,-283.23 399.32,-276.58 401.61,-286.92 407.56,-283.23"/>
</g>
<!-- Node3 -->
<g id="node4" class="node">
<title>Node3</title>
<g id="a_node4"><a xlink:href="drake__assert_8h.html" target="_top" xlink:title="Provides Drake&#39;s assertion implementation.">
<polygon fill="white" stroke="black" points="892.5,-56.5 892.5,-86.5 1011.5,-86.5 1011.5,-56.5 892.5,-56.5"/>
<text text-anchor="start" x="900.5" y="-74.5" font-family="Helvetica,sans-Serif" font-size="10.00">drake/common/drake</text>
<text text-anchor="middle" x="952" y="-63.5" font-family="Helvetica,sans-Serif" font-size="10.00">_assert.h</text>
</a>
</g>
</g>
<!-- Node2&#45;&gt;Node3 -->
<g id="edge3" class="edge">
<title>Node2&#45;&gt;Node3</title>
<path fill="none" stroke="midnightblue" d="M112.54,-195.85C120.21,-178.4 140.18,-139.26 171,-123 238.83,-87.22 768.43,-96.61 882.18,-86.85"/>
<polygon fill="midnightblue" stroke="midnightblue" points="882.81,-90.3 892.39,-85.77 882.08,-83.34 882.81,-90.3"/>
</g>
<!-- Node5 -->
<g id="node6" class="node">
<title>Node5</title>
<g id="a_node6"><a xlink:href="drake__copyable_8h.html" target="_top" xlink:title="Provides careful macros to selectively enable or disable the special member functions for copy&#45;constr...">
<polygon fill="white" stroke="black" points="35.5,-56.5 35.5,-86.5 154.5,-86.5 154.5,-56.5 35.5,-56.5"/>
<text text-anchor="start" x="43.5" y="-74.5" font-family="Helvetica,sans-Serif" font-size="10.00">drake/common/drake</text>
<text text-anchor="middle" x="95" y="-63.5" font-family="Helvetica,sans-Serif" font-size="10.00">_copyable.h</text>
</a>
</g>
</g>
<!-- Node2&#45;&gt;Node5 -->
<g id="edge5" class="edge">
<title>Node2&#45;&gt;Node5</title>
<path fill="none" stroke="midnightblue" d="M96.66,-195.71C85.21,-186.72 68.93,-171.61 62,-154 54.13,-133.98 64.92,-111.31 76.21,-94.97"/>
<polygon fill="midnightblue" stroke="midnightblue" points="79.28,-96.72 82.42,-86.6 73.65,-92.54 79.28,-96.72"/>
</g>
<!-- Node4 -->
<g id="node5" class="node">
<title>Node4</title>
<g id="a_node5"><a xlink:title=" ">
<polygon fill="white" stroke="#bfbfbf" points="1938.5,-0.5 1938.5,-19.5 2007.5,-19.5 2007.5,-0.5 1938.5,-0.5"/>
<text text-anchor="middle" x="1973" y="-7.5" font-family="Helvetica,sans-Serif" font-size="10.00">type_traits</text>
</a>
</g>
</g>
<!-- Node3&#45;&gt;Node4 -->
<g id="edge4" class="edge">
<title>Node3&#45;&gt;Node4</title>
<path fill="none" stroke="midnightblue" d="M1011.74,-57.34C1014.86,-56.84 1017.96,-56.39 1021,-56 1368.11,-11.61 1791.44,-9.85 1928.15,-10.58"/>
<polygon fill="midnightblue" stroke="midnightblue" points="1928.22,-14.08 1938.25,-10.64 1928.27,-7.08 1928.22,-14.08"/>
</g>
<!-- Node6&#45;&gt;Node1 -->
<g id="edge8" class="edge">
<title>Node6&#45;&gt;Node1</title>
<path fill="none" stroke="midnightblue" d="M636.13,-394.96C846.23,-394.94 1474.96,-385.13 1982,-277 2057.33,-260.94 2089.77,-273.63 2146,-221 2163.89,-204.26 2172.69,-176.65 2176.78,-158.27"/>
<polygon fill="midnightblue" stroke="midnightblue" points="2180.27,-158.69 2178.76,-148.2 2173.4,-157.34 2180.27,-158.69"/>
</g>
<!-- Node6&#45;&gt;Node5 -->
<g id="edge9" class="edge">
<title>Node6&#45;&gt;Node5</title>
<path fill="none" stroke="midnightblue" d="M492,-393.31C339.95,-388.85 0,-367.72 0,-268 0,-268 0,-268 0,-204.5 0,-157.99 39.34,-116.68 67.39,-93.13"/>
<polygon fill="midnightblue" stroke="midnightblue" points="69.76,-95.71 75.32,-86.69 65.35,-90.28 69.76,-95.71"/>
</g>
<!-- Node7 -->
<g id="node8" class="node">
<title>Node7</title>
<g id="a_node8"><a xlink:title=" ">
<polygon fill="white" stroke="#bfbfbf" points="594.5,-129 594.5,-148 651.5,-148 651.5,-129 594.5,-129"/>
<text text-anchor="middle" x="623" y="-136" font-family="Helvetica,sans-Serif" font-size="10.00">ostream</text>
</a>
</g>
</g>
<!-- Node6&#45;&gt;Node7 -->
<g id="edge7" class="edge">
<title>Node6&#45;&gt;Node7</title>
<path fill="none" stroke="midnightblue" d="M567.27,-380.11C574.87,-346.71 594.34,-261.3 611,-190 613.48,-179.4 616.29,-167.57 618.56,-158.02"/>
<polygon fill="midnightblue" stroke="midnightblue" points="622.02,-158.61 620.94,-148.07 615.21,-156.99 622.02,-158.61"/>
</g>
<!-- Node8 -->
<g id="node9" class="node">
<title>Node8</title>
<g id="a_node9"><a xlink:href="eigen__types_8h.html" target="_top" xlink:title="This file contains abbreviated definitions for certain specializations of Eigen::Matrix that are comm...">
<polygon fill="white" stroke="black" points="334.5,-190.5 334.5,-220.5 453.5,-220.5 453.5,-190.5 334.5,-190.5"/>
<text text-anchor="start" x="342.5" y="-208.5" font-family="Helvetica,sans-Serif" font-size="10.00">drake/common/eigen</text>
<text text-anchor="middle" x="394" y="-197.5" font-family="Helvetica,sans-Serif" font-size="10.00">_types.h</text>
</a>
</g>
</g>
<!-- Node6&#45;&gt;Node8 -->
<g id="edge10" class="edge">
<title>Node6&#45;&gt;Node8</title>
<path fill="none" stroke="midnightblue" d="M556.31,-380.42C541.48,-354.08 506.84,-296.48 467,-257 455.35,-245.45 440.77,-234.78 427.7,-226.25"/>
<polygon fill="midnightblue" stroke="midnightblue" points="429.28,-223.1 418.96,-220.7 425.53,-229.01 429.28,-223.1"/>
</g>
<!-- Node13 -->
<g id="node14" class="node">
<title>Node13</title>
<g id="a_node14"><a xlink:href="fmt__ostream_8h.html" target="_top" xlink:title=" ">
<polygon fill="white" stroke="black" points="628,-257.5 628,-276.5 792,-276.5 792,-257.5 628,-257.5"/>
<text text-anchor="middle" x="710" y="-264.5" font-family="Helvetica,sans-Serif" font-size="10.00">drake/common/fmt_ostream.h</text>
</a>
</g>
</g>
<!-- Node6&#45;&gt;Node13 -->
<g id="edge18" class="edge">
<title>Node6&#45;&gt;Node13</title>
<path fill="none" stroke="midnightblue" d="M580.18,-380.48C607.75,-356.59 663.62,-308.19 692.23,-283.39"/>
<polygon fill="midnightblue" stroke="midnightblue" points="694.59,-285.98 699.86,-276.79 690.01,-280.69 694.59,-285.98"/>
</g>
<!-- Node19 -->
<g id="node20" class="node">
<title>Node19</title>
<g id="a_node20"><a xlink:href="geometry__properties_8h.html" target="_top" xlink:title=" ">
<polygon fill="white" stroke="black" points="1096,-313.5 1096,-343.5 1240,-343.5 1240,-313.5 1096,-313.5"/>
<text text-anchor="start" x="1104" y="-331.5" font-family="Helvetica,sans-Serif" font-size="10.00">drake/geometry/geometry</text>
<text text-anchor="middle" x="1168" y="-320.5" font-family="Helvetica,sans-Serif" font-size="10.00">_properties.h</text>
</a>
</g>
</g>
<!-- Node6&#45;&gt;Node19 -->
<g id="edge25" class="edge">
<title>Node6&#45;&gt;Node19</title>
<path fill="none" stroke="midnightblue" d="M636.26,-386.72C749.14,-374.58 966.67,-351.17 1085.52,-338.38"/>
<polygon fill="midnightblue" stroke="midnightblue" points="1086.09,-341.83 1095.66,-337.28 1085.34,-334.88 1086.09,-341.83"/>
</g>
<!-- Node8&#45;&gt;Node3 -->
<g id="edge15" class="edge">
<title>Node8&#45;&gt;Node3</title>
<path fill="none" stroke="midnightblue" d="M393.66,-190.38C394.05,-171.73 397.83,-139.34 418,-123 456.5,-91.82 798.95,-94.13 882.22,-86.81"/>
<polygon fill="midnightblue" stroke="midnightblue" points="882.82,-90.27 892.38,-85.68 882.05,-83.31 882.82,-90.27"/>
</g>
<!-- Node8&#45;&gt;Node5 -->
<g id="edge16" class="edge">
<title>Node8&#45;&gt;Node5</title>
<path fill="none" stroke="midnightblue" d="M334.18,-200.59C287.17,-195.32 221.42,-182.97 171,-154 145.66,-139.44 123.76,-113.68 110.06,-95.01"/>
<polygon fill="midnightblue" stroke="midnightblue" points="112.84,-92.87 104.19,-86.75 107.13,-96.93 112.84,-92.87"/>
</g>
<!-- Node9 -->
<g id="node10" class="node">
<title>Node9</title>
<g id="a_node10"><a xlink:title=" ">
<polygon fill="white" stroke="#bfbfbf" points="1123.5,-62 1123.5,-81 1168.5,-81 1168.5,-62 1123.5,-62"/>
<text text-anchor="middle" x="1146" y="-69" font-family="Helvetica,sans-Serif" font-size="10.00">utility</text>
</a>
</g>
</g>
<!-- Node8&#45;&gt;Node9 -->
<g id="edge11" class="edge">
<title>Node8&#45;&gt;Node9</title>
<path fill="none" stroke="midnightblue" d="M399.48,-190.25C407.67,-171.14 425.1,-137.87 452,-123 512.78,-89.4 1007.15,-96.07 1076,-87 1088.37,-85.37 1101.82,-82.78 1113.6,-80.24"/>
<polygon fill="midnightblue" stroke="midnightblue" points="1114.45,-83.64 1123.45,-78.05 1112.92,-76.81 1114.45,-83.64"/>
</g>
<!-- Node10 -->
<g id="node11" class="node">
<title>Node10</title>
<g id="a_node11"><a xlink:title=" ">
<polygon fill="white" stroke="#bfbfbf" points="460.5,-129 460.5,-148 537.5,-148 537.5,-129 460.5,-129"/>
<text text-anchor="middle" x="499" y="-136" font-family="Helvetica,sans-Serif" font-size="10.00">Eigen/Dense</text>
</a>
</g>
</g>
<!-- Node8&#45;&gt;Node10 -->
<g id="edge12" class="edge">
<title>Node8&#45;&gt;Node10</title>
<path fill="none" stroke="midnightblue" d="M416.78,-190.4C434.55,-179.39 459.1,-164.2 476.74,-153.28"/>
<polygon fill="midnightblue" stroke="midnightblue" points="478.6,-156.25 485.26,-148.01 474.91,-150.29 478.6,-156.25"/>
</g>
<!-- Node11 -->
<g id="node12" class="node">
<title>Node11</title>
<g id="a_node12"><a xlink:href="constants_8h.html" target="_top" xlink:title=" ">
<polygon fill="white" stroke="black" points="179.5,-129 179.5,-148 328.5,-148 328.5,-129 179.5,-129"/>
<text text-anchor="middle" x="254" y="-136" font-family="Helvetica,sans-Serif" font-size="10.00">drake/common/constants.h</text>
</a>
</g>
</g>
<!-- Node8&#45;&gt;Node11 -->
<g id="edge13" class="edge">
<title>Node8&#45;&gt;Node11</title>
<path fill="none" stroke="midnightblue" d="M363.62,-190.4C339.17,-179.04 305.09,-163.22 281.45,-152.24"/>
<polygon fill="midnightblue" stroke="midnightblue" points="282.87,-149.04 272.32,-148.01 279.92,-155.39 282.87,-149.04"/>
</g>
<!-- Node12 -->
<g id="node13" class="node">
<title>Node12</title>
<g id="a_node13"><a xlink:href="drake__deprecated_8h.html" target="_top" xlink:title="Provides a portable macro for use in generating compile&#45;time warnings for use of code that is permitt...">
<polygon fill="white" stroke="black" points="296.5,-56.5 296.5,-86.5 415.5,-86.5 415.5,-56.5 296.5,-56.5"/>
<text text-anchor="start" x="304.5" y="-74.5" font-family="Helvetica,sans-Serif" font-size="10.00">drake/common/drake</text>
<text text-anchor="middle" x="356" y="-63.5" font-family="Helvetica,sans-Serif" font-size="10.00">_deprecated.h</text>
</a>
</g>
</g>
<!-- Node8&#45;&gt;Node12 -->
<g id="edge17" class="edge">
<title>Node8&#45;&gt;Node12</title>
<path fill="none" stroke="midnightblue" d="M389.93,-190.37C383.48,-167.94 370.8,-123.92 362.9,-96.49"/>
<polygon fill="midnightblue" stroke="midnightblue" points="366.17,-95.17 360.04,-86.52 359.44,-97.1 366.17,-95.17"/>
</g>
<!-- Node11&#45;&gt;Node12 -->
<g id="edge14" class="edge">
<title>Node11&#45;&gt;Node12</title>
<path fill="none" stroke="midnightblue" d="M267.76,-128.73C282.47,-119.36 306.27,-104.19 325.45,-91.97"/>
<polygon fill="midnightblue" stroke="midnightblue" points="327.34,-94.91 333.89,-86.59 323.58,-89.01 327.34,-94.91"/>
</g>
<!-- Node14 -->
<g id="node15" class="node">
<title>Node14</title>
<g id="a_node15"><a xlink:title=" ">
<polygon fill="white" stroke="#bfbfbf" points="734,-196 734,-215 790,-215 790,-196 734,-196"/>
<text text-anchor="middle" x="762" y="-203" font-family="Helvetica,sans-Serif" font-size="10.00">sstream</text>
</a>
</g>
</g>
<!-- Node13&#45;&gt;Node14 -->
<g id="edge19" class="edge">
<title>Node13&#45;&gt;Node14</title>
<path fill="none" stroke="midnightblue" d="M717.45,-257.48C725.33,-248.46 737.94,-234.02 747.74,-222.81"/>
<polygon fill="midnightblue" stroke="midnightblue" points="750.62,-224.84 754.56,-215.01 745.35,-220.24 750.62,-224.84"/>
</g>
<!-- Node15 -->
<g id="node16" class="node">
<title>Node15</title>
<g id="a_node16"><a xlink:title=" ">
<polygon fill="white" stroke="#bfbfbf" points="801.5,-62 801.5,-81 874.5,-81 874.5,-62 801.5,-62"/>
<text text-anchor="middle" x="838" y="-69" font-family="Helvetica,sans-Serif" font-size="10.00">string_view</text>
</a>
</g>
</g>
<!-- Node13&#45;&gt;Node15 -->
<g id="edge20" class="edge">
<title>Node13&#45;&gt;Node15</title>
<path fill="none" stroke="midnightblue" d="M736.24,-257.42C755.41,-250.12 781.08,-238.08 799,-221 823.78,-197.38 828.06,-187.05 837,-154 842.64,-133.13 841.91,-108.15 840.4,-91.4"/>
<polygon fill="midnightblue" stroke="midnightblue" points="843.86,-90.82 839.3,-81.26 836.9,-91.58 843.86,-90.82"/>
</g>
<!-- Node16 -->
<g id="node17" class="node">
<title>Node16</title>
<g id="a_node17"><a xlink:title=" ">
<polygon fill="white" stroke="#bfbfbf" points="630,-196 630,-215 716,-215 716,-196 630,-196"/>
<text text-anchor="middle" x="673" y="-203" font-family="Helvetica,sans-Serif" font-size="10.00">fmt/ostream.h</text>
</a>
</g>
</g>
<!-- Node13&#45;&gt;Node16 -->
<g id="edge21" class="edge">
<title>Node13&#45;&gt;Node16</title>
<path fill="none" stroke="midnightblue" d="M704.7,-257.48C699.26,-248.73 690.64,-234.87 683.76,-223.81"/>
<polygon fill="midnightblue" stroke="midnightblue" points="686.54,-221.65 678.29,-215.01 680.6,-225.35 686.54,-221.65"/>
</g>
<!-- Node17 -->
<g id="node18" class="node">
<title>Node17</title>
<g id="a_node18"><a xlink:href="fmt_8h.html" target="_top" xlink:title=" ">
<polygon fill="white" stroke="black" points="708.5,-129 708.5,-148 827.5,-148 827.5,-129 708.5,-129"/>
<text text-anchor="middle" x="768" y="-136" font-family="Helvetica,sans-Serif" font-size="10.00">drake/common/fmt.h</text>
</a>
</g>
</g>
<!-- Node13&#45;&gt;Node17 -->
<g id="edge22" class="edge">
<title>Node13&#45;&gt;Node17</title>
<path fill="none" stroke="midnightblue" d="M673.3,-257.35C654.17,-250.77 632.43,-239.58 621,-221 613.78,-209.26 613,-201.21 621,-190 638.74,-165.15 669.52,-152.4 698.34,-145.91"/>
<polygon fill="midnightblue" stroke="midnightblue" points="699.33,-149.28 708.43,-143.86 697.94,-142.42 699.33,-149.28"/>
</g>
<!-- Node17&#45;&gt;Node15 -->
<g id="edge23" class="edge">
<title>Node17&#45;&gt;Node15</title>
<path fill="none" stroke="midnightblue" d="M777.44,-128.73C788.67,-118.31 807.62,-100.71 821.34,-87.97"/>
<polygon fill="midnightblue" stroke="midnightblue" points="823.76,-90.5 828.71,-81.13 819,-85.37 823.76,-90.5"/>
</g>
<!-- Node18 -->
<g id="node19" class="node">
<title>Node18</title>
<g id="a_node19"><a xlink:title=" ">
<polygon fill="white" stroke="#bfbfbf" points="704.5,-62 704.5,-81 783.5,-81 783.5,-62 704.5,-62"/>
<text text-anchor="middle" x="744" y="-69" font-family="Helvetica,sans-Serif" font-size="10.00">fmt/format.h</text>
</a>
</g>
</g>
<!-- Node17&#45;&gt;Node18 -->
<g id="edge24" class="edge">
<title>Node17&#45;&gt;Node18</title>
<path fill="none" stroke="midnightblue" d="M764.76,-128.73C761.16,-118.99 755.25,-102.98 750.66,-90.53"/>
<polygon fill="midnightblue" stroke="midnightblue" points="753.93,-89.3 747.19,-81.13 747.37,-91.72 753.93,-89.3"/>
</g>
<!-- Node19&#45;&gt;Node1 -->
<g id="edge29" class="edge">
<title>Node19&#45;&gt;Node1</title>
<path fill="none" stroke="midnightblue" d="M1240.04,-326.64C1434.65,-323.19 1966.32,-306.02 2116,-221 2141.98,-206.25 2161.18,-176.34 2171.47,-157.15"/>
<polygon fill="midnightblue" stroke="midnightblue" points="2174.6,-158.72 2176.03,-148.23 2168.36,-155.54 2174.6,-158.72"/>
</g>
<!-- Node19&#45;&gt;Node10 -->
<g id="edge33" class="edge">
<title>Node19&#45;&gt;Node10</title>
<path fill="none" stroke="midnightblue" d="M1095.79,-327.41C1034.88,-324.5 947.14,-313.45 880,-277 833.57,-251.79 845.79,-214.53 799,-190 700.75,-138.48 660.59,-176.68 552,-154 547.29,-153.02 542.37,-151.86 537.52,-150.63"/>
<polygon fill="midnightblue" stroke="midnightblue" points="538.29,-147.21 527.73,-148.05 536.5,-153.98 538.29,-147.21"/>
</g>
<!-- Node19&#45;&gt;Node13 -->
<g id="edge42" class="edge">
<title>Node19&#45;&gt;Node13</title>
<path fill="none" stroke="midnightblue" d="M1095.93,-318.14C1011.36,-307.15 871.78,-289.02 785.68,-277.83"/>
<polygon fill="midnightblue" stroke="midnightblue" points="786.08,-274.35 775.71,-276.54 785.17,-281.3 786.08,-274.35"/>
</g>
<!-- Node19&#45;&gt;Node15 -->
<g id="edge30" class="edge">
<title>Node19&#45;&gt;Node15</title>
<path fill="none" stroke="midnightblue" d="M1099.68,-313.4C1071.87,-305.58 1040.37,-293.91 1015,-277 936.85,-224.89 872.75,-129.35 848.47,-90.07"/>
<polygon fill="midnightblue" stroke="midnightblue" points="851.36,-88.08 843.17,-81.36 845.38,-91.72 851.36,-88.08"/>
</g>
<!-- Node20 -->
<g id="node21" class="node">
<title>Node20</title>
<g id="a_node21"><a xlink:title=" ">
<polygon fill="white" stroke="#bfbfbf" points="1500.5,-129 1500.5,-148 1565.5,-148 1565.5,-129 1500.5,-129"/>
<text text-anchor="middle" x="1533" y="-136" font-family="Helvetica,sans-Serif" font-size="10.00">functional</text>
</a>
</g>
</g>
<!-- Node19&#45;&gt;Node20 -->
<g id="edge26" class="edge">
<title>Node19&#45;&gt;Node20</title>
<path fill="none" stroke="midnightblue" d="M1240.07,-322.69C1316.29,-316.33 1430.23,-302.77 1465,-277 1504.65,-247.61 1522.53,-188.72 1529.38,-158.43"/>
<polygon fill="midnightblue" stroke="midnightblue" points="1532.87,-158.86 1531.49,-148.35 1526.02,-157.42 1532.87,-158.86"/>
</g>
<!-- Node21 -->
<g id="node22" class="node">
<title>Node21</title>
<g id="a_node22"><a xlink:title=" ">
<polygon fill="white" stroke="#bfbfbf" points="1321,-129 1321,-148 1379,-148 1379,-129 1321,-129"/>
<text text-anchor="middle" x="1350" y="-136" font-family="Helvetica,sans-Serif" font-size="10.00">memory</text>
</a>
</g>
</g>
<!-- Node19&#45;&gt;Node21 -->
<g id="edge27" class="edge">
<title>Node19&#45;&gt;Node21</title>
<path fill="none" stroke="midnightblue" d="M1181.68,-313.37C1214.88,-279.07 1299.57,-191.6 1334.53,-155.48"/>
<polygon fill="midnightblue" stroke="midnightblue" points="1337.13,-157.83 1341.57,-148.21 1332.1,-152.96 1337.13,-157.83"/>
</g>
<!-- Node22 -->
<g id="node23" class="node">
<title>Node22</title>
<g id="a_node23"><a xlink:title=" ">
<polygon fill="white" stroke="#bfbfbf" points="1584,-129 1584,-148 1616,-148 1616,-129 1584,-129"/>
<text text-anchor="middle" x="1600" y="-136" font-family="Helvetica,sans-Serif" font-size="10.00">set</text>
</a>
</g>
</g>
<!-- Node19&#45;&gt;Node22 -->
<g id="edge28" class="edge">
<title>Node19&#45;&gt;Node22</title>
<path fill="none" stroke="midnightblue" d="M1240.2,-322.11C1321.29,-315.03 1446.92,-300.62 1488,-277 1538.36,-248.04 1575.32,-187.08 1591.28,-157.02"/>
<polygon fill="midnightblue" stroke="midnightblue" points="1594.41,-158.59 1595.88,-148.1 1588.19,-155.39 1594.41,-158.59"/>
</g>
<!-- Node23 -->
<g id="node24" class="node">
<title>Node23</title>
<g id="a_node24"><a xlink:title=" ">
<polygon fill="white" stroke="#bfbfbf" points="1174.5,-129 1174.5,-148 1231.5,-148 1231.5,-129 1174.5,-129"/>
<text text-anchor="middle" x="1203" y="-136" font-family="Helvetica,sans-Serif" font-size="10.00">typeinfo</text>
</a>
</g>
</g>
<!-- Node19&#45;&gt;Node23 -->
<g id="edge31" class="edge">
<title>Node19&#45;&gt;Node23</title>
<path fill="none" stroke="midnightblue" d="M1170.63,-313.37C1176.85,-279.94 1192.49,-195.97 1199.5,-158.3"/>
<polygon fill="midnightblue" stroke="midnightblue" points="1202.99,-158.68 1201.38,-148.21 1196.11,-157.4 1202.99,-158.68"/>
</g>
<!-- Node24 -->
<g id="node25" class="node">
<title>Node24</title>
<g id="a_node25"><a xlink:title=" ">
<polygon fill="white" stroke="#bfbfbf" points="1578.5,-257.5 1578.5,-276.5 1671.5,-276.5 1671.5,-257.5 1578.5,-257.5"/>
<text text-anchor="middle" x="1625" y="-264.5" font-family="Helvetica,sans-Serif" font-size="10.00">unordered_map</text>
</a>
</g>
</g>
<!-- Node19&#45;&gt;Node24 -->
<g id="edge32" class="edge">
<title>Node19&#45;&gt;Node24</title>
<path fill="none" stroke="midnightblue" d="M1240.32,-318.71C1319.75,-308.96 1451.05,-292.53 1564,-277 1565.46,-276.8 1566.94,-276.59 1568.43,-276.39"/>
<polygon fill="midnightblue" stroke="midnightblue" points="1568.98,-279.84 1578.39,-274.97 1567.99,-272.91 1568.98,-279.84"/>
</g>
<!-- Node25 -->
<g id="node26" class="node">
<title>Node25</title>
<g id="a_node26"><a xlink:href="copyable__unique__ptr_8h.html" target="_top" xlink:title=" ">
<polygon fill="white" stroke="black" points="998.5,-190.5 998.5,-220.5 1135.5,-220.5 1135.5,-190.5 998.5,-190.5"/>
<text text-anchor="start" x="1006.5" y="-208.5" font-family="Helvetica,sans-Serif" font-size="10.00">drake/common/copyable</text>
<text text-anchor="middle" x="1067" y="-197.5" font-family="Helvetica,sans-Serif" font-size="10.00">_unique_ptr.h</text>
</a>
</g>
</g>
<!-- Node19&#45;&gt;Node25 -->
<g id="edge34" class="edge">
<title>Node19&#45;&gt;Node25</title>
<path fill="none" stroke="midnightblue" d="M1156.02,-313.14C1138.55,-292.22 1105.96,-253.17 1085.43,-228.58"/>
<polygon fill="midnightblue" stroke="midnightblue" points="1088.06,-226.27 1078.97,-220.84 1082.69,-230.76 1088.06,-226.27"/>
</g>
<!-- Node27 -->
<g id="node28" class="node">
<title>Node27</title>
<g id="a_node28"><a xlink:href="never__destroyed_8h.html" target="_top" xlink:title=" ">
<polygon fill="white" stroke="black" points="960,-123.5 960,-153.5 1080,-153.5 1080,-123.5 960,-123.5"/>
<text text-anchor="start" x="968" y="-141.5" font-family="Helvetica,sans-Serif" font-size="10.00">drake/common/never</text>
<text text-anchor="middle" x="1020" y="-130.5" font-family="Helvetica,sans-Serif" font-size="10.00">_destroyed.h</text>
</a>
</g>
</g>
<!-- Node19&#45;&gt;Node27 -->
<g id="edge43" class="edge">
<title>Node19&#45;&gt;Node27</title>
<path fill="none" stroke="midnightblue" d="M1119.19,-313.38C1076.59,-298.17 1017.44,-269.4 990,-221 979.3,-202.12 990.11,-178.71 1001.63,-161.83"/>
<polygon fill="midnightblue" stroke="midnightblue" points="1004.53,-163.8 1007.61,-153.66 998.88,-159.67 1004.53,-163.8"/>
</g>
<!-- Node29 -->
<g id="node30" class="node">
<title>Node29</title>
<g id="a_node30"><a xlink:href="value_8h.html" target="_top" xlink:title=" ">
<polygon fill="white" stroke="black" points="1328,-257.5 1328,-276.5 1456,-276.5 1456,-257.5 1328,-257.5"/>
<text text-anchor="middle" x="1392" y="-264.5" font-family="Helvetica,sans-Serif" font-size="10.00">drake/common/value.h</text>
</a>
</g>
</g>
<!-- Node19&#45;&gt;Node29 -->
<g id="edge48" class="edge">
<title>Node19&#45;&gt;Node29</title>
<path fill="none" stroke="midnightblue" d="M1220.8,-313.47C1260.29,-302.99 1313.56,-288.84 1350.13,-279.12"/>
<polygon fill="midnightblue" stroke="midnightblue" points="1351.21,-282.46 1359.98,-276.51 1349.41,-275.69 1351.21,-282.46"/>
</g>
<!-- Node19&#45;&gt;Node39 -->
<g id="edge82" class="edge">
<title>Node19&#45;&gt;Node39</title>
<path fill="none" stroke="midnightblue" d="M1095.88,-321.96C949.19,-310.68 617.41,-285.17 468.64,-273.74"/>
<polygon fill="midnightblue" stroke="midnightblue" points="468.49,-270.22 458.25,-272.94 467.95,-277.2 468.49,-270.22"/>
</g>
<!-- Node25&#45;&gt;Node3 -->
<g id="edge39" class="edge">
<title>Node25&#45;&gt;Node3</title>
<path fill="none" stroke="midnightblue" d="M1000.64,-190.41C981.36,-182.91 962.44,-171.45 951,-154 940.02,-137.24 941.49,-114.08 945,-96.74"/>
<polygon fill="midnightblue" stroke="midnightblue" points="948.46,-97.33 947.36,-86.79 941.64,-95.72 948.46,-97.33"/>
</g>
<!-- Node25&#45;&gt;Node7 -->
<g id="edge37" class="edge">
<title>Node25&#45;&gt;Node7</title>
<path fill="none" stroke="midnightblue" d="M998.21,-192.15C993.41,-191.39 988.63,-190.67 984,-190 843.21,-169.75 804.84,-184.9 666,-154 662.51,-153.22 658.91,-152.27 655.34,-151.22"/>
<polygon fill="midnightblue" stroke="midnightblue" points="656.1,-147.79 645.51,-148.09 653.98,-154.46 656.1,-147.79"/>
</g>
<!-- Node25&#45;&gt;Node9 -->
<g id="edge38" class="edge">
<title>Node25&#45;&gt;Node9</title>
<path fill="none" stroke="midnightblue" d="M1075.45,-190.37C1090,-166.08 1119.7,-116.44 1135.53,-90"/>
<polygon fill="midnightblue" stroke="midnightblue" points="1138.72,-91.48 1140.85,-81.1 1132.72,-87.88 1138.72,-91.48"/>
</g>
<!-- Node25&#45;&gt;Node12 -->
<g id="edge40" class="edge">
<title>Node25&#45;&gt;Node12</title>
<path fill="none" stroke="midnightblue" d="M998.2,-192.22C993.4,-191.45 988.63,-190.7 984,-190 858.19,-171.05 817.25,-203.41 700,-154 679.6,-145.4 681.24,-131.99 661,-123 585.14,-89.32 489.64,-77.9 425.9,-74.14"/>
<polygon fill="midnightblue" stroke="midnightblue" points="425.74,-70.63 415.56,-73.58 425.36,-77.62 425.74,-70.63"/>
</g>
<!-- Node25&#45;&gt;Node17 -->
<g id="edge41" class="edge">
<title>Node25&#45;&gt;Node17</title>
<path fill="none" stroke="midnightblue" d="M1002.49,-190.48C946.92,-178.4 867.89,-161.21 817.27,-150.21"/>
<polygon fill="midnightblue" stroke="midnightblue" points="817.75,-146.73 807.23,-148.03 816.26,-153.57 817.75,-146.73"/>
</g>
<!-- Node25&#45;&gt;Node21 -->
<g id="edge36" class="edge">
<title>Node25&#45;&gt;Node21</title>
<path fill="none" stroke="midnightblue" d="M1135.58,-193.42C1185.11,-184.68 1253.32,-171.12 1312,-154 1314.58,-153.25 1317.23,-152.4 1319.88,-151.5"/>
<polygon fill="midnightblue" stroke="midnightblue" points="1321.09,-154.78 1329.3,-148.09 1318.71,-148.2 1321.09,-154.78"/>
</g>
<!-- Node26 -->
<g id="node27" class="node">
<title>Node26</title>
<g id="a_node27"><a xlink:title=" ">
<polygon fill="white" stroke="#bfbfbf" points="1249.5,-129 1249.5,-148 1302.5,-148 1302.5,-129 1249.5,-129"/>
<text text-anchor="middle" x="1276" y="-136" font-family="Helvetica,sans-Serif" font-size="10.00">cstddef</text>
</a>
</g>
</g>
<!-- Node25&#45;&gt;Node26 -->
<g id="edge35" class="edge">
<title>Node25&#45;&gt;Node26</title>
<path fill="none" stroke="midnightblue" d="M1121.18,-190.43C1155.76,-181.05 1201.38,-167.91 1241,-154 1242.91,-153.33 1244.86,-152.61 1246.83,-151.87"/>
<polygon fill="midnightblue" stroke="midnightblue" points="1248.52,-154.96 1256.53,-148.01 1245.94,-148.45 1248.52,-154.96"/>
</g>
<!-- Node27&#45;&gt;Node4 -->
<g id="edge45" class="edge">
<title>Node27&#45;&gt;Node4</title>
<path fill="none" stroke="midnightblue" d="M1035.96,-123.34C1061.77,-100.5 1110.28,-57.89 1115,-56 1190.63,-25.73 1761.96,-14.35 1927.93,-11.67"/>
<polygon fill="midnightblue" stroke="midnightblue" points="1928.32,-15.16 1938.26,-11.5 1928.21,-8.16 1928.32,-15.16"/>
</g>
<!-- Node27&#45;&gt;Node5 -->
<g id="edge47" class="edge">
<title>Node27&#45;&gt;Node5</title>
<path fill="none" stroke="midnightblue" d="M959.85,-132.53C924.15,-129.63 878.01,-125.97 837,-123 593.11,-105.34 531.92,-104.16 288,-87 247.1,-84.12 201.34,-80.69 164.64,-77.89"/>
<polygon fill="midnightblue" stroke="midnightblue" points="164.78,-74.39 154.55,-77.12 164.25,-81.37 164.78,-74.39"/>
</g>
<!-- Node27&#45;&gt;Node9 -->
<g id="edge46" class="edge">
<title>Node27&#45;&gt;Node9</title>
<path fill="none" stroke="midnightblue" d="M1047.34,-123.4C1069.06,-112.19 1099.2,-96.64 1120.44,-85.69"/>
<polygon fill="midnightblue" stroke="midnightblue" points="1122.23,-88.7 1129.51,-81.01 1119.02,-82.48 1122.23,-88.7"/>
</g>
<!-- Node28 -->
<g id="node29" class="node">
<title>Node28</title>
<g id="a_node29"><a xlink:title=" ">
<polygon fill="white" stroke="#bfbfbf" points="1029.5,-62 1029.5,-81 1066.5,-81 1066.5,-62 1029.5,-62"/>
<text text-anchor="middle" x="1048" y="-69" font-family="Helvetica,sans-Serif" font-size="10.00">new</text>
</a>
</g>
</g>
<!-- Node27&#45;&gt;Node28 -->
<g id="edge44" class="edge">
<title>Node27&#45;&gt;Node28</title>
<path fill="none" stroke="midnightblue" d="M1026.08,-123.4C1030.23,-113.76 1035.76,-100.91 1040.23,-90.54"/>
<polygon fill="midnightblue" stroke="midnightblue" points="1043.51,-91.76 1044.25,-81.19 1037.08,-88.99 1043.51,-91.76"/>
</g>
<!-- Node29&#45;&gt;Node1 -->
<g id="edge51" class="edge">
<title>Node29&#45;&gt;Node1</title>
<path fill="none" stroke="midnightblue" d="M1456.08,-262.33C1624.12,-252.62 2065.58,-226.67 2080,-221 2098.74,-213.63 2140.48,-176.41 2163.68,-154.91"/>
<polygon fill="midnightblue" stroke="midnightblue" points="2166.12,-157.41 2171.04,-148.03 2161.34,-152.3 2166.12,-157.41"/>
</g>
<!-- Node29&#45;&gt;Node4 -->
<g id="edge52" class="edge">
<title>Node29&#45;&gt;Node4</title>
<path fill="none" stroke="midnightblue" d="M1456.19,-262.76C1598.19,-255.35 1930.24,-236.61 1979,-221 2033.88,-203.43 2061.68,-204.18 2090,-154 2097.61,-140.51 2103.92,-77.45 2089,-56 2072.88,-32.83 2043,-21.59 2017.6,-16.14"/>
<polygon fill="midnightblue" stroke="midnightblue" points="2018.25,-12.7 2007.77,-14.26 2016.93,-19.57 2018.25,-12.7"/>
</g>
<!-- Node29&#45;&gt;Node5 -->
<g id="edge56" class="edge">
<title>Node29&#45;&gt;Node5</title>
<path fill="none" stroke="midnightblue" d="M1327.74,-260.38C1248.21,-253.06 1108.73,-239.05 990,-221 917.96,-210.05 900.84,-202.23 829,-190 721.37,-171.67 686.16,-197.45 586,-154 565.69,-145.19 567.47,-131.45 547,-123 512.51,-108.77 282.6,-88.03 164.6,-78.14"/>
<polygon fill="midnightblue" stroke="midnightblue" points="164.84,-74.65 154.58,-77.31 164.25,-81.63 164.84,-74.65"/>
</g>
<!-- Node29&#45;&gt;Node9 -->
<g id="edge54" class="edge">
<title>Node29&#45;&gt;Node9</title>
<path fill="none" stroke="midnightblue" d="M1349.8,-257.48C1297.73,-244.61 1210.64,-214.94 1166,-154 1152.44,-135.49 1148,-108.91 1146.58,-91.19"/>
<polygon fill="midnightblue" stroke="midnightblue" points="1150.07,-90.8 1146.03,-81 1143.08,-91.18 1150.07,-90.8"/>
</g>
<!-- Node29&#45;&gt;Node21 -->
<g id="edge49" class="edge">
<title>Node29&#45;&gt;Node21</title>
<path fill="none" stroke="midnightblue" d="M1373.92,-257.39C1360.44,-249.87 1343.03,-237.57 1335,-221 1325.13,-200.63 1333.06,-174.51 1340.64,-157.41"/>
<polygon fill="midnightblue" stroke="midnightblue" points="1343.95,-158.58 1345.15,-148.05 1337.65,-155.54 1343.95,-158.58"/>
</g>
<!-- Node29&#45;&gt;Node23 -->
<g id="edge53" class="edge">
<title>Node29&#45;&gt;Node23</title>
<path fill="none" stroke="midnightblue" d="M1379.01,-257.31C1346.97,-235.86 1263.91,-180.26 1224.44,-153.85"/>
<polygon fill="midnightblue" stroke="midnightblue" points="1226.09,-150.74 1215.83,-148.09 1222.2,-156.56 1226.09,-150.74"/>
</g>
<!-- Node29&#45;&gt;Node25 -->
<g id="edge55" class="edge">
<title>Node29&#45;&gt;Node25</title>
<path fill="none" stroke="midnightblue" d="M1345.44,-257.48C1293.4,-247.95 1208.25,-232.36 1145.8,-220.93"/>
<polygon fill="midnightblue" stroke="midnightblue" points="1146.06,-217.42 1135.59,-219.06 1144.8,-224.3 1146.06,-217.42"/>
</g>
<!-- Node30 -->
<g id="node31" class="node">
<title>Node30</title>
<g id="a_node31"><a xlink:title=" ">
<polygon fill="white" stroke="#bfbfbf" points="1724.5,-196 1724.5,-215 1789.5,-215 1789.5,-196 1724.5,-196"/>
<text text-anchor="middle" x="1757" y="-203" font-family="Helvetica,sans-Serif" font-size="10.00">stdexcept</text>
</a>
</g>
</g>
<!-- Node29&#45;&gt;Node30 -->
<g id="edge50" class="edge">
<title>Node29&#45;&gt;Node30</title>
<path fill="none" stroke="midnightblue" d="M1456.04,-260.95C1521.92,-254.86 1627.17,-242.64 1716,-221 1719.23,-220.21 1722.56,-219.27 1725.86,-218.24"/>
<polygon fill="midnightblue" stroke="midnightblue" points="1727.17,-221.5 1735.54,-215.01 1724.95,-214.86 1727.17,-221.5"/>
</g>
<!-- Node31 -->
<g id="node32" class="node">
<title>Node31</title>
<g id="a_node32"><a xlink:href="hash_8h.html" target="_top" xlink:title=" ">
<polygon fill="white" stroke="black" points="1581.5,-196 1581.5,-215 1706.5,-215 1706.5,-196 1581.5,-196"/>
<text text-anchor="middle" x="1644" y="-203" font-family="Helvetica,sans-Serif" font-size="10.00">drake/common/hash.h</text>
</a>
</g>
</g>
<!-- Node29&#45;&gt;Node31 -->
<g id="edge57" class="edge">
<title>Node29&#45;&gt;Node31</title>
<path fill="none" stroke="midnightblue" d="M1428.11,-257.48C1472.83,-246.92 1549.08,-228.91 1597.97,-217.37"/>
<polygon fill="midnightblue" stroke="midnightblue" points="1599.03,-220.71 1607.96,-215.01 1597.42,-213.9 1599.03,-220.71"/>
</g>
<!-- Node37 -->
<g id="node38" class="node">
<title>Node37</title>
<g id="a_node38"><a xlink:href="is__cloneable_8h.html" target="_top" xlink:title=" ">
<polygon fill="white" stroke="black" points="1808,-196 1808,-215 1970,-215 1970,-196 1808,-196"/>
<text text-anchor="middle" x="1889" y="-203" font-family="Helvetica,sans-Serif" font-size="10.00">drake/common/is_cloneable.h</text>
</a>
</g>
</g>
<!-- Node29&#45;&gt;Node37 -->
<g id="edge72" class="edge">
<title>Node29&#45;&gt;Node37</title>
<path fill="none" stroke="midnightblue" d="M1456.27,-259.89C1536.59,-252.02 1678.19,-237.4 1799,-221 1808.54,-219.7 1818.64,-218.21 1828.48,-216.67"/>
<polygon fill="midnightblue" stroke="midnightblue" points="1829.28,-220.09 1838.61,-215.07 1828.19,-213.18 1829.28,-220.09"/>
</g>
<!-- Node38 -->
<g id="node39" class="node">
<title>Node38</title>
<g id="a_node39"><a xlink:href="nice__type__name_8h.html" target="_top" xlink:title=" ">
<polygon fill="white" stroke="black" points="1344,-190.5 1344,-220.5 1484,-220.5 1484,-190.5 1344,-190.5"/>
<text text-anchor="start" x="1352" y="-208.5" font-family="Helvetica,sans-Serif" font-size="10.00">drake/common/nice_type</text>
<text text-anchor="middle" x="1414" y="-197.5" font-family="Helvetica,sans-Serif" font-size="10.00">_name.h</text>
</a>
</g>
</g>
<!-- Node29&#45;&gt;Node38 -->
<g id="edge75" class="edge">
<title>Node29&#45;&gt;Node38</title>
<path fill="none" stroke="midnightblue" d="M1395.15,-257.48C1397.8,-250.32 1401.71,-239.75 1405.28,-230.08"/>
<polygon fill="midnightblue" stroke="midnightblue" points="1408.63,-231.12 1408.82,-220.52 1402.06,-228.69 1408.63,-231.12"/>
</g>
<!-- Node31&#45;&gt;Node1 -->
<g id="edge64" class="edge">
<title>Node31&#45;&gt;Node1</title>
<path fill="none" stroke="midnightblue" d="M1682.74,-195.98C1693.47,-193.82 1705.16,-191.64 1716,-190 1871.49,-166.45 1911.78,-172.1 2068,-154 2094.9,-150.88 2125.38,-146.91 2147.74,-143.91"/>
<polygon fill="midnightblue" stroke="midnightblue" points="2148.27,-147.37 2157.71,-142.56 2147.33,-140.43 2148.27,-147.37"/>
</g>
<!-- Node31&#45;&gt;Node3 -->
<g id="edge68" class="edge">
<title>Node31&#45;&gt;Node3</title>
<path fill="none" stroke="midnightblue" d="M1644.97,-195.93C1646.34,-178.99 1646.66,-141.27 1625,-123 1575.51,-81.26 1123.1,-94.81 1021.85,-86.66"/>
<polygon fill="midnightblue" stroke="midnightblue" points="1022.05,-83.16 1011.75,-85.62 1021.33,-90.13 1022.05,-83.16"/>
</g>
<!-- Node31&#45;&gt;Node4 -->
<g id="edge65" class="edge">
<title>Node31&#45;&gt;Node4</title>
<path fill="none" stroke="midnightblue" d="M1683.13,-195.98C1693.76,-193.84 1705.29,-191.68 1716,-190 1786.48,-178.95 1987.47,-207.2 2035,-154 2069.28,-115.64 2018.44,-55.38 1990.01,-26.91"/>
<polygon fill="midnightblue" stroke="midnightblue" points="1992.28,-24.24 1982.68,-19.77 1987.4,-29.25 1992.28,-24.24"/>
</g>
<!-- Node31&#45;&gt;Node9 -->
<g id="edge66" class="edge">
<title>Node31&#45;&gt;Node9</title>
<path fill="none" stroke="midnightblue" d="M1689.94,-195.92C1731.35,-187.14 1787.72,-172.22 1801,-154 1809.11,-142.87 1810.36,-133.11 1801,-123 1758.41,-77 1305.93,-72.76 1178.96,-72.48"/>
<polygon fill="midnightblue" stroke="midnightblue" points="1178.71,-68.98 1168.71,-72.47 1178.7,-75.98 1178.71,-68.98"/>
</g>
<!-- Node31&#45;&gt;Node20 -->
<g id="edge60" class="edge">
<title>Node31&#45;&gt;Node20</title>
<path fill="none" stroke="midnightblue" d="M1629.03,-195.73C1610.39,-184.82 1578.34,-166.05 1556.43,-153.22"/>
<polygon fill="midnightblue" stroke="midnightblue" points="1558.13,-150.16 1547.73,-148.13 1554.59,-156.2 1558.13,-150.16"/>
</g>
<!-- Node31&#45;&gt;Node22 -->
<g id="edge63" class="edge">
<title>Node31&#45;&gt;Node22</title>
<path fill="none" stroke="midnightblue" d="M1638.07,-195.73C1631.27,-185.7 1619.98,-169.01 1611.45,-156.42"/>
<polygon fill="midnightblue" stroke="midnightblue" points="1614.34,-154.45 1605.84,-148.13 1608.55,-158.37 1614.34,-154.45"/>
</g>
<!-- Node31&#45;&gt;Node26 -->
<g id="edge59" class="edge">
<title>Node31&#45;&gt;Node26</title>
<path fill="none" stroke="midnightblue" d="M1581.3,-199.33C1513.87,-192.77 1403.95,-179.14 1312,-154 1309.5,-153.32 1306.93,-152.51 1304.38,-151.63"/>
<polygon fill="midnightblue" stroke="midnightblue" points="1305.37,-148.26 1294.77,-148.02 1302.9,-154.81 1305.37,-148.26"/>
</g>
<!-- Node32 -->
<g id="node33" class="node">
<title>Node32</title>
<g id="a_node33"><a xlink:title=" ">
<polygon fill="white" stroke="#bfbfbf" points="1848.5,-129 1848.5,-148 1895.5,-148 1895.5,-129 1848.5,-129"/>
<text text-anchor="middle" x="1872" y="-136" font-family="Helvetica,sans-Serif" font-size="10.00">cmath</text>
</a>
</g>
</g>
<!-- Node31&#45;&gt;Node32 -->
<g id="edge58" class="edge">
<title>Node31&#45;&gt;Node32</title>
<path fill="none" stroke="midnightblue" d="M1680.75,-195.94C1719.27,-186.69 1781.38,-170.98 1834,-154 1836.41,-153.22 1838.89,-152.38 1841.38,-151.5"/>
<polygon fill="midnightblue" stroke="midnightblue" points="1842.66,-154.76 1850.84,-148.03 1840.24,-148.19 1842.66,-154.76"/>
</g>
<!-- Node33 -->
<g id="node34" class="node">
<title>Node33</title>
<g id="a_node34"><a xlink:title=" ">
<polygon fill="white" stroke="#bfbfbf" points="1914,-129 1914,-148 1952,-148 1952,-129 1914,-129"/>
<text text-anchor="middle" x="1933" y="-136" font-family="Helvetica,sans-Serif" font-size="10.00">map</text>
</a>
</g>
</g>
<!-- Node31&#45;&gt;Node33 -->
<g id="edge61" class="edge">
<title>Node31&#45;&gt;Node33</title>
<path fill="none" stroke="midnightblue" d="M1685.86,-195.99C1695.74,-194.01 1706.24,-191.91 1716,-190 1799.91,-173.56 1824.19,-181.95 1905,-154 1906.42,-153.51 1907.86,-152.95 1909.3,-152.36"/>
<polygon fill="midnightblue" stroke="midnightblue" points="1910.98,-155.43 1918.53,-148 1908,-149.1 1910.98,-155.43"/>
</g>
<!-- Node34 -->
<g id="node35" class="node">
<title>Node34</title>
<g id="a_node35"><a xlink:title=" ">
<polygon fill="white" stroke="#bfbfbf" points="1970,-129 1970,-148 2026,-148 2026,-129 1970,-129"/>
<text text-anchor="middle" x="1998" y="-136" font-family="Helvetica,sans-Serif" font-size="10.00">optional</text>
</a>
</g>
</g>
<!-- Node31&#45;&gt;Node34 -->
<g id="edge62" class="edge">
<title>Node31&#45;&gt;Node34</title>
<path fill="none" stroke="midnightblue" d="M1684.29,-195.99C1694.61,-193.92 1705.7,-191.79 1716,-190 1824.43,-171.13 1854.63,-182.26 1961,-154 1963.66,-153.29 1966.39,-152.46 1969.1,-151.54"/>
<polygon fill="midnightblue" stroke="midnightblue" points="1970.51,-154.75 1978.69,-148.02 1968.1,-148.18 1970.51,-154.75"/>
</g>
<!-- Node35 -->
<g id="node36" class="node">
<title>Node35</title>
<g id="a_node36"><a xlink:title=" ">
<polygon fill="white" stroke="#bfbfbf" points="1435.5,-129 1435.5,-148 1482.5,-148 1482.5,-129 1435.5,-129"/>
<text text-anchor="middle" x="1459" y="-136" font-family="Helvetica,sans-Serif" font-size="10.00">vector</text>
</a>
</g>
</g>
<!-- Node31&#45;&gt;Node35 -->
<g id="edge67" class="edge">
<title>Node31&#45;&gt;Node35</title>
<path fill="none" stroke="midnightblue" d="M1615.71,-195.97C1584.97,-186.5 1534.56,-170.38 1492,-154 1490.39,-153.38 1488.75,-152.73 1487.1,-152.06"/>
<polygon fill="midnightblue" stroke="midnightblue" points="1488.29,-148.76 1477.72,-148.09 1485.57,-155.21 1488.29,-148.76"/>
</g>
<!-- Node36 -->
<g id="node37" class="node">
<title>Node36</title>
<g id="a_node37"><a xlink:href="drake__throw_8h.html" target="_top" xlink:title="Provides a convenient wrapper to throw an exception when a condition is unmet.">
<polygon fill="white" stroke="black" points="1672.5,-123.5 1672.5,-153.5 1791.5,-153.5 1791.5,-123.5 1672.5,-123.5"/>
<text text-anchor="start" x="1680.5" y="-141.5" font-family="Helvetica,sans-Serif" font-size="10.00">drake/common/drake</text>
<text text-anchor="middle" x="1732" y="-130.5" font-family="Helvetica,sans-Serif" font-size="10.00">_throw.h</text>
</a>
</g>
</g>
<!-- Node31&#45;&gt;Node36 -->
<g id="edge69" class="edge">
<title>Node31&#45;&gt;Node36</title>
<path fill="none" stroke="midnightblue" d="M1655.87,-195.73C1668.33,-186.53 1688.36,-171.73 1704.75,-159.63"/>
<polygon fill="midnightblue" stroke="midnightblue" points="1706.96,-162.35 1712.93,-153.59 1702.8,-156.72 1706.96,-162.35"/>
</g>
<!-- Node36&#45;&gt;Node3 -->
<g id="edge71" class="edge">
<title>Node36&#45;&gt;Node3</title>
<path fill="none" stroke="midnightblue" d="M1672.34,-125.08C1667.5,-124.3 1662.68,-123.59 1658,-123 1379.95,-88.07 1303.88,-123.42 1021.86,-86.96"/>
<polygon fill="midnightblue" stroke="midnightblue" points="1022.11,-83.46 1011.74,-85.63 1021.2,-90.4 1022.11,-83.46"/>
</g>
<!-- Node36&#45;&gt;Node4 -->
<g id="edge70" class="edge">
<title>Node36&#45;&gt;Node4</title>
<path fill="none" stroke="midnightblue" d="M1758.71,-123.48C1805.51,-98.92 1901.69,-48.43 1947.57,-24.35"/>
<polygon fill="midnightblue" stroke="midnightblue" points="1949.33,-27.38 1956.56,-19.63 1946.08,-21.18 1949.33,-27.38"/>
</g>
<!-- Node37&#45;&gt;Node4 -->
<g id="edge74" class="edge">
<title>Node37&#45;&gt;Node4</title>
<path fill="none" stroke="midnightblue" d="M1946.29,-195.96C1992.86,-187.7 2053.19,-173.57 2068,-154 2094.29,-119.27 2091.29,-92.8 2068,-56 2056.78,-38.27 2036.48,-27.39 2017.52,-20.78"/>
<polygon fill="midnightblue" stroke="midnightblue" points="2018.37,-17.38 2007.78,-17.7 2016.26,-24.06 2018.37,-17.38"/>
</g>
<!-- Node37&#45;&gt;Node21 -->
<g id="edge73" class="edge">
<title>Node37&#45;&gt;Node21</title>
<path fill="none" stroke="midnightblue" d="M1839.57,-195.96C1826.41,-193.84 1812.19,-191.7 1799,-190 1634.26,-168.78 1591.45,-177.39 1427,-154 1414.58,-152.23 1401.13,-149.86 1388.99,-147.54"/>
<polygon fill="midnightblue" stroke="midnightblue" points="1389.63,-144.1 1379.15,-145.63 1388.29,-150.98 1389.63,-144.1"/>
</g>
<!-- Node38&#45;&gt;Node1 -->
<g id="edge77" class="edge">
<title>Node38&#45;&gt;Node1</title>
<path fill="none" stroke="midnightblue" d="M1484.03,-197.91C1511.73,-195.36 1543.86,-192.46 1573,-190 1778.22,-172.65 1829.85,-172.25 2035,-154 2073.83,-150.55 2118.44,-146 2147.81,-142.92"/>
<polygon fill="midnightblue" stroke="midnightblue" points="2148.33,-146.39 2157.91,-141.86 2147.59,-139.43 2148.33,-146.39"/>
</g>
<!-- Node38&#45;&gt;Node9 -->
<g id="edge79" class="edge">
<title>Node38&#45;&gt;Node9</title>
<path fill="none" stroke="midnightblue" d="M1413.64,-190.41C1412.36,-172.1 1407.3,-140.41 1388,-123 1357.55,-95.53 1237.7,-80.93 1178.9,-75.3"/>
<polygon fill="midnightblue" stroke="midnightblue" points="1178.94,-71.78 1168.66,-74.35 1178.3,-78.75 1178.94,-71.78"/>
</g>
<!-- Node38&#45;&gt;Node21 -->
<g id="edge76" class="edge">
<title>Node38&#45;&gt;Node21</title>
<path fill="none" stroke="midnightblue" d="M1400.11,-190.4C1390.04,-180.16 1376.38,-166.3 1365.87,-155.62"/>
<polygon fill="midnightblue" stroke="midnightblue" points="1368.07,-152.86 1358.56,-148.19 1363.08,-157.78 1368.07,-152.86"/>
</g>
<!-- Node38&#45;&gt;Node23 -->
<g id="edge78" class="edge">
<title>Node38&#45;&gt;Node23</title>
<path fill="none" stroke="midnightblue" d="M1361.8,-190.45C1327.3,-180.86 1281.19,-167.51 1241,-154 1238.74,-153.24 1236.42,-152.43 1234.08,-151.59"/>
<polygon fill="midnightblue" stroke="midnightblue" points="1235.19,-148.27 1224.59,-148.08 1232.76,-154.84 1235.19,-148.27"/>
</g>
<!-- Node38&#45;&gt;Node27 -->
<g id="edge81" class="edge">
<title>Node38&#45;&gt;Node27</title>
<path fill="none" stroke="midnightblue" d="M1343.56,-192.88C1272.04,-181.08 1161.93,-162.92 1090.42,-151.12"/>
<polygon fill="midnightblue" stroke="midnightblue" points="1090.59,-147.6 1080.16,-149.42 1089.46,-154.51 1090.59,-147.6"/>
</g>
<!-- Node38&#45;&gt;Node35 -->
<g id="edge80" class="edge">
<title>Node38&#45;&gt;Node35</title>
<path fill="none" stroke="midnightblue" d="M1423.76,-190.4C1430.64,-180.46 1439.89,-167.11 1447.18,-156.57"/>
<polygon fill="midnightblue" stroke="midnightblue" points="1450.17,-158.41 1452.98,-148.19 1444.41,-154.42 1450.17,-158.41"/>
</g>
<!-- Node39&#45;&gt;Node2 -->
<g id="edge85" class="edge">
<title>Node39&#45;&gt;Node2</title>
<path fill="none" stroke="midnightblue" d="M353.17,-257.48C302.16,-246.83 214.9,-228.61 159.68,-217.08"/>
<polygon fill="midnightblue" stroke="midnightblue" points="160.26,-213.63 149.76,-215.01 158.83,-220.48 160.26,-213.63"/>
</g>
<!-- Node39&#45;&gt;Node5 -->
<g id="edge83" class="edge">
<title>Node39&#45;&gt;Node5</title>
<path fill="none" stroke="midnightblue" d="M371.13,-257.43C310.38,-234.49 148.3,-172.22 130,-154 114.22,-138.29 105.1,-114.32 100.15,-96.44"/>
<polygon fill="midnightblue" stroke="midnightblue" points="103.54,-95.56 97.7,-86.72 96.75,-97.27 103.54,-95.56"/>
</g>
<!-- Node39&#45;&gt;Node8 -->
<g id="edge84" class="edge">
<title>Node39&#45;&gt;Node8</title>
<path fill="none" stroke="midnightblue" d="M394,-257.48C394,-250.47 394,-240.19 394,-230.7"/>
<polygon fill="midnightblue" stroke="midnightblue" points="397.5,-230.52 394,-220.52 390.5,-230.52 397.5,-230.52"/>
</g>
</g>
</svg>
