<?xml version="1.0" encoding="UTF-8" standalone="no"?>
<!DOCTYPE svg PUBLIC "-//W3C//DTD SVG 1.1//EN"
 "http://www.w3.org/Graphics/SVG/1.1/DTD/svg11.dtd">
<!-- Generated by graphviz version 2.43.0 (0)
 -->
<!-- Title: drake/geometry/mesh_source.h Pages: 1 -->
<!--zoomable 505 -->

<svg id="main" version="1.1" xmlns="http://www.w3.org/2000/svg" xmlns:xlink="http://www.w3.org/1999/xlink" xml:space="preserve" onload="init(evt)">

<style type="text/css"><![CDATA[
.node, .edge {opacity: 0.7;}
.node.selected, .edge.selected {opacity: 1;}
.edge:hover path { stroke: red; }
.edge:hover polygon { stroke: red; fill: red; }
]]></style>

<defs>
  <circle id="rim" cx="0" cy="0" r="7"/>
  <circle id="rim2" cx="0" cy="0" r="3.5"/>
  <g id="zoomPlus">
    <use xlink:href="#rim" fill="#404040"><set attributeName="fill" to="#808080" begin="zoomplus.mouseover" end="zoomplus.mouseout"/></use>
    <path d="M-4,0h8M0,-4v8" fill="none" stroke="white" stroke-width="1.5" pointer-events="none"/>
  </g>
  <g id="zoomMin">
    <use xlink:href="#rim" fill="#404040"><set attributeName="fill" to="#808080" begin="zoomminus.mouseover" end="zoomminus.mouseout"/></use>
    <path d="M-4,0h8" fill="none" stroke="white" stroke-width="1.5" pointer-events="none"/>
  </g>
  <g id="arrowUp" transform="translate(30 24)">
    <use xlink:href="#rim"/>
    <path pointer-events="none" fill="none" stroke="white" stroke-width="1.5" d="M0,-3.0v7 M-2.5,-0.5L0,-3.0L2.5,-0.5"/>
  </g>
  <g id="arrowRight" transform="rotate(90) translate(36 -43)">
    <use xlink:href="#rim"/>
    <path pointer-events="none" fill="none" stroke="white" stroke-width="1.5" d="M0,-3.0v7 M-2.5,-0.5L0,-3.0L2.5,-0.5"/>
  </g>
  <g id="arrowDown" transform="rotate(180) translate(-30 -48)">
    <use xlink:href="#rim"/>
    <path pointer-events="none" fill="none" stroke="white" stroke-width="1.5" d="M0,-3.0v7 M-2.5,-0.5L0,-3.0L2.5,-0.5"/>
  </g>
  <g id="arrowLeft" transform="rotate(270) translate(-36 17)">
    <use xlink:href="#rim"/>
    <path pointer-events="none" fill="none" stroke="white" stroke-width="1.5" d="M0,-3.0v7 M-2.5,-0.5L0,-3.0L2.5,-0.5"/>
  </g>
  <g id="resetDef">
    <use xlink:href="#rim2" fill="#404040"><set attributeName="fill" to="#808080" begin="reset.mouseover" end="reset.mouseout"/></use>
  </g>
</defs>
<script type="application/ecmascript">
var viewWidth = 1416;
var viewHeight = 505;
var sectionId = 'dynsection-0';
</script>
<script type="application/ecmascript" xlink:href="svg.min.js"/>
<svg id="graph" class="graph">
<g id="viewport">
<title>drake/geometry/mesh_source.h</title>
<!-- Node1 -->
<g id="Node000001" class="node">
<title>Node1</title>
<g id="a_Node000001"><a xlink:title=" ">
<ellipse fill="#999999" stroke="#666666" cx="309.82" cy="-476.22" rx="87.86" ry="21.43"/>
<text text-anchor="start" x="255.82" y="-479.22" font-family="Helvetica,sans-Serif" font-size="10.00">drake/geometry/mesh</text>
<text text-anchor="middle" x="309.82" y="-468.22" font-family="Helvetica,sans-Serif" font-size="10.00">_source.h</text>
</a>
</g>
</g>
<!-- Node2 -->
<g id="Node000002" class="node">
<title>Node2</title>
<g id="a_Node000002"><a xlink:title=" ">
<ellipse fill="#e0e0e0" stroke="#999999" cx="282.82" cy="-162.51" rx="48.17" ry="13.37"/>
<text text-anchor="middle" x="282.82" y="-160.01" font-family="Helvetica,sans-Serif" font-size="10.00">filesystem</text>
</a>
</g>
</g>
<!-- Node1&#45;&gt;Node2 -->
<g id="edge1_Node000001_Node000002" class="edge">
<title>Node1&#45;&gt;Node2</title>
<g id="a_edge1_Node000001_Node000002"><a xlink:title=" ">
<path fill="none" stroke="#63b8ff" d="M308.05,-454.76C303.21,-398.9 289.8,-244.06 284.76,-185.94"/>
<polygon fill="#63b8ff" stroke="#63b8ff" points="288.25,-185.62 283.9,-175.96 281.27,-186.22 288.25,-185.62"/>
</a>
</g>
</g>
<!-- Node3 -->
<g id="Node000003" class="node">
<title>Node3</title>
<g id="a_Node000003"><a xlink:title=" ">
<ellipse fill="#e0e0e0" stroke="#999999" cx="1274.82" cy="-13.44" rx="31.23" ry="13.37"/>
<text text-anchor="middle" x="1274.82" y="-10.94" font-family="Helvetica,sans-Serif" font-size="10.00">string</text>
</a>
</g>
</g>
<!-- Node1&#45;&gt;Node3 -->
<g id="edge2_Node000001_Node000003" class="edge">
<title>Node1&#45;&gt;Node3</title>
<g id="a_edge2_Node000001_Node000003"><a xlink:title=" ">
<path fill="none" stroke="#63b8ff" d="M395.98,-472.11C654.82,-461.63 1407.82,-422.39 1407.82,-320.36 1407.82,-320.36 1407.82,-320.36 1407.82,-161.51 1407.82,-113.86 1398.02,-97.99 1365.82,-62.87 1350.27,-45.91 1327.38,-33.77 1308.45,-25.88"/>
<polygon fill="#63b8ff" stroke="#63b8ff" points="1309.56,-22.56 1298.97,-22.14 1306.99,-29.07 1309.56,-22.56"/>
</a>
</g>
</g>
<!-- Node4 -->
<g id="Node000004" class="node">
<title>Node4</title>
<g id="a_Node000004"><a xlink:title=" ">
<ellipse fill="#e0e0e0" stroke="#999999" cx="31.82" cy="-13.44" rx="31.64" ry="13.37"/>
<text text-anchor="middle" x="31.82" y="-10.94" font-family="Helvetica,sans-Serif" font-size="10.00">utility</text>
</a>
</g>
</g>
<!-- Node1&#45;&gt;Node4 -->
<g id="edge3_Node000001_Node000004" class="edge">
<title>Node1&#45;&gt;Node4</title>
<g id="a_edge3_Node000001_Node000004"><a xlink:title=" ">
<path fill="none" stroke="#63b8ff" d="M227.95,-468.34C137.91,-455.78 5.82,-420.31 5.82,-320.36 5.82,-320.36 5.82,-320.36 5.82,-161.51 5.82,-116.67 17.68,-65.31 25.38,-36.69"/>
<polygon fill="#63b8ff" stroke="#63b8ff" points="28.8,-37.47 28.09,-26.89 22.05,-35.6 28.8,-37.47"/>
</a>
</g>
</g>
<!-- Node5 -->
<g id="Node000005" class="node">
<title>Node5</title>
<g id="a_Node000005"><a xlink:title=" ">
<ellipse fill="#e0e0e0" stroke="#999999" cx="337.82" cy="-240.94" rx="36.12" ry="13.37"/>
<text text-anchor="middle" x="337.82" y="-238.44" font-family="Helvetica,sans-Serif" font-size="10.00">variant</text>
</a>
</g>
</g>
<!-- Node1&#45;&gt;Node5 -->
<g id="edge4_Node000001_Node000005" class="edge">
<title>Node1&#45;&gt;Node5</title>
<g id="a_edge4_Node000001_Node000005"><a xlink:title=" ">
<path fill="none" stroke="#63b8ff" d="M311.65,-454.99C314.7,-422.07 321.24,-354.84 328.82,-298.15 330.3,-287.07 332.23,-274.81 333.92,-264.57"/>
<polygon fill="#63b8ff" stroke="#63b8ff" points="337.42,-264.85 335.63,-254.41 330.52,-263.69 337.42,-264.85"/>
</a>
</g>
</g>
<!-- Node6 -->
<g id="Node000006" class="node">
<title>Node6</title>
<g id="a_Node000006"><a xlink:href="drake__copyable_8h.html" target="_top" xlink:title="Provides careful macros to selectively enable or disable the special member functions for copy&#45;constr...">
<ellipse fill="white" stroke="#666666" cx="744.82" cy="-84.08" rx="84.29" ry="21.43"/>
<text text-anchor="start" x="693.32" y="-87.08" font-family="Helvetica,sans-Serif" font-size="10.00">drake/common/drake</text>
<text text-anchor="middle" x="744.82" y="-76.08" font-family="Helvetica,sans-Serif" font-size="10.00">_copyable.h</text>
</a>
</g>
</g>
<!-- Node1&#45;&gt;Node6 -->
<g id="edge5_Node000001_Node000006" class="edge">
<title>Node1&#45;&gt;Node6</title>
<g id="a_edge5_Node000001_Node000006"><a xlink:title=" ">
<path fill="none" stroke="#63b8ff" d="M397.63,-474.96C592.46,-472.01 1043.82,-451.09 1043.82,-320.36 1043.82,-320.36 1043.82,-320.36 1043.82,-239.94 1043.82,-192.79 1040.85,-171.7 1004.82,-141.3 945.46,-91.21 909.69,-121.9 833.82,-105.3 827.73,-103.96 821.4,-102.56 815.06,-101.14"/>
<polygon fill="#63b8ff" stroke="#63b8ff" points="815.64,-97.69 805.11,-98.91 814.1,-104.52 815.64,-97.69"/>
</a>
</g>
</g>
<!-- Node7 -->
<g id="Node000007" class="node">
<title>Node7</title>
<g id="a_Node000007"><a xlink:href="reset__after__move_8h.html" target="_top" xlink:title=" ">
<ellipse fill="white" stroke="#666666" cx="125.82" cy="-162.51" rx="82.96" ry="21.43"/>
<text text-anchor="start" x="75.32" y="-165.51" font-family="Helvetica,sans-Serif" font-size="10.00">drake/common/reset</text>
<text text-anchor="middle" x="125.82" y="-154.51" font-family="Helvetica,sans-Serif" font-size="10.00">_after_move.h</text>
</a>
</g>
</g>
<!-- Node1&#45;&gt;Node7 -->
<g id="edge6_Node000001_Node000007" class="edge">
<title>Node1&#45;&gt;Node7</title>
<g id="a_edge6_Node000001_Node000007"><a xlink:title=" ">
<path fill="none" stroke="#63b8ff" d="M297.75,-454.76C265.96,-400.91 179.87,-255.07 142.98,-192.57"/>
<polygon fill="#63b8ff" stroke="#63b8ff" points="145.8,-190.46 137.7,-183.63 139.77,-194.02 145.8,-190.46"/>
</a>
</g>
</g>
<!-- Node9 -->
<g id="Node000009" class="node">
<title>Node9</title>
<g id="a_Node000009"><a xlink:href="in__memory__mesh_8h.html" target="_top" xlink:title=" ">
<ellipse fill="white" stroke="#666666" cx="610.82" cy="-397.79" rx="107.46" ry="21.43"/>
<text text-anchor="start" x="542.82" y="-400.79" font-family="Helvetica,sans-Serif" font-size="10.00">drake/geometry/in_memory</text>
<text text-anchor="middle" x="610.82" y="-389.79" font-family="Helvetica,sans-Serif" font-size="10.00">_mesh.h</text>
</a>
</g>
</g>
<!-- Node1&#45;&gt;Node9 -->
<g id="edge9_Node000001_Node000009" class="edge">
<title>Node1&#45;&gt;Node9</title>
<g id="a_edge9_Node000001_Node000009"><a xlink:title=" ">
<path fill="none" stroke="#63b8ff" d="M368.21,-460.39C416.48,-448.13 485.27,-430.67 537.29,-417.46"/>
<polygon fill="#63b8ff" stroke="#63b8ff" points="538.29,-420.81 547.13,-414.96 536.57,-414.03 538.29,-420.81"/>
</a>
</g>
</g>
<!-- Node7&#45;&gt;Node4 -->
<g id="edge8_Node000007_Node000004" class="edge">
<title>Node7&#45;&gt;Node4</title>
<g id="a_edge8_Node000007_Node000004"><a xlink:title=" ">
<path fill="none" stroke="#63b8ff" d="M112.95,-141.37C95.15,-113.52 63.18,-63.5 45.15,-35.29"/>
<polygon fill="#63b8ff" stroke="#63b8ff" points="47.94,-33.16 39.6,-26.61 42.04,-36.93 47.94,-33.16"/>
</a>
</g>
</g>
<!-- Node8 -->
<g id="Node000008" class="node">
<title>Node8</title>
<g id="a_Node000008"><a xlink:title=" ">
<ellipse fill="#e0e0e0" stroke="#999999" cx="130.82" cy="-13.44" rx="48.58" ry="13.37"/>
<text text-anchor="middle" x="130.82" y="-10.94" font-family="Helvetica,sans-Serif" font-size="10.00">type_traits</text>
</a>
</g>
</g>
<!-- Node7&#45;&gt;Node8 -->
<g id="edge7_Node000007_Node000008" class="edge">
<title>Node7&#45;&gt;Node8</title>
<g id="a_edge7_Node000007_Node000008"><a xlink:title=" ">
<path fill="none" stroke="#63b8ff" d="M116.78,-141.4C112.54,-130.88 107.95,-117.65 105.82,-105.3 102.61,-86.72 101.37,-81.19 105.82,-62.87 108.1,-53.48 112.53,-43.88 117.04,-35.73"/>
<polygon fill="#63b8ff" stroke="#63b8ff" points="120.17,-37.32 122.25,-26.93 114.15,-33.75 120.17,-37.32"/>
</a>
</g>
</g>
<!-- Node9&#45;&gt;Node3 -->
<g id="edge10_Node000009_Node000003" class="edge">
<title>Node9&#45;&gt;Node3</title>
<g id="a_edge10_Node000009_Node000003"><a xlink:title=" ">
<path fill="none" stroke="#63b8ff" d="M660.05,-378.8C753.65,-344.97 964.1,-270.7 1144.82,-219.72 1212.47,-200.64 1252.07,-236.21 1298.82,-183.72 1334.65,-143.5 1323.69,-114.34 1307.82,-62.87 1304.62,-52.48 1298.34,-42.32 1292.11,-34.01"/>
<polygon fill="#63b8ff" stroke="#63b8ff" points="1294.75,-31.71 1285.76,-26.1 1289.28,-36.09 1294.75,-31.71"/>
</a>
</g>
</g>
<!-- Node10 -->
<g id="Node000010" class="node">
<title>Node10</title>
<g id="a_Node000010"><a xlink:href="file__source_8h.html" target="_top" xlink:title=" ">
<ellipse fill="white" stroke="#666666" cx="446.82" cy="-319.36" rx="108.79" ry="13.37"/>
<text text-anchor="middle" x="446.82" y="-316.86" font-family="Helvetica,sans-Serif" font-size="10.00">drake/common/file_source.h</text>
</a>
</g>
</g>
<!-- Node9&#45;&gt;Node10 -->
<g id="edge11_Node000009_Node000010" class="edge">
<title>Node9&#45;&gt;Node10</title>
<g id="a_edge11_Node000009_Node000010"><a xlink:title=" ">
<path fill="none" stroke="#63b8ff" d="M570.7,-378.09C543.51,-365.42 507.91,-348.83 481.86,-336.69"/>
<polygon fill="#63b8ff" stroke="#63b8ff" points="483.27,-333.49 472.72,-332.43 480.31,-339.83 483.27,-333.49"/>
</a>
</g>
</g>
<!-- Node11 -->
<g id="Node000011" class="node">
<title>Node11</title>
<g id="a_Node000011"><a xlink:href="fmt_8h.html" target="_top" xlink:title=" ">
<ellipse fill="white" stroke="#666666" cx="432.82" cy="-162.51" rx="84.29" ry="13.37"/>
<text text-anchor="middle" x="432.82" y="-160.01" font-family="Helvetica,sans-Serif" font-size="10.00">drake/common/fmt.h</text>
</a>
</g>
</g>
<!-- Node9&#45;&gt;Node11 -->
<g id="edge44_Node000009_Node000011" class="edge">
<title>Node9&#45;&gt;Node11</title>
<g id="a_edge44_Node000009_Node000011"><a xlink:title=" ">
<path fill="none" stroke="#63b8ff" d="M603.68,-376.45C595.87,-355.72 582.15,-323.16 564.82,-298.15 532.75,-251.86 484.18,-206.99 455.76,-182.53"/>
<polygon fill="#63b8ff" stroke="#63b8ff" points="457.86,-179.71 447.97,-175.9 453.32,-185.05 457.86,-179.71"/>
</a>
</g>
</g>
<!-- Node14 -->
<g id="Node000014" class="node">
<title>Node14</title>
<g id="a_Node000014"><a xlink:href="memory__file_8h.html" target="_top" xlink:title=" ">
<ellipse fill="white" stroke="#666666" cx="686.82" cy="-240.94" rx="94.51" ry="21.43"/>
<text text-anchor="start" x="627.82" y="-243.94" font-family="Helvetica,sans-Serif" font-size="10.00">drake/common/memory</text>
<text text-anchor="middle" x="686.82" y="-232.94" font-family="Helvetica,sans-Serif" font-size="10.00">_file.h</text>
</a>
</g>
</g>
<!-- Node9&#45;&gt;Node14 -->
<g id="edge45_Node000009_Node000014" class="edge">
<title>Node9&#45;&gt;Node14</title>
<g id="a_edge45_Node000009_Node000014"><a xlink:title=" ">
<path fill="none" stroke="#63b8ff" d="M620.76,-376.54C633.9,-349.77 657.16,-302.37 672.28,-271.56"/>
<polygon fill="#63b8ff" stroke="#63b8ff" points="675.62,-272.7 676.88,-262.19 669.33,-269.62 675.62,-272.7"/>
</a>
</g>
</g>
<!-- Node26 -->
<g id="Node000026" class="node">
<title>Node26</title>
<g id="a_Node000026"><a xlink:href="string__map_8h.html" target="_top" xlink:title=" ">
<ellipse fill="white" stroke="#666666" cx="1225.82" cy="-319.36" rx="84.71" ry="21.43"/>
<text text-anchor="start" x="1173.82" y="-322.36" font-family="Helvetica,sans-Serif" font-size="10.00">drake/common/string</text>
<text text-anchor="middle" x="1225.82" y="-311.36" font-family="Helvetica,sans-Serif" font-size="10.00">_map.h</text>
</a>
</g>
</g>
<!-- Node9&#45;&gt;Node26 -->
<g id="edge46_Node000009_Node000026" class="edge">
<title>Node9&#45;&gt;Node26</title>
<g id="a_edge46_Node000009_Node000026"><a xlink:title=" ">
<path fill="none" stroke="#63b8ff" d="M699.59,-385.76C817.61,-371.09 1024.75,-345.35 1140.83,-330.92"/>
<polygon fill="#63b8ff" stroke="#63b8ff" points="1141.59,-334.36 1151.09,-329.65 1140.73,-327.41 1141.59,-334.36"/>
</a>
</g>
</g>
<!-- Node10&#45;&gt;Node2 -->
<g id="edge12_Node000010_Node000002" class="edge">
<title>Node10&#45;&gt;Node2</title>
<g id="a_edge12_Node000010_Node000002"><a xlink:title=" ">
<path fill="none" stroke="#63b8ff" d="M441.14,-305.77C431.52,-285.57 410.36,-245.57 382.82,-219.72 364.01,-202.07 338.65,-187.9 318.17,-178.2"/>
<polygon fill="#63b8ff" stroke="#63b8ff" points="319.4,-174.91 308.85,-173.93 316.49,-181.27 319.4,-174.91"/>
</a>
</g>
</g>
<!-- Node10&#45;&gt;Node3 -->
<g id="edge13_Node000010_Node000003" class="edge">
<title>Node10&#45;&gt;Node3</title>
<g id="a_edge13_Node000010_Node000003"><a xlink:title=" ">
<path fill="none" stroke="#63b8ff" d="M453.23,-305.77C469.13,-275.28 512.81,-196 563.82,-141.3 581.77,-122.05 591.18,-122.81 610.82,-105.3 630.39,-87.85 628.1,-74.04 651.82,-62.87 755.42,-14.09 1111.78,-12.83 1233.6,-13.88"/>
<polygon fill="#63b8ff" stroke="#63b8ff" points="1233.61,-17.38 1243.65,-13.98 1233.68,-10.38 1233.61,-17.38"/>
</a>
</g>
</g>
<!-- Node10&#45;&gt;Node5 -->
<g id="edge14_Node000010_Node000005" class="edge">
<title>Node10&#45;&gt;Node5</title>
<g id="a_edge14_Node000010_Node000005"><a xlink:title=" ">
<path fill="none" stroke="#63b8ff" d="M429.31,-306.08C411.17,-293.37 382.68,-273.39 362.32,-259.11"/>
<polygon fill="#63b8ff" stroke="#63b8ff" points="364.07,-256.06 353.87,-253.19 360.05,-261.8 364.07,-256.06"/>
</a>
</g>
</g>
<!-- Node10&#45;&gt;Node11 -->
<g id="edge15_Node000010_Node000011" class="edge">
<title>Node10&#45;&gt;Node11</title>
<g id="a_edge15_Node000010_Node000011"><a xlink:title=" ">
<path fill="none" stroke="#63b8ff" d="M445.67,-305.69C443.32,-279.6 437.89,-219.57 434.9,-186.46"/>
<polygon fill="#63b8ff" stroke="#63b8ff" points="438.37,-186 433.98,-176.36 431.4,-186.63 438.37,-186"/>
</a>
</g>
</g>
<!-- Node10&#45;&gt;Node14 -->
<g id="edge20_Node000010_Node000014" class="edge">
<title>Node10&#45;&gt;Node14</title>
<g id="a_edge20_Node000010_Node000014"><a xlink:title=" ">
<path fill="none" stroke="#63b8ff" d="M483.53,-306.67C520.97,-294.75 579.74,-276.04 624.48,-261.79"/>
<polygon fill="#63b8ff" stroke="#63b8ff" points="625.62,-265.1 634.09,-258.73 623.5,-258.43 625.62,-265.1"/>
</a>
</g>
</g>
<!-- Node11&#45;&gt;Node3 -->
<g id="edge16_Node000011_Node000003" class="edge">
<title>Node11&#45;&gt;Node3</title>
<g id="a_edge16_Node000011_Node000003"><a xlink:title=" ">
<path fill="none" stroke="#63b8ff" d="M472.8,-150.57C502.68,-141.3 543.73,-126.17 575.82,-105.3 598.33,-90.66 594.37,-73.97 618.82,-62.87 729.19,-12.76 1107.59,-12.45 1233.62,-13.81"/>
<polygon fill="#63b8ff" stroke="#63b8ff" points="1233.6,-17.31 1243.64,-13.92 1233.68,-10.31 1233.6,-17.31"/>
</a>
</g>
</g>
<!-- Node11&#45;&gt;Node8 -->
<g id="edge18_Node000011_Node000008" class="edge">
<title>Node11&#45;&gt;Node8</title>
<g id="a_edge18_Node000011_Node000008"><a xlink:title=" ">
<path fill="none" stroke="#63b8ff" d="M387.01,-151.2C371.99,-147.92 355.22,-144.35 339.82,-141.3 295.31,-132.48 169.44,-138.78 138.82,-105.3 122.15,-87.07 122.83,-57.32 125.9,-36.86"/>
<polygon fill="#63b8ff" stroke="#63b8ff" points="129.37,-37.31 127.7,-26.85 122.48,-36.07 129.37,-37.31"/>
</a>
</g>
</g>
<!-- Node12 -->
<g id="Node000012" class="node">
<title>Node12</title>
<g id="a_Node000012"><a xlink:title=" ">
<ellipse fill="#e0e0e0" stroke="#999999" cx="328.82" cy="-84.08" rx="51.74" ry="13.37"/>
<text text-anchor="middle" x="328.82" y="-81.58" font-family="Helvetica,sans-Serif" font-size="10.00">string_view</text>
</a>
</g>
</g>
<!-- Node11&#45;&gt;Node12 -->
<g id="edge17_Node000011_Node000012" class="edge">
<title>Node11&#45;&gt;Node12</title>
<g id="a_edge17_Node000011_Node000012"><a xlink:title=" ">
<path fill="none" stroke="#63b8ff" d="M416.11,-149.23C399.1,-136.73 372.56,-117.23 353.21,-103.01"/>
<polygon fill="#63b8ff" stroke="#63b8ff" points="355.28,-100.18 345.14,-97.08 351.13,-105.82 355.28,-100.18"/>
</a>
</g>
</g>
<!-- Node13 -->
<g id="Node000013" class="node">
<title>Node13</title>
<g id="a_Node000013"><a xlink:title=" ">
<ellipse fill="#e0e0e0" stroke="#999999" cx="203.82" cy="-84.08" rx="55.72" ry="13.37"/>
<text text-anchor="middle" x="203.82" y="-81.58" font-family="Helvetica,sans-Serif" font-size="10.00">fmt/format.h</text>
</a>
</g>
</g>
<!-- Node11&#45;&gt;Node13 -->
<g id="edge19_Node000011_Node000013" class="edge">
<title>Node11&#45;&gt;Node13</title>
<g id="a_edge19_Node000011_Node000013"><a xlink:title=" ">
<path fill="none" stroke="#63b8ff" d="M398.54,-150.07C357.33,-136.31 288.26,-113.26 244.42,-98.63"/>
<polygon fill="#63b8ff" stroke="#63b8ff" points="245.26,-95.22 234.66,-95.38 243.04,-101.86 245.26,-95.22"/>
</a>
</g>
</g>
<!-- Node14&#45;&gt;Node2 -->
<g id="edge22_Node000014_Node000002" class="edge">
<title>Node14&#45;&gt;Node2</title>
<g id="a_edge22_Node000014_Node000002"><a xlink:title=" ">
<path fill="none" stroke="#63b8ff" d="M603.58,-230.73C532.74,-221.88 428.65,-206.47 339.82,-183.72 332.92,-181.96 325.67,-179.7 318.74,-177.35"/>
<polygon fill="#63b8ff" stroke="#63b8ff" points="319.5,-173.91 308.91,-173.87 317.17,-180.51 319.5,-173.91"/>
</a>
</g>
</g>
<!-- Node14&#45;&gt;Node3 -->
<g id="edge23_Node000014_Node000003" class="edge">
<title>Node14&#45;&gt;Node3</title>
<g id="a_edge23_Node000014_Node000003"><a xlink:title=" ">
<path fill="none" stroke="#63b8ff" d="M777.16,-234.47C937.89,-224.3 1258.32,-201.88 1274.82,-183.72 1311.52,-143.34 1294.99,-72.49 1283.13,-36.6"/>
<polygon fill="#63b8ff" stroke="#63b8ff" points="1286.4,-35.36 1279.81,-27.06 1279.79,-37.65 1286.4,-35.36"/>
</a>
</g>
</g>
<!-- Node14&#45;&gt;Node6 -->
<g id="edge25_Node000014_Node000006" class="edge">
<title>Node14&#45;&gt;Node6</title>
<g id="a_edge25_Node000014_Node000006"><a xlink:title=" ">
<path fill="none" stroke="#63b8ff" d="M778.19,-235.32C856.48,-229.22 960.63,-215.27 986.82,-183.72 998.86,-169.21 998.55,-156.06 986.82,-141.3 984.09,-137.87 887.31,-116.14 816.98,-100.73"/>
<polygon fill="#63b8ff" stroke="#63b8ff" points="817.33,-97.22 806.81,-98.5 815.83,-104.06 817.33,-97.22"/>
</a>
</g>
</g>
<!-- Node14&#45;&gt;Node7 -->
<g id="edge35_Node000014_Node000007" class="edge">
<title>Node14&#45;&gt;Node7</title>
<g id="a_edge35_Node000014_Node000007"><a xlink:title=" ">
<path fill="none" stroke="#63b8ff" d="M601.57,-231.56C508.83,-221.97 356.35,-204.84 225.82,-183.72 216.54,-182.22 206.81,-180.47 197.22,-178.65"/>
<polygon fill="#63b8ff" stroke="#63b8ff" points="197.78,-175.19 187.29,-176.72 196.44,-182.06 197.78,-175.19"/>
</a>
</g>
</g>
<!-- Node14&#45;&gt;Node11 -->
<g id="edge26_Node000014_Node000011" class="edge">
<title>Node14&#45;&gt;Node11</title>
<g id="a_edge26_Node000014_Node000011"><a xlink:title=" ">
<path fill="none" stroke="#63b8ff" d="M632.33,-223.54C586.89,-209.87 522.83,-190.59 479.66,-177.6"/>
<polygon fill="#63b8ff" stroke="#63b8ff" points="480.56,-174.22 469.97,-174.69 478.54,-180.92 480.56,-174.22"/>
</a>
</g>
</g>
<!-- Node15 -->
<g id="Node000015" class="node">
<title>Node15</title>
<g id="a_Node000015"><a xlink:title=" ">
<ellipse fill="#e0e0e0" stroke="#999999" cx="855.82" cy="-162.51" rx="37.45" ry="13.37"/>
<text text-anchor="middle" x="855.82" y="-160.01" font-family="Helvetica,sans-Serif" font-size="10.00">cstddef</text>
</a>
</g>
</g>
<!-- Node14&#45;&gt;Node15 -->
<g id="edge21_Node000014_Node000015" class="edge">
<title>Node14&#45;&gt;Node15</title>
<g id="a_edge21_Node000014_Node000015"><a xlink:title=" ">
<path fill="none" stroke="#63b8ff" d="M727.3,-221.63C757.17,-208.12 797.23,-190 824.64,-177.61"/>
<polygon fill="#63b8ff" stroke="#63b8ff" points="826.1,-180.79 833.77,-173.48 823.21,-174.41 826.1,-180.79"/>
</a>
</g>
</g>
<!-- Node16 -->
<g id="Node000016" class="node">
<title>Node16</title>
<g id="a_Node000016"><a xlink:title=" ">
<ellipse fill="#e0e0e0" stroke="#999999" cx="944.82" cy="-162.51" rx="33.47" ry="13.37"/>
<text text-anchor="middle" x="944.82" y="-160.01" font-family="Helvetica,sans-Serif" font-size="10.00">vector</text>
</a>
</g>
</g>
<!-- Node14&#45;&gt;Node16 -->
<g id="edge24_Node000014_Node000016" class="edge">
<title>Node14&#45;&gt;Node16</title>
<g id="a_edge24_Node000014_Node000016"><a xlink:title=" ">
<path fill="none" stroke="#63b8ff" d="M753.65,-225.8C796.58,-215.91 853.21,-201.33 901.82,-183.72 906.52,-182.02 911.4,-179.99 916.11,-177.89"/>
<polygon fill="#63b8ff" stroke="#63b8ff" points="917.86,-180.94 925.45,-173.54 914.9,-174.59 917.86,-180.94"/>
</a>
</g>
</g>
<!-- Node17 -->
<g id="Node000017" class="node">
<title>Node17</title>
<g id="a_Node000017"><a xlink:href="name__value_8h.html" target="_top" xlink:title=" ">
<ellipse fill="white" stroke="#666666" cx="686.82" cy="-162.51" rx="113.69" ry="13.37"/>
<text text-anchor="middle" x="686.82" y="-160.01" font-family="Helvetica,sans-Serif" font-size="10.00">drake/common/name_value.h</text>
</a>
</g>
</g>
<!-- Node14&#45;&gt;Node17 -->
<g id="edge27_Node000014_Node000017" class="edge">
<title>Node14&#45;&gt;Node17</title>
<g id="a_edge27_Node000014_Node000017"><a xlink:title=" ">
<path fill="none" stroke="#63b8ff" d="M686.82,-219.46C686.82,-209.22 686.82,-196.8 686.82,-186.26"/>
<polygon fill="#63b8ff" stroke="#63b8ff" points="690.32,-186.14 686.82,-176.14 683.32,-186.14 690.32,-186.14"/>
</a>
</g>
</g>
<!-- Node21 -->
<g id="Node000021" class="node">
<title>Node21</title>
<g id="a_Node000021"><a xlink:href="sha256_8h.html" target="_top" xlink:title=" ">
<ellipse fill="white" stroke="#666666" cx="1168.82" cy="-162.51" rx="96.75" ry="13.37"/>
<text text-anchor="middle" x="1168.82" y="-160.01" font-family="Helvetica,sans-Serif" font-size="10.00">drake/common/sha256.h</text>
</a>
</g>
</g>
<!-- Node14&#45;&gt;Node21 -->
<g id="edge36_Node000014_Node000021" class="edge">
<title>Node14&#45;&gt;Node21</title>
<g id="a_edge36_Node000014_Node000021"><a xlink:title=" ">
<path fill="none" stroke="#63b8ff" d="M762.13,-227.99C854.17,-213.4 1008.69,-188.9 1098.43,-174.67"/>
<polygon fill="#63b8ff" stroke="#63b8ff" points="1099.18,-178.1 1108.51,-173.07 1098.08,-171.18 1099.18,-178.1"/>
</a>
</g>
</g>
<!-- Node17&#45;&gt;Node6 -->
<g id="edge34_Node000017_Node000006" class="edge">
<title>Node17&#45;&gt;Node6</title>
<g id="a_edge34_Node000017_Node000006"><a xlink:title=" ">
<path fill="none" stroke="#63b8ff" d="M696.4,-148.89C703.72,-139.24 714.09,-125.57 723.36,-113.36"/>
<polygon fill="#63b8ff" stroke="#63b8ff" points="726.3,-115.28 729.55,-105.2 720.72,-111.05 726.3,-115.28"/>
</a>
</g>
</g>
<!-- Node18 -->
<g id="Node000018" class="node">
<title>Node18</title>
<g id="a_Node000018"><a xlink:href="drake__assert_8h.html" target="_top" xlink:title="Provides Drake&#39;s assertion mechanics.">
<ellipse fill="white" stroke="#666666" cx="482.82" cy="-84.08" rx="84.29" ry="21.43"/>
<text text-anchor="start" x="431.32" y="-87.08" font-family="Helvetica,sans-Serif" font-size="10.00">drake/common/drake</text>
<text text-anchor="middle" x="482.82" y="-76.08" font-family="Helvetica,sans-Serif" font-size="10.00">_assert.h</text>
</a>
</g>
</g>
<!-- Node17&#45;&gt;Node18 -->
<g id="edge28_Node000017_Node000018" class="edge">
<title>Node17&#45;&gt;Node18</title>
<g id="a_edge28_Node000017_Node000018"><a xlink:title=" ">
<path fill="none" stroke="#63b8ff" d="M654.94,-149.57C623.67,-137.85 575.36,-119.75 537.87,-105.71"/>
<polygon fill="#63b8ff" stroke="#63b8ff" points="538.69,-102.28 528.09,-102.04 536.23,-108.83 538.69,-102.28"/>
</a>
</g>
</g>
<!-- Node18&#45;&gt;Node3 -->
<g id="edge30_Node000018_Node000003" class="edge">
<title>Node18&#45;&gt;Node3</title>
<g id="a_edge30_Node000018_Node000003"><a xlink:title=" ">
<path fill="none" stroke="#63b8ff" d="M543.24,-69.3C555.62,-66.85 568.6,-64.55 580.82,-62.87 827.18,-29.02 1126.18,-18.29 1233.78,-15.38"/>
<polygon fill="#63b8ff" stroke="#63b8ff" points="1233.98,-18.88 1243.89,-15.12 1233.8,-11.88 1233.98,-18.88"/>
</a>
</g>
</g>
<!-- Node18&#45;&gt;Node4 -->
<g id="edge33_Node000018_Node000004" class="edge">
<title>Node18&#45;&gt;Node4</title>
<g id="a_edge33_Node000018_Node000004"><a xlink:title=" ">
<path fill="none" stroke="#63b8ff" d="M422.96,-69.14C411.97,-66.85 400.58,-64.65 389.82,-62.87 249.92,-39.78 211.68,-55.57 72.82,-26.87 70.48,-26.39 68.09,-25.83 65.69,-25.23"/>
<polygon fill="#63b8ff" stroke="#63b8ff" points="66.48,-21.81 55.91,-22.54 64.63,-28.56 66.48,-21.81"/>
</a>
</g>
</g>
<!-- Node18&#45;&gt;Node8 -->
<g id="edge32_Node000018_Node000008" class="edge">
<title>Node18&#45;&gt;Node8</title>
<g id="a_edge32_Node000018_Node000008"><a xlink:title=" ">
<path fill="none" stroke="#63b8ff" d="M421.59,-69.51C411.01,-67.24 400.1,-64.95 389.82,-62.87 317.1,-48.17 232.56,-32.66 180.37,-23.26"/>
<polygon fill="#63b8ff" stroke="#63b8ff" points="180.84,-19.79 170.38,-21.46 179.6,-26.68 180.84,-19.79"/>
</a>
</g>
</g>
<!-- Node19 -->
<g id="Node000019" class="node">
<title>Node19</title>
<g id="a_Node000019"><a xlink:title=" ">
<ellipse fill="#e0e0e0" stroke="#999999" cx="708.82" cy="-13.44" rx="29.9" ry="13.37"/>
<text text-anchor="middle" x="708.82" y="-10.94" font-family="Helvetica,sans-Serif" font-size="10.00">array</text>
</a>
</g>
</g>
<!-- Node18&#45;&gt;Node19 -->
<g id="edge29_Node000018_Node000019" class="edge">
<title>Node18&#45;&gt;Node19</title>
<g id="a_edge29_Node000018_Node000019"><a xlink:title=" ">
<path fill="none" stroke="#63b8ff" d="M534.67,-67.33C577.91,-54.2 638.24,-35.87 675.36,-24.6"/>
<polygon fill="#63b8ff" stroke="#63b8ff" points="676.63,-27.87 685.18,-21.62 674.59,-21.17 676.63,-27.87"/>
</a>
</g>
</g>
<!-- Node20 -->
<g id="Node000020" class="node">
<title>Node20</title>
<g id="a_Node000020"><a xlink:title=" ">
<ellipse fill="#e0e0e0" stroke="#999999" cx="482.82" cy="-13.44" rx="28.98" ry="13.37"/>
<text text-anchor="middle" x="482.82" y="-10.94" font-family="Helvetica,sans-Serif" font-size="10.00">tuple</text>
</a>
</g>
</g>
<!-- Node18&#45;&gt;Node20 -->
<g id="edge31_Node000018_Node000020" class="edge">
<title>Node18&#45;&gt;Node20</title>
<g id="a_edge31_Node000018_Node000020"><a xlink:title=" ">
<path fill="none" stroke="#63b8ff" d="M482.82,-62.86C482.82,-54.83 482.82,-45.55 482.82,-37.28"/>
<polygon fill="#63b8ff" stroke="#63b8ff" points="486.32,-37.18 482.82,-27.18 479.32,-37.18 486.32,-37.18"/>
</a>
</g>
</g>
<!-- Node21&#45;&gt;Node3 -->
<g id="edge42_Node000021_Node000003" class="edge">
<title>Node21&#45;&gt;Node3</title>
<g id="a_edge42_Node000021_Node000003"><a xlink:title=" ">
<path fill="none" stroke="#63b8ff" d="M1188.32,-149.24C1203.26,-139.02 1223.5,-123.26 1236.82,-105.3 1252.37,-84.32 1262.89,-56.04 1268.85,-36.63"/>
<polygon fill="#63b8ff" stroke="#63b8ff" points="1272.26,-37.44 1271.69,-26.86 1265.54,-35.48 1272.26,-37.44"/>
</a>
</g>
</g>
<!-- Node21&#45;&gt;Node6 -->
<g id="edge43_Node000021_Node000006" class="edge">
<title>Node21&#45;&gt;Node6</title>
<g id="a_edge43_Node000021_Node000006"><a xlink:title=" ">
<path fill="none" stroke="#63b8ff" d="M1114.08,-151.38C1096.16,-148.11 1076.15,-144.5 1057.82,-141.3 962.38,-124.62 938.06,-123.09 842.82,-105.3 834.53,-103.75 825.87,-102.06 817.27,-100.34"/>
<polygon fill="#63b8ff" stroke="#63b8ff" points="817.72,-96.86 807.22,-98.32 816.34,-103.73 817.72,-96.86"/>
</a>
</g>
</g>
<!-- Node21&#45;&gt;Node19 -->
<g id="edge37_Node000021_Node000019" class="edge">
<title>Node21&#45;&gt;Node19</title>
<g id="a_edge37_Node000021_Node000019"><a xlink:title=" ">
<path fill="none" stroke="#63b8ff" d="M1113.9,-151.43C1030.51,-136.06 881.01,-108.23 875.82,-105.3 853.79,-92.83 858.72,-77.16 837.82,-62.87 809.19,-43.29 771.62,-30.36 744.41,-22.82"/>
<polygon fill="#63b8ff" stroke="#63b8ff" points="745.09,-19.38 734.53,-20.19 743.29,-26.14 745.09,-19.38"/>
</a>
</g>
</g>
<!-- Node22 -->
<g id="Node000022" class="node">
<title>Node22</title>
<g id="a_Node000022"><a xlink:title=" ">
<ellipse fill="#e0e0e0" stroke="#999999" cx="919.82" cy="-84.08" rx="35.21" ry="13.37"/>
<text text-anchor="middle" x="919.82" y="-81.58" font-family="Helvetica,sans-Serif" font-size="10.00">cstdint</text>
</a>
</g>
</g>
<!-- Node21&#45;&gt;Node22 -->
<g id="edge38_Node000021_Node000022" class="edge">
<title>Node21&#45;&gt;Node22</title>
<g id="a_edge38_Node000021_Node000022"><a xlink:title=" ">
<path fill="none" stroke="#63b8ff" d="M1121.6,-150.68C1079.83,-140.59 1017.53,-124.27 964.82,-105.3 959.91,-103.53 954.79,-101.46 949.83,-99.33"/>
<polygon fill="#63b8ff" stroke="#63b8ff" points="951.17,-96.09 940.61,-95.22 948.32,-102.49 951.17,-96.09"/>
</a>
</g>
</g>
<!-- Node23 -->
<g id="Node000023" class="node">
<title>Node23</title>
<g id="a_Node000023"><a xlink:title=" ">
<ellipse fill="#e0e0e0" stroke="#999999" cx="1008.82" cy="-84.08" rx="35.21" ry="13.37"/>
<text text-anchor="middle" x="1008.82" y="-81.58" font-family="Helvetica,sans-Serif" font-size="10.00">cstring</text>
</a>
</g>
</g>
<!-- Node21&#45;&gt;Node23 -->
<g id="edge39_Node000021_Node000023" class="edge">
<title>Node21&#45;&gt;Node23</title>
<g id="a_edge39_Node000021_Node000023"><a xlink:title=" ">
<path fill="none" stroke="#63b8ff" d="M1143.47,-149.4C1115.16,-135.88 1069.37,-114.01 1039.18,-99.58"/>
<polygon fill="#63b8ff" stroke="#63b8ff" points="1040.5,-96.34 1029.97,-95.18 1037.48,-102.65 1040.5,-96.34"/>
</a>
</g>
</g>
<!-- Node24 -->
<g id="Node000024" class="node">
<title>Node24</title>
<g id="a_Node000024"><a xlink:title=" ">
<ellipse fill="#e0e0e0" stroke="#999999" cx="1095.82" cy="-84.08" rx="33.88" ry="13.37"/>
<text text-anchor="middle" x="1095.82" y="-81.58" font-family="Helvetica,sans-Serif" font-size="10.00">iosfwd</text>
</a>
</g>
</g>
<!-- Node21&#45;&gt;Node24 -->
<g id="edge40_Node000021_Node000024" class="edge">
<title>Node21&#45;&gt;Node24</title>
<g id="a_edge40_Node000021_Node000024"><a xlink:title=" ">
<path fill="none" stroke="#63b8ff" d="M1156.77,-148.89C1145.26,-136.84 1127.74,-118.51 1114.44,-104.58"/>
<polygon fill="#63b8ff" stroke="#63b8ff" points="1116.61,-101.78 1107.17,-96.97 1111.55,-106.62 1116.61,-101.78"/>
</a>
</g>
</g>
<!-- Node25 -->
<g id="Node000025" class="node">
<title>Node25</title>
<g id="a_Node000025"><a xlink:title=" ">
<ellipse fill="#e0e0e0" stroke="#999999" cx="1187.82" cy="-84.08" rx="39.7" ry="13.37"/>
<text text-anchor="middle" x="1187.82" y="-81.58" font-family="Helvetica,sans-Serif" font-size="10.00">optional</text>
</a>
</g>
</g>
<!-- Node21&#45;&gt;Node25 -->
<g id="edge41_Node000021_Node000025" class="edge">
<title>Node21&#45;&gt;Node25</title>
<g id="a_edge41_Node000021_Node000025"><a xlink:title=" ">
<path fill="none" stroke="#63b8ff" d="M1171.96,-148.89C1174.74,-137.72 1178.86,-121.14 1182.2,-107.68"/>
<polygon fill="#63b8ff" stroke="#63b8ff" points="1185.66,-108.27 1184.68,-97.72 1178.87,-106.58 1185.66,-108.27"/>
</a>
</g>
</g>
<!-- Node26&#45;&gt;Node3 -->
<g id="edge49_Node000026_Node000003" class="edge">
<title>Node26&#45;&gt;Node3</title>
<g id="a_edge49_Node000026_Node000003"><a xlink:title=" ">
<path fill="none" stroke="#63b8ff" d="M1273.34,-301.75C1292.55,-292.8 1313.33,-279.88 1326.82,-262.15 1348.53,-233.6 1341.57,-219.33 1345.82,-183.72 1352.19,-130.39 1370.91,-110.36 1345.82,-62.87 1337.39,-46.92 1321.09,-35.23 1306.23,-27.34"/>
<polygon fill="#63b8ff" stroke="#63b8ff" points="1307.76,-24.19 1297.24,-22.91 1304.67,-30.47 1307.76,-24.19"/>
</a>
</g>
</g>
<!-- Node27 -->
<g id="Node000027" class="node">
<title>Node27</title>
<g id="a_Node000027"><a xlink:title=" ">
<ellipse fill="#e0e0e0" stroke="#999999" cx="1271.82" cy="-240.94" rx="45.92" ry="13.37"/>
<text text-anchor="middle" x="1271.82" y="-238.44" font-family="Helvetica,sans-Serif" font-size="10.00">functional</text>
</a>
</g>
</g>
<!-- Node26&#45;&gt;Node27 -->
<g id="edge47_Node000026_Node000027" class="edge">
<title>Node26&#45;&gt;Node27</title>
<g id="a_edge47_Node000026_Node000027"><a xlink:title=" ">
<path fill="none" stroke="#63b8ff" d="M1237.91,-298.28C1244.48,-287.36 1252.6,-273.87 1259.24,-262.83"/>
<polygon fill="#63b8ff" stroke="#63b8ff" points="1262.25,-264.61 1264.41,-254.24 1256.26,-261 1262.25,-264.61"/>
</a>
</g>
</g>
<!-- Node28 -->
<g id="Node000028" class="node">
<title>Node28</title>
<g id="a_Node000028"><a xlink:title=" ">
<ellipse fill="#e0e0e0" stroke="#999999" cx="1180.82" cy="-240.94" rx="26.74" ry="13.37"/>
<text text-anchor="middle" x="1180.82" y="-238.44" font-family="Helvetica,sans-Serif" font-size="10.00">map</text>
</a>
</g>
</g>
<!-- Node26&#45;&gt;Node28 -->
<g id="edge48_Node000026_Node000028" class="edge">
<title>Node26&#45;&gt;Node28</title>
<g id="a_edge48_Node000026_Node000028"><a xlink:title=" ">
<path fill="none" stroke="#63b8ff" d="M1214,-298.28C1207.63,-287.47 1199.78,-274.14 1193.32,-263.16"/>
<polygon fill="#63b8ff" stroke="#63b8ff" points="1196.16,-261.08 1188.07,-254.24 1190.12,-264.63 1196.16,-261.08"/>
</a>
</g>
</g>
</g>
</svg>

<g id="navigator" transform="translate(0 0)" fill="#404254">
  <rect fill="#f2f5e9" fill-opacity="0.5" stroke="#606060" stroke-width=".5" x="0" y="0" width="60" height="60"/>
  <use id="zoomplus" xlink:href="#zoomPlus" x="17" y="9" onmousedown="handleZoom(evt,'in')"/>
  <use id="zoomminus" xlink:href="#zoomMin" x="42" y="9" onmousedown="handleZoom(evt,'out')"/>
  <use id="reset" xlink:href="#resetDef" x="30" y="36" onmousedown="handleReset()"/>
   <use id="arrowup" xlink:href="#arrowUp" x="0" y="0" onmousedown="handlePan(0,-1)"/>
  <use id="arrowright" xlink:href="#arrowRight" x="0" y="0" onmousedown="handlePan(1,0)"/>
  <use id="arrowdown" xlink:href="#arrowDown" x="0" y="0" onmousedown="handlePan(0,1)"/>
  <use id="arrowleft" xlink:href="#arrowLeft" x="0" y="0" onmousedown="handlePan(-1,0)"/>
</g>
<svg viewBox="0 0 15 15" width="100%" height="30px" preserveAspectRatio="xMaxYMin meet">
 <g id="arrow_out" transform="scale(0.3 0.3)">
  <a xlink:href="mesh__source_8h__incl_org.svg" target="_base">
   <rect id="button" ry="5" rx="5" y="6" x="6" height="38" width="38"
        fill="#f2f5e9" fill-opacity="0.5" stroke="#606060" stroke-width="1.0"/>
   <path id="arrow"
     d="M 11.500037,31.436501 C 11.940474,20.09759 22.043105,11.32322 32.158766,21.979434 L 37.068811,17.246167 C 37.068811,17.246167 37.088388,32 37.088388,32 L 22.160133,31.978069 C 22.160133,31.978069 26.997745,27.140456 26.997745,27.140456 C 18.528582,18.264221 13.291696,25.230495 11.500037,31.436501 z"
     style="fill:#404040;"/>
  </a>
 </g>
</svg>

<style type='text/css'>
<![CDATA[
[data-mouse-over-selected='false'] { opacity: 0.7; }
[data-mouse-over-selected='true']  { opacity: 1.0; }
]]>
</style>
<script type="application/ecmascript"><![CDATA[
document.addEventListener('DOMContentLoaded', (event) => {
  highlightEdges();
  highlightAdjacentNodes();
});
]]></script>
</svg>
