<?xml version="1.0" encoding="UTF-8" standalone="no"?>
<!DOCTYPE svg PUBLIC "-//W3C//DTD SVG 1.1//EN"
 "http://www.w3.org/Graphics/SVG/1.1/DTD/svg11.dtd">
<!-- Generated by graphviz version 2.43.0 (0)
 -->
<!-- Title: drake/planning/graph_algorithms/min_clique_cover_solver_via_greedy.h Pages: 1 -->
<!--zoomable 443 -->

<svg id="main" version="1.1" xmlns="http://www.w3.org/2000/svg" xmlns:xlink="http://www.w3.org/1999/xlink" xml:space="preserve" onload="init(evt)">

<style type="text/css"><![CDATA[
.node, .edge {opacity: 0.7;}
.node.selected, .edge.selected {opacity: 1;}
.edge:hover path { stroke: red; }
.edge:hover polygon { stroke: red; fill: red; }
]]></style>

<defs>
  <circle id="rim" cx="0" cy="0" r="7"/>
  <circle id="rim2" cx="0" cy="0" r="3.5"/>
  <g id="zoomPlus">
    <use xlink:href="#rim" fill="#404040"><set attributeName="fill" to="#808080" begin="zoomplus.mouseover" end="zoomplus.mouseout"/></use>
    <path d="M-4,0h8M0,-4v8" fill="none" stroke="white" stroke-width="1.5" pointer-events="none"/>
  </g>
  <g id="zoomMin">
    <use xlink:href="#rim" fill="#404040"><set attributeName="fill" to="#808080" begin="zoomminus.mouseover" end="zoomminus.mouseout"/></use>
    <path d="M-4,0h8" fill="none" stroke="white" stroke-width="1.5" pointer-events="none"/>
  </g>
  <g id="arrowUp" transform="translate(30 24)">
    <use xlink:href="#rim"/>
    <path pointer-events="none" fill="none" stroke="white" stroke-width="1.5" d="M0,-3.0v7 M-2.5,-0.5L0,-3.0L2.5,-0.5"/>
  </g>
  <g id="arrowRight" transform="rotate(90) translate(36 -43)">
    <use xlink:href="#rim"/>
    <path pointer-events="none" fill="none" stroke="white" stroke-width="1.5" d="M0,-3.0v7 M-2.5,-0.5L0,-3.0L2.5,-0.5"/>
  </g>
  <g id="arrowDown" transform="rotate(180) translate(-30 -48)">
    <use xlink:href="#rim"/>
    <path pointer-events="none" fill="none" stroke="white" stroke-width="1.5" d="M0,-3.0v7 M-2.5,-0.5L0,-3.0L2.5,-0.5"/>
  </g>
  <g id="arrowLeft" transform="rotate(270) translate(-36 17)">
    <use xlink:href="#rim"/>
    <path pointer-events="none" fill="none" stroke="white" stroke-width="1.5" d="M0,-3.0v7 M-2.5,-0.5L0,-3.0L2.5,-0.5"/>
  </g>
  <g id="resetDef">
    <use xlink:href="#rim2" fill="#404040"><set attributeName="fill" to="#808080" begin="reset.mouseover" end="reset.mouseout"/></use>
  </g>
</defs>
<script type="application/ecmascript">
var viewWidth = 1211;
var viewHeight = 443;
var sectionId = 'dynsection-0';
</script>
<script type="application/ecmascript" xlink:href="svg.min.js"/>
<svg id="graph" class="graph">
<g id="viewport">
<title>drake/planning/graph_algorithms/min_clique_cover_solver_via_greedy.h</title>
<!-- Node1 -->
<g id="Node000001" class="node">
<title>Node1</title>
<g id="a_Node000001"><a xlink:title=" ">
<ellipse fill="#999999" stroke="#666666" cx="398.28" cy="-405.57" rx="106.55" ry="28.98"/>
<text text-anchor="start" x="330.78" y="-414.07" font-family="Helvetica,sans-Serif" font-size="10.00">drake/planning/graph</text>
<text text-anchor="start" x="330.78" y="-403.07" font-family="Helvetica,sans-Serif" font-size="10.00">_algorithms/min_clique</text>
<text text-anchor="middle" x="398.28" y="-392.07" font-family="Helvetica,sans-Serif" font-size="10.00">_cover_solver_via_greedy.h</text>
</a>
</g>
</g>
<!-- Node2 -->
<g id="Node000002" class="node">
<title>Node2</title>
<g id="a_Node000002"><a xlink:title=" ">
<ellipse fill="#e0e0e0" stroke="#999999" cx="175.28" cy="-225.38" rx="41.02" ry="13.37"/>
<text text-anchor="middle" x="175.28" y="-222.88" font-family="Helvetica,sans-Serif" font-size="10.00">memory</text>
</a>
</g>
</g>
<!-- Node1&#45;&gt;Node2 -->
<g id="edge1_Node000001_Node000002" class="edge">
<title>Node1&#45;&gt;Node2</title>
<g id="a_edge1_Node000001_Node000002"><a xlink:title=" ">
<path fill="none" stroke="#63b8ff" d="M303.51,-392C242.47,-381.74 171.11,-364.93 152.28,-340.58 131.33,-313.48 148.17,-272.25 161.97,-247.45"/>
<polygon fill="#63b8ff" stroke="#63b8ff" points="164.99,-249.22 167.02,-238.82 158.95,-245.68 164.99,-249.22"/>
</a>
</g>
</g>
<!-- Node3 -->
<g id="Node000003" class="node">
<title>Node3</title>
<g id="a_Node000003"><a xlink:title=" ">
<ellipse fill="#e0e0e0" stroke="#999999" cx="1058.28" cy="-225.38" rx="22.76" ry="13.37"/>
<text text-anchor="middle" x="1058.28" y="-222.88" font-family="Helvetica,sans-Serif" font-size="10.00">set</text>
</a>
</g>
</g>
<!-- Node1&#45;&gt;Node3 -->
<g id="edge2_Node000001_Node000003" class="edge">
<title>Node1&#45;&gt;Node3</title>
<g id="a_edge2_Node000001_Node000003"><a xlink:title=" ">
<path fill="none" stroke="#63b8ff" d="M501.43,-398.05C589.38,-390.39 718.32,-374.19 826.28,-340.58 906.81,-315.51 994.09,-265.73 1034.84,-241.01"/>
<polygon fill="#63b8ff" stroke="#63b8ff" points="1036.79,-243.92 1043.49,-235.72 1033.14,-237.95 1036.79,-243.92"/>
</a>
</g>
</g>
<!-- Node4 -->
<g id="Node000004" class="node">
<title>Node4</title>
<g id="a_Node000004"><a xlink:title=" ">
<ellipse fill="#e0e0e0" stroke="#999999" cx="487.28" cy="-76.31" rx="33.47" ry="13.37"/>
<text text-anchor="middle" x="487.28" y="-73.81" font-family="Helvetica,sans-Serif" font-size="10.00">vector</text>
</a>
</g>
</g>
<!-- Node1&#45;&gt;Node4 -->
<g id="edge3_Node000001_Node000004" class="edge">
<title>Node1&#45;&gt;Node4</title>
<g id="a_edge3_Node000001_Node000004"><a xlink:title=" ">
<path fill="none" stroke="#63b8ff" d="M407.18,-376.6C418.53,-335.19 432.84,-256.81 398.28,-204.17 376.22,-170.55 337.35,-201.78 315.28,-168.17 304.94,-152.4 303.9,-140.77 315.28,-125.74 323.48,-114.92 400.89,-96.25 449.02,-85.52"/>
<polygon fill="#63b8ff" stroke="#63b8ff" points="449.81,-88.94 458.82,-83.36 448.3,-82.1 449.81,-88.94"/>
</a>
</g>
</g>
<!-- Node5 -->
<g id="Node000005" class="node">
<title>Node5</title>
<g id="a_Node000005"><a xlink:title=" ">
<ellipse fill="#e0e0e0" stroke="#999999" cx="332.28" cy="-225.38" rx="56.64" ry="13.37"/>
<text text-anchor="middle" x="332.28" y="-222.88" font-family="Helvetica,sans-Serif" font-size="10.00">Eigen/Sparse</text>
</a>
</g>
</g>
<!-- Node1&#45;&gt;Node5 -->
<g id="edge4_Node000001_Node000005" class="edge">
<title>Node1&#45;&gt;Node5</title>
<g id="a_edge4_Node000001_Node000005"><a xlink:title=" ">
<path fill="none" stroke="#63b8ff" d="M390.92,-376.51C384.04,-351.5 372.94,-314.08 360.28,-282.59 355.6,-270.94 349.46,-258.39 344.13,-248.12"/>
<polygon fill="#63b8ff" stroke="#63b8ff" points="347.11,-246.26 339.33,-239.06 340.92,-249.54 347.11,-246.26"/>
</a>
</g>
</g>
<!-- Node6 -->
<g id="Node000006" class="node">
<title>Node6</title>
<g id="a_Node000006"><a xlink:href="max__clique__solver__base_8h.html" target="_top" xlink:title=" ">
<ellipse fill="white" stroke="#666666" cx="256.28" cy="-311.58" rx="94.51" ry="28.98"/>
<text text-anchor="start" x="197.28" y="-320.08" font-family="Helvetica,sans-Serif" font-size="10.00">drake/planning/graph</text>
<text text-anchor="start" x="197.28" y="-309.08" font-family="Helvetica,sans-Serif" font-size="10.00">_algorithms/max_clique</text>
<text text-anchor="middle" x="256.28" y="-298.08" font-family="Helvetica,sans-Serif" font-size="10.00">_solver_base.h</text>
</a>
</g>
</g>
<!-- Node1&#45;&gt;Node6 -->
<g id="edge5_Node000001_Node000006" class="edge">
<title>Node1&#45;&gt;Node6</title>
<g id="a_edge5_Node000001_Node000006"><a xlink:title=" ">
<path fill="none" stroke="#63b8ff" d="M357.97,-378.45C341.2,-367.59 321.6,-354.9 304.11,-343.57"/>
<polygon fill="#63b8ff" stroke="#63b8ff" points="306.01,-340.63 295.72,-338.13 302.21,-346.5 306.01,-340.63"/>
</a>
</g>
</g>
<!-- Node24 -->
<g id="Node000024" class="node">
<title>Node24</title>
<g id="a_Node000024"><a xlink:href="min__clique__cover__solver__base_8h.html" target="_top" xlink:title=" ">
<ellipse fill="white" stroke="#666666" cx="724.28" cy="-311.58" rx="92.76" ry="28.98"/>
<text text-anchor="start" x="666.78" y="-320.08" font-family="Helvetica,sans-Serif" font-size="10.00">drake/planning/graph</text>
<text text-anchor="start" x="666.78" y="-309.08" font-family="Helvetica,sans-Serif" font-size="10.00">_algorithms/min_clique</text>
<text text-anchor="middle" x="724.28" y="-298.08" font-family="Helvetica,sans-Serif" font-size="10.00">_cover_solver_base.h</text>
</a>
</g>
</g>
<!-- Node1&#45;&gt;Node24 -->
<g id="edge31_Node000001_Node000024" class="edge">
<title>Node1&#45;&gt;Node24</title>
<g id="a_edge31_Node000001_Node000024"><a xlink:title=" ">
<path fill="none" stroke="#63b8ff" d="M470.63,-384.15C522.99,-369.38 593.65,-349.44 647.09,-334.36"/>
<polygon fill="#63b8ff" stroke="#63b8ff" points="648.19,-337.69 656.86,-331.61 646.29,-330.95 648.19,-337.69"/>
</a>
</g>
</g>
<!-- Node6&#45;&gt;Node2 -->
<g id="edge6_Node000006_Node000002" class="edge">
<title>Node6&#45;&gt;Node2</title>
<g id="a_edge6_Node000006_Node000002"><a xlink:title=" ">
<path fill="none" stroke="#63b8ff" d="M230.21,-283.48C218.45,-271.25 204.82,-257.09 194.08,-245.92"/>
<polygon fill="#63b8ff" stroke="#63b8ff" points="196.3,-243.18 186.84,-238.4 191.25,-248.03 196.3,-243.18"/>
</a>
</g>
</g>
<!-- Node6&#45;&gt;Node5 -->
<g id="edge7_Node000006_Node000005" class="edge">
<title>Node6&#45;&gt;Node5</title>
<g id="a_edge7_Node000006_Node000005"><a xlink:title=" ">
<path fill="none" stroke="#63b8ff" d="M280.75,-283.48C291.64,-271.41 304.25,-257.45 314.26,-246.35"/>
<polygon fill="#63b8ff" stroke="#63b8ff" points="316.93,-248.61 321.03,-238.84 311.74,-243.92 316.93,-248.61"/>
</a>
</g>
</g>
<!-- Node7 -->
<g id="Node000007" class="node">
<title>Node7</title>
<g id="a_Node000007"><a xlink:href="eigen__types_8h.html" target="_top" xlink:title="This file contains abbreviated definitions for certain specializations of Eigen::Matrix that are comm...">
<ellipse fill="white" stroke="#666666" cx="649.28" cy="-225.38" rx="84.29" ry="21.43"/>
<text text-anchor="start" x="597.78" y="-228.38" font-family="Helvetica,sans-Serif" font-size="10.00">drake/common/eigen</text>
<text text-anchor="middle" x="649.28" y="-217.38" font-family="Helvetica,sans-Serif" font-size="10.00">_types.h</text>
</a>
</g>
</g>
<!-- Node6&#45;&gt;Node7 -->
<g id="edge8_Node000006_Node000007" class="edge">
<title>Node6&#45;&gt;Node7</title>
<g id="a_edge8_Node000006_Node000007"><a xlink:title=" ">
<path fill="none" stroke="#63b8ff" d="M332.52,-294.25C403.26,-279.09 507.79,-256.7 577.18,-241.83"/>
<polygon fill="#63b8ff" stroke="#63b8ff" points="578.11,-245.21 587.15,-239.69 576.64,-238.37 578.11,-245.21"/>
</a>
</g>
</g>
<!-- Node8 -->
<g id="Node000008" class="node">
<title>Node8</title>
<g id="a_Node000008"><a xlink:title=" ">
<ellipse fill="#e0e0e0" stroke="#999999" cx="361.28" cy="-146.95" rx="37.45" ry="13.37"/>
<text text-anchor="middle" x="361.28" y="-144.45" font-family="Helvetica,sans-Serif" font-size="10.00">iterator</text>
</a>
</g>
</g>
<!-- Node7&#45;&gt;Node8 -->
<g id="edge9_Node000007_Node000008" class="edge">
<title>Node7&#45;&gt;Node8</title>
<g id="a_edge9_Node000007_Node000008"><a xlink:title=" ">
<path fill="none" stroke="#63b8ff" d="M582.95,-212.2C534.05,-202.43 466.24,-187.22 408.28,-168.17 403.01,-166.43 397.51,-164.34 392.21,-162.17"/>
<polygon fill="#63b8ff" stroke="#63b8ff" points="393.54,-158.93 382.97,-158.23 390.8,-165.37 393.54,-158.93"/>
</a>
</g>
</g>
<!-- Node9 -->
<g id="Node000009" class="node">
<title>Node9</title>
<g id="a_Node000009"><a xlink:title=" ">
<ellipse fill="#e0e0e0" stroke="#999999" cx="962.28" cy="-76.31" rx="31.64" ry="13.37"/>
<text text-anchor="middle" x="962.28" y="-73.81" font-family="Helvetica,sans-Serif" font-size="10.00">utility</text>
</a>
</g>
</g>
<!-- Node7&#45;&gt;Node9 -->
<g id="edge10_Node000007_Node000009" class="edge">
<title>Node7&#45;&gt;Node9</title>
<g id="a_edge10_Node000007_Node000009"><a xlink:title=" ">
<path fill="none" stroke="#63b8ff" d="M730.71,-219.73C809.38,-213.45 920.84,-199.22 950.28,-168.17 967.36,-150.16 968.08,-120.37 966.04,-99.83"/>
<polygon fill="#63b8ff" stroke="#63b8ff" points="969.5,-99.26 964.75,-89.78 962.55,-100.15 969.5,-99.26"/>
</a>
</g>
</g>
<!-- Node10 -->
<g id="Node000010" class="node">
<title>Node10</title>
<g id="a_Node000010"><a xlink:title=" ">
<ellipse fill="#e0e0e0" stroke="#999999" cx="471.28" cy="-146.95" rx="54.39" ry="13.37"/>
<text text-anchor="middle" x="471.28" y="-144.45" font-family="Helvetica,sans-Serif" font-size="10.00">Eigen/Dense</text>
</a>
</g>
</g>
<!-- Node7&#45;&gt;Node10 -->
<g id="edge11_Node000007_Node000010" class="edge">
<title>Node7&#45;&gt;Node10</title>
<g id="a_edge11_Node000007_Node000010"><a xlink:title=" ">
<path fill="none" stroke="#63b8ff" d="M608,-206.65C577.09,-193.38 535.28,-175.43 506.06,-162.88"/>
<polygon fill="#63b8ff" stroke="#63b8ff" points="507.24,-159.58 496.67,-158.85 504.48,-166.01 507.24,-159.58"/>
</a>
</g>
</g>
<!-- Node11 -->
<g id="Node000011" class="node">
<title>Node11</title>
<g id="a_Node000011"><a xlink:href="constants_8h.html" target="_top" xlink:title=" ">
<ellipse fill="white" stroke="#666666" cx="649.28" cy="-146.95" rx="105.22" ry="13.37"/>
<text text-anchor="middle" x="649.28" y="-144.45" font-family="Helvetica,sans-Serif" font-size="10.00">drake/common/constants.h</text>
</a>
</g>
</g>
<!-- Node7&#45;&gt;Node11 -->
<g id="edge12_Node000007_Node000011" class="edge">
<title>Node7&#45;&gt;Node11</title>
<g id="a_edge12_Node000007_Node000011"><a xlink:title=" ">
<path fill="none" stroke="#63b8ff" d="M649.28,-203.9C649.28,-193.66 649.28,-181.24 649.28,-170.7"/>
<polygon fill="#63b8ff" stroke="#63b8ff" points="652.78,-170.58 649.28,-160.58 645.78,-170.58 652.78,-170.58"/>
</a>
</g>
</g>
<!-- Node12 -->
<g id="Node000012" class="node">
<title>Node12</title>
<g id="a_Node000012"><a xlink:href="drake__assert_8h.html" target="_top" xlink:title="Provides Drake&#39;s assertion mechanics.">
<ellipse fill="white" stroke="#666666" cx="1119.28" cy="-146.95" rx="84.29" ry="21.43"/>
<text text-anchor="start" x="1067.78" y="-149.95" font-family="Helvetica,sans-Serif" font-size="10.00">drake/common/drake</text>
<text text-anchor="middle" x="1119.28" y="-138.95" font-family="Helvetica,sans-Serif" font-size="10.00">_assert.h</text>
</a>
</g>
</g>
<!-- Node7&#45;&gt;Node12 -->
<g id="edge13_Node000007_Node000012" class="edge">
<title>Node7&#45;&gt;Node12</title>
<g id="a_edge13_Node000007_Node000012"><a xlink:title=" ">
<path fill="none" stroke="#63b8ff" d="M721.83,-214.59C796.94,-204.17 917.6,-186.68 1021.28,-168.17 1029.73,-166.66 1038.57,-164.98 1047.33,-163.25"/>
<polygon fill="#63b8ff" stroke="#63b8ff" points="1048.05,-166.68 1057.17,-161.29 1046.68,-159.81 1048.05,-166.68"/>
</a>
</g>
</g>
<!-- Node17 -->
<g id="Node000017" class="node">
<title>Node17</title>
<g id="a_Node000017"><a xlink:href="drake__copyable_8h.html" target="_top" xlink:title="Provides careful macros to selectively enable or disable the special member functions for copy&#45;constr...">
<ellipse fill="white" stroke="#666666" cx="857.28" cy="-146.95" rx="84.29" ry="21.43"/>
<text text-anchor="start" x="805.78" y="-149.95" font-family="Helvetica,sans-Serif" font-size="10.00">drake/common/drake</text>
<text text-anchor="middle" x="857.28" y="-138.95" font-family="Helvetica,sans-Serif" font-size="10.00">_copyable.h</text>
</a>
</g>
</g>
<!-- Node7&#45;&gt;Node17 -->
<g id="edge19_Node000007_Node000017" class="edge">
<title>Node7&#45;&gt;Node17</title>
<g id="a_edge19_Node000007_Node000017"><a xlink:title=" ">
<path fill="none" stroke="#63b8ff" d="M695.19,-207.51C726.66,-195.95 768.57,-180.55 801.9,-168.3"/>
<polygon fill="#63b8ff" stroke="#63b8ff" points="803.32,-171.51 811.5,-164.78 800.9,-164.94 803.32,-171.51"/>
</a>
</g>
</g>
<!-- Node18 -->
<g id="Node000018" class="node">
<title>Node18</title>
<g id="a_Node000018"><a xlink:href="fmt__eigen_8h.html" target="_top" xlink:title=" ">
<ellipse fill="white" stroke="#666666" cx="161.28" cy="-146.95" rx="106.55" ry="13.37"/>
<text text-anchor="middle" x="161.28" y="-144.45" font-family="Helvetica,sans-Serif" font-size="10.00">drake/common/fmt_eigen.h</text>
</a>
</g>
</g>
<!-- Node7&#45;&gt;Node18 -->
<g id="edge20_Node000007_Node000018" class="edge">
<title>Node7&#45;&gt;Node18</title>
<g id="a_edge20_Node000007_Node000018"><a xlink:title=" ">
<path fill="none" stroke="#63b8ff" d="M579.63,-213.47C488.03,-199.12 327.81,-174.03 234.48,-159.42"/>
<polygon fill="#63b8ff" stroke="#63b8ff" points="234.98,-155.95 224.56,-157.86 233.89,-162.87 234.98,-155.95"/>
</a>
</g>
</g>
<!-- Node12&#45;&gt;Node9 -->
<g id="edge18_Node000012_Node000009" class="edge">
<title>Node12&#45;&gt;Node9</title>
<g id="a_edge18_Node000012_Node000009"><a xlink:title=" ">
<path fill="none" stroke="#63b8ff" d="M1078.85,-128.27C1051.9,-116.49 1017.05,-101.25 992.5,-90.52"/>
<polygon fill="#63b8ff" stroke="#63b8ff" points="993.88,-87.3 983.32,-86.5 991.08,-93.71 993.88,-87.3"/>
</a>
</g>
</g>
<!-- Node13 -->
<g id="Node000013" class="node">
<title>Node13</title>
<g id="a_Node000013"><a xlink:title=" ">
<ellipse fill="#e0e0e0" stroke="#999999" cx="1080.28" cy="-76.31" rx="29.9" ry="13.37"/>
<text text-anchor="middle" x="1080.28" y="-73.81" font-family="Helvetica,sans-Serif" font-size="10.00">array</text>
</a>
</g>
</g>
<!-- Node12&#45;&gt;Node13 -->
<g id="edge14_Node000012_Node000013" class="edge">
<title>Node12&#45;&gt;Node13</title>
<g id="a_edge14_Node000012_Node000013"><a xlink:title=" ">
<path fill="none" stroke="#63b8ff" d="M1107.79,-125.73C1102.91,-117.13 1097.21,-107.11 1092.28,-98.41"/>
<polygon fill="#63b8ff" stroke="#63b8ff" points="1095.27,-96.6 1087.29,-89.64 1089.19,-100.06 1095.27,-96.6"/>
</a>
</g>
</g>
<!-- Node14 -->
<g id="Node000014" class="node">
<title>Node14</title>
<g id="a_Node000014"><a xlink:title=" ">
<ellipse fill="#e0e0e0" stroke="#999999" cx="427.28" cy="-13.44" rx="31.23" ry="13.37"/>
<text text-anchor="middle" x="427.28" y="-10.94" font-family="Helvetica,sans-Serif" font-size="10.00">string</text>
</a>
</g>
</g>
<!-- Node12&#45;&gt;Node14 -->
<g id="edge15_Node000012_Node000014" class="edge">
<title>Node12&#45;&gt;Node14</title>
<g id="a_edge15_Node000012_Node000014"><a xlink:title=" ">
<path fill="none" stroke="#63b8ff" d="M1092.75,-126.82C1058.91,-102.43 1004.56,-63.34 1003.28,-62.87 904.88,-26.65 583.31,-17.29 468.49,-15.07"/>
<polygon fill="#63b8ff" stroke="#63b8ff" points="468.42,-11.57 458.35,-14.88 468.29,-18.57 468.42,-11.57"/>
</a>
</g>
</g>
<!-- Node15 -->
<g id="Node000015" class="node">
<title>Node15</title>
<g id="a_Node000015"><a xlink:title=" ">
<ellipse fill="#e0e0e0" stroke="#999999" cx="1157.28" cy="-76.31" rx="28.98" ry="13.37"/>
<text text-anchor="middle" x="1157.28" y="-73.81" font-family="Helvetica,sans-Serif" font-size="10.00">tuple</text>
</a>
</g>
</g>
<!-- Node12&#45;&gt;Node15 -->
<g id="edge16_Node000012_Node000015" class="edge">
<title>Node12&#45;&gt;Node15</title>
<g id="a_edge16_Node000012_Node000015"><a xlink:title=" ">
<path fill="none" stroke="#63b8ff" d="M1130.48,-125.73C1135.24,-117.13 1140.79,-107.11 1145.6,-98.41"/>
<polygon fill="#63b8ff" stroke="#63b8ff" points="1148.68,-100.08 1150.46,-89.64 1142.55,-96.69 1148.68,-100.08"/>
</a>
</g>
</g>
<!-- Node16 -->
<g id="Node000016" class="node">
<title>Node16</title>
<g id="a_Node000016"><a xlink:title=" ">
<ellipse fill="#e0e0e0" stroke="#999999" cx="830.28" cy="-13.44" rx="48.58" ry="13.37"/>
<text text-anchor="middle" x="830.28" y="-10.94" font-family="Helvetica,sans-Serif" font-size="10.00">type_traits</text>
</a>
</g>
</g>
<!-- Node12&#45;&gt;Node16 -->
<g id="edge17_Node000012_Node000016" class="edge">
<title>Node12&#45;&gt;Node16</title>
<g id="a_edge17_Node000012_Node000016"><a xlink:title=" ">
<path fill="none" stroke="#63b8ff" d="M1155.31,-127.68C1183.59,-110.98 1215.12,-85.51 1195.28,-62.87 1175.32,-40.09 984.83,-24.49 887.27,-17.93"/>
<polygon fill="#63b8ff" stroke="#63b8ff" points="887.48,-14.43 877.28,-17.26 887.02,-21.42 887.48,-14.43"/>
</a>
</g>
</g>
<!-- Node18&#45;&gt;Node4 -->
<g id="edge24_Node000018_Node000004" class="edge">
<title>Node18&#45;&gt;Node4</title>
<g id="a_edge24_Node000018_Node000004"><a xlink:title=" ">
<path fill="none" stroke="#63b8ff" d="M218.14,-135.53C274.67,-124.92 363.77,-107.55 440.28,-89.74 443.87,-88.91 447.59,-88 451.3,-87.06"/>
<polygon fill="#63b8ff" stroke="#63b8ff" points="452.2,-90.44 461,-84.55 450.45,-83.67 452.2,-90.44"/>
</a>
</g>
</g>
<!-- Node18&#45;&gt;Node14 -->
<g id="edge22_Node000018_Node000014" class="edge">
<title>Node18&#45;&gt;Node14</title>
<g id="a_edge22_Node000018_Node000014"><a xlink:title=" ">
<path fill="none" stroke="#63b8ff" d="M220.48,-135.73C288.88,-123.4 393.83,-102.73 407.28,-89.74 421.33,-76.17 425.9,-53.96 427.21,-37.16"/>
<polygon fill="#63b8ff" stroke="#63b8ff" points="430.71,-37.2 427.66,-27.06 423.71,-36.89 430.71,-37.2"/>
</a>
</g>
</g>
<!-- Node19 -->
<g id="Node000019" class="node">
<title>Node19</title>
<g id="a_Node000019"><a xlink:title=" ">
<ellipse fill="#e0e0e0" stroke="#999999" cx="28.28" cy="-76.31" rx="28.07" ry="13.37"/>
<text text-anchor="middle" x="28.28" y="-73.81" font-family="Helvetica,sans-Serif" font-size="10.00">span</text>
</a>
</g>
</g>
<!-- Node18&#45;&gt;Node19 -->
<g id="edge21_Node000018_Node000019" class="edge">
<title>Node18&#45;&gt;Node19</title>
<g id="a_edge21_Node000018_Node000019"><a xlink:title=" ">
<path fill="none" stroke="#63b8ff" d="M137.81,-133.84C114.77,-121.95 79.65,-103.82 55.42,-91.31"/>
<polygon fill="#63b8ff" stroke="#63b8ff" points="56.89,-88.13 46.4,-86.66 53.68,-94.35 56.89,-88.13"/>
</a>
</g>
</g>
<!-- Node20 -->
<g id="Node000020" class="node">
<title>Node20</title>
<g id="a_Node000020"><a xlink:title=" ">
<ellipse fill="#e0e0e0" stroke="#999999" cx="197.28" cy="-13.44" rx="51.74" ry="13.37"/>
<text text-anchor="middle" x="197.28" y="-10.94" font-family="Helvetica,sans-Serif" font-size="10.00">string_view</text>
</a>
</g>
</g>
<!-- Node18&#45;&gt;Node20 -->
<g id="edge23_Node000018_Node000020" class="edge">
<title>Node18&#45;&gt;Node20</title>
<g id="a_edge23_Node000018_Node000020"><a xlink:title=" ">
<path fill="none" stroke="#63b8ff" d="M166.38,-133.16C170.75,-121.87 177,-104.89 181.28,-89.74 186.23,-72.25 190.44,-52.09 193.29,-37.03"/>
<polygon fill="#63b8ff" stroke="#63b8ff" points="196.76,-37.55 195.13,-27.08 189.87,-36.28 196.76,-37.55"/>
</a>
</g>
</g>
<!-- Node21 -->
<g id="Node000021" class="node">
<title>Node21</title>
<g id="a_Node000021"><a xlink:title=" ">
<ellipse fill="#e0e0e0" stroke="#999999" cx="123.28" cy="-76.31" rx="48.58" ry="13.37"/>
<text text-anchor="middle" x="123.28" y="-73.81" font-family="Helvetica,sans-Serif" font-size="10.00">Eigen/Core</text>
</a>
</g>
</g>
<!-- Node18&#45;&gt;Node21 -->
<g id="edge25_Node000018_Node000021" class="edge">
<title>Node18&#45;&gt;Node21</title>
<g id="a_edge25_Node000018_Node000021"><a xlink:title=" ">
<path fill="none" stroke="#63b8ff" d="M154.31,-133.36C148.96,-123.69 141.43,-110.09 135.14,-98.72"/>
<polygon fill="#63b8ff" stroke="#63b8ff" points="138.12,-96.87 130.21,-89.82 131.99,-100.26 138.12,-96.87"/>
</a>
</g>
</g>
<!-- Node22 -->
<g id="Node000022" class="node">
<title>Node22</title>
<g id="a_Node000022"><a xlink:href="fmt_8h.html" target="_top" xlink:title=" ">
<ellipse fill="white" stroke="#666666" cx="314.28" cy="-76.31" rx="84.29" ry="13.37"/>
<text text-anchor="middle" x="314.28" y="-73.81" font-family="Helvetica,sans-Serif" font-size="10.00">drake/common/fmt.h</text>
</a>
</g>
</g>
<!-- Node18&#45;&gt;Node22 -->
<g id="edge26_Node000018_Node000022" class="edge">
<title>Node18&#45;&gt;Node22</title>
<g id="a_edge26_Node000018_Node000022"><a xlink:title=" ">
<path fill="none" stroke="#63b8ff" d="M188.29,-133.84C213.38,-122.58 250.93,-105.73 278.51,-93.36"/>
<polygon fill="#63b8ff" stroke="#63b8ff" points="280.12,-96.47 287.81,-89.18 277.25,-90.08 280.12,-96.47"/>
</a>
</g>
</g>
<!-- Node22&#45;&gt;Node14 -->
<g id="edge27_Node000022_Node000014" class="edge">
<title>Node22&#45;&gt;Node14</title>
<g id="a_edge27_Node000022_Node000014"><a xlink:title=" ">
<path fill="none" stroke="#63b8ff" d="M336.61,-63.28C354.74,-53.51 380.39,-39.7 399.78,-29.25"/>
<polygon fill="#63b8ff" stroke="#63b8ff" points="401.6,-32.25 408.74,-24.42 398.28,-26.08 401.6,-32.25"/>
</a>
</g>
</g>
<!-- Node22&#45;&gt;Node16 -->
<g id="edge29_Node000022_Node000016" class="edge">
<title>Node22&#45;&gt;Node16</title>
<g id="a_edge29_Node000022_Node000016"><a xlink:title=" ">
<path fill="none" stroke="#63b8ff" d="M378.85,-67.69C481.78,-55.55 681.17,-32.03 776.71,-20.76"/>
<polygon fill="#63b8ff" stroke="#63b8ff" points="777.21,-24.22 786.73,-19.57 776.39,-17.27 777.21,-24.22"/>
</a>
</g>
</g>
<!-- Node22&#45;&gt;Node20 -->
<g id="edge28_Node000022_Node000020" class="edge">
<title>Node22&#45;&gt;Node20</title>
<g id="a_edge28_Node000022_Node000020"><a xlink:title=" ">
<path fill="none" stroke="#63b8ff" d="M291.17,-63.28C273.12,-53.89 247.86,-40.75 228.09,-30.46"/>
<polygon fill="#63b8ff" stroke="#63b8ff" points="229.65,-27.33 219.16,-25.82 226.42,-33.54 229.65,-27.33"/>
</a>
</g>
</g>
<!-- Node23 -->
<g id="Node000023" class="node">
<title>Node23</title>
<g id="a_Node000023"><a xlink:title=" ">
<ellipse fill="#e0e0e0" stroke="#999999" cx="322.28" cy="-13.44" rx="55.72" ry="13.37"/>
<text text-anchor="middle" x="322.28" y="-10.94" font-family="Helvetica,sans-Serif" font-size="10.00">fmt/format.h</text>
</a>
</g>
</g>
<!-- Node22&#45;&gt;Node23 -->
<g id="edge30_Node000022_Node000023" class="edge">
<title>Node22&#45;&gt;Node23</title>
<g id="a_edge30_Node000022_Node000023"><a xlink:title=" ">
<path fill="none" stroke="#63b8ff" d="M315.94,-62.69C316.92,-55.27 318.18,-45.65 319.32,-36.96"/>
<polygon fill="#63b8ff" stroke="#63b8ff" points="322.8,-37.4 320.63,-27.03 315.86,-36.49 322.8,-37.4"/>
</a>
</g>
</g>
<!-- Node24&#45;&gt;Node3 -->
<g id="edge32_Node000024_Node000003" class="edge">
<title>Node24&#45;&gt;Node3</title>
<g id="a_edge32_Node000024_Node000003"><a xlink:title=" ">
<path fill="none" stroke="#63b8ff" d="M808.04,-299.14C868.56,-289.3 951.58,-272.52 1021.28,-246.59 1025.73,-244.94 1030.29,-242.83 1034.63,-240.6"/>
<polygon fill="#63b8ff" stroke="#63b8ff" points="1036.55,-243.54 1043.63,-235.66 1033.18,-237.4 1036.55,-243.54"/>
</a>
</g>
</g>
<!-- Node24&#45;&gt;Node4 -->
<g id="edge33_Node000024_Node000004" class="edge">
<title>Node24&#45;&gt;Node4</title>
<g id="a_edge33_Node000024_Node000004"><a xlink:title=" ">
<path fill="none" stroke="#63b8ff" d="M786.57,-289.97C872.91,-258.26 1011.78,-194 950.28,-125.74 922.44,-94.84 639.99,-82.31 530.41,-78.59"/>
<polygon fill="#63b8ff" stroke="#63b8ff" points="530.47,-75.1 520.36,-78.26 530.24,-82.09 530.47,-75.1"/>
</a>
</g>
</g>
<!-- Node24&#45;&gt;Node5 -->
<g id="edge34_Node000024_Node000005" class="edge">
<title>Node24&#45;&gt;Node5</title>
<g id="a_edge34_Node000024_Node000005"><a xlink:title=" ">
<path fill="none" stroke="#63b8ff" d="M649.17,-294.45C570.61,-277.57 449.55,-251.57 382.07,-237.07"/>
<polygon fill="#63b8ff" stroke="#63b8ff" points="382.63,-233.61 372.12,-234.94 381.16,-240.46 382.63,-233.61"/>
</a>
</g>
</g>
<!-- Node24&#45;&gt;Node7 -->
<g id="edge36_Node000024_Node000007" class="edge">
<title>Node24&#45;&gt;Node7</title>
<g id="a_edge36_Node000024_Node000007"><a xlink:title=" ">
<path fill="none" stroke="#63b8ff" d="M700.14,-283.48C691.71,-274.01 682.24,-263.38 673.78,-253.89"/>
<polygon fill="#63b8ff" stroke="#63b8ff" points="676.23,-251.36 666.96,-246.23 671,-256.02 676.23,-251.36"/>
</a>
</g>
</g>
<!-- Node24&#45;&gt;Node12 -->
<g id="edge35_Node000024_Node000012" class="edge">
<title>Node24&#45;&gt;Node12</title>
<g id="a_edge35_Node000024_Node000012"><a xlink:title=" ">
<path fill="none" stroke="#63b8ff" d="M810.77,-301.01C863.25,-292.42 930.14,-276.35 983.28,-246.59 1006.71,-233.48 1005.09,-220.65 1026.28,-204.17 1041.61,-192.24 1059.65,-180.82 1075.74,-171.42"/>
<polygon fill="#63b8ff" stroke="#63b8ff" points="1077.52,-174.43 1084.45,-166.42 1074.03,-168.36 1077.52,-174.43"/>
</a>
</g>
</g>
</g>
</svg>

<g id="navigator" transform="translate(0 0)" fill="#404254">
  <rect fill="#f2f5e9" fill-opacity="0.5" stroke="#606060" stroke-width=".5" x="0" y="0" width="60" height="60"/>
  <use id="zoomplus" xlink:href="#zoomPlus" x="17" y="9" onmousedown="handleZoom(evt,'in')"/>
  <use id="zoomminus" xlink:href="#zoomMin" x="42" y="9" onmousedown="handleZoom(evt,'out')"/>
  <use id="reset" xlink:href="#resetDef" x="30" y="36" onmousedown="handleReset()"/>
   <use id="arrowup" xlink:href="#arrowUp" x="0" y="0" onmousedown="handlePan(0,-1)"/>
  <use id="arrowright" xlink:href="#arrowRight" x="0" y="0" onmousedown="handlePan(1,0)"/>
  <use id="arrowdown" xlink:href="#arrowDown" x="0" y="0" onmousedown="handlePan(0,1)"/>
  <use id="arrowleft" xlink:href="#arrowLeft" x="0" y="0" onmousedown="handlePan(-1,0)"/>
</g>
<svg viewBox="0 0 15 15" width="100%" height="30px" preserveAspectRatio="xMaxYMin meet">
 <g id="arrow_out" transform="scale(0.3 0.3)">
  <a xlink:href="min__clique__cover__solver__via__greedy_8h__incl_org.svg" target="_base">
   <rect id="button" ry="5" rx="5" y="6" x="6" height="38" width="38"
        fill="#f2f5e9" fill-opacity="0.5" stroke="#606060" stroke-width="1.0"/>
   <path id="arrow"
     d="M 11.500037,31.436501 C 11.940474,20.09759 22.043105,11.32322 32.158766,21.979434 L 37.068811,17.246167 C 37.068811,17.246167 37.088388,32 37.088388,32 L 22.160133,31.978069 C 22.160133,31.978069 26.997745,27.140456 26.997745,27.140456 C 18.528582,18.264221 13.291696,25.230495 11.500037,31.436501 z"
     style="fill:#404040;"/>
  </a>
 </g>
</svg>

<style type='text/css'>
<![CDATA[
[data-mouse-over-selected='false'] { opacity: 0.7; }
[data-mouse-over-selected='true']  { opacity: 1.0; }
]]>
</style>
<script type="application/ecmascript"><![CDATA[
document.addEventListener('DOMContentLoaded', (event) => {
  highlightEdges();
  highlightAdjacentNodes();
});
]]></script>
</svg>
