<?xml version="1.0" encoding="UTF-8" standalone="no"?>
<!DOCTYPE svg PUBLIC "-//W3C//DTD SVG 1.1//EN"
 "http://www.w3.org/Graphics/SVG/1.1/DTD/svg11.dtd">
<!-- Generated by graphviz version 2.43.0 (0)
 -->
<!-- Title: drake/solvers/mosek_solver.h Pages: 1 -->
<!--zoomable 240 -->
<svg id="main" version="1.1" xmlns="http://www.w3.org/2000/svg" xmlns:xlink="http://www.w3.org/1999/xlink" xml:space="preserve" onload="init(evt)">
<style type="text/css"><![CDATA[
.edge:hover path { stroke: red; }
.edge:hover polygon { stroke: red; fill: red; }
]]></style>
<script type="text/javascript"><![CDATA[
var edges = document.getElementsByTagName('g');
if (edges && edges.length) {
  for (var i=0;i<edges.length;i++) {
    if (edges[i].id.substr(0,4)=='edge') {
      edges[i].setAttribute('class','edge');
    }
  }
}
]]></script>
        <defs>
                <circle id="rim" cx="0" cy="0" r="7"/>
                <circle id="rim2" cx="0" cy="0" r="3.5"/>
                <g id="zoomPlus">
                        <use xlink:href="#rim" fill="#404040">
                                <set attributeName="fill" to="#808080" begin="zoomplus.mouseover" end="zoomplus.mouseout"/>
                        </use>
                        <path d="M-4,0h8M0,-4v8" fill="none" stroke="white" stroke-width="1.5" pointer-events="none"/>
                </g>
                <g id="zoomMin">
                        <use xlink:href="#rim" fill="#404040">
                                <set attributeName="fill" to="#808080" begin="zoomminus.mouseover" end="zoomminus.mouseout"/>
                        </use>
                        <path d="M-4,0h8" fill="none" stroke="white" stroke-width="1.5" pointer-events="none"/>
                </g>
                <g id="dirArrow">
                        <path fill="none" stroke="white" stroke-width="1.5" d="M0,-3.0v7 M-2.5,-0.5L0,-3.0L2.5,-0.5"/>
                </g>
               <g id="resetDef">
                       <use xlink:href="#rim2" fill="#404040">
                               <set attributeName="fill" to="#808080" begin="reset.mouseover" end="reset.mouseout"/>
                       </use>
               </g>
        </defs>

<script type="text/javascript">
var viewWidth = 671;
var viewHeight = 240;
var sectionId = 'dynsection-1';
</script>
<script xlink:href="svgpan.js"/>
<svg id="graph" class="graph">
<g id="viewport">
<title>drake/solvers/mosek_solver.h</title>
<polygon fill="white" stroke="transparent" points="-4,4 -4,-236 666.5,-236 666.5,4 -4,4"/>
<!-- Node102 -->
<g id="node1" class="node">
<title>Node102</title>
<g id="a_node1"><a xlink:title=" ">
<polygon fill="#bfbfbf" stroke="black" points="432,-201.5 432,-231.5 550,-231.5 550,-201.5 432,-201.5"/>
<text text-anchor="start" x="440" y="-219.5" font-family="Helvetica,sans-Serif" font-size="10.00">drake/solvers/mosek</text>
<text text-anchor="middle" x="491" y="-208.5" font-family="Helvetica,sans-Serif" font-size="10.00">_solver.h</text>
</a>
</g>
</g>
<!-- Node103 -->
<g id="node2" class="node">
<title>Node103</title>
<g id="a_node2"><a xlink:href="cspace__free__structs_8h.html" target="_top" xlink:title=" ">
<polygon fill="white" stroke="black" points="198,-134.5 198,-164.5 356,-164.5 356,-134.5 198,-134.5"/>
<text text-anchor="start" x="206" y="-152.5" font-family="Helvetica,sans-Serif" font-size="10.00">drake/geometry/optimization</text>
<text text-anchor="middle" x="277" y="-141.5" font-family="Helvetica,sans-Serif" font-size="10.00">/cspace_free_structs.h</text>
</a>
</g>
</g>
<!-- Node102&#45;&gt;Node103 -->
<g id="edge1" class="edge">
<title>Node102&#45;&gt;Node103</title>
<path fill="none" stroke="midnightblue" d="M434.85,-198.44C400.16,-187.91 356.18,-174.55 323.46,-164.61"/>
<polygon fill="midnightblue" stroke="midnightblue" points="434.24,-201.92 444.83,-201.48 436.28,-195.22 434.24,-201.92"/>
</g>
<!-- Node106 -->
<g id="node5" class="node">
<title>Node106</title>
<g id="a_node5"><a xlink:href="cspace__free__polytope_8h.html" target="_top" xlink:title=" ">
<polygon fill="white" stroke="black" points="198,-0.5 198,-30.5 356,-30.5 356,-0.5 198,-0.5"/>
<text text-anchor="start" x="206" y="-18.5" font-family="Helvetica,sans-Serif" font-size="10.00">drake/geometry/optimization</text>
<text text-anchor="middle" x="277" y="-7.5" font-family="Helvetica,sans-Serif" font-size="10.00">/cspace_free_polytope.h</text>
</a>
</g>
</g>
<!-- Node102&#45;&gt;Node106 -->
<g id="edge8" class="edge">
<title>Node102&#45;&gt;Node106</title>
<path fill="none" stroke="midnightblue" d="M495.45,-191.16C499.88,-158.7 502.26,-101.34 472,-67 456.39,-49.29 403.02,-36.21 356.05,-27.81"/>
<polygon fill="midnightblue" stroke="midnightblue" points="491.97,-190.73 493.91,-201.15 498.89,-191.8 491.97,-190.73"/>
</g>
<!-- Node108 -->
<g id="node7" class="node">
<title>Node108</title>
<g id="a_node7"><a xlink:href="max__clique_8h.html" target="_top" xlink:title=" ">
<polygon fill="white" stroke="black" points="519.5,-134.5 519.5,-164.5 662.5,-164.5 662.5,-134.5 519.5,-134.5"/>
<text text-anchor="start" x="527.5" y="-152.5" font-family="Helvetica,sans-Serif" font-size="10.00">drake/planning/graph</text>
<text text-anchor="middle" x="591" y="-141.5" font-family="Helvetica,sans-Serif" font-size="10.00">_algorithms/max_clique.h</text>
</a>
</g>
</g>
<!-- Node102&#45;&gt;Node108 -->
<g id="edge9" class="edge">
<title>Node102&#45;&gt;Node108</title>
<path fill="none" stroke="midnightblue" d="M521.41,-195.73C536.88,-185.68 555.33,-173.68 569.34,-164.58"/>
<polygon fill="midnightblue" stroke="midnightblue" points="519.18,-193.01 512.7,-201.4 522.99,-198.88 519.18,-193.01"/>
</g>
<!-- Node104 -->
<g id="node3" class="node">
<title>Node104</title>
<g id="a_node3"><a xlink:href="cspace__free__polytope__base_8h.html" target="_top" xlink:title=" ">
<polygon fill="white" stroke="black" points="85,-67.5 85,-97.5 249,-97.5 249,-67.5 85,-67.5"/>
<text text-anchor="start" x="93" y="-85.5" font-family="Helvetica,sans-Serif" font-size="10.00">drake/geometry/optimization</text>
<text text-anchor="middle" x="167" y="-74.5" font-family="Helvetica,sans-Serif" font-size="10.00">/cspace_free_polytope_base.h</text>
</a>
</g>
</g>
<!-- Node103&#45;&gt;Node104 -->
<g id="edge2" class="edge">
<title>Node103&#45;&gt;Node104</title>
<path fill="none" stroke="midnightblue" d="M244.5,-129.3C227.29,-119.12 206.52,-106.85 190.82,-97.58"/>
<polygon fill="midnightblue" stroke="midnightblue" points="242.74,-132.32 253.13,-134.4 246.3,-126.3 242.74,-132.32"/>
</g>
<!-- Node105 -->
<g id="node4" class="node">
<title>Node105</title>
<g id="a_node4"><a xlink:href="cspace__free__box_8h.html" target="_top" xlink:title=" ">
<polygon fill="white" stroke="black" points="0,-0.5 0,-30.5 158,-30.5 158,-0.5 0,-0.5"/>
<text text-anchor="start" x="8" y="-18.5" font-family="Helvetica,sans-Serif" font-size="10.00">drake/geometry/optimization</text>
<text text-anchor="middle" x="79" y="-7.5" font-family="Helvetica,sans-Serif" font-size="10.00">/cspace_free_box.h</text>
</a>
</g>
</g>
<!-- Node103&#45;&gt;Node105 -->
<g id="edge5" class="edge">
<title>Node103&#45;&gt;Node105</title>
<path fill="none" stroke="midnightblue" d="M188.04,-137.03C141.07,-128.95 90.25,-116.28 76,-98 60.94,-78.68 67.6,-48.26 73.51,-30.55"/>
<polygon fill="midnightblue" stroke="midnightblue" points="187.55,-140.49 197.98,-138.68 188.69,-133.59 187.55,-140.49"/>
</g>
<!-- Node103&#45;&gt;Node106 -->
<g id="edge7" class="edge">
<title>Node103&#45;&gt;Node106</title>
<path fill="none" stroke="midnightblue" d="M277,-124.02C277,-96.51 277,-52.79 277,-30.52"/>
<polygon fill="midnightblue" stroke="midnightblue" points="273.5,-124.37 277,-134.37 280.5,-124.37 273.5,-124.37"/>
</g>
<!-- Node107 -->
<g id="node6" class="node">
<title>Node107</title>
<g id="a_node6"><a xlink:href="cspace__free__internal_8h.html" target="_top" xlink:title=" ">
<polygon fill="white" stroke="black" points="305,-67.5 305,-97.5 463,-97.5 463,-67.5 305,-67.5"/>
<text text-anchor="start" x="313" y="-85.5" font-family="Helvetica,sans-Serif" font-size="10.00">drake/geometry/optimization</text>
<text text-anchor="middle" x="384" y="-74.5" font-family="Helvetica,sans-Serif" font-size="10.00">/cspace_free_internal.h</text>
</a>
</g>
</g>
<!-- Node103&#45;&gt;Node107 -->
<g id="edge6" class="edge">
<title>Node103&#45;&gt;Node107</title>
<path fill="none" stroke="midnightblue" d="M309.08,-129.02C325.73,-118.9 345.69,-106.77 360.83,-97.58"/>
<polygon fill="midnightblue" stroke="midnightblue" points="306.95,-126.21 300.22,-134.4 310.58,-132.2 306.95,-126.21"/>
</g>
<!-- Node104&#45;&gt;Node105 -->
<g id="edge3" class="edge">
<title>Node104&#45;&gt;Node105</title>
<path fill="none" stroke="midnightblue" d="M139.86,-61.45C126.32,-51.45 110.27,-39.6 98.06,-30.58"/>
<polygon fill="midnightblue" stroke="midnightblue" points="137.78,-64.27 147.91,-67.4 141.94,-58.64 137.78,-64.27"/>
</g>
<!-- Node104&#45;&gt;Node106 -->
<g id="edge4" class="edge">
<title>Node104&#45;&gt;Node106</title>
<path fill="none" stroke="midnightblue" d="M199.5,-62.3C216.71,-52.12 237.48,-39.85 253.18,-30.58"/>
<polygon fill="midnightblue" stroke="midnightblue" points="197.7,-59.3 190.87,-67.4 201.26,-65.32 197.7,-59.3"/>
</g>
</g>
</svg>
        <g id="navigator" transform="translate(0 0)" fill="#404254">
                <rect fill="#f2f5e9" fill-opacity="0.5" stroke="#606060" stroke-width=".5" x="0" y="0" width="60" height="60"/>
                <use id="zoomplus" xlink:href="#zoomPlus" x="17" y="9" onmousedown="handleZoom(evt,'in')"/>
                <use id="zoomminus" xlink:href="#zoomMin" x="42" y="9" onmousedown="handleZoom(evt,'out')"/>
                <use id="reset" xlink:href="#resetDef" x="30" y="36" onmousedown="handleReset()"/>
                <g id="arrowUp" xlink:href="#dirArrow" transform="translate(30 24)" onmousedown="handlePan(0,-1)">
                  <use xlink:href="#rim" fill="#404040">
                        <set attributeName="fill" to="#808080" begin="arrowUp.mouseover" end="arrowUp.mouseout"/>
                  </use>
                  <path fill="none" stroke="white" stroke-width="1.5" d="M0,-3.0v7 M-2.5,-0.5L0,-3.0L2.5,-0.5"/>
                </g>
                <g id="arrowRight" xlink:href="#dirArrow" transform="rotate(90) translate(36 -43)" onmousedown="handlePan(1,0)">
                  <use xlink:href="#rim" fill="#404040">
                        <set attributeName="fill" to="#808080" begin="arrowRight.mouseover" end="arrowRight.mouseout"/>
                  </use>
                  <path fill="none" stroke="white" stroke-width="1.5" d="M0,-3.0v7 M-2.5,-0.5L0,-3.0L2.5,-0.5"/>
                </g>
                <g id="arrowDown" xlink:href="#dirArrow" transform="rotate(180) translate(-30 -48)" onmousedown="handlePan(0,1)">
                  <use xlink:href="#rim" fill="#404040">
                        <set attributeName="fill" to="#808080" begin="arrowDown.mouseover" end="arrowDown.mouseout"/>
                  </use>
                  <path fill="none" stroke="white" stroke-width="1.5" d="M0,-3.0v7 M-2.5,-0.5L0,-3.0L2.5,-0.5"/>
                </g>
                <g id="arrowLeft" xlink:href="#dirArrow" transform="rotate(270) translate(-36 17)" onmousedown="handlePan(-1,0)">
                  <use xlink:href="#rim" fill="#404040">
                        <set attributeName="fill" to="#808080" begin="arrowLeft.mouseover" end="arrowLeft.mouseout"/>
                  </use>
                  <path fill="none" stroke="white" stroke-width="1.5" d="M0,-3.0v7 M-2.5,-0.5L0,-3.0L2.5,-0.5"/>
                </g>
        </g>
        <svg viewBox="0 0 15 15" width="100%" height="30px" preserveAspectRatio="xMaxYMin meet">
         <g id="arrow_out" transform="scale(0.3 0.3)">
          <a xlink:href="mosek__solver_8h__dep__incl_org.svg" target="_base">
           <rect id="button" ry="5" rx="5" y="6" x="6" height="38" width="38"
                fill="#f2f5e9" fill-opacity="0.5" stroke="#606060" stroke-width="1.0"/>
           <path id="arrow"
             d="M 11.500037,31.436501 C 11.940474,20.09759 22.043105,11.32322 32.158766,21.979434 L 37.068811,17.246167 C 37.068811,17.246167 37.088388,32 37.088388,32 L 22.160133,31.978069 C 22.160133,31.978069 26.997745,27.140456 26.997745,27.140456 C 18.528582,18.264221 13.291696,25.230495 11.500037,31.436501 z"
             style="fill:#404040;"/>
          </a>
         </g>
        </svg>
</svg>
