<?xml version="1.0" encoding="UTF-8" standalone="no"?>
<!DOCTYPE svg PUBLIC "-//W3C//DTD SVG 1.1//EN"
 "http://www.w3.org/Graphics/SVG/1.1/DTD/svg11.dtd">
<!-- Generated by graphviz version 2.43.0 (0)
 -->
<!-- Title: drake/multibody/constraint/constraint_problem_data.h Pages: 1 -->
<svg width="855pt" height="229pt"
 viewBox="0.00 0.00 855.00 229.00" xmlns="http://www.w3.org/2000/svg" xmlns:xlink="http://www.w3.org/1999/xlink">
<g id="graph0" class="graph" transform="scale(1 1) rotate(0) translate(4 225)">
<title>drake/multibody/constraint/constraint_problem_data.h</title>
<polygon fill="white" stroke="transparent" points="-4,4 -4,-225 851,-225 851,4 -4,4"/>
<!-- Node0 -->
<g id="node1" class="node">
<title>Node0</title>
<g id="a_node1"><a xlink:title=" ">
<polygon fill="#bfbfbf" stroke="black" points="80.5,-190.5 80.5,-220.5 230.5,-220.5 230.5,-190.5 80.5,-190.5"/>
<text text-anchor="start" x="88.5" y="-208.5" font-family="Helvetica,sans-Serif" font-size="10.00">drake/multibody/constraint</text>
<text text-anchor="middle" x="155.5" y="-197.5" font-family="Helvetica,sans-Serif" font-size="10.00">/constraint_problem_data.h</text>
</a>
</g>
</g>
<!-- Node1 -->
<g id="node2" class="node">
<title>Node1</title>
<g id="a_node2"><a xlink:title=" ">
<polygon fill="white" stroke="#bfbfbf" points="0,-129 0,-148 47,-148 47,-129 0,-129"/>
<text text-anchor="middle" x="23.5" y="-136" font-family="Helvetica,sans-Serif" font-size="10.00">vector</text>
</a>
</g>
</g>
<!-- Node0&#45;&gt;Node1 -->
<g id="edge1" class="edge">
<title>Node0&#45;&gt;Node1</title>
<path fill="none" stroke="midnightblue" d="M126.86,-190.4C104,-179.14 72.24,-163.5 49.98,-152.54"/>
<polygon fill="midnightblue" stroke="midnightblue" points="51.29,-149.28 40.78,-148.01 48.2,-155.56 51.29,-149.28"/>
</g>
<!-- Node2 -->
<g id="node3" class="node">
<title>Node2</title>
<g id="a_node3"><a xlink:title=" ">
<polygon fill="white" stroke="#bfbfbf" points="65,-129 65,-148 134,-148 134,-129 65,-129"/>
<text text-anchor="middle" x="99.5" y="-136" font-family="Helvetica,sans-Serif" font-size="10.00">Eigen/Core</text>
</a>
</g>
</g>
<!-- Node0&#45;&gt;Node2 -->
<g id="edge2" class="edge">
<title>Node0&#45;&gt;Node2</title>
<path fill="none" stroke="midnightblue" d="M143.35,-190.4C134.62,-180.26 122.82,-166.57 113.66,-155.94"/>
<polygon fill="midnightblue" stroke="midnightblue" points="116.17,-153.49 106.99,-148.19 110.87,-158.06 116.17,-153.49"/>
</g>
<!-- Node3 -->
<g id="node4" class="node">
<title>Node3</title>
<g id="a_node4"><a xlink:href="drake__deprecated_8h.html" target="_top" xlink:title="Provides a portable macro for use in generating compile&#45;time warnings for use of code that is permitt...">
<polygon fill="white" stroke="black" points="152,-123.5 152,-153.5 271,-153.5 271,-123.5 152,-123.5"/>
<text text-anchor="start" x="160" y="-141.5" font-family="Helvetica,sans-Serif" font-size="10.00">drake/common/drake</text>
<text text-anchor="middle" x="211.5" y="-130.5" font-family="Helvetica,sans-Serif" font-size="10.00">_deprecated.h</text>
</a>
</g>
</g>
<!-- Node0&#45;&gt;Node3 -->
<g id="edge3" class="edge">
<title>Node0&#45;&gt;Node3</title>
<path fill="none" stroke="midnightblue" d="M167.65,-190.4C174.99,-181.88 184.49,-170.85 192.78,-161.23"/>
<polygon fill="midnightblue" stroke="midnightblue" points="195.5,-163.44 199.37,-153.58 190.19,-158.87 195.5,-163.44"/>
</g>
<!-- Node6 -->
<g id="node7" class="node">
<title>Node6</title>
<g id="a_node7"><a xlink:href="eigen__types_8h.html" target="_top" xlink:title="This file contains abbreviated definitions for certain specializations of Eigen::Matrix that are comm...">
<polygon fill="white" stroke="black" points="373,-123.5 373,-153.5 492,-153.5 492,-123.5 373,-123.5"/>
<text text-anchor="start" x="381" y="-141.5" font-family="Helvetica,sans-Serif" font-size="10.00">drake/common/eigen</text>
<text text-anchor="middle" x="432.5" y="-130.5" font-family="Helvetica,sans-Serif" font-size="10.00">_types.h</text>
</a>
</g>
</g>
<!-- Node0&#45;&gt;Node6 -->
<g id="edge6" class="edge">
<title>Node0&#45;&gt;Node6</title>
<path fill="none" stroke="midnightblue" d="M215.26,-190.48C258.68,-180.29 317.55,-166.47 363.05,-155.8"/>
<polygon fill="midnightblue" stroke="midnightblue" points="363.91,-159.19 372.84,-153.5 362.31,-152.38 363.91,-159.19"/>
</g>
<!-- Node4 -->
<g id="node5" class="node">
<title>Node4</title>
<g id="a_node5"><a xlink:title=" ">
<polygon fill="white" stroke="#bfbfbf" points="112.5,-62 112.5,-81 156.5,-81 156.5,-62 112.5,-62"/>
<text text-anchor="middle" x="134.5" y="-69" font-family="Helvetica,sans-Serif" font-size="10.00">string</text>
</a>
</g>
</g>
<!-- Node3&#45;&gt;Node4 -->
<g id="edge4" class="edge">
<title>Node3&#45;&gt;Node4</title>
<path fill="none" stroke="midnightblue" d="M194.79,-123.4C182.31,-112.86 165.27,-98.48 152.49,-87.69"/>
<polygon fill="midnightblue" stroke="midnightblue" points="154.7,-84.97 144.8,-81.19 150.18,-90.32 154.7,-84.97"/>
</g>
<!-- Node5 -->
<g id="node6" class="node">
<title>Node5</title>
<g id="a_node6"><a xlink:title=" ">
<polygon fill="white" stroke="#bfbfbf" points="175,-62 175,-81 248,-81 248,-62 175,-62"/>
<text text-anchor="middle" x="211.5" y="-69" font-family="Helvetica,sans-Serif" font-size="10.00">string_view</text>
</a>
</g>
</g>
<!-- Node3&#45;&gt;Node5 -->
<g id="edge5" class="edge">
<title>Node3&#45;&gt;Node5</title>
<path fill="none" stroke="midnightblue" d="M211.5,-123.4C211.5,-114.06 211.5,-101.71 211.5,-91.52"/>
<polygon fill="midnightblue" stroke="midnightblue" points="215,-91.19 211.5,-81.19 208,-91.19 215,-91.19"/>
</g>
<!-- Node7 -->
<g id="node8" class="node">
<title>Node7</title>
<g id="a_node8"><a xlink:title=" ">
<polygon fill="white" stroke="#bfbfbf" points="266,-62 266,-81 311,-81 311,-62 266,-62"/>
<text text-anchor="middle" x="288.5" y="-69" font-family="Helvetica,sans-Serif" font-size="10.00">utility</text>
</a>
</g>
</g>
<!-- Node6&#45;&gt;Node7 -->
<g id="edge7" class="edge">
<title>Node6&#45;&gt;Node7</title>
<path fill="none" stroke="midnightblue" d="M401.11,-123.37C378.66,-113.25 347.71,-99.3 320.5,-87 319.31,-86.46 318.1,-85.91 316.87,-85.36"/>
<polygon fill="midnightblue" stroke="midnightblue" points="318,-82.03 307.45,-81.09 315.12,-88.41 318,-82.03"/>
</g>
<!-- Node8 -->
<g id="node9" class="node">
<title>Node8</title>
<g id="a_node9"><a xlink:title=" ">
<polygon fill="white" stroke="#bfbfbf" points="329,-62 329,-81 406,-81 406,-62 329,-62"/>
<text text-anchor="middle" x="367.5" y="-69" font-family="Helvetica,sans-Serif" font-size="10.00">Eigen/Dense</text>
</a>
</g>
</g>
<!-- Node6&#45;&gt;Node8 -->
<g id="edge8" class="edge">
<title>Node6&#45;&gt;Node8</title>
<path fill="none" stroke="midnightblue" d="M418.4,-123.4C408.06,-113.06 394.02,-99.02 383.31,-88.31"/>
<polygon fill="midnightblue" stroke="midnightblue" points="385.74,-85.79 376.19,-81.19 380.79,-90.74 385.74,-85.79"/>
</g>
<!-- Node9 -->
<g id="node10" class="node">
<title>Node9</title>
<g id="a_node10"><a xlink:href="constants_8h.html" target="_top" xlink:title=" ">
<polygon fill="white" stroke="black" points="424,-62 424,-81 573,-81 573,-62 424,-62"/>
<text text-anchor="middle" x="498.5" y="-69" font-family="Helvetica,sans-Serif" font-size="10.00">drake/common/constants.h</text>
</a>
</g>
</g>
<!-- Node6&#45;&gt;Node9 -->
<g id="edge9" class="edge">
<title>Node6&#45;&gt;Node9</title>
<path fill="none" stroke="midnightblue" d="M446.82,-123.4C457.32,-113.06 471.57,-99.02 482.45,-88.31"/>
<polygon fill="midnightblue" stroke="midnightblue" points="485,-90.71 489.67,-81.19 480.09,-85.72 485,-90.71"/>
</g>
<!-- Node10 -->
<g id="node11" class="node">
<title>Node10</title>
<g id="a_node11"><a xlink:href="drake__assert_8h.html" target="_top" xlink:title="Provides Drake&#39;s assertion implementation.">
<polygon fill="white" stroke="black" points="591,-56.5 591,-86.5 710,-86.5 710,-56.5 591,-56.5"/>
<text text-anchor="start" x="599" y="-74.5" font-family="Helvetica,sans-Serif" font-size="10.00">drake/common/drake</text>
<text text-anchor="middle" x="650.5" y="-63.5" font-family="Helvetica,sans-Serif" font-size="10.00">_assert.h</text>
</a>
</g>
</g>
<!-- Node6&#45;&gt;Node10 -->
<g id="edge10" class="edge">
<title>Node6&#45;&gt;Node10</title>
<path fill="none" stroke="midnightblue" d="M479.53,-123.48C512.94,-113.51 557.98,-100.09 593.44,-89.51"/>
<polygon fill="midnightblue" stroke="midnightblue" points="594.59,-92.82 603.17,-86.61 592.59,-86.11 594.59,-92.82"/>
</g>
<!-- Node12 -->
<g id="node13" class="node">
<title>Node12</title>
<g id="a_node13"><a xlink:href="drake__copyable_8h.html" target="_top" xlink:title="Provides careful macros to selectively enable or disable the special member functions for copy&#45;constr...">
<polygon fill="white" stroke="black" points="728,-56.5 728,-86.5 847,-86.5 847,-56.5 728,-56.5"/>
<text text-anchor="start" x="736" y="-74.5" font-family="Helvetica,sans-Serif" font-size="10.00">drake/common/drake</text>
<text text-anchor="middle" x="787.5" y="-63.5" font-family="Helvetica,sans-Serif" font-size="10.00">_copyable.h</text>
</a>
</g>
</g>
<!-- Node6&#45;&gt;Node12 -->
<g id="edge12" class="edge">
<title>Node6&#45;&gt;Node12</title>
<path fill="none" stroke="midnightblue" d="M492.25,-127.63C548.18,-118.24 634.29,-103.42 717.9,-87.28"/>
<polygon fill="midnightblue" stroke="midnightblue" points="718.67,-90.69 727.82,-85.35 717.34,-83.82 718.67,-90.69"/>
</g>
<!-- Node11 -->
<g id="node12" class="node">
<title>Node11</title>
<g id="a_node12"><a xlink:title=" ">
<polygon fill="white" stroke="#bfbfbf" points="616,-0.5 616,-19.5 685,-19.5 685,-0.5 616,-0.5"/>
<text text-anchor="middle" x="650.5" y="-7.5" font-family="Helvetica,sans-Serif" font-size="10.00">type_traits</text>
</a>
</g>
</g>
<!-- Node10&#45;&gt;Node11 -->
<g id="edge11" class="edge">
<title>Node10&#45;&gt;Node11</title>
<path fill="none" stroke="midnightblue" d="M650.5,-56.4C650.5,-48.47 650.5,-38.46 650.5,-29.86"/>
<polygon fill="midnightblue" stroke="midnightblue" points="654,-29.66 650.5,-19.66 647,-29.66 654,-29.66"/>
</g>
</g>
</svg>
