<?xml version="1.0" encoding="UTF-8" standalone="no"?>
<!DOCTYPE svg PUBLIC "-//W3C//DTD SVG 1.1//EN"
 "http://www.w3.org/Graphics/SVG/1.1/DTD/svg11.dtd">
<!-- Generated by graphviz version 2.43.0 (0)
 -->
<!-- Title: drake/multibody/tree/multibody_tree_indexes.h Pages: 1 -->
<svg width="1696pt" height="349pt"
 viewBox="0.00 0.00 1695.92 348.58" xmlns="http://www.w3.org/2000/svg" xmlns:xlink="http://www.w3.org/1999/xlink">
<g id="graph0" class="graph" transform="scale(1 1) rotate(0) translate(4 344.58)">
<title>drake/multibody/tree/multibody_tree_indexes.h</title>
<!-- Node1 -->
<g id="Node000001" class="node">
<title>Node1</title>
<g id="a_Node000001"><a xlink:title=" ">
<ellipse fill="#999999" stroke="#666666" cx="793.31" cy="-319.36" rx="103.48" ry="21.43"/>
<text text-anchor="start" x="728.31" y="-322.36" font-family="Helvetica,sans-Serif" font-size="10.00">drake/multibody/tree</text>
<text text-anchor="middle" x="793.31" y="-311.36" font-family="Helvetica,sans-Serif" font-size="10.00">/multibody_tree_indexes.h</text>
</a>
</g>
</g>
<!-- Node2 -->
<g id="Node000002" class="node">
<title>Node2</title>
<g id="a_Node000002"><a xlink:href="identifier_8h.html" target="_top" xlink:title=" ">
<ellipse fill="white" stroke="#666666" cx="475.31" cy="-240.94" rx="101.65" ry="13.37"/>
<text text-anchor="middle" x="475.31" y="-238.44" font-family="Helvetica,sans-Serif" font-size="10.00">drake/common/identifier.h</text>
</a>
</g>
</g>
<!-- Node1&#45;&gt;Node2 -->
<g id="edge1_Node000001_Node000002" class="edge">
<title>Node1&#45;&gt;Node2</title>
<g id="a_edge1_Node000001_Node000002"><a xlink:title=" ">
<path fill="none" stroke="#63b8ff" d="M728.57,-302.8C670.61,-288.88 586.51,-268.66 531.37,-255.41"/>
<polygon fill="#63b8ff" stroke="#63b8ff" points="531.97,-251.95 521.42,-253.02 530.33,-258.76 531.97,-251.95"/>
</a>
</g>
</g>
<!-- Node26 -->
<g id="Node000026" class="node">
<title>Node26</title>
<g id="a_Node000026"><a xlink:href="type__safe__index_8h.html" target="_top" xlink:title=" ">
<ellipse fill="white" stroke="#666666" cx="1175.31" cy="-240.94" rx="98.99" ry="21.43"/>
<text text-anchor="start" x="1113.31" y="-243.94" font-family="Helvetica,sans-Serif" font-size="10.00">drake/common/type_safe</text>
<text text-anchor="middle" x="1175.31" y="-232.94" font-family="Helvetica,sans-Serif" font-size="10.00">_index.h</text>
</a>
</g>
</g>
<!-- Node1&#45;&gt;Node26 -->
<g id="edge35_Node000001_Node000026" class="edge">
<title>Node1&#45;&gt;Node26</title>
<g id="a_edge35_Node000001_Node000026"><a xlink:title=" ">
<path fill="none" stroke="#63b8ff" d="M865.16,-303.99C930.66,-290.88 1027.3,-271.55 1095.26,-257.95"/>
<polygon fill="#63b8ff" stroke="#63b8ff" points="1095.95,-261.38 1105.07,-255.99 1094.57,-254.52 1095.95,-261.38"/>
</a>
</g>
</g>
<!-- Node3 -->
<g id="Node000003" class="node">
<title>Node3</title>
<g id="a_Node000003"><a xlink:title=" ">
<ellipse fill="#e0e0e0" stroke="#999999" cx="171.31" cy="-84.08" rx="35.21" ry="13.37"/>
<text text-anchor="middle" x="171.31" y="-81.58" font-family="Helvetica,sans-Serif" font-size="10.00">cstdint</text>
</a>
</g>
</g>
<!-- Node2&#45;&gt;Node3 -->
<g id="edge2_Node000002_Node000003" class="edge">
<title>Node2&#45;&gt;Node3</title>
<g id="a_edge2_Node000002_Node000003"><a xlink:title=" ">
<path fill="none" stroke="#63b8ff" d="M409.15,-230.71C367.24,-222.77 313.08,-208.53 270.31,-183.72 235.47,-163.52 204.19,-128.05 186.5,-105.61"/>
<polygon fill="#63b8ff" stroke="#63b8ff" points="189.07,-103.21 180.2,-97.42 183.53,-107.48 189.07,-103.21"/>
</a>
</g>
</g>
<!-- Node4 -->
<g id="Node000004" class="node">
<title>Node4</title>
<g id="a_Node000004"><a xlink:title=" ">
<ellipse fill="#e0e0e0" stroke="#999999" cx="40.31" cy="-162.51" rx="40.11" ry="13.37"/>
<text text-anchor="middle" x="40.31" y="-160.01" font-family="Helvetica,sans-Serif" font-size="10.00">ostream</text>
</a>
</g>
</g>
<!-- Node2&#45;&gt;Node4 -->
<g id="edge3_Node000002_Node000004" class="edge">
<title>Node2&#45;&gt;Node4</title>
<g id="a_edge3_Node000002_Node000004"><a xlink:title=" ">
<path fill="none" stroke="#63b8ff" d="M393.3,-232.9C315.46,-225.04 195.63,-209.85 94.31,-183.72 87.47,-181.96 80.3,-179.63 73.5,-177.19"/>
<polygon fill="#63b8ff" stroke="#63b8ff" points="74.47,-173.82 63.88,-173.57 72.01,-180.37 74.47,-173.82"/>
</a>
</g>
</g>
<!-- Node5 -->
<g id="Node000005" class="node">
<title>Node5</title>
<g id="a_Node000005"><a xlink:title=" ">
<ellipse fill="#e0e0e0" stroke="#999999" cx="1137.31" cy="-13.44" rx="31.23" ry="13.37"/>
<text text-anchor="middle" x="1137.31" y="-10.94" font-family="Helvetica,sans-Serif" font-size="10.00">string</text>
</a>
</g>
</g>
<!-- Node2&#45;&gt;Node5 -->
<g id="edge4_Node000002_Node000005" class="edge">
<title>Node2&#45;&gt;Node5</title>
<g id="a_edge4_Node000002_Node000005"><a xlink:title=" ">
<path fill="none" stroke="#63b8ff" d="M558.19,-233.1C711.88,-218.75 1032.64,-180.42 1111.31,-105.3 1129.81,-87.62 1135.42,-57.76 1136.98,-37.12"/>
<polygon fill="#63b8ff" stroke="#63b8ff" points="1140.48,-37.17 1137.47,-27.01 1133.49,-36.82 1140.48,-37.17"/>
</a>
</g>
</g>
<!-- Node6 -->
<g id="Node000006" class="node">
<title>Node6</title>
<g id="a_Node000006"><a xlink:title=" ">
<ellipse fill="#e0e0e0" stroke="#999999" cx="220.31" cy="-13.44" rx="31.64" ry="13.37"/>
<text text-anchor="middle" x="220.31" y="-10.94" font-family="Helvetica,sans-Serif" font-size="10.00">utility</text>
</a>
</g>
</g>
<!-- Node2&#45;&gt;Node6 -->
<g id="edge5_Node000002_Node000006" class="edge">
<title>Node2&#45;&gt;Node6</title>
<g id="a_edge5_Node000002_Node000006"><a xlink:title=" ">
<path fill="none" stroke="#63b8ff" d="M378.21,-236.69C290.57,-227.63 169.17,-197.99 127.31,-105.3 119.54,-88.11 117.52,-78.99 127.31,-62.87 139.48,-42.81 162.97,-30.67 183.3,-23.56"/>
<polygon fill="#63b8ff" stroke="#63b8ff" points="184.51,-26.85 192.96,-20.46 182.37,-20.18 184.51,-26.85"/>
</a>
</g>
</g>
<!-- Node7 -->
<g id="Node000007" class="node">
<title>Node7</title>
<g id="a_Node000007"><a xlink:href="drake__assert_8h.html" target="_top" xlink:title="Provides Drake&#39;s assertion mechanics.">
<ellipse fill="white" stroke="#666666" cx="346.31" cy="-84.08" rx="84.29" ry="21.43"/>
<text text-anchor="start" x="294.81" y="-87.08" font-family="Helvetica,sans-Serif" font-size="10.00">drake/common/drake</text>
<text text-anchor="middle" x="346.31" y="-76.08" font-family="Helvetica,sans-Serif" font-size="10.00">_assert.h</text>
</a>
</g>
</g>
<!-- Node2&#45;&gt;Node7 -->
<g id="edge6_Node000002_Node000007" class="edge">
<title>Node2&#45;&gt;Node7</title>
<g id="a_edge6_Node000002_Node000007"><a xlink:title=" ">
<path fill="none" stroke="#63b8ff" d="M476.2,-227.34C476.98,-207.12 475.68,-167.09 456.31,-141.3 444.24,-125.24 426.27,-113.4 408.34,-104.85"/>
<polygon fill="#63b8ff" stroke="#63b8ff" points="409.56,-101.56 399,-100.68 406.7,-107.95 409.56,-101.56"/>
</a>
</g>
</g>
<!-- Node11 -->
<g id="Node000011" class="node">
<title>Node11</title>
<g id="a_Node000011"><a xlink:href="drake__copyable_8h.html" target="_top" xlink:title="Provides careful macros to selectively enable or disable the special member functions for copy&#45;constr...">
<ellipse fill="white" stroke="#666666" cx="363.31" cy="-162.51" rx="84.29" ry="21.43"/>
<text text-anchor="start" x="311.81" y="-165.51" font-family="Helvetica,sans-Serif" font-size="10.00">drake/common/drake</text>
<text text-anchor="middle" x="363.31" y="-154.51" font-family="Helvetica,sans-Serif" font-size="10.00">_copyable.h</text>
</a>
</g>
</g>
<!-- Node2&#45;&gt;Node11 -->
<g id="edge12_Node000002_Node000011" class="edge">
<title>Node2&#45;&gt;Node11</title>
<g id="a_edge12_Node000002_Node000011"><a xlink:title=" ">
<path fill="none" stroke="#63b8ff" d="M457.31,-227.66C441.8,-217.07 418.92,-201.46 399.61,-188.29"/>
<polygon fill="#63b8ff" stroke="#63b8ff" points="401.55,-185.37 391.31,-182.62 397.6,-191.15 401.55,-185.37"/>
</a>
</g>
</g>
<!-- Node12 -->
<g id="Node000012" class="node">
<title>Node12</title>
<g id="a_Node000012"><a xlink:href="fmt__ostream_8h.html" target="_top" xlink:title=" ">
<ellipse fill="white" stroke="#666666" cx="1319.31" cy="-162.51" rx="115.93" ry="13.37"/>
<text text-anchor="middle" x="1319.31" y="-160.01" font-family="Helvetica,sans-Serif" font-size="10.00">drake/common/fmt_ostream.h</text>
</a>
</g>
</g>
<!-- Node2&#45;&gt;Node12 -->
<g id="edge13_Node000002_Node000012" class="edge">
<title>Node2&#45;&gt;Node12</title>
<g id="a_edge13_Node000002_Node000012"><a xlink:title=" ">
<path fill="none" stroke="#63b8ff" d="M561.57,-233.78C690.16,-224.38 939.68,-205.25 1151.31,-183.72 1178.78,-180.93 1208.72,-177.46 1235.62,-174.19"/>
<polygon fill="#63b8ff" stroke="#63b8ff" points="1236.27,-177.64 1245.77,-172.95 1235.42,-170.69 1236.27,-177.64"/>
</a>
</g>
</g>
<!-- Node18 -->
<g id="Node000018" class="node">
<title>Node18</title>
<g id="a_Node000018"><a xlink:href="hash_8h.html" target="_top" xlink:title=" ">
<ellipse fill="white" stroke="#666666" cx="683.31" cy="-162.51" rx="88.28" ry="13.37"/>
<text text-anchor="middle" x="683.31" y="-160.01" font-family="Helvetica,sans-Serif" font-size="10.00">drake/common/hash.h</text>
</a>
</g>
</g>
<!-- Node2&#45;&gt;Node18 -->
<g id="edge22_Node000002_Node000018" class="edge">
<title>Node2&#45;&gt;Node18</title>
<g id="a_edge22_Node000002_Node000018"><a xlink:title=" ">
<path fill="none" stroke="#63b8ff" d="M507.35,-228.16C543.49,-214.88 602.36,-193.25 641.94,-178.71"/>
<polygon fill="#63b8ff" stroke="#63b8ff" points="643.39,-181.91 651.57,-175.17 640.97,-175.34 643.39,-181.91"/>
</a>
</g>
</g>
<!-- Node7&#45;&gt;Node5 -->
<g id="edge8_Node000007_Node000005" class="edge">
<title>Node7&#45;&gt;Node5</title>
<g id="a_edge8_Node000007_Node000005"><a xlink:title=" ">
<path fill="none" stroke="#63b8ff" d="M414.5,-71.51C434.67,-68.37 456.84,-65.2 477.31,-62.87 711.01,-36.31 993,-21.25 1096.6,-16.29"/>
<polygon fill="#63b8ff" stroke="#63b8ff" points="1096.81,-19.78 1106.63,-15.81 1096.48,-12.79 1096.81,-19.78"/>
</a>
</g>
</g>
<!-- Node7&#45;&gt;Node6 -->
<g id="edge11_Node000007_Node000006" class="edge">
<title>Node7&#45;&gt;Node6</title>
<g id="a_edge11_Node000007_Node000006"><a xlink:title=" ">
<path fill="none" stroke="#63b8ff" d="M312.21,-64.51C292.01,-53.5 266.74,-39.74 247.82,-29.43"/>
<polygon fill="#63b8ff" stroke="#63b8ff" points="249.28,-26.24 238.83,-24.53 245.93,-32.38 249.28,-26.24"/>
</a>
</g>
</g>
<!-- Node8 -->
<g id="Node000008" class="node">
<title>Node8</title>
<g id="a_Node000008"><a xlink:title=" ">
<ellipse fill="#e0e0e0" stroke="#999999" cx="376.31" cy="-13.44" rx="29.9" ry="13.37"/>
<text text-anchor="middle" x="376.31" y="-10.94" font-family="Helvetica,sans-Serif" font-size="10.00">array</text>
</a>
</g>
</g>
<!-- Node7&#45;&gt;Node8 -->
<g id="edge7_Node000007_Node000008" class="edge">
<title>Node7&#45;&gt;Node8</title>
<g id="a_edge7_Node000007_Node000008"><a xlink:title=" ">
<path fill="none" stroke="#63b8ff" d="M355.14,-62.86C358.82,-54.44 363.1,-44.66 366.84,-36.1"/>
<polygon fill="#63b8ff" stroke="#63b8ff" points="370.12,-37.33 370.92,-26.77 363.7,-34.53 370.12,-37.33"/>
</a>
</g>
</g>
<!-- Node9 -->
<g id="Node000009" class="node">
<title>Node9</title>
<g id="a_Node000009"><a xlink:title=" ">
<ellipse fill="#e0e0e0" stroke="#999999" cx="299.31" cy="-13.44" rx="28.98" ry="13.37"/>
<text text-anchor="middle" x="299.31" y="-10.94" font-family="Helvetica,sans-Serif" font-size="10.00">tuple</text>
</a>
</g>
</g>
<!-- Node7&#45;&gt;Node9 -->
<g id="edge9_Node000007_Node000009" class="edge">
<title>Node7&#45;&gt;Node9</title>
<g id="a_edge9_Node000007_Node000009"><a xlink:title=" ">
<path fill="none" stroke="#63b8ff" d="M332.46,-62.86C326.37,-53.96 319.23,-43.53 313.13,-34.63"/>
<polygon fill="#63b8ff" stroke="#63b8ff" points="316.01,-32.64 307.47,-26.36 310.23,-36.59 316.01,-32.64"/>
</a>
</g>
</g>
<!-- Node10 -->
<g id="Node000010" class="node">
<title>Node10</title>
<g id="a_Node000010"><a xlink:title=" ">
<ellipse fill="#e0e0e0" stroke="#999999" cx="472.31" cy="-13.44" rx="48.58" ry="13.37"/>
<text text-anchor="middle" x="472.31" y="-10.94" font-family="Helvetica,sans-Serif" font-size="10.00">type_traits</text>
</a>
</g>
</g>
<!-- Node7&#45;&gt;Node10 -->
<g id="edge10_Node000007_Node000010" class="edge">
<title>Node7&#45;&gt;Node10</title>
<g id="a_edge10_Node000007_Node000010"><a xlink:title=" ">
<path fill="none" stroke="#63b8ff" d="M380.4,-64.51C399.86,-53.91 424,-40.75 442.66,-30.59"/>
<polygon fill="#63b8ff" stroke="#63b8ff" points="444.49,-33.57 451.6,-25.72 441.14,-27.43 444.49,-33.57"/>
</a>
</g>
</g>
<!-- Node13 -->
<g id="Node000013" class="node">
<title>Node13</title>
<g id="a_Node000013"><a xlink:title=" ">
<ellipse fill="#e0e0e0" stroke="#999999" cx="1243.31" cy="-84.08" rx="39.7" ry="13.37"/>
<text text-anchor="middle" x="1243.31" y="-81.58" font-family="Helvetica,sans-Serif" font-size="10.00">sstream</text>
</a>
</g>
</g>
<!-- Node12&#45;&gt;Node13 -->
<g id="edge14_Node000012_Node000013" class="edge">
<title>Node12&#45;&gt;Node13</title>
<g id="a_edge14_Node000012_Node000013"><a xlink:title=" ">
<path fill="none" stroke="#63b8ff" d="M1306.76,-148.89C1294.66,-136.73 1276.2,-118.16 1262.3,-104.19"/>
<polygon fill="#63b8ff" stroke="#63b8ff" points="1264.66,-101.59 1255.12,-96.97 1259.69,-106.53 1264.66,-101.59"/>
</a>
</g>
</g>
<!-- Node14 -->
<g id="Node000014" class="node">
<title>Node14</title>
<g id="a_Node000014"><a xlink:title=" ">
<ellipse fill="#e0e0e0" stroke="#999999" cx="1636.31" cy="-13.44" rx="51.74" ry="13.37"/>
<text text-anchor="middle" x="1636.31" y="-10.94" font-family="Helvetica,sans-Serif" font-size="10.00">string_view</text>
</a>
</g>
</g>
<!-- Node12&#45;&gt;Node14 -->
<g id="edge15_Node000012_Node000014" class="edge">
<title>Node12&#45;&gt;Node14</title>
<g id="a_edge15_Node000012_Node000014"><a xlink:title=" ">
<path fill="none" stroke="#63b8ff" d="M1383.47,-151.26C1468.53,-137.4 1608.95,-113.49 1617.31,-105.3 1635.25,-87.7 1638.38,-57.82 1638.09,-37.15"/>
<polygon fill="#63b8ff" stroke="#63b8ff" points="1641.58,-36.87 1637.67,-27.03 1634.59,-37.17 1641.58,-36.87"/>
</a>
</g>
</g>
<!-- Node15 -->
<g id="Node000015" class="node">
<title>Node15</title>
<g id="a_Node000015"><a xlink:title=" ">
<ellipse fill="#e0e0e0" stroke="#999999" cx="1361.31" cy="-84.08" rx="60.62" ry="13.37"/>
<text text-anchor="middle" x="1361.31" y="-81.58" font-family="Helvetica,sans-Serif" font-size="10.00">fmt/ostream.h</text>
</a>
</g>
</g>
<!-- Node12&#45;&gt;Node15 -->
<g id="edge16_Node000012_Node000015" class="edge">
<title>Node12&#45;&gt;Node15</title>
<g id="a_edge16_Node000012_Node000015"><a xlink:title=" ">
<path fill="none" stroke="#63b8ff" d="M1326.24,-148.89C1332.6,-137.32 1342.15,-119.94 1349.67,-106.25"/>
<polygon fill="#63b8ff" stroke="#63b8ff" points="1352.75,-107.92 1354.5,-97.47 1346.62,-104.55 1352.75,-107.92"/>
</a>
</g>
</g>
<!-- Node16 -->
<g id="Node000016" class="node">
<title>Node16</title>
<g id="a_Node000016"><a xlink:href="fmt_8h.html" target="_top" xlink:title=" ">
<ellipse fill="white" stroke="#666666" cx="1524.31" cy="-84.08" rx="84.29" ry="13.37"/>
<text text-anchor="middle" x="1524.31" y="-81.58" font-family="Helvetica,sans-Serif" font-size="10.00">drake/common/fmt.h</text>
</a>
</g>
</g>
<!-- Node12&#45;&gt;Node16 -->
<g id="edge17_Node000012_Node000016" class="edge">
<title>Node12&#45;&gt;Node16</title>
<g id="a_edge17_Node000012_Node000016"><a xlink:title=" ">
<path fill="none" stroke="#63b8ff" d="M1351.34,-149.57C1387.05,-136.25 1444.88,-114.69 1483.73,-100.21"/>
<polygon fill="#63b8ff" stroke="#63b8ff" points="1485.02,-103.46 1493.17,-96.69 1482.58,-96.9 1485.02,-103.46"/>
</a>
</g>
</g>
<!-- Node16&#45;&gt;Node5 -->
<g id="edge18_Node000016_Node000005" class="edge">
<title>Node16&#45;&gt;Node5</title>
<g id="a_edge18_Node000016_Node000005"><a xlink:title=" ">
<path fill="none" stroke="#63b8ff" d="M1478.99,-72.75C1463.86,-69.43 1446.89,-65.84 1431.31,-62.87 1340.18,-45.47 1232.45,-28.68 1176.09,-20.18"/>
<polygon fill="#63b8ff" stroke="#63b8ff" points="1176.59,-16.72 1166.19,-18.7 1175.55,-23.64 1176.59,-16.72"/>
</a>
</g>
</g>
<!-- Node16&#45;&gt;Node10 -->
<g id="edge20_Node000016_Node000010" class="edge">
<title>Node16&#45;&gt;Node10</title>
<g id="a_edge20_Node000016_Node000010"><a xlink:title=" ">
<path fill="none" stroke="#63b8ff" d="M1481.97,-72.35C1466.17,-68.75 1448.01,-65.09 1431.31,-62.87 1093.02,-17.87 682.53,-13.87 531.62,-14.07"/>
<polygon fill="#63b8ff" stroke="#63b8ff" points="531.2,-10.57 521.21,-14.09 531.22,-17.57 531.2,-10.57"/>
</a>
</g>
</g>
<!-- Node16&#45;&gt;Node14 -->
<g id="edge19_Node000016_Node000014" class="edge">
<title>Node16&#45;&gt;Node14</title>
<g id="a_edge19_Node000016_Node000014"><a xlink:title=" ">
<path fill="none" stroke="#63b8ff" d="M1544.07,-70.97C1562.04,-59.95 1588.74,-43.59 1608.79,-31.3"/>
<polygon fill="#63b8ff" stroke="#63b8ff" points="1610.79,-34.18 1617.48,-25.97 1607.13,-28.21 1610.79,-34.18"/>
</a>
</g>
</g>
<!-- Node17 -->
<g id="Node000017" class="node">
<title>Node17</title>
<g id="a_Node000017"><a xlink:title=" ">
<ellipse fill="#e0e0e0" stroke="#999999" cx="1511.31" cy="-13.44" rx="55.72" ry="13.37"/>
<text text-anchor="middle" x="1511.31" y="-10.94" font-family="Helvetica,sans-Serif" font-size="10.00">fmt/format.h</text>
</a>
</g>
</g>
<!-- Node16&#45;&gt;Node17 -->
<g id="edge21_Node000016_Node000017" class="edge">
<title>Node16&#45;&gt;Node17</title>
<g id="a_edge21_Node000016_Node000017"><a xlink:title=" ">
<path fill="none" stroke="#63b8ff" d="M1521.92,-70.49C1520.14,-61.11 1517.67,-48.04 1515.55,-36.88"/>
<polygon fill="#63b8ff" stroke="#63b8ff" points="1518.97,-36.12 1513.67,-26.95 1512.1,-37.42 1518.97,-36.12"/>
</a>
</g>
</g>
<!-- Node18&#45;&gt;Node3 -->
<g id="edge25_Node000018_Node000003" class="edge">
<title>Node18&#45;&gt;Node3</title>
<g id="a_edge25_Node000018_Node000003"><a xlink:title=" ">
<path fill="none" stroke="#63b8ff" d="M609.77,-155.02C498.34,-144.78 292.08,-124.08 220.31,-105.3 214,-103.64 207.42,-101.36 201.22,-98.92"/>
<polygon fill="#63b8ff" stroke="#63b8ff" points="202.44,-95.63 191.86,-95.02 199.74,-102.09 202.44,-95.63"/>
</a>
</g>
</g>
<!-- Node18&#45;&gt;Node5 -->
<g id="edge30_Node000018_Node000005" class="edge">
<title>Node18&#45;&gt;Node5</title>
<g id="a_edge30_Node000018_Node000005"><a xlink:title=" ">
<path fill="none" stroke="#63b8ff" d="M766.39,-157.9C867.19,-152.14 1029.94,-137.98 1080.31,-105.3 1105.27,-89.09 1121.28,-57.7 1129.79,-36.4"/>
<polygon fill="#63b8ff" stroke="#63b8ff" points="1133.13,-37.46 1133.37,-26.87 1126.58,-35 1133.13,-37.46"/>
</a>
</g>
</g>
<!-- Node18&#45;&gt;Node6 -->
<g id="edge32_Node000018_Node000006" class="edge">
<title>Node18&#45;&gt;Node6</title>
<g id="a_edge32_Node000018_Node000006"><a xlink:title=" ">
<path fill="none" stroke="#63b8ff" d="M613.21,-154.26C494.94,-141.76 267.18,-116.43 253.31,-105.3 232.68,-88.75 224.95,-58.16 222.04,-37.08"/>
<polygon fill="#63b8ff" stroke="#63b8ff" points="225.51,-36.59 220.92,-27.04 218.55,-37.37 225.51,-36.59"/>
</a>
</g>
</g>
<!-- Node18&#45;&gt;Node7 -->
<g id="edge34_Node000018_Node000007" class="edge">
<title>Node18&#45;&gt;Node7</title>
<g id="a_edge34_Node000018_Node000007"><a xlink:title=" ">
<path fill="none" stroke="#63b8ff" d="M637.15,-151.04C580.31,-138.15 483.17,-116.12 416.93,-101.1"/>
<polygon fill="#63b8ff" stroke="#63b8ff" points="417.51,-97.64 406.98,-98.84 415.96,-104.47 417.51,-97.64"/>
</a>
</g>
</g>
<!-- Node18&#45;&gt;Node10 -->
<g id="edge31_Node000018_Node000010" class="edge">
<title>Node18&#45;&gt;Node10</title>
<g id="a_edge31_Node000018_Node000010"><a xlink:title=" ">
<path fill="none" stroke="#63b8ff" d="M621.88,-152.77C568,-143.74 495.48,-127.79 477.31,-105.3 461.9,-86.24 463.33,-56.91 466.85,-36.76"/>
<polygon fill="#63b8ff" stroke="#63b8ff" points="470.29,-37.4 468.86,-26.9 463.43,-36 470.29,-37.4"/>
</a>
</g>
</g>
<!-- Node19 -->
<g id="Node000019" class="node">
<title>Node19</title>
<g id="a_Node000019"><a xlink:title=" ">
<ellipse fill="#e0e0e0" stroke="#999999" cx="603.31" cy="-84.08" rx="33.47" ry="13.37"/>
<text text-anchor="middle" x="603.31" y="-81.58" font-family="Helvetica,sans-Serif" font-size="10.00">cmath</text>
</a>
</g>
</g>
<!-- Node18&#45;&gt;Node19 -->
<g id="edge23_Node000018_Node000019" class="edge">
<title>Node18&#45;&gt;Node19</title>
<g id="a_edge23_Node000018_Node000019"><a xlink:title=" ">
<path fill="none" stroke="#63b8ff" d="M670.09,-148.89C657.29,-136.66 637.7,-117.94 623.05,-103.94"/>
<polygon fill="#63b8ff" stroke="#63b8ff" points="625.13,-101.1 615.49,-96.72 620.3,-106.16 625.13,-101.1"/>
</a>
</g>
</g>
<!-- Node20 -->
<g id="Node000020" class="node">
<title>Node20</title>
<g id="a_Node000020"><a xlink:title=" ">
<ellipse fill="#e0e0e0" stroke="#999999" cx="692.31" cy="-84.08" rx="37.45" ry="13.37"/>
<text text-anchor="middle" x="692.31" y="-81.58" font-family="Helvetica,sans-Serif" font-size="10.00">cstddef</text>
</a>
</g>
</g>
<!-- Node18&#45;&gt;Node20 -->
<g id="edge24_Node000018_Node000020" class="edge">
<title>Node18&#45;&gt;Node20</title>
<g id="a_edge24_Node000018_Node000020"><a xlink:title=" ">
<path fill="none" stroke="#63b8ff" d="M684.79,-148.89C686.11,-137.72 688.06,-121.14 689.64,-107.68"/>
<polygon fill="#63b8ff" stroke="#63b8ff" points="693.12,-108.06 690.82,-97.72 686.17,-107.24 693.12,-108.06"/>
</a>
</g>
</g>
<!-- Node21 -->
<g id="Node000021" class="node">
<title>Node21</title>
<g id="a_Node000021"><a xlink:title=" ">
<ellipse fill="#e0e0e0" stroke="#999999" cx="793.31" cy="-84.08" rx="45.92" ry="13.37"/>
<text text-anchor="middle" x="793.31" y="-81.58" font-family="Helvetica,sans-Serif" font-size="10.00">functional</text>
</a>
</g>
</g>
<!-- Node18&#45;&gt;Node21 -->
<g id="edge26_Node000018_Node000021" class="edge">
<title>Node18&#45;&gt;Node21</title>
<g id="a_edge26_Node000018_Node000021"><a xlink:title=" ">
<path fill="none" stroke="#63b8ff" d="M700.98,-149.23C719.15,-136.6 747.62,-116.82 768.14,-102.57"/>
<polygon fill="#63b8ff" stroke="#63b8ff" points="770.18,-105.41 776.4,-96.83 766.19,-99.66 770.18,-105.41"/>
</a>
</g>
</g>
<!-- Node22 -->
<g id="Node000022" class="node">
<title>Node22</title>
<g id="a_Node000022"><a xlink:title=" ">
<ellipse fill="#e0e0e0" stroke="#999999" cx="884.31" cy="-84.08" rx="26.74" ry="13.37"/>
<text text-anchor="middle" x="884.31" y="-81.58" font-family="Helvetica,sans-Serif" font-size="10.00">map</text>
</a>
</g>
</g>
<!-- Node18&#45;&gt;Node22 -->
<g id="edge27_Node000018_Node000022" class="edge">
<title>Node18&#45;&gt;Node22</title>
<g id="a_edge27_Node000018_Node000022"><a xlink:title=" ">
<path fill="none" stroke="#63b8ff" d="M722.41,-150.4C756.34,-140.25 806.44,-123.99 848.31,-105.3 851.96,-103.67 855.72,-101.79 859.39,-99.84"/>
<polygon fill="#63b8ff" stroke="#63b8ff" points="861.09,-102.9 868.14,-94.99 857.7,-96.78 861.09,-102.9"/>
</a>
</g>
</g>
<!-- Node23 -->
<g id="Node000023" class="node">
<title>Node23</title>
<g id="a_Node000023"><a xlink:title=" ">
<ellipse fill="#e0e0e0" stroke="#999999" cx="968.31" cy="-84.08" rx="39.7" ry="13.37"/>
<text text-anchor="middle" x="968.31" y="-81.58" font-family="Helvetica,sans-Serif" font-size="10.00">optional</text>
</a>
</g>
</g>
<!-- Node18&#45;&gt;Node23 -->
<g id="edge28_Node000018_Node000023" class="edge">
<title>Node18&#45;&gt;Node23</title>
<g id="a_edge28_Node000018_Node000023"><a xlink:title=" ">
<path fill="none" stroke="#63b8ff" d="M735.77,-151.67C784.26,-141.96 858,-125.65 920.31,-105.3 925.68,-103.54 931.29,-101.44 936.7,-99.26"/>
<polygon fill="#63b8ff" stroke="#63b8ff" points="938.25,-102.41 946.13,-95.33 935.55,-95.95 938.25,-102.41"/>
</a>
</g>
</g>
<!-- Node24 -->
<g id="Node000024" class="node">
<title>Node24</title>
<g id="a_Node000024"><a xlink:title=" ">
<ellipse fill="#e0e0e0" stroke="#999999" cx="1048.31" cy="-84.08" rx="22.76" ry="13.37"/>
<text text-anchor="middle" x="1048.31" y="-81.58" font-family="Helvetica,sans-Serif" font-size="10.00">set</text>
</a>
</g>
</g>
<!-- Node18&#45;&gt;Node24 -->
<g id="edge29_Node000018_Node000024" class="edge">
<title>Node18&#45;&gt;Node24</title>
<g id="a_edge29_Node000018_Node000024"><a xlink:title=" ">
<path fill="none" stroke="#63b8ff" d="M764.72,-157.14C833.93,-151.26 934.87,-137.49 1017.31,-105.3 1020.48,-104.06 1023.66,-102.47 1026.72,-100.72"/>
<polygon fill="#63b8ff" stroke="#63b8ff" points="1028.82,-103.54 1035.38,-95.22 1025.07,-97.63 1028.82,-103.54"/>
</a>
</g>
</g>
<!-- Node25 -->
<g id="Node000025" class="node">
<title>Node25</title>
<g id="a_Node000025"><a xlink:title=" ">
<ellipse fill="#e0e0e0" stroke="#999999" cx="519.31" cy="-84.08" rx="33.47" ry="13.37"/>
<text text-anchor="middle" x="519.31" y="-81.58" font-family="Helvetica,sans-Serif" font-size="10.00">vector</text>
</a>
</g>
</g>
<!-- Node18&#45;&gt;Node25 -->
<g id="edge33_Node000018_Node000025" class="edge">
<title>Node18&#45;&gt;Node25</title>
<g id="a_edge33_Node000018_Node000025"><a xlink:title=" ">
<path fill="none" stroke="#63b8ff" d="M657.07,-149.57C632.32,-138.28 594.22,-120.8 561.31,-105.3 557.16,-103.34 552.79,-101.26 548.5,-99.21"/>
<polygon fill="#63b8ff" stroke="#63b8ff" points="549.88,-95.99 539.35,-94.82 546.85,-102.3 549.88,-95.99"/>
</a>
</g>
</g>
<!-- Node26&#45;&gt;Node5 -->
<g id="edge37_Node000026_Node000005" class="edge">
<title>Node26&#45;&gt;Node5</title>
<g id="a_edge37_Node000026_Node000005"><a xlink:title=" ">
<path fill="none" stroke="#63b8ff" d="M1173.53,-219.59C1170.41,-186.49 1163.16,-119.02 1151.31,-62.87 1149.47,-54.2 1146.9,-44.81 1144.46,-36.63"/>
<polygon fill="#63b8ff" stroke="#63b8ff" points="1147.8,-35.58 1141.5,-27.05 1141.11,-37.64 1147.8,-35.58"/>
</a>
</g>
</g>
<!-- Node26&#45;&gt;Node7 -->
<g id="edge39_Node000026_Node000007" class="edge">
<title>Node26&#45;&gt;Node7</title>
<g id="a_edge39_Node000026_Node000007"><a xlink:title=" ">
<path fill="none" stroke="#63b8ff" d="M1076.38,-239.33C958.13,-236.59 755.07,-225.48 586.31,-183.72 567.08,-178.97 461.02,-134.2 396.5,-106.64"/>
<polygon fill="#63b8ff" stroke="#63b8ff" points="397.86,-103.41 387.29,-102.7 395.11,-109.85 397.86,-103.41"/>
</a>
</g>
</g>
<!-- Node26&#45;&gt;Node12 -->
<g id="edge40_Node000026_Node000012" class="edge">
<title>Node26&#45;&gt;Node12</title>
<g id="a_edge40_Node000026_Node000012"><a xlink:title=" ">
<path fill="none" stroke="#63b8ff" d="M1210.9,-221.04C1234.32,-208.61 1264.73,-192.48 1287.37,-180.46"/>
<polygon fill="#63b8ff" stroke="#63b8ff" points="1289.06,-183.53 1296.25,-175.75 1285.77,-177.34 1289.06,-183.53"/>
</a>
</g>
</g>
<!-- Node26&#45;&gt;Node18 -->
<g id="edge41_Node000026_Node000018" class="edge">
<title>Node26&#45;&gt;Node18</title>
<g id="a_edge41_Node000026_Node000018"><a xlink:title=" ">
<path fill="none" stroke="#63b8ff" d="M1097.35,-227.83C1002.15,-213.04 842.65,-188.26 751.91,-174.17"/>
<polygon fill="#63b8ff" stroke="#63b8ff" points="752.42,-170.7 742,-172.63 751.35,-177.62 752.42,-170.7"/>
</a>
</g>
</g>
<!-- Node27 -->
<g id="Node000027" class="node">
<title>Node27</title>
<g id="a_Node000027"><a xlink:title=" ">
<ellipse fill="#e0e0e0" stroke="#999999" cx="1484.31" cy="-162.51" rx="31.23" ry="13.37"/>
<text text-anchor="middle" x="1484.31" y="-160.01" font-family="Helvetica,sans-Serif" font-size="10.00">limits</text>
</a>
</g>
</g>
<!-- Node26&#45;&gt;Node27 -->
<g id="edge36_Node000026_Node000027" class="edge">
<title>Node26&#45;&gt;Node27</title>
<g id="a_edge36_Node000026_Node000027"><a xlink:title=" ">
<path fill="none" stroke="#63b8ff" d="M1256.25,-228.7C1310.45,-219.81 1382.84,-205.25 1444.31,-183.72 1448.64,-182.21 1453.09,-180.32 1457.39,-178.3"/>
<polygon fill="#63b8ff" stroke="#63b8ff" points="1459.03,-181.39 1466.43,-173.8 1455.91,-175.13 1459.03,-181.39"/>
</a>
</g>
</g>
<!-- Node28 -->
<g id="Node000028" class="node">
<title>Node28</title>
<g id="a_Node000028"><a xlink:title=" ">
<ellipse fill="#e0e0e0" stroke="#999999" cx="1573.31" cy="-162.51" rx="40.11" ry="13.37"/>
<text text-anchor="middle" x="1573.31" y="-160.01" font-family="Helvetica,sans-Serif" font-size="10.00">typeinfo</text>
</a>
</g>
</g>
<!-- Node26&#45;&gt;Node28 -->
<g id="edge38_Node000026_Node000028" class="edge">
<title>Node26&#45;&gt;Node28</title>
<g id="a_edge38_Node000026_Node000028"><a xlink:title=" ">
<path fill="none" stroke="#63b8ff" d="M1264.02,-231.39C1335.3,-223.15 1437.49,-208.26 1524.31,-183.72 1530.09,-182.09 1536.12,-179.97 1541.88,-177.72"/>
<polygon fill="#63b8ff" stroke="#63b8ff" points="1543.32,-180.91 1551.25,-173.88 1540.67,-174.44 1543.32,-180.91"/>
</a>
</g>
</g>
</g>
</svg>
