<?xml version="1.0" encoding="UTF-8" standalone="no"?>
<!DOCTYPE svg PUBLIC "-//W3C//DTD SVG 1.1//EN"
 "http://www.w3.org/Graphics/SVG/1.1/DTD/svg11.dtd">
<!-- Generated by graphviz version 2.43.0 (0)
 -->
<!-- Title: drake/multibody/fem/neohookean_model.h Pages: 1 -->
<svg width="1444pt" height="441pt"
 viewBox="0.00 0.00 1444.00 441.00" xmlns="http://www.w3.org/2000/svg" xmlns:xlink="http://www.w3.org/1999/xlink">
<g id="graph0" class="graph" transform="scale(1 1) rotate(0) translate(4 437)">
<title>drake/multibody/fem/neohookean_model.h</title>
<polygon fill="white" stroke="transparent" points="-4,4 -4,-437 1440,-437 1440,4 -4,4"/>
<!-- Node0 -->
<g id="node1" class="node">
<title>Node0</title>
<g id="a_node1"><a xlink:title=" ">
<polygon fill="#bfbfbf" stroke="black" points="524,-402.5 524,-432.5 648,-432.5 648,-402.5 524,-402.5"/>
<text text-anchor="start" x="532" y="-420.5" font-family="Helvetica,sans-Serif" font-size="10.00">drake/multibody/fem</text>
<text text-anchor="middle" x="586" y="-409.5" font-family="Helvetica,sans-Serif" font-size="10.00">/neohookean_model.h</text>
</a>
</g>
</g>
<!-- Node1 -->
<g id="node2" class="node">
<title>Node1</title>
<g id="a_node2"><a xlink:title=" ">
<polygon fill="white" stroke="#bfbfbf" points="55,-62 55,-81 97,-81 97,-62 55,-62"/>
<text text-anchor="middle" x="76" y="-69" font-family="Helvetica,sans-Serif" font-size="10.00">array</text>
</a>
</g>
</g>
<!-- Node0&#45;&gt;Node1 -->
<g id="edge1" class="edge">
<title>Node0&#45;&gt;Node1</title>
<path fill="none" stroke="midnightblue" d="M523.84,-415C373.03,-409.67 0,-385.72 0,-279 0,-279 0,-279 0,-204.5 0,-157.19 37.12,-111.54 59.47,-88.33"/>
<polygon fill="midnightblue" stroke="midnightblue" points="62.11,-90.65 66.68,-81.09 57.14,-85.71 62.11,-90.65"/>
</g>
<!-- Node2 -->
<g id="node3" class="node">
<title>Node2</title>
<g id="a_node3"><a xlink:href="constitutive__model_8h.html" target="_top" xlink:title=" ">
<polygon fill="white" stroke="black" points="680,-335.5 680,-365.5 802,-365.5 802,-335.5 680,-335.5"/>
<text text-anchor="start" x="688" y="-353.5" font-family="Helvetica,sans-Serif" font-size="10.00">drake/multibody/fem</text>
<text text-anchor="middle" x="741" y="-342.5" font-family="Helvetica,sans-Serif" font-size="10.00">/constitutive_model.h</text>
</a>
</g>
</g>
<!-- Node0&#45;&gt;Node2 -->
<g id="edge2" class="edge">
<title>Node0&#45;&gt;Node2</title>
<path fill="none" stroke="midnightblue" d="M619.63,-402.4C642.58,-392.77 673.19,-379.94 697.92,-369.56"/>
<polygon fill="midnightblue" stroke="midnightblue" points="699.56,-372.67 707.43,-365.58 696.86,-366.22 699.56,-372.67"/>
</g>
<!-- Node24 -->
<g id="node25" class="node">
<title>Node24</title>
<g id="a_node25"><a xlink:href="neohookean__model__data_8h.html" target="_top" xlink:title=" ">
<polygon fill="white" stroke="black" points="510.5,-335.5 510.5,-365.5 661.5,-365.5 661.5,-335.5 510.5,-335.5"/>
<text text-anchor="start" x="518.5" y="-353.5" font-family="Helvetica,sans-Serif" font-size="10.00">drake/multibody/fem</text>
<text text-anchor="middle" x="586" y="-342.5" font-family="Helvetica,sans-Serif" font-size="10.00">/neohookean_model_data.h</text>
</a>
</g>
</g>
<!-- Node0&#45;&gt;Node24 -->
<g id="edge38" class="edge">
<title>Node0&#45;&gt;Node24</title>
<path fill="none" stroke="midnightblue" d="M586,-402.4C586,-394.64 586,-384.81 586,-375.86"/>
<polygon fill="midnightblue" stroke="midnightblue" points="589.5,-375.58 586,-365.58 582.5,-375.58 589.5,-375.58"/>
</g>
<!-- Node2&#45;&gt;Node1 -->
<g id="edge3" class="edge">
<title>Node2&#45;&gt;Node1</title>
<path fill="none" stroke="midnightblue" d="M679.82,-336.93C676.5,-336.27 673.21,-335.62 670,-335 457.71,-293.83 392.01,-314.45 197,-221 150.73,-198.83 133.46,-195.28 103,-154 89.07,-135.12 82.06,-108.64 78.73,-91.05"/>
<polygon fill="midnightblue" stroke="midnightblue" points="82.18,-90.45 77.07,-81.16 75.27,-91.61 82.18,-90.45"/>
</g>
<!-- Node3 -->
<g id="node4" class="node">
<title>Node3</title>
<g id="a_node4"><a xlink:title=" ">
<polygon fill="white" stroke="#bfbfbf" points="1264.5,-0.5 1264.5,-19.5 1343.5,-19.5 1343.5,-0.5 1264.5,-0.5"/>
<text text-anchor="middle" x="1304" y="-7.5" font-family="Helvetica,sans-Serif" font-size="10.00">fmt/format.h</text>
</a>
</g>
</g>
<!-- Node2&#45;&gt;Node3 -->
<g id="edge4" class="edge">
<title>Node2&#45;&gt;Node3</title>
<path fill="none" stroke="midnightblue" d="M802.07,-349.83C971.66,-349.11 1436,-335.38 1436,-206.5 1436,-206.5 1436,-206.5 1436,-137.5 1436,-81.61 1373.55,-42.76 1334.56,-23.95"/>
<polygon fill="midnightblue" stroke="midnightblue" points="1335.75,-20.64 1325.21,-19.6 1332.8,-26.99 1335.75,-20.64"/>
</g>
<!-- Node4 -->
<g id="node5" class="node">
<title>Node4</title>
<g id="a_node5"><a xlink:href="eigen__types_8h.html" target="_top" xlink:title="This file contains abbreviated definitions for certain specializations of Eigen::Matrix that are comm...">
<polygon fill="white" stroke="black" points="749.5,-190.5 749.5,-220.5 868.5,-220.5 868.5,-190.5 749.5,-190.5"/>
<text text-anchor="start" x="757.5" y="-208.5" font-family="Helvetica,sans-Serif" font-size="10.00">drake/common/eigen</text>
<text text-anchor="middle" x="809" y="-197.5" font-family="Helvetica,sans-Serif" font-size="10.00">_types.h</text>
</a>
</g>
</g>
<!-- Node2&#45;&gt;Node4 -->
<g id="edge5" class="edge">
<title>Node2&#45;&gt;Node4</title>
<path fill="none" stroke="midnightblue" d="M741.47,-335.2C742.63,-316.27 746.59,-282.36 760,-257 765.83,-245.97 774.8,-235.71 783.49,-227.36"/>
<polygon fill="midnightblue" stroke="midnightblue" points="785.93,-229.86 790.95,-220.53 781.21,-224.69 785.93,-229.86"/>
</g>
<!-- Node17 -->
<g id="node18" class="node">
<title>Node17</title>
<g id="a_node18"><a xlink:href="nice__type__name_8h.html" target="_top" xlink:title=" ">
<polygon fill="white" stroke="black" points="372,-190.5 372,-220.5 512,-220.5 512,-190.5 372,-190.5"/>
<text text-anchor="start" x="380" y="-208.5" font-family="Helvetica,sans-Serif" font-size="10.00">drake/common/nice_type</text>
<text text-anchor="middle" x="442" y="-197.5" font-family="Helvetica,sans-Serif" font-size="10.00">_name.h</text>
</a>
</g>
</g>
<!-- Node2&#45;&gt;Node17 -->
<g id="edge25" class="edge">
<title>Node2&#45;&gt;Node17</title>
<path fill="none" stroke="midnightblue" d="M679.99,-336.48C617.31,-322.96 527.91,-303.19 521,-299 492.52,-281.74 469.16,-250.66 455.41,-229.32"/>
<polygon fill="midnightblue" stroke="midnightblue" points="458.21,-227.2 449.95,-220.57 452.27,-230.9 458.21,-227.2"/>
</g>
<!-- Node23 -->
<g id="node24" class="node">
<title>Node23</title>
<g id="a_node24"><a xlink:href="fourth__order__tensor_8h.html" target="_top" xlink:title=" ">
<polygon fill="white" stroke="black" points="769.5,-263 769.5,-293 904.5,-293 904.5,-263 769.5,-263"/>
<text text-anchor="start" x="777.5" y="-281" font-family="Helvetica,sans-Serif" font-size="10.00">drake/math/fourth_order</text>
<text text-anchor="middle" x="837" y="-270" font-family="Helvetica,sans-Serif" font-size="10.00">_tensor.h</text>
</a>
</g>
</g>
<!-- Node2&#45;&gt;Node23 -->
<g id="edge35" class="edge">
<title>Node2&#45;&gt;Node23</title>
<path fill="none" stroke="midnightblue" d="M760.43,-335.23C774.57,-324.85 793.92,-310.63 809.63,-299.1"/>
<polygon fill="midnightblue" stroke="midnightblue" points="811.94,-301.75 817.93,-293 807.8,-296.1 811.94,-301.75"/>
</g>
<!-- Node5 -->
<g id="node6" class="node">
<title>Node5</title>
<g id="a_node6"><a xlink:title=" ">
<polygon fill="white" stroke="#bfbfbf" points="598.5,-62 598.5,-81 643.5,-81 643.5,-62 598.5,-62"/>
<text text-anchor="middle" x="621" y="-69" font-family="Helvetica,sans-Serif" font-size="10.00">utility</text>
</a>
</g>
</g>
<!-- Node4&#45;&gt;Node5 -->
<g id="edge6" class="edge">
<title>Node4&#45;&gt;Node5</title>
<path fill="none" stroke="midnightblue" d="M846.43,-190.4C881.14,-175.23 924.31,-149.68 902,-123 870.68,-85.56 721.22,-75.84 653.94,-73.34"/>
<polygon fill="midnightblue" stroke="midnightblue" points="654,-69.84 643.88,-73 653.76,-76.84 654,-69.84"/>
</g>
<!-- Node6 -->
<g id="node7" class="node">
<title>Node6</title>
<g id="a_node7"><a xlink:title=" ">
<polygon fill="white" stroke="#bfbfbf" points="649.5,-129 649.5,-148 726.5,-148 726.5,-129 649.5,-129"/>
<text text-anchor="middle" x="688" y="-136" font-family="Helvetica,sans-Serif" font-size="10.00">Eigen/Dense</text>
</a>
</g>
</g>
<!-- Node4&#45;&gt;Node6 -->
<g id="edge7" class="edge">
<title>Node4&#45;&gt;Node6</title>
<path fill="none" stroke="midnightblue" d="M782.74,-190.4C761.98,-179.24 733.2,-163.78 712.82,-152.83"/>
<polygon fill="midnightblue" stroke="midnightblue" points="714.3,-149.66 703.84,-148.01 710.99,-155.82 714.3,-149.66"/>
</g>
<!-- Node7 -->
<g id="node8" class="node">
<title>Node7</title>
<g id="a_node8"><a xlink:href="constants_8h.html" target="_top" xlink:title=" ">
<polygon fill="white" stroke="black" points="744.5,-129 744.5,-148 893.5,-148 893.5,-129 744.5,-129"/>
<text text-anchor="middle" x="819" y="-136" font-family="Helvetica,sans-Serif" font-size="10.00">drake/common/constants.h</text>
</a>
</g>
</g>
<!-- Node4&#45;&gt;Node7 -->
<g id="edge8" class="edge">
<title>Node4&#45;&gt;Node7</title>
<path fill="none" stroke="midnightblue" d="M811.17,-190.4C812.62,-180.96 814.55,-168.45 816.12,-158.19"/>
<polygon fill="midnightblue" stroke="midnightblue" points="819.6,-158.61 817.66,-148.19 812.68,-157.55 819.6,-158.61"/>
</g>
<!-- Node8 -->
<g id="node9" class="node">
<title>Node8</title>
<g id="a_node9"><a xlink:href="drake__assert_8h.html" target="_top" xlink:title="Provides Drake&#39;s assertion mechanics.">
<polygon fill="white" stroke="black" points="949.5,-123.5 949.5,-153.5 1068.5,-153.5 1068.5,-123.5 949.5,-123.5"/>
<text text-anchor="start" x="957.5" y="-141.5" font-family="Helvetica,sans-Serif" font-size="10.00">drake/common/drake</text>
<text text-anchor="middle" x="1009" y="-130.5" font-family="Helvetica,sans-Serif" font-size="10.00">_assert.h</text>
</a>
</g>
</g>
<!-- Node4&#45;&gt;Node8 -->
<g id="edge9" class="edge">
<title>Node4&#45;&gt;Node8</title>
<path fill="none" stroke="midnightblue" d="M852.4,-190.4C882.8,-180.52 923.61,-167.25 955.94,-156.74"/>
<polygon fill="midnightblue" stroke="midnightblue" points="957.26,-160 965.69,-153.58 955.1,-153.34 957.26,-160"/>
</g>
<!-- Node12 -->
<g id="node13" class="node">
<title>Node12</title>
<g id="a_node13"><a xlink:href="drake__copyable_8h.html" target="_top" xlink:title="Provides careful macros to selectively enable or disable the special member functions for copy&#45;constr...">
<polygon fill="white" stroke="black" points="373.5,-56.5 373.5,-86.5 492.5,-86.5 492.5,-56.5 373.5,-56.5"/>
<text text-anchor="start" x="381.5" y="-74.5" font-family="Helvetica,sans-Serif" font-size="10.00">drake/common/drake</text>
<text text-anchor="middle" x="433" y="-63.5" font-family="Helvetica,sans-Serif" font-size="10.00">_copyable.h</text>
</a>
</g>
</g>
<!-- Node4&#45;&gt;Node12 -->
<g id="edge15" class="edge">
<title>Node4&#45;&gt;Node12</title>
<path fill="none" stroke="midnightblue" d="M757.99,-190.47C724.27,-180.91 679.22,-167.55 640,-154 582.26,-134.05 516.84,-107.64 475.28,-90.36"/>
<polygon fill="midnightblue" stroke="midnightblue" points="476.6,-87.12 466.02,-86.5 473.9,-93.58 476.6,-87.12"/>
</g>
<!-- Node13 -->
<g id="node14" class="node">
<title>Node13</title>
<g id="a_node14"><a xlink:href="fmt__eigen_8h.html" target="_top" xlink:title=" ">
<polygon fill="white" stroke="black" points="1125.5,-129 1125.5,-148 1276.5,-148 1276.5,-129 1125.5,-129"/>
<text text-anchor="middle" x="1201" y="-136" font-family="Helvetica,sans-Serif" font-size="10.00">drake/common/fmt_eigen.h</text>
</a>
</g>
</g>
<!-- Node4&#45;&gt;Node13 -->
<g id="edge16" class="edge">
<title>Node4&#45;&gt;Node13</title>
<path fill="none" stroke="midnightblue" d="M868.54,-194.63C941.77,-182.48 1065.46,-161.97 1139.56,-149.69"/>
<polygon fill="midnightblue" stroke="midnightblue" points="1140.38,-153.1 1149.67,-148.01 1139.23,-146.19 1140.38,-153.1"/>
</g>
<!-- Node8&#45;&gt;Node1 -->
<g id="edge10" class="edge">
<title>Node8&#45;&gt;Node1</title>
<path fill="none" stroke="midnightblue" d="M949.39,-128.53C933.98,-126.45 917.4,-124.44 902,-123 592.71,-94.12 513.59,-112.49 204,-87 170.89,-84.27 133.11,-79.83 107.23,-76.58"/>
<polygon fill="midnightblue" stroke="midnightblue" points="107.61,-73.1 97.25,-75.31 106.73,-80.04 107.61,-73.1"/>
</g>
<!-- Node8&#45;&gt;Node5 -->
<g id="edge14" class="edge">
<title>Node8&#45;&gt;Node5</title>
<path fill="none" stroke="midnightblue" d="M949.26,-125.61C944.44,-124.71 939.64,-123.83 935,-123 832.61,-104.74 710.9,-86.01 653.74,-77.39"/>
<polygon fill="midnightblue" stroke="midnightblue" points="653.92,-73.88 643.51,-75.85 652.88,-80.8 653.92,-73.88"/>
</g>
<!-- Node9 -->
<g id="node10" class="node">
<title>Node9</title>
<g id="a_node10"><a xlink:title=" ">
<polygon fill="white" stroke="#bfbfbf" points="1026,-0.5 1026,-19.5 1070,-19.5 1070,-0.5 1026,-0.5"/>
<text text-anchor="middle" x="1048" y="-7.5" font-family="Helvetica,sans-Serif" font-size="10.00">string</text>
</a>
</g>
</g>
<!-- Node8&#45;&gt;Node9 -->
<g id="edge11" class="edge">
<title>Node8&#45;&gt;Node9</title>
<path fill="none" stroke="midnightblue" d="M997.07,-123.41C984.47,-106.71 967.99,-78.36 980,-56 987.84,-41.41 1002.72,-30.76 1016.56,-23.49"/>
<polygon fill="midnightblue" stroke="midnightblue" points="1018.4,-26.49 1025.88,-18.99 1015.36,-20.19 1018.4,-26.49"/>
</g>
<!-- Node10 -->
<g id="node11" class="node">
<title>Node10</title>
<g id="a_node11"><a xlink:title=" ">
<polygon fill="white" stroke="#bfbfbf" points="989.5,-62 989.5,-81 1030.5,-81 1030.5,-62 989.5,-62"/>
<text text-anchor="middle" x="1010" y="-69" font-family="Helvetica,sans-Serif" font-size="10.00">tuple</text>
</a>
</g>
</g>
<!-- Node8&#45;&gt;Node10 -->
<g id="edge12" class="edge">
<title>Node8&#45;&gt;Node10</title>
<path fill="none" stroke="midnightblue" d="M1009.22,-123.4C1009.36,-114.06 1009.55,-101.71 1009.71,-91.52"/>
<polygon fill="midnightblue" stroke="midnightblue" points="1013.21,-91.25 1009.87,-81.19 1006.21,-91.14 1013.21,-91.25"/>
</g>
<!-- Node11 -->
<g id="node12" class="node">
<title>Node11</title>
<g id="a_node12"><a xlink:title=" ">
<polygon fill="white" stroke="#bfbfbf" points="1176.5,-0.5 1176.5,-19.5 1245.5,-19.5 1245.5,-0.5 1176.5,-0.5"/>
<text text-anchor="middle" x="1211" y="-7.5" font-family="Helvetica,sans-Serif" font-size="10.00">type_traits</text>
</a>
</g>
</g>
<!-- Node8&#45;&gt;Node11 -->
<g id="edge13" class="edge">
<title>Node8&#45;&gt;Node11</title>
<path fill="none" stroke="midnightblue" d="M1018.38,-123.43C1031.06,-105.43 1055.29,-74.39 1083,-56 1108.3,-39.21 1140.57,-27.92 1166.38,-20.85"/>
<polygon fill="midnightblue" stroke="midnightblue" points="1167.5,-24.17 1176.28,-18.25 1165.72,-17.4 1167.5,-24.17"/>
</g>
<!-- Node13&#45;&gt;Node9 -->
<g id="edge17" class="edge">
<title>Node13&#45;&gt;Node9</title>
<path fill="none" stroke="midnightblue" d="M1190.48,-128.81C1164.83,-107.59 1098.76,-52.96 1066.4,-26.22"/>
<polygon fill="midnightblue" stroke="midnightblue" points="1068.53,-23.43 1058.59,-19.76 1064.07,-28.83 1068.53,-23.43"/>
</g>
<!-- Node14 -->
<g id="node15" class="node">
<title>Node14</title>
<g id="a_node15"><a xlink:title=" ">
<polygon fill="white" stroke="#bfbfbf" points="1361.5,-0.5 1361.5,-19.5 1434.5,-19.5 1434.5,-0.5 1361.5,-0.5"/>
<text text-anchor="middle" x="1398" y="-7.5" font-family="Helvetica,sans-Serif" font-size="10.00">string_view</text>
</a>
</g>
</g>
<!-- Node13&#45;&gt;Node14 -->
<g id="edge18" class="edge">
<title>Node13&#45;&gt;Node14</title>
<path fill="none" stroke="midnightblue" d="M1276.85,-132.78C1311.95,-126.77 1351.61,-113.94 1378,-87 1392.82,-71.87 1397.02,-47.16 1398.03,-30.04"/>
<polygon fill="midnightblue" stroke="midnightblue" points="1401.54,-29.7 1398.31,-19.61 1394.54,-29.51 1401.54,-29.7"/>
</g>
<!-- Node15 -->
<g id="node16" class="node">
<title>Node15</title>
<g id="a_node16"><a xlink:title=" ">
<polygon fill="white" stroke="#bfbfbf" points="1163.5,-62 1163.5,-81 1232.5,-81 1232.5,-62 1163.5,-62"/>
<text text-anchor="middle" x="1198" y="-69" font-family="Helvetica,sans-Serif" font-size="10.00">Eigen/Core</text>
</a>
</g>
</g>
<!-- Node13&#45;&gt;Node15 -->
<g id="edge19" class="edge">
<title>Node13&#45;&gt;Node15</title>
<path fill="none" stroke="midnightblue" d="M1200.6,-128.73C1200.15,-119.18 1199.44,-103.62 1198.87,-91.28"/>
<polygon fill="midnightblue" stroke="midnightblue" points="1202.36,-90.96 1198.4,-81.13 1195.36,-91.28 1202.36,-90.96"/>
</g>
<!-- Node16 -->
<g id="node17" class="node">
<title>Node16</title>
<g id="a_node17"><a xlink:href="fmt_8h.html" target="_top" xlink:title=" ">
<polygon fill="white" stroke="black" points="1250.5,-62 1250.5,-81 1369.5,-81 1369.5,-62 1250.5,-62"/>
<text text-anchor="middle" x="1310" y="-69" font-family="Helvetica,sans-Serif" font-size="10.00">drake/common/fmt.h</text>
</a>
</g>
</g>
<!-- Node13&#45;&gt;Node16 -->
<g id="edge20" class="edge">
<title>Node13&#45;&gt;Node16</title>
<path fill="none" stroke="midnightblue" d="M1215.7,-128.73C1233.92,-117.87 1265.2,-99.22 1286.7,-86.39"/>
<polygon fill="midnightblue" stroke="midnightblue" points="1288.74,-89.26 1295.53,-81.13 1285.15,-83.24 1288.74,-89.26"/>
</g>
<!-- Node16&#45;&gt;Node3 -->
<g id="edge24" class="edge">
<title>Node16&#45;&gt;Node3</title>
<path fill="none" stroke="midnightblue" d="M1309.14,-61.98C1308.29,-53.58 1306.97,-40.48 1305.88,-29.66"/>
<polygon fill="midnightblue" stroke="midnightblue" points="1309.34,-29.11 1304.86,-19.51 1302.38,-29.81 1309.34,-29.11"/>
</g>
<!-- Node16&#45;&gt;Node9 -->
<g id="edge21" class="edge">
<title>Node16&#45;&gt;Node9</title>
<path fill="none" stroke="midnightblue" d="M1272.46,-61.98C1220.79,-50.24 1128.63,-29.31 1080.03,-18.27"/>
<polygon fill="midnightblue" stroke="midnightblue" points="1080.6,-14.81 1070.07,-16.01 1079.05,-21.64 1080.6,-14.81"/>
</g>
<!-- Node16&#45;&gt;Node11 -->
<g id="edge23" class="edge">
<title>Node16&#45;&gt;Node11</title>
<path fill="none" stroke="midnightblue" d="M1295.82,-61.98C1279.64,-52.25 1252.97,-36.23 1233.86,-24.74"/>
<polygon fill="midnightblue" stroke="midnightblue" points="1235.53,-21.66 1225.16,-19.51 1231.93,-27.66 1235.53,-21.66"/>
</g>
<!-- Node16&#45;&gt;Node14 -->
<g id="edge22" class="edge">
<title>Node16&#45;&gt;Node14</title>
<path fill="none" stroke="midnightblue" d="M1322.61,-61.98C1336.72,-52.43 1359.83,-36.81 1376.75,-25.37"/>
<polygon fill="midnightblue" stroke="midnightblue" points="1379.09,-28.01 1385.42,-19.51 1375.17,-22.21 1379.09,-28.01"/>
</g>
<!-- Node17&#45;&gt;Node5 -->
<g id="edge29" class="edge">
<title>Node17&#45;&gt;Node5</title>
<path fill="none" stroke="midnightblue" d="M467.35,-190.46C484.14,-180.84 506.4,-167.43 525,-154 554.34,-132.82 585.87,-104.96 604.49,-87.91"/>
<polygon fill="midnightblue" stroke="midnightblue" points="606.89,-90.46 611.86,-81.11 602.14,-85.32 606.89,-90.46"/>
</g>
<!-- Node17&#45;&gt;Node9 -->
<g id="edge27" class="edge">
<title>Node17&#45;&gt;Node9</title>
<path fill="none" stroke="midnightblue" d="M371.87,-201.32C300.24,-196.42 196.08,-184.18 171,-154 146.29,-124.27 194.57,-62.22 204,-56 272.71,-10.67 869.38,-10.23 1015.71,-10.82"/>
<polygon fill="midnightblue" stroke="midnightblue" points="1015.81,-14.32 1025.83,-10.86 1015.85,-7.32 1015.81,-14.32"/>
</g>
<!-- Node18 -->
<g id="node19" class="node">
<title>Node18</title>
<g id="a_node19"><a xlink:title=" ">
<polygon fill="white" stroke="#bfbfbf" points="318,-129 318,-148 376,-148 376,-129 318,-129"/>
<text text-anchor="middle" x="347" y="-136" font-family="Helvetica,sans-Serif" font-size="10.00">memory</text>
</a>
</g>
</g>
<!-- Node17&#45;&gt;Node18 -->
<g id="edge26" class="edge">
<title>Node17&#45;&gt;Node18</title>
<path fill="none" stroke="midnightblue" d="M421.39,-190.4C405.6,-179.6 383.91,-164.76 368.03,-153.89"/>
<polygon fill="midnightblue" stroke="midnightblue" points="369.66,-150.77 359.43,-148.01 365.71,-156.54 369.66,-150.77"/>
</g>
<!-- Node19 -->
<g id="node20" class="node">
<title>Node19</title>
<g id="a_node20"><a xlink:title=" ">
<polygon fill="white" stroke="#bfbfbf" points="394.5,-129 394.5,-148 451.5,-148 451.5,-129 394.5,-129"/>
<text text-anchor="middle" x="423" y="-136" font-family="Helvetica,sans-Serif" font-size="10.00">typeinfo</text>
</a>
</g>
</g>
<!-- Node17&#45;&gt;Node19 -->
<g id="edge28" class="edge">
<title>Node17&#45;&gt;Node19</title>
<path fill="none" stroke="midnightblue" d="M437.88,-190.4C435.09,-180.86 431.38,-168.18 428.37,-157.86"/>
<polygon fill="midnightblue" stroke="midnightblue" points="431.71,-156.81 425.54,-148.19 424.99,-158.77 431.71,-156.81"/>
</g>
<!-- Node20 -->
<g id="node21" class="node">
<title>Node20</title>
<g id="a_node21"><a xlink:title=" ">
<polygon fill="white" stroke="#bfbfbf" points="469.5,-129 469.5,-148 516.5,-148 516.5,-129 469.5,-129"/>
<text text-anchor="middle" x="493" y="-136" font-family="Helvetica,sans-Serif" font-size="10.00">vector</text>
</a>
</g>
</g>
<!-- Node17&#45;&gt;Node20 -->
<g id="edge30" class="edge">
<title>Node17&#45;&gt;Node20</title>
<path fill="none" stroke="midnightblue" d="M453.07,-190.4C460.94,-180.36 471.55,-166.84 479.85,-156.25"/>
<polygon fill="midnightblue" stroke="midnightblue" points="482.76,-158.22 486.18,-148.19 477.25,-153.9 482.76,-158.22"/>
</g>
<!-- Node21 -->
<g id="node22" class="node">
<title>Node21</title>
<g id="a_node22"><a xlink:href="never__destroyed_8h.html" target="_top" xlink:title=" ">
<polygon fill="white" stroke="black" points="180,-123.5 180,-153.5 300,-153.5 300,-123.5 180,-123.5"/>
<text text-anchor="start" x="188" y="-141.5" font-family="Helvetica,sans-Serif" font-size="10.00">drake/common/never</text>
<text text-anchor="middle" x="240" y="-130.5" font-family="Helvetica,sans-Serif" font-size="10.00">_destroyed.h</text>
</a>
</g>
</g>
<!-- Node17&#45;&gt;Node21 -->
<g id="edge31" class="edge">
<title>Node17&#45;&gt;Node21</title>
<path fill="none" stroke="midnightblue" d="M398.17,-190.4C367.46,-180.52 326.25,-167.25 293.59,-156.74"/>
<polygon fill="midnightblue" stroke="midnightblue" points="294.34,-153.31 283.75,-153.58 292.19,-159.97 294.34,-153.31"/>
</g>
<!-- Node21&#45;&gt;Node5 -->
<g id="edge33" class="edge">
<title>Node21&#45;&gt;Node5</title>
<path fill="none" stroke="midnightblue" d="M300.18,-124.68C303.16,-124.1 306.11,-123.54 309,-123 410.36,-104.16 531,-85.77 588.02,-77.32"/>
<polygon fill="midnightblue" stroke="midnightblue" points="588.85,-80.74 598.23,-75.81 587.83,-73.81 588.85,-80.74"/>
</g>
<!-- Node21&#45;&gt;Node12 -->
<g id="edge34" class="edge">
<title>Node21&#45;&gt;Node12</title>
<path fill="none" stroke="midnightblue" d="M281.88,-123.4C311.09,-113.56 350.26,-100.37 381.4,-89.88"/>
<polygon fill="midnightblue" stroke="midnightblue" points="382.84,-93.09 391.2,-86.58 380.61,-86.45 382.84,-93.09"/>
</g>
<!-- Node22 -->
<g id="node23" class="node">
<title>Node22</title>
<g id="a_node23"><a xlink:title=" ">
<polygon fill="white" stroke="#bfbfbf" points="213.5,-62 213.5,-81 266.5,-81 266.5,-62 213.5,-62"/>
<text text-anchor="middle" x="240" y="-69" font-family="Helvetica,sans-Serif" font-size="10.00">cstddef</text>
</a>
</g>
</g>
<!-- Node21&#45;&gt;Node22 -->
<g id="edge32" class="edge">
<title>Node21&#45;&gt;Node22</title>
<path fill="none" stroke="midnightblue" d="M240,-123.4C240,-114.06 240,-101.71 240,-91.52"/>
<polygon fill="midnightblue" stroke="midnightblue" points="243.5,-91.19 240,-81.19 236.5,-91.19 243.5,-91.19"/>
</g>
<!-- Node23&#45;&gt;Node4 -->
<g id="edge37" class="edge">
<title>Node23&#45;&gt;Node4</title>
<path fill="none" stroke="midnightblue" d="M831.33,-262.73C827.61,-253.37 822.66,-240.9 818.36,-230.08"/>
<polygon fill="midnightblue" stroke="midnightblue" points="821.6,-228.75 814.66,-220.75 815.1,-231.33 821.6,-228.75"/>
</g>
<!-- Node23&#45;&gt;Node8 -->
<g id="edge36" class="edge">
<title>Node23&#45;&gt;Node8</title>
<path fill="none" stroke="midnightblue" d="M854.76,-262.8C885.35,-238.35 948.1,-188.19 983.41,-159.96"/>
<polygon fill="midnightblue" stroke="midnightblue" points="985.71,-162.6 991.34,-153.62 981.34,-157.13 985.71,-162.6"/>
</g>
<!-- Node24&#45;&gt;Node1 -->
<g id="edge39" class="edge">
<title>Node24&#45;&gt;Node1</title>
<path fill="none" stroke="midnightblue" d="M510.46,-347.72C372.59,-343.69 91.55,-331.54 62,-299 8.41,-240 48.27,-132.79 67.34,-90.42"/>
<polygon fill="midnightblue" stroke="midnightblue" points="70.53,-91.87 71.57,-81.32 64.18,-88.92 70.53,-91.87"/>
</g>
<!-- Node24&#45;&gt;Node4 -->
<g id="edge40" class="edge">
<title>Node24&#45;&gt;Node4</title>
<path fill="none" stroke="midnightblue" d="M608.2,-335.27C648.27,-309.57 732.76,-255.39 778.32,-226.17"/>
<polygon fill="midnightblue" stroke="midnightblue" points="780.36,-229.02 786.89,-220.68 776.59,-223.13 780.36,-229.02"/>
</g>
<!-- Node25 -->
<g id="node26" class="node">
<title>Node25</title>
<g id="a_node26"><a xlink:href="deformation__gradient__data_8h.html" target="_top" xlink:title=" ">
<polygon fill="white" stroke="black" points="530.5,-257.5 530.5,-298.5 655.5,-298.5 655.5,-257.5 530.5,-257.5"/>
<text text-anchor="start" x="538.5" y="-286.5" font-family="Helvetica,sans-Serif" font-size="10.00">drake/multibody/fem</text>
<text text-anchor="start" x="538.5" y="-275.5" font-family="Helvetica,sans-Serif" font-size="10.00">/deformation_gradient</text>
<text text-anchor="middle" x="593" y="-264.5" font-family="Helvetica,sans-Serif" font-size="10.00">_data.h</text>
</a>
</g>
</g>
<!-- Node24&#45;&gt;Node25 -->
<g id="edge41" class="edge">
<title>Node24&#45;&gt;Node25</title>
<path fill="none" stroke="midnightblue" d="M587.42,-335.23C588.18,-327.57 589.14,-317.84 590.06,-308.63"/>
<polygon fill="midnightblue" stroke="midnightblue" points="593.55,-308.89 591.06,-298.59 586.58,-308.19 593.55,-308.89"/>
</g>
<!-- Node25&#45;&gt;Node1 -->
<g id="edge42" class="edge">
<title>Node25&#45;&gt;Node1</title>
<path fill="none" stroke="midnightblue" d="M530.48,-273.24C437.32,-264.91 259.99,-238.35 138,-154 113.95,-137.37 95.22,-108.48 84.89,-89.94"/>
<polygon fill="midnightblue" stroke="midnightblue" points="87.96,-88.25 80.16,-81.07 81.78,-91.54 87.96,-88.25"/>
</g>
<!-- Node25&#45;&gt;Node3 -->
<g id="edge44" class="edge">
<title>Node25&#45;&gt;Node3</title>
<path fill="none" stroke="midnightblue" d="M655.58,-267.04C713.47,-257.27 801.7,-240.95 877,-221 967.62,-196.99 1000.38,-208.01 1077,-154 1122.27,-122.08 1108.23,-87.19 1154,-56 1170.74,-44.59 1218.8,-31.22 1256.06,-22.04"/>
<polygon fill="midnightblue" stroke="midnightblue" points="1257.35,-25.32 1266.24,-19.56 1255.7,-18.52 1257.35,-25.32"/>
</g>
<!-- Node25&#45;&gt;Node4 -->
<g id="edge45" class="edge">
<title>Node25&#45;&gt;Node4</title>
<path fill="none" stroke="midnightblue" d="M652.88,-257.46C685.21,-246.9 724.78,-233.99 755.99,-223.8"/>
<polygon fill="midnightblue" stroke="midnightblue" points="757.39,-227.03 765.81,-220.6 755.22,-220.37 757.39,-227.03"/>
</g>
<!-- Node25&#45;&gt;Node5 -->
<g id="edge43" class="edge">
<title>Node25&#45;&gt;Node5</title>
<path fill="none" stroke="midnightblue" d="M595.68,-257.39C601.07,-218.07 613.12,-130.06 618.42,-91.36"/>
<polygon fill="midnightblue" stroke="midnightblue" points="621.94,-91.43 619.83,-81.04 615.01,-90.48 621.94,-91.43"/>
</g>
<!-- Node25&#45;&gt;Node17 -->
<g id="edge46" class="edge">
<title>Node25&#45;&gt;Node17</title>
<path fill="none" stroke="midnightblue" d="M550.94,-257.36C529.2,-247.21 502.82,-234.9 481.47,-224.93"/>
<polygon fill="midnightblue" stroke="midnightblue" points="482.89,-221.73 472.35,-220.67 479.93,-228.07 482.89,-221.73"/>
</g>
</g>
</svg>
