<?xml version="1.0" encoding="UTF-8" standalone="no"?>
<!DOCTYPE svg PUBLIC "-//W3C//DTD SVG 1.1//EN"
 "http://www.w3.org/Graphics/SVG/1.1/DTD/svg11.dtd">
<!-- Generated by graphviz version 2.43.0 (0)
 -->
<!-- Title: drake/systems/framework/test_utilities/pack_value.h Pages: 1 -->
<!--zoomable 352 -->
<svg id="main" version="1.1" xmlns="http://www.w3.org/2000/svg" xmlns:xlink="http://www.w3.org/1999/xlink" xml:space="preserve" onload="init(evt)">
<style type="text/css"><![CDATA[
.edge:hover path { stroke: red; }
.edge:hover polygon { stroke: red; fill: red; }
]]></style>
<script type="text/javascript"><![CDATA[
var edges = document.getElementsByTagName('g');
if (edges && edges.length) {
  for (var i=0;i<edges.length;i++) {
    if (edges[i].id.substr(0,4)=='edge') {
      edges[i].setAttribute('class','edge');
    }
  }
}
]]></script>
        <defs>
                <circle id="rim" cx="0" cy="0" r="7"/>
                <circle id="rim2" cx="0" cy="0" r="3.5"/>
                <g id="zoomPlus">
                        <use xlink:href="#rim" fill="#404040">
                                <set attributeName="fill" to="#808080" begin="zoomplus.mouseover" end="zoomplus.mouseout"/>
                        </use>
                        <path d="M-4,0h8M0,-4v8" fill="none" stroke="white" stroke-width="1.5" pointer-events="none"/>
                </g>
                <g id="zoomMin">
                        <use xlink:href="#rim" fill="#404040">
                                <set attributeName="fill" to="#808080" begin="zoomminus.mouseover" end="zoomminus.mouseout"/>
                        </use>
                        <path d="M-4,0h8" fill="none" stroke="white" stroke-width="1.5" pointer-events="none"/>
                </g>
                <g id="dirArrow">
                        <path fill="none" stroke="white" stroke-width="1.5" d="M0,-3.0v7 M-2.5,-0.5L0,-3.0L2.5,-0.5"/>
                </g>
               <g id="resetDef">
                       <use xlink:href="#rim2" fill="#404040">
                               <set attributeName="fill" to="#808080" begin="reset.mouseover" end="reset.mouseout"/>
                       </use>
               </g>
        </defs>

<script type="text/javascript">
var viewWidth = 1762;
var viewHeight = 352;
var sectionId = 'dynsection-0';
</script>
<script xlink:href="svgpan.js"/>
<svg id="graph" class="graph">
<g id="viewport">
<title>drake/systems/framework/test_utilities/pack_value.h</title>
<polygon fill="white" stroke="transparent" points="-4,4 -4,-348 1758.3,-348 1758.3,4 -4,4"/>
<!-- Node0 -->
<g id="node1" class="node">
<title>Node0</title>
<g id="a_node1"><a xlink:title=" ">
<polygon fill="#bfbfbf" stroke="black" points="943.5,-313.5 943.5,-343.5 1091.5,-343.5 1091.5,-313.5 943.5,-313.5"/>
<text text-anchor="start" x="951.5" y="-331.5" font-family="Helvetica,sans-Serif" font-size="10.00">drake/systems/framework</text>
<text text-anchor="middle" x="1017.5" y="-320.5" font-family="Helvetica,sans-Serif" font-size="10.00">/test_utilities/pack_value.h</text>
</a>
</g>
</g>
<!-- Node1 -->
<g id="node2" class="node">
<title>Node1</title>
<g id="a_node2"><a xlink:title=" ">
<polygon fill="white" stroke="#bfbfbf" points="859.5,-129 859.5,-148 917.5,-148 917.5,-129 859.5,-129"/>
<text text-anchor="middle" x="888.5" y="-136" font-family="Helvetica,sans-Serif" font-size="10.00">memory</text>
</a>
</g>
</g>
<!-- Node0&#45;&gt;Node1 -->
<g id="edge1" class="edge">
<title>Node0&#45;&gt;Node1</title>
<path fill="none" stroke="midnightblue" d="M1019.65,-313.4C1022.95,-286.53 1026.23,-227.34 998.5,-190 993.4,-183.13 950.26,-164.56 919.55,-151.96"/>
<polygon fill="midnightblue" stroke="midnightblue" points="920.67,-148.63 910.08,-148.1 918.02,-155.12 920.67,-148.63"/>
</g>
<!-- Node2 -->
<g id="node3" class="node">
<title>Node2</title>
<g id="a_node3"><a xlink:href="drake__assert_8h.html" target="_top" xlink:title="Provides Drake&#39;s assertion implementation.">
<polygon fill="white" stroke="black" points="1176,-56.5 1176,-86.5 1295,-86.5 1295,-56.5 1176,-56.5"/>
<text text-anchor="start" x="1184" y="-74.5" font-family="Helvetica,sans-Serif" font-size="10.00">drake/common/drake</text>
<text text-anchor="middle" x="1235.5" y="-63.5" font-family="Helvetica,sans-Serif" font-size="10.00">_assert.h</text>
</a>
</g>
</g>
<!-- Node0&#45;&gt;Node2 -->
<g id="edge2" class="edge">
<title>Node0&#45;&gt;Node2</title>
<path fill="none" stroke="midnightblue" d="M1091.76,-320.63C1256.92,-303.65 1646.31,-253.7 1724.5,-154 1733,-143.16 1733.73,-133.23 1724.5,-123 1696.95,-92.46 1433.59,-79.28 1305.2,-74.63"/>
<polygon fill="midnightblue" stroke="midnightblue" points="1305.19,-71.13 1295.07,-74.27 1304.94,-78.12 1305.19,-71.13"/>
</g>
<!-- Node4 -->
<g id="node5" class="node">
<title>Node4</title>
<g id="a_node5"><a xlink:href="value_8h.html" target="_top" xlink:title=" ">
<polygon fill="white" stroke="black" points="682.5,-257.5 682.5,-276.5 810.5,-276.5 810.5,-257.5 682.5,-257.5"/>
<text text-anchor="middle" x="746.5" y="-264.5" font-family="Helvetica,sans-Serif" font-size="10.00">drake/common/value.h</text>
</a>
</g>
</g>
<!-- Node0&#45;&gt;Node4 -->
<g id="edge4" class="edge">
<title>Node0&#45;&gt;Node4</title>
<path fill="none" stroke="midnightblue" d="M953.62,-313.47C905.13,-302.83 839.47,-288.41 795.19,-278.69"/>
<polygon fill="midnightblue" stroke="midnightblue" points="795.76,-275.23 785.24,-276.51 794.26,-282.07 795.76,-275.23"/>
</g>
<!-- Node3 -->
<g id="node4" class="node">
<title>Node3</title>
<g id="a_node4"><a xlink:title=" ">
<polygon fill="white" stroke="#bfbfbf" points="1245,-0.5 1245,-19.5 1314,-19.5 1314,-0.5 1245,-0.5"/>
<text text-anchor="middle" x="1279.5" y="-7.5" font-family="Helvetica,sans-Serif" font-size="10.00">type_traits</text>
</a>
</g>
</g>
<!-- Node2&#45;&gt;Node3 -->
<g id="edge3" class="edge">
<title>Node2&#45;&gt;Node3</title>
<path fill="none" stroke="midnightblue" d="M1245.93,-56.4C1252.26,-47.84 1260.37,-36.87 1267.03,-27.86"/>
<polygon fill="midnightblue" stroke="midnightblue" points="1269.97,-29.78 1273.1,-19.66 1264.34,-25.62 1269.97,-29.78"/>
</g>
<!-- Node4&#45;&gt;Node1 -->
<g id="edge5" class="edge">
<title>Node4&#45;&gt;Node1</title>
<path fill="none" stroke="midnightblue" d="M741.28,-257.06C733.13,-241.78 719.73,-210.31 734.5,-190 765,-148.05 796.26,-170.29 845.5,-154 848.08,-153.15 850.74,-152.26 853.41,-151.37"/>
<polygon fill="midnightblue" stroke="midnightblue" points="854.68,-154.63 863.05,-148.14 852.46,-148 854.68,-154.63"/>
</g>
<!-- Node4&#45;&gt;Node3 -->
<g id="edge8" class="edge">
<title>Node4&#45;&gt;Node3</title>
<path fill="none" stroke="midnightblue" d="M810.63,-263.83C1022.03,-255.99 1686.83,-225.79 1747.5,-154 1765.59,-132.59 1742.41,-66.96 1729.5,-56 1699.02,-30.12 1432.09,-16.93 1324.33,-12.63"/>
<polygon fill="midnightblue" stroke="midnightblue" points="1324.24,-9.12 1314.11,-12.22 1323.96,-16.11 1324.24,-9.12"/>
</g>
<!-- Node5 -->
<g id="node6" class="node">
<title>Node5</title>
<g id="a_node6"><a xlink:title=" ">
<polygon fill="white" stroke="#bfbfbf" points="744,-196 744,-215 809,-215 809,-196 744,-196"/>
<text text-anchor="middle" x="776.5" y="-203" font-family="Helvetica,sans-Serif" font-size="10.00">stdexcept</text>
</a>
</g>
</g>
<!-- Node4&#45;&gt;Node5 -->
<g id="edge6" class="edge">
<title>Node4&#45;&gt;Node5</title>
<path fill="none" stroke="midnightblue" d="M750.8,-257.48C755.16,-248.82 762.06,-235.15 767.6,-224.15"/>
<polygon fill="midnightblue" stroke="midnightblue" points="770.83,-225.51 772.21,-215.01 764.58,-222.36 770.83,-225.51"/>
</g>
<!-- Node6 -->
<g id="node7" class="node">
<title>Node6</title>
<g id="a_node7"><a xlink:title=" ">
<polygon fill="white" stroke="#bfbfbf" points="800.5,-62 800.5,-81 844.5,-81 844.5,-62 800.5,-62"/>
<text text-anchor="middle" x="822.5" y="-69" font-family="Helvetica,sans-Serif" font-size="10.00">string</text>
</a>
</g>
</g>
<!-- Node4&#45;&gt;Node6 -->
<g id="edge7" class="edge">
<title>Node4&#45;&gt;Node6</title>
<path fill="none" stroke="midnightblue" d="M810.77,-263.62C877.38,-259.65 975,-249.07 998.5,-221 1026.46,-187.6 1024.71,-157.79 998.5,-123 981.2,-100.03 900.46,-84.31 854.58,-77.06"/>
<polygon fill="midnightblue" stroke="midnightblue" points="854.95,-73.57 844.54,-75.52 853.89,-80.49 854.95,-73.57"/>
</g>
<!-- Node7 -->
<g id="node8" class="node">
<title>Node7</title>
<g id="a_node8"><a xlink:title=" ">
<polygon fill="white" stroke="#bfbfbf" points="78,-129 78,-148 135,-148 135,-129 78,-129"/>
<text text-anchor="middle" x="106.5" y="-136" font-family="Helvetica,sans-Serif" font-size="10.00">typeinfo</text>
</a>
</g>
</g>
<!-- Node4&#45;&gt;Node7 -->
<g id="edge9" class="edge">
<title>Node4&#45;&gt;Node7</title>
<path fill="none" stroke="midnightblue" d="M682.25,-261.02C609.15,-254.67 486.43,-241.93 382.5,-221 274.77,-199.31 248.83,-188.51 144.5,-154 142.24,-153.25 139.91,-152.45 137.58,-151.62"/>
<polygon fill="midnightblue" stroke="midnightblue" points="138.68,-148.29 128.08,-148.12 136.26,-154.86 138.68,-148.29"/>
</g>
<!-- Node8 -->
<g id="node9" class="node">
<title>Node8</title>
<g id="a_node9"><a xlink:title=" ">
<polygon fill="white" stroke="#bfbfbf" points="284,-62 284,-81 329,-81 329,-62 284,-62"/>
<text text-anchor="middle" x="306.5" y="-69" font-family="Helvetica,sans-Serif" font-size="10.00">utility</text>
</a>
</g>
</g>
<!-- Node4&#45;&gt;Node8 -->
<g id="edge10" class="edge">
<title>Node4&#45;&gt;Node8</title>
<path fill="none" stroke="midnightblue" d="M682.32,-266.34C526.98,-265.56 138.42,-253.51 68.5,-154 60.58,-142.73 59.83,-133.71 68.5,-123 70.13,-120.99 208.89,-92.43 273.76,-79.17"/>
<polygon fill="midnightblue" stroke="midnightblue" points="274.77,-82.54 283.87,-77.11 273.37,-75.68 274.77,-82.54"/>
</g>
<!-- Node9 -->
<g id="node10" class="node">
<title>Node9</title>
<g id="a_node10"><a xlink:href="copyable__unique__ptr_8h.html" target="_top" xlink:title=" ">
<polygon fill="white" stroke="black" points="550,-190.5 550,-220.5 687,-220.5 687,-190.5 550,-190.5"/>
<text text-anchor="start" x="558" y="-208.5" font-family="Helvetica,sans-Serif" font-size="10.00">drake/common/copyable</text>
<text text-anchor="middle" x="618.5" y="-197.5" font-family="Helvetica,sans-Serif" font-size="10.00">_unique_ptr.h</text>
</a>
</g>
</g>
<!-- Node4&#45;&gt;Node9 -->
<g id="edge11" class="edge">
<title>Node4&#45;&gt;Node9</title>
<path fill="none" stroke="midnightblue" d="M728.16,-257.48C709.93,-249 681.4,-235.74 658,-224.86"/>
<polygon fill="midnightblue" stroke="midnightblue" points="659.21,-221.56 648.67,-220.52 656.26,-227.91 659.21,-221.56"/>
</g>
<!-- Node16 -->
<g id="node17" class="node">
<title>Node16</title>
<g id="a_node17"><a xlink:href="drake__copyable_8h.html" target="_top" xlink:title="Provides careful macros to selectively enable or disable the special member functions for copy&#45;constr...">
<polygon fill="white" stroke="black" points="0,-56.5 0,-86.5 119,-86.5 119,-56.5 0,-56.5"/>
<text text-anchor="start" x="8" y="-74.5" font-family="Helvetica,sans-Serif" font-size="10.00">drake/common/drake</text>
<text text-anchor="middle" x="59.5" y="-63.5" font-family="Helvetica,sans-Serif" font-size="10.00">_copyable.h</text>
</a>
</g>
</g>
<!-- Node4&#45;&gt;Node16 -->
<g id="edge22" class="edge">
<title>Node4&#45;&gt;Node16</title>
<path fill="none" stroke="midnightblue" d="M682.45,-264.31C531.64,-259.91 163.14,-246.66 113.5,-221 79.28,-203.31 71.48,-190.27 58.5,-154 51.89,-135.53 52.73,-113.16 54.89,-96.54"/>
<polygon fill="midnightblue" stroke="midnightblue" points="58.37,-96.96 56.44,-86.54 51.45,-95.89 58.37,-96.96"/>
</g>
<!-- Node17 -->
<g id="node18" class="node">
<title>Node17</title>
<g id="a_node18"><a xlink:href="hash_8h.html" target="_top" xlink:title=" ">
<polygon fill="white" stroke="black" points="1217,-196 1217,-215 1342,-215 1342,-196 1217,-196"/>
<text text-anchor="middle" x="1279.5" y="-203" font-family="Helvetica,sans-Serif" font-size="10.00">drake/common/hash.h</text>
</a>
</g>
</g>
<!-- Node4&#45;&gt;Node17 -->
<g id="edge23" class="edge">
<title>Node4&#45;&gt;Node17</title>
<path fill="none" stroke="midnightblue" d="M810.53,-258.85C910.24,-247.72 1102.03,-226.31 1206.8,-214.62"/>
<polygon fill="midnightblue" stroke="midnightblue" points="1207.42,-218.07 1216.97,-213.48 1206.65,-211.11 1207.42,-218.07"/>
</g>
<!-- Node26 -->
<g id="node27" class="node">
<title>Node26</title>
<g id="a_node27"><a xlink:href="is__cloneable_8h.html" target="_top" xlink:title=" ">
<polygon fill="white" stroke="black" points="827.5,-196 827.5,-215 989.5,-215 989.5,-196 827.5,-196"/>
<text text-anchor="middle" x="908.5" y="-203" font-family="Helvetica,sans-Serif" font-size="10.00">drake/common/is_cloneable.h</text>
</a>
</g>
</g>
<!-- Node4&#45;&gt;Node26 -->
<g id="edge39" class="edge">
<title>Node4&#45;&gt;Node26</title>
<path fill="none" stroke="midnightblue" d="M769.71,-257.48C797.5,-247.27 844.22,-230.11 875.69,-218.55"/>
<polygon fill="midnightblue" stroke="midnightblue" points="877.15,-221.74 885.33,-215.01 874.74,-215.17 877.15,-221.74"/>
</g>
<!-- Node27 -->
<g id="node28" class="node">
<title>Node27</title>
<g id="a_node28"><a xlink:href="nice__type__name_8h.html" target="_top" xlink:title=" ">
<polygon fill="white" stroke="black" points="391.5,-190.5 391.5,-220.5 531.5,-220.5 531.5,-190.5 391.5,-190.5"/>
<text text-anchor="start" x="399.5" y="-208.5" font-family="Helvetica,sans-Serif" font-size="10.00">drake/common/nice_type</text>
<text text-anchor="middle" x="461.5" y="-197.5" font-family="Helvetica,sans-Serif" font-size="10.00">_name.h</text>
</a>
</g>
</g>
<!-- Node4&#45;&gt;Node27 -->
<g id="edge42" class="edge">
<title>Node4&#45;&gt;Node27</title>
<path fill="none" stroke="midnightblue" d="M705.67,-257.48C662.2,-248.4 592.39,-233.83 538.53,-222.58"/>
<polygon fill="midnightblue" stroke="midnightblue" points="539.17,-219.14 528.67,-220.52 537.74,-225.99 539.17,-219.14"/>
</g>
<!-- Node9&#45;&gt;Node1 -->
<g id="edge13" class="edge">
<title>Node9&#45;&gt;Node1</title>
<path fill="none" stroke="midnightblue" d="M687.01,-191.24C732.3,-181.99 792.81,-168.7 845.5,-154 848.51,-153.16 851.63,-152.23 854.74,-151.26"/>
<polygon fill="midnightblue" stroke="midnightblue" points="856.1,-154.5 864.53,-148.08 853.94,-147.84 856.1,-154.5"/>
</g>
<!-- Node9&#45;&gt;Node2 -->
<g id="edge16" class="edge">
<title>Node9&#45;&gt;Node2</title>
<path fill="none" stroke="midnightblue" d="M687.07,-193.76C725.11,-186.06 772.47,-173.52 811.5,-154 831.3,-144.1 830.11,-131.64 850.5,-123 905.82,-99.55 1070.76,-84.27 1165.85,-77.15"/>
<polygon fill="midnightblue" stroke="midnightblue" points="1166.24,-80.64 1175.96,-76.41 1165.72,-73.65 1166.24,-80.64"/>
</g>
<!-- Node9&#45;&gt;Node8 -->
<g id="edge15" class="edge">
<title>Node9&#45;&gt;Node8</title>
<path fill="none" stroke="midnightblue" d="M549.86,-191.5C473.51,-177 360.51,-155.37 358.5,-154 335.77,-138.54 320.84,-109.51 313.04,-90.59"/>
<polygon fill="midnightblue" stroke="midnightblue" points="316.21,-89.11 309.34,-81.04 309.68,-91.63 316.21,-89.11"/>
</g>
<!-- Node10 -->
<g id="node11" class="node">
<title>Node10</title>
<g id="a_node11"><a xlink:title=" ">
<polygon fill="white" stroke="#bfbfbf" points="936,-129 936,-148 989,-148 989,-129 936,-129"/>
<text text-anchor="middle" x="962.5" y="-136" font-family="Helvetica,sans-Serif" font-size="10.00">cstddef</text>
</a>
</g>
</g>
<!-- Node9&#45;&gt;Node10 -->
<g id="edge12" class="edge">
<title>Node9&#45;&gt;Node10</title>
<path fill="none" stroke="midnightblue" d="M687.12,-195.05C763.72,-184.18 882.67,-166.26 926.5,-154 928.94,-153.32 931.44,-152.52 933.93,-151.66"/>
<polygon fill="midnightblue" stroke="midnightblue" points="935.21,-154.92 943.34,-148.13 932.75,-148.37 935.21,-154.92"/>
</g>
<!-- Node11 -->
<g id="node12" class="node">
<title>Node11</title>
<g id="a_node12"><a xlink:title=" ">
<polygon fill="white" stroke="#bfbfbf" points="544,-129 544,-148 601,-148 601,-129 544,-129"/>
<text text-anchor="middle" x="572.5" y="-136" font-family="Helvetica,sans-Serif" font-size="10.00">ostream</text>
</a>
</g>
</g>
<!-- Node9&#45;&gt;Node11 -->
<g id="edge14" class="edge">
<title>Node9&#45;&gt;Node11</title>
<path fill="none" stroke="midnightblue" d="M608.52,-190.4C601.49,-180.46 592.04,-167.11 584.58,-156.57"/>
<polygon fill="midnightblue" stroke="midnightblue" points="587.29,-154.34 578.65,-148.19 581.57,-158.38 587.29,-154.34"/>
</g>
<!-- Node12 -->
<g id="node13" class="node">
<title>Node12</title>
<g id="a_node13"><a xlink:href="drake__deprecated_8h.html" target="_top" xlink:title="Provides a portable macro for use in generating compile&#45;time warnings for use of code that is permitt...">
<polygon fill="white" stroke="black" points="684,-123.5 684,-153.5 803,-153.5 803,-123.5 684,-123.5"/>
<text text-anchor="start" x="692" y="-141.5" font-family="Helvetica,sans-Serif" font-size="10.00">drake/common/drake</text>
<text text-anchor="middle" x="743.5" y="-130.5" font-family="Helvetica,sans-Serif" font-size="10.00">_deprecated.h</text>
</a>
</g>
</g>
<!-- Node9&#45;&gt;Node12 -->
<g id="edge17" class="edge">
<title>Node9&#45;&gt;Node12</title>
<path fill="none" stroke="midnightblue" d="M645.62,-190.4C663.72,-180.98 687.73,-168.5 707.43,-158.26"/>
<polygon fill="midnightblue" stroke="midnightblue" points="709.17,-161.3 716.43,-153.58 705.94,-155.08 709.17,-161.3"/>
</g>
<!-- Node13 -->
<g id="node14" class="node">
<title>Node13</title>
<g id="a_node14"><a xlink:href="fmt_8h.html" target="_top" xlink:title=" ">
<polygon fill="white" stroke="black" points="368,-129 368,-148 487,-148 487,-129 368,-129"/>
<text text-anchor="middle" x="427.5" y="-136" font-family="Helvetica,sans-Serif" font-size="10.00">drake/common/fmt.h</text>
</a>
</g>
</g>
<!-- Node9&#45;&gt;Node13 -->
<g id="edge18" class="edge">
<title>Node9&#45;&gt;Node13</title>
<path fill="none" stroke="midnightblue" d="M577.06,-190.4C542.65,-178.69 494.3,-162.23 461.98,-151.23"/>
<polygon fill="midnightblue" stroke="midnightblue" points="463.09,-147.92 452.5,-148.01 460.84,-154.54 463.09,-147.92"/>
</g>
<!-- Node13&#45;&gt;Node6 -->
<g id="edge19" class="edge">
<title>Node13&#45;&gt;Node6</title>
<path fill="none" stroke="midnightblue" d="M469.71,-128.95C480.09,-126.92 491.19,-124.82 501.5,-123 606.88,-104.39 732.34,-85.63 790.26,-77.16"/>
<polygon fill="midnightblue" stroke="midnightblue" points="790.88,-80.61 800.27,-75.7 789.87,-73.68 790.88,-80.61"/>
</g>
<!-- Node14 -->
<g id="node15" class="node">
<title>Node14</title>
<g id="a_node15"><a xlink:title=" ">
<polygon fill="white" stroke="#bfbfbf" points="372,-62 372,-81 445,-81 445,-62 372,-62"/>
<text text-anchor="middle" x="408.5" y="-69" font-family="Helvetica,sans-Serif" font-size="10.00">string_view</text>
</a>
</g>
</g>
<!-- Node13&#45;&gt;Node14 -->
<g id="edge20" class="edge">
<title>Node13&#45;&gt;Node14</title>
<path fill="none" stroke="midnightblue" d="M424.94,-128.73C422.12,-119.09 417.5,-103.3 413.88,-90.91"/>
<polygon fill="midnightblue" stroke="midnightblue" points="417.19,-89.74 411.02,-81.13 410.47,-91.71 417.19,-89.74"/>
</g>
<!-- Node15 -->
<g id="node16" class="node">
<title>Node15</title>
<g id="a_node16"><a xlink:title=" ">
<polygon fill="white" stroke="#bfbfbf" points="463,-62 463,-81 542,-81 542,-62 463,-62"/>
<text text-anchor="middle" x="502.5" y="-69" font-family="Helvetica,sans-Serif" font-size="10.00">fmt/format.h</text>
</a>
</g>
</g>
<!-- Node13&#45;&gt;Node15 -->
<g id="edge21" class="edge">
<title>Node13&#45;&gt;Node15</title>
<path fill="none" stroke="midnightblue" d="M437.61,-128.73C449.65,-118.31 469.95,-100.71 484.65,-87.97"/>
<polygon fill="midnightblue" stroke="midnightblue" points="487.28,-90.32 492.55,-81.13 482.7,-85.03 487.28,-90.32"/>
</g>
<!-- Node17&#45;&gt;Node2 -->
<g id="edge35" class="edge">
<title>Node17&#45;&gt;Node2</title>
<path fill="none" stroke="midnightblue" d="M1274.69,-195.79C1269.39,-185.91 1260.91,-169.18 1255.5,-154 1248.76,-135.09 1243.48,-112.92 1240.04,-96.48"/>
<polygon fill="midnightblue" stroke="midnightblue" points="1243.46,-95.71 1238.05,-86.6 1236.6,-97.09 1243.46,-95.71"/>
</g>
<!-- Node17&#45;&gt;Node3 -->
<g id="edge32" class="edge">
<title>Node17&#45;&gt;Node3</title>
<path fill="none" stroke="midnightblue" d="M1342.09,-201.94C1458.65,-196.51 1699.48,-182.02 1724.5,-154 1839.09,-25.67 1458.68,-11.82 1324.56,-10.85"/>
<polygon fill="midnightblue" stroke="midnightblue" points="1324.23,-7.35 1314.22,-10.8 1324.2,-14.35 1324.23,-7.35"/>
</g>
<!-- Node17&#45;&gt;Node6 -->
<g id="edge31" class="edge">
<title>Node17&#45;&gt;Node6</title>
<path fill="none" stroke="midnightblue" d="M1257.83,-195.98C1206.11,-175.65 1079.04,-125.81 1069.5,-123 993.76,-100.73 902.14,-84.78 854.61,-77.29"/>
<polygon fill="midnightblue" stroke="midnightblue" points="855.03,-73.81 844.61,-75.74 853.96,-80.73 855.03,-73.81"/>
</g>
<!-- Node17&#45;&gt;Node8 -->
<g id="edge33" class="edge">
<title>Node17&#45;&gt;Node8</title>
<path fill="none" stroke="midnightblue" d="M1231.12,-195.98C1187.22,-187.57 1121.07,-173.19 1065.5,-154 1034.49,-143.29 1030.33,-130.96 998.5,-123 723.83,-54.34 642.23,-130.7 362.5,-87 354.77,-85.79 346.56,-83.98 338.88,-82.04"/>
<polygon fill="midnightblue" stroke="midnightblue" points="339.74,-78.64 329.17,-79.45 337.94,-85.41 339.74,-78.64"/>
</g>
<!-- Node17&#45;&gt;Node10 -->
<g id="edge25" class="edge">
<title>Node17&#45;&gt;Node10</title>
<path fill="none" stroke="midnightblue" d="M1217.22,-196C1160.86,-187.62 1075.87,-173.29 1003.5,-154 1000.53,-153.21 997.47,-152.3 994.42,-151.34"/>
<polygon fill="midnightblue" stroke="midnightblue" points="995.45,-147.99 984.85,-148.13 993.22,-154.63 995.45,-147.99"/>
</g>
<!-- Node18 -->
<g id="node19" class="node">
<title>Node18</title>
<g id="a_node19"><a xlink:title=" ">
<polygon fill="white" stroke="#bfbfbf" points="1160,-129 1160,-148 1207,-148 1207,-129 1160,-129"/>
<text text-anchor="middle" x="1183.5" y="-136" font-family="Helvetica,sans-Serif" font-size="10.00">cmath</text>
</a>
</g>
</g>
<!-- Node17&#45;&gt;Node18 -->
<g id="edge24" class="edge">
<title>Node17&#45;&gt;Node18</title>
<path fill="none" stroke="midnightblue" d="M1266.55,-195.73C1250.65,-184.96 1223.45,-166.55 1204.53,-153.74"/>
<polygon fill="midnightblue" stroke="midnightblue" points="1206.48,-150.84 1196.24,-148.13 1202.56,-156.63 1206.48,-150.84"/>
</g>
<!-- Node19 -->
<g id="node20" class="node">
<title>Node19</title>
<g id="a_node20"><a xlink:title=" ">
<polygon fill="white" stroke="#bfbfbf" points="1401.5,-129 1401.5,-148 1451.5,-148 1451.5,-129 1401.5,-129"/>
<text text-anchor="middle" x="1426.5" y="-136" font-family="Helvetica,sans-Serif" font-size="10.00">cstdint</text>
</a>
</g>
</g>
<!-- Node17&#45;&gt;Node19 -->
<g id="edge26" class="edge">
<title>Node17&#45;&gt;Node19</title>
<path fill="none" stroke="midnightblue" d="M1299.02,-195.87C1324.28,-184.7 1368.5,-165.15 1397.64,-152.26"/>
<polygon fill="midnightblue" stroke="midnightblue" points="1399.17,-155.41 1406.9,-148.17 1396.34,-149.01 1399.17,-155.41"/>
</g>
<!-- Node20 -->
<g id="node21" class="node">
<title>Node20</title>
<g id="a_node21"><a xlink:title=" ">
<polygon fill="white" stroke="#bfbfbf" points="1470,-129 1470,-148 1535,-148 1535,-129 1470,-129"/>
<text text-anchor="middle" x="1502.5" y="-136" font-family="Helvetica,sans-Serif" font-size="10.00">functional</text>
</a>
</g>
</g>
<!-- Node17&#45;&gt;Node20 -->
<g id="edge27" class="edge">
<title>Node17&#45;&gt;Node20</title>
<path fill="none" stroke="midnightblue" d="M1312.37,-195.97C1348.77,-186.37 1409.11,-170.02 1460.5,-154 1463.26,-153.14 1466.12,-152.22 1468.98,-151.28"/>
<polygon fill="midnightblue" stroke="midnightblue" points="1470.24,-154.54 1478.6,-148.03 1468,-147.91 1470.24,-154.54"/>
</g>
<!-- Node21 -->
<g id="node22" class="node">
<title>Node21</title>
<g id="a_node22"><a xlink:title=" ">
<polygon fill="white" stroke="#bfbfbf" points="1553.5,-129 1553.5,-148 1591.5,-148 1591.5,-129 1553.5,-129"/>
<text text-anchor="middle" x="1572.5" y="-136" font-family="Helvetica,sans-Serif" font-size="10.00">map</text>
</a>
</g>
</g>
<!-- Node17&#45;&gt;Node21 -->
<g id="edge28" class="edge">
<title>Node17&#45;&gt;Node21</title>
<path fill="none" stroke="midnightblue" d="M1342.13,-197.76C1396.68,-190.67 1477.33,-177.24 1544.5,-154 1545.92,-153.51 1547.36,-152.95 1548.8,-152.36"/>
<polygon fill="midnightblue" stroke="midnightblue" points="1550.48,-155.43 1558.03,-148 1547.5,-149.1 1550.48,-155.43"/>
</g>
<!-- Node22 -->
<g id="node23" class="node">
<title>Node22</title>
<g id="a_node23"><a xlink:title=" ">
<polygon fill="white" stroke="#bfbfbf" points="1609.5,-129 1609.5,-148 1665.5,-148 1665.5,-129 1609.5,-129"/>
<text text-anchor="middle" x="1637.5" y="-136" font-family="Helvetica,sans-Serif" font-size="10.00">optional</text>
</a>
</g>
</g>
<!-- Node17&#45;&gt;Node22 -->
<g id="edge29" class="edge">
<title>Node17&#45;&gt;Node22</title>
<path fill="none" stroke="midnightblue" d="M1342.18,-198.72C1407.5,-191.74 1512.43,-177.88 1600.5,-154 1603.09,-153.3 1605.76,-152.47 1608.41,-151.58"/>
<polygon fill="midnightblue" stroke="midnightblue" points="1609.61,-154.86 1617.8,-148.14 1607.2,-148.29 1609.61,-154.86"/>
</g>
<!-- Node23 -->
<g id="node24" class="node">
<title>Node23</title>
<g id="a_node24"><a xlink:title=" ">
<polygon fill="white" stroke="#bfbfbf" points="1683.5,-129 1683.5,-148 1715.5,-148 1715.5,-129 1683.5,-129"/>
<text text-anchor="middle" x="1699.5" y="-136" font-family="Helvetica,sans-Serif" font-size="10.00">set</text>
</a>
</g>
</g>
<!-- Node17&#45;&gt;Node23 -->
<g id="edge30" class="edge">
<title>Node17&#45;&gt;Node23</title>
<path fill="none" stroke="midnightblue" d="M1342.1,-204.09C1421.46,-201.87 1561.54,-192.23 1674.5,-154 1675.57,-153.64 1676.64,-153.23 1677.71,-152.78"/>
<polygon fill="midnightblue" stroke="midnightblue" points="1679.67,-155.71 1686.99,-148.06 1676.49,-149.47 1679.67,-155.71"/>
</g>
<!-- Node24 -->
<g id="node25" class="node">
<title>Node24</title>
<g id="a_node25"><a xlink:title=" ">
<polygon fill="white" stroke="#bfbfbf" points="619,-129 619,-148 666,-148 666,-129 619,-129"/>
<text text-anchor="middle" x="642.5" y="-136" font-family="Helvetica,sans-Serif" font-size="10.00">vector</text>
</a>
</g>
</g>
<!-- Node17&#45;&gt;Node24 -->
<g id="edge34" class="edge">
<title>Node17&#45;&gt;Node24</title>
<path fill="none" stroke="midnightblue" d="M1216.98,-200.49C1072.92,-191.09 726.01,-167.39 674.5,-154 672.34,-153.44 670.15,-152.74 667.97,-151.96"/>
<polygon fill="midnightblue" stroke="midnightblue" points="669.29,-148.72 658.71,-148.14 666.62,-155.19 669.29,-148.72"/>
</g>
<!-- Node25 -->
<g id="node26" class="node">
<title>Node25</title>
<g id="a_node26"><a xlink:href="drake__throw_8h.html" target="_top" xlink:title="Provides a convenient wrapper to throw an exception when a condition is unmet.">
<polygon fill="white" stroke="black" points="1264,-123.5 1264,-153.5 1383,-153.5 1383,-123.5 1264,-123.5"/>
<text text-anchor="start" x="1272" y="-141.5" font-family="Helvetica,sans-Serif" font-size="10.00">drake/common/drake</text>
<text text-anchor="middle" x="1323.5" y="-130.5" font-family="Helvetica,sans-Serif" font-size="10.00">_throw.h</text>
</a>
</g>
</g>
<!-- Node17&#45;&gt;Node25 -->
<g id="edge36" class="edge">
<title>Node17&#45;&gt;Node25</title>
<path fill="none" stroke="midnightblue" d="M1285.43,-195.73C1291.27,-187.12 1300.41,-173.61 1308.27,-161.99"/>
<polygon fill="midnightblue" stroke="midnightblue" points="1311.26,-163.83 1313.96,-153.59 1305.46,-159.91 1311.26,-163.83"/>
</g>
<!-- Node25&#45;&gt;Node2 -->
<g id="edge38" class="edge">
<title>Node25&#45;&gt;Node2</title>
<path fill="none" stroke="midnightblue" d="M1304.41,-123.4C1292.18,-114.37 1276.13,-102.51 1262.6,-92.52"/>
<polygon fill="midnightblue" stroke="midnightblue" points="1264.68,-89.7 1254.56,-86.58 1260.52,-95.33 1264.68,-89.7"/>
</g>
<!-- Node25&#45;&gt;Node3 -->
<g id="edge37" class="edge">
<title>Node25&#45;&gt;Node3</title>
<path fill="none" stroke="midnightblue" d="M1321.42,-123.3C1318.72,-106.76 1313.28,-78.77 1304.5,-56 1300.8,-46.41 1295.38,-36.36 1290.53,-28.19"/>
<polygon fill="midnightblue" stroke="midnightblue" points="1293.47,-26.28 1285.24,-19.61 1287.51,-29.96 1293.47,-26.28"/>
</g>
<!-- Node26&#45;&gt;Node1 -->
<g id="edge40" class="edge">
<title>Node26&#45;&gt;Node1</title>
<path fill="none" stroke="midnightblue" d="M905.8,-195.73C902.83,-186.09 897.98,-170.3 894.16,-157.91"/>
<polygon fill="midnightblue" stroke="midnightblue" points="897.44,-156.66 891.15,-148.13 890.75,-158.71 897.44,-156.66"/>
</g>
<!-- Node26&#45;&gt;Node3 -->
<g id="edge41" class="edge">
<title>Node26&#45;&gt;Node3</title>
<path fill="none" stroke="midnightblue" d="M923.82,-195.99C941.77,-186 972.35,-168.91 998.5,-154 1073.92,-110.98 1089.46,-94.06 1167.5,-56 1193.26,-43.44 1223.46,-31.45 1246.01,-23.02"/>
<polygon fill="midnightblue" stroke="midnightblue" points="1247.31,-26.27 1255.47,-19.51 1244.88,-19.7 1247.31,-26.27"/>
</g>
<!-- Node27&#45;&gt;Node1 -->
<g id="edge43" class="edge">
<title>Node27&#45;&gt;Node1</title>
<path fill="none" stroke="midnightblue" d="M531.68,-191.43C534.66,-190.94 537.61,-190.46 540.5,-190 660.51,-171.03 691.53,-173.25 811.5,-154 823.88,-152.01 837.33,-149.58 849.47,-147.27"/>
<polygon fill="midnightblue" stroke="midnightblue" points="850.15,-150.71 859.31,-145.38 848.83,-143.83 850.15,-150.71"/>
</g>
<!-- Node27&#45;&gt;Node6 -->
<g id="edge44" class="edge">
<title>Node27&#45;&gt;Node6</title>
<path fill="none" stroke="midnightblue" d="M469.87,-190.35C481.73,-171.67 505.27,-139.23 534.5,-123 578.11,-98.78 724.54,-81.98 790.18,-75.49"/>
<polygon fill="midnightblue" stroke="midnightblue" points="790.75,-78.95 800.36,-74.5 790.07,-71.98 790.75,-78.95"/>
</g>
<!-- Node27&#45;&gt;Node7 -->
<g id="edge45" class="edge">
<title>Node27&#45;&gt;Node7</title>
<path fill="none" stroke="midnightblue" d="M391.37,-197.54C326.56,-190.12 227.95,-176.31 144.5,-154 141.84,-153.29 139.11,-152.46 136.39,-151.56"/>
<polygon fill="midnightblue" stroke="midnightblue" points="137.35,-148.19 126.75,-148.12 134.99,-154.78 137.35,-148.19"/>
</g>
<!-- Node27&#45;&gt;Node8 -->
<g id="edge46" class="edge">
<title>Node27&#45;&gt;Node8</title>
<path fill="none" stroke="midnightblue" d="M391.15,-192.48C367.28,-185.09 342.4,-173.18 325.5,-154 310.3,-136.75 306.63,-109.68 306.05,-91.53"/>
<polygon fill="midnightblue" stroke="midnightblue" points="309.55,-91.3 306.01,-81.31 302.55,-91.32 309.55,-91.3"/>
</g>
<!-- Node27&#45;&gt;Node24 -->
<g id="edge47" class="edge">
<title>Node27&#45;&gt;Node24</title>
<path fill="none" stroke="midnightblue" d="M505.89,-190.45C535.48,-180.82 575.09,-167.4 609.5,-154 611.1,-153.38 612.74,-152.72 614.39,-152.04"/>
<polygon fill="midnightblue" stroke="midnightblue" points="615.93,-155.19 623.77,-148.06 613.2,-148.75 615.93,-155.19"/>
</g>
<!-- Node28 -->
<g id="node29" class="node">
<title>Node28</title>
<g id="a_node29"><a xlink:href="never__destroyed_8h.html" target="_top" xlink:title=" ">
<polygon fill="white" stroke="black" points="153.5,-123.5 153.5,-153.5 273.5,-153.5 273.5,-123.5 153.5,-123.5"/>
<text text-anchor="start" x="161.5" y="-141.5" font-family="Helvetica,sans-Serif" font-size="10.00">drake/common/never</text>
<text text-anchor="middle" x="213.5" y="-130.5" font-family="Helvetica,sans-Serif" font-size="10.00">_destroyed.h</text>
</a>
</g>
</g>
<!-- Node27&#45;&gt;Node28 -->
<g id="edge48" class="edge">
<title>Node27&#45;&gt;Node28</title>
<path fill="none" stroke="midnightblue" d="M407.99,-190.48C369.58,-180.41 317.66,-166.8 277.12,-156.17"/>
<polygon fill="midnightblue" stroke="midnightblue" points="277.9,-152.76 267.34,-153.61 276.12,-159.53 277.9,-152.76"/>
</g>
<!-- Node28&#45;&gt;Node3 -->
<g id="edge50" class="edge">
<title>Node28&#45;&gt;Node3</title>
<path fill="none" stroke="midnightblue" d="M219.44,-123.18C228.27,-103.99 246.85,-70.63 274.5,-56 360.07,-10.74 1051.14,-10.12 1234.81,-10.77"/>
<polygon fill="midnightblue" stroke="midnightblue" points="1234.91,-14.27 1244.92,-10.81 1234.94,-7.27 1234.91,-14.27"/>
</g>
<!-- Node28&#45;&gt;Node8 -->
<g id="edge51" class="edge">
<title>Node28&#45;&gt;Node8</title>
<path fill="none" stroke="midnightblue" d="M233.68,-123.4C249.13,-112.6 270.36,-97.76 285.92,-86.89"/>
<polygon fill="midnightblue" stroke="midnightblue" points="288.14,-89.6 294.33,-81.01 284.13,-83.87 288.14,-89.6"/>
</g>
<!-- Node28&#45;&gt;Node16 -->
<g id="edge52" class="edge">
<title>Node28&#45;&gt;Node16</title>
<path fill="none" stroke="midnightblue" d="M180.08,-123.4C157.28,-113.77 126.87,-100.94 102.3,-90.56"/>
<polygon fill="midnightblue" stroke="midnightblue" points="103.42,-87.24 92.85,-86.58 100.7,-93.69 103.42,-87.24"/>
</g>
<!-- Node29 -->
<g id="node30" class="node">
<title>Node29</title>
<g id="a_node30"><a xlink:title=" ">
<polygon fill="white" stroke="#bfbfbf" points="190,-62 190,-81 227,-81 227,-62 190,-62"/>
<text text-anchor="middle" x="208.5" y="-69" font-family="Helvetica,sans-Serif" font-size="10.00">new</text>
</a>
</g>
</g>
<!-- Node28&#45;&gt;Node29 -->
<g id="edge49" class="edge">
<title>Node28&#45;&gt;Node29</title>
<path fill="none" stroke="midnightblue" d="M212.42,-123.4C211.69,-113.96 210.73,-101.45 209.94,-91.19"/>
<polygon fill="midnightblue" stroke="midnightblue" points="213.43,-90.9 209.17,-81.19 206.45,-91.43 213.43,-90.9"/>
</g>
</g>
</svg>
        <g id="navigator" transform="translate(0 0)" fill="#404254">
                <rect fill="#f2f5e9" fill-opacity="0.5" stroke="#606060" stroke-width=".5" x="0" y="0" width="60" height="60"/>
                <use id="zoomplus" xlink:href="#zoomPlus" x="17" y="9" onmousedown="handleZoom(evt,'in')"/>
                <use id="zoomminus" xlink:href="#zoomMin" x="42" y="9" onmousedown="handleZoom(evt,'out')"/>
                <use id="reset" xlink:href="#resetDef" x="30" y="36" onmousedown="handleReset()"/>
                <g id="arrowUp" xlink:href="#dirArrow" transform="translate(30 24)" onmousedown="handlePan(0,-1)">
                  <use xlink:href="#rim" fill="#404040">
                        <set attributeName="fill" to="#808080" begin="arrowUp.mouseover" end="arrowUp.mouseout"/>
                  </use>
                  <path fill="none" stroke="white" stroke-width="1.5" d="M0,-3.0v7 M-2.5,-0.5L0,-3.0L2.5,-0.5"/>
                </g>
                <g id="arrowRight" xlink:href="#dirArrow" transform="rotate(90) translate(36 -43)" onmousedown="handlePan(1,0)">
                  <use xlink:href="#rim" fill="#404040">
                        <set attributeName="fill" to="#808080" begin="arrowRight.mouseover" end="arrowRight.mouseout"/>
                  </use>
                  <path fill="none" stroke="white" stroke-width="1.5" d="M0,-3.0v7 M-2.5,-0.5L0,-3.0L2.5,-0.5"/>
                </g>
                <g id="arrowDown" xlink:href="#dirArrow" transform="rotate(180) translate(-30 -48)" onmousedown="handlePan(0,1)">
                  <use xlink:href="#rim" fill="#404040">
                        <set attributeName="fill" to="#808080" begin="arrowDown.mouseover" end="arrowDown.mouseout"/>
                  </use>
                  <path fill="none" stroke="white" stroke-width="1.5" d="M0,-3.0v7 M-2.5,-0.5L0,-3.0L2.5,-0.5"/>
                </g>
                <g id="arrowLeft" xlink:href="#dirArrow" transform="rotate(270) translate(-36 17)" onmousedown="handlePan(-1,0)">
                  <use xlink:href="#rim" fill="#404040">
                        <set attributeName="fill" to="#808080" begin="arrowLeft.mouseover" end="arrowLeft.mouseout"/>
                  </use>
                  <path fill="none" stroke="white" stroke-width="1.5" d="M0,-3.0v7 M-2.5,-0.5L0,-3.0L2.5,-0.5"/>
                </g>
        </g>
        <svg viewBox="0 0 15 15" width="100%" height="30px" preserveAspectRatio="xMaxYMin meet">
         <g id="arrow_out" transform="scale(0.3 0.3)">
          <a xlink:href="pack__value_8h__incl_org.svg" target="_base">
           <rect id="button" ry="5" rx="5" y="6" x="6" height="38" width="38"
                fill="#f2f5e9" fill-opacity="0.5" stroke="#606060" stroke-width="1.0"/>
           <path id="arrow"
             d="M 11.500037,31.436501 C 11.940474,20.09759 22.043105,11.32322 32.158766,21.979434 L 37.068811,17.246167 C 37.068811,17.246167 37.088388,32 37.088388,32 L 22.160133,31.978069 C 22.160133,31.978069 26.997745,27.140456 26.997745,27.140456 C 18.528582,18.264221 13.291696,25.230495 11.500037,31.436501 z"
             style="fill:#404040;"/>
          </a>
         </g>
        </svg>
</svg>
