<?xml version="1.0" encoding="UTF-8" standalone="no"?>
<!DOCTYPE svg PUBLIC "-//W3C//DTD SVG 1.1//EN"
 "http://www.w3.org/Graphics/SVG/1.1/DTD/svg11.dtd">
<!-- Generated by graphviz version 2.43.0 (0)
 -->
<!-- Title: drake/common/ad/internal/partials.h Pages: 1 -->
<!--zoomable 411 -->

<svg id="main" version="1.1" xmlns="http://www.w3.org/2000/svg" xmlns:xlink="http://www.w3.org/1999/xlink" xml:space="preserve" onload="init(evt)">

<style type="text/css"><![CDATA[
.node, .edge {opacity: 0.7;}
.node.selected, .edge.selected {opacity: 1;}
.edge:hover path { stroke: red; }
.edge:hover polygon { stroke: red; fill: red; }
]]></style>

<defs>
  <circle id="rim" cx="0" cy="0" r="7"/>
  <circle id="rim2" cx="0" cy="0" r="3.5"/>
  <g id="zoomPlus">
    <use xlink:href="#rim" fill="#404040"><set attributeName="fill" to="#808080" begin="zoomplus.mouseover" end="zoomplus.mouseout"/></use>
    <path d="M-4,0h8M0,-4v8" fill="none" stroke="white" stroke-width="1.5" pointer-events="none"/>
  </g>
  <g id="zoomMin">
    <use xlink:href="#rim" fill="#404040"><set attributeName="fill" to="#808080" begin="zoomminus.mouseover" end="zoomminus.mouseout"/></use>
    <path d="M-4,0h8" fill="none" stroke="white" stroke-width="1.5" pointer-events="none"/>
  </g>
  <g id="arrowUp" transform="translate(30 24)">
    <use xlink:href="#rim"/>
    <path pointer-events="none" fill="none" stroke="white" stroke-width="1.5" d="M0,-3.0v7 M-2.5,-0.5L0,-3.0L2.5,-0.5"/>
  </g>
  <g id="arrowRight" transform="rotate(90) translate(36 -43)">
    <use xlink:href="#rim"/>
    <path pointer-events="none" fill="none" stroke="white" stroke-width="1.5" d="M0,-3.0v7 M-2.5,-0.5L0,-3.0L2.5,-0.5"/>
  </g>
  <g id="arrowDown" transform="rotate(180) translate(-30 -48)">
    <use xlink:href="#rim"/>
    <path pointer-events="none" fill="none" stroke="white" stroke-width="1.5" d="M0,-3.0v7 M-2.5,-0.5L0,-3.0L2.5,-0.5"/>
  </g>
  <g id="arrowLeft" transform="rotate(270) translate(-36 17)">
    <use xlink:href="#rim"/>
    <path pointer-events="none" fill="none" stroke="white" stroke-width="1.5" d="M0,-3.0v7 M-2.5,-0.5L0,-3.0L2.5,-0.5"/>
  </g>
  <g id="resetDef">
    <use xlink:href="#rim2" fill="#404040"><set attributeName="fill" to="#808080" begin="reset.mouseover" end="reset.mouseout"/></use>
  </g>
</defs>
<script type="application/ecmascript">
var viewWidth = 1062;
var viewHeight = 411;
var sectionId = 'dynsection-0';
</script>
<script type="application/ecmascript" xlink:href="svg.min.js"/>
<svg id="graph" class="graph">
<g id="viewport">
<title>drake/common/ad/internal/partials.h</title>
<!-- Node1 -->
<g id="Node000001" class="node">
<title>Node1</title>
<g id="a_Node000001"><a xlink:title=" ">
<ellipse fill="#999999" stroke="#666666" cx="714.99" cy="-382.23" rx="102.56" ry="21.43"/>
<text text-anchor="start" x="650.49" y="-385.23" font-family="Helvetica,sans-Serif" font-size="10.00">drake/common/ad/internal</text>
<text text-anchor="middle" x="714.99" y="-374.23" font-family="Helvetica,sans-Serif" font-size="10.00">/partials.h</text>
</a>
</g>
</g>
<!-- Node2 -->
<g id="Node000002" class="node">
<title>Node2</title>
<g id="a_Node000002"><a xlink:href="derivatives__xpr_8h.html" target="_top" xlink:title=" ">
<ellipse fill="white" stroke="#666666" cx="714.99" cy="-303.81" rx="102.56" ry="21.43"/>
<text text-anchor="start" x="650.49" y="-306.81" font-family="Helvetica,sans-Serif" font-size="10.00">drake/common/ad/internal</text>
<text text-anchor="middle" x="714.99" y="-295.81" font-family="Helvetica,sans-Serif" font-size="10.00">/derivatives_xpr.h</text>
</a>
</g>
</g>
<!-- Node1&#45;&gt;Node2 -->
<g id="edge1_Node000001_Node000002" class="edge">
<title>Node1&#45;&gt;Node2</title>
<g id="a_edge1_Node000001_Node000002"><a xlink:title=" ">
<path fill="none" stroke="#63b8ff" d="M714.99,-360.75C714.99,-352.89 714.99,-343.75 714.99,-335.16"/>
<polygon fill="#63b8ff" stroke="#63b8ff" points="718.49,-335.08 714.99,-325.08 711.49,-335.08 718.49,-335.08"/>
</a>
</g>
</g>
<!-- Node3 -->
<g id="Node000003" class="node">
<title>Node3</title>
<g id="a_Node000003"><a xlink:href="eigen__types_8h.html" target="_top" xlink:title="This file contains abbreviated definitions for certain specializations of Eigen::Matrix that are comm...">
<ellipse fill="white" stroke="#666666" cx="583.99" cy="-225.38" rx="84.29" ry="21.43"/>
<text text-anchor="start" x="532.49" y="-228.38" font-family="Helvetica,sans-Serif" font-size="10.00">drake/common/eigen</text>
<text text-anchor="middle" x="583.99" y="-217.38" font-family="Helvetica,sans-Serif" font-size="10.00">_types.h</text>
</a>
</g>
</g>
<!-- Node1&#45;&gt;Node3 -->
<g id="edge23_Node000001_Node000003" class="edge">
<title>Node1&#45;&gt;Node3</title>
<g id="a_edge23_Node000001_Node000003"><a xlink:title=" ">
<path fill="none" stroke="#63b8ff" d="M658.16,-364.52C637.9,-355.84 616.71,-343.15 602.99,-325.02 588.22,-305.51 583.94,-277.76 583.08,-256.66"/>
<polygon fill="#63b8ff" stroke="#63b8ff" points="586.58,-256.54 582.9,-246.61 579.58,-256.67 586.58,-256.54"/>
</a>
</g>
</g>
<!-- Node12 -->
<g id="Node000012" class="node">
<title>Node12</title>
<g id="a_Node000012"><a xlink:href="drake__copyable_8h.html" target="_top" xlink:title="Provides careful macros to selectively enable or disable the special member functions for copy&#45;constr...">
<ellipse fill="white" stroke="#666666" cx="969.99" cy="-146.95" rx="84.29" ry="21.43"/>
<text text-anchor="start" x="918.49" y="-149.95" font-family="Helvetica,sans-Serif" font-size="10.00">drake/common/drake</text>
<text text-anchor="middle" x="969.99" y="-138.95" font-family="Helvetica,sans-Serif" font-size="10.00">_copyable.h</text>
</a>
</g>
</g>
<!-- Node1&#45;&gt;Node12 -->
<g id="edge22_Node000001_Node000012" class="edge">
<title>Node1&#45;&gt;Node12</title>
<g id="a_edge22_Node000001_Node000012"><a xlink:title=" ">
<path fill="none" stroke="#63b8ff" d="M761.49,-363.27C782.72,-353.77 807.43,-340.79 826.99,-325.02 880.97,-281.52 928.12,-214.49 952.45,-176.6"/>
<polygon fill="#63b8ff" stroke="#63b8ff" points="955.46,-178.4 957.86,-168.08 949.55,-174.65 955.46,-178.4"/>
</a>
</g>
</g>
<!-- Node2&#45;&gt;Node3 -->
<g id="edge2_Node000002_Node000003" class="edge">
<title>Node2&#45;&gt;Node3</title>
<g id="a_edge2_Node000002_Node000003"><a xlink:title=" ">
<path fill="none" stroke="#63b8ff" d="M681.93,-283.52C664.61,-273.41 643.23,-260.94 624.87,-250.23"/>
<polygon fill="#63b8ff" stroke="#63b8ff" points="626.53,-247.15 616.13,-245.13 623.01,-253.19 626.53,-247.15"/>
</a>
</g>
</g>
<!-- Node4 -->
<g id="Node000004" class="node">
<title>Node4</title>
<g id="a_Node000004"><a xlink:title=" ">
<ellipse fill="#e0e0e0" stroke="#999999" cx="261.99" cy="-76.31" rx="31.64" ry="13.37"/>
<text text-anchor="middle" x="261.99" y="-73.81" font-family="Helvetica,sans-Serif" font-size="10.00">utility</text>
</a>
</g>
</g>
<!-- Node3&#45;&gt;Node4 -->
<g id="edge3_Node000003_Node000004" class="edge">
<title>Node3&#45;&gt;Node4</title>
<g id="a_edge3_Node000003_Node000004"><a xlink:title=" ">
<path fill="none" stroke="#63b8ff" d="M504.42,-218.46C428.1,-211.2 320.03,-196.23 288.99,-168.17 269.95,-150.95 264.09,-120.99 262.42,-100.2"/>
<polygon fill="#63b8ff" stroke="#63b8ff" points="265.9,-99.8 261.87,-90 258.91,-100.18 265.9,-99.8"/>
</a>
</g>
</g>
<!-- Node5 -->
<g id="Node000005" class="node">
<title>Node5</title>
<g id="a_Node000005"><a xlink:title=" ">
<ellipse fill="#e0e0e0" stroke="#999999" cx="583.99" cy="-146.95" rx="54.39" ry="13.37"/>
<text text-anchor="middle" x="583.99" y="-144.45" font-family="Helvetica,sans-Serif" font-size="10.00">Eigen/Dense</text>
</a>
</g>
</g>
<!-- Node3&#45;&gt;Node5 -->
<g id="edge4_Node000003_Node000005" class="edge">
<title>Node3&#45;&gt;Node5</title>
<g id="a_edge4_Node000003_Node000005"><a xlink:title=" ">
<path fill="none" stroke="#63b8ff" d="M583.99,-203.9C583.99,-193.66 583.99,-181.24 583.99,-170.7"/>
<polygon fill="#63b8ff" stroke="#63b8ff" points="587.49,-170.58 583.99,-160.58 580.49,-170.58 587.49,-170.58"/>
</a>
</g>
</g>
<!-- Node6 -->
<g id="Node000006" class="node">
<title>Node6</title>
<g id="a_Node000006"><a xlink:href="constants_8h.html" target="_top" xlink:title=" ">
<ellipse fill="white" stroke="#666666" cx="761.99" cy="-146.95" rx="105.22" ry="13.37"/>
<text text-anchor="middle" x="761.99" y="-144.45" font-family="Helvetica,sans-Serif" font-size="10.00">drake/common/constants.h</text>
</a>
</g>
</g>
<!-- Node3&#45;&gt;Node6 -->
<g id="edge5_Node000003_Node000006" class="edge">
<title>Node3&#45;&gt;Node6</title>
<g id="a_edge5_Node000003_Node000006"><a xlink:title=" ">
<path fill="none" stroke="#63b8ff" d="M625.28,-206.65C655.26,-193.78 695.51,-176.5 724.57,-164.02"/>
<polygon fill="#63b8ff" stroke="#63b8ff" points="726.15,-167.15 733.96,-159.99 723.39,-160.72 726.15,-167.15"/>
</a>
</g>
</g>
<!-- Node7 -->
<g id="Node000007" class="node">
<title>Node7</title>
<g id="a_Node000007"><a xlink:href="drake__assert_8h.html" target="_top" xlink:title="Provides Drake&#39;s assertion mechanics.">
<ellipse fill="white" stroke="#666666" cx="157.99" cy="-146.95" rx="84.29" ry="21.43"/>
<text text-anchor="start" x="106.49" y="-149.95" font-family="Helvetica,sans-Serif" font-size="10.00">drake/common/drake</text>
<text text-anchor="middle" x="157.99" y="-138.95" font-family="Helvetica,sans-Serif" font-size="10.00">_assert.h</text>
</a>
</g>
</g>
<!-- Node3&#45;&gt;Node7 -->
<g id="edge6_Node000003_Node000007" class="edge">
<title>Node3&#45;&gt;Node7</title>
<g id="a_edge6_Node000003_Node000007"><a xlink:title=" ">
<path fill="none" stroke="#63b8ff" d="M514.76,-213.21C448.29,-202.32 345.12,-184.99 255.99,-168.17 247.77,-166.61 239.18,-164.93 230.64,-163.22"/>
<polygon fill="#63b8ff" stroke="#63b8ff" points="231.16,-159.76 220.67,-161.21 229.77,-166.62 231.16,-159.76"/>
</a>
</g>
</g>
<!-- Node3&#45;&gt;Node12 -->
<g id="edge12_Node000003_Node000012" class="edge">
<title>Node3&#45;&gt;Node12</title>
<g id="a_edge12_Node000003_Node000012"><a xlink:title=" ">
<path fill="none" stroke="#63b8ff" d="M649.88,-212.12C709.12,-200.99 798.47,-183.96 875.99,-168.17 883.27,-166.68 890.86,-165.11 898.43,-163.51"/>
<polygon fill="#63b8ff" stroke="#63b8ff" points="899.29,-166.91 908.34,-161.41 897.84,-160.06 899.29,-166.91"/>
</a>
</g>
</g>
<!-- Node13 -->
<g id="Node000013" class="node">
<title>Node13</title>
<g id="a_Node000013"><a xlink:href="fmt__eigen_8h.html" target="_top" xlink:title=" ">
<ellipse fill="white" stroke="#666666" cx="404.99" cy="-146.95" rx="106.55" ry="13.37"/>
<text text-anchor="middle" x="404.99" y="-144.45" font-family="Helvetica,sans-Serif" font-size="10.00">drake/common/fmt_eigen.h</text>
</a>
</g>
</g>
<!-- Node3&#45;&gt;Node13 -->
<g id="edge13_Node000003_Node000013" class="edge">
<title>Node3&#45;&gt;Node13</title>
<g id="a_edge13_Node000003_Node000013"><a xlink:title=" ">
<path fill="none" stroke="#63b8ff" d="M542.93,-206.85C512.69,-193.94 471.91,-176.53 442.54,-163.99"/>
<polygon fill="#63b8ff" stroke="#63b8ff" points="443.63,-160.64 433.05,-159.93 440.88,-167.08 443.63,-160.64"/>
</a>
</g>
</g>
<!-- Node7&#45;&gt;Node4 -->
<g id="edge11_Node000007_Node000004" class="edge">
<title>Node7&#45;&gt;Node4</title>
<g id="a_edge11_Node000007_Node000004"><a xlink:title=" ">
<path fill="none" stroke="#63b8ff" d="M186.96,-126.83C202.69,-116.45 221.94,-103.74 237,-93.8"/>
<polygon fill="#63b8ff" stroke="#63b8ff" points="239.36,-96.44 245.77,-88.01 235.5,-90.6 239.36,-96.44"/>
</a>
</g>
</g>
<!-- Node8 -->
<g id="Node000008" class="node">
<title>Node8</title>
<g id="a_Node000008"><a xlink:title=" ">
<ellipse fill="#e0e0e0" stroke="#999999" cx="105.99" cy="-76.31" rx="29.9" ry="13.37"/>
<text text-anchor="middle" x="105.99" y="-73.81" font-family="Helvetica,sans-Serif" font-size="10.00">array</text>
</a>
</g>
</g>
<!-- Node7&#45;&gt;Node8 -->
<g id="edge7_Node000007_Node000008" class="edge">
<title>Node7&#45;&gt;Node8</title>
<g id="a_edge7_Node000007_Node000008"><a xlink:title=" ">
<path fill="none" stroke="#63b8ff" d="M142.67,-125.73C135.86,-116.74 127.87,-106.18 121.08,-97.23"/>
<polygon fill="#63b8ff" stroke="#63b8ff" points="123.85,-95.09 115.03,-89.23 118.28,-99.32 123.85,-95.09"/>
</a>
</g>
</g>
<!-- Node9 -->
<g id="Node000009" class="node">
<title>Node9</title>
<g id="a_Node000009"><a xlink:title=" ">
<ellipse fill="#e0e0e0" stroke="#999999" cx="321.99" cy="-13.44" rx="31.23" ry="13.37"/>
<text text-anchor="middle" x="321.99" y="-10.94" font-family="Helvetica,sans-Serif" font-size="10.00">string</text>
</a>
</g>
</g>
<!-- Node7&#45;&gt;Node9 -->
<g id="edge8_Node000007_Node000009" class="edge">
<title>Node7&#45;&gt;Node9</title>
<g id="a_edge8_Node000007_Node000009"><a xlink:title=" ">
<path fill="none" stroke="#63b8ff" d="M169.52,-125.65C180.74,-107.33 199.26,-80.61 220.99,-62.87 241.15,-46.42 267.83,-33.93 288.7,-25.76"/>
<polygon fill="#63b8ff" stroke="#63b8ff" points="290.01,-29.01 298.14,-22.2 287.55,-22.46 290.01,-29.01"/>
</a>
</g>
</g>
<!-- Node10 -->
<g id="Node000010" class="node">
<title>Node10</title>
<g id="a_Node000010"><a xlink:title=" ">
<ellipse fill="#e0e0e0" stroke="#999999" cx="28.99" cy="-76.31" rx="28.98" ry="13.37"/>
<text text-anchor="middle" x="28.99" y="-73.81" font-family="Helvetica,sans-Serif" font-size="10.00">tuple</text>
</a>
</g>
</g>
<!-- Node7&#45;&gt;Node10 -->
<g id="edge9_Node000007_Node000010" class="edge">
<title>Node7&#45;&gt;Node10</title>
<g id="a_edge9_Node000007_Node000010"><a xlink:title=" ">
<path fill="none" stroke="#63b8ff" d="M123.42,-127.56C102.26,-116.29 75.57,-102.09 55.97,-91.66"/>
<polygon fill="#63b8ff" stroke="#63b8ff" points="57.44,-88.48 46.97,-86.87 54.15,-94.66 57.44,-88.48"/>
</a>
</g>
</g>
<!-- Node11 -->
<g id="Node000011" class="node">
<title>Node11</title>
<g id="a_Node000011"><a xlink:title=" ">
<ellipse fill="#e0e0e0" stroke="#999999" cx="193.99" cy="-13.44" rx="48.58" ry="13.37"/>
<text text-anchor="middle" x="193.99" y="-10.94" font-family="Helvetica,sans-Serif" font-size="10.00">type_traits</text>
</a>
</g>
</g>
<!-- Node7&#45;&gt;Node11 -->
<g id="edge10_Node000007_Node000011" class="edge">
<title>Node7&#45;&gt;Node11</title>
<g id="a_edge10_Node000007_Node000011"><a xlink:title=" ">
<path fill="none" stroke="#63b8ff" d="M163.54,-125.69C170.13,-101.61 181.09,-61.55 187.91,-36.64"/>
<polygon fill="#63b8ff" stroke="#63b8ff" points="191.29,-37.56 190.56,-26.99 184.54,-35.71 191.29,-37.56"/>
</a>
</g>
</g>
<!-- Node13&#45;&gt;Node9 -->
<g id="edge14_Node000013_Node000009" class="edge">
<title>Node13&#45;&gt;Node9</title>
<g id="a_edge14_Node000013_Node000009"><a xlink:title=" ">
<path fill="none" stroke="#63b8ff" d="M385.64,-133.73C371.22,-123.64 352.17,-108.04 340.99,-89.74 331.16,-73.66 326.4,-52.7 324.11,-36.97"/>
<polygon fill="#63b8ff" stroke="#63b8ff" points="327.58,-36.54 322.88,-27.05 320.63,-37.4 327.58,-36.54"/>
</a>
</g>
</g>
<!-- Node14 -->
<g id="Node000014" class="node">
<title>Node14</title>
<g id="a_Node000014"><a xlink:title=" ">
<ellipse fill="#e0e0e0" stroke="#999999" cx="661.99" cy="-13.44" rx="51.74" ry="13.37"/>
<text text-anchor="middle" x="661.99" y="-10.94" font-family="Helvetica,sans-Serif" font-size="10.00">string_view</text>
</a>
</g>
</g>
<!-- Node13&#45;&gt;Node14 -->
<g id="edge15_Node000013_Node000014" class="edge">
<title>Node13&#45;&gt;Node14</title>
<g id="a_edge15_Node000013_Node000014"><a xlink:title=" ">
<path fill="none" stroke="#63b8ff" d="M462.59,-135.58C528.81,-123.16 630.1,-102.44 642.99,-89.74 656.86,-76.08 661.13,-53.88 662.22,-37.11"/>
<polygon fill="#63b8ff" stroke="#63b8ff" points="665.72,-37.13 662.54,-27.02 658.72,-36.91 665.72,-37.13"/>
</a>
</g>
</g>
<!-- Node15 -->
<g id="Node000015" class="node">
<title>Node15</title>
<g id="a_Node000015"><a xlink:title=" ">
<ellipse fill="#e0e0e0" stroke="#999999" cx="398.99" cy="-76.31" rx="48.58" ry="13.37"/>
<text text-anchor="middle" x="398.99" y="-73.81" font-family="Helvetica,sans-Serif" font-size="10.00">Eigen/Core</text>
</a>
</g>
</g>
<!-- Node13&#45;&gt;Node15 -->
<g id="edge16_Node000013_Node000015" class="edge">
<title>Node13&#45;&gt;Node15</title>
<g id="a_edge16_Node000013_Node000015"><a xlink:title=" ">
<path fill="none" stroke="#63b8ff" d="M403.89,-133.36C403.08,-124.07 401.95,-111.17 400.98,-100.09"/>
<polygon fill="#63b8ff" stroke="#63b8ff" points="404.44,-99.47 400.08,-89.82 397.47,-100.08 404.44,-99.47"/>
</a>
</g>
</g>
<!-- Node16 -->
<g id="Node000016" class="node">
<title>Node16</title>
<g id="a_Node000016"><a xlink:href="fmt_8h.html" target="_top" xlink:title=" ">
<ellipse fill="white" stroke="#666666" cx="549.99" cy="-76.31" rx="84.29" ry="13.37"/>
<text text-anchor="middle" x="549.99" y="-73.81" font-family="Helvetica,sans-Serif" font-size="10.00">drake/common/fmt.h</text>
</a>
</g>
</g>
<!-- Node13&#45;&gt;Node16 -->
<g id="edge17_Node000013_Node000016" class="edge">
<title>Node13&#45;&gt;Node16</title>
<g id="a_edge17_Node000013_Node000016"><a xlink:title=" ">
<path fill="none" stroke="#63b8ff" d="M430.58,-133.84C454.19,-122.66 489.42,-105.98 515.5,-93.63"/>
<polygon fill="#63b8ff" stroke="#63b8ff" points="517.12,-96.74 524.66,-89.3 514.12,-90.41 517.12,-96.74"/>
</a>
</g>
</g>
<!-- Node16&#45;&gt;Node9 -->
<g id="edge18_Node000016_Node000009" class="edge">
<title>Node16&#45;&gt;Node9</title>
<g id="a_edge18_Node000016_Node000009"><a xlink:title=" ">
<path fill="none" stroke="#63b8ff" d="M509.49,-64.49C466.32,-52.97 398.62,-34.89 357.47,-23.91"/>
<polygon fill="#63b8ff" stroke="#63b8ff" points="358.17,-20.47 347.61,-21.27 356.37,-27.24 358.17,-20.47"/>
</a>
</g>
</g>
<!-- Node16&#45;&gt;Node11 -->
<g id="edge20_Node000016_Node000011" class="edge">
<title>Node16&#45;&gt;Node11</title>
<g id="a_edge20_Node000016_Node000011"><a xlink:title=" ">
<path fill="none" stroke="#63b8ff" d="M495.54,-65.99C427.03,-54.28 310.37,-34.33 244.02,-22.99"/>
<polygon fill="#63b8ff" stroke="#63b8ff" points="244.27,-19.48 233.82,-21.25 243.09,-26.38 244.27,-19.48"/>
</a>
</g>
</g>
<!-- Node16&#45;&gt;Node14 -->
<g id="edge19_Node000016_Node000014" class="edge">
<title>Node16&#45;&gt;Node14</title>
<g id="a_edge19_Node000016_Node000014"><a xlink:title=" ">
<path fill="none" stroke="#63b8ff" d="M572.12,-63.28C589.32,-53.93 613.36,-40.87 632.24,-30.6"/>
<polygon fill="#63b8ff" stroke="#63b8ff" points="633.93,-33.67 641.05,-25.82 630.59,-27.52 633.93,-33.67"/>
</a>
</g>
</g>
<!-- Node17 -->
<g id="Node000017" class="node">
<title>Node17</title>
<g id="a_Node000017"><a xlink:title=" ">
<ellipse fill="#e0e0e0" stroke="#999999" cx="536.99" cy="-13.44" rx="55.72" ry="13.37"/>
<text text-anchor="middle" x="536.99" y="-10.94" font-family="Helvetica,sans-Serif" font-size="10.00">fmt/format.h</text>
</a>
</g>
</g>
<!-- Node16&#45;&gt;Node17 -->
<g id="edge21_Node000016_Node000017" class="edge">
<title>Node16&#45;&gt;Node17</title>
<g id="a_edge21_Node000016_Node000017"><a xlink:title=" ">
<path fill="none" stroke="#63b8ff" d="M547.3,-62.69C545.71,-55.27 543.66,-45.65 541.8,-36.96"/>
<polygon fill="#63b8ff" stroke="#63b8ff" points="545.19,-36.08 539.68,-27.03 538.35,-37.54 545.19,-36.08"/>
</a>
</g>
</g>
</g>
</svg>

<g id="navigator" transform="translate(0 0)" fill="#404254">
  <rect fill="#f2f5e9" fill-opacity="0.5" stroke="#606060" stroke-width=".5" x="0" y="0" width="60" height="60"/>
  <use id="zoomplus" xlink:href="#zoomPlus" x="17" y="9" onmousedown="handleZoom(evt,'in')"/>
  <use id="zoomminus" xlink:href="#zoomMin" x="42" y="9" onmousedown="handleZoom(evt,'out')"/>
  <use id="reset" xlink:href="#resetDef" x="30" y="36" onmousedown="handleReset()"/>
   <use id="arrowup" xlink:href="#arrowUp" x="0" y="0" onmousedown="handlePan(0,-1)"/>
  <use id="arrowright" xlink:href="#arrowRight" x="0" y="0" onmousedown="handlePan(1,0)"/>
  <use id="arrowdown" xlink:href="#arrowDown" x="0" y="0" onmousedown="handlePan(0,1)"/>
  <use id="arrowleft" xlink:href="#arrowLeft" x="0" y="0" onmousedown="handlePan(-1,0)"/>
</g>
<svg viewBox="0 0 15 15" width="100%" height="30px" preserveAspectRatio="xMaxYMin meet">
 <g id="arrow_out" transform="scale(0.3 0.3)">
  <a xlink:href="partials_8h__incl_org.svg" target="_base">
   <rect id="button" ry="5" rx="5" y="6" x="6" height="38" width="38"
        fill="#f2f5e9" fill-opacity="0.5" stroke="#606060" stroke-width="1.0"/>
   <path id="arrow"
     d="M 11.500037,31.436501 C 11.940474,20.09759 22.043105,11.32322 32.158766,21.979434 L 37.068811,17.246167 C 37.068811,17.246167 37.088388,32 37.088388,32 L 22.160133,31.978069 C 22.160133,31.978069 26.997745,27.140456 26.997745,27.140456 C 18.528582,18.264221 13.291696,25.230495 11.500037,31.436501 z"
     style="fill:#404040;"/>
  </a>
 </g>
</svg>

<style type='text/css'>
<![CDATA[
[data-mouse-over-selected='false'] { opacity: 0.7; }
[data-mouse-over-selected='true']  { opacity: 1.0; }
]]>
</style>
<script type="application/ecmascript"><![CDATA[
document.addEventListener('DOMContentLoaded', (event) => {
  highlightEdges();
  highlightAdjacentNodes();
});
]]></script>
</svg>
