<?xml version="1.0" encoding="UTF-8" standalone="no"?>
<!DOCTYPE svg PUBLIC "-//W3C//DTD SVG 1.1//EN"
 "http://www.w3.org/Graphics/SVG/1.1/DTD/svg11.dtd">
<!-- Generated by graphviz version 2.43.0 (0)
 -->
<!-- Title: drake/common/ad/internal/partials.h Pages: 1 -->
<svg width="1081pt" height="411pt"
 viewBox="0.00 0.00 1080.50 411.45" xmlns="http://www.w3.org/2000/svg" xmlns:xlink="http://www.w3.org/1999/xlink">
<g id="graph0" class="graph" transform="scale(1 1) rotate(0) translate(4 407.45)">
<title>drake/common/ad/internal/partials.h</title>
<!-- Node1 -->
<g id="Node000001" class="node">
<title>Node1</title>
<g id="a_Node000001"><a xlink:title=" ">
<ellipse fill="#999999" stroke="#666666" cx="668.36" cy="-382.23" rx="102.56" ry="21.43"/>
<text text-anchor="start" x="603.86" y="-385.23" font-family="Helvetica,sans-Serif" font-size="10.00">drake/common/ad/internal</text>
<text text-anchor="middle" x="668.36" y="-374.23" font-family="Helvetica,sans-Serif" font-size="10.00">/partials.h</text>
</a>
</g>
</g>
<!-- Node2 -->
<g id="Node000002" class="node">
<title>Node2</title>
<g id="a_Node000002"><a xlink:href="derivatives__xpr_8h.html" target="_top" xlink:title=" ">
<ellipse fill="white" stroke="#666666" cx="537.36" cy="-303.81" rx="102.56" ry="21.43"/>
<text text-anchor="start" x="472.86" y="-306.81" font-family="Helvetica,sans-Serif" font-size="10.00">drake/common/ad/internal</text>
<text text-anchor="middle" x="537.36" y="-295.81" font-family="Helvetica,sans-Serif" font-size="10.00">/derivatives_xpr.h</text>
</a>
</g>
</g>
<!-- Node1&#45;&gt;Node2 -->
<g id="edge1_Node000001_Node000002" class="edge">
<title>Node1&#45;&gt;Node2</title>
<g id="a_edge1_Node000001_Node000002"><a xlink:title=" ">
<path fill="none" stroke="#63b8ff" d="M635.3,-361.95C618.24,-351.99 597.24,-339.74 579.07,-329.14"/>
<polygon fill="#63b8ff" stroke="#63b8ff" points="580.81,-326.1 570.41,-324.09 577.28,-332.15 580.81,-326.1"/>
</a>
</g>
</g>
<!-- Node3 -->
<g id="Node000003" class="node">
<title>Node3</title>
<g id="a_Node000003"><a xlink:href="eigen__types_8h.html" target="_top" xlink:title="This file contains abbreviated definitions for certain specializations of Eigen::Matrix that are comm...">
<ellipse fill="white" stroke="#666666" cx="537.36" cy="-225.38" rx="84.29" ry="21.43"/>
<text text-anchor="start" x="485.86" y="-228.38" font-family="Helvetica,sans-Serif" font-size="10.00">drake/common/eigen</text>
<text text-anchor="middle" x="537.36" y="-217.38" font-family="Helvetica,sans-Serif" font-size="10.00">_types.h</text>
</a>
</g>
</g>
<!-- Node1&#45;&gt;Node3 -->
<g id="edge24_Node000001_Node000003" class="edge">
<title>Node1&#45;&gt;Node3</title>
<g id="a_edge24_Node000001_Node000003"><a xlink:title=" ">
<path fill="none" stroke="#63b8ff" d="M669.45,-361.01C669.56,-339.47 666.62,-305.4 649.36,-282.59 637,-266.27 618.6,-254.35 600.26,-245.8"/>
<polygon fill="#63b8ff" stroke="#63b8ff" points="601.56,-242.56 591,-241.76 598.76,-248.97 601.56,-242.56"/>
</a>
</g>
</g>
<!-- Node13 -->
<g id="Node000013" class="node">
<title>Node13</title>
<g id="a_Node000013"><a xlink:href="drake__copyable_8h.html" target="_top" xlink:title="Provides careful macros to selectively enable or disable the special member functions for copy&#45;constr...">
<ellipse fill="white" stroke="#666666" cx="988.36" cy="-146.95" rx="84.29" ry="21.43"/>
<text text-anchor="start" x="936.86" y="-149.95" font-family="Helvetica,sans-Serif" font-size="10.00">drake/common/drake</text>
<text text-anchor="middle" x="988.36" y="-138.95" font-family="Helvetica,sans-Serif" font-size="10.00">_copyable.h</text>
</a>
</g>
</g>
<!-- Node1&#45;&gt;Node13 -->
<g id="edge23_Node000001_Node000013" class="edge">
<title>Node1&#45;&gt;Node13</title>
<g id="a_edge23_Node000001_Node000013"><a xlink:title=" ">
<path fill="none" stroke="#63b8ff" d="M695.09,-361.74C752.88,-319.62 889.41,-220.09 953.72,-173.21"/>
<polygon fill="#63b8ff" stroke="#63b8ff" points="955.91,-175.94 961.93,-167.22 951.78,-170.28 955.91,-175.94"/>
</a>
</g>
</g>
<!-- Node2&#45;&gt;Node3 -->
<g id="edge2_Node000002_Node000003" class="edge">
<title>Node2&#45;&gt;Node3</title>
<g id="a_edge2_Node000002_Node000003"><a xlink:title=" ">
<path fill="none" stroke="#63b8ff" d="M537.36,-282.33C537.36,-274.47 537.36,-265.32 537.36,-256.73"/>
<polygon fill="#63b8ff" stroke="#63b8ff" points="540.86,-256.65 537.36,-246.65 533.86,-256.65 540.86,-256.65"/>
</a>
</g>
</g>
<!-- Node4 -->
<g id="Node000004" class="node">
<title>Node4</title>
<g id="a_Node000004"><a xlink:title=" ">
<ellipse fill="#e0e0e0" stroke="#999999" cx="266.36" cy="-146.95" rx="37.45" ry="13.37"/>
<text text-anchor="middle" x="266.36" y="-144.45" font-family="Helvetica,sans-Serif" font-size="10.00">iterator</text>
</a>
</g>
</g>
<!-- Node3&#45;&gt;Node4 -->
<g id="edge3_Node000003_Node000004" class="edge">
<title>Node3&#45;&gt;Node4</title>
<g id="a_edge3_Node000003_Node000004"><a xlink:title=" ">
<path fill="none" stroke="#63b8ff" d="M475.59,-210.82C431.16,-200.52 370.04,-185.26 317.36,-168.17 311.24,-166.18 304.79,-163.83 298.62,-161.45"/>
<polygon fill="#63b8ff" stroke="#63b8ff" points="299.82,-158.17 289.24,-157.74 297.24,-164.67 299.82,-158.17"/>
</a>
</g>
</g>
<!-- Node5 -->
<g id="Node000005" class="node">
<title>Node5</title>
<g id="a_Node000005"><a xlink:title=" ">
<ellipse fill="#e0e0e0" stroke="#999999" cx="305.36" cy="-76.31" rx="31.64" ry="13.37"/>
<text text-anchor="middle" x="305.36" y="-73.81" font-family="Helvetica,sans-Serif" font-size="10.00">utility</text>
</a>
</g>
</g>
<!-- Node3&#45;&gt;Node5 -->
<g id="edge4_Node000003_Node000005" class="edge">
<title>Node3&#45;&gt;Node5</title>
<g id="a_edge4_Node000003_Node000005"><a xlink:title=" ">
<path fill="none" stroke="#63b8ff" d="M461.88,-215.96C424.82,-208.53 381.56,-194.53 350.36,-168.17 329.29,-150.37 317.15,-120.32 310.91,-99.68"/>
<polygon fill="#63b8ff" stroke="#63b8ff" points="314.23,-98.55 308.16,-89.86 307.49,-100.44 314.23,-98.55"/>
</a>
</g>
</g>
<!-- Node6 -->
<g id="Node000006" class="node">
<title>Node6</title>
<g id="a_Node000006"><a xlink:title=" ">
<ellipse fill="#e0e0e0" stroke="#999999" cx="831.36" cy="-146.95" rx="54.39" ry="13.37"/>
<text text-anchor="middle" x="831.36" y="-144.45" font-family="Helvetica,sans-Serif" font-size="10.00">Eigen/Dense</text>
</a>
</g>
</g>
<!-- Node3&#45;&gt;Node6 -->
<g id="edge5_Node000003_Node000006" class="edge">
<title>Node3&#45;&gt;Node6</title>
<g id="a_edge5_Node000003_Node000006"><a xlink:title=" ">
<path fill="none" stroke="#63b8ff" d="M598.47,-210.77C645.21,-200.05 711.15,-184.28 768.36,-168.17 775.82,-166.07 783.72,-163.67 791.31,-161.28"/>
<polygon fill="#63b8ff" stroke="#63b8ff" points="792.59,-164.54 801.05,-158.16 790.46,-157.88 792.59,-164.54"/>
</a>
</g>
</g>
<!-- Node7 -->
<g id="Node000007" class="node">
<title>Node7</title>
<g id="a_Node000007"><a xlink:href="constants_8h.html" target="_top" xlink:title=" ">
<ellipse fill="white" stroke="#666666" cx="105.36" cy="-146.95" rx="105.22" ry="13.37"/>
<text text-anchor="middle" x="105.36" y="-144.45" font-family="Helvetica,sans-Serif" font-size="10.00">drake/common/constants.h</text>
</a>
</g>
</g>
<!-- Node3&#45;&gt;Node7 -->
<g id="edge6_Node000003_Node000007" class="edge">
<title>Node3&#45;&gt;Node7</title>
<g id="a_edge6_Node000003_Node000007"><a xlink:title=" ">
<path fill="none" stroke="#63b8ff" d="M470.33,-212.52C389.54,-198.23 254.52,-174.34 173.31,-159.98"/>
<polygon fill="#63b8ff" stroke="#63b8ff" points="173.65,-156.48 163.2,-158.19 172.43,-163.37 173.65,-156.48"/>
</a>
</g>
</g>
<!-- Node8 -->
<g id="Node000008" class="node">
<title>Node8</title>
<g id="a_Node000008"><a xlink:href="drake__assert_8h.html" target="_top" xlink:title="Provides Drake&#39;s assertion mechanics.">
<ellipse fill="white" stroke="#666666" cx="443.36" cy="-146.95" rx="84.29" ry="21.43"/>
<text text-anchor="start" x="391.86" y="-149.95" font-family="Helvetica,sans-Serif" font-size="10.00">drake/common/drake</text>
<text text-anchor="middle" x="443.36" y="-138.95" font-family="Helvetica,sans-Serif" font-size="10.00">_assert.h</text>
</a>
</g>
</g>
<!-- Node3&#45;&gt;Node8 -->
<g id="edge7_Node000003_Node000008" class="edge">
<title>Node3&#45;&gt;Node8</title>
<g id="a_edge7_Node000003_Node000008"><a xlink:title=" ">
<path fill="none" stroke="#63b8ff" d="M513.15,-204.7C501.55,-195.27 487.5,-183.84 475.06,-173.73"/>
<polygon fill="#63b8ff" stroke="#63b8ff" points="477.13,-170.9 467.16,-167.3 472.71,-176.33 477.13,-170.9"/>
</a>
</g>
</g>
<!-- Node3&#45;&gt;Node13 -->
<g id="edge13_Node000003_Node000013" class="edge">
<title>Node3&#45;&gt;Node13</title>
<g id="a_edge13_Node000003_Node000013"><a xlink:title=" ">
<path fill="none" stroke="#63b8ff" d="M609.36,-214.24C681.6,-203.79 795.97,-186.48 894.36,-168.17 901.86,-166.77 909.68,-165.23 917.46,-163.64"/>
<polygon fill="#63b8ff" stroke="#63b8ff" points="918.19,-167.06 927.28,-161.6 916.77,-160.21 918.19,-167.06"/>
</a>
</g>
</g>
<!-- Node14 -->
<g id="Node000014" class="node">
<title>Node14</title>
<g id="a_Node000014"><a xlink:href="fmt__eigen_8h.html" target="_top" xlink:title=" ">
<ellipse fill="white" stroke="#666666" cx="652.36" cy="-146.95" rx="106.55" ry="13.37"/>
<text text-anchor="middle" x="652.36" y="-144.45" font-family="Helvetica,sans-Serif" font-size="10.00">drake/common/fmt_eigen.h</text>
</a>
</g>
</g>
<!-- Node3&#45;&gt;Node14 -->
<g id="edge14_Node000003_Node000014" class="edge">
<title>Node3&#45;&gt;Node14</title>
<g id="a_edge14_Node000003_Node000014"><a xlink:title=" ">
<path fill="none" stroke="#63b8ff" d="M566.08,-205.29C584.1,-193.32 607.19,-177.97 624.95,-166.17"/>
<polygon fill="#63b8ff" stroke="#63b8ff" points="627.31,-168.81 633.7,-160.36 623.43,-162.98 627.31,-168.81"/>
</a>
</g>
</g>
<!-- Node8&#45;&gt;Node5 -->
<g id="edge12_Node000008_Node000005" class="edge">
<title>Node8&#45;&gt;Node5</title>
<g id="a_edge12_Node000008_Node000005"><a xlink:title=" ">
<path fill="none" stroke="#63b8ff" d="M406.74,-127.74C384.03,-116.44 355.26,-102.13 334.18,-91.64"/>
<polygon fill="#63b8ff" stroke="#63b8ff" points="335.59,-88.44 325.08,-87.12 332.48,-94.7 335.59,-88.44"/>
</a>
</g>
</g>
<!-- Node9 -->
<g id="Node000009" class="node">
<title>Node9</title>
<g id="a_Node000009"><a xlink:title=" ">
<ellipse fill="#e0e0e0" stroke="#999999" cx="499.36" cy="-76.31" rx="29.9" ry="13.37"/>
<text text-anchor="middle" x="499.36" y="-73.81" font-family="Helvetica,sans-Serif" font-size="10.00">array</text>
</a>
</g>
</g>
<!-- Node8&#45;&gt;Node9 -->
<g id="edge8_Node000008_Node000009" class="edge">
<title>Node8&#45;&gt;Node9</title>
<g id="a_edge8_Node000008_Node000009"><a xlink:title=" ">
<path fill="none" stroke="#63b8ff" d="M459.56,-126.1C466.98,-117 475.75,-106.25 483.17,-97.15"/>
<polygon fill="#63b8ff" stroke="#63b8ff" points="485.91,-99.32 489.52,-89.36 480.49,-94.9 485.91,-99.32"/>
</a>
</g>
</g>
<!-- Node10 -->
<g id="Node000010" class="node">
<title>Node10</title>
<g id="a_Node000010"><a xlink:title=" ">
<ellipse fill="#e0e0e0" stroke="#999999" cx="595.36" cy="-13.44" rx="31.23" ry="13.37"/>
<text text-anchor="middle" x="595.36" y="-10.94" font-family="Helvetica,sans-Serif" font-size="10.00">string</text>
</a>
</g>
</g>
<!-- Node8&#45;&gt;Node10 -->
<g id="edge9_Node000008_Node000010" class="edge">
<title>Node8&#45;&gt;Node10</title>
<g id="a_edge9_Node000008_Node000010"><a xlink:title=" ">
<path fill="none" stroke="#63b8ff" d="M481.24,-127.93C499.62,-118.14 521.34,-104.92 538.36,-89.74 556.26,-73.77 572.31,-51.46 582.79,-35.27"/>
<polygon fill="#63b8ff" stroke="#63b8ff" points="585.92,-36.87 588.28,-26.54 579.99,-33.14 585.92,-36.87"/>
</a>
</g>
</g>
<!-- Node11 -->
<g id="Node000011" class="node">
<title>Node11</title>
<g id="a_Node000011"><a xlink:title=" ">
<ellipse fill="#e0e0e0" stroke="#999999" cx="422.36" cy="-76.31" rx="28.98" ry="13.37"/>
<text text-anchor="middle" x="422.36" y="-73.81" font-family="Helvetica,sans-Serif" font-size="10.00">tuple</text>
</a>
</g>
</g>
<!-- Node8&#45;&gt;Node11 -->
<g id="edge10_Node000008_Node000011" class="edge">
<title>Node8&#45;&gt;Node11</title>
<g id="a_edge10_Node000008_Node000011"><a xlink:title=" ">
<path fill="none" stroke="#63b8ff" d="M437.17,-125.73C434.63,-117.41 431.67,-107.74 429.07,-99.25"/>
<polygon fill="#63b8ff" stroke="#63b8ff" points="432.4,-98.18 426.13,-89.64 425.71,-100.22 432.4,-98.18"/>
</a>
</g>
</g>
<!-- Node12 -->
<g id="Node000012" class="node">
<title>Node12</title>
<g id="a_Node000012"><a xlink:title=" ">
<ellipse fill="#e0e0e0" stroke="#999999" cx="431.36" cy="-13.44" rx="48.58" ry="13.37"/>
<text text-anchor="middle" x="431.36" y="-10.94" font-family="Helvetica,sans-Serif" font-size="10.00">type_traits</text>
</a>
</g>
</g>
<!-- Node8&#45;&gt;Node12 -->
<g id="edge11_Node000008_Node000012" class="edge">
<title>Node8&#45;&gt;Node12</title>
<g id="a_edge11_Node000008_Node000012"><a xlink:title=" ">
<path fill="none" stroke="#63b8ff" d="M414.9,-126.94C403.11,-117.33 390.71,-104.57 384.36,-89.74 379.66,-78.76 379.87,-73.94 384.36,-62.87 389.06,-51.28 398.01,-40.94 406.85,-32.81"/>
<polygon fill="#63b8ff" stroke="#63b8ff" points="409.17,-35.44 414.48,-26.27 404.61,-30.12 409.17,-35.44"/>
</a>
</g>
</g>
<!-- Node14&#45;&gt;Node10 -->
<g id="edge15_Node000014_Node000010" class="edge">
<title>Node14&#45;&gt;Node10</title>
<g id="a_edge15_Node000014_Node000010"><a xlink:title=" ">
<path fill="none" stroke="#63b8ff" d="M641.92,-133.32C633.38,-122.4 621.58,-105.87 614.36,-89.74 606.78,-72.81 601.86,-52.32 598.93,-36.99"/>
<polygon fill="#63b8ff" stroke="#63b8ff" points="602.33,-36.1 597.14,-26.87 595.43,-37.32 602.33,-36.1"/>
</a>
</g>
</g>
<!-- Node15 -->
<g id="Node000015" class="node">
<title>Node15</title>
<g id="a_Node000015"><a xlink:title=" ">
<ellipse fill="#e0e0e0" stroke="#999999" cx="935.36" cy="-13.44" rx="51.74" ry="13.37"/>
<text text-anchor="middle" x="935.36" y="-10.94" font-family="Helvetica,sans-Serif" font-size="10.00">string_view</text>
</a>
</g>
</g>
<!-- Node14&#45;&gt;Node15 -->
<g id="edge16_Node000014_Node000015" class="edge">
<title>Node14&#45;&gt;Node15</title>
<g id="a_edge16_Node000014_Node000015"><a xlink:title=" ">
<path fill="none" stroke="#63b8ff" d="M708.86,-135.49C784.15,-121.32 908.85,-96.97 916.36,-89.74 930.38,-76.23 934.63,-54.01 935.67,-37.2"/>
<polygon fill="#63b8ff" stroke="#63b8ff" points="939.17,-37.17 935.96,-27.08 932.17,-36.97 939.17,-37.17"/>
</a>
</g>
</g>
<!-- Node16 -->
<g id="Node000016" class="node">
<title>Node16</title>
<g id="a_Node000016"><a xlink:title=" ">
<ellipse fill="#e0e0e0" stroke="#999999" cx="672.36" cy="-76.31" rx="48.58" ry="13.37"/>
<text text-anchor="middle" x="672.36" y="-73.81" font-family="Helvetica,sans-Serif" font-size="10.00">Eigen/Core</text>
</a>
</g>
</g>
<!-- Node14&#45;&gt;Node16 -->
<g id="edge17_Node000014_Node000016" class="edge">
<title>Node14&#45;&gt;Node16</title>
<g id="a_edge17_Node000014_Node000016"><a xlink:title=" ">
<path fill="none" stroke="#63b8ff" d="M656.03,-133.36C658.76,-123.98 662.57,-110.91 665.82,-99.75"/>
<polygon fill="#63b8ff" stroke="#63b8ff" points="669.28,-100.4 668.71,-89.82 662.56,-98.44 669.28,-100.4"/>
</a>
</g>
</g>
<!-- Node17 -->
<g id="Node000017" class="node">
<title>Node17</title>
<g id="a_Node000017"><a xlink:href="fmt_8h.html" target="_top" xlink:title=" ">
<ellipse fill="white" stroke="#666666" cx="823.36" cy="-76.31" rx="84.29" ry="13.37"/>
<text text-anchor="middle" x="823.36" y="-73.81" font-family="Helvetica,sans-Serif" font-size="10.00">drake/common/fmt.h</text>
</a>
</g>
</g>
<!-- Node14&#45;&gt;Node17 -->
<g id="edge18_Node000014_Node000017" class="edge">
<title>Node14&#45;&gt;Node17</title>
<g id="a_edge18_Node000014_Node000017"><a xlink:title=" ">
<path fill="none" stroke="#63b8ff" d="M682.14,-134C710.55,-122.59 753.49,-105.35 784.56,-92.88"/>
<polygon fill="#63b8ff" stroke="#63b8ff" points="786.22,-95.98 794.2,-89.01 783.62,-89.49 786.22,-95.98"/>
</a>
</g>
</g>
<!-- Node17&#45;&gt;Node10 -->
<g id="edge19_Node000017_Node000010" class="edge">
<title>Node17&#45;&gt;Node10</title>
<g id="a_edge19_Node000017_Node000010"><a xlink:title=" ">
<path fill="none" stroke="#63b8ff" d="M782.86,-64.49C739.68,-52.97 671.99,-34.89 630.84,-23.91"/>
<polygon fill="#63b8ff" stroke="#63b8ff" points="631.54,-20.47 620.98,-21.27 629.74,-27.24 631.54,-20.47"/>
</a>
</g>
</g>
<!-- Node17&#45;&gt;Node12 -->
<g id="edge21_Node000017_Node000012" class="edge">
<title>Node17&#45;&gt;Node12</title>
<g id="a_edge21_Node000017_Node000012"><a xlink:title=" ">
<path fill="none" stroke="#63b8ff" d="M765.94,-66.39C689.47,-54.51 555.38,-33.69 482.32,-22.35"/>
<polygon fill="#63b8ff" stroke="#63b8ff" points="482.85,-18.89 472.43,-20.81 481.78,-25.81 482.85,-18.89"/>
</a>
</g>
</g>
<!-- Node17&#45;&gt;Node15 -->
<g id="edge20_Node000017_Node000015" class="edge">
<title>Node17&#45;&gt;Node15</title>
<g id="a_edge20_Node000017_Node000015"><a xlink:title=" ">
<path fill="none" stroke="#63b8ff" d="M845.49,-63.28C862.69,-53.93 886.72,-40.87 905.61,-30.6"/>
<polygon fill="#63b8ff" stroke="#63b8ff" points="907.3,-33.67 914.41,-25.82 903.96,-27.52 907.3,-33.67"/>
</a>
</g>
</g>
<!-- Node18 -->
<g id="Node000018" class="node">
<title>Node18</title>
<g id="a_Node000018"><a xlink:title=" ">
<ellipse fill="#e0e0e0" stroke="#999999" cx="810.36" cy="-13.44" rx="55.72" ry="13.37"/>
<text text-anchor="middle" x="810.36" y="-10.94" font-family="Helvetica,sans-Serif" font-size="10.00">fmt/format.h</text>
</a>
</g>
</g>
<!-- Node17&#45;&gt;Node18 -->
<g id="edge22_Node000017_Node000018" class="edge">
<title>Node17&#45;&gt;Node18</title>
<g id="a_edge22_Node000017_Node000018"><a xlink:title=" ">
<path fill="none" stroke="#63b8ff" d="M820.67,-62.69C819.08,-55.27 817.03,-45.65 815.17,-36.96"/>
<polygon fill="#63b8ff" stroke="#63b8ff" points="818.56,-36.08 813.05,-27.03 811.71,-37.54 818.56,-36.08"/>
</a>
</g>
</g>
</g>
</svg>
