<?xml version="1.0" encoding="UTF-8" standalone="no"?>
<!DOCTYPE svg PUBLIC "-//W3C//DTD SVG 1.1//EN"
 "http://www.w3.org/Graphics/SVG/1.1/DTD/svg11.dtd">
<!-- Generated by graphviz version 2.43.0 (0)
 -->
<!-- Title: drake/geometry/query_results/penetration_as_point_pair.h Pages: 1 -->
<!--zoomable 441 -->
<svg id="main" version="1.1" xmlns="http://www.w3.org/2000/svg" xmlns:xlink="http://www.w3.org/1999/xlink" xml:space="preserve" onload="init(evt)">
<style type="text/css"><![CDATA[
.edge:hover path { stroke: red; }
.edge:hover polygon { stroke: red; fill: red; }
]]></style>
<script type="text/javascript"><![CDATA[
var edges = document.getElementsByTagName('g');
if (edges && edges.length) {
  for (var i=0;i<edges.length;i++) {
    if (edges[i].id.substr(0,4)=='edge') {
      edges[i].setAttribute('class','edge');
    }
  }
}
]]></script>
        <defs>
                <circle id="rim" cx="0" cy="0" r="7"/>
                <circle id="rim2" cx="0" cy="0" r="3.5"/>
                <g id="zoomPlus">
                        <use xlink:href="#rim" fill="#404040">
                                <set attributeName="fill" to="#808080" begin="zoomplus.mouseover" end="zoomplus.mouseout"/>
                        </use>
                        <path d="M-4,0h8M0,-4v8" fill="none" stroke="white" stroke-width="1.5" pointer-events="none"/>
                </g>
                <g id="zoomMin">
                        <use xlink:href="#rim" fill="#404040">
                                <set attributeName="fill" to="#808080" begin="zoomminus.mouseover" end="zoomminus.mouseout"/>
                        </use>
                        <path d="M-4,0h8" fill="none" stroke="white" stroke-width="1.5" pointer-events="none"/>
                </g>
                <g id="dirArrow">
                        <path fill="none" stroke="white" stroke-width="1.5" d="M0,-3.0v7 M-2.5,-0.5L0,-3.0L2.5,-0.5"/>
                </g>
               <g id="resetDef">
                       <use xlink:href="#rim2" fill="#404040">
                               <set attributeName="fill" to="#808080" begin="reset.mouseover" end="reset.mouseout"/>
                       </use>
               </g>
        </defs>

<script type="text/javascript">
var viewWidth = 1182;
var viewHeight = 441;
var sectionId = 'dynsection-0';
</script>
<script xlink:href="svgpan.js"/>
<svg id="graph" class="graph">
<g id="viewport">
<title>drake/geometry/query_results/penetration_as_point_pair.h</title>
<polygon fill="white" stroke="transparent" points="-4,4 -4,-437 1178,-437 1178,4 -4,4"/>
<!-- Node0 -->
<g id="node1" class="node">
<title>Node0</title>
<g id="a_node1"><a xlink:title=" ">
<polygon fill="#bfbfbf" stroke="black" points="304,-391.5 304,-432.5 429,-432.5 429,-391.5 304,-391.5"/>
<text text-anchor="start" x="312" y="-420.5" font-family="Helvetica,sans-Serif" font-size="10.00">drake/geometry/query</text>
<text text-anchor="start" x="312" y="-409.5" font-family="Helvetica,sans-Serif" font-size="10.00">_results/penetration</text>
<text text-anchor="middle" x="366.5" y="-398.5" font-family="Helvetica,sans-Serif" font-size="10.00">_as_point_pair.h</text>
</a>
</g>
</g>
<!-- Node1 -->
<g id="node2" class="node">
<title>Node1</title>
<g id="a_node2"><a xlink:title=" ">
<polygon fill="white" stroke="#bfbfbf" points="341,-129 341,-148 386,-148 386,-129 341,-129"/>
<text text-anchor="middle" x="363.5" y="-136" font-family="Helvetica,sans-Serif" font-size="10.00">utility</text>
</a>
</g>
</g>
<!-- Node0&#45;&gt;Node1 -->
<g id="edge1" class="edge">
<title>Node0&#45;&gt;Node1</title>
<path fill="none" stroke="midnightblue" d="M366.28,-391.47C365.73,-341.16 364.25,-207.57 363.71,-158.19"/>
<polygon fill="midnightblue" stroke="midnightblue" points="367.2,-157.98 363.59,-148.02 360.2,-158.06 367.2,-157.98"/>
</g>
<!-- Node2 -->
<g id="node3" class="node">
<title>Node2</title>
<g id="a_node3"><a xlink:href="drake__copyable_8h.html" target="_top" xlink:title="Provides careful macros to selectively enable or disable the special member functions for copy&#45;constr...">
<polygon fill="white" stroke="black" points="376,-190.5 376,-220.5 495,-220.5 495,-190.5 376,-190.5"/>
<text text-anchor="start" x="384" y="-208.5" font-family="Helvetica,sans-Serif" font-size="10.00">drake/common/drake</text>
<text text-anchor="middle" x="435.5" y="-197.5" font-family="Helvetica,sans-Serif" font-size="10.00">_copyable.h</text>
</a>
</g>
</g>
<!-- Node0&#45;&gt;Node2 -->
<g id="edge2" class="edge">
<title>Node0&#45;&gt;Node2</title>
<path fill="none" stroke="midnightblue" d="M373.12,-391.39C385.84,-353.69 413.67,-271.2 427.45,-230.37"/>
<polygon fill="midnightblue" stroke="midnightblue" points="430.82,-231.3 430.71,-220.71 424.19,-229.07 430.82,-231.3"/>
</g>
<!-- Node3 -->
<g id="node4" class="node">
<title>Node3</title>
<g id="a_node4"><a xlink:href="eigen__types_8h.html" target="_top" xlink:title="This file contains abbreviated definitions for certain specializations of Eigen::Matrix that are comm...">
<polygon fill="white" stroke="black" points="200,-257.5 200,-287.5 319,-287.5 319,-257.5 200,-257.5"/>
<text text-anchor="start" x="208" y="-275.5" font-family="Helvetica,sans-Serif" font-size="10.00">drake/common/eigen</text>
<text text-anchor="middle" x="259.5" y="-264.5" font-family="Helvetica,sans-Serif" font-size="10.00">_types.h</text>
</a>
</g>
</g>
<!-- Node0&#45;&gt;Node3 -->
<g id="edge3" class="edge">
<title>Node0&#45;&gt;Node3</title>
<path fill="none" stroke="midnightblue" d="M351.17,-391.3C331.46,-365.97 297.33,-322.11 276.74,-295.65"/>
<polygon fill="midnightblue" stroke="midnightblue" points="279.47,-293.46 270.56,-287.72 273.94,-297.76 279.47,-293.46"/>
</g>
<!-- Node8 -->
<g id="node9" class="node">
<title>Node8</title>
<g id="a_node9"><a xlink:href="geometry__ids_8h.html" target="_top" xlink:title=" ">
<polygon fill="white" stroke="black" points="413.5,-324.5 413.5,-354.5 557.5,-354.5 557.5,-324.5 413.5,-324.5"/>
<text text-anchor="start" x="421.5" y="-342.5" font-family="Helvetica,sans-Serif" font-size="10.00">drake/geometry/geometry</text>
<text text-anchor="middle" x="485.5" y="-331.5" font-family="Helvetica,sans-Serif" font-size="10.00">_ids.h</text>
</a>
</g>
</g>
<!-- Node0&#45;&gt;Node8 -->
<g id="edge10" class="edge">
<title>Node0&#45;&gt;Node8</title>
<path fill="none" stroke="midnightblue" d="M399.65,-391.36C416.24,-381.53 436.27,-369.67 452.8,-359.87"/>
<polygon fill="midnightblue" stroke="midnightblue" points="454.76,-362.78 461.58,-354.67 451.19,-356.76 454.76,-362.78"/>
</g>
<!-- Node3&#45;&gt;Node1 -->
<g id="edge4" class="edge">
<title>Node3&#45;&gt;Node1</title>
<path fill="none" stroke="midnightblue" d="M270.63,-257.37C290.03,-232.76 329.92,-182.12 350.53,-155.96"/>
<polygon fill="midnightblue" stroke="midnightblue" points="353.29,-158.12 356.73,-148.1 347.79,-153.79 353.29,-158.12"/>
</g>
<!-- Node3&#45;&gt;Node2 -->
<g id="edge9" class="edge">
<title>Node3&#45;&gt;Node2</title>
<path fill="none" stroke="midnightblue" d="M297.69,-257.4C324.1,-247.64 359.43,-234.59 387.7,-224.15"/>
<polygon fill="midnightblue" stroke="midnightblue" points="389.22,-227.32 397.39,-220.58 386.79,-220.76 389.22,-227.32"/>
</g>
<!-- Node4 -->
<g id="node5" class="node">
<title>Node4</title>
<g id="a_node5"><a xlink:title=" ">
<polygon fill="white" stroke="#bfbfbf" points="0,-196 0,-215 77,-215 77,-196 0,-196"/>
<text text-anchor="middle" x="38.5" y="-203" font-family="Helvetica,sans-Serif" font-size="10.00">Eigen/Dense</text>
</a>
</g>
</g>
<!-- Node3&#45;&gt;Node4 -->
<g id="edge5" class="edge">
<title>Node3&#45;&gt;Node4</title>
<path fill="none" stroke="midnightblue" d="M210.31,-257.46C175.43,-247.45 127.54,-233.58 85.5,-221 82.31,-220.04 79,-219.04 75.68,-218.03"/>
<polygon fill="midnightblue" stroke="midnightblue" points="76.4,-214.59 65.81,-215.01 74.35,-221.29 76.4,-214.59"/>
</g>
<!-- Node5 -->
<g id="node6" class="node">
<title>Node5</title>
<g id="a_node6"><a xlink:href="constants_8h.html" target="_top" xlink:title=" ">
<polygon fill="white" stroke="black" points="95,-196 95,-215 244,-215 244,-196 95,-196"/>
<text text-anchor="middle" x="169.5" y="-203" font-family="Helvetica,sans-Serif" font-size="10.00">drake/common/constants.h</text>
</a>
</g>
</g>
<!-- Node3&#45;&gt;Node5 -->
<g id="edge6" class="edge">
<title>Node3&#45;&gt;Node5</title>
<path fill="none" stroke="midnightblue" d="M239.97,-257.4C225.02,-246.6 204.47,-231.76 189.42,-220.89"/>
<polygon fill="midnightblue" stroke="midnightblue" points="191.43,-218.02 181.28,-215.01 187.34,-223.7 191.43,-218.02"/>
</g>
<!-- Node6 -->
<g id="node7" class="node">
<title>Node6</title>
<g id="a_node7"><a xlink:href="drake__assert_8h.html" target="_top" xlink:title="Provides Drake&#39;s assertion implementation.">
<polygon fill="white" stroke="black" points="600,-56.5 600,-86.5 719,-86.5 719,-56.5 600,-56.5"/>
<text text-anchor="start" x="608" y="-74.5" font-family="Helvetica,sans-Serif" font-size="10.00">drake/common/drake</text>
<text text-anchor="middle" x="659.5" y="-63.5" font-family="Helvetica,sans-Serif" font-size="10.00">_assert.h</text>
</a>
</g>
</g>
<!-- Node3&#45;&gt;Node6 -->
<g id="edge7" class="edge">
<title>Node3&#45;&gt;Node6</title>
<path fill="none" stroke="midnightblue" d="M261.87,-257.25C267.7,-227.04 285.76,-156.56 331.5,-123 371.47,-93.68 505.9,-80.96 589.74,-75.77"/>
<polygon fill="midnightblue" stroke="midnightblue" points="590.19,-79.25 599.96,-75.16 589.77,-72.26 590.19,-79.25"/>
</g>
<!-- Node7 -->
<g id="node8" class="node">
<title>Node7</title>
<g id="a_node8"><a xlink:title=" ">
<polygon fill="white" stroke="#bfbfbf" points="625,-0.5 625,-19.5 694,-19.5 694,-0.5 625,-0.5"/>
<text text-anchor="middle" x="659.5" y="-7.5" font-family="Helvetica,sans-Serif" font-size="10.00">type_traits</text>
</a>
</g>
</g>
<!-- Node6&#45;&gt;Node7 -->
<g id="edge8" class="edge">
<title>Node6&#45;&gt;Node7</title>
<path fill="none" stroke="midnightblue" d="M659.5,-56.4C659.5,-48.47 659.5,-38.46 659.5,-29.86"/>
<polygon fill="midnightblue" stroke="midnightblue" points="663,-29.66 659.5,-19.66 656,-29.66 663,-29.66"/>
</g>
<!-- Node8&#45;&gt;Node2 -->
<g id="edge11" class="edge">
<title>Node8&#45;&gt;Node2</title>
<path fill="none" stroke="midnightblue" d="M480.15,-324.37C471.62,-301.85 454.83,-257.53 444.45,-230.12"/>
<polygon fill="midnightblue" stroke="midnightblue" points="447.63,-228.64 440.81,-220.52 441.08,-231.12 447.63,-228.64"/>
</g>
<!-- Node9 -->
<g id="node10" class="node">
<title>Node9</title>
<g id="a_node10"><a xlink:href="identifier_8h.html" target="_top" xlink:title=" ">
<polygon fill="white" stroke="black" points="507.5,-263 507.5,-282 653.5,-282 653.5,-263 507.5,-263"/>
<text text-anchor="middle" x="580.5" y="-270" font-family="Helvetica,sans-Serif" font-size="10.00">drake/common/identifier.h</text>
</a>
</g>
</g>
<!-- Node8&#45;&gt;Node9 -->
<g id="edge12" class="edge">
<title>Node8&#45;&gt;Node9</title>
<path fill="none" stroke="midnightblue" d="M506.11,-324.4C521.9,-313.6 543.59,-298.76 559.47,-287.89"/>
<polygon fill="midnightblue" stroke="midnightblue" points="561.79,-290.54 568.07,-282.01 557.84,-284.77 561.79,-290.54"/>
</g>
<!-- Node9&#45;&gt;Node1 -->
<g id="edge16" class="edge">
<title>Node9&#45;&gt;Node1</title>
<path fill="none" stroke="midnightblue" d="M573.16,-262.76C557.24,-243.97 519.7,-200.61 503.5,-190 469.96,-168.02 425.63,-154.13 395.92,-146.6"/>
<polygon fill="midnightblue" stroke="midnightblue" points="396.61,-143.17 386.06,-144.2 394.95,-149.97 396.61,-143.17"/>
</g>
<!-- Node9&#45;&gt;Node2 -->
<g id="edge17" class="edge">
<title>Node9&#45;&gt;Node2</title>
<path fill="none" stroke="midnightblue" d="M561.25,-262.87C539.68,-253.2 504.09,-237.25 476.27,-224.78"/>
<polygon fill="midnightblue" stroke="midnightblue" points="477.35,-221.42 466.79,-220.53 474.49,-227.81 477.35,-221.42"/>
</g>
<!-- Node10 -->
<g id="node11" class="node">
<title>Node10</title>
<g id="a_node11"><a xlink:title=" ">
<polygon fill="white" stroke="#bfbfbf" points="627.5,-196 627.5,-215 677.5,-215 677.5,-196 627.5,-196"/>
<text text-anchor="middle" x="652.5" y="-203" font-family="Helvetica,sans-Serif" font-size="10.00">cstdint</text>
</a>
</g>
</g>
<!-- Node9&#45;&gt;Node10 -->
<g id="edge13" class="edge">
<title>Node9&#45;&gt;Node10</title>
<path fill="none" stroke="midnightblue" d="M590.21,-262.73C601.76,-252.31 621.25,-234.71 635.36,-221.97"/>
<polygon fill="midnightblue" stroke="midnightblue" points="637.87,-224.43 642.94,-215.13 633.18,-219.23 637.87,-224.43"/>
</g>
<!-- Node11 -->
<g id="node12" class="node">
<title>Node11</title>
<g id="a_node12"><a xlink:title=" ">
<polygon fill="white" stroke="#bfbfbf" points="696,-196 696,-215 753,-215 753,-196 696,-196"/>
<text text-anchor="middle" x="724.5" y="-203" font-family="Helvetica,sans-Serif" font-size="10.00">ostream</text>
</a>
</g>
</g>
<!-- Node9&#45;&gt;Node11 -->
<g id="edge14" class="edge">
<title>Node9&#45;&gt;Node11</title>
<path fill="none" stroke="midnightblue" d="M599.62,-262.87C624.26,-251.75 667.31,-232.32 695.86,-219.43"/>
<polygon fill="midnightblue" stroke="midnightblue" points="697.62,-222.47 705.3,-215.17 694.74,-216.09 697.62,-222.47"/>
</g>
<!-- Node12 -->
<g id="node13" class="node">
<title>Node12</title>
<g id="a_node13"><a xlink:title=" ">
<polygon fill="white" stroke="#bfbfbf" points="449.5,-129 449.5,-148 493.5,-148 493.5,-129 449.5,-129"/>
<text text-anchor="middle" x="471.5" y="-136" font-family="Helvetica,sans-Serif" font-size="10.00">string</text>
</a>
</g>
</g>
<!-- Node9&#45;&gt;Node12 -->
<g id="edge15" class="edge">
<title>Node9&#45;&gt;Node12</title>
<path fill="none" stroke="midnightblue" d="M577.41,-262.92C571.45,-247.22 557.22,-213.34 537.5,-190 525.28,-175.54 508.24,-162.63 494.54,-153.48"/>
<polygon fill="midnightblue" stroke="midnightblue" points="496.4,-150.52 486.1,-148.04 492.6,-156.4 496.4,-150.52"/>
</g>
<!-- Node13 -->
<g id="node14" class="node">
<title>Node13</title>
<g id="a_node14"><a xlink:href="drake__throw_8h.html" target="_top" xlink:title="Provides a convenient wrapper to throw an exception when a condition is unmet.">
<polygon fill="white" stroke="black" points="512,-123.5 512,-153.5 631,-153.5 631,-123.5 512,-123.5"/>
<text text-anchor="start" x="520" y="-141.5" font-family="Helvetica,sans-Serif" font-size="10.00">drake/common/drake</text>
<text text-anchor="middle" x="571.5" y="-130.5" font-family="Helvetica,sans-Serif" font-size="10.00">_throw.h</text>
</a>
</g>
</g>
<!-- Node9&#45;&gt;Node13 -->
<g id="edge18" class="edge">
<title>Node9&#45;&gt;Node13</title>
<path fill="none" stroke="midnightblue" d="M580.02,-262.93C579.19,-248.08 577.37,-216.59 575.5,-190 574.9,-181.46 574.18,-172.11 573.51,-163.81"/>
<polygon fill="midnightblue" stroke="midnightblue" points="576.99,-163.33 572.69,-153.64 570.01,-163.89 576.99,-163.33"/>
</g>
<!-- Node14 -->
<g id="node15" class="node">
<title>Node14</title>
<g id="a_node15"><a xlink:href="hash_8h.html" target="_top" xlink:title=" ">
<polygon fill="white" stroke="black" points="771,-196 771,-215 896,-215 896,-196 771,-196"/>
<text text-anchor="middle" x="833.5" y="-203" font-family="Helvetica,sans-Serif" font-size="10.00">drake/common/hash.h</text>
</a>
</g>
</g>
<!-- Node9&#45;&gt;Node14 -->
<g id="edge21" class="edge">
<title>Node9&#45;&gt;Node14</title>
<path fill="none" stroke="midnightblue" d="M613.84,-262.94C659.15,-251.29 740.26,-230.45 790.23,-217.62"/>
<polygon fill="midnightblue" stroke="midnightblue" points="791.28,-220.96 800.09,-215.08 789.53,-214.18 791.28,-220.96"/>
</g>
<!-- Node13&#45;&gt;Node6 -->
<g id="edge20" class="edge">
<title>Node13&#45;&gt;Node6</title>
<path fill="none" stroke="midnightblue" d="M590.59,-123.4C602.82,-114.37 618.87,-102.51 632.4,-92.52"/>
<polygon fill="midnightblue" stroke="midnightblue" points="634.48,-95.33 640.44,-86.58 630.32,-89.7 634.48,-95.33"/>
</g>
<!-- Node13&#45;&gt;Node7 -->
<g id="edge19" class="edge">
<title>Node13&#45;&gt;Node7</title>
<path fill="none" stroke="midnightblue" d="M571.68,-123.24C572.56,-105.88 576.25,-76.35 590.5,-56 600.1,-42.29 615.34,-31.72 629.05,-24.27"/>
<polygon fill="midnightblue" stroke="midnightblue" points="630.89,-27.27 638.22,-19.62 627.72,-21.02 630.89,-27.27"/>
</g>
<!-- Node14&#45;&gt;Node1 -->
<g id="edge30" class="edge">
<title>Node14&#45;&gt;Node1</title>
<path fill="none" stroke="midnightblue" d="M794.92,-195.96C784.44,-193.82 773.06,-191.67 762.5,-190 620.25,-167.57 582.91,-175.34 440.5,-154 425.92,-151.82 409.89,-148.88 396.24,-146.22"/>
<polygon fill="midnightblue" stroke="midnightblue" points="396.82,-142.77 386.34,-144.26 395.47,-149.64 396.82,-142.77"/>
</g>
<!-- Node14&#45;&gt;Node6 -->
<g id="edge32" class="edge">
<title>Node14&#45;&gt;Node6</title>
<path fill="none" stroke="midnightblue" d="M793.09,-195.92C752.9,-186.6 695.04,-170.77 679.5,-154 665.16,-138.53 660.65,-114.49 659.43,-96.52"/>
<polygon fill="midnightblue" stroke="midnightblue" points="662.92,-96.36 659.04,-86.51 655.93,-96.63 662.92,-96.36"/>
</g>
<!-- Node14&#45;&gt;Node7 -->
<g id="edge29" class="edge">
<title>Node14&#45;&gt;Node7</title>
<path fill="none" stroke="midnightblue" d="M896.15,-204.27C984.4,-201.69 1129.32,-187.84 1079.5,-123 1033.49,-63.11 802.65,-28.4 704.15,-16.11"/>
<polygon fill="midnightblue" stroke="midnightblue" points="704.56,-12.64 694.21,-14.89 703.71,-19.58 704.56,-12.64"/>
</g>
<!-- Node14&#45;&gt;Node12 -->
<g id="edge28" class="edge">
<title>Node14&#45;&gt;Node12</title>
<path fill="none" stroke="midnightblue" d="M794.15,-196C783.87,-193.91 772.79,-191.76 762.5,-190 647.51,-170.32 614.37,-187.08 502.5,-154 500.62,-153.44 498.71,-152.79 496.81,-152.07"/>
<polygon fill="midnightblue" stroke="midnightblue" points="498.12,-148.83 487.55,-148.12 495.37,-155.27 498.12,-148.83"/>
</g>
<!-- Node14&#45;&gt;Node13 -->
<g id="edge33" class="edge">
<title>Node14&#45;&gt;Node13</title>
<path fill="none" stroke="midnightblue" d="M798.98,-195.94C758.2,-185.82 689.45,-168.76 638.18,-156.04"/>
<polygon fill="midnightblue" stroke="midnightblue" points="638.72,-152.57 628.17,-153.56 637.03,-159.36 638.72,-152.57"/>
</g>
<!-- Node15 -->
<g id="node16" class="node">
<title>Node15</title>
<g id="a_node16"><a xlink:title=" ">
<polygon fill="white" stroke="#bfbfbf" points="1127,-129 1127,-148 1174,-148 1174,-129 1127,-129"/>
<text text-anchor="middle" x="1150.5" y="-136" font-family="Helvetica,sans-Serif" font-size="10.00">cmath</text>
</a>
</g>
</g>
<!-- Node14&#45;&gt;Node15 -->
<g id="edge22" class="edge">
<title>Node14&#45;&gt;Node15</title>
<path fill="none" stroke="midnightblue" d="M896.03,-196.57C953.07,-188.54 1039.36,-174.38 1112.5,-154 1115.15,-153.26 1117.87,-152.41 1120.59,-151.5"/>
<polygon fill="midnightblue" stroke="midnightblue" points="1122,-154.71 1130.22,-148.03 1119.63,-148.13 1122,-154.71"/>
</g>
<!-- Node16 -->
<g id="node17" class="node">
<title>Node16</title>
<g id="a_node17"><a xlink:title=" ">
<polygon fill="white" stroke="#bfbfbf" points="688,-129 688,-148 741,-148 741,-129 688,-129"/>
<text text-anchor="middle" x="714.5" y="-136" font-family="Helvetica,sans-Serif" font-size="10.00">cstddef</text>
</a>
</g>
</g>
<!-- Node14&#45;&gt;Node16 -->
<g id="edge23" class="edge">
<title>Node14&#45;&gt;Node16</title>
<path fill="none" stroke="midnightblue" d="M817.45,-195.73C797.38,-184.77 762.8,-165.88 739.31,-153.05"/>
<polygon fill="midnightblue" stroke="midnightblue" points="740.75,-149.85 730.29,-148.13 737.39,-155.99 740.75,-149.85"/>
</g>
<!-- Node17 -->
<g id="node18" class="node">
<title>Node17</title>
<g id="a_node18"><a xlink:title=" ">
<polygon fill="white" stroke="#bfbfbf" points="759,-129 759,-148 824,-148 824,-129 759,-129"/>
<text text-anchor="middle" x="791.5" y="-136" font-family="Helvetica,sans-Serif" font-size="10.00">functional</text>
</a>
</g>
</g>
<!-- Node14&#45;&gt;Node17 -->
<g id="edge24" class="edge">
<title>Node14&#45;&gt;Node17</title>
<path fill="none" stroke="midnightblue" d="M827.84,-195.73C821.41,-185.79 810.78,-169.34 802.67,-156.79"/>
<polygon fill="midnightblue" stroke="midnightblue" points="805.44,-154.63 797.07,-148.13 799.56,-158.43 805.44,-154.63"/>
</g>
<!-- Node18 -->
<g id="node19" class="node">
<title>Node18</title>
<g id="a_node19"><a xlink:title=" ">
<polygon fill="white" stroke="#bfbfbf" points="842.5,-129 842.5,-148 880.5,-148 880.5,-129 842.5,-129"/>
<text text-anchor="middle" x="861.5" y="-136" font-family="Helvetica,sans-Serif" font-size="10.00">map</text>
</a>
</g>
</g>
<!-- Node14&#45;&gt;Node18 -->
<g id="edge25" class="edge">
<title>Node14&#45;&gt;Node18</title>
<path fill="none" stroke="midnightblue" d="M837.28,-195.73C841.47,-185.99 848.37,-169.98 853.73,-157.53"/>
<polygon fill="midnightblue" stroke="midnightblue" points="857.04,-158.7 857.78,-148.13 850.61,-155.93 857.04,-158.7"/>
</g>
<!-- Node19 -->
<g id="node20" class="node">
<title>Node19</title>
<g id="a_node20"><a xlink:title=" ">
<polygon fill="white" stroke="#bfbfbf" points="898.5,-129 898.5,-148 954.5,-148 954.5,-129 898.5,-129"/>
<text text-anchor="middle" x="926.5" y="-136" font-family="Helvetica,sans-Serif" font-size="10.00">optional</text>
</a>
</g>
</g>
<!-- Node14&#45;&gt;Node19 -->
<g id="edge26" class="edge">
<title>Node14&#45;&gt;Node19</title>
<path fill="none" stroke="midnightblue" d="M846.04,-195.73C861.38,-185.01 887.56,-166.72 905.88,-153.91"/>
<polygon fill="midnightblue" stroke="midnightblue" points="907.96,-156.72 914.16,-148.13 903.95,-150.99 907.96,-156.72"/>
</g>
<!-- Node20 -->
<g id="node21" class="node">
<title>Node20</title>
<g id="a_node21"><a xlink:title=" ">
<polygon fill="white" stroke="#bfbfbf" points="972.5,-129 972.5,-148 1004.5,-148 1004.5,-129 972.5,-129"/>
<text text-anchor="middle" x="988.5" y="-136" font-family="Helvetica,sans-Serif" font-size="10.00">set</text>
</a>
</g>
</g>
<!-- Node14&#45;&gt;Node20 -->
<g id="edge27" class="edge">
<title>Node14&#45;&gt;Node20</title>
<path fill="none" stroke="midnightblue" d="M858.91,-195.95C885.48,-186.7 928.15,-170.99 963.5,-154 964.2,-153.67 964.9,-153.32 965.6,-152.96"/>
<polygon fill="midnightblue" stroke="midnightblue" points="967.58,-155.87 974.69,-148.02 964.23,-149.72 967.58,-155.87"/>
</g>
<!-- Node21 -->
<g id="node22" class="node">
<title>Node21</title>
<g id="a_node22"><a xlink:title=" ">
<polygon fill="white" stroke="#bfbfbf" points="1023,-129 1023,-148 1070,-148 1070,-129 1023,-129"/>
<text text-anchor="middle" x="1046.5" y="-136" font-family="Helvetica,sans-Serif" font-size="10.00">vector</text>
</a>
</g>
</g>
<!-- Node14&#45;&gt;Node21 -->
<g id="edge31" class="edge">
<title>Node14&#45;&gt;Node21</title>
<path fill="none" stroke="midnightblue" d="M869.48,-195.99C906.16,-186.95 964.45,-171.56 1013.5,-154 1015.16,-153.41 1016.86,-152.77 1018.56,-152.1"/>
<polygon fill="midnightblue" stroke="midnightblue" points="1020.3,-155.17 1028.18,-148.09 1017.61,-148.7 1020.3,-155.17"/>
</g>
</g>
</svg>
        <g id="navigator" transform="translate(0 0)" fill="#404254">
                <rect fill="#f2f5e9" fill-opacity="0.5" stroke="#606060" stroke-width=".5" x="0" y="0" width="60" height="60"/>
                <use id="zoomplus" xlink:href="#zoomPlus" x="17" y="9" onmousedown="handleZoom(evt,'in')"/>
                <use id="zoomminus" xlink:href="#zoomMin" x="42" y="9" onmousedown="handleZoom(evt,'out')"/>
                <use id="reset" xlink:href="#resetDef" x="30" y="36" onmousedown="handleReset()"/>
                <g id="arrowUp" xlink:href="#dirArrow" transform="translate(30 24)" onmousedown="handlePan(0,-1)">
                  <use xlink:href="#rim" fill="#404040">
                        <set attributeName="fill" to="#808080" begin="arrowUp.mouseover" end="arrowUp.mouseout"/>
                  </use>
                  <path fill="none" stroke="white" stroke-width="1.5" d="M0,-3.0v7 M-2.5,-0.5L0,-3.0L2.5,-0.5"/>
                </g>
                <g id="arrowRight" xlink:href="#dirArrow" transform="rotate(90) translate(36 -43)" onmousedown="handlePan(1,0)">
                  <use xlink:href="#rim" fill="#404040">
                        <set attributeName="fill" to="#808080" begin="arrowRight.mouseover" end="arrowRight.mouseout"/>
                  </use>
                  <path fill="none" stroke="white" stroke-width="1.5" d="M0,-3.0v7 M-2.5,-0.5L0,-3.0L2.5,-0.5"/>
                </g>
                <g id="arrowDown" xlink:href="#dirArrow" transform="rotate(180) translate(-30 -48)" onmousedown="handlePan(0,1)">
                  <use xlink:href="#rim" fill="#404040">
                        <set attributeName="fill" to="#808080" begin="arrowDown.mouseover" end="arrowDown.mouseout"/>
                  </use>
                  <path fill="none" stroke="white" stroke-width="1.5" d="M0,-3.0v7 M-2.5,-0.5L0,-3.0L2.5,-0.5"/>
                </g>
                <g id="arrowLeft" xlink:href="#dirArrow" transform="rotate(270) translate(-36 17)" onmousedown="handlePan(-1,0)">
                  <use xlink:href="#rim" fill="#404040">
                        <set attributeName="fill" to="#808080" begin="arrowLeft.mouseover" end="arrowLeft.mouseout"/>
                  </use>
                  <path fill="none" stroke="white" stroke-width="1.5" d="M0,-3.0v7 M-2.5,-0.5L0,-3.0L2.5,-0.5"/>
                </g>
        </g>
        <svg viewBox="0 0 15 15" width="100%" height="30px" preserveAspectRatio="xMaxYMin meet">
         <g id="arrow_out" transform="scale(0.3 0.3)">
          <a xlink:href="penetration__as__point__pair_8h__incl_org.svg" target="_base">
           <rect id="button" ry="5" rx="5" y="6" x="6" height="38" width="38"
                fill="#f2f5e9" fill-opacity="0.5" stroke="#606060" stroke-width="1.0"/>
           <path id="arrow"
             d="M 11.500037,31.436501 C 11.940474,20.09759 22.043105,11.32322 32.158766,21.979434 L 37.068811,17.246167 C 37.068811,17.246167 37.088388,32 37.088388,32 L 22.160133,31.978069 C 22.160133,31.978069 26.997745,27.140456 26.997745,27.140456 C 18.528582,18.264221 13.291696,25.230495 11.500037,31.436501 z"
             style="fill:#404040;"/>
          </a>
         </g>
        </svg>
</svg>
