<?xml version="1.0" encoding="UTF-8" standalone="no"?>
<!DOCTYPE svg PUBLIC "-//W3C//DTD SVG 1.1//EN"
 "http://www.w3.org/Graphics/SVG/1.1/DTD/svg11.dtd">
<!-- Generated by graphviz version 2.43.0 (0)
 -->
<!-- Title: drake/geometry/query_results/penetration_as_point_pair.h Pages: 1 -->
<!--zoomable 441 -->
<svg id="main" version="1.1" xmlns="http://www.w3.org/2000/svg" xmlns:xlink="http://www.w3.org/1999/xlink" xml:space="preserve" onload="init(evt)">
<style type="text/css"><![CDATA[
.edge:hover path { stroke: red; }
.edge:hover polygon { stroke: red; fill: red; }
]]></style>
<script type="text/javascript"><![CDATA[
var edges = document.getElementsByTagName('g');
if (edges && edges.length) {
  for (var i=0;i<edges.length;i++) {
    if (edges[i].id.substr(0,4)=='edge') {
      edges[i].setAttribute('class','edge');
    }
  }
}
]]></script>
        <defs>
                <circle id="rim" cx="0" cy="0" r="7"/>
                <circle id="rim2" cx="0" cy="0" r="3.5"/>
                <g id="zoomPlus">
                        <use xlink:href="#rim" fill="#404040">
                                <set attributeName="fill" to="#808080" begin="zoomplus.mouseover" end="zoomplus.mouseout"/>
                        </use>
                        <path d="M-4,0h8M0,-4v8" fill="none" stroke="white" stroke-width="1.5" pointer-events="none"/>
                </g>
                <g id="zoomMin">
                        <use xlink:href="#rim" fill="#404040">
                                <set attributeName="fill" to="#808080" begin="zoomminus.mouseover" end="zoomminus.mouseout"/>
                        </use>
                        <path d="M-4,0h8" fill="none" stroke="white" stroke-width="1.5" pointer-events="none"/>
                </g>
                <g id="dirArrow">
                        <path fill="none" stroke="white" stroke-width="1.5" d="M0,-3.0v7 M-2.5,-0.5L0,-3.0L2.5,-0.5"/>
                </g>
               <g id="resetDef">
                       <use xlink:href="#rim2" fill="#404040">
                               <set attributeName="fill" to="#808080" begin="reset.mouseover" end="reset.mouseout"/>
                       </use>
               </g>
        </defs>

<script type="text/javascript">
var viewWidth = 1592;
var viewHeight = 441;
var sectionId = 'dynsection-0';
</script>
<script xlink:href="svgpan.js"/>
<svg id="graph" class="graph">
<g id="viewport">
<title>drake/geometry/query_results/penetration_as_point_pair.h</title>
<polygon fill="white" stroke="transparent" points="-4,4 -4,-437 1588,-437 1588,4 -4,4"/>
<!-- Node0 -->
<g id="node1" class="node">
<title>Node0</title>
<g id="a_node1"><a xlink:title=" ">
<polygon fill="#bfbfbf" stroke="black" points="261,-391.5 261,-432.5 386,-432.5 386,-391.5 261,-391.5"/>
<text text-anchor="start" x="269" y="-420.5" font-family="Helvetica,sans-Serif" font-size="10.00">drake/geometry/query</text>
<text text-anchor="start" x="269" y="-409.5" font-family="Helvetica,sans-Serif" font-size="10.00">_results/penetration</text>
<text text-anchor="middle" x="323.5" y="-398.5" font-family="Helvetica,sans-Serif" font-size="10.00">_as_point_pair.h</text>
</a>
</g>
</g>
<!-- Node1 -->
<g id="node2" class="node">
<title>Node1</title>
<g id="a_node2"><a xlink:title=" ">
<polygon fill="white" stroke="#bfbfbf" points="375,-129 375,-148 420,-148 420,-129 375,-129"/>
<text text-anchor="middle" x="397.5" y="-136" font-family="Helvetica,sans-Serif" font-size="10.00">utility</text>
</a>
</g>
</g>
<!-- Node0&#45;&gt;Node1 -->
<g id="edge1" class="edge">
<title>Node0&#45;&gt;Node1</title>
<path fill="none" stroke="midnightblue" d="M303.02,-391.37C263.1,-350.71 182.88,-255.61 231.5,-190 262.07,-148.74 325.54,-140.04 364.53,-138.83"/>
<polygon fill="midnightblue" stroke="midnightblue" points="364.89,-142.32 374.83,-138.66 364.78,-135.32 364.89,-142.32"/>
</g>
<!-- Node2 -->
<g id="node3" class="node">
<title>Node2</title>
<g id="a_node3"><a xlink:href="eigen__types_8h.html" target="_top" xlink:title="This file contains abbreviated definitions for certain specializations of Eigen::Matrix that are comm...">
<polygon fill="white" stroke="black" points="264,-257.5 264,-287.5 383,-287.5 383,-257.5 264,-257.5"/>
<text text-anchor="start" x="272" y="-275.5" font-family="Helvetica,sans-Serif" font-size="10.00">drake/common/eigen</text>
<text text-anchor="middle" x="323.5" y="-264.5" font-family="Helvetica,sans-Serif" font-size="10.00">_types.h</text>
</a>
</g>
</g>
<!-- Node0&#45;&gt;Node2 -->
<g id="edge2" class="edge">
<title>Node0&#45;&gt;Node2</title>
<path fill="none" stroke="midnightblue" d="M323.5,-391.3C323.5,-366.63 323.5,-324.38 323.5,-297.75"/>
<polygon fill="midnightblue" stroke="midnightblue" points="327,-297.72 323.5,-287.72 320,-297.72 327,-297.72"/>
</g>
<!-- Node9 -->
<g id="node10" class="node">
<title>Node9</title>
<g id="a_node10"><a xlink:href="geometry__ids_8h.html" target="_top" xlink:title=" ">
<polygon fill="white" stroke="black" points="400.5,-324.5 400.5,-354.5 544.5,-354.5 544.5,-324.5 400.5,-324.5"/>
<text text-anchor="start" x="408.5" y="-342.5" font-family="Helvetica,sans-Serif" font-size="10.00">drake/geometry/geometry</text>
<text text-anchor="middle" x="472.5" y="-331.5" font-family="Helvetica,sans-Serif" font-size="10.00">_ids.h</text>
</a>
</g>
</g>
<!-- Node0&#45;&gt;Node9 -->
<g id="edge11" class="edge">
<title>Node0&#45;&gt;Node9</title>
<path fill="none" stroke="midnightblue" d="M365,-391.36C386.36,-381.26 412.25,-369.01 433.27,-359.06"/>
<polygon fill="midnightblue" stroke="midnightblue" points="435.01,-362.11 442.55,-354.67 432.02,-355.78 435.01,-362.11"/>
</g>
<!-- Node2&#45;&gt;Node1 -->
<g id="edge3" class="edge">
<title>Node2&#45;&gt;Node1</title>
<path fill="none" stroke="midnightblue" d="M335.01,-257.46C342.77,-247.61 352.93,-233.95 360.5,-221 372.6,-200.31 383.55,-174.97 390.34,-158.1"/>
<polygon fill="midnightblue" stroke="midnightblue" points="393.77,-158.95 394.18,-148.36 387.26,-156.38 393.77,-158.95"/>
</g>
<!-- Node3 -->
<g id="node4" class="node">
<title>Node3</title>
<g id="a_node4"><a xlink:title=" ">
<polygon fill="white" stroke="#bfbfbf" points="241,-196 241,-215 318,-215 318,-196 241,-196"/>
<text text-anchor="middle" x="279.5" y="-203" font-family="Helvetica,sans-Serif" font-size="10.00">Eigen/Dense</text>
</a>
</g>
</g>
<!-- Node2&#45;&gt;Node3 -->
<g id="edge4" class="edge">
<title>Node2&#45;&gt;Node3</title>
<path fill="none" stroke="midnightblue" d="M313.95,-257.4C307.23,-247.46 298.19,-234.11 291.06,-223.57"/>
<polygon fill="midnightblue" stroke="midnightblue" points="293.89,-221.51 285.39,-215.19 288.09,-225.44 293.89,-221.51"/>
</g>
<!-- Node4 -->
<g id="node5" class="node">
<title>Node4</title>
<g id="a_node5"><a xlink:href="constants_8h.html" target="_top" xlink:title=" ">
<polygon fill="white" stroke="black" points="36,-196 36,-215 185,-215 185,-196 36,-196"/>
<text text-anchor="middle" x="110.5" y="-203" font-family="Helvetica,sans-Serif" font-size="10.00">drake/common/constants.h</text>
</a>
</g>
</g>
<!-- Node2&#45;&gt;Node4 -->
<g id="edge5" class="edge">
<title>Node2&#45;&gt;Node4</title>
<path fill="none" stroke="midnightblue" d="M277.54,-257.48C238.87,-245.67 184.23,-229 148.12,-217.98"/>
<polygon fill="midnightblue" stroke="midnightblue" points="149.03,-214.6 138.45,-215.03 146.99,-221.3 149.03,-214.6"/>
</g>
<!-- Node5 -->
<g id="node6" class="node">
<title>Node5</title>
<g id="a_node6"><a xlink:href="drake__deprecated_8h.html" target="_top" xlink:title="Provides a portable macro for use in generating compile&#45;time warnings for use of code that is permitt...">
<polygon fill="white" stroke="black" points="0,-123.5 0,-153.5 119,-153.5 119,-123.5 0,-123.5"/>
<text text-anchor="start" x="8" y="-141.5" font-family="Helvetica,sans-Serif" font-size="10.00">drake/common/drake</text>
<text text-anchor="middle" x="59.5" y="-130.5" font-family="Helvetica,sans-Serif" font-size="10.00">_deprecated.h</text>
</a>
</g>
</g>
<!-- Node2&#45;&gt;Node5 -->
<g id="edge10" class="edge">
<title>Node2&#45;&gt;Node5</title>
<path fill="none" stroke="midnightblue" d="M263.98,-270.12C186.17,-266.91 56.28,-256.27 26.5,-221 11.94,-203.76 25.2,-179.26 39,-161.63"/>
<polygon fill="midnightblue" stroke="midnightblue" points="41.99,-163.51 45.7,-153.59 36.61,-159.03 41.99,-163.51"/>
</g>
<!-- Node6 -->
<g id="node7" class="node">
<title>Node6</title>
<g id="a_node7"><a xlink:href="drake__assert_8h.html" target="_top" xlink:title="Provides Drake&#39;s assertion implementation.">
<polygon fill="white" stroke="black" points="1023,-56.5 1023,-86.5 1142,-86.5 1142,-56.5 1023,-56.5"/>
<text text-anchor="start" x="1031" y="-74.5" font-family="Helvetica,sans-Serif" font-size="10.00">drake/common/drake</text>
<text text-anchor="middle" x="1082.5" y="-63.5" font-family="Helvetica,sans-Serif" font-size="10.00">_assert.h</text>
</a>
</g>
</g>
<!-- Node2&#45;&gt;Node6 -->
<g id="edge7" class="edge">
<title>Node2&#45;&gt;Node6</title>
<path fill="none" stroke="midnightblue" d="M325.41,-257.5C330.29,-223.89 344.35,-140.2 365.5,-123 414.95,-82.78 842.22,-74.59 1012.7,-72.93"/>
<polygon fill="midnightblue" stroke="midnightblue" points="1012.85,-76.43 1022.82,-72.83 1012.79,-69.43 1012.85,-76.43"/>
</g>
<!-- Node8 -->
<g id="node9" class="node">
<title>Node8</title>
<g id="a_node9"><a xlink:href="drake__copyable_8h.html" target="_top" xlink:title="Provides careful macros to selectively enable or disable the special member functions for copy&#45;constr...">
<polygon fill="white" stroke="black" points="413,-190.5 413,-220.5 532,-220.5 532,-190.5 413,-190.5"/>
<text text-anchor="start" x="421" y="-208.5" font-family="Helvetica,sans-Serif" font-size="10.00">drake/common/drake</text>
<text text-anchor="middle" x="472.5" y="-197.5" font-family="Helvetica,sans-Serif" font-size="10.00">_copyable.h</text>
</a>
</g>
</g>
<!-- Node2&#45;&gt;Node8 -->
<g id="edge9" class="edge">
<title>Node2&#45;&gt;Node8</title>
<path fill="none" stroke="midnightblue" d="M355.83,-257.4C377.8,-247.81 407.06,-235.05 430.78,-224.7"/>
<polygon fill="midnightblue" stroke="midnightblue" points="432.47,-227.78 440.23,-220.58 429.67,-221.37 432.47,-227.78"/>
</g>
<!-- Node4&#45;&gt;Node5 -->
<g id="edge6" class="edge">
<title>Node4&#45;&gt;Node5</title>
<path fill="none" stroke="midnightblue" d="M103.62,-195.73C96.8,-187.03 86.06,-173.34 76.88,-161.65"/>
<polygon fill="midnightblue" stroke="midnightblue" points="79.48,-159.3 70.55,-153.59 73.97,-163.62 79.48,-159.3"/>
</g>
<!-- Node7 -->
<g id="node8" class="node">
<title>Node7</title>
<g id="a_node8"><a xlink:title=" ">
<polygon fill="white" stroke="#bfbfbf" points="1048,-0.5 1048,-19.5 1117,-19.5 1117,-0.5 1048,-0.5"/>
<text text-anchor="middle" x="1082.5" y="-7.5" font-family="Helvetica,sans-Serif" font-size="10.00">type_traits</text>
</a>
</g>
</g>
<!-- Node6&#45;&gt;Node7 -->
<g id="edge8" class="edge">
<title>Node6&#45;&gt;Node7</title>
<path fill="none" stroke="midnightblue" d="M1082.5,-56.4C1082.5,-48.47 1082.5,-38.46 1082.5,-29.86"/>
<polygon fill="midnightblue" stroke="midnightblue" points="1086,-29.66 1082.5,-19.66 1079,-29.66 1086,-29.66"/>
</g>
<!-- Node9&#45;&gt;Node8 -->
<g id="edge12" class="edge">
<title>Node9&#45;&gt;Node8</title>
<path fill="none" stroke="midnightblue" d="M472.5,-324.37C472.5,-302.04 472.5,-258.31 472.5,-230.85"/>
<polygon fill="midnightblue" stroke="midnightblue" points="476,-230.52 472.5,-220.52 469,-230.52 476,-230.52"/>
</g>
<!-- Node10 -->
<g id="node11" class="node">
<title>Node10</title>
<g id="a_node11"><a xlink:href="identifier_8h.html" target="_top" xlink:title=" ">
<polygon fill="white" stroke="black" points="564.5,-263 564.5,-282 708.5,-282 708.5,-263 564.5,-263"/>
<text text-anchor="middle" x="636.5" y="-270" font-family="Helvetica,sans-Serif" font-size="10.00">drake/common/identifier.h</text>
</a>
</g>
</g>
<!-- Node9&#45;&gt;Node10 -->
<g id="edge13" class="edge">
<title>Node9&#45;&gt;Node10</title>
<path fill="none" stroke="midnightblue" d="M508.09,-324.4C537.12,-312.89 577.72,-296.8 605.45,-285.81"/>
<polygon fill="midnightblue" stroke="midnightblue" points="607.03,-288.95 615.04,-282.01 604.45,-282.44 607.03,-288.95"/>
</g>
<!-- Node10&#45;&gt;Node1 -->
<g id="edge17" class="edge">
<title>Node10&#45;&gt;Node1</title>
<path fill="none" stroke="midnightblue" d="M625.37,-262.74C612.84,-252.81 591.96,-236.05 574.5,-221 559.01,-207.65 558.18,-200.28 540.5,-190 495.66,-163.94 477.86,-172.73 429.5,-154 428.08,-153.45 426.63,-152.87 425.17,-152.27"/>
<polygon fill="midnightblue" stroke="midnightblue" points="426.19,-148.9 415.63,-148.14 423.41,-155.32 426.19,-148.9"/>
</g>
<!-- Node10&#45;&gt;Node8 -->
<g id="edge18" class="edge">
<title>Node10&#45;&gt;Node8</title>
<path fill="none" stroke="midnightblue" d="M614.72,-262.87C590.01,-253.07 549.02,-236.83 517.38,-224.29"/>
<polygon fill="midnightblue" stroke="midnightblue" points="518.48,-220.96 507.89,-220.53 515.9,-227.47 518.48,-220.96"/>
</g>
<!-- Node11 -->
<g id="node12" class="node">
<title>Node11</title>
<g id="a_node12"><a xlink:title=" ">
<polygon fill="white" stroke="#bfbfbf" points="438.5,-129 438.5,-148 488.5,-148 488.5,-129 438.5,-129"/>
<text text-anchor="middle" x="463.5" y="-136" font-family="Helvetica,sans-Serif" font-size="10.00">cstdint</text>
</a>
</g>
</g>
<!-- Node10&#45;&gt;Node11 -->
<g id="edge14" class="edge">
<title>Node10&#45;&gt;Node11</title>
<path fill="none" stroke="midnightblue" d="M631.81,-262.76C622.71,-246.49 601.18,-211.3 574.5,-190 571.01,-187.22 523.99,-166.2 492.28,-152.18"/>
<polygon fill="midnightblue" stroke="midnightblue" points="493.56,-148.91 483,-148.07 490.73,-155.32 493.56,-148.91"/>
</g>
<!-- Node12 -->
<g id="node13" class="node">
<title>Node12</title>
<g id="a_node13"><a xlink:title=" ">
<polygon fill="white" stroke="#bfbfbf" points="847,-196 847,-215 904,-215 904,-196 847,-196"/>
<text text-anchor="middle" x="875.5" y="-203" font-family="Helvetica,sans-Serif" font-size="10.00">ostream</text>
</a>
</g>
</g>
<!-- Node10&#45;&gt;Node12 -->
<g id="edge15" class="edge">
<title>Node10&#45;&gt;Node12</title>
<path fill="none" stroke="midnightblue" d="M672.84,-262.98C712.36,-253.52 777.26,-237.41 832.5,-221 835.43,-220.13 838.45,-219.19 841.48,-218.23"/>
<polygon fill="midnightblue" stroke="midnightblue" points="842.63,-221.53 851.04,-215.09 840.45,-214.88 842.63,-221.53"/>
</g>
<!-- Node13 -->
<g id="node14" class="node">
<title>Node13</title>
<g id="a_node14"><a xlink:title=" ">
<polygon fill="white" stroke="#bfbfbf" points="506.5,-129 506.5,-148 550.5,-148 550.5,-129 506.5,-129"/>
<text text-anchor="middle" x="528.5" y="-136" font-family="Helvetica,sans-Serif" font-size="10.00">string</text>
</a>
</g>
</g>
<!-- Node10&#45;&gt;Node13 -->
<g id="edge16" class="edge">
<title>Node10&#45;&gt;Node13</title>
<path fill="none" stroke="midnightblue" d="M636,-262.97C634.66,-247.05 629.82,-212.41 612.5,-190 604.61,-179.8 576.62,-163.97 555.09,-152.76"/>
<polygon fill="midnightblue" stroke="midnightblue" points="556.54,-149.57 546.05,-148.12 553.35,-155.8 556.54,-149.57"/>
</g>
<!-- Node14 -->
<g id="node15" class="node">
<title>Node14</title>
<g id="a_node15"><a xlink:href="drake__throw_8h.html" target="_top" xlink:title="Provides a convenient wrapper to throw an exception when a condition is unmet.">
<polygon fill="white" stroke="black" points="1111,-123.5 1111,-153.5 1230,-153.5 1230,-123.5 1111,-123.5"/>
<text text-anchor="start" x="1119" y="-141.5" font-family="Helvetica,sans-Serif" font-size="10.00">drake/common/drake</text>
<text text-anchor="middle" x="1170.5" y="-130.5" font-family="Helvetica,sans-Serif" font-size="10.00">_throw.h</text>
</a>
</g>
</g>
<!-- Node10&#45;&gt;Node14 -->
<g id="edge19" class="edge">
<title>Node10&#45;&gt;Node14</title>
<path fill="none" stroke="midnightblue" d="M678.7,-262.98C712.64,-255.07 760.86,-241.41 799.5,-221 819.08,-210.66 818.18,-198.79 838.5,-190 940.32,-145.97 975.92,-171.33 1085.5,-154 1090.46,-153.22 1095.57,-152.39 1100.72,-151.54"/>
<polygon fill="midnightblue" stroke="midnightblue" points="1101.33,-154.99 1110.62,-149.9 1100.19,-148.08 1101.33,-154.99"/>
</g>
<!-- Node15 -->
<g id="node16" class="node">
<title>Node15</title>
<g id="a_node16"><a xlink:href="fmt__ostream_8h.html" target="_top" xlink:title=" ">
<polygon fill="white" stroke="black" points="1298.5,-196 1298.5,-215 1462.5,-215 1462.5,-196 1298.5,-196"/>
<text text-anchor="middle" x="1380.5" y="-203" font-family="Helvetica,sans-Serif" font-size="10.00">drake/common/fmt_ostream.h</text>
</a>
</g>
</g>
<!-- Node10&#45;&gt;Node15 -->
<g id="edge22" class="edge">
<title>Node10&#45;&gt;Node15</title>
<path fill="none" stroke="midnightblue" d="M708.51,-265.21C844.34,-253.34 1138.14,-227.67 1288.21,-214.56"/>
<polygon fill="midnightblue" stroke="midnightblue" points="1288.67,-218.04 1298.33,-213.68 1288.06,-211.06 1288.67,-218.04"/>
</g>
<!-- Node21 -->
<g id="node22" class="node">
<title>Node21</title>
<g id="a_node22"><a xlink:href="hash_8h.html" target="_top" xlink:title=" ">
<polygon fill="white" stroke="black" points="665,-196 665,-215 790,-215 790,-196 665,-196"/>
<text text-anchor="middle" x="727.5" y="-203" font-family="Helvetica,sans-Serif" font-size="10.00">drake/common/hash.h</text>
</a>
</g>
</g>
<!-- Node10&#45;&gt;Node21 -->
<g id="edge29" class="edge">
<title>Node10&#45;&gt;Node21</title>
<path fill="none" stroke="midnightblue" d="M648.77,-262.73C663.65,-252.11 688.93,-234.05 706.83,-221.26"/>
<polygon fill="midnightblue" stroke="midnightblue" points="709.32,-223.79 715.42,-215.13 705.25,-218.09 709.32,-223.79"/>
</g>
<!-- Node14&#45;&gt;Node6 -->
<g id="edge21" class="edge">
<title>Node14&#45;&gt;Node6</title>
<path fill="none" stroke="midnightblue" d="M1151.41,-123.4C1139.18,-114.37 1123.13,-102.51 1109.6,-92.52"/>
<polygon fill="midnightblue" stroke="midnightblue" points="1111.68,-89.7 1101.56,-86.58 1107.52,-95.33 1111.68,-89.7"/>
</g>
<!-- Node14&#45;&gt;Node7 -->
<g id="edge20" class="edge">
<title>Node14&#45;&gt;Node7</title>
<path fill="none" stroke="midnightblue" d="M1170.32,-123.24C1169.44,-105.88 1165.75,-76.35 1151.5,-56 1141.9,-42.29 1126.66,-31.72 1112.95,-24.27"/>
<polygon fill="midnightblue" stroke="midnightblue" points="1114.28,-21.02 1103.78,-19.62 1111.11,-27.27 1114.28,-21.02"/>
</g>
<!-- Node16 -->
<g id="node17" class="node">
<title>Node16</title>
<g id="a_node17"><a xlink:title=" ">
<polygon fill="white" stroke="#bfbfbf" points="1352.5,-129 1352.5,-148 1408.5,-148 1408.5,-129 1352.5,-129"/>
<text text-anchor="middle" x="1380.5" y="-136" font-family="Helvetica,sans-Serif" font-size="10.00">sstream</text>
</a>
</g>
</g>
<!-- Node15&#45;&gt;Node16 -->
<g id="edge23" class="edge">
<title>Node15&#45;&gt;Node16</title>
<path fill="none" stroke="midnightblue" d="M1380.5,-195.73C1380.5,-186.18 1380.5,-170.62 1380.5,-158.28"/>
<polygon fill="midnightblue" stroke="midnightblue" points="1384,-158.13 1380.5,-148.13 1377,-158.13 1384,-158.13"/>
</g>
<!-- Node17 -->
<g id="node18" class="node">
<title>Node17</title>
<g id="a_node18"><a xlink:title=" ">
<polygon fill="white" stroke="#bfbfbf" points="1400,-62 1400,-81 1473,-81 1473,-62 1400,-62"/>
<text text-anchor="middle" x="1436.5" y="-69" font-family="Helvetica,sans-Serif" font-size="10.00">string_view</text>
</a>
</g>
</g>
<!-- Node15&#45;&gt;Node17 -->
<g id="edge24" class="edge">
<title>Node15&#45;&gt;Node17</title>
<path fill="none" stroke="midnightblue" d="M1388.52,-195.9C1396.97,-186.37 1410.06,-170.2 1417.5,-154 1426.77,-133.83 1431.74,-108.72 1434.24,-91.74"/>
<polygon fill="midnightblue" stroke="midnightblue" points="1437.76,-91.82 1435.6,-81.44 1430.82,-90.9 1437.76,-91.82"/>
</g>
<!-- Node18 -->
<g id="node19" class="node">
<title>Node18</title>
<g id="a_node19"><a xlink:title=" ">
<polygon fill="white" stroke="#bfbfbf" points="1248.5,-129 1248.5,-148 1334.5,-148 1334.5,-129 1248.5,-129"/>
<text text-anchor="middle" x="1291.5" y="-136" font-family="Helvetica,sans-Serif" font-size="10.00">fmt/ostream.h</text>
</a>
</g>
</g>
<!-- Node15&#45;&gt;Node18 -->
<g id="edge25" class="edge">
<title>Node15&#45;&gt;Node18</title>
<path fill="none" stroke="midnightblue" d="M1368.5,-195.73C1353.95,-185.11 1329.22,-167.05 1311.72,-154.26"/>
<polygon fill="midnightblue" stroke="midnightblue" points="1313.45,-151.2 1303.31,-148.13 1309.32,-156.85 1313.45,-151.2"/>
</g>
<!-- Node19 -->
<g id="node20" class="node">
<title>Node19</title>
<g id="a_node20"><a xlink:href="fmt_8h.html" target="_top" xlink:title=" ">
<polygon fill="white" stroke="black" points="1465,-129 1465,-148 1584,-148 1584,-129 1465,-129"/>
<text text-anchor="middle" x="1524.5" y="-136" font-family="Helvetica,sans-Serif" font-size="10.00">drake/common/fmt.h</text>
</a>
</g>
</g>
<!-- Node15&#45;&gt;Node19 -->
<g id="edge26" class="edge">
<title>Node15&#45;&gt;Node19</title>
<path fill="none" stroke="midnightblue" d="M1399.62,-195.87C1424.26,-184.75 1467.31,-165.32 1495.86,-152.43"/>
<polygon fill="midnightblue" stroke="midnightblue" points="1497.62,-155.47 1505.3,-148.17 1494.74,-149.09 1497.62,-155.47"/>
</g>
<!-- Node19&#45;&gt;Node17 -->
<g id="edge27" class="edge">
<title>Node19&#45;&gt;Node17</title>
<path fill="none" stroke="midnightblue" d="M1512.63,-128.73C1498.25,-118.11 1473.8,-100.05 1456.49,-87.26"/>
<polygon fill="midnightblue" stroke="midnightblue" points="1458.3,-84.25 1448.18,-81.13 1454.14,-89.88 1458.3,-84.25"/>
</g>
<!-- Node20 -->
<g id="node21" class="node">
<title>Node20</title>
<g id="a_node21"><a xlink:title=" ">
<polygon fill="white" stroke="#bfbfbf" points="1491,-62 1491,-81 1570,-81 1570,-62 1491,-62"/>
<text text-anchor="middle" x="1530.5" y="-69" font-family="Helvetica,sans-Serif" font-size="10.00">fmt/format.h</text>
</a>
</g>
</g>
<!-- Node19&#45;&gt;Node20 -->
<g id="edge28" class="edge">
<title>Node19&#45;&gt;Node20</title>
<path fill="none" stroke="midnightblue" d="M1525.31,-128.73C1526.19,-119.18 1527.63,-103.62 1528.77,-91.28"/>
<polygon fill="midnightblue" stroke="midnightblue" points="1532.27,-91.41 1529.7,-81.13 1525.3,-90.76 1532.27,-91.41"/>
</g>
<!-- Node21&#45;&gt;Node1 -->
<g id="edge39" class="edge">
<title>Node21&#45;&gt;Node1</title>
<path fill="none" stroke="midnightblue" d="M664.78,-198.62C603.72,-191.79 508.79,-178.24 429.5,-154 427.58,-153.41 425.61,-152.73 423.66,-152"/>
<polygon fill="midnightblue" stroke="midnightblue" points="424.7,-148.64 414.12,-148.01 422,-155.1 424.7,-148.64"/>
</g>
<!-- Node21&#45;&gt;Node6 -->
<g id="edge41" class="edge">
<title>Node21&#45;&gt;Node6</title>
<path fill="none" stroke="midnightblue" d="M771.01,-195.93C781.92,-193.88 793.63,-191.78 804.5,-190 861.85,-180.62 1020.59,-193.18 1063.5,-154 1079.2,-139.67 1083.16,-115.1 1083.67,-96.68"/>
<polygon fill="midnightblue" stroke="midnightblue" points="1087.17,-96.65 1083.64,-86.67 1080.17,-96.68 1087.17,-96.65"/>
</g>
<!-- Node21&#45;&gt;Node7 -->
<g id="edge38" class="edge">
<title>Node21&#45;&gt;Node7</title>
<path fill="none" stroke="midnightblue" d="M687.15,-195.94C639.07,-183.89 568.65,-159.27 597.5,-123 652.41,-53.96 928.21,-23.81 1037.65,-14.42"/>
<polygon fill="midnightblue" stroke="midnightblue" points="1038.04,-17.9 1047.71,-13.58 1037.45,-10.93 1038.04,-17.9"/>
</g>
<!-- Node21&#45;&gt;Node11 -->
<g id="edge32" class="edge">
<title>Node21&#45;&gt;Node11</title>
<path fill="none" stroke="midnightblue" d="M675.62,-195.97C628.52,-187.56 557.46,-173.18 497.5,-154 495.57,-153.38 493.61,-152.7 491.64,-151.97"/>
<polygon fill="midnightblue" stroke="midnightblue" points="492.55,-148.57 481.97,-148.12 489.96,-155.07 492.55,-148.57"/>
</g>
<!-- Node21&#45;&gt;Node13 -->
<g id="edge37" class="edge">
<title>Node21&#45;&gt;Node13</title>
<path fill="none" stroke="midnightblue" d="M697.21,-195.93C664.3,-186.43 610.28,-170.28 564.5,-154 562.6,-153.32 560.64,-152.61 558.68,-151.87"/>
<polygon fill="midnightblue" stroke="midnightblue" points="559.54,-148.44 548.95,-148.08 557,-154.97 559.54,-148.44"/>
</g>
<!-- Node21&#45;&gt;Node14 -->
<g id="edge42" class="edge">
<title>Node21&#45;&gt;Node14</title>
<path fill="none" stroke="midnightblue" d="M770.18,-195.96C781.33,-193.87 793.34,-191.74 804.5,-190 933.7,-169.89 967.37,-174.58 1096.5,-154 1097.95,-153.77 1099.42,-153.53 1100.9,-153.28"/>
<polygon fill="midnightblue" stroke="midnightblue" points="1101.53,-156.73 1110.79,-151.58 1100.34,-149.83 1101.53,-156.73"/>
</g>
<!-- Node22 -->
<g id="node23" class="node">
<title>Node22</title>
<g id="a_node23"><a xlink:title=" ">
<polygon fill="white" stroke="#bfbfbf" points="607,-129 607,-148 654,-148 654,-129 607,-129"/>
<text text-anchor="middle" x="630.5" y="-136" font-family="Helvetica,sans-Serif" font-size="10.00">cmath</text>
</a>
</g>
</g>
<!-- Node21&#45;&gt;Node22 -->
<g id="edge30" class="edge">
<title>Node21&#45;&gt;Node22</title>
<path fill="none" stroke="midnightblue" d="M714.42,-195.73C698.35,-184.96 670.87,-166.55 651.75,-153.74"/>
<polygon fill="midnightblue" stroke="midnightblue" points="653.63,-150.79 643.37,-148.13 649.73,-156.6 653.63,-150.79"/>
</g>
<!-- Node23 -->
<g id="node24" class="node">
<title>Node23</title>
<g id="a_node24"><a xlink:title=" ">
<polygon fill="white" stroke="#bfbfbf" points="672,-129 672,-148 725,-148 725,-129 672,-129"/>
<text text-anchor="middle" x="698.5" y="-136" font-family="Helvetica,sans-Serif" font-size="10.00">cstddef</text>
</a>
</g>
</g>
<!-- Node21&#45;&gt;Node23 -->
<g id="edge31" class="edge">
<title>Node21&#45;&gt;Node23</title>
<path fill="none" stroke="midnightblue" d="M723.59,-195.73C719.24,-185.99 712.1,-169.98 706.54,-157.53"/>
<polygon fill="midnightblue" stroke="midnightblue" points="709.62,-155.83 702.35,-148.13 703.23,-158.69 709.62,-155.83"/>
</g>
<!-- Node24 -->
<g id="node25" class="node">
<title>Node24</title>
<g id="a_node25"><a xlink:title=" ">
<polygon fill="white" stroke="#bfbfbf" points="743,-129 743,-148 808,-148 808,-129 743,-129"/>
<text text-anchor="middle" x="775.5" y="-136" font-family="Helvetica,sans-Serif" font-size="10.00">functional</text>
</a>
</g>
</g>
<!-- Node21&#45;&gt;Node24 -->
<g id="edge33" class="edge">
<title>Node21&#45;&gt;Node24</title>
<path fill="none" stroke="midnightblue" d="M733.97,-195.73C741.39,-185.7 753.7,-169.01 763,-156.42"/>
<polygon fill="midnightblue" stroke="midnightblue" points="766,-158.25 769.13,-148.13 760.37,-154.09 766,-158.25"/>
</g>
<!-- Node25 -->
<g id="node26" class="node">
<title>Node25</title>
<g id="a_node26"><a xlink:title=" ">
<polygon fill="white" stroke="#bfbfbf" points="826.5,-129 826.5,-148 864.5,-148 864.5,-129 826.5,-129"/>
<text text-anchor="middle" x="845.5" y="-136" font-family="Helvetica,sans-Serif" font-size="10.00">map</text>
</a>
</g>
</g>
<!-- Node21&#45;&gt;Node25 -->
<g id="edge34" class="edge">
<title>Node21&#45;&gt;Node25</title>
<path fill="none" stroke="midnightblue" d="M743.41,-195.73C763.32,-184.77 797.61,-165.88 820.9,-153.05"/>
<polygon fill="midnightblue" stroke="midnightblue" points="822.77,-156.02 829.84,-148.13 819.39,-149.89 822.77,-156.02"/>
</g>
<!-- Node26 -->
<g id="node27" class="node">
<title>Node26</title>
<g id="a_node27"><a xlink:title=" ">
<polygon fill="white" stroke="#bfbfbf" points="882.5,-129 882.5,-148 938.5,-148 938.5,-129 882.5,-129"/>
<text text-anchor="middle" x="910.5" y="-136" font-family="Helvetica,sans-Serif" font-size="10.00">optional</text>
</a>
</g>
</g>
<!-- Node21&#45;&gt;Node26 -->
<g id="edge35" class="edge">
<title>Node21&#45;&gt;Node26</title>
<path fill="none" stroke="midnightblue" d="M753.19,-195.96C782.44,-186.16 831.6,-169.45 873.5,-154 875.39,-153.3 877.34,-152.57 879.3,-151.83"/>
<polygon fill="midnightblue" stroke="midnightblue" points="880.96,-154.94 889.03,-148.08 878.44,-148.41 880.96,-154.94"/>
</g>
<!-- Node27 -->
<g id="node28" class="node">
<title>Node27</title>
<g id="a_node28"><a xlink:title=" ">
<polygon fill="white" stroke="#bfbfbf" points="956.5,-129 956.5,-148 988.5,-148 988.5,-129 956.5,-129"/>
<text text-anchor="middle" x="972.5" y="-136" font-family="Helvetica,sans-Serif" font-size="10.00">set</text>
</a>
</g>
</g>
<!-- Node21&#45;&gt;Node27 -->
<g id="edge36" class="edge">
<title>Node21&#45;&gt;Node27</title>
<path fill="none" stroke="midnightblue" d="M771.94,-195.94C826.58,-185.13 915.97,-166.43 947.5,-154 948.38,-153.65 949.26,-153.28 950.15,-152.88"/>
<polygon fill="midnightblue" stroke="midnightblue" points="952.11,-155.81 959.38,-148.1 948.89,-149.59 952.11,-155.81"/>
</g>
<!-- Node28 -->
<g id="node29" class="node">
<title>Node28</title>
<g id="a_node29"><a xlink:title=" ">
<polygon fill="white" stroke="#bfbfbf" points="1007,-129 1007,-148 1054,-148 1054,-129 1007,-129"/>
<text text-anchor="middle" x="1030.5" y="-136" font-family="Helvetica,sans-Serif" font-size="10.00">vector</text>
</a>
</g>
</g>
<!-- Node21&#45;&gt;Node28 -->
<g id="edge40" class="edge">
<title>Node21&#45;&gt;Node28</title>
<path fill="none" stroke="midnightblue" d="M772.69,-195.98C783.14,-194.01 794.2,-191.93 804.5,-190 890.26,-173.93 914.12,-179.72 997.5,-154 999.43,-153.41 1001.39,-152.73 1003.36,-152"/>
<polygon fill="midnightblue" stroke="midnightblue" points="1005.03,-155.1 1012.97,-148.09 1002.39,-148.62 1005.03,-155.1"/>
</g>
</g>
</svg>
        <g id="navigator" transform="translate(0 0)" fill="#404254">
                <rect fill="#f2f5e9" fill-opacity="0.5" stroke="#606060" stroke-width=".5" x="0" y="0" width="60" height="60"/>
                <use id="zoomplus" xlink:href="#zoomPlus" x="17" y="9" onmousedown="handleZoom(evt,'in')"/>
                <use id="zoomminus" xlink:href="#zoomMin" x="42" y="9" onmousedown="handleZoom(evt,'out')"/>
                <use id="reset" xlink:href="#resetDef" x="30" y="36" onmousedown="handleReset()"/>
                <g id="arrowUp" xlink:href="#dirArrow" transform="translate(30 24)" onmousedown="handlePan(0,-1)">
                  <use xlink:href="#rim" fill="#404040">
                        <set attributeName="fill" to="#808080" begin="arrowUp.mouseover" end="arrowUp.mouseout"/>
                  </use>
                  <path fill="none" stroke="white" stroke-width="1.5" d="M0,-3.0v7 M-2.5,-0.5L0,-3.0L2.5,-0.5"/>
                </g>
                <g id="arrowRight" xlink:href="#dirArrow" transform="rotate(90) translate(36 -43)" onmousedown="handlePan(1,0)">
                  <use xlink:href="#rim" fill="#404040">
                        <set attributeName="fill" to="#808080" begin="arrowRight.mouseover" end="arrowRight.mouseout"/>
                  </use>
                  <path fill="none" stroke="white" stroke-width="1.5" d="M0,-3.0v7 M-2.5,-0.5L0,-3.0L2.5,-0.5"/>
                </g>
                <g id="arrowDown" xlink:href="#dirArrow" transform="rotate(180) translate(-30 -48)" onmousedown="handlePan(0,1)">
                  <use xlink:href="#rim" fill="#404040">
                        <set attributeName="fill" to="#808080" begin="arrowDown.mouseover" end="arrowDown.mouseout"/>
                  </use>
                  <path fill="none" stroke="white" stroke-width="1.5" d="M0,-3.0v7 M-2.5,-0.5L0,-3.0L2.5,-0.5"/>
                </g>
                <g id="arrowLeft" xlink:href="#dirArrow" transform="rotate(270) translate(-36 17)" onmousedown="handlePan(-1,0)">
                  <use xlink:href="#rim" fill="#404040">
                        <set attributeName="fill" to="#808080" begin="arrowLeft.mouseover" end="arrowLeft.mouseout"/>
                  </use>
                  <path fill="none" stroke="white" stroke-width="1.5" d="M0,-3.0v7 M-2.5,-0.5L0,-3.0L2.5,-0.5"/>
                </g>
        </g>
        <svg viewBox="0 0 15 15" width="100%" height="30px" preserveAspectRatio="xMaxYMin meet">
         <g id="arrow_out" transform="scale(0.3 0.3)">
          <a xlink:href="penetration__as__point__pair_8h__incl_org.svg" target="_base">
           <rect id="button" ry="5" rx="5" y="6" x="6" height="38" width="38"
                fill="#f2f5e9" fill-opacity="0.5" stroke="#606060" stroke-width="1.0"/>
           <path id="arrow"
             d="M 11.500037,31.436501 C 11.940474,20.09759 22.043105,11.32322 32.158766,21.979434 L 37.068811,17.246167 C 37.068811,17.246167 37.088388,32 37.088388,32 L 22.160133,31.978069 C 22.160133,31.978069 26.997745,27.140456 26.997745,27.140456 C 18.528582,18.264221 13.291696,25.230495 11.500037,31.436501 z"
             style="fill:#404040;"/>
          </a>
         </g>
        </svg>
</svg>
