<?xml version="1.0" encoding="UTF-8" standalone="no"?>
<!DOCTYPE svg PUBLIC "-//W3C//DTD SVG 1.1//EN"
 "http://www.w3.org/Graphics/SVG/1.1/DTD/svg11.dtd">
<!-- Generated by graphviz version 2.43.0 (0)
 -->
<!-- Title: drake/geometry/proximity/plane.h Pages: 1 -->
<!--zoomable 486 -->
<svg id="main" version="1.1" xmlns="http://www.w3.org/2000/svg" xmlns:xlink="http://www.w3.org/1999/xlink" xml:space="preserve" onload="init(evt)">
<style type="text/css"><![CDATA[
.edge:hover path { stroke: red; }
.edge:hover polygon { stroke: red; fill: red; }
]]></style>
<script type="text/javascript"><![CDATA[
var edges = document.getElementsByTagName('g');
if (edges && edges.length) {
  for (var i=0;i<edges.length;i++) {
    if (edges[i].id.substr(0,4)=='edge') {
      edges[i].setAttribute('class','edge');
    }
  }
}
]]></script>
        <defs>
                <circle id="rim" cx="0" cy="0" r="7"/>
                <circle id="rim2" cx="0" cy="0" r="3.5"/>
                <g id="zoomPlus">
                        <use xlink:href="#rim" fill="#404040">
                                <set attributeName="fill" to="#808080" begin="zoomplus.mouseover" end="zoomplus.mouseout"/>
                        </use>
                        <path d="M-4,0h8M0,-4v8" fill="none" stroke="white" stroke-width="1.5" pointer-events="none"/>
                </g>
                <g id="zoomMin">
                        <use xlink:href="#rim" fill="#404040">
                                <set attributeName="fill" to="#808080" begin="zoomminus.mouseover" end="zoomminus.mouseout"/>
                        </use>
                        <path d="M-4,0h8" fill="none" stroke="white" stroke-width="1.5" pointer-events="none"/>
                </g>
                <g id="dirArrow">
                        <path fill="none" stroke="white" stroke-width="1.5" d="M0,-3.0v7 M-2.5,-0.5L0,-3.0L2.5,-0.5"/>
                </g>
               <g id="resetDef">
                       <use xlink:href="#rim2" fill="#404040">
                               <set attributeName="fill" to="#808080" begin="reset.mouseover" end="reset.mouseout"/>
                       </use>
               </g>
        </defs>

<script type="text/javascript">
var viewWidth = 1669;
var viewHeight = 486;
var sectionId = 'dynsection-0';
</script>
<script xlink:href="svgpan.js"/>
<svg id="graph" class="graph">
<g id="viewport">
<title>drake/geometry/proximity/plane.h</title>
<polygon fill="white" stroke="transparent" points="-4,4 -4,-482 1664.76,-482 1664.76,4 -4,4"/>
<!-- Node0 -->
<g id="node1" class="node">
<title>Node0</title>
<g id="a_node1"><a xlink:title=" ">
<polygon fill="#bfbfbf" stroke="black" points="599.5,-447.5 599.5,-477.5 743.5,-477.5 743.5,-447.5 599.5,-447.5"/>
<text text-anchor="start" x="607.5" y="-465.5" font-family="Helvetica,sans-Serif" font-size="10.00">drake/geometry/proximity</text>
<text text-anchor="middle" x="671.5" y="-454.5" font-family="Helvetica,sans-Serif" font-size="10.00">/plane.h</text>
</a>
</g>
</g>
<!-- Node1 -->
<g id="node2" class="node">
<title>Node1</title>
<g id="a_node2"><a xlink:title=" ">
<polygon fill="white" stroke="#bfbfbf" points="1497.5,-62 1497.5,-81 1541.5,-81 1541.5,-62 1497.5,-62"/>
<text text-anchor="middle" x="1519.5" y="-69" font-family="Helvetica,sans-Serif" font-size="10.00">limits</text>
</a>
</g>
</g>
<!-- Node0&#45;&gt;Node1 -->
<g id="edge1" class="edge">
<title>Node0&#45;&gt;Node1</title>
<path fill="none" stroke="midnightblue" d="M743.75,-459.84C971.51,-453.66 1659.5,-427.35 1659.5,-335 1659.5,-335 1659.5,-335 1659.5,-204.5 1659.5,-167.31 1664.52,-151.39 1640.5,-123 1618.08,-96.5 1579.42,-83.65 1551.84,-77.59"/>
<polygon fill="midnightblue" stroke="midnightblue" points="1552.36,-74.13 1541.86,-75.59 1550.98,-80.99 1552.36,-74.13"/>
</g>
<!-- Node2 -->
<g id="node3" class="node">
<title>Node2</title>
<g id="a_node3"><a xlink:href="drake__copyable_8h.html" target="_top" xlink:title="Provides careful macros to selectively enable or disable the special member functions for copy&#45;constr...">
<polygon fill="white" stroke="black" points="169,-123.5 169,-153.5 288,-153.5 288,-123.5 169,-123.5"/>
<text text-anchor="start" x="177" y="-141.5" font-family="Helvetica,sans-Serif" font-size="10.00">drake/common/drake</text>
<text text-anchor="middle" x="228.5" y="-130.5" font-family="Helvetica,sans-Serif" font-size="10.00">_copyable.h</text>
</a>
</g>
</g>
<!-- Node0&#45;&gt;Node2 -->
<g id="edge2" class="edge">
<title>Node0&#45;&gt;Node2</title>
<path fill="none" stroke="midnightblue" d="M599.32,-452.38C489.36,-436.45 292.5,-398.99 292.5,-335 292.5,-335 292.5,-335 292.5,-271.5 292.5,-229.58 266.04,-187 247.15,-161.94"/>
<polygon fill="midnightblue" stroke="midnightblue" points="249.75,-159.57 240.84,-153.83 244.22,-163.87 249.75,-159.57"/>
</g>
<!-- Node3 -->
<g id="node4" class="node">
<title>Node3</title>
<g id="a_node4"><a xlink:href="drake__throw_8h.html" target="_top" xlink:title="Provides a convenient wrapper to throw an exception when a condition is unmet.">
<polygon fill="white" stroke="black" points="1041,-190.5 1041,-220.5 1160,-220.5 1160,-190.5 1041,-190.5"/>
<text text-anchor="start" x="1049" y="-208.5" font-family="Helvetica,sans-Serif" font-size="10.00">drake/common/drake</text>
<text text-anchor="middle" x="1100.5" y="-197.5" font-family="Helvetica,sans-Serif" font-size="10.00">_throw.h</text>
</a>
</g>
</g>
<!-- Node0&#45;&gt;Node3 -->
<g id="edge3" class="edge">
<title>Node0&#45;&gt;Node3</title>
<path fill="none" stroke="midnightblue" d="M743.65,-456.85C791.76,-451.2 855.01,-438.68 904.5,-411 987.44,-364.6 1056.85,-271.72 1085.9,-228.97"/>
<polygon fill="midnightblue" stroke="midnightblue" points="1088.82,-230.9 1091.47,-220.65 1083,-227.01 1088.82,-230.9"/>
</g>
<!-- Node6 -->
<g id="node7" class="node">
<title>Node6</title>
<g id="a_node7"><a xlink:href="eigen__types_8h.html" target="_top" xlink:title="This file contains abbreviated definitions for certain specializations of Eigen::Matrix that are comm...">
<polygon fill="white" stroke="black" points="391,-190.5 391,-220.5 510,-220.5 510,-190.5 391,-190.5"/>
<text text-anchor="start" x="399" y="-208.5" font-family="Helvetica,sans-Serif" font-size="10.00">drake/common/eigen</text>
<text text-anchor="middle" x="450.5" y="-197.5" font-family="Helvetica,sans-Serif" font-size="10.00">_types.h</text>
</a>
</g>
</g>
<!-- Node0&#45;&gt;Node6 -->
<g id="edge7" class="edge">
<title>Node0&#45;&gt;Node6</title>
<path fill="none" stroke="midnightblue" d="M659.3,-447.43C622.7,-405.19 513.62,-279.33 469.41,-228.32"/>
<polygon fill="midnightblue" stroke="midnightblue" points="471.85,-225.79 462.66,-220.53 466.56,-230.38 471.85,-225.79"/>
</g>
<!-- Node10 -->
<g id="node11" class="node">
<title>Node10</title>
<g id="a_node11"><a xlink:href="fmt__eigen_8h.html" target="_top" xlink:title=" ">
<polygon fill="white" stroke="black" points="0,-129 0,-148 151,-148 151,-129 0,-129"/>
<text text-anchor="middle" x="75.5" y="-136" font-family="Helvetica,sans-Serif" font-size="10.00">drake/common/fmt_eigen.h</text>
</a>
</g>
</g>
<!-- Node0&#45;&gt;Node10 -->
<g id="edge21" class="edge">
<title>Node0&#45;&gt;Node10</title>
<path fill="none" stroke="midnightblue" d="M599.27,-458.43C459.47,-450.51 165.5,-423.34 165.5,-335 165.5,-335 165.5,-335 165.5,-271.5 165.5,-221.69 121.22,-176.81 94.78,-154.45"/>
<polygon fill="midnightblue" stroke="midnightblue" points="96.85,-151.63 86.9,-148.01 92.42,-157.05 96.85,-151.63"/>
</g>
<!-- Node16 -->
<g id="node17" class="node">
<title>Node16</title>
<g id="a_node17"><a xlink:href="mesh__traits_8h.html" target="_top" xlink:title=" ">
<polygon fill="white" stroke="black" points="751.5,-380.5 751.5,-410.5 895.5,-410.5 895.5,-380.5 751.5,-380.5"/>
<text text-anchor="start" x="759.5" y="-398.5" font-family="Helvetica,sans-Serif" font-size="10.00">drake/geometry/proximity</text>
<text text-anchor="middle" x="823.5" y="-387.5" font-family="Helvetica,sans-Serif" font-size="10.00">/mesh_traits.h</text>
</a>
</g>
</g>
<!-- Node0&#45;&gt;Node16 -->
<g id="edge22" class="edge">
<title>Node0&#45;&gt;Node16</title>
<path fill="none" stroke="midnightblue" d="M704.48,-447.4C726.99,-437.77 757,-424.94 781.26,-414.56"/>
<polygon fill="midnightblue" stroke="midnightblue" points="782.76,-417.73 790.58,-410.58 780.01,-411.29 782.76,-417.73"/>
</g>
<!-- Node4 -->
<g id="node5" class="node">
<title>Node4</title>
<g id="a_node5"><a xlink:title=" ">
<polygon fill="white" stroke="#bfbfbf" points="1070,-62 1070,-81 1139,-81 1139,-62 1070,-62"/>
<text text-anchor="middle" x="1104.5" y="-69" font-family="Helvetica,sans-Serif" font-size="10.00">type_traits</text>
</a>
</g>
</g>
<!-- Node3&#45;&gt;Node4 -->
<g id="edge4" class="edge">
<title>Node3&#45;&gt;Node4</title>
<path fill="none" stroke="midnightblue" d="M1111.67,-190.43C1118.59,-180.79 1126.83,-167.37 1130.5,-154 1134.15,-140.71 1133.74,-136.39 1130.5,-123 1127.67,-111.33 1121.66,-99.35 1116.12,-89.98"/>
<polygon fill="midnightblue" stroke="midnightblue" points="1118.96,-87.91 1110.68,-81.29 1113.02,-91.62 1118.96,-87.91"/>
</g>
<!-- Node5 -->
<g id="node6" class="node">
<title>Node5</title>
<g id="a_node6"><a xlink:href="drake__assert_8h.html" target="_top" xlink:title="Provides Drake&#39;s assertion implementation.">
<polygon fill="white" stroke="black" points="1003,-123.5 1003,-153.5 1122,-153.5 1122,-123.5 1003,-123.5"/>
<text text-anchor="start" x="1011" y="-141.5" font-family="Helvetica,sans-Serif" font-size="10.00">drake/common/drake</text>
<text text-anchor="middle" x="1062.5" y="-130.5" font-family="Helvetica,sans-Serif" font-size="10.00">_assert.h</text>
</a>
</g>
</g>
<!-- Node3&#45;&gt;Node5 -->
<g id="edge5" class="edge">
<title>Node3&#45;&gt;Node5</title>
<path fill="none" stroke="midnightblue" d="M1092.25,-190.4C1087.47,-182.22 1081.34,-171.73 1075.88,-162.39"/>
<polygon fill="midnightblue" stroke="midnightblue" points="1078.8,-160.44 1070.73,-153.58 1072.75,-163.98 1078.8,-160.44"/>
</g>
<!-- Node5&#45;&gt;Node4 -->
<g id="edge6" class="edge">
<title>Node5&#45;&gt;Node4</title>
<path fill="none" stroke="midnightblue" d="M1071.61,-123.4C1077.97,-113.56 1086.49,-100.38 1093.26,-89.89"/>
<polygon fill="midnightblue" stroke="midnightblue" points="1096.39,-91.49 1098.88,-81.19 1090.52,-87.69 1096.39,-91.49"/>
</g>
<!-- Node6&#45;&gt;Node2 -->
<g id="edge12" class="edge">
<title>Node6&#45;&gt;Node2</title>
<path fill="none" stroke="midnightblue" d="M402.6,-190.48C368.58,-180.51 322.72,-167.09 286.6,-156.51"/>
<polygon fill="midnightblue" stroke="midnightblue" points="287.27,-153.06 276.69,-153.61 285.31,-159.78 287.27,-153.06"/>
</g>
<!-- Node6&#45;&gt;Node5 -->
<g id="edge11" class="edge">
<title>Node6&#45;&gt;Node5</title>
<path fill="none" stroke="midnightblue" d="M510.23,-201.19C608.7,-195.23 811.41,-180.91 992.75,-153.99"/>
<polygon fill="midnightblue" stroke="midnightblue" points="993.37,-157.44 1002.74,-152.5 992.33,-150.52 993.37,-157.44"/>
</g>
<!-- Node7 -->
<g id="node8" class="node">
<title>Node7</title>
<g id="a_node8"><a xlink:title=" ">
<polygon fill="white" stroke="#bfbfbf" points="306,-129 306,-148 351,-148 351,-129 306,-129"/>
<text text-anchor="middle" x="328.5" y="-136" font-family="Helvetica,sans-Serif" font-size="10.00">utility</text>
</a>
</g>
</g>
<!-- Node6&#45;&gt;Node7 -->
<g id="edge8" class="edge">
<title>Node6&#45;&gt;Node7</title>
<path fill="none" stroke="midnightblue" d="M424.03,-190.4C403.1,-179.24 374.07,-163.78 353.53,-152.83"/>
<polygon fill="midnightblue" stroke="midnightblue" points="354.94,-149.62 344.47,-148.01 351.65,-155.8 354.94,-149.62"/>
</g>
<!-- Node8 -->
<g id="node9" class="node">
<title>Node8</title>
<g id="a_node9"><a xlink:title=" ">
<polygon fill="white" stroke="#bfbfbf" points="574,-129 574,-148 651,-148 651,-129 574,-129"/>
<text text-anchor="middle" x="612.5" y="-136" font-family="Helvetica,sans-Serif" font-size="10.00">Eigen/Dense</text>
</a>
</g>
</g>
<!-- Node6&#45;&gt;Node8 -->
<g id="edge9" class="edge">
<title>Node6&#45;&gt;Node8</title>
<path fill="none" stroke="midnightblue" d="M485.65,-190.4C514.33,-178.89 554.44,-162.8 581.83,-151.81"/>
<polygon fill="midnightblue" stroke="midnightblue" points="583.32,-154.98 591.3,-148.01 580.71,-148.48 583.32,-154.98"/>
</g>
<!-- Node9 -->
<g id="node10" class="node">
<title>Node9</title>
<g id="a_node10"><a xlink:href="constants_8h.html" target="_top" xlink:title=" ">
<polygon fill="white" stroke="black" points="369,-129 369,-148 518,-148 518,-129 369,-129"/>
<text text-anchor="middle" x="443.5" y="-136" font-family="Helvetica,sans-Serif" font-size="10.00">drake/common/constants.h</text>
</a>
</g>
</g>
<!-- Node6&#45;&gt;Node9 -->
<g id="edge10" class="edge">
<title>Node6&#45;&gt;Node9</title>
<path fill="none" stroke="midnightblue" d="M448.98,-190.4C447.97,-180.96 446.62,-168.45 445.51,-158.19"/>
<polygon fill="midnightblue" stroke="midnightblue" points="448.99,-157.76 444.44,-148.19 442.03,-158.51 448.99,-157.76"/>
</g>
<!-- Node6&#45;&gt;Node10 -->
<g id="edge13" class="edge">
<title>Node6&#45;&gt;Node10</title>
<path fill="none" stroke="midnightblue" d="M390.67,-194.13C320.4,-181.95 204.59,-161.88 134.63,-149.75"/>
<polygon fill="midnightblue" stroke="midnightblue" points="135.11,-146.28 124.66,-148.02 133.91,-153.18 135.11,-146.28"/>
</g>
<!-- Node11 -->
<g id="node12" class="node">
<title>Node11</title>
<g id="a_node12"><a xlink:title=" ">
<polygon fill="white" stroke="#bfbfbf" points="121.5,-0.5 121.5,-19.5 165.5,-19.5 165.5,-0.5 121.5,-0.5"/>
<text text-anchor="middle" x="143.5" y="-7.5" font-family="Helvetica,sans-Serif" font-size="10.00">string</text>
</a>
</g>
</g>
<!-- Node10&#45;&gt;Node11 -->
<g id="edge14" class="edge">
<title>Node10&#45;&gt;Node11</title>
<path fill="none" stroke="midnightblue" d="M76.64,-128.86C78.97,-113.36 85.33,-80.18 99.5,-56 106.1,-44.74 116.12,-34.19 124.93,-26.14"/>
<polygon fill="midnightblue" stroke="midnightblue" points="127.31,-28.71 132.55,-19.5 122.71,-23.43 127.31,-28.71"/>
</g>
<!-- Node12 -->
<g id="node13" class="node">
<title>Node12</title>
<g id="a_node13"><a xlink:title=" ">
<polygon fill="white" stroke="#bfbfbf" points="205,-0.5 205,-19.5 278,-19.5 278,-0.5 205,-0.5"/>
<text text-anchor="middle" x="241.5" y="-7.5" font-family="Helvetica,sans-Serif" font-size="10.00">string_view</text>
</a>
</g>
</g>
<!-- Node10&#45;&gt;Node12 -->
<g id="edge15" class="edge">
<title>Node10&#45;&gt;Node12</title>
<path fill="none" stroke="midnightblue" d="M79.56,-128.65C87.51,-112.21 106.64,-76.74 132.5,-56 151.53,-40.74 176.45,-29.94 197.66,-22.75"/>
<polygon fill="midnightblue" stroke="midnightblue" points="198.98,-26 207.42,-19.6 196.83,-19.34 198.98,-26"/>
</g>
<!-- Node13 -->
<g id="node14" class="node">
<title>Node13</title>
<g id="a_node14"><a xlink:title=" ">
<polygon fill="white" stroke="#bfbfbf" points="142,-62 142,-81 211,-81 211,-62 142,-62"/>
<text text-anchor="middle" x="176.5" y="-69" font-family="Helvetica,sans-Serif" font-size="10.00">Eigen/Core</text>
</a>
</g>
</g>
<!-- Node10&#45;&gt;Node13 -->
<g id="edge16" class="edge">
<title>Node10&#45;&gt;Node13</title>
<path fill="none" stroke="midnightblue" d="M89.12,-128.73C105.93,-117.92 134.73,-99.38 154.64,-86.57"/>
<polygon fill="midnightblue" stroke="midnightblue" points="156.58,-89.48 163.09,-81.13 152.79,-83.6 156.58,-89.48"/>
</g>
<!-- Node14 -->
<g id="node15" class="node">
<title>Node14</title>
<g id="a_node15"><a xlink:href="fmt_8h.html" target="_top" xlink:title=" ">
<polygon fill="white" stroke="black" points="229,-62 229,-81 348,-81 348,-62 229,-62"/>
<text text-anchor="middle" x="288.5" y="-69" font-family="Helvetica,sans-Serif" font-size="10.00">drake/common/fmt.h</text>
</a>
</g>
</g>
<!-- Node10&#45;&gt;Node14 -->
<g id="edge17" class="edge">
<title>Node10&#45;&gt;Node14</title>
<path fill="none" stroke="midnightblue" d="M103.78,-128.87C141.61,-117.33 208.75,-96.84 250.83,-84"/>
<polygon fill="midnightblue" stroke="midnightblue" points="251.89,-87.33 260.44,-81.06 249.85,-80.63 251.89,-87.33"/>
</g>
<!-- Node14&#45;&gt;Node11 -->
<g id="edge18" class="edge">
<title>Node14&#45;&gt;Node11</title>
<path fill="none" stroke="midnightblue" d="M267.73,-61.98C243.07,-51.86 201.75,-34.9 173.6,-23.35"/>
<polygon fill="midnightblue" stroke="midnightblue" points="174.82,-20.07 164.24,-19.51 172.16,-26.54 174.82,-20.07"/>
</g>
<!-- Node14&#45;&gt;Node12 -->
<g id="edge19" class="edge">
<title>Node14&#45;&gt;Node12</title>
<path fill="none" stroke="midnightblue" d="M281.77,-61.98C274.72,-53.05 263.47,-38.81 254.65,-27.64"/>
<polygon fill="midnightblue" stroke="midnightblue" points="257.17,-25.19 248.22,-19.51 251.67,-29.53 257.17,-25.19"/>
</g>
<!-- Node15 -->
<g id="node16" class="node">
<title>Node15</title>
<g id="a_node16"><a xlink:title=" ">
<polygon fill="white" stroke="#bfbfbf" points="296,-0.5 296,-19.5 375,-19.5 375,-0.5 296,-0.5"/>
<text text-anchor="middle" x="335.5" y="-7.5" font-family="Helvetica,sans-Serif" font-size="10.00">fmt/format.h</text>
</a>
</g>
</g>
<!-- Node14&#45;&gt;Node15 -->
<g id="edge20" class="edge">
<title>Node14&#45;&gt;Node15</title>
<path fill="none" stroke="midnightblue" d="M295.23,-61.98C302.28,-53.05 313.53,-38.81 322.35,-27.64"/>
<polygon fill="midnightblue" stroke="midnightblue" points="325.33,-29.53 328.78,-19.51 319.83,-25.19 325.33,-29.53"/>
</g>
<!-- Node16&#45;&gt;Node4 -->
<g id="edge23" class="edge">
<title>Node16&#45;&gt;Node4</title>
<path fill="none" stroke="midnightblue" d="M885.42,-380.46C989.55,-355.96 1188.5,-305.04 1188.5,-273.5 1188.5,-273.5 1188.5,-273.5 1188.5,-204.5 1188.5,-155.93 1147.53,-110.82 1122.81,-88.03"/>
<polygon fill="midnightblue" stroke="midnightblue" points="1124.93,-85.22 1115.14,-81.18 1120.27,-90.45 1124.93,-85.22"/>
</g>
<!-- Node17 -->
<g id="node18" class="node">
<title>Node17</title>
<g id="a_node18"><a xlink:href="common_2autodiff_8h.html" target="_top" xlink:title="This header provides a single inclusion point for autodiff&#45;related header files in the drake/common d...">
<polygon fill="white" stroke="black" points="754,-324.5 754,-343.5 893,-343.5 893,-324.5 754,-324.5"/>
<text text-anchor="middle" x="823.5" y="-331.5" font-family="Helvetica,sans-Serif" font-size="10.00">drake/common/autodiff.h</text>
</a>
</g>
</g>
<!-- Node16&#45;&gt;Node17 -->
<g id="edge24" class="edge">
<title>Node16&#45;&gt;Node17</title>
<path fill="none" stroke="midnightblue" d="M823.5,-380.4C823.5,-372.47 823.5,-362.46 823.5,-353.86"/>
<polygon fill="midnightblue" stroke="midnightblue" points="827,-353.66 823.5,-343.66 820,-353.66 827,-353.66"/>
</g>
<!-- Node17&#45;&gt;Node13 -->
<g id="edge25" class="edge">
<title>Node17&#45;&gt;Node13</title>
<path fill="none" stroke="midnightblue" d="M753.91,-328.71C689.05,-323.31 598.53,-311.68 572.5,-288 516.19,-236.77 584.34,-172.5 526.5,-123 474.31,-78.34 286.52,-102.06 219.5,-87 216.01,-86.22 212.41,-85.26 208.84,-84.2"/>
<polygon fill="midnightblue" stroke="midnightblue" points="209.6,-80.77 199.01,-81.07 207.48,-87.44 209.6,-80.77"/>
</g>
<!-- Node18 -->
<g id="node19" class="node">
<title>Node18</title>
<g id="a_node19"><a xlink:title=" ">
<polygon fill="white" stroke="#bfbfbf" points="748.5,-263 748.5,-282 898.5,-282 898.5,-263 748.5,-263"/>
<text text-anchor="middle" x="823.5" y="-270" font-family="Helvetica,sans-Serif" font-size="10.00">unsupported/Eigen/AutoDiff</text>
</a>
</g>
</g>
<!-- Node17&#45;&gt;Node18 -->
<g id="edge26" class="edge">
<title>Node17&#45;&gt;Node18</title>
<path fill="none" stroke="midnightblue" d="M823.5,-324.48C823.5,-316.08 823.5,-302.98 823.5,-292.16"/>
<polygon fill="midnightblue" stroke="midnightblue" points="827,-292.01 823.5,-282.01 820,-292.01 827,-292.01"/>
</g>
<!-- Node19 -->
<g id="node20" class="node">
<title>Node19</title>
<g id="a_node20"><a xlink:href="eigen__autodiff__types_8h.html" target="_top" xlink:title="This file contains abbreviated definitions for certain uses of AutoDiffScalar that are commonly used ...">
<polygon fill="white" stroke="black" points="582,-257.5 582,-287.5 701,-287.5 701,-257.5 582,-257.5"/>
<text text-anchor="start" x="590" y="-275.5" font-family="Helvetica,sans-Serif" font-size="10.00">drake/common/eigen</text>
<text text-anchor="middle" x="641.5" y="-264.5" font-family="Helvetica,sans-Serif" font-size="10.00">_autodiff_types.h</text>
</a>
</g>
</g>
<!-- Node17&#45;&gt;Node19 -->
<g id="edge27" class="edge">
<title>Node17&#45;&gt;Node19</title>
<path fill="none" stroke="midnightblue" d="M797.42,-324.48C770.59,-315.7 728.03,-301.79 694.15,-290.71"/>
<polygon fill="midnightblue" stroke="midnightblue" points="694.99,-287.3 684.39,-287.52 692.81,-293.96 694.99,-287.3"/>
</g>
<!-- Node20 -->
<g id="node21" class="node">
<title>Node20</title>
<g id="a_node21"><a xlink:href="autodiffxd_8h.html" target="_top" xlink:title=" ">
<polygon fill="white" stroke="black" points="872,-196 872,-215 1023,-215 1023,-196 872,-196"/>
<text text-anchor="middle" x="947.5" y="-203" font-family="Helvetica,sans-Serif" font-size="10.00">drake/common/autodiffxd.h</text>
</a>
</g>
</g>
<!-- Node17&#45;&gt;Node20 -->
<g id="edge31" class="edge">
<title>Node17&#45;&gt;Node20</title>
<path fill="none" stroke="midnightblue" d="M848.55,-324.39C866.79,-317.07 891.07,-305.02 907.5,-288 924.99,-269.88 936.22,-242.64 942.2,-224.72"/>
<polygon fill="midnightblue" stroke="midnightblue" points="945.55,-225.74 945.19,-215.15 938.87,-223.65 945.55,-225.74"/>
</g>
<!-- Node26 -->
<g id="node27" class="node">
<title>Node26</title>
<g id="a_node27"><a xlink:href="autodiff__overloads_8h.html" target="_top" xlink:title="Overloads for STL mathematical operations on AutoDiffScalar.">
<polygon fill="white" stroke="black" points="1248.5,-190.5 1248.5,-220.5 1378.5,-220.5 1378.5,-190.5 1248.5,-190.5"/>
<text text-anchor="start" x="1256.5" y="-208.5" font-family="Helvetica,sans-Serif" font-size="10.00">drake/common/autodiff</text>
<text text-anchor="middle" x="1313.5" y="-197.5" font-family="Helvetica,sans-Serif" font-size="10.00">_overloads.h</text>
</a>
</g>
</g>
<!-- Node17&#45;&gt;Node26 -->
<g id="edge42" class="edge">
<title>Node17&#45;&gt;Node26</title>
<path fill="none" stroke="midnightblue" d="M856.79,-324.4C937.34,-303.61 1143.84,-250.3 1249.35,-223.06"/>
<polygon fill="midnightblue" stroke="midnightblue" points="1250.43,-226.4 1259.24,-220.51 1248.69,-219.62 1250.43,-226.4"/>
</g>
<!-- Node19&#45;&gt;Node4 -->
<g id="edge28" class="edge">
<title>Node19&#45;&gt;Node4</title>
<path fill="none" stroke="midnightblue" d="M665.17,-257.37C720.9,-224.26 859.48,-142.96 909.5,-123 959.4,-103.09 1019.63,-88.89 1059.83,-80.72"/>
<polygon fill="midnightblue" stroke="midnightblue" points="1060.73,-84.11 1069.85,-78.72 1059.36,-77.24 1060.73,-84.11"/>
</g>
<!-- Node19&#45;&gt;Node6 -->
<g id="edge30" class="edge">
<title>Node19&#45;&gt;Node6</title>
<path fill="none" stroke="midnightblue" d="M600.06,-257.4C571.15,-247.56 532.39,-234.37 501.57,-223.88"/>
<polygon fill="midnightblue" stroke="midnightblue" points="502.46,-220.48 491.86,-220.58 500.2,-227.11 502.46,-220.48"/>
</g>
<!-- Node19&#45;&gt;Node8 -->
<g id="edge29" class="edge">
<title>Node19&#45;&gt;Node8</title>
<path fill="none" stroke="midnightblue" d="M638.4,-257.37C633.13,-233.4 622.44,-184.75 616.58,-158.06"/>
<polygon fill="midnightblue" stroke="midnightblue" points="619.95,-157.11 614.39,-148.1 613.12,-158.62 619.95,-157.11"/>
</g>
<!-- Node20&#45;&gt;Node1 -->
<g id="edge33" class="edge">
<title>Node20&#45;&gt;Node1</title>
<path fill="none" stroke="midnightblue" d="M993.18,-195.95C1005.58,-193.81 1019.03,-191.66 1031.5,-190 1116.68,-178.68 1338.17,-189.33 1416.5,-154 1434.84,-145.73 1433.97,-135.8 1449.5,-123 1465.15,-110.1 1483.82,-96.72 1497.94,-86.98"/>
<polygon fill="midnightblue" stroke="midnightblue" points="1500.2,-89.67 1506.48,-81.14 1496.25,-83.89 1500.2,-89.67"/>
</g>
<!-- Node20&#45;&gt;Node4 -->
<g id="edge35" class="edge">
<title>Node20&#45;&gt;Node4</title>
<path fill="none" stroke="midnightblue" d="M939.47,-195.81C925.79,-179.94 901.08,-145.79 918.5,-123 935.58,-100.67 1010.38,-85.89 1059.77,-78.38"/>
<polygon fill="midnightblue" stroke="midnightblue" points="1060.51,-81.81 1069.89,-76.88 1059.49,-74.88 1060.51,-81.81"/>
</g>
<!-- Node20&#45;&gt;Node8 -->
<g id="edge36" class="edge">
<title>Node20&#45;&gt;Node8</title>
<path fill="none" stroke="midnightblue" d="M886.88,-195.98C828.5,-187.27 737.89,-172.43 660.5,-154 656.61,-153.07 652.57,-152.01 648.56,-150.9"/>
<polygon fill="midnightblue" stroke="midnightblue" points="649.33,-147.48 638.75,-148.05 647.38,-154.2 649.33,-147.48"/>
</g>
<!-- Node21 -->
<g id="node22" class="node">
<title>Node21</title>
<g id="a_node22"><a xlink:title=" ">
<polygon fill="white" stroke="#bfbfbf" points="1217,-129 1217,-148 1264,-148 1264,-129 1217,-129"/>
<text text-anchor="middle" x="1240.5" y="-136" font-family="Helvetica,sans-Serif" font-size="10.00">cmath</text>
</a>
</g>
</g>
<!-- Node20&#45;&gt;Node21 -->
<g id="edge32" class="edge">
<title>Node20&#45;&gt;Node21</title>
<path fill="none" stroke="midnightblue" d="M986.11,-195.94C1043.92,-183.11 1152.03,-159.13 1206.82,-146.97"/>
<polygon fill="midnightblue" stroke="midnightblue" points="1207.71,-150.36 1216.72,-144.78 1206.2,-143.52 1207.71,-150.36"/>
</g>
<!-- Node22 -->
<g id="node23" class="node">
<title>Node22</title>
<g id="a_node23"><a xlink:title=" ">
<polygon fill="white" stroke="#bfbfbf" points="928,-129 928,-148 985,-148 985,-129 928,-129"/>
<text text-anchor="middle" x="956.5" y="-136" font-family="Helvetica,sans-Serif" font-size="10.00">ostream</text>
</a>
</g>
</g>
<!-- Node20&#45;&gt;Node22 -->
<g id="edge34" class="edge">
<title>Node20&#45;&gt;Node22</title>
<path fill="none" stroke="midnightblue" d="M948.71,-195.73C950.04,-186.18 952.19,-170.62 953.9,-158.28"/>
<polygon fill="midnightblue" stroke="midnightblue" points="957.4,-158.51 955.31,-148.13 950.47,-157.55 957.4,-158.51"/>
</g>
<!-- Node23 -->
<g id="node24" class="node">
<title>Node23</title>
<g id="a_node24"><a xlink:href="fmt__ostream_8h.html" target="_top" xlink:title=" ">
<polygon fill="white" stroke="black" points="669.5,-129 669.5,-148 833.5,-148 833.5,-129 669.5,-129"/>
<text text-anchor="middle" x="751.5" y="-136" font-family="Helvetica,sans-Serif" font-size="10.00">drake/common/fmt_ostream.h</text>
</a>
</g>
</g>
<!-- Node20&#45;&gt;Node23 -->
<g id="edge37" class="edge">
<title>Node20&#45;&gt;Node23</title>
<path fill="none" stroke="midnightblue" d="M921.47,-195.87C886.96,-184.42 825.92,-164.18 787.15,-151.32"/>
<polygon fill="midnightblue" stroke="midnightblue" points="787.92,-147.89 777.32,-148.06 785.71,-154.53 787.92,-147.89"/>
</g>
<!-- Node23&#45;&gt;Node12 -->
<g id="edge39" class="edge">
<title>Node23&#45;&gt;Node12</title>
<path fill="none" stroke="midnightblue" d="M716.85,-128.9C626.79,-106.57 385.44,-46.7 285.64,-21.95"/>
<polygon fill="midnightblue" stroke="midnightblue" points="286.41,-18.53 275.87,-19.52 284.73,-25.33 286.41,-18.53"/>
</g>
<!-- Node23&#45;&gt;Node14 -->
<g id="edge41" class="edge">
<title>Node23&#45;&gt;Node14</title>
<path fill="none" stroke="midnightblue" d="M698.5,-128.95C685.74,-126.95 672.14,-124.86 659.5,-123 554.77,-107.62 433.16,-91.37 358.53,-81.59"/>
<polygon fill="midnightblue" stroke="midnightblue" points="358.68,-78.08 348.31,-80.25 357.77,-85.02 358.68,-78.08"/>
</g>
<!-- Node24 -->
<g id="node25" class="node">
<title>Node24</title>
<g id="a_node25"><a xlink:title=" ">
<polygon fill="white" stroke="#bfbfbf" points="768.5,-62 768.5,-81 824.5,-81 824.5,-62 768.5,-62"/>
<text text-anchor="middle" x="796.5" y="-69" font-family="Helvetica,sans-Serif" font-size="10.00">sstream</text>
</a>
</g>
</g>
<!-- Node23&#45;&gt;Node24 -->
<g id="edge38" class="edge">
<title>Node23&#45;&gt;Node24</title>
<path fill="none" stroke="midnightblue" d="M757.57,-128.73C764.52,-118.7 776.07,-102.01 784.79,-89.42"/>
<polygon fill="midnightblue" stroke="midnightblue" points="787.71,-91.34 790.53,-81.13 781.96,-87.36 787.71,-91.34"/>
</g>
<!-- Node25 -->
<g id="node26" class="node">
<title>Node25</title>
<g id="a_node26"><a xlink:title=" ">
<polygon fill="white" stroke="#bfbfbf" points="664.5,-62 664.5,-81 750.5,-81 750.5,-62 664.5,-62"/>
<text text-anchor="middle" x="707.5" y="-69" font-family="Helvetica,sans-Serif" font-size="10.00">fmt/ostream.h</text>
</a>
</g>
</g>
<!-- Node23&#45;&gt;Node25 -->
<g id="edge40" class="edge">
<title>Node23&#45;&gt;Node25</title>
<path fill="none" stroke="midnightblue" d="M745.57,-128.73C738.77,-118.7 727.48,-102.01 718.95,-89.42"/>
<polygon fill="midnightblue" stroke="midnightblue" points="721.84,-87.45 713.34,-81.13 716.05,-91.37 721.84,-87.45"/>
</g>
<!-- Node26&#45;&gt;Node1 -->
<g id="edge44" class="edge">
<title>Node26&#45;&gt;Node1</title>
<path fill="none" stroke="midnightblue" d="M1370.19,-190.48C1395.87,-182.43 1425.73,-170.55 1449.5,-154 1474.52,-136.57 1496.14,-108.16 1508.49,-89.91"/>
<polygon fill="midnightblue" stroke="midnightblue" points="1511.51,-91.68 1514.07,-81.4 1505.66,-87.84 1511.51,-91.68"/>
</g>
<!-- Node26&#45;&gt;Node5 -->
<g id="edge49" class="edge">
<title>Node26&#45;&gt;Node5</title>
<path fill="none" stroke="midnightblue" d="M1259.35,-190.48C1220.47,-180.41 1167.92,-166.8 1126.89,-156.17"/>
<polygon fill="midnightblue" stroke="midnightblue" points="1127.55,-152.73 1116.99,-153.61 1125.79,-159.51 1127.55,-152.73"/>
</g>
<!-- Node26&#45;&gt;Node21 -->
<g id="edge43" class="edge">
<title>Node26&#45;&gt;Node21</title>
<path fill="none" stroke="midnightblue" d="M1297.66,-190.4C1285.94,-179.96 1269.98,-165.75 1257.91,-155"/>
<polygon fill="midnightblue" stroke="midnightblue" points="1260.06,-152.23 1250.26,-148.19 1255.41,-157.46 1260.06,-152.23"/>
</g>
<!-- Node27 -->
<g id="node28" class="node">
<title>Node27</title>
<g id="a_node28"><a xlink:href="cond_8h.html" target="_top" xlink:title=" ">
<polygon fill="white" stroke="black" points="1282,-129 1282,-148 1407,-148 1407,-129 1282,-129"/>
<text text-anchor="middle" x="1344.5" y="-136" font-family="Helvetica,sans-Serif" font-size="10.00">drake/common/cond.h</text>
</a>
</g>
</g>
<!-- Node26&#45;&gt;Node27 -->
<g id="edge45" class="edge">
<title>Node26&#45;&gt;Node27</title>
<path fill="none" stroke="midnightblue" d="M1320.23,-190.4C1324.82,-180.76 1330.95,-167.91 1335.9,-157.54"/>
<polygon fill="midnightblue" stroke="midnightblue" points="1339.21,-158.73 1340.35,-148.19 1332.89,-155.71 1339.21,-158.73"/>
</g>
<!-- Node30 -->
<g id="node31" class="node">
<title>Node30</title>
<g id="a_node31"><a xlink:href="dummy__value_8h.html" target="_top" xlink:title=" ">
<polygon fill="white" stroke="black" points="1501.5,-123.5 1501.5,-153.5 1631.5,-153.5 1631.5,-123.5 1501.5,-123.5"/>
<text text-anchor="start" x="1509.5" y="-141.5" font-family="Helvetica,sans-Serif" font-size="10.00">drake/common/dummy</text>
<text text-anchor="middle" x="1566.5" y="-130.5" font-family="Helvetica,sans-Serif" font-size="10.00">_value.h</text>
</a>
</g>
</g>
<!-- Node26&#45;&gt;Node30 -->
<g id="edge50" class="edge">
<title>Node26&#45;&gt;Node30</title>
<path fill="none" stroke="midnightblue" d="M1368.09,-190.48C1407.35,-180.39 1460.47,-166.74 1501.86,-156.11"/>
<polygon fill="midnightblue" stroke="midnightblue" points="1502.76,-159.49 1511.58,-153.61 1501.02,-152.71 1502.76,-159.49"/>
</g>
<!-- Node27&#45;&gt;Node4 -->
<g id="edge47" class="edge">
<title>Node27&#45;&gt;Node4</title>
<path fill="none" stroke="midnightblue" d="M1312.63,-128.87C1269.75,-117.25 1193.39,-96.58 1146.05,-83.75"/>
<polygon fill="midnightblue" stroke="midnightblue" points="1146.69,-80.3 1136.12,-81.06 1144.86,-87.06 1146.69,-80.3"/>
</g>
<!-- Node28 -->
<g id="node29" class="node">
<title>Node28</title>
<g id="a_node29"><a xlink:title=" ">
<polygon fill="white" stroke="#bfbfbf" points="1235,-62 1235,-81 1300,-81 1300,-62 1235,-62"/>
<text text-anchor="middle" x="1267.5" y="-69" font-family="Helvetica,sans-Serif" font-size="10.00">functional</text>
</a>
</g>
</g>
<!-- Node27&#45;&gt;Node28 -->
<g id="edge46" class="edge">
<title>Node27&#45;&gt;Node28</title>
<path fill="none" stroke="midnightblue" d="M1334.12,-128.73C1321.65,-118.21 1300.53,-100.38 1285.41,-87.62"/>
<polygon fill="midnightblue" stroke="midnightblue" points="1287.62,-84.9 1277.72,-81.13 1283.1,-90.25 1287.62,-84.9"/>
</g>
<!-- Node29 -->
<g id="node30" class="node">
<title>Node29</title>
<g id="a_node30"><a xlink:href="double__overloads_8h.html" target="_top" xlink:title="Provides necessary operations on double to have it as a ScalarType in drake.">
<polygon fill="white" stroke="black" points="1318,-56.5 1318,-86.5 1443,-86.5 1443,-56.5 1318,-56.5"/>
<text text-anchor="start" x="1326" y="-74.5" font-family="Helvetica,sans-Serif" font-size="10.00">drake/common/double</text>
<text text-anchor="middle" x="1380.5" y="-63.5" font-family="Helvetica,sans-Serif" font-size="10.00">_overloads.h</text>
</a>
</g>
</g>
<!-- Node27&#45;&gt;Node29 -->
<g id="edge48" class="edge">
<title>Node27&#45;&gt;Node29</title>
<path fill="none" stroke="midnightblue" d="M1349.36,-128.73C1354.03,-120.29 1361.32,-107.14 1367.66,-95.68"/>
<polygon fill="midnightblue" stroke="midnightblue" points="1370.91,-97.03 1372.7,-86.59 1364.79,-93.64 1370.91,-97.03"/>
</g>
<!-- Node30&#45;&gt;Node1 -->
<g id="edge51" class="edge">
<title>Node30&#45;&gt;Node1</title>
<path fill="none" stroke="midnightblue" d="M1556.3,-123.4C1549.12,-113.46 1539.46,-100.11 1531.84,-89.57"/>
<polygon fill="midnightblue" stroke="midnightblue" points="1534.48,-87.25 1525.79,-81.19 1528.81,-91.35 1534.48,-87.25"/>
</g>
</g>
</svg>
        <g id="navigator" transform="translate(0 0)" fill="#404254">
                <rect fill="#f2f5e9" fill-opacity="0.5" stroke="#606060" stroke-width=".5" x="0" y="0" width="60" height="60"/>
                <use id="zoomplus" xlink:href="#zoomPlus" x="17" y="9" onmousedown="handleZoom(evt,'in')"/>
                <use id="zoomminus" xlink:href="#zoomMin" x="42" y="9" onmousedown="handleZoom(evt,'out')"/>
                <use id="reset" xlink:href="#resetDef" x="30" y="36" onmousedown="handleReset()"/>
                <g id="arrowUp" xlink:href="#dirArrow" transform="translate(30 24)" onmousedown="handlePan(0,-1)">
                  <use xlink:href="#rim" fill="#404040">
                        <set attributeName="fill" to="#808080" begin="arrowUp.mouseover" end="arrowUp.mouseout"/>
                  </use>
                  <path fill="none" stroke="white" stroke-width="1.5" d="M0,-3.0v7 M-2.5,-0.5L0,-3.0L2.5,-0.5"/>
                </g>
                <g id="arrowRight" xlink:href="#dirArrow" transform="rotate(90) translate(36 -43)" onmousedown="handlePan(1,0)">
                  <use xlink:href="#rim" fill="#404040">
                        <set attributeName="fill" to="#808080" begin="arrowRight.mouseover" end="arrowRight.mouseout"/>
                  </use>
                  <path fill="none" stroke="white" stroke-width="1.5" d="M0,-3.0v7 M-2.5,-0.5L0,-3.0L2.5,-0.5"/>
                </g>
                <g id="arrowDown" xlink:href="#dirArrow" transform="rotate(180) translate(-30 -48)" onmousedown="handlePan(0,1)">
                  <use xlink:href="#rim" fill="#404040">
                        <set attributeName="fill" to="#808080" begin="arrowDown.mouseover" end="arrowDown.mouseout"/>
                  </use>
                  <path fill="none" stroke="white" stroke-width="1.5" d="M0,-3.0v7 M-2.5,-0.5L0,-3.0L2.5,-0.5"/>
                </g>
                <g id="arrowLeft" xlink:href="#dirArrow" transform="rotate(270) translate(-36 17)" onmousedown="handlePan(-1,0)">
                  <use xlink:href="#rim" fill="#404040">
                        <set attributeName="fill" to="#808080" begin="arrowLeft.mouseover" end="arrowLeft.mouseout"/>
                  </use>
                  <path fill="none" stroke="white" stroke-width="1.5" d="M0,-3.0v7 M-2.5,-0.5L0,-3.0L2.5,-0.5"/>
                </g>
        </g>
        <svg viewBox="0 0 15 15" width="100%" height="30px" preserveAspectRatio="xMaxYMin meet">
         <g id="arrow_out" transform="scale(0.3 0.3)">
          <a xlink:href="plane_8h__incl_org.svg" target="_base">
           <rect id="button" ry="5" rx="5" y="6" x="6" height="38" width="38"
                fill="#f2f5e9" fill-opacity="0.5" stroke="#606060" stroke-width="1.0"/>
           <path id="arrow"
             d="M 11.500037,31.436501 C 11.940474,20.09759 22.043105,11.32322 32.158766,21.979434 L 37.068811,17.246167 C 37.068811,17.246167 37.088388,32 37.088388,32 L 22.160133,31.978069 C 22.160133,31.978069 26.997745,27.140456 26.997745,27.140456 C 18.528582,18.264221 13.291696,25.230495 11.500037,31.436501 z"
             style="fill:#404040;"/>
          </a>
         </g>
        </svg>
</svg>
