<?xml version="1.0" encoding="UTF-8" standalone="no"?>
<!DOCTYPE svg PUBLIC "-//W3C//DTD SVG 1.1//EN"
 "http://www.w3.org/Graphics/SVG/1.1/DTD/svg11.dtd">
<!-- Generated by graphviz version 2.43.0 (0)
 -->
<!-- Title: drake/geometry/proximity/plane.h Pages: 1 -->
<svg width="1158pt" height="452pt"
 viewBox="0.00 0.00 1157.50 452.00" xmlns="http://www.w3.org/2000/svg" xmlns:xlink="http://www.w3.org/1999/xlink">
<g id="graph0" class="graph" transform="scale(1 1) rotate(0) translate(4 448)">
<title>drake/geometry/proximity/plane.h</title>
<polygon fill="white" stroke="transparent" points="-4,4 -4,-448 1153.5,-448 1153.5,4 -4,4"/>
<!-- Node25 -->
<g id="node1" class="node">
<title>Node25</title>
<g id="a_node1"><a xlink:title=" ">
<polygon fill="#bfbfbf" stroke="black" points="619,-413.5 619,-443.5 763,-443.5 763,-413.5 619,-413.5"/>
<text text-anchor="start" x="627" y="-431.5" font-family="Helvetica,sans-Serif" font-size="10.00">drake/geometry/proximity</text>
<text text-anchor="middle" x="691" y="-420.5" font-family="Helvetica,sans-Serif" font-size="10.00">/plane.h</text>
</a>
</g>
</g>
<!-- Node26 -->
<g id="node2" class="node">
<title>Node26</title>
<g id="a_node2"><a xlink:href="obb_8h.html" target="_top" xlink:title=" ">
<polygon fill="white" stroke="black" points="469,-346.5 469,-376.5 613,-376.5 613,-346.5 469,-346.5"/>
<text text-anchor="start" x="477" y="-364.5" font-family="Helvetica,sans-Serif" font-size="10.00">drake/geometry/proximity</text>
<text text-anchor="middle" x="541" y="-353.5" font-family="Helvetica,sans-Serif" font-size="10.00">/obb.h</text>
</a>
</g>
</g>
<!-- Node25&#45;&gt;Node26 -->
<g id="edge1" class="edge">
<title>Node25&#45;&gt;Node26</title>
<path fill="none" stroke="midnightblue" d="M649.25,-409.41C625.3,-399.03 595.68,-386.2 573.48,-376.58"/>
<polygon fill="midnightblue" stroke="midnightblue" points="647.89,-412.63 658.45,-413.4 650.67,-406.21 647.89,-412.63"/>
</g>
<!-- Node37 -->
<g id="node13" class="node">
<title>Node37</title>
<g id="a_node13"><a xlink:href="field__intersection_8h.html" target="_top" xlink:title=" ">
<polygon fill="white" stroke="black" points="480,-212.5 480,-242.5 624,-242.5 624,-212.5 480,-212.5"/>
<text text-anchor="start" x="488" y="-230.5" font-family="Helvetica,sans-Serif" font-size="10.00">drake/geometry/proximity</text>
<text text-anchor="middle" x="552" y="-219.5" font-family="Helvetica,sans-Serif" font-size="10.00">/field_intersection.h</text>
</a>
</g>
</g>
<!-- Node25&#45;&gt;Node37 -->
<g id="edge23" class="edge">
<title>Node25&#45;&gt;Node37</title>
<path fill="none" stroke="midnightblue" d="M684.04,-403.45C674.13,-372.22 653.56,-317.2 622,-279 609.78,-264.21 592.28,-251.59 577.84,-242.66"/>
<polygon fill="midnightblue" stroke="midnightblue" points="680.72,-404.54 687,-413.07 687.41,-402.48 680.72,-404.54"/>
</g>
<!-- Node40 -->
<g id="node16" class="node">
<title>Node40</title>
<g id="a_node16"><a xlink:href="mesh__plane__intersection_8h.html" target="_top" xlink:title=" ">
<polygon fill="white" stroke="black" points="998.5,-212.5 998.5,-242.5 1149.5,-242.5 1149.5,-212.5 998.5,-212.5"/>
<text text-anchor="start" x="1006.5" y="-230.5" font-family="Helvetica,sans-Serif" font-size="10.00">drake/geometry/proximity</text>
<text text-anchor="middle" x="1074" y="-219.5" font-family="Helvetica,sans-Serif" font-size="10.00">/mesh_plane_intersection.h</text>
</a>
</g>
</g>
<!-- Node25&#45;&gt;Node40 -->
<g id="edge27" class="edge">
<title>Node25&#45;&gt;Node40</title>
<path fill="none" stroke="midnightblue" d="M727.49,-408.54C803.94,-368.82 979.45,-277.63 1046.9,-242.58"/>
<polygon fill="midnightblue" stroke="midnightblue" points="725.5,-405.63 718.24,-413.35 728.72,-411.84 725.5,-405.63"/>
</g>
<!-- Node41 -->
<g id="node17" class="node">
<title>Node41</title>
<g id="a_node17"><a xlink:href="posed__half__space_8h.html" target="_top" xlink:title=" ">
<polygon fill="white" stroke="black" points="669,-279.5 669,-309.5 813,-309.5 813,-279.5 669,-279.5"/>
<text text-anchor="start" x="677" y="-297.5" font-family="Helvetica,sans-Serif" font-size="10.00">drake/geometry/proximity</text>
<text text-anchor="middle" x="741" y="-286.5" font-family="Helvetica,sans-Serif" font-size="10.00">/posed_half_space.h</text>
</a>
</g>
</g>
<!-- Node25&#45;&gt;Node41 -->
<g id="edge24" class="edge">
<title>Node25&#45;&gt;Node41</title>
<path fill="none" stroke="midnightblue" d="M699.99,-403.75C710.4,-376.29 727.18,-331.99 735.69,-309.52"/>
<polygon fill="midnightblue" stroke="midnightblue" points="696.62,-402.78 696.35,-413.37 703.17,-405.26 696.62,-402.78"/>
</g>
<!-- Node27 -->
<g id="node3" class="node">
<title>Node27</title>
<g id="a_node3"><a xlink:href="bvh_8h.html" target="_top" xlink:title=" ">
<polygon fill="white" stroke="black" points="469,-279.5 469,-309.5 613,-309.5 613,-279.5 469,-279.5"/>
<text text-anchor="start" x="477" y="-297.5" font-family="Helvetica,sans-Serif" font-size="10.00">drake/geometry/proximity</text>
<text text-anchor="middle" x="541" y="-286.5" font-family="Helvetica,sans-Serif" font-size="10.00">/bvh.h</text>
</a>
</g>
</g>
<!-- Node26&#45;&gt;Node27 -->
<g id="edge2" class="edge">
<title>Node26&#45;&gt;Node27</title>
<path fill="none" stroke="midnightblue" d="M541,-336.11C541,-327.15 541,-317.32 541,-309.58"/>
<polygon fill="midnightblue" stroke="midnightblue" points="537.5,-336.4 541,-346.4 544.5,-336.4 537.5,-336.4"/>
</g>
<!-- Node28 -->
<g id="node4" class="node">
<title>Node28</title>
<g id="a_node4"><a xlink:href="hydroelastic__internal_8h.html" target="_top" xlink:title=" ">
<polygon fill="white" stroke="black" points="318,-212.5 318,-242.5 462,-242.5 462,-212.5 318,-212.5"/>
<text text-anchor="start" x="326" y="-230.5" font-family="Helvetica,sans-Serif" font-size="10.00">drake/geometry/proximity</text>
<text text-anchor="middle" x="390" y="-219.5" font-family="Helvetica,sans-Serif" font-size="10.00">/hydroelastic_internal.h</text>
</a>
</g>
</g>
<!-- Node27&#45;&gt;Node28 -->
<g id="edge3" class="edge">
<title>Node27&#45;&gt;Node28</title>
<path fill="none" stroke="midnightblue" d="M498.97,-275.41C474.86,-265.03 445.05,-252.2 422.7,-242.58"/>
<polygon fill="midnightblue" stroke="midnightblue" points="497.67,-278.66 508.24,-279.4 500.43,-272.23 497.67,-278.66"/>
</g>
<!-- Node32 -->
<g id="node8" class="node">
<title>Node32</title>
<g id="a_node8"><a xlink:href="deformable__mesh__intersection_8h.html" target="_top" xlink:title=" ">
<polygon fill="white" stroke="black" points="0,-6 0,-36 180,-36 180,-6 0,-6"/>
<text text-anchor="start" x="8" y="-24" font-family="Helvetica,sans-Serif" font-size="10.00">drake/geometry/proximity</text>
<text text-anchor="middle" x="90" y="-13" font-family="Helvetica,sans-Serif" font-size="10.00">/deformable_mesh_intersection.h</text>
</a>
</g>
</g>
<!-- Node27&#45;&gt;Node32 -->
<g id="edge14" class="edge">
<title>Node27&#45;&gt;Node32</title>
<path fill="none" stroke="midnightblue" d="M458.81,-294.09C354.47,-293.06 182.54,-284.81 137,-243 76.61,-187.55 83.5,-75.34 88.06,-36.01"/>
<polygon fill="midnightblue" stroke="midnightblue" points="458.97,-297.6 469,-294.17 459.02,-290.6 458.97,-297.6"/>
</g>
<!-- Node35 -->
<g id="node11" class="node">
<title>Node35</title>
<g id="a_node11"><a xlink:href="bvh__updater_8h.html" target="_top" xlink:title=" ">
<polygon fill="white" stroke="black" points="156,-212.5 156,-242.5 300,-242.5 300,-212.5 156,-212.5"/>
<text text-anchor="start" x="164" y="-230.5" font-family="Helvetica,sans-Serif" font-size="10.00">drake/geometry/proximity</text>
<text text-anchor="middle" x="228" y="-219.5" font-family="Helvetica,sans-Serif" font-size="10.00">/bvh_updater.h</text>
</a>
</g>
</g>
<!-- Node27&#45;&gt;Node35 -->
<g id="edge10" class="edge">
<title>Node27&#45;&gt;Node35</title>
<path fill="none" stroke="midnightblue" d="M463.39,-277.38C411.9,-266.69 345,-252.8 295.68,-242.55"/>
<polygon fill="midnightblue" stroke="midnightblue" points="462.97,-280.87 473.47,-279.48 464.39,-274.02 462.97,-280.87"/>
</g>
<!-- Node36 -->
<g id="node12" class="node">
<title>Node36</title>
<g id="a_node12"><a xlink:href="deformable__volume__mesh_8h.html" target="_top" xlink:title=" ">
<polygon fill="white" stroke="black" points="134.5,-145.5 134.5,-175.5 293.5,-175.5 293.5,-145.5 134.5,-145.5"/>
<text text-anchor="start" x="142.5" y="-163.5" font-family="Helvetica,sans-Serif" font-size="10.00">drake/geometry/proximity</text>
<text text-anchor="middle" x="214" y="-152.5" font-family="Helvetica,sans-Serif" font-size="10.00">/deformable_volume_mesh.h</text>
</a>
</g>
</g>
<!-- Node27&#45;&gt;Node36 -->
<g id="edge13" class="edge">
<title>Node27&#45;&gt;Node36</title>
<path fill="none" stroke="midnightblue" d="M458.66,-288.67C349.23,-281.4 167.24,-266 147,-243 126.67,-219.9 161.88,-192.02 188.49,-175.58"/>
<polygon fill="midnightblue" stroke="midnightblue" points="458.48,-292.17 468.69,-289.33 458.94,-285.18 458.48,-292.17"/>
</g>
<!-- Node27&#45;&gt;Node37 -->
<g id="edge15" class="edge">
<title>Node27&#45;&gt;Node37</title>
<path fill="none" stroke="midnightblue" d="M545.08,-269.4C546.61,-260.37 548.29,-250.41 549.62,-242.58"/>
<polygon fill="midnightblue" stroke="midnightblue" points="541.6,-268.95 543.39,-279.4 548.51,-270.12 541.6,-268.95"/>
</g>
<!-- Node38 -->
<g id="node14" class="node">
<title>Node38</title>
<g id="a_node14"><a xlink:href="mesh__half__space__intersection_8h.html" target="_top" xlink:title=" ">
<polygon fill="white" stroke="black" points="642,-212.5 642,-242.5 818,-242.5 818,-212.5 642,-212.5"/>
<text text-anchor="start" x="650" y="-230.5" font-family="Helvetica,sans-Serif" font-size="10.00">drake/geometry/proximity</text>
<text text-anchor="middle" x="730" y="-219.5" font-family="Helvetica,sans-Serif" font-size="10.00">/mesh_half_space_intersection.h</text>
</a>
</g>
</g>
<!-- Node27&#45;&gt;Node38 -->
<g id="edge17" class="edge">
<title>Node27&#45;&gt;Node38</title>
<path fill="none" stroke="midnightblue" d="M591.62,-276.09C622.13,-265.6 660.48,-252.41 689.07,-242.58"/>
<polygon fill="midnightblue" stroke="midnightblue" points="590.33,-272.83 582.01,-279.4 592.6,-279.45 590.33,-272.83"/>
</g>
<!-- Node39 -->
<g id="node15" class="node">
<title>Node39</title>
<g id="a_node15"><a xlink:href="mesh__intersection_8h.html" target="_top" xlink:title=" ">
<polygon fill="white" stroke="black" points="836,-212.5 836,-242.5 980,-242.5 980,-212.5 836,-212.5"/>
<text text-anchor="start" x="844" y="-230.5" font-family="Helvetica,sans-Serif" font-size="10.00">drake/geometry/proximity</text>
<text text-anchor="middle" x="908" y="-219.5" font-family="Helvetica,sans-Serif" font-size="10.00">/mesh_intersection.h</text>
</a>
</g>
</g>
<!-- Node27&#45;&gt;Node39 -->
<g id="edge19" class="edge">
<title>Node27&#45;&gt;Node39</title>
<path fill="none" stroke="midnightblue" d="M623.07,-279.06C680.24,-268.99 758.28,-255.22 827,-243 829.81,-242.5 832.68,-241.99 835.58,-241.47"/>
<polygon fill="midnightblue" stroke="midnightblue" points="622.24,-275.65 613,-280.84 623.46,-282.55 622.24,-275.65"/>
</g>
<!-- Node27&#45;&gt;Node40 -->
<g id="edge21" class="edge">
<title>Node27&#45;&gt;Node40</title>
<path fill="none" stroke="midnightblue" d="M623.29,-283.34C635.59,-281.86 648.13,-280.37 660,-279 806.12,-262.1 843.32,-263.38 989,-243 992.11,-242.56 995.29,-242.1 998.49,-241.62"/>
<polygon fill="midnightblue" stroke="midnightblue" points="622.54,-279.9 613.04,-284.58 623.38,-286.85 622.54,-279.9"/>
</g>
<!-- Node29 -->
<g id="node5" class="node">
<title>Node29</title>
<g id="a_node5"><a xlink:href="proximity__engine_8h.html" target="_top" xlink:title=" ">
<polygon fill="white" stroke="black" points="349,-145.5 349,-175.5 493,-175.5 493,-145.5 349,-145.5"/>
<text text-anchor="start" x="357" y="-163.5" font-family="Helvetica,sans-Serif" font-size="10.00">drake/geometry/proximity</text>
<text text-anchor="middle" x="421" y="-152.5" font-family="Helvetica,sans-Serif" font-size="10.00">_engine.h</text>
</a>
</g>
</g>
<!-- Node28&#45;&gt;Node29 -->
<g id="edge4" class="edge">
<title>Node28&#45;&gt;Node29</title>
<path fill="none" stroke="midnightblue" d="M401.07,-203.28C405.49,-194.02 410.43,-183.66 414.29,-175.58"/>
<polygon fill="midnightblue" stroke="midnightblue" points="397.87,-201.86 396.73,-212.4 404.19,-204.88 397.87,-201.86"/>
</g>
<!-- Node31 -->
<g id="node7" class="node">
<title>Node31</title>
<g id="a_node7"><a xlink:href="deformable__contact__geometries_8h.html" target="_top" xlink:title=" ">
<polygon fill="white" stroke="black" points="132.5,-78.5 132.5,-108.5 319.5,-108.5 319.5,-78.5 132.5,-78.5"/>
<text text-anchor="start" x="140.5" y="-96.5" font-family="Helvetica,sans-Serif" font-size="10.00">drake/geometry/proximity</text>
<text text-anchor="middle" x="226" y="-85.5" font-family="Helvetica,sans-Serif" font-size="10.00">/deformable_contact_geometries.h</text>
</a>
</g>
</g>
<!-- Node28&#45;&gt;Node31 -->
<g id="edge6" class="edge">
<title>Node28&#45;&gt;Node31</title>
<path fill="none" stroke="midnightblue" d="M368.96,-205.2C351.65,-188.13 326.12,-163.99 302,-145 285.07,-131.68 264.68,-118.26 249.28,-108.6"/>
<polygon fill="midnightblue" stroke="midnightblue" points="366.74,-207.93 376.3,-212.5 371.67,-202.97 366.74,-207.93"/>
</g>
<!-- Node34 -->
<g id="node10" class="node">
<title>Node34</title>
<g id="a_node10"><a xlink:href="hydroelastic__callback_8h.html" target="_top" xlink:title=" ">
<polygon fill="white" stroke="black" points="658,-145.5 658,-175.5 802,-175.5 802,-145.5 658,-145.5"/>
<text text-anchor="start" x="666" y="-163.5" font-family="Helvetica,sans-Serif" font-size="10.00">drake/geometry/proximity</text>
<text text-anchor="middle" x="730" y="-152.5" font-family="Helvetica,sans-Serif" font-size="10.00">/hydroelastic_callback.h</text>
</a>
</g>
</g>
<!-- Node28&#45;&gt;Node34 -->
<g id="edge9" class="edge">
<title>Node28&#45;&gt;Node34</title>
<path fill="none" stroke="midnightblue" d="M472.12,-210.8C528.85,-199.95 603.59,-185.67 658,-175.26"/>
<polygon fill="midnightblue" stroke="midnightblue" points="471.27,-207.4 462.11,-212.72 472.58,-214.28 471.27,-207.4"/>
</g>
<!-- Node30 -->
<g id="node6" class="node">
<title>Node30</title>
<g id="a_node6"><a xlink:href="geometry__state_8h.html" target="_top" xlink:title=" ">
<polygon fill="white" stroke="black" points="349,-78.5 349,-108.5 493,-108.5 493,-78.5 349,-78.5"/>
<text text-anchor="start" x="357" y="-96.5" font-family="Helvetica,sans-Serif" font-size="10.00">drake/geometry/geometry</text>
<text text-anchor="middle" x="421" y="-85.5" font-family="Helvetica,sans-Serif" font-size="10.00">_state.h</text>
</a>
</g>
</g>
<!-- Node29&#45;&gt;Node30 -->
<g id="edge5" class="edge">
<title>Node29&#45;&gt;Node30</title>
<path fill="none" stroke="midnightblue" d="M421,-135.11C421,-126.15 421,-116.32 421,-108.58"/>
<polygon fill="midnightblue" stroke="midnightblue" points="417.5,-135.4 421,-145.4 424.5,-135.4 417.5,-135.4"/>
</g>
<!-- Node31&#45;&gt;Node32 -->
<g id="edge7" class="edge">
<title>Node31&#45;&gt;Node32</title>
<path fill="none" stroke="midnightblue" d="M189.76,-73.72C166.95,-61.89 137.98,-46.87 117.15,-36.07"/>
<polygon fill="midnightblue" stroke="midnightblue" points="188.32,-76.91 198.81,-78.4 191.54,-70.69 188.32,-76.91"/>
</g>
<!-- Node33 -->
<g id="node9" class="node">
<title>Node33</title>
<g id="a_node9"><a xlink:href="deformable__contact__data_8h.html" target="_top" xlink:title=" ">
<polygon fill="white" stroke="black" points="198.5,-0.5 198.5,-41.5 353.5,-41.5 353.5,-0.5 198.5,-0.5"/>
<text text-anchor="start" x="206.5" y="-29.5" font-family="Helvetica,sans-Serif" font-size="10.00">drake/geometry/query</text>
<text text-anchor="start" x="206.5" y="-18.5" font-family="Helvetica,sans-Serif" font-size="10.00">_results/deformable_contact</text>
<text text-anchor="middle" x="276" y="-7.5" font-family="Helvetica,sans-Serif" font-size="10.00">_data.h</text>
</a>
</g>
</g>
<!-- Node31&#45;&gt;Node33 -->
<g id="edge8" class="edge">
<title>Node31&#45;&gt;Node33</title>
<path fill="none" stroke="midnightblue" d="M241.97,-69.98C248.45,-60.85 255.86,-50.4 262.11,-41.59"/>
<polygon fill="midnightblue" stroke="midnightblue" points="239.05,-68.05 236.12,-78.23 244.76,-72.1 239.05,-68.05"/>
</g>
<!-- Node35&#45;&gt;Node36 -->
<g id="edge11" class="edge">
<title>Node35&#45;&gt;Node36</title>
<path fill="none" stroke="midnightblue" d="M222.81,-202.4C220.86,-193.37 218.72,-183.41 217.03,-175.58"/>
<polygon fill="midnightblue" stroke="midnightblue" points="219.44,-203.36 224.96,-212.4 226.28,-201.88 219.44,-203.36"/>
</g>
<!-- Node36&#45;&gt;Node31 -->
<g id="edge12" class="edge">
<title>Node36&#45;&gt;Node31</title>
<path fill="none" stroke="midnightblue" d="M218.45,-135.4C220.12,-126.37 221.96,-116.41 223.4,-108.58"/>
<polygon fill="midnightblue" stroke="midnightblue" points="214.98,-134.93 216.6,-145.4 221.86,-136.2 214.98,-134.93"/>
</g>
<!-- Node37&#45;&gt;Node34 -->
<g id="edge16" class="edge">
<title>Node37&#45;&gt;Node34</title>
<path fill="none" stroke="midnightblue" d="M600.05,-208.96C628.72,-198.48 664.64,-185.37 691.45,-175.58"/>
<polygon fill="midnightblue" stroke="midnightblue" points="598.82,-205.68 590.62,-212.4 601.22,-212.25 598.82,-205.68"/>
</g>
<!-- Node38&#45;&gt;Node34 -->
<g id="edge18" class="edge">
<title>Node38&#45;&gt;Node34</title>
<path fill="none" stroke="midnightblue" d="M730,-202.11C730,-193.15 730,-183.32 730,-175.58"/>
<polygon fill="midnightblue" stroke="midnightblue" points="726.5,-202.4 730,-212.4 733.5,-202.4 726.5,-202.4"/>
</g>
<!-- Node39&#45;&gt;Node34 -->
<g id="edge20" class="edge">
<title>Node39&#45;&gt;Node34</title>
<path fill="none" stroke="midnightblue" d="M859.95,-208.96C831.28,-198.48 795.36,-185.37 768.55,-175.58"/>
<polygon fill="midnightblue" stroke="midnightblue" points="858.78,-212.25 869.38,-212.4 861.18,-205.68 858.78,-212.25"/>
</g>
<!-- Node40&#45;&gt;Node34 -->
<g id="edge22" class="edge">
<title>Node40&#45;&gt;Node34</title>
<path fill="none" stroke="midnightblue" d="M989.62,-210.56C932.09,-199.69 856.73,-185.45 802.02,-175.11"/>
<polygon fill="midnightblue" stroke="midnightblue" points="989.3,-214.06 999.78,-212.48 990.6,-207.18 989.3,-214.06"/>
</g>
<!-- Node41&#45;&gt;Node38 -->
<g id="edge25" class="edge">
<title>Node41&#45;&gt;Node38</title>
<path fill="none" stroke="midnightblue" d="M736.92,-269.4C735.39,-260.37 733.71,-250.41 732.38,-242.58"/>
<polygon fill="midnightblue" stroke="midnightblue" points="733.49,-270.12 738.61,-279.4 740.4,-268.95 733.49,-270.12"/>
</g>
<!-- Node41&#45;&gt;Node39 -->
<g id="edge26" class="edge">
<title>Node41&#45;&gt;Node39</title>
<path fill="none" stroke="midnightblue" d="M786.78,-275.68C813.56,-265.26 846.9,-252.28 871.83,-242.58"/>
<polygon fill="midnightblue" stroke="midnightblue" points="785.29,-272.51 777.24,-279.4 787.83,-279.03 785.29,-272.51"/>
</g>
</g>
</svg>
