<?xml version="1.0" encoding="UTF-8" standalone="no"?>
<!DOCTYPE svg PUBLIC "-//W3C//DTD SVG 1.1//EN"
 "http://www.w3.org/Graphics/SVG/1.1/DTD/svg11.dtd">
<!-- Generated by graphviz version 2.43.0 (0)
 -->
<!-- Title: drake/geometry/proximity/plane.h Pages: 1 -->
<svg width="1098pt" height="441pt"
 viewBox="0.00 0.00 1097.50 441.00" xmlns="http://www.w3.org/2000/svg" xmlns:xlink="http://www.w3.org/1999/xlink">
<g id="graph0" class="graph" transform="scale(1 1) rotate(0) translate(4 437)">
<title>drake/geometry/proximity/plane.h</title>
<polygon fill="white" stroke="transparent" points="-4,4 -4,-437 1093.5,-437 1093.5,4 -4,4"/>
<!-- Node25 -->
<g id="node1" class="node">
<title>Node25</title>
<g id="a_node1"><a xlink:title=" ">
<polygon fill="#bfbfbf" stroke="black" points="559,-402.5 559,-432.5 703,-432.5 703,-402.5 559,-402.5"/>
<text text-anchor="start" x="567" y="-420.5" font-family="Helvetica,sans-Serif" font-size="10.00">drake/geometry/proximity</text>
<text text-anchor="middle" x="631" y="-409.5" font-family="Helvetica,sans-Serif" font-size="10.00">/plane.h</text>
</a>
</g>
</g>
<!-- Node26 -->
<g id="node2" class="node">
<title>Node26</title>
<g id="a_node2"><a xlink:href="obb_8h.html" target="_top" xlink:title=" ">
<polygon fill="white" stroke="black" points="409,-335.5 409,-365.5 553,-365.5 553,-335.5 409,-335.5"/>
<text text-anchor="start" x="417" y="-353.5" font-family="Helvetica,sans-Serif" font-size="10.00">drake/geometry/proximity</text>
<text text-anchor="middle" x="481" y="-342.5" font-family="Helvetica,sans-Serif" font-size="10.00">/obb.h</text>
</a>
</g>
</g>
<!-- Node25&#45;&gt;Node26 -->
<g id="edge1" class="edge">
<title>Node25&#45;&gt;Node26</title>
<path fill="none" stroke="midnightblue" d="M589.25,-398.41C565.3,-388.03 535.68,-375.2 513.48,-365.58"/>
<polygon fill="midnightblue" stroke="midnightblue" points="587.89,-401.63 598.45,-402.4 590.67,-395.21 587.89,-401.63"/>
</g>
<!-- Node36 -->
<g id="node12" class="node">
<title>Node36</title>
<g id="a_node12"><a xlink:href="field__intersection_8h.html" target="_top" xlink:title=" ">
<polygon fill="white" stroke="black" points="420,-201.5 420,-231.5 564,-231.5 564,-201.5 420,-201.5"/>
<text text-anchor="start" x="428" y="-219.5" font-family="Helvetica,sans-Serif" font-size="10.00">drake/geometry/proximity</text>
<text text-anchor="middle" x="492" y="-208.5" font-family="Helvetica,sans-Serif" font-size="10.00">/field_intersection.h</text>
</a>
</g>
</g>
<!-- Node25&#45;&gt;Node36 -->
<g id="edge22" class="edge">
<title>Node25&#45;&gt;Node36</title>
<path fill="none" stroke="midnightblue" d="M624.04,-392.45C614.13,-361.22 593.56,-306.2 562,-268 549.78,-253.21 532.28,-240.59 517.84,-231.66"/>
<polygon fill="midnightblue" stroke="midnightblue" points="620.72,-393.54 627,-402.07 627.41,-391.48 620.72,-393.54"/>
</g>
<!-- Node39 -->
<g id="node15" class="node">
<title>Node39</title>
<g id="a_node15"><a xlink:href="mesh__plane__intersection_8h.html" target="_top" xlink:title=" ">
<polygon fill="white" stroke="black" points="938.5,-201.5 938.5,-231.5 1089.5,-231.5 1089.5,-201.5 938.5,-201.5"/>
<text text-anchor="start" x="946.5" y="-219.5" font-family="Helvetica,sans-Serif" font-size="10.00">drake/geometry/proximity</text>
<text text-anchor="middle" x="1014" y="-208.5" font-family="Helvetica,sans-Serif" font-size="10.00">/mesh_plane_intersection.h</text>
</a>
</g>
</g>
<!-- Node25&#45;&gt;Node39 -->
<g id="edge26" class="edge">
<title>Node25&#45;&gt;Node39</title>
<path fill="none" stroke="midnightblue" d="M667.49,-397.54C743.94,-357.82 919.45,-266.63 986.9,-231.58"/>
<polygon fill="midnightblue" stroke="midnightblue" points="665.5,-394.63 658.24,-402.35 668.72,-400.84 665.5,-394.63"/>
</g>
<!-- Node40 -->
<g id="node16" class="node">
<title>Node40</title>
<g id="a_node16"><a xlink:href="posed__half__space_8h.html" target="_top" xlink:title=" ">
<polygon fill="white" stroke="black" points="609,-268.5 609,-298.5 753,-298.5 753,-268.5 609,-268.5"/>
<text text-anchor="start" x="617" y="-286.5" font-family="Helvetica,sans-Serif" font-size="10.00">drake/geometry/proximity</text>
<text text-anchor="middle" x="681" y="-275.5" font-family="Helvetica,sans-Serif" font-size="10.00">/posed_half_space.h</text>
</a>
</g>
</g>
<!-- Node25&#45;&gt;Node40 -->
<g id="edge23" class="edge">
<title>Node25&#45;&gt;Node40</title>
<path fill="none" stroke="midnightblue" d="M639.99,-392.75C650.4,-365.29 667.18,-320.99 675.69,-298.52"/>
<polygon fill="midnightblue" stroke="midnightblue" points="636.62,-391.78 636.35,-402.37 643.17,-394.26 636.62,-391.78"/>
</g>
<!-- Node27 -->
<g id="node3" class="node">
<title>Node27</title>
<g id="a_node3"><a xlink:href="bvh_8h.html" target="_top" xlink:title=" ">
<polygon fill="white" stroke="black" points="409,-268.5 409,-298.5 553,-298.5 553,-268.5 409,-268.5"/>
<text text-anchor="start" x="417" y="-286.5" font-family="Helvetica,sans-Serif" font-size="10.00">drake/geometry/proximity</text>
<text text-anchor="middle" x="481" y="-275.5" font-family="Helvetica,sans-Serif" font-size="10.00">/bvh.h</text>
</a>
</g>
</g>
<!-- Node26&#45;&gt;Node27 -->
<g id="edge2" class="edge">
<title>Node26&#45;&gt;Node27</title>
<path fill="none" stroke="midnightblue" d="M481,-325.11C481,-316.15 481,-306.32 481,-298.58"/>
<polygon fill="midnightblue" stroke="midnightblue" points="477.5,-325.4 481,-335.4 484.5,-325.4 477.5,-325.4"/>
</g>
<!-- Node28 -->
<g id="node4" class="node">
<title>Node28</title>
<g id="a_node4"><a xlink:href="hydroelastic__internal_8h.html" target="_top" xlink:title=" ">
<polygon fill="white" stroke="black" points="258,-201.5 258,-231.5 402,-231.5 402,-201.5 258,-201.5"/>
<text text-anchor="start" x="266" y="-219.5" font-family="Helvetica,sans-Serif" font-size="10.00">drake/geometry/proximity</text>
<text text-anchor="middle" x="330" y="-208.5" font-family="Helvetica,sans-Serif" font-size="10.00">/hydroelastic_internal.h</text>
</a>
</g>
</g>
<!-- Node27&#45;&gt;Node28 -->
<g id="edge3" class="edge">
<title>Node27&#45;&gt;Node28</title>
<path fill="none" stroke="midnightblue" d="M438.97,-264.41C414.86,-254.03 385.05,-241.2 362.7,-231.58"/>
<polygon fill="midnightblue" stroke="midnightblue" points="437.67,-267.66 448.24,-268.4 440.43,-261.23 437.67,-267.66"/>
</g>
<!-- Node32 -->
<g id="node8" class="node">
<title>Node32</title>
<g id="a_node8"><a xlink:href="deformable__mesh__intersection_8h.html" target="_top" xlink:title=" ">
<polygon fill="white" stroke="black" points="0,-0.5 0,-30.5 180,-30.5 180,-0.5 0,-0.5"/>
<text text-anchor="start" x="8" y="-18.5" font-family="Helvetica,sans-Serif" font-size="10.00">drake/geometry/proximity</text>
<text text-anchor="middle" x="90" y="-7.5" font-family="Helvetica,sans-Serif" font-size="10.00">/deformable_mesh_intersection.h</text>
</a>
</g>
</g>
<!-- Node27&#45;&gt;Node32 -->
<g id="edge13" class="edge">
<title>Node27&#45;&gt;Node32</title>
<path fill="none" stroke="midnightblue" d="M398.6,-282.32C294.91,-280.42 124.59,-271.19 77,-232 19.52,-184.67 22.69,-137.02 48,-67 53.12,-52.84 64.12,-39.86 73.59,-30.6"/>
<polygon fill="midnightblue" stroke="midnightblue" points="398.68,-285.82 408.73,-282.49 398.79,-278.83 398.68,-285.82"/>
</g>
<!-- Node34 -->
<g id="node10" class="node">
<title>Node34</title>
<g id="a_node10"><a xlink:href="bvh__updater_8h.html" target="_top" xlink:title=" ">
<polygon fill="white" stroke="black" points="96,-201.5 96,-231.5 240,-231.5 240,-201.5 96,-201.5"/>
<text text-anchor="start" x="104" y="-219.5" font-family="Helvetica,sans-Serif" font-size="10.00">drake/geometry/proximity</text>
<text text-anchor="middle" x="168" y="-208.5" font-family="Helvetica,sans-Serif" font-size="10.00">/bvh_updater.h</text>
</a>
</g>
</g>
<!-- Node27&#45;&gt;Node34 -->
<g id="edge9" class="edge">
<title>Node27&#45;&gt;Node34</title>
<path fill="none" stroke="midnightblue" d="M403.39,-266.38C351.9,-255.69 285,-241.8 235.68,-231.55"/>
<polygon fill="midnightblue" stroke="midnightblue" points="402.97,-269.87 413.47,-268.48 404.39,-263.02 402.97,-269.87"/>
</g>
<!-- Node35 -->
<g id="node11" class="node">
<title>Node35</title>
<g id="a_node11"><a xlink:href="deformable__volume__mesh_8h.html" target="_top" xlink:title=" ">
<polygon fill="white" stroke="black" points="64.5,-134.5 64.5,-164.5 223.5,-164.5 223.5,-134.5 64.5,-134.5"/>
<text text-anchor="start" x="72.5" y="-152.5" font-family="Helvetica,sans-Serif" font-size="10.00">drake/geometry/proximity</text>
<text text-anchor="middle" x="144" y="-141.5" font-family="Helvetica,sans-Serif" font-size="10.00">/deformable_volume_mesh.h</text>
</a>
</g>
</g>
<!-- Node27&#45;&gt;Node35 -->
<g id="edge12" class="edge">
<title>Node27&#45;&gt;Node35</title>
<path fill="none" stroke="midnightblue" d="M398.66,-277.67C289.23,-270.4 107.24,-255 87,-232 67.72,-210.09 98.74,-181.59 122.05,-164.75"/>
<polygon fill="midnightblue" stroke="midnightblue" points="398.48,-281.17 408.69,-278.33 398.94,-274.18 398.48,-281.17"/>
</g>
<!-- Node27&#45;&gt;Node36 -->
<g id="edge14" class="edge">
<title>Node27&#45;&gt;Node36</title>
<path fill="none" stroke="midnightblue" d="M485.08,-258.4C486.61,-249.37 488.29,-239.41 489.62,-231.58"/>
<polygon fill="midnightblue" stroke="midnightblue" points="481.6,-257.95 483.39,-268.4 488.51,-259.12 481.6,-257.95"/>
</g>
<!-- Node37 -->
<g id="node13" class="node">
<title>Node37</title>
<g id="a_node13"><a xlink:href="mesh__half__space__intersection_8h.html" target="_top" xlink:title=" ">
<polygon fill="white" stroke="black" points="582,-201.5 582,-231.5 758,-231.5 758,-201.5 582,-201.5"/>
<text text-anchor="start" x="590" y="-219.5" font-family="Helvetica,sans-Serif" font-size="10.00">drake/geometry/proximity</text>
<text text-anchor="middle" x="670" y="-208.5" font-family="Helvetica,sans-Serif" font-size="10.00">/mesh_half_space_intersection.h</text>
</a>
</g>
</g>
<!-- Node27&#45;&gt;Node37 -->
<g id="edge16" class="edge">
<title>Node27&#45;&gt;Node37</title>
<path fill="none" stroke="midnightblue" d="M531.62,-265.09C562.13,-254.6 600.48,-241.41 629.07,-231.58"/>
<polygon fill="midnightblue" stroke="midnightblue" points="530.33,-261.83 522.01,-268.4 532.6,-268.45 530.33,-261.83"/>
</g>
<!-- Node38 -->
<g id="node14" class="node">
<title>Node38</title>
<g id="a_node14"><a xlink:href="mesh__intersection_8h.html" target="_top" xlink:title=" ">
<polygon fill="white" stroke="black" points="776,-201.5 776,-231.5 920,-231.5 920,-201.5 776,-201.5"/>
<text text-anchor="start" x="784" y="-219.5" font-family="Helvetica,sans-Serif" font-size="10.00">drake/geometry/proximity</text>
<text text-anchor="middle" x="848" y="-208.5" font-family="Helvetica,sans-Serif" font-size="10.00">/mesh_intersection.h</text>
</a>
</g>
</g>
<!-- Node27&#45;&gt;Node38 -->
<g id="edge18" class="edge">
<title>Node27&#45;&gt;Node38</title>
<path fill="none" stroke="midnightblue" d="M563.07,-268.06C620.24,-257.99 698.28,-244.22 767,-232 769.81,-231.5 772.68,-230.99 775.58,-230.47"/>
<polygon fill="midnightblue" stroke="midnightblue" points="562.24,-264.65 553,-269.84 563.46,-271.55 562.24,-264.65"/>
</g>
<!-- Node27&#45;&gt;Node39 -->
<g id="edge20" class="edge">
<title>Node27&#45;&gt;Node39</title>
<path fill="none" stroke="midnightblue" d="M563.29,-272.34C575.59,-270.86 588.13,-269.37 600,-268 746.12,-251.1 783.32,-252.38 929,-232 932.11,-231.56 935.29,-231.1 938.49,-230.62"/>
<polygon fill="midnightblue" stroke="midnightblue" points="562.54,-268.9 553.04,-273.58 563.38,-275.85 562.54,-268.9"/>
</g>
<!-- Node29 -->
<g id="node5" class="node">
<title>Node29</title>
<g id="a_node5"><a xlink:href="proximity__engine_8h.html" target="_top" xlink:title=" ">
<polygon fill="white" stroke="black" points="279,-134.5 279,-164.5 423,-164.5 423,-134.5 279,-134.5"/>
<text text-anchor="start" x="287" y="-152.5" font-family="Helvetica,sans-Serif" font-size="10.00">drake/geometry/proximity</text>
<text text-anchor="middle" x="351" y="-141.5" font-family="Helvetica,sans-Serif" font-size="10.00">_engine.h</text>
</a>
</g>
</g>
<!-- Node28&#45;&gt;Node29 -->
<g id="edge4" class="edge">
<title>Node28&#45;&gt;Node29</title>
<path fill="none" stroke="midnightblue" d="M337.69,-191.7C340.63,-182.59 343.89,-172.49 346.45,-164.58"/>
<polygon fill="midnightblue" stroke="midnightblue" points="334.3,-190.8 334.56,-201.4 340.96,-192.96 334.3,-190.8"/>
</g>
<!-- Node31 -->
<g id="node7" class="node">
<title>Node31</title>
<g id="a_node7"><a xlink:href="deformable__contact__geometries_8h.html" target="_top" xlink:title=" ">
<polygon fill="white" stroke="black" points="57.5,-67.5 57.5,-97.5 244.5,-97.5 244.5,-67.5 57.5,-67.5"/>
<text text-anchor="start" x="65.5" y="-85.5" font-family="Helvetica,sans-Serif" font-size="10.00">drake/geometry/proximity</text>
<text text-anchor="middle" x="151" y="-74.5" font-family="Helvetica,sans-Serif" font-size="10.00">/deformable_contact_geometries.h</text>
</a>
</g>
</g>
<!-- Node28&#45;&gt;Node31 -->
<g id="edge6" class="edge">
<title>Node28&#45;&gt;Node31</title>
<path fill="none" stroke="midnightblue" d="M305.3,-194.66C278.79,-172.35 239.48,-139.4 232,-134 213.73,-120.8 192.01,-107.37 175.67,-97.69"/>
<polygon fill="midnightblue" stroke="midnightblue" points="303.16,-197.43 313.06,-201.2 307.67,-192.08 303.16,-197.43"/>
</g>
<!-- Node33 -->
<g id="node9" class="node">
<title>Node33</title>
<g id="a_node9"><a xlink:href="hydroelastic__callback_8h.html" target="_top" xlink:title=" ">
<polygon fill="white" stroke="black" points="598,-134.5 598,-164.5 742,-164.5 742,-134.5 598,-134.5"/>
<text text-anchor="start" x="606" y="-152.5" font-family="Helvetica,sans-Serif" font-size="10.00">drake/geometry/proximity</text>
<text text-anchor="middle" x="670" y="-141.5" font-family="Helvetica,sans-Serif" font-size="10.00">/hydroelastic_callback.h</text>
</a>
</g>
</g>
<!-- Node28&#45;&gt;Node33 -->
<g id="edge8" class="edge">
<title>Node28&#45;&gt;Node33</title>
<path fill="none" stroke="midnightblue" d="M412.12,-199.8C468.85,-188.95 543.59,-174.67 598,-164.26"/>
<polygon fill="midnightblue" stroke="midnightblue" points="411.27,-196.4 402.11,-201.72 412.58,-203.28 411.27,-196.4"/>
</g>
<!-- Node30 -->
<g id="node6" class="node">
<title>Node30</title>
<g id="a_node6"><a xlink:href="geometry__state_8h.html" target="_top" xlink:title=" ">
<polygon fill="white" stroke="black" points="279,-67.5 279,-97.5 423,-97.5 423,-67.5 279,-67.5"/>
<text text-anchor="start" x="287" y="-85.5" font-family="Helvetica,sans-Serif" font-size="10.00">drake/geometry/geometry</text>
<text text-anchor="middle" x="351" y="-74.5" font-family="Helvetica,sans-Serif" font-size="10.00">_state.h</text>
</a>
</g>
</g>
<!-- Node29&#45;&gt;Node30 -->
<g id="edge5" class="edge">
<title>Node29&#45;&gt;Node30</title>
<path fill="none" stroke="midnightblue" d="M351,-124.11C351,-115.15 351,-105.32 351,-97.58"/>
<polygon fill="midnightblue" stroke="midnightblue" points="347.5,-124.4 351,-134.4 354.5,-124.4 347.5,-124.4"/>
</g>
<!-- Node31&#45;&gt;Node32 -->
<g id="edge7" class="edge">
<title>Node31&#45;&gt;Node32</title>
<path fill="none" stroke="midnightblue" d="M130.85,-60.02C121.76,-50.34 111.28,-39.17 103.21,-30.58"/>
<polygon fill="midnightblue" stroke="midnightblue" points="128.37,-62.5 137.76,-67.4 133.47,-57.71 128.37,-62.5"/>
</g>
<!-- Node34&#45;&gt;Node35 -->
<g id="edge10" class="edge">
<title>Node34&#45;&gt;Node35</title>
<path fill="none" stroke="midnightblue" d="M159.32,-191.99C155.93,-182.8 152.15,-172.58 149.2,-164.58"/>
<polygon fill="midnightblue" stroke="midnightblue" points="156.05,-193.23 162.79,-201.4 162.61,-190.8 156.05,-193.23"/>
</g>
<!-- Node35&#45;&gt;Node31 -->
<g id="edge11" class="edge">
<title>Node35&#45;&gt;Node31</title>
<path fill="none" stroke="midnightblue" d="M146.6,-124.4C147.57,-115.37 148.64,-105.41 149.48,-97.58"/>
<polygon fill="midnightblue" stroke="midnightblue" points="143.11,-124.08 145.52,-134.4 150.07,-124.83 143.11,-124.08"/>
</g>
<!-- Node36&#45;&gt;Node33 -->
<g id="edge15" class="edge">
<title>Node36&#45;&gt;Node33</title>
<path fill="none" stroke="midnightblue" d="M540.05,-197.96C568.72,-187.48 604.64,-174.37 631.45,-164.58"/>
<polygon fill="midnightblue" stroke="midnightblue" points="538.82,-194.68 530.62,-201.4 541.22,-201.25 538.82,-194.68"/>
</g>
<!-- Node37&#45;&gt;Node33 -->
<g id="edge17" class="edge">
<title>Node37&#45;&gt;Node33</title>
<path fill="none" stroke="midnightblue" d="M670,-191.11C670,-182.15 670,-172.32 670,-164.58"/>
<polygon fill="midnightblue" stroke="midnightblue" points="666.5,-191.4 670,-201.4 673.5,-191.4 666.5,-191.4"/>
</g>
<!-- Node38&#45;&gt;Node33 -->
<g id="edge19" class="edge">
<title>Node38&#45;&gt;Node33</title>
<path fill="none" stroke="midnightblue" d="M799.95,-197.96C771.28,-187.48 735.36,-174.37 708.55,-164.58"/>
<polygon fill="midnightblue" stroke="midnightblue" points="798.78,-201.25 809.38,-201.4 801.18,-194.68 798.78,-201.25"/>
</g>
<!-- Node39&#45;&gt;Node33 -->
<g id="edge21" class="edge">
<title>Node39&#45;&gt;Node33</title>
<path fill="none" stroke="midnightblue" d="M929.62,-199.56C872.09,-188.69 796.73,-174.45 742.02,-164.11"/>
<polygon fill="midnightblue" stroke="midnightblue" points="929.3,-203.06 939.78,-201.48 930.6,-196.18 929.3,-203.06"/>
</g>
<!-- Node40&#45;&gt;Node37 -->
<g id="edge24" class="edge">
<title>Node40&#45;&gt;Node37</title>
<path fill="none" stroke="midnightblue" d="M676.92,-258.4C675.39,-249.37 673.71,-239.41 672.38,-231.58"/>
<polygon fill="midnightblue" stroke="midnightblue" points="673.49,-259.12 678.61,-268.4 680.4,-257.95 673.49,-259.12"/>
</g>
<!-- Node40&#45;&gt;Node38 -->
<g id="edge25" class="edge">
<title>Node40&#45;&gt;Node38</title>
<path fill="none" stroke="midnightblue" d="M726.78,-264.68C753.56,-254.26 786.9,-241.28 811.83,-231.58"/>
<polygon fill="midnightblue" stroke="midnightblue" points="725.29,-261.51 717.24,-268.4 727.83,-268.03 725.29,-261.51"/>
</g>
</g>
</svg>
