<?xml version="1.0" encoding="UTF-8" standalone="no"?>
<!DOCTYPE svg PUBLIC "-//W3C//DTD SVG 1.1//EN"
 "http://www.w3.org/Graphics/SVG/1.1/DTD/svg11.dtd">
<!-- Generated by graphviz version 2.43.0 (0)
 -->
<!-- Title: drake/perception/point_cloud.h Pages: 1 -->
<!--zoomable 251 -->
<svg id="main" version="1.1" xmlns="http://www.w3.org/2000/svg" xmlns:xlink="http://www.w3.org/1999/xlink" xml:space="preserve" onload="init(evt)">
<style type="text/css"><![CDATA[
.edge:hover path { stroke: red; }
.edge:hover polygon { stroke: red; fill: red; }
]]></style>
<script type="text/javascript"><![CDATA[
var edges = document.getElementsByTagName('g');
if (edges && edges.length) {
  for (var i=0;i<edges.length;i++) {
    if (edges[i].id.substr(0,4)=='edge') {
      edges[i].setAttribute('class','edge');
    }
  }
}
]]></script>
        <defs>
                <circle id="rim" cx="0" cy="0" r="7"/>
                <circle id="rim2" cx="0" cy="0" r="3.5"/>
                <g id="zoomPlus">
                        <use xlink:href="#rim" fill="#404040">
                                <set attributeName="fill" to="#808080" begin="zoomplus.mouseover" end="zoomplus.mouseout"/>
                        </use>
                        <path d="M-4,0h8M0,-4v8" fill="none" stroke="white" stroke-width="1.5" pointer-events="none"/>
                </g>
                <g id="zoomMin">
                        <use xlink:href="#rim" fill="#404040">
                                <set attributeName="fill" to="#808080" begin="zoomminus.mouseover" end="zoomminus.mouseout"/>
                        </use>
                        <path d="M-4,0h8" fill="none" stroke="white" stroke-width="1.5" pointer-events="none"/>
                </g>
                <g id="dirArrow">
                        <path fill="none" stroke="white" stroke-width="1.5" d="M0,-3.0v7 M-2.5,-0.5L0,-3.0L2.5,-0.5"/>
                </g>
               <g id="resetDef">
                       <use xlink:href="#rim2" fill="#404040">
                               <set attributeName="fill" to="#808080" begin="reset.mouseover" end="reset.mouseout"/>
                       </use>
               </g>
        </defs>

<script type="text/javascript">
var viewWidth = 1304;
var viewHeight = 251;
var sectionId = 'dynsection-1';
</script>
<script xlink:href="svgpan.js"/>
<svg id="graph" class="graph">
<g id="viewport">
<title>drake/perception/point_cloud.h</title>
<polygon fill="white" stroke="transparent" points="-4,4 -4,-247 1299.5,-247 1299.5,4 -4,4"/>
<!-- Node17 -->
<g id="node1" class="node">
<title>Node17</title>
<g id="a_node1"><a xlink:title=" ">
<polygon fill="#bfbfbf" stroke="black" points="669,-212.5 669,-242.5 795,-242.5 795,-212.5 669,-212.5"/>
<text text-anchor="start" x="677" y="-230.5" font-family="Helvetica,sans-Serif" font-size="10.00">drake/perception/point</text>
<text text-anchor="middle" x="732" y="-219.5" font-family="Helvetica,sans-Serif" font-size="10.00">_cloud.h</text>
</a>
</g>
</g>
<!-- Node18 -->
<g id="node2" class="node">
<title>Node18</title>
<g id="a_node2"><a xlink:href="meshcat_8h.html" target="_top" xlink:title=" ">
<polygon fill="white" stroke="black" points="578,-151 578,-170 726,-170 726,-151 578,-151"/>
<text text-anchor="middle" x="652" y="-158" font-family="Helvetica,sans-Serif" font-size="10.00">drake/geometry/meshcat.h</text>
</a>
</g>
</g>
<!-- Node17&#45;&gt;Node18 -->
<g id="edge1" class="edge">
<title>Node17&#45;&gt;Node18</title>
<path fill="none" stroke="midnightblue" d="M706.78,-206.01C691.93,-193.94 673.91,-179.3 662.7,-170.19"/>
<polygon fill="midnightblue" stroke="midnightblue" points="704.67,-208.81 714.64,-212.4 709.09,-203.37 704.67,-208.81"/>
</g>
<!-- Node28 -->
<g id="node12" class="node">
<title>Node28</title>
<g id="a_node12"><a xlink:href="depth__image__to__point__cloud_8h.html" target="_top" xlink:title=" ">
<polygon fill="white" stroke="black" points="744,-145.5 744,-175.5 882,-175.5 882,-145.5 744,-145.5"/>
<text text-anchor="start" x="752" y="-163.5" font-family="Helvetica,sans-Serif" font-size="10.00">drake/perception/depth</text>
<text text-anchor="middle" x="813" y="-152.5" font-family="Helvetica,sans-Serif" font-size="10.00">_image_to_point_cloud.h</text>
</a>
</g>
</g>
<!-- Node17&#45;&gt;Node28 -->
<g id="edge11" class="edge">
<title>Node17&#45;&gt;Node28</title>
<path fill="none" stroke="midnightblue" d="M757.69,-205.88C770,-196.01 784.43,-184.43 795.46,-175.58"/>
<polygon fill="midnightblue" stroke="midnightblue" points="755.18,-203.41 749.58,-212.4 759.57,-208.87 755.18,-203.41"/>
</g>
<!-- Node19 -->
<g id="node3" class="node">
<title>Node19</title>
<g id="a_node3"><a xlink:href="meshcat__point__cloud__visualizer_8h.html" target="_top" xlink:title=" ">
<polygon fill="white" stroke="black" points="0,-73 0,-103 140,-103 140,-73 0,-73"/>
<text text-anchor="start" x="8" y="-91" font-family="Helvetica,sans-Serif" font-size="10.00">drake/geometry/meshcat</text>
<text text-anchor="middle" x="70" y="-80" font-family="Helvetica,sans-Serif" font-size="10.00">_point_cloud_visualizer.h</text>
</a>
</g>
</g>
<!-- Node18&#45;&gt;Node19 -->
<g id="edge2" class="edge">
<title>Node18&#45;&gt;Node19</title>
<path fill="none" stroke="midnightblue" d="M567.91,-154.77C467.79,-148.28 295.79,-134.42 150,-109 140.69,-107.38 130.87,-105.26 121.41,-103.02"/>
<polygon fill="midnightblue" stroke="midnightblue" points="567.76,-158.27 577.97,-155.41 568.21,-151.28 567.76,-158.27"/>
</g>
<!-- Node20 -->
<g id="node4" class="node">
<title>Node20</title>
<g id="a_node4"><a xlink:href="meshcat__types_8h.html" target="_top" xlink:title=" ">
<polygon fill="white" stroke="black" points="158.5,-73 158.5,-103 297.5,-103 297.5,-73 158.5,-73"/>
<text text-anchor="start" x="166.5" y="-91" font-family="Helvetica,sans-Serif" font-size="10.00">drake/geometry/meshcat</text>
<text text-anchor="middle" x="228" y="-80" font-family="Helvetica,sans-Serif" font-size="10.00">_types.h</text>
</a>
</g>
</g>
<!-- Node18&#45;&gt;Node20 -->
<g id="edge3" class="edge">
<title>Node18&#45;&gt;Node20</title>
<path fill="none" stroke="midnightblue" d="M568.5,-149.72C498.37,-140.92 395.7,-126.67 307,-109 298.4,-107.29 289.33,-105.23 280.52,-103.1"/>
<polygon fill="midnightblue" stroke="midnightblue" points="568.25,-153.21 578.6,-150.97 569.11,-146.26 568.25,-153.21"/>
</g>
<!-- Node21 -->
<g id="node5" class="node">
<title>Node21</title>
<g id="a_node5"><a xlink:href="meshcat__visualizer_8h.html" target="_top" xlink:title=" ">
<polygon fill="white" stroke="black" points="315.5,-73 315.5,-103 454.5,-103 454.5,-73 315.5,-73"/>
<text text-anchor="start" x="323.5" y="-91" font-family="Helvetica,sans-Serif" font-size="10.00">drake/geometry/meshcat</text>
<text text-anchor="middle" x="385" y="-80" font-family="Helvetica,sans-Serif" font-size="10.00">_visualizer.h</text>
</a>
</g>
</g>
<!-- Node18&#45;&gt;Node21 -->
<g id="edge4" class="edge">
<title>Node18&#45;&gt;Node21</title>
<path fill="none" stroke="midnightblue" d="M610.05,-148.42C563.58,-136.15 488.56,-116.34 438.04,-103.01"/>
<polygon fill="midnightblue" stroke="midnightblue" points="609.23,-151.83 619.79,-151 611.02,-145.06 609.23,-151.83"/>
</g>
<!-- Node22 -->
<g id="node6" class="node">
<title>Node22</title>
<g id="a_node6"><a xlink:href="meshcat__environment_8h.html" target="_top" xlink:title=" ">
<polygon fill="white" stroke="black" points="473,-73 473,-103 653,-103 653,-73 473,-73"/>
<text text-anchor="start" x="481" y="-91" font-family="Helvetica,sans-Serif" font-size="10.00">drake/geometry/test</text>
<text text-anchor="middle" x="563" y="-80" font-family="Helvetica,sans-Serif" font-size="10.00">_utilities/meshcat_environment.h</text>
</a>
</g>
</g>
<!-- Node18&#45;&gt;Node22 -->
<g id="edge5" class="edge">
<title>Node18&#45;&gt;Node22</title>
<path fill="none" stroke="midnightblue" d="M633.22,-144.63C617.75,-132.37 595.96,-115.11 580.77,-103.08"/>
<polygon fill="midnightblue" stroke="midnightblue" points="631.07,-147.39 641.09,-150.86 635.42,-141.9 631.07,-147.39"/>
</g>
<!-- Node23 -->
<g id="node7" class="node">
<title>Node23</title>
<g id="a_node7"><a xlink:href="contact__visualizer_8h.html" target="_top" xlink:title=" ">
<polygon fill="white" stroke="black" points="671.5,-73 671.5,-103 812.5,-103 812.5,-73 671.5,-73"/>
<text text-anchor="start" x="679.5" y="-91" font-family="Helvetica,sans-Serif" font-size="10.00">drake/multibody/meshcat</text>
<text text-anchor="middle" x="742" y="-80" font-family="Helvetica,sans-Serif" font-size="10.00">/contact_visualizer.h</text>
</a>
</g>
</g>
<!-- Node18&#45;&gt;Node23 -->
<g id="edge6" class="edge">
<title>Node18&#45;&gt;Node23</title>
<path fill="none" stroke="midnightblue" d="M670.99,-144.63C686.63,-132.37 708.67,-115.11 724.03,-103.08"/>
<polygon fill="midnightblue" stroke="midnightblue" points="668.75,-141.93 663.04,-150.86 673.07,-147.44 668.75,-141.93"/>
</g>
<!-- Node25 -->
<g id="node9" class="node">
<title>Node25</title>
<g id="a_node9"><a xlink:href="hydroelastic__contact__visualizer_8h.html" target="_top" xlink:title=" ">
<polygon fill="white" stroke="black" points="830.5,-67.5 830.5,-108.5 971.5,-108.5 971.5,-67.5 830.5,-67.5"/>
<text text-anchor="start" x="838.5" y="-96.5" font-family="Helvetica,sans-Serif" font-size="10.00">drake/multibody/meshcat</text>
<text text-anchor="start" x="838.5" y="-85.5" font-family="Helvetica,sans-Serif" font-size="10.00">/hydroelastic_contact</text>
<text text-anchor="middle" x="901" y="-74.5" font-family="Helvetica,sans-Serif" font-size="10.00">_visualizer.h</text>
</a>
</g>
</g>
<!-- Node18&#45;&gt;Node25 -->
<g id="edge8" class="edge">
<title>Node18&#45;&gt;Node25</title>
<path fill="none" stroke="midnightblue" d="M692.13,-148.14C729.83,-137.46 787.03,-121.27 832.04,-108.53"/>
<polygon fill="midnightblue" stroke="midnightblue" points="690.7,-144.9 682.04,-151 692.61,-151.64 690.7,-144.9"/>
</g>
<!-- Node26 -->
<g id="node10" class="node">
<title>Node26</title>
<g id="a_node10"><a xlink:href="joint__sliders_8h.html" target="_top" xlink:title=" ">
<polygon fill="white" stroke="black" points="989.5,-73 989.5,-103 1130.5,-103 1130.5,-73 989.5,-73"/>
<text text-anchor="start" x="997.5" y="-91" font-family="Helvetica,sans-Serif" font-size="10.00">drake/multibody/meshcat</text>
<text text-anchor="middle" x="1060" y="-80" font-family="Helvetica,sans-Serif" font-size="10.00">/joint_sliders.h</text>
</a>
</g>
</g>
<!-- Node18&#45;&gt;Node26 -->
<g id="edge9" class="edge">
<title>Node18&#45;&gt;Node26</title>
<path fill="none" stroke="midnightblue" d="M709.34,-149.27C717.93,-147.8 726.7,-146.33 735,-145 844.1,-127.49 872.63,-130.59 981,-109 989.6,-107.29 998.67,-105.23 1007.48,-103.1"/>
<polygon fill="midnightblue" stroke="midnightblue" points="708.62,-145.84 699.37,-150.99 709.82,-152.74 708.62,-145.84"/>
</g>
<!-- Node27 -->
<g id="node11" class="node">
<title>Node27</title>
<g id="a_node11"><a xlink:href="point__contact__visualizer_8h.html" target="_top" xlink:title=" ">
<polygon fill="white" stroke="black" points="1148.5,-73 1148.5,-103 1295.5,-103 1295.5,-73 1148.5,-73"/>
<text text-anchor="start" x="1156.5" y="-91" font-family="Helvetica,sans-Serif" font-size="10.00">drake/multibody/meshcat</text>
<text text-anchor="middle" x="1222" y="-80" font-family="Helvetica,sans-Serif" font-size="10.00">/point_contact_visualizer.h</text>
</a>
</g>
</g>
<!-- Node18&#45;&gt;Node27 -->
<g id="edge10" class="edge">
<title>Node18&#45;&gt;Node27</title>
<path fill="none" stroke="midnightblue" d="M706.74,-149.26C716.15,-147.7 725.84,-146.2 735,-145 914.17,-121.43 961.71,-138.49 1140,-109 1149.54,-107.42 1159.61,-105.33 1169.31,-103.09"/>
<polygon fill="midnightblue" stroke="midnightblue" points="705.96,-145.85 696.69,-150.98 707.14,-152.75 705.96,-145.85"/>
</g>
<!-- Node24 -->
<g id="node8" class="node">
<title>Node24</title>
<g id="a_node8"><a xlink:href="contact__results__to__meshcat_8h.html" target="_top" xlink:title=" ">
<polygon fill="white" stroke="black" points="659.5,-0.5 659.5,-30.5 824.5,-30.5 824.5,-0.5 659.5,-0.5"/>
<text text-anchor="start" x="667.5" y="-18.5" font-family="Helvetica,sans-Serif" font-size="10.00">drake/multibody/plant</text>
<text text-anchor="middle" x="742" y="-7.5" font-family="Helvetica,sans-Serif" font-size="10.00">/contact_results_to_meshcat.h</text>
</a>
</g>
</g>
<!-- Node23&#45;&gt;Node24 -->
<g id="edge7" class="edge">
<title>Node23&#45;&gt;Node24</title>
<path fill="none" stroke="midnightblue" d="M742,-62.73C742,-52.07 742,-39.91 742,-30.75"/>
<polygon fill="midnightblue" stroke="midnightblue" points="738.5,-62.73 742,-72.73 745.5,-62.73 738.5,-62.73"/>
</g>
</g>
</svg>
        <g id="navigator" transform="translate(0 0)" fill="#404254">
                <rect fill="#f2f5e9" fill-opacity="0.5" stroke="#606060" stroke-width=".5" x="0" y="0" width="60" height="60"/>
                <use id="zoomplus" xlink:href="#zoomPlus" x="17" y="9" onmousedown="handleZoom(evt,'in')"/>
                <use id="zoomminus" xlink:href="#zoomMin" x="42" y="9" onmousedown="handleZoom(evt,'out')"/>
                <use id="reset" xlink:href="#resetDef" x="30" y="36" onmousedown="handleReset()"/>
                <g id="arrowUp" xlink:href="#dirArrow" transform="translate(30 24)" onmousedown="handlePan(0,-1)">
                  <use xlink:href="#rim" fill="#404040">
                        <set attributeName="fill" to="#808080" begin="arrowUp.mouseover" end="arrowUp.mouseout"/>
                  </use>
                  <path fill="none" stroke="white" stroke-width="1.5" d="M0,-3.0v7 M-2.5,-0.5L0,-3.0L2.5,-0.5"/>
                </g>
                <g id="arrowRight" xlink:href="#dirArrow" transform="rotate(90) translate(36 -43)" onmousedown="handlePan(1,0)">
                  <use xlink:href="#rim" fill="#404040">
                        <set attributeName="fill" to="#808080" begin="arrowRight.mouseover" end="arrowRight.mouseout"/>
                  </use>
                  <path fill="none" stroke="white" stroke-width="1.5" d="M0,-3.0v7 M-2.5,-0.5L0,-3.0L2.5,-0.5"/>
                </g>
                <g id="arrowDown" xlink:href="#dirArrow" transform="rotate(180) translate(-30 -48)" onmousedown="handlePan(0,1)">
                  <use xlink:href="#rim" fill="#404040">
                        <set attributeName="fill" to="#808080" begin="arrowDown.mouseover" end="arrowDown.mouseout"/>
                  </use>
                  <path fill="none" stroke="white" stroke-width="1.5" d="M0,-3.0v7 M-2.5,-0.5L0,-3.0L2.5,-0.5"/>
                </g>
                <g id="arrowLeft" xlink:href="#dirArrow" transform="rotate(270) translate(-36 17)" onmousedown="handlePan(-1,0)">
                  <use xlink:href="#rim" fill="#404040">
                        <set attributeName="fill" to="#808080" begin="arrowLeft.mouseover" end="arrowLeft.mouseout"/>
                  </use>
                  <path fill="none" stroke="white" stroke-width="1.5" d="M0,-3.0v7 M-2.5,-0.5L0,-3.0L2.5,-0.5"/>
                </g>
        </g>
        <svg viewBox="0 0 15 15" width="100%" height="30px" preserveAspectRatio="xMaxYMin meet">
         <g id="arrow_out" transform="scale(0.3 0.3)">
          <a xlink:href="point__cloud_8h__dep__incl_org.svg" target="_base">
           <rect id="button" ry="5" rx="5" y="6" x="6" height="38" width="38"
                fill="#f2f5e9" fill-opacity="0.5" stroke="#606060" stroke-width="1.0"/>
           <path id="arrow"
             d="M 11.500037,31.436501 C 11.940474,20.09759 22.043105,11.32322 32.158766,21.979434 L 37.068811,17.246167 C 37.068811,17.246167 37.088388,32 37.088388,32 L 22.160133,31.978069 C 22.160133,31.978069 26.997745,27.140456 26.997745,27.140456 C 18.528582,18.264221 13.291696,25.230495 11.500037,31.436501 z"
             style="fill:#404040;"/>
          </a>
         </g>
        </svg>
</svg>
