<?xml version="1.0" encoding="UTF-8" standalone="no"?>
<!DOCTYPE svg PUBLIC "-//W3C//DTD SVG 1.1//EN"
 "http://www.w3.org/Graphics/SVG/1.1/DTD/svg11.dtd">
<!-- Generated by graphviz version 2.43.0 (0)
 -->
<!-- Title: drake/geometry/proximity/posed_half_space.h Pages: 1 -->
<svg width="346pt" height="173pt"
 viewBox="0.00 0.00 346.00 173.00" xmlns="http://www.w3.org/2000/svg" xmlns:xlink="http://www.w3.org/1999/xlink">
<g id="graph0" class="graph" transform="scale(1 1) rotate(0) translate(4 169)">
<title>drake/geometry/proximity/posed_half_space.h</title>
<polygon fill="white" stroke="transparent" points="-4,4 -4,-169 342,-169 342,4 -4,4"/>
<!-- Node26 -->
<g id="node1" class="node">
<title>Node26</title>
<g id="a_node1"><a xlink:title=" ">
<polygon fill="#bfbfbf" stroke="black" points="105,-134.5 105,-164.5 249,-164.5 249,-134.5 105,-134.5"/>
<text text-anchor="start" x="113" y="-152.5" font-family="Helvetica,sans-Serif" font-size="10.00">drake/geometry/proximity</text>
<text text-anchor="middle" x="177" y="-141.5" font-family="Helvetica,sans-Serif" font-size="10.00">/posed_half_space.h</text>
</a>
</g>
</g>
<!-- Node27 -->
<g id="node2" class="node">
<title>Node27</title>
<g id="a_node2"><a xlink:href="mesh__half__space__intersection_8h.html" target="_top" xlink:title=" ">
<polygon fill="white" stroke="black" points="0,-67.5 0,-97.5 176,-97.5 176,-67.5 0,-67.5"/>
<text text-anchor="start" x="8" y="-85.5" font-family="Helvetica,sans-Serif" font-size="10.00">drake/geometry/proximity</text>
<text text-anchor="middle" x="88" y="-74.5" font-family="Helvetica,sans-Serif" font-size="10.00">/mesh_half_space_intersection.h</text>
</a>
</g>
</g>
<!-- Node26&#45;&gt;Node27 -->
<g id="edge1" class="edge">
<title>Node26&#45;&gt;Node27</title>
<path fill="none" stroke="midnightblue" d="M149.55,-128.45C135.86,-118.45 119.63,-106.6 107.27,-97.58"/>
<polygon fill="midnightblue" stroke="midnightblue" points="147.55,-131.32 157.69,-134.4 151.68,-125.67 147.55,-131.32"/>
</g>
<!-- Node29 -->
<g id="node4" class="node">
<title>Node29</title>
<g id="a_node4"><a xlink:href="mesh__intersection_8h.html" target="_top" xlink:title=" ">
<polygon fill="white" stroke="black" points="194,-67.5 194,-97.5 338,-97.5 338,-67.5 194,-67.5"/>
<text text-anchor="start" x="202" y="-85.5" font-family="Helvetica,sans-Serif" font-size="10.00">drake/geometry/proximity</text>
<text text-anchor="middle" x="266" y="-74.5" font-family="Helvetica,sans-Serif" font-size="10.00">/mesh_intersection.h</text>
</a>
</g>
</g>
<!-- Node26&#45;&gt;Node29 -->
<g id="edge3" class="edge">
<title>Node26&#45;&gt;Node29</title>
<path fill="none" stroke="midnightblue" d="M204.45,-128.45C218.14,-118.45 234.37,-106.6 246.73,-97.58"/>
<polygon fill="midnightblue" stroke="midnightblue" points="202.32,-125.67 196.31,-134.4 206.45,-131.32 202.32,-125.67"/>
</g>
<!-- Node28 -->
<g id="node3" class="node">
<title>Node28</title>
<g id="a_node3"><a xlink:href="hydroelastic__callback_8h.html" target="_top" xlink:title=" ">
<polygon fill="white" stroke="black" points="105,-0.5 105,-30.5 249,-30.5 249,-0.5 105,-0.5"/>
<text text-anchor="start" x="113" y="-18.5" font-family="Helvetica,sans-Serif" font-size="10.00">drake/geometry/proximity</text>
<text text-anchor="middle" x="177" y="-7.5" font-family="Helvetica,sans-Serif" font-size="10.00">/hydroelastic_callback.h</text>
</a>
</g>
</g>
<!-- Node27&#45;&gt;Node28 -->
<g id="edge2" class="edge">
<title>Node27&#45;&gt;Node28</title>
<path fill="none" stroke="midnightblue" d="M115.45,-61.45C129.14,-51.45 145.37,-39.6 157.73,-30.58"/>
<polygon fill="midnightblue" stroke="midnightblue" points="113.32,-58.67 107.31,-67.4 117.45,-64.32 113.32,-58.67"/>
</g>
<!-- Node29&#45;&gt;Node28 -->
<g id="edge4" class="edge">
<title>Node29&#45;&gt;Node28</title>
<path fill="none" stroke="midnightblue" d="M238.55,-61.45C224.86,-51.45 208.63,-39.6 196.27,-30.58"/>
<polygon fill="midnightblue" stroke="midnightblue" points="236.55,-64.32 246.69,-67.4 240.68,-58.67 236.55,-64.32"/>
</g>
</g>
</svg>
