<?xml version="1.0" encoding="UTF-8" standalone="no"?>
<!DOCTYPE svg PUBLIC "-//W3C//DTD SVG 1.1//EN"
 "http://www.w3.org/Graphics/SVG/1.1/DTD/svg11.dtd">
<!-- Generated by graphviz version 2.43.0 (0)
 -->
<!-- Title: drake/geometry/proximity_properties.h Pages: 1 -->
<svg width="1158pt" height="240pt"
 viewBox="0.00 0.00 1157.50 240.00" xmlns="http://www.w3.org/2000/svg" xmlns:xlink="http://www.w3.org/1999/xlink">
<g id="graph0" class="graph" transform="scale(1 1) rotate(0) translate(4 236)">
<title>drake/geometry/proximity_properties.h</title>
<polygon fill="white" stroke="transparent" points="-4,4 -4,-236 1153.5,-236 1153.5,4 -4,4"/>
<!-- Node76 -->
<g id="node1" class="node">
<title>Node76</title>
<g id="a_node1"><a xlink:title="A collection of data types and functions to help manage defining properties for geometries with the p...">
<polygon fill="#bfbfbf" stroke="black" points="346,-201.5 346,-231.5 490,-231.5 490,-201.5 346,-201.5"/>
<text text-anchor="start" x="354" y="-219.5" font-family="Helvetica,sans-Serif" font-size="10.00">drake/geometry/proximity</text>
<text text-anchor="middle" x="418" y="-208.5" font-family="Helvetica,sans-Serif" font-size="10.00">_properties.h</text>
</a>
</g>
</g>
<!-- Node77 -->
<g id="node2" class="node">
<title>Node77</title>
<g id="a_node2"><a xlink:href="hydroelastic__internal_8h.html" target="_top" xlink:title=" ">
<polygon fill="white" stroke="black" points="204,-134.5 204,-164.5 348,-164.5 348,-134.5 204,-134.5"/>
<text text-anchor="start" x="212" y="-152.5" font-family="Helvetica,sans-Serif" font-size="10.00">drake/geometry/proximity</text>
<text text-anchor="middle" x="276" y="-141.5" font-family="Helvetica,sans-Serif" font-size="10.00">/hydroelastic_internal.h</text>
</a>
</g>
</g>
<!-- Node76&#45;&gt;Node77 -->
<g id="edge1" class="edge">
<title>Node76&#45;&gt;Node77</title>
<path fill="none" stroke="midnightblue" d="M377.87,-197.13C355.31,-186.8 327.58,-174.11 306.75,-164.58"/>
<polygon fill="midnightblue" stroke="midnightblue" points="376.64,-200.42 387.19,-201.4 379.55,-194.05 376.64,-200.42"/>
</g>
<!-- Node80 -->
<g id="node5" class="node">
<title>Node80</title>
<g id="a_node5"><a xlink:href="deformable__contact__geometries_8h.html" target="_top" xlink:title=" ">
<polygon fill="white" stroke="black" points="324.5,-67.5 324.5,-97.5 511.5,-97.5 511.5,-67.5 324.5,-67.5"/>
<text text-anchor="start" x="332.5" y="-85.5" font-family="Helvetica,sans-Serif" font-size="10.00">drake/geometry/proximity</text>
<text text-anchor="middle" x="418" y="-74.5" font-family="Helvetica,sans-Serif" font-size="10.00">/deformable_contact_geometries.h</text>
</a>
</g>
</g>
<!-- Node76&#45;&gt;Node80 -->
<g id="edge6" class="edge">
<title>Node76&#45;&gt;Node80</title>
<path fill="none" stroke="midnightblue" d="M418,-191.02C418,-163.51 418,-119.79 418,-97.52"/>
<polygon fill="midnightblue" stroke="midnightblue" points="414.5,-191.37 418,-201.37 421.5,-191.37 414.5,-191.37"/>
</g>
<!-- Node82 -->
<g id="node7" class="node">
<title>Node82</title>
<g id="a_node7"><a xlink:href="detail__common_8h.html" target="_top" xlink:title=" ">
<polygon fill="white" stroke="black" points="682.5,-134.5 682.5,-164.5 817.5,-164.5 817.5,-134.5 682.5,-134.5"/>
<text text-anchor="start" x="690.5" y="-152.5" font-family="Helvetica,sans-Serif" font-size="10.00">drake/multibody/parsing</text>
<text text-anchor="middle" x="750" y="-141.5" font-family="Helvetica,sans-Serif" font-size="10.00">/detail_common.h</text>
</a>
</g>
</g>
<!-- Node76&#45;&gt;Node82 -->
<g id="edge7" class="edge">
<title>Node76&#45;&gt;Node82</title>
<path fill="none" stroke="midnightblue" d="M499.55,-199.53C555.75,-188.53 629.56,-174.08 682.46,-163.72"/>
<polygon fill="midnightblue" stroke="midnightblue" points="498.77,-196.12 489.63,-201.48 500.12,-202.99 498.77,-196.12"/>
</g>
<!-- Node78 -->
<g id="node3" class="node">
<title>Node78</title>
<g id="a_node3"><a xlink:href="proximity__engine_8h.html" target="_top" xlink:title=" ">
<polygon fill="white" stroke="black" points="0,-67.5 0,-97.5 144,-97.5 144,-67.5 0,-67.5"/>
<text text-anchor="start" x="8" y="-85.5" font-family="Helvetica,sans-Serif" font-size="10.00">drake/geometry/proximity</text>
<text text-anchor="middle" x="72" y="-74.5" font-family="Helvetica,sans-Serif" font-size="10.00">_engine.h</text>
</a>
</g>
</g>
<!-- Node77&#45;&gt;Node78 -->
<g id="edge2" class="edge">
<title>Node77&#45;&gt;Node78</title>
<path fill="none" stroke="midnightblue" d="M222.04,-131.31C189.04,-120.79 147.34,-107.51 116.29,-97.61"/>
<polygon fill="midnightblue" stroke="midnightblue" points="221.4,-134.77 231.99,-134.48 223.52,-128.11 221.4,-134.77"/>
</g>
<!-- Node77&#45;&gt;Node80 -->
<g id="edge4" class="edge">
<title>Node77&#45;&gt;Node80</title>
<path fill="none" stroke="midnightblue" d="M316.13,-130.13C338.69,-119.8 366.42,-107.11 387.25,-97.58"/>
<polygon fill="midnightblue" stroke="midnightblue" points="314.45,-127.05 306.81,-134.4 317.36,-133.42 314.45,-127.05"/>
</g>
<!-- Node81 -->
<g id="node6" class="node">
<title>Node81</title>
<g id="a_node6"><a xlink:href="hydroelastic__callback_8h.html" target="_top" xlink:title=" ">
<polygon fill="white" stroke="black" points="162,-67.5 162,-97.5 306,-97.5 306,-67.5 162,-67.5"/>
<text text-anchor="start" x="170" y="-85.5" font-family="Helvetica,sans-Serif" font-size="10.00">drake/geometry/proximity</text>
<text text-anchor="middle" x="234" y="-74.5" font-family="Helvetica,sans-Serif" font-size="10.00">/hydroelastic_callback.h</text>
</a>
</g>
</g>
<!-- Node77&#45;&gt;Node81 -->
<g id="edge5" class="edge">
<title>Node77&#45;&gt;Node81</title>
<path fill="none" stroke="midnightblue" d="M261.38,-125.87C255.3,-116.46 248.43,-105.83 243.1,-97.58"/>
<polygon fill="midnightblue" stroke="midnightblue" points="258.52,-127.9 266.89,-134.4 264.4,-124.1 258.52,-127.9"/>
</g>
<!-- Node79 -->
<g id="node4" class="node">
<title>Node79</title>
<g id="a_node4"><a xlink:href="geometry__state_8h.html" target="_top" xlink:title=" ">
<polygon fill="white" stroke="black" points="0,-0.5 0,-30.5 144,-30.5 144,-0.5 0,-0.5"/>
<text text-anchor="start" x="8" y="-18.5" font-family="Helvetica,sans-Serif" font-size="10.00">drake/geometry/geometry</text>
<text text-anchor="middle" x="72" y="-7.5" font-family="Helvetica,sans-Serif" font-size="10.00">_state.h</text>
</a>
</g>
</g>
<!-- Node78&#45;&gt;Node79 -->
<g id="edge3" class="edge">
<title>Node78&#45;&gt;Node79</title>
<path fill="none" stroke="midnightblue" d="M72,-57.11C72,-48.15 72,-38.32 72,-30.58"/>
<polygon fill="midnightblue" stroke="midnightblue" points="68.5,-57.4 72,-67.4 75.5,-57.4 68.5,-57.4"/>
</g>
<!-- Node83 -->
<g id="node8" class="node">
<title>Node83</title>
<g id="a_node8"><a xlink:href="detail__mujoco__parser_8h.html" target="_top" xlink:title=" ">
<polygon fill="white" stroke="black" points="529.5,-67.5 529.5,-97.5 664.5,-97.5 664.5,-67.5 529.5,-67.5"/>
<text text-anchor="start" x="537.5" y="-85.5" font-family="Helvetica,sans-Serif" font-size="10.00">drake/multibody/parsing</text>
<text text-anchor="middle" x="597" y="-74.5" font-family="Helvetica,sans-Serif" font-size="10.00">/detail_mujoco_parser.h</text>
</a>
</g>
</g>
<!-- Node82&#45;&gt;Node83 -->
<g id="edge8" class="edge">
<title>Node82&#45;&gt;Node83</title>
<path fill="none" stroke="midnightblue" d="M707.41,-130.41C682.98,-120.03 652.78,-107.2 630.13,-97.58"/>
<polygon fill="midnightblue" stroke="midnightblue" points="706.23,-133.71 716.8,-134.4 708.97,-127.26 706.23,-133.71"/>
</g>
<!-- Node84 -->
<g id="node9" class="node">
<title>Node84</title>
<g id="a_node9"><a xlink:href="detail__sdf__parser_8h.html" target="_top" xlink:title=" ">
<polygon fill="white" stroke="black" points="682.5,-67.5 682.5,-97.5 817.5,-97.5 817.5,-67.5 682.5,-67.5"/>
<text text-anchor="start" x="690.5" y="-85.5" font-family="Helvetica,sans-Serif" font-size="10.00">drake/multibody/parsing</text>
<text text-anchor="middle" x="750" y="-74.5" font-family="Helvetica,sans-Serif" font-size="10.00">/detail_sdf_parser.h</text>
</a>
</g>
</g>
<!-- Node82&#45;&gt;Node84 -->
<g id="edge9" class="edge">
<title>Node82&#45;&gt;Node84</title>
<path fill="none" stroke="midnightblue" d="M750,-124.11C750,-115.15 750,-105.32 750,-97.58"/>
<polygon fill="midnightblue" stroke="midnightblue" points="746.5,-124.4 750,-134.4 753.5,-124.4 746.5,-124.4"/>
</g>
<!-- Node85 -->
<g id="node10" class="node">
<title>Node85</title>
<g id="a_node10"><a xlink:href="detail__tinyxml2__diagnostic_8h.html" target="_top" xlink:title=" ">
<polygon fill="white" stroke="black" points="835.5,-67.5 835.5,-97.5 996.5,-97.5 996.5,-67.5 835.5,-67.5"/>
<text text-anchor="start" x="843.5" y="-85.5" font-family="Helvetica,sans-Serif" font-size="10.00">drake/multibody/parsing</text>
<text text-anchor="middle" x="916" y="-74.5" font-family="Helvetica,sans-Serif" font-size="10.00">/detail_tinyxml2_diagnostic.h</text>
</a>
</g>
</g>
<!-- Node82&#45;&gt;Node85 -->
<g id="edge10" class="edge">
<title>Node82&#45;&gt;Node85</title>
<path fill="none" stroke="midnightblue" d="M795.51,-130.68C822.13,-120.26 855.27,-107.28 880.05,-97.58"/>
<polygon fill="midnightblue" stroke="midnightblue" points="794.05,-127.49 786.02,-134.4 796.61,-134.01 794.05,-127.49"/>
</g>
<!-- Node87 -->
<g id="node12" class="node">
<title>Node87</title>
<g id="a_node12"><a xlink:href="detail__urdf__parser_8h.html" target="_top" xlink:title=" ">
<polygon fill="white" stroke="black" points="1014.5,-67.5 1014.5,-97.5 1149.5,-97.5 1149.5,-67.5 1014.5,-67.5"/>
<text text-anchor="start" x="1022.5" y="-85.5" font-family="Helvetica,sans-Serif" font-size="10.00">drake/multibody/parsing</text>
<text text-anchor="middle" x="1082" y="-74.5" font-family="Helvetica,sans-Serif" font-size="10.00">/detail_urdf_parser.h</text>
</a>
</g>
</g>
<!-- Node82&#45;&gt;Node87 -->
<g id="edge12" class="edge">
<title>Node82&#45;&gt;Node87</title>
<path fill="none" stroke="midnightblue" d="M827.56,-133.32C884.13,-122.24 960.07,-107.37 1014.22,-96.77"/>
<polygon fill="midnightblue" stroke="midnightblue" points="826.73,-129.91 817.59,-135.27 828.07,-136.78 826.73,-129.91"/>
</g>
<!-- Node86 -->
<g id="node11" class="node">
<title>Node86</title>
<g id="a_node11"><a xlink:href="detail__urdf__geometry_8h.html" target="_top" xlink:title=" ">
<polygon fill="white" stroke="black" points="848.5,-0.5 848.5,-30.5 983.5,-30.5 983.5,-0.5 848.5,-0.5"/>
<text text-anchor="start" x="856.5" y="-18.5" font-family="Helvetica,sans-Serif" font-size="10.00">drake/multibody/parsing</text>
<text text-anchor="middle" x="916" y="-7.5" font-family="Helvetica,sans-Serif" font-size="10.00">/detail_urdf_geometry.h</text>
</a>
</g>
</g>
<!-- Node85&#45;&gt;Node86 -->
<g id="edge11" class="edge">
<title>Node85&#45;&gt;Node86</title>
<path fill="none" stroke="midnightblue" d="M916,-57.11C916,-48.15 916,-38.32 916,-30.58"/>
<polygon fill="midnightblue" stroke="midnightblue" points="912.5,-57.4 916,-67.4 919.5,-57.4 912.5,-57.4"/>
</g>
</g>
</svg>
