<?xml version="1.0" encoding="UTF-8" standalone="no"?>
<!DOCTYPE svg PUBLIC "-//W3C//DTD SVG 1.1//EN"
 "http://www.w3.org/Graphics/SVG/1.1/DTD/svg11.dtd">
<!-- Generated by graphviz version 2.43.0 (0)
 -->
<!-- Title: drake/geometry/proximity_properties.h Pages: 1 -->
<svg width="2329pt" height="385pt"
 viewBox="0.00 0.00 2328.50 385.00" xmlns="http://www.w3.org/2000/svg" xmlns:xlink="http://www.w3.org/1999/xlink">
<g id="graph0" class="graph" transform="scale(1 1) rotate(0) translate(4 381)">
<title>drake/geometry/proximity_properties.h</title>
<polygon fill="white" stroke="transparent" points="-4,4 -4,-381 2324.5,-381 2324.5,4 -4,4"/>
<!-- Node73 -->
<g id="node1" class="node">
<title>Node73</title>
<g id="a_node1"><a xlink:title="A collection of data types and functions to help manage defining properties for geometries with the p...">
<polygon fill="#bfbfbf" stroke="black" points="1070,-346.5 1070,-376.5 1214,-376.5 1214,-346.5 1070,-346.5"/>
<text text-anchor="start" x="1078" y="-364.5" font-family="Helvetica,sans-Serif" font-size="10.00">drake/geometry/proximity</text>
<text text-anchor="middle" x="1142" y="-353.5" font-family="Helvetica,sans-Serif" font-size="10.00">_properties.h</text>
</a>
</g>
</g>
<!-- Node74 -->
<g id="node2" class="node">
<title>Node74</title>
<g id="a_node2"><a xlink:href="hydroelastic__internal_8h.html" target="_top" xlink:title=" ">
<polygon fill="white" stroke="black" points="252,-274 252,-304 396,-304 396,-274 252,-274"/>
<text text-anchor="start" x="260" y="-292" font-family="Helvetica,sans-Serif" font-size="10.00">drake/geometry/proximity</text>
<text text-anchor="middle" x="324" y="-281" font-family="Helvetica,sans-Serif" font-size="10.00">/hydroelastic_internal.h</text>
</a>
</g>
</g>
<!-- Node73&#45;&gt;Node74 -->
<g id="edge1" class="edge">
<title>Node73&#45;&gt;Node74</title>
<path fill="none" stroke="midnightblue" d="M1059.49,-353.39C899.15,-339.57 547.97,-309.3 396.22,-296.22"/>
<polygon fill="midnightblue" stroke="midnightblue" points="1059.5,-356.9 1069.77,-354.27 1060.1,-349.93 1059.5,-356.9"/>
</g>
<!-- Node75 -->
<g id="node3" class="node">
<title>Node75</title>
<g id="a_node3"><a xlink:href="deformable__contact__geometries_8h.html" target="_top" xlink:title=" ">
<polygon fill="white" stroke="black" points="322.5,-201.5 322.5,-231.5 509.5,-231.5 509.5,-201.5 322.5,-201.5"/>
<text text-anchor="start" x="330.5" y="-219.5" font-family="Helvetica,sans-Serif" font-size="10.00">drake/geometry/proximity</text>
<text text-anchor="middle" x="416" y="-208.5" font-family="Helvetica,sans-Serif" font-size="10.00">/deformable_contact_geometries.h</text>
</a>
</g>
</g>
<!-- Node73&#45;&gt;Node75 -->
<g id="edge10" class="edge">
<title>Node73&#45;&gt;Node75</title>
<path fill="none" stroke="midnightblue" d="M1060.69,-344.48C917.52,-316.28 622.76,-258.23 487.14,-231.51"/>
<polygon fill="midnightblue" stroke="midnightblue" points="1060.25,-347.96 1070.73,-346.46 1061.6,-341.1 1060.25,-347.96"/>
</g>
<!-- Node82 -->
<g id="node10" class="node">
<title>Node82</title>
<g id="a_node10"><a xlink:href="detail__common_8h.html" target="_top" xlink:title=" ">
<polygon fill="white" stroke="black" points="1000.5,-274 1000.5,-304 1135.5,-304 1135.5,-274 1000.5,-274"/>
<text text-anchor="start" x="1008.5" y="-292" font-family="Helvetica,sans-Serif" font-size="10.00">drake/multibody/parsing</text>
<text text-anchor="middle" x="1068" y="-281" font-family="Helvetica,sans-Serif" font-size="10.00">/detail_common.h</text>
</a>
</g>
</g>
<!-- Node73&#45;&gt;Node82 -->
<g id="edge11" class="edge">
<title>Node73&#45;&gt;Node82</title>
<path fill="none" stroke="midnightblue" d="M1119.63,-339.19C1107.75,-327.87 1093.48,-314.27 1082.95,-304.25"/>
<polygon fill="midnightblue" stroke="midnightblue" points="1117.37,-341.87 1127.02,-346.23 1122.2,-336.8 1117.37,-341.87"/>
</g>
<!-- Node98 -->
<g id="node26" class="node">
<title>Node98</title>
<g id="a_node26"><a xlink:href="contact__properties_8h.html" target="_top" xlink:title=" ">
<polygon fill="white" stroke="black" points="1154,-274 1154,-304 1278,-304 1278,-274 1154,-274"/>
<text text-anchor="start" x="1162" y="-292" font-family="Helvetica,sans-Serif" font-size="10.00">drake/multibody/plant</text>
<text text-anchor="middle" x="1216" y="-281" font-family="Helvetica,sans-Serif" font-size="10.00">/contact_properties.h</text>
</a>
</g>
</g>
<!-- Node73&#45;&gt;Node98 -->
<g id="edge32" class="edge">
<title>Node73&#45;&gt;Node98</title>
<path fill="none" stroke="midnightblue" d="M1164.37,-339.19C1176.25,-327.87 1190.52,-314.27 1201.05,-304.25"/>
<polygon fill="midnightblue" stroke="midnightblue" points="1161.8,-336.8 1156.98,-346.23 1166.63,-341.87 1161.8,-336.8"/>
</g>
<!-- Node99 -->
<g id="node27" class="node">
<title>Node99</title>
<g id="a_node27"><a xlink:href="rigid__body__on__compliant__ground_8h.html" target="_top" xlink:title=" ">
<polygon fill="white" stroke="black" points="1296.5,-268.5 1296.5,-309.5 1461.5,-309.5 1461.5,-268.5 1296.5,-268.5"/>
<text text-anchor="start" x="1304.5" y="-297.5" font-family="Helvetica,sans-Serif" font-size="10.00">drake/multibody/plant</text>
<text text-anchor="start" x="1304.5" y="-286.5" font-family="Helvetica,sans-Serif" font-size="10.00">/test_utilities/rigid</text>
<text text-anchor="middle" x="1379" y="-275.5" font-family="Helvetica,sans-Serif" font-size="10.00">_body_on_compliant_ground.h</text>
</a>
</g>
</g>
<!-- Node73&#45;&gt;Node99 -->
<g id="edge33" class="edge">
<title>Node73&#45;&gt;Node99</title>
<path fill="none" stroke="midnightblue" d="M1198.99,-343.55C1233.36,-333.32 1277.28,-320.26 1313.14,-309.59"/>
<polygon fill="midnightblue" stroke="midnightblue" points="1197.69,-340.28 1189.11,-346.49 1199.69,-346.99 1197.69,-340.28"/>
</g>
<!-- Node100 -->
<g id="node28" class="node">
<title>Node100</title>
<g id="a_node28"><a xlink:href="robot__model_8h.html" target="_top" xlink:title=" ">
<polygon fill="white" stroke="black" points="1480,-274 1480,-304 1612,-304 1612,-274 1480,-274"/>
<text text-anchor="start" x="1488" y="-292" font-family="Helvetica,sans-Serif" font-size="10.00">drake/multibody/test</text>
<text text-anchor="middle" x="1546" y="-281" font-family="Helvetica,sans-Serif" font-size="10.00">_utilities/robot_model.h</text>
</a>
</g>
</g>
<!-- Node73&#45;&gt;Node100 -->
<g id="edge34" class="edge">
<title>Node73&#45;&gt;Node100</title>
<path fill="none" stroke="midnightblue" d="M1224.07,-350.29C1290.67,-341.42 1386.84,-327.3 1470,-310 1478.28,-308.28 1487.01,-306.22 1495.48,-304.08"/>
<polygon fill="midnightblue" stroke="midnightblue" points="1223.51,-346.83 1214.05,-351.61 1224.42,-353.77 1223.51,-346.83"/>
</g>
<!-- Node74&#45;&gt;Node75 -->
<g id="edge2" class="edge">
<title>Node74&#45;&gt;Node75</title>
<path fill="none" stroke="midnightblue" d="M350.61,-267.61C365.72,-256.03 384.25,-241.83 397.72,-231.5"/>
<polygon fill="midnightblue" stroke="midnightblue" points="348.43,-264.87 342.62,-273.73 352.68,-270.43 348.43,-264.87"/>
</g>
<!-- Node77 -->
<g id="node5" class="node">
<title>Node77</title>
<g id="a_node5"><a xlink:href="proximity__engine_8h.html" target="_top" xlink:title=" ">
<polygon fill="white" stroke="black" points="0,-67.5 0,-97.5 144,-97.5 144,-67.5 0,-67.5"/>
<text text-anchor="start" x="8" y="-85.5" font-family="Helvetica,sans-Serif" font-size="10.00">drake/geometry/proximity</text>
<text text-anchor="middle" x="72" y="-74.5" font-family="Helvetica,sans-Serif" font-size="10.00">_engine.h</text>
</a>
</g>
</g>
<!-- Node74&#45;&gt;Node77 -->
<g id="edge8" class="edge">
<title>Node74&#45;&gt;Node77</title>
<path fill="none" stroke="midnightblue" d="M241.61,-279.5C171.62,-267.27 76.02,-237.49 34,-165 20.85,-142.31 41.32,-114.3 56.95,-97.73"/>
<polygon fill="midnightblue" stroke="midnightblue" points="241.31,-282.99 251.75,-281.17 242.45,-276.09 241.31,-282.99"/>
</g>
<!-- Node81 -->
<g id="node9" class="node">
<title>Node81</title>
<g id="a_node9"><a xlink:href="hydroelastic__callback_8h.html" target="_top" xlink:title=" ">
<polygon fill="white" stroke="black" points="160,-201.5 160,-231.5 304,-231.5 304,-201.5 160,-201.5"/>
<text text-anchor="start" x="168" y="-219.5" font-family="Helvetica,sans-Serif" font-size="10.00">drake/geometry/proximity</text>
<text text-anchor="middle" x="232" y="-208.5" font-family="Helvetica,sans-Serif" font-size="10.00">/hydroelastic_callback.h</text>
</a>
</g>
</g>
<!-- Node74&#45;&gt;Node81 -->
<g id="edge9" class="edge">
<title>Node74&#45;&gt;Node81</title>
<path fill="none" stroke="midnightblue" d="M297.39,-267.61C282.28,-256.03 263.75,-241.83 250.28,-231.5"/>
<polygon fill="midnightblue" stroke="midnightblue" points="295.32,-270.43 305.38,-273.73 299.57,-264.87 295.32,-270.43"/>
</g>
<!-- Node76 -->
<g id="node4" class="node">
<title>Node76</title>
<g id="a_node4"><a xlink:href="deformable__contact__internal_8h.html" target="_top" xlink:title=" ">
<polygon fill="white" stroke="black" points="43.5,-134.5 43.5,-164.5 212.5,-164.5 212.5,-134.5 43.5,-134.5"/>
<text text-anchor="start" x="51.5" y="-152.5" font-family="Helvetica,sans-Serif" font-size="10.00">drake/geometry/proximity</text>
<text text-anchor="middle" x="128" y="-141.5" font-family="Helvetica,sans-Serif" font-size="10.00">/deformable_contact_internal.h</text>
</a>
</g>
</g>
<!-- Node75&#45;&gt;Node76 -->
<g id="edge3" class="edge">
<title>Node75&#45;&gt;Node76</title>
<path fill="none" stroke="midnightblue" d="M344.01,-199.25C296.8,-188.6 235.69,-174.81 190.52,-164.61"/>
<polygon fill="midnightblue" stroke="midnightblue" points="343.34,-202.69 353.86,-201.48 344.88,-195.86 343.34,-202.69"/>
</g>
<!-- Node79 -->
<g id="node7" class="node">
<title>Node79</title>
<g id="a_node7"><a xlink:href="deformable__field__intersection_8h.html" target="_top" xlink:title=" ">
<polygon fill="white" stroke="black" points="231,-134.5 231,-164.5 405,-164.5 405,-134.5 231,-134.5"/>
<text text-anchor="start" x="239" y="-152.5" font-family="Helvetica,sans-Serif" font-size="10.00">drake/geometry/proximity</text>
<text text-anchor="middle" x="318" y="-141.5" font-family="Helvetica,sans-Serif" font-size="10.00">/deformable_field_intersection.h</text>
</a>
</g>
</g>
<!-- Node75&#45;&gt;Node79 -->
<g id="edge6" class="edge">
<title>Node75&#45;&gt;Node79</title>
<path fill="none" stroke="midnightblue" d="M386.2,-195.73C371.03,-185.68 352.96,-173.68 339.22,-164.58"/>
<polygon fill="midnightblue" stroke="midnightblue" points="384.47,-198.79 394.74,-201.4 388.34,-192.95 384.47,-198.79"/>
</g>
<!-- Node80 -->
<g id="node8" class="node">
<title>Node80</title>
<g id="a_node8"><a xlink:href="deformable__mesh__intersection_8h.html" target="_top" xlink:title=" ">
<polygon fill="white" stroke="black" points="423,-134.5 423,-164.5 603,-164.5 603,-134.5 423,-134.5"/>
<text text-anchor="start" x="431" y="-152.5" font-family="Helvetica,sans-Serif" font-size="10.00">drake/geometry/proximity</text>
<text text-anchor="middle" x="513" y="-141.5" font-family="Helvetica,sans-Serif" font-size="10.00">/deformable_mesh_intersection.h</text>
</a>
</g>
</g>
<!-- Node75&#45;&gt;Node80 -->
<g id="edge7" class="edge">
<title>Node75&#45;&gt;Node80</title>
<path fill="none" stroke="midnightblue" d="M445.5,-195.73C460.51,-185.68 478.4,-173.68 491.99,-164.58"/>
<polygon fill="midnightblue" stroke="midnightblue" points="443.41,-192.92 437.05,-201.4 447.3,-198.74 443.41,-192.92"/>
</g>
<!-- Node76&#45;&gt;Node77 -->
<g id="edge4" class="edge">
<title>Node76&#45;&gt;Node77</title>
<path fill="none" stroke="midnightblue" d="M109.25,-126.74C100.96,-117.12 91.46,-106.09 84.13,-97.58"/>
<polygon fill="midnightblue" stroke="midnightblue" points="106.67,-129.1 115.85,-134.4 111.97,-124.54 106.67,-129.1"/>
</g>
<!-- Node78 -->
<g id="node6" class="node">
<title>Node78</title>
<g id="a_node6"><a xlink:href="geometry__state_8h.html" target="_top" xlink:title=" ">
<polygon fill="white" stroke="black" points="0,-0.5 0,-30.5 144,-30.5 144,-0.5 0,-0.5"/>
<text text-anchor="start" x="8" y="-18.5" font-family="Helvetica,sans-Serif" font-size="10.00">drake/geometry/geometry</text>
<text text-anchor="middle" x="72" y="-7.5" font-family="Helvetica,sans-Serif" font-size="10.00">_state.h</text>
</a>
</g>
</g>
<!-- Node77&#45;&gt;Node78 -->
<g id="edge5" class="edge">
<title>Node77&#45;&gt;Node78</title>
<path fill="none" stroke="midnightblue" d="M72,-57.11C72,-48.15 72,-38.32 72,-30.58"/>
<polygon fill="midnightblue" stroke="midnightblue" points="68.5,-57.4 72,-67.4 75.5,-57.4 68.5,-57.4"/>
</g>
<!-- Node83 -->
<g id="node11" class="node">
<title>Node83</title>
<g id="a_node11"><a xlink:href="detail__parsing__workspace_8h.html" target="_top" xlink:title=" ">
<polygon fill="white" stroke="black" points="1100.5,-201.5 1100.5,-231.5 1255.5,-231.5 1255.5,-201.5 1100.5,-201.5"/>
<text text-anchor="start" x="1108.5" y="-219.5" font-family="Helvetica,sans-Serif" font-size="10.00">drake/multibody/parsing</text>
<text text-anchor="middle" x="1178" y="-208.5" font-family="Helvetica,sans-Serif" font-size="10.00">/detail_parsing_workspace.h</text>
</a>
</g>
</g>
<!-- Node82&#45;&gt;Node83 -->
<g id="edge12" class="edge">
<title>Node82&#45;&gt;Node83</title>
<path fill="none" stroke="midnightblue" d="M1098.55,-268.42C1116.8,-256.72 1139.56,-242.13 1156.04,-231.57"/>
<polygon fill="midnightblue" stroke="midnightblue" points="1096.53,-265.56 1090,-273.9 1100.3,-271.45 1096.53,-265.56"/>
</g>
<!-- Node85 -->
<g id="node13" class="node">
<title>Node85</title>
<g id="a_node13"><a xlink:href="detail__dmd__parser_8h.html" target="_top" xlink:title=" ">
<polygon fill="white" stroke="black" points="927.5,-134.5 927.5,-164.5 1062.5,-164.5 1062.5,-134.5 927.5,-134.5"/>
<text text-anchor="start" x="935.5" y="-152.5" font-family="Helvetica,sans-Serif" font-size="10.00">drake/multibody/parsing</text>
<text text-anchor="middle" x="995" y="-141.5" font-family="Helvetica,sans-Serif" font-size="10.00">/detail_dmd_parser.h</text>
</a>
</g>
</g>
<!-- Node82&#45;&gt;Node85 -->
<g id="edge22" class="edge">
<title>Node82&#45;&gt;Node85</title>
<path fill="none" stroke="midnightblue" d="M1066.21,-263.73C1063.99,-245.48 1059.04,-220.38 1048,-201 1039.76,-186.53 1026.07,-173.65 1014.67,-164.51"/>
<polygon fill="midnightblue" stroke="midnightblue" points="1062.74,-264.25 1067.24,-273.84 1069.7,-263.54 1062.74,-264.25"/>
</g>
<!-- Node88 -->
<g id="node16" class="node">
<title>Node88</title>
<g id="a_node16"><a xlink:href="detail__mujoco__parser_8h.html" target="_top" xlink:title=" ">
<polygon fill="white" stroke="black" points="1726.5,-134.5 1726.5,-164.5 1861.5,-164.5 1861.5,-134.5 1726.5,-134.5"/>
<text text-anchor="start" x="1734.5" y="-152.5" font-family="Helvetica,sans-Serif" font-size="10.00">drake/multibody/parsing</text>
<text text-anchor="middle" x="1794" y="-141.5" font-family="Helvetica,sans-Serif" font-size="10.00">/detail_mujoco_parser.h</text>
</a>
</g>
</g>
<!-- Node82&#45;&gt;Node88 -->
<g id="edge23" class="edge">
<title>Node82&#45;&gt;Node88</title>
<path fill="none" stroke="midnightblue" d="M1129.86,-271.49C1134.97,-270.26 1140.07,-269.08 1145,-268 1397.3,-212.6 1462.96,-211.79 1717,-165 1720.08,-164.43 1723.22,-163.85 1726.4,-163.26"/>
<polygon fill="midnightblue" stroke="midnightblue" points="1128.93,-268.12 1120.06,-273.91 1130.61,-274.92 1128.93,-268.12"/>
</g>
<!-- Node89 -->
<g id="node17" class="node">
<title>Node89</title>
<g id="a_node17"><a xlink:href="detail__sdf__parser_8h.html" target="_top" xlink:title=" ">
<polygon fill="white" stroke="black" points="1879.5,-134.5 1879.5,-164.5 2014.5,-164.5 2014.5,-134.5 1879.5,-134.5"/>
<text text-anchor="start" x="1887.5" y="-152.5" font-family="Helvetica,sans-Serif" font-size="10.00">drake/multibody/parsing</text>
<text text-anchor="middle" x="1947" y="-141.5" font-family="Helvetica,sans-Serif" font-size="10.00">/detail_sdf_parser.h</text>
</a>
</g>
</g>
<!-- Node82&#45;&gt;Node89 -->
<g id="edge26" class="edge">
<title>Node82&#45;&gt;Node89</title>
<path fill="none" stroke="midnightblue" d="M1128.36,-271.54C1133.96,-270.25 1139.57,-269.04 1145,-268 1270.38,-243.9 1303.55,-249.61 1430,-232 1625.92,-204.71 1675,-198.2 1870,-165 1873.08,-164.47 1876.24,-163.93 1879.42,-163.37"/>
<polygon fill="midnightblue" stroke="midnightblue" points="1127.23,-268.21 1118.32,-273.94 1128.86,-275.02 1127.23,-268.21"/>
</g>
<!-- Node91 -->
<g id="node19" class="node">
<title>Node91</title>
<g id="a_node19"><a xlink:href="detail__urdf__parser_8h.html" target="_top" xlink:title=" ">
<polygon fill="white" stroke="black" points="621.5,-134.5 621.5,-164.5 756.5,-164.5 756.5,-134.5 621.5,-134.5"/>
<text text-anchor="start" x="629.5" y="-152.5" font-family="Helvetica,sans-Serif" font-size="10.00">drake/multibody/parsing</text>
<text text-anchor="middle" x="689" y="-141.5" font-family="Helvetica,sans-Serif" font-size="10.00">/detail_urdf_parser.h</text>
</a>
</g>
</g>
<!-- Node82&#45;&gt;Node91 -->
<g id="edge29" class="edge">
<title>Node82&#45;&gt;Node91</title>
<path fill="none" stroke="midnightblue" d="M996.99,-271.46C957.61,-261.53 908.04,-247.78 865,-232 810.62,-212.06 749.87,-182.13 715.85,-164.63"/>
<polygon fill="midnightblue" stroke="midnightblue" points="996.23,-274.88 1006.78,-273.9 997.92,-268.09 996.23,-274.88"/>
</g>
<!-- Node92 -->
<g id="node20" class="node">
<title>Node92</title>
<g id="a_node20"><a xlink:href="detail__usd__parser_8h.html" target="_top" xlink:title=" ">
<polygon fill="white" stroke="black" points="774.5,-134.5 774.5,-164.5 909.5,-164.5 909.5,-134.5 774.5,-134.5"/>
<text text-anchor="start" x="782.5" y="-152.5" font-family="Helvetica,sans-Serif" font-size="10.00">drake/multibody/parsing</text>
<text text-anchor="middle" x="842" y="-141.5" font-family="Helvetica,sans-Serif" font-size="10.00">/detail_usd_parser.h</text>
</a>
</g>
</g>
<!-- Node82&#45;&gt;Node92 -->
<g id="edge31" class="edge">
<title>Node82&#45;&gt;Node92</title>
<path fill="none" stroke="midnightblue" d="M990.37,-274.76C958.46,-266.45 922.6,-253.14 895,-232 871.69,-214.14 855.58,-182.91 847.65,-164.73"/>
<polygon fill="midnightblue" stroke="midnightblue" points="989.58,-278.17 1000.13,-277.18 991.27,-271.38 989.58,-278.17"/>
</g>
<!-- Node93 -->
<g id="node21" class="node">
<title>Node93</title>
<g id="a_node21"><a xlink:href="detail__sdf__diagnostic_8h.html" target="_top" xlink:title=" ">
<polygon fill="white" stroke="black" points="1930.5,-201.5 1930.5,-231.5 2065.5,-231.5 2065.5,-201.5 1930.5,-201.5"/>
<text text-anchor="start" x="1938.5" y="-219.5" font-family="Helvetica,sans-Serif" font-size="10.00">drake/multibody/parsing</text>
<text text-anchor="middle" x="1998" y="-208.5" font-family="Helvetica,sans-Serif" font-size="10.00">/detail_sdf_diagnostic.h</text>
</a>
</g>
</g>
<!-- Node82&#45;&gt;Node93 -->
<g id="edge24" class="edge">
<title>Node82&#45;&gt;Node93</title>
<path fill="none" stroke="midnightblue" d="M1126.06,-271.61C1132.42,-270.21 1138.82,-268.96 1145,-268 1432.2,-223.24 1507.93,-250.51 1798,-232 1842.12,-229.18 1891.69,-225.59 1930.44,-222.69"/>
<polygon fill="midnightblue" stroke="midnightblue" points="1125.1,-268.24 1116.16,-273.92 1126.69,-275.06 1125.1,-268.24"/>
</g>
<!-- Node95 -->
<g id="node23" class="node">
<title>Node95</title>
<g id="a_node23"><a xlink:href="detail__tinyxml2__diagnostic_8h.html" target="_top" xlink:title=" ">
<polygon fill="white" stroke="black" points="2142.5,-201.5 2142.5,-231.5 2303.5,-231.5 2303.5,-201.5 2142.5,-201.5"/>
<text text-anchor="start" x="2150.5" y="-219.5" font-family="Helvetica,sans-Serif" font-size="10.00">drake/multibody/parsing</text>
<text text-anchor="middle" x="2223" y="-208.5" font-family="Helvetica,sans-Serif" font-size="10.00">/detail_tinyxml2_diagnostic.h</text>
</a>
</g>
</g>
<!-- Node82&#45;&gt;Node95 -->
<g id="edge27" class="edge">
<title>Node82&#45;&gt;Node95</title>
<path fill="none" stroke="midnightblue" d="M1125.77,-271.57C1132.22,-270.16 1138.72,-268.93 1145,-268 1554.22,-207.66 1662.32,-260.18 2075,-232 2096.89,-230.51 2120.57,-228.4 2142.42,-226.26"/>
<polygon fill="midnightblue" stroke="midnightblue" points="1124.68,-268.23 1115.73,-273.9 1126.26,-275.05 1124.68,-268.23"/>
</g>
<!-- Node97 -->
<g id="node25" class="node">
<title>Node97</title>
<g id="a_node25"><a xlink:href="detail__usd__geometry_8h.html" target="_top" xlink:title=" ">
<polygon fill="white" stroke="black" points="904.5,-201.5 904.5,-231.5 1039.5,-231.5 1039.5,-201.5 904.5,-201.5"/>
<text text-anchor="start" x="912.5" y="-219.5" font-family="Helvetica,sans-Serif" font-size="10.00">drake/multibody/parsing</text>
<text text-anchor="middle" x="972" y="-208.5" font-family="Helvetica,sans-Serif" font-size="10.00">/detail_usd_geometry.h</text>
</a>
</g>
</g>
<!-- Node82&#45;&gt;Node97 -->
<g id="edge30" class="edge">
<title>Node82&#45;&gt;Node97</title>
<path fill="none" stroke="midnightblue" d="M1040.23,-267.61C1024.46,-256.03 1005.13,-241.83 991.07,-231.5"/>
<polygon fill="midnightblue" stroke="midnightblue" points="1038.44,-270.64 1048.57,-273.73 1042.58,-264.99 1038.44,-270.64"/>
</g>
<!-- Node84 -->
<g id="node12" class="node">
<title>Node84</title>
<g id="a_node12"><a xlink:href="detail__composite__parse_8h.html" target="_top" xlink:title=" ">
<polygon fill="white" stroke="black" points="1233.5,-134.5 1233.5,-164.5 1378.5,-164.5 1378.5,-134.5 1233.5,-134.5"/>
<text text-anchor="start" x="1241.5" y="-152.5" font-family="Helvetica,sans-Serif" font-size="10.00">drake/multibody/parsing</text>
<text text-anchor="middle" x="1306" y="-141.5" font-family="Helvetica,sans-Serif" font-size="10.00">/detail_composite_parse.h</text>
</a>
</g>
</g>
<!-- Node83&#45;&gt;Node84 -->
<g id="edge13" class="edge">
<title>Node83&#45;&gt;Node84</title>
<path fill="none" stroke="midnightblue" d="M1214.72,-196.85C1234.96,-186.58 1259.67,-174.03 1278.28,-164.58"/>
<polygon fill="midnightblue" stroke="midnightblue" points="1213.11,-193.75 1205.77,-201.4 1216.28,-199.99 1213.11,-193.75"/>
</g>
<!-- Node83&#45;&gt;Node85 -->
<g id="edge14" class="edge">
<title>Node83&#45;&gt;Node85</title>
<path fill="none" stroke="midnightblue" d="M1128.6,-197.96C1099.13,-187.48 1062.19,-174.37 1034.63,-164.58"/>
<polygon fill="midnightblue" stroke="midnightblue" points="1127.7,-201.35 1138.29,-201.4 1130.04,-194.75 1127.7,-201.35"/>
</g>
<!-- Node86 -->
<g id="node14" class="node">
<title>Node86</title>
<g id="a_node14"><a xlink:href="detail__make__model__name_8h.html" target="_top" xlink:title=" ">
<polygon fill="white" stroke="black" points="1397,-134.5 1397,-164.5 1555,-164.5 1555,-134.5 1397,-134.5"/>
<text text-anchor="start" x="1405" y="-152.5" font-family="Helvetica,sans-Serif" font-size="10.00">drake/multibody/parsing</text>
<text text-anchor="middle" x="1476" y="-141.5" font-family="Helvetica,sans-Serif" font-size="10.00">/detail_make_model_name.h</text>
</a>
</g>
</g>
<!-- Node83&#45;&gt;Node86 -->
<g id="edge15" class="edge">
<title>Node83&#45;&gt;Node86</title>
<path fill="none" stroke="midnightblue" d="M1252.2,-199.32C1301.18,-188.63 1364.71,-174.77 1411.56,-164.55"/>
<polygon fill="midnightblue" stroke="midnightblue" points="1251.32,-195.93 1242.29,-201.48 1252.81,-202.76 1251.32,-195.93"/>
</g>
<!-- Node87 -->
<g id="node15" class="node">
<title>Node87</title>
<g id="a_node15"><a xlink:href="detail__mesh__parser_8h.html" target="_top" xlink:title=" ">
<polygon fill="white" stroke="black" points="1573.5,-134.5 1573.5,-164.5 1708.5,-164.5 1708.5,-134.5 1573.5,-134.5"/>
<text text-anchor="start" x="1581.5" y="-152.5" font-family="Helvetica,sans-Serif" font-size="10.00">drake/multibody/parsing</text>
<text text-anchor="middle" x="1641" y="-141.5" font-family="Helvetica,sans-Serif" font-size="10.00">/detail_mesh_parser.h</text>
</a>
</g>
</g>
<!-- Node83&#45;&gt;Node87 -->
<g id="edge16" class="edge">
<title>Node83&#45;&gt;Node87</title>
<path fill="none" stroke="midnightblue" d="M1266.13,-205.4C1344.5,-196.07 1462.12,-181.24 1564,-165 1567.09,-164.51 1570.25,-163.99 1573.43,-163.45"/>
<polygon fill="midnightblue" stroke="midnightblue" points="1265.33,-201.97 1255.82,-206.62 1266.16,-208.92 1265.33,-201.97"/>
</g>
<!-- Node83&#45;&gt;Node88 -->
<g id="edge17" class="edge">
<title>Node83&#45;&gt;Node88</title>
<path fill="none" stroke="midnightblue" d="M1266.02,-209.77C1372.98,-202.23 1558.77,-187.26 1717,-165 1720.1,-164.56 1723.26,-164.09 1726.45,-163.59"/>
<polygon fill="midnightblue" stroke="midnightblue" points="1265.65,-206.29 1255.92,-210.48 1266.14,-213.27 1265.65,-206.29"/>
</g>
<!-- Node83&#45;&gt;Node89 -->
<g id="edge18" class="edge">
<title>Node83&#45;&gt;Node89</title>
<path fill="none" stroke="midnightblue" d="M1265.64,-212.29C1397.3,-206.75 1653.76,-193.16 1870,-165 1873.1,-164.6 1876.27,-164.15 1879.46,-163.67"/>
<polygon fill="midnightblue" stroke="midnightblue" points="1265.45,-208.79 1255.61,-212.71 1265.74,-215.79 1265.45,-208.79"/>
</g>
<!-- Node90 -->
<g id="node18" class="node">
<title>Node90</title>
<g id="a_node18"><a xlink:href="detail__select__parser_8h.html" target="_top" xlink:title=" ">
<polygon fill="white" stroke="black" points="1080.5,-134.5 1080.5,-164.5 1215.5,-164.5 1215.5,-134.5 1080.5,-134.5"/>
<text text-anchor="start" x="1088.5" y="-152.5" font-family="Helvetica,sans-Serif" font-size="10.00">drake/multibody/parsing</text>
<text text-anchor="middle" x="1148" y="-141.5" font-family="Helvetica,sans-Serif" font-size="10.00">/detail_select_parser.h</text>
</a>
</g>
</g>
<!-- Node83&#45;&gt;Node90 -->
<g id="edge19" class="edge">
<title>Node83&#45;&gt;Node90</title>
<path fill="none" stroke="midnightblue" d="M1167.28,-192.28C1163.01,-183.02 1158.23,-172.66 1154.5,-164.58"/>
<polygon fill="midnightblue" stroke="midnightblue" points="1164.12,-193.78 1171.49,-201.4 1170.48,-190.85 1164.12,-193.78"/>
</g>
<!-- Node83&#45;&gt;Node91 -->
<g id="edge20" class="edge">
<title>Node83&#45;&gt;Node91</title>
<path fill="none" stroke="midnightblue" d="M1090.18,-205.46C988.05,-193.66 825.69,-174.49 765,-165 762.21,-164.56 759.37,-164.1 756.5,-163.62"/>
<polygon fill="midnightblue" stroke="midnightblue" points="1089.84,-208.94 1100.18,-206.61 1090.65,-201.99 1089.84,-208.94"/>
</g>
<!-- Node83&#45;&gt;Node92 -->
<g id="edge21" class="edge">
<title>Node83&#45;&gt;Node92</title>
<path fill="none" stroke="midnightblue" d="M1095.41,-199.52C1038.24,-188.46 963.09,-173.92 909.5,-163.56"/>
<polygon fill="midnightblue" stroke="midnightblue" points="1095.02,-203.01 1105.51,-201.48 1096.35,-196.14 1095.02,-203.01"/>
</g>
<!-- Node94 -->
<g id="node22" class="node">
<title>Node94</title>
<g id="a_node22"><a xlink:href="detail__sdf__geometry_8h.html" target="_top" xlink:title=" ">
<polygon fill="white" stroke="black" points="2032.5,-134.5 2032.5,-164.5 2167.5,-164.5 2167.5,-134.5 2032.5,-134.5"/>
<text text-anchor="start" x="2040.5" y="-152.5" font-family="Helvetica,sans-Serif" font-size="10.00">drake/multibody/parsing</text>
<text text-anchor="middle" x="2100" y="-141.5" font-family="Helvetica,sans-Serif" font-size="10.00">/detail_sdf_geometry.h</text>
</a>
</g>
</g>
<!-- Node93&#45;&gt;Node94 -->
<g id="edge25" class="edge">
<title>Node93&#45;&gt;Node94</title>
<path fill="none" stroke="midnightblue" d="M2028.58,-196.02C2044.45,-185.9 2063.48,-173.77 2077.91,-164.58"/>
<polygon fill="midnightblue" stroke="midnightblue" points="2026.68,-193.07 2020.13,-201.4 2030.45,-198.97 2026.68,-193.07"/>
</g>
<!-- Node96 -->
<g id="node24" class="node">
<title>Node96</title>
<g id="a_node24"><a xlink:href="detail__urdf__geometry_8h.html" target="_top" xlink:title=" ">
<polygon fill="white" stroke="black" points="2185.5,-134.5 2185.5,-164.5 2320.5,-164.5 2320.5,-134.5 2185.5,-134.5"/>
<text text-anchor="start" x="2193.5" y="-152.5" font-family="Helvetica,sans-Serif" font-size="10.00">drake/multibody/parsing</text>
<text text-anchor="middle" x="2253" y="-141.5" font-family="Helvetica,sans-Serif" font-size="10.00">/detail_urdf_geometry.h</text>
</a>
</g>
</g>
<!-- Node95&#45;&gt;Node96 -->
<g id="edge28" class="edge">
<title>Node95&#45;&gt;Node96</title>
<path fill="none" stroke="midnightblue" d="M2233.72,-192.28C2237.99,-183.02 2242.77,-172.66 2246.5,-164.58"/>
<polygon fill="midnightblue" stroke="midnightblue" points="2230.52,-190.85 2229.51,-201.4 2236.88,-193.78 2230.52,-190.85"/>
</g>
</g>
</svg>
