<?xml version="1.0" encoding="UTF-8" standalone="no"?>
<!DOCTYPE svg PUBLIC "-//W3C//DTD SVG 1.1//EN"
 "http://www.w3.org/Graphics/SVG/1.1/DTD/svg11.dtd">
<!-- Generated by graphviz version 2.43.0 (0)
 -->
<!-- Title: drake/bindings/pydrake/pydrake_pybind.h Pages: 1 -->
<!--zoomable 418 -->
<svg id="main" version="1.1" xmlns="http://www.w3.org/2000/svg" xmlns:xlink="http://www.w3.org/1999/xlink" xml:space="preserve" onload="init(evt)">
<style type="text/css"><![CDATA[
.edge:hover path { stroke: red; }
.edge:hover polygon { stroke: red; fill: red; }
]]></style>
<script type="text/javascript"><![CDATA[
var edges = document.getElementsByTagName('g');
if (edges && edges.length) {
  for (var i=0;i<edges.length;i++) {
    if (edges[i].id.substr(0,4)=='edge') {
      edges[i].setAttribute('class','edge');
    }
  }
}
]]></script>
        <defs>
                <circle id="rim" cx="0" cy="0" r="7"/>
                <circle id="rim2" cx="0" cy="0" r="3.5"/>
                <g id="zoomPlus">
                        <use xlink:href="#rim" fill="#404040">
                                <set attributeName="fill" to="#808080" begin="zoomplus.mouseover" end="zoomplus.mouseout"/>
                        </use>
                        <path d="M-4,0h8M0,-4v8" fill="none" stroke="white" stroke-width="1.5" pointer-events="none"/>
                </g>
                <g id="zoomMin">
                        <use xlink:href="#rim" fill="#404040">
                                <set attributeName="fill" to="#808080" begin="zoomminus.mouseover" end="zoomminus.mouseout"/>
                        </use>
                        <path d="M-4,0h8" fill="none" stroke="white" stroke-width="1.5" pointer-events="none"/>
                </g>
                <g id="dirArrow">
                        <path fill="none" stroke="white" stroke-width="1.5" d="M0,-3.0v7 M-2.5,-0.5L0,-3.0L2.5,-0.5"/>
                </g>
               <g id="resetDef">
                       <use xlink:href="#rim2" fill="#404040">
                               <set attributeName="fill" to="#808080" begin="reset.mouseover" end="reset.mouseout"/>
                       </use>
               </g>
        </defs>

<script type="text/javascript">
var viewWidth = 3838;
var viewHeight = 418;
var sectionId = 'dynsection-1';
</script>
<script xlink:href="svgpan.js"/>
<svg id="graph" class="graph">
<g id="viewport">
<title>drake/bindings/pydrake/pydrake_pybind.h</title>
<polygon fill="white" stroke="transparent" points="-4,4 -4,-414 3833.55,-414 3833.55,4 -4,4"/>
<!-- Node9 -->
<g id="node1" class="node">
<title>Node9</title>
<g id="a_node1"><a xlink:title=" ">
<polygon fill="#bfbfbf" stroke="black" points="1279.55,-379.5 1279.55,-409.5 1409.55,-409.5 1409.55,-379.5 1279.55,-379.5"/>
<text text-anchor="start" x="1287.55" y="-397.5" font-family="Helvetica,sans-Serif" font-size="10.00">drake/bindings/pydrake</text>
<text text-anchor="middle" x="1344.55" y="-386.5" font-family="Helvetica,sans-Serif" font-size="10.00">/pydrake_pybind.h</text>
</a>
</g>
</g>
<!-- Node10 -->
<g id="node2" class="node">
<title>Node10</title>
<g id="a_node2"><a xlink:href="autodiff__types__pybind_8h.html" target="_top" xlink:title=" ">
<polygon fill="white" stroke="black" points="63.05,-156.5 63.05,-186.5 200.05,-186.5 200.05,-156.5 63.05,-156.5"/>
<text text-anchor="start" x="71.05" y="-174.5" font-family="Helvetica,sans-Serif" font-size="10.00">drake/bindings/pydrake</text>
<text text-anchor="middle" x="131.55" y="-163.5" font-family="Helvetica,sans-Serif" font-size="10.00">/autodiff_types_pybind.h</text>
</a>
</g>
</g>
<!-- Node9&#45;&gt;Node10 -->
<g id="edge1" class="edge">
<title>Node9&#45;&gt;Node10</title>
<path fill="none" stroke="midnightblue" d="M1268.84,-392.35C1021.15,-388.29 248.29,-373.26 204.55,-343 150.8,-305.81 136.39,-220.39 132.73,-186.62"/>
<polygon fill="midnightblue" stroke="midnightblue" points="1269.13,-395.85 1279.19,-392.52 1269.24,-388.85 1269.13,-395.85"/>
</g>
<!-- Node11 -->
<g id="node3" class="node">
<title>Node11</title>
<g id="a_node3"><a xlink:href="default__scalars__pybind_8h.html" target="_top" xlink:title="Helpers for defining scalars and values.">
<polygon fill="white" stroke="black" points="177.55,-78.5 177.55,-119.5 317.55,-119.5 317.55,-78.5 177.55,-78.5"/>
<text text-anchor="start" x="185.55" y="-107.5" font-family="Helvetica,sans-Serif" font-size="10.00">drake/bindings/pydrake</text>
<text text-anchor="start" x="185.55" y="-96.5" font-family="Helvetica,sans-Serif" font-size="10.00">/common/default_scalars</text>
<text text-anchor="middle" x="247.55" y="-85.5" font-family="Helvetica,sans-Serif" font-size="10.00">_pybind.h</text>
</a>
</g>
</g>
<!-- Node9&#45;&gt;Node11 -->
<g id="edge16" class="edge">
<title>Node9&#45;&gt;Node11</title>
<path fill="none" stroke="midnightblue" d="M1269.25,-392.89C1025.73,-390.54 273.18,-380.28 237.55,-343 178.63,-281.33 218.92,-165.69 238.54,-119.64"/>
<polygon fill="midnightblue" stroke="midnightblue" points="1269.39,-396.39 1279.42,-392.98 1269.46,-389.39 1269.39,-396.39"/>
</g>
<!-- Node12 -->
<g id="node4" class="node">
<title>Node12</title>
<g id="a_node4"><a xlink:href="wrap__pybind_8h.html" target="_top" xlink:title="Defines convenience utilities to wrap pybind11 methods and classes.">
<polygon fill="white" stroke="black" points="637.05,-307 637.05,-337 774.05,-337 774.05,-307 637.05,-307"/>
<text text-anchor="start" x="645.05" y="-325" font-family="Helvetica,sans-Serif" font-size="10.00">drake/bindings/pydrake</text>
<text text-anchor="middle" x="705.55" y="-314" font-family="Helvetica,sans-Serif" font-size="10.00">/common/wrap_pybind.h</text>
</a>
</g>
</g>
<!-- Node9&#45;&gt;Node12 -->
<g id="edge3" class="edge">
<title>Node9&#45;&gt;Node12</title>
<path fill="none" stroke="midnightblue" d="M1269.46,-390.16C1162.21,-384.6 959.25,-371.16 788.55,-343 778.9,-341.41 768.71,-339.31 758.9,-337.07"/>
<polygon fill="midnightblue" stroke="midnightblue" points="1269.37,-393.66 1279.53,-390.67 1269.72,-386.67 1269.37,-393.66"/>
</g>
<!-- Node13 -->
<g id="node5" class="node">
<title>Node13</title>
<g id="a_node5"><a xlink:href="cpp__param__pybind_8h.html" target="_top" xlink:title="Provides a mechanism to map C++ types to canonical Python types.">
<polygon fill="white" stroke="black" points="724.05,-229 724.05,-259 891.05,-259 891.05,-229 724.05,-229"/>
<text text-anchor="start" x="732.05" y="-247" font-family="Helvetica,sans-Serif" font-size="10.00">drake/bindings/pydrake</text>
<text text-anchor="middle" x="807.55" y="-236" font-family="Helvetica,sans-Serif" font-size="10.00">/common/cpp_param_pybind.h</text>
</a>
</g>
</g>
<!-- Node9&#45;&gt;Node13 -->
<g id="edge14" class="edge">
<title>Node9&#45;&gt;Node13</title>
<path fill="none" stroke="midnightblue" d="M1269.36,-393.85C1094.4,-393.89 671.56,-389.14 628.55,-343 615.83,-329.34 617.5,-316.04 628.55,-301 636.12,-290.7 701.73,-271.97 751.35,-259.03"/>
<polygon fill="midnightblue" stroke="midnightblue" points="1269.52,-397.35 1279.52,-393.84 1269.51,-390.35 1269.52,-397.35"/>
</g>
<!-- Node14 -->
<g id="node6" class="node">
<title>Node14</title>
<g id="a_node6"><a xlink:href="cpp__template__pybind_8h.html" target="_top" xlink:title=" ">
<polygon fill="white" stroke="black" points="462.05,-156.5 462.05,-186.5 641.05,-186.5 641.05,-156.5 462.05,-156.5"/>
<text text-anchor="start" x="470.05" y="-174.5" font-family="Helvetica,sans-Serif" font-size="10.00">drake/bindings/pydrake</text>
<text text-anchor="middle" x="551.55" y="-163.5" font-family="Helvetica,sans-Serif" font-size="10.00">/common/cpp_template_pybind.h</text>
</a>
</g>
</g>
<!-- Node9&#45;&gt;Node14 -->
<g id="edge15" class="edge">
<title>Node9&#45;&gt;Node14</title>
<path fill="none" stroke="midnightblue" d="M1269.29,-391.66C1070.36,-386.45 544.07,-370.13 518.55,-343 482.01,-304.15 503.33,-274.12 518.55,-223 522.56,-209.55 531.41,-196.34 538.94,-186.81"/>
<polygon fill="midnightblue" stroke="midnightblue" points="1269.28,-395.16 1279.37,-391.93 1269.46,-388.17 1269.28,-395.16"/>
</g>
<!-- Node15 -->
<g id="node7" class="node">
<title>Node15</title>
<g id="a_node7"><a xlink:href="serialize__pybind_8h.html" target="_top" xlink:title=" ">
<polygon fill="white" stroke="black" points="389.55,-84 389.55,-114 543.55,-114 543.55,-84 389.55,-84"/>
<text text-anchor="start" x="397.55" y="-102" font-family="Helvetica,sans-Serif" font-size="10.00">drake/bindings/pydrake</text>
<text text-anchor="middle" x="466.55" y="-91" font-family="Helvetica,sans-Serif" font-size="10.00">/common/serialize_pybind.h</text>
</a>
</g>
</g>
<!-- Node9&#45;&gt;Node15 -->
<g id="edge24" class="edge">
<title>Node9&#45;&gt;Node15</title>
<path fill="none" stroke="midnightblue" d="M1269.23,-394.01C1072.19,-394.67 552.63,-391.71 493.55,-343 424.29,-285.89 451.04,-157.28 462.44,-114.3"/>
<polygon fill="midnightblue" stroke="midnightblue" points="1269.51,-397.51 1279.49,-393.98 1269.48,-390.51 1269.51,-397.51"/>
</g>
<!-- Node16 -->
<g id="node8" class="node">
<title>Node16</title>
<g id="a_node8"><a xlink:href="value__pybind_8h.html" target="_top" xlink:title="Helpers for defining instantiations of drake::Value&lt;&gt;.">
<polygon fill="white" stroke="black" points="737.55,-84 737.55,-114 877.55,-114 877.55,-84 737.55,-84"/>
<text text-anchor="start" x="745.55" y="-102" font-family="Helvetica,sans-Serif" font-size="10.00">drake/bindings/pydrake</text>
<text text-anchor="middle" x="807.55" y="-91" font-family="Helvetica,sans-Serif" font-size="10.00">/common/value_pybind.h</text>
</a>
</g>
</g>
<!-- Node9&#45;&gt;Node16 -->
<g id="edge26" class="edge">
<title>Node9&#45;&gt;Node16</title>
<path fill="none" stroke="midnightblue" d="M1269.29,-391.71C1131.72,-387.67 851.06,-375.49 821.55,-343 809,-329.18 810.87,-316.31 821.55,-301 848.11,-262.95 893,-303.05 919.55,-265 930.24,-249.69 922.63,-241.41 919.55,-223 914.37,-191.95 916.1,-180.68 896.55,-156 881.93,-137.54 859.45,-123.46 840.74,-114.04"/>
<polygon fill="midnightblue" stroke="midnightblue" points="1269.24,-395.21 1279.34,-392 1269.45,-388.22 1269.24,-395.21"/>
</g>
<!-- Node17 -->
<g id="node9" class="node">
<title>Node17</title>
<g id="a_node9"><a xlink:href="type__safe__index__pybind_8h.html" target="_top" xlink:title=" ">
<polygon fill="white" stroke="black" points="347.55,-0.5 347.55,-41.5 493.55,-41.5 493.55,-0.5 347.55,-0.5"/>
<text text-anchor="start" x="355.55" y="-29.5" font-family="Helvetica,sans-Serif" font-size="10.00">drake/bindings/pydrake</text>
<text text-anchor="start" x="355.55" y="-18.5" font-family="Helvetica,sans-Serif" font-size="10.00">/common/type_safe_index</text>
<text text-anchor="middle" x="420.55" y="-7.5" font-family="Helvetica,sans-Serif" font-size="10.00">_pybind.h</text>
</a>
</g>
</g>
<!-- Node9&#45;&gt;Node17 -->
<g id="edge27" class="edge">
<title>Node9&#45;&gt;Node17</title>
<path fill="none" stroke="midnightblue" d="M1268.98,-392.89C1024.81,-390.54 266.98,-380.31 163.55,-343 95.82,-318.57 34.55,-317 34.55,-245 34.55,-245 34.55,-245 34.55,-170.5 34.55,-152.69 -102.04,-194.75 168.55,-78 226.06,-53.19 295.88,-38.78 347.43,-30.81"/>
<polygon fill="midnightblue" stroke="midnightblue" points="1269.14,-396.39 1279.18,-392.98 1269.21,-389.39 1269.14,-396.39"/>
</g>
<!-- Node18 -->
<g id="node10" class="node">
<title>Node18</title>
<g id="a_node10"><a xlink:href="lcm__pybind_8h.html" target="_top" xlink:title="Helpers for defining C++ LCM type serializers.">
<polygon fill="white" stroke="black" points="580.55,-84 580.55,-114 710.55,-114 710.55,-84 580.55,-84"/>
<text text-anchor="start" x="588.55" y="-102" font-family="Helvetica,sans-Serif" font-size="10.00">drake/bindings/pydrake</text>
<text text-anchor="middle" x="645.55" y="-91" font-family="Helvetica,sans-Serif" font-size="10.00">/systems/lcm_pybind.h</text>
</a>
</g>
</g>
<!-- Node9&#45;&gt;Node18 -->
<g id="edge42" class="edge">
<title>Node9&#45;&gt;Node18</title>
<path fill="none" stroke="midnightblue" d="M1269.27,-392.23C1091.79,-388.69 657.85,-376.66 601.55,-343 552.11,-313.44 519.58,-270.24 552.55,-223 579.11,-184.95 624,-225.05 650.55,-187 665.71,-165.29 657.81,-132.61 651.29,-114.1"/>
<polygon fill="midnightblue" stroke="midnightblue" points="1269.25,-395.73 1279.31,-392.43 1269.39,-388.73 1269.25,-395.73"/>
</g>
<!-- Node19 -->
<g id="node11" class="node">
<title>Node19</title>
<g id="a_node11"><a xlink:href="eigen__geometry__pybind_8h.html" target="_top" xlink:title="Provides pybind11 type_casters for Eigen geometric types.">
<polygon fill="white" stroke="black" points="561.05,-223.5 561.05,-264.5 706.05,-264.5 706.05,-223.5 561.05,-223.5"/>
<text text-anchor="start" x="569.05" y="-252.5" font-family="Helvetica,sans-Serif" font-size="10.00">drake/bindings/pydrake</text>
<text text-anchor="start" x="569.05" y="-241.5" font-family="Helvetica,sans-Serif" font-size="10.00">/common/eigen_geometry</text>
<text text-anchor="middle" x="633.55" y="-230.5" font-family="Helvetica,sans-Serif" font-size="10.00">_pybind.h</text>
</a>
</g>
</g>
<!-- Node9&#45;&gt;Node19 -->
<g id="edge21" class="edge">
<title>Node9&#45;&gt;Node19</title>
<path fill="none" stroke="midnightblue" d="M1269.23,-393.96C1091.86,-394.24 659.47,-390.06 615.55,-343 595.85,-321.88 609.51,-286.61 621.39,-264.64"/>
<polygon fill="midnightblue" stroke="midnightblue" points="1269.28,-397.46 1279.27,-393.93 1269.26,-390.46 1269.28,-397.46"/>
</g>
<!-- Node20 -->
<g id="node12" class="node">
<title>Node20</title>
<g id="a_node12"><a xlink:href="symbolic__types__pybind_8h.html" target="_top" xlink:title=" ">
<polygon fill="white" stroke="black" points="247.05,-307 247.05,-337 390.05,-337 390.05,-307 247.05,-307"/>
<text text-anchor="start" x="255.05" y="-325" font-family="Helvetica,sans-Serif" font-size="10.00">drake/bindings/pydrake</text>
<text text-anchor="middle" x="318.55" y="-314" font-family="Helvetica,sans-Serif" font-size="10.00">/symbolic_types_pybind.h</text>
</a>
</g>
</g>
<!-- Node9&#45;&gt;Node20 -->
<g id="edge17" class="edge">
<title>Node9&#45;&gt;Node20</title>
<path fill="none" stroke="midnightblue" d="M1269.29,-393.9C1109.27,-393.79 723.79,-388.34 404.55,-343 394.08,-341.51 383.01,-339.37 372.42,-337.04"/>
<polygon fill="midnightblue" stroke="midnightblue" points="1269.5,-397.4 1279.5,-393.9 1269.5,-390.4 1269.5,-397.4"/>
</g>
<!-- Node21 -->
<g id="node13" class="node">
<title>Node21</title>
<g id="a_node13"><a xlink:href="symbolic__py__unapply_8h.html" target="_top" xlink:title=" ">
<polygon fill="white" stroke="black" points="295.05,-229 295.05,-259 428.05,-259 428.05,-229 295.05,-229"/>
<text text-anchor="start" x="303.05" y="-247" font-family="Helvetica,sans-Serif" font-size="10.00">drake/bindings/pydrake</text>
<text text-anchor="middle" x="361.55" y="-236" font-family="Helvetica,sans-Serif" font-size="10.00">/symbolic_py_unapply.h</text>
</a>
</g>
</g>
<!-- Node9&#45;&gt;Node21 -->
<g id="edge38" class="edge">
<title>Node9&#45;&gt;Node21</title>
<path fill="none" stroke="midnightblue" d="M1269.32,-392.72C1065.9,-390.15 515.38,-379.81 442.55,-343 423.84,-333.54 388.29,-284.14 371.2,-259.3"/>
<polygon fill="midnightblue" stroke="midnightblue" points="1269.28,-396.22 1279.32,-392.85 1269.36,-389.22 1269.28,-396.22"/>
</g>
<!-- Node22 -->
<g id="node14" class="node">
<title>Node22</title>
<g id="a_node14"><a xlink:href="deprecation__pybind_8h.html" target="_top" xlink:title="Provides access to Python deprecation utilities from C++.">
<polygon fill="white" stroke="black" points="830.55,-307 830.55,-337 1000.55,-337 1000.55,-307 830.55,-307"/>
<text text-anchor="start" x="838.55" y="-325" font-family="Helvetica,sans-Serif" font-size="10.00">drake/bindings/pydrake</text>
<text text-anchor="middle" x="915.55" y="-314" font-family="Helvetica,sans-Serif" font-size="10.00">/common/deprecation_pybind.h</text>
</a>
</g>
</g>
<!-- Node9&#45;&gt;Node22 -->
<g id="edge20" class="edge">
<title>Node9&#45;&gt;Node22</title>
<path fill="none" stroke="midnightblue" d="M1269.32,-383.47C1201.28,-374.1 1098.45,-359.14 1009.55,-343 999.62,-341.2 989.13,-339.13 978.91,-337.02"/>
<polygon fill="midnightblue" stroke="midnightblue" points="1269.13,-386.98 1279.52,-384.87 1270.08,-380.05 1269.13,-386.98"/>
</g>
<!-- Node23 -->
<g id="node15" class="node">
<title>Node23</title>
<g id="a_node15"><a xlink:href="eigen__pybind_8h.html" target="_top" xlink:title=" ">
<polygon fill="white" stroke="black" points="1018.55,-307 1018.55,-337 1158.55,-337 1158.55,-307 1018.55,-307"/>
<text text-anchor="start" x="1026.55" y="-325" font-family="Helvetica,sans-Serif" font-size="10.00">drake/bindings/pydrake</text>
<text text-anchor="middle" x="1088.55" y="-314" font-family="Helvetica,sans-Serif" font-size="10.00">/common/eigen_pybind.h</text>
</a>
</g>
</g>
<!-- Node9&#45;&gt;Node23 -->
<g id="edge22" class="edge">
<title>Node9&#45;&gt;Node23</title>
<path fill="none" stroke="midnightblue" d="M1283.98,-376.82C1240.07,-364.73 1181.36,-348.56 1139.78,-337.11"/>
<polygon fill="midnightblue" stroke="midnightblue" points="1283.1,-380.21 1293.67,-379.49 1284.96,-373.46 1283.1,-380.21"/>
</g>
<!-- Node24 -->
<g id="node16" class="node">
<title>Node24</title>
<g id="a_node16"><a xlink:href="identifier__pybind_8h.html" target="_top" xlink:title=" ">
<polygon fill="white" stroke="black" points="1176.55,-307 1176.55,-337 1332.55,-337 1332.55,-307 1176.55,-307"/>
<text text-anchor="start" x="1184.55" y="-325" font-family="Helvetica,sans-Serif" font-size="10.00">drake/bindings/pydrake</text>
<text text-anchor="middle" x="1254.55" y="-314" font-family="Helvetica,sans-Serif" font-size="10.00">/common/identifier_pybind.h</text>
</a>
</g>
</g>
<!-- Node9&#45;&gt;Node24 -->
<g id="edge23" class="edge">
<title>Node9&#45;&gt;Node24</title>
<path fill="none" stroke="midnightblue" d="M1318.11,-372.79C1303.4,-361.27 1285.49,-347.23 1272.43,-337"/>
<polygon fill="midnightblue" stroke="midnightblue" points="1316.31,-375.82 1326.34,-379.23 1320.63,-370.31 1316.31,-375.82"/>
</g>
<!-- Node25 -->
<g id="node17" class="node">
<title>Node25</title>
<g id="a_node17"><a xlink:href="sorted__pair__pybind_8h.html" target="_top" xlink:title=" ">
<polygon fill="white" stroke="black" points="1351.05,-307 1351.05,-337 1518.05,-337 1518.05,-307 1351.05,-307"/>
<text text-anchor="start" x="1359.05" y="-325" font-family="Helvetica,sans-Serif" font-size="10.00">drake/bindings/pydrake</text>
<text text-anchor="middle" x="1434.55" y="-314" font-family="Helvetica,sans-Serif" font-size="10.00">/common/sorted_pair_pybind.h</text>
</a>
</g>
</g>
<!-- Node9&#45;&gt;Node25 -->
<g id="edge25" class="edge">
<title>Node9&#45;&gt;Node25</title>
<path fill="none" stroke="midnightblue" d="M1371,-372.79C1385.7,-361.27 1403.62,-347.23 1416.68,-337"/>
<polygon fill="midnightblue" stroke="midnightblue" points="1368.48,-370.31 1362.77,-379.23 1372.8,-375.82 1368.48,-370.31"/>
</g>
<!-- Node26 -->
<g id="node18" class="node">
<title>Node26</title>
<g id="a_node18"><a xlink:href="examples__py_8h.html" target="_top" xlink:title=" ">
<polygon fill="white" stroke="black" points="1536.05,-307 1536.05,-337 1679.05,-337 1679.05,-307 1536.05,-307"/>
<text text-anchor="start" x="1544.05" y="-325" font-family="Helvetica,sans-Serif" font-size="10.00">drake/bindings/pydrake</text>
<text text-anchor="middle" x="1607.55" y="-314" font-family="Helvetica,sans-Serif" font-size="10.00">/examples/examples_py.h</text>
</a>
</g>
</g>
<!-- Node9&#45;&gt;Node26 -->
<g id="edge28" class="edge">
<title>Node9&#45;&gt;Node26</title>
<path fill="none" stroke="midnightblue" d="M1406.5,-376.89C1451.64,-364.79 1512.13,-348.58 1554.93,-337.11"/>
<polygon fill="midnightblue" stroke="midnightblue" points="1405.58,-373.52 1396.83,-379.49 1407.39,-380.28 1405.58,-373.52"/>
</g>
<!-- Node27 -->
<g id="node19" class="node">
<title>Node27</title>
<g id="a_node19"><a xlink:href="geometry__py_8h.html" target="_top" xlink:title=" ">
<polygon fill="white" stroke="black" points="1697.55,-307 1697.55,-337 1839.55,-337 1839.55,-307 1697.55,-307"/>
<text text-anchor="start" x="1705.55" y="-325" font-family="Helvetica,sans-Serif" font-size="10.00">drake/bindings/pydrake</text>
<text text-anchor="middle" x="1768.55" y="-314" font-family="Helvetica,sans-Serif" font-size="10.00">/geometry/geometry_py.h</text>
</a>
</g>
</g>
<!-- Node9&#45;&gt;Node27 -->
<g id="edge29" class="edge">
<title>Node9&#45;&gt;Node27</title>
<path fill="none" stroke="midnightblue" d="M1419.92,-384.62C1489.86,-375.87 1596.7,-361.18 1688.55,-343 1697.26,-341.28 1706.44,-339.22 1715.36,-337.08"/>
<polygon fill="midnightblue" stroke="midnightblue" points="1419.36,-381.16 1409.87,-385.87 1420.23,-388.11 1419.36,-381.16"/>
</g>
<!-- Node28 -->
<g id="node20" class="node">
<title>Node28</title>
<g id="a_node20"><a xlink:href="optimization__pybind_8h.html" target="_top" xlink:title=" ">
<polygon fill="white" stroke="black" points="1858.05,-301.5 1858.05,-342.5 1989.05,-342.5 1989.05,-301.5 1858.05,-301.5"/>
<text text-anchor="start" x="1866.05" y="-330.5" font-family="Helvetica,sans-Serif" font-size="10.00">drake/bindings/pydrake</text>
<text text-anchor="start" x="1866.05" y="-319.5" font-family="Helvetica,sans-Serif" font-size="10.00">/geometry/optimization</text>
<text text-anchor="middle" x="1923.55" y="-308.5" font-family="Helvetica,sans-Serif" font-size="10.00">_pybind.h</text>
</a>
</g>
</g>
<!-- Node9&#45;&gt;Node28 -->
<g id="edge30" class="edge">
<title>Node9&#45;&gt;Node28</title>
<path fill="none" stroke="midnightblue" d="M1420.07,-389.73C1519.1,-383.92 1697.94,-370.44 1848.55,-343 1851.6,-342.44 1854.71,-341.83 1857.84,-341.16"/>
<polygon fill="midnightblue" stroke="midnightblue" points="1419.64,-386.25 1409.86,-390.32 1420.05,-393.23 1419.64,-386.25"/>
</g>
<!-- Node29 -->
<g id="node21" class="node">
<title>Node29</title>
<g id="a_node21"><a xlink:href="manipulation__py_8h.html" target="_top" xlink:title=" ">
<polygon fill="white" stroke="black" points="2007.55,-307 2007.55,-337 2183.55,-337 2183.55,-307 2007.55,-307"/>
<text text-anchor="start" x="2015.55" y="-325" font-family="Helvetica,sans-Serif" font-size="10.00">drake/bindings/pydrake</text>
<text text-anchor="middle" x="2095.55" y="-314" font-family="Helvetica,sans-Serif" font-size="10.00">/manipulation/manipulation_py.h</text>
</a>
</g>
</g>
<!-- Node9&#45;&gt;Node29 -->
<g id="edge31" class="edge">
<title>Node9&#45;&gt;Node29</title>
<path fill="none" stroke="midnightblue" d="M1420.18,-390.76C1542.32,-385.65 1790.37,-372.38 1998.55,-343 2009.88,-341.4 2021.86,-339.28 2033.4,-337.03"/>
<polygon fill="midnightblue" stroke="midnightblue" points="1419.67,-387.28 1409.83,-391.19 1419.96,-394.28 1419.67,-387.28"/>
</g>
<!-- Node30 -->
<g id="node22" class="node">
<title>Node30</title>
<g id="a_node22"><a xlink:href="math__operators__pybind_8h.html" target="_top" xlink:title=" ">
<polygon fill="white" stroke="black" points="2201.55,-307 2201.55,-337 2345.55,-337 2345.55,-307 2201.55,-307"/>
<text text-anchor="start" x="2209.55" y="-325" font-family="Helvetica,sans-Serif" font-size="10.00">drake/bindings/pydrake</text>
<text text-anchor="middle" x="2273.55" y="-314" font-family="Helvetica,sans-Serif" font-size="10.00">/math_operators_pybind.h</text>
</a>
</g>
</g>
<!-- Node9&#45;&gt;Node30 -->
<g id="edge32" class="edge">
<title>Node9&#45;&gt;Node30</title>
<path fill="none" stroke="midnightblue" d="M1419.97,-393.61C1568.66,-392.82 1909.73,-385.97 2192.55,-343 2202.43,-341.5 2212.87,-339.35 2222.85,-337.02"/>
<polygon fill="midnightblue" stroke="midnightblue" points="1419.59,-390.11 1409.6,-393.66 1419.62,-397.11 1419.59,-390.11"/>
</g>
<!-- Node31 -->
<g id="node23" class="node">
<title>Node31</title>
<g id="a_node23"><a xlink:href="inverse__kinematics__py_8h.html" target="_top" xlink:title=" ">
<polygon fill="white" stroke="black" points="2363.55,-307 2363.55,-337 2555.55,-337 2555.55,-307 2363.55,-307"/>
<text text-anchor="start" x="2371.55" y="-325" font-family="Helvetica,sans-Serif" font-size="10.00">drake/bindings/pydrake</text>
<text text-anchor="middle" x="2459.55" y="-314" font-family="Helvetica,sans-Serif" font-size="10.00">/multibody/inverse_kinematics_py.h</text>
</a>
</g>
</g>
<!-- Node9&#45;&gt;Node31 -->
<g id="edge33" class="edge">
<title>Node9&#45;&gt;Node31</title>
<path fill="none" stroke="midnightblue" d="M1420.05,-393.28C1588.4,-392.02 2007.08,-384.58 2354.55,-343 2367.18,-341.49 2380.56,-339.36 2393.4,-337.04"/>
<polygon fill="midnightblue" stroke="midnightblue" points="1419.78,-389.79 1409.81,-393.36 1419.83,-396.79 1419.78,-389.79"/>
</g>
<!-- Node32 -->
<g id="node24" class="node">
<title>Node32</title>
<g id="a_node24"><a xlink:href="planning__py_8h.html" target="_top" xlink:title=" ">
<polygon fill="white" stroke="black" points="2574.05,-307 2574.05,-337 2705.05,-337 2705.05,-307 2574.05,-307"/>
<text text-anchor="start" x="2582.05" y="-325" font-family="Helvetica,sans-Serif" font-size="10.00">drake/bindings/pydrake</text>
<text text-anchor="middle" x="2639.55" y="-314" font-family="Helvetica,sans-Serif" font-size="10.00">/planning/planning_py.h</text>
</a>
</g>
</g>
<!-- Node9&#45;&gt;Node32 -->
<g id="edge34" class="edge">
<title>Node9&#45;&gt;Node32</title>
<path fill="none" stroke="midnightblue" d="M1420.22,-392.54C1650.78,-389.26 2342.28,-376.82 2564.55,-343 2573.88,-341.58 2583.71,-339.44 2593.08,-337.08"/>
<polygon fill="midnightblue" stroke="midnightblue" points="1419.87,-389.04 1409.92,-392.68 1419.97,-396.04 1419.87,-389.04"/>
</g>
<!-- Node33 -->
<g id="node25" class="node">
<title>Node33</title>
<g id="a_node25"><a xlink:href="polynomial__types__pybind_8h.html" target="_top" xlink:title=" ">
<polygon fill="white" stroke="black" points="2723.55,-307 2723.55,-337 2877.55,-337 2877.55,-307 2723.55,-307"/>
<text text-anchor="start" x="2731.55" y="-325" font-family="Helvetica,sans-Serif" font-size="10.00">drake/bindings/pydrake</text>
<text text-anchor="middle" x="2800.55" y="-314" font-family="Helvetica,sans-Serif" font-size="10.00">/polynomial_types_pybind.h</text>
</a>
</g>
</g>
<!-- Node9&#45;&gt;Node33 -->
<g id="edge35" class="edge">
<title>Node9&#45;&gt;Node33</title>
<path fill="none" stroke="midnightblue" d="M1419.56,-392.63C1667.77,-389.45 2461.07,-376.83 2714.55,-343 2725.19,-341.58 2736.44,-339.44 2747.17,-337.08"/>
<polygon fill="midnightblue" stroke="midnightblue" points="1419.51,-389.13 1409.56,-392.76 1419.6,-396.13 1419.51,-389.13"/>
</g>
<!-- Node34 -->
<g id="node26" class="node">
<title>Node34</title>
<g id="a_node26"><a xlink:href="solvers__py_8h.html" target="_top" xlink:title=" ">
<polygon fill="white" stroke="black" points="2895.55,-307 2895.55,-337 3025.55,-337 3025.55,-307 2895.55,-307"/>
<text text-anchor="start" x="2903.55" y="-325" font-family="Helvetica,sans-Serif" font-size="10.00">drake/bindings/pydrake</text>
<text text-anchor="middle" x="2960.55" y="-314" font-family="Helvetica,sans-Serif" font-size="10.00">/solvers/solvers_py.h</text>
</a>
</g>
</g>
<!-- Node9&#45;&gt;Node34 -->
<g id="edge36" class="edge">
<title>Node9&#45;&gt;Node34</title>
<path fill="none" stroke="midnightblue" d="M1419.77,-393.34C1688.25,-392.39 2598.69,-386.02 2886.55,-343 2895.9,-341.6 2905.75,-339.44 2915.11,-337.05"/>
<polygon fill="midnightblue" stroke="midnightblue" points="1419.72,-389.84 1409.74,-393.37 1419.75,-396.84 1419.72,-389.84"/>
</g>
<!-- Node35 -->
<g id="node27" class="node">
<title>Node35</title>
<g id="a_node27"><a xlink:href="solvers__pybind_8h.html" target="_top" xlink:title="Helper methods for binding solvers.">
<polygon fill="white" stroke="black" points="3043.55,-307 3043.55,-337 3183.55,-337 3183.55,-307 3043.55,-307"/>
<text text-anchor="start" x="3051.55" y="-325" font-family="Helvetica,sans-Serif" font-size="10.00">drake/bindings/pydrake</text>
<text text-anchor="middle" x="3113.55" y="-314" font-family="Helvetica,sans-Serif" font-size="10.00">/solvers/solvers_pybind.h</text>
</a>
</g>
</g>
<!-- Node9&#45;&gt;Node35 -->
<g id="edge37" class="edge">
<title>Node9&#45;&gt;Node35</title>
<path fill="none" stroke="midnightblue" d="M1420.14,-393.43C1705.35,-392.82 2716.17,-387.51 3034.55,-343 3044.5,-341.61 3055.01,-339.45 3065,-337.06"/>
<polygon fill="midnightblue" stroke="midnightblue" points="1419.89,-389.93 1409.9,-393.45 1419.91,-396.93 1419.89,-389.93"/>
</g>
<!-- Node36 -->
<g id="node28" class="node">
<title>Node36</title>
<g id="a_node28"><a xlink:href="framework__py__semantics_8h.html" target="_top" xlink:title="Provides the semantics portion of Python bindings for the systems framework.">
<polygon fill="white" stroke="black" points="3201.55,-301.5 3201.55,-342.5 3335.55,-342.5 3335.55,-301.5 3201.55,-301.5"/>
<text text-anchor="start" x="3209.55" y="-330.5" font-family="Helvetica,sans-Serif" font-size="10.00">drake/bindings/pydrake</text>
<text text-anchor="start" x="3209.55" y="-319.5" font-family="Helvetica,sans-Serif" font-size="10.00">/systems/framework_py</text>
<text text-anchor="middle" x="3268.55" y="-308.5" font-family="Helvetica,sans-Serif" font-size="10.00">_semantics.h</text>
</a>
</g>
</g>
<!-- Node9&#45;&gt;Node36 -->
<g id="edge39" class="edge">
<title>Node9&#45;&gt;Node36</title>
<path fill="none" stroke="midnightblue" d="M1420.04,-393.75C1721.79,-394.39 2841.87,-393.25 3192.55,-343 3195.39,-342.59 3198.27,-342.12 3201.17,-341.59"/>
<polygon fill="midnightblue" stroke="midnightblue" points="1419.66,-390.25 1409.66,-393.73 1419.65,-397.25 1419.66,-390.25"/>
</g>
<!-- Node37 -->
<g id="node29" class="node">
<title>Node37</title>
<g id="a_node29"><a xlink:href="framework__py__systems_8h.html" target="_top" xlink:title="Provides the Python bindings for the core system classes of the systems framework.">
<polygon fill="white" stroke="black" points="3353.55,-301.5 3353.55,-342.5 3487.55,-342.5 3487.55,-301.5 3353.55,-301.5"/>
<text text-anchor="start" x="3361.55" y="-330.5" font-family="Helvetica,sans-Serif" font-size="10.00">drake/bindings/pydrake</text>
<text text-anchor="start" x="3361.55" y="-319.5" font-family="Helvetica,sans-Serif" font-size="10.00">/systems/framework_py</text>
<text text-anchor="middle" x="3420.55" y="-308.5" font-family="Helvetica,sans-Serif" font-size="10.00">_systems.h</text>
</a>
</g>
</g>
<!-- Node9&#45;&gt;Node37 -->
<g id="edge40" class="edge">
<title>Node9&#45;&gt;Node37</title>
<path fill="none" stroke="midnightblue" d="M1420.11,-393.93C1737.33,-395.39 2962.57,-397.33 3344.55,-343 3347.39,-342.6 3350.27,-342.12 3353.18,-341.6"/>
<polygon fill="midnightblue" stroke="midnightblue" points="1419.68,-390.43 1409.66,-393.88 1419.64,-397.43 1419.68,-390.43"/>
</g>
<!-- Node38 -->
<g id="node30" class="node">
<title>Node38</title>
<g id="a_node30"><a xlink:href="framework__py__values_8h.html" target="_top" xlink:title="Provides the values portion of Python bindings for the systems framework.">
<polygon fill="white" stroke="black" points="3505.55,-301.5 3505.55,-342.5 3639.55,-342.5 3639.55,-301.5 3505.55,-301.5"/>
<text text-anchor="start" x="3513.55" y="-330.5" font-family="Helvetica,sans-Serif" font-size="10.00">drake/bindings/pydrake</text>
<text text-anchor="start" x="3513.55" y="-319.5" font-family="Helvetica,sans-Serif" font-size="10.00">/systems/framework_py</text>
<text text-anchor="middle" x="3572.55" y="-308.5" font-family="Helvetica,sans-Serif" font-size="10.00">_values.h</text>
</a>
</g>
</g>
<!-- Node9&#45;&gt;Node38 -->
<g id="edge41" class="edge">
<title>Node9&#45;&gt;Node38</title>
<path fill="none" stroke="midnightblue" d="M1419.91,-392.78C1776.73,-389.21 3287.92,-372.48 3496.55,-343 3499.39,-342.6 3502.27,-342.13 3505.18,-341.6"/>
<polygon fill="midnightblue" stroke="midnightblue" points="1419.66,-389.28 1409.69,-392.88 1419.73,-396.28 1419.66,-389.28"/>
</g>
<!-- Node39 -->
<g id="node31" class="node">
<title>Node39</title>
<g id="a_node31"><a xlink:href="visualization__py_8h.html" target="_top" xlink:title=" ">
<polygon fill="white" stroke="black" points="3657.55,-307 3657.55,-337 3829.55,-337 3829.55,-307 3657.55,-307"/>
<text text-anchor="start" x="3665.55" y="-325" font-family="Helvetica,sans-Serif" font-size="10.00">drake/bindings/pydrake</text>
<text text-anchor="middle" x="3743.55" y="-314" font-family="Helvetica,sans-Serif" font-size="10.00">/visualization/visualization_py.h</text>
</a>
</g>
</g>
<!-- Node9&#45;&gt;Node39 -->
<g id="edge43" class="edge">
<title>Node9&#45;&gt;Node39</title>
<path fill="none" stroke="midnightblue" d="M1419.87,-393.73C1765.54,-394.49 3202.19,-394.43 3648.55,-343 3660.53,-341.62 3673.22,-339.45 3685.3,-337.04"/>
<polygon fill="midnightblue" stroke="midnightblue" points="1419.73,-390.23 1409.73,-393.7 1419.72,-397.23 1419.73,-390.23"/>
</g>
<!-- Node10&#45;&gt;Node11 -->
<g id="edge2" class="edge">
<title>Node10&#45;&gt;Node11</title>
<path fill="none" stroke="midnightblue" d="M163.31,-151.2C179.42,-141.41 198.97,-129.53 215.17,-119.68"/>
<polygon fill="midnightblue" stroke="midnightblue" points="161.48,-148.22 154.75,-156.4 165.11,-154.2 161.48,-148.22"/>
</g>
<!-- Node12&#45;&gt;Node13 -->
<g id="edge4" class="edge">
<title>Node12&#45;&gt;Node13</title>
<path fill="none" stroke="midnightblue" d="M732.92,-300.61C750.47,-287.54 772.81,-270.89 788.45,-259.23"/>
<polygon fill="midnightblue" stroke="midnightblue" points="730.67,-297.92 724.74,-306.7 734.85,-303.54 730.67,-297.92"/>
</g>
<!-- Node12&#45;&gt;Node16 -->
<g id="edge13" class="edge">
<title>Node12&#45;&gt;Node16</title>
<path fill="none" stroke="midnightblue" d="M770.3,-304.39C825.45,-289.94 896.44,-270.47 900.55,-265 939.53,-213.26 863.45,-143.44 826.31,-114.01"/>
<polygon fill="midnightblue" stroke="midnightblue" points="769.35,-301.02 760.55,-306.94 771.11,-307.79 769.35,-301.02"/>
</g>
<!-- Node12&#45;&gt;Node19 -->
<g id="edge12" class="edge">
<title>Node12&#45;&gt;Node19</title>
<path fill="none" stroke="midnightblue" d="M684.93,-299.23C674.61,-288.34 662.23,-275.26 652.2,-264.68"/>
<polygon fill="midnightblue" stroke="midnightblue" points="682.59,-301.85 692.01,-306.7 687.67,-297.04 682.59,-301.85"/>
</g>
<!-- Node13&#45;&gt;Node14 -->
<g id="edge5" class="edge">
<title>Node13&#45;&gt;Node14</title>
<path fill="none" stroke="midnightblue" d="M746.98,-226.32C703.07,-214.23 644.36,-198.06 602.78,-186.61"/>
<polygon fill="midnightblue" stroke="midnightblue" points="746.1,-229.71 756.67,-228.99 747.96,-222.96 746.1,-229.71"/>
</g>
<!-- Node13&#45;&gt;Node16 -->
<g id="edge11" class="edge">
<title>Node13&#45;&gt;Node16</title>
<path fill="none" stroke="midnightblue" d="M807.55,-218.69C807.55,-188.66 807.55,-138.55 807.55,-114.18"/>
<polygon fill="midnightblue" stroke="midnightblue" points="804.05,-218.77 807.55,-228.77 811.05,-218.77 804.05,-218.77"/>
</g>
<!-- Node14&#45;&gt;Node11 -->
<g id="edge6" class="edge">
<title>Node14&#45;&gt;Node11</title>
<path fill="none" stroke="midnightblue" d="M481.22,-154.19C432.1,-142.8 366.8,-127.65 317.72,-116.27"/>
<polygon fill="midnightblue" stroke="midnightblue" points="480.6,-157.64 491.13,-156.49 482.18,-150.82 480.6,-157.64"/>
</g>
<!-- Node14&#45;&gt;Node15 -->
<g id="edge7" class="edge">
<title>Node14&#45;&gt;Node15</title>
<path fill="none" stroke="midnightblue" d="M526.58,-149.79C512.69,-138.27 495.77,-124.23 483.44,-114"/>
<polygon fill="midnightblue" stroke="midnightblue" points="524.42,-152.54 534.35,-156.23 528.89,-147.16 524.42,-152.54"/>
</g>
<!-- Node14&#45;&gt;Node16 -->
<g id="edge8" class="edge">
<title>Node14&#45;&gt;Node16</title>
<path fill="none" stroke="midnightblue" d="M612.13,-153.82C656.04,-141.73 714.75,-125.56 756.33,-114.11"/>
<polygon fill="midnightblue" stroke="midnightblue" points="611.15,-150.46 602.44,-156.49 613.01,-157.21 611.15,-150.46"/>
</g>
<!-- Node14&#45;&gt;Node18 -->
<g id="edge10" class="edge">
<title>Node14&#45;&gt;Node18</title>
<path fill="none" stroke="midnightblue" d="M578.74,-150.11C594.18,-138.53 613.12,-124.33 626.88,-114"/>
<polygon fill="midnightblue" stroke="midnightblue" points="576.48,-147.43 570.58,-156.23 580.68,-153.03 576.48,-147.43"/>
</g>
<!-- Node16&#45;&gt;Node17 -->
<g id="edge9" class="edge">
<title>Node16&#45;&gt;Node17</title>
<path fill="none" stroke="midnightblue" d="M737.07,-81.73C731.15,-80.44 725.25,-79.18 719.55,-78 642.76,-62.09 554.45,-45.79 493.82,-34.91"/>
<polygon fill="midnightblue" stroke="midnightblue" points="736.51,-85.19 747.03,-83.92 738.01,-78.35 736.51,-85.19"/>
</g>
<!-- Node20&#45;&gt;Node11 -->
<g id="edge18" class="edge">
<title>Node20&#45;&gt;Node11</title>
<path fill="none" stroke="midnightblue" d="M303.12,-298.45C296.92,-288.55 290.16,-276.56 285.55,-265 265.47,-214.62 254.59,-151.16 250.09,-119.63"/>
<polygon fill="midnightblue" stroke="midnightblue" points="300.22,-300.4 308.59,-306.89 306.09,-296.59 300.22,-300.4"/>
</g>
<!-- Node20&#45;&gt;Node21 -->
<g id="edge19" class="edge">
<title>Node20&#45;&gt;Node21</title>
<path fill="none" stroke="midnightblue" d="M331.73,-297.7C338.84,-285.14 347.39,-270.04 353.5,-259.23"/>
<polygon fill="midnightblue" stroke="midnightblue" points="328.52,-296.28 326.64,-306.7 334.61,-299.73 328.52,-296.28"/>
</g>
</g>
</svg>
        <g id="navigator" transform="translate(0 0)" fill="#404254">
                <rect fill="#f2f5e9" fill-opacity="0.5" stroke="#606060" stroke-width=".5" x="0" y="0" width="60" height="60"/>
                <use id="zoomplus" xlink:href="#zoomPlus" x="17" y="9" onmousedown="handleZoom(evt,'in')"/>
                <use id="zoomminus" xlink:href="#zoomMin" x="42" y="9" onmousedown="handleZoom(evt,'out')"/>
                <use id="reset" xlink:href="#resetDef" x="30" y="36" onmousedown="handleReset()"/>
                <g id="arrowUp" xlink:href="#dirArrow" transform="translate(30 24)" onmousedown="handlePan(0,-1)">
                  <use xlink:href="#rim" fill="#404040">
                        <set attributeName="fill" to="#808080" begin="arrowUp.mouseover" end="arrowUp.mouseout"/>
                  </use>
                  <path fill="none" stroke="white" stroke-width="1.5" d="M0,-3.0v7 M-2.5,-0.5L0,-3.0L2.5,-0.5"/>
                </g>
                <g id="arrowRight" xlink:href="#dirArrow" transform="rotate(90) translate(36 -43)" onmousedown="handlePan(1,0)">
                  <use xlink:href="#rim" fill="#404040">
                        <set attributeName="fill" to="#808080" begin="arrowRight.mouseover" end="arrowRight.mouseout"/>
                  </use>
                  <path fill="none" stroke="white" stroke-width="1.5" d="M0,-3.0v7 M-2.5,-0.5L0,-3.0L2.5,-0.5"/>
                </g>
                <g id="arrowDown" xlink:href="#dirArrow" transform="rotate(180) translate(-30 -48)" onmousedown="handlePan(0,1)">
                  <use xlink:href="#rim" fill="#404040">
                        <set attributeName="fill" to="#808080" begin="arrowDown.mouseover" end="arrowDown.mouseout"/>
                  </use>
                  <path fill="none" stroke="white" stroke-width="1.5" d="M0,-3.0v7 M-2.5,-0.5L0,-3.0L2.5,-0.5"/>
                </g>
                <g id="arrowLeft" xlink:href="#dirArrow" transform="rotate(270) translate(-36 17)" onmousedown="handlePan(-1,0)">
                  <use xlink:href="#rim" fill="#404040">
                        <set attributeName="fill" to="#808080" begin="arrowLeft.mouseover" end="arrowLeft.mouseout"/>
                  </use>
                  <path fill="none" stroke="white" stroke-width="1.5" d="M0,-3.0v7 M-2.5,-0.5L0,-3.0L2.5,-0.5"/>
                </g>
        </g>
        <svg viewBox="0 0 15 15" width="100%" height="30px" preserveAspectRatio="xMaxYMin meet">
         <g id="arrow_out" transform="scale(0.3 0.3)">
          <a xlink:href="pydrake__pybind_8h__dep__incl_org.svg" target="_base">
           <rect id="button" ry="5" rx="5" y="6" x="6" height="38" width="38"
                fill="#f2f5e9" fill-opacity="0.5" stroke="#606060" stroke-width="1.0"/>
           <path id="arrow"
             d="M 11.500037,31.436501 C 11.940474,20.09759 22.043105,11.32322 32.158766,21.979434 L 37.068811,17.246167 C 37.068811,17.246167 37.088388,32 37.088388,32 L 22.160133,31.978069 C 22.160133,31.978069 26.997745,27.140456 26.997745,27.140456 C 18.528582,18.264221 13.291696,25.230495 11.500037,31.436501 z"
             style="fill:#404040;"/>
          </a>
         </g>
        </svg>
</svg>
