<?xml version="1.0" encoding="UTF-8" standalone="no"?>
<!DOCTYPE svg PUBLIC "-//W3C//DTD SVG 1.1//EN"
 "http://www.w3.org/Graphics/SVG/1.1/DTD/svg11.dtd">
<!-- Generated by graphviz version 2.43.0 (0)
 -->
<!-- Title: drake/bindings/pydrake/pydrake_pybind.h Pages: 1 -->
<!--zoomable 418 -->
<svg id="main" version="1.1" xmlns="http://www.w3.org/2000/svg" xmlns:xlink="http://www.w3.org/1999/xlink" xml:space="preserve" onload="init(evt)">
<style type="text/css"><![CDATA[
.edge:hover path { stroke: red; }
.edge:hover polygon { stroke: red; fill: red; }
]]></style>
<script type="text/javascript"><![CDATA[
var edges = document.getElementsByTagName('g');
if (edges && edges.length) {
  for (var i=0;i<edges.length;i++) {
    if (edges[i].id.substr(0,4)=='edge') {
      edges[i].setAttribute('class','edge');
    }
  }
}
]]></script>
        <defs>
                <circle id="rim" cx="0" cy="0" r="7"/>
                <circle id="rim2" cx="0" cy="0" r="3.5"/>
                <g id="zoomPlus">
                        <use xlink:href="#rim" fill="#404040">
                                <set attributeName="fill" to="#808080" begin="zoomplus.mouseover" end="zoomplus.mouseout"/>
                        </use>
                        <path d="M-4,0h8M0,-4v8" fill="none" stroke="white" stroke-width="1.5" pointer-events="none"/>
                </g>
                <g id="zoomMin">
                        <use xlink:href="#rim" fill="#404040">
                                <set attributeName="fill" to="#808080" begin="zoomminus.mouseover" end="zoomminus.mouseout"/>
                        </use>
                        <path d="M-4,0h8" fill="none" stroke="white" stroke-width="1.5" pointer-events="none"/>
                </g>
                <g id="dirArrow">
                        <path fill="none" stroke="white" stroke-width="1.5" d="M0,-3.0v7 M-2.5,-0.5L0,-3.0L2.5,-0.5"/>
                </g>
               <g id="resetDef">
                       <use xlink:href="#rim2" fill="#404040">
                               <set attributeName="fill" to="#808080" begin="reset.mouseover" end="reset.mouseout"/>
                       </use>
               </g>
        </defs>

<script type="text/javascript">
var viewWidth = 4633;
var viewHeight = 418;
var sectionId = 'dynsection-1';
</script>
<script xlink:href="svgpan.js"/>
<svg id="graph" class="graph">
<g id="viewport">
<title>drake/bindings/pydrake/pydrake_pybind.h</title>
<polygon fill="white" stroke="transparent" points="-4,4 -4,-414 4628.55,-414 4628.55,4 -4,4"/>
<!-- Node9 -->
<g id="node1" class="node">
<title>Node9</title>
<g id="a_node1"><a xlink:title=" ">
<polygon fill="#bfbfbf" stroke="black" points="1723.55,-379.5 1723.55,-409.5 1853.55,-409.5 1853.55,-379.5 1723.55,-379.5"/>
<text text-anchor="start" x="1731.55" y="-397.5" font-family="Helvetica,sans-Serif" font-size="10.00">drake/bindings/pydrake</text>
<text text-anchor="middle" x="1788.55" y="-386.5" font-family="Helvetica,sans-Serif" font-size="10.00">/pydrake_pybind.h</text>
</a>
</g>
</g>
<!-- Node10 -->
<g id="node2" class="node">
<title>Node10</title>
<g id="a_node2"><a xlink:href="autodiff__types__pybind_8h.html" target="_top" xlink:title=" ">
<polygon fill="white" stroke="black" points="63.05,-156.5 63.05,-186.5 200.05,-186.5 200.05,-156.5 63.05,-156.5"/>
<text text-anchor="start" x="71.05" y="-174.5" font-family="Helvetica,sans-Serif" font-size="10.00">drake/bindings/pydrake</text>
<text text-anchor="middle" x="131.55" y="-163.5" font-family="Helvetica,sans-Serif" font-size="10.00">/autodiff_types_pybind.h</text>
</a>
</g>
</g>
<!-- Node9&#45;&gt;Node10 -->
<g id="edge1" class="edge">
<title>Node9&#45;&gt;Node10</title>
<path fill="none" stroke="midnightblue" d="M1713.15,-393.38C1406.1,-392.58 263.19,-386.69 200.55,-343 147.39,-305.92 135.15,-220.43 132.36,-186.63"/>
<polygon fill="midnightblue" stroke="midnightblue" points="1713.28,-396.88 1723.29,-393.4 1713.3,-389.88 1713.28,-396.88"/>
</g>
<!-- Node11 -->
<g id="node3" class="node">
<title>Node11</title>
<g id="a_node3"><a xlink:href="default__scalars__pybind_8h.html" target="_top" xlink:title="Helpers for defining scalars and values.">
<polygon fill="white" stroke="black" points="177.55,-78.5 177.55,-119.5 317.55,-119.5 317.55,-78.5 177.55,-78.5"/>
<text text-anchor="start" x="185.55" y="-107.5" font-family="Helvetica,sans-Serif" font-size="10.00">drake/bindings/pydrake</text>
<text text-anchor="start" x="185.55" y="-96.5" font-family="Helvetica,sans-Serif" font-size="10.00">/common/default_scalars</text>
<text text-anchor="middle" x="247.55" y="-85.5" font-family="Helvetica,sans-Serif" font-size="10.00">_pybind.h</text>
</a>
</g>
</g>
<!-- Node9&#45;&gt;Node11 -->
<g id="edge17" class="edge">
<title>Node9&#45;&gt;Node11</title>
<path fill="none" stroke="midnightblue" d="M1713.19,-393.93C1409.02,-395.29 285.51,-396.67 233.55,-343 174.18,-281.67 217.22,-165.83 238.02,-119.69"/>
<polygon fill="midnightblue" stroke="midnightblue" points="1713.26,-397.43 1723.24,-393.88 1713.22,-390.43 1713.26,-397.43"/>
</g>
<!-- Node12 -->
<g id="node4" class="node">
<title>Node12</title>
<g id="a_node4"><a xlink:href="autodiffutils__py_8h.html" target="_top" xlink:title=" ">
<polygon fill="white" stroke="black" points="826.55,-307 826.55,-337 990.55,-337 990.55,-307 826.55,-307"/>
<text text-anchor="start" x="834.55" y="-325" font-family="Helvetica,sans-Serif" font-size="10.00">drake/bindings/pydrake</text>
<text text-anchor="middle" x="908.55" y="-314" font-family="Helvetica,sans-Serif" font-size="10.00">/autodiffutils/autodiffutils_py.h</text>
</a>
</g>
</g>
<!-- Node9&#45;&gt;Node12 -->
<g id="edge3" class="edge">
<title>Node9&#45;&gt;Node12</title>
<path fill="none" stroke="midnightblue" d="M1713.28,-392.49C1572.48,-389.77 1259.94,-379.73 999.55,-343 988.66,-341.46 977.14,-339.33 966.08,-337.03"/>
<polygon fill="midnightblue" stroke="midnightblue" points="1713.46,-396 1723.52,-392.68 1713.59,-389 1713.46,-396"/>
</g>
<!-- Node13 -->
<g id="node5" class="node">
<title>Node13</title>
<g id="a_node5"><a xlink:href="wrap__pybind_8h.html" target="_top" xlink:title="Defines convenience utilities to wrap pybind11 methods and classes.">
<polygon fill="white" stroke="black" points="633.05,-307 633.05,-337 770.05,-337 770.05,-307 633.05,-307"/>
<text text-anchor="start" x="641.05" y="-325" font-family="Helvetica,sans-Serif" font-size="10.00">drake/bindings/pydrake</text>
<text text-anchor="middle" x="701.55" y="-314" font-family="Helvetica,sans-Serif" font-size="10.00">/common/wrap_pybind.h</text>
</a>
</g>
</g>
<!-- Node9&#45;&gt;Node13 -->
<g id="edge4" class="edge">
<title>Node9&#45;&gt;Node13</title>
<path fill="none" stroke="midnightblue" d="M1713.09,-391.53C1511.51,-385.96 963.68,-368.86 784.55,-343 774.43,-341.54 763.74,-339.41 753.51,-337.09"/>
<polygon fill="midnightblue" stroke="midnightblue" points="1713.19,-395.03 1723.29,-391.81 1713.38,-388.03 1713.19,-395.03"/>
</g>
<!-- Node14 -->
<g id="node6" class="node">
<title>Node14</title>
<g id="a_node6"><a xlink:href="cpp__param__pybind_8h.html" target="_top" xlink:title="Provides a mechanism to map C++ types to canonical Python types.">
<polygon fill="white" stroke="black" points="720.05,-229 720.05,-259 887.05,-259 887.05,-229 720.05,-229"/>
<text text-anchor="start" x="728.05" y="-247" font-family="Helvetica,sans-Serif" font-size="10.00">drake/bindings/pydrake</text>
<text text-anchor="middle" x="803.55" y="-236" font-family="Helvetica,sans-Serif" font-size="10.00">/common/cpp_param_pybind.h</text>
</a>
</g>
</g>
<!-- Node9&#45;&gt;Node14 -->
<g id="edge15" class="edge">
<title>Node9&#45;&gt;Node14</title>
<path fill="none" stroke="midnightblue" d="M1713.25,-393.06C1461.41,-391.24 662.24,-382.36 624.55,-343 611.64,-329.52 613.5,-316.04 624.55,-301 632.12,-290.7 697.73,-271.97 747.35,-259.03"/>
<polygon fill="midnightblue" stroke="midnightblue" points="1713.38,-396.56 1723.4,-393.14 1713.43,-389.56 1713.38,-396.56"/>
</g>
<!-- Node15 -->
<g id="node7" class="node">
<title>Node15</title>
<g id="a_node7"><a xlink:href="cpp__template__pybind_8h.html" target="_top" xlink:title=" ">
<polygon fill="white" stroke="black" points="458.05,-156.5 458.05,-186.5 637.05,-186.5 637.05,-156.5 458.05,-156.5"/>
<text text-anchor="start" x="466.05" y="-174.5" font-family="Helvetica,sans-Serif" font-size="10.00">drake/bindings/pydrake</text>
<text text-anchor="middle" x="547.55" y="-163.5" font-family="Helvetica,sans-Serif" font-size="10.00">/common/cpp_template_pybind.h</text>
</a>
</g>
</g>
<!-- Node9&#45;&gt;Node15 -->
<g id="edge16" class="edge">
<title>Node9&#45;&gt;Node15</title>
<path fill="none" stroke="midnightblue" d="M1713.04,-393.36C1445.46,-392.49 556.23,-386.36 514.55,-343 477.6,-304.55 499.33,-274.12 514.55,-223 518.56,-209.55 527.41,-196.34 534.94,-186.81"/>
<polygon fill="midnightblue" stroke="midnightblue" points="1713.42,-396.86 1723.43,-393.39 1713.44,-389.86 1713.42,-396.86"/>
</g>
<!-- Node16 -->
<g id="node8" class="node">
<title>Node16</title>
<g id="a_node8"><a xlink:href="serialize__pybind_8h.html" target="_top" xlink:title=" ">
<polygon fill="white" stroke="black" points="385.55,-84 385.55,-114 539.55,-114 539.55,-84 385.55,-84"/>
<text text-anchor="start" x="393.55" y="-102" font-family="Helvetica,sans-Serif" font-size="10.00">drake/bindings/pydrake</text>
<text text-anchor="middle" x="462.55" y="-91" font-family="Helvetica,sans-Serif" font-size="10.00">/common/serialize_pybind.h</text>
</a>
</g>
</g>
<!-- Node9&#45;&gt;Node16 -->
<g id="edge25" class="edge">
<title>Node9&#45;&gt;Node16</title>
<path fill="none" stroke="midnightblue" d="M1713.24,-393.04C1443.25,-391.07 537.34,-381.59 489.55,-343 419.54,-286.46 446.97,-156.92 458.47,-114.06"/>
<polygon fill="midnightblue" stroke="midnightblue" points="1713.31,-396.54 1723.33,-393.11 1713.36,-389.54 1713.31,-396.54"/>
</g>
<!-- Node17 -->
<g id="node9" class="node">
<title>Node17</title>
<g id="a_node9"><a xlink:href="value__pybind_8h.html" target="_top" xlink:title="Helpers for defining instantiations of drake::Value&lt;&gt;.">
<polygon fill="white" stroke="black" points="733.55,-84 733.55,-114 873.55,-114 873.55,-84 733.55,-84"/>
<text text-anchor="start" x="741.55" y="-102" font-family="Helvetica,sans-Serif" font-size="10.00">drake/bindings/pydrake</text>
<text text-anchor="middle" x="803.55" y="-91" font-family="Helvetica,sans-Serif" font-size="10.00">/common/value_pybind.h</text>
</a>
</g>
</g>
<!-- Node9&#45;&gt;Node17 -->
<g id="edge28" class="edge">
<title>Node9&#45;&gt;Node17</title>
<path fill="none" stroke="midnightblue" d="M1713.19,-392.38C1490.36,-388.71 848.26,-375.35 817.55,-343 804.7,-329.46 806.87,-316.31 817.55,-301 844.11,-262.95 889,-303.05 915.55,-265 926.24,-249.69 918.63,-241.41 915.55,-223 910.37,-191.95 912.1,-180.68 892.55,-156 877.93,-137.54 855.45,-123.46 836.74,-114.04"/>
<polygon fill="midnightblue" stroke="midnightblue" points="1713.42,-395.89 1723.48,-392.55 1713.53,-388.89 1713.42,-395.89"/>
</g>
<!-- Node18 -->
<g id="node10" class="node">
<title>Node18</title>
<g id="a_node10"><a xlink:href="type__safe__index__pybind_8h.html" target="_top" xlink:title=" ">
<polygon fill="white" stroke="black" points="345.55,-0.5 345.55,-41.5 491.55,-41.5 491.55,-0.5 345.55,-0.5"/>
<text text-anchor="start" x="353.55" y="-29.5" font-family="Helvetica,sans-Serif" font-size="10.00">drake/bindings/pydrake</text>
<text text-anchor="start" x="353.55" y="-18.5" font-family="Helvetica,sans-Serif" font-size="10.00">/common/type_safe_index</text>
<text text-anchor="middle" x="418.55" y="-7.5" font-family="Helvetica,sans-Serif" font-size="10.00">_pybind.h</text>
</a>
</g>
</g>
<!-- Node9&#45;&gt;Node18 -->
<g id="edge29" class="edge">
<title>Node9&#45;&gt;Node18</title>
<path fill="none" stroke="midnightblue" d="M1712.83,-393.9C1411.59,-395.13 307.37,-395.93 160.55,-343 93.81,-318.94 34.55,-315.94 34.55,-245 34.55,-245 34.55,-245 34.55,-170.5 34.55,-152.74 -102.04,-195.02 168.55,-78 225.4,-53.42 294.37,-39.01 345.46,-30.98"/>
<polygon fill="midnightblue" stroke="midnightblue" points="1713.22,-397.4 1723.21,-393.86 1713.19,-390.4 1713.22,-397.4"/>
</g>
<!-- Node19 -->
<g id="node11" class="node">
<title>Node19</title>
<g id="a_node11"><a xlink:href="lcm__pybind_8h.html" target="_top" xlink:title="Helpers for defining C++ LCM type serializers.">
<polygon fill="white" stroke="black" points="576.55,-84 576.55,-114 706.55,-114 706.55,-84 576.55,-84"/>
<text text-anchor="start" x="584.55" y="-102" font-family="Helvetica,sans-Serif" font-size="10.00">drake/bindings/pydrake</text>
<text text-anchor="middle" x="641.55" y="-91" font-family="Helvetica,sans-Serif" font-size="10.00">/systems/lcm_pybind.h</text>
</a>
</g>
</g>
<!-- Node9&#45;&gt;Node19 -->
<g id="edge46" class="edge">
<title>Node9&#45;&gt;Node19</title>
<path fill="none" stroke="midnightblue" d="M1712.95,-392.26C1458.09,-387.84 643.64,-371.52 595.55,-343 546.29,-313.78 515.77,-269.97 548.55,-223 575.11,-184.95 620,-225.05 646.55,-187 661.71,-165.29 653.81,-132.61 647.29,-114.1"/>
<polygon fill="midnightblue" stroke="midnightblue" points="1713.17,-395.77 1723.22,-392.44 1713.29,-388.77 1713.17,-395.77"/>
</g>
<!-- Node20 -->
<g id="node12" class="node">
<title>Node20</title>
<g id="a_node12"><a xlink:href="eigen__geometry__pybind_8h.html" target="_top" xlink:title="Provides pybind11 type_casters for Eigen geometric types.">
<polygon fill="white" stroke="black" points="557.05,-223.5 557.05,-264.5 702.05,-264.5 702.05,-223.5 557.05,-223.5"/>
<text text-anchor="start" x="565.05" y="-252.5" font-family="Helvetica,sans-Serif" font-size="10.00">drake/bindings/pydrake</text>
<text text-anchor="start" x="565.05" y="-241.5" font-family="Helvetica,sans-Serif" font-size="10.00">/common/eigen_geometry</text>
<text text-anchor="middle" x="629.55" y="-230.5" font-family="Helvetica,sans-Serif" font-size="10.00">_pybind.h</text>
</a>
</g>
</g>
<!-- Node9&#45;&gt;Node20 -->
<g id="edge22" class="edge">
<title>Node9&#45;&gt;Node20</title>
<path fill="none" stroke="midnightblue" d="M1713.21,-393.1C1459.33,-391.4 648.75,-382.87 610.55,-343 590.53,-322.1 604.72,-286.76 617,-264.72"/>
<polygon fill="midnightblue" stroke="midnightblue" points="1713.43,-396.61 1723.45,-393.17 1713.47,-389.61 1713.43,-396.61"/>
</g>
<!-- Node21 -->
<g id="node13" class="node">
<title>Node21</title>
<g id="a_node13"><a xlink:href="symbolic__types__pybind_8h.html" target="_top" xlink:title=" ">
<polygon fill="white" stroke="black" points="243.05,-307 243.05,-337 386.05,-337 386.05,-307 243.05,-307"/>
<text text-anchor="start" x="251.05" y="-325" font-family="Helvetica,sans-Serif" font-size="10.00">drake/bindings/pydrake</text>
<text text-anchor="middle" x="314.55" y="-314" font-family="Helvetica,sans-Serif" font-size="10.00">/symbolic_types_pybind.h</text>
</a>
</g>
</g>
<!-- Node9&#45;&gt;Node21 -->
<g id="edge18" class="edge">
<title>Node9&#45;&gt;Node21</title>
<path fill="none" stroke="midnightblue" d="M1713.42,-392.67C1462.93,-389.6 657.67,-377.25 400.55,-343 389.92,-341.58 378.67,-339.45 367.94,-337.09"/>
<polygon fill="midnightblue" stroke="midnightblue" points="1713.47,-396.17 1723.52,-392.79 1713.56,-389.17 1713.47,-396.17"/>
</g>
<!-- Node22 -->
<g id="node14" class="node">
<title>Node22</title>
<g id="a_node14"><a xlink:href="symbolic__py__unapply_8h.html" target="_top" xlink:title=" ">
<polygon fill="white" stroke="black" points="294.55,-223.5 294.55,-264.5 424.55,-264.5 424.55,-223.5 294.55,-223.5"/>
<text text-anchor="start" x="302.55" y="-252.5" font-family="Helvetica,sans-Serif" font-size="10.00">drake/bindings/pydrake</text>
<text text-anchor="start" x="302.55" y="-241.5" font-family="Helvetica,sans-Serif" font-size="10.00">/symbolic/symbolic_py</text>
<text text-anchor="middle" x="359.55" y="-230.5" font-family="Helvetica,sans-Serif" font-size="10.00">_unapply.h</text>
</a>
</g>
</g>
<!-- Node9&#45;&gt;Node22 -->
<g id="edge42" class="edge">
<title>Node9&#45;&gt;Node22</title>
<path fill="none" stroke="midnightblue" d="M1713.13,-392.4C1437.22,-388.17 495.77,-371.69 438.55,-343 421.27,-334.33 390.12,-290.8 372.54,-264.76"/>
<polygon fill="midnightblue" stroke="midnightblue" points="1713.39,-395.91 1723.44,-392.56 1713.5,-388.91 1713.39,-395.91"/>
</g>
<!-- Node23 -->
<g id="node15" class="node">
<title>Node23</title>
<g id="a_node15"><a xlink:href="deprecation__pybind_8h.html" target="_top" xlink:title="Provides access to Python deprecation utilities from C++.">
<polygon fill="white" stroke="black" points="1008.55,-307 1008.55,-337 1178.55,-337 1178.55,-307 1008.55,-307"/>
<text text-anchor="start" x="1016.55" y="-325" font-family="Helvetica,sans-Serif" font-size="10.00">drake/bindings/pydrake</text>
<text text-anchor="middle" x="1093.55" y="-314" font-family="Helvetica,sans-Serif" font-size="10.00">/common/deprecation_pybind.h</text>
</a>
</g>
</g>
<!-- Node9&#45;&gt;Node23 -->
<g id="edge21" class="edge">
<title>Node9&#45;&gt;Node23</title>
<path fill="none" stroke="midnightblue" d="M1713.29,-390.22C1599.13,-384.56 1375.58,-370.79 1187.55,-343 1176.66,-341.39 1165.14,-339.28 1154.03,-337.04"/>
<polygon fill="midnightblue" stroke="midnightblue" points="1713.16,-393.72 1723.32,-390.71 1713.51,-386.73 1713.16,-393.72"/>
</g>
<!-- Node24 -->
<g id="node16" class="node">
<title>Node24</title>
<g id="a_node16"><a xlink:href="eigen__pybind_8h.html" target="_top" xlink:title=" ">
<polygon fill="white" stroke="black" points="1196.55,-307 1196.55,-337 1336.55,-337 1336.55,-307 1196.55,-307"/>
<text text-anchor="start" x="1204.55" y="-325" font-family="Helvetica,sans-Serif" font-size="10.00">drake/bindings/pydrake</text>
<text text-anchor="middle" x="1266.55" y="-314" font-family="Helvetica,sans-Serif" font-size="10.00">/common/eigen_pybind.h</text>
</a>
</g>
</g>
<!-- Node9&#45;&gt;Node24 -->
<g id="edge23" class="edge">
<title>Node9&#45;&gt;Node24</title>
<path fill="none" stroke="midnightblue" d="M1713,-388C1624.46,-380.84 1473.55,-366.39 1345.55,-343 1336.51,-341.35 1326.96,-339.24 1317.75,-337.03"/>
<polygon fill="midnightblue" stroke="midnightblue" points="1712.97,-391.51 1723.22,-388.82 1713.53,-384.53 1712.97,-391.51"/>
</g>
<!-- Node25 -->
<g id="node17" class="node">
<title>Node25</title>
<g id="a_node17"><a xlink:href="identifier__pybind_8h.html" target="_top" xlink:title=" ">
<polygon fill="white" stroke="black" points="1354.55,-307 1354.55,-337 1510.55,-337 1510.55,-307 1354.55,-307"/>
<text text-anchor="start" x="1362.55" y="-325" font-family="Helvetica,sans-Serif" font-size="10.00">drake/bindings/pydrake</text>
<text text-anchor="middle" x="1432.55" y="-314" font-family="Helvetica,sans-Serif" font-size="10.00">/common/identifier_pybind.h</text>
</a>
</g>
</g>
<!-- Node9&#45;&gt;Node25 -->
<g id="edge24" class="edge">
<title>Node9&#45;&gt;Node25</title>
<path fill="none" stroke="midnightblue" d="M1713.29,-380.09C1659.5,-370.32 1585.44,-356.48 1520.55,-343 1511.66,-341.15 1502.27,-339.11 1493.08,-337.07"/>
<polygon fill="midnightblue" stroke="midnightblue" points="1712.97,-383.59 1723.43,-381.93 1714.22,-376.7 1712.97,-383.59"/>
</g>
<!-- Node26 -->
<g id="node18" class="node">
<title>Node26</title>
<g id="a_node18"><a xlink:href="sorted__pair__pybind_8h.html" target="_top" xlink:title=" ">
<polygon fill="white" stroke="black" points="1529.05,-307 1529.05,-337 1696.05,-337 1696.05,-307 1529.05,-307"/>
<text text-anchor="start" x="1537.05" y="-325" font-family="Helvetica,sans-Serif" font-size="10.00">drake/bindings/pydrake</text>
<text text-anchor="middle" x="1612.55" y="-314" font-family="Helvetica,sans-Serif" font-size="10.00">/common/sorted_pair_pybind.h</text>
</a>
</g>
</g>
<!-- Node9&#45;&gt;Node26 -->
<g id="edge26" class="edge">
<title>Node9&#45;&gt;Node26</title>
<path fill="none" stroke="midnightblue" d="M1744,-375.65C1714.14,-363.69 1675.37,-348.16 1647.69,-337.07"/>
<polygon fill="midnightblue" stroke="midnightblue" points="1742.78,-378.93 1753.36,-379.4 1745.38,-372.44 1742.78,-378.93"/>
</g>
<!-- Node27 -->
<g id="node19" class="node">
<title>Node27</title>
<g id="a_node19"><a xlink:href="submodules__py_8h.html" target="_top" xlink:title=" ">
<polygon fill="white" stroke="black" points="1714.05,-307 1714.05,-337 1863.05,-337 1863.05,-307 1714.05,-307"/>
<text text-anchor="start" x="1722.05" y="-325" font-family="Helvetica,sans-Serif" font-size="10.00">drake/bindings/pydrake</text>
<text text-anchor="middle" x="1788.55" y="-314" font-family="Helvetica,sans-Serif" font-size="10.00">/common/submodules_py.h</text>
</a>
</g>
</g>
<!-- Node9&#45;&gt;Node27 -->
<g id="edge27" class="edge">
<title>Node9&#45;&gt;Node27</title>
<path fill="none" stroke="midnightblue" d="M1788.55,-369.23C1788.55,-358.57 1788.55,-346.41 1788.55,-337.25"/>
<polygon fill="midnightblue" stroke="midnightblue" points="1785.05,-369.23 1788.55,-379.23 1792.05,-369.23 1785.05,-369.23"/>
</g>
<!-- Node28 -->
<g id="node20" class="node">
<title>Node28</title>
<g id="a_node20"><a xlink:href="examples__py_8h.html" target="_top" xlink:title=" ">
<polygon fill="white" stroke="black" points="1881.05,-307 1881.05,-337 2024.05,-337 2024.05,-307 1881.05,-307"/>
<text text-anchor="start" x="1889.05" y="-325" font-family="Helvetica,sans-Serif" font-size="10.00">drake/bindings/pydrake</text>
<text text-anchor="middle" x="1952.55" y="-314" font-family="Helvetica,sans-Serif" font-size="10.00">/examples/examples_py.h</text>
</a>
</g>
</g>
<!-- Node9&#45;&gt;Node28 -->
<g id="edge30" class="edge">
<title>Node9&#45;&gt;Node28</title>
<path fill="none" stroke="midnightblue" d="M1830.79,-375.34C1858.52,-363.42 1894.25,-348.07 1919.82,-337.07"/>
<polygon fill="midnightblue" stroke="midnightblue" points="1829.15,-372.24 1821.35,-379.4 1831.92,-378.67 1829.15,-372.24"/>
</g>
<!-- Node29 -->
<g id="node21" class="node">
<title>Node29</title>
<g id="a_node21"><a xlink:href="geometry__py_8h.html" target="_top" xlink:title=" ">
<polygon fill="white" stroke="black" points="2042.55,-307 2042.55,-337 2184.55,-337 2184.55,-307 2042.55,-307"/>
<text text-anchor="start" x="2050.55" y="-325" font-family="Helvetica,sans-Serif" font-size="10.00">drake/bindings/pydrake</text>
<text text-anchor="middle" x="2113.55" y="-314" font-family="Helvetica,sans-Serif" font-size="10.00">/geometry/geometry_py.h</text>
</a>
</g>
</g>
<!-- Node9&#45;&gt;Node29 -->
<g id="edge31" class="edge">
<title>Node9&#45;&gt;Node29</title>
<path fill="none" stroke="midnightblue" d="M1863.82,-378.83C1912.38,-369.16 1976.83,-355.93 2033.55,-343 2041.65,-341.15 2050.18,-339.12 2058.54,-337.07"/>
<polygon fill="midnightblue" stroke="midnightblue" points="1862.84,-375.46 1853.71,-380.84 1864.2,-382.32 1862.84,-375.46"/>
</g>
<!-- Node30 -->
<g id="node22" class="node">
<title>Node30</title>
<g id="a_node22"><a xlink:href="optimization__pybind_8h.html" target="_top" xlink:title=" ">
<polygon fill="white" stroke="black" points="2203.05,-301.5 2203.05,-342.5 2334.05,-342.5 2334.05,-301.5 2203.05,-301.5"/>
<text text-anchor="start" x="2211.05" y="-330.5" font-family="Helvetica,sans-Serif" font-size="10.00">drake/bindings/pydrake</text>
<text text-anchor="start" x="2211.05" y="-319.5" font-family="Helvetica,sans-Serif" font-size="10.00">/geometry/optimization</text>
<text text-anchor="middle" x="2268.55" y="-308.5" font-family="Helvetica,sans-Serif" font-size="10.00">_pybind.h</text>
</a>
</g>
</g>
<!-- Node9&#45;&gt;Node30 -->
<g id="edge32" class="edge">
<title>Node9&#45;&gt;Node30</title>
<path fill="none" stroke="midnightblue" d="M1864.06,-387.19C1945.77,-379.65 2079.67,-365.18 2193.55,-343 2196.6,-342.41 2199.7,-341.76 2202.82,-341.07"/>
<polygon fill="midnightblue" stroke="midnightblue" points="1863.51,-383.73 1853.87,-388.12 1864.15,-390.7 1863.51,-383.73"/>
</g>
<!-- Node31 -->
<g id="node23" class="node">
<title>Node31</title>
<g id="a_node23"><a xlink:href="manipulation__py_8h.html" target="_top" xlink:title=" ">
<polygon fill="white" stroke="black" points="2352.55,-307 2352.55,-337 2528.55,-337 2528.55,-307 2352.55,-307"/>
<text text-anchor="start" x="2360.55" y="-325" font-family="Helvetica,sans-Serif" font-size="10.00">drake/bindings/pydrake</text>
<text text-anchor="middle" x="2440.55" y="-314" font-family="Helvetica,sans-Serif" font-size="10.00">/manipulation/manipulation_py.h</text>
</a>
</g>
</g>
<!-- Node9&#45;&gt;Node31 -->
<g id="edge33" class="edge">
<title>Node9&#45;&gt;Node31</title>
<path fill="none" stroke="midnightblue" d="M1863.83,-389.35C1970.85,-382.83 2172.95,-368.27 2343.55,-343 2354.69,-341.35 2366.48,-339.23 2377.86,-337"/>
<polygon fill="midnightblue" stroke="midnightblue" points="1863.54,-385.86 1853.77,-389.95 1863.97,-392.85 1863.54,-385.86"/>
</g>
<!-- Node32 -->
<g id="node24" class="node">
<title>Node32</title>
<g id="a_node24"><a xlink:href="math__py_8h.html" target="_top" xlink:title=" ">
<polygon fill="white" stroke="black" points="2546.55,-307 2546.55,-337 2676.55,-337 2676.55,-307 2546.55,-307"/>
<text text-anchor="start" x="2554.55" y="-325" font-family="Helvetica,sans-Serif" font-size="10.00">drake/bindings/pydrake</text>
<text text-anchor="middle" x="2611.55" y="-314" font-family="Helvetica,sans-Serif" font-size="10.00">/math/math_py.h</text>
</a>
</g>
</g>
<!-- Node9&#45;&gt;Node32 -->
<g id="edge34" class="edge">
<title>Node9&#45;&gt;Node32</title>
<path fill="none" stroke="midnightblue" d="M1863.95,-393.3C1999.64,-391.85 2293.57,-383.79 2537.55,-343 2546.61,-341.49 2556.16,-339.34 2565.28,-337"/>
<polygon fill="midnightblue" stroke="midnightblue" points="1863.64,-389.8 1853.67,-393.4 1863.71,-396.8 1863.64,-389.8"/>
</g>
<!-- Node33 -->
<g id="node25" class="node">
<title>Node33</title>
<g id="a_node25"><a xlink:href="math__operators__pybind_8h.html" target="_top" xlink:title=" ">
<polygon fill="white" stroke="black" points="2694.55,-307 2694.55,-337 2838.55,-337 2838.55,-307 2694.55,-307"/>
<text text-anchor="start" x="2702.55" y="-325" font-family="Helvetica,sans-Serif" font-size="10.00">drake/bindings/pydrake</text>
<text text-anchor="middle" x="2766.55" y="-314" font-family="Helvetica,sans-Serif" font-size="10.00">/math_operators_pybind.h</text>
</a>
</g>
</g>
<!-- Node9&#45;&gt;Node33 -->
<g id="edge35" class="edge">
<title>Node9&#45;&gt;Node33</title>
<path fill="none" stroke="midnightblue" d="M1864.04,-393.96C2018.96,-393.88 2383.62,-388.37 2685.55,-343 2695.44,-341.51 2705.88,-339.38 2715.86,-337.05"/>
<polygon fill="midnightblue" stroke="midnightblue" points="1863.7,-390.46 1853.7,-393.96 1863.7,-397.46 1863.7,-390.46"/>
</g>
<!-- Node34 -->
<g id="node26" class="node">
<title>Node34</title>
<g id="a_node26"><a xlink:href="inverse__kinematics__py_8h.html" target="_top" xlink:title=" ">
<polygon fill="white" stroke="black" points="2856.55,-307 2856.55,-337 3048.55,-337 3048.55,-307 2856.55,-307"/>
<text text-anchor="start" x="2864.55" y="-325" font-family="Helvetica,sans-Serif" font-size="10.00">drake/bindings/pydrake</text>
<text text-anchor="middle" x="2952.55" y="-314" font-family="Helvetica,sans-Serif" font-size="10.00">/multibody/inverse_kinematics_py.h</text>
</a>
</g>
</g>
<!-- Node9&#45;&gt;Node34 -->
<g id="edge36" class="edge">
<title>Node9&#45;&gt;Node34</title>
<path fill="none" stroke="midnightblue" d="M1863.65,-393.54C2037.4,-392.83 2480.39,-386.5 2847.55,-343 2860.27,-341.49 2873.76,-339.35 2886.68,-337.01"/>
<polygon fill="midnightblue" stroke="midnightblue" points="1863.57,-390.04 1853.59,-393.57 1863.6,-397.04 1863.57,-390.04"/>
</g>
<!-- Node35 -->
<g id="node27" class="node">
<title>Node35</title>
<g id="a_node27"><a xlink:href="planning__py_8h.html" target="_top" xlink:title=" ">
<polygon fill="white" stroke="black" points="3067.05,-307 3067.05,-337 3198.05,-337 3198.05,-307 3067.05,-307"/>
<text text-anchor="start" x="3075.05" y="-325" font-family="Helvetica,sans-Serif" font-size="10.00">drake/bindings/pydrake</text>
<text text-anchor="middle" x="3132.55" y="-314" font-family="Helvetica,sans-Serif" font-size="10.00">/planning/planning_py.h</text>
</a>
</g>
</g>
<!-- Node9&#45;&gt;Node35 -->
<g id="edge37" class="edge">
<title>Node9&#45;&gt;Node35</title>
<path fill="none" stroke="midnightblue" d="M1864.01,-392.68C2100.5,-389.77 2825.29,-378.15 3057.55,-343 3066.88,-341.59 3076.71,-339.45 3086.08,-337.1"/>
<polygon fill="midnightblue" stroke="midnightblue" points="1863.75,-389.18 1853.79,-392.81 1863.83,-396.18 1863.75,-389.18"/>
</g>
<!-- Node36 -->
<g id="node28" class="node">
<title>Node36</title>
<g id="a_node28"><a xlink:href="polynomial__types__pybind_8h.html" target="_top" xlink:title=" ">
<polygon fill="white" stroke="black" points="3216.55,-307 3216.55,-337 3370.55,-337 3370.55,-307 3216.55,-307"/>
<text text-anchor="start" x="3224.55" y="-325" font-family="Helvetica,sans-Serif" font-size="10.00">drake/bindings/pydrake</text>
<text text-anchor="middle" x="3293.55" y="-314" font-family="Helvetica,sans-Serif" font-size="10.00">/polynomial_types_pybind.h</text>
</a>
</g>
</g>
<!-- Node9&#45;&gt;Node36 -->
<g id="edge38" class="edge">
<title>Node9&#45;&gt;Node36</title>
<path fill="none" stroke="midnightblue" d="M1864.05,-392.73C2118.61,-389.85 2944.24,-377.97 3207.55,-343 3218.19,-341.59 3229.44,-339.45 3240.17,-337.09"/>
<polygon fill="midnightblue" stroke="midnightblue" points="1863.75,-389.24 1853.79,-392.85 1863.83,-396.24 1863.75,-389.24"/>
</g>
<!-- Node37 -->
<g id="node29" class="node">
<title>Node37</title>
<g id="a_node29"><a xlink:href="solvers__py_8h.html" target="_top" xlink:title=" ">
<polygon fill="white" stroke="black" points="3388.55,-307 3388.55,-337 3518.55,-337 3518.55,-307 3388.55,-307"/>
<text text-anchor="start" x="3396.55" y="-325" font-family="Helvetica,sans-Serif" font-size="10.00">drake/bindings/pydrake</text>
<text text-anchor="middle" x="3453.55" y="-314" font-family="Helvetica,sans-Serif" font-size="10.00">/solvers/solvers_py.h</text>
</a>
</g>
</g>
<!-- Node9&#45;&gt;Node37 -->
<g id="edge39" class="edge">
<title>Node9&#45;&gt;Node37</title>
<path fill="none" stroke="midnightblue" d="M1863.82,-393.42C2137.83,-392.79 3081.69,-387.36 3379.55,-343 3388.9,-341.61 3398.75,-339.45 3408.11,-337.06"/>
<polygon fill="midnightblue" stroke="midnightblue" points="1863.57,-389.93 1853.58,-393.45 1863.59,-396.93 1863.57,-389.93"/>
</g>
<!-- Node38 -->
<g id="node30" class="node">
<title>Node38</title>
<g id="a_node30"><a xlink:href="solvers__pybind_8h.html" target="_top" xlink:title="Helper methods for binding solvers.">
<polygon fill="white" stroke="black" points="3536.55,-307 3536.55,-337 3676.55,-337 3676.55,-307 3536.55,-307"/>
<text text-anchor="start" x="3544.55" y="-325" font-family="Helvetica,sans-Serif" font-size="10.00">drake/bindings/pydrake</text>
<text text-anchor="middle" x="3606.55" y="-314" font-family="Helvetica,sans-Serif" font-size="10.00">/solvers/solvers_pybind.h</text>
</a>
</g>
</g>
<!-- Node9&#45;&gt;Node38 -->
<g id="edge40" class="edge">
<title>Node9&#45;&gt;Node38</title>
<path fill="none" stroke="midnightblue" d="M1863.93,-393.5C2154.08,-393.18 3199.02,-388.79 3527.55,-343 3537.5,-341.61 3548.01,-339.46 3558,-337.07"/>
<polygon fill="midnightblue" stroke="midnightblue" points="1863.92,-390 1853.93,-393.51 1863.93,-397 1863.92,-390"/>
</g>
<!-- Node39 -->
<g id="node31" class="node">
<title>Node39</title>
<g id="a_node31"><a xlink:href="symbolic__py_8h.html" target="_top" xlink:title=" ">
<polygon fill="white" stroke="black" points="3694.55,-307 3694.55,-337 3830.55,-337 3830.55,-307 3694.55,-307"/>
<text text-anchor="start" x="3702.55" y="-325" font-family="Helvetica,sans-Serif" font-size="10.00">drake/bindings/pydrake</text>
<text text-anchor="middle" x="3762.55" y="-314" font-family="Helvetica,sans-Serif" font-size="10.00">/symbolic/symbolic_py.h</text>
</a>
</g>
</g>
<!-- Node9&#45;&gt;Node39 -->
<g id="edge41" class="edge">
<title>Node9&#45;&gt;Node39</title>
<path fill="none" stroke="midnightblue" d="M1864.03,-393.78C2170.77,-394.56 3324.7,-393.99 3685.55,-343 3695.26,-341.63 3705.51,-339.48 3715.25,-337.09"/>
<polygon fill="midnightblue" stroke="midnightblue" points="1863.92,-390.28 1853.91,-393.75 1863.9,-397.28 1863.92,-390.28"/>
</g>
<!-- Node40 -->
<g id="node32" class="node">
<title>Node40</title>
<g id="a_node32"><a xlink:href="framework__py__semantics_8h.html" target="_top" xlink:title="Provides the semantics portion of Python bindings for the systems framework.">
<polygon fill="white" stroke="black" points="3848.55,-301.5 3848.55,-342.5 3982.55,-342.5 3982.55,-301.5 3848.55,-301.5"/>
<text text-anchor="start" x="3856.55" y="-330.5" font-family="Helvetica,sans-Serif" font-size="10.00">drake/bindings/pydrake</text>
<text text-anchor="start" x="3856.55" y="-319.5" font-family="Helvetica,sans-Serif" font-size="10.00">/systems/framework_py</text>
<text text-anchor="middle" x="3915.55" y="-308.5" font-family="Helvetica,sans-Serif" font-size="10.00">_semantics.h</text>
</a>
</g>
</g>
<!-- Node9&#45;&gt;Node40 -->
<g id="edge43" class="edge">
<title>Node9&#45;&gt;Node40</title>
<path fill="none" stroke="midnightblue" d="M1863.74,-392.69C2209.84,-388.79 3641.37,-371.12 3839.55,-343 3842.39,-342.6 3845.27,-342.13 3848.18,-341.6"/>
<polygon fill="midnightblue" stroke="midnightblue" points="1863.54,-389.19 1853.57,-392.8 1863.61,-396.19 1863.54,-389.19"/>
</g>
<!-- Node41 -->
<g id="node33" class="node">
<title>Node41</title>
<g id="a_node33"><a xlink:href="framework__py__systems_8h.html" target="_top" xlink:title="Provides the Python bindings for the core system classes of the systems framework.">
<polygon fill="white" stroke="black" points="4000.55,-301.5 4000.55,-342.5 4134.55,-342.5 4134.55,-301.5 4000.55,-301.5"/>
<text text-anchor="start" x="4008.55" y="-330.5" font-family="Helvetica,sans-Serif" font-size="10.00">drake/bindings/pydrake</text>
<text text-anchor="start" x="4008.55" y="-319.5" font-family="Helvetica,sans-Serif" font-size="10.00">/systems/framework_py</text>
<text text-anchor="middle" x="4067.55" y="-308.5" font-family="Helvetica,sans-Serif" font-size="10.00">_systems.h</text>
</a>
</g>
</g>
<!-- Node9&#45;&gt;Node41 -->
<g id="edge44" class="edge">
<title>Node9&#45;&gt;Node41</title>
<path fill="none" stroke="midnightblue" d="M1863.93,-392.82C2225.96,-389.42 3777.63,-373.17 3991.55,-343 3994.39,-342.6 3997.27,-342.13 4000.18,-341.61"/>
<polygon fill="midnightblue" stroke="midnightblue" points="1863.79,-389.32 1853.82,-392.92 1863.85,-396.32 1863.79,-389.32"/>
</g>
<!-- Node42 -->
<g id="node34" class="node">
<title>Node42</title>
<g id="a_node34"><a xlink:href="framework__py__values_8h.html" target="_top" xlink:title="Provides the values portion of Python bindings for the systems framework.">
<polygon fill="white" stroke="black" points="4152.55,-301.5 4152.55,-342.5 4286.55,-342.5 4286.55,-301.5 4152.55,-301.5"/>
<text text-anchor="start" x="4160.55" y="-330.5" font-family="Helvetica,sans-Serif" font-size="10.00">drake/bindings/pydrake</text>
<text text-anchor="start" x="4160.55" y="-319.5" font-family="Helvetica,sans-Serif" font-size="10.00">/systems/framework_py</text>
<text text-anchor="middle" x="4219.55" y="-308.5" font-family="Helvetica,sans-Serif" font-size="10.00">_values.h</text>
</a>
</g>
</g>
<!-- Node9&#45;&gt;Node42 -->
<g id="edge45" class="edge">
<title>Node9&#45;&gt;Node42</title>
<path fill="none" stroke="midnightblue" d="M1863.83,-392.94C2240.74,-390 3913.79,-375.23 4143.55,-343 4146.39,-342.6 4149.27,-342.13 4152.18,-341.61"/>
<polygon fill="midnightblue" stroke="midnightblue" points="1863.56,-389.44 1853.59,-393.02 1863.61,-396.44 1863.56,-389.44"/>
</g>
<!-- Node43 -->
<g id="node35" class="node">
<title>Node43</title>
<g id="a_node35"><a xlink:href="sensors__py_8h.html" target="_top" xlink:title=" ">
<polygon fill="white" stroke="black" points="4304.55,-307 4304.55,-337 4434.55,-337 4434.55,-307 4304.55,-307"/>
<text text-anchor="start" x="4312.55" y="-325" font-family="Helvetica,sans-Serif" font-size="10.00">drake/bindings/pydrake</text>
<text text-anchor="middle" x="4369.55" y="-314" font-family="Helvetica,sans-Serif" font-size="10.00">/systems/sensors_py.h</text>
</a>
</g>
</g>
<!-- Node9&#45;&gt;Node43 -->
<g id="edge47" class="edge">
<title>Node9&#45;&gt;Node43</title>
<path fill="none" stroke="midnightblue" d="M1863.9,-393.08C2255.53,-390.73 4050.07,-378.11 4295.55,-343 4305.04,-341.64 4315.04,-339.47 4324.52,-337.04"/>
<polygon fill="midnightblue" stroke="midnightblue" points="1863.79,-389.58 1853.81,-393.14 1863.83,-396.58 1863.79,-389.58"/>
</g>
<!-- Node44 -->
<g id="node36" class="node">
<title>Node44</title>
<g id="a_node36"><a xlink:href="visualization__py_8h.html" target="_top" xlink:title=" ">
<polygon fill="white" stroke="black" points="4452.55,-307 4452.55,-337 4624.55,-337 4624.55,-307 4452.55,-307"/>
<text text-anchor="start" x="4460.55" y="-325" font-family="Helvetica,sans-Serif" font-size="10.00">drake/bindings/pydrake</text>
<text text-anchor="middle" x="4538.55" y="-314" font-family="Helvetica,sans-Serif" font-size="10.00">/visualization/visualization_py.h</text>
</a>
</g>
</g>
<!-- Node9&#45;&gt;Node44 -->
<g id="edge48" class="edge">
<title>Node9&#45;&gt;Node44</title>
<path fill="none" stroke="midnightblue" d="M1864,-392.91C2269.53,-389.65 4181.71,-372.78 4443.55,-343 4455.61,-341.63 4468.4,-339.45 4480.56,-337.02"/>
<polygon fill="midnightblue" stroke="midnightblue" points="1863.83,-389.42 1853.85,-393 1863.88,-396.41 1863.83,-389.42"/>
</g>
<!-- Node10&#45;&gt;Node11 -->
<g id="edge2" class="edge">
<title>Node10&#45;&gt;Node11</title>
<path fill="none" stroke="midnightblue" d="M163.31,-151.2C179.42,-141.41 198.97,-129.53 215.17,-119.68"/>
<polygon fill="midnightblue" stroke="midnightblue" points="161.48,-148.22 154.75,-156.4 165.11,-154.2 161.48,-148.22"/>
</g>
<!-- Node13&#45;&gt;Node14 -->
<g id="edge5" class="edge">
<title>Node13&#45;&gt;Node14</title>
<path fill="none" stroke="midnightblue" d="M728.92,-300.61C746.47,-287.54 768.81,-270.89 784.45,-259.23"/>
<polygon fill="midnightblue" stroke="midnightblue" points="726.67,-297.92 720.74,-306.7 730.85,-303.54 726.67,-297.92"/>
</g>
<!-- Node13&#45;&gt;Node17 -->
<g id="edge14" class="edge">
<title>Node13&#45;&gt;Node17</title>
<path fill="none" stroke="midnightblue" d="M766.3,-304.39C821.45,-289.94 892.44,-270.47 896.55,-265 935.53,-213.26 859.45,-143.44 822.31,-114.01"/>
<polygon fill="midnightblue" stroke="midnightblue" points="765.35,-301.02 756.55,-306.94 767.11,-307.79 765.35,-301.02"/>
</g>
<!-- Node13&#45;&gt;Node20 -->
<g id="edge13" class="edge">
<title>Node13&#45;&gt;Node20</title>
<path fill="none" stroke="midnightblue" d="M680.93,-299.23C670.61,-288.34 658.23,-275.26 648.2,-264.68"/>
<polygon fill="midnightblue" stroke="midnightblue" points="678.59,-301.85 688.01,-306.7 683.67,-297.04 678.59,-301.85"/>
</g>
<!-- Node14&#45;&gt;Node15 -->
<g id="edge6" class="edge">
<title>Node14&#45;&gt;Node15</title>
<path fill="none" stroke="midnightblue" d="M742.98,-226.32C699.07,-214.23 640.36,-198.06 598.78,-186.61"/>
<polygon fill="midnightblue" stroke="midnightblue" points="742.1,-229.71 752.67,-228.99 743.96,-222.96 742.1,-229.71"/>
</g>
<!-- Node14&#45;&gt;Node17 -->
<g id="edge12" class="edge">
<title>Node14&#45;&gt;Node17</title>
<path fill="none" stroke="midnightblue" d="M803.55,-218.69C803.55,-188.66 803.55,-138.55 803.55,-114.18"/>
<polygon fill="midnightblue" stroke="midnightblue" points="800.05,-218.77 803.55,-228.77 807.05,-218.77 800.05,-218.77"/>
</g>
<!-- Node15&#45;&gt;Node11 -->
<g id="edge7" class="edge">
<title>Node15&#45;&gt;Node11</title>
<path fill="none" stroke="midnightblue" d="M477.89,-154.13C429.72,-142.81 365.86,-127.8 317.6,-116.46"/>
<polygon fill="midnightblue" stroke="midnightblue" points="477.39,-157.61 487.92,-156.49 478.99,-150.79 477.39,-157.61"/>
</g>
<!-- Node15&#45;&gt;Node16 -->
<g id="edge8" class="edge">
<title>Node15&#45;&gt;Node16</title>
<path fill="none" stroke="midnightblue" d="M522.58,-149.79C508.69,-138.27 491.77,-124.23 479.44,-114"/>
<polygon fill="midnightblue" stroke="midnightblue" points="520.42,-152.54 530.35,-156.23 524.89,-147.16 520.42,-152.54"/>
</g>
<!-- Node15&#45;&gt;Node17 -->
<g id="edge9" class="edge">
<title>Node15&#45;&gt;Node17</title>
<path fill="none" stroke="midnightblue" d="M608.13,-153.82C652.04,-141.73 710.75,-125.56 752.33,-114.11"/>
<polygon fill="midnightblue" stroke="midnightblue" points="607.15,-150.46 598.44,-156.49 609.01,-157.21 607.15,-150.46"/>
</g>
<!-- Node15&#45;&gt;Node19 -->
<g id="edge11" class="edge">
<title>Node15&#45;&gt;Node19</title>
<path fill="none" stroke="midnightblue" d="M574.74,-150.11C590.18,-138.53 609.12,-124.33 622.88,-114"/>
<polygon fill="midnightblue" stroke="midnightblue" points="572.48,-147.43 566.58,-156.23 576.68,-153.03 572.48,-147.43"/>
</g>
<!-- Node17&#45;&gt;Node18 -->
<g id="edge10" class="edge">
<title>Node17&#45;&gt;Node18</title>
<path fill="none" stroke="midnightblue" d="M733.07,-81.74C727.15,-80.45 721.25,-79.18 715.55,-78 639.39,-62.17 551.84,-45.9 491.63,-35"/>
<polygon fill="midnightblue" stroke="midnightblue" points="732.51,-85.2 743.02,-83.93 734.01,-78.36 732.51,-85.2"/>
</g>
<!-- Node21&#45;&gt;Node11 -->
<g id="edge19" class="edge">
<title>Node21&#45;&gt;Node11</title>
<path fill="none" stroke="midnightblue" d="M300.94,-297.93C295.55,-288.04 289.67,-276.21 285.55,-265 266.85,-214.09 255.37,-150.86 250.41,-119.51"/>
<polygon fill="midnightblue" stroke="midnightblue" points="297.93,-299.72 305.88,-306.72 304.03,-296.29 297.93,-299.72"/>
</g>
<!-- Node21&#45;&gt;Node22 -->
<g id="edge20" class="edge">
<title>Node21&#45;&gt;Node22</title>
<path fill="none" stroke="midnightblue" d="M328.2,-297.95C334.49,-287.33 341.88,-274.85 347.9,-264.68"/>
<polygon fill="midnightblue" stroke="midnightblue" points="325.1,-296.32 323.02,-306.7 331.12,-299.88 325.1,-296.32"/>
</g>
</g>
</svg>
        <g id="navigator" transform="translate(0 0)" fill="#404254">
                <rect fill="#f2f5e9" fill-opacity="0.5" stroke="#606060" stroke-width=".5" x="0" y="0" width="60" height="60"/>
                <use id="zoomplus" xlink:href="#zoomPlus" x="17" y="9" onmousedown="handleZoom(evt,'in')"/>
                <use id="zoomminus" xlink:href="#zoomMin" x="42" y="9" onmousedown="handleZoom(evt,'out')"/>
                <use id="reset" xlink:href="#resetDef" x="30" y="36" onmousedown="handleReset()"/>
                <g id="arrowUp" xlink:href="#dirArrow" transform="translate(30 24)" onmousedown="handlePan(0,-1)">
                  <use xlink:href="#rim" fill="#404040">
                        <set attributeName="fill" to="#808080" begin="arrowUp.mouseover" end="arrowUp.mouseout"/>
                  </use>
                  <path fill="none" stroke="white" stroke-width="1.5" d="M0,-3.0v7 M-2.5,-0.5L0,-3.0L2.5,-0.5"/>
                </g>
                <g id="arrowRight" xlink:href="#dirArrow" transform="rotate(90) translate(36 -43)" onmousedown="handlePan(1,0)">
                  <use xlink:href="#rim" fill="#404040">
                        <set attributeName="fill" to="#808080" begin="arrowRight.mouseover" end="arrowRight.mouseout"/>
                  </use>
                  <path fill="none" stroke="white" stroke-width="1.5" d="M0,-3.0v7 M-2.5,-0.5L0,-3.0L2.5,-0.5"/>
                </g>
                <g id="arrowDown" xlink:href="#dirArrow" transform="rotate(180) translate(-30 -48)" onmousedown="handlePan(0,1)">
                  <use xlink:href="#rim" fill="#404040">
                        <set attributeName="fill" to="#808080" begin="arrowDown.mouseover" end="arrowDown.mouseout"/>
                  </use>
                  <path fill="none" stroke="white" stroke-width="1.5" d="M0,-3.0v7 M-2.5,-0.5L0,-3.0L2.5,-0.5"/>
                </g>
                <g id="arrowLeft" xlink:href="#dirArrow" transform="rotate(270) translate(-36 17)" onmousedown="handlePan(-1,0)">
                  <use xlink:href="#rim" fill="#404040">
                        <set attributeName="fill" to="#808080" begin="arrowLeft.mouseover" end="arrowLeft.mouseout"/>
                  </use>
                  <path fill="none" stroke="white" stroke-width="1.5" d="M0,-3.0v7 M-2.5,-0.5L0,-3.0L2.5,-0.5"/>
                </g>
        </g>
        <svg viewBox="0 0 15 15" width="100%" height="30px" preserveAspectRatio="xMaxYMin meet">
         <g id="arrow_out" transform="scale(0.3 0.3)">
          <a xlink:href="pydrake__pybind_8h__dep__incl_org.svg" target="_base">
           <rect id="button" ry="5" rx="5" y="6" x="6" height="38" width="38"
                fill="#f2f5e9" fill-opacity="0.5" stroke="#606060" stroke-width="1.0"/>
           <path id="arrow"
             d="M 11.500037,31.436501 C 11.940474,20.09759 22.043105,11.32322 32.158766,21.979434 L 37.068811,17.246167 C 37.068811,17.246167 37.088388,32 37.088388,32 L 22.160133,31.978069 C 22.160133,31.978069 26.997745,27.140456 26.997745,27.140456 C 18.528582,18.264221 13.291696,25.230495 11.500037,31.436501 z"
             style="fill:#404040;"/>
          </a>
         </g>
        </svg>
</svg>
