<?xml version="1.0" encoding="UTF-8" standalone="no"?>
<!DOCTYPE svg PUBLIC "-//W3C//DTD SVG 1.1//EN"
 "http://www.w3.org/Graphics/SVG/1.1/DTD/svg11.dtd">
<!-- Generated by graphviz version 2.43.0 (0)
 -->
<!-- Title: drake/bindings/pydrake/pydrake_pybind.h Pages: 1 -->
<svg width="5074pt" height="418pt"
 viewBox="0.00 0.00 5073.81 418.00" xmlns="http://www.w3.org/2000/svg" xmlns:xlink="http://www.w3.org/1999/xlink">
<g id="graph0" class="graph" transform="scale(1 1) rotate(0) translate(4 414)">
<title>drake/bindings/pydrake/pydrake_pybind.h</title>
<polygon fill="white" stroke="transparent" points="-4,4 -4,-414 5069.81,-414 5069.81,4 -4,4"/>
<!-- Node9 -->
<g id="node1" class="node">
<title>Node9</title>
<g id="a_node1"><a xlink:title=" ">
<polygon fill="#bfbfbf" stroke="black" points="2032.81,-379.5 2032.81,-409.5 2162.81,-409.5 2162.81,-379.5 2032.81,-379.5"/>
<text text-anchor="start" x="2040.81" y="-397.5" font-family="Helvetica,sans-Serif" font-size="10.00">drake/bindings/pydrake</text>
<text text-anchor="middle" x="2097.81" y="-386.5" font-family="Helvetica,sans-Serif" font-size="10.00">/pydrake_pybind.h</text>
</a>
</g>
</g>
<!-- Node10 -->
<g id="node2" class="node">
<title>Node10</title>
<g id="a_node2"><a xlink:href="autodiff__types__pybind_8h.html" target="_top" xlink:title=" ">
<polygon fill="white" stroke="black" points="27.31,-156.5 27.31,-186.5 164.31,-186.5 164.31,-156.5 27.31,-156.5"/>
<text text-anchor="start" x="35.31" y="-174.5" font-family="Helvetica,sans-Serif" font-size="10.00">drake/bindings/pydrake</text>
<text text-anchor="middle" x="95.81" y="-163.5" font-family="Helvetica,sans-Serif" font-size="10.00">/autodiff_types_pybind.h</text>
</a>
</g>
</g>
<!-- Node9&#45;&gt;Node10 -->
<g id="edge1" class="edge">
<title>Node9&#45;&gt;Node10</title>
<path fill="none" stroke="midnightblue" d="M2022.43,-393.88C1674.43,-395.31 236.88,-397.89 159.81,-343 107.53,-305.77 97.92,-220.37 96.18,-186.61"/>
<polygon fill="midnightblue" stroke="midnightblue" points="2022.66,-397.37 2032.65,-393.83 2022.63,-390.37 2022.66,-397.37"/>
</g>
<!-- Node11 -->
<g id="node3" class="node">
<title>Node11</title>
<g id="a_node3"><a xlink:href="default__scalars__pybind_8h.html" target="_top" xlink:title="Helpers for defining scalars and values.">
<polygon fill="white" stroke="black" points="74.81,-78.5 74.81,-119.5 214.81,-119.5 214.81,-78.5 74.81,-78.5"/>
<text text-anchor="start" x="82.81" y="-107.5" font-family="Helvetica,sans-Serif" font-size="10.00">drake/bindings/pydrake</text>
<text text-anchor="start" x="82.81" y="-96.5" font-family="Helvetica,sans-Serif" font-size="10.00">/common/default_scalars</text>
<text text-anchor="middle" x="144.81" y="-85.5" font-family="Helvetica,sans-Serif" font-size="10.00">_pybind.h</text>
</a>
</g>
</g>
<!-- Node9&#45;&gt;Node11 -->
<g id="edge16" class="edge">
<title>Node9&#45;&gt;Node11</title>
<path fill="none" stroke="midnightblue" d="M2022.59,-393.52C1671.26,-393.36 205.34,-389.88 120.81,-343 37.83,-296.98 -34.01,-235.48 17.81,-156 30.84,-136.02 52.78,-123.11 74.8,-114.8"/>
<polygon fill="midnightblue" stroke="midnightblue" points="2022.66,-397.02 2032.66,-393.52 2022.66,-390.02 2022.66,-397.02"/>
</g>
<!-- Node12 -->
<g id="node4" class="node">
<title>Node12</title>
<g id="a_node4"><a xlink:href="autodiffutils__py_8h.html" target="_top" xlink:title=" ">
<polygon fill="white" stroke="black" points="796.81,-307 796.81,-337 960.81,-337 960.81,-307 796.81,-307"/>
<text text-anchor="start" x="804.81" y="-325" font-family="Helvetica,sans-Serif" font-size="10.00">drake/bindings/pydrake</text>
<text text-anchor="middle" x="878.81" y="-314" font-family="Helvetica,sans-Serif" font-size="10.00">/autodiffutils/autodiffutils_py.h</text>
</a>
</g>
</g>
<!-- Node9&#45;&gt;Node12 -->
<g id="edge3" class="edge">
<title>Node9&#45;&gt;Node12</title>
<path fill="none" stroke="midnightblue" d="M2022.68,-391.82C1804.65,-386.68 1174.29,-369.85 969.81,-343 958.74,-341.55 947.03,-339.42 935.83,-337.1"/>
<polygon fill="midnightblue" stroke="midnightblue" points="2022.67,-395.32 2032.75,-392.06 2022.84,-388.32 2022.67,-395.32"/>
</g>
<!-- Node13 -->
<g id="node5" class="node">
<title>Node13</title>
<g id="a_node5"><a xlink:href="wrap__pybind_8h.html" target="_top" xlink:title="Defines convenience utilities to wrap pybind11 methods and classes.">
<polygon fill="white" stroke="black" points="603.31,-307 603.31,-337 740.31,-337 740.31,-307 603.31,-307"/>
<text text-anchor="start" x="611.31" y="-325" font-family="Helvetica,sans-Serif" font-size="10.00">drake/bindings/pydrake</text>
<text text-anchor="middle" x="671.81" y="-314" font-family="Helvetica,sans-Serif" font-size="10.00">/common/wrap_pybind.h</text>
</a>
</g>
</g>
<!-- Node9&#45;&gt;Node13 -->
<g id="edge4" class="edge">
<title>Node9&#45;&gt;Node13</title>
<path fill="none" stroke="midnightblue" d="M2022.22,-392.63C1776.58,-389.51 1002.47,-377.15 754.81,-343 744.53,-341.58 733.67,-339.45 723.31,-337.09"/>
<polygon fill="midnightblue" stroke="midnightblue" points="2022.43,-396.14 2032.47,-392.76 2022.52,-389.14 2022.43,-396.14"/>
</g>
<!-- Node14 -->
<g id="node6" class="node">
<title>Node14</title>
<g id="a_node6"><a xlink:href="cpp__param__pybind_8h.html" target="_top" xlink:title="Provides a mechanism to map C++ types to canonical Python types.">
<polygon fill="white" stroke="black" points="564.31,-229 564.31,-259 731.31,-259 731.31,-229 564.31,-229"/>
<text text-anchor="start" x="572.31" y="-247" font-family="Helvetica,sans-Serif" font-size="10.00">drake/bindings/pydrake</text>
<text text-anchor="middle" x="647.81" y="-236" font-family="Helvetica,sans-Serif" font-size="10.00">/common/cpp_param_pybind.h</text>
</a>
</g>
</g>
<!-- Node9&#45;&gt;Node14 -->
<g id="edge14" class="edge">
<title>Node9&#45;&gt;Node14</title>
<path fill="none" stroke="midnightblue" d="M2022.54,-393.84C1725.05,-394.81 644.86,-394.76 594.81,-343 570.61,-317.97 606.64,-279.69 630.17,-259.17"/>
<polygon fill="midnightblue" stroke="midnightblue" points="2022.81,-397.34 2032.79,-393.8 2022.78,-390.34 2022.81,-397.34"/>
</g>
<!-- Node15 -->
<g id="node7" class="node">
<title>Node15</title>
<g id="a_node7"><a xlink:href="cpp__template__pybind_8h.html" target="_top" xlink:title=" ">
<polygon fill="white" stroke="black" points="445.31,-156.5 445.31,-186.5 624.31,-186.5 624.31,-156.5 445.31,-156.5"/>
<text text-anchor="start" x="453.31" y="-174.5" font-family="Helvetica,sans-Serif" font-size="10.00">drake/bindings/pydrake</text>
<text text-anchor="middle" x="534.81" y="-163.5" font-family="Helvetica,sans-Serif" font-size="10.00">/common/cpp_template_pybind.h</text>
</a>
</g>
</g>
<!-- Node9&#45;&gt;Node15 -->
<g id="edge15" class="edge">
<title>Node9&#45;&gt;Node15</title>
<path fill="none" stroke="midnightblue" d="M2022.51,-393.96C1715.94,-395.47 575.5,-397.41 522.81,-343 481.31,-300.15 512.38,-219.48 527.64,-186.8"/>
<polygon fill="midnightblue" stroke="midnightblue" points="2022.65,-397.46 2032.63,-393.91 2022.61,-390.46 2022.65,-397.46"/>
</g>
<!-- Node16 -->
<g id="node8" class="node">
<title>Node16</title>
<g id="a_node8"><a xlink:href="serialize__pybind_8h.html" target="_top" xlink:title=" ">
<polygon fill="white" stroke="black" points="406.81,-84 406.81,-114 560.81,-114 560.81,-84 406.81,-84"/>
<text text-anchor="start" x="414.81" y="-102" font-family="Helvetica,sans-Serif" font-size="10.00">drake/bindings/pydrake</text>
<text text-anchor="middle" x="483.81" y="-91" font-family="Helvetica,sans-Serif" font-size="10.00">/common/serialize_pybind.h</text>
</a>
</g>
</g>
<!-- Node9&#45;&gt;Node16 -->
<g id="edge24" class="edge">
<title>Node9&#45;&gt;Node16</title>
<path fill="none" stroke="midnightblue" d="M2022.39,-393.4C1713.96,-392.72 561.78,-387.2 498.81,-343 427.14,-292.69 406.86,-238.28 436.81,-156 442.8,-139.54 455.99,-124.55 466.88,-114.23"/>
<polygon fill="midnightblue" stroke="midnightblue" points="2022.57,-396.9 2032.58,-393.43 2022.58,-389.9 2022.57,-396.9"/>
</g>
<!-- Node17 -->
<g id="node9" class="node">
<title>Node17</title>
<g id="a_node9"><a xlink:href="value__pybind_8h.html" target="_top" xlink:title="Helpers for defining instantiations of drake::Value&lt;&gt;.">
<polygon fill="white" stroke="black" points="726.81,-84 726.81,-114 866.81,-114 866.81,-84 726.81,-84"/>
<text text-anchor="start" x="734.81" y="-102" font-family="Helvetica,sans-Serif" font-size="10.00">drake/bindings/pydrake</text>
<text text-anchor="middle" x="796.81" y="-91" font-family="Helvetica,sans-Serif" font-size="10.00">/common/value_pybind.h</text>
</a>
</g>
</g>
<!-- Node9&#45;&gt;Node17 -->
<g id="edge27" class="edge">
<title>Node9&#45;&gt;Node17</title>
<path fill="none" stroke="midnightblue" d="M2022.43,-393.45C1750.09,-392.89 830.8,-387.68 787.81,-343 771.93,-326.5 789.44,-163.37 795.14,-114.05"/>
<polygon fill="midnightblue" stroke="midnightblue" points="2022.61,-396.95 2032.61,-393.47 2022.62,-389.95 2022.61,-396.95"/>
</g>
<!-- Node18 -->
<g id="node10" class="node">
<title>Node18</title>
<g id="a_node10"><a xlink:href="type__safe__index__pybind_8h.html" target="_top" xlink:title=" ">
<polygon fill="white" stroke="black" points="514.81,-0.5 514.81,-41.5 660.81,-41.5 660.81,-0.5 514.81,-0.5"/>
<text text-anchor="start" x="522.81" y="-29.5" font-family="Helvetica,sans-Serif" font-size="10.00">drake/bindings/pydrake</text>
<text text-anchor="start" x="522.81" y="-18.5" font-family="Helvetica,sans-Serif" font-size="10.00">/common/type_safe_index</text>
<text text-anchor="middle" x="587.81" y="-7.5" font-family="Helvetica,sans-Serif" font-size="10.00">_pybind.h</text>
</a>
</g>
</g>
<!-- Node9&#45;&gt;Node18 -->
<g id="edge28" class="edge">
<title>Node9&#45;&gt;Node18</title>
<path fill="none" stroke="midnightblue" d="M2022.37,-393.06C1708.33,-391 517.86,-380.72 447.81,-343 400.91,-317.74 378.81,-298.27 378.81,-245 378.81,-245 378.81,-245 378.81,-170.5 378.81,-128.53 369.4,-108.9 397.81,-78 427.48,-45.72 474.73,-31.7 514.68,-25.77"/>
<polygon fill="midnightblue" stroke="midnightblue" points="2022.7,-396.56 2032.72,-393.13 2022.75,-389.56 2022.7,-396.56"/>
</g>
<!-- Node19 -->
<g id="node11" class="node">
<title>Node19</title>
<g id="a_node11"><a xlink:href="lcm__pybind_8h.html" target="_top" xlink:title="Helpers for defining C++ LCM type serializers.">
<polygon fill="white" stroke="black" points="578.81,-84 578.81,-114 708.81,-114 708.81,-84 578.81,-84"/>
<text text-anchor="start" x="586.81" y="-102" font-family="Helvetica,sans-Serif" font-size="10.00">drake/bindings/pydrake</text>
<text text-anchor="middle" x="643.81" y="-91" font-family="Helvetica,sans-Serif" font-size="10.00">/systems/lcm_pybind.h</text>
</a>
</g>
</g>
<!-- Node9&#45;&gt;Node19 -->
<g id="edge47" class="edge">
<title>Node9&#45;&gt;Node19</title>
<path fill="none" stroke="midnightblue" d="M2022.34,-393.36C1723.95,-392.51 640.01,-386.44 581.81,-343 538.08,-310.36 526.4,-268.97 555.81,-223 576.39,-190.84 611.43,-217.93 633.81,-187 649.41,-165.45 648.35,-132.7 646.12,-114.14"/>
<polygon fill="midnightblue" stroke="midnightblue" points="2022.61,-396.86 2032.62,-393.39 2022.63,-389.86 2022.61,-396.86"/>
</g>
<!-- Node20 -->
<g id="node12" class="node">
<title>Node20</title>
<g id="a_node12"><a xlink:href="symbolic__types__pybind_8h.html" target="_top" xlink:title=" ">
<polygon fill="white" stroke="black" points="169.31,-307 169.31,-337 312.31,-337 312.31,-307 169.31,-307"/>
<text text-anchor="start" x="177.31" y="-325" font-family="Helvetica,sans-Serif" font-size="10.00">drake/bindings/pydrake</text>
<text text-anchor="middle" x="240.81" y="-314" font-family="Helvetica,sans-Serif" font-size="10.00">/symbolic_types_pybind.h</text>
</a>
</g>
</g>
<!-- Node9&#45;&gt;Node20 -->
<g id="edge17" class="edge">
<title>Node9&#45;&gt;Node20</title>
<path fill="none" stroke="midnightblue" d="M2022.56,-393.36C1729.27,-392.49 662.39,-386.36 326.81,-343 316.01,-341.61 304.59,-339.45 293.72,-337.05"/>
<polygon fill="midnightblue" stroke="midnightblue" points="2022.66,-396.86 2032.67,-393.39 2022.68,-389.86 2022.66,-396.86"/>
</g>
<!-- Node21 -->
<g id="node13" class="node">
<title>Node21</title>
<g id="a_node13"><a xlink:href="symbolic__py__unapply_8h.html" target="_top" xlink:title=" ">
<polygon fill="white" stroke="black" points="220.81,-223.5 220.81,-264.5 350.81,-264.5 350.81,-223.5 220.81,-223.5"/>
<text text-anchor="start" x="228.81" y="-252.5" font-family="Helvetica,sans-Serif" font-size="10.00">drake/bindings/pydrake</text>
<text text-anchor="start" x="228.81" y="-241.5" font-family="Helvetica,sans-Serif" font-size="10.00">/symbolic/symbolic_py</text>
<text text-anchor="middle" x="285.81" y="-230.5" font-family="Helvetica,sans-Serif" font-size="10.00">_unapply.h</text>
</a>
</g>
</g>
<!-- Node9&#45;&gt;Node21 -->
<g id="edge42" class="edge">
<title>Node9&#45;&gt;Node21</title>
<path fill="none" stroke="midnightblue" d="M2022.39,-393.06C1698.67,-390.93 439.95,-380.3 364.81,-343 347.49,-334.4 316.35,-290.84 298.79,-264.78"/>
<polygon fill="midnightblue" stroke="midnightblue" points="2022.58,-396.56 2032.6,-393.12 2022.62,-389.56 2022.58,-396.56"/>
</g>
<!-- Node22 -->
<g id="node14" class="node">
<title>Node22</title>
<g id="a_node14"><a xlink:href="deprecation__pybind_8h.html" target="_top" xlink:title="Provides access to Python deprecation utilities from C++.">
<polygon fill="white" stroke="black" points="978.81,-307 978.81,-337 1148.81,-337 1148.81,-307 978.81,-307"/>
<text text-anchor="start" x="986.81" y="-325" font-family="Helvetica,sans-Serif" font-size="10.00">drake/bindings/pydrake</text>
<text text-anchor="middle" x="1063.81" y="-314" font-family="Helvetica,sans-Serif" font-size="10.00">/common/deprecation_pybind.h</text>
</a>
</g>
</g>
<!-- Node9&#45;&gt;Node22 -->
<g id="edge20" class="edge">
<title>Node9&#45;&gt;Node22</title>
<path fill="none" stroke="midnightblue" d="M2022.31,-393.43C1862.24,-392.4 1477.26,-385.3 1157.81,-343 1146.4,-341.49 1134.31,-339.34 1122.73,-337.01"/>
<polygon fill="midnightblue" stroke="midnightblue" points="2022.51,-396.93 2032.53,-393.49 2022.55,-389.93 2022.51,-396.93"/>
</g>
<!-- Node23 -->
<g id="node15" class="node">
<title>Node23</title>
<g id="a_node15"><a xlink:href="eigen__pybind_8h.html" target="_top" xlink:title=" ">
<polygon fill="white" stroke="black" points="1166.81,-307 1166.81,-337 1306.81,-337 1306.81,-307 1166.81,-307"/>
<text text-anchor="start" x="1174.81" y="-325" font-family="Helvetica,sans-Serif" font-size="10.00">drake/bindings/pydrake</text>
<text text-anchor="middle" x="1236.81" y="-314" font-family="Helvetica,sans-Serif" font-size="10.00">/common/eigen_pybind.h</text>
</a>
</g>
</g>
<!-- Node9&#45;&gt;Node23 -->
<g id="edge21" class="edge">
<title>Node9&#45;&gt;Node23</title>
<path fill="none" stroke="midnightblue" d="M2022.55,-393.21C1882.55,-391.67 1572.95,-383.5 1315.81,-343 1306.31,-341.5 1296.28,-339.39 1286.67,-337.09"/>
<polygon fill="midnightblue" stroke="midnightblue" points="2022.71,-396.72 2032.74,-393.32 2022.78,-389.72 2022.71,-396.72"/>
</g>
<!-- Node24 -->
<g id="node16" class="node">
<title>Node24</title>
<g id="a_node16"><a xlink:href="identifier__pybind_8h.html" target="_top" xlink:title=" ">
<polygon fill="white" stroke="black" points="1324.81,-307 1324.81,-337 1480.81,-337 1480.81,-307 1324.81,-307"/>
<text text-anchor="start" x="1332.81" y="-325" font-family="Helvetica,sans-Serif" font-size="10.00">drake/bindings/pydrake</text>
<text text-anchor="middle" x="1402.81" y="-314" font-family="Helvetica,sans-Serif" font-size="10.00">/common/identifier_pybind.h</text>
</a>
</g>
</g>
<!-- Node9&#45;&gt;Node24 -->
<g id="edge22" class="edge">
<title>Node9&#45;&gt;Node24</title>
<path fill="none" stroke="midnightblue" d="M2022.66,-390.65C1907.58,-385.51 1681.02,-372.38 1490.81,-343 1480.59,-341.42 1469.79,-339.33 1459.39,-337.09"/>
<polygon fill="midnightblue" stroke="midnightblue" points="2022.63,-394.15 2032.78,-391.09 2022.94,-387.15 2022.63,-394.15"/>
</g>
<!-- Node25 -->
<g id="node17" class="node">
<title>Node25</title>
<g id="a_node17"><a xlink:href="ref__cycle__pybind_8h.html" target="_top" xlink:title=" ">
<polygon fill="white" stroke="black" points="1499.31,-307 1499.31,-337 1656.31,-337 1656.31,-307 1499.31,-307"/>
<text text-anchor="start" x="1507.31" y="-325" font-family="Helvetica,sans-Serif" font-size="10.00">drake/bindings/pydrake</text>
<text text-anchor="middle" x="1577.81" y="-314" font-family="Helvetica,sans-Serif" font-size="10.00">/common/ref_cycle_pybind.h</text>
</a>
</g>
</g>
<!-- Node9&#45;&gt;Node25 -->
<g id="edge23" class="edge">
<title>Node9&#45;&gt;Node25</title>
<path fill="none" stroke="midnightblue" d="M2022.74,-387.18C1936.3,-379.34 1790.19,-364.34 1665.81,-343 1655.93,-341.3 1645.48,-339.21 1635.38,-337.01"/>
<polygon fill="midnightblue" stroke="midnightblue" points="2022.45,-390.67 2032.73,-388.08 2023.08,-383.7 2022.45,-390.67"/>
</g>
<!-- Node26 -->
<g id="node18" class="node">
<title>Node26</title>
<g id="a_node18"><a xlink:href="sorted__pair__pybind_8h.html" target="_top" xlink:title=" ">
<polygon fill="white" stroke="black" points="1674.31,-307 1674.31,-337 1841.31,-337 1841.31,-307 1674.31,-307"/>
<text text-anchor="start" x="1682.31" y="-325" font-family="Helvetica,sans-Serif" font-size="10.00">drake/bindings/pydrake</text>
<text text-anchor="middle" x="1757.81" y="-314" font-family="Helvetica,sans-Serif" font-size="10.00">/common/sorted_pair_pybind.h</text>
</a>
</g>
</g>
<!-- Node9&#45;&gt;Node26 -->
<g id="edge25" class="edge">
<title>Node9&#45;&gt;Node26</title>
<path fill="none" stroke="midnightblue" d="M2022.88,-378.39C1973.89,-368.45 1908.52,-355.1 1850.81,-343 1841.68,-341.08 1832.05,-339.04 1822.58,-337.02"/>
<polygon fill="midnightblue" stroke="midnightblue" points="2022.27,-381.83 2032.77,-380.39 2023.66,-374.97 2022.27,-381.83"/>
</g>
<!-- Node27 -->
<g id="node19" class="node">
<title>Node27</title>
<g id="a_node19"><a xlink:href="submodules__py_8h.html" target="_top" xlink:title=" ">
<polygon fill="white" stroke="black" points="1859.31,-307 1859.31,-337 2008.31,-337 2008.31,-307 1859.31,-307"/>
<text text-anchor="start" x="1867.31" y="-325" font-family="Helvetica,sans-Serif" font-size="10.00">drake/bindings/pydrake</text>
<text text-anchor="middle" x="1933.81" y="-314" font-family="Helvetica,sans-Serif" font-size="10.00">/common/submodules_py.h</text>
</a>
</g>
</g>
<!-- Node9&#45;&gt;Node27 -->
<g id="edge26" class="edge">
<title>Node9&#45;&gt;Node27</title>
<path fill="none" stroke="midnightblue" d="M2055.57,-375.34C2027.85,-363.42 1992.12,-348.07 1966.55,-337.07"/>
<polygon fill="midnightblue" stroke="midnightblue" points="2054.45,-378.67 2065.02,-379.4 2057.21,-372.24 2054.45,-378.67"/>
</g>
<!-- Node28 -->
<g id="node20" class="node">
<title>Node28</title>
<g id="a_node20"><a xlink:href="examples__py_8h.html" target="_top" xlink:title=" ">
<polygon fill="white" stroke="black" points="2026.31,-307 2026.31,-337 2169.31,-337 2169.31,-307 2026.31,-307"/>
<text text-anchor="start" x="2034.31" y="-325" font-family="Helvetica,sans-Serif" font-size="10.00">drake/bindings/pydrake</text>
<text text-anchor="middle" x="2097.81" y="-314" font-family="Helvetica,sans-Serif" font-size="10.00">/examples/examples_py.h</text>
</a>
</g>
</g>
<!-- Node9&#45;&gt;Node28 -->
<g id="edge29" class="edge">
<title>Node9&#45;&gt;Node28</title>
<path fill="none" stroke="midnightblue" d="M2097.81,-369.23C2097.81,-358.57 2097.81,-346.41 2097.81,-337.25"/>
<polygon fill="midnightblue" stroke="midnightblue" points="2094.31,-369.23 2097.81,-379.23 2101.31,-369.23 2094.31,-369.23"/>
</g>
<!-- Node29 -->
<g id="node21" class="node">
<title>Node29</title>
<g id="a_node21"><a xlink:href="geometry__py_8h.html" target="_top" xlink:title="This files declares the functions which bind various portions of the geometry namespace.">
<polygon fill="white" stroke="black" points="2187.81,-307 2187.81,-337 2329.81,-337 2329.81,-307 2187.81,-307"/>
<text text-anchor="start" x="2195.81" y="-325" font-family="Helvetica,sans-Serif" font-size="10.00">drake/bindings/pydrake</text>
<text text-anchor="middle" x="2258.81" y="-314" font-family="Helvetica,sans-Serif" font-size="10.00">/geometry/geometry_py.h</text>
</a>
</g>
</g>
<!-- Node9&#45;&gt;Node29 -->
<g id="edge30" class="edge">
<title>Node9&#45;&gt;Node29</title>
<path fill="none" stroke="midnightblue" d="M2139.27,-375.34C2166.49,-363.42 2201.57,-348.07 2226.67,-337.07"/>
<polygon fill="midnightblue" stroke="midnightblue" points="2137.76,-372.19 2130,-379.4 2140.57,-378.6 2137.76,-372.19"/>
</g>
<!-- Node30 -->
<g id="node22" class="node">
<title>Node30</title>
<g id="a_node22"><a xlink:href="optimization__pybind_8h.html" target="_top" xlink:title=" ">
<polygon fill="white" stroke="black" points="2348.31,-301.5 2348.31,-342.5 2479.31,-342.5 2479.31,-301.5 2348.31,-301.5"/>
<text text-anchor="start" x="2356.31" y="-330.5" font-family="Helvetica,sans-Serif" font-size="10.00">drake/bindings/pydrake</text>
<text text-anchor="start" x="2356.31" y="-319.5" font-family="Helvetica,sans-Serif" font-size="10.00">/geometry/optimization</text>
<text text-anchor="middle" x="2413.81" y="-308.5" font-family="Helvetica,sans-Serif" font-size="10.00">_pybind.h</text>
</a>
</g>
</g>
<!-- Node9&#45;&gt;Node30 -->
<g id="edge31" class="edge">
<title>Node9&#45;&gt;Node30</title>
<path fill="none" stroke="midnightblue" d="M2172.91,-378.85C2220.57,-369.28 2283.48,-356.16 2338.81,-343 2341.82,-342.28 2344.9,-341.53 2348.01,-340.76"/>
<polygon fill="midnightblue" stroke="midnightblue" points="2172.09,-375.44 2162.97,-380.84 2173.47,-382.31 2172.09,-375.44"/>
</g>
<!-- Node31 -->
<g id="node23" class="node">
<title>Node31</title>
<g id="a_node23"><a xlink:href="manipulation__py_8h.html" target="_top" xlink:title=" ">
<polygon fill="white" stroke="black" points="2497.81,-307 2497.81,-337 2673.81,-337 2673.81,-307 2497.81,-307"/>
<text text-anchor="start" x="2505.81" y="-325" font-family="Helvetica,sans-Serif" font-size="10.00">drake/bindings/pydrake</text>
<text text-anchor="middle" x="2585.81" y="-314" font-family="Helvetica,sans-Serif" font-size="10.00">/manipulation/manipulation_py.h</text>
</a>
</g>
</g>
<!-- Node9&#45;&gt;Node31 -->
<g id="edge32" class="edge">
<title>Node9&#45;&gt;Node31</title>
<path fill="none" stroke="midnightblue" d="M2173.4,-385.44C2252.33,-376.62 2379.63,-361.28 2488.81,-343 2499.32,-341.24 2510.43,-339.16 2521.24,-337.02"/>
<polygon fill="midnightblue" stroke="midnightblue" points="2172.61,-382 2163.06,-386.59 2173.39,-388.96 2172.61,-382"/>
</g>
<!-- Node32 -->
<g id="node24" class="node">
<title>Node32</title>
<g id="a_node24"><a xlink:href="math__py_8h.html" target="_top" xlink:title=" ">
<polygon fill="white" stroke="black" points="2691.81,-307 2691.81,-337 2821.81,-337 2821.81,-307 2691.81,-307"/>
<text text-anchor="start" x="2699.81" y="-325" font-family="Helvetica,sans-Serif" font-size="10.00">drake/bindings/pydrake</text>
<text text-anchor="middle" x="2756.81" y="-314" font-family="Helvetica,sans-Serif" font-size="10.00">/math/math_py.h</text>
</a>
</g>
</g>
<!-- Node9&#45;&gt;Node32 -->
<g id="edge33" class="edge">
<title>Node9&#45;&gt;Node32</title>
<path fill="none" stroke="midnightblue" d="M2173.41,-391.27C2285.42,-386.99 2501.75,-375.02 2682.81,-343 2691.59,-341.45 2700.84,-339.34 2709.72,-337.07"/>
<polygon fill="midnightblue" stroke="midnightblue" points="2173.09,-387.77 2163.23,-391.64 2173.35,-394.77 2173.09,-387.77"/>
</g>
<!-- Node33 -->
<g id="node25" class="node">
<title>Node33</title>
<g id="a_node25"><a xlink:href="math__operators__pybind_8h.html" target="_top" xlink:title=" ">
<polygon fill="white" stroke="black" points="2839.81,-307 2839.81,-337 2983.81,-337 2983.81,-307 2839.81,-307"/>
<text text-anchor="start" x="2847.81" y="-325" font-family="Helvetica,sans-Serif" font-size="10.00">drake/bindings/pydrake</text>
<text text-anchor="middle" x="2911.81" y="-314" font-family="Helvetica,sans-Serif" font-size="10.00">/math_operators_pybind.h</text>
</a>
</g>
</g>
<!-- Node9&#45;&gt;Node33 -->
<g id="edge34" class="edge">
<title>Node9&#45;&gt;Node33</title>
<path fill="none" stroke="midnightblue" d="M2173.05,-392.61C2306.38,-390.07 2592.54,-380.34 2830.81,-343 2840.54,-341.48 2850.82,-339.35 2860.66,-337.05"/>
<polygon fill="midnightblue" stroke="midnightblue" points="2172.88,-389.11 2162.95,-392.79 2173.01,-396.11 2172.88,-389.11"/>
</g>
<!-- Node34 -->
<g id="node26" class="node">
<title>Node34</title>
<g id="a_node26"><a xlink:href="inverse__kinematics__py_8h.html" target="_top" xlink:title=" ">
<polygon fill="white" stroke="black" points="3001.81,-307 3001.81,-337 3193.81,-337 3193.81,-307 3001.81,-307"/>
<text text-anchor="start" x="3009.81" y="-325" font-family="Helvetica,sans-Serif" font-size="10.00">drake/bindings/pydrake</text>
<text text-anchor="middle" x="3097.81" y="-314" font-family="Helvetica,sans-Serif" font-size="10.00">/multibody/inverse_kinematics_py.h</text>
</a>
</g>
</g>
<!-- Node9&#45;&gt;Node34 -->
<g id="edge35" class="edge">
<title>Node9&#45;&gt;Node34</title>
<path fill="none" stroke="midnightblue" d="M2173.24,-392.6C2327.63,-390.01 2690.63,-380.14 2992.81,-343 3005.33,-341.46 3018.61,-339.33 3031.36,-337.03"/>
<polygon fill="midnightblue" stroke="midnightblue" points="2172.87,-389.1 2162.93,-392.76 2172.98,-396.1 2172.87,-389.1"/>
</g>
<!-- Node35 -->
<g id="node27" class="node">
<title>Node35</title>
<g id="a_node27"><a xlink:href="tree__py_8h.html" target="_top" xlink:title=" ">
<polygon fill="white" stroke="black" points="3211.81,-307 3211.81,-337 3341.81,-337 3341.81,-307 3211.81,-307"/>
<text text-anchor="start" x="3219.81" y="-325" font-family="Helvetica,sans-Serif" font-size="10.00">drake/bindings/pydrake</text>
<text text-anchor="middle" x="3276.81" y="-314" font-family="Helvetica,sans-Serif" font-size="10.00">/multibody/tree_py.h</text>
</a>
</g>
</g>
<!-- Node9&#45;&gt;Node35 -->
<g id="edge36" class="edge">
<title>Node9&#45;&gt;Node35</title>
<path fill="none" stroke="midnightblue" d="M2173.29,-392.2C2388.73,-388.13 3003.75,-374.07 3202.81,-343 3212.01,-341.56 3221.72,-339.42 3230.96,-337.06"/>
<polygon fill="midnightblue" stroke="midnightblue" points="2172.97,-388.7 2163.04,-392.39 2173.1,-395.7 2172.97,-388.7"/>
</g>
<!-- Node36 -->
<g id="node28" class="node">
<title>Node36</title>
<g id="a_node28"><a xlink:href="planning__py_8h.html" target="_top" xlink:title=" ">
<polygon fill="white" stroke="black" points="3360.31,-307 3360.31,-337 3491.31,-337 3491.31,-307 3360.31,-307"/>
<text text-anchor="start" x="3368.31" y="-325" font-family="Helvetica,sans-Serif" font-size="10.00">drake/bindings/pydrake</text>
<text text-anchor="middle" x="3425.81" y="-314" font-family="Helvetica,sans-Serif" font-size="10.00">/planning/planning_py.h</text>
</a>
</g>
</g>
<!-- Node9&#45;&gt;Node36 -->
<g id="edge37" class="edge">
<title>Node9&#45;&gt;Node36</title>
<path fill="none" stroke="midnightblue" d="M2173.13,-392.64C2407.48,-389.62 3121.74,-377.72 3350.81,-343 3360.14,-341.59 3369.97,-339.45 3379.34,-337.09"/>
<polygon fill="midnightblue" stroke="midnightblue" points="2172.95,-389.14 2162.99,-392.77 2173.04,-396.14 2172.95,-389.14"/>
</g>
<!-- Node37 -->
<g id="node29" class="node">
<title>Node37</title>
<g id="a_node29"><a xlink:href="polynomial__types__pybind_8h.html" target="_top" xlink:title=" ">
<polygon fill="white" stroke="black" points="3509.81,-307 3509.81,-337 3663.81,-337 3663.81,-307 3509.81,-307"/>
<text text-anchor="start" x="3517.81" y="-325" font-family="Helvetica,sans-Serif" font-size="10.00">drake/bindings/pydrake</text>
<text text-anchor="middle" x="3586.81" y="-314" font-family="Helvetica,sans-Serif" font-size="10.00">/polynomial_types_pybind.h</text>
</a>
</g>
</g>
<!-- Node9&#45;&gt;Node37 -->
<g id="edge38" class="edge">
<title>Node9&#45;&gt;Node37</title>
<path fill="none" stroke="midnightblue" d="M2173.32,-392.7C2426.01,-389.72 3240.76,-377.59 3500.81,-343 3511.45,-341.59 3522.7,-339.45 3533.43,-337.09"/>
<polygon fill="midnightblue" stroke="midnightblue" points="2173.09,-389.2 2163.14,-392.82 2173.18,-396.2 2173.09,-389.2"/>
</g>
<!-- Node38 -->
<g id="node30" class="node">
<title>Node38</title>
<g id="a_node30"><a xlink:href="solvers__py_8h.html" target="_top" xlink:title=" ">
<polygon fill="white" stroke="black" points="3681.81,-307 3681.81,-337 3811.81,-337 3811.81,-307 3681.81,-307"/>
<text text-anchor="start" x="3689.81" y="-325" font-family="Helvetica,sans-Serif" font-size="10.00">drake/bindings/pydrake</text>
<text text-anchor="middle" x="3746.81" y="-314" font-family="Helvetica,sans-Serif" font-size="10.00">/solvers/solvers_py.h</text>
</a>
</g>
</g>
<!-- Node9&#45;&gt;Node38 -->
<g id="edge39" class="edge">
<title>Node9&#45;&gt;Node38</title>
<path fill="none" stroke="midnightblue" d="M2173.24,-393.4C2445.69,-392.66 3378.27,-386.91 3672.81,-343 3682.15,-341.61 3692.01,-339.45 3701.37,-337.06"/>
<polygon fill="midnightblue" stroke="midnightblue" points="2173.05,-389.9 2163.06,-393.42 2173.07,-396.9 2173.05,-389.9"/>
</g>
<!-- Node39 -->
<g id="node31" class="node">
<title>Node39</title>
<g id="a_node31"><a xlink:href="solvers__pybind_8h.html" target="_top" xlink:title="Helper methods for binding solvers.">
<polygon fill="white" stroke="black" points="3829.81,-307 3829.81,-337 3969.81,-337 3969.81,-307 3829.81,-307"/>
<text text-anchor="start" x="3837.81" y="-325" font-family="Helvetica,sans-Serif" font-size="10.00">drake/bindings/pydrake</text>
<text text-anchor="middle" x="3899.81" y="-314" font-family="Helvetica,sans-Serif" font-size="10.00">/solvers/solvers_pybind.h</text>
</a>
</g>
</g>
<!-- Node9&#45;&gt;Node39 -->
<g id="edge40" class="edge">
<title>Node9&#45;&gt;Node39</title>
<path fill="none" stroke="midnightblue" d="M2173.4,-393.48C2462.16,-393.06 3495.65,-388.37 3820.81,-343 3830.76,-341.61 3841.26,-339.46 3851.25,-337.06"/>
<polygon fill="midnightblue" stroke="midnightblue" points="2173.04,-389.98 2163.04,-393.49 2173.05,-396.98 2173.04,-389.98"/>
</g>
<!-- Node40 -->
<g id="node32" class="node">
<title>Node40</title>
<g id="a_node32"><a xlink:href="symbolic__py_8h.html" target="_top" xlink:title=" ">
<polygon fill="white" stroke="black" points="3987.81,-307 3987.81,-337 4123.81,-337 4123.81,-307 3987.81,-307"/>
<text text-anchor="start" x="3995.81" y="-325" font-family="Helvetica,sans-Serif" font-size="10.00">drake/bindings/pydrake</text>
<text text-anchor="middle" x="4055.81" y="-314" font-family="Helvetica,sans-Serif" font-size="10.00">/symbolic/symbolic_py.h</text>
</a>
</g>
</g>
<!-- Node9&#45;&gt;Node40 -->
<g id="edge41" class="edge">
<title>Node9&#45;&gt;Node40</title>
<path fill="none" stroke="midnightblue" d="M2173.16,-393.76C2478.08,-394.46 3621.2,-393.57 3978.81,-343 3988.52,-341.63 3998.77,-339.48 4008.5,-337.09"/>
<polygon fill="midnightblue" stroke="midnightblue" points="2173.11,-390.26 2163.1,-393.74 2173.09,-397.26 2173.11,-390.26"/>
</g>
<!-- Node41 -->
<g id="node33" class="node">
<title>Node41</title>
<g id="a_node33"><a xlink:href="builder__life__support__pybind_8h.html" target="_top" xlink:title=" ">
<polygon fill="white" stroke="black" points="4141.81,-301.5 4141.81,-342.5 4271.81,-342.5 4271.81,-301.5 4141.81,-301.5"/>
<text text-anchor="start" x="4149.81" y="-330.5" font-family="Helvetica,sans-Serif" font-size="10.00">drake/bindings/pydrake</text>
<text text-anchor="start" x="4149.81" y="-319.5" font-family="Helvetica,sans-Serif" font-size="10.00">/systems/builder_life</text>
<text text-anchor="middle" x="4206.81" y="-308.5" font-family="Helvetica,sans-Serif" font-size="10.00">_support_pybind.h</text>
</a>
</g>
</g>
<!-- Node9&#45;&gt;Node41 -->
<g id="edge43" class="edge">
<title>Node9&#45;&gt;Node41</title>
<path fill="none" stroke="midnightblue" d="M2172.98,-392.7C2517.4,-388.89 3936.38,-371.56 4132.81,-343 4135.71,-342.58 4138.65,-342.08 4141.62,-341.53"/>
<polygon fill="midnightblue" stroke="midnightblue" points="2172.82,-389.2 2162.86,-392.81 2172.9,-396.2 2172.82,-389.2"/>
</g>
<!-- Node42 -->
<g id="node34" class="node">
<title>Node42</title>
<g id="a_node34"><a xlink:href="framework__py__semantics_8h.html" target="_top" xlink:title="Provides the semantics portion of Python bindings for the systems framework.">
<polygon fill="white" stroke="black" points="4289.81,-301.5 4289.81,-342.5 4423.81,-342.5 4423.81,-301.5 4289.81,-301.5"/>
<text text-anchor="start" x="4297.81" y="-330.5" font-family="Helvetica,sans-Serif" font-size="10.00">drake/bindings/pydrake</text>
<text text-anchor="start" x="4297.81" y="-319.5" font-family="Helvetica,sans-Serif" font-size="10.00">/systems/framework_py</text>
<text text-anchor="middle" x="4356.81" y="-308.5" font-family="Helvetica,sans-Serif" font-size="10.00">_semantics.h</text>
</a>
</g>
</g>
<!-- Node9&#45;&gt;Node42 -->
<g id="edge44" class="edge">
<title>Node9&#45;&gt;Node42</title>
<path fill="none" stroke="midnightblue" d="M2173.09,-392.8C2532.93,-389.34 4068.94,-372.91 4280.81,-343 4283.65,-342.6 4286.53,-342.13 4289.43,-341.61"/>
<polygon fill="midnightblue" stroke="midnightblue" points="2173.01,-389.31 2163.04,-392.9 2173.07,-396.3 2173.01,-389.31"/>
</g>
<!-- Node43 -->
<g id="node35" class="node">
<title>Node43</title>
<g id="a_node35"><a xlink:href="framework__py__systems_8h.html" target="_top" xlink:title="Provides the Python bindings for the core system classes of the systems framework.">
<polygon fill="white" stroke="black" points="4441.81,-301.5 4441.81,-342.5 4575.81,-342.5 4575.81,-301.5 4441.81,-301.5"/>
<text text-anchor="start" x="4449.81" y="-330.5" font-family="Helvetica,sans-Serif" font-size="10.00">drake/bindings/pydrake</text>
<text text-anchor="start" x="4449.81" y="-319.5" font-family="Helvetica,sans-Serif" font-size="10.00">/systems/framework_py</text>
<text text-anchor="middle" x="4508.81" y="-308.5" font-family="Helvetica,sans-Serif" font-size="10.00">_systems.h</text>
</a>
</g>
</g>
<!-- Node9&#45;&gt;Node43 -->
<g id="edge45" class="edge">
<title>Node9&#45;&gt;Node43</title>
<path fill="none" stroke="midnightblue" d="M2173.06,-392.93C2547.97,-389.93 4205.12,-374.96 4432.81,-343 4435.65,-342.6 4438.53,-342.13 4441.43,-341.61"/>
<polygon fill="midnightblue" stroke="midnightblue" points="2172.84,-389.43 2162.87,-393.01 2172.9,-396.43 2172.84,-389.43"/>
</g>
<!-- Node44 -->
<g id="node36" class="node">
<title>Node44</title>
<g id="a_node36"><a xlink:href="framework__py__values_8h.html" target="_top" xlink:title="Provides the values portion of Python bindings for the systems framework.">
<polygon fill="white" stroke="black" points="4593.81,-301.5 4593.81,-342.5 4727.81,-342.5 4727.81,-301.5 4593.81,-301.5"/>
<text text-anchor="start" x="4601.81" y="-330.5" font-family="Helvetica,sans-Serif" font-size="10.00">drake/bindings/pydrake</text>
<text text-anchor="start" x="4601.81" y="-319.5" font-family="Helvetica,sans-Serif" font-size="10.00">/systems/framework_py</text>
<text text-anchor="middle" x="4660.81" y="-308.5" font-family="Helvetica,sans-Serif" font-size="10.00">_values.h</text>
</a>
</g>
</g>
<!-- Node9&#45;&gt;Node44 -->
<g id="edge46" class="edge">
<title>Node9&#45;&gt;Node44</title>
<path fill="none" stroke="midnightblue" d="M2172.87,-393.04C2562,-390.48 4341.24,-377.03 4584.81,-343 4587.65,-342.6 4590.53,-342.14 4593.43,-341.62"/>
<polygon fill="midnightblue" stroke="midnightblue" points="2172.82,-389.54 2162.84,-393.1 2172.87,-396.54 2172.82,-389.54"/>
</g>
<!-- Node45 -->
<g id="node37" class="node">
<title>Node45</title>
<g id="a_node37"><a xlink:href="sensors__py_8h.html" target="_top" xlink:title=" ">
<polygon fill="white" stroke="black" points="4745.81,-307 4745.81,-337 4875.81,-337 4875.81,-307 4745.81,-307"/>
<text text-anchor="start" x="4753.81" y="-325" font-family="Helvetica,sans-Serif" font-size="10.00">drake/bindings/pydrake</text>
<text text-anchor="middle" x="4810.81" y="-314" font-family="Helvetica,sans-Serif" font-size="10.00">/systems/sensors_py.h</text>
</a>
</g>
</g>
<!-- Node9&#45;&gt;Node45 -->
<g id="edge48" class="edge">
<title>Node9&#45;&gt;Node45</title>
<path fill="none" stroke="midnightblue" d="M2173.16,-393.16C2577.12,-391.18 4477.55,-379.94 4736.81,-343 4746.29,-341.65 4756.3,-339.47 4765.78,-337.05"/>
<polygon fill="midnightblue" stroke="midnightblue" points="2173.04,-389.66 2163.05,-393.21 2173.07,-396.66 2173.04,-389.66"/>
</g>
<!-- Node46 -->
<g id="node38" class="node">
<title>Node46</title>
<g id="a_node38"><a xlink:href="visualization__py_8h.html" target="_top" xlink:title=" ">
<polygon fill="white" stroke="black" points="4893.81,-307 4893.81,-337 5065.81,-337 5065.81,-307 4893.81,-307"/>
<text text-anchor="start" x="4901.81" y="-325" font-family="Helvetica,sans-Serif" font-size="10.00">drake/bindings/pydrake</text>
<text text-anchor="middle" x="4979.81" y="-314" font-family="Helvetica,sans-Serif" font-size="10.00">/visualization/visualization_py.h</text>
</a>
</g>
</g>
<!-- Node9&#45;&gt;Node46 -->
<g id="edge49" class="edge">
<title>Node9&#45;&gt;Node46</title>
<path fill="none" stroke="midnightblue" d="M2173.27,-392.99C2590.81,-390.03 4609.12,-374.23 4884.81,-343 4896.87,-341.63 4909.66,-339.45 4921.81,-337.03"/>
<polygon fill="midnightblue" stroke="midnightblue" points="2173.1,-389.49 2163.13,-393.06 2173.15,-396.49 2173.1,-389.49"/>
</g>
<!-- Node10&#45;&gt;Node11 -->
<g id="edge2" class="edge">
<title>Node10&#45;&gt;Node11</title>
<path fill="none" stroke="midnightblue" d="M111.46,-147.98C117.81,-138.85 125.07,-128.4 131.19,-119.59"/>
<polygon fill="midnightblue" stroke="midnightblue" points="108.56,-146.02 105.72,-156.23 114.31,-150.02 108.56,-146.02"/>
</g>
<!-- Node13&#45;&gt;Node14 -->
<g id="edge5" class="edge">
<title>Node13&#45;&gt;Node14</title>
<path fill="none" stroke="midnightblue" d="M664.22,-296.96C660.3,-284.55 655.65,-269.83 652.3,-259.23"/>
<polygon fill="midnightblue" stroke="midnightblue" points="660.95,-298.22 667.29,-306.7 667.62,-296.12 660.95,-298.22"/>
</g>
<!-- Node13&#45;&gt;Node17 -->
<g id="edge13" class="edge">
<title>Node13&#45;&gt;Node17</title>
<path fill="none" stroke="midnightblue" d="M703.53,-301.13C716.61,-291.58 730.98,-279.13 740.81,-265 758.52,-239.55 783.78,-149.05 793.14,-114.01"/>
<polygon fill="midnightblue" stroke="midnightblue" points="701.36,-298.37 695.18,-306.97 705.38,-304.1 701.36,-298.37"/>
</g>
<!-- Node14&#45;&gt;Node15 -->
<g id="edge6" class="edge">
<title>Node14&#45;&gt;Node15</title>
<path fill="none" stroke="midnightblue" d="M616.68,-223.58C597.89,-211.86 574.37,-197.18 557.37,-186.57"/>
<polygon fill="midnightblue" stroke="midnightblue" points="614.88,-226.58 625.21,-228.9 618.58,-220.64 614.88,-226.58"/>
</g>
<!-- Node14&#45;&gt;Node17 -->
<g id="edge12" class="edge">
<title>Node14&#45;&gt;Node17</title>
<path fill="none" stroke="midnightblue" d="M669.92,-221.78C700.73,-192.21 755.75,-139.4 782.04,-114.18"/>
<polygon fill="midnightblue" stroke="midnightblue" points="667.43,-219.32 662.64,-228.77 672.28,-224.37 667.43,-219.32"/>
</g>
<!-- Node15&#45;&gt;Node11 -->
<g id="edge7" class="edge">
<title>Node15&#45;&gt;Node11</title>
<path fill="none" stroke="midnightblue" d="M447.15,-154.65C377.03,-141.98 280.02,-124.44 214.97,-112.68"/>
<polygon fill="midnightblue" stroke="midnightblue" points="446.83,-158.15 457.29,-156.49 448.07,-151.26 446.83,-158.15"/>
</g>
<!-- Node15&#45;&gt;Node16 -->
<g id="edge8" class="edge">
<title>Node15&#45;&gt;Node16</title>
<path fill="none" stroke="midnightblue" d="M518.45,-147.89C510.46,-136.84 501.09,-123.89 494.11,-114.25"/>
<polygon fill="midnightblue" stroke="midnightblue" points="515.79,-150.18 524.49,-156.23 521.46,-146.08 515.79,-150.18"/>
</g>
<!-- Node15&#45;&gt;Node17 -->
<g id="edge9" class="edge">
<title>Node15&#45;&gt;Node17</title>
<path fill="none" stroke="midnightblue" d="M596.81,-153.82C641.74,-141.73 701.83,-125.56 744.38,-114.11"/>
<polygon fill="midnightblue" stroke="midnightblue" points="595.63,-150.51 586.88,-156.49 597.45,-157.27 595.63,-150.51"/>
</g>
<!-- Node15&#45;&gt;Node19 -->
<g id="edge11" class="edge">
<title>Node15&#45;&gt;Node19</title>
<path fill="none" stroke="midnightblue" d="M565.08,-150.92C583.16,-139.22 605.72,-124.63 622.05,-114.07"/>
<polygon fill="midnightblue" stroke="midnightblue" points="563.1,-148.03 556.6,-156.4 566.9,-153.91 563.1,-148.03"/>
</g>
<!-- Node17&#45;&gt;Node18 -->
<g id="edge10" class="edge">
<title>Node17&#45;&gt;Node18</title>
<path fill="none" stroke="midnightblue" d="M748.43,-80.41C716.55,-68.81 674.75,-53.61 641.79,-41.63"/>
<polygon fill="midnightblue" stroke="midnightblue" points="747.39,-83.75 757.99,-83.88 749.79,-77.18 747.39,-83.75"/>
</g>
<!-- Node20&#45;&gt;Node11 -->
<g id="edge18" class="edge">
<title>Node20&#45;&gt;Node11</title>
<path fill="none" stroke="midnightblue" d="M228.06,-298.08C222.72,-288.07 216.65,-276.11 211.81,-265 191.27,-217.83 193.02,-203.32 172.81,-156 167.56,-143.7 160.89,-130.3 155.38,-119.68"/>
<polygon fill="midnightblue" stroke="midnightblue" points="225.04,-299.86 232.88,-306.98 231.19,-296.53 225.04,-299.86"/>
</g>
<!-- Node20&#45;&gt;Node21 -->
<g id="edge19" class="edge">
<title>Node20&#45;&gt;Node21</title>
<path fill="none" stroke="midnightblue" d="M254.46,-297.95C260.74,-287.33 268.13,-274.85 274.16,-264.68"/>
<polygon fill="midnightblue" stroke="midnightblue" points="251.36,-296.32 249.27,-306.7 257.38,-299.88 251.36,-296.32"/>
</g>
</g>
</svg>
