<?xml version="1.0" encoding="UTF-8" standalone="no"?>
<!DOCTYPE svg PUBLIC "-//W3C//DTD SVG 1.1//EN"
 "http://www.w3.org/Graphics/SVG/1.1/DTD/svg11.dtd">
<!-- Generated by graphviz version 2.43.0 (0)
 -->
<!-- Title: drake/common/random.h Pages: 1 -->
<svg width="1279pt" height="333pt"
 viewBox="0.00 0.00 1278.76 333.02" xmlns="http://www.w3.org/2000/svg" xmlns:xlink="http://www.w3.org/1999/xlink">
<g id="graph0" class="graph" transform="scale(1 1) rotate(0) translate(4 329.02)">
<title>drake/common/random.h</title>
<!-- Node1 -->
<g id="Node000001" class="node">
<title>Node1</title>
<g id="a_Node000001"><a xlink:title=" ">
<ellipse fill="#999999" stroke="#666666" cx="697.62" cy="-311.58" rx="98.08" ry="13.37"/>
<text text-anchor="middle" x="697.62" y="-309.08" font-family="Helvetica,sans-Serif" font-size="10.00">drake/common/random.h</text>
</a>
</g>
</g>
<!-- Node2 -->
<g id="Node000002" class="node">
<title>Node2</title>
<g id="a_Node000002"><a xlink:title=" ">
<ellipse fill="#e0e0e0" stroke="#999999" cx="53.62" cy="-84.08" rx="41.02" ry="13.37"/>
<text text-anchor="middle" x="53.62" y="-81.58" font-family="Helvetica,sans-Serif" font-size="10.00">memory</text>
</a>
</g>
</g>
<!-- Node1&#45;&gt;Node2 -->
<g id="edge1_Node000001_Node000002" class="edge">
<title>Node1&#45;&gt;Node2</title>
<g id="a_edge1_Node000001_Node000002"><a xlink:title=" ">
<path fill="none" stroke="#63b8ff" d="M620.77,-303.15C563.72,-296.24 484.54,-283.67 417.62,-262.15 341.46,-237.66 327.56,-218.7 255.62,-183.72 194.95,-154.23 124.12,-119.59 84.5,-100.21"/>
<polygon fill="#63b8ff" stroke="#63b8ff" points="85.65,-96.87 75.13,-95.62 82.58,-103.16 85.65,-96.87"/>
</a>
</g>
</g>
<!-- Node3 -->
<g id="Node000003" class="node">
<title>Node3</title>
<g id="a_Node000003"><a xlink:title=" ">
<ellipse fill="#e0e0e0" stroke="#999999" cx="940.62" cy="-240.94" rx="38.37" ry="13.37"/>
<text text-anchor="middle" x="940.62" y="-238.44" font-family="Helvetica,sans-Serif" font-size="10.00">random</text>
</a>
</g>
</g>
<!-- Node1&#45;&gt;Node3 -->
<g id="edge2_Node000001_Node000003" class="edge">
<title>Node1&#45;&gt;Node3</title>
<g id="a_edge2_Node000001_Node000003"><a xlink:title=" ">
<path fill="none" stroke="#63b8ff" d="M746.76,-299.87C785.61,-290.98 841.05,-277.36 888.62,-262.15 894.85,-260.15 901.42,-257.8 907.71,-255.43"/>
<polygon fill="#63b8ff" stroke="#63b8ff" points="909.23,-258.59 917.28,-251.71 906.69,-252.07 909.23,-258.59"/>
</a>
</g>
</g>
<!-- Node4 -->
<g id="Node000004" class="node">
<title>Node4</title>
<g id="a_Node000004"><a xlink:title=" ">
<ellipse fill="#e0e0e0" stroke="#999999" cx="1045.62" cy="-240.94" rx="48.58" ry="13.37"/>
<text text-anchor="middle" x="1045.62" y="-238.44" font-family="Helvetica,sans-Serif" font-size="10.00">Eigen/Core</text>
</a>
</g>
</g>
<!-- Node1&#45;&gt;Node4 -->
<g id="edge3_Node000001_Node000004" class="edge">
<title>Node1&#45;&gt;Node4</title>
<g id="a_edge3_Node000001_Node000004"><a xlink:title=" ">
<path fill="none" stroke="#63b8ff" d="M768.34,-302.19C827.49,-294.36 913.81,-281.03 987.62,-262.15 994.79,-260.31 1002.34,-257.99 1009.53,-255.57"/>
<polygon fill="#63b8ff" stroke="#63b8ff" points="1010.76,-258.85 1019.05,-252.26 1008.46,-252.24 1010.76,-258.85"/>
</a>
</g>
</g>
<!-- Node5 -->
<g id="Node000005" class="node">
<title>Node5</title>
<g id="a_Node000005"><a xlink:href="copyable__unique__ptr_8h.html" target="_top" xlink:title=" ">
<ellipse fill="white" stroke="#666666" cx="361.62" cy="-162.51" rx="96.75" ry="21.43"/>
<text text-anchor="start" x="301.12" y="-165.51" font-family="Helvetica,sans-Serif" font-size="10.00">drake/common/copyable</text>
<text text-anchor="middle" x="361.62" y="-154.51" font-family="Helvetica,sans-Serif" font-size="10.00">_unique_ptr.h</text>
</a>
</g>
</g>
<!-- Node1&#45;&gt;Node5 -->
<g id="edge4_Node000001_Node000005" class="edge">
<title>Node1&#45;&gt;Node5</title>
<g id="a_edge4_Node000001_Node000005"><a xlink:title=" ">
<path fill="none" stroke="#63b8ff" d="M622.52,-302.88C579.07,-296.27 524.32,-284.15 479.62,-262.15 443.46,-244.35 408.92,-213.25 386.66,-190.72"/>
<polygon fill="#63b8ff" stroke="#63b8ff" points="389.07,-188.18 379.6,-183.44 384.05,-193.05 389.07,-188.18"/>
</a>
</g>
</g>
<!-- Node8 -->
<g id="Node000008" class="node">
<title>Node8</title>
<g id="a_Node000008"><a xlink:href="drake__assert_8h.html" target="_top" xlink:title="Provides Drake&#39;s assertion mechanics.">
<ellipse fill="white" stroke="#666666" cx="476.62" cy="-84.08" rx="84.29" ry="21.43"/>
<text text-anchor="start" x="425.12" y="-87.08" font-family="Helvetica,sans-Serif" font-size="10.00">drake/common/drake</text>
<text text-anchor="middle" x="476.62" y="-76.08" font-family="Helvetica,sans-Serif" font-size="10.00">_assert.h</text>
</a>
</g>
</g>
<!-- Node1&#45;&gt;Node8 -->
<g id="edge19_Node000001_Node000008" class="edge">
<title>Node1&#45;&gt;Node8</title>
<g id="a_edge19_Node000001_Node000008"><a xlink:title=" ">
<path fill="none" stroke="#63b8ff" d="M684.03,-298C673.66,-288.32 659.09,-274.55 646.62,-262.15 594.37,-210.18 535.14,-147.63 502.2,-112.51"/>
<polygon fill="#63b8ff" stroke="#63b8ff" points="504.58,-109.93 495.19,-105.02 499.47,-114.71 504.58,-109.93"/>
</a>
</g>
</g>
<!-- Node16 -->
<g id="Node000016" class="node">
<title>Node16</title>
<g id="a_Node000016"><a xlink:href="drake__copyable_8h.html" target="_top" xlink:title="Provides careful macros to selectively enable or disable the special member functions for copy&#45;constr...">
<ellipse fill="white" stroke="#666666" cx="1186.62" cy="-84.08" rx="84.29" ry="21.43"/>
<text text-anchor="start" x="1135.12" y="-87.08" font-family="Helvetica,sans-Serif" font-size="10.00">drake/common/drake</text>
<text text-anchor="middle" x="1186.62" y="-76.08" font-family="Helvetica,sans-Serif" font-size="10.00">_copyable.h</text>
</a>
</g>
</g>
<!-- Node1&#45;&gt;Node16 -->
<g id="edge20_Node000001_Node000016" class="edge">
<title>Node1&#45;&gt;Node16</title>
<g id="a_edge20_Node000001_Node000016"><a xlink:title=" ">
<path fill="none" stroke="#63b8ff" d="M755.66,-300.69C787.03,-293.47 825.4,-281.47 855.62,-262.15 876.95,-248.51 873.25,-234.75 893.62,-219.72 966.53,-165.94 1064.36,-126.35 1126.45,-104.5"/>
<polygon fill="#63b8ff" stroke="#63b8ff" points="1127.81,-107.73 1136.11,-101.15 1125.51,-101.12 1127.81,-107.73"/>
</a>
</g>
</g>
<!-- Node17 -->
<g id="Node000017" class="node">
<title>Node17</title>
<g id="a_Node000017"><a xlink:href="eigen__types_8h.html" target="_top" xlink:title="This file contains abbreviated definitions for certain specializations of Eigen::Matrix that are comm...">
<ellipse fill="white" stroke="#666666" cx="759.62" cy="-162.51" rx="84.29" ry="21.43"/>
<text text-anchor="start" x="708.12" y="-165.51" font-family="Helvetica,sans-Serif" font-size="10.00">drake/common/eigen</text>
<text text-anchor="middle" x="759.62" y="-154.51" font-family="Helvetica,sans-Serif" font-size="10.00">_types.h</text>
</a>
</g>
</g>
<!-- Node1&#45;&gt;Node17 -->
<g id="edge21_Node000001_Node000017" class="edge">
<title>Node1&#45;&gt;Node17</title>
<g id="a_edge21_Node000001_Node000017"><a xlink:title=" ">
<path fill="none" stroke="#63b8ff" d="M683.2,-298.23C673.94,-289.28 662.71,-276.31 657.62,-262.15 651.24,-244.41 648.03,-235.96 657.62,-219.72 666.99,-203.86 682.61,-192.17 698.85,-183.69"/>
<polygon fill="#63b8ff" stroke="#63b8ff" points="700.43,-186.81 707.9,-179.3 697.37,-180.51 700.43,-186.81"/>
</a>
</g>
</g>
<!-- Node21 -->
<g id="Node000021" class="node">
<title>Node21</title>
<g id="a_Node000021"><a xlink:href="extract__double_8h.html" target="_top" xlink:title=" ">
<ellipse fill="white" stroke="#666666" cx="756.62" cy="-240.94" rx="89.61" ry="21.43"/>
<text text-anchor="start" x="701.12" y="-243.94" font-family="Helvetica,sans-Serif" font-size="10.00">drake/common/extract</text>
<text text-anchor="middle" x="756.62" y="-232.94" font-family="Helvetica,sans-Serif" font-size="10.00">_double.h</text>
</a>
</g>
</g>
<!-- Node1&#45;&gt;Node21 -->
<g id="edge28_Node000001_Node000021" class="edge">
<title>Node1&#45;&gt;Node21</title>
<g id="a_edge28_Node000001_Node000021"><a xlink:title=" ">
<path fill="none" stroke="#63b8ff" d="M708.44,-297.99C715.27,-290.05 724.36,-279.47 732.8,-269.65"/>
<polygon fill="#63b8ff" stroke="#63b8ff" points="735.52,-271.86 739.38,-261.99 730.21,-267.3 735.52,-271.86"/>
</a>
</g>
</g>
<!-- Node5&#45;&gt;Node2 -->
<g id="edge6_Node000005_Node000002" class="edge">
<title>Node5&#45;&gt;Node2</title>
<g id="a_edge6_Node000005_Node000002"><a xlink:title=" ">
<path fill="none" stroke="#63b8ff" d="M287.36,-148.79C235.34,-139.05 164.51,-124.09 103.62,-105.3 97.83,-103.51 91.77,-101.34 85.95,-99.08"/>
<polygon fill="#63b8ff" stroke="#63b8ff" points="87.06,-95.75 76.47,-95.27 84.45,-102.25 87.06,-95.75"/>
</a>
</g>
</g>
<!-- Node6 -->
<g id="Node000006" class="node">
<title>Node6</title>
<g id="a_Node000006"><a xlink:title=" ">
<ellipse fill="#e0e0e0" stroke="#999999" cx="336.62" cy="-84.08" rx="37.45" ry="13.37"/>
<text text-anchor="middle" x="336.62" y="-81.58" font-family="Helvetica,sans-Serif" font-size="10.00">cstddef</text>
</a>
</g>
</g>
<!-- Node5&#45;&gt;Node6 -->
<g id="edge5_Node000005_Node000006" class="edge">
<title>Node5&#45;&gt;Node6</title>
<g id="a_edge5_Node000005_Node000006"><a xlink:title=" ">
<path fill="none" stroke="#63b8ff" d="M354.92,-141.03C351.53,-130.68 347.42,-118.11 343.95,-107.5"/>
<polygon fill="#63b8ff" stroke="#63b8ff" points="347.18,-106.13 340.75,-97.71 340.53,-108.3 347.18,-106.13"/>
</a>
</g>
</g>
<!-- Node7 -->
<g id="Node000007" class="node">
<title>Node7</title>
<g id="a_Node000007"><a xlink:title=" ">
<ellipse fill="#e0e0e0" stroke="#999999" cx="632.62" cy="-13.44" rx="31.64" ry="13.37"/>
<text text-anchor="middle" x="632.62" y="-10.94" font-family="Helvetica,sans-Serif" font-size="10.00">utility</text>
</a>
</g>
</g>
<!-- Node5&#45;&gt;Node7 -->
<g id="edge7_Node000005_Node000007" class="edge">
<title>Node5&#45;&gt;Node7</title>
<g id="a_edge7_Node000005_Node000007"><a xlink:title=" ">
<path fill="none" stroke="#63b8ff" d="M446.59,-152.24C486.74,-144.61 533.62,-130.68 569.62,-105.3 582.91,-95.92 606.22,-59.13 620.45,-35.33"/>
<polygon fill="#63b8ff" stroke="#63b8ff" points="623.52,-37.03 625.6,-26.64 617.49,-33.46 623.52,-37.03"/>
</a>
</g>
</g>
<!-- Node5&#45;&gt;Node8 -->
<g id="edge8_Node000005_Node000008" class="edge">
<title>Node5&#45;&gt;Node8</title>
<g id="a_edge8_Node000005_Node000008"><a xlink:title=" ">
<path fill="none" stroke="#63b8ff" d="M390.64,-142.22C405.46,-132.37 423.66,-120.28 439.49,-109.76"/>
<polygon fill="#63b8ff" stroke="#63b8ff" points="441.62,-112.55 448.01,-104.1 437.74,-106.72 441.62,-112.55"/>
</a>
</g>
</g>
<!-- Node13 -->
<g id="Node000013" class="node">
<title>Node13</title>
<g id="a_Node000013"><a xlink:href="fmt_8h.html" target="_top" xlink:title=" ">
<ellipse fill="white" stroke="#666666" cx="196.62" cy="-84.08" rx="84.29" ry="13.37"/>
<text text-anchor="middle" x="196.62" y="-81.58" font-family="Helvetica,sans-Serif" font-size="10.00">drake/common/fmt.h</text>
</a>
</g>
</g>
<!-- Node5&#45;&gt;Node13 -->
<g id="edge14_Node000005_Node000013" class="edge">
<title>Node5&#45;&gt;Node13</title>
<g id="a_edge14_Node000005_Node000013"><a xlink:title=" ">
<path fill="none" stroke="#63b8ff" d="M321.68,-143.01C294.16,-130.26 257.93,-113.48 231.56,-101.27"/>
<polygon fill="#63b8ff" stroke="#63b8ff" points="232.87,-98.02 222.32,-96.99 229.92,-104.37 232.87,-98.02"/>
</a>
</g>
</g>
<!-- Node8&#45;&gt;Node7 -->
<g id="edge13_Node000008_Node000007" class="edge">
<title>Node8&#45;&gt;Node7</title>
<g id="a_edge13_Node000008_Node000007"><a xlink:title=" ">
<path fill="none" stroke="#63b8ff" d="M516.79,-65.4C543.45,-53.67 577.89,-38.52 602.27,-27.79"/>
<polygon fill="#63b8ff" stroke="#63b8ff" points="603.98,-30.86 611.72,-23.63 601.16,-24.46 603.98,-30.86"/>
</a>
</g>
</g>
<!-- Node9 -->
<g id="Node000009" class="node">
<title>Node9</title>
<g id="a_Node000009"><a xlink:title=" ">
<ellipse fill="#e0e0e0" stroke="#999999" cx="476.62" cy="-13.44" rx="29.9" ry="13.37"/>
<text text-anchor="middle" x="476.62" y="-10.94" font-family="Helvetica,sans-Serif" font-size="10.00">array</text>
</a>
</g>
</g>
<!-- Node8&#45;&gt;Node9 -->
<g id="edge9_Node000008_Node000009" class="edge">
<title>Node8&#45;&gt;Node9</title>
<g id="a_edge9_Node000008_Node000009"><a xlink:title=" ">
<path fill="none" stroke="#63b8ff" d="M476.62,-62.86C476.62,-54.83 476.62,-45.55 476.62,-37.28"/>
<polygon fill="#63b8ff" stroke="#63b8ff" points="480.12,-37.18 476.62,-27.18 473.12,-37.18 480.12,-37.18"/>
</a>
</g>
</g>
<!-- Node10 -->
<g id="Node000010" class="node">
<title>Node10</title>
<g id="a_Node000010"><a xlink:title=" ">
<ellipse fill="#e0e0e0" stroke="#999999" cx="397.62" cy="-13.44" rx="31.23" ry="13.37"/>
<text text-anchor="middle" x="397.62" y="-10.94" font-family="Helvetica,sans-Serif" font-size="10.00">string</text>
</a>
</g>
</g>
<!-- Node8&#45;&gt;Node10 -->
<g id="edge10_Node000008_Node000010" class="edge">
<title>Node8&#45;&gt;Node10</title>
<g id="a_edge10_Node000008_Node000010"><a xlink:title=" ">
<path fill="none" stroke="#63b8ff" d="M454.19,-63.6C443,-53.87 429.53,-42.17 418.55,-32.62"/>
<polygon fill="#63b8ff" stroke="#63b8ff" points="420.56,-29.73 410.71,-25.81 415.97,-35.02 420.56,-29.73"/>
</a>
</g>
</g>
<!-- Node11 -->
<g id="Node000011" class="node">
<title>Node11</title>
<g id="a_Node000011"><a xlink:title=" ">
<ellipse fill="#e0e0e0" stroke="#999999" cx="553.62" cy="-13.44" rx="28.98" ry="13.37"/>
<text text-anchor="middle" x="553.62" y="-10.94" font-family="Helvetica,sans-Serif" font-size="10.00">tuple</text>
</a>
</g>
</g>
<!-- Node8&#45;&gt;Node11 -->
<g id="edge11_Node000008_Node000011" class="edge">
<title>Node8&#45;&gt;Node11</title>
<g id="a_edge11_Node000008_Node000011"><a xlink:title=" ">
<path fill="none" stroke="#63b8ff" d="M498.48,-63.6C509.39,-53.87 522.51,-42.17 533.22,-32.62"/>
<polygon fill="#63b8ff" stroke="#63b8ff" points="535.72,-35.08 540.86,-25.81 531.06,-29.86 535.72,-35.08"/>
</a>
</g>
</g>
<!-- Node12 -->
<g id="Node000012" class="node">
<title>Node12</title>
<g id="a_Node000012"><a xlink:title=" ">
<ellipse fill="#e0e0e0" stroke="#999999" cx="299.62" cy="-13.44" rx="48.58" ry="13.37"/>
<text text-anchor="middle" x="299.62" y="-10.94" font-family="Helvetica,sans-Serif" font-size="10.00">type_traits</text>
</a>
</g>
</g>
<!-- Node8&#45;&gt;Node12 -->
<g id="edge12_Node000008_Node000012" class="edge">
<title>Node8&#45;&gt;Node12</title>
<g id="a_edge12_Node000008_Node000012"><a xlink:title=" ">
<path fill="none" stroke="#63b8ff" d="M432.41,-65.94C402.55,-54.36 363.63,-39.26 335.65,-28.41"/>
<polygon fill="#63b8ff" stroke="#63b8ff" points="336.83,-25.11 326.24,-24.76 334.3,-31.64 336.83,-25.11"/>
</a>
</g>
</g>
<!-- Node13&#45;&gt;Node10 -->
<g id="edge15_Node000013_Node000010" class="edge">
<title>Node13&#45;&gt;Node10</title>
<g id="a_edge15_Node000013_Node000010"><a xlink:title=" ">
<path fill="none" stroke="#63b8ff" d="M230.26,-71.59C267.55,-58.86 327.3,-38.45 364.41,-25.78"/>
<polygon fill="#63b8ff" stroke="#63b8ff" points="365.91,-28.96 374.24,-22.42 363.65,-22.34 365.91,-28.96"/>
</a>
</g>
</g>
<!-- Node13&#45;&gt;Node12 -->
<g id="edge17_Node000013_Node000012" class="edge">
<title>Node13&#45;&gt;Node12</title>
<g id="a_edge17_Node000013_Node000012"><a xlink:title=" ">
<path fill="none" stroke="#63b8ff" d="M215.03,-70.81C231.34,-59.94 255.33,-43.95 273.6,-31.78"/>
<polygon fill="#63b8ff" stroke="#63b8ff" points="275.67,-34.6 282.05,-26.14 271.79,-28.78 275.67,-34.6"/>
</a>
</g>
</g>
<!-- Node14 -->
<g id="Node000014" class="node">
<title>Node14</title>
<g id="a_Node000014"><a xlink:title=" ">
<ellipse fill="#e0e0e0" stroke="#999999" cx="51.62" cy="-13.44" rx="51.74" ry="13.37"/>
<text text-anchor="middle" x="51.62" y="-10.94" font-family="Helvetica,sans-Serif" font-size="10.00">string_view</text>
</a>
</g>
</g>
<!-- Node13&#45;&gt;Node14 -->
<g id="edge16_Node000013_Node000014" class="edge">
<title>Node13&#45;&gt;Node14</title>
<g id="a_edge16_Node000013_Node000014"><a xlink:title=" ">
<path fill="none" stroke="#63b8ff" d="M171.36,-71.13C147.23,-59.7 110.72,-42.41 84.36,-29.93"/>
<polygon fill="#63b8ff" stroke="#63b8ff" points="85.68,-26.69 75.15,-25.57 82.69,-33.02 85.68,-26.69"/>
</a>
</g>
</g>
<!-- Node15 -->
<g id="Node000015" class="node">
<title>Node15</title>
<g id="a_Node000015"><a xlink:title=" ">
<ellipse fill="#e0e0e0" stroke="#999999" cx="176.62" cy="-13.44" rx="55.72" ry="13.37"/>
<text text-anchor="middle" x="176.62" y="-10.94" font-family="Helvetica,sans-Serif" font-size="10.00">fmt/format.h</text>
</a>
</g>
</g>
<!-- Node13&#45;&gt;Node15 -->
<g id="edge18_Node000013_Node000015" class="edge">
<title>Node13&#45;&gt;Node15</title>
<g id="a_edge18_Node000013_Node000015"><a xlink:title=" ">
<path fill="none" stroke="#63b8ff" d="M192.95,-70.49C190.22,-61.11 186.41,-48.04 183.16,-36.88"/>
<polygon fill="#63b8ff" stroke="#63b8ff" points="186.42,-35.57 180.26,-26.95 179.7,-37.53 186.42,-35.57"/>
</a>
</g>
</g>
<!-- Node17&#45;&gt;Node7 -->
<g id="edge23_Node000017_Node000007" class="edge">
<title>Node17&#45;&gt;Node7</title>
<g id="a_edge23_Node000017_Node000007"><a xlink:title=" ">
<path fill="none" stroke="#63b8ff" d="M821.98,-148.22C878.36,-135.57 953.86,-116.81 962.62,-105.3 974.04,-90.29 974.95,-77.14 962.62,-62.87 925.89,-20.36 755.25,-14.47 674.8,-14.1"/>
<polygon fill="#63b8ff" stroke="#63b8ff" points="674.54,-10.6 664.53,-14.08 674.53,-17.6 674.54,-10.6"/>
</a>
</g>
</g>
<!-- Node17&#45;&gt;Node8 -->
<g id="edge26_Node000017_Node000008" class="edge">
<title>Node17&#45;&gt;Node8</title>
<g id="a_edge26_Node000017_Node000008"><a xlink:title=" ">
<path fill="none" stroke="#63b8ff" d="M704.04,-146.5C657.51,-133.93 591.02,-115.98 541.95,-102.73"/>
<polygon fill="#63b8ff" stroke="#63b8ff" points="542.63,-99.29 532.07,-100.06 540.81,-106.04 542.63,-99.29"/>
</a>
</g>
</g>
<!-- Node17&#45;&gt;Node16 -->
<g id="edge27_Node000017_Node000016" class="edge">
<title>Node17&#45;&gt;Node16</title>
<g id="a_edge27_Node000017_Node000016"><a xlink:title=" ">
<path fill="none" stroke="#63b8ff" d="M822.84,-148.42C835.35,-145.95 848.38,-143.47 860.62,-141.3 963.36,-123.05 990.01,-124.27 1092.62,-105.3 1100.12,-103.91 1107.94,-102.37 1115.72,-100.79"/>
<polygon fill="#63b8ff" stroke="#63b8ff" points="1116.46,-104.21 1125.54,-98.75 1115.04,-97.35 1116.46,-104.21"/>
</a>
</g>
</g>
<!-- Node18 -->
<g id="Node000018" class="node">
<title>Node18</title>
<g id="a_Node000018"><a xlink:title=" ">
<ellipse fill="#e0e0e0" stroke="#999999" cx="1046.62" cy="-84.08" rx="37.45" ry="13.37"/>
<text text-anchor="middle" x="1046.62" y="-81.58" font-family="Helvetica,sans-Serif" font-size="10.00">iterator</text>
</a>
</g>
</g>
<!-- Node17&#45;&gt;Node18 -->
<g id="edge22_Node000017_Node000018" class="edge">
<title>Node17&#45;&gt;Node18</title>
<g id="a_edge22_Node000017_Node000018"><a xlink:title=" ">
<path fill="none" stroke="#63b8ff" d="M823.9,-148.81C871.74,-138.73 938.38,-123.35 995.62,-105.3 1001.82,-103.34 1008.34,-100.99 1014.56,-98.6"/>
<polygon fill="#63b8ff" stroke="#63b8ff" points="1016.02,-101.79 1024.02,-94.85 1013.44,-95.28 1016.02,-101.79"/>
</a>
</g>
</g>
<!-- Node19 -->
<g id="Node000019" class="node">
<title>Node19</title>
<g id="a_Node000019"><a xlink:title=" ">
<ellipse fill="#e0e0e0" stroke="#999999" cx="670.62" cy="-84.08" rx="54.39" ry="13.37"/>
<text text-anchor="middle" x="670.62" y="-81.58" font-family="Helvetica,sans-Serif" font-size="10.00">Eigen/Dense</text>
</a>
</g>
</g>
<!-- Node17&#45;&gt;Node19 -->
<g id="edge24_Node000017_Node000019" class="edge">
<title>Node17&#45;&gt;Node19</title>
<g id="a_edge24_Node000017_Node000019"><a xlink:title=" ">
<path fill="none" stroke="#63b8ff" d="M736.7,-141.83C723.14,-130.18 706.04,-115.5 692.64,-103.99"/>
<polygon fill="#63b8ff" stroke="#63b8ff" points="694.7,-101.15 684.84,-97.29 690.14,-106.46 694.7,-101.15"/>
</a>
</g>
</g>
<!-- Node20 -->
<g id="Node000020" class="node">
<title>Node20</title>
<g id="a_Node000020"><a xlink:href="constants_8h.html" target="_top" xlink:title=" ">
<ellipse fill="white" stroke="#666666" cx="848.62" cy="-84.08" rx="105.22" ry="13.37"/>
<text text-anchor="middle" x="848.62" y="-81.58" font-family="Helvetica,sans-Serif" font-size="10.00">drake/common/constants.h</text>
</a>
</g>
</g>
<!-- Node17&#45;&gt;Node20 -->
<g id="edge25_Node000017_Node000020" class="edge">
<title>Node17&#45;&gt;Node20</title>
<g id="a_edge25_Node000017_Node000020"><a xlink:title=" ">
<path fill="none" stroke="#63b8ff" d="M782.54,-141.83C796.02,-130.25 812.98,-115.69 826.34,-104.21"/>
<polygon fill="#63b8ff" stroke="#63b8ff" points="828.83,-106.69 834.14,-97.52 824.27,-101.38 828.83,-106.69"/>
</a>
</g>
</g>
<!-- Node21&#45;&gt;Node17 -->
<g id="edge29_Node000021_Node000017" class="edge">
<title>Node21&#45;&gt;Node17</title>
<g id="a_edge29_Node000021_Node000017"><a xlink:title=" ">
<path fill="none" stroke="#63b8ff" d="M757.42,-219.46C757.73,-211.6 758.09,-202.45 758.43,-193.86"/>
<polygon fill="#63b8ff" stroke="#63b8ff" points="761.93,-193.91 758.82,-183.78 754.93,-193.64 761.93,-193.91"/>
</a>
</g>
</g>
</g>
</svg>
