<?xml version="1.0" encoding="UTF-8" standalone="no"?>
<!DOCTYPE svg PUBLIC "-//W3C//DTD SVG 1.1//EN"
 "http://www.w3.org/Graphics/SVG/1.1/DTD/svg11.dtd">
<!-- Generated by graphviz version 2.43.0 (0)
 -->
<!-- Title: drake/common/symbolic/rational_function.h Pages: 1 -->
<svg width="992pt" height="452pt"
 viewBox="0.00 0.00 991.50 452.00" xmlns="http://www.w3.org/2000/svg" xmlns:xlink="http://www.w3.org/1999/xlink">
<g id="graph0" class="graph" transform="scale(1 1) rotate(0) translate(4 448)">
<title>drake/common/symbolic/rational_function.h</title>
<polygon fill="white" stroke="transparent" points="-4,4 -4,-448 987.5,-448 987.5,4 -4,4"/>
<!-- Node58 -->
<g id="node1" class="node">
<title>Node58</title>
<g id="a_node1"><a xlink:title=" ">
<polygon fill="#bfbfbf" stroke="black" points="360.5,-413.5 360.5,-443.5 497.5,-443.5 497.5,-413.5 360.5,-413.5"/>
<text text-anchor="start" x="368.5" y="-431.5" font-family="Helvetica,sans-Serif" font-size="10.00">drake/common/symbolic</text>
<text text-anchor="middle" x="429" y="-420.5" font-family="Helvetica,sans-Serif" font-size="10.00">/rational_function.h</text>
</a>
</g>
</g>
<!-- Node59 -->
<g id="node2" class="node">
<title>Node59</title>
<g id="a_node2"><a xlink:href="symbolic__types__pybind_8h.html" target="_top" xlink:title=" ">
<polygon fill="white" stroke="black" points="147.5,-346.5 147.5,-376.5 290.5,-376.5 290.5,-346.5 147.5,-346.5"/>
<text text-anchor="start" x="155.5" y="-364.5" font-family="Helvetica,sans-Serif" font-size="10.00">drake/bindings/pydrake</text>
<text text-anchor="middle" x="219" y="-353.5" font-family="Helvetica,sans-Serif" font-size="10.00">/symbolic_types_pybind.h</text>
</a>
</g>
</g>
<!-- Node58&#45;&gt;Node59 -->
<g id="edge1" class="edge">
<title>Node58&#45;&gt;Node59</title>
<path fill="none" stroke="midnightblue" d="M373.9,-410.44C339.86,-399.91 296.7,-386.55 264.59,-376.61"/>
<polygon fill="midnightblue" stroke="midnightblue" points="373.1,-413.86 383.69,-413.48 375.17,-407.18 373.1,-413.86"/>
</g>
<!-- Node62 -->
<g id="node5" class="node">
<title>Node62</title>
<g id="a_node5"><a xlink:href="trigonometric__polynomial_8h.html" target="_top" xlink:title=" ">
<polygon fill="white" stroke="black" points="404.5,-346.5 404.5,-376.5 559.5,-376.5 559.5,-346.5 404.5,-346.5"/>
<text text-anchor="start" x="412.5" y="-364.5" font-family="Helvetica,sans-Serif" font-size="10.00">drake/common/symbolic</text>
<text text-anchor="middle" x="482" y="-353.5" font-family="Helvetica,sans-Serif" font-size="10.00">/trigonometric_polynomial.h</text>
</a>
</g>
</g>
<!-- Node58&#45;&gt;Node62 -->
<g id="edge4" class="edge">
<title>Node58&#45;&gt;Node62</title>
<path fill="none" stroke="midnightblue" d="M446.98,-405.45C454.77,-395.9 463.65,-385 470.52,-376.58"/>
<polygon fill="midnightblue" stroke="midnightblue" points="444.11,-403.43 440.5,-413.4 449.53,-407.86 444.11,-403.43"/>
</g>
<!-- Node63 -->
<g id="node6" class="node">
<title>Node63</title>
<g id="a_node6"><a xlink:href="rational__forward__kinematics_8h.html" target="_top" xlink:title=" ">
<polygon fill="white" stroke="black" points="418,-274 418,-304 586,-304 586,-274 418,-274"/>
<text text-anchor="start" x="426" y="-292" font-family="Helvetica,sans-Serif" font-size="10.00">drake/multibody/rational</text>
<text text-anchor="middle" x="502" y="-281" font-family="Helvetica,sans-Serif" font-size="10.00">/rational_forward_kinematics.h</text>
</a>
</g>
</g>
<!-- Node58&#45;&gt;Node63 -->
<g id="edge29" class="edge">
<title>Node58&#45;&gt;Node63</title>
<path fill="none" stroke="midnightblue" d="M408.58,-405.17C395.74,-388.28 383.57,-364.88 395,-346 407.21,-325.82 429.36,-312.56 450.34,-304.04"/>
<polygon fill="midnightblue" stroke="midnightblue" points="406.21,-407.8 415.24,-413.34 411.64,-403.38 406.21,-407.8"/>
</g>
<!-- Node68 -->
<g id="node11" class="node">
<title>Node68</title>
<g id="a_node11"><a xlink:href="cspace__free__structs_8h.html" target="_top" xlink:title=" ">
<polygon fill="white" stroke="black" points="171,-134.5 171,-164.5 329,-164.5 329,-134.5 171,-134.5"/>
<text text-anchor="start" x="179" y="-152.5" font-family="Helvetica,sans-Serif" font-size="10.00">drake/geometry/optimization</text>
<text text-anchor="middle" x="250" y="-141.5" font-family="Helvetica,sans-Serif" font-size="10.00">/cspace_free_structs.h</text>
</a>
</g>
</g>
<!-- Node58&#45;&gt;Node68 -->
<g id="edge30" class="edge">
<title>Node58&#45;&gt;Node68</title>
<path fill="none" stroke="midnightblue" d="M409.56,-405.59C402.19,-396.92 393.92,-386.71 387,-377 332.35,-300.26 277.37,-201.18 257.64,-164.75"/>
<polygon fill="midnightblue" stroke="midnightblue" points="407.09,-408.09 416.27,-413.37 412.39,-403.52 407.09,-408.09"/>
</g>
<!-- Node75 -->
<g id="node18" class="node">
<title>Node75</title>
<g id="a_node18"><a xlink:href="symbolic__test__util_8h.html" target="_top" xlink:title="This file provides a set of predicates which can be used with GTEST&#39;s ASSERT/EXPECT_PRED{n} macros.">
<polygon fill="white" stroke="black" points="577.5,-346.5 577.5,-376.5 730.5,-376.5 730.5,-346.5 577.5,-346.5"/>
<text text-anchor="start" x="585.5" y="-364.5" font-family="Helvetica,sans-Serif" font-size="10.00">drake/common/test_utilities</text>
<text text-anchor="middle" x="654" y="-353.5" font-family="Helvetica,sans-Serif" font-size="10.00">/symbolic_test_util.h</text>
</a>
</g>
</g>
<!-- Node58&#45;&gt;Node75 -->
<g id="edge28" class="edge">
<title>Node58&#45;&gt;Node75</title>
<path fill="none" stroke="midnightblue" d="M487.57,-410.58C524.11,-400.02 570.6,-386.59 605.15,-376.61"/>
<polygon fill="midnightblue" stroke="midnightblue" points="486.18,-407.34 477.54,-413.48 488.12,-414.06 486.18,-407.34"/>
</g>
<!-- Node76 -->
<g id="node19" class="node">
<title>Node76</title>
<g id="a_node19"><a xlink:href="transfer__function_8h.html" target="_top" xlink:title=" ">
<polygon fill="white" stroke="black" points="749,-346.5 749,-376.5 889,-376.5 889,-346.5 749,-346.5"/>
<text text-anchor="start" x="757" y="-364.5" font-family="Helvetica,sans-Serif" font-size="10.00">drake/systems/primitives</text>
<text text-anchor="middle" x="819" y="-353.5" font-family="Helvetica,sans-Serif" font-size="10.00">/transfer_function.h</text>
</a>
</g>
</g>
<!-- Node58&#45;&gt;Node76 -->
<g id="edge31" class="edge">
<title>Node58&#45;&gt;Node76</title>
<path fill="none" stroke="midnightblue" d="M507.91,-415.04C570.6,-405.05 660.48,-390.51 739,-377 742.2,-376.45 745.47,-375.88 748.77,-375.3"/>
<polygon fill="midnightblue" stroke="midnightblue" points="507.03,-411.64 497.7,-416.67 508.13,-418.55 507.03,-411.64"/>
</g>
<!-- Node60 -->
<g id="node3" class="node">
<title>Node60</title>
<g id="a_node3"><a xlink:href="default__scalars__pybind_8h.html" target="_top" xlink:title="Helpers for defining scalars and values.">
<polygon fill="white" stroke="black" points="0,-268.5 0,-309.5 140,-309.5 140,-268.5 0,-268.5"/>
<text text-anchor="start" x="8" y="-297.5" font-family="Helvetica,sans-Serif" font-size="10.00">drake/bindings/pydrake</text>
<text text-anchor="start" x="8" y="-286.5" font-family="Helvetica,sans-Serif" font-size="10.00">/common/default_scalars</text>
<text text-anchor="middle" x="70" y="-275.5" font-family="Helvetica,sans-Serif" font-size="10.00">_pybind.h</text>
</a>
</g>
</g>
<!-- Node59&#45;&gt;Node60 -->
<g id="edge2" class="edge">
<title>Node59&#45;&gt;Node60</title>
<path fill="none" stroke="midnightblue" d="M179.89,-342C158.79,-332.01 132.74,-319.69 111.31,-309.55"/>
<polygon fill="midnightblue" stroke="midnightblue" points="178.67,-345.29 189.21,-346.4 181.66,-338.96 178.67,-345.29"/>
</g>
<!-- Node61 -->
<g id="node4" class="node">
<title>Node61</title>
<g id="a_node4"><a xlink:href="symbolic__py__unapply_8h.html" target="_top" xlink:title=" ">
<polygon fill="white" stroke="black" points="158,-268.5 158,-309.5 288,-309.5 288,-268.5 158,-268.5"/>
<text text-anchor="start" x="166" y="-297.5" font-family="Helvetica,sans-Serif" font-size="10.00">drake/bindings/pydrake</text>
<text text-anchor="start" x="166" y="-286.5" font-family="Helvetica,sans-Serif" font-size="10.00">/symbolic/symbolic_py</text>
<text text-anchor="middle" x="223" y="-275.5" font-family="Helvetica,sans-Serif" font-size="10.00">_unapply.h</text>
</a>
</g>
</g>
<!-- Node59&#45;&gt;Node61 -->
<g id="edge3" class="edge">
<title>Node59&#45;&gt;Node61</title>
<path fill="none" stroke="midnightblue" d="M220.39,-335.98C220.88,-327.35 221.42,-317.76 221.89,-309.59"/>
<polygon fill="midnightblue" stroke="midnightblue" points="216.88,-336.05 219.81,-346.23 223.87,-336.45 216.88,-336.05"/>
</g>
<!-- Node62&#45;&gt;Node63 -->
<g id="edge5" class="edge">
<title>Node62&#45;&gt;Node63</title>
<path fill="none" stroke="midnightblue" d="M488.79,-336.56C491.84,-325.82 495.33,-313.51 497.96,-304.25"/>
<polygon fill="midnightblue" stroke="midnightblue" points="485.41,-335.66 486.05,-346.23 492.14,-337.57 485.41,-335.66"/>
</g>
<!-- Node64 -->
<g id="node7" class="node">
<title>Node64</title>
<g id="a_node7"><a xlink:href="c__iris__collision__geometry_8h.html" target="_top" xlink:title=" ">
<polygon fill="white" stroke="black" points="423,-201.5 423,-231.5 581,-231.5 581,-201.5 423,-201.5"/>
<text text-anchor="start" x="431" y="-219.5" font-family="Helvetica,sans-Serif" font-size="10.00">drake/geometry/optimization</text>
<text text-anchor="middle" x="502" y="-208.5" font-family="Helvetica,sans-Serif" font-size="10.00">/c_iris_collision_geometry.h</text>
</a>
</g>
</g>
<!-- Node63&#45;&gt;Node64 -->
<g id="edge6" class="edge">
<title>Node63&#45;&gt;Node64</title>
<path fill="none" stroke="midnightblue" d="M502,-263.73C502,-253.07 502,-240.91 502,-231.75"/>
<polygon fill="midnightblue" stroke="midnightblue" points="498.5,-263.73 502,-273.73 505.5,-263.73 498.5,-263.73"/>
</g>
<!-- Node65 -->
<g id="node8" class="node">
<title>Node65</title>
<g id="a_node8"><a xlink:href="cspace__free__polytope__base_8h.html" target="_top" xlink:title=" ">
<polygon fill="white" stroke="black" points="279,-67.5 279,-97.5 443,-97.5 443,-67.5 279,-67.5"/>
<text text-anchor="start" x="287" y="-85.5" font-family="Helvetica,sans-Serif" font-size="10.00">drake/geometry/optimization</text>
<text text-anchor="middle" x="361" y="-74.5" font-family="Helvetica,sans-Serif" font-size="10.00">/cspace_free_polytope_base.h</text>
</a>
</g>
</g>
<!-- Node63&#45;&gt;Node65 -->
<g id="edge20" class="edge">
<title>Node63&#45;&gt;Node65</title>
<path fill="none" stroke="midnightblue" d="M461.63,-269.05C445.17,-259.75 426.99,-247.23 414,-232 379.36,-191.39 366.74,-126.48 362.69,-97.86"/>
<polygon fill="midnightblue" stroke="midnightblue" points="460.1,-272.2 470.56,-273.89 463.44,-266.05 460.1,-272.2"/>
</g>
<!-- Node67 -->
<g id="node10" class="node">
<title>Node67</title>
<g id="a_node10"><a xlink:href="cspace__free__polytope_8h.html" target="_top" xlink:title=" ">
<polygon fill="white" stroke="black" points="476,-0.5 476,-30.5 634,-30.5 634,-0.5 476,-0.5"/>
<text text-anchor="start" x="484" y="-18.5" font-family="Helvetica,sans-Serif" font-size="10.00">drake/geometry/optimization</text>
<text text-anchor="middle" x="555" y="-7.5" font-family="Helvetica,sans-Serif" font-size="10.00">/cspace_free_polytope.h</text>
</a>
</g>
</g>
<!-- Node63&#45;&gt;Node67 -->
<g id="edge22" class="edge">
<title>Node63&#45;&gt;Node67</title>
<path fill="none" stroke="midnightblue" d="M558.61,-269.92C577.74,-261.23 597.62,-248.93 611,-232 649.03,-183.88 636.61,-158.89 644,-98 645.66,-84.32 650.93,-78.91 644,-67 634.17,-50.11 616.35,-38.41 599.23,-30.56"/>
<polygon fill="midnightblue" stroke="midnightblue" points="557.12,-266.74 549.3,-273.9 559.87,-273.18 557.12,-266.74"/>
</g>
<!-- Node69 -->
<g id="node12" class="node">
<title>Node69</title>
<g id="a_node12"><a xlink:href="cspace__free__internal_8h.html" target="_top" xlink:title=" ">
<polygon fill="white" stroke="black" points="461,-67.5 461,-97.5 619,-97.5 619,-67.5 461,-67.5"/>
<text text-anchor="start" x="469" y="-85.5" font-family="Helvetica,sans-Serif" font-size="10.00">drake/geometry/optimization</text>
<text text-anchor="middle" x="540" y="-74.5" font-family="Helvetica,sans-Serif" font-size="10.00">/cspace_free_internal.h</text>
</a>
</g>
</g>
<!-- Node63&#45;&gt;Node69 -->
<g id="edge21" class="edge">
<title>Node63&#45;&gt;Node69</title>
<path fill="none" stroke="midnightblue" d="M545.23,-269.25C561.48,-260.19 578.74,-247.8 590,-232 607.77,-207.07 602.42,-195.41 606,-165 607.61,-151.32 612.1,-146.35 606,-134 598.2,-118.22 582.85,-106.01 568.91,-97.55"/>
<polygon fill="midnightblue" stroke="midnightblue" points="543.55,-266.17 536.35,-273.94 546.82,-272.36 543.55,-266.17"/>
</g>
<!-- Node71 -->
<g id="node14" class="node">
<title>Node71</title>
<g id="a_node14"><a xlink:href="iris__common_8h.html" target="_top" xlink:title=" ">
<polygon fill="white" stroke="black" points="751.5,-201.5 751.5,-231.5 858.5,-231.5 858.5,-201.5 751.5,-201.5"/>
<text text-anchor="start" x="759.5" y="-219.5" font-family="Helvetica,sans-Serif" font-size="10.00">drake/planning/iris</text>
<text text-anchor="middle" x="805" y="-208.5" font-family="Helvetica,sans-Serif" font-size="10.00">/iris_common.h</text>
</a>
</g>
</g>
<!-- Node63&#45;&gt;Node71 -->
<g id="edge23" class="edge">
<title>Node63&#45;&gt;Node71</title>
<path fill="none" stroke="midnightblue" d="M572.19,-271.67C626.85,-258.95 701.59,-241.56 751.48,-229.95"/>
<polygon fill="midnightblue" stroke="midnightblue" points="571.17,-268.31 562.23,-273.99 572.76,-275.13 571.17,-268.31"/>
</g>
<!-- Node64&#45;&gt;Node65 -->
<g id="edge7" class="edge">
<title>Node64&#45;&gt;Node65</title>
<path fill="none" stroke="midnightblue" d="M460.44,-196.86C444.76,-188.56 427.48,-177.75 414,-165 392.91,-145.05 376.23,-115.12 367.56,-97.62"/>
<polygon fill="midnightblue" stroke="midnightblue" points="458.94,-200.03 469.44,-201.46 462.13,-193.79 458.94,-200.03"/>
</g>
<!-- Node64&#45;&gt;Node67 -->
<g id="edge19" class="edge">
<title>Node64&#45;&gt;Node67</title>
<path fill="none" stroke="midnightblue" d="M559.51,-197.41C576.39,-189.71 593.63,-179.16 606,-165 626.62,-141.4 623.05,-128.95 628,-98 630.18,-84.4 634.4,-79.2 628,-67 619.56,-50.89 603.39,-38.91 588.41,-30.66"/>
<polygon fill="midnightblue" stroke="midnightblue" points="558.01,-194.25 550.19,-201.4 560.76,-200.68 558.01,-194.25"/>
</g>
<!-- Node64&#45;&gt;Node68 -->
<g id="edge10" class="edge">
<title>Node64&#45;&gt;Node68</title>
<path fill="none" stroke="midnightblue" d="M437.71,-198.92C396.59,-188.31 343.82,-174.7 304.71,-164.61"/>
<polygon fill="midnightblue" stroke="midnightblue" points="437.07,-202.37 447.63,-201.48 438.82,-195.59 437.07,-202.37"/>
</g>
<!-- Node64&#45;&gt;Node69 -->
<g id="edge18" class="edge">
<title>Node64&#45;&gt;Node69</title>
<path fill="none" stroke="midnightblue" d="M554.89,-196.7C568.75,-189.09 582.03,-178.75 590,-165 603.89,-141.01 578.38,-113.64 558.97,-97.5"/>
<polygon fill="midnightblue" stroke="midnightblue" points="553.09,-193.69 545.75,-201.32 556.25,-199.93 553.09,-193.69"/>
</g>
<!-- Node70 -->
<g id="node13" class="node">
<title>Node70</title>
<g id="a_node13"><a xlink:href="cspace__separating__plane_8h.html" target="_top" xlink:title="This file is used in our C&#45;IRIS algorithm and will be used in our C&#45;Space path certifier,...">
<polygon fill="white" stroke="black" points="423,-134.5 423,-164.5 581,-164.5 581,-134.5 423,-134.5"/>
<text text-anchor="start" x="431" y="-152.5" font-family="Helvetica,sans-Serif" font-size="10.00">drake/geometry/optimization</text>
<text text-anchor="middle" x="502" y="-141.5" font-family="Helvetica,sans-Serif" font-size="10.00">/cspace_separating_plane.h</text>
</a>
</g>
</g>
<!-- Node64&#45;&gt;Node70 -->
<g id="edge15" class="edge">
<title>Node64&#45;&gt;Node70</title>
<path fill="none" stroke="midnightblue" d="M502,-191.11C502,-182.15 502,-172.32 502,-164.58"/>
<polygon fill="midnightblue" stroke="midnightblue" points="498.5,-191.4 502,-201.4 505.5,-191.4 498.5,-191.4"/>
</g>
<!-- Node66 -->
<g id="node9" class="node">
<title>Node66</title>
<g id="a_node9"><a xlink:href="cspace__free__box_8h.html" target="_top" xlink:title=" ">
<polygon fill="white" stroke="black" points="208,-0.5 208,-30.5 366,-30.5 366,-0.5 208,-0.5"/>
<text text-anchor="start" x="216" y="-18.5" font-family="Helvetica,sans-Serif" font-size="10.00">drake/geometry/optimization</text>
<text text-anchor="middle" x="287" y="-7.5" font-family="Helvetica,sans-Serif" font-size="10.00">/cspace_free_box.h</text>
</a>
</g>
</g>
<!-- Node65&#45;&gt;Node66 -->
<g id="edge8" class="edge">
<title>Node65&#45;&gt;Node66</title>
<path fill="none" stroke="midnightblue" d="M337.2,-60.6C326.03,-50.78 313.01,-39.34 303.03,-30.58"/>
<polygon fill="midnightblue" stroke="midnightblue" points="335.12,-63.43 344.94,-67.4 339.74,-58.17 335.12,-63.43"/>
</g>
<!-- Node65&#45;&gt;Node67 -->
<g id="edge9" class="edge">
<title>Node65&#45;&gt;Node67</title>
<path fill="none" stroke="midnightblue" d="M412.96,-64.09C444.27,-53.6 483.64,-40.41 512.99,-30.58"/>
<polygon fill="midnightblue" stroke="midnightblue" points="411.47,-60.9 403.1,-67.4 413.69,-67.54 411.47,-60.9"/>
</g>
<!-- Node68&#45;&gt;Node65 -->
<g id="edge11" class="edge">
<title>Node68&#45;&gt;Node65</title>
<path fill="none" stroke="midnightblue" d="M282.8,-129.3C300.16,-119.12 321.12,-106.85 336.96,-97.58"/>
<polygon fill="midnightblue" stroke="midnightblue" points="280.95,-126.32 274.09,-134.4 284.48,-132.36 280.95,-126.32"/>
</g>
<!-- Node68&#45;&gt;Node66 -->
<g id="edge12" class="edge">
<title>Node68&#45;&gt;Node66</title>
<path fill="none" stroke="midnightblue" d="M239.71,-124.87C233.97,-108.17 229.37,-85.55 237,-67 243.05,-52.28 255.7,-39.57 266.76,-30.59"/>
<polygon fill="midnightblue" stroke="midnightblue" points="236.51,-126.31 243.32,-134.42 243.05,-123.83 236.51,-126.31"/>
</g>
<!-- Node68&#45;&gt;Node67 -->
<g id="edge14" class="edge">
<title>Node68&#45;&gt;Node67</title>
<path fill="none" stroke="midnightblue" d="M249.31,-124.19C250.18,-105.87 254.52,-81.5 270,-67 299.15,-39.69 402.03,-26.82 475.81,-20.99"/>
<polygon fill="midnightblue" stroke="midnightblue" points="245.81,-124.37 249.15,-134.42 252.81,-124.48 245.81,-124.37"/>
</g>
<!-- Node68&#45;&gt;Node69 -->
<g id="edge13" class="edge">
<title>Node68&#45;&gt;Node69</title>
<path fill="none" stroke="midnightblue" d="M322.49,-132.25C370.02,-121.6 431.56,-107.81 477.04,-97.61"/>
<polygon fill="midnightblue" stroke="midnightblue" points="321.56,-128.87 312.57,-134.48 323.09,-135.7 321.56,-128.87"/>
</g>
<!-- Node70&#45;&gt;Node65 -->
<g id="edge16" class="edge">
<title>Node70&#45;&gt;Node65</title>
<path fill="none" stroke="midnightblue" d="M462.15,-130.13C439.75,-119.8 412.22,-107.11 391.54,-97.58"/>
<polygon fill="midnightblue" stroke="midnightblue" points="460.86,-133.39 471.41,-134.4 463.79,-127.03 460.86,-133.39"/>
</g>
<!-- Node70&#45;&gt;Node69 -->
<g id="edge17" class="edge">
<title>Node70&#45;&gt;Node69</title>
<path fill="none" stroke="midnightblue" d="M515.4,-125.58C520.86,-116.24 526.99,-105.75 531.77,-97.58"/>
<polygon fill="midnightblue" stroke="midnightblue" points="512.27,-124 510.25,-134.4 518.31,-127.53 512.27,-124"/>
</g>
<!-- Node72 -->
<g id="node15" class="node">
<title>Node72</title>
<g id="a_node15"><a xlink:href="iris__np2_8h.html" target="_top" xlink:title=" ">
<polygon fill="white" stroke="black" points="876.5,-134.5 876.5,-164.5 983.5,-164.5 983.5,-134.5 876.5,-134.5"/>
<text text-anchor="start" x="884.5" y="-152.5" font-family="Helvetica,sans-Serif" font-size="10.00">drake/planning/iris</text>
<text text-anchor="middle" x="930" y="-141.5" font-family="Helvetica,sans-Serif" font-size="10.00">/iris_np2.h</text>
</a>
</g>
</g>
<!-- Node71&#45;&gt;Node72 -->
<g id="edge24" class="edge">
<title>Node71&#45;&gt;Node72</title>
<path fill="none" stroke="midnightblue" d="M841.13,-196.71C860.84,-186.46 884.84,-173.98 902.93,-164.58"/>
<polygon fill="midnightblue" stroke="midnightblue" points="839.38,-193.68 832.12,-201.4 842.61,-199.89 839.38,-193.68"/>
</g>
<!-- Node74 -->
<g id="node17" class="node">
<title>Node74</title>
<g id="a_node17"><a xlink:href="iris__zo_8h.html" target="_top" xlink:title=" ">
<polygon fill="white" stroke="black" points="751.5,-134.5 751.5,-164.5 858.5,-164.5 858.5,-134.5 751.5,-134.5"/>
<text text-anchor="start" x="759.5" y="-152.5" font-family="Helvetica,sans-Serif" font-size="10.00">drake/planning/iris</text>
<text text-anchor="middle" x="805" y="-141.5" font-family="Helvetica,sans-Serif" font-size="10.00">/iris_zo.h</text>
</a>
</g>
</g>
<!-- Node71&#45;&gt;Node74 -->
<g id="edge26" class="edge">
<title>Node71&#45;&gt;Node74</title>
<path fill="none" stroke="midnightblue" d="M805,-191.11C805,-182.15 805,-172.32 805,-164.58"/>
<polygon fill="midnightblue" stroke="midnightblue" points="801.5,-191.4 805,-201.4 808.5,-191.4 801.5,-191.4"/>
</g>
<!-- Node73 -->
<g id="node16" class="node">
<title>Node73</title>
<g id="a_node16"><a xlink:href="iris__from__clique__cover_8h.html" target="_top" xlink:title=" ">
<polygon fill="white" stroke="black" points="806,-67.5 806,-97.5 944,-97.5 944,-67.5 806,-67.5"/>
<text text-anchor="start" x="814" y="-85.5" font-family="Helvetica,sans-Serif" font-size="10.00">drake/planning/iris</text>
<text text-anchor="middle" x="875" y="-74.5" font-family="Helvetica,sans-Serif" font-size="10.00">/iris_from_clique_cover.h</text>
</a>
</g>
</g>
<!-- Node72&#45;&gt;Node73 -->
<g id="edge25" class="edge">
<title>Node72&#45;&gt;Node73</title>
<path fill="none" stroke="midnightblue" d="M911.58,-126.74C903.45,-117.12 894.11,-106.09 886.91,-97.58"/>
<polygon fill="midnightblue" stroke="midnightblue" points="908.93,-129.02 918.07,-134.4 914.28,-124.5 908.93,-129.02"/>
</g>
<!-- Node74&#45;&gt;Node73 -->
<g id="edge27" class="edge">
<title>Node74&#45;&gt;Node73</title>
<path fill="none" stroke="midnightblue" d="M827.82,-127.31C838.32,-117.56 850.49,-106.26 859.84,-97.58"/>
<polygon fill="midnightblue" stroke="midnightblue" points="825.14,-125.03 820.19,-134.4 829.9,-130.16 825.14,-125.03"/>
</g>
</g>
</svg>
