<?xml version="1.0" encoding="UTF-8" standalone="no"?>
<!DOCTYPE svg PUBLIC "-//W3C//DTD SVG 1.1//EN"
 "http://www.w3.org/Graphics/SVG/1.1/DTD/svg11.dtd">
<!-- Generated by graphviz version 2.43.0 (0)
 -->
<!-- Title: drake/geometry/read_obj.h Pages: 1 -->
<svg width="1499pt" height="486pt"
 viewBox="0.00 0.00 1498.50 486.00" xmlns="http://www.w3.org/2000/svg" xmlns:xlink="http://www.w3.org/1999/xlink">
<g id="graph0" class="graph" transform="scale(1 1) rotate(0) translate(4 482)">
<title>drake/geometry/read_obj.h</title>
<polygon fill="white" stroke="transparent" points="-4,4 -4,-482 1494.5,-482 1494.5,4 -4,4"/>
<!-- Node0 -->
<g id="node1" class="node">
<title>Node0</title>
<g id="a_node1"><a xlink:title=" ">
<polygon fill="#bfbfbf" stroke="black" points="198.5,-447.5 198.5,-477.5 317.5,-477.5 317.5,-447.5 198.5,-447.5"/>
<text text-anchor="start" x="206.5" y="-465.5" font-family="Helvetica,sans-Serif" font-size="10.00">drake/geometry/read</text>
<text text-anchor="middle" x="258" y="-454.5" font-family="Helvetica,sans-Serif" font-size="10.00">_obj.h</text>
</a>
</g>
</g>
<!-- Node1 -->
<g id="node2" class="node">
<title>Node1</title>
<g id="a_node2"><a xlink:title=" ">
<polygon fill="white" stroke="#bfbfbf" points="0,-386 0,-405 58,-405 58,-386 0,-386"/>
<text text-anchor="middle" x="29" y="-393" font-family="Helvetica,sans-Serif" font-size="10.00">memory</text>
</a>
</g>
</g>
<!-- Node0&#45;&gt;Node1 -->
<g id="edge1" class="edge">
<title>Node0&#45;&gt;Node1</title>
<path fill="none" stroke="midnightblue" d="M198.17,-447.41C160.28,-438.07 110.42,-424.98 67,-411 64.59,-410.22 62.11,-409.38 59.62,-408.5"/>
<polygon fill="midnightblue" stroke="midnightblue" points="60.76,-405.19 50.16,-405.03 58.34,-411.76 60.76,-405.19"/>
</g>
<!-- Node2 -->
<g id="node3" class="node">
<title>Node2</title>
<g id="a_node3"><a xlink:title=" ">
<polygon fill="white" stroke="#bfbfbf" points="76.5,-386 76.5,-405 117.5,-405 117.5,-386 76.5,-386"/>
<text text-anchor="middle" x="97" y="-393" font-family="Helvetica,sans-Serif" font-size="10.00">tuple</text>
</a>
</g>
</g>
<!-- Node0&#45;&gt;Node2 -->
<g id="edge2" class="edge">
<title>Node0&#45;&gt;Node2</title>
<path fill="none" stroke="midnightblue" d="M222.65,-447.46C197.37,-437.39 162.55,-423.45 132,-411 130.41,-410.35 128.78,-409.68 127.13,-409.01"/>
<polygon fill="midnightblue" stroke="midnightblue" points="128.29,-405.7 117.71,-405.13 125.62,-412.17 128.29,-405.7"/>
</g>
<!-- Node3 -->
<g id="node4" class="node">
<title>Node3</title>
<g id="a_node4"><a xlink:title=" ">
<polygon fill="white" stroke="#bfbfbf" points="108.5,-129 108.5,-148 155.5,-148 155.5,-129 108.5,-129"/>
<text text-anchor="middle" x="132" y="-136" font-family="Helvetica,sans-Serif" font-size="10.00">vector</text>
</a>
</g>
</g>
<!-- Node0&#45;&gt;Node3 -->
<g id="edge3" class="edge">
<title>Node0&#45;&gt;Node3</title>
<path fill="none" stroke="midnightblue" d="M233.7,-447.46C200.76,-426.4 146,-383.3 146,-329.5 146,-329.5 146,-329.5 146,-266 146,-227.47 139.5,-182.73 135.36,-158.13"/>
<polygon fill="midnightblue" stroke="midnightblue" points="138.77,-157.3 133.61,-148.05 131.88,-158.51 138.77,-157.3"/>
</g>
<!-- Node4 -->
<g id="node5" class="node">
<title>Node4</title>
<g id="a_node5"><a xlink:title=" ">
<polygon fill="white" stroke="#bfbfbf" points="500.5,-386 500.5,-405 569.5,-405 569.5,-386 500.5,-386"/>
<text text-anchor="middle" x="535" y="-393" font-family="Helvetica,sans-Serif" font-size="10.00">Eigen/Core</text>
</a>
</g>
</g>
<!-- Node0&#45;&gt;Node4 -->
<g id="edge4" class="edge">
<title>Node0&#45;&gt;Node4</title>
<path fill="none" stroke="midnightblue" d="M317.8,-449.45C363.95,-439.86 429.28,-425.66 486,-411 489.8,-410.02 493.76,-408.94 497.7,-407.83"/>
<polygon fill="midnightblue" stroke="midnightblue" points="498.73,-411.18 507.37,-405.04 496.79,-404.45 498.73,-411.18"/>
</g>
<!-- Node5 -->
<g id="node6" class="node">
<title>Node5</title>
<g id="a_node6"><a xlink:href="diagnostic__policy_8h.html" target="_top" xlink:title=" ">
<polygon fill="white" stroke="black" points="845.5,-123.5 845.5,-153.5 988.5,-153.5 988.5,-123.5 845.5,-123.5"/>
<text text-anchor="start" x="853.5" y="-141.5" font-family="Helvetica,sans-Serif" font-size="10.00">drake/common/diagnostic</text>
<text text-anchor="middle" x="917" y="-130.5" font-family="Helvetica,sans-Serif" font-size="10.00">_policy.h</text>
</a>
</g>
</g>
<!-- Node0&#45;&gt;Node5 -->
<g id="edge5" class="edge">
<title>Node0&#45;&gt;Node5</title>
<path fill="none" stroke="midnightblue" d="M317.79,-458.66C357.18,-453.8 407.48,-441.5 441,-411 469.66,-384.92 472,-368.25 472,-329.5 472,-329.5 472,-329.5 472,-266 472,-99.54 661.66,-175.48 835,-154.13"/>
<polygon fill="midnightblue" stroke="midnightblue" points="835.64,-157.58 845.08,-152.78 834.7,-150.64 835.64,-157.58"/>
</g>
<!-- Node10 -->
<g id="node11" class="node">
<title>Node10</title>
<g id="a_node11"><a xlink:href="mesh__source_8h.html" target="_top" xlink:title=" ">
<polygon fill="white" stroke="black" points="308,-380.5 308,-410.5 432,-410.5 432,-380.5 308,-380.5"/>
<text text-anchor="start" x="316" y="-398.5" font-family="Helvetica,sans-Serif" font-size="10.00">drake/geometry/mesh</text>
<text text-anchor="middle" x="370" y="-387.5" font-family="Helvetica,sans-Serif" font-size="10.00">_source.h</text>
</a>
</g>
</g>
<!-- Node0&#45;&gt;Node10 -->
<g id="edge10" class="edge">
<title>Node0&#45;&gt;Node10</title>
<path fill="none" stroke="midnightblue" d="M282.3,-447.4C298.3,-438.11 319.44,-425.84 336.96,-415.67"/>
<polygon fill="midnightblue" stroke="midnightblue" points="338.85,-418.62 345.75,-410.58 335.34,-412.57 338.85,-418.62"/>
</g>
<!-- Node6 -->
<g id="node7" class="node">
<title>Node6</title>
<g id="a_node7"><a xlink:title=" ">
<polygon fill="white" stroke="#bfbfbf" points="994.5,-62 994.5,-81 1059.5,-81 1059.5,-62 994.5,-62"/>
<text text-anchor="middle" x="1027" y="-69" font-family="Helvetica,sans-Serif" font-size="10.00">functional</text>
</a>
</g>
</g>
<!-- Node5&#45;&gt;Node6 -->
<g id="edge6" class="edge">
<title>Node5&#45;&gt;Node6</title>
<path fill="none" stroke="midnightblue" d="M940.87,-123.4C959.57,-112.34 985.44,-97.06 1003.93,-86.13"/>
<polygon fill="midnightblue" stroke="midnightblue" points="1005.77,-89.11 1012.6,-81.01 1002.21,-83.08 1005.77,-89.11"/>
</g>
<!-- Node7 -->
<g id="node8" class="node">
<title>Node7</title>
<g id="a_node8"><a xlink:title=" ">
<polygon fill="white" stroke="#bfbfbf" points="893,-62 893,-81 949,-81 949,-62 893,-62"/>
<text text-anchor="middle" x="921" y="-69" font-family="Helvetica,sans-Serif" font-size="10.00">optional</text>
</a>
</g>
</g>
<!-- Node5&#45;&gt;Node7 -->
<g id="edge7" class="edge">
<title>Node5&#45;&gt;Node7</title>
<path fill="none" stroke="midnightblue" d="M917.87,-123.4C918.45,-113.96 919.22,-101.45 919.85,-91.19"/>
<polygon fill="midnightblue" stroke="midnightblue" points="923.34,-91.39 920.46,-81.19 916.36,-90.96 923.34,-91.39"/>
</g>
<!-- Node8 -->
<g id="node9" class="node">
<title>Node8</title>
<g id="a_node9"><a xlink:title=" ">
<polygon fill="white" stroke="#bfbfbf" points="1124,-62 1124,-81 1168,-81 1168,-62 1124,-62"/>
<text text-anchor="middle" x="1146" y="-69" font-family="Helvetica,sans-Serif" font-size="10.00">string</text>
</a>
</g>
</g>
<!-- Node5&#45;&gt;Node8 -->
<g id="edge8" class="edge">
<title>Node5&#45;&gt;Node8</title>
<path fill="none" stroke="midnightblue" d="M966.41,-123.48C1011,-110.82 1075.3,-92.57 1113.65,-81.68"/>
<polygon fill="midnightblue" stroke="midnightblue" points="1115.08,-84.92 1123.74,-78.82 1113.16,-78.18 1115.08,-84.92"/>
</g>
<!-- Node9 -->
<g id="node10" class="node">
<title>Node9</title>
<g id="a_node10"><a xlink:href="drake__copyable_8h.html" target="_top" xlink:title="Provides careful macros to selectively enable or disable the special member functions for copy&#45;constr...">
<polygon fill="white" stroke="black" points="493.5,-56.5 493.5,-86.5 612.5,-86.5 612.5,-56.5 493.5,-56.5"/>
<text text-anchor="start" x="501.5" y="-74.5" font-family="Helvetica,sans-Serif" font-size="10.00">drake/common/drake</text>
<text text-anchor="middle" x="553" y="-63.5" font-family="Helvetica,sans-Serif" font-size="10.00">_copyable.h</text>
</a>
</g>
</g>
<!-- Node5&#45;&gt;Node9 -->
<g id="edge9" class="edge">
<title>Node5&#45;&gt;Node9</title>
<path fill="none" stroke="midnightblue" d="M845.48,-124.49C842.62,-123.98 839.78,-123.48 837,-123 744.63,-106.9 718.85,-105.07 622.66,-87.08"/>
<polygon fill="midnightblue" stroke="midnightblue" points="623.28,-83.63 612.81,-85.23 621.99,-90.51 623.28,-83.63"/>
</g>
<!-- Node10&#45;&gt;Node8 -->
<g id="edge12" class="edge">
<title>Node10&#45;&gt;Node8</title>
<path fill="none" stroke="midnightblue" d="M432.3,-386.32C451.43,-384.02 472.56,-381.69 492,-380 783.34,-354.73 859.45,-384.97 1149,-344 1298.02,-322.92 1479,-418.51 1479,-268 1479,-268 1479,-268 1479,-204.5 1479,-167.31 1487.29,-148.27 1460,-123 1421.23,-87.11 1277.1,-95.77 1225,-87 1209.51,-84.39 1192.35,-81.27 1178,-78.59"/>
<polygon fill="midnightblue" stroke="midnightblue" points="1178.58,-75.14 1168.1,-76.74 1177.29,-82.02 1178.58,-75.14"/>
</g>
<!-- Node10&#45;&gt;Node9 -->
<g id="edge15" class="edge">
<title>Node10&#45;&gt;Node9</title>
<path fill="none" stroke="midnightblue" d="M367.74,-380.12C364.27,-356.7 358,-308.81 358,-268 358,-268 358,-268 358,-204.5 358,-167.31 351.37,-149.95 377,-123 384.73,-114.87 437.44,-100.36 483.17,-88.97"/>
<polygon fill="midnightblue" stroke="midnightblue" points="484.24,-92.31 493.11,-86.51 482.56,-85.51 484.24,-92.31"/>
</g>
<!-- Node11 -->
<g id="node12" class="node">
<title>Node11</title>
<g id="a_node12"><a xlink:title=" ">
<polygon fill="white" stroke="#bfbfbf" points="386,-129 386,-148 454,-148 454,-129 386,-129"/>
<text text-anchor="middle" x="420" y="-136" font-family="Helvetica,sans-Serif" font-size="10.00">filesystem</text>
</a>
</g>
</g>
<!-- Node10&#45;&gt;Node11 -->
<g id="edge11" class="edge">
<title>Node10&#45;&gt;Node11</title>
<path fill="none" stroke="midnightblue" d="M372.76,-380.43C381.21,-337.32 406.75,-207.05 416.33,-158.24"/>
<polygon fill="midnightblue" stroke="midnightblue" points="419.81,-158.64 418.3,-148.16 412.94,-157.3 419.81,-158.64"/>
</g>
<!-- Node12 -->
<g id="node13" class="node">
<title>Node12</title>
<g id="a_node13"><a xlink:title=" ">
<polygon fill="white" stroke="#bfbfbf" points="205.5,-62 205.5,-81 250.5,-81 250.5,-62 205.5,-62"/>
<text text-anchor="middle" x="228" y="-69" font-family="Helvetica,sans-Serif" font-size="10.00">utility</text>
</a>
</g>
</g>
<!-- Node10&#45;&gt;Node12 -->
<g id="edge13" class="edge">
<title>Node10&#45;&gt;Node12</title>
<path fill="none" stroke="midnightblue" d="M309.87,-380.44C255.53,-363.75 184,-330 184,-268 184,-268 184,-268 184,-204.5 184,-161.61 205.16,-114.72 218.13,-90.01"/>
<polygon fill="midnightblue" stroke="midnightblue" points="221.26,-91.59 222.95,-81.13 215.11,-88.25 221.26,-91.59"/>
</g>
<!-- Node13 -->
<g id="node14" class="node">
<title>Node13</title>
<g id="a_node14"><a xlink:title=" ">
<polygon fill="white" stroke="#bfbfbf" points="521.5,-196 521.5,-215 572.5,-215 572.5,-196 521.5,-196"/>
<text text-anchor="middle" x="547" y="-203" font-family="Helvetica,sans-Serif" font-size="10.00">variant</text>
</a>
</g>
</g>
<!-- Node10&#45;&gt;Node13 -->
<g id="edge14" class="edge">
<title>Node10&#45;&gt;Node13</title>
<path fill="none" stroke="midnightblue" d="M383.3,-380.37C415.46,-346.22 497.26,-259.33 531.53,-222.93"/>
<polygon fill="midnightblue" stroke="midnightblue" points="534.5,-224.89 538.8,-215.21 529.4,-220.09 534.5,-224.89"/>
</g>
<!-- Node14 -->
<g id="node15" class="node">
<title>Node14</title>
<g id="a_node15"><a xlink:href="reset__after__move_8h.html" target="_top" xlink:title=" ">
<polygon fill="white" stroke="black" points="212.5,-123.5 212.5,-153.5 329.5,-153.5 329.5,-123.5 212.5,-123.5"/>
<text text-anchor="start" x="220.5" y="-141.5" font-family="Helvetica,sans-Serif" font-size="10.00">drake/common/reset</text>
<text text-anchor="middle" x="271" y="-130.5" font-family="Helvetica,sans-Serif" font-size="10.00">_after_move.h</text>
</a>
</g>
</g>
<!-- Node10&#45;&gt;Node14 -->
<g id="edge16" class="edge">
<title>Node10&#45;&gt;Node14</title>
<path fill="none" stroke="midnightblue" d="M361.97,-380.16C356.55,-370.18 349.41,-356.49 344,-344 316.31,-280.14 290.59,-202.02 278.4,-163.42"/>
<polygon fill="midnightblue" stroke="midnightblue" points="281.66,-162.13 275.33,-153.63 274.98,-164.22 281.66,-162.13"/>
</g>
<!-- Node16 -->
<g id="node17" class="node">
<title>Node16</title>
<g id="a_node17"><a xlink:href="in__memory__mesh_8h.html" target="_top" xlink:title=" ">
<polygon fill="white" stroke="black" points="988,-313.5 988,-343.5 1140,-343.5 1140,-313.5 988,-313.5"/>
<text text-anchor="start" x="996" y="-331.5" font-family="Helvetica,sans-Serif" font-size="10.00">drake/geometry/in_memory</text>
<text text-anchor="middle" x="1064" y="-320.5" font-family="Helvetica,sans-Serif" font-size="10.00">_mesh.h</text>
</a>
</g>
</g>
<!-- Node10&#45;&gt;Node16 -->
<g id="edge19" class="edge">
<title>Node10&#45;&gt;Node16</title>
<path fill="none" stroke="midnightblue" d="M432.02,-386.76C451.24,-384.46 472.48,-382.02 492,-380 663.89,-362.2 865.25,-345.35 977.36,-336.33"/>
<polygon fill="midnightblue" stroke="midnightblue" points="977.91,-339.8 987.6,-335.51 977.35,-332.82 977.91,-339.8"/>
</g>
<!-- Node14&#45;&gt;Node12 -->
<g id="edge18" class="edge">
<title>Node14&#45;&gt;Node12</title>
<path fill="none" stroke="midnightblue" d="M261.67,-123.4C255.1,-113.46 246.26,-100.11 239.29,-89.57"/>
<polygon fill="midnightblue" stroke="midnightblue" points="242.19,-87.6 233.75,-81.19 236.35,-91.47 242.19,-87.6"/>
</g>
<!-- Node15 -->
<g id="node16" class="node">
<title>Node15</title>
<g id="a_node16"><a xlink:title=" ">
<polygon fill="white" stroke="#bfbfbf" points="334.5,-0.5 334.5,-19.5 403.5,-19.5 403.5,-0.5 334.5,-0.5"/>
<text text-anchor="middle" x="369" y="-7.5" font-family="Helvetica,sans-Serif" font-size="10.00">type_traits</text>
</a>
</g>
</g>
<!-- Node14&#45;&gt;Node15 -->
<g id="edge17" class="edge">
<title>Node14&#45;&gt;Node15</title>
<path fill="none" stroke="midnightblue" d="M281.86,-123.48C299.97,-100.1 336.27,-53.25 355.81,-28.02"/>
<polygon fill="midnightblue" stroke="midnightblue" points="358.83,-29.84 362.19,-19.79 353.3,-25.55 358.83,-29.84"/>
</g>
<!-- Node16&#45;&gt;Node8 -->
<g id="edge20" class="edge">
<title>Node16&#45;&gt;Node8</title>
<path fill="none" stroke="midnightblue" d="M1075.12,-313.19C1082.24,-303.44 1091.19,-290 1097,-277 1125.91,-212.34 1139.14,-128.24 1143.86,-91.3"/>
<polygon fill="midnightblue" stroke="midnightblue" points="1147.37,-91.39 1145.1,-81.04 1140.42,-90.55 1147.37,-91.39"/>
</g>
<!-- Node17 -->
<g id="node18" class="node">
<title>Node17</title>
<g id="a_node18"><a xlink:href="file__source_8h.html" target="_top" xlink:title=" ">
<polygon fill="white" stroke="black" points="934,-257.5 934,-276.5 1088,-276.5 1088,-257.5 934,-257.5"/>
<text text-anchor="middle" x="1011" y="-264.5" font-family="Helvetica,sans-Serif" font-size="10.00">drake/common/file_source.h</text>
</a>
</g>
</g>
<!-- Node16&#45;&gt;Node17 -->
<g id="edge21" class="edge">
<title>Node16&#45;&gt;Node17</title>
<path fill="none" stroke="midnightblue" d="M1051.44,-313.4C1043.66,-304.66 1033.64,-293.41 1025.52,-284.3"/>
<polygon fill="midnightblue" stroke="midnightblue" points="1027.98,-281.8 1018.71,-276.66 1022.75,-286.45 1027.98,-281.8"/>
</g>
<!-- Node18 -->
<g id="node19" class="node">
<title>Node18</title>
<g id="a_node19"><a xlink:href="fmt_8h.html" target="_top" xlink:title=" ">
<polygon fill="white" stroke="black" points="1331.5,-129 1331.5,-148 1450.5,-148 1450.5,-129 1331.5,-129"/>
<text text-anchor="middle" x="1391" y="-136" font-family="Helvetica,sans-Serif" font-size="10.00">drake/common/fmt.h</text>
</a>
</g>
</g>
<!-- Node16&#45;&gt;Node18 -->
<g id="edge49" class="edge">
<title>Node16&#45;&gt;Node18</title>
<path fill="none" stroke="midnightblue" d="M1111.66,-313.49C1138.65,-304.69 1172.59,-292.15 1201,-277 1269.27,-240.6 1340.88,-182.48 1373.25,-154.94"/>
<polygon fill="midnightblue" stroke="midnightblue" points="1375.65,-157.49 1380.96,-148.33 1371.09,-152.18 1375.65,-157.49"/>
</g>
<!-- Node21 -->
<g id="node22" class="node">
<title>Node21</title>
<g id="a_node22"><a xlink:href="memory__file_8h.html" target="_top" xlink:title=" ">
<polygon fill="white" stroke="black" points="692,-190.5 692,-220.5 826,-220.5 826,-190.5 692,-190.5"/>
<text text-anchor="start" x="700" y="-208.5" font-family="Helvetica,sans-Serif" font-size="10.00">drake/common/memory</text>
<text text-anchor="middle" x="759" y="-197.5" font-family="Helvetica,sans-Serif" font-size="10.00">_file.h</text>
</a>
</g>
</g>
<!-- Node16&#45;&gt;Node21 -->
<g id="edge50" class="edge">
<title>Node16&#45;&gt;Node21</title>
<path fill="none" stroke="midnightblue" d="M1023.64,-313.48C995.79,-303.64 957.97,-289.98 925,-277 882.04,-260.09 833.5,-239.27 800.06,-224.66"/>
<polygon fill="midnightblue" stroke="midnightblue" points="801.18,-221.33 790.62,-220.52 798.37,-227.74 801.18,-221.33"/>
</g>
<!-- Node30 -->
<g id="node31" class="node">
<title>Node30</title>
<g id="a_node31"><a xlink:href="string__map_8h.html" target="_top" xlink:title=" ">
<polygon fill="white" stroke="black" points="1193,-123.5 1193,-153.5 1313,-153.5 1313,-123.5 1193,-123.5"/>
<text text-anchor="start" x="1201" y="-141.5" font-family="Helvetica,sans-Serif" font-size="10.00">drake/common/string</text>
<text text-anchor="middle" x="1253" y="-130.5" font-family="Helvetica,sans-Serif" font-size="10.00">_map.h</text>
</a>
</g>
</g>
<!-- Node16&#45;&gt;Node30 -->
<g id="edge51" class="edge">
<title>Node16&#45;&gt;Node30</title>
<path fill="none" stroke="midnightblue" d="M1114.61,-313.48C1136.37,-305.51 1160.89,-293.71 1179,-277 1213.57,-245.09 1235.28,-193.26 1245.67,-163.18"/>
<polygon fill="midnightblue" stroke="midnightblue" points="1249.05,-164.11 1248.88,-153.51 1242.41,-161.9 1249.05,-164.11"/>
</g>
<!-- Node17&#45;&gt;Node8 -->
<g id="edge23" class="edge">
<title>Node17&#45;&gt;Node8</title>
<path fill="none" stroke="midnightblue" d="M1019.97,-257.4C1038.29,-239.48 1080.58,-196.31 1108,-154 1121.22,-133.6 1132.41,-107.87 1139.16,-90.84"/>
<polygon fill="midnightblue" stroke="midnightblue" points="1142.43,-92.07 1142.76,-81.48 1135.9,-89.56 1142.43,-92.07"/>
</g>
<!-- Node17&#45;&gt;Node11 -->
<g id="edge22" class="edge">
<title>Node17&#45;&gt;Node11</title>
<path fill="none" stroke="midnightblue" d="M933.83,-258.97C866.97,-252.03 767.9,-239.72 683,-221 637.15,-210.89 626.9,-203.74 582,-190 529.57,-173.96 516.26,-170.58 464,-154 461.1,-153.08 458.1,-152.12 455.09,-151.14"/>
<polygon fill="midnightblue" stroke="midnightblue" points="456.15,-147.81 445.56,-148.03 453.98,-154.46 456.15,-147.81"/>
</g>
<!-- Node17&#45;&gt;Node13 -->
<g id="edge24" class="edge">
<title>Node17&#45;&gt;Node13</title>
<path fill="none" stroke="midnightblue" d="M933.64,-258.21C856.35,-250.12 734.21,-236.49 629,-221 613.81,-218.76 597.11,-215.89 582.76,-213.29"/>
<polygon fill="midnightblue" stroke="midnightblue" points="583.26,-209.82 572.79,-211.45 581.99,-216.7 583.26,-209.82"/>
</g>
<!-- Node17&#45;&gt;Node18 -->
<g id="edge25" class="edge">
<title>Node17&#45;&gt;Node18</title>
<path fill="none" stroke="midnightblue" d="M1036.82,-257.4C1103.25,-235.29 1280.13,-176.41 1355.83,-151.21"/>
<polygon fill="midnightblue" stroke="midnightblue" points="1357.01,-154.5 1365.39,-148.02 1354.8,-147.86 1357.01,-154.5"/>
</g>
<!-- Node17&#45;&gt;Node21 -->
<g id="edge29" class="edge">
<title>Node17&#45;&gt;Node21</title>
<path fill="none" stroke="midnightblue" d="M974.89,-257.48C936.78,-248.48 875.76,-234.07 828.3,-222.86"/>
<polygon fill="midnightblue" stroke="midnightblue" points="828.93,-219.41 818.39,-220.52 827.32,-226.23 828.93,-219.41"/>
</g>
<!-- Node18&#45;&gt;Node8 -->
<g id="edge26" class="edge">
<title>Node18&#45;&gt;Node8</title>
<path fill="none" stroke="midnightblue" d="M1358.72,-128.94C1311.73,-116.47 1224.99,-93.46 1178.1,-81.02"/>
<polygon fill="midnightblue" stroke="midnightblue" points="1178.74,-77.57 1168.18,-78.38 1176.95,-84.33 1178.74,-77.57"/>
</g>
<!-- Node19 -->
<g id="node20" class="node">
<title>Node19</title>
<g id="a_node20"><a xlink:title=" ">
<polygon fill="white" stroke="#bfbfbf" points="1417.5,-62 1417.5,-81 1490.5,-81 1490.5,-62 1417.5,-62"/>
<text text-anchor="middle" x="1454" y="-69" font-family="Helvetica,sans-Serif" font-size="10.00">string_view</text>
</a>
</g>
</g>
<!-- Node18&#45;&gt;Node19 -->
<g id="edge27" class="edge">
<title>Node18&#45;&gt;Node19</title>
<path fill="none" stroke="midnightblue" d="M1399.5,-128.73C1409.51,-118.4 1426.34,-101.04 1438.66,-88.33"/>
<polygon fill="midnightblue" stroke="midnightblue" points="1441.19,-90.74 1445.64,-81.13 1436.17,-85.87 1441.19,-90.74"/>
</g>
<!-- Node20 -->
<g id="node21" class="node">
<title>Node20</title>
<g id="a_node21"><a xlink:title=" ">
<polygon fill="white" stroke="#bfbfbf" points="1320.5,-62 1320.5,-81 1399.5,-81 1399.5,-62 1320.5,-62"/>
<text text-anchor="middle" x="1360" y="-69" font-family="Helvetica,sans-Serif" font-size="10.00">fmt/format.h</text>
</a>
</g>
</g>
<!-- Node18&#45;&gt;Node20 -->
<g id="edge28" class="edge">
<title>Node18&#45;&gt;Node20</title>
<path fill="none" stroke="midnightblue" d="M1386.82,-128.73C1382.12,-118.89 1374.38,-102.66 1368.42,-90.16"/>
<polygon fill="midnightblue" stroke="midnightblue" points="1371.58,-88.65 1364.11,-81.13 1365.26,-91.66 1371.58,-88.65"/>
</g>
<!-- Node21&#45;&gt;Node3 -->
<g id="edge33" class="edge">
<title>Node21&#45;&gt;Node3</title>
<path fill="none" stroke="midnightblue" d="M691.8,-198.82C554.41,-187.14 250.26,-160.95 203,-154 190.68,-152.19 177.27,-149.61 165.45,-147.13"/>
<polygon fill="midnightblue" stroke="midnightblue" points="166.06,-143.68 155.55,-144.99 164.59,-150.52 166.06,-143.68"/>
</g>
<!-- Node21&#45;&gt;Node8 -->
<g id="edge32" class="edge">
<title>Node21&#45;&gt;Node8</title>
<path fill="none" stroke="midnightblue" d="M826.04,-198.7C875.46,-192.47 943.32,-179.74 998,-154 1018.03,-144.57 1018.16,-134.62 1037,-123 1061.89,-107.64 1092.23,-93.96 1114.57,-84.72"/>
<polygon fill="midnightblue" stroke="midnightblue" points="1115.97,-87.93 1123.92,-80.92 1113.33,-81.44 1115.97,-87.93"/>
</g>
<!-- Node21&#45;&gt;Node9 -->
<g id="edge34" class="edge">
<title>Node21&#45;&gt;Node9</title>
<path fill="none" stroke="midnightblue" d="M736.4,-190.44C720.86,-180.59 699.88,-166.93 682,-154 664.06,-141.03 661.38,-135.35 643,-123 626.06,-111.62 606.38,-100.37 589.74,-91.39"/>
<polygon fill="midnightblue" stroke="midnightblue" points="591.33,-88.26 580.86,-86.64 588.03,-94.44 591.33,-88.26"/>
</g>
<!-- Node21&#45;&gt;Node11 -->
<g id="edge31" class="edge">
<title>Node21&#45;&gt;Node11</title>
<path fill="none" stroke="midnightblue" d="M691.76,-194.18C618.47,-182.72 506.04,-164.46 464,-154 460.62,-153.16 457.12,-152.19 453.65,-151.15"/>
<polygon fill="midnightblue" stroke="midnightblue" points="454.61,-147.79 444.02,-148.13 452.51,-154.46 454.61,-147.79"/>
</g>
<!-- Node21&#45;&gt;Node14 -->
<g id="edge40" class="edge">
<title>Node21&#45;&gt;Node14</title>
<path fill="none" stroke="midnightblue" d="M691.71,-195.7C615.39,-185.69 487.22,-168.82 377,-154 364.99,-152.38 352.22,-150.65 339.85,-148.96"/>
<polygon fill="midnightblue" stroke="midnightblue" points="339.97,-145.45 329.59,-147.56 339.02,-152.38 339.97,-145.45"/>
</g>
<!-- Node21&#45;&gt;Node18 -->
<g id="edge35" class="edge">
<title>Node21&#45;&gt;Node18</title>
<path fill="none" stroke="midnightblue" d="M826.04,-201.05C931.85,-195.02 1143.9,-180.61 1322,-154 1329.24,-152.92 1336.87,-151.55 1344.3,-150.09"/>
<polygon fill="midnightblue" stroke="midnightblue" points="1345.16,-153.49 1354.26,-148.06 1343.76,-146.63 1345.16,-153.49"/>
</g>
<!-- Node22 -->
<g id="node23" class="node">
<title>Node22</title>
<g id="a_node23"><a xlink:title=" ">
<polygon fill="white" stroke="#bfbfbf" points="1045.5,-129 1045.5,-148 1098.5,-148 1098.5,-129 1045.5,-129"/>
<text text-anchor="middle" x="1072" y="-136" font-family="Helvetica,sans-Serif" font-size="10.00">cstddef</text>
</a>
</g>
</g>
<!-- Node21&#45;&gt;Node22 -->
<g id="edge30" class="edge">
<title>Node21&#45;&gt;Node22</title>
<path fill="none" stroke="midnightblue" d="M826.16,-195.03C881.61,-186.49 962.11,-172.46 1031,-154 1033.97,-153.21 1037.03,-152.3 1040.07,-151.33"/>
<polygon fill="midnightblue" stroke="midnightblue" points="1041.28,-154.62 1049.64,-148.12 1039.05,-147.98 1041.28,-154.62"/>
</g>
<!-- Node23 -->
<g id="node24" class="node">
<title>Node23</title>
<g id="a_node24"><a xlink:href="name__value_8h.html" target="_top" xlink:title=" ">
<polygon fill="white" stroke="black" points="472.5,-129 472.5,-148 633.5,-148 633.5,-129 472.5,-129"/>
<text text-anchor="middle" x="553" y="-136" font-family="Helvetica,sans-Serif" font-size="10.00">drake/common/name_value.h</text>
</a>
</g>
</g>
<!-- Node21&#45;&gt;Node23 -->
<g id="edge36" class="edge">
<title>Node21&#45;&gt;Node23</title>
<path fill="none" stroke="midnightblue" d="M714.55,-190.48C677.31,-178.72 624.76,-162.14 589.83,-151.12"/>
<polygon fill="midnightblue" stroke="midnightblue" points="590.62,-147.7 580.03,-148.03 588.51,-154.38 590.62,-147.7"/>
</g>
<!-- Node25 -->
<g id="node26" class="node">
<title>Node25</title>
<g id="a_node26"><a xlink:href="sha256_8h.html" target="_top" xlink:title=" ">
<polygon fill="white" stroke="black" points="690.5,-129 690.5,-148 827.5,-148 827.5,-129 690.5,-129"/>
<text text-anchor="middle" x="759" y="-136" font-family="Helvetica,sans-Serif" font-size="10.00">drake/common/sha256.h</text>
</a>
</g>
</g>
<!-- Node21&#45;&gt;Node25 -->
<g id="edge41" class="edge">
<title>Node21&#45;&gt;Node25</title>
<path fill="none" stroke="midnightblue" d="M759,-190.4C759,-181.06 759,-168.71 759,-158.52"/>
<polygon fill="midnightblue" stroke="midnightblue" points="762.5,-158.19 759,-148.19 755.5,-158.19 762.5,-158.19"/>
</g>
<!-- Node23&#45;&gt;Node9 -->
<g id="edge39" class="edge">
<title>Node23&#45;&gt;Node9</title>
<path fill="none" stroke="midnightblue" d="M553,-128.73C553,-120.54 553,-107.92 553,-96.71"/>
<polygon fill="midnightblue" stroke="midnightblue" points="556.5,-96.59 553,-86.59 549.5,-96.59 556.5,-96.59"/>
</g>
<!-- Node24 -->
<g id="node25" class="node">
<title>Node24</title>
<g id="a_node25"><a xlink:href="drake__assert_8h.html" target="_top" xlink:title="Provides Drake&#39;s assertion implementation.">
<polygon fill="white" stroke="black" points="355.5,-56.5 355.5,-86.5 474.5,-86.5 474.5,-56.5 355.5,-56.5"/>
<text text-anchor="start" x="363.5" y="-74.5" font-family="Helvetica,sans-Serif" font-size="10.00">drake/common/drake</text>
<text text-anchor="middle" x="415" y="-63.5" font-family="Helvetica,sans-Serif" font-size="10.00">_assert.h</text>
</a>
</g>
</g>
<!-- Node23&#45;&gt;Node24 -->
<g id="edge37" class="edge">
<title>Node23&#45;&gt;Node24</title>
<path fill="none" stroke="midnightblue" d="M534.67,-128.87C514.24,-119.24 480.58,-103.39 454.15,-90.94"/>
<polygon fill="midnightblue" stroke="midnightblue" points="455.32,-87.62 444.78,-86.53 452.34,-93.96 455.32,-87.62"/>
</g>
<!-- Node24&#45;&gt;Node15 -->
<g id="edge38" class="edge">
<title>Node24&#45;&gt;Node15</title>
<path fill="none" stroke="midnightblue" d="M404.1,-56.4C397.41,-47.75 388.82,-36.64 381.82,-27.58"/>
<polygon fill="midnightblue" stroke="midnightblue" points="384.58,-25.43 375.69,-19.66 379.04,-29.71 384.58,-25.43"/>
</g>
<!-- Node25&#45;&gt;Node7 -->
<g id="edge46" class="edge">
<title>Node25&#45;&gt;Node7</title>
<path fill="none" stroke="midnightblue" d="M780.51,-128.87C808.67,-117.57 858.2,-97.7 890.3,-84.82"/>
<polygon fill="midnightblue" stroke="midnightblue" points="891.68,-88.04 899.66,-81.06 889.07,-81.54 891.68,-88.04"/>
</g>
<!-- Node25&#45;&gt;Node8 -->
<g id="edge47" class="edge">
<title>Node25&#45;&gt;Node8</title>
<path fill="none" stroke="midnightblue" d="M803.51,-128.99C814.45,-126.96 826.14,-124.85 837,-123 939.86,-105.46 966.16,-104.66 1069,-87 1083.74,-84.47 1100.03,-81.44 1113.81,-78.8"/>
<polygon fill="midnightblue" stroke="midnightblue" points="1114.64,-82.21 1123.8,-76.88 1113.31,-75.33 1114.64,-82.21"/>
</g>
<!-- Node25&#45;&gt;Node9 -->
<g id="edge48" class="edge">
<title>Node25&#45;&gt;Node9</title>
<path fill="none" stroke="midnightblue" d="M731.64,-128.87C700,-118.88 647.12,-102.2 607.08,-89.56"/>
<polygon fill="midnightblue" stroke="midnightblue" points="608.05,-86.2 597.46,-86.53 605.94,-92.88 608.05,-86.2"/>
</g>
<!-- Node26 -->
<g id="node27" class="node">
<title>Node26</title>
<g id="a_node27"><a xlink:title=" ">
<polygon fill="white" stroke="#bfbfbf" points="765,-62 765,-81 807,-81 807,-62 765,-62"/>
<text text-anchor="middle" x="786" y="-69" font-family="Helvetica,sans-Serif" font-size="10.00">array</text>
</a>
</g>
</g>
<!-- Node25&#45;&gt;Node26 -->
<g id="edge42" class="edge">
<title>Node25&#45;&gt;Node26</title>
<path fill="none" stroke="midnightblue" d="M762.64,-128.73C766.69,-118.99 773.34,-102.98 778.51,-90.53"/>
<polygon fill="midnightblue" stroke="midnightblue" points="781.81,-91.7 782.42,-81.13 775.35,-89.02 781.81,-91.7"/>
</g>
<!-- Node27 -->
<g id="node28" class="node">
<title>Node27</title>
<g id="a_node28"><a xlink:title=" ">
<polygon fill="white" stroke="#bfbfbf" points="825,-62 825,-81 875,-81 875,-62 825,-62"/>
<text text-anchor="middle" x="850" y="-69" font-family="Helvetica,sans-Serif" font-size="10.00">cstdint</text>
</a>
</g>
</g>
<!-- Node25&#45;&gt;Node27 -->
<g id="edge43" class="edge">
<title>Node25&#45;&gt;Node27</title>
<path fill="none" stroke="midnightblue" d="M771.27,-128.73C786.15,-118.11 811.43,-100.05 829.33,-87.26"/>
<polygon fill="midnightblue" stroke="midnightblue" points="831.82,-89.79 837.92,-81.13 827.75,-84.09 831.82,-89.79"/>
</g>
<!-- Node28 -->
<g id="node29" class="node">
<title>Node28</title>
<g id="a_node29"><a xlink:title=" ">
<polygon fill="white" stroke="#bfbfbf" points="631,-62 631,-81 681,-81 681,-62 631,-62"/>
<text text-anchor="middle" x="656" y="-69" font-family="Helvetica,sans-Serif" font-size="10.00">cstring</text>
</a>
</g>
</g>
<!-- Node25&#45;&gt;Node28 -->
<g id="edge44" class="edge">
<title>Node25&#45;&gt;Node28</title>
<path fill="none" stroke="midnightblue" d="M745.11,-128.73C727.97,-117.92 698.6,-99.38 678.29,-86.57"/>
<polygon fill="midnightblue" stroke="midnightblue" points="680,-83.5 669.67,-81.13 676.26,-89.42 680,-83.5"/>
</g>
<!-- Node29 -->
<g id="node30" class="node">
<title>Node29</title>
<g id="a_node30"><a xlink:title=" ">
<polygon fill="white" stroke="#bfbfbf" points="699,-62 699,-81 747,-81 747,-62 699,-62"/>
<text text-anchor="middle" x="723" y="-69" font-family="Helvetica,sans-Serif" font-size="10.00">iosfwd</text>
</a>
</g>
</g>
<!-- Node25&#45;&gt;Node29 -->
<g id="edge45" class="edge">
<title>Node25&#45;&gt;Node29</title>
<path fill="none" stroke="midnightblue" d="M754.14,-128.73C748.69,-118.89 739.7,-102.66 732.78,-90.16"/>
<polygon fill="midnightblue" stroke="midnightblue" points="735.69,-88.18 727.78,-81.13 729.56,-91.57 735.69,-88.18"/>
</g>
<!-- Node30&#45;&gt;Node6 -->
<g id="edge52" class="edge">
<title>Node30&#45;&gt;Node6</title>
<path fill="none" stroke="midnightblue" d="M1204.24,-123.48C1163.03,-111.62 1104.74,-94.86 1066.42,-83.84"/>
<polygon fill="midnightblue" stroke="midnightblue" points="1067.23,-80.43 1056.65,-81.03 1065.3,-87.16 1067.23,-80.43"/>
</g>
<!-- Node30&#45;&gt;Node8 -->
<g id="edge54" class="edge">
<title>Node30&#45;&gt;Node8</title>
<path fill="none" stroke="midnightblue" d="M1229.78,-123.4C1211.67,-112.39 1186.66,-97.2 1168.69,-86.28"/>
<polygon fill="midnightblue" stroke="midnightblue" points="1170.37,-83.21 1160,-81.01 1166.73,-89.19 1170.37,-83.21"/>
</g>
<!-- Node31 -->
<g id="node32" class="node">
<title>Node31</title>
<g id="a_node32"><a xlink:title=" ">
<polygon fill="white" stroke="#bfbfbf" points="1234,-62 1234,-81 1272,-81 1272,-62 1234,-62"/>
<text text-anchor="middle" x="1253" y="-69" font-family="Helvetica,sans-Serif" font-size="10.00">map</text>
</a>
</g>
</g>
<!-- Node30&#45;&gt;Node31 -->
<g id="edge53" class="edge">
<title>Node30&#45;&gt;Node31</title>
<path fill="none" stroke="midnightblue" d="M1253,-123.4C1253,-114.06 1253,-101.71 1253,-91.52"/>
<polygon fill="midnightblue" stroke="midnightblue" points="1256.5,-91.19 1253,-81.19 1249.5,-91.19 1256.5,-91.19"/>
</g>
</g>
</svg>
