<?xml version="1.0" encoding="UTF-8" standalone="no"?>
<!DOCTYPE svg PUBLIC "-//W3C//DTD SVG 1.1//EN"
 "http://www.w3.org/Graphics/SVG/1.1/DTD/svg11.dtd">
<!-- Generated by graphviz version 2.43.0 (0)
 -->
<!-- Title: drake/geometry/read_obj.h Pages: 1 -->
<!--zoomable 486 -->
<svg id="main" version="1.1" xmlns="http://www.w3.org/2000/svg" xmlns:xlink="http://www.w3.org/1999/xlink" xml:space="preserve" onload="init(evt)">
<style type="text/css"><![CDATA[
.edge:hover path { stroke: red; }
.edge:hover polygon { stroke: red; fill: red; }
]]></style>
<script type="text/javascript"><![CDATA[
var edges = document.getElementsByTagName('g');
if (edges && edges.length) {
  for (var i=0;i<edges.length;i++) {
    if (edges[i].id.substr(0,4)=='edge') {
      edges[i].setAttribute('class','edge');
    }
  }
}
]]></script>
        <defs>
                <circle id="rim" cx="0" cy="0" r="7"/>
                <circle id="rim2" cx="0" cy="0" r="3.5"/>
                <g id="zoomPlus">
                        <use xlink:href="#rim" fill="#404040">
                                <set attributeName="fill" to="#808080" begin="zoomplus.mouseover" end="zoomplus.mouseout"/>
                        </use>
                        <path d="M-4,0h8M0,-4v8" fill="none" stroke="white" stroke-width="1.5" pointer-events="none"/>
                </g>
                <g id="zoomMin">
                        <use xlink:href="#rim" fill="#404040">
                                <set attributeName="fill" to="#808080" begin="zoomminus.mouseover" end="zoomminus.mouseout"/>
                        </use>
                        <path d="M-4,0h8" fill="none" stroke="white" stroke-width="1.5" pointer-events="none"/>
                </g>
                <g id="dirArrow">
                        <path fill="none" stroke="white" stroke-width="1.5" d="M0,-3.0v7 M-2.5,-0.5L0,-3.0L2.5,-0.5"/>
                </g>
               <g id="resetDef">
                       <use xlink:href="#rim2" fill="#404040">
                               <set attributeName="fill" to="#808080" begin="reset.mouseover" end="reset.mouseout"/>
                       </use>
               </g>
        </defs>

<script type="text/javascript">
var viewWidth = 1493;
var viewHeight = 486;
var sectionId = 'dynsection-0';
</script>
<script xlink:href="svgpan.js"/>
<svg id="graph" class="graph">
<g id="viewport">
<title>drake/geometry/read_obj.h</title>
<polygon fill="white" stroke="transparent" points="-4,4 -4,-482 1489.48,-482 1489.48,4 -4,4"/>
<!-- Node0 -->
<g id="node1" class="node">
<title>Node0</title>
<g id="a_node1"><a xlink:title=" ">
<polygon fill="#bfbfbf" stroke="black" points="95.5,-447.5 95.5,-477.5 214.5,-477.5 214.5,-447.5 95.5,-447.5"/>
<text text-anchor="start" x="103.5" y="-465.5" font-family="Helvetica,sans-Serif" font-size="10.00">drake/geometry/read</text>
<text text-anchor="middle" x="155" y="-454.5" font-family="Helvetica,sans-Serif" font-size="10.00">_obj.h</text>
</a>
</g>
</g>
<!-- Node1 -->
<g id="node2" class="node">
<title>Node1</title>
<g id="a_node2"><a xlink:title=" ">
<polygon fill="white" stroke="#bfbfbf" points="0,-386 0,-405 58,-405 58,-386 0,-386"/>
<text text-anchor="middle" x="29" y="-393" font-family="Helvetica,sans-Serif" font-size="10.00">memory</text>
</a>
</g>
</g>
<!-- Node0&#45;&gt;Node1 -->
<g id="edge1" class="edge">
<title>Node0&#45;&gt;Node1</title>
<path fill="none" stroke="midnightblue" d="M127.66,-447.4C105.94,-436.19 75.8,-420.64 54.56,-409.69"/>
<polygon fill="midnightblue" stroke="midnightblue" points="55.98,-406.48 45.49,-405.01 52.77,-412.7 55.98,-406.48"/>
</g>
<!-- Node2 -->
<g id="node3" class="node">
<title>Node2</title>
<g id="a_node3"><a xlink:title=" ">
<polygon fill="white" stroke="#bfbfbf" points="72.5,-0.5 72.5,-19.5 113.5,-19.5 113.5,-0.5 72.5,-0.5"/>
<text text-anchor="middle" x="93" y="-7.5" font-family="Helvetica,sans-Serif" font-size="10.00">tuple</text>
</a>
</g>
</g>
<!-- Node0&#45;&gt;Node2 -->
<g id="edge2" class="edge">
<title>Node0&#45;&gt;Node2</title>
<path fill="none" stroke="midnightblue" d="M141.7,-447.34C121.65,-424.46 86,-377.08 86,-329.5 86,-329.5 86,-329.5 86,-137.5 86,-99.14 89.25,-54.35 91.32,-29.68"/>
<polygon fill="midnightblue" stroke="midnightblue" points="94.82,-29.85 92.2,-19.58 87.84,-29.24 94.82,-29.85"/>
</g>
<!-- Node3 -->
<g id="node4" class="node">
<title>Node3</title>
<g id="a_node4"><a xlink:title=" ">
<polygon fill="white" stroke="#bfbfbf" points="152.5,-129 152.5,-148 199.5,-148 199.5,-129 152.5,-129"/>
<text text-anchor="middle" x="176" y="-136" font-family="Helvetica,sans-Serif" font-size="10.00">vector</text>
</a>
</g>
</g>
<!-- Node0&#45;&gt;Node3 -->
<g id="edge3" class="edge">
<title>Node0&#45;&gt;Node3</title>
<path fill="none" stroke="midnightblue" d="M149.46,-447.49C140.54,-423.66 124,-373.52 124,-329.5 124,-329.5 124,-329.5 124,-266 124,-224.26 148.52,-180.2 163.88,-156.68"/>
<polygon fill="midnightblue" stroke="midnightblue" points="166.92,-158.44 169.62,-148.19 161.12,-154.52 166.92,-158.44"/>
</g>
<!-- Node4 -->
<g id="node5" class="node">
<title>Node4</title>
<g id="a_node5"><a xlink:title=" ">
<polygon fill="white" stroke="#bfbfbf" points="152.5,-386 152.5,-405 221.5,-405 221.5,-386 152.5,-386"/>
<text text-anchor="middle" x="187" y="-393" font-family="Helvetica,sans-Serif" font-size="10.00">Eigen/Core</text>
</a>
</g>
</g>
<!-- Node0&#45;&gt;Node4 -->
<g id="edge4" class="edge">
<title>Node0&#45;&gt;Node4</title>
<path fill="none" stroke="midnightblue" d="M161.94,-447.4C166.74,-437.66 173.14,-424.65 178.28,-414.21"/>
<polygon fill="midnightblue" stroke="midnightblue" points="181.44,-415.71 182.72,-405.19 175.16,-412.62 181.44,-415.71"/>
</g>
<!-- Node5 -->
<g id="node6" class="node">
<title>Node5</title>
<g id="a_node6"><a xlink:href="diagnostic__policy_8h.html" target="_top" xlink:title=" ">
<polygon fill="white" stroke="black" points="980.5,-123.5 980.5,-153.5 1123.5,-153.5 1123.5,-123.5 980.5,-123.5"/>
<text text-anchor="start" x="988.5" y="-141.5" font-family="Helvetica,sans-Serif" font-size="10.00">drake/common/diagnostic</text>
<text text-anchor="middle" x="1052" y="-130.5" font-family="Helvetica,sans-Serif" font-size="10.00">_policy.h</text>
</a>
</g>
</g>
<!-- Node0&#45;&gt;Node5 -->
<g id="edge5" class="edge">
<title>Node0&#45;&gt;Node5</title>
<path fill="none" stroke="midnightblue" d="M214.52,-458.72C410.18,-448.79 1021,-411.25 1021,-329.5 1021,-329.5 1021,-329.5 1021,-266 1021,-229.23 1033.51,-188.14 1042.63,-163.05"/>
<polygon fill="midnightblue" stroke="midnightblue" points="1045.92,-164.23 1046.17,-153.64 1039.37,-161.77 1045.92,-164.23"/>
</g>
<!-- Node10 -->
<g id="node11" class="node">
<title>Node10</title>
<g id="a_node11"><a xlink:href="mesh__source_8h.html" target="_top" xlink:title=" ">
<polygon fill="white" stroke="black" points="320,-380.5 320,-410.5 444,-410.5 444,-380.5 320,-380.5"/>
<text text-anchor="start" x="328" y="-398.5" font-family="Helvetica,sans-Serif" font-size="10.00">drake/geometry/mesh</text>
<text text-anchor="middle" x="382" y="-387.5" font-family="Helvetica,sans-Serif" font-size="10.00">_source.h</text>
</a>
</g>
</g>
<!-- Node0&#45;&gt;Node10 -->
<g id="edge10" class="edge">
<title>Node0&#45;&gt;Node10</title>
<path fill="none" stroke="midnightblue" d="M203.98,-447.48C238.91,-437.47 286.06,-423.97 323.06,-413.38"/>
<polygon fill="midnightblue" stroke="midnightblue" points="324.07,-416.73 332.72,-410.61 322.14,-410 324.07,-416.73"/>
</g>
<!-- Node6 -->
<g id="node7" class="node">
<title>Node6</title>
<g id="a_node7"><a xlink:title=" ">
<polygon fill="white" stroke="#bfbfbf" points="1017.5,-62 1017.5,-81 1082.5,-81 1082.5,-62 1017.5,-62"/>
<text text-anchor="middle" x="1050" y="-69" font-family="Helvetica,sans-Serif" font-size="10.00">functional</text>
</a>
</g>
</g>
<!-- Node5&#45;&gt;Node6 -->
<g id="edge6" class="edge">
<title>Node5&#45;&gt;Node6</title>
<path fill="none" stroke="midnightblue" d="M1051.57,-123.4C1051.28,-114.06 1050.9,-101.71 1050.59,-91.52"/>
<polygon fill="midnightblue" stroke="midnightblue" points="1054.07,-91.08 1050.27,-81.19 1047.08,-91.3 1054.07,-91.08"/>
</g>
<!-- Node7 -->
<g id="node8" class="node">
<title>Node7</title>
<g id="a_node8"><a xlink:title=" ">
<polygon fill="white" stroke="#bfbfbf" points="905,-62 905,-81 961,-81 961,-62 905,-62"/>
<text text-anchor="middle" x="933" y="-69" font-family="Helvetica,sans-Serif" font-size="10.00">optional</text>
</a>
</g>
</g>
<!-- Node5&#45;&gt;Node7 -->
<g id="edge7" class="edge">
<title>Node5&#45;&gt;Node7</title>
<path fill="none" stroke="midnightblue" d="M1026.18,-123.4C1005.76,-112.24 977.45,-96.78 957.41,-85.83"/>
<polygon fill="midnightblue" stroke="midnightblue" points="959.03,-82.73 948.57,-81.01 955.67,-88.87 959.03,-82.73"/>
</g>
<!-- Node8 -->
<g id="node9" class="node">
<title>Node8</title>
<g id="a_node9"><a xlink:title=" ">
<polygon fill="white" stroke="#bfbfbf" points="855,-0.5 855,-19.5 899,-19.5 899,-0.5 855,-0.5"/>
<text text-anchor="middle" x="877" y="-7.5" font-family="Helvetica,sans-Serif" font-size="10.00">string</text>
</a>
</g>
</g>
<!-- Node5&#45;&gt;Node8 -->
<g id="edge8" class="edge">
<title>Node5&#45;&gt;Node8</title>
<path fill="none" stroke="midnightblue" d="M987.93,-123.42C950.84,-114.02 908.97,-100.89 896,-87 881.67,-71.66 877.71,-47.18 876.83,-30.17"/>
<polygon fill="midnightblue" stroke="midnightblue" points="880.32,-29.71 876.62,-19.78 873.32,-29.85 880.32,-29.71"/>
</g>
<!-- Node9 -->
<g id="node10" class="node">
<title>Node9</title>
<g id="a_node10"><a xlink:href="drake__copyable_8h.html" target="_top" xlink:title="Provides careful macros to selectively enable or disable the special member functions for copy&#45;constr...">
<polygon fill="white" stroke="black" points="729.5,-56.5 729.5,-86.5 848.5,-86.5 848.5,-56.5 729.5,-56.5"/>
<text text-anchor="start" x="737.5" y="-74.5" font-family="Helvetica,sans-Serif" font-size="10.00">drake/common/drake</text>
<text text-anchor="middle" x="789" y="-63.5" font-family="Helvetica,sans-Serif" font-size="10.00">_copyable.h</text>
</a>
</g>
</g>
<!-- Node5&#45;&gt;Node9 -->
<g id="edge9" class="edge">
<title>Node5&#45;&gt;Node9</title>
<path fill="none" stroke="midnightblue" d="M995.26,-123.48C954.35,-113.37 898.99,-99.68 855.92,-89.04"/>
<polygon fill="midnightblue" stroke="midnightblue" points="856.64,-85.61 846.09,-86.61 854.96,-92.41 856.64,-85.61"/>
</g>
<!-- Node10&#45;&gt;Node8 -->
<g id="edge12" class="edge">
<title>Node10&#45;&gt;Node8</title>
<path fill="none" stroke="midnightblue" d="M378.43,-380.19C372.92,-356.85 363,-309.09 363,-268 363,-268 363,-268 363,-204.5 363,-167.31 366.16,-156.65 382,-123 397.93,-89.14 400.35,-74.29 433,-56 503.64,-16.43 754.88,-11.48 844.75,-10.99"/>
<polygon fill="midnightblue" stroke="midnightblue" points="844.9,-14.49 854.88,-10.95 844.87,-7.49 844.9,-14.49"/>
</g>
<!-- Node10&#45;&gt;Node9 -->
<g id="edge15" class="edge">
<title>Node10&#45;&gt;Node9</title>
<path fill="none" stroke="midnightblue" d="M444.09,-393.73C591.82,-390.24 952,-371.14 952,-268 952,-268 952,-268 952,-204.5 952,-163.95 940.71,-150.6 911,-123 895.27,-108.39 874.71,-97.7 854.97,-90.04"/>
<polygon fill="midnightblue" stroke="midnightblue" points="855.97,-86.67 845.37,-86.51 853.55,-93.24 855.97,-86.67"/>
</g>
<!-- Node11 -->
<g id="node12" class="node">
<title>Node11</title>
<g id="a_node12"><a xlink:title=" ">
<polygon fill="white" stroke="#bfbfbf" points="391,-129 391,-148 459,-148 459,-129 391,-129"/>
<text text-anchor="middle" x="425" y="-136" font-family="Helvetica,sans-Serif" font-size="10.00">filesystem</text>
</a>
</g>
</g>
<!-- Node10&#45;&gt;Node11 -->
<g id="edge11" class="edge">
<title>Node10&#45;&gt;Node11</title>
<path fill="none" stroke="midnightblue" d="M384.37,-380.43C391.64,-337.32 413.61,-207.05 421.84,-158.24"/>
<polygon fill="midnightblue" stroke="midnightblue" points="425.33,-158.6 423.54,-148.16 418.43,-157.44 425.33,-158.6"/>
</g>
<!-- Node12 -->
<g id="node13" class="node">
<title>Node12</title>
<g id="a_node13"><a xlink:title=" ">
<polygon fill="white" stroke="#bfbfbf" points="139.5,-0.5 139.5,-19.5 184.5,-19.5 184.5,-0.5 139.5,-0.5"/>
<text text-anchor="middle" x="162" y="-7.5" font-family="Helvetica,sans-Serif" font-size="10.00">utility</text>
</a>
</g>
</g>
<!-- Node10&#45;&gt;Node12 -->
<g id="edge13" class="edge">
<title>Node10&#45;&gt;Node12</title>
<path fill="none" stroke="midnightblue" d="M358.76,-380.39C307.91,-347.98 187.77,-262.57 143,-154 125.56,-111.71 142.68,-56.96 153.92,-29.07"/>
<polygon fill="midnightblue" stroke="midnightblue" points="157.18,-30.35 157.86,-19.78 150.74,-27.62 157.18,-30.35"/>
</g>
<!-- Node13 -->
<g id="node14" class="node">
<title>Node13</title>
<g id="a_node14"><a xlink:title=" ">
<polygon fill="white" stroke="#bfbfbf" points="429.5,-196 429.5,-215 480.5,-215 480.5,-196 429.5,-196"/>
<text text-anchor="middle" x="455" y="-203" font-family="Helvetica,sans-Serif" font-size="10.00">variant</text>
</a>
</g>
</g>
<!-- Node10&#45;&gt;Node13 -->
<g id="edge14" class="edge">
<title>Node10&#45;&gt;Node13</title>
<path fill="none" stroke="midnightblue" d="M393.03,-380.14C400.11,-370.38 409.05,-356.94 415,-344 433.63,-303.48 445.79,-252.24 451.4,-225.19"/>
<polygon fill="midnightblue" stroke="midnightblue" points="454.87,-225.68 453.4,-215.18 448.01,-224.3 454.87,-225.68"/>
</g>
<!-- Node14 -->
<g id="node15" class="node">
<title>Node14</title>
<g id="a_node15"><a xlink:href="reset__after__move_8h.html" target="_top" xlink:title=" ">
<polygon fill="white" stroke="black" points="217.5,-123.5 217.5,-153.5 334.5,-153.5 334.5,-123.5 217.5,-123.5"/>
<text text-anchor="start" x="225.5" y="-141.5" font-family="Helvetica,sans-Serif" font-size="10.00">drake/common/reset</text>
<text text-anchor="middle" x="276" y="-130.5" font-family="Helvetica,sans-Serif" font-size="10.00">_after_move.h</text>
</a>
</g>
</g>
<!-- Node10&#45;&gt;Node14 -->
<g id="edge16" class="edge">
<title>Node10&#45;&gt;Node14</title>
<path fill="none" stroke="midnightblue" d="M371.53,-380.45C364.51,-370.61 355.43,-356.95 349,-344 317.97,-281.5 293.65,-202.47 282.56,-163.49"/>
<polygon fill="midnightblue" stroke="midnightblue" points="285.85,-162.29 279.78,-153.6 279.11,-164.18 285.85,-162.29"/>
</g>
<!-- Node16 -->
<g id="node17" class="node">
<title>Node16</title>
<g id="a_node17"><a xlink:href="in__memory__mesh_8h.html" target="_top" xlink:title=" ">
<polygon fill="white" stroke="black" points="600,-313.5 600,-343.5 752,-343.5 752,-313.5 600,-313.5"/>
<text text-anchor="start" x="608" y="-331.5" font-family="Helvetica,sans-Serif" font-size="10.00">drake/geometry/in_memory</text>
<text text-anchor="middle" x="676" y="-320.5" font-family="Helvetica,sans-Serif" font-size="10.00">_mesh.h</text>
</a>
</g>
</g>
<!-- Node10&#45;&gt;Node16 -->
<g id="edge19" class="edge">
<title>Node10&#45;&gt;Node16</title>
<path fill="none" stroke="midnightblue" d="M444.35,-380.72C490.63,-370.48 553.9,-356.5 602.62,-345.72"/>
<polygon fill="midnightblue" stroke="midnightblue" points="603.46,-349.12 612.47,-343.55 601.95,-342.29 603.46,-349.12"/>
</g>
<!-- Node14&#45;&gt;Node12 -->
<g id="edge18" class="edge">
<title>Node14&#45;&gt;Node12</title>
<path fill="none" stroke="midnightblue" d="M257.19,-123.29C245.07,-113.7 229.34,-100.38 217,-87 200,-68.55 183.54,-44.79 173.13,-28.79"/>
<polygon fill="midnightblue" stroke="midnightblue" points="175.82,-26.49 167.48,-19.94 169.92,-30.25 175.82,-26.49"/>
</g>
<!-- Node15 -->
<g id="node16" class="node">
<title>Node15</title>
<g id="a_node16"><a xlink:title=" ">
<polygon fill="white" stroke="#bfbfbf" points="203.5,-0.5 203.5,-19.5 272.5,-19.5 272.5,-0.5 203.5,-0.5"/>
<text text-anchor="middle" x="238" y="-7.5" font-family="Helvetica,sans-Serif" font-size="10.00">type_traits</text>
</a>
</g>
</g>
<!-- Node14&#45;&gt;Node15 -->
<g id="edge17" class="edge">
<title>Node14&#45;&gt;Node15</title>
<path fill="none" stroke="midnightblue" d="M254.7,-123.38C243.27,-114.46 230.27,-101.84 224,-87 216.03,-68.15 222.53,-44.77 229.09,-28.96"/>
<polygon fill="midnightblue" stroke="midnightblue" points="232.31,-30.34 233.25,-19.78 225.93,-27.44 232.31,-30.34"/>
</g>
<!-- Node16&#45;&gt;Node8 -->
<g id="edge20" class="edge">
<title>Node16&#45;&gt;Node8</title>
<path fill="none" stroke="midnightblue" d="M752.22,-322.49C932.17,-308.93 1374.98,-264.75 1464,-154 1491.29,-120.05 1493.6,-87.95 1464,-56 1426.11,-15.1 1026.4,-11.23 909.15,-10.98"/>
<polygon fill="midnightblue" stroke="midnightblue" points="909.02,-7.48 899.02,-10.96 909.01,-14.48 909.02,-7.48"/>
</g>
<!-- Node17 -->
<g id="node18" class="node">
<title>Node17</title>
<g id="a_node18"><a xlink:href="file__source_8h.html" target="_top" xlink:title=" ">
<polygon fill="white" stroke="black" points="467,-257.5 467,-276.5 621,-276.5 621,-257.5 467,-257.5"/>
<text text-anchor="middle" x="544" y="-264.5" font-family="Helvetica,sans-Serif" font-size="10.00">drake/common/file_source.h</text>
</a>
</g>
</g>
<!-- Node16&#45;&gt;Node17 -->
<g id="edge21" class="edge">
<title>Node16&#45;&gt;Node17</title>
<path fill="none" stroke="midnightblue" d="M644.72,-313.4C622.77,-303.51 593.66,-290.38 572.38,-280.79"/>
<polygon fill="midnightblue" stroke="midnightblue" points="573.76,-277.58 563.21,-276.66 570.89,-283.96 573.76,-277.58"/>
</g>
<!-- Node18 -->
<g id="node19" class="node">
<title>Node18</title>
<g id="a_node19"><a xlink:href="fmt_8h.html" target="_top" xlink:title=" ">
<polygon fill="white" stroke="black" points="477.5,-129 477.5,-148 596.5,-148 596.5,-129 477.5,-129"/>
<text text-anchor="middle" x="537" y="-136" font-family="Helvetica,sans-Serif" font-size="10.00">drake/common/fmt.h</text>
</a>
</g>
</g>
<!-- Node16&#45;&gt;Node18 -->
<g id="edge54" class="edge">
<title>Node16&#45;&gt;Node18</title>
<path fill="none" stroke="midnightblue" d="M667.38,-313.47C658.4,-299.06 643.74,-276.1 630,-257 603.3,-219.9 569.45,-178.39 550.84,-155.99"/>
<polygon fill="midnightblue" stroke="midnightblue" points="553.38,-153.57 544.28,-148.13 548,-158.05 553.38,-153.57"/>
</g>
<!-- Node21 -->
<g id="node22" class="node">
<title>Node21</title>
<g id="a_node22"><a xlink:href="memory__file_8h.html" target="_top" xlink:title=" ">
<polygon fill="white" stroke="black" points="653,-190.5 653,-220.5 787,-220.5 787,-190.5 653,-190.5"/>
<text text-anchor="start" x="661" y="-208.5" font-family="Helvetica,sans-Serif" font-size="10.00">drake/common/memory</text>
<text text-anchor="middle" x="720" y="-197.5" font-family="Helvetica,sans-Serif" font-size="10.00">_file.h</text>
</a>
</g>
</g>
<!-- Node16&#45;&gt;Node21 -->
<g id="edge55" class="edge">
<title>Node16&#45;&gt;Node21</title>
<path fill="none" stroke="midnightblue" d="M681.22,-313.14C688.63,-292.77 702.29,-255.2 711.26,-230.53"/>
<polygon fill="midnightblue" stroke="midnightblue" points="714.66,-231.43 714.79,-220.84 708.08,-229.04 714.66,-231.43"/>
</g>
<!-- Node30 -->
<g id="node31" class="node">
<title>Node30</title>
<g id="a_node31"><a xlink:href="string__map_8h.html" target="_top" xlink:title=" ">
<polygon fill="white" stroke="black" points="1335,-123.5 1335,-153.5 1455,-153.5 1455,-123.5 1335,-123.5"/>
<text text-anchor="start" x="1343" y="-141.5" font-family="Helvetica,sans-Serif" font-size="10.00">drake/common/string</text>
<text text-anchor="middle" x="1395" y="-130.5" font-family="Helvetica,sans-Serif" font-size="10.00">_map.h</text>
</a>
</g>
</g>
<!-- Node16&#45;&gt;Node30 -->
<g id="edge56" class="edge">
<title>Node16&#45;&gt;Node30</title>
<path fill="none" stroke="midnightblue" d="M692.61,-313.45C728.01,-284.42 814.64,-218.19 900,-190 1074.12,-132.5 1129.16,-177.62 1311,-154 1315.5,-153.42 1320.12,-152.76 1324.78,-152.07"/>
<polygon fill="midnightblue" stroke="midnightblue" points="1325.64,-155.48 1334.98,-150.49 1324.57,-148.56 1325.64,-155.48"/>
</g>
<!-- Node17&#45;&gt;Node8 -->
<g id="edge23" class="edge">
<title>Node17&#45;&gt;Node8</title>
<path fill="none" stroke="midnightblue" d="M548.24,-257.24C564.78,-224.14 628.62,-106.02 720,-56 760.06,-34.07 811.86,-21.92 844.77,-15.93"/>
<polygon fill="midnightblue" stroke="midnightblue" points="845.5,-19.35 854.75,-14.19 844.3,-12.46 845.5,-19.35"/>
</g>
<!-- Node17&#45;&gt;Node11 -->
<g id="edge22" class="edge">
<title>Node17&#45;&gt;Node11</title>
<path fill="none" stroke="midnightblue" d="M538.91,-257.44C529.92,-242.73 510.2,-212.1 489,-190 476.1,-176.56 459.55,-163.59 446.51,-154.16"/>
<polygon fill="midnightblue" stroke="midnightblue" points="448.32,-151.15 438.13,-148.23 444.27,-156.86 448.32,-151.15"/>
</g>
<!-- Node17&#45;&gt;Node13 -->
<g id="edge24" class="edge">
<title>Node17&#45;&gt;Node13</title>
<path fill="none" stroke="midnightblue" d="M531.25,-257.48C516.97,-247.93 493.6,-232.31 476.49,-220.87"/>
<polygon fill="midnightblue" stroke="midnightblue" points="477.99,-217.66 467.73,-215.01 474.1,-223.48 477.99,-217.66"/>
</g>
<!-- Node17&#45;&gt;Node18 -->
<g id="edge25" class="edge">
<title>Node17&#45;&gt;Node18</title>
<path fill="none" stroke="midnightblue" d="M543.52,-257.31C542.39,-236.99 539.58,-186.05 538.04,-158.28"/>
<polygon fill="midnightblue" stroke="midnightblue" points="541.53,-158.05 537.48,-148.26 534.54,-158.43 541.53,-158.05"/>
</g>
<!-- Node17&#45;&gt;Node21 -->
<g id="edge30" class="edge">
<title>Node17&#45;&gt;Node21</title>
<path fill="none" stroke="midnightblue" d="M569.22,-257.48C595.06,-248.74 635.97,-234.91 668.66,-223.86"/>
<polygon fill="midnightblue" stroke="midnightblue" points="670.17,-227.04 678.52,-220.52 667.93,-220.41 670.17,-227.04"/>
</g>
<!-- Node18&#45;&gt;Node8 -->
<g id="edge26" class="edge">
<title>Node18&#45;&gt;Node8</title>
<path fill="none" stroke="midnightblue" d="M552.07,-128.88C569.04,-119.08 597.33,-102.42 621,-87 641.04,-73.94 643.07,-65.57 665,-56 725.24,-29.71 801.99,-18.35 844.66,-13.78"/>
<polygon fill="midnightblue" stroke="midnightblue" points="845.15,-17.25 854.74,-12.76 844.44,-10.28 845.15,-17.25"/>
</g>
<!-- Node18&#45;&gt;Node15 -->
<g id="edge28" class="edge">
<title>Node18&#45;&gt;Node15</title>
<path fill="none" stroke="midnightblue" d="M497.64,-128.96C487.97,-126.93 477.62,-124.83 468,-123 374.54,-105.21 326.78,-151.67 257,-87 241.29,-72.44 237.72,-47.03 237.3,-29.63"/>
<polygon fill="midnightblue" stroke="midnightblue" points="240.8,-29.57 237.38,-19.55 233.8,-29.52 240.8,-29.57"/>
</g>
<!-- Node19 -->
<g id="node20" class="node">
<title>Node19</title>
<g id="a_node20"><a xlink:title=" ">
<polygon fill="white" stroke="#bfbfbf" points="442.5,-62 442.5,-81 515.5,-81 515.5,-62 442.5,-62"/>
<text text-anchor="middle" x="479" y="-69" font-family="Helvetica,sans-Serif" font-size="10.00">string_view</text>
</a>
</g>
</g>
<!-- Node18&#45;&gt;Node19 -->
<g id="edge27" class="edge">
<title>Node18&#45;&gt;Node19</title>
<path fill="none" stroke="midnightblue" d="M529.18,-128.73C520.05,-118.5 504.76,-101.36 493.45,-88.69"/>
<polygon fill="midnightblue" stroke="midnightblue" points="495.97,-86.26 486.7,-81.13 490.74,-90.92 495.97,-86.26"/>
</g>
<!-- Node20 -->
<g id="node21" class="node">
<title>Node20</title>
<g id="a_node21"><a xlink:title=" ">
<polygon fill="white" stroke="#bfbfbf" points="533.5,-62 533.5,-81 612.5,-81 612.5,-62 533.5,-62"/>
<text text-anchor="middle" x="573" y="-69" font-family="Helvetica,sans-Serif" font-size="10.00">fmt/format.h</text>
</a>
</g>
</g>
<!-- Node18&#45;&gt;Node20 -->
<g id="edge29" class="edge">
<title>Node18&#45;&gt;Node20</title>
<path fill="none" stroke="midnightblue" d="M541.86,-128.73C547.31,-118.89 556.3,-102.66 563.22,-90.16"/>
<polygon fill="midnightblue" stroke="midnightblue" points="566.44,-91.57 568.22,-81.13 560.31,-88.18 566.44,-91.57"/>
</g>
<!-- Node21&#45;&gt;Node3 -->
<g id="edge34" class="edge">
<title>Node21&#45;&gt;Node3</title>
<path fill="none" stroke="midnightblue" d="M652.74,-200.6C533.57,-193.24 290.18,-176.03 208,-154 205.85,-153.42 203.65,-152.71 201.48,-151.92"/>
<polygon fill="midnightblue" stroke="midnightblue" points="202.81,-148.69 192.23,-148.09 200.13,-155.15 202.81,-148.69"/>
</g>
<!-- Node21&#45;&gt;Node8 -->
<g id="edge33" class="edge">
<title>Node21&#45;&gt;Node8</title>
<path fill="none" stroke="midnightblue" d="M787.14,-195.17C801.59,-193.31 816.79,-191.49 831,-190 881.66,-184.7 1247.74,-185.2 1288,-154 1312.88,-134.71 1305.82,-118.05 1311,-87 1313.27,-73.41 1320.23,-66.23 1311,-56 1284.17,-26.24 1005.26,-14.94 909.26,-11.91"/>
<polygon fill="midnightblue" stroke="midnightblue" points="909.36,-8.41 899.25,-11.6 909.14,-15.41 909.36,-8.41"/>
</g>
<!-- Node21&#45;&gt;Node9 -->
<g id="edge35" class="edge">
<title>Node21&#45;&gt;Node9</title>
<path fill="none" stroke="midnightblue" d="M787.12,-193.54C830.34,-184.96 880.82,-171.54 894,-154 902.27,-142.98 901.33,-134.66 894,-123 885,-108.68 870.67,-98.32 855.45,-90.87"/>
<polygon fill="midnightblue" stroke="midnightblue" points="856.46,-87.49 845.91,-86.6 853.6,-93.88 856.46,-87.49"/>
</g>
<!-- Node21&#45;&gt;Node11 -->
<g id="edge32" class="edge">
<title>Node21&#45;&gt;Node11</title>
<path fill="none" stroke="midnightblue" d="M652.88,-193.45C601.79,-184.47 529.96,-170.58 468,-154 464.8,-153.14 461.5,-152.18 458.21,-151.16"/>
<polygon fill="midnightblue" stroke="midnightblue" points="459.08,-147.77 448.49,-148.02 456.93,-154.43 459.08,-147.77"/>
</g>
<!-- Node21&#45;&gt;Node14 -->
<g id="edge45" class="edge">
<title>Node21&#45;&gt;Node14</title>
<path fill="none" stroke="midnightblue" d="M652.57,-194.63C569.34,-182.44 428.59,-161.84 344.76,-149.57"/>
<polygon fill="midnightblue" stroke="midnightblue" points="345.23,-146.1 334.83,-148.11 344.21,-153.02 345.23,-146.1"/>
</g>
<!-- Node21&#45;&gt;Node18 -->
<g id="edge36" class="edge">
<title>Node21&#45;&gt;Node18</title>
<path fill="none" stroke="midnightblue" d="M680.29,-190.4C647.47,-178.74 601.4,-162.37 570.44,-151.38"/>
<polygon fill="midnightblue" stroke="midnightblue" points="571.55,-148.06 560.95,-148.01 569.2,-154.65 571.55,-148.06"/>
</g>
<!-- Node22 -->
<g id="node23" class="node">
<title>Node22</title>
<g id="a_node23"><a xlink:title=" ">
<polygon fill="white" stroke="#bfbfbf" points="832.5,-129 832.5,-148 885.5,-148 885.5,-129 832.5,-129"/>
<text text-anchor="middle" x="859" y="-136" font-family="Helvetica,sans-Serif" font-size="10.00">cstddef</text>
</a>
</g>
</g>
<!-- Node21&#45;&gt;Node22 -->
<g id="edge31" class="edge">
<title>Node21&#45;&gt;Node22</title>
<path fill="none" stroke="midnightblue" d="M750.16,-190.4C774.44,-179.04 808.28,-163.22 831.75,-152.24"/>
<polygon fill="midnightblue" stroke="midnightblue" points="833.23,-155.41 840.81,-148.01 830.27,-149.07 833.23,-155.41"/>
</g>
<!-- Node23 -->
<g id="node24" class="node">
<title>Node23</title>
<g id="a_node24"><a xlink:href="name__value_8h.html" target="_top" xlink:title=" ">
<polygon fill="white" stroke="black" points="653.5,-129 653.5,-148 814.5,-148 814.5,-129 653.5,-129"/>
<text text-anchor="middle" x="734" y="-136" font-family="Helvetica,sans-Serif" font-size="10.00">drake/common/name_value.h</text>
</a>
</g>
</g>
<!-- Node21&#45;&gt;Node23 -->
<g id="edge37" class="edge">
<title>Node21&#45;&gt;Node23</title>
<path fill="none" stroke="midnightblue" d="M723.04,-190.4C725.07,-180.96 727.76,-168.45 729.97,-158.19"/>
<polygon fill="midnightblue" stroke="midnightblue" points="733.44,-158.71 732.13,-148.19 726.6,-157.23 733.44,-158.71"/>
</g>
<!-- Node26 -->
<g id="node27" class="node">
<title>Node26</title>
<g id="a_node27"><a xlink:href="sha256_8h.html" target="_top" xlink:title=" ">
<polygon fill="white" stroke="black" points="1141.5,-129 1141.5,-148 1278.5,-148 1278.5,-129 1141.5,-129"/>
<text text-anchor="middle" x="1210" y="-136" font-family="Helvetica,sans-Serif" font-size="10.00">drake/common/sha256.h</text>
</a>
</g>
</g>
<!-- Node21&#45;&gt;Node26 -->
<g id="edge46" class="edge">
<title>Node21&#45;&gt;Node26</title>
<path fill="none" stroke="midnightblue" d="M787.19,-195.6C801.64,-193.72 816.83,-191.77 831,-190 964.69,-173.27 998.81,-174.32 1132,-154 1140.03,-152.77 1148.51,-151.34 1156.79,-149.87"/>
<polygon fill="midnightblue" stroke="midnightblue" points="1157.55,-153.29 1166.76,-148.05 1156.3,-146.4 1157.55,-153.29"/>
</g>
<!-- Node23&#45;&gt;Node9 -->
<g id="edge44" class="edge">
<title>Node23&#45;&gt;Node9</title>
<path fill="none" stroke="midnightblue" d="M741.42,-128.73C748.85,-119.95 760.59,-106.08 770.54,-94.31"/>
<polygon fill="midnightblue" stroke="midnightblue" points="773.29,-96.48 777.08,-86.59 767.95,-91.96 773.29,-96.48"/>
</g>
<!-- Node24 -->
<g id="node25" class="node">
<title>Node24</title>
<g id="a_node25"><a xlink:href="drake__assert_8h.html" target="_top" xlink:title="Provides Drake&#39;s assertion mechanics.">
<polygon fill="white" stroke="black" points="266.5,-56.5 266.5,-86.5 385.5,-86.5 385.5,-56.5 266.5,-56.5"/>
<text text-anchor="start" x="274.5" y="-74.5" font-family="Helvetica,sans-Serif" font-size="10.00">drake/common/drake</text>
<text text-anchor="middle" x="326" y="-63.5" font-family="Helvetica,sans-Serif" font-size="10.00">_assert.h</text>
</a>
</g>
</g>
<!-- Node23&#45;&gt;Node24 -->
<g id="edge38" class="edge">
<title>Node23&#45;&gt;Node24</title>
<path fill="none" stroke="midnightblue" d="M680.24,-128.94C607.09,-117.28 476.12,-96.42 395.56,-83.58"/>
<polygon fill="midnightblue" stroke="midnightblue" points="395.93,-80.1 385.51,-81.98 394.83,-87.01 395.93,-80.1"/>
</g>
<!-- Node24&#45;&gt;Node2 -->
<g id="edge41" class="edge">
<title>Node24&#45;&gt;Node2</title>
<path fill="none" stroke="midnightblue" d="M271.08,-56.47C224.96,-44.7 160.78,-28.31 123.39,-18.76"/>
<polygon fill="midnightblue" stroke="midnightblue" points="124.14,-15.34 113.59,-16.26 122.41,-22.12 124.14,-15.34"/>
</g>
<!-- Node24&#45;&gt;Node8 -->
<g id="edge40" class="edge">
<title>Node24&#45;&gt;Node8</title>
<path fill="none" stroke="midnightblue" d="M385.69,-58.28C390.52,-57.45 395.34,-56.68 400,-56 566.29,-31.93 767.14,-17.83 844.48,-12.95"/>
<polygon fill="midnightblue" stroke="midnightblue" points="844.79,-16.44 854.55,-12.32 844.36,-9.45 844.79,-16.44"/>
</g>
<!-- Node24&#45;&gt;Node12 -->
<g id="edge43" class="edge">
<title>Node24&#45;&gt;Node12</title>
<path fill="none" stroke="midnightblue" d="M287.13,-56.4C258.91,-46.16 221.16,-32.46 194.53,-22.8"/>
<polygon fill="midnightblue" stroke="midnightblue" points="195.51,-19.43 184.91,-19.31 193.12,-26.01 195.51,-19.43"/>
</g>
<!-- Node24&#45;&gt;Node15 -->
<g id="edge42" class="edge">
<title>Node24&#45;&gt;Node15</title>
<path fill="none" stroke="midnightblue" d="M305.15,-56.4C291.3,-47.04 273.19,-34.79 259.26,-25.38"/>
<polygon fill="midnightblue" stroke="midnightblue" points="261.05,-22.36 250.8,-19.66 257.13,-28.16 261.05,-22.36"/>
</g>
<!-- Node25 -->
<g id="node26" class="node">
<title>Node25</title>
<g id="a_node26"><a xlink:title=" ">
<polygon fill="white" stroke="#bfbfbf" points="550,-0.5 550,-19.5 592,-19.5 592,-0.5 550,-0.5"/>
<text text-anchor="middle" x="571" y="-7.5" font-family="Helvetica,sans-Serif" font-size="10.00">array</text>
</a>
</g>
</g>
<!-- Node24&#45;&gt;Node25 -->
<g id="edge39" class="edge">
<title>Node24&#45;&gt;Node25</title>
<path fill="none" stroke="midnightblue" d="M383.75,-56.47C432.71,-44.58 501.03,-27.99 540.18,-18.49"/>
<polygon fill="midnightblue" stroke="midnightblue" points="541.04,-21.88 549.93,-16.12 539.39,-15.07 541.04,-21.88"/>
</g>
<!-- Node26&#45;&gt;Node7 -->
<g id="edge51" class="edge">
<title>Node26&#45;&gt;Node7</title>
<path fill="none" stroke="midnightblue" d="M1167.32,-128.97C1109.85,-117.38 1010.67,-96.95 975,-87 972.05,-86.18 969,-85.26 965.96,-84.3"/>
<polygon fill="midnightblue" stroke="midnightblue" points="966.98,-80.95 956.39,-81.13 964.79,-87.6 966.98,-80.95"/>
</g>
<!-- Node26&#45;&gt;Node8 -->
<g id="edge52" class="edge">
<title>Node26&#45;&gt;Node8</title>
<path fill="none" stroke="midnightblue" d="M1230.81,-128.98C1263.17,-114.57 1319.32,-84.2 1294,-56 1268.38,-27.47 1002.62,-15.42 909.23,-12.05"/>
<polygon fill="midnightblue" stroke="midnightblue" points="909.34,-8.55 899.23,-11.7 909.1,-15.55 909.34,-8.55"/>
</g>
<!-- Node26&#45;&gt;Node9 -->
<g id="edge53" class="edge">
<title>Node26&#45;&gt;Node9</title>
<path fill="none" stroke="midnightblue" d="M1165.5,-128.93C1154.56,-126.9 1142.87,-124.81 1132,-123 1037.49,-107.26 927.91,-91.57 858.53,-81.96"/>
<polygon fill="midnightblue" stroke="midnightblue" points="858.98,-78.48 848.59,-80.58 858.02,-85.42 858.98,-78.48"/>
</g>
<!-- Node26&#45;&gt;Node25 -->
<g id="edge47" class="edge">
<title>Node26&#45;&gt;Node25</title>
<path fill="none" stroke="midnightblue" d="M1166.67,-128.98C1116,-118.62 1035.55,-100.81 1008,-87 988.51,-77.23 990.09,-64.45 970,-56 903.59,-28.05 684.26,-15.9 602.28,-12.25"/>
<polygon fill="midnightblue" stroke="midnightblue" points="602.24,-8.75 592.1,-11.81 601.94,-15.74 602.24,-8.75"/>
</g>
<!-- Node27 -->
<g id="node28" class="node">
<title>Node27</title>
<g id="a_node28"><a xlink:title=" ">
<polygon fill="white" stroke="#bfbfbf" points="1101,-62 1101,-81 1151,-81 1151,-62 1101,-62"/>
<text text-anchor="middle" x="1126" y="-69" font-family="Helvetica,sans-Serif" font-size="10.00">cstdint</text>
</a>
</g>
</g>
<!-- Node26&#45;&gt;Node27 -->
<g id="edge48" class="edge">
<title>Node26&#45;&gt;Node27</title>
<path fill="none" stroke="midnightblue" d="M1198.67,-128.73C1184.94,-118.11 1161.6,-100.05 1145.08,-87.26"/>
<polygon fill="midnightblue" stroke="midnightblue" points="1147.2,-84.48 1137.15,-81.13 1142.92,-90.02 1147.2,-84.48"/>
</g>
<!-- Node28 -->
<g id="node29" class="node">
<title>Node28</title>
<g id="a_node29"><a xlink:title=" ">
<polygon fill="white" stroke="#bfbfbf" points="1169,-62 1169,-81 1219,-81 1219,-62 1169,-62"/>
<text text-anchor="middle" x="1194" y="-69" font-family="Helvetica,sans-Serif" font-size="10.00">cstring</text>
</a>
</g>
</g>
<!-- Node26&#45;&gt;Node28 -->
<g id="edge49" class="edge">
<title>Node26&#45;&gt;Node28</title>
<path fill="none" stroke="midnightblue" d="M1207.84,-128.73C1205.47,-119.09 1201.58,-103.3 1198.53,-90.91"/>
<polygon fill="midnightblue" stroke="midnightblue" points="1201.91,-90 1196.12,-81.13 1195.12,-91.67 1201.91,-90"/>
</g>
<!-- Node29 -->
<g id="node30" class="node">
<title>Node29</title>
<g id="a_node30"><a xlink:title=" ">
<polygon fill="white" stroke="#bfbfbf" points="1237,-62 1237,-81 1285,-81 1285,-62 1237,-62"/>
<text text-anchor="middle" x="1261" y="-69" font-family="Helvetica,sans-Serif" font-size="10.00">iosfwd</text>
</a>
</g>
</g>
<!-- Node26&#45;&gt;Node29 -->
<g id="edge50" class="edge">
<title>Node26&#45;&gt;Node29</title>
<path fill="none" stroke="midnightblue" d="M1216.88,-128.73C1224.83,-118.6 1238.1,-101.69 1248.01,-89.06"/>
<polygon fill="midnightblue" stroke="midnightblue" points="1250.81,-91.16 1254.23,-81.13 1245.3,-86.83 1250.81,-91.16"/>
</g>
<!-- Node30&#45;&gt;Node6 -->
<g id="edge57" class="edge">
<title>Node30&#45;&gt;Node6</title>
<path fill="none" stroke="midnightblue" d="M1334.85,-128.7C1260.08,-117.54 1136.84,-98.39 1092,-87 1088.79,-86.18 1085.47,-85.23 1082.17,-84.21"/>
<polygon fill="midnightblue" stroke="midnightblue" points="1083.05,-80.82 1072.46,-81.03 1080.87,-87.47 1083.05,-80.82"/>
</g>
<!-- Node30&#45;&gt;Node8 -->
<g id="edge59" class="edge">
<title>Node30&#45;&gt;Node8</title>
<path fill="none" stroke="midnightblue" d="M1394.21,-123.33C1392.33,-104.62 1386.04,-72.17 1365,-56 1328.91,-28.28 1012.35,-15.46 909.28,-12"/>
<polygon fill="midnightblue" stroke="midnightblue" points="909.27,-8.5 899.16,-11.67 909.04,-15.49 909.27,-8.5"/>
</g>
<!-- Node31 -->
<g id="node32" class="node">
<title>Node31</title>
<g id="a_node32"><a xlink:title=" ">
<polygon fill="white" stroke="#bfbfbf" points="1417,-62 1417,-81 1455,-81 1455,-62 1417,-62"/>
<text text-anchor="middle" x="1436" y="-69" font-family="Helvetica,sans-Serif" font-size="10.00">map</text>
</a>
</g>
</g>
<!-- Node30&#45;&gt;Node31 -->
<g id="edge58" class="edge">
<title>Node30&#45;&gt;Node31</title>
<path fill="none" stroke="midnightblue" d="M1403.9,-123.4C1410.1,-113.56 1418.42,-100.38 1425.03,-89.89"/>
<polygon fill="midnightblue" stroke="midnightblue" points="1428.14,-91.52 1430.52,-81.19 1422.22,-87.79 1428.14,-91.52"/>
</g>
</g>
</svg>
        <g id="navigator" transform="translate(0 0)" fill="#404254">
                <rect fill="#f2f5e9" fill-opacity="0.5" stroke="#606060" stroke-width=".5" x="0" y="0" width="60" height="60"/>
                <use id="zoomplus" xlink:href="#zoomPlus" x="17" y="9" onmousedown="handleZoom(evt,'in')"/>
                <use id="zoomminus" xlink:href="#zoomMin" x="42" y="9" onmousedown="handleZoom(evt,'out')"/>
                <use id="reset" xlink:href="#resetDef" x="30" y="36" onmousedown="handleReset()"/>
                <g id="arrowUp" xlink:href="#dirArrow" transform="translate(30 24)" onmousedown="handlePan(0,-1)">
                  <use xlink:href="#rim" fill="#404040">
                        <set attributeName="fill" to="#808080" begin="arrowUp.mouseover" end="arrowUp.mouseout"/>
                  </use>
                  <path fill="none" stroke="white" stroke-width="1.5" d="M0,-3.0v7 M-2.5,-0.5L0,-3.0L2.5,-0.5"/>
                </g>
                <g id="arrowRight" xlink:href="#dirArrow" transform="rotate(90) translate(36 -43)" onmousedown="handlePan(1,0)">
                  <use xlink:href="#rim" fill="#404040">
                        <set attributeName="fill" to="#808080" begin="arrowRight.mouseover" end="arrowRight.mouseout"/>
                  </use>
                  <path fill="none" stroke="white" stroke-width="1.5" d="M0,-3.0v7 M-2.5,-0.5L0,-3.0L2.5,-0.5"/>
                </g>
                <g id="arrowDown" xlink:href="#dirArrow" transform="rotate(180) translate(-30 -48)" onmousedown="handlePan(0,1)">
                  <use xlink:href="#rim" fill="#404040">
                        <set attributeName="fill" to="#808080" begin="arrowDown.mouseover" end="arrowDown.mouseout"/>
                  </use>
                  <path fill="none" stroke="white" stroke-width="1.5" d="M0,-3.0v7 M-2.5,-0.5L0,-3.0L2.5,-0.5"/>
                </g>
                <g id="arrowLeft" xlink:href="#dirArrow" transform="rotate(270) translate(-36 17)" onmousedown="handlePan(-1,0)">
                  <use xlink:href="#rim" fill="#404040">
                        <set attributeName="fill" to="#808080" begin="arrowLeft.mouseover" end="arrowLeft.mouseout"/>
                  </use>
                  <path fill="none" stroke="white" stroke-width="1.5" d="M0,-3.0v7 M-2.5,-0.5L0,-3.0L2.5,-0.5"/>
                </g>
        </g>
        <svg viewBox="0 0 15 15" width="100%" height="30px" preserveAspectRatio="xMaxYMin meet">
         <g id="arrow_out" transform="scale(0.3 0.3)">
          <a xlink:href="read__obj_8h__incl_org.svg" target="_base">
           <rect id="button" ry="5" rx="5" y="6" x="6" height="38" width="38"
                fill="#f2f5e9" fill-opacity="0.5" stroke="#606060" stroke-width="1.0"/>
           <path id="arrow"
             d="M 11.500037,31.436501 C 11.940474,20.09759 22.043105,11.32322 32.158766,21.979434 L 37.068811,17.246167 C 37.068811,17.246167 37.088388,32 37.088388,32 L 22.160133,31.978069 C 22.160133,31.978069 26.997745,27.140456 26.997745,27.140456 C 18.528582,18.264221 13.291696,25.230495 11.500037,31.436501 z"
             style="fill:#404040;"/>
          </a>
         </g>
        </svg>
</svg>
