<?xml version="1.0" encoding="UTF-8" standalone="no"?>
<!DOCTYPE svg PUBLIC "-//W3C//DTD SVG 1.1//EN"
 "http://www.w3.org/Graphics/SVG/1.1/DTD/svg11.dtd">
<!-- Generated by graphviz version 2.43.0 (0)
 -->
<!-- Title: drake/geometry/render_vtk/render_engine_vtk_params.h Pages: 1 -->
<svg width="296pt" height="206pt"
 viewBox="0.00 0.00 295.50 206.00" xmlns="http://www.w3.org/2000/svg" xmlns:xlink="http://www.w3.org/1999/xlink">
<g id="graph0" class="graph" transform="scale(1 1) rotate(0) translate(4 202)">
<title>drake/geometry/render_vtk/render_engine_vtk_params.h</title>
<polygon fill="white" stroke="transparent" points="-4,4 -4,-202 291.5,-202 291.5,4 -4,4"/>
<!-- Node52 -->
<g id="node1" class="node">
<title>Node52</title>
<g id="a_node1"><a xlink:title=" ">
<polygon fill="#bfbfbf" stroke="black" points="85,-156.5 85,-197.5 216,-197.5 216,-156.5 85,-156.5"/>
<text text-anchor="start" x="93" y="-185.5" font-family="Helvetica,sans-Serif" font-size="10.00">drake/geometry/render</text>
<text text-anchor="start" x="93" y="-174.5" font-family="Helvetica,sans-Serif" font-size="10.00">_vtk/render_engine_vtk</text>
<text text-anchor="middle" x="150.5" y="-163.5" font-family="Helvetica,sans-Serif" font-size="10.00">_params.h</text>
</a>
</g>
</g>
<!-- Node53 -->
<g id="node2" class="node">
<title>Node53</title>
<g id="a_node2"><a xlink:href="internal__render__engine__vtk_8h.html" target="_top" xlink:title=" ">
<polygon fill="white" stroke="black" points="13.5,-78.5 13.5,-119.5 141.5,-119.5 141.5,-78.5 13.5,-78.5"/>
<text text-anchor="start" x="21.5" y="-107.5" font-family="Helvetica,sans-Serif" font-size="10.00">drake/geometry/render</text>
<text text-anchor="start" x="21.5" y="-96.5" font-family="Helvetica,sans-Serif" font-size="10.00">_vtk/internal_render</text>
<text text-anchor="middle" x="77.5" y="-85.5" font-family="Helvetica,sans-Serif" font-size="10.00">_engine_vtk.h</text>
</a>
</g>
</g>
<!-- Node52&#45;&gt;Node53 -->
<g id="edge1" class="edge">
<title>Node52&#45;&gt;Node53</title>
<path fill="none" stroke="midnightblue" d="M124.76,-149.2C115.36,-139.42 104.91,-128.54 96.24,-119.51"/>
<polygon fill="midnightblue" stroke="midnightblue" points="122.25,-151.64 131.7,-156.43 127.3,-146.79 122.25,-151.64"/>
</g>
<!-- Node55 -->
<g id="node4" class="node">
<title>Node55</title>
<g id="a_node4"><a xlink:href="render__vtk_2factory_8h.html" target="_top" xlink:title=" ">
<polygon fill="white" stroke="black" points="159.5,-84 159.5,-114 287.5,-114 287.5,-84 159.5,-84"/>
<text text-anchor="start" x="167.5" y="-102" font-family="Helvetica,sans-Serif" font-size="10.00">drake/geometry/render</text>
<text text-anchor="middle" x="223.5" y="-91" font-family="Helvetica,sans-Serif" font-size="10.00">_vtk/factory.h</text>
</a>
</g>
</g>
<!-- Node52&#45;&gt;Node55 -->
<g id="edge3" class="edge">
<title>Node52&#45;&gt;Node55</title>
<path fill="none" stroke="midnightblue" d="M176.44,-148.99C187.72,-137.25 200.46,-123.99 209.84,-114.23"/>
<polygon fill="midnightblue" stroke="midnightblue" points="173.7,-146.79 169.3,-156.43 178.75,-151.64 173.7,-146.79"/>
</g>
<!-- Node54 -->
<g id="node3" class="node">
<title>Node54</title>
<g id="a_node3"><a xlink:href="internal__render__engine__gltf__client_8h.html" target="_top" xlink:title=" ">
<polygon fill="white" stroke="black" points="0,-0.5 0,-41.5 155,-41.5 155,-0.5 0,-0.5"/>
<text text-anchor="start" x="8" y="-29.5" font-family="Helvetica,sans-Serif" font-size="10.00">drake/geometry/render</text>
<text text-anchor="start" x="8" y="-18.5" font-family="Helvetica,sans-Serif" font-size="10.00">_gltf_client/internal</text>
<text text-anchor="middle" x="77.5" y="-7.5" font-family="Helvetica,sans-Serif" font-size="10.00">_render_engine_gltf_client.h</text>
</a>
</g>
</g>
<!-- Node53&#45;&gt;Node54 -->
<g id="edge2" class="edge">
<title>Node53&#45;&gt;Node54</title>
<path fill="none" stroke="midnightblue" d="M77.5,-68.3C77.5,-59.3 77.5,-49.65 77.5,-41.51"/>
<polygon fill="midnightblue" stroke="midnightblue" points="74,-68.43 77.5,-78.43 81,-68.43 74,-68.43"/>
</g>
</g>
</svg>
