<?xml version="1.0" encoding="UTF-8" standalone="no"?>
<!DOCTYPE svg PUBLIC "-//W3C//DTD SVG 1.1//EN"
 "http://www.w3.org/Graphics/SVG/1.1/DTD/svg11.dtd">
<!-- Generated by graphviz version 2.43.0 (0)
 -->
<!-- Title: drake/geometry/render/render_material.h Pages: 1 -->
<svg width="226pt" height="240pt"
 viewBox="0.00 0.00 226.00 240.00" xmlns="http://www.w3.org/2000/svg" xmlns:xlink="http://www.w3.org/1999/xlink">
<g id="graph0" class="graph" transform="scale(1 1) rotate(0) translate(4 236)">
<title>drake/geometry/render/render_material.h</title>
<polygon fill="white" stroke="transparent" points="-4,4 -4,-236 222,-236 222,4 -4,4"/>
<!-- Node42 -->
<g id="node1" class="node">
<title>Node42</title>
<g id="a_node1"><a xlink:title=" ">
<polygon fill="#bfbfbf" stroke="black" points="21,-201.5 21,-231.5 149,-231.5 149,-201.5 21,-201.5"/>
<text text-anchor="start" x="29" y="-219.5" font-family="Helvetica,sans-Serif" font-size="10.00">drake/geometry/render</text>
<text text-anchor="middle" x="85" y="-208.5" font-family="Helvetica,sans-Serif" font-size="10.00">/render_material.h</text>
</a>
</g>
</g>
<!-- Node43 -->
<g id="node2" class="node">
<title>Node43</title>
<g id="a_node2"><a xlink:href="render__mesh_8h.html" target="_top" xlink:title=" ">
<polygon fill="white" stroke="black" points="21,-134.5 21,-164.5 149,-164.5 149,-134.5 21,-134.5"/>
<text text-anchor="start" x="29" y="-152.5" font-family="Helvetica,sans-Serif" font-size="10.00">drake/geometry/render</text>
<text text-anchor="middle" x="85" y="-141.5" font-family="Helvetica,sans-Serif" font-size="10.00">/render_mesh.h</text>
</a>
</g>
</g>
<!-- Node42&#45;&gt;Node43 -->
<g id="edge1" class="edge">
<title>Node42&#45;&gt;Node43</title>
<path fill="none" stroke="midnightblue" d="M85,-191.11C85,-182.15 85,-172.32 85,-164.58"/>
<polygon fill="midnightblue" stroke="midnightblue" points="81.5,-191.4 85,-201.4 88.5,-191.4 81.5,-191.4"/>
</g>
<!-- Node44 -->
<g id="node3" class="node">
<title>Node44</title>
<g id="a_node3"><a xlink:href="internal__render__engine__gl_8h.html" target="_top" xlink:title=" ">
<polygon fill="white" stroke="black" points="0,-0.5 0,-30.5 170,-30.5 170,-0.5 0,-0.5"/>
<text text-anchor="start" x="8" y="-18.5" font-family="Helvetica,sans-Serif" font-size="10.00">drake/geometry/render</text>
<text text-anchor="middle" x="85" y="-7.5" font-family="Helvetica,sans-Serif" font-size="10.00">_gl/internal_render_engine_gl.h</text>
</a>
</g>
</g>
<!-- Node43&#45;&gt;Node44 -->
<g id="edge2" class="edge">
<title>Node43&#45;&gt;Node44</title>
<path fill="none" stroke="midnightblue" d="M65.85,-126.22C59.88,-117.92 54.07,-108.05 51,-98 46.98,-84.82 46.98,-80.18 51,-67 55.14,-53.45 64.26,-40.25 72.01,-30.75"/>
<polygon fill="midnightblue" stroke="midnightblue" points="63.15,-128.45 72.01,-134.25 68.7,-124.19 63.15,-128.45"/>
</g>
<!-- Node45 -->
<g id="node4" class="node">
<title>Node45</title>
<g id="a_node4"><a xlink:href="internal__shape__meshes_8h.html" target="_top" xlink:title=" ">
<polygon fill="white" stroke="black" points="60,-67.5 60,-97.5 218,-97.5 218,-67.5 60,-67.5"/>
<text text-anchor="start" x="68" y="-85.5" font-family="Helvetica,sans-Serif" font-size="10.00">drake/geometry/render</text>
<text text-anchor="middle" x="139" y="-74.5" font-family="Helvetica,sans-Serif" font-size="10.00">_gl/internal_shape_meshes.h</text>
</a>
</g>
</g>
<!-- Node43&#45;&gt;Node45 -->
<g id="edge3" class="edge">
<title>Node43&#45;&gt;Node45</title>
<path fill="none" stroke="midnightblue" d="M103.32,-126.45C111.25,-116.9 120.3,-106 127.31,-97.58"/>
<polygon fill="midnightblue" stroke="midnightblue" points="100.42,-124.47 96.72,-134.4 105.8,-128.94 100.42,-124.47"/>
</g>
<!-- Node45&#45;&gt;Node44 -->
<g id="edge4" class="edge">
<title>Node45&#45;&gt;Node44</title>
<path fill="none" stroke="midnightblue" d="M120.68,-59.45C112.75,-49.9 103.7,-39 96.69,-30.58"/>
<polygon fill="midnightblue" stroke="midnightblue" points="118.2,-61.94 127.28,-67.4 123.58,-57.47 118.2,-61.94"/>
</g>
</g>
</svg>
