<?xml version="1.0" encoding="UTF-8" standalone="no"?>
<!DOCTYPE svg PUBLIC "-//W3C//DTD SVG 1.1//EN"
 "http://www.w3.org/Graphics/SVG/1.1/DTD/svg11.dtd">
<!-- Generated by graphviz version 2.43.0 (0)
 -->
<!-- Title: drake/multibody/tree/revolute_mobilizer.h Pages: 1 -->
<!--zoomable 223 -->

<svg id="main" version="1.1" xmlns="http://www.w3.org/2000/svg" xmlns:xlink="http://www.w3.org/1999/xlink" xml:space="preserve" onload="init(evt)">

<style type="text/css"><![CDATA[
.node, .edge {opacity: 0.7;}
.node.selected, .edge.selected {opacity: 1;}
.edge:hover path { stroke: red; }
.edge:hover polygon { stroke: red; fill: red; }
]]></style>

<defs>
  <circle id="rim" cx="0" cy="0" r="7"/>
  <circle id="rim2" cx="0" cy="0" r="3.5"/>
  <g id="zoomPlus">
    <use xlink:href="#rim" fill="#404040"><set attributeName="fill" to="#808080" begin="zoomplus.mouseover" end="zoomplus.mouseout"/></use>
    <path d="M-4,0h8M0,-4v8" fill="none" stroke="white" stroke-width="1.5" pointer-events="none"/>
  </g>
  <g id="zoomMin">
    <use xlink:href="#rim" fill="#404040"><set attributeName="fill" to="#808080" begin="zoomminus.mouseover" end="zoomminus.mouseout"/></use>
    <path d="M-4,0h8" fill="none" stroke="white" stroke-width="1.5" pointer-events="none"/>
  </g>
  <g id="arrowUp" transform="translate(30 24)">
    <use xlink:href="#rim"/>
    <path pointer-events="none" fill="none" stroke="white" stroke-width="1.5" d="M0,-3.0v7 M-2.5,-0.5L0,-3.0L2.5,-0.5"/>
  </g>
  <g id="arrowRight" transform="rotate(90) translate(36 -43)">
    <use xlink:href="#rim"/>
    <path pointer-events="none" fill="none" stroke="white" stroke-width="1.5" d="M0,-3.0v7 M-2.5,-0.5L0,-3.0L2.5,-0.5"/>
  </g>
  <g id="arrowDown" transform="rotate(180) translate(-30 -48)">
    <use xlink:href="#rim"/>
    <path pointer-events="none" fill="none" stroke="white" stroke-width="1.5" d="M0,-3.0v7 M-2.5,-0.5L0,-3.0L2.5,-0.5"/>
  </g>
  <g id="arrowLeft" transform="rotate(270) translate(-36 17)">
    <use xlink:href="#rim"/>
    <path pointer-events="none" fill="none" stroke="white" stroke-width="1.5" d="M0,-3.0v7 M-2.5,-0.5L0,-3.0L2.5,-0.5"/>
  </g>
  <g id="resetDef">
    <use xlink:href="#rim2" fill="#404040"><set attributeName="fill" to="#808080" begin="reset.mouseover" end="reset.mouseout"/></use>
  </g>
</defs>
<script type="application/ecmascript">
var viewWidth = 1103;
var viewHeight = 223;
var sectionId = 'dynsection-1';
</script>
<script type="application/ecmascript" xlink:href="svg.min.js"/>
<svg id="graph" class="graph">
<g id="viewport">
<title>drake/multibody/tree/revolute_mobilizer.h</title>
<!-- Node1 -->
<g id="Node000001" class="node">
<title>Node1</title>
<g id="a_Node000001"><a xlink:title=" ">
<ellipse fill="#999999" stroke="#666666" cx="610.09" cy="-193.62" rx="84.29" ry="21.43"/>
<text text-anchor="start" x="558.59" y="-196.62" font-family="Helvetica,sans-Serif" font-size="10.00">drake/multibody/tree</text>
<text text-anchor="middle" x="610.09" y="-185.62" font-family="Helvetica,sans-Serif" font-size="10.00">/revolute_mobilizer.h</text>
</a>
</g>
</g>
<!-- Node2 -->
<g id="Node000002" class="node">
<title>Node2</title>
<g id="a_Node000002"><a xlink:href="revolute__joint_8h.html" target="_top" xlink:title=" ">
<ellipse fill="white" stroke="#666666" cx="610.09" cy="-115.2" rx="84.29" ry="21.43"/>
<text text-anchor="start" x="558.59" y="-118.2" font-family="Helvetica,sans-Serif" font-size="10.00">drake/multibody/tree</text>
<text text-anchor="middle" x="610.09" y="-107.2" font-family="Helvetica,sans-Serif" font-size="10.00">/revolute_joint.h</text>
</a>
</g>
</g>
<!-- Node1&#45;&gt;Node2 -->
<g id="edge1_Node000001_Node000002" class="edge">
<title>Node1&#45;&gt;Node2</title>
<g id="a_edge1_Node000001_Node000002"><a xlink:title=" ">
<path fill="none" stroke="#63b8ff" d="M610.09,-162.04C610.09,-153.44 610.09,-144.3 610.09,-136.47"/>
<polygon fill="#63b8ff" stroke="#63b8ff" points="606.59,-162.14 610.09,-172.14 613.59,-162.14 606.59,-162.14"/>
</a>
</g>
</g>
<!-- Node3 -->
<g id="Node000003" class="node">
<title>Node3</title>
<g id="a_Node000003"><a xlink:href="make__acrobot__plant_8h.html" target="_top" xlink:title=" ">
<ellipse fill="white" stroke="#666666" cx="118.09" cy="-28.99" rx="118.17" ry="21.43"/>
<text text-anchor="start" x="42.59" y="-31.99" font-family="Helvetica,sans-Serif" font-size="10.00">drake/multibody/benchmarks</text>
<text text-anchor="middle" x="118.09" y="-20.99" font-family="Helvetica,sans-Serif" font-size="10.00">/acrobot/make_acrobot_plant.h</text>
</a>
</g>
</g>
<!-- Node2&#45;&gt;Node3 -->
<g id="edge2_Node000002_Node000003" class="edge">
<title>Node2&#45;&gt;Node3</title>
<g id="a_edge2_Node000002_Node000003"><a xlink:title=" ">
<path fill="none" stroke="#63b8ff" d="M527.51,-102.93C453.57,-92.5 342.3,-75.91 246.09,-57.98 227.19,-54.46 206.82,-50.21 188.01,-46.11"/>
<polygon fill="#63b8ff" stroke="#63b8ff" points="527.3,-106.44 537.69,-104.37 528.28,-99.51 527.3,-106.44"/>
</a>
</g>
</g>
<!-- Node4 -->
<g id="Node000004" class="node">
<title>Node4</title>
<g id="a_Node000004"><a xlink:href="make__kuka__iiwa__model_8h.html" target="_top" xlink:title=" ">
<ellipse fill="white" stroke="#666666" cx="367.09" cy="-28.99" rx="112.36" ry="28.98"/>
<text text-anchor="start" x="295.59" y="-37.49" font-family="Helvetica,sans-Serif" font-size="10.00">drake/multibody/benchmarks</text>
<text text-anchor="start" x="295.59" y="-26.49" font-family="Helvetica,sans-Serif" font-size="10.00">/kuka_iiwa_robot/make_kuka</text>
<text text-anchor="middle" x="367.09" y="-15.49" font-family="Helvetica,sans-Serif" font-size="10.00">_iiwa_model.h</text>
</a>
</g>
</g>
<!-- Node2&#45;&gt;Node4 -->
<g id="edge3_Node000002_Node000004" class="edge">
<title>Node2&#45;&gt;Node4</title>
<g id="a_edge3_Node000002_Node000004"><a xlink:title=" ">
<path fill="none" stroke="#63b8ff" d="M552.51,-94.24C516.51,-81.77 470.04,-65.67 432.63,-52.7"/>
<polygon fill="#63b8ff" stroke="#63b8ff" points="551.77,-97.69 562.37,-97.66 554.06,-91.08 551.77,-97.69"/>
</a>
</g>
</g>
<!-- Node5 -->
<g id="Node000005" class="node">
<title>Node5</title>
<g id="a_Node000005"><a xlink:href="make__pendulum__plant_8h.html" target="_top" xlink:title=" ">
<ellipse fill="white" stroke="#666666" cx="610.09" cy="-28.99" rx="112.36" ry="28.98"/>
<text text-anchor="start" x="538.59" y="-37.49" font-family="Helvetica,sans-Serif" font-size="10.00">drake/multibody/benchmarks</text>
<text text-anchor="start" x="538.59" y="-26.49" font-family="Helvetica,sans-Serif" font-size="10.00">/pendulum/make_pendulum</text>
<text text-anchor="middle" x="610.09" y="-15.49" font-family="Helvetica,sans-Serif" font-size="10.00">_plant.h</text>
</a>
</g>
</g>
<!-- Node2&#45;&gt;Node5 -->
<g id="edge4_Node000002_Node000005" class="edge">
<title>Node2&#45;&gt;Node5</title>
<g id="a_edge4_Node000002_Node000005"><a xlink:title=" ">
<path fill="none" stroke="#63b8ff" d="M610.09,-83.7C610.09,-75.36 610.09,-66.35 610.09,-58.14"/>
<polygon fill="#63b8ff" stroke="#63b8ff" points="606.59,-83.81 610.09,-93.81 613.59,-83.81 606.59,-83.81"/>
</a>
</g>
</g>
<!-- Node6 -->
<g id="Node000006" class="node">
<title>Node6</title>
<g id="a_Node000006"><a xlink:href="door__hinge_8h.html" target="_top" xlink:title=" ">
<ellipse fill="white" stroke="#666666" cx="825.09" cy="-28.99" rx="84.29" ry="21.43"/>
<text text-anchor="start" x="773.59" y="-31.99" font-family="Helvetica,sans-Serif" font-size="10.00">drake/multibody/tree</text>
<text text-anchor="middle" x="825.09" y="-20.99" font-family="Helvetica,sans-Serif" font-size="10.00">/door_hinge.h</text>
</a>
</g>
</g>
<!-- Node2&#45;&gt;Node6 -->
<g id="edge5_Node000002_Node000006" class="edge">
<title>Node2&#45;&gt;Node6</title>
<g id="a_edge5_Node000002_Node000006"><a xlink:title=" ">
<path fill="none" stroke="#63b8ff" d="M663.28,-93.36C699.51,-79.17 746.89,-60.62 781.01,-47.25"/>
<polygon fill="#63b8ff" stroke="#63b8ff" points="661.89,-90.15 653.85,-97.05 664.44,-96.67 661.89,-90.15"/>
</a>
</g>
</g>
<!-- Node7 -->
<g id="Node000007" class="node">
<title>Node7</title>
<g id="a_Node000007"><a xlink:href="revolute__spring_8h.html" target="_top" xlink:title=" ">
<ellipse fill="white" stroke="#666666" cx="1011.09" cy="-28.99" rx="84.29" ry="21.43"/>
<text text-anchor="start" x="959.59" y="-31.99" font-family="Helvetica,sans-Serif" font-size="10.00">drake/multibody/tree</text>
<text text-anchor="middle" x="1011.09" y="-20.99" font-family="Helvetica,sans-Serif" font-size="10.00">/revolute_spring.h</text>
</a>
</g>
</g>
<!-- Node2&#45;&gt;Node7 -->
<g id="edge6_Node000002_Node000007" class="edge">
<title>Node2&#45;&gt;Node7</title>
<g id="a_edge6_Node000002_Node000007"><a xlink:title=" ">
<path fill="none" stroke="#63b8ff" d="M691.07,-101.96C753.49,-91.91 841.75,-76.38 918.09,-57.98 932.18,-54.59 947.31,-50.31 961.17,-46.13"/>
<polygon fill="#63b8ff" stroke="#63b8ff" points="690.22,-98.55 680.9,-103.58 691.32,-105.46 690.22,-98.55"/>
</a>
</g>
</g>
</g>
</svg>

<g id="navigator" transform="translate(0 0)" fill="#404254">
  <rect fill="#f2f5e9" fill-opacity="0.5" stroke="#606060" stroke-width=".5" x="0" y="0" width="60" height="60"/>
  <use id="zoomplus" xlink:href="#zoomPlus" x="17" y="9" onmousedown="handleZoom(evt,'in')"/>
  <use id="zoomminus" xlink:href="#zoomMin" x="42" y="9" onmousedown="handleZoom(evt,'out')"/>
  <use id="reset" xlink:href="#resetDef" x="30" y="36" onmousedown="handleReset()"/>
   <use id="arrowup" xlink:href="#arrowUp" x="0" y="0" onmousedown="handlePan(0,-1)"/>
  <use id="arrowright" xlink:href="#arrowRight" x="0" y="0" onmousedown="handlePan(1,0)"/>
  <use id="arrowdown" xlink:href="#arrowDown" x="0" y="0" onmousedown="handlePan(0,1)"/>
  <use id="arrowleft" xlink:href="#arrowLeft" x="0" y="0" onmousedown="handlePan(-1,0)"/>
</g>
<svg viewBox="0 0 15 15" width="100%" height="30px" preserveAspectRatio="xMaxYMin meet">
 <g id="arrow_out" transform="scale(0.3 0.3)">
  <a xlink:href="revolute__mobilizer_8h__dep__incl_org.svg" target="_base">
   <rect id="button" ry="5" rx="5" y="6" x="6" height="38" width="38"
        fill="#f2f5e9" fill-opacity="0.5" stroke="#606060" stroke-width="1.0"/>
   <path id="arrow"
     d="M 11.500037,31.436501 C 11.940474,20.09759 22.043105,11.32322 32.158766,21.979434 L 37.068811,17.246167 C 37.068811,17.246167 37.088388,32 37.088388,32 L 22.160133,31.978069 C 22.160133,31.978069 26.997745,27.140456 26.997745,27.140456 C 18.528582,18.264221 13.291696,25.230495 11.500037,31.436501 z"
     style="fill:#404040;"/>
  </a>
 </g>
</svg>

<style type='text/css'>
<![CDATA[
[data-mouse-over-selected='false'] { opacity: 0.7; }
[data-mouse-over-selected='true']  { opacity: 1.0; }
]]>
</style>
<script type="application/ecmascript"><![CDATA[
document.addEventListener('DOMContentLoaded', (event) => {
  highlightEdges();
  highlightAdjacentNodes();
});
]]></script>
</svg>
