<?xml version="1.0" encoding="UTF-8" standalone="no"?>
<!DOCTYPE svg PUBLIC "-//W3C//DTD SVG 1.1//EN"
 "http://www.w3.org/Graphics/SVG/1.1/DTD/svg11.dtd">
<!-- Generated by graphviz version 2.43.0 (0)
 -->
<!-- Title: drake/geometry/rgba.h Pages: 1 -->
<svg width="589pt" height="218pt"
 viewBox="0.00 0.00 589.00 218.00" xmlns="http://www.w3.org/2000/svg" xmlns:xlink="http://www.w3.org/1999/xlink">
<g id="graph0" class="graph" transform="scale(1 1) rotate(0) translate(4 214)">
<title>drake/geometry/rgba.h</title>
<polygon fill="white" stroke="transparent" points="-4,4 -4,-214 585,-214 585,4 -4,4"/>
<!-- Node0 -->
<g id="node1" class="node">
<title>Node0</title>
<g id="a_node1"><a xlink:title=" ">
<polygon fill="#bfbfbf" stroke="black" points="363.5,-190.5 363.5,-209.5 491.5,-209.5 491.5,-190.5 363.5,-190.5"/>
<text text-anchor="middle" x="427.5" y="-197.5" font-family="Helvetica,sans-Serif" font-size="10.00">drake/geometry/rgba.h</text>
</a>
</g>
</g>
<!-- Node1 -->
<g id="node2" class="node">
<title>Node1</title>
<g id="a_node2"><a xlink:href="drake__copyable_8h.html" target="_top" xlink:title="Provides careful macros to selectively enable or disable the special member functions for copy&#45;constr...">
<polygon fill="white" stroke="black" points="462,-56.5 462,-86.5 581,-86.5 581,-56.5 462,-56.5"/>
<text text-anchor="start" x="470" y="-74.5" font-family="Helvetica,sans-Serif" font-size="10.00">drake/common/drake</text>
<text text-anchor="middle" x="521.5" y="-63.5" font-family="Helvetica,sans-Serif" font-size="10.00">_copyable.h</text>
</a>
</g>
</g>
<!-- Node0&#45;&gt;Node1 -->
<g id="edge1" class="edge">
<title>Node0&#45;&gt;Node1</title>
<path fill="none" stroke="midnightblue" d="M463.79,-190.39C483.13,-183.8 505.38,-172.58 517.5,-154 528.46,-137.2 528.52,-114.05 526.38,-96.71"/>
<polygon fill="midnightblue" stroke="midnightblue" points="529.83,-96.13 524.85,-86.78 522.92,-97.2 529.83,-96.13"/>
</g>
<!-- Node2 -->
<g id="node3" class="node">
<title>Node2</title>
<g id="a_node3"><a xlink:href="eigen__types_8h.html" target="_top" xlink:title="This file contains abbreviated definitions for certain specializations of Eigen::Matrix that are comm...">
<polygon fill="white" stroke="black" points="210,-123.5 210,-153.5 329,-153.5 329,-123.5 210,-123.5"/>
<text text-anchor="start" x="218" y="-141.5" font-family="Helvetica,sans-Serif" font-size="10.00">drake/common/eigen</text>
<text text-anchor="middle" x="269.5" y="-130.5" font-family="Helvetica,sans-Serif" font-size="10.00">_types.h</text>
</a>
</g>
</g>
<!-- Node0&#45;&gt;Node2 -->
<g id="edge2" class="edge">
<title>Node0&#45;&gt;Node2</title>
<path fill="none" stroke="midnightblue" d="M404.86,-190.48C381.86,-181.81 345.57,-168.15 316.35,-157.14"/>
<polygon fill="midnightblue" stroke="midnightblue" points="317.33,-153.77 306.74,-153.52 314.86,-160.32 317.33,-153.77"/>
</g>
<!-- Node8 -->
<g id="node9" class="node">
<title>Node8</title>
<g id="a_node9"><a xlink:href="name__value_8h.html" target="_top" xlink:title=" ">
<polygon fill="white" stroke="black" points="347,-129 347,-148 508,-148 508,-129 347,-129"/>
<text text-anchor="middle" x="427.5" y="-136" font-family="Helvetica,sans-Serif" font-size="10.00">drake/common/name_value.h</text>
</a>
</g>
</g>
<!-- Node0&#45;&gt;Node8 -->
<g id="edge9" class="edge">
<title>Node0&#45;&gt;Node8</title>
<path fill="none" stroke="midnightblue" d="M427.5,-190.48C427.5,-182.08 427.5,-168.98 427.5,-158.16"/>
<polygon fill="midnightblue" stroke="midnightblue" points="431,-158.01 427.5,-148.01 424,-158.01 431,-158.01"/>
</g>
<!-- Node2&#45;&gt;Node1 -->
<g id="edge8" class="edge">
<title>Node2&#45;&gt;Node1</title>
<path fill="none" stroke="midnightblue" d="M323.87,-123.48C362.9,-113.41 415.66,-99.8 456.85,-89.17"/>
<polygon fill="midnightblue" stroke="midnightblue" points="457.98,-92.5 466.79,-86.61 456.24,-85.72 457.98,-92.5"/>
</g>
<!-- Node3 -->
<g id="node4" class="node">
<title>Node3</title>
<g id="a_node4"><a xlink:title=" ">
<polygon fill="white" stroke="#bfbfbf" points="262,-62 262,-81 307,-81 307,-62 262,-62"/>
<text text-anchor="middle" x="284.5" y="-69" font-family="Helvetica,sans-Serif" font-size="10.00">utility</text>
</a>
</g>
</g>
<!-- Node2&#45;&gt;Node3 -->
<g id="edge3" class="edge">
<title>Node2&#45;&gt;Node3</title>
<path fill="none" stroke="midnightblue" d="M272.75,-123.4C274.93,-113.96 277.82,-101.45 280.19,-91.19"/>
<polygon fill="midnightblue" stroke="midnightblue" points="283.66,-91.73 282.49,-81.19 276.83,-90.15 283.66,-91.73"/>
</g>
<!-- Node4 -->
<g id="node5" class="node">
<title>Node4</title>
<g id="a_node5"><a xlink:title=" ">
<polygon fill="white" stroke="#bfbfbf" points="0,-62 0,-81 77,-81 77,-62 0,-62"/>
<text text-anchor="middle" x="38.5" y="-69" font-family="Helvetica,sans-Serif" font-size="10.00">Eigen/Dense</text>
</a>
</g>
</g>
<!-- Node2&#45;&gt;Node4 -->
<g id="edge4" class="edge">
<title>Node2&#45;&gt;Node4</title>
<path fill="none" stroke="midnightblue" d="M216.63,-123.46C179.79,-113.56 129.55,-99.84 85.5,-87 82.3,-86.07 78.99,-85.08 75.67,-84.08"/>
<polygon fill="midnightblue" stroke="midnightblue" points="76.38,-80.64 65.79,-81.08 74.34,-87.34 76.38,-80.64"/>
</g>
<!-- Node5 -->
<g id="node6" class="node">
<title>Node5</title>
<g id="a_node6"><a xlink:href="constants_8h.html" target="_top" xlink:title=" ">
<polygon fill="white" stroke="black" points="95,-62 95,-81 244,-81 244,-62 95,-62"/>
<text text-anchor="middle" x="169.5" y="-69" font-family="Helvetica,sans-Serif" font-size="10.00">drake/common/constants.h</text>
</a>
</g>
</g>
<!-- Node2&#45;&gt;Node5 -->
<g id="edge5" class="edge">
<title>Node2&#45;&gt;Node5</title>
<path fill="none" stroke="midnightblue" d="M247.8,-123.4C231.03,-112.5 207.93,-97.48 191.17,-86.58"/>
<polygon fill="midnightblue" stroke="midnightblue" points="192.88,-83.52 182.59,-81.01 189.06,-89.39 192.88,-83.52"/>
</g>
<!-- Node6 -->
<g id="node7" class="node">
<title>Node6</title>
<g id="a_node7"><a xlink:href="drake__assert_8h.html" target="_top" xlink:title="Provides Drake&#39;s assertion implementation.">
<polygon fill="white" stroke="black" points="325,-56.5 325,-86.5 444,-86.5 444,-56.5 325,-56.5"/>
<text text-anchor="start" x="333" y="-74.5" font-family="Helvetica,sans-Serif" font-size="10.00">drake/common/drake</text>
<text text-anchor="middle" x="384.5" y="-63.5" font-family="Helvetica,sans-Serif" font-size="10.00">_assert.h</text>
</a>
</g>
</g>
<!-- Node2&#45;&gt;Node6 -->
<g id="edge6" class="edge">
<title>Node2&#45;&gt;Node6</title>
<path fill="none" stroke="midnightblue" d="M294.45,-123.4C310.88,-114.11 332.59,-101.84 350.58,-91.67"/>
<polygon fill="midnightblue" stroke="midnightblue" points="352.61,-94.54 359.6,-86.58 349.17,-88.45 352.61,-94.54"/>
</g>
<!-- Node7 -->
<g id="node8" class="node">
<title>Node7</title>
<g id="a_node8"><a xlink:title=" ">
<polygon fill="white" stroke="#bfbfbf" points="350,-0.5 350,-19.5 419,-19.5 419,-0.5 350,-0.5"/>
<text text-anchor="middle" x="384.5" y="-7.5" font-family="Helvetica,sans-Serif" font-size="10.00">type_traits</text>
</a>
</g>
</g>
<!-- Node6&#45;&gt;Node7 -->
<g id="edge7" class="edge">
<title>Node6&#45;&gt;Node7</title>
<path fill="none" stroke="midnightblue" d="M384.5,-56.4C384.5,-48.47 384.5,-38.46 384.5,-29.86"/>
<polygon fill="midnightblue" stroke="midnightblue" points="388,-29.66 384.5,-19.66 381,-29.66 388,-29.66"/>
</g>
<!-- Node8&#45;&gt;Node1 -->
<g id="edge11" class="edge">
<title>Node8&#45;&gt;Node1</title>
<path fill="none" stroke="midnightblue" d="M440.18,-128.73C453.61,-119.44 475.28,-104.46 492.87,-92.3"/>
<polygon fill="midnightblue" stroke="midnightblue" points="494.89,-95.16 501.13,-86.59 490.91,-89.4 494.89,-95.16"/>
</g>
<!-- Node8&#45;&gt;Node6 -->
<g id="edge10" class="edge">
<title>Node8&#45;&gt;Node6</title>
<path fill="none" stroke="midnightblue" d="M421.7,-128.73C416,-120.12 407.07,-106.61 399.38,-94.99"/>
<polygon fill="midnightblue" stroke="midnightblue" points="402.26,-93 393.82,-86.59 396.42,-96.86 402.26,-93"/>
</g>
</g>
</svg>
