<?xml version="1.0" encoding="UTF-8" standalone="no"?>
<!DOCTYPE svg PUBLIC "-//W3C//DTD SVG 1.1//EN"
 "http://www.w3.org/Graphics/SVG/1.1/DTD/svg11.dtd">
<!-- Generated by graphviz version 2.43.0 (0)
 -->
<!-- Title: drake/examples/rimless_wheel/rimless_wheel_params.h Pages: 1 -->
<!--zoomable 117 -->
<svg id="main" version="1.1" xmlns="http://www.w3.org/2000/svg" xmlns:xlink="http://www.w3.org/1999/xlink" xml:space="preserve" onload="init(evt)">
<style type="text/css"><![CDATA[
.edge:hover path { stroke: red; }
.edge:hover polygon { stroke: red; fill: red; }
]]></style>
<script type="text/javascript"><![CDATA[
var edges = document.getElementsByTagName('g');
if (edges && edges.length) {
  for (var i=0;i<edges.length;i++) {
    if (edges[i].id.substr(0,4)=='edge') {
      edges[i].setAttribute('class','edge');
    }
  }
}
]]></script>
        <defs>
                <circle id="rim" cx="0" cy="0" r="7"/>
                <circle id="rim2" cx="0" cy="0" r="3.5"/>
                <g id="zoomPlus">
                        <use xlink:href="#rim" fill="#404040">
                                <set attributeName="fill" to="#808080" begin="zoomplus.mouseover" end="zoomplus.mouseout"/>
                        </use>
                        <path d="M-4,0h8M0,-4v8" fill="none" stroke="white" stroke-width="1.5" pointer-events="none"/>
                </g>
                <g id="zoomMin">
                        <use xlink:href="#rim" fill="#404040">
                                <set attributeName="fill" to="#808080" begin="zoomminus.mouseover" end="zoomminus.mouseout"/>
                        </use>
                        <path d="M-4,0h8" fill="none" stroke="white" stroke-width="1.5" pointer-events="none"/>
                </g>
                <g id="dirArrow">
                        <path fill="none" stroke="white" stroke-width="1.5" d="M0,-3.0v7 M-2.5,-0.5L0,-3.0L2.5,-0.5"/>
                </g>
               <g id="resetDef">
                       <use xlink:href="#rim2" fill="#404040">
                               <set attributeName="fill" to="#808080" begin="reset.mouseover" end="reset.mouseout"/>
                       </use>
               </g>
        </defs>

<script type="text/javascript">
var viewWidth = 510;
var viewHeight = 117;
var sectionId = 'dynsection-1';
</script>
<script xlink:href="svgpan.js"/>
<svg id="graph" class="graph">
<g id="viewport">
<title>drake/examples/rimless_wheel/rimless_wheel_params.h</title>
<polygon fill="white" stroke="transparent" points="-4,4 -4,-113 505.5,-113 505.5,4 -4,4"/>
<!-- Node71 -->
<g id="node1" class="node">
<title>Node71</title>
<g id="a_node1"><a xlink:title=" ">
<polygon fill="#bfbfbf" stroke="black" points="143,-78.5 143,-108.5 319,-108.5 319,-78.5 143,-78.5"/>
<text text-anchor="start" x="151" y="-96.5" font-family="Helvetica,sans-Serif" font-size="10.00">drake/examples/rimless</text>
<text text-anchor="middle" x="231" y="-85.5" font-family="Helvetica,sans-Serif" font-size="10.00">_wheel/rimless_wheel_params.h</text>
</a>
</g>
</g>
<!-- Node72 -->
<g id="node2" class="node">
<title>Node72</title>
<g id="a_node2"><a xlink:href="gen_2rimless__wheel__params_8h.html" target="_top" xlink:title=" ">
<polygon fill="white" stroke="black" points="0,-0.5 0,-41.5 146,-41.5 146,-0.5 0,-0.5"/>
<text text-anchor="start" x="8" y="-29.5" font-family="Helvetica,sans-Serif" font-size="10.00">drake/examples/rimless</text>
<text text-anchor="start" x="8" y="-18.5" font-family="Helvetica,sans-Serif" font-size="10.00">_wheel/gen/rimless_wheel</text>
<text text-anchor="middle" x="73" y="-7.5" font-family="Helvetica,sans-Serif" font-size="10.00">_params.h</text>
</a>
</g>
</g>
<!-- Node71&#45;&gt;Node72 -->
<g id="edge1" class="edge">
<title>Node71&#45;&gt;Node72</title>
<path fill="none" stroke="midnightblue" d="M190.13,-74.26C167.65,-64.23 139.74,-51.78 116.81,-41.55"/>
<polygon fill="midnightblue" stroke="midnightblue" points="188.85,-77.52 199.41,-78.4 191.7,-71.13 188.85,-77.52"/>
</g>
<!-- Node73 -->
<g id="node3" class="node">
<title>Node73</title>
<g id="a_node3"><a xlink:href="rimless__wheel_8h.html" target="_top" xlink:title=" ">
<polygon fill="white" stroke="black" points="164,-6 164,-36 298,-36 298,-6 164,-6"/>
<text text-anchor="start" x="172" y="-24" font-family="Helvetica,sans-Serif" font-size="10.00">drake/examples/rimless</text>
<text text-anchor="middle" x="231" y="-13" font-family="Helvetica,sans-Serif" font-size="10.00">_wheel/rimless_wheel.h</text>
</a>
</g>
</g>
<!-- Node71&#45;&gt;Node73 -->
<g id="edge2" class="edge">
<title>Node71&#45;&gt;Node73</title>
<path fill="none" stroke="midnightblue" d="M231,-68.23C231,-57.57 231,-45.41 231,-36.25"/>
<polygon fill="midnightblue" stroke="midnightblue" points="227.5,-68.23 231,-78.23 234.5,-68.23 227.5,-68.23"/>
</g>
<!-- Node74 -->
<g id="node4" class="node">
<title>Node74</title>
<g id="a_node4"><a xlink:href="rimless__wheel__geometry_8h.html" target="_top" xlink:title=" ">
<polygon fill="white" stroke="black" points="316.5,-6 316.5,-36 501.5,-36 501.5,-6 316.5,-6"/>
<text text-anchor="start" x="324.5" y="-24" font-family="Helvetica,sans-Serif" font-size="10.00">drake/examples/rimless</text>
<text text-anchor="middle" x="409" y="-13" font-family="Helvetica,sans-Serif" font-size="10.00">_wheel/rimless_wheel_geometry.h</text>
</a>
</g>
</g>
<!-- Node71&#45;&gt;Node74 -->
<g id="edge3" class="edge">
<title>Node71&#45;&gt;Node74</title>
<path fill="none" stroke="midnightblue" d="M276.06,-74.65C306.26,-62.69 345.47,-47.16 373.47,-36.07"/>
<polygon fill="midnightblue" stroke="midnightblue" points="274.6,-71.47 266.59,-78.4 277.18,-77.97 274.6,-71.47"/>
</g>
</g>
</svg>
        <g id="navigator" transform="translate(0 0)" fill="#404254">
                <rect fill="#f2f5e9" fill-opacity="0.5" stroke="#606060" stroke-width=".5" x="0" y="0" width="60" height="60"/>
                <use id="zoomplus" xlink:href="#zoomPlus" x="17" y="9" onmousedown="handleZoom(evt,'in')"/>
                <use id="zoomminus" xlink:href="#zoomMin" x="42" y="9" onmousedown="handleZoom(evt,'out')"/>
                <use id="reset" xlink:href="#resetDef" x="30" y="36" onmousedown="handleReset()"/>
                <g id="arrowUp" xlink:href="#dirArrow" transform="translate(30 24)" onmousedown="handlePan(0,-1)">
                  <use xlink:href="#rim" fill="#404040">
                        <set attributeName="fill" to="#808080" begin="arrowUp.mouseover" end="arrowUp.mouseout"/>
                  </use>
                  <path fill="none" stroke="white" stroke-width="1.5" d="M0,-3.0v7 M-2.5,-0.5L0,-3.0L2.5,-0.5"/>
                </g>
                <g id="arrowRight" xlink:href="#dirArrow" transform="rotate(90) translate(36 -43)" onmousedown="handlePan(1,0)">
                  <use xlink:href="#rim" fill="#404040">
                        <set attributeName="fill" to="#808080" begin="arrowRight.mouseover" end="arrowRight.mouseout"/>
                  </use>
                  <path fill="none" stroke="white" stroke-width="1.5" d="M0,-3.0v7 M-2.5,-0.5L0,-3.0L2.5,-0.5"/>
                </g>
                <g id="arrowDown" xlink:href="#dirArrow" transform="rotate(180) translate(-30 -48)" onmousedown="handlePan(0,1)">
                  <use xlink:href="#rim" fill="#404040">
                        <set attributeName="fill" to="#808080" begin="arrowDown.mouseover" end="arrowDown.mouseout"/>
                  </use>
                  <path fill="none" stroke="white" stroke-width="1.5" d="M0,-3.0v7 M-2.5,-0.5L0,-3.0L2.5,-0.5"/>
                </g>
                <g id="arrowLeft" xlink:href="#dirArrow" transform="rotate(270) translate(-36 17)" onmousedown="handlePan(-1,0)">
                  <use xlink:href="#rim" fill="#404040">
                        <set attributeName="fill" to="#808080" begin="arrowLeft.mouseover" end="arrowLeft.mouseout"/>
                  </use>
                  <path fill="none" stroke="white" stroke-width="1.5" d="M0,-3.0v7 M-2.5,-0.5L0,-3.0L2.5,-0.5"/>
                </g>
        </g>
        <svg viewBox="0 0 15 15" width="100%" height="30px" preserveAspectRatio="xMaxYMin meet">
         <g id="arrow_out" transform="scale(0.3 0.3)">
          <a xlink:href="rimless__wheel__params_8h__dep__incl_org.svg" target="_base">
           <rect id="button" ry="5" rx="5" y="6" x="6" height="38" width="38"
                fill="#f2f5e9" fill-opacity="0.5" stroke="#606060" stroke-width="1.0"/>
           <path id="arrow"
             d="M 11.500037,31.436501 C 11.940474,20.09759 22.043105,11.32322 32.158766,21.979434 L 37.068811,17.246167 C 37.068811,17.246167 37.088388,32 37.088388,32 L 22.160133,31.978069 C 22.160133,31.978069 26.997745,27.140456 26.997745,27.140456 C 18.528582,18.264221 13.291696,25.230495 11.500037,31.436501 z"
             style="fill:#404040;"/>
          </a>
         </g>
        </svg>
</svg>
