<?xml version="1.0" encoding="UTF-8" standalone="no"?>
<!DOCTYPE svg PUBLIC "-//W3C//DTD SVG 1.1//EN"
 "http://www.w3.org/Graphics/SVG/1.1/DTD/svg11.dtd">
<!-- Generated by graphviz version 2.43.0 (0)
 -->
<!-- Title: drake/planning/robot_diagram.h Pages: 1 -->
<svg width="464pt" height="240pt"
 viewBox="0.00 0.00 463.50 240.00" xmlns="http://www.w3.org/2000/svg" xmlns:xlink="http://www.w3.org/1999/xlink">
<g id="graph0" class="graph" transform="scale(1 1) rotate(0) translate(4 236)">
<title>drake/planning/robot_diagram.h</title>
<polygon fill="white" stroke="transparent" points="-4,4 -4,-236 459.5,-236 459.5,4 -4,4"/>
<!-- Node240 -->
<g id="node1" class="node">
<title>Node240</title>
<g id="a_node1"><a xlink:title=" ">
<polygon fill="#bfbfbf" stroke="black" points="148.5,-201.5 148.5,-231.5 265.5,-231.5 265.5,-201.5 148.5,-201.5"/>
<text text-anchor="start" x="156.5" y="-219.5" font-family="Helvetica,sans-Serif" font-size="10.00">drake/planning/robot</text>
<text text-anchor="middle" x="207" y="-208.5" font-family="Helvetica,sans-Serif" font-size="10.00">_diagram.h</text>
</a>
</g>
</g>
<!-- Node241 -->
<g id="node2" class="node">
<title>Node241</title>
<g id="a_node2"><a xlink:href="collision__checker__context_8h.html" target="_top" xlink:title=" ">
<polygon fill="white" stroke="black" points="0,-134.5 0,-164.5 132,-164.5 132,-134.5 0,-134.5"/>
<text text-anchor="start" x="8" y="-152.5" font-family="Helvetica,sans-Serif" font-size="10.00">drake/planning/collision</text>
<text text-anchor="middle" x="66" y="-141.5" font-family="Helvetica,sans-Serif" font-size="10.00">_checker_context.h</text>
</a>
</g>
</g>
<!-- Node240&#45;&gt;Node241 -->
<g id="edge1" class="edge">
<title>Node240&#45;&gt;Node241</title>
<path fill="none" stroke="midnightblue" d="M167.15,-197.13C144.75,-186.8 117.22,-174.11 96.54,-164.58"/>
<polygon fill="midnightblue" stroke="midnightblue" points="165.86,-200.39 176.41,-201.4 168.79,-194.03 165.86,-200.39"/>
</g>
<!-- Node242 -->
<g id="node3" class="node">
<title>Node242</title>
<g id="a_node3"><a xlink:href="collision__checker_8h.html" target="_top" xlink:title=" ">
<polygon fill="white" stroke="black" points="94,-67.5 94,-97.5 226,-97.5 226,-67.5 94,-67.5"/>
<text text-anchor="start" x="102" y="-85.5" font-family="Helvetica,sans-Serif" font-size="10.00">drake/planning/collision</text>
<text text-anchor="middle" x="160" y="-74.5" font-family="Helvetica,sans-Serif" font-size="10.00">_checker.h</text>
</a>
</g>
</g>
<!-- Node240&#45;&gt;Node242 -->
<g id="edge8" class="edge">
<title>Node240&#45;&gt;Node242</title>
<path fill="none" stroke="midnightblue" d="M192.53,-192.59C187.69,-184.16 182.61,-174.38 179,-165 170.23,-142.22 164.79,-114.24 162.08,-97.7"/>
<polygon fill="midnightblue" stroke="midnightblue" points="189.68,-194.64 197.81,-201.43 195.69,-191.05 189.68,-194.64"/>
</g>
<!-- Node245 -->
<g id="node6" class="node">
<title>Node245</title>
<g id="a_node6"><a xlink:href="collision__checker__params_8h.html" target="_top" xlink:title=" ">
<polygon fill="white" stroke="black" points="188,-134.5 188,-164.5 320,-164.5 320,-134.5 188,-134.5"/>
<text text-anchor="start" x="196" y="-152.5" font-family="Helvetica,sans-Serif" font-size="10.00">drake/planning/collision</text>
<text text-anchor="middle" x="254" y="-141.5" font-family="Helvetica,sans-Serif" font-size="10.00">_checker_params.h</text>
</a>
</g>
</g>
<!-- Node240&#45;&gt;Node245 -->
<g id="edge5" class="edge">
<title>Node240&#45;&gt;Node245</title>
<path fill="none" stroke="midnightblue" d="M223.16,-193.16C230.01,-183.68 237.79,-172.92 243.82,-164.58"/>
<polygon fill="midnightblue" stroke="midnightblue" points="220.22,-191.24 217.2,-201.4 225.89,-195.34 220.22,-191.24"/>
</g>
<!-- Node246 -->
<g id="node7" class="node">
<title>Node246</title>
<g id="a_node7"><a xlink:href="robot__diagram__builder_8h.html" target="_top" xlink:title=" ">
<polygon fill="white" stroke="black" points="338.5,-134.5 338.5,-164.5 455.5,-164.5 455.5,-134.5 338.5,-134.5"/>
<text text-anchor="start" x="346.5" y="-152.5" font-family="Helvetica,sans-Serif" font-size="10.00">drake/planning/robot</text>
<text text-anchor="middle" x="397" y="-141.5" font-family="Helvetica,sans-Serif" font-size="10.00">_diagram_builder.h</text>
</a>
</g>
</g>
<!-- Node240&#45;&gt;Node246 -->
<g id="edge9" class="edge">
<title>Node240&#45;&gt;Node246</title>
<path fill="none" stroke="midnightblue" d="M257.89,-198.09C288.56,-187.6 327.11,-174.41 355.85,-164.58"/>
<polygon fill="midnightblue" stroke="midnightblue" points="256.56,-194.85 248.23,-201.4 258.82,-201.47 256.56,-194.85"/>
</g>
<!-- Node241&#45;&gt;Node242 -->
<g id="edge2" class="edge">
<title>Node241&#45;&gt;Node242</title>
<path fill="none" stroke="midnightblue" d="M94.99,-128.45C109.45,-118.45 126.59,-106.6 139.64,-97.58"/>
<polygon fill="midnightblue" stroke="midnightblue" points="92.63,-125.83 86.4,-134.4 96.61,-131.59 92.63,-125.83"/>
</g>
<!-- Node243 -->
<g id="node4" class="node">
<title>Node243</title>
<g id="a_node4"><a xlink:href="collision__avoidance_8h.html" target="_top" xlink:title=" ">
<polygon fill="white" stroke="black" points="19,-0.5 19,-30.5 151,-30.5 151,-0.5 19,-0.5"/>
<text text-anchor="start" x="27" y="-18.5" font-family="Helvetica,sans-Serif" font-size="10.00">drake/planning/collision</text>
<text text-anchor="middle" x="85" y="-7.5" font-family="Helvetica,sans-Serif" font-size="10.00">_avoidance.h</text>
</a>
</g>
</g>
<!-- Node242&#45;&gt;Node243 -->
<g id="edge3" class="edge">
<title>Node242&#45;&gt;Node243</title>
<path fill="none" stroke="midnightblue" d="M135.88,-60.6C124.56,-50.78 111.36,-39.34 101.24,-30.58"/>
<polygon fill="midnightblue" stroke="midnightblue" points="133.88,-63.49 143.73,-67.4 138.46,-58.2 133.88,-63.49"/>
</g>
<!-- Node244 -->
<g id="node5" class="node">
<title>Node244</title>
<g id="a_node5"><a xlink:href="unimplemented__collision__checker_8h.html" target="_top" xlink:title=" ">
<polygon fill="white" stroke="black" points="169.5,-0.5 169.5,-30.5 338.5,-30.5 338.5,-0.5 169.5,-0.5"/>
<text text-anchor="start" x="177.5" y="-18.5" font-family="Helvetica,sans-Serif" font-size="10.00">drake/planning/unimplemented</text>
<text text-anchor="middle" x="254" y="-7.5" font-family="Helvetica,sans-Serif" font-size="10.00">_collision_checker.h</text>
</a>
</g>
</g>
<!-- Node242&#45;&gt;Node244 -->
<g id="edge4" class="edge">
<title>Node242&#45;&gt;Node244</title>
<path fill="none" stroke="midnightblue" d="M188.99,-61.45C203.45,-51.45 220.59,-39.6 233.64,-30.58"/>
<polygon fill="midnightblue" stroke="midnightblue" points="186.63,-58.83 180.4,-67.4 190.61,-64.59 186.63,-58.83"/>
</g>
<!-- Node245&#45;&gt;Node242 -->
<g id="edge6" class="edge">
<title>Node245&#45;&gt;Node242</title>
<path fill="none" stroke="midnightblue" d="M225.01,-128.45C210.55,-118.45 193.41,-106.6 180.36,-97.58"/>
<polygon fill="midnightblue" stroke="midnightblue" points="223.39,-131.59 233.6,-134.4 227.37,-125.83 223.39,-131.59"/>
</g>
<!-- Node245&#45;&gt;Node244 -->
<g id="edge7" class="edge">
<title>Node245&#45;&gt;Node244</title>
<path fill="none" stroke="midnightblue" d="M254,-124.02C254,-96.51 254,-52.79 254,-30.52"/>
<polygon fill="midnightblue" stroke="midnightblue" points="250.5,-124.37 254,-134.37 257.5,-124.37 250.5,-124.37"/>
</g>
</g>
</svg>
