<?xml version="1.0" encoding="UTF-8" standalone="no"?>
<!DOCTYPE svg PUBLIC "-//W3C//DTD SVG 1.1//EN"
 "http://www.w3.org/Graphics/SVG/1.1/DTD/svg11.dtd">
<!-- Generated by graphviz version 2.43.0 (0)
 -->
<!-- Title: drake/planning/robot_collision_type.h Pages: 1 -->
<svg width="194pt" height="240pt"
 viewBox="0.00 0.00 194.00 240.00" xmlns="http://www.w3.org/2000/svg" xmlns:xlink="http://www.w3.org/1999/xlink">
<g id="graph0" class="graph" transform="scale(1 1) rotate(0) translate(4 236)">
<title>drake/planning/robot_collision_type.h</title>
<polygon fill="white" stroke="transparent" points="-4,4 -4,-236 190,-236 190,4 -4,4"/>
<!-- Node2 -->
<g id="node1" class="node">
<title>Node2</title>
<g id="a_node1"><a xlink:title=" ">
<polygon fill="#bfbfbf" stroke="black" points="43,-201.5 43,-231.5 160,-231.5 160,-201.5 43,-201.5"/>
<text text-anchor="start" x="51" y="-219.5" font-family="Helvetica,sans-Serif" font-size="10.00">drake/planning/robot</text>
<text text-anchor="middle" x="101.5" y="-208.5" font-family="Helvetica,sans-Serif" font-size="10.00">_collision_type.h</text>
</a>
</g>
</g>
<!-- Node3 -->
<g id="node2" class="node">
<title>Node3</title>
<g id="a_node2"><a xlink:href="robot__clearance_8h.html" target="_top" xlink:title=" ">
<polygon fill="white" stroke="black" points="0,-134.5 0,-164.5 117,-164.5 117,-134.5 0,-134.5"/>
<text text-anchor="start" x="8" y="-152.5" font-family="Helvetica,sans-Serif" font-size="10.00">drake/planning/robot</text>
<text text-anchor="middle" x="58.5" y="-141.5" font-family="Helvetica,sans-Serif" font-size="10.00">_clearance.h</text>
</a>
</g>
</g>
<!-- Node2&#45;&gt;Node3 -->
<g id="edge1" class="edge">
<title>Node2&#45;&gt;Node3</title>
<path fill="none" stroke="midnightblue" d="M86.53,-192.87C80.3,-183.46 73.27,-172.83 67.81,-164.58"/>
<polygon fill="midnightblue" stroke="midnightblue" points="83.73,-194.99 92.17,-201.4 89.57,-191.12 83.73,-194.99"/>
</g>
<!-- Node4 -->
<g id="node3" class="node">
<title>Node4</title>
<g id="a_node3"><a xlink:href="collision__checker_8h.html" target="_top" xlink:title=" ">
<polygon fill="white" stroke="black" points="35.5,-67.5 35.5,-97.5 167.5,-97.5 167.5,-67.5 35.5,-67.5"/>
<text text-anchor="start" x="43.5" y="-85.5" font-family="Helvetica,sans-Serif" font-size="10.00">drake/planning/collision</text>
<text text-anchor="middle" x="101.5" y="-74.5" font-family="Helvetica,sans-Serif" font-size="10.00">_checker.h</text>
</a>
</g>
</g>
<!-- Node2&#45;&gt;Node4 -->
<g id="edge4" class="edge">
<title>Node2&#45;&gt;Node4</title>
<path fill="none" stroke="midnightblue" d="M115.71,-192.41C120.07,-184.08 124.3,-174.41 126.5,-165 129.64,-151.58 129.64,-147.42 126.5,-134 123.47,-121.05 116.6,-107.6 110.83,-97.85"/>
<polygon fill="midnightblue" stroke="midnightblue" points="112.65,-190.72 110.83,-201.15 118.76,-194.13 112.65,-190.72"/>
</g>
<!-- Node3&#45;&gt;Node4 -->
<g id="edge2" class="edge">
<title>Node3&#45;&gt;Node4</title>
<path fill="none" stroke="midnightblue" d="M73.47,-125.87C79.7,-116.46 86.73,-105.83 92.19,-97.58"/>
<polygon fill="midnightblue" stroke="midnightblue" points="70.43,-124.12 67.83,-134.4 76.27,-127.99 70.43,-124.12"/>
</g>
<!-- Node5 -->
<g id="node4" class="node">
<title>Node5</title>
<g id="a_node4"><a xlink:href="unimplemented__collision__checker_8h.html" target="_top" xlink:title=" ">
<polygon fill="white" stroke="black" points="17,-0.5 17,-30.5 186,-30.5 186,-0.5 17,-0.5"/>
<text text-anchor="start" x="25" y="-18.5" font-family="Helvetica,sans-Serif" font-size="10.00">drake/planning/unimplemented</text>
<text text-anchor="middle" x="101.5" y="-7.5" font-family="Helvetica,sans-Serif" font-size="10.00">_collision_checker.h</text>
</a>
</g>
</g>
<!-- Node4&#45;&gt;Node5 -->
<g id="edge3" class="edge">
<title>Node4&#45;&gt;Node5</title>
<path fill="none" stroke="midnightblue" d="M101.5,-57.11C101.5,-48.15 101.5,-38.32 101.5,-30.58"/>
<polygon fill="midnightblue" stroke="midnightblue" points="98,-57.4 101.5,-67.4 105,-57.4 98,-57.4"/>
</g>
</g>
</svg>
