<?xml version="1.0" encoding="UTF-8" standalone="no"?>
<!DOCTYPE svg PUBLIC "-//W3C//DTD SVG 1.1//EN"
 "http://www.w3.org/Graphics/SVG/1.1/DTD/svg11.dtd">
<!-- Generated by graphviz version 2.43.0 (0)
 -->
<!-- Title: drake/planning/robot_clearance.h Pages: 1 -->
<!--zoomable 430 -->
<svg id="main" version="1.1" xmlns="http://www.w3.org/2000/svg" xmlns:xlink="http://www.w3.org/1999/xlink" xml:space="preserve" onload="init(evt)">
<style type="text/css"><![CDATA[
.edge:hover path { stroke: red; }
.edge:hover polygon { stroke: red; fill: red; }
]]></style>
<script type="text/javascript"><![CDATA[
var edges = document.getElementsByTagName('g');
if (edges && edges.length) {
  for (var i=0;i<edges.length;i++) {
    if (edges[i].id.substr(0,4)=='edge') {
      edges[i].setAttribute('class','edge');
    }
  }
}
]]></script>
        <defs>
                <circle id="rim" cx="0" cy="0" r="7"/>
                <circle id="rim2" cx="0" cy="0" r="3.5"/>
                <g id="zoomPlus">
                        <use xlink:href="#rim" fill="#404040">
                                <set attributeName="fill" to="#808080" begin="zoomplus.mouseover" end="zoomplus.mouseout"/>
                        </use>
                        <path d="M-4,0h8M0,-4v8" fill="none" stroke="white" stroke-width="1.5" pointer-events="none"/>
                </g>
                <g id="zoomMin">
                        <use xlink:href="#rim" fill="#404040">
                                <set attributeName="fill" to="#808080" begin="zoomminus.mouseover" end="zoomminus.mouseout"/>
                        </use>
                        <path d="M-4,0h8" fill="none" stroke="white" stroke-width="1.5" pointer-events="none"/>
                </g>
                <g id="dirArrow">
                        <path fill="none" stroke="white" stroke-width="1.5" d="M0,-3.0v7 M-2.5,-0.5L0,-3.0L2.5,-0.5"/>
                </g>
               <g id="resetDef">
                       <use xlink:href="#rim2" fill="#404040">
                               <set attributeName="fill" to="#808080" begin="reset.mouseover" end="reset.mouseout"/>
                       </use>
               </g>
        </defs>

<script type="text/javascript">
var viewWidth = 1655;
var viewHeight = 430;
var sectionId = 'dynsection-0';
</script>
<script xlink:href="svgpan.js"/>
<svg id="graph" class="graph">
<g id="viewport">
<title>drake/planning/robot_clearance.h</title>
<polygon fill="white" stroke="transparent" points="-4,4 -4,-426 1650.79,-426 1650.79,4 -4,4"/>
<!-- Node0 -->
<g id="node1" class="node">
<title>Node0</title>
<g id="a_node1"><a xlink:title=" ">
<polygon fill="#bfbfbf" stroke="black" points="1169,-391.5 1169,-421.5 1286,-421.5 1286,-391.5 1169,-391.5"/>
<text text-anchor="start" x="1177" y="-409.5" font-family="Helvetica,sans-Serif" font-size="10.00">drake/planning/robot</text>
<text text-anchor="middle" x="1227.5" y="-398.5" font-family="Helvetica,sans-Serif" font-size="10.00">_clearance.h</text>
</a>
</g>
</g>
<!-- Node1 -->
<g id="node2" class="node">
<title>Node1</title>
<g id="a_node2"><a xlink:title=" ">
<polygon fill="white" stroke="#bfbfbf" points="457,-129 457,-148 504,-148 504,-129 457,-129"/>
<text text-anchor="middle" x="480.5" y="-136" font-family="Helvetica,sans-Serif" font-size="10.00">vector</text>
</a>
</g>
</g>
<!-- Node0&#45;&gt;Node1 -->
<g id="edge1" class="edge">
<title>Node0&#45;&gt;Node1</title>
<path fill="none" stroke="midnightblue" d="M1168.94,-400.17C1108.79,-393.61 1013.01,-380.11 933.5,-355 760.15,-300.25 568.32,-191.51 503.4,-153.23"/>
<polygon fill="midnightblue" stroke="midnightblue" points="505.14,-150.19 494.76,-148.1 501.57,-156.21 505.14,-150.19"/>
</g>
<!-- Node2 -->
<g id="node3" class="node">
<title>Node2</title>
<g id="a_node3"><a xlink:href="drake__copyable_8h.html" target="_top" xlink:title="Provides careful macros to selectively enable or disable the special member functions for copy&#45;constr...">
<polygon fill="white" stroke="black" points="1168,-190.5 1168,-220.5 1287,-220.5 1287,-190.5 1168,-190.5"/>
<text text-anchor="start" x="1176" y="-208.5" font-family="Helvetica,sans-Serif" font-size="10.00">drake/common/drake</text>
<text text-anchor="middle" x="1227.5" y="-197.5" font-family="Helvetica,sans-Serif" font-size="10.00">_copyable.h</text>
</a>
</g>
</g>
<!-- Node0&#45;&gt;Node2 -->
<g id="edge2" class="edge">
<title>Node0&#45;&gt;Node2</title>
<path fill="none" stroke="midnightblue" d="M1227.5,-391.19C1227.5,-357.48 1227.5,-272.8 1227.5,-230.84"/>
<polygon fill="midnightblue" stroke="midnightblue" points="1231,-230.68 1227.5,-220.68 1224,-230.68 1231,-230.68"/>
</g>
<!-- Node3 -->
<g id="node4" class="node">
<title>Node3</title>
<g id="a_node4"><a xlink:href="eigen__types_8h.html" target="_top" xlink:title="This file contains abbreviated definitions for certain specializations of Eigen::Matrix that are comm...">
<polygon fill="white" stroke="black" points="1275,-257.5 1275,-287.5 1394,-287.5 1394,-257.5 1275,-257.5"/>
<text text-anchor="start" x="1283" y="-275.5" font-family="Helvetica,sans-Serif" font-size="10.00">drake/common/eigen</text>
<text text-anchor="middle" x="1334.5" y="-264.5" font-family="Helvetica,sans-Serif" font-size="10.00">_types.h</text>
</a>
</g>
</g>
<!-- Node0&#45;&gt;Node3 -->
<g id="edge3" class="edge">
<title>Node0&#45;&gt;Node3</title>
<path fill="none" stroke="midnightblue" d="M1238.95,-391.37C1257.61,-368.35 1294.72,-322.57 1316.8,-295.34"/>
<polygon fill="midnightblue" stroke="midnightblue" points="1319.55,-297.5 1323.13,-287.52 1314.12,-293.09 1319.55,-297.5"/>
</g>
<!-- Node9 -->
<g id="node10" class="node">
<title>Node9</title>
<g id="a_node10"><a xlink:href="multibody__tree__indexes_8h.html" target="_top" xlink:title=" ">
<polygon fill="white" stroke="black" points="942.5,-324.5 942.5,-354.5 1088.5,-354.5 1088.5,-324.5 942.5,-324.5"/>
<text text-anchor="start" x="950.5" y="-342.5" font-family="Helvetica,sans-Serif" font-size="10.00">drake/multibody/tree</text>
<text text-anchor="middle" x="1015.5" y="-331.5" font-family="Helvetica,sans-Serif" font-size="10.00">/multibody_tree_indexes.h</text>
</a>
</g>
</g>
<!-- Node0&#45;&gt;Node9 -->
<g id="edge10" class="edge">
<title>Node0&#45;&gt;Node9</title>
<path fill="none" stroke="midnightblue" d="M1181.76,-391.48C1149.41,-381.56 1105.85,-368.2 1071.43,-357.65"/>
<polygon fill="midnightblue" stroke="midnightblue" points="1072.11,-354.2 1061.52,-354.61 1070.06,-360.89 1072.11,-354.2"/>
</g>
<!-- Node31 -->
<g id="node32" class="node">
<title>Node31</title>
<g id="a_node32"><a xlink:href="robot__collision__type_8h.html" target="_top" xlink:title=" ">
<polygon fill="white" stroke="black" points="1457,-324.5 1457,-354.5 1574,-354.5 1574,-324.5 1457,-324.5"/>
<text text-anchor="start" x="1465" y="-342.5" font-family="Helvetica,sans-Serif" font-size="10.00">drake/planning/robot</text>
<text text-anchor="middle" x="1515.5" y="-331.5" font-family="Helvetica,sans-Serif" font-size="10.00">_collision_type.h</text>
</a>
</g>
</g>
<!-- Node0&#45;&gt;Node31 -->
<g id="edge49" class="edge">
<title>Node0&#45;&gt;Node31</title>
<path fill="none" stroke="midnightblue" d="M1286.13,-392.27C1332.75,-381.75 1398.06,-367.01 1447.07,-355.94"/>
<polygon fill="midnightblue" stroke="midnightblue" points="1447.97,-359.33 1456.95,-353.71 1446.43,-352.5 1447.97,-359.33"/>
</g>
<!-- Node3&#45;&gt;Node2 -->
<g id="edge9" class="edge">
<title>Node3&#45;&gt;Node2</title>
<path fill="none" stroke="midnightblue" d="M1311.28,-257.4C1296.14,-248.2 1276.17,-236.07 1259.53,-225.95"/>
<polygon fill="midnightblue" stroke="midnightblue" points="1261.04,-222.78 1250.67,-220.58 1257.4,-228.76 1261.04,-222.78"/>
</g>
<!-- Node4 -->
<g id="node5" class="node">
<title>Node4</title>
<g id="a_node5"><a xlink:title=" ">
<polygon fill="white" stroke="#bfbfbf" points="1212,-129 1212,-148 1257,-148 1257,-129 1212,-129"/>
<text text-anchor="middle" x="1234.5" y="-136" font-family="Helvetica,sans-Serif" font-size="10.00">utility</text>
</a>
</g>
</g>
<!-- Node3&#45;&gt;Node4 -->
<g id="edge4" class="edge">
<title>Node3&#45;&gt;Node4</title>
<path fill="none" stroke="midnightblue" d="M1330.14,-257.48C1324.35,-240.35 1312.91,-211.06 1296.5,-190 1285.41,-175.76 1269.59,-162.96 1256.71,-153.81"/>
<polygon fill="midnightblue" stroke="midnightblue" points="1258.59,-150.85 1248.36,-148.09 1254.63,-156.63 1258.59,-150.85"/>
</g>
<!-- Node5 -->
<g id="node6" class="node">
<title>Node5</title>
<g id="a_node6"><a xlink:title=" ">
<polygon fill="white" stroke="#bfbfbf" points="1382,-196 1382,-215 1459,-215 1459,-196 1382,-196"/>
<text text-anchor="middle" x="1420.5" y="-203" font-family="Helvetica,sans-Serif" font-size="10.00">Eigen/Dense</text>
</a>
</g>
</g>
<!-- Node3&#45;&gt;Node5 -->
<g id="edge5" class="edge">
<title>Node3&#45;&gt;Node5</title>
<path fill="none" stroke="midnightblue" d="M1353.16,-257.4C1367.23,-246.76 1386.49,-232.2 1400.81,-221.38"/>
<polygon fill="midnightblue" stroke="midnightblue" points="1403.13,-224.02 1409,-215.19 1398.91,-218.43 1403.13,-224.02"/>
</g>
<!-- Node6 -->
<g id="node7" class="node">
<title>Node6</title>
<g id="a_node7"><a xlink:href="constants_8h.html" target="_top" xlink:title=" ">
<polygon fill="white" stroke="black" points="1477,-196 1477,-215 1626,-215 1626,-196 1477,-196"/>
<text text-anchor="middle" x="1551.5" y="-203" font-family="Helvetica,sans-Serif" font-size="10.00">drake/common/constants.h</text>
</a>
</g>
</g>
<!-- Node3&#45;&gt;Node6 -->
<g id="edge6" class="edge">
<title>Node3&#45;&gt;Node6</title>
<path fill="none" stroke="midnightblue" d="M1381.32,-257.48C1420.72,-245.67 1476.38,-229 1513.18,-217.98"/>
<polygon fill="midnightblue" stroke="midnightblue" points="1514.45,-221.25 1523.03,-215.03 1512.44,-214.55 1514.45,-221.25"/>
</g>
<!-- Node7 -->
<g id="node8" class="node">
<title>Node7</title>
<g id="a_node8"><a xlink:href="drake__assert_8h.html" target="_top" xlink:title="Provides Drake&#39;s assertion implementation.">
<polygon fill="white" stroke="black" points="987,-56.5 987,-86.5 1106,-86.5 1106,-56.5 987,-56.5"/>
<text text-anchor="start" x="995" y="-74.5" font-family="Helvetica,sans-Serif" font-size="10.00">drake/common/drake</text>
<text text-anchor="middle" x="1046.5" y="-63.5" font-family="Helvetica,sans-Serif" font-size="10.00">_assert.h</text>
</a>
</g>
</g>
<!-- Node3&#45;&gt;Node7 -->
<g id="edge7" class="edge">
<title>Node3&#45;&gt;Node7</title>
<path fill="none" stroke="midnightblue" d="M1339.86,-257.23C1349.73,-228.19 1367,-161.69 1334.5,-123 1307.16,-90.45 1192.33,-78.88 1116.18,-74.76"/>
<polygon fill="midnightblue" stroke="midnightblue" points="1116.34,-71.27 1106.17,-74.25 1115.98,-78.26 1116.34,-71.27"/>
</g>
<!-- Node8 -->
<g id="node9" class="node">
<title>Node8</title>
<g id="a_node9"><a xlink:title=" ">
<polygon fill="white" stroke="#bfbfbf" points="1012,-0.5 1012,-19.5 1081,-19.5 1081,-0.5 1012,-0.5"/>
<text text-anchor="middle" x="1046.5" y="-7.5" font-family="Helvetica,sans-Serif" font-size="10.00">type_traits</text>
</a>
</g>
</g>
<!-- Node7&#45;&gt;Node8 -->
<g id="edge8" class="edge">
<title>Node7&#45;&gt;Node8</title>
<path fill="none" stroke="midnightblue" d="M1046.5,-56.4C1046.5,-48.47 1046.5,-38.46 1046.5,-29.86"/>
<polygon fill="midnightblue" stroke="midnightblue" points="1050,-29.66 1046.5,-19.66 1043,-29.66 1050,-29.66"/>
</g>
<!-- Node10 -->
<g id="node11" class="node">
<title>Node10</title>
<g id="a_node11"><a xlink:href="identifier_8h.html" target="_top" xlink:title=" ">
<polygon fill="white" stroke="black" points="943.5,-263 943.5,-282 1087.5,-282 1087.5,-263 943.5,-263"/>
<text text-anchor="middle" x="1015.5" y="-270" font-family="Helvetica,sans-Serif" font-size="10.00">drake/common/identifier.h</text>
</a>
</g>
</g>
<!-- Node9&#45;&gt;Node10 -->
<g id="edge11" class="edge">
<title>Node9&#45;&gt;Node10</title>
<path fill="none" stroke="midnightblue" d="M1015.5,-324.4C1015.5,-315.06 1015.5,-302.71 1015.5,-292.52"/>
<polygon fill="midnightblue" stroke="midnightblue" points="1019,-292.19 1015.5,-282.19 1012,-292.19 1019,-292.19"/>
</g>
<!-- Node28 -->
<g id="node29" class="node">
<title>Node28</title>
<g id="a_node29"><a xlink:href="type__safe__index_8h.html" target="_top" xlink:title=" ">
<polygon fill="white" stroke="black" points="390.5,-257.5 390.5,-287.5 530.5,-287.5 530.5,-257.5 390.5,-257.5"/>
<text text-anchor="start" x="398.5" y="-275.5" font-family="Helvetica,sans-Serif" font-size="10.00">drake/common/type_safe</text>
<text text-anchor="middle" x="460.5" y="-264.5" font-family="Helvetica,sans-Serif" font-size="10.00">_index.h</text>
</a>
</g>
</g>
<!-- Node9&#45;&gt;Node28 -->
<g id="edge42" class="edge">
<title>Node9&#45;&gt;Node28</title>
<path fill="none" stroke="midnightblue" d="M942.37,-329.94C838.44,-317.76 648.66,-295.54 540.89,-282.91"/>
<polygon fill="midnightblue" stroke="midnightblue" points="541.06,-279.41 530.72,-281.72 540.25,-286.36 541.06,-279.41"/>
</g>
<!-- Node10&#45;&gt;Node2 -->
<g id="edge16" class="edge">
<title>Node10&#45;&gt;Node2</title>
<path fill="none" stroke="midnightblue" d="M1043.65,-262.87C1076.29,-252.86 1130.87,-236.13 1172.11,-223.48"/>
<polygon fill="midnightblue" stroke="midnightblue" points="1173.21,-226.81 1181.75,-220.53 1171.16,-220.11 1173.21,-226.81"/>
</g>
<!-- Node10&#45;&gt;Node4 -->
<g id="edge15" class="edge">
<title>Node10&#45;&gt;Node4</title>
<path fill="none" stroke="midnightblue" d="M1010.81,-262.7C1002.81,-246.34 989,-210.99 1006.5,-190 1063.5,-121.64 1118.71,-181.08 1203.5,-154 1205.17,-153.47 1206.87,-152.86 1208.57,-152.21"/>
<polygon fill="midnightblue" stroke="midnightblue" points="1210.27,-155.29 1218.08,-148.13 1207.51,-148.86 1210.27,-155.29"/>
</g>
<!-- Node11 -->
<g id="node12" class="node">
<title>Node11</title>
<g id="a_node12"><a xlink:title=" ">
<polygon fill="white" stroke="#bfbfbf" points="1275.5,-129 1275.5,-148 1325.5,-148 1325.5,-129 1275.5,-129"/>
<text text-anchor="middle" x="1300.5" y="-136" font-family="Helvetica,sans-Serif" font-size="10.00">cstdint</text>
</a>
</g>
</g>
<!-- Node10&#45;&gt;Node11 -->
<g id="edge12" class="edge">
<title>Node10&#45;&gt;Node11</title>
<path fill="none" stroke="midnightblue" d="M1031.55,-262.91C1049.99,-253 1081.09,-236.11 1107.5,-221 1130.85,-207.64 1135.06,-201.24 1159.5,-190 1205.08,-169.03 1219.61,-171.86 1266.5,-154 1268.15,-153.37 1269.84,-152.71 1271.53,-152.03"/>
<polygon fill="midnightblue" stroke="midnightblue" points="1273.28,-155.1 1281.19,-148.05 1270.61,-148.63 1273.28,-155.1"/>
</g>
<!-- Node12 -->
<g id="node13" class="node">
<title>Node12</title>
<g id="a_node13"><a xlink:title=" ">
<polygon fill="white" stroke="#bfbfbf" points="1016,-196 1016,-215 1073,-215 1073,-196 1016,-196"/>
<text text-anchor="middle" x="1044.5" y="-203" font-family="Helvetica,sans-Serif" font-size="10.00">ostream</text>
</a>
</g>
</g>
<!-- Node10&#45;&gt;Node12 -->
<g id="edge13" class="edge">
<title>Node10&#45;&gt;Node12</title>
<path fill="none" stroke="midnightblue" d="M1019.41,-262.73C1023.76,-252.99 1030.9,-236.98 1036.46,-224.53"/>
<polygon fill="midnightblue" stroke="midnightblue" points="1039.77,-225.69 1040.65,-215.13 1033.38,-222.83 1039.77,-225.69"/>
</g>
<!-- Node13 -->
<g id="node14" class="node">
<title>Node13</title>
<g id="a_node14"><a xlink:title=" ">
<polygon fill="white" stroke="#bfbfbf" points="298.5,-62 298.5,-81 342.5,-81 342.5,-62 298.5,-62"/>
<text text-anchor="middle" x="320.5" y="-69" font-family="Helvetica,sans-Serif" font-size="10.00">string</text>
</a>
</g>
</g>
<!-- Node10&#45;&gt;Node13 -->
<g id="edge14" class="edge">
<title>Node10&#45;&gt;Node13</title>
<path fill="none" stroke="midnightblue" d="M955.52,-262.94C828.62,-244.21 537.21,-197.76 447.5,-154 427.91,-144.44 427.49,-135.31 409.5,-123 389.21,-109.12 364.85,-95.49 346.75,-85.89"/>
<polygon fill="midnightblue" stroke="midnightblue" points="347.89,-82.54 337.41,-81 344.64,-88.74 347.89,-82.54"/>
</g>
<!-- Node14 -->
<g id="node15" class="node">
<title>Node14</title>
<g id="a_node15"><a xlink:href="drake__throw_8h.html" target="_top" xlink:title="Provides a convenient wrapper to throw an exception when a condition is unmet.">
<polygon fill="white" stroke="black" points="1075,-123.5 1075,-153.5 1194,-153.5 1194,-123.5 1075,-123.5"/>
<text text-anchor="start" x="1083" y="-141.5" font-family="Helvetica,sans-Serif" font-size="10.00">drake/common/drake</text>
<text text-anchor="middle" x="1134.5" y="-130.5" font-family="Helvetica,sans-Serif" font-size="10.00">_throw.h</text>
</a>
</g>
</g>
<!-- Node10&#45;&gt;Node14 -->
<g id="edge17" class="edge">
<title>Node10&#45;&gt;Node14</title>
<path fill="none" stroke="midnightblue" d="M1029.5,-262.84C1043.68,-253.62 1065.72,-238.04 1081.5,-221 1097.95,-203.24 1112.61,-179.79 1122.31,-162.61"/>
<polygon fill="midnightblue" stroke="midnightblue" points="1125.42,-164.23 1127.18,-153.79 1119.28,-160.86 1125.42,-164.23"/>
</g>
<!-- Node15 -->
<g id="node16" class="node">
<title>Node15</title>
<g id="a_node16"><a xlink:href="fmt__ostream_8h.html" target="_top" xlink:title=" ">
<polygon fill="white" stroke="black" points="378.5,-196 378.5,-215 542.5,-215 542.5,-196 378.5,-196"/>
<text text-anchor="middle" x="460.5" y="-203" font-family="Helvetica,sans-Serif" font-size="10.00">drake/common/fmt_ostream.h</text>
</a>
</g>
</g>
<!-- Node10&#45;&gt;Node15 -->
<g id="edge20" class="edge">
<title>Node10&#45;&gt;Node15</title>
<path fill="none" stroke="midnightblue" d="M943.23,-263.04C840.28,-250.98 651.89,-228.92 543.4,-216.21"/>
<polygon fill="midnightblue" stroke="midnightblue" points="543.5,-212.7 533.16,-215.01 542.68,-219.65 543.5,-212.7"/>
</g>
<!-- Node21 -->
<g id="node22" class="node">
<title>Node21</title>
<g id="a_node22"><a xlink:href="hash_8h.html" target="_top" xlink:title=" ">
<polygon fill="white" stroke="black" points="752,-196 752,-215 877,-215 877,-196 752,-196"/>
<text text-anchor="middle" x="814.5" y="-203" font-family="Helvetica,sans-Serif" font-size="10.00">drake/common/hash.h</text>
</a>
</g>
</g>
<!-- Node10&#45;&gt;Node21 -->
<g id="edge28" class="edge">
<title>Node10&#45;&gt;Node21</title>
<path fill="none" stroke="midnightblue" d="M988.81,-262.87C953.27,-251.38 890.29,-231.01 850.55,-218.16"/>
<polygon fill="midnightblue" stroke="midnightblue" points="851.57,-214.81 840.98,-215.06 849.42,-221.47 851.57,-214.81"/>
</g>
<!-- Node14&#45;&gt;Node7 -->
<g id="edge19" class="edge">
<title>Node14&#45;&gt;Node7</title>
<path fill="none" stroke="midnightblue" d="M1115.41,-123.4C1103.18,-114.37 1087.13,-102.51 1073.6,-92.52"/>
<polygon fill="midnightblue" stroke="midnightblue" points="1075.68,-89.7 1065.56,-86.58 1071.52,-95.33 1075.68,-89.7"/>
</g>
<!-- Node14&#45;&gt;Node8 -->
<g id="edge18" class="edge">
<title>Node14&#45;&gt;Node8</title>
<path fill="none" stroke="midnightblue" d="M1134.09,-123.25C1132.95,-105.89 1128.84,-76.37 1114.5,-56 1104.9,-42.36 1089.73,-31.75 1076.16,-24.26"/>
<polygon fill="midnightblue" stroke="midnightblue" points="1077.59,-21.06 1067.1,-19.58 1074.38,-27.28 1077.59,-21.06"/>
</g>
<!-- Node16 -->
<g id="node17" class="node">
<title>Node16</title>
<g id="a_node17"><a xlink:title=" ">
<polygon fill="white" stroke="#bfbfbf" points="240.5,-129 240.5,-148 296.5,-148 296.5,-129 240.5,-129"/>
<text text-anchor="middle" x="268.5" y="-136" font-family="Helvetica,sans-Serif" font-size="10.00">sstream</text>
</a>
</g>
</g>
<!-- Node15&#45;&gt;Node16 -->
<g id="edge21" class="edge">
<title>Node15&#45;&gt;Node16</title>
<path fill="none" stroke="midnightblue" d="M432.61,-195.96C401.46,-186.28 349.59,-169.81 305.5,-154 303.6,-153.32 301.65,-152.6 299.69,-151.87"/>
<polygon fill="midnightblue" stroke="midnightblue" points="300.53,-148.45 289.94,-148.15 298.03,-154.99 300.53,-148.45"/>
</g>
<!-- Node17 -->
<g id="node18" class="node">
<title>Node17</title>
<g id="a_node18"><a xlink:title=" ">
<polygon fill="white" stroke="#bfbfbf" points="0,-62 0,-81 73,-81 73,-62 0,-62"/>
<text text-anchor="middle" x="36.5" y="-69" font-family="Helvetica,sans-Serif" font-size="10.00">string_view</text>
</a>
</g>
</g>
<!-- Node15&#45;&gt;Node17 -->
<g id="edge22" class="edge">
<title>Node15&#45;&gt;Node17</title>
<path fill="none" stroke="midnightblue" d="M409.54,-195.98C396.5,-193.91 382.5,-191.78 369.5,-190 299.91,-180.47 107.93,-200.73 55.5,-154 37.99,-138.4 35.01,-110.07 35.19,-91.27"/>
<polygon fill="midnightblue" stroke="midnightblue" points="38.69,-91.36 35.6,-81.23 31.7,-91.08 38.69,-91.36"/>
</g>
<!-- Node18 -->
<g id="node19" class="node">
<title>Node18</title>
<g id="a_node19"><a xlink:title=" ">
<polygon fill="white" stroke="#bfbfbf" points="314.5,-129 314.5,-148 400.5,-148 400.5,-129 314.5,-129"/>
<text text-anchor="middle" x="357.5" y="-136" font-family="Helvetica,sans-Serif" font-size="10.00">fmt/ostream.h</text>
</a>
</g>
</g>
<!-- Node15&#45;&gt;Node18 -->
<g id="edge23" class="edge">
<title>Node15&#45;&gt;Node18</title>
<path fill="none" stroke="midnightblue" d="M446.61,-195.73C429.47,-184.92 400.1,-166.38 379.79,-153.57"/>
<polygon fill="midnightblue" stroke="midnightblue" points="381.5,-150.5 371.17,-148.13 377.76,-156.42 381.5,-150.5"/>
</g>
<!-- Node19 -->
<g id="node20" class="node">
<title>Node19</title>
<g id="a_node20"><a xlink:href="fmt_8h.html" target="_top" xlink:title=" ">
<polygon fill="white" stroke="black" points="65,-129 65,-148 184,-148 184,-129 65,-129"/>
<text text-anchor="middle" x="124.5" y="-136" font-family="Helvetica,sans-Serif" font-size="10.00">drake/common/fmt.h</text>
</a>
</g>
</g>
<!-- Node15&#45;&gt;Node19 -->
<g id="edge24" class="edge">
<title>Node15&#45;&gt;Node19</title>
<path fill="none" stroke="midnightblue" d="M416.23,-195.94C355.08,-184.11 244.86,-162.78 178.81,-150.01"/>
<polygon fill="midnightblue" stroke="midnightblue" points="179.09,-146.49 168.6,-148.03 177.76,-153.37 179.09,-146.49"/>
</g>
<!-- Node19&#45;&gt;Node13 -->
<g id="edge25" class="edge">
<title>Node19&#45;&gt;Node13</title>
<path fill="none" stroke="midnightblue" d="M150.53,-128.87C186.18,-117.04 250.17,-95.83 288.64,-83.07"/>
<polygon fill="midnightblue" stroke="midnightblue" points="289.92,-86.33 298.31,-79.86 287.71,-79.69 289.92,-86.33"/>
</g>
<!-- Node19&#45;&gt;Node17 -->
<g id="edge26" class="edge">
<title>Node19&#45;&gt;Node17</title>
<path fill="none" stroke="midnightblue" d="M112.63,-128.73C98.25,-118.11 73.8,-100.05 56.49,-87.26"/>
<polygon fill="midnightblue" stroke="midnightblue" points="58.3,-84.25 48.18,-81.13 54.14,-89.88 58.3,-84.25"/>
</g>
<!-- Node20 -->
<g id="node21" class="node">
<title>Node20</title>
<g id="a_node21"><a xlink:title=" ">
<polygon fill="white" stroke="#bfbfbf" points="91,-62 91,-81 170,-81 170,-62 91,-62"/>
<text text-anchor="middle" x="130.5" y="-69" font-family="Helvetica,sans-Serif" font-size="10.00">fmt/format.h</text>
</a>
</g>
</g>
<!-- Node19&#45;&gt;Node20 -->
<g id="edge27" class="edge">
<title>Node19&#45;&gt;Node20</title>
<path fill="none" stroke="midnightblue" d="M125.31,-128.73C126.19,-119.18 127.63,-103.62 128.77,-91.28"/>
<polygon fill="midnightblue" stroke="midnightblue" points="132.27,-91.41 129.7,-81.13 125.3,-90.76 132.27,-91.41"/>
</g>
<!-- Node21&#45;&gt;Node1 -->
<g id="edge39" class="edge">
<title>Node21&#45;&gt;Node1</title>
<path fill="none" stroke="midnightblue" d="M751.93,-197.44C691.49,-189.77 597.7,-175.64 518.5,-154 515.85,-153.27 513.12,-152.43 510.4,-151.53"/>
<polygon fill="midnightblue" stroke="midnightblue" points="511.36,-148.16 500.77,-148.07 509,-154.74 511.36,-148.16"/>
</g>
<!-- Node21&#45;&gt;Node4 -->
<g id="edge38" class="edge">
<title>Node21&#45;&gt;Node4</title>
<path fill="none" stroke="midnightblue" d="M877.14,-198.73C971.07,-189.69 1143.75,-171.39 1203.5,-154 1205.38,-153.45 1207.29,-152.8 1209.2,-152.09"/>
<polygon fill="midnightblue" stroke="midnightblue" points="1210.63,-155.29 1218.46,-148.15 1207.89,-148.85 1210.63,-155.29"/>
</g>
<!-- Node21&#45;&gt;Node7 -->
<g id="edge40" class="edge">
<title>Node21&#45;&gt;Node7</title>
<path fill="none" stroke="midnightblue" d="M877.31,-196.91C912.82,-190.17 956.57,-177.54 989.5,-154 1010.34,-139.1 1026.16,-114.11 1035.79,-95.71"/>
<polygon fill="midnightblue" stroke="midnightblue" points="1039.04,-97.05 1040.37,-86.54 1032.78,-93.92 1039.04,-97.05"/>
</g>
<!-- Node21&#45;&gt;Node8 -->
<g id="edge37" class="edge">
<title>Node21&#45;&gt;Node8</title>
<path fill="none" stroke="midnightblue" d="M775.94,-195.93C753.53,-188.75 727.1,-176.01 713.5,-154 706.26,-142.28 705.46,-134.19 713.5,-123 780.09,-30.35 927.15,-13.3 1001.53,-10.84"/>
<polygon fill="midnightblue" stroke="midnightblue" points="1002.06,-14.32 1011.96,-10.57 1001.88,-7.33 1002.06,-14.32"/>
</g>
<!-- Node21&#45;&gt;Node11 -->
<g id="edge31" class="edge">
<title>Node21&#45;&gt;Node11</title>
<path fill="none" stroke="midnightblue" d="M877.19,-199.77C983.48,-191.36 1194.53,-172.93 1266.5,-154 1268.86,-153.38 1271.26,-152.63 1273.65,-151.79"/>
<polygon fill="midnightblue" stroke="midnightblue" points="1275.17,-154.95 1283.2,-148.03 1272.61,-148.44 1275.17,-154.95"/>
</g>
<!-- Node21&#45;&gt;Node13 -->
<g id="edge36" class="edge">
<title>Node21&#45;&gt;Node13</title>
<path fill="none" stroke="midnightblue" d="M751.89,-200.93C696.93,-195.85 615.93,-183.6 551.5,-154 531.38,-144.76 532.3,-132.92 512.5,-123 459.85,-96.63 391.97,-82.96 352.63,-76.79"/>
<polygon fill="midnightblue" stroke="midnightblue" points="352.97,-73.3 342.56,-75.28 351.93,-80.23 352.97,-73.3"/>
</g>
<!-- Node21&#45;&gt;Node14 -->
<g id="edge41" class="edge">
<title>Node21&#45;&gt;Node14</title>
<path fill="none" stroke="midnightblue" d="M856.66,-195.94C909.66,-185.17 1001.37,-166.54 1064.85,-153.65"/>
<polygon fill="midnightblue" stroke="midnightblue" points="1065.69,-157.05 1074.79,-151.63 1064.29,-150.19 1065.69,-157.05"/>
</g>
<!-- Node22 -->
<g id="node23" class="node">
<title>Node22</title>
<g id="a_node23"><a xlink:title=" ">
<polygon fill="white" stroke="#bfbfbf" points="723,-129 723,-148 770,-148 770,-129 723,-129"/>
<text text-anchor="middle" x="746.5" y="-136" font-family="Helvetica,sans-Serif" font-size="10.00">cmath</text>
</a>
</g>
</g>
<!-- Node21&#45;&gt;Node22 -->
<g id="edge29" class="edge">
<title>Node21&#45;&gt;Node22</title>
<path fill="none" stroke="midnightblue" d="M805.33,-195.73C794.52,-185.4 776.35,-168.04 763.06,-155.33"/>
<polygon fill="midnightblue" stroke="midnightblue" points="765.17,-152.51 755.53,-148.13 760.34,-157.57 765.17,-152.51"/>
</g>
<!-- Node23 -->
<g id="node24" class="node">
<title>Node23</title>
<g id="a_node24"><a xlink:title=" ">
<polygon fill="white" stroke="#bfbfbf" points="788,-129 788,-148 841,-148 841,-129 788,-129"/>
<text text-anchor="middle" x="814.5" y="-136" font-family="Helvetica,sans-Serif" font-size="10.00">cstddef</text>
</a>
</g>
</g>
<!-- Node21&#45;&gt;Node23 -->
<g id="edge30" class="edge">
<title>Node21&#45;&gt;Node23</title>
<path fill="none" stroke="midnightblue" d="M814.5,-195.73C814.5,-186.18 814.5,-170.62 814.5,-158.28"/>
<polygon fill="midnightblue" stroke="midnightblue" points="818,-158.13 814.5,-148.13 811,-158.13 818,-158.13"/>
</g>
<!-- Node24 -->
<g id="node25" class="node">
<title>Node24</title>
<g id="a_node25"><a xlink:title=" ">
<polygon fill="white" stroke="#bfbfbf" points="859,-129 859,-148 924,-148 924,-129 859,-129"/>
<text text-anchor="middle" x="891.5" y="-136" font-family="Helvetica,sans-Serif" font-size="10.00">functional</text>
</a>
</g>
</g>
<!-- Node21&#45;&gt;Node24 -->
<g id="edge32" class="edge">
<title>Node21&#45;&gt;Node24</title>
<path fill="none" stroke="midnightblue" d="M824.88,-195.73C837.35,-185.21 858.47,-167.38 873.59,-154.62"/>
<polygon fill="midnightblue" stroke="midnightblue" points="875.9,-157.25 881.28,-148.13 871.38,-151.9 875.9,-157.25"/>
</g>
<!-- Node25 -->
<g id="node26" class="node">
<title>Node25</title>
<g id="a_node26"><a xlink:title=" ">
<polygon fill="white" stroke="#bfbfbf" points="942.5,-129 942.5,-148 980.5,-148 980.5,-129 942.5,-129"/>
<text text-anchor="middle" x="961.5" y="-136" font-family="Helvetica,sans-Serif" font-size="10.00">map</text>
</a>
</g>
</g>
<!-- Node21&#45;&gt;Node25 -->
<g id="edge33" class="edge">
<title>Node21&#45;&gt;Node25</title>
<path fill="none" stroke="midnightblue" d="M835.55,-195.93C859.29,-186.17 898.94,-169.56 932.5,-154 933.5,-153.54 934.51,-153.06 935.53,-152.58"/>
<polygon fill="midnightblue" stroke="midnightblue" points="937.26,-155.63 944.71,-148.1 934.19,-149.34 937.26,-155.63"/>
</g>
<!-- Node26 -->
<g id="node27" class="node">
<title>Node26</title>
<g id="a_node27"><a xlink:title=" ">
<polygon fill="white" stroke="#bfbfbf" points="560.5,-129 560.5,-148 616.5,-148 616.5,-129 560.5,-129"/>
<text text-anchor="middle" x="588.5" y="-136" font-family="Helvetica,sans-Serif" font-size="10.00">optional</text>
</a>
</g>
</g>
<!-- Node21&#45;&gt;Node26 -->
<g id="edge34" class="edge">
<title>Node21&#45;&gt;Node26</title>
<path fill="none" stroke="midnightblue" d="M777.56,-195.93C739.19,-186.73 677.61,-171.11 625.5,-154 623.23,-153.26 620.9,-152.45 618.57,-151.61"/>
<polygon fill="midnightblue" stroke="midnightblue" points="619.69,-148.29 609.09,-148.04 617.22,-154.84 619.69,-148.29"/>
</g>
<!-- Node27 -->
<g id="node28" class="node">
<title>Node27</title>
<g id="a_node28"><a xlink:title=" ">
<polygon fill="white" stroke="#bfbfbf" points="634.5,-129 634.5,-148 666.5,-148 666.5,-129 634.5,-129"/>
<text text-anchor="middle" x="650.5" y="-136" font-family="Helvetica,sans-Serif" font-size="10.00">set</text>
</a>
</g>
</g>
<!-- Node21&#45;&gt;Node27 -->
<g id="edge35" class="edge">
<title>Node21&#45;&gt;Node27</title>
<path fill="none" stroke="midnightblue" d="M789.54,-195.85C762.42,-186.28 717.97,-170.08 680.5,-154 678.93,-153.33 677.32,-152.61 675.7,-151.88"/>
<polygon fill="midnightblue" stroke="midnightblue" points="677.11,-148.68 666.57,-147.6 674.14,-155.01 677.11,-148.68"/>
</g>
<!-- Node28&#45;&gt;Node7 -->
<g id="edge46" class="edge">
<title>Node28&#45;&gt;Node7</title>
<path fill="none" stroke="midnightblue" d="M530.84,-270.57C616.38,-267.77 764.37,-257.47 885.5,-221 948.88,-201.92 974.98,-203.87 1018.5,-154 1032.51,-137.94 1039.6,-114.52 1043.13,-96.91"/>
<polygon fill="midnightblue" stroke="midnightblue" points="1046.62,-97.26 1044.9,-86.8 1039.73,-96.05 1046.62,-97.26"/>
</g>
<!-- Node28&#45;&gt;Node13 -->
<g id="edge44" class="edge">
<title>Node28&#45;&gt;Node13</title>
<path fill="none" stroke="midnightblue" d="M390.34,-265.54C330.53,-258.83 251.2,-245.52 231.5,-221 204.22,-187.05 209.58,-160.64 231.5,-123 243.79,-101.89 268.56,-88.89 288.85,-81.38"/>
<polygon fill="midnightblue" stroke="midnightblue" points="290.05,-84.66 298.37,-78.12 287.78,-78.04 290.05,-84.66"/>
</g>
<!-- Node28&#45;&gt;Node15 -->
<g id="edge47" class="edge">
<title>Node28&#45;&gt;Node15</title>
<path fill="none" stroke="midnightblue" d="M460.5,-257.4C460.5,-248.06 460.5,-235.71 460.5,-225.52"/>
<polygon fill="midnightblue" stroke="midnightblue" points="464,-225.19 460.5,-215.19 457,-225.19 464,-225.19"/>
</g>
<!-- Node28&#45;&gt;Node21 -->
<g id="edge48" class="edge">
<title>Node28&#45;&gt;Node21</title>
<path fill="none" stroke="midnightblue" d="M530.86,-258.58C597.52,-246.34 696.35,-228.19 758.02,-216.87"/>
<polygon fill="midnightblue" stroke="midnightblue" points="758.75,-220.29 767.96,-215.05 757.49,-213.41 758.75,-220.29"/>
</g>
<!-- Node29 -->
<g id="node30" class="node">
<title>Node29</title>
<g id="a_node30"><a xlink:title=" ">
<polygon fill="white" stroke="#bfbfbf" points="316.5,-196 316.5,-215 360.5,-215 360.5,-196 316.5,-196"/>
<text text-anchor="middle" x="338.5" y="-203" font-family="Helvetica,sans-Serif" font-size="10.00">limits</text>
</a>
</g>
</g>
<!-- Node28&#45;&gt;Node29 -->
<g id="edge43" class="edge">
<title>Node28&#45;&gt;Node29</title>
<path fill="none" stroke="midnightblue" d="M434.03,-257.4C413.1,-246.24 384.07,-230.78 363.53,-219.83"/>
<polygon fill="midnightblue" stroke="midnightblue" points="364.94,-216.62 354.47,-215.01 361.65,-222.8 364.94,-216.62"/>
</g>
<!-- Node30 -->
<g id="node31" class="node">
<title>Node30</title>
<g id="a_node31"><a xlink:title=" ">
<polygon fill="white" stroke="#bfbfbf" points="241,-196 241,-215 298,-215 298,-196 241,-196"/>
<text text-anchor="middle" x="269.5" y="-203" font-family="Helvetica,sans-Serif" font-size="10.00">typeinfo</text>
</a>
</g>
</g>
<!-- Node28&#45;&gt;Node30 -->
<g id="edge45" class="edge">
<title>Node28&#45;&gt;Node30</title>
<path fill="none" stroke="midnightblue" d="M416.13,-257.45C385.49,-247.6 343.87,-233.93 307.5,-221 305.39,-220.25 303.22,-219.46 301.04,-218.66"/>
<polygon fill="midnightblue" stroke="midnightblue" points="302.13,-215.33 291.54,-215.11 299.68,-221.89 302.13,-215.33"/>
</g>
<!-- Node31&#45;&gt;Node11 -->
<g id="edge50" class="edge">
<title>Node31&#45;&gt;Node11</title>
<path fill="none" stroke="midnightblue" d="M1542.03,-324.34C1588.76,-297.65 1677.01,-238.24 1635.5,-190 1597.12,-145.4 1414.08,-139.67 1335.97,-139.29"/>
<polygon fill="midnightblue" stroke="midnightblue" points="1335.67,-135.79 1325.67,-139.27 1335.66,-142.79 1335.67,-135.79"/>
</g>
</g>
</svg>
        <g id="navigator" transform="translate(0 0)" fill="#404254">
                <rect fill="#f2f5e9" fill-opacity="0.5" stroke="#606060" stroke-width=".5" x="0" y="0" width="60" height="60"/>
                <use id="zoomplus" xlink:href="#zoomPlus" x="17" y="9" onmousedown="handleZoom(evt,'in')"/>
                <use id="zoomminus" xlink:href="#zoomMin" x="42" y="9" onmousedown="handleZoom(evt,'out')"/>
                <use id="reset" xlink:href="#resetDef" x="30" y="36" onmousedown="handleReset()"/>
                <g id="arrowUp" xlink:href="#dirArrow" transform="translate(30 24)" onmousedown="handlePan(0,-1)">
                  <use xlink:href="#rim" fill="#404040">
                        <set attributeName="fill" to="#808080" begin="arrowUp.mouseover" end="arrowUp.mouseout"/>
                  </use>
                  <path fill="none" stroke="white" stroke-width="1.5" d="M0,-3.0v7 M-2.5,-0.5L0,-3.0L2.5,-0.5"/>
                </g>
                <g id="arrowRight" xlink:href="#dirArrow" transform="rotate(90) translate(36 -43)" onmousedown="handlePan(1,0)">
                  <use xlink:href="#rim" fill="#404040">
                        <set attributeName="fill" to="#808080" begin="arrowRight.mouseover" end="arrowRight.mouseout"/>
                  </use>
                  <path fill="none" stroke="white" stroke-width="1.5" d="M0,-3.0v7 M-2.5,-0.5L0,-3.0L2.5,-0.5"/>
                </g>
                <g id="arrowDown" xlink:href="#dirArrow" transform="rotate(180) translate(-30 -48)" onmousedown="handlePan(0,1)">
                  <use xlink:href="#rim" fill="#404040">
                        <set attributeName="fill" to="#808080" begin="arrowDown.mouseover" end="arrowDown.mouseout"/>
                  </use>
                  <path fill="none" stroke="white" stroke-width="1.5" d="M0,-3.0v7 M-2.5,-0.5L0,-3.0L2.5,-0.5"/>
                </g>
                <g id="arrowLeft" xlink:href="#dirArrow" transform="rotate(270) translate(-36 17)" onmousedown="handlePan(-1,0)">
                  <use xlink:href="#rim" fill="#404040">
                        <set attributeName="fill" to="#808080" begin="arrowLeft.mouseover" end="arrowLeft.mouseout"/>
                  </use>
                  <path fill="none" stroke="white" stroke-width="1.5" d="M0,-3.0v7 M-2.5,-0.5L0,-3.0L2.5,-0.5"/>
                </g>
        </g>
        <svg viewBox="0 0 15 15" width="100%" height="30px" preserveAspectRatio="xMaxYMin meet">
         <g id="arrow_out" transform="scale(0.3 0.3)">
          <a xlink:href="robot__clearance_8h__incl_org.svg" target="_base">
           <rect id="button" ry="5" rx="5" y="6" x="6" height="38" width="38"
                fill="#f2f5e9" fill-opacity="0.5" stroke="#606060" stroke-width="1.0"/>
           <path id="arrow"
             d="M 11.500037,31.436501 C 11.940474,20.09759 22.043105,11.32322 32.158766,21.979434 L 37.068811,17.246167 C 37.068811,17.246167 37.088388,32 37.088388,32 L 22.160133,31.978069 C 22.160133,31.978069 26.997745,27.140456 26.997745,27.140456 C 18.528582,18.264221 13.291696,25.230495 11.500037,31.436501 z"
             style="fill:#404040;"/>
          </a>
         </g>
        </svg>
</svg>
