<?xml version="1.0" encoding="UTF-8" standalone="no"?>
<!DOCTYPE svg PUBLIC "-//W3C//DTD SVG 1.1//EN"
 "http://www.w3.org/Graphics/SVG/1.1/DTD/svg11.dtd">
<!-- Generated by graphviz version 2.43.0 (0)
 -->
<!-- Title: drake/math/rotation_conversion_gradient.h Pages: 1 -->
<svg width="679pt" height="296pt"
 viewBox="0.00 0.00 678.68 296.00" xmlns="http://www.w3.org/2000/svg" xmlns:xlink="http://www.w3.org/1999/xlink">
<g id="graph0" class="graph" transform="scale(1 1) rotate(0) translate(4 292)">
<title>drake/math/rotation_conversion_gradient.h</title>
<polygon fill="white" stroke="transparent" points="-4,4 -4,-292 674.68,-292 674.68,4 -4,4"/>
<!-- Node0 -->
<g id="node1" class="node">
<title>Node0</title>
<g id="a_node1"><a xlink:title=" ">
<polygon fill="#bfbfbf" stroke="black" points="117.18,-257.5 117.18,-287.5 247.18,-287.5 247.18,-257.5 117.18,-257.5"/>
<text text-anchor="start" x="125.18" y="-275.5" font-family="Helvetica,sans-Serif" font-size="10.00">drake/math/rotation</text>
<text text-anchor="middle" x="182.18" y="-264.5" font-family="Helvetica,sans-Serif" font-size="10.00">_conversion_gradient.h</text>
</a>
</g>
</g>
<!-- Node1 -->
<g id="node2" class="node">
<title>Node1</title>
<g id="a_node2"><a xlink:title=" ">
<polygon fill="white" stroke="#bfbfbf" points="28.68,-0.5 28.68,-19.5 105.68,-19.5 105.68,-0.5 28.68,-0.5"/>
<text text-anchor="middle" x="67.18" y="-7.5" font-family="Helvetica,sans-Serif" font-size="10.00">Eigen/Dense</text>
</a>
</g>
</g>
<!-- Node0&#45;&gt;Node1 -->
<g id="edge1" class="edge">
<title>Node0&#45;&gt;Node1</title>
<path fill="none" stroke="midnightblue" d="M117.11,-268.74C82.69,-263.55 43.12,-250.87 21.18,-221 4.07,-197.7 -21.48,-201.78 34.18,-56 38.14,-45.63 45.17,-35.53 51.72,-27.53"/>
<polygon fill="midnightblue" stroke="midnightblue" points="54.55,-29.61 58.48,-19.77 49.27,-25.02 54.55,-29.61"/>
</g>
<!-- Node2 -->
<g id="node3" class="node">
<title>Node2</title>
<g id="a_node3"><a xlink:href="constants_8h.html" target="_top" xlink:title=" ">
<polygon fill="white" stroke="black" points="247.68,-196 247.68,-215 396.68,-215 396.68,-196 247.68,-196"/>
<text text-anchor="middle" x="322.18" y="-203" font-family="Helvetica,sans-Serif" font-size="10.00">drake/common/constants.h</text>
</a>
</g>
</g>
<!-- Node0&#45;&gt;Node2 -->
<g id="edge2" class="edge">
<title>Node0&#45;&gt;Node2</title>
<path fill="none" stroke="midnightblue" d="M212.56,-257.4C237.02,-246.04 271.09,-230.22 294.73,-219.24"/>
<polygon fill="midnightblue" stroke="midnightblue" points="296.26,-222.39 303.86,-215.01 293.32,-216.04 296.26,-222.39"/>
</g>
<!-- Node3 -->
<g id="node4" class="node">
<title>Node3</title>
<g id="a_node4"><a xlink:href="gradient_8h.html" target="_top" xlink:title="Utilities for arithmetic on gradients.">
<polygon fill="white" stroke="black" points="49.68,-62 49.68,-81 174.68,-81 174.68,-62 49.68,-62"/>
<text text-anchor="middle" x="112.18" y="-69" font-family="Helvetica,sans-Serif" font-size="10.00">drake/math/gradient.h</text>
</a>
</g>
</g>
<!-- Node0&#45;&gt;Node3 -->
<g id="edge3" class="edge">
<title>Node0&#45;&gt;Node3</title>
<path fill="none" stroke="midnightblue" d="M179.71,-257.45C176.63,-241.03 170.84,-213.17 163.18,-190 151.14,-153.56 132.16,-112.86 121.06,-90.19"/>
<polygon fill="midnightblue" stroke="midnightblue" points="124.15,-88.54 116.58,-81.13 117.88,-91.65 124.15,-88.54"/>
</g>
<!-- Node4 -->
<g id="node5" class="node">
<title>Node4</title>
<g id="a_node5"><a xlink:href="gradient__util_8h.html" target="_top" xlink:title=" ">
<polygon fill="white" stroke="black" points="222.18,-123.5 222.18,-153.5 338.18,-153.5 338.18,-123.5 222.18,-123.5"/>
<text text-anchor="start" x="230.18" y="-141.5" font-family="Helvetica,sans-Serif" font-size="10.00">drake/math/gradient</text>
<text text-anchor="middle" x="280.18" y="-130.5" font-family="Helvetica,sans-Serif" font-size="10.00">_util.h</text>
</a>
</g>
</g>
<!-- Node0&#45;&gt;Node4 -->
<g id="edge5" class="edge">
<title>Node0&#45;&gt;Node4</title>
<path fill="none" stroke="midnightblue" d="M191.57,-257.44C202.63,-241.02 221.72,-213.16 239.18,-190 246.29,-180.57 254.44,-170.42 261.58,-161.71"/>
<polygon fill="midnightblue" stroke="midnightblue" points="264.39,-163.8 268.06,-153.87 258.99,-159.35 264.39,-163.8"/>
</g>
<!-- Node13 -->
<g id="node14" class="node">
<title>Node13</title>
<g id="a_node14"><a xlink:href="normalize__vector_8h.html" target="_top" xlink:title=" ">
<polygon fill="white" stroke="black" points="30.18,-190.5 30.18,-220.5 154.18,-220.5 154.18,-190.5 30.18,-190.5"/>
<text text-anchor="start" x="38.18" y="-208.5" font-family="Helvetica,sans-Serif" font-size="10.00">drake/math/normalize</text>
<text text-anchor="middle" x="92.18" y="-197.5" font-family="Helvetica,sans-Serif" font-size="10.00">_vector.h</text>
</a>
</g>
</g>
<!-- Node0&#45;&gt;Node13 -->
<g id="edge17" class="edge">
<title>Node0&#45;&gt;Node13</title>
<path fill="none" stroke="midnightblue" d="M162.65,-257.4C150.15,-248.37 133.74,-236.51 119.9,-226.52"/>
<polygon fill="midnightblue" stroke="midnightblue" points="121.83,-223.59 111.67,-220.58 117.73,-229.27 121.83,-223.59"/>
</g>
<!-- Node3&#45;&gt;Node1 -->
<g id="edge4" class="edge">
<title>Node3&#45;&gt;Node1</title>
<path fill="none" stroke="midnightblue" d="M105.73,-61.98C98.98,-53.05 88.21,-38.81 79.77,-27.64"/>
<polygon fill="midnightblue" stroke="midnightblue" points="82.44,-25.37 73.62,-19.51 76.86,-29.6 82.44,-25.37"/>
</g>
<!-- Node4&#45;&gt;Node1 -->
<g id="edge9" class="edge">
<title>Node4&#45;&gt;Node1</title>
<path fill="none" stroke="midnightblue" d="M301.68,-123.33C324.52,-106.57 354.93,-78.14 336.18,-56 308.54,-23.34 185.86,-14.37 116.11,-11.91"/>
<polygon fill="midnightblue" stroke="midnightblue" points="115.91,-8.41 105.81,-11.59 115.69,-15.4 115.91,-8.41"/>
</g>
<!-- Node4&#45;&gt;Node3 -->
<g id="edge16" class="edge">
<title>Node4&#45;&gt;Node3</title>
<path fill="none" stroke="midnightblue" d="M243.73,-123.4C213.86,-111.84 172.03,-95.66 143.62,-84.66"/>
<polygon fill="midnightblue" stroke="midnightblue" points="144.76,-81.35 134.17,-81.01 142.23,-87.88 144.76,-81.35"/>
</g>
<!-- Node5 -->
<g id="node6" class="node">
<title>Node5</title>
<g id="a_node6"><a xlink:title=" ">
<polygon fill="white" stroke="#bfbfbf" points="356.18,-0.5 356.18,-19.5 398.18,-19.5 398.18,-0.5 356.18,-0.5"/>
<text text-anchor="middle" x="377.18" y="-7.5" font-family="Helvetica,sans-Serif" font-size="10.00">array</text>
</a>
</g>
</g>
<!-- Node4&#45;&gt;Node5 -->
<g id="edge6" class="edge">
<title>Node4&#45;&gt;Node5</title>
<path fill="none" stroke="midnightblue" d="M322.64,-123.34C339.88,-115.39 358.28,-103.65 369.18,-87 380.28,-70.05 380.99,-46.27 379.75,-29.84"/>
<polygon fill="midnightblue" stroke="midnightblue" points="383.22,-29.4 378.68,-19.82 376.26,-30.14 383.22,-29.4"/>
</g>
<!-- Node6 -->
<g id="node7" class="node">
<title>Node6</title>
<g id="a_node7"><a xlink:title=" ">
<polygon fill="white" stroke="#bfbfbf" points="192.68,-62 192.68,-81 239.68,-81 239.68,-62 192.68,-62"/>
<text text-anchor="middle" x="216.18" y="-69" font-family="Helvetica,sans-Serif" font-size="10.00">vector</text>
</a>
</g>
</g>
<!-- Node4&#45;&gt;Node6 -->
<g id="edge7" class="edge">
<title>Node4&#45;&gt;Node6</title>
<path fill="none" stroke="midnightblue" d="M266.29,-123.4C256.22,-113.16 242.57,-99.3 232.06,-88.62"/>
<polygon fill="midnightblue" stroke="midnightblue" points="234.25,-85.86 224.74,-81.19 229.26,-90.78 234.25,-85.86"/>
</g>
<!-- Node7 -->
<g id="node8" class="node">
<title>Node7</title>
<g id="a_node8"><a xlink:title=" ">
<polygon fill="white" stroke="#bfbfbf" points="257.68,-62 257.68,-81 326.68,-81 326.68,-62 257.68,-62"/>
<text text-anchor="middle" x="292.18" y="-69" font-family="Helvetica,sans-Serif" font-size="10.00">Eigen/Core</text>
</a>
</g>
</g>
<!-- Node4&#45;&gt;Node7 -->
<g id="edge8" class="edge">
<title>Node4&#45;&gt;Node7</title>
<path fill="none" stroke="midnightblue" d="M282.79,-123.4C284.53,-113.96 286.84,-101.45 288.73,-91.19"/>
<polygon fill="midnightblue" stroke="midnightblue" points="292.2,-91.66 290.58,-81.19 285.32,-90.39 292.2,-91.66"/>
</g>
<!-- Node8 -->
<g id="node9" class="node">
<title>Node8</title>
<g id="a_node9"><a xlink:href="drake__assert_8h.html" target="_top" xlink:title="Provides Drake&#39;s assertion mechanics.">
<polygon fill="white" stroke="black" points="451.68,-56.5 451.68,-86.5 570.68,-86.5 570.68,-56.5 451.68,-56.5"/>
<text text-anchor="start" x="459.68" y="-74.5" font-family="Helvetica,sans-Serif" font-size="10.00">drake/common/drake</text>
<text text-anchor="middle" x="511.18" y="-63.5" font-family="Helvetica,sans-Serif" font-size="10.00">_assert.h</text>
</a>
</g>
</g>
<!-- Node4&#45;&gt;Node8 -->
<g id="edge10" class="edge">
<title>Node4&#45;&gt;Node8</title>
<path fill="none" stroke="midnightblue" d="M330.02,-123.48C365.57,-113.47 413.55,-99.97 451.2,-89.38"/>
<polygon fill="midnightblue" stroke="midnightblue" points="452.36,-92.69 461.03,-86.61 450.46,-85.95 452.36,-92.69"/>
</g>
<!-- Node8&#45;&gt;Node5 -->
<g id="edge11" class="edge">
<title>Node8&#45;&gt;Node5</title>
<path fill="none" stroke="midnightblue" d="M479.43,-56.4C457.14,-46.51 427.59,-33.38 405.99,-23.79"/>
<polygon fill="midnightblue" stroke="midnightblue" points="407.24,-20.52 396.68,-19.66 404.4,-26.91 407.24,-20.52"/>
</g>
<!-- Node9 -->
<g id="node10" class="node">
<title>Node9</title>
<g id="a_node10"><a xlink:title=" ">
<polygon fill="white" stroke="#bfbfbf" points="567.18,-0.5 567.18,-19.5 611.18,-19.5 611.18,-0.5 567.18,-0.5"/>
<text text-anchor="middle" x="589.18" y="-7.5" font-family="Helvetica,sans-Serif" font-size="10.00">string</text>
</a>
</g>
</g>
<!-- Node8&#45;&gt;Node9 -->
<g id="edge12" class="edge">
<title>Node8&#45;&gt;Node9</title>
<path fill="none" stroke="midnightblue" d="M529.67,-56.4C541.7,-47.22 557.38,-35.26 569.63,-25.92"/>
<polygon fill="midnightblue" stroke="midnightblue" points="572,-28.51 577.83,-19.66 567.76,-22.94 572,-28.51"/>
</g>
<!-- Node10 -->
<g id="node11" class="node">
<title>Node10</title>
<g id="a_node11"><a xlink:title=" ">
<polygon fill="white" stroke="#bfbfbf" points="629.68,-0.5 629.68,-19.5 670.68,-19.5 670.68,-0.5 629.68,-0.5"/>
<text text-anchor="middle" x="650.18" y="-7.5" font-family="Helvetica,sans-Serif" font-size="10.00">tuple</text>
</a>
</g>
</g>
<!-- Node8&#45;&gt;Node10 -->
<g id="edge13" class="edge">
<title>Node8&#45;&gt;Node10</title>
<path fill="none" stroke="midnightblue" d="M544.12,-56.4C567.34,-46.46 598.17,-33.26 620.6,-23.66"/>
<polygon fill="midnightblue" stroke="midnightblue" points="622.14,-26.81 629.96,-19.66 619.39,-20.38 622.14,-26.81"/>
</g>
<!-- Node11 -->
<g id="node12" class="node">
<title>Node11</title>
<g id="a_node12"><a xlink:title=" ">
<polygon fill="white" stroke="#bfbfbf" points="416.68,-0.5 416.68,-19.5 485.68,-19.5 485.68,-0.5 416.68,-0.5"/>
<text text-anchor="middle" x="451.18" y="-7.5" font-family="Helvetica,sans-Serif" font-size="10.00">type_traits</text>
</a>
</g>
</g>
<!-- Node8&#45;&gt;Node11 -->
<g id="edge14" class="edge">
<title>Node8&#45;&gt;Node11</title>
<path fill="none" stroke="midnightblue" d="M496.96,-56.4C487.97,-47.49 476.34,-35.95 467.06,-26.74"/>
<polygon fill="midnightblue" stroke="midnightblue" points="469.48,-24.21 459.91,-19.66 464.55,-29.18 469.48,-24.21"/>
</g>
<!-- Node12 -->
<g id="node13" class="node">
<title>Node12</title>
<g id="a_node13"><a xlink:title=" ">
<polygon fill="white" stroke="#bfbfbf" points="503.68,-0.5 503.68,-19.5 548.68,-19.5 548.68,-0.5 503.68,-0.5"/>
<text text-anchor="middle" x="526.18" y="-7.5" font-family="Helvetica,sans-Serif" font-size="10.00">utility</text>
</a>
</g>
</g>
<!-- Node8&#45;&gt;Node12 -->
<g id="edge15" class="edge">
<title>Node8&#45;&gt;Node12</title>
<path fill="none" stroke="midnightblue" d="M514.74,-56.4C516.76,-48.38 519.32,-38.23 521.5,-29.57"/>
<polygon fill="midnightblue" stroke="midnightblue" points="524.95,-30.21 524,-19.66 518.16,-28.5 524.95,-30.21"/>
</g>
<!-- Node13&#45;&gt;Node1 -->
<g id="edge18" class="edge">
<title>Node13&#45;&gt;Node1</title>
<path fill="none" stroke="midnightblue" d="M83.72,-190.3C71.47,-168.83 49.37,-126.41 41.18,-87 38.38,-73.51 37.61,-69.31 41.18,-56 43.84,-46.1 49.25,-36.13 54.46,-28.1"/>
<polygon fill="midnightblue" stroke="midnightblue" points="57.47,-29.89 60.29,-19.68 51.72,-25.91 57.47,-29.89"/>
</g>
<!-- Node13&#45;&gt;Node3 -->
<g id="edge19" class="edge">
<title>Node13&#45;&gt;Node3</title>
<path fill="none" stroke="midnightblue" d="M94.32,-190.37C97.96,-166.4 105.33,-117.75 109.37,-91.06"/>
<polygon fill="midnightblue" stroke="midnightblue" points="112.84,-91.51 110.88,-81.1 105.92,-90.46 112.84,-91.51"/>
</g>
<!-- Node13&#45;&gt;Node4 -->
<g id="edge20" class="edge">
<title>Node13&#45;&gt;Node4</title>
<path fill="none" stroke="midnightblue" d="M132.98,-190.4C161.43,-180.56 199.58,-167.37 229.92,-156.88"/>
<polygon fill="midnightblue" stroke="midnightblue" points="231.16,-160.15 239.47,-153.58 228.87,-153.54 231.16,-160.15"/>
</g>
</g>
</svg>
