<?xml version="1.0" encoding="UTF-8" standalone="no"?>
<!DOCTYPE svg PUBLIC "-//W3C//DTD SVG 1.1//EN"
 "http://www.w3.org/Graphics/SVG/1.1/DTD/svg11.dtd">
<!-- Generated by graphviz version 2.43.0 (0)
 -->
<!-- Title: drake/math/rotation_conversion_gradient.h Pages: 1 -->
<svg width="574pt" height="296pt"
 viewBox="0.00 0.00 574.01 296.00" xmlns="http://www.w3.org/2000/svg" xmlns:xlink="http://www.w3.org/1999/xlink">
<g id="graph0" class="graph" transform="scale(1 1) rotate(0) translate(4 292)">
<title>drake/math/rotation_conversion_gradient.h</title>
<polygon fill="white" stroke="transparent" points="-4,4 -4,-292 570.01,-292 570.01,4 -4,4"/>
<!-- Node0 -->
<g id="node1" class="node">
<title>Node0</title>
<g id="a_node1"><a xlink:title=" ">
<polygon fill="#bfbfbf" stroke="black" points="101.51,-257.5 101.51,-287.5 231.51,-287.5 231.51,-257.5 101.51,-257.5"/>
<text text-anchor="start" x="109.51" y="-275.5" font-family="Helvetica,sans-Serif" font-size="10.00">drake/math/rotation</text>
<text text-anchor="middle" x="166.51" y="-264.5" font-family="Helvetica,sans-Serif" font-size="10.00">_conversion_gradient.h</text>
</a>
</g>
</g>
<!-- Node1 -->
<g id="node2" class="node">
<title>Node1</title>
<g id="a_node2"><a xlink:title=" ">
<polygon fill="white" stroke="#bfbfbf" points="84.01,-0.5 84.01,-19.5 161.01,-19.5 161.01,-0.5 84.01,-0.5"/>
<text text-anchor="middle" x="122.51" y="-7.5" font-family="Helvetica,sans-Serif" font-size="10.00">Eigen/Dense</text>
</a>
</g>
</g>
<!-- Node0&#45;&gt;Node1 -->
<g id="edge1" class="edge">
<title>Node0&#45;&gt;Node1</title>
<path fill="none" stroke="midnightblue" d="M133.09,-257.38C115.59,-248.76 94.7,-236.43 79.51,-221 31.63,-172.36 21.73,-153.04 4.51,-87 1.03,-73.67 -3.31,-67.35 4.51,-56 20.15,-33.29 48.92,-22.03 74.13,-16.45"/>
<polygon fill="midnightblue" stroke="midnightblue" points="74.81,-19.89 83.94,-14.52 73.45,-13.02 74.81,-19.89"/>
</g>
<!-- Node2 -->
<g id="node3" class="node">
<title>Node2</title>
<g id="a_node3"><a xlink:href="constants_8h.html" target="_top" xlink:title=" ">
<polygon fill="white" stroke="black" points="301.01,-196 301.01,-215 450.01,-215 450.01,-196 301.01,-196"/>
<text text-anchor="middle" x="375.51" y="-203" font-family="Helvetica,sans-Serif" font-size="10.00">drake/common/constants.h</text>
</a>
</g>
</g>
<!-- Node0&#45;&gt;Node2 -->
<g id="edge2" class="edge">
<title>Node0&#45;&gt;Node2</title>
<path fill="none" stroke="midnightblue" d="M211.6,-257.48C249.39,-245.72 302.7,-229.14 338.14,-218.12"/>
<polygon fill="midnightblue" stroke="midnightblue" points="339.57,-221.34 348.08,-215.03 337.49,-214.66 339.57,-221.34"/>
</g>
<!-- Node4 -->
<g id="node5" class="node">
<title>Node4</title>
<g id="a_node5"><a xlink:href="gradient_8h.html" target="_top" xlink:title="Utilities for arithmetic on gradients.">
<polygon fill="white" stroke="black" points="14.01,-62 14.01,-81 139.01,-81 139.01,-62 14.01,-62"/>
<text text-anchor="middle" x="76.51" y="-69" font-family="Helvetica,sans-Serif" font-size="10.00">drake/math/gradient.h</text>
</a>
</g>
</g>
<!-- Node0&#45;&gt;Node4 -->
<g id="edge4" class="edge">
<title>Node0&#45;&gt;Node4</title>
<path fill="none" stroke="midnightblue" d="M136.31,-257.49C121.56,-249.04 104.99,-236.83 95.51,-221 70.97,-180.06 71.86,-121.45 74.32,-91.58"/>
<polygon fill="midnightblue" stroke="midnightblue" points="77.83,-91.61 75.33,-81.31 70.87,-90.92 77.83,-91.61"/>
</g>
<!-- Node5 -->
<g id="node6" class="node">
<title>Node5</title>
<g id="a_node6"><a xlink:href="gradient__util_8h.html" target="_top" xlink:title=" ">
<polygon fill="white" stroke="black" points="198.51,-123.5 198.51,-153.5 314.51,-153.5 314.51,-123.5 198.51,-123.5"/>
<text text-anchor="start" x="206.51" y="-141.5" font-family="Helvetica,sans-Serif" font-size="10.00">drake/math/gradient</text>
<text text-anchor="middle" x="256.51" y="-130.5" font-family="Helvetica,sans-Serif" font-size="10.00">_util.h</text>
</a>
</g>
</g>
<!-- Node0&#45;&gt;Node5 -->
<g id="edge6" class="edge">
<title>Node0&#45;&gt;Node5</title>
<path fill="none" stroke="midnightblue" d="M195.34,-257.49C210.07,-248.91 227.06,-236.58 237.51,-221 248.86,-204.07 253.47,-181.23 255.33,-164.03"/>
<polygon fill="midnightblue" stroke="midnightblue" points="258.85,-163.92 256.19,-153.66 251.87,-163.34 258.85,-163.92"/>
</g>
<!-- Node11 -->
<g id="node12" class="node">
<title>Node11</title>
<g id="a_node12"><a xlink:href="normalize__vector_8h.html" target="_top" xlink:title=" ">
<polygon fill="white" stroke="black" points="104.51,-190.5 104.51,-220.5 228.51,-220.5 228.51,-190.5 104.51,-190.5"/>
<text text-anchor="start" x="112.51" y="-208.5" font-family="Helvetica,sans-Serif" font-size="10.00">drake/math/normalize</text>
<text text-anchor="middle" x="166.51" y="-197.5" font-family="Helvetica,sans-Serif" font-size="10.00">_vector.h</text>
</a>
</g>
</g>
<!-- Node0&#45;&gt;Node11 -->
<g id="edge14" class="edge">
<title>Node0&#45;&gt;Node11</title>
<path fill="none" stroke="midnightblue" d="M166.51,-257.4C166.51,-249.64 166.51,-239.81 166.51,-230.86"/>
<polygon fill="midnightblue" stroke="midnightblue" points="170.01,-230.58 166.51,-220.58 163.01,-230.58 170.01,-230.58"/>
</g>
<!-- Node3 -->
<g id="node4" class="node">
<title>Node3</title>
<g id="a_node4"><a xlink:href="drake__deprecated_8h.html" target="_top" xlink:title="Provides a portable macro for use in generating compile&#45;time warnings for use of code that is permitt...">
<polygon fill="white" stroke="black" points="333.01,-123.5 333.01,-153.5 452.01,-153.5 452.01,-123.5 333.01,-123.5"/>
<text text-anchor="start" x="341.01" y="-141.5" font-family="Helvetica,sans-Serif" font-size="10.00">drake/common/drake</text>
<text text-anchor="middle" x="392.51" y="-130.5" font-family="Helvetica,sans-Serif" font-size="10.00">_deprecated.h</text>
</a>
</g>
</g>
<!-- Node2&#45;&gt;Node3 -->
<g id="edge3" class="edge">
<title>Node2&#45;&gt;Node3</title>
<path fill="none" stroke="midnightblue" d="M377.8,-195.73C379.96,-187.46 383.31,-174.66 386.26,-163.37"/>
<polygon fill="midnightblue" stroke="midnightblue" points="389.68,-164.15 388.82,-153.59 382.9,-162.38 389.68,-164.15"/>
</g>
<!-- Node4&#45;&gt;Node1 -->
<g id="edge5" class="edge">
<title>Node4&#45;&gt;Node1</title>
<path fill="none" stroke="midnightblue" d="M83.1,-61.98C90,-53.05 101.01,-38.81 109.64,-27.64"/>
<polygon fill="midnightblue" stroke="midnightblue" points="112.58,-29.56 115.93,-19.51 107.04,-25.28 112.58,-29.56"/>
</g>
<!-- Node5&#45;&gt;Node1 -->
<g id="edge10" class="edge">
<title>Node5&#45;&gt;Node1</title>
<path fill="none" stroke="midnightblue" d="M244.73,-123.25C230.51,-106.4 205.52,-77.89 181.51,-56 169.52,-45.07 155.05,-34.01 143.44,-25.59"/>
<polygon fill="midnightblue" stroke="midnightblue" points="145.38,-22.67 135.21,-19.71 141.32,-28.37 145.38,-22.67"/>
</g>
<!-- Node5&#45;&gt;Node4 -->
<g id="edge13" class="edge">
<title>Node5&#45;&gt;Node4</title>
<path fill="none" stroke="midnightblue" d="M217.45,-123.4C185.31,-111.79 140.24,-95.51 109.79,-84.52"/>
<polygon fill="midnightblue" stroke="midnightblue" points="110.66,-81.11 100.06,-81.01 108.28,-87.7 110.66,-81.11"/>
</g>
<!-- Node6 -->
<g id="node7" class="node">
<title>Node6</title>
<g id="a_node7"><a xlink:title=" ">
<polygon fill="white" stroke="#bfbfbf" points="371.51,-62 371.51,-81 413.51,-81 413.51,-62 371.51,-62"/>
<text text-anchor="middle" x="392.51" y="-69" font-family="Helvetica,sans-Serif" font-size="10.00">array</text>
</a>
</g>
</g>
<!-- Node5&#45;&gt;Node6 -->
<g id="edge7" class="edge">
<title>Node5&#45;&gt;Node6</title>
<path fill="none" stroke="midnightblue" d="M286.23,-123.4C307.49,-113.29 336.78,-99.35 362.51,-87 363.5,-86.52 364.51,-86.04 365.53,-85.55"/>
<polygon fill="midnightblue" stroke="midnightblue" points="367.26,-88.6 374.75,-81.1 364.22,-82.29 367.26,-88.6"/>
</g>
<!-- Node7 -->
<g id="node8" class="node">
<title>Node7</title>
<g id="a_node8"><a xlink:title=" ">
<polygon fill="white" stroke="#bfbfbf" points="432.01,-62 432.01,-81 479.01,-81 479.01,-62 432.01,-62"/>
<text text-anchor="middle" x="455.51" y="-69" font-family="Helvetica,sans-Serif" font-size="10.00">vector</text>
</a>
</g>
</g>
<!-- Node5&#45;&gt;Node7 -->
<g id="edge8" class="edge">
<title>Node5&#45;&gt;Node7</title>
<path fill="none" stroke="midnightblue" d="M308.25,-123.47C341.27,-114.1 384.79,-100.97 422.51,-87 424.16,-86.39 425.85,-85.73 427.55,-85.06"/>
<polygon fill="midnightblue" stroke="midnightblue" points="429.3,-88.12 437.16,-81.02 426.59,-81.66 429.3,-88.12"/>
</g>
<!-- Node8 -->
<g id="node9" class="node">
<title>Node8</title>
<g id="a_node9"><a xlink:title=" ">
<polygon fill="white" stroke="#bfbfbf" points="497.01,-62 497.01,-81 566.01,-81 566.01,-62 497.01,-62"/>
<text text-anchor="middle" x="531.51" y="-69" font-family="Helvetica,sans-Serif" font-size="10.00">Eigen/Core</text>
</a>
</g>
</g>
<!-- Node5&#45;&gt;Node8 -->
<g id="edge9" class="edge">
<title>Node5&#45;&gt;Node8</title>
<path fill="none" stroke="midnightblue" d="M314.6,-125.02C380.53,-110.84 480.06,-89.33 488.51,-87 491.52,-86.17 494.64,-85.24 497.75,-84.28"/>
<polygon fill="midnightblue" stroke="midnightblue" points="499.11,-87.51 507.54,-81.1 496.95,-80.85 499.11,-87.51"/>
</g>
<!-- Node9 -->
<g id="node10" class="node">
<title>Node9</title>
<g id="a_node10"><a xlink:href="drake__assert_8h.html" target="_top" xlink:title="Provides Drake&#39;s assertion implementation.">
<polygon fill="white" stroke="black" points="234.01,-56.5 234.01,-86.5 353.01,-86.5 353.01,-56.5 234.01,-56.5"/>
<text text-anchor="start" x="242.01" y="-74.5" font-family="Helvetica,sans-Serif" font-size="10.00">drake/common/drake</text>
<text text-anchor="middle" x="293.51" y="-63.5" font-family="Helvetica,sans-Serif" font-size="10.00">_assert.h</text>
</a>
</g>
</g>
<!-- Node5&#45;&gt;Node9 -->
<g id="edge11" class="edge">
<title>Node5&#45;&gt;Node9</title>
<path fill="none" stroke="midnightblue" d="M264.53,-123.4C269.19,-115.22 275.16,-104.73 280.47,-95.39"/>
<polygon fill="midnightblue" stroke="midnightblue" points="283.59,-97 285.49,-86.58 277.5,-93.54 283.59,-97"/>
</g>
<!-- Node10 -->
<g id="node11" class="node">
<title>Node10</title>
<g id="a_node11"><a xlink:title=" ">
<polygon fill="white" stroke="#bfbfbf" points="259.01,-0.5 259.01,-19.5 328.01,-19.5 328.01,-0.5 259.01,-0.5"/>
<text text-anchor="middle" x="293.51" y="-7.5" font-family="Helvetica,sans-Serif" font-size="10.00">type_traits</text>
</a>
</g>
</g>
<!-- Node9&#45;&gt;Node10 -->
<g id="edge12" class="edge">
<title>Node9&#45;&gt;Node10</title>
<path fill="none" stroke="midnightblue" d="M293.51,-56.4C293.51,-48.47 293.51,-38.46 293.51,-29.86"/>
<polygon fill="midnightblue" stroke="midnightblue" points="297.01,-29.66 293.51,-19.66 290.01,-29.66 297.01,-29.66"/>
</g>
<!-- Node11&#45;&gt;Node1 -->
<g id="edge15" class="edge">
<title>Node11&#45;&gt;Node1</title>
<path fill="none" stroke="midnightblue" d="M166.46,-190.19C165.98,-163.24 163.07,-103.41 147.51,-56 144.3,-46.23 138.93,-36.16 133.99,-28.03"/>
<polygon fill="midnightblue" stroke="midnightblue" points="136.87,-26.04 128.53,-19.51 130.98,-29.82 136.87,-26.04"/>
</g>
<!-- Node11&#45;&gt;Node4 -->
<g id="edge16" class="edge">
<title>Node11&#45;&gt;Node4</title>
<path fill="none" stroke="midnightblue" d="M156.87,-190.37C140.24,-165.97 106.17,-116 88.2,-89.65"/>
<polygon fill="midnightblue" stroke="midnightblue" points="90.89,-87.39 82.37,-81.1 85.11,-91.33 90.89,-87.39"/>
</g>
<!-- Node11&#45;&gt;Node5 -->
<g id="edge17" class="edge">
<title>Node11&#45;&gt;Node5</title>
<path fill="none" stroke="midnightblue" d="M186.03,-190.4C198.54,-181.37 214.95,-169.51 228.79,-159.52"/>
<polygon fill="midnightblue" stroke="midnightblue" points="230.96,-162.27 237.02,-153.58 226.86,-156.59 230.96,-162.27"/>
</g>
</g>
</svg>
