<?xml version="1.0" encoding="UTF-8" standalone="no"?>
<!DOCTYPE svg PUBLIC "-//W3C//DTD SVG 1.1//EN"
 "http://www.w3.org/Graphics/SVG/1.1/DTD/svg11.dtd">
<!-- Generated by graphviz version 2.43.0 (0)
 -->
<!-- Title: drake/multibody/contact_solvers/sap/sap_holonomic_constraint.h Pages: 1 -->
<svg width="769pt" height="340pt"
 viewBox="0.00 0.00 769.00 340.00" xmlns="http://www.w3.org/2000/svg" xmlns:xlink="http://www.w3.org/1999/xlink">
<g id="graph0" class="graph" transform="scale(1 1) rotate(0) translate(4 336)">
<title>drake/multibody/contact_solvers/sap/sap_holonomic_constraint.h</title>
<polygon fill="white" stroke="transparent" points="-4,4 -4,-336 765,-336 765,4 -4,4"/>
<!-- Node86 -->
<g id="node1" class="node">
<title>Node86</title>
<g id="a_node1"><a xlink:title=" ">
<polygon fill="#bfbfbf" stroke="black" points="305.5,-290.5 305.5,-331.5 459.5,-331.5 459.5,-290.5 305.5,-290.5"/>
<text text-anchor="start" x="313.5" y="-319.5" font-family="Helvetica,sans-Serif" font-size="10.00">drake/multibody/contact</text>
<text text-anchor="start" x="313.5" y="-308.5" font-family="Helvetica,sans-Serif" font-size="10.00">_solvers/sap/sap_holonomic</text>
<text text-anchor="middle" x="382.5" y="-297.5" font-family="Helvetica,sans-Serif" font-size="10.00">_constraint.h</text>
</a>
</g>
</g>
<!-- Node87 -->
<g id="node2" class="node">
<title>Node87</title>
<g id="a_node2"><a xlink:href="sap__ball__constraint_8h.html" target="_top" xlink:title=" ">
<polygon fill="white" stroke="black" points="0,-212.5 0,-253.5 135,-253.5 135,-212.5 0,-212.5"/>
<text text-anchor="start" x="8" y="-241.5" font-family="Helvetica,sans-Serif" font-size="10.00">drake/multibody/contact</text>
<text text-anchor="start" x="8" y="-230.5" font-family="Helvetica,sans-Serif" font-size="10.00">_solvers/sap/sap_ball</text>
<text text-anchor="middle" x="67.5" y="-219.5" font-family="Helvetica,sans-Serif" font-size="10.00">_constraint.h</text>
</a>
</g>
</g>
<!-- Node86&#45;&gt;Node87 -->
<g id="edge1" class="edge">
<title>Node86&#45;&gt;Node87</title>
<path fill="none" stroke="midnightblue" d="M295.73,-290.09C250.57,-279.6 194.5,-266.37 144.5,-254 141.42,-253.24 138.27,-252.45 135.08,-251.65"/>
<polygon fill="midnightblue" stroke="midnightblue" points="294.95,-293.5 305.49,-292.35 296.54,-286.68 294.95,-293.5"/>
</g>
<!-- Node88 -->
<g id="node3" class="node">
<title>Node88</title>
<g id="a_node3"><a xlink:href="sap__coupler__constraint_8h.html" target="_top" xlink:title=" ">
<polygon fill="white" stroke="black" points="153,-212.5 153,-253.5 292,-253.5 292,-212.5 153,-212.5"/>
<text text-anchor="start" x="161" y="-241.5" font-family="Helvetica,sans-Serif" font-size="10.00">drake/multibody/contact</text>
<text text-anchor="start" x="161" y="-230.5" font-family="Helvetica,sans-Serif" font-size="10.00">_solvers/sap/sap_coupler</text>
<text text-anchor="middle" x="222.5" y="-219.5" font-family="Helvetica,sans-Serif" font-size="10.00">_constraint.h</text>
</a>
</g>
</g>
<!-- Node86&#45;&gt;Node88 -->
<g id="edge2" class="edge">
<title>Node86&#45;&gt;Node88</title>
<path fill="none" stroke="midnightblue" d="M332.08,-286.05C310.01,-275.57 284.45,-263.42 263.56,-253.51"/>
<polygon fill="midnightblue" stroke="midnightblue" points="330.76,-289.3 341.3,-290.43 333.76,-282.98 330.76,-289.3"/>
</g>
<!-- Node89 -->
<g id="node4" class="node">
<title>Node89</title>
<g id="a_node4"><a xlink:href="sap__distance__constraint_8h.html" target="_top" xlink:title=" ">
<polygon fill="white" stroke="black" points="310.5,-212.5 310.5,-253.5 454.5,-253.5 454.5,-212.5 310.5,-212.5"/>
<text text-anchor="start" x="318.5" y="-241.5" font-family="Helvetica,sans-Serif" font-size="10.00">drake/multibody/contact</text>
<text text-anchor="start" x="318.5" y="-230.5" font-family="Helvetica,sans-Serif" font-size="10.00">_solvers/sap/sap_distance</text>
<text text-anchor="middle" x="382.5" y="-219.5" font-family="Helvetica,sans-Serif" font-size="10.00">_constraint.h</text>
</a>
</g>
</g>
<!-- Node86&#45;&gt;Node89 -->
<g id="edge3" class="edge">
<title>Node86&#45;&gt;Node89</title>
<path fill="none" stroke="midnightblue" d="M382.5,-280.3C382.5,-271.3 382.5,-261.65 382.5,-253.51"/>
<polygon fill="midnightblue" stroke="midnightblue" points="379,-280.43 382.5,-290.43 386,-280.43 379,-280.43"/>
</g>
<!-- Node90 -->
<g id="node5" class="node">
<title>Node90</title>
<g id="a_node5"><a xlink:href="sap__fixed__constraint_8h.html" target="_top" xlink:title=" ">
<polygon fill="white" stroke="black" points="473,-212.5 473,-253.5 608,-253.5 608,-212.5 473,-212.5"/>
<text text-anchor="start" x="481" y="-241.5" font-family="Helvetica,sans-Serif" font-size="10.00">drake/multibody/contact</text>
<text text-anchor="start" x="481" y="-230.5" font-family="Helvetica,sans-Serif" font-size="10.00">_solvers/sap/sap_fixed</text>
<text text-anchor="middle" x="540.5" y="-219.5" font-family="Helvetica,sans-Serif" font-size="10.00">_constraint.h</text>
</a>
</g>
</g>
<!-- Node86&#45;&gt;Node90 -->
<g id="edge4" class="edge">
<title>Node86&#45;&gt;Node90</title>
<path fill="none" stroke="midnightblue" d="M432.29,-286.05C454.09,-275.57 479.33,-263.42 499.95,-253.51"/>
<polygon fill="midnightblue" stroke="midnightblue" points="430.68,-282.94 423.19,-290.43 433.72,-289.25 430.68,-282.94"/>
</g>
<!-- Node94 -->
<g id="node9" class="node">
<title>Node94</title>
<g id="a_node9"><a xlink:href="sap__weld__constraint_8h.html" target="_top" xlink:title=" ">
<polygon fill="white" stroke="black" points="626,-212.5 626,-253.5 761,-253.5 761,-212.5 626,-212.5"/>
<text text-anchor="start" x="634" y="-241.5" font-family="Helvetica,sans-Serif" font-size="10.00">drake/multibody/contact</text>
<text text-anchor="start" x="634" y="-230.5" font-family="Helvetica,sans-Serif" font-size="10.00">_solvers/sap/sap_weld</text>
<text text-anchor="middle" x="693.5" y="-219.5" font-family="Helvetica,sans-Serif" font-size="10.00">_constraint.h</text>
</a>
</g>
</g>
<!-- Node86&#45;&gt;Node94 -->
<g id="edge8" class="edge">
<title>Node86&#45;&gt;Node94</title>
<path fill="none" stroke="midnightblue" d="M469.49,-289.78C513.85,-279.34 568.62,-266.25 617.5,-254 620.28,-253.3 623.11,-252.59 625.98,-251.86"/>
<polygon fill="midnightblue" stroke="midnightblue" points="468.54,-286.41 459.61,-292.1 470.14,-293.22 468.54,-286.41"/>
</g>
<!-- Node91 -->
<g id="node6" class="node">
<title>Node91</title>
<g id="a_node6"><a xlink:href="deformable__driver_8h.html" target="_top" xlink:title=" ">
<polygon fill="white" stroke="black" points="478.5,-145.5 478.5,-175.5 602.5,-175.5 602.5,-145.5 478.5,-145.5"/>
<text text-anchor="start" x="486.5" y="-163.5" font-family="Helvetica,sans-Serif" font-size="10.00">drake/multibody/plant</text>
<text text-anchor="middle" x="540.5" y="-152.5" font-family="Helvetica,sans-Serif" font-size="10.00">/deformable_driver.h</text>
</a>
</g>
</g>
<!-- Node90&#45;&gt;Node91 -->
<g id="edge5" class="edge">
<title>Node90&#45;&gt;Node91</title>
<path fill="none" stroke="midnightblue" d="M540.5,-202.08C540.5,-193.01 540.5,-183.45 540.5,-175.89"/>
<polygon fill="midnightblue" stroke="midnightblue" points="537,-202.36 540.5,-212.36 544,-202.36 537,-202.36"/>
</g>
<!-- Node92 -->
<g id="node7" class="node">
<title>Node92</title>
<g id="a_node7"><a xlink:href="compliant__contact__manager_8h.html" target="_top" xlink:title=" ">
<polygon fill="white" stroke="black" points="457,-78.5 457,-108.5 624,-108.5 624,-78.5 457,-78.5"/>
<text text-anchor="start" x="465" y="-96.5" font-family="Helvetica,sans-Serif" font-size="10.00">drake/multibody/plant</text>
<text text-anchor="middle" x="540.5" y="-85.5" font-family="Helvetica,sans-Serif" font-size="10.00">/compliant_contact_manager.h</text>
</a>
</g>
</g>
<!-- Node91&#45;&gt;Node92 -->
<g id="edge6" class="edge">
<title>Node91&#45;&gt;Node92</title>
<path fill="none" stroke="midnightblue" d="M540.5,-135.11C540.5,-126.15 540.5,-116.32 540.5,-108.58"/>
<polygon fill="midnightblue" stroke="midnightblue" points="537,-135.4 540.5,-145.4 544,-135.4 537,-135.4"/>
</g>
<!-- Node93 -->
<g id="node8" class="node">
<title>Node93</title>
<g id="a_node8"><a xlink:href="rigid__body__on__compliant__ground_8h.html" target="_top" xlink:title=" ">
<polygon fill="white" stroke="black" points="458,-0.5 458,-41.5 623,-41.5 623,-0.5 458,-0.5"/>
<text text-anchor="start" x="466" y="-29.5" font-family="Helvetica,sans-Serif" font-size="10.00">drake/multibody/plant</text>
<text text-anchor="start" x="466" y="-18.5" font-family="Helvetica,sans-Serif" font-size="10.00">/test_utilities/rigid</text>
<text text-anchor="middle" x="540.5" y="-7.5" font-family="Helvetica,sans-Serif" font-size="10.00">_body_on_compliant_ground.h</text>
</a>
</g>
</g>
<!-- Node92&#45;&gt;Node93 -->
<g id="edge7" class="edge">
<title>Node92&#45;&gt;Node93</title>
<path fill="none" stroke="midnightblue" d="M540.5,-67.98C540.5,-59.35 540.5,-49.76 540.5,-41.59"/>
<polygon fill="midnightblue" stroke="midnightblue" points="537,-68.23 540.5,-78.23 544,-68.23 537,-68.23"/>
</g>
</g>
</svg>
