<?xml version="1.0" encoding="UTF-8" standalone="no"?>
<!DOCTYPE svg PUBLIC "-//W3C//DTD SVG 1.1//EN"
 "http://www.w3.org/Graphics/SVG/1.1/DTD/svg11.dtd">
<!-- Generated by graphviz version 2.43.0 (0)
 -->
<!-- Title: drake/multibody/contact_solvers/sap/sap_constraint.h Pages: 1 -->
<svg width="737pt" height="396pt"
 viewBox="0.00 0.00 736.50 396.00" xmlns="http://www.w3.org/2000/svg" xmlns:xlink="http://www.w3.org/1999/xlink">
<g id="graph0" class="graph" transform="scale(1 1) rotate(0) translate(4 392)">
<title>drake/multibody/contact_solvers/sap/sap_constraint.h</title>
<polygon fill="white" stroke="transparent" points="-4,4 -4,-392 732.5,-392 732.5,4 -4,4"/>
<!-- Node9 -->
<g id="node1" class="node">
<title>Node9</title>
<g id="a_node1"><a xlink:title=" ">
<polygon fill="#bfbfbf" stroke="black" points="253.5,-357.5 253.5,-387.5 414.5,-387.5 414.5,-357.5 253.5,-357.5"/>
<text text-anchor="start" x="261.5" y="-375.5" font-family="Helvetica,sans-Serif" font-size="10.00">drake/multibody/contact</text>
<text text-anchor="middle" x="334" y="-364.5" font-family="Helvetica,sans-Serif" font-size="10.00">_solvers/sap/sap_constraint.h</text>
</a>
</g>
</g>
<!-- Node10 -->
<g id="node2" class="node">
<title>Node10</title>
<g id="a_node2"><a xlink:href="sap__constraint__bundle_8h.html" target="_top" xlink:title=" ">
<polygon fill="white" stroke="black" points="0,-201.5 0,-242.5 152,-242.5 152,-201.5 0,-201.5"/>
<text text-anchor="start" x="8" y="-230.5" font-family="Helvetica,sans-Serif" font-size="10.00">drake/multibody/contact</text>
<text text-anchor="start" x="8" y="-219.5" font-family="Helvetica,sans-Serif" font-size="10.00">_solvers/sap/sap_constraint</text>
<text text-anchor="middle" x="76" y="-208.5" font-family="Helvetica,sans-Serif" font-size="10.00">_bundle.h</text>
</a>
</g>
</g>
<!-- Node9&#45;&gt;Node10 -->
<g id="edge1" class="edge">
<title>Node9&#45;&gt;Node10</title>
<path fill="none" stroke="midnightblue" d="M243.3,-362.05C186.2,-354.26 119.55,-341.16 99,-321 78.17,-300.56 74.73,-265.08 74.85,-242.89"/>
<polygon fill="midnightblue" stroke="midnightblue" points="243.1,-365.56 253.47,-363.4 244.01,-358.62 243.1,-365.56"/>
</g>
<!-- Node14 -->
<g id="node6" class="node">
<title>Node14</title>
<g id="a_node6"><a xlink:href="sap__contact__problem_8h.html" target="_top" xlink:title=" ">
<polygon fill="white" stroke="black" points="108.5,-279.5 108.5,-320.5 247.5,-320.5 247.5,-279.5 108.5,-279.5"/>
<text text-anchor="start" x="116.5" y="-308.5" font-family="Helvetica,sans-Serif" font-size="10.00">drake/multibody/contact</text>
<text text-anchor="start" x="116.5" y="-297.5" font-family="Helvetica,sans-Serif" font-size="10.00">_solvers/sap/sap_contact</text>
<text text-anchor="middle" x="178" y="-286.5" font-family="Helvetica,sans-Serif" font-size="10.00">_problem.h</text>
</a>
</g>
</g>
<!-- Node9&#45;&gt;Node14 -->
<g id="edge5" class="edge">
<title>Node9&#45;&gt;Node14</title>
<path fill="none" stroke="midnightblue" d="M293.65,-353.26C271.45,-343.23 243.89,-330.78 221.25,-320.55"/>
<polygon fill="midnightblue" stroke="midnightblue" points="292.25,-356.47 302.81,-357.4 295.13,-350.1 292.25,-356.47"/>
</g>
<!-- Node15 -->
<g id="node7" class="node">
<title>Node15</title>
<g id="a_node7"><a xlink:href="sap__friction__cone__constraint_8h.html" target="_top" xlink:title=" ">
<polygon fill="white" stroke="black" points="265.5,-279.5 265.5,-320.5 402.5,-320.5 402.5,-279.5 265.5,-279.5"/>
<text text-anchor="start" x="273.5" y="-308.5" font-family="Helvetica,sans-Serif" font-size="10.00">drake/multibody/contact</text>
<text text-anchor="start" x="273.5" y="-297.5" font-family="Helvetica,sans-Serif" font-size="10.00">_solvers/sap/sap_friction</text>
<text text-anchor="middle" x="334" y="-286.5" font-family="Helvetica,sans-Serif" font-size="10.00">_cone_constraint.h</text>
</a>
</g>
</g>
<!-- Node9&#45;&gt;Node15 -->
<g id="edge9" class="edge">
<title>Node9&#45;&gt;Node15</title>
<path fill="none" stroke="midnightblue" d="M334,-346.98C334,-338.35 334,-328.76 334,-320.59"/>
<polygon fill="midnightblue" stroke="midnightblue" points="330.5,-347.23 334,-357.23 337.5,-347.23 330.5,-347.23"/>
</g>
<!-- Node16 -->
<g id="node8" class="node">
<title>Node16</title>
<g id="a_node8"><a xlink:href="sap__holonomic__constraint_8h.html" target="_top" xlink:title=" ">
<polygon fill="white" stroke="black" points="421,-279.5 421,-320.5 575,-320.5 575,-279.5 421,-279.5"/>
<text text-anchor="start" x="429" y="-308.5" font-family="Helvetica,sans-Serif" font-size="10.00">drake/multibody/contact</text>
<text text-anchor="start" x="429" y="-297.5" font-family="Helvetica,sans-Serif" font-size="10.00">_solvers/sap/sap_holonomic</text>
<text text-anchor="middle" x="498" y="-286.5" font-family="Helvetica,sans-Serif" font-size="10.00">_constraint.h</text>
</a>
</g>
</g>
<!-- Node9&#45;&gt;Node16 -->
<g id="edge10" class="edge">
<title>Node9&#45;&gt;Node16</title>
<path fill="none" stroke="midnightblue" d="M376.11,-353.4C399.5,-343.34 428.62,-330.83 452.53,-320.55"/>
<polygon fill="midnightblue" stroke="midnightblue" points="374.6,-350.24 366.79,-357.4 377.36,-356.67 374.6,-350.24"/>
</g>
<!-- Node17 -->
<g id="node9" class="node">
<title>Node17</title>
<g id="a_node9"><a xlink:href="sap__limit__constraint_8h.html" target="_top" xlink:title=" ">
<polygon fill="white" stroke="black" points="593.5,-279.5 593.5,-320.5 728.5,-320.5 728.5,-279.5 593.5,-279.5"/>
<text text-anchor="start" x="601.5" y="-308.5" font-family="Helvetica,sans-Serif" font-size="10.00">drake/multibody/contact</text>
<text text-anchor="start" x="601.5" y="-297.5" font-family="Helvetica,sans-Serif" font-size="10.00">_solvers/sap/sap_limit</text>
<text text-anchor="middle" x="661" y="-286.5" font-family="Helvetica,sans-Serif" font-size="10.00">_constraint.h</text>
</a>
</g>
</g>
<!-- Node9&#45;&gt;Node17 -->
<g id="edge11" class="edge">
<title>Node9&#45;&gt;Node17</title>
<path fill="none" stroke="midnightblue" d="M418.72,-355.58C467.25,-346.17 529.2,-333.64 584,-321 587.1,-320.29 590.26,-319.54 593.45,-318.77"/>
<polygon fill="midnightblue" stroke="midnightblue" points="418.05,-352.15 408.89,-357.48 419.37,-359.02 418.05,-352.15"/>
</g>
<!-- Node11 -->
<g id="node3" class="node">
<title>Node11</title>
<g id="a_node3"><a xlink:href="sap__model_8h.html" target="_top" xlink:title=" ">
<polygon fill="white" stroke="black" points="46.5,-134.5 46.5,-164.5 189.5,-164.5 189.5,-134.5 46.5,-134.5"/>
<text text-anchor="start" x="54.5" y="-152.5" font-family="Helvetica,sans-Serif" font-size="10.00">drake/multibody/contact</text>
<text text-anchor="middle" x="118" y="-141.5" font-family="Helvetica,sans-Serif" font-size="10.00">_solvers/sap/sap_model.h</text>
</a>
</g>
</g>
<!-- Node10&#45;&gt;Node11 -->
<g id="edge2" class="edge">
<title>Node10&#45;&gt;Node11</title>
<path fill="none" stroke="midnightblue" d="M92.95,-192.55C98.61,-183.05 104.68,-172.86 109.43,-164.89"/>
<polygon fill="midnightblue" stroke="midnightblue" points="89.81,-190.98 87.7,-201.36 95.82,-194.56 89.81,-190.98"/>
</g>
<!-- Node12 -->
<g id="node4" class="node">
<title>Node12</title>
<g id="a_node4"><a xlink:href="sap__solver_8h.html" target="_top" xlink:title=" ">
<polygon fill="white" stroke="black" points="48,-67.5 48,-97.5 190,-97.5 190,-67.5 48,-67.5"/>
<text text-anchor="start" x="56" y="-85.5" font-family="Helvetica,sans-Serif" font-size="10.00">drake/multibody/contact</text>
<text text-anchor="middle" x="119" y="-74.5" font-family="Helvetica,sans-Serif" font-size="10.00">_solvers/sap/sap_solver.h</text>
</a>
</g>
</g>
<!-- Node11&#45;&gt;Node12 -->
<g id="edge3" class="edge">
<title>Node11&#45;&gt;Node12</title>
<path fill="none" stroke="midnightblue" d="M118.38,-124.11C118.51,-115.15 118.66,-105.32 118.78,-97.58"/>
<polygon fill="midnightblue" stroke="midnightblue" points="114.87,-124.34 118.22,-134.4 121.87,-124.45 114.87,-124.34"/>
</g>
<!-- Node13 -->
<g id="node5" class="node">
<title>Node13</title>
<g id="a_node5"><a xlink:href="sap__driver_8h.html" target="_top" xlink:title=" ">
<polygon fill="white" stroke="black" points="106,-0.5 106,-30.5 230,-30.5 230,-0.5 106,-0.5"/>
<text text-anchor="start" x="114" y="-18.5" font-family="Helvetica,sans-Serif" font-size="10.00">drake/multibody/plant</text>
<text text-anchor="middle" x="168" y="-7.5" font-family="Helvetica,sans-Serif" font-size="10.00">/sap_driver.h</text>
</a>
</g>
</g>
<!-- Node12&#45;&gt;Node13 -->
<g id="edge4" class="edge">
<title>Node12&#45;&gt;Node13</title>
<path fill="none" stroke="midnightblue" d="M135.84,-59.16C142.99,-49.68 151.1,-38.92 157.39,-30.58"/>
<polygon fill="midnightblue" stroke="midnightblue" points="132.86,-57.3 129.63,-67.4 138.45,-61.52 132.86,-57.3"/>
</g>
<!-- Node14&#45;&gt;Node10 -->
<g id="edge6" class="edge">
<title>Node14&#45;&gt;Node10</title>
<path fill="none" stroke="midnightblue" d="M143.58,-273.35C130.05,-263.27 114.78,-251.89 102.18,-242.51"/>
<polygon fill="midnightblue" stroke="midnightblue" points="141.62,-276.26 151.73,-279.43 145.8,-270.65 141.62,-276.26"/>
</g>
<!-- Node14&#45;&gt;Node11 -->
<g id="edge7" class="edge">
<title>Node14&#45;&gt;Node11</title>
<path fill="none" stroke="midnightblue" d="M176.92,-269.18C175.23,-249.1 171.07,-222.47 161,-201 154.55,-187.24 143.31,-174.24 133.95,-164.88"/>
<polygon fill="midnightblue" stroke="midnightblue" points="173.44,-269.57 177.61,-279.31 180.42,-269.09 173.44,-269.57"/>
</g>
<!-- Node14&#45;&gt;Node13 -->
<g id="edge8" class="edge">
<title>Node14&#45;&gt;Node13</title>
<path fill="none" stroke="midnightblue" d="M187.3,-269.69C199.99,-225.05 218.99,-137.77 199,-67 195.2,-53.54 186.69,-40.12 179.54,-30.51"/>
<polygon fill="midnightblue" stroke="midnightblue" points="183.93,-268.73 184.47,-279.31 190.65,-270.7 183.93,-268.73"/>
</g>
</g>
</svg>
