<?xml version="1.0" encoding="UTF-8" standalone="no"?>
<!DOCTYPE svg PUBLIC "-//W3C//DTD SVG 1.1//EN"
 "http://www.w3.org/Graphics/SVG/1.1/DTD/svg11.dtd">
<!-- Generated by graphviz version 2.43.0 (0)
 -->
<!-- Title: drake/multibody/contact_solvers/sap/sap_solver_results.h Pages: 1 -->
<svg width="308pt" height="407pt"
 viewBox="0.00 0.00 308.05 407.00" xmlns="http://www.w3.org/2000/svg" xmlns:xlink="http://www.w3.org/1999/xlink">
<g id="graph0" class="graph" transform="scale(1 1) rotate(0) translate(4 403)">
<title>drake/multibody/contact_solvers/sap/sap_solver_results.h</title>
<polygon fill="white" stroke="transparent" points="-4,4 -4,-403 304.05,-403 304.05,4 -4,4"/>
<!-- Node64 -->
<g id="node1" class="node">
<title>Node64</title>
<g id="a_node1"><a xlink:title=" ">
<polygon fill="#bfbfbf" stroke="black" points="165.05,-357.5 165.05,-398.5 300.05,-398.5 300.05,-357.5 165.05,-357.5"/>
<text text-anchor="start" x="173.05" y="-386.5" font-family="Helvetica,sans-Serif" font-size="10.00">drake/multibody/contact</text>
<text text-anchor="start" x="173.05" y="-375.5" font-family="Helvetica,sans-Serif" font-size="10.00">_solvers/sap/sap_solver</text>
<text text-anchor="middle" x="232.55" y="-364.5" font-family="Helvetica,sans-Serif" font-size="10.00">_results.h</text>
</a>
</g>
</g>
<!-- Node65 -->
<g id="node2" class="node">
<title>Node65</title>
<g id="a_node2"><a xlink:href="sap__contact__problem_8h.html" target="_top" xlink:title=" ">
<polygon fill="white" stroke="black" points="43.05,-279.5 43.05,-320.5 182.05,-320.5 182.05,-279.5 43.05,-279.5"/>
<text text-anchor="start" x="51.05" y="-308.5" font-family="Helvetica,sans-Serif" font-size="10.00">drake/multibody/contact</text>
<text text-anchor="start" x="51.05" y="-297.5" font-family="Helvetica,sans-Serif" font-size="10.00">_solvers/sap/sap_contact</text>
<text text-anchor="middle" x="112.55" y="-286.5" font-family="Helvetica,sans-Serif" font-size="10.00">_problem.h</text>
</a>
</g>
</g>
<!-- Node64&#45;&gt;Node65 -->
<g id="edge1" class="edge">
<title>Node64&#45;&gt;Node65</title>
<path fill="none" stroke="midnightblue" d="M192.95,-351.92C176.82,-341.7 158.45,-330.07 143.35,-320.51"/>
<polygon fill="midnightblue" stroke="midnightblue" points="191.33,-355.03 201.65,-357.43 195.07,-349.12 191.33,-355.03"/>
</g>
<!-- Node68 -->
<g id="node5" class="node">
<title>Node68</title>
<g id="a_node5"><a xlink:href="sap__solver_8h.html" target="_top" xlink:title=" ">
<polygon fill="white" stroke="black" points="81.05,-67.5 81.05,-97.5 222.05,-97.5 222.05,-67.5 81.05,-67.5"/>
<text text-anchor="start" x="89.05" y="-85.5" font-family="Helvetica,sans-Serif" font-size="10.00">drake/multibody/contact</text>
<text text-anchor="middle" x="151.55" y="-74.5" font-family="Helvetica,sans-Serif" font-size="10.00">_solvers/sap/sap_solver.h</text>
</a>
</g>
</g>
<!-- Node64&#45;&gt;Node68 -->
<g id="edge8" class="edge">
<title>Node64&#45;&gt;Node68</title>
<path fill="none" stroke="midnightblue" d="M237.36,-347.3C243.63,-299.37 249.89,-203.35 213.55,-134 205.5,-118.63 190.53,-106.23 177.31,-97.56"/>
<polygon fill="midnightblue" stroke="midnightblue" points="233.88,-346.93 235.96,-357.32 240.81,-347.9 233.88,-346.93"/>
</g>
<!-- Node69 -->
<g id="node6" class="node">
<title>Node69</title>
<g id="a_node6"><a xlink:href="sap__driver_8h.html" target="_top" xlink:title=" ">
<polygon fill="white" stroke="black" points="89.55,-0.5 89.55,-30.5 213.55,-30.5 213.55,-0.5 89.55,-0.5"/>
<text text-anchor="start" x="97.55" y="-18.5" font-family="Helvetica,sans-Serif" font-size="10.00">drake/multibody/plant</text>
<text text-anchor="middle" x="151.55" y="-7.5" font-family="Helvetica,sans-Serif" font-size="10.00">/sap_driver.h</text>
</a>
</g>
</g>
<!-- Node64&#45;&gt;Node69 -->
<g id="edge9" class="edge">
<title>Node64&#45;&gt;Node69</title>
<path fill="none" stroke="midnightblue" d="M245.35,-347.87C248.73,-339.34 252.11,-329.9 254.55,-321 266.24,-278.44 270.55,-267.13 270.55,-223 270.55,-223 270.55,-223 270.55,-148.5 270.55,-108.34 258.24,-97 231.55,-67 217.91,-51.66 198.51,-39.26 182.24,-30.59"/>
<polygon fill="midnightblue" stroke="midnightblue" points="242,-346.81 241.44,-357.39 248.48,-349.47 242,-346.81"/>
</g>
<!-- Node66 -->
<g id="node3" class="node">
<title>Node66</title>
<g id="a_node3"><a xlink:href="sap__constraint__bundle_8h.html" target="_top" xlink:title=" ">
<polygon fill="white" stroke="black" points="14.55,-201.5 14.55,-242.5 166.55,-242.5 166.55,-201.5 14.55,-201.5"/>
<text text-anchor="start" x="22.55" y="-230.5" font-family="Helvetica,sans-Serif" font-size="10.00">drake/multibody/contact</text>
<text text-anchor="start" x="22.55" y="-219.5" font-family="Helvetica,sans-Serif" font-size="10.00">_solvers/sap/sap_constraint</text>
<text text-anchor="middle" x="90.55" y="-208.5" font-family="Helvetica,sans-Serif" font-size="10.00">_bundle.h</text>
</a>
</g>
</g>
<!-- Node65&#45;&gt;Node66 -->
<g id="edge2" class="edge">
<title>Node65&#45;&gt;Node66</title>
<path fill="none" stroke="midnightblue" d="M104.04,-269.59C101.41,-260.51 98.58,-250.74 96.2,-242.51"/>
<polygon fill="midnightblue" stroke="midnightblue" points="100.74,-270.8 106.89,-279.43 107.47,-268.85 100.74,-270.8"/>
</g>
<!-- Node67 -->
<g id="node4" class="node">
<title>Node67</title>
<g id="a_node4"><a xlink:href="sap__model_8h.html" target="_top" xlink:title=" ">
<polygon fill="white" stroke="black" points="61.05,-134.5 61.05,-164.5 204.05,-164.5 204.05,-134.5 61.05,-134.5"/>
<text text-anchor="start" x="69.05" y="-152.5" font-family="Helvetica,sans-Serif" font-size="10.00">drake/multibody/contact</text>
<text text-anchor="middle" x="132.55" y="-141.5" font-family="Helvetica,sans-Serif" font-size="10.00">_solvers/sap/sap_model.h</text>
</a>
</g>
</g>
<!-- Node65&#45;&gt;Node67 -->
<g id="edge6" class="edge">
<title>Node65&#45;&gt;Node67</title>
<path fill="none" stroke="midnightblue" d="M152.2,-272.88C161.61,-264.55 170.4,-254.47 175.55,-243 183.2,-225.97 182,-218.52 175.55,-201 170.3,-186.74 159.03,-173.76 149.35,-164.53"/>
<polygon fill="midnightblue" stroke="midnightblue" points="149.71,-270.4 144.22,-279.46 154.16,-275.8 149.71,-270.4"/>
</g>
<!-- Node65&#45;&gt;Node69 -->
<g id="edge7" class="edge">
<title>Node65&#45;&gt;Node69</title>
<path fill="none" stroke="midnightblue" d="M39.52,-274.53C26,-266.62 13.61,-256.32 5.55,-243 -4.11,-227.03 1.32,-219.18 5.55,-201 20.61,-136.34 27.15,-116.35 71.55,-67 85.28,-51.74 104.68,-39.34 120.93,-30.65"/>
<polygon fill="midnightblue" stroke="midnightblue" points="38.07,-277.73 48.53,-279.4 41.4,-271.57 38.07,-277.73"/>
</g>
<!-- Node66&#45;&gt;Node67 -->
<g id="edge3" class="edge">
<title>Node66&#45;&gt;Node67</title>
<path fill="none" stroke="midnightblue" d="M107.5,-192.55C113.16,-183.05 119.23,-172.86 123.98,-164.89"/>
<polygon fill="midnightblue" stroke="midnightblue" points="104.36,-190.98 102.25,-201.36 110.38,-194.56 104.36,-190.98"/>
</g>
<!-- Node67&#45;&gt;Node68 -->
<g id="edge4" class="edge">
<title>Node67&#45;&gt;Node68</title>
<path fill="none" stroke="midnightblue" d="M139.51,-124.7C142.17,-115.59 145.12,-105.49 147.44,-97.58"/>
<polygon fill="midnightblue" stroke="midnightblue" points="136.12,-123.82 136.67,-134.4 142.84,-125.78 136.12,-123.82"/>
</g>
<!-- Node68&#45;&gt;Node69 -->
<g id="edge5" class="edge">
<title>Node68&#45;&gt;Node69</title>
<path fill="none" stroke="midnightblue" d="M151.55,-57.11C151.55,-48.15 151.55,-38.32 151.55,-30.58"/>
<polygon fill="midnightblue" stroke="midnightblue" points="148.05,-57.4 151.55,-67.4 155.05,-57.4 148.05,-57.4"/>
</g>
</g>
</svg>
