<?xml version="1.0" encoding="UTF-8" standalone="no"?>
<!DOCTYPE svg PUBLIC "-//W3C//DTD SVG 1.1//EN"
 "http://www.w3.org/Graphics/SVG/1.1/DTD/svg11.dtd">
<!-- Generated by graphviz version 2.40.1 (20161225.0304)
 -->
<!-- Title: drake/systems/lcm/serializer.h Pages: 1 -->
<svg width="813pt" height="240pt"
 viewBox="0.00 0.00 812.50 240.00" xmlns="http://www.w3.org/2000/svg" xmlns:xlink="http://www.w3.org/1999/xlink">
<g id="graph0" class="graph" transform="scale(1 1) rotate(0) translate(4 236)">
<title>drake/systems/lcm/serializer.h</title>
<polygon fill="#ffffff" stroke="transparent" points="-4,4 -4,-236 808.5,-236 808.5,4 -4,4"/>
<!-- Node26 -->
<g id="node1" class="node">
<title>Node26</title>
<g id="a_node1"><a xlink:title=" ">
<polygon fill="#bfbfbf" stroke="#000000" points="162.5,-212.5 162.5,-231.5 329.5,-231.5 329.5,-212.5 162.5,-212.5"/>
<text text-anchor="middle" x="246" y="-219.5" font-family="Helvetica,sans-Serif" font-size="10.00" fill="#000000">drake/systems/lcm/serializer.h</text>
</a>
</g>
</g>
<!-- Node27 -->
<g id="node2" class="node">
<title>Node27</title>
<g id="a_node2"><a xlink:href="lcm__pybind_8h.html" target="_top" xlink:title="Helpers for defining C++ LCM type serializers.">
<polygon fill="#ffffff" stroke="#000000" points="31.5,-145.5 31.5,-175.5 162.5,-175.5 162.5,-145.5 31.5,-145.5"/>
<text text-anchor="start" x="39.5" y="-163.5" font-family="Helvetica,sans-Serif" font-size="10.00" fill="#000000">drake/bindings/pydrake</text>
<text text-anchor="middle" x="97" y="-152.5" font-family="Helvetica,sans-Serif" font-size="10.00" fill="#000000">/systems/lcm_pybind.h</text>
</a>
</g>
</g>
<!-- Node26&#45;&gt;Node27 -->
<g id="edge1" class="edge">
<title>Node26&#45;&gt;Node27</title>
<path fill="none" stroke="#191970" d="M213.163,-208.4465C189.588,-198.7159 157.8092,-185.5991 133.4495,-175.5446"/>
<polygon fill="#191970" stroke="#191970" points="212.1398,-211.8105 222.7188,-212.3906 214.8106,-205.34 212.1398,-211.8105"/>
</g>
<!-- Node28 -->
<g id="node3" class="node">
<title>Node28</title>
<g id="a_node3"><a xlink:href="lcm__subscriber__system_8h.html" target="_top" xlink:title=" ">
<polygon fill="#ffffff" stroke="#000000" points="180.5,-145.5 180.5,-175.5 311.5,-175.5 311.5,-145.5 180.5,-145.5"/>
<text text-anchor="start" x="188.5" y="-163.5" font-family="Helvetica,sans-Serif" font-size="10.00" fill="#000000">drake/systems/lcm/lcm</text>
<text text-anchor="middle" x="246" y="-152.5" font-family="Helvetica,sans-Serif" font-size="10.00" fill="#000000">_subscriber_system.h</text>
</a>
</g>
</g>
<!-- Node26&#45;&gt;Node28 -->
<g id="edge2" class="edge">
<title>Node26&#45;&gt;Node28</title>
<path fill="none" stroke="#191970" d="M246,-202.3693C246,-193.681 246,-183.6241 246,-175.5446"/>
<polygon fill="#191970" stroke="#191970" points="242.5001,-202.3906 246,-212.3906 249.5001,-202.3907 242.5001,-202.3906"/>
</g>
<!-- Node32 -->
<g id="node7" class="node">
<title>Node32</title>
<g id="a_node7"><a xlink:href="lcm__publisher__system_8h.html" target="_top" xlink:title=" ">
<polygon fill="#ffffff" stroke="#000000" points="432.5,-145.5 432.5,-175.5 563.5,-175.5 563.5,-145.5 432.5,-145.5"/>
<text text-anchor="start" x="440.5" y="-163.5" font-family="Helvetica,sans-Serif" font-size="10.00" fill="#000000">drake/systems/lcm/lcm</text>
<text text-anchor="middle" x="498" y="-152.5" font-family="Helvetica,sans-Serif" font-size="10.00" fill="#000000">_publisher_system.h</text>
</a>
</g>
</g>
<!-- Node26&#45;&gt;Node32 -->
<g id="edge6" class="edge">
<title>Node26&#45;&gt;Node32</title>
<path fill="none" stroke="#191970" d="M294.9657,-210.05C335.2993,-200.2067 392.723,-186.1926 436.2152,-175.5784"/>
<polygon fill="#191970" stroke="#191970" points="293.9835,-206.6869 285.0985,-212.4581 295.6432,-213.4873 293.9835,-206.6869"/>
</g>
<!-- Node29 -->
<g id="node4" class="node">
<title>Node29</title>
<g id="a_node4"><a xlink:href="iiwa__command__receiver_8h.html" target="_top" xlink:title=" ">
<polygon fill="#ffffff" stroke="#000000" points="0,-67.5 0,-108.5 146,-108.5 146,-67.5 0,-67.5"/>
<text text-anchor="start" x="8" y="-96.5" font-family="Helvetica,sans-Serif" font-size="10.00" fill="#000000">drake/manipulation</text>
<text text-anchor="start" x="8" y="-85.5" font-family="Helvetica,sans-Serif" font-size="10.00" fill="#000000">/kuka_iiwa/iiwa_command</text>
<text text-anchor="middle" x="73" y="-74.5" font-family="Helvetica,sans-Serif" font-size="10.00" fill="#000000">_receiver.h</text>
</a>
</g>
</g>
<!-- Node28&#45;&gt;Node29 -->
<g id="edge3" class="edge">
<title>Node28&#45;&gt;Node29</title>
<path fill="none" stroke="#191970" d="M200.828,-141.5695C176.5943,-131.4138 146.7033,-118.8872 121.9208,-108.5015"/>
<polygon fill="#191970" stroke="#191970" points="199.5786,-144.8408 210.1543,-145.478 202.2842,-138.3848 199.5786,-144.8408"/>
</g>
<!-- Node31 -->
<g id="node6" class="node">
<title>Node31</title>
<g id="a_node6"><a xlink:href="manipulation__station__hardware__interface_8h.html" target="_top" xlink:title=" ">
<polygon fill="#ffffff" stroke="#000000" points="164.5,-67.5 164.5,-108.5 327.5,-108.5 327.5,-67.5 164.5,-67.5"/>
<text text-anchor="start" x="172.5" y="-96.5" font-family="Helvetica,sans-Serif" font-size="10.00" fill="#000000">drake/examples/manipulation</text>
<text text-anchor="start" x="172.5" y="-85.5" font-family="Helvetica,sans-Serif" font-size="10.00" fill="#000000">_station/manipulation_station</text>
<text text-anchor="middle" x="246" y="-74.5" font-family="Helvetica,sans-Serif" font-size="10.00" fill="#000000">_hardware_interface.h</text>
</a>
</g>
</g>
<!-- Node28&#45;&gt;Node31 -->
<g id="edge5" class="edge">
<title>Node28&#45;&gt;Node31</title>
<path fill="none" stroke="#191970" d="M246,-135.4016C246,-126.6173 246,-116.8652 246,-108.5015"/>
<polygon fill="#191970" stroke="#191970" points="242.5001,-135.4779 246,-145.478 249.5001,-135.478 242.5001,-135.4779"/>
</g>
<!-- Node30 -->
<g id="node5" class="node">
<title>Node30</title>
<g id="a_node5"><a xlink:href="iiwa__lcm_8h.html" target="_top" xlink:title=" ">
<polygon fill="#ffffff" stroke="#000000" points="12,-.5 12,-30.5 134,-30.5 134,-.5 12,-.5"/>
<text text-anchor="start" x="20" y="-18.5" font-family="Helvetica,sans-Serif" font-size="10.00" fill="#000000">drake/examples/kuka</text>
<text text-anchor="middle" x="73" y="-7.5" font-family="Helvetica,sans-Serif" font-size="10.00" fill="#000000">_iiwa_arm/iiwa_lcm.h</text>
</a>
</g>
</g>
<!-- Node29&#45;&gt;Node30 -->
<g id="edge4" class="edge">
<title>Node29&#45;&gt;Node30</title>
<path fill="none" stroke="#191970" d="M73,-57.3279C73,-48.0871 73,-38.3508 73,-30.5991"/>
<polygon fill="#191970" stroke="#191970" points="69.5001,-57.4183 73,-67.4183 76.5001,-57.4184 69.5001,-57.4183"/>
</g>
<!-- Node33 -->
<g id="node8" class="node">
<title>Node33</title>
<g id="a_node8"><a xlink:href="contact__results__to__lcm_8h.html" target="_top" xlink:title=" ">
<polygon fill="#ffffff" stroke="#000000" points="345.5,-73 345.5,-103 486.5,-103 486.5,-73 345.5,-73"/>
<text text-anchor="start" x="353.5" y="-91" font-family="Helvetica,sans-Serif" font-size="10.00" fill="#000000">drake/multibody/plant</text>
<text text-anchor="middle" x="416" y="-80" font-family="Helvetica,sans-Serif" font-size="10.00" fill="#000000">/contact_results_to_lcm.h</text>
</a>
</g>
</g>
<!-- Node32&#45;&gt;Node33 -->
<g id="edge7" class="edge">
<title>Node32&#45;&gt;Node33</title>
<path fill="none" stroke="#191970" d="M473.2958,-138.6579C460.2679,-127.1393 444.6181,-113.3026 432.9687,-103.0028"/>
<polygon fill="#191970" stroke="#191970" points="471.1995,-141.4763 481.0095,-145.478 475.8361,-136.232 471.1995,-141.4763"/>
</g>
<!-- Node34 -->
<g id="node9" class="node">
<title>Node34</title>
<g id="a_node9"><a xlink:href="connect__lcm__scope_8h.html" target="_top" xlink:title=" ">
<polygon fill="#ffffff" stroke="#000000" points="504.5,-73 504.5,-103 655.5,-103 655.5,-73 504.5,-73"/>
<text text-anchor="start" x="512.5" y="-91" font-family="Helvetica,sans-Serif" font-size="10.00" fill="#000000">drake/systems/lcm/connect</text>
<text text-anchor="middle" x="580" y="-80" font-family="Helvetica,sans-Serif" font-size="10.00" fill="#000000">_lcm_scope.h</text>
</a>
</g>
</g>
<!-- Node32&#45;&gt;Node34 -->
<g id="edge8" class="edge">
<title>Node32&#45;&gt;Node34</title>
<path fill="none" stroke="#191970" d="M522.7042,-138.6579C535.7321,-127.1393 551.3819,-113.3026 563.0313,-103.0028"/>
<polygon fill="#191970" stroke="#191970" points="520.1639,-136.232 514.9905,-145.478 524.8005,-141.4763 520.1639,-136.232"/>
</g>
<!-- Node35 -->
<g id="node10" class="node">
<title>Node35</title>
<g id="a_node10"><a xlink:href="lcm__scope__system_8h.html" target="_top" xlink:title=" ">
<polygon fill="#ffffff" stroke="#000000" points="673.5,-73 673.5,-103 804.5,-103 804.5,-73 673.5,-73"/>
<text text-anchor="start" x="681.5" y="-91" font-family="Helvetica,sans-Serif" font-size="10.00" fill="#000000">drake/systems/lcm/lcm</text>
<text text-anchor="middle" x="739" y="-80" font-family="Helvetica,sans-Serif" font-size="10.00" fill="#000000">_scope_system.h</text>
</a>
</g>
</g>
<!-- Node32&#45;&gt;Node35 -->
<g id="edge9" class="edge">
<title>Node32&#45;&gt;Node35</title>
<path fill="none" stroke="#191970" d="M557.6701,-142.5495C598.1077,-130.3846 650.934,-114.4929 689.1286,-103.0028"/>
<polygon fill="#191970" stroke="#191970" points="556.5031,-139.2455 547.9354,-145.478 558.5197,-145.9487 556.5031,-139.2455"/>
</g>
</g>
</svg>
