<?xml version="1.0" encoding="UTF-8" standalone="no"?>
<!DOCTYPE svg PUBLIC "-//W3C//DTD SVG 1.1//EN"
 "http://www.w3.org/Graphics/SVG/1.1/DTD/svg11.dtd">
<!-- Generated by graphviz version 2.43.0 (0)
 -->
<!-- Title: drake/systems/lcm/serializer.h Pages: 1 -->
<svg width="1795pt" height="341pt"
 viewBox="0.00 0.00 1794.69 341.00" xmlns="http://www.w3.org/2000/svg" xmlns:xlink="http://www.w3.org/1999/xlink">
<g id="graph0" class="graph" transform="scale(1 1) rotate(0) translate(4 337)">
<title>drake/systems/lcm/serializer.h</title>
<polygon fill="white" stroke="transparent" points="-4,4 -4,-337 1790.69,-337 1790.69,4 -4,4"/>
<!-- Node0 -->
<g id="node1" class="node">
<title>Node0</title>
<g id="a_node1"><a xlink:title=" ">
<polygon fill="#bfbfbf" stroke="black" points="1056.69,-313.5 1056.69,-332.5 1221.69,-332.5 1221.69,-313.5 1056.69,-313.5"/>
<text text-anchor="middle" x="1139.19" y="-320.5" font-family="Helvetica,sans-Serif" font-size="10.00">drake/systems/lcm/serializer.h</text>
</a>
</g>
</g>
<!-- Node1 -->
<g id="node2" class="node">
<title>Node1</title>
<g id="a_node2"><a xlink:title=" ">
<polygon fill="white" stroke="#bfbfbf" points="5.19,-257.5 5.19,-276.5 55.19,-276.5 55.19,-257.5 5.19,-257.5"/>
<text text-anchor="middle" x="30.19" y="-264.5" font-family="Helvetica,sans-Serif" font-size="10.00">cstdint</text>
</a>
</g>
</g>
<!-- Node0&#45;&gt;Node1 -->
<g id="edge1" class="edge">
<title>Node0&#45;&gt;Node1</title>
<path fill="none" stroke="midnightblue" d="M1056.38,-320.5C839.68,-316.25 259.55,-302.74 69.19,-277 67.91,-276.83 66.62,-276.63 65.31,-276.42"/>
<polygon fill="midnightblue" stroke="midnightblue" points="65.72,-272.93 55.24,-274.5 64.41,-279.81 65.72,-272.93"/>
</g>
<!-- Node2 -->
<g id="node3" class="node">
<title>Node2</title>
<g id="a_node3"><a xlink:title=" ">
<polygon fill="white" stroke="#bfbfbf" points="1553.19,-129 1553.19,-148 1611.19,-148 1611.19,-129 1553.19,-129"/>
<text text-anchor="middle" x="1582.19" y="-136" font-family="Helvetica,sans-Serif" font-size="10.00">memory</text>
</a>
</g>
</g>
<!-- Node0&#45;&gt;Node2 -->
<g id="edge2" class="edge">
<title>Node0&#45;&gt;Node2</title>
<path fill="none" stroke="midnightblue" d="M1221.71,-319.44C1361.37,-313.19 1634.98,-291.97 1694.19,-221 1720.29,-189.72 1662.8,-164.15 1620.92,-150.43"/>
<polygon fill="midnightblue" stroke="midnightblue" points="1621.79,-147.03 1611.2,-147.36 1619.68,-153.71 1621.79,-147.03"/>
</g>
<!-- Node3 -->
<g id="node4" class="node">
<title>Node3</title>
<g id="a_node4"><a xlink:title=" ">
<polygon fill="white" stroke="#bfbfbf" points="1173.69,-129 1173.69,-148 1220.69,-148 1220.69,-129 1173.69,-129"/>
<text text-anchor="middle" x="1197.19" y="-136" font-family="Helvetica,sans-Serif" font-size="10.00">vector</text>
</a>
</g>
</g>
<!-- Node0&#45;&gt;Node3 -->
<g id="edge3" class="edge">
<title>Node0&#45;&gt;Node3</title>
<path fill="none" stroke="midnightblue" d="M1141.99,-313.2C1150.93,-285.07 1178.93,-196.96 1191.26,-158.16"/>
<polygon fill="midnightblue" stroke="midnightblue" points="1194.73,-158.8 1194.42,-148.21 1188.06,-156.68 1194.73,-158.8"/>
</g>
<!-- Node4 -->
<g id="node5" class="node">
<title>Node4</title>
<g id="a_node5"><a xlink:href="drake__assert_8h.html" target="_top" xlink:title="Provides Drake&#39;s assertion implementation.">
<polygon fill="white" stroke="black" points="280.69,-56.5 280.69,-86.5 399.69,-86.5 399.69,-56.5 280.69,-56.5"/>
<text text-anchor="start" x="288.69" y="-74.5" font-family="Helvetica,sans-Serif" font-size="10.00">drake/common/drake</text>
<text text-anchor="middle" x="340.19" y="-63.5" font-family="Helvetica,sans-Serif" font-size="10.00">_assert.h</text>
</a>
</g>
</g>
<!-- Node0&#45;&gt;Node4 -->
<g id="edge4" class="edge">
<title>Node0&#45;&gt;Node4</title>
<path fill="none" stroke="midnightblue" d="M1056.5,-318.27C927.97,-310.54 673.78,-287.51 469.19,-221 407.75,-201.03 373.73,-209.22 340.19,-154 329.79,-136.88 330.9,-113.76 333.96,-96.52"/>
<polygon fill="midnightblue" stroke="midnightblue" points="337.4,-97.16 336.04,-86.65 330.55,-95.71 337.4,-97.16"/>
</g>
<!-- Node6 -->
<g id="node7" class="node">
<title>Node6</title>
<g id="a_node7"><a xlink:href="drake__copyable_8h.html" target="_top" xlink:title="Provides careful macros to selectively enable or disable the special member functions for copy&#45;constr...">
<polygon fill="white" stroke="black" points="1667.69,-56.5 1667.69,-86.5 1786.69,-86.5 1786.69,-56.5 1667.69,-56.5"/>
<text text-anchor="start" x="1675.69" y="-74.5" font-family="Helvetica,sans-Serif" font-size="10.00">drake/common/drake</text>
<text text-anchor="middle" x="1727.19" y="-63.5" font-family="Helvetica,sans-Serif" font-size="10.00">_copyable.h</text>
</a>
</g>
</g>
<!-- Node0&#45;&gt;Node6 -->
<g id="edge6" class="edge">
<title>Node0&#45;&gt;Node6</title>
<path fill="none" stroke="midnightblue" d="M1221.9,-318.67C1338.98,-313.2 1546.78,-300.49 1618.19,-277 1691.93,-252.74 1725.5,-229.81 1742.19,-154 1746.43,-134.75 1741.84,-112.77 1736.65,-96.48"/>
<polygon fill="midnightblue" stroke="midnightblue" points="1739.84,-94.99 1733.24,-86.69 1733.22,-97.29 1739.84,-94.99"/>
</g>
<!-- Node7 -->
<g id="node8" class="node">
<title>Node7</title>
<g id="a_node8"><a xlink:href="drake__throw_8h.html" target="_top" xlink:title="Provides a convenient wrapper to throw an exception when a condition is unmet.">
<polygon fill="white" stroke="black" points="154.69,-123.5 154.69,-153.5 273.69,-153.5 273.69,-123.5 154.69,-123.5"/>
<text text-anchor="start" x="162.69" y="-141.5" font-family="Helvetica,sans-Serif" font-size="10.00">drake/common/drake</text>
<text text-anchor="middle" x="214.19" y="-130.5" font-family="Helvetica,sans-Serif" font-size="10.00">_throw.h</text>
</a>
</g>
</g>
<!-- Node0&#45;&gt;Node7 -->
<g id="edge7" class="edge">
<title>Node0&#45;&gt;Node7</title>
<path fill="none" stroke="midnightblue" d="M1056.38,-322.18C855.09,-321.99 351.96,-317.42 288.19,-277 247.87,-251.44 228.01,-195.99 219.54,-163.86"/>
<polygon fill="midnightblue" stroke="midnightblue" points="222.88,-162.8 217.09,-153.93 216.08,-164.48 222.88,-162.8"/>
</g>
<!-- Node8 -->
<g id="node9" class="node">
<title>Node8</title>
<g id="a_node9"><a xlink:href="value_8h.html" target="_top" xlink:title=" ">
<polygon fill="white" stroke="black" points="1189.19,-257.5 1189.19,-276.5 1317.19,-276.5 1317.19,-257.5 1189.19,-257.5"/>
<text text-anchor="middle" x="1253.19" y="-264.5" font-family="Helvetica,sans-Serif" font-size="10.00">drake/common/value.h</text>
</a>
</g>
</g>
<!-- Node0&#45;&gt;Node8 -->
<g id="edge10" class="edge">
<title>Node0&#45;&gt;Node8</title>
<path fill="none" stroke="midnightblue" d="M1157.26,-313.44C1175.77,-304.68 1204.77,-290.94 1226.05,-280.86"/>
<polygon fill="midnightblue" stroke="midnightblue" points="1227.67,-283.96 1235.21,-276.52 1224.68,-277.63 1227.67,-283.96"/>
</g>
<!-- Node5 -->
<g id="node6" class="node">
<title>Node5</title>
<g id="a_node6"><a xlink:title=" ">
<polygon fill="white" stroke="#bfbfbf" points="707.69,-0.5 707.69,-19.5 776.69,-19.5 776.69,-0.5 707.69,-0.5"/>
<text text-anchor="middle" x="742.19" y="-7.5" font-family="Helvetica,sans-Serif" font-size="10.00">type_traits</text>
</a>
</g>
</g>
<!-- Node4&#45;&gt;Node5 -->
<g id="edge5" class="edge">
<title>Node4&#45;&gt;Node5</title>
<path fill="none" stroke="midnightblue" d="M399.94,-61.66C481.24,-49.62 624.89,-28.36 697.5,-17.61"/>
<polygon fill="midnightblue" stroke="midnightblue" points="698.31,-21.03 707.69,-16.11 697.28,-14.11 698.31,-21.03"/>
</g>
<!-- Node7&#45;&gt;Node4 -->
<g id="edge9" class="edge">
<title>Node7&#45;&gt;Node4</title>
<path fill="none" stroke="midnightblue" d="M241.53,-123.4C259.78,-113.98 283.97,-101.5 303.84,-91.26"/>
<polygon fill="midnightblue" stroke="midnightblue" points="305.62,-94.27 312.91,-86.58 302.41,-88.05 305.62,-94.27"/>
</g>
<!-- Node7&#45;&gt;Node5 -->
<g id="edge8" class="edge">
<title>Node7&#45;&gt;Node5</title>
<path fill="none" stroke="midnightblue" d="M219.58,-123.4C227.65,-104.46 244.79,-71.39 271.19,-56 342.8,-14.25 594.23,-10.36 697.45,-10.58"/>
<polygon fill="midnightblue" stroke="midnightblue" points="697.54,-14.08 707.55,-10.62 697.56,-7.08 697.54,-14.08"/>
</g>
<!-- Node8&#45;&gt;Node2 -->
<g id="edge11" class="edge">
<title>Node8&#45;&gt;Node2</title>
<path fill="none" stroke="midnightblue" d="M1290.34,-257.49C1318.71,-250.12 1358.25,-237.97 1390.19,-221 1410.06,-210.45 1410.27,-200.44 1430.19,-190 1477.26,-165.34 1494.02,-171.48 1544.19,-154 1546.44,-153.22 1548.76,-152.39 1551.09,-151.54"/>
<polygon fill="midnightblue" stroke="midnightblue" points="1552.42,-154.78 1560.57,-148 1549.98,-148.22 1552.42,-154.78"/>
</g>
<!-- Node8&#45;&gt;Node5 -->
<g id="edge14" class="edge">
<title>Node8&#45;&gt;Node5</title>
<path fill="none" stroke="midnightblue" d="M1188.82,-265.31C944.72,-262 86.07,-244.01 8.19,-154 -6.65,-136.84 1.12,-71.66 18.19,-56 68.15,-10.17 546.31,-9.6 696.97,-10.58"/>
<polygon fill="midnightblue" stroke="midnightblue" points="697.21,-14.08 707.24,-10.65 697.26,-7.08 697.21,-14.08"/>
</g>
<!-- Node8&#45;&gt;Node6 -->
<g id="edge27" class="edge">
<title>Node8&#45;&gt;Node6</title>
<path fill="none" stroke="midnightblue" d="M1317.37,-263.55C1432.94,-258.55 1666.63,-245.52 1694.19,-221 1729.3,-189.78 1731.55,-130.24 1729.66,-96.82"/>
<polygon fill="midnightblue" stroke="midnightblue" points="1733.12,-96.28 1728.9,-86.56 1726.14,-96.79 1733.12,-96.28"/>
</g>
<!-- Node9 -->
<g id="node10" class="node">
<title>Node9</title>
<g id="a_node10"><a xlink:title=" ">
<polygon fill="white" stroke="#bfbfbf" points="1619.69,-196 1619.69,-215 1684.69,-215 1684.69,-196 1619.69,-196"/>
<text text-anchor="middle" x="1652.19" y="-203" font-family="Helvetica,sans-Serif" font-size="10.00">stdexcept</text>
</a>
</g>
</g>
<!-- Node8&#45;&gt;Node9 -->
<g id="edge12" class="edge">
<title>Node8&#45;&gt;Node9</title>
<path fill="none" stroke="midnightblue" d="M1317.42,-261.93C1389.43,-256.43 1509.35,-244.5 1610.19,-221 1613.6,-220.21 1617.12,-219.24 1620.61,-218.18"/>
<polygon fill="midnightblue" stroke="midnightblue" points="1621.79,-221.48 1630.21,-215.05 1619.62,-214.82 1621.79,-221.48"/>
</g>
<!-- Node10 -->
<g id="node11" class="node">
<title>Node10</title>
<g id="a_node11"><a xlink:title=" ">
<polygon fill="white" stroke="#bfbfbf" points="1239.19,-129 1239.19,-148 1283.19,-148 1283.19,-129 1239.19,-129"/>
<text text-anchor="middle" x="1261.19" y="-136" font-family="Helvetica,sans-Serif" font-size="10.00">string</text>
</a>
</g>
</g>
<!-- Node8&#45;&gt;Node10 -->
<g id="edge13" class="edge">
<title>Node8&#45;&gt;Node10</title>
<path fill="none" stroke="midnightblue" d="M1235.11,-257.39C1221.63,-249.87 1204.22,-237.57 1196.19,-221 1190.18,-208.6 1190.14,-202.38 1196.19,-190 1204.03,-174 1219.65,-161.6 1233.61,-153.1"/>
<polygon fill="midnightblue" stroke="midnightblue" points="1235.49,-156.06 1242.45,-148.07 1232.03,-149.97 1235.49,-156.06"/>
</g>
<!-- Node11 -->
<g id="node12" class="node">
<title>Node11</title>
<g id="a_node12"><a xlink:title=" ">
<polygon fill="white" stroke="#bfbfbf" points="1477.69,-129 1477.69,-148 1534.69,-148 1534.69,-129 1477.69,-129"/>
<text text-anchor="middle" x="1506.19" y="-136" font-family="Helvetica,sans-Serif" font-size="10.00">typeinfo</text>
</a>
</g>
</g>
<!-- Node8&#45;&gt;Node11 -->
<g id="edge15" class="edge">
<title>Node8&#45;&gt;Node11</title>
<path fill="none" stroke="midnightblue" d="M1275.91,-257.44C1296.81,-249.2 1328.4,-235.83 1354.19,-221 1374.62,-209.26 1376.86,-201.89 1397.19,-190 1422.6,-175.14 1453.12,-161.32 1475.39,-151.9"/>
<polygon fill="midnightblue" stroke="midnightblue" points="1476.81,-155.1 1484.69,-148.03 1474.12,-148.64 1476.81,-155.1"/>
</g>
<!-- Node12 -->
<g id="node13" class="node">
<title>Node12</title>
<g id="a_node13"><a xlink:title=" ">
<polygon fill="white" stroke="#bfbfbf" points="1018.69,-62 1018.69,-81 1063.69,-81 1063.69,-62 1018.69,-62"/>
<text text-anchor="middle" x="1041.19" y="-69" font-family="Helvetica,sans-Serif" font-size="10.00">utility</text>
</a>
</g>
</g>
<!-- Node8&#45;&gt;Node12 -->
<g id="edge16" class="edge">
<title>Node8&#45;&gt;Node12</title>
<path fill="none" stroke="midnightblue" d="M1189.05,-261.97C1066.32,-252.68 806.13,-224.89 758.19,-154 750.47,-142.59 749.35,-133.56 758.19,-123 789.82,-85.23 941,-75.68 1008.51,-73.29"/>
<polygon fill="midnightblue" stroke="midnightblue" points="1008.71,-76.78 1018.59,-72.96 1008.48,-69.79 1008.71,-76.78"/>
</g>
<!-- Node13 -->
<g id="node14" class="node">
<title>Node13</title>
<g id="a_node14"><a xlink:href="copyable__unique__ptr_8h.html" target="_top" xlink:title=" ">
<polygon fill="white" stroke="black" points="478.69,-190.5 478.69,-220.5 615.69,-220.5 615.69,-190.5 478.69,-190.5"/>
<text text-anchor="start" x="486.69" y="-208.5" font-family="Helvetica,sans-Serif" font-size="10.00">drake/common/copyable</text>
<text text-anchor="middle" x="547.19" y="-197.5" font-family="Helvetica,sans-Serif" font-size="10.00">_unique_ptr.h</text>
</a>
</g>
</g>
<!-- Node8&#45;&gt;Node13 -->
<g id="edge17" class="edge">
<title>Node8&#45;&gt;Node13</title>
<path fill="none" stroke="midnightblue" d="M1188.98,-260.59C1059.4,-249.67 767,-225.02 626.07,-213.15"/>
<polygon fill="midnightblue" stroke="midnightblue" points="626.04,-209.63 615.78,-212.28 625.45,-216.61 626.04,-209.63"/>
</g>
<!-- Node20 -->
<g id="node21" class="node">
<title>Node20</title>
<g id="a_node21"><a xlink:href="hash_8h.html" target="_top" xlink:title=" ">
<polygon fill="white" stroke="black" points="934.69,-196 934.69,-215 1059.69,-215 1059.69,-196 934.69,-196"/>
<text text-anchor="middle" x="997.19" y="-203" font-family="Helvetica,sans-Serif" font-size="10.00">drake/common/hash.h</text>
</a>
</g>
</g>
<!-- Node8&#45;&gt;Node20 -->
<g id="edge28" class="edge">
<title>Node8&#45;&gt;Node20</title>
<path fill="none" stroke="midnightblue" d="M1216.51,-257.48C1170.99,-246.89 1093.29,-228.84 1043.65,-217.3"/>
<polygon fill="midnightblue" stroke="midnightblue" points="1044.34,-213.86 1033.8,-215.01 1042.75,-220.68 1044.34,-213.86"/>
</g>
<!-- Node26 -->
<g id="node27" class="node">
<title>Node26</title>
<g id="a_node27"><a xlink:href="is__cloneable_8h.html" target="_top" xlink:title=" ">
<polygon fill="white" stroke="black" points="1439.19,-196 1439.19,-215 1601.19,-215 1601.19,-196 1439.19,-196"/>
<text text-anchor="middle" x="1520.19" y="-203" font-family="Helvetica,sans-Serif" font-size="10.00">drake/common/is_cloneable.h</text>
</a>
</g>
</g>
<!-- Node8&#45;&gt;Node26 -->
<g id="edge41" class="edge">
<title>Node8&#45;&gt;Node26</title>
<path fill="none" stroke="midnightblue" d="M1291.45,-257.48C1339.03,-246.87 1420.3,-228.76 1472.07,-217.22"/>
<polygon fill="midnightblue" stroke="midnightblue" points="1473.01,-220.6 1482.01,-215.01 1471.49,-213.77 1473.01,-220.6"/>
</g>
<!-- Node27 -->
<g id="node28" class="node">
<title>Node27</title>
<g id="a_node28"><a xlink:href="nice__type__name_8h.html" target="_top" xlink:title=" ">
<polygon fill="white" stroke="black" points="1205.19,-190.5 1205.19,-220.5 1345.19,-220.5 1345.19,-190.5 1205.19,-190.5"/>
<text text-anchor="start" x="1213.19" y="-208.5" font-family="Helvetica,sans-Serif" font-size="10.00">drake/common/nice_type</text>
<text text-anchor="middle" x="1275.19" y="-197.5" font-family="Helvetica,sans-Serif" font-size="10.00">_name.h</text>
</a>
</g>
</g>
<!-- Node8&#45;&gt;Node27 -->
<g id="edge44" class="edge">
<title>Node8&#45;&gt;Node27</title>
<path fill="none" stroke="midnightblue" d="M1256.34,-257.48C1258.99,-250.32 1262.9,-239.75 1266.47,-230.08"/>
<polygon fill="midnightblue" stroke="midnightblue" points="1269.82,-231.12 1270.01,-220.52 1263.26,-228.69 1269.82,-231.12"/>
</g>
<!-- Node13&#45;&gt;Node2 -->
<g id="edge19" class="edge">
<title>Node13&#45;&gt;Node2</title>
<path fill="none" stroke="midnightblue" d="M615.99,-201.61C834.17,-192.36 1498.88,-163.54 1544.19,-154 1547.27,-153.35 1550.43,-152.49 1553.55,-151.51"/>
<polygon fill="midnightblue" stroke="midnightblue" points="1554.96,-154.72 1563.21,-148.08 1552.62,-148.12 1554.96,-154.72"/>
</g>
<!-- Node13&#45;&gt;Node4 -->
<g id="edge22" class="edge">
<title>Node13&#45;&gt;Node4</title>
<path fill="none" stroke="midnightblue" d="M478.51,-202.9C438.48,-198.3 389.97,-185.82 359.19,-154 344.57,-138.88 340.41,-114.8 339.55,-96.72"/>
<polygon fill="midnightblue" stroke="midnightblue" points="343.05,-96.57 339.38,-86.64 336.05,-96.69 343.05,-96.57"/>
</g>
<!-- Node13&#45;&gt;Node12 -->
<g id="edge21" class="edge">
<title>Node13&#45;&gt;Node12</title>
<path fill="none" stroke="midnightblue" d="M553.62,-190.46C563.07,-171.58 582.64,-138.58 610.19,-123 678.34,-84.46 919.9,-75.21 1008.4,-73.1"/>
<polygon fill="midnightblue" stroke="midnightblue" points="1008.73,-76.59 1018.65,-72.87 1008.57,-69.59 1008.73,-76.59"/>
</g>
<!-- Node14 -->
<g id="node15" class="node">
<title>Node14</title>
<g id="a_node15"><a xlink:title=" ">
<polygon fill="white" stroke="#bfbfbf" points="619.69,-129 619.69,-148 672.69,-148 672.69,-129 619.69,-129"/>
<text text-anchor="middle" x="646.19" y="-136" font-family="Helvetica,sans-Serif" font-size="10.00">cstddef</text>
</a>
</g>
</g>
<!-- Node13&#45;&gt;Node14 -->
<g id="edge18" class="edge">
<title>Node13&#45;&gt;Node14</title>
<path fill="none" stroke="midnightblue" d="M568.67,-190.4C585.28,-179.5 608.15,-164.48 624.74,-153.58"/>
<polygon fill="midnightblue" stroke="midnightblue" points="626.8,-156.42 633.24,-148.01 622.96,-150.57 626.8,-156.42"/>
</g>
<!-- Node15 -->
<g id="node16" class="node">
<title>Node15</title>
<g id="a_node16"><a xlink:title=" ">
<polygon fill="white" stroke="#bfbfbf" points="368.69,-129 368.69,-148 425.69,-148 425.69,-129 368.69,-129"/>
<text text-anchor="middle" x="397.19" y="-136" font-family="Helvetica,sans-Serif" font-size="10.00">ostream</text>
</a>
</g>
</g>
<!-- Node13&#45;&gt;Node15 -->
<g id="edge20" class="edge">
<title>Node13&#45;&gt;Node15</title>
<path fill="none" stroke="midnightblue" d="M514.64,-190.4C488.33,-178.99 451.61,-163.08 426.26,-152.1"/>
<polygon fill="midnightblue" stroke="midnightblue" points="427.39,-148.77 416.82,-148.01 424.61,-155.19 427.39,-148.77"/>
</g>
<!-- Node16 -->
<g id="node17" class="node">
<title>Node16</title>
<g id="a_node17"><a xlink:href="drake__deprecated_8h.html" target="_top" xlink:title="Provides a portable macro for use in generating compile&#45;time warnings for use of code that is permitt...">
<polygon fill="white" stroke="black" points="443.69,-123.5 443.69,-153.5 562.69,-153.5 562.69,-123.5 443.69,-123.5"/>
<text text-anchor="start" x="451.69" y="-141.5" font-family="Helvetica,sans-Serif" font-size="10.00">drake/common/drake</text>
<text text-anchor="middle" x="503.19" y="-130.5" font-family="Helvetica,sans-Serif" font-size="10.00">_deprecated.h</text>
</a>
</g>
</g>
<!-- Node13&#45;&gt;Node16 -->
<g id="edge23" class="edge">
<title>Node13&#45;&gt;Node16</title>
<path fill="none" stroke="midnightblue" d="M537.65,-190.4C532.05,-182.13 524.86,-171.51 518.49,-162.1"/>
<polygon fill="midnightblue" stroke="midnightblue" points="521.23,-159.9 512.72,-153.58 515.43,-163.82 521.23,-159.9"/>
</g>
<!-- Node17 -->
<g id="node18" class="node">
<title>Node17</title>
<g id="a_node18"><a xlink:href="fmt_8h.html" target="_top" xlink:title=" ">
<polygon fill="white" stroke="black" points="17.69,-129 17.69,-148 136.69,-148 136.69,-129 17.69,-129"/>
<text text-anchor="middle" x="77.19" y="-136" font-family="Helvetica,sans-Serif" font-size="10.00">drake/common/fmt.h</text>
</a>
</g>
</g>
<!-- Node13&#45;&gt;Node17 -->
<g id="edge24" class="edge">
<title>Node13&#45;&gt;Node17</title>
<path fill="none" stroke="midnightblue" d="M478.65,-197.69C398.43,-189.3 261.71,-173.7 145.19,-154 138.48,-152.86 131.41,-151.52 124.49,-150.13"/>
<polygon fill="midnightblue" stroke="midnightblue" points="125,-146.66 114.49,-148.05 123.57,-153.51 125,-146.66"/>
</g>
<!-- Node18 -->
<g id="node19" class="node">
<title>Node18</title>
<g id="a_node19"><a xlink:title=" ">
<polygon fill="white" stroke="#bfbfbf" points="124.69,-62 124.69,-81 197.69,-81 197.69,-62 124.69,-62"/>
<text text-anchor="middle" x="161.19" y="-69" font-family="Helvetica,sans-Serif" font-size="10.00">string_view</text>
</a>
</g>
</g>
<!-- Node17&#45;&gt;Node18 -->
<g id="edge25" class="edge">
<title>Node17&#45;&gt;Node18</title>
<path fill="none" stroke="midnightblue" d="M88.52,-128.73C102.25,-118.11 125.59,-100.05 142.11,-87.26"/>
<polygon fill="midnightblue" stroke="midnightblue" points="144.28,-90.02 150.04,-81.13 139.99,-84.48 144.28,-90.02"/>
</g>
<!-- Node19 -->
<g id="node20" class="node">
<title>Node19</title>
<g id="a_node20"><a xlink:title=" ">
<polygon fill="white" stroke="#bfbfbf" points="27.69,-62 27.69,-81 106.69,-81 106.69,-62 27.69,-62"/>
<text text-anchor="middle" x="67.19" y="-69" font-family="Helvetica,sans-Serif" font-size="10.00">fmt/format.h</text>
</a>
</g>
</g>
<!-- Node17&#45;&gt;Node19 -->
<g id="edge26" class="edge">
<title>Node17&#45;&gt;Node19</title>
<path fill="none" stroke="midnightblue" d="M75.84,-128.73C74.37,-119.18 71.98,-103.62 70.08,-91.28"/>
<polygon fill="midnightblue" stroke="midnightblue" points="73.5,-90.48 68.52,-81.13 66.58,-91.54 73.5,-90.48"/>
</g>
<!-- Node20&#45;&gt;Node3 -->
<g id="edge38" class="edge">
<title>Node20&#45;&gt;Node3</title>
<path fill="none" stroke="midnightblue" d="M1026.64,-195.92C1059.24,-186.29 1113.26,-169.91 1159.19,-154 1161.44,-153.22 1163.76,-152.39 1166.09,-151.55"/>
<polygon fill="midnightblue" stroke="midnightblue" points="1167.43,-154.79 1175.58,-148.02 1164.98,-148.23 1167.43,-154.79"/>
</g>
<!-- Node20&#45;&gt;Node4 -->
<g id="edge39" class="edge">
<title>Node20&#45;&gt;Node4</title>
<path fill="none" stroke="midnightblue" d="M943.83,-195.98C894.95,-187.52 820.88,-173.08 758.19,-154 722.9,-143.26 716.8,-132.66 681.19,-123 589.12,-98.02 479.49,-84.57 409.87,-77.98"/>
<polygon fill="midnightblue" stroke="midnightblue" points="410.18,-74.49 399.9,-77.05 409.53,-81.46 410.18,-74.49"/>
</g>
<!-- Node20&#45;&gt;Node5 -->
<g id="edge36" class="edge">
<title>Node20&#45;&gt;Node5</title>
<path fill="none" stroke="midnightblue" d="M1057.18,-196C1082.58,-189.1 1109.8,-176.61 1125.19,-154 1154.29,-111.24 1073.17,-56.56 1072.19,-56 1024.43,-28.75 865.46,-17.15 786.91,-12.99"/>
<polygon fill="midnightblue" stroke="midnightblue" points="787,-9.49 776.83,-12.47 786.64,-16.48 787,-9.49"/>
</g>
<!-- Node20&#45;&gt;Node7 -->
<g id="edge40" class="edge">
<title>Node20&#45;&gt;Node7</title>
<path fill="none" stroke="midnightblue" d="M934.67,-199.98C820.36,-191.63 570.01,-172.88 359.19,-154 334.61,-151.8 307.7,-149.17 283.82,-146.76"/>
<polygon fill="midnightblue" stroke="midnightblue" points="284.08,-143.27 273.78,-145.74 283.37,-150.23 284.08,-143.27"/>
</g>
<!-- Node20&#45;&gt;Node10 -->
<g id="edge35" class="edge">
<title>Node20&#45;&gt;Node10</title>
<path fill="none" stroke="midnightblue" d="M1051.97,-195.94C1099.54,-187.72 1169.91,-173.64 1229.19,-154 1231.06,-153.38 1232.96,-152.69 1234.87,-151.95"/>
<polygon fill="midnightblue" stroke="midnightblue" points="1236.34,-155.13 1244.19,-148.01 1233.61,-148.68 1236.34,-155.13"/>
</g>
<!-- Node20&#45;&gt;Node12 -->
<g id="edge37" class="edge">
<title>Node20&#45;&gt;Node12</title>
<path fill="none" stroke="midnightblue" d="M1002.26,-195.83C1007.83,-185.98 1016.71,-169.29 1022.19,-154 1029.68,-133.11 1035,-108.13 1038.07,-91.38"/>
<polygon fill="midnightblue" stroke="midnightblue" points="1041.57,-91.71 1039.83,-81.25 1034.67,-90.5 1041.57,-91.71"/>
</g>
<!-- Node20&#45;&gt;Node14 -->
<g id="edge30" class="edge">
<title>Node20&#45;&gt;Node14</title>
<path fill="none" stroke="midnightblue" d="M934.47,-197.62C871.36,-189.92 771.58,-175.61 687.19,-154 684.15,-153.22 681.01,-152.31 677.88,-151.33"/>
<polygon fill="midnightblue" stroke="midnightblue" points="678.69,-147.91 668.1,-148.06 676.47,-154.55 678.69,-147.91"/>
</g>
<!-- Node21 -->
<g id="node22" class="node">
<title>Node21</title>
<g id="a_node22"><a xlink:title=" ">
<polygon fill="white" stroke="#bfbfbf" points="1069.69,-129 1069.69,-148 1116.69,-148 1116.69,-129 1069.69,-129"/>
<text text-anchor="middle" x="1093.19" y="-136" font-family="Helvetica,sans-Serif" font-size="10.00">cmath</text>
</a>
</g>
</g>
<!-- Node20&#45;&gt;Node21 -->
<g id="edge29" class="edge">
<title>Node20&#45;&gt;Node21</title>
<path fill="none" stroke="midnightblue" d="M1010.14,-195.73C1026.05,-184.96 1053.24,-166.55 1072.16,-153.74"/>
<polygon fill="midnightblue" stroke="midnightblue" points="1074.13,-156.63 1080.45,-148.13 1070.21,-150.84 1074.13,-156.63"/>
</g>
<!-- Node22 -->
<g id="node23" class="node">
<title>Node22</title>
<g id="a_node23"><a xlink:title=" ">
<polygon fill="white" stroke="#bfbfbf" points="767.69,-129 767.69,-148 832.69,-148 832.69,-129 767.69,-129"/>
<text text-anchor="middle" x="800.19" y="-136" font-family="Helvetica,sans-Serif" font-size="10.00">functional</text>
</a>
</g>
</g>
<!-- Node20&#45;&gt;Node22 -->
<g id="edge31" class="edge">
<title>Node20&#45;&gt;Node22</title>
<path fill="none" stroke="midnightblue" d="M970.54,-195.97C939.62,-186.04 887.14,-169.08 842.19,-154 839.61,-153.13 836.94,-152.23 834.25,-151.31"/>
<polygon fill="midnightblue" stroke="midnightblue" points="835.19,-147.94 824.6,-148.01 832.92,-154.56 835.19,-147.94"/>
</g>
<!-- Node23 -->
<g id="node24" class="node">
<title>Node23</title>
<g id="a_node24"><a xlink:title=" ">
<polygon fill="white" stroke="#bfbfbf" points="851.19,-129 851.19,-148 889.19,-148 889.19,-129 851.19,-129"/>
<text text-anchor="middle" x="870.19" y="-136" font-family="Helvetica,sans-Serif" font-size="10.00">map</text>
</a>
</g>
</g>
<!-- Node20&#45;&gt;Node23 -->
<g id="edge32" class="edge">
<title>Node20&#45;&gt;Node23</title>
<path fill="none" stroke="midnightblue" d="M980.36,-195.95C960.65,-185.94 927.02,-168.82 898.19,-154 897.38,-153.58 896.56,-153.16 895.73,-152.73"/>
<polygon fill="midnightblue" stroke="midnightblue" points="897.26,-149.58 886.77,-148.1 894.05,-155.8 897.26,-149.58"/>
</g>
<!-- Node24 -->
<g id="node25" class="node">
<title>Node24</title>
<g id="a_node25"><a xlink:title=" ">
<polygon fill="white" stroke="#bfbfbf" points="907.19,-129 907.19,-148 963.19,-148 963.19,-129 907.19,-129"/>
<text text-anchor="middle" x="935.19" y="-136" font-family="Helvetica,sans-Serif" font-size="10.00">optional</text>
</a>
</g>
</g>
<!-- Node20&#45;&gt;Node24 -->
<g id="edge33" class="edge">
<title>Node20&#45;&gt;Node24</title>
<path fill="none" stroke="midnightblue" d="M988.83,-195.73C979.07,-185.5 962.72,-168.36 950.64,-155.69"/>
<polygon fill="midnightblue" stroke="midnightblue" points="952.86,-152.95 943.42,-148.13 947.79,-157.78 952.86,-152.95"/>
</g>
<!-- Node25 -->
<g id="node26" class="node">
<title>Node25</title>
<g id="a_node26"><a xlink:title=" ">
<polygon fill="white" stroke="#bfbfbf" points="981.19,-129 981.19,-148 1013.19,-148 1013.19,-129 981.19,-129"/>
<text text-anchor="middle" x="997.19" y="-136" font-family="Helvetica,sans-Serif" font-size="10.00">set</text>
</a>
</g>
</g>
<!-- Node20&#45;&gt;Node25 -->
<g id="edge34" class="edge">
<title>Node20&#45;&gt;Node25</title>
<path fill="none" stroke="midnightblue" d="M997.19,-195.73C997.19,-186.18 997.19,-170.62 997.19,-158.28"/>
<polygon fill="midnightblue" stroke="midnightblue" points="1000.69,-158.13 997.19,-148.13 993.69,-158.13 1000.69,-158.13"/>
</g>
<!-- Node26&#45;&gt;Node2 -->
<g id="edge42" class="edge">
<title>Node26&#45;&gt;Node2</title>
<path fill="none" stroke="midnightblue" d="M1528.55,-195.73C1538.32,-185.5 1554.66,-168.36 1566.75,-155.69"/>
<polygon fill="midnightblue" stroke="midnightblue" points="1569.59,-157.78 1573.96,-148.13 1564.53,-152.95 1569.59,-157.78"/>
</g>
<!-- Node26&#45;&gt;Node5 -->
<g id="edge43" class="edge">
<title>Node26&#45;&gt;Node5</title>
<path fill="none" stroke="midnightblue" d="M1557.88,-195.99C1580.18,-188.8 1606.64,-176.03 1620.19,-154 1627.41,-142.27 1628.38,-134.08 1620.19,-123 1559.96,-41.48 1501.86,-74.46 1402.19,-56 1173.78,-13.7 894.3,-10.15 787.03,-10.52"/>
<polygon fill="midnightblue" stroke="midnightblue" points="786.88,-7.02 776.9,-10.57 786.91,-14.02 786.88,-7.02"/>
</g>
<!-- Node27&#45;&gt;Node2 -->
<g id="edge45" class="edge">
<title>Node27&#45;&gt;Node2</title>
<path fill="none" stroke="midnightblue" d="M1345.37,-194.85C1400.12,-186.48 1477.77,-172.75 1544.19,-154 1546.84,-153.25 1549.56,-152.4 1552.28,-151.48"/>
<polygon fill="midnightblue" stroke="midnightblue" points="1553.69,-154.69 1561.91,-148.01 1551.31,-148.11 1553.69,-154.69"/>
</g>
<!-- Node27&#45;&gt;Node3 -->
<g id="edge49" class="edge">
<title>Node27&#45;&gt;Node3</title>
<path fill="none" stroke="midnightblue" d="M1258.27,-190.4C1245.62,-179.86 1228.37,-165.48 1215.42,-154.69"/>
<polygon fill="midnightblue" stroke="midnightblue" points="1217.55,-151.91 1207.63,-148.19 1213.07,-157.29 1217.55,-151.91"/>
</g>
<!-- Node27&#45;&gt;Node10 -->
<g id="edge46" class="edge">
<title>Node27&#45;&gt;Node10</title>
<path fill="none" stroke="midnightblue" d="M1272.15,-190.4C1270.12,-180.96 1267.43,-168.45 1265.22,-158.19"/>
<polygon fill="midnightblue" stroke="midnightblue" points="1268.59,-157.23 1263.07,-148.19 1261.75,-158.71 1268.59,-157.23"/>
</g>
<!-- Node27&#45;&gt;Node11 -->
<g id="edge47" class="edge">
<title>Node27&#45;&gt;Node11</title>
<path fill="none" stroke="midnightblue" d="M1335.66,-190.47C1373.95,-181.14 1424.33,-168.06 1468.19,-154 1470.6,-153.23 1473.09,-152.39 1475.57,-151.51"/>
<polygon fill="midnightblue" stroke="midnightblue" points="1476.85,-154.77 1485.03,-148.04 1474.44,-148.2 1476.85,-154.77"/>
</g>
<!-- Node27&#45;&gt;Node12 -->
<g id="edge48" class="edge">
<title>Node27&#45;&gt;Node12</title>
<path fill="none" stroke="midnightblue" d="M1284.39,-190.45C1294.7,-172.76 1308.03,-142.35 1292.19,-123 1264.97,-89.76 1135.73,-77.92 1074.07,-74.12"/>
<polygon fill="midnightblue" stroke="midnightblue" points="1074.27,-70.63 1064.08,-73.54 1073.86,-77.62 1074.27,-70.63"/>
</g>
<!-- Node28 -->
<g id="node29" class="node">
<title>Node28</title>
<g id="a_node29"><a xlink:href="never__destroyed_8h.html" target="_top" xlink:title=" ">
<polygon fill="white" stroke="black" points="1339.19,-123.5 1339.19,-153.5 1459.19,-153.5 1459.19,-123.5 1339.19,-123.5"/>
<text text-anchor="start" x="1347.19" y="-141.5" font-family="Helvetica,sans-Serif" font-size="10.00">drake/common/never</text>
<text text-anchor="middle" x="1399.19" y="-130.5" font-family="Helvetica,sans-Serif" font-size="10.00">_destroyed.h</text>
</a>
</g>
</g>
<!-- Node27&#45;&gt;Node28 -->
<g id="edge50" class="edge">
<title>Node27&#45;&gt;Node28</title>
<path fill="none" stroke="midnightblue" d="M1302.1,-190.4C1320.05,-180.98 1343.86,-168.5 1363.41,-158.26"/>
<polygon fill="midnightblue" stroke="midnightblue" points="1365.11,-161.32 1372.34,-153.58 1361.86,-155.12 1365.11,-161.32"/>
</g>
<!-- Node28&#45;&gt;Node5 -->
<g id="edge52" class="edge">
<title>Node28&#45;&gt;Node5</title>
<path fill="none" stroke="midnightblue" d="M1400.3,-123.44C1400.9,-104.85 1398.8,-72.53 1379.19,-56 1334.17,-18.05 925.11,-12.1 787.29,-11.17"/>
<polygon fill="midnightblue" stroke="midnightblue" points="787.1,-7.67 777.08,-11.11 787.06,-14.67 787.1,-7.67"/>
</g>
<!-- Node28&#45;&gt;Node6 -->
<g id="edge54" class="edge">
<title>Node28&#45;&gt;Node6</title>
<path fill="none" stroke="midnightblue" d="M1459.39,-124.8C1462.37,-124.18 1465.31,-123.58 1468.19,-123 1532.18,-110.04 1605.18,-95.86 1657.33,-85.84"/>
<polygon fill="midnightblue" stroke="midnightblue" points="1658.32,-89.21 1667.48,-83.89 1657,-82.34 1658.32,-89.21"/>
</g>
<!-- Node28&#45;&gt;Node12 -->
<g id="edge53" class="edge">
<title>Node28&#45;&gt;Node12</title>
<path fill="none" stroke="midnightblue" d="M1339.03,-125.62C1334.35,-124.72 1329.7,-123.84 1325.19,-123 1234.47,-106.05 1127.18,-87.33 1074.19,-78.18"/>
<polygon fill="midnightblue" stroke="midnightblue" points="1074.49,-74.67 1064.04,-76.42 1073.3,-81.57 1074.49,-74.67"/>
</g>
<!-- Node29 -->
<g id="node30" class="node">
<title>Node29</title>
<g id="a_node30"><a xlink:title=" ">
<polygon fill="white" stroke="#bfbfbf" points="1333.69,-62 1333.69,-81 1370.69,-81 1370.69,-62 1333.69,-62"/>
<text text-anchor="middle" x="1352.19" y="-69" font-family="Helvetica,sans-Serif" font-size="10.00">new</text>
</a>
</g>
</g>
<!-- Node28&#45;&gt;Node29 -->
<g id="edge51" class="edge">
<title>Node28&#45;&gt;Node29</title>
<path fill="none" stroke="midnightblue" d="M1388.99,-123.4C1381.81,-113.46 1372.16,-100.11 1364.54,-89.57"/>
<polygon fill="midnightblue" stroke="midnightblue" points="1367.18,-87.25 1358.48,-81.19 1361.5,-91.35 1367.18,-87.25"/>
</g>
</g>
</svg>
