<?xml version="1.0" encoding="UTF-8" standalone="no"?>
<!DOCTYPE svg PUBLIC "-//W3C//DTD SVG 1.1//EN"
 "http://www.w3.org/Graphics/SVG/1.1/DTD/svg11.dtd">
<!-- Generated by graphviz version 2.40.1 (20161225.0304)
 -->
<!-- Title: drake/geometry/render/gl_renderer/shader_program_data.h Pages: 1 -->
<!--zoomable 363 -->
<svg id="main" version="1.1" xmlns="http://www.w3.org/2000/svg" xmlns:xlink="http://www.w3.org/1999/xlink" xml:space="preserve" onload="init(evt)">
<style type="text/css"><![CDATA[
.edge:hover path { stroke: red; }
.edge:hover polygon { stroke: red; fill: red; }
]]></style>
<script type="text/javascript"><![CDATA[
var edges = document.getElementsByTagName('g');
if (edges && edges.length) {
  for (var i=0;i<edges.length;i++) {
    if (edges[i].id.substr(0,4)=='edge') {
      edges[i].setAttribute('class','edge');
    }
  }
}
]]></script>
        <defs>
                <circle id="rim" cx="0" cy="0" r="7"/>
                <circle id="rim2" cx="0" cy="0" r="3.5"/>
                <g id="zoomPlus">
                        <use xlink:href="#rim" fill="#404040">
                                <set attributeName="fill" to="#808080" begin="zoomplus.mouseover" end="zoomplus.mouseout"/>
                        </use>
                        <path d="M-4,0h8M0,-4v8" fill="none" stroke="white" stroke-width="1.5" pointer-events="none"/>
                </g>
                <g id="zoomMin">
                        <use xlink:href="#rim" fill="#404040">
                                <set attributeName="fill" to="#808080" begin="zoomminus.mouseover" end="zoomminus.mouseout"/>
                        </use>
                        <path d="M-4,0h8" fill="none" stroke="white" stroke-width="1.5" pointer-events="none"/>
                </g>
                <g id="dirArrow">
                        <path fill="none" stroke="white" stroke-width="1.5" d="M0,-3.0v7 M-2.5,-0.5L0,-3.0L2.5,-0.5"/>
                </g>
               <g id="resetDef">
                       <use xlink:href="#rim2" fill="#404040">
                               <set attributeName="fill" to="#808080" begin="reset.mouseover" end="reset.mouseout"/>
                       </use>
               </g>
        </defs>

<script type="text/javascript">
var viewWidth = 1522;
var viewHeight = 363;
var sectionId = 'dynsection-0';
</script>
<script xlink:href="svgpan.js"/>
<svg id="graph" class="graph">
<g id="viewport">
<title>drake/geometry/render/gl_renderer/shader_program_data.h</title>
<polygon fill="#ffffff" stroke="transparent" points="-4,4 -4,-359 1517.5489,-359 1517.5489,4 -4,4"/>
<!-- Node0 -->
<g id="node1" class="node">
<title>Node0</title>
<g id="a_node1"><a xlink:title=" ">
<polygon fill="#bfbfbf" stroke="#000000" points="378.0489,-313.5 378.0489,-354.5 536.0489,-354.5 536.0489,-313.5 378.0489,-313.5"/>
<text text-anchor="start" x="386.0489" y="-342.5" font-family="Helvetica,sans-Serif" font-size="10.00" fill="#000000">drake/geometry/render</text>
<text text-anchor="start" x="386.0489" y="-331.5" font-family="Helvetica,sans-Serif" font-size="10.00" fill="#000000">/gl_renderer/shader_program</text>
<text text-anchor="middle" x="457.0489" y="-320.5" font-family="Helvetica,sans-Serif" font-size="10.00" fill="#000000">_data.h</text>
</a>
</g>
</g>
<!-- Node1 -->
<g id="node2" class="node">
<title>Node1</title>
<g id="a_node2"><a xlink:title=" ">
<polygon fill="#ffffff" stroke="#bfbfbf" points="118.0489,-129 118.0489,-148 176.0489,-148 176.0489,-129 118.0489,-129"/>
<text text-anchor="middle" x="147.0489" y="-136" font-family="Helvetica,sans-Serif" font-size="10.00" fill="#000000">memory</text>
</a>
</g>
</g>
<!-- Node0&#45;&gt;Node1 -->
<g id="edge1" class="edge">
<title>Node0&#45;&gt;Node1</title>
<path fill="none" stroke="#191970" d="M377.9072,-319.0132C286.7066,-299.946 145.3311,-264.2419 114.0489,-221 99.5185,-200.9143 116.2351,-173.5357 130.6942,-155.9354"/>
<polygon fill="#191970" stroke="#191970" points="133.54,-157.9968 137.4642,-148.1555 128.2594,-153.4017 133.54,-157.9968"/>
</g>
<!-- Node2 -->
<g id="node3" class="node">
<title>Node2</title>
<g id="a_node3"><a xlink:title=" ">
<polygon fill="#ffffff" stroke="#bfbfbf" points="200.5489,-62 200.5489,-81 245.5489,-81 245.5489,-62 200.5489,-62"/>
<text text-anchor="middle" x="223.0489" y="-69" font-family="Helvetica,sans-Serif" font-size="10.00" fill="#000000">utility</text>
</a>
</g>
</g>
<!-- Node0&#45;&gt;Node2 -->
<g id="edge2" class="edge">
<title>Node0&#45;&gt;Node2</title>
<path fill="none" stroke="#191970" d="M377.96,-322.8338C269.5714,-305.9008 83.0374,-270.3916 37.0489,-221 6.4912,-188.181 -14.627,-158.2832 13.0489,-123 34.7147,-95.379 136.8131,-80.6285 190.253,-74.6854"/>
<polygon fill="#191970" stroke="#191970" points="190.6842,-78.1594 200.254,-73.613 189.9378,-71.1993 190.6842,-78.1594"/>
</g>
<!-- Node3 -->
<g id="node4" class="node">
<title>Node3</title>
<g id="a_node4"><a xlink:href="copyable__unique__ptr_8h.html" target="_top" xlink:title=" ">
<polygon fill="#ffffff" stroke="#000000" points="671.5489,-190.5 671.5489,-220.5 808.5489,-220.5 808.5489,-190.5 671.5489,-190.5"/>
<text text-anchor="start" x="679.5489" y="-208.5" font-family="Helvetica,sans-Serif" font-size="10.00" fill="#000000">drake/common/copyable</text>
<text text-anchor="middle" x="740.0489" y="-197.5" font-family="Helvetica,sans-Serif" font-size="10.00" fill="#000000">_unique_ptr.h</text>
</a>
</g>
</g>
<!-- Node0&#45;&gt;Node3 -->
<g id="edge3" class="edge">
<title>Node0&#45;&gt;Node3</title>
<path fill="none" stroke="#191970" d="M502.204,-313.4967C555.9725,-289.0824 645.0866,-248.6189 697.6238,-224.7637"/>
<polygon fill="#191970" stroke="#191970" points="699.3329,-227.8316 706.9912,-220.5103 696.4388,-221.4579 699.3329,-227.8316"/>
</g>
<!-- Node8 -->
<g id="node9" class="node">
<title>Node8</title>
<g id="a_node9"><a xlink:href="identifier_8h.html" target="_top" xlink:title=" ">
<polygon fill="#ffffff" stroke="#000000" points="908.0489,-257.5 908.0489,-276.5 1054.0489,-276.5 1054.0489,-257.5 908.0489,-257.5"/>
<text text-anchor="middle" x="981.0489" y="-264.5" font-family="Helvetica,sans-Serif" font-size="10.00" fill="#000000">drake/common/identifier.h</text>
</a>
</g>
</g>
<!-- Node0&#45;&gt;Node8 -->
<g id="edge10" class="edge">
<title>Node0&#45;&gt;Node8</title>
<path fill="none" stroke="#191970" d="M536.0644,-323.8969C633.5002,-311.4385 798.3747,-290.3572 897.7428,-277.6517"/>
<polygon fill="#191970" stroke="#191970" points="898.2682,-281.1131 907.7435,-276.373 897.3803,-274.1697 898.2682,-281.1131"/>
</g>
<!-- Node21 -->
<g id="node22" class="node">
<title>Node21</title>
<g id="a_node22"><a xlink:href="value_8h.html" target="_top" xlink:title=" ">
<polygon fill="#ffffff" stroke="#000000" points="392.5489,-257.5 392.5489,-276.5 521.5489,-276.5 521.5489,-257.5 392.5489,-257.5"/>
<text text-anchor="middle" x="457.0489" y="-264.5" font-family="Helvetica,sans-Serif" font-size="10.00" fill="#000000">drake/common/value.h</text>
</a>
</g>
</g>
<!-- Node0&#45;&gt;Node21 -->
<g id="edge32" class="edge">
<title>Node0&#45;&gt;Node21</title>
<path fill="none" stroke="#191970" d="M457.0489,-313.168C457.0489,-304.8226 457.0489,-295.2471 457.0489,-286.9879"/>
<polygon fill="#191970" stroke="#191970" points="460.549,-286.7804 457.0489,-276.7805 453.549,-286.7805 460.549,-286.7804"/>
</g>
<!-- Node3&#45;&gt;Node1 -->
<g id="edge6" class="edge">
<title>Node3&#45;&gt;Node1</title>
<path fill="none" stroke="#191970" d="M671.3082,-199.3503C552.1153,-188.5588 311.812,-166.2024 228.0489,-154 214.4099,-152.0131 199.5747,-149.3287 186.3716,-146.7524"/>
<polygon fill="#191970" stroke="#191970" points="186.6778,-143.2447 176.1868,-144.7248 185.311,-150.11 186.6778,-143.2447"/>
</g>
<!-- Node3&#45;&gt;Node2 -->
<g id="edge7" class="edge">
<title>Node3&#45;&gt;Node2</title>
<path fill="none" stroke="#191970" d="M671.0545,-199.7247C543.5746,-188.8152 282.5388,-165.2638 266.0489,-154 244.5428,-139.3097 233.069,-110.3937 227.5217,-91.0014"/>
<polygon fill="#191970" stroke="#191970" points="230.8567,-89.9174 224.9663,-81.1109 224.0792,-91.6686 230.8567,-89.9174"/>
</g>
<!-- Node4 -->
<g id="node5" class="node">
<title>Node4</title>
<g id="a_node5"><a xlink:title=" ">
<polygon fill="#ffffff" stroke="#bfbfbf" points="915.5489,-129 915.5489,-148 968.5489,-148 968.5489,-129 915.5489,-129"/>
<text text-anchor="middle" x="942.0489" y="-136" font-family="Helvetica,sans-Serif" font-size="10.00" fill="#000000">cstddef</text>
</a>
</g>
</g>
<!-- Node3&#45;&gt;Node4 -->
<g id="edge4" class="edge">
<title>Node3&#45;&gt;Node4</title>
<path fill="none" stroke="#191970" d="M793.6086,-190.448C826.3682,-180.8561 868.9672,-167.6914 906.0489,-154 907.8682,-153.3283 909.7286,-152.614 911.5984,-151.875"/>
<polygon fill="#191970" stroke="#191970" points="912.9632,-155.0982 920.879,-148.0561 910.2995,-148.6248 912.9632,-155.0982"/>
</g>
<!-- Node5 -->
<g id="node6" class="node">
<title>Node5</title>
<g id="a_node6"><a xlink:title=" ">
<polygon fill="#ffffff" stroke="#bfbfbf" points="837.0489,-129 837.0489,-148 897.0489,-148 897.0489,-129 837.0489,-129"/>
<text text-anchor="middle" x="867.0489" y="-136" font-family="Helvetica,sans-Serif" font-size="10.00" fill="#000000">iostream</text>
</a>
</g>
</g>
<!-- Node3&#45;&gt;Node5 -->
<g id="edge5" class="edge">
<title>Node3&#45;&gt;Node5</title>
<path fill="none" stroke="#191970" d="M768.5502,-190.4639C789.8592,-179.2222 818.815,-163.9463 839.8128,-152.8686"/>
<polygon fill="#191970" stroke="#191970" points="841.633,-155.8657 848.8445,-148.1039 838.3667,-149.6744 841.633,-155.8657"/>
</g>
<!-- Node6 -->
<g id="node7" class="node">
<title>Node6</title>
<g id="a_node7"><a xlink:href="drake__assert_8h.html" target="_top" xlink:title="Provides Drake&#39;s assertion implementation.">
<polygon fill="#ffffff" stroke="#000000" points="842.5489,-56.5 842.5489,-86.5 963.5489,-86.5 963.5489,-56.5 842.5489,-56.5"/>
<text text-anchor="start" x="850.5489" y="-74.5" font-family="Helvetica,sans-Serif" font-size="10.00" fill="#000000">drake/common/drake</text>
<text text-anchor="middle" x="903.0489" y="-63.5" font-family="Helvetica,sans-Serif" font-size="10.00" fill="#000000">_assert.h</text>
</a>
</g>
</g>
<!-- Node3&#45;&gt;Node6 -->
<g id="edge8" class="edge">
<title>Node3&#45;&gt;Node6</title>
<path fill="none" stroke="#191970" d="M754.6811,-190.4675C771.653,-173.3499 800.7988,-144.9208 828.0489,-123 841.4763,-112.1986 857.0808,-101.25 870.568,-92.2416"/>
<polygon fill="#191970" stroke="#191970" points="872.663,-95.0525 879.0812,-86.6229 868.8071,-89.2102 872.663,-95.0525"/>
</g>
<!-- Node7 -->
<g id="node8" class="node">
<title>Node7</title>
<g id="a_node8"><a xlink:title=" ">
<polygon fill="#ffffff" stroke="#bfbfbf" points="687.5489,-.5 687.5489,-19.5 756.5489,-19.5 756.5489,-.5 687.5489,-.5"/>
<text text-anchor="middle" x="722.0489" y="-7.5" font-family="Helvetica,sans-Serif" font-size="10.00" fill="#000000">type_traits</text>
</a>
</g>
</g>
<!-- Node6&#45;&gt;Node7 -->
<g id="edge9" class="edge">
<title>Node6&#45;&gt;Node7</title>
<path fill="none" stroke="#191970" d="M858.7713,-56.4554C828.4386,-46.149 788.636,-32.6249 759.8045,-22.8286"/>
<polygon fill="#191970" stroke="#191970" points="760.6919,-19.4336 750.0975,-19.5303 758.4398,-26.0615 760.6919,-19.4336"/>
</g>
<!-- Node9 -->
<g id="node10" class="node">
<title>Node9</title>
<g id="a_node10"><a xlink:title=" ">
<polygon fill="#ffffff" stroke="#bfbfbf" points="1175.0489,-196 1175.0489,-215 1225.0489,-215 1225.0489,-196 1175.0489,-196"/>
<text text-anchor="middle" x="1200.0489" y="-203" font-family="Helvetica,sans-Serif" font-size="10.00" fill="#000000">cstdint</text>
</a>
</g>
</g>
<!-- Node8&#45;&gt;Node9 -->
<g id="edge11" class="edge">
<title>Node8&#45;&gt;Node9</title>
<path fill="none" stroke="#191970" d="M1024.7762,-257.4791C1061.5062,-249.0891 1115.1901,-235.9049 1161.0489,-221 1163.3291,-220.2589 1165.6674,-219.4523 1168.0113,-218.6091"/>
<polygon fill="#191970" stroke="#191970" points="1169.4229,-221.8174 1177.5432,-215.0123 1166.9515,-215.2682 1169.4229,-221.8174"/>
</g>
<!-- Node10 -->
<g id="node11" class="node">
<title>Node10</title>
<g id="a_node11"><a xlink:title=" ">
<polygon fill="#ffffff" stroke="#bfbfbf" points="1061.5489,-196 1061.5489,-215 1118.5489,-215 1118.5489,-196 1061.5489,-196"/>
<text text-anchor="middle" x="1090.0489" y="-203" font-family="Helvetica,sans-Serif" font-size="10.00" fill="#000000">ostream</text>
</a>
</g>
</g>
<!-- Node8&#45;&gt;Node10 -->
<g id="edge12" class="edge">
<title>Node8&#45;&gt;Node10</title>
<path fill="none" stroke="#191970" d="M998.0802,-257.3906C1015.8379,-247.3713 1043.882,-231.5483 1064.3372,-220.0071"/>
<polygon fill="#191970" stroke="#191970" points="1066.1478,-223.0042 1073.1373,-215.0419 1062.708,-216.9077 1066.1478,-223.0042"/>
</g>
<!-- Node11 -->
<g id="node12" class="node">
<title>Node11</title>
<g id="a_node12"><a xlink:title=" ">
<polygon fill="#ffffff" stroke="#bfbfbf" points="633.0489,-129 633.0489,-148 677.0489,-148 677.0489,-129 633.0489,-129"/>
<text text-anchor="middle" x="655.0489" y="-136" font-family="Helvetica,sans-Serif" font-size="10.00" fill="#000000">string</text>
</a>
</g>
</g>
<!-- Node8&#45;&gt;Node11 -->
<g id="edge13" class="edge">
<title>Node8&#45;&gt;Node11</title>
<path fill="none" stroke="#191970" d="M950.0498,-257.4771C925.2605,-249.3097 889.989,-236.4331 861.0489,-221 839.9411,-209.7437 838.6821,-200.2104 817.0489,-190 762.4446,-164.228 742.4321,-175.6046 686.0489,-154 684.6793,-153.4752 683.2895,-152.9098 681.8957,-152.3164"/>
<polygon fill="#191970" stroke="#191970" points="683.3588,-149.1369 672.8125,-148.1244 680.4255,-155.4927 683.3588,-149.1369"/>
</g>
<!-- Node12 -->
<g id="node13" class="node">
<title>Node12</title>
<g id="a_node13"><a xlink:href="drake__copyable_8h.html" target="_top" xlink:title="Provides careful macros to selectively enable or disable the special member functions for copy&#45;constr...">
<polygon fill="#ffffff" stroke="#000000" points="486.5489,-56.5 486.5489,-86.5 607.5489,-86.5 607.5489,-56.5 486.5489,-56.5"/>
<text text-anchor="start" x="494.5489" y="-74.5" font-family="Helvetica,sans-Serif" font-size="10.00" fill="#000000">drake/common/drake</text>
<text text-anchor="middle" x="547.0489" y="-63.5" font-family="Helvetica,sans-Serif" font-size="10.00" fill="#000000">_copyable.h</text>
</a>
</g>
</g>
<!-- Node8&#45;&gt;Node12 -->
<g id="edge14" class="edge">
<title>Node8&#45;&gt;Node12</title>
<path fill="none" stroke="#191970" d="M966.3798,-257.4427C919.3776,-226.8719 774.2309,-132.8924 751.0489,-123 708.3076,-104.7611 657.6673,-91.9315 617.5342,-83.6391"/>
<polygon fill="#191970" stroke="#191970" points="618.0632,-80.1754 607.5685,-81.6281 616.6785,-87.0371 618.0632,-80.1754"/>
</g>
<!-- Node13 -->
<g id="node14" class="node">
<title>Node13</title>
<g id="a_node14"><a xlink:href="drake__throw_8h.html" target="_top" xlink:title="Provides a convenient wrapper to throw an exception when a condition is unmet.">
<polygon fill="#ffffff" stroke="#000000" points="1392.5489,-123.5 1392.5489,-153.5 1513.5489,-153.5 1513.5489,-123.5 1392.5489,-123.5"/>
<text text-anchor="start" x="1400.5489" y="-141.5" font-family="Helvetica,sans-Serif" font-size="10.00" fill="#000000">drake/common/drake</text>
<text text-anchor="middle" x="1453.0489" y="-130.5" font-family="Helvetica,sans-Serif" font-size="10.00" fill="#000000">_throw.h</text>
</a>
</g>
</g>
<!-- Node8&#45;&gt;Node13 -->
<g id="edge15" class="edge">
<title>Node8&#45;&gt;Node13</title>
<path fill="none" stroke="#191970" d="M1026.889,-257.4342C1056.8296,-250.0545 1096.143,-238.1736 1128.0489,-221 1147.2412,-210.6696 1146.2033,-199.0117 1166.0489,-190 1253.0685,-150.4852 1284.1263,-171.6741 1378.0489,-154 1379.5189,-153.7234 1381.0046,-153.4411 1382.5016,-153.1543"/>
<polygon fill="#191970" stroke="#191970" points="1383.3573,-156.5535 1392.5033,-151.2055 1382.0185,-149.6827 1383.3573,-156.5535"/>
</g>
<!-- Node14 -->
<g id="node15" class="node">
<title>Node14</title>
<g id="a_node15"><a xlink:href="hash_8h.html" target="_top" xlink:title=" ">
<polygon fill="#ffffff" stroke="#000000" points="918.5489,-196 918.5489,-215 1043.5489,-215 1043.5489,-196 918.5489,-196"/>
<text text-anchor="middle" x="981.0489" y="-203" font-family="Helvetica,sans-Serif" font-size="10.00" fill="#000000">drake/common/hash.h</text>
</a>
</g>
</g>
<!-- Node8&#45;&gt;Node14 -->
<g id="edge18" class="edge">
<title>Node8&#45;&gt;Node14</title>
<path fill="none" stroke="#191970" d="M981.0489,-257.3906C981.0489,-248.8657 981.0489,-236.1392 981.0489,-225.4235"/>
<polygon fill="#191970" stroke="#191970" points="984.549,-225.2448 981.0489,-215.2449 977.549,-225.2449 984.549,-225.2448"/>
</g>
<!-- Node13&#45;&gt;Node6 -->
<g id="edge17" class="edge">
<title>Node13&#45;&gt;Node6</title>
<path fill="none" stroke="#191970" d="M1392.54,-129.5271C1377.0681,-127.3122 1360.4519,-125.0023 1345.0489,-123 1214.2441,-105.9962 1061.3077,-88.7653 973.9464,-79.174"/>
<polygon fill="#191970" stroke="#191970" points="974.2051,-75.6815 963.8833,-78.0712 973.4424,-82.6398 974.2051,-75.6815"/>
</g>
<!-- Node13&#45;&gt;Node7 -->
<g id="edge16" class="edge">
<title>Node13&#45;&gt;Node7</title>
<path fill="none" stroke="#191970" d="M1444.4293,-123.3876C1432.3847,-103.9051 1408.5291,-70.7798 1378.0489,-56 1323.4209,-29.5109 906.682,-15.2834 767.297,-11.229"/>
<polygon fill="#191970" stroke="#191970" points="767.0755,-7.7213 756.9792,-10.9328 766.8746,-14.7184 767.0755,-7.7213"/>
</g>
<!-- Node14&#45;&gt;Node2 -->
<g id="edge28" class="edge">
<title>Node14&#45;&gt;Node2</title>
<path fill="none" stroke="#191970" d="M918.3904,-199.2098C887.8372,-196.2366 850.5405,-192.7461 817.0489,-190 702.0461,-180.5706 403.0563,-203.9703 299.0489,-154 291.2323,-150.2445 257.4987,-111.7737 237.6986,-88.7157"/>
<polygon fill="#191970" stroke="#191970" points="240.268,-86.335 231.1081,-81.0108 234.9486,-90.8851 240.268,-86.335"/>
</g>
<!-- Node14&#45;&gt;Node4 -->
<g id="edge20" class="edge">
<title>Node14&#45;&gt;Node4</title>
<path fill="none" stroke="#191970" d="M975.4612,-195.9005C969.5532,-185.751 960.0902,-169.4941 952.7407,-156.8679"/>
<polygon fill="#191970" stroke="#191970" points="955.6819,-154.9634 947.6263,-148.0817 949.6322,-158.4849 955.6819,-154.9634"/>
</g>
<!-- Node14&#45;&gt;Node5 -->
<g id="edge22" class="edge">
<title>Node14&#45;&gt;Node5</title>
<path fill="none" stroke="#191970" d="M964.7155,-195.9005C945.753,-184.7559 914.2615,-166.2477 892.1769,-153.2682"/>
<polygon fill="#191970" stroke="#191970" points="893.7468,-150.1311 883.352,-148.0817 890.1999,-156.1661 893.7468,-150.1311"/>
</g>
<!-- Node14&#45;&gt;Node6 -->
<g id="edge30" class="edge">
<title>Node14&#45;&gt;Node6</title>
<path fill="none" stroke="#191970" d="M983.3269,-195.8691C986.6106,-179.681 990.962,-146.4857 978.0489,-123 971.0066,-110.1918 959.2555,-99.914 947.1201,-92.0109"/>
<polygon fill="#191970" stroke="#191970" points="948.6475,-88.8447 938.2775,-86.6736 945.0302,-94.8377 948.6475,-88.8447"/>
</g>
<!-- Node14&#45;&gt;Node7 -->
<g id="edge27" class="edge">
<title>Node14&#45;&gt;Node7</title>
<path fill="none" stroke="#191970" d="M1022.4269,-195.9303C1032.4194,-193.8028 1043.0888,-191.6826 1053.0489,-190 1184.3389,-167.8205 1430.3863,-225.2083 1345.0489,-123 1270.8816,-34.17 897.2969,-15.0205 766.9775,-11.0208"/>
<polygon fill="#191970" stroke="#191970" points="767.0337,-7.5211 756.9359,-10.7281 766.8296,-14.5181 767.0337,-7.5211"/>
</g>
<!-- Node14&#45;&gt;Node11 -->
<g id="edge26" class="edge">
<title>Node14&#45;&gt;Node11</title>
<path fill="none" stroke="#191970" d="M918.3981,-196.7442C845.0228,-186.1076 728.1448,-167.868 686.0489,-154 684.438,-153.4693 682.806,-152.8675 681.1771,-152.2168"/>
<polygon fill="#191970" stroke="#191970" points="682.6052,-149.0215 672.0498,-148.1082 679.7318,-155.4046 682.6052,-149.0215"/>
</g>
<!-- Node14&#45;&gt;Node13 -->
<g id="edge31" class="edge">
<title>Node14&#45;&gt;Node13</title>
<path fill="none" stroke="#191970" d="M1022.0332,-195.9227C1032.135,-193.7709 1042.9524,-191.6416 1053.0489,-190 1196.4932,-166.6773 1234.5098,-176.7313 1378.0489,-154 1379.3416,-153.7953 1380.6458,-153.5834 1381.9587,-153.3652"/>
<polygon fill="#191970" stroke="#191970" points="1382.9004,-156.7537 1392.1476,-151.5827 1381.694,-149.8584 1382.9004,-156.7537"/>
</g>
<!-- Node15 -->
<g id="node16" class="node">
<title>Node15</title>
<g id="a_node16"><a xlink:title=" ">
<polygon fill="#ffffff" stroke="#bfbfbf" points="1075.5489,-129 1075.5489,-148 1122.5489,-148 1122.5489,-129 1075.5489,-129"/>
<text text-anchor="middle" x="1099.0489" y="-136" font-family="Helvetica,sans-Serif" font-size="10.00" fill="#000000">cmath</text>
</a>
</g>
</g>
<!-- Node14&#45;&gt;Node15 -->
<g id="edge19" class="edge">
<title>Node14&#45;&gt;Node15</title>
<path fill="none" stroke="#191970" d="M997.9555,-195.9005C1017.6709,-184.7062 1050.4711,-166.0823 1073.3448,-153.0947"/>
<polygon fill="#191970" stroke="#191970" points="1075.2059,-156.0629 1082.1738,-148.0817 1071.7496,-149.9757 1075.2059,-156.0629"/>
</g>
<!-- Node16 -->
<g id="node17" class="node">
<title>Node16</title>
<g id="a_node17"><a xlink:title=" ">
<polygon fill="#ffffff" stroke="#bfbfbf" points="1140.5489,-129 1140.5489,-148 1205.5489,-148 1205.5489,-129 1140.5489,-129"/>
<text text-anchor="middle" x="1173.0489" y="-136" font-family="Helvetica,sans-Serif" font-size="10.00" fill="#000000">functional</text>
</a>
</g>
</g>
<!-- Node14&#45;&gt;Node16 -->
<g id="edge21" class="edge">
<title>Node14&#45;&gt;Node16</title>
<path fill="none" stroke="#191970" d="M1010.0949,-195.9076C1040.5711,-185.7695 1089.8231,-169.1779 1132.0489,-154 1134.1436,-153.2471 1136.2948,-152.4639 1138.4623,-151.6671"/>
<polygon fill="#191970" stroke="#191970" points="1139.7931,-154.9065 1147.945,-148.1392 1137.3522,-148.3458 1139.7931,-154.9065"/>
</g>
<!-- Node17 -->
<g id="node18" class="node">
<title>Node17</title>
<g id="a_node18"><a xlink:title=" ">
<polygon fill="#ffffff" stroke="#bfbfbf" points="1224.0489,-129 1224.0489,-148 1262.0489,-148 1262.0489,-129 1224.0489,-129"/>
<text text-anchor="middle" x="1243.0489" y="-136" font-family="Helvetica,sans-Serif" font-size="10.00" fill="#000000">map</text>
</a>
</g>
</g>
<!-- Node14&#45;&gt;Node17 -->
<g id="edge23" class="edge">
<title>Node14&#45;&gt;Node17</title>
<path fill="none" stroke="#191970" d="M1025.1045,-195.9714C1091.6469,-181.5557 1210.5738,-155.6901 1215.0489,-154 1216.2477,-153.5473 1217.4577,-153.0503 1218.6672,-152.5208"/>
<polygon fill="#191970" stroke="#191970" points="1220.3353,-155.6003 1227.7341,-148.0169 1217.2211,-149.3311 1220.3353,-155.6003"/>
</g>
<!-- Node18 -->
<g id="node19" class="node">
<title>Node18</title>
<g id="a_node19"><a xlink:title=" ">
<polygon fill="#ffffff" stroke="#bfbfbf" points="1280.0489,-129 1280.0489,-148 1336.0489,-148 1336.0489,-129 1280.0489,-129"/>
<text text-anchor="middle" x="1308.0489" y="-136" font-family="Helvetica,sans-Serif" font-size="10.00" fill="#000000">optional</text>
</a>
</g>
</g>
<!-- Node14&#45;&gt;Node18 -->
<g id="edge24" class="edge">
<title>Node14&#45;&gt;Node18</title>
<path fill="none" stroke="#191970" d="M1023.6204,-195.9787C1033.2782,-193.9181 1043.5022,-191.8148 1053.0489,-190 1149.5225,-171.6611 1176.6772,-181.1559 1271.0489,-154 1273.3643,-153.3338 1275.7295,-152.5645 1278.0888,-151.7323"/>
<polygon fill="#191970" stroke="#191970" points="1279.5414,-154.9235 1287.6118,-148.0592 1277.0222,-148.3925 1279.5414,-154.9235"/>
</g>
<!-- Node19 -->
<g id="node20" class="node">
<title>Node19</title>
<g id="a_node20"><a xlink:title=" ">
<polygon fill="#ffffff" stroke="#bfbfbf" points="1025.0489,-129 1025.0489,-148 1057.0489,-148 1057.0489,-129 1025.0489,-129"/>
<text text-anchor="middle" x="1041.0489" y="-136" font-family="Helvetica,sans-Serif" font-size="10.00" fill="#000000">set</text>
</a>
</g>
</g>
<!-- Node14&#45;&gt;Node19 -->
<g id="edge25" class="edge">
<title>Node14&#45;&gt;Node19</title>
<path fill="none" stroke="#191970" d="M989.6455,-195.9005C999.0019,-185.4525 1014.1542,-168.5325 1025.5891,-155.7635"/>
<polygon fill="#191970" stroke="#191970" points="1028.4044,-157.8661 1032.4683,-148.0817 1023.1898,-153.1963 1028.4044,-157.8661"/>
</g>
<!-- Node20 -->
<g id="node21" class="node">
<title>Node20</title>
<g id="a_node21"><a xlink:title=" ">
<polygon fill="#ffffff" stroke="#bfbfbf" points="695.5489,-129 695.5489,-148 742.5489,-148 742.5489,-129 695.5489,-129"/>
<text text-anchor="middle" x="719.0489" y="-136" font-family="Helvetica,sans-Serif" font-size="10.00" fill="#000000">vector</text>
</a>
</g>
</g>
<!-- Node14&#45;&gt;Node20 -->
<g id="edge29" class="edge">
<title>Node14&#45;&gt;Node20</title>
<path fill="none" stroke="#191970" d="M943.789,-195.9717C892.6138,-182.8849 801.3588,-159.5487 752.3513,-147.0163"/>
<polygon fill="#191970" stroke="#191970" points="753.12,-143.6003 742.5646,-144.5135 751.3856,-150.382 753.12,-143.6003"/>
</g>
<!-- Node21&#45;&gt;Node1 -->
<g id="edge33" class="edge">
<title>Node21&#45;&gt;Node1</title>
<path fill="none" stroke="#191970" d="M392.3316,-262.5525C300.7082,-255.5882 142.3189,-240.8278 125.0489,-221 109.3075,-202.9272 122.2255,-174.7747 133.8807,-156.4839"/>
<polygon fill="#191970" stroke="#191970" points="136.8148,-158.3933 139.5357,-148.1538 131.0232,-154.4616 136.8148,-158.3933"/>
</g>
<!-- Node21&#45;&gt;Node2 -->
<g id="edge38" class="edge">
<title>Node21&#45;&gt;Node2</title>
<path fill="none" stroke="#191970" d="M392.3122,-264.599C299.397,-260.2298 133.6218,-248.7231 81.0489,-221 45.952,-202.4924 36.0633,-191.1203 22.0489,-154 17.1825,-141.1103 13.6017,-133.8845 22.0489,-123 42.5564,-96.5757 139.0825,-81.3879 190.5456,-75.0395"/>
<polygon fill="#191970" stroke="#191970" points="190.9855,-78.5119 200.5008,-73.8525 190.1567,-71.5612 190.9855,-78.5119"/>
</g>
<!-- Node21&#45;&gt;Node3 -->
<g id="edge39" class="edge">
<title>Node21&#45;&gt;Node3</title>
<path fill="none" stroke="#191970" d="M500.9572,-257.4581C543.7649,-248.1554 609.807,-233.8035 661.6433,-222.5387"/>
<polygon fill="#191970" stroke="#191970" points="662.4501,-225.9451 671.4787,-220.4013 660.9635,-219.1048 662.4501,-225.9451"/>
</g>
<!-- Node21&#45;&gt;Node7 -->
<g id="edge36" class="edge">
<title>Node21&#45;&gt;Node7</title>
<path fill="none" stroke="#191970" d="M496.0577,-257.4348C518.7687,-250.3295 546.8187,-238.7446 567.0489,-221 604.9291,-187.7741 594.747,-163.991 624.0489,-123 649.8929,-86.8464 684.9792,-48.5311 705.4011,-27.1012"/>
<polygon fill="#191970" stroke="#191970" points="708.0555,-29.3903 712.4602,-19.7545 703.0079,-24.5404 708.0555,-29.3903"/>
</g>
<!-- Node21&#45;&gt;Node11 -->
<g id="edge35" class="edge">
<title>Node21&#45;&gt;Node11</title>
<path fill="none" stroke="#191970" d="M508.0619,-257.4615C549.0495,-248.9167 602.4247,-235.522 619.0489,-221 637.7416,-204.6711 647.0969,-176.8476 651.5057,-158.0779"/>
<polygon fill="#191970" stroke="#191970" points="654.9444,-158.7326 653.5632,-148.2282 648.0923,-157.3012 654.9444,-158.7326"/>
</g>
<!-- Node21&#45;&gt;Node12 -->
<g id="edge40" class="edge">
<title>Node21&#45;&gt;Node12</title>
<path fill="none" stroke="#191970" d="M496.0259,-257.3933C514.9109,-250.5635 535.8747,-239.2604 547.0489,-221 570.4183,-182.8108 562.2938,-128.2079 554.5076,-96.6509"/>
<polygon fill="#191970" stroke="#191970" points="557.8665,-95.6622 551.926,-86.8894 551.0992,-97.452 557.8665,-95.6622"/>
</g>
<!-- Node21&#45;&gt;Node14 -->
<g id="edge41" class="edge">
<title>Node21&#45;&gt;Node14</title>
<path fill="none" stroke="#191970" d="M521.5642,-259.4281C619.6501,-247.9161 805.7031,-226.0797 908.4092,-214.0255"/>
<polygon fill="#191970" stroke="#191970" points="908.862,-217.4964 918.3858,-212.8545 908.046,-210.5442 908.862,-217.4964"/>
</g>
<!-- Node22 -->
<g id="node23" class="node">
<title>Node22</title>
<g id="a_node23"><a xlink:title=" ">
<polygon fill="#ffffff" stroke="#bfbfbf" points="292.5489,-196 292.5489,-215 357.5489,-215 357.5489,-196 292.5489,-196"/>
<text text-anchor="middle" x="325.0489" y="-203" font-family="Helvetica,sans-Serif" font-size="10.00" fill="#000000">stdexcept</text>
</a>
</g>
</g>
<!-- Node21&#45;&gt;Node22 -->
<g id="edge34" class="edge">
<title>Node21&#45;&gt;Node22</title>
<path fill="none" stroke="#191970" d="M436.4239,-257.3906C414.5316,-247.1908 379.7297,-230.9763 354.8562,-219.3875"/>
<polygon fill="#191970" stroke="#191970" points="356.0717,-216.0926 345.5291,-215.0419 353.1154,-222.4377 356.0717,-216.0926"/>
</g>
<!-- Node23 -->
<g id="node24" class="node">
<title>Node23</title>
<g id="a_node24"><a xlink:title=" ">
<polygon fill="#ffffff" stroke="#bfbfbf" points="31.5489,-129 31.5489,-148 88.5489,-148 88.5489,-129 31.5489,-129"/>
<text text-anchor="middle" x="60.0489" y="-136" font-family="Helvetica,sans-Serif" font-size="10.00" fill="#000000">typeinfo</text>
</a>
</g>
</g>
<!-- Node21&#45;&gt;Node23 -->
<g id="edge37" class="edge">
<title>Node21&#45;&gt;Node23</title>
<path fill="none" stroke="#191970" d="M392.4343,-264.6779C306.1972,-260.5167 159.0987,-249.3868 114.0489,-221 90.4781,-206.1475 75.0521,-176.8358 66.9415,-157.4525"/>
<polygon fill="#191970" stroke="#191970" points="70.1844,-156.135 63.2726,-148.1053 63.6684,-158.6927 70.1844,-156.135"/>
</g>
<!-- Node24 -->
<g id="node25" class="node">
<title>Node24</title>
<g id="a_node25"><a xlink:href="is__cloneable_8h.html" target="_top" xlink:title=" ">
<polygon fill="#ffffff" stroke="#000000" points="375.5489,-196 375.5489,-215 538.5489,-215 538.5489,-196 375.5489,-196"/>
<text text-anchor="middle" x="457.0489" y="-203" font-family="Helvetica,sans-Serif" font-size="10.00" fill="#000000">drake/common/is_cloneable.h</text>
</a>
</g>
</g>
<!-- Node21&#45;&gt;Node24 -->
<g id="edge42" class="edge">
<title>Node21&#45;&gt;Node24</title>
<path fill="none" stroke="#191970" d="M457.0489,-257.3906C457.0489,-248.8657 457.0489,-236.1392 457.0489,-225.4235"/>
<polygon fill="#191970" stroke="#191970" points="460.549,-225.2448 457.0489,-215.2449 453.549,-225.2449 460.549,-225.2448"/>
</g>
<!-- Node25 -->
<g id="node26" class="node">
<title>Node25</title>
<g id="a_node26"><a xlink:href="nice__type__name_8h.html" target="_top" xlink:title=" ">
<polygon fill="#ffffff" stroke="#000000" points="134.0489,-190.5 134.0489,-220.5 274.0489,-220.5 274.0489,-190.5 134.0489,-190.5"/>
<text text-anchor="start" x="142.0489" y="-208.5" font-family="Helvetica,sans-Serif" font-size="10.00" fill="#000000">drake/common/nice_type</text>
<text text-anchor="middle" x="204.0489" y="-197.5" font-family="Helvetica,sans-Serif" font-size="10.00" fill="#000000">_name.h</text>
</a>
</g>
</g>
<!-- Node21&#45;&gt;Node25 -->
<g id="edge45" class="edge">
<title>Node21&#45;&gt;Node25</title>
<path fill="none" stroke="#191970" d="M417.7953,-257.4581C380.0376,-248.2799 322.061,-234.1867 276.0105,-222.9926"/>
<polygon fill="#191970" stroke="#191970" points="276.6226,-219.5396 266.0789,-220.5784 274.9692,-226.3415 276.6226,-219.5396"/>
</g>
<!-- Node24&#45;&gt;Node1 -->
<g id="edge43" class="edge">
<title>Node24&#45;&gt;Node1</title>
<path fill="none" stroke="#191970" d="M412.9627,-195.9717C352.2516,-182.8503 243.8665,-159.4251 185.9931,-146.917"/>
<polygon fill="#191970" stroke="#191970" points="186.6499,-143.4782 176.1362,-144.7866 185.1711,-150.3202 186.6499,-143.4782"/>
</g>
<!-- Node24&#45;&gt;Node7 -->
<g id="edge44" class="edge">
<title>Node24&#45;&gt;Node7</title>
<path fill="none" stroke="#191970" d="M454.9408,-195.8708C449.7879,-169.511 439.5611,-95.5136 477.0489,-56 503.8541,-27.7463 614.0666,-16.4833 677.1584,-12.2856"/>
<polygon fill="#191970" stroke="#191970" points="677.4755,-15.7726 687.2347,-11.6485 677.0338,-8.7866 677.4755,-15.7726"/>
</g>
<!-- Node25&#45;&gt;Node1 -->
<g id="edge46" class="edge">
<title>Node25&#45;&gt;Node1</title>
<path fill="none" stroke="#191970" d="M191.1147,-190.2967C182.4063,-180.0605 170.9009,-166.5366 161.8303,-155.8746"/>
<polygon fill="#191970" stroke="#191970" points="164.3234,-153.4036 155.1778,-148.055 158.9918,-157.9395 164.3234,-153.4036"/>
</g>
<!-- Node25&#45;&gt;Node2 -->
<g id="edge49" class="edge">
<title>Node25&#45;&gt;Node2</title>
<path fill="none" stroke="#191970" d="M206.1915,-190.389C209.6393,-166.0735 216.4182,-118.2644 220.2458,-91.2698"/>
<polygon fill="#191970" stroke="#191970" points="223.7485,-91.4965 221.6871,-81.1042 216.8179,-90.5137 223.7485,-91.4965"/>
</g>
<!-- Node25&#45;&gt;Node11 -->
<g id="edge47" class="edge">
<title>Node25&#45;&gt;Node11</title>
<path fill="none" stroke="#191970" d="M274.2229,-191.5193C277.2024,-190.9929 280.154,-190.484 283.0489,-190 408.2305,-169.0714 558.1302,-150.1932 622.7751,-142.3483"/>
<polygon fill="#191970" stroke="#191970" points="623.2517,-145.8163 632.7598,-141.1423 622.4122,-138.8668 623.2517,-145.8163"/>
</g>
<!-- Node25&#45;&gt;Node20 -->
<g id="edge50" class="edge">
<title>Node25&#45;&gt;Node20</title>
<path fill="none" stroke="#191970" d="M274.1954,-191.3416C277.1824,-190.8638 280.1431,-190.4137 283.0489,-190 461.0781,-164.6544 512.4596,-200.942 686.0489,-154 688.0195,-153.4671 690.0172,-152.8225 692.0041,-152.1028"/>
<polygon fill="#191970" stroke="#191970" points="693.8034,-155.1436 701.671,-148.0477 691.0956,-148.6885 693.8034,-155.1436"/>
</g>
<!-- Node25&#45;&gt;Node23 -->
<g id="edge48" class="edge">
<title>Node25&#45;&gt;Node23</title>
<path fill="none" stroke="#191970" d="M171.7325,-190.4639C147.2447,-179.0702 113.8505,-163.5327 89.9706,-152.4219"/>
<polygon fill="#191970" stroke="#191970" points="91.2333,-149.1492 80.6902,-148.1039 88.2804,-155.4958 91.2333,-149.1492"/>
</g>
<!-- Node26 -->
<g id="node27" class="node">
<title>Node26</title>
<g id="a_node27"><a xlink:href="never__destroyed_8h.html" target="_top" xlink:title=" ">
<polygon fill="#ffffff" stroke="#000000" points="308.5489,-123.5 308.5489,-153.5 429.5489,-153.5 429.5489,-123.5 308.5489,-123.5"/>
<text text-anchor="start" x="316.5489" y="-141.5" font-family="Helvetica,sans-Serif" font-size="10.00" fill="#000000">drake/common/never</text>
<text text-anchor="middle" x="369.0489" y="-130.5" font-family="Helvetica,sans-Serif" font-size="10.00" fill="#000000">_destroyed.h</text>
</a>
</g>
</g>
<!-- Node25&#45;&gt;Node26 -->
<g id="edge51" class="edge">
<title>Node25&#45;&gt;Node26</title>
<path fill="none" stroke="#191970" d="M241.0781,-190.4639C265.0898,-180.7137 296.5747,-167.9289 322.3058,-157.4805"/>
<polygon fill="#191970" stroke="#191970" points="323.9097,-160.6069 331.8582,-153.6017 321.2761,-154.1212 323.9097,-160.6069"/>
</g>
<!-- Node26&#45;&gt;Node2 -->
<g id="edge54" class="edge">
<title>Node26&#45;&gt;Node2</title>
<path fill="none" stroke="#191970" d="M336.2837,-123.4639C311.4557,-112.0702 277.5977,-96.5327 253.3861,-85.4219"/>
<polygon fill="#191970" stroke="#191970" points="254.5254,-82.0938 243.9769,-81.1039 251.6058,-88.4559 254.5254,-82.0938"/>
</g>
<!-- Node26&#45;&gt;Node7 -->
<g id="edge53" class="edge">
<title>Node26&#45;&gt;Node7</title>
<path fill="none" stroke="#191970" d="M378.0989,-123.4854C390.4496,-104.4287 414.4666,-72.1026 444.0489,-56 483.4875,-34.5323 609.3181,-20.199 677.358,-13.8073"/>
<polygon fill="#191970" stroke="#191970" points="677.7233,-17.2885 687.36,-12.8858 677.0811,-10.318 677.7233,-17.2885"/>
</g>
<!-- Node26&#45;&gt;Node12 -->
<g id="edge55" class="edge">
<title>Node26&#45;&gt;Node12</title>
<path fill="none" stroke="#191970" d="M408.9956,-123.4639C435.1273,-113.6278 469.4638,-100.7034 497.3553,-90.2049"/>
<polygon fill="#191970" stroke="#191970" points="498.802,-93.4001 506.928,-86.6017 496.3361,-86.8489 498.802,-93.4001"/>
</g>
<!-- Node27 -->
<g id="node28" class="node">
<title>Node27</title>
<g id="a_node28"><a xlink:title=" ">
<polygon fill="#ffffff" stroke="#bfbfbf" points="350.5489,-62 350.5489,-81 387.5489,-81 387.5489,-62 350.5489,-62"/>
<text text-anchor="middle" x="369.0489" y="-69" font-family="Helvetica,sans-Serif" font-size="10.00" fill="#000000">new</text>
</a>
</g>
</g>
<!-- Node26&#45;&gt;Node27 -->
<g id="edge52" class="edge">
<title>Node26&#45;&gt;Node27</title>
<path fill="none" stroke="#191970" d="M369.0489,-123.2967C369.0489,-113.7699 369.0489,-101.3954 369.0489,-91.1306"/>
<polygon fill="#191970" stroke="#191970" points="372.549,-91.0549 369.0489,-81.055 365.549,-91.055 372.549,-91.0549"/>
</g>
</g>
</svg>
        <g id="navigator" transform="translate(0 0)" fill="#404254">
                <rect fill="#f2f5e9" fill-opacity="0.5" stroke="#606060" stroke-width=".5" x="0" y="0" width="60" height="60"/>
                <use id="zoomplus" xlink:href="#zoomPlus" x="17" y="9" onmousedown="handleZoom(evt,'in')"/>
                <use id="zoomminus" xlink:href="#zoomMin" x="42" y="9" onmousedown="handleZoom(evt,'out')"/>
                <use id="reset" xlink:href="#resetDef" x="30" y="36" onmousedown="handleReset()"/>
                <g id="arrowUp" xlink:href="#dirArrow" transform="translate(30 24)" onmousedown="handlePan(0,-1)">
                  <use xlink:href="#rim" fill="#404040">
                        <set attributeName="fill" to="#808080" begin="arrowUp.mouseover" end="arrowUp.mouseout"/>
                  </use>
                  <path fill="none" stroke="white" stroke-width="1.5" d="M0,-3.0v7 M-2.5,-0.5L0,-3.0L2.5,-0.5"/>
                </g>
                <g id="arrowRight" xlink:href="#dirArrow" transform="rotate(90) translate(36 -43)" onmousedown="handlePan(1,0)">
                  <use xlink:href="#rim" fill="#404040">
                        <set attributeName="fill" to="#808080" begin="arrowRight.mouseover" end="arrowRight.mouseout"/>
                  </use>
                  <path fill="none" stroke="white" stroke-width="1.5" d="M0,-3.0v7 M-2.5,-0.5L0,-3.0L2.5,-0.5"/>
                </g>
                <g id="arrowDown" xlink:href="#dirArrow" transform="rotate(180) translate(-30 -48)" onmousedown="handlePan(0,1)">
                  <use xlink:href="#rim" fill="#404040">
                        <set attributeName="fill" to="#808080" begin="arrowDown.mouseover" end="arrowDown.mouseout"/>
                  </use>
                  <path fill="none" stroke="white" stroke-width="1.5" d="M0,-3.0v7 M-2.5,-0.5L0,-3.0L2.5,-0.5"/>
                </g>
                <g id="arrowLeft" xlink:href="#dirArrow" transform="rotate(270) translate(-36 17)" onmousedown="handlePan(-1,0)">
                  <use xlink:href="#rim" fill="#404040">
                        <set attributeName="fill" to="#808080" begin="arrowLeft.mouseover" end="arrowLeft.mouseout"/>
                  </use>
                  <path fill="none" stroke="white" stroke-width="1.5" d="M0,-3.0v7 M-2.5,-0.5L0,-3.0L2.5,-0.5"/>
                </g>
        </g>
        <svg viewBox="0 0 15 15" width="100%" height="30px" preserveAspectRatio="xMaxYMin meet">
         <g id="arrow_out" transform="scale(0.3 0.3)">
          <a xlink:href="shader__program__data_8h__incl_org.svg" target="_base">
           <rect id="button" ry="5" rx="5" y="6" x="6" height="38" width="38"
                fill="#f2f5e9" fill-opacity="0.5" stroke="#606060" stroke-width="1.0"/>
           <path id="arrow"
             d="M 11.500037,31.436501 C 11.940474,20.09759 22.043105,11.32322 32.158766,21.979434 L 37.068811,17.246167 C 37.068811,17.246167 37.088388,32 37.088388,32 L 22.160133,31.978069 C 22.160133,31.978069 26.997745,27.140456 26.997745,27.140456 C 18.528582,18.264221 13.291696,25.230495 11.500037,31.436501 z"
             style="fill:#404040;"/>
          </a>
         </g>
        </svg>
</svg>
