<?xml version="1.0" encoding="UTF-8" standalone="no"?>
<!DOCTYPE svg PUBLIC "-//W3C//DTD SVG 1.1//EN"
 "http://www.w3.org/Graphics/SVG/1.1/DTD/svg11.dtd">
<!-- Generated by graphviz version 2.43.0 (0)
 -->
<!-- Title: drake/geometry/render/gl_renderer/shader_program_data.h Pages: 1 -->
<svg width="364pt" height="184pt"
 viewBox="0.00 0.00 364.00 184.00" xmlns="http://www.w3.org/2000/svg" xmlns:xlink="http://www.w3.org/1999/xlink">
<g id="graph0" class="graph" transform="scale(1 1) rotate(0) translate(4 180)">
<title>drake/geometry/render/gl_renderer/shader_program_data.h</title>
<polygon fill="white" stroke="transparent" points="-4,4 -4,-180 360,-180 360,4 -4,4"/>
<!-- Node28 -->
<g id="node1" class="node">
<title>Node28</title>
<g id="a_node1"><a xlink:title=" ">
<polygon fill="#bfbfbf" stroke="black" points="99.5,-134.5 99.5,-175.5 257.5,-175.5 257.5,-134.5 99.5,-134.5"/>
<text text-anchor="start" x="107.5" y="-163.5" font-family="Helvetica,sans-Serif" font-size="10.00">drake/geometry/render</text>
<text text-anchor="start" x="107.5" y="-152.5" font-family="Helvetica,sans-Serif" font-size="10.00">/gl_renderer/shader_program</text>
<text text-anchor="middle" x="178.5" y="-141.5" font-family="Helvetica,sans-Serif" font-size="10.00">_data.h</text>
</a>
</g>
</g>
<!-- Node29 -->
<g id="node2" class="node">
<title>Node29</title>
<g id="a_node2"><a xlink:href="opengl__geometry_8h.html" target="_top" xlink:title=" ">
<polygon fill="white" stroke="black" points="0,-67.5 0,-97.5 171,-97.5 171,-67.5 0,-67.5"/>
<text text-anchor="start" x="8" y="-85.5" font-family="Helvetica,sans-Serif" font-size="10.00">drake/geometry/render</text>
<text text-anchor="middle" x="85.5" y="-74.5" font-family="Helvetica,sans-Serif" font-size="10.00">/gl_renderer/opengl_geometry.h</text>
</a>
</g>
</g>
<!-- Node28&#45;&gt;Node29 -->
<g id="edge1" class="edge">
<title>Node28&#45;&gt;Node29</title>
<path fill="none" stroke="midnightblue" d="M144.38,-128.14C130.8,-117.84 115.7,-106.39 104.19,-97.67"/>
<polygon fill="midnightblue" stroke="midnightblue" points="142.51,-131.11 152.59,-134.36 146.74,-125.53 142.51,-131.11"/>
</g>
<!-- Node31 -->
<g id="node4" class="node">
<title>Node31</title>
<g id="a_node4"><a xlink:href="shader__program_8h.html" target="_top" xlink:title=" ">
<polygon fill="white" stroke="black" points="189,-67.5 189,-97.5 356,-97.5 356,-67.5 189,-67.5"/>
<text text-anchor="start" x="197" y="-85.5" font-family="Helvetica,sans-Serif" font-size="10.00">drake/geometry/render</text>
<text text-anchor="middle" x="272.5" y="-74.5" font-family="Helvetica,sans-Serif" font-size="10.00">/gl_renderer/shader_program.h</text>
</a>
</g>
</g>
<!-- Node28&#45;&gt;Node31 -->
<g id="edge3" class="edge">
<title>Node28&#45;&gt;Node31</title>
<path fill="none" stroke="midnightblue" d="M212.99,-128.14C226.71,-117.84 241.97,-106.39 253.61,-97.67"/>
<polygon fill="midnightblue" stroke="midnightblue" points="210.58,-125.56 204.68,-134.36 214.78,-131.16 210.58,-125.56"/>
</g>
<!-- Node30 -->
<g id="node3" class="node">
<title>Node30</title>
<g id="a_node3"><a xlink:href="render__engine__gl_8h.html" target="_top" xlink:title=" ">
<polygon fill="white" stroke="black" points="93,-0.5 93,-30.5 264,-30.5 264,-0.5 93,-0.5"/>
<text text-anchor="start" x="101" y="-18.5" font-family="Helvetica,sans-Serif" font-size="10.00">drake/geometry/render</text>
<text text-anchor="middle" x="178.5" y="-7.5" font-family="Helvetica,sans-Serif" font-size="10.00">/gl_renderer/render_engine_gl.h</text>
</a>
</g>
</g>
<!-- Node29&#45;&gt;Node30 -->
<g id="edge2" class="edge">
<title>Node29&#45;&gt;Node30</title>
<path fill="none" stroke="midnightblue" d="M114.19,-61.45C128.49,-51.45 145.45,-39.6 158.36,-30.58"/>
<polygon fill="midnightblue" stroke="midnightblue" points="111.87,-58.8 105.68,-67.4 115.88,-64.54 111.87,-58.8"/>
</g>
<!-- Node31&#45;&gt;Node30 -->
<g id="edge4" class="edge">
<title>Node31&#45;&gt;Node30</title>
<path fill="none" stroke="midnightblue" d="M243.51,-61.45C229.05,-51.45 211.91,-39.6 198.86,-30.58"/>
<polygon fill="midnightblue" stroke="midnightblue" points="241.89,-64.59 252.1,-67.4 245.87,-58.83 241.89,-64.59"/>
</g>
</g>
</svg>
