<?xml version="1.0" encoding="UTF-8" standalone="no"?>
<!DOCTYPE svg PUBLIC "-//W3C//DTD SVG 1.1//EN"
 "http://www.w3.org/Graphics/SVG/1.1/DTD/svg11.dtd">
<!-- Generated by graphviz version 2.43.0 (0)
 -->
<!-- Title: drake/geometry/query_results/signed_distance_to_point.h Pages: 1 -->
<!--zoomable 441 -->
<svg id="main" version="1.1" xmlns="http://www.w3.org/2000/svg" xmlns:xlink="http://www.w3.org/1999/xlink" xml:space="preserve" onload="init(evt)">
<style type="text/css"><![CDATA[
.edge:hover path { stroke: red; }
.edge:hover polygon { stroke: red; fill: red; }
]]></style>
<script type="text/javascript"><![CDATA[
var edges = document.getElementsByTagName('g');
if (edges && edges.length) {
  for (var i=0;i<edges.length;i++) {
    if (edges[i].id.substr(0,4)=='edge') {
      edges[i].setAttribute('class','edge');
    }
  }
}
]]></script>
        <defs>
                <circle id="rim" cx="0" cy="0" r="7"/>
                <circle id="rim2" cx="0" cy="0" r="3.5"/>
                <g id="zoomPlus">
                        <use xlink:href="#rim" fill="#404040">
                                <set attributeName="fill" to="#808080" begin="zoomplus.mouseover" end="zoomplus.mouseout"/>
                        </use>
                        <path d="M-4,0h8M0,-4v8" fill="none" stroke="white" stroke-width="1.5" pointer-events="none"/>
                </g>
                <g id="zoomMin">
                        <use xlink:href="#rim" fill="#404040">
                                <set attributeName="fill" to="#808080" begin="zoomminus.mouseover" end="zoomminus.mouseout"/>
                        </use>
                        <path d="M-4,0h8" fill="none" stroke="white" stroke-width="1.5" pointer-events="none"/>
                </g>
                <g id="dirArrow">
                        <path fill="none" stroke="white" stroke-width="1.5" d="M0,-3.0v7 M-2.5,-0.5L0,-3.0L2.5,-0.5"/>
                </g>
               <g id="resetDef">
                       <use xlink:href="#rim2" fill="#404040">
                               <set attributeName="fill" to="#808080" begin="reset.mouseover" end="reset.mouseout"/>
                       </use>
               </g>
        </defs>

<script type="text/javascript">
var viewWidth = 1147;
var viewHeight = 441;
var sectionId = 'dynsection-0';
</script>
<script xlink:href="svgpan.js"/>
<svg id="graph" class="graph">
<g id="viewport">
<title>drake/geometry/query_results/signed_distance_to_point.h</title>
<polygon fill="white" stroke="transparent" points="-4,4 -4,-437 1143,-437 1143,4 -4,4"/>
<!-- Node0 -->
<g id="node1" class="node">
<title>Node0</title>
<g id="a_node1"><a xlink:title=" ">
<polygon fill="#bfbfbf" stroke="black" points="672,-391.5 672,-432.5 809,-432.5 809,-391.5 672,-391.5"/>
<text text-anchor="start" x="680" y="-420.5" font-family="Helvetica,sans-Serif" font-size="10.00">drake/geometry/query</text>
<text text-anchor="start" x="680" y="-409.5" font-family="Helvetica,sans-Serif" font-size="10.00">_results/signed_distance</text>
<text text-anchor="middle" x="740.5" y="-398.5" font-family="Helvetica,sans-Serif" font-size="10.00">_to_point.h</text>
</a>
</g>
</g>
<!-- Node1 -->
<g id="node2" class="node">
<title>Node1</title>
<g id="a_node2"><a xlink:title=" ">
<polygon fill="white" stroke="#bfbfbf" points="0,-129 0,-148 47,-148 47,-129 0,-129"/>
<text text-anchor="middle" x="23.5" y="-136" font-family="Helvetica,sans-Serif" font-size="10.00">cmath</text>
</a>
</g>
</g>
<!-- Node0&#45;&gt;Node1 -->
<g id="edge1" class="edge">
<title>Node0&#45;&gt;Node1</title>
<path fill="none" stroke="midnightblue" d="M672.61,-391.39C638.46,-381.17 596.56,-368.1 559.5,-355 332.13,-274.63 277.39,-248.46 55.5,-154 54.13,-153.42 52.73,-152.81 51.33,-152.2"/>
<polygon fill="midnightblue" stroke="midnightblue" points="52.61,-148.94 42.05,-148.08 49.77,-155.34 52.61,-148.94"/>
</g>
<!-- Node2 -->
<g id="node3" class="node">
<title>Node2</title>
<g id="a_node3"><a xlink:href="drake__copyable_8h.html" target="_top" xlink:title="Provides careful macros to selectively enable or disable the special member functions for copy&#45;constr...">
<polygon fill="white" stroke="black" points="681,-190.5 681,-220.5 800,-220.5 800,-190.5 681,-190.5"/>
<text text-anchor="start" x="689" y="-208.5" font-family="Helvetica,sans-Serif" font-size="10.00">drake/common/drake</text>
<text text-anchor="middle" x="740.5" y="-197.5" font-family="Helvetica,sans-Serif" font-size="10.00">_copyable.h</text>
</a>
</g>
</g>
<!-- Node0&#45;&gt;Node2 -->
<g id="edge2" class="edge">
<title>Node0&#45;&gt;Node2</title>
<path fill="none" stroke="midnightblue" d="M740.5,-391.39C740.5,-353.85 740.5,-271.9 740.5,-230.89"/>
<polygon fill="midnightblue" stroke="midnightblue" points="744,-230.71 740.5,-220.71 737,-230.71 744,-230.71"/>
</g>
<!-- Node3 -->
<g id="node4" class="node">
<title>Node3</title>
<g id="a_node4"><a xlink:href="drake__deprecated_8h.html" target="_top" xlink:title="Provides a portable macro for use in generating compile&#45;time warnings for use of code that is permitt...">
<polygon fill="white" stroke="black" points="807,-324.5 807,-354.5 926,-354.5 926,-324.5 807,-324.5"/>
<text text-anchor="start" x="815" y="-342.5" font-family="Helvetica,sans-Serif" font-size="10.00">drake/common/drake</text>
<text text-anchor="middle" x="866.5" y="-331.5" font-family="Helvetica,sans-Serif" font-size="10.00">_deprecated.h</text>
</a>
</g>
</g>
<!-- Node0&#45;&gt;Node3 -->
<g id="edge3" class="edge">
<title>Node0&#45;&gt;Node3</title>
<path fill="none" stroke="midnightblue" d="M775.6,-391.36C793.33,-381.44 814.76,-369.45 832.36,-359.6"/>
<polygon fill="midnightblue" stroke="midnightblue" points="834.16,-362.61 841.17,-354.67 830.74,-356.5 834.16,-362.61"/>
</g>
<!-- Node4 -->
<g id="node5" class="node">
<title>Node4</title>
<g id="a_node5"><a xlink:href="eigen__types_8h.html" target="_top" xlink:title="This file contains abbreviated definitions for certain specializations of Eigen::Matrix that are comm...">
<polygon fill="white" stroke="black" points="788,-257.5 788,-287.5 907,-287.5 907,-257.5 788,-257.5"/>
<text text-anchor="start" x="796" y="-275.5" font-family="Helvetica,sans-Serif" font-size="10.00">drake/common/eigen</text>
<text text-anchor="middle" x="847.5" y="-264.5" font-family="Helvetica,sans-Serif" font-size="10.00">_types.h</text>
</a>
</g>
</g>
<!-- Node0&#45;&gt;Node4 -->
<g id="edge4" class="edge">
<title>Node0&#45;&gt;Node4</title>
<path fill="none" stroke="midnightblue" d="M752.21,-391.28C763.29,-373.17 780.83,-345.89 798.5,-324 806.57,-314 816.28,-303.69 824.92,-295.02"/>
<polygon fill="midnightblue" stroke="midnightblue" points="827.51,-297.38 832.17,-287.86 822.6,-292.4 827.51,-297.38"/>
</g>
<!-- Node10 -->
<g id="node11" class="node">
<title>Node10</title>
<g id="a_node11"><a xlink:href="geometry__ids_8h.html" target="_top" xlink:title=" ">
<polygon fill="white" stroke="black" points="568.5,-324.5 568.5,-354.5 712.5,-354.5 712.5,-324.5 568.5,-324.5"/>
<text text-anchor="start" x="576.5" y="-342.5" font-family="Helvetica,sans-Serif" font-size="10.00">drake/geometry/geometry</text>
<text text-anchor="middle" x="640.5" y="-331.5" font-family="Helvetica,sans-Serif" font-size="10.00">_ids.h</text>
</a>
</g>
</g>
<!-- Node0&#45;&gt;Node10 -->
<g id="edge11" class="edge">
<title>Node0&#45;&gt;Node10</title>
<path fill="none" stroke="midnightblue" d="M712.64,-391.36C699.09,-381.8 682.81,-370.33 669.14,-360.69"/>
<polygon fill="midnightblue" stroke="midnightblue" points="670.79,-357.57 660.6,-354.67 666.76,-363.29 670.79,-357.57"/>
</g>
<!-- Node4&#45;&gt;Node2 -->
<g id="edge10" class="edge">
<title>Node4&#45;&gt;Node2</title>
<path fill="none" stroke="midnightblue" d="M824.28,-257.4C809.14,-248.2 789.17,-236.07 772.53,-225.95"/>
<polygon fill="midnightblue" stroke="midnightblue" points="774.04,-222.78 763.67,-220.58 770.4,-228.76 774.04,-222.78"/>
</g>
<!-- Node5 -->
<g id="node6" class="node">
<title>Node5</title>
<g id="a_node6"><a xlink:title=" ">
<polygon fill="white" stroke="#bfbfbf" points="742,-129 742,-148 787,-148 787,-129 742,-129"/>
<text text-anchor="middle" x="764.5" y="-136" font-family="Helvetica,sans-Serif" font-size="10.00">utility</text>
</a>
</g>
</g>
<!-- Node4&#45;&gt;Node5 -->
<g id="edge5" class="edge">
<title>Node4&#45;&gt;Node5</title>
<path fill="none" stroke="midnightblue" d="M842.34,-257.3C835.92,-240.5 824,-212.04 809.5,-190 801.23,-177.43 789.96,-164.79 780.78,-155.31"/>
<polygon fill="midnightblue" stroke="midnightblue" points="783.19,-152.77 773.66,-148.15 778.23,-157.7 783.19,-152.77"/>
</g>
<!-- Node6 -->
<g id="node7" class="node">
<title>Node6</title>
<g id="a_node7"><a xlink:title=" ">
<polygon fill="white" stroke="#bfbfbf" points="895,-196 895,-215 972,-215 972,-196 895,-196"/>
<text text-anchor="middle" x="933.5" y="-203" font-family="Helvetica,sans-Serif" font-size="10.00">Eigen/Dense</text>
</a>
</g>
</g>
<!-- Node4&#45;&gt;Node6 -->
<g id="edge6" class="edge">
<title>Node4&#45;&gt;Node6</title>
<path fill="none" stroke="midnightblue" d="M866.16,-257.4C880.23,-246.76 899.49,-232.2 913.81,-221.38"/>
<polygon fill="midnightblue" stroke="midnightblue" points="916.13,-224.02 922,-215.19 911.91,-218.43 916.13,-224.02"/>
</g>
<!-- Node7 -->
<g id="node8" class="node">
<title>Node7</title>
<g id="a_node8"><a xlink:href="constants_8h.html" target="_top" xlink:title=" ">
<polygon fill="white" stroke="black" points="990,-196 990,-215 1139,-215 1139,-196 990,-196"/>
<text text-anchor="middle" x="1064.5" y="-203" font-family="Helvetica,sans-Serif" font-size="10.00">drake/common/constants.h</text>
</a>
</g>
</g>
<!-- Node4&#45;&gt;Node7 -->
<g id="edge7" class="edge">
<title>Node4&#45;&gt;Node7</title>
<path fill="none" stroke="midnightblue" d="M894.32,-257.48C933.72,-245.67 989.38,-229 1026.18,-217.98"/>
<polygon fill="midnightblue" stroke="midnightblue" points="1027.45,-221.25 1036.03,-215.03 1025.44,-214.55 1027.45,-221.25"/>
</g>
<!-- Node8 -->
<g id="node9" class="node">
<title>Node8</title>
<g id="a_node9"><a xlink:href="drake__assert_8h.html" target="_top" xlink:title="Provides Drake&#39;s assertion implementation.">
<polygon fill="white" stroke="black" points="416,-56.5 416,-86.5 535,-86.5 535,-56.5 416,-56.5"/>
<text text-anchor="start" x="424" y="-74.5" font-family="Helvetica,sans-Serif" font-size="10.00">drake/common/drake</text>
<text text-anchor="middle" x="475.5" y="-63.5" font-family="Helvetica,sans-Serif" font-size="10.00">_assert.h</text>
</a>
</g>
</g>
<!-- Node4&#45;&gt;Node8 -->
<g id="edge8" class="edge">
<title>Node4&#45;&gt;Node8</title>
<path fill="none" stroke="midnightblue" d="M847.59,-257.4C846.94,-226.82 840.56,-154.64 796.5,-123 757.29,-94.85 627.09,-81.77 545.04,-76.19"/>
<polygon fill="midnightblue" stroke="midnightblue" points="545.25,-72.7 535.04,-75.53 544.79,-79.68 545.25,-72.7"/>
</g>
<!-- Node9 -->
<g id="node10" class="node">
<title>Node9</title>
<g id="a_node10"><a xlink:title=" ">
<polygon fill="white" stroke="#bfbfbf" points="178,-0.5 178,-19.5 247,-19.5 247,-0.5 178,-0.5"/>
<text text-anchor="middle" x="212.5" y="-7.5" font-family="Helvetica,sans-Serif" font-size="10.00">type_traits</text>
</a>
</g>
</g>
<!-- Node8&#45;&gt;Node9 -->
<g id="edge9" class="edge">
<title>Node8&#45;&gt;Node9</title>
<path fill="none" stroke="midnightblue" d="M415.82,-57C367.59,-46.09 300.78,-30.97 257.11,-21.09"/>
<polygon fill="midnightblue" stroke="midnightblue" points="257.87,-17.68 247.34,-18.88 256.32,-24.5 257.87,-17.68"/>
</g>
<!-- Node10&#45;&gt;Node2 -->
<g id="edge12" class="edge">
<title>Node10&#45;&gt;Node2</title>
<path fill="none" stroke="midnightblue" d="M651.2,-324.37C668.57,-301.45 703.03,-255.97 723.69,-228.69"/>
<polygon fill="midnightblue" stroke="midnightblue" points="726.63,-230.61 729.88,-220.52 721.05,-226.38 726.63,-230.61"/>
</g>
<!-- Node11 -->
<g id="node12" class="node">
<title>Node11</title>
<g id="a_node12"><a xlink:href="identifier_8h.html" target="_top" xlink:title=" ">
<polygon fill="white" stroke="black" points="495.5,-263 495.5,-282 641.5,-282 641.5,-263 495.5,-263"/>
<text text-anchor="middle" x="568.5" y="-270" font-family="Helvetica,sans-Serif" font-size="10.00">drake/common/identifier.h</text>
</a>
</g>
</g>
<!-- Node10&#45;&gt;Node11 -->
<g id="edge13" class="edge">
<title>Node10&#45;&gt;Node11</title>
<path fill="none" stroke="midnightblue" d="M624.88,-324.4C613.32,-313.96 597.58,-299.75 585.67,-289"/>
<polygon fill="midnightblue" stroke="midnightblue" points="587.9,-286.3 578.13,-282.19 583.21,-291.49 587.9,-286.3"/>
</g>
<!-- Node11&#45;&gt;Node2 -->
<g id="edge18" class="edge">
<title>Node11&#45;&gt;Node2</title>
<path fill="none" stroke="midnightblue" d="M591.34,-262.87C617.37,-253.03 660.61,-236.69 693.85,-224.13"/>
<polygon fill="midnightblue" stroke="midnightblue" points="695.26,-227.34 703.38,-220.53 692.79,-220.79 695.26,-227.34"/>
</g>
<!-- Node11&#45;&gt;Node5 -->
<g id="edge17" class="edge">
<title>Node11&#45;&gt;Node5</title>
<path fill="none" stroke="midnightblue" d="M581.52,-262.86C595.86,-253.16 619.42,-236.73 638.5,-221 654.03,-208.2 655.19,-201.79 671.5,-190 692.01,-175.18 717.37,-161.69 736.42,-152.39"/>
<polygon fill="midnightblue" stroke="midnightblue" points="737.98,-155.52 745.49,-148.04 734.96,-149.21 737.98,-155.52"/>
</g>
<!-- Node12 -->
<g id="node13" class="node">
<title>Node12</title>
<g id="a_node13"><a xlink:title=" ">
<polygon fill="white" stroke="#bfbfbf" points="460.5,-196 460.5,-215 510.5,-215 510.5,-196 460.5,-196"/>
<text text-anchor="middle" x="485.5" y="-203" font-family="Helvetica,sans-Serif" font-size="10.00">cstdint</text>
</a>
</g>
</g>
<!-- Node11&#45;&gt;Node12 -->
<g id="edge14" class="edge">
<title>Node11&#45;&gt;Node12</title>
<path fill="none" stroke="midnightblue" d="M557.31,-262.73C543.87,-252.21 521.1,-234.38 504.8,-221.62"/>
<polygon fill="midnightblue" stroke="midnightblue" points="506.55,-218.54 496.52,-215.13 502.23,-224.05 506.55,-218.54"/>
</g>
<!-- Node13 -->
<g id="node14" class="node">
<title>Node13</title>
<g id="a_node14"><a xlink:title=" ">
<polygon fill="white" stroke="#bfbfbf" points="529,-196 529,-215 586,-215 586,-196 529,-196"/>
<text text-anchor="middle" x="557.5" y="-203" font-family="Helvetica,sans-Serif" font-size="10.00">ostream</text>
</a>
</g>
</g>
<!-- Node11&#45;&gt;Node13 -->
<g id="edge15" class="edge">
<title>Node11&#45;&gt;Node13</title>
<path fill="none" stroke="midnightblue" d="M567.02,-262.73C565.4,-253.18 562.77,-237.62 560.68,-225.28"/>
<polygon fill="midnightblue" stroke="midnightblue" points="564.08,-224.4 558.96,-215.13 557.18,-225.57 564.08,-224.4"/>
</g>
<!-- Node14 -->
<g id="node15" class="node">
<title>Node14</title>
<g id="a_node15"><a xlink:title=" ">
<polygon fill="white" stroke="#bfbfbf" points="679.5,-129 679.5,-148 723.5,-148 723.5,-129 679.5,-129"/>
<text text-anchor="middle" x="701.5" y="-136" font-family="Helvetica,sans-Serif" font-size="10.00">string</text>
</a>
</g>
</g>
<!-- Node11&#45;&gt;Node14 -->
<g id="edge16" class="edge">
<title>Node11&#45;&gt;Node14</title>
<path fill="none" stroke="midnightblue" d="M574.98,-262.95C586.8,-247.59 613.02,-214.63 638.5,-190 651.93,-177.02 668.45,-163.87 681.2,-154.24"/>
<polygon fill="midnightblue" stroke="midnightblue" points="683.41,-156.96 689.34,-148.19 679.23,-151.35 683.41,-156.96"/>
</g>
<!-- Node15 -->
<g id="node16" class="node">
<title>Node15</title>
<g id="a_node16"><a xlink:href="drake__throw_8h.html" target="_top" xlink:title="Provides a convenient wrapper to throw an exception when a condition is unmet.">
<polygon fill="white" stroke="black" points="65,-123.5 65,-153.5 184,-153.5 184,-123.5 65,-123.5"/>
<text text-anchor="start" x="73" y="-141.5" font-family="Helvetica,sans-Serif" font-size="10.00">drake/common/drake</text>
<text text-anchor="middle" x="124.5" y="-130.5" font-family="Helvetica,sans-Serif" font-size="10.00">_throw.h</text>
</a>
</g>
</g>
<!-- Node11&#45;&gt;Node15 -->
<g id="edge19" class="edge">
<title>Node11&#45;&gt;Node15</title>
<path fill="none" stroke="midnightblue" d="M502.58,-262.99C449.19,-255.1 372.43,-241.45 307.5,-221 254.51,-204.32 196.41,-176.72 160.2,-158.33"/>
<polygon fill="midnightblue" stroke="midnightblue" points="161.53,-155.08 151.03,-153.63 158.34,-161.31 161.53,-155.08"/>
</g>
<!-- Node16 -->
<g id="node17" class="node">
<title>Node16</title>
<g id="a_node17"><a xlink:href="hash_8h.html" target="_top" xlink:title=" ">
<polygon fill="white" stroke="black" points="317,-196 317,-215 442,-215 442,-196 317,-196"/>
<text text-anchor="middle" x="379.5" y="-203" font-family="Helvetica,sans-Serif" font-size="10.00">drake/common/hash.h</text>
</a>
</g>
</g>
<!-- Node11&#45;&gt;Node16 -->
<g id="edge22" class="edge">
<title>Node11&#45;&gt;Node16</title>
<path fill="none" stroke="midnightblue" d="M543.4,-262.87C510.13,-251.42 451.26,-231.18 413.88,-218.32"/>
<polygon fill="midnightblue" stroke="midnightblue" points="415,-215.01 404.4,-215.06 412.72,-221.63 415,-215.01"/>
</g>
<!-- Node15&#45;&gt;Node8 -->
<g id="edge21" class="edge">
<title>Node15&#45;&gt;Node8</title>
<path fill="none" stroke="midnightblue" d="M184.04,-126.47C245.4,-115.11 340.99,-97.41 405.83,-85.4"/>
<polygon fill="midnightblue" stroke="midnightblue" points="406.76,-88.79 415.96,-83.53 405.49,-81.91 406.76,-88.79"/>
</g>
<!-- Node15&#45;&gt;Node9 -->
<g id="edge20" class="edge">
<title>Node15&#45;&gt;Node9</title>
<path fill="none" stroke="midnightblue" d="M134.25,-123.48C150.51,-100.1 183.11,-53.25 200.66,-28.02"/>
<polygon fill="midnightblue" stroke="midnightblue" points="203.55,-30 206.39,-19.79 197.8,-26 203.55,-30"/>
</g>
<!-- Node16&#45;&gt;Node1 -->
<g id="edge23" class="edge">
<title>Node16&#45;&gt;Node1</title>
<path fill="none" stroke="midnightblue" d="M316.89,-199.8C250.8,-193.67 144.15,-180.46 55.5,-154 53.57,-153.42 51.61,-152.76 49.65,-152.03"/>
<polygon fill="midnightblue" stroke="midnightblue" points="50.69,-148.67 40.11,-148.05 48,-155.13 50.69,-148.67"/>
</g>
<!-- Node16&#45;&gt;Node5 -->
<g id="edge31" class="edge">
<title>Node16&#45;&gt;Node5</title>
<path fill="none" stroke="midnightblue" d="M419.4,-195.94C429.82,-193.85 441.06,-191.72 451.5,-190 575.74,-169.56 611.37,-188.36 732.5,-154 734.44,-153.45 736.41,-152.8 738.37,-152.09"/>
<polygon fill="midnightblue" stroke="midnightblue" points="740.01,-155.2 747.92,-148.15 737.34,-148.73 740.01,-155.2"/>
</g>
<!-- Node16&#45;&gt;Node8 -->
<g id="edge33" class="edge">
<title>Node16&#45;&gt;Node8</title>
<path fill="none" stroke="midnightblue" d="M421.76,-195.98C431.52,-194.01 441.87,-191.93 451.5,-190 531.49,-173.95 579.78,-217.09 631.5,-154 661.18,-117.79 599.46,-95.73 545.11,-83.86"/>
<polygon fill="midnightblue" stroke="midnightblue" points="545.57,-80.38 535.07,-81.75 544.14,-87.23 545.57,-80.38"/>
</g>
<!-- Node16&#45;&gt;Node9 -->
<g id="edge30" class="edge">
<title>Node16&#45;&gt;Node9</title>
<path fill="none" stroke="midnightblue" d="M316.82,-198.37C286.54,-192.07 252.34,-179.4 231.5,-154 202.19,-118.27 205.26,-59.76 209.26,-29.87"/>
<polygon fill="midnightblue" stroke="midnightblue" points="212.78,-30.01 210.83,-19.6 205.86,-28.96 212.78,-30.01"/>
</g>
<!-- Node16&#45;&gt;Node14 -->
<g id="edge29" class="edge">
<title>Node16&#45;&gt;Node14</title>
<path fill="none" stroke="midnightblue" d="M420.58,-195.99C430.68,-193.96 441.47,-191.85 451.5,-190 546.34,-172.48 572.67,-180.17 665.5,-154 667.94,-153.31 670.44,-152.51 672.93,-151.65"/>
<polygon fill="midnightblue" stroke="midnightblue" points="674.21,-154.91 682.34,-148.11 671.74,-148.36 674.21,-154.91"/>
</g>
<!-- Node16&#45;&gt;Node15 -->
<g id="edge34" class="edge">
<title>Node16&#45;&gt;Node15</title>
<path fill="none" stroke="midnightblue" d="M345.9,-195.94C306.22,-185.82 239.3,-168.76 189.4,-156.04"/>
<polygon fill="midnightblue" stroke="midnightblue" points="190.21,-152.64 179.66,-153.56 188.48,-159.42 190.21,-152.64"/>
</g>
<!-- Node17 -->
<g id="node18" class="node">
<title>Node17</title>
<g id="a_node18"><a xlink:title=" ">
<polygon fill="white" stroke="#bfbfbf" points="241,-129 241,-148 294,-148 294,-129 241,-129"/>
<text text-anchor="middle" x="267.5" y="-136" font-family="Helvetica,sans-Serif" font-size="10.00">cstddef</text>
</a>
</g>
</g>
<!-- Node16&#45;&gt;Node17 -->
<g id="edge24" class="edge">
<title>Node16&#45;&gt;Node17</title>
<path fill="none" stroke="midnightblue" d="M364.4,-195.73C345.59,-184.82 313.25,-166.05 291.14,-153.22"/>
<polygon fill="midnightblue" stroke="midnightblue" points="292.77,-150.12 282.37,-148.13 289.26,-156.17 292.77,-150.12"/>
</g>
<!-- Node18 -->
<g id="node19" class="node">
<title>Node18</title>
<g id="a_node19"><a xlink:title=" ">
<polygon fill="white" stroke="#bfbfbf" points="312,-129 312,-148 377,-148 377,-129 312,-129"/>
<text text-anchor="middle" x="344.5" y="-136" font-family="Helvetica,sans-Serif" font-size="10.00">functional</text>
</a>
</g>
</g>
<!-- Node16&#45;&gt;Node18 -->
<g id="edge25" class="edge">
<title>Node16&#45;&gt;Node18</title>
<path fill="none" stroke="midnightblue" d="M374.78,-195.73C369.48,-185.89 360.74,-169.66 354.01,-157.16"/>
<polygon fill="midnightblue" stroke="midnightblue" points="356.97,-155.27 349.15,-148.13 350.8,-158.59 356.97,-155.27"/>
</g>
<!-- Node19 -->
<g id="node20" class="node">
<title>Node19</title>
<g id="a_node20"><a xlink:title=" ">
<polygon fill="white" stroke="#bfbfbf" points="395.5,-129 395.5,-148 433.5,-148 433.5,-129 395.5,-129"/>
<text text-anchor="middle" x="414.5" y="-136" font-family="Helvetica,sans-Serif" font-size="10.00">map</text>
</a>
</g>
</g>
<!-- Node16&#45;&gt;Node19 -->
<g id="edge26" class="edge">
<title>Node16&#45;&gt;Node19</title>
<path fill="none" stroke="midnightblue" d="M384.22,-195.73C389.52,-185.89 398.26,-169.66 404.99,-157.16"/>
<polygon fill="midnightblue" stroke="midnightblue" points="408.2,-158.59 409.85,-148.13 402.03,-155.27 408.2,-158.59"/>
</g>
<!-- Node20 -->
<g id="node21" class="node">
<title>Node20</title>
<g id="a_node21"><a xlink:title=" ">
<polygon fill="white" stroke="#bfbfbf" points="451.5,-129 451.5,-148 507.5,-148 507.5,-129 451.5,-129"/>
<text text-anchor="middle" x="479.5" y="-136" font-family="Helvetica,sans-Serif" font-size="10.00">optional</text>
</a>
</g>
</g>
<!-- Node16&#45;&gt;Node20 -->
<g id="edge27" class="edge">
<title>Node16&#45;&gt;Node20</title>
<path fill="none" stroke="midnightblue" d="M392.99,-195.73C409.55,-184.96 437.88,-166.55 457.59,-153.74"/>
<polygon fill="midnightblue" stroke="midnightblue" points="459.75,-156.51 466.23,-148.13 455.94,-150.64 459.75,-156.51"/>
</g>
<!-- Node21 -->
<g id="node22" class="node">
<title>Node21</title>
<g id="a_node22"><a xlink:title=" ">
<polygon fill="white" stroke="#bfbfbf" points="525.5,-129 525.5,-148 557.5,-148 557.5,-129 525.5,-129"/>
<text text-anchor="middle" x="541.5" y="-136" font-family="Helvetica,sans-Serif" font-size="10.00">set</text>
</a>
</g>
</g>
<!-- Node16&#45;&gt;Node21 -->
<g id="edge28" class="edge">
<title>Node16&#45;&gt;Node21</title>
<path fill="none" stroke="midnightblue" d="M406.84,-195.97C434.9,-186.86 479.56,-171.36 516.5,-154 517.2,-153.67 517.9,-153.33 518.61,-152.98"/>
<polygon fill="midnightblue" stroke="midnightblue" points="520.58,-155.9 527.71,-148.06 517.25,-149.74 520.58,-155.9"/>
</g>
<!-- Node22 -->
<g id="node23" class="node">
<title>Node22</title>
<g id="a_node23"><a xlink:title=" ">
<polygon fill="white" stroke="#bfbfbf" points="576,-129 576,-148 623,-148 623,-129 576,-129"/>
<text text-anchor="middle" x="599.5" y="-136" font-family="Helvetica,sans-Serif" font-size="10.00">vector</text>
</a>
</g>
</g>
<!-- Node16&#45;&gt;Node22 -->
<g id="edge32" class="edge">
<title>Node16&#45;&gt;Node22</title>
<path fill="none" stroke="midnightblue" d="M417.62,-195.98C455.77,-187.05 515.91,-171.83 566.5,-154 568.16,-153.41 569.86,-152.78 571.56,-152.12"/>
<polygon fill="midnightblue" stroke="midnightblue" points="573.3,-155.19 581.2,-148.13 570.62,-148.72 573.3,-155.19"/>
</g>
</g>
</svg>
        <g id="navigator" transform="translate(0 0)" fill="#404254">
                <rect fill="#f2f5e9" fill-opacity="0.5" stroke="#606060" stroke-width=".5" x="0" y="0" width="60" height="60"/>
                <use id="zoomplus" xlink:href="#zoomPlus" x="17" y="9" onmousedown="handleZoom(evt,'in')"/>
                <use id="zoomminus" xlink:href="#zoomMin" x="42" y="9" onmousedown="handleZoom(evt,'out')"/>
                <use id="reset" xlink:href="#resetDef" x="30" y="36" onmousedown="handleReset()"/>
                <g id="arrowUp" xlink:href="#dirArrow" transform="translate(30 24)" onmousedown="handlePan(0,-1)">
                  <use xlink:href="#rim" fill="#404040">
                        <set attributeName="fill" to="#808080" begin="arrowUp.mouseover" end="arrowUp.mouseout"/>
                  </use>
                  <path fill="none" stroke="white" stroke-width="1.5" d="M0,-3.0v7 M-2.5,-0.5L0,-3.0L2.5,-0.5"/>
                </g>
                <g id="arrowRight" xlink:href="#dirArrow" transform="rotate(90) translate(36 -43)" onmousedown="handlePan(1,0)">
                  <use xlink:href="#rim" fill="#404040">
                        <set attributeName="fill" to="#808080" begin="arrowRight.mouseover" end="arrowRight.mouseout"/>
                  </use>
                  <path fill="none" stroke="white" stroke-width="1.5" d="M0,-3.0v7 M-2.5,-0.5L0,-3.0L2.5,-0.5"/>
                </g>
                <g id="arrowDown" xlink:href="#dirArrow" transform="rotate(180) translate(-30 -48)" onmousedown="handlePan(0,1)">
                  <use xlink:href="#rim" fill="#404040">
                        <set attributeName="fill" to="#808080" begin="arrowDown.mouseover" end="arrowDown.mouseout"/>
                  </use>
                  <path fill="none" stroke="white" stroke-width="1.5" d="M0,-3.0v7 M-2.5,-0.5L0,-3.0L2.5,-0.5"/>
                </g>
                <g id="arrowLeft" xlink:href="#dirArrow" transform="rotate(270) translate(-36 17)" onmousedown="handlePan(-1,0)">
                  <use xlink:href="#rim" fill="#404040">
                        <set attributeName="fill" to="#808080" begin="arrowLeft.mouseover" end="arrowLeft.mouseout"/>
                  </use>
                  <path fill="none" stroke="white" stroke-width="1.5" d="M0,-3.0v7 M-2.5,-0.5L0,-3.0L2.5,-0.5"/>
                </g>
        </g>
        <svg viewBox="0 0 15 15" width="100%" height="30px" preserveAspectRatio="xMaxYMin meet">
         <g id="arrow_out" transform="scale(0.3 0.3)">
          <a xlink:href="signed__distance__to__point_8h__incl_org.svg" target="_base">
           <rect id="button" ry="5" rx="5" y="6" x="6" height="38" width="38"
                fill="#f2f5e9" fill-opacity="0.5" stroke="#606060" stroke-width="1.0"/>
           <path id="arrow"
             d="M 11.500037,31.436501 C 11.940474,20.09759 22.043105,11.32322 32.158766,21.979434 L 37.068811,17.246167 C 37.068811,17.246167 37.088388,32 37.088388,32 L 22.160133,31.978069 C 22.160133,31.978069 26.997745,27.140456 26.997745,27.140456 C 18.528582,18.264221 13.291696,25.230495 11.500037,31.436501 z"
             style="fill:#404040;"/>
          </a>
         </g>
        </svg>
</svg>
