<?xml version="1.0" encoding="UTF-8" standalone="no"?>
<!DOCTYPE svg PUBLIC "-//W3C//DTD SVG 1.1//EN"
 "http://www.w3.org/Graphics/SVG/1.1/DTD/svg11.dtd">
<!-- Generated by graphviz version 2.43.0 (0)
 -->
<!-- Title: drake/geometry/query_results/signed_distance_to_point.h Pages: 1 -->
<svg width="1947pt" height="443pt"
 viewBox="0.00 0.00 1946.96 442.56" xmlns="http://www.w3.org/2000/svg" xmlns:xlink="http://www.w3.org/1999/xlink">
<g id="graph0" class="graph" transform="scale(1 1) rotate(0) translate(4 438.56)">
<title>drake/geometry/query_results/signed_distance_to_point.h</title>
<!-- Node1 -->
<g id="Node000001" class="node">
<title>Node1</title>
<g id="a_Node000001"><a xlink:title=" ">
<ellipse fill="#999999" stroke="#666666" cx="426.82" cy="-405.57" rx="96.75" ry="28.98"/>
<text text-anchor="start" x="366.32" y="-414.07" font-family="Helvetica,sans-Serif" font-size="10.00">drake/geometry/query</text>
<text text-anchor="start" x="366.32" y="-403.07" font-family="Helvetica,sans-Serif" font-size="10.00">_results/signed_distance</text>
<text text-anchor="middle" x="426.82" y="-392.07" font-family="Helvetica,sans-Serif" font-size="10.00">_to_point.h</text>
</a>
</g>
</g>
<!-- Node2 -->
<g id="Node000002" class="node">
<title>Node2</title>
<g id="a_Node000002"><a xlink:title=" ">
<ellipse fill="#e0e0e0" stroke="#999999" cx="300.82" cy="-84.08" rx="33.47" ry="13.37"/>
<text text-anchor="middle" x="300.82" y="-81.58" font-family="Helvetica,sans-Serif" font-size="10.00">cmath</text>
</a>
</g>
</g>
<!-- Node1&#45;&gt;Node2 -->
<g id="edge1_Node000001_Node000002" class="edge">
<title>Node1&#45;&gt;Node2</title>
<g id="a_edge1_Node000001_Node000002"><a xlink:title=" ">
<path fill="none" stroke="#63b8ff" d="M347.89,-388.65C248.67,-363.94 82.42,-305.86 8.82,-183.72 -0.92,-167.57 -3.19,-155.84 8.82,-141.3 39.87,-103.69 184.17,-90.97 257.61,-86.89"/>
<polygon fill="#63b8ff" stroke="#63b8ff" points="258.11,-90.37 267.92,-86.35 257.75,-83.38 258.11,-90.37"/>
</a>
</g>
</g>
<!-- Node3 -->
<g id="Node000003" class="node">
<title>Node3</title>
<g id="a_Node000003"><a xlink:href="drake__copyable_8h.html" target="_top" xlink:title="Provides careful macros to selectively enable or disable the special member functions for copy&#45;constr...">
<ellipse fill="white" stroke="#666666" cx="587.82" cy="-162.51" rx="84.29" ry="21.43"/>
<text text-anchor="start" x="536.32" y="-165.51" font-family="Helvetica,sans-Serif" font-size="10.00">drake/common/drake</text>
<text text-anchor="middle" x="587.82" y="-154.51" font-family="Helvetica,sans-Serif" font-size="10.00">_copyable.h</text>
</a>
</g>
</g>
<!-- Node1&#45;&gt;Node3 -->
<g id="edge2_Node000001_Node000003" class="edge">
<title>Node1&#45;&gt;Node3</title>
<g id="a_edge2_Node000001_Node000003"><a xlink:title=" ">
<path fill="none" stroke="#63b8ff" d="M437.75,-376.46C446.85,-354.4 460.87,-323.33 476.82,-298.15 502.07,-258.25 537.72,-217.02 561.75,-190.88"/>
<polygon fill="#63b8ff" stroke="#63b8ff" points="564.57,-192.98 568.81,-183.26 559.44,-188.22 564.57,-192.98"/>
</a>
</g>
</g>
<!-- Node4 -->
<g id="Node000004" class="node">
<title>Node4</title>
<g id="a_Node000004"><a xlink:href="eigen__types_8h.html" target="_top" xlink:title="This file contains abbreviated definitions for certain specializations of Eigen::Matrix that are comm...">
<ellipse fill="white" stroke="#666666" cx="342.82" cy="-240.94" rx="84.29" ry="21.43"/>
<text text-anchor="start" x="291.32" y="-243.94" font-family="Helvetica,sans-Serif" font-size="10.00">drake/common/eigen</text>
<text text-anchor="middle" x="342.82" y="-232.94" font-family="Helvetica,sans-Serif" font-size="10.00">_types.h</text>
</a>
</g>
</g>
<!-- Node1&#45;&gt;Node4 -->
<g id="edge3_Node000001_Node000004" class="edge">
<title>Node1&#45;&gt;Node4</title>
<g id="a_edge3_Node000001_Node000004"><a xlink:title=" ">
<path fill="none" stroke="#63b8ff" d="M412.37,-376.61C397.22,-347.27 373.5,-301.34 358.05,-271.44"/>
<polygon fill="#63b8ff" stroke="#63b8ff" points="361.05,-269.61 353.35,-262.33 354.83,-272.83 361.05,-269.61"/>
</a>
</g>
</g>
<!-- Node14 -->
<g id="Node000014" class="node">
<title>Node14</title>
<g id="a_Node000014"><a xlink:href="geometry__ids_8h.html" target="_top" xlink:title=" ">
<ellipse fill="white" stroke="#666666" cx="587.82" cy="-319.36" rx="101.65" ry="21.43"/>
<text text-anchor="start" x="523.82" y="-322.36" font-family="Helvetica,sans-Serif" font-size="10.00">drake/geometry/geometry</text>
<text text-anchor="middle" x="587.82" y="-311.36" font-family="Helvetica,sans-Serif" font-size="10.00">_ids.h</text>
</a>
</g>
</g>
<!-- Node1&#45;&gt;Node14 -->
<g id="edge15_Node000001_Node000014" class="edge">
<title>Node1&#45;&gt;Node14</title>
<g id="a_edge15_Node000001_Node000014"><a xlink:title=" ">
<path fill="none" stroke="#63b8ff" d="M473.82,-379.99C495.58,-368.6 521.32,-355.14 542.83,-343.89"/>
<polygon fill="#63b8ff" stroke="#63b8ff" points="544.53,-346.95 551.77,-339.22 541.28,-340.75 544.53,-346.95"/>
</a>
</g>
</g>
<!-- Node4&#45;&gt;Node3 -->
<g id="edge14_Node000004_Node000003" class="edge">
<title>Node4&#45;&gt;Node3</title>
<g id="a_edge14_Node000004_Node000003"><a xlink:title=" ">
<path fill="none" stroke="#63b8ff" d="M393.88,-224.01C432.7,-211.9 486.23,-195.2 527.22,-182.41"/>
<polygon fill="#63b8ff" stroke="#63b8ff" points="528.31,-185.74 536.82,-179.42 526.23,-179.05 528.31,-185.74"/>
</a>
</g>
</g>
<!-- Node5 -->
<g id="Node000005" class="node">
<title>Node5</title>
<g id="a_Node000005"><a xlink:title=" ">
<ellipse fill="#e0e0e0" stroke="#999999" cx="54.82" cy="-162.51" rx="37.45" ry="13.37"/>
<text text-anchor="middle" x="54.82" y="-160.01" font-family="Helvetica,sans-Serif" font-size="10.00">iterator</text>
</a>
</g>
</g>
<!-- Node4&#45;&gt;Node5 -->
<g id="edge4_Node000004_Node000005" class="edge">
<title>Node4&#45;&gt;Node5</title>
<g id="a_edge4_Node000004_Node000005"><a xlink:title=" ">
<path fill="none" stroke="#63b8ff" d="M276.48,-227.76C227.58,-217.99 159.77,-202.78 101.82,-183.72 96.54,-181.99 91.04,-179.9 85.74,-177.72"/>
<polygon fill="#63b8ff" stroke="#63b8ff" points="87.07,-174.49 76.5,-173.79 84.33,-180.93 87.07,-174.49"/>
</a>
</g>
</g>
<!-- Node6 -->
<g id="Node000006" class="node">
<title>Node6</title>
<g id="a_Node000006"><a xlink:title=" ">
<ellipse fill="#e0e0e0" stroke="#999999" cx="630.82" cy="-13.44" rx="31.64" ry="13.37"/>
<text text-anchor="middle" x="630.82" y="-10.94" font-family="Helvetica,sans-Serif" font-size="10.00">utility</text>
</a>
</g>
</g>
<!-- Node4&#45;&gt;Node6 -->
<g id="edge5_Node000004_Node000006" class="edge">
<title>Node4&#45;&gt;Node6</title>
<g id="a_edge5_Node000004_Node000006"><a xlink:title=" ">
<path fill="none" stroke="#63b8ff" d="M259.28,-237.78C171.02,-233.52 40.28,-220.93 8.82,-183.72 -3.36,-169.33 -2.35,-156.49 8.82,-141.3 78.13,-46.9 461.04,-21.8 589.09,-16"/>
<polygon fill="#63b8ff" stroke="#63b8ff" points="589.44,-19.49 599.27,-15.56 589.13,-12.5 589.44,-19.49"/>
</a>
</g>
</g>
<!-- Node7 -->
<g id="Node000007" class="node">
<title>Node7</title>
<g id="a_Node000007"><a xlink:title=" ">
<ellipse fill="#e0e0e0" stroke="#999999" cx="164.82" cy="-162.51" rx="54.39" ry="13.37"/>
<text text-anchor="middle" x="164.82" y="-160.01" font-family="Helvetica,sans-Serif" font-size="10.00">Eigen/Dense</text>
</a>
</g>
</g>
<!-- Node4&#45;&gt;Node7 -->
<g id="edge6_Node000004_Node000007" class="edge">
<title>Node4&#45;&gt;Node7</title>
<g id="a_edge6_Node000004_Node000007"><a xlink:title=" ">
<path fill="none" stroke="#63b8ff" d="M301.53,-222.21C270.62,-208.94 228.81,-190.99 199.59,-178.44"/>
<polygon fill="#63b8ff" stroke="#63b8ff" points="200.77,-175.14 190.2,-174.41 198.01,-181.57 200.77,-175.14"/>
</a>
</g>
</g>
<!-- Node8 -->
<g id="Node000008" class="node">
<title>Node8</title>
<g id="a_Node000008"><a xlink:href="constants_8h.html" target="_top" xlink:title=" ">
<ellipse fill="white" stroke="#666666" cx="342.82" cy="-162.51" rx="105.22" ry="13.37"/>
<text text-anchor="middle" x="342.82" y="-160.01" font-family="Helvetica,sans-Serif" font-size="10.00">drake/common/constants.h</text>
</a>
</g>
</g>
<!-- Node4&#45;&gt;Node8 -->
<g id="edge7_Node000004_Node000008" class="edge">
<title>Node4&#45;&gt;Node8</title>
<g id="a_edge7_Node000004_Node000008"><a xlink:title=" ">
<path fill="none" stroke="#63b8ff" d="M342.82,-219.46C342.82,-209.22 342.82,-196.8 342.82,-186.26"/>
<polygon fill="#63b8ff" stroke="#63b8ff" points="346.32,-186.14 342.82,-176.14 339.32,-186.14 346.32,-186.14"/>
</a>
</g>
</g>
<!-- Node9 -->
<g id="Node000009" class="node">
<title>Node9</title>
<g id="a_Node000009"><a xlink:href="drake__assert_8h.html" target="_top" xlink:title="Provides Drake&#39;s assertion mechanics.">
<ellipse fill="white" stroke="#666666" cx="761.82" cy="-84.08" rx="84.29" ry="21.43"/>
<text text-anchor="start" x="710.32" y="-87.08" font-family="Helvetica,sans-Serif" font-size="10.00">drake/common/drake</text>
<text text-anchor="middle" x="761.82" y="-76.08" font-family="Helvetica,sans-Serif" font-size="10.00">_assert.h</text>
</a>
</g>
</g>
<!-- Node4&#45;&gt;Node9 -->
<g id="edge8_Node000004_Node000009" class="edge">
<title>Node4&#45;&gt;Node9</title>
<g id="a_edge8_Node000004_Node000009"><a xlink:title=" ">
<path fill="none" stroke="#63b8ff" d="M387.02,-222.87C409.14,-213.2 435.63,-199.8 456.82,-183.72 476.98,-168.42 472.9,-153.96 494.82,-141.3 547.99,-110.57 615.78,-96.55 669.75,-90.19"/>
<polygon fill="#63b8ff" stroke="#63b8ff" points="670.45,-93.64 680.01,-89.06 669.68,-86.68 670.45,-93.64"/>
</a>
</g>
</g>
<!-- Node9&#45;&gt;Node6 -->
<g id="edge13_Node000009_Node000006" class="edge">
<title>Node9&#45;&gt;Node6</title>
<g id="a_edge13_Node000009_Node000006"><a xlink:title=" ">
<path fill="none" stroke="#63b8ff" d="M726.71,-64.69C705.38,-53.51 678.53,-39.44 658.66,-29.03"/>
<polygon fill="#63b8ff" stroke="#63b8ff" points="660.29,-25.93 649.8,-24.39 657.04,-32.13 660.29,-25.93"/>
</a>
</g>
</g>
<!-- Node10 -->
<g id="Node000010" class="node">
<title>Node10</title>
<g id="a_Node000010"><a xlink:title=" ">
<ellipse fill="#e0e0e0" stroke="#999999" cx="822.82" cy="-13.44" rx="29.9" ry="13.37"/>
<text text-anchor="middle" x="822.82" y="-10.94" font-family="Helvetica,sans-Serif" font-size="10.00">array</text>
</a>
</g>
</g>
<!-- Node9&#45;&gt;Node10 -->
<g id="edge9_Node000009_Node000010" class="edge">
<title>Node9&#45;&gt;Node10</title>
<g id="a_edge9_Node000009_Node000010"><a xlink:title=" ">
<path fill="none" stroke="#63b8ff" d="M779.46,-63.23C787.73,-53.92 797.55,-42.87 805.75,-33.64"/>
<polygon fill="#63b8ff" stroke="#63b8ff" points="808.43,-35.89 812.46,-26.09 803.2,-31.24 808.43,-35.89"/>
</a>
</g>
</g>
<!-- Node11 -->
<g id="Node000011" class="node">
<title>Node11</title>
<g id="a_Node000011"><a xlink:title=" ">
<ellipse fill="#e0e0e0" stroke="#999999" cx="985.82" cy="-13.44" rx="31.23" ry="13.37"/>
<text text-anchor="middle" x="985.82" y="-10.94" font-family="Helvetica,sans-Serif" font-size="10.00">string</text>
</a>
</g>
</g>
<!-- Node9&#45;&gt;Node11 -->
<g id="edge10_Node000009_Node000011" class="edge">
<title>Node9&#45;&gt;Node11</title>
<g id="a_edge10_Node000009_Node000011"><a xlink:title=" ">
<path fill="none" stroke="#63b8ff" d="M813.49,-67.25C856,-54.22 915.05,-36.12 951.82,-24.85"/>
<polygon fill="#63b8ff" stroke="#63b8ff" points="953.03,-28.14 961.57,-21.87 950.98,-21.45 953.03,-28.14"/>
</a>
</g>
</g>
<!-- Node12 -->
<g id="Node000012" class="node">
<title>Node12</title>
<g id="a_Node000012"><a xlink:title=" ">
<ellipse fill="#e0e0e0" stroke="#999999" cx="745.82" cy="-13.44" rx="28.98" ry="13.37"/>
<text text-anchor="middle" x="745.82" y="-10.94" font-family="Helvetica,sans-Serif" font-size="10.00">tuple</text>
</a>
</g>
</g>
<!-- Node9&#45;&gt;Node12 -->
<g id="edge11_Node000009_Node000012" class="edge">
<title>Node9&#45;&gt;Node12</title>
<g id="a_edge11_Node000009_Node000012"><a xlink:title=" ">
<path fill="none" stroke="#63b8ff" d="M757.1,-62.86C755.21,-54.74 753.02,-45.34 751.07,-37"/>
<polygon fill="#63b8ff" stroke="#63b8ff" points="754.46,-36.12 748.78,-27.18 747.65,-37.71 754.46,-36.12"/>
</a>
</g>
</g>
<!-- Node13 -->
<g id="Node000013" class="node">
<title>Node13</title>
<g id="a_Node000013"><a xlink:title=" ">
<ellipse fill="#e0e0e0" stroke="#999999" cx="1308.82" cy="-13.44" rx="48.58" ry="13.37"/>
<text text-anchor="middle" x="1308.82" y="-10.94" font-family="Helvetica,sans-Serif" font-size="10.00">type_traits</text>
</a>
</g>
</g>
<!-- Node9&#45;&gt;Node13 -->
<g id="edge12_Node000009_Node000013" class="edge">
<title>Node9&#45;&gt;Node13</title>
<g id="a_edge12_Node000009_Node000013"><a xlink:title=" ">
<path fill="none" stroke="#63b8ff" d="M831.09,-71.9C851,-68.82 872.75,-65.59 892.82,-62.87 1022.11,-45.37 1174.54,-28.61 1254.15,-20.15"/>
<polygon fill="#63b8ff" stroke="#63b8ff" points="1254.84,-23.59 1264.42,-19.06 1254.11,-16.63 1254.84,-23.59"/>
</a>
</g>
</g>
<!-- Node14&#45;&gt;Node3 -->
<g id="edge16_Node000014_Node000003" class="edge">
<title>Node14&#45;&gt;Node3</title>
<g id="a_edge16_Node000014_Node000003"><a xlink:title=" ">
<path fill="none" stroke="#63b8ff" d="M587.82,-298.12C587.82,-271.57 587.82,-224.76 587.82,-193.94"/>
<polygon fill="#63b8ff" stroke="#63b8ff" points="591.32,-193.76 587.82,-183.76 584.32,-193.76 591.32,-193.76"/>
</a>
</g>
</g>
<!-- Node15 -->
<g id="Node000015" class="node">
<title>Node15</title>
<g id="a_Node000015"><a xlink:href="identifier_8h.html" target="_top" xlink:title=" ">
<ellipse fill="white" stroke="#666666" cx="854.82" cy="-240.94" rx="101.65" ry="13.37"/>
<text text-anchor="middle" x="854.82" y="-238.44" font-family="Helvetica,sans-Serif" font-size="10.00">drake/common/identifier.h</text>
</a>
</g>
</g>
<!-- Node14&#45;&gt;Node15 -->
<g id="edge17_Node000014_Node000015" class="edge">
<title>Node14&#45;&gt;Node15</title>
<g id="a_edge17_Node000014_Node000015"><a xlink:title=" ">
<path fill="none" stroke="#63b8ff" d="M645.75,-301.78C693.23,-288.19 759.73,-269.15 804.89,-256.23"/>
<polygon fill="#63b8ff" stroke="#63b8ff" points="806.1,-259.52 814.75,-253.4 804.17,-252.79 806.1,-259.52"/>
</a>
</g>
</g>
<!-- Node15&#45;&gt;Node3 -->
<g id="edge22_Node000015_Node000003" class="edge">
<title>Node15&#45;&gt;Node3</title>
<g id="a_edge22_Node000015_Node000003"><a xlink:title=" ">
<path fill="none" stroke="#63b8ff" d="M814.84,-228.49C771.61,-216.12 702.08,-196.22 651.34,-181.69"/>
<polygon fill="#63b8ff" stroke="#63b8ff" points="652.03,-178.25 641.46,-178.86 650.11,-184.98 652.03,-178.25"/>
</a>
</g>
</g>
<!-- Node15&#45;&gt;Node6 -->
<g id="edge20_Node000015_Node000006" class="edge">
<title>Node15&#45;&gt;Node6</title>
<g id="a_edge20_Node000015_Node000006"><a xlink:title=" ">
<path fill="none" stroke="#63b8ff" d="M814.33,-228.5C785.94,-219.27 748.01,-204.39 718.82,-183.72 698.16,-169.09 699.01,-158.89 680.82,-141.3 662.9,-123.97 649.22,-127.46 637.82,-105.3 626.87,-84.03 626.41,-56.2 627.87,-36.97"/>
<polygon fill="#63b8ff" stroke="#63b8ff" points="631.35,-37.31 628.85,-27.01 624.39,-36.62 631.35,-37.31"/>
</a>
</g>
</g>
<!-- Node15&#45;&gt;Node9 -->
<g id="edge21_Node000015_Node000009" class="edge">
<title>Node15&#45;&gt;Node9</title>
<g id="a_edge21_Node000015_Node000009"><a xlink:title=" ">
<path fill="none" stroke="#63b8ff" d="M851.74,-227.34C846.59,-207.82 834.97,-169.55 816.82,-141.3 810.01,-130.71 800.98,-120.45 792.2,-111.67"/>
<polygon fill="#63b8ff" stroke="#63b8ff" points="794.56,-109.09 784.94,-104.66 789.7,-114.12 794.56,-109.09"/>
</a>
</g>
</g>
<!-- Node15&#45;&gt;Node11 -->
<g id="edge19_Node000015_Node000011" class="edge">
<title>Node15&#45;&gt;Node11</title>
<g id="a_edge19_Node000015_Node000011"><a xlink:title=" ">
<path fill="none" stroke="#63b8ff" d="M854.07,-227.3C852.89,-196.04 853.95,-113.89 892.82,-62.87 907.07,-44.16 930.61,-32 950.45,-24.55"/>
<polygon fill="#63b8ff" stroke="#63b8ff" points="951.84,-27.77 960.12,-21.16 949.53,-21.16 951.84,-27.77"/>
</a>
</g>
</g>
<!-- Node16 -->
<g id="Node000016" class="node">
<title>Node16</title>
<g id="a_Node000016"><a xlink:title=" ">
<ellipse fill="#e0e0e0" stroke="#999999" cx="1123.82" cy="-84.08" rx="35.21" ry="13.37"/>
<text text-anchor="middle" x="1123.82" y="-81.58" font-family="Helvetica,sans-Serif" font-size="10.00">cstdint</text>
</a>
</g>
</g>
<!-- Node15&#45;&gt;Node16 -->
<g id="edge18_Node000015_Node000016" class="edge">
<title>Node15&#45;&gt;Node16</title>
<g id="a_edge18_Node000015_Node000016"><a xlink:title=" ">
<path fill="none" stroke="#63b8ff" d="M875.92,-227.79C924.18,-200.01 1042.54,-131.87 1096.36,-100.89"/>
<polygon fill="#63b8ff" stroke="#63b8ff" points="1098.41,-103.75 1105.33,-95.72 1094.92,-97.68 1098.41,-103.75"/>
</a>
</g>
</g>
<!-- Node17 -->
<g id="Node000017" class="node">
<title>Node17</title>
<g id="a_Node000017"><a xlink:href="drake__deprecated_8h.html" target="_top" xlink:title="Provides a portable macro for use in generating compile&#45;time warnings for use of code that is permitt...">
<ellipse fill="white" stroke="#666666" cx="985.82" cy="-84.08" rx="84.29" ry="21.43"/>
<text text-anchor="start" x="934.32" y="-87.08" font-family="Helvetica,sans-Serif" font-size="10.00">drake/common/drake</text>
<text text-anchor="middle" x="985.82" y="-76.08" font-family="Helvetica,sans-Serif" font-size="10.00">_deprecated.h</text>
</a>
</g>
</g>
<!-- Node15&#45;&gt;Node17 -->
<g id="edge23_Node000015_Node000017" class="edge">
<title>Node15&#45;&gt;Node17</title>
<g id="a_edge23_Node000015_Node000017"><a xlink:title=" ">
<path fill="none" stroke="#63b8ff" d="M865.31,-227.53C886.28,-202.74 933.78,-146.6 962.48,-112.66"/>
<polygon fill="#63b8ff" stroke="#63b8ff" points="965.21,-114.85 969,-104.96 959.87,-110.33 965.21,-114.85"/>
</a>
</g>
</g>
<!-- Node19 -->
<g id="Node000019" class="node">
<title>Node19</title>
<g id="a_Node000019"><a xlink:href="fmt_8h.html" target="_top" xlink:title=" ">
<ellipse fill="white" stroke="#666666" cx="1854.82" cy="-84.08" rx="84.29" ry="13.37"/>
<text text-anchor="middle" x="1854.82" y="-81.58" font-family="Helvetica,sans-Serif" font-size="10.00">drake/common/fmt.h</text>
</a>
</g>
</g>
<!-- Node15&#45;&gt;Node19 -->
<g id="edge26_Node000015_Node000019" class="edge">
<title>Node15&#45;&gt;Node19</title>
<g id="a_edge26_Node000015_Node000019"><a xlink:title=" ">
<path fill="none" stroke="#63b8ff" d="M934.83,-232.53C1032.03,-223.13 1200.88,-205.48 1344.82,-183.72 1531.28,-155.53 1576.99,-142.75 1761.82,-105.3 1773.71,-102.89 1786.43,-100.2 1798.53,-97.58"/>
<polygon fill="#63b8ff" stroke="#63b8ff" points="1799.48,-100.96 1808.51,-95.42 1798,-94.12 1799.48,-100.96"/>
</a>
</g>
</g>
<!-- Node21 -->
<g id="Node000021" class="node">
<title>Node21</title>
<g id="a_Node000021"><a xlink:href="hash_8h.html" target="_top" xlink:title=" ">
<ellipse fill="white" stroke="#666666" cx="1247.82" cy="-162.51" rx="88.28" ry="13.37"/>
<text text-anchor="middle" x="1247.82" y="-160.01" font-family="Helvetica,sans-Serif" font-size="10.00">drake/common/hash.h</text>
</a>
</g>
</g>
<!-- Node15&#45;&gt;Node21 -->
<g id="edge31_Node000015_Node000021" class="edge">
<title>Node15&#45;&gt;Node21</title>
<g id="a_edge31_Node000015_Node000021"><a xlink:title=" ">
<path fill="none" stroke="#63b8ff" d="M908.64,-229.47C981.26,-215.35 1110.31,-190.25 1186.57,-175.42"/>
<polygon fill="#63b8ff" stroke="#63b8ff" points="1187.37,-178.83 1196.51,-173.49 1186.03,-171.96 1187.37,-178.83"/>
</a>
</g>
</g>
<!-- Node28 -->
<g id="Node000028" class="node">
<title>Node28</title>
<g id="a_Node000028"><a xlink:title=" ">
<ellipse fill="#e0e0e0" stroke="#999999" cx="767.82" cy="-162.51" rx="40.11" ry="13.37"/>
<text text-anchor="middle" x="767.82" y="-160.01" font-family="Helvetica,sans-Serif" font-size="10.00">ostream</text>
</a>
</g>
</g>
<!-- Node15&#45;&gt;Node28 -->
<g id="edge44_Node000015_Node000028" class="edge">
<title>Node15&#45;&gt;Node28</title>
<g id="a_edge44_Node000015_Node000028"><a xlink:title=" ">
<path fill="none" stroke="#63b8ff" d="M840.45,-227.32C826.48,-215.04 805.08,-196.24 789.12,-182.23"/>
<polygon fill="#63b8ff" stroke="#63b8ff" points="791.17,-179.36 781.34,-175.39 786.55,-184.62 791.17,-179.36"/>
</a>
</g>
</g>
<!-- Node17&#45;&gt;Node11 -->
<g id="edge24_Node000017_Node000011" class="edge">
<title>Node17&#45;&gt;Node11</title>
<g id="a_edge24_Node000017_Node000011"><a xlink:title=" ">
<path fill="none" stroke="#63b8ff" d="M985.82,-62.86C985.82,-54.83 985.82,-45.55 985.82,-37.28"/>
<polygon fill="#63b8ff" stroke="#63b8ff" points="989.32,-37.18 985.82,-27.18 982.32,-37.18 989.32,-37.18"/>
</a>
</g>
</g>
<!-- Node18 -->
<g id="Node000018" class="node">
<title>Node18</title>
<g id="a_Node000018"><a xlink:title=" ">
<ellipse fill="#e0e0e0" stroke="#999999" cx="1578.82" cy="-13.44" rx="51.74" ry="13.37"/>
<text text-anchor="middle" x="1578.82" y="-10.94" font-family="Helvetica,sans-Serif" font-size="10.00">string_view</text>
</a>
</g>
</g>
<!-- Node17&#45;&gt;Node18 -->
<g id="edge25_Node000017_Node000018" class="edge">
<title>Node17&#45;&gt;Node18</title>
<g id="a_edge25_Node000017_Node000018"><a xlink:title=" ">
<path fill="none" stroke="#63b8ff" d="M1045.8,-69.11C1057.06,-66.79 1068.76,-64.59 1079.82,-62.87 1237.53,-38.34 1425.34,-24.1 1519.2,-18"/>
<polygon fill="#63b8ff" stroke="#63b8ff" points="1519.6,-21.48 1529.35,-17.34 1519.15,-14.49 1519.6,-21.48"/>
</a>
</g>
</g>
<!-- Node19&#45;&gt;Node11 -->
<g id="edge27_Node000019_Node000011" class="edge">
<title>Node19&#45;&gt;Node11</title>
<g id="a_edge27_Node000019_Node000011"><a xlink:title=" ">
<path fill="none" stroke="#63b8ff" d="M1812.46,-72.46C1796.66,-68.87 1778.51,-65.19 1761.82,-62.87 1688.86,-52.73 1176.23,-24.67 1026.68,-16.62"/>
<polygon fill="#63b8ff" stroke="#63b8ff" points="1026.72,-13.12 1016.55,-16.08 1026.35,-20.11 1026.72,-13.12"/>
</a>
</g>
</g>
<!-- Node19&#45;&gt;Node13 -->
<g id="edge29_Node000019_Node000013" class="edge">
<title>Node19&#45;&gt;Node13</title>
<g id="a_edge29_Node000019_Node000013"><a xlink:title=" ">
<path fill="none" stroke="#63b8ff" d="M1811,-72.55C1795.53,-69.09 1777.96,-65.48 1761.82,-62.87 1620.01,-39.95 1451.41,-25.17 1365.41,-18.52"/>
<polygon fill="#63b8ff" stroke="#63b8ff" points="1365.57,-15.02 1355.34,-17.75 1365.04,-22 1365.57,-15.02"/>
</a>
</g>
</g>
<!-- Node19&#45;&gt;Node18 -->
<g id="edge28_Node000019_Node000018" class="edge">
<title>Node19&#45;&gt;Node18</title>
<g id="a_edge28_Node000019_Node000018"><a xlink:title=" ">
<path fill="none" stroke="#63b8ff" d="M1811.99,-72.43C1761.03,-59.76 1676.31,-38.69 1624.24,-25.73"/>
<polygon fill="#63b8ff" stroke="#63b8ff" points="1624.82,-22.27 1614.28,-23.25 1623.14,-29.07 1624.82,-22.27"/>
</a>
</g>
</g>
<!-- Node20 -->
<g id="Node000020" class="node">
<title>Node20</title>
<g id="a_Node000020"><a xlink:title=" ">
<ellipse fill="#e0e0e0" stroke="#999999" cx="1854.82" cy="-13.44" rx="55.72" ry="13.37"/>
<text text-anchor="middle" x="1854.82" y="-10.94" font-family="Helvetica,sans-Serif" font-size="10.00">fmt/format.h</text>
</a>
</g>
</g>
<!-- Node19&#45;&gt;Node20 -->
<g id="edge30_Node000019_Node000020" class="edge">
<title>Node19&#45;&gt;Node20</title>
<g id="a_edge30_Node000019_Node000020"><a xlink:title=" ">
<path fill="none" stroke="#63b8ff" d="M1854.82,-70.49C1854.82,-61.2 1854.82,-48.3 1854.82,-37.22"/>
<polygon fill="#63b8ff" stroke="#63b8ff" points="1858.32,-36.95 1854.82,-26.95 1851.32,-36.95 1858.32,-36.95"/>
</a>
</g>
</g>
<!-- Node21&#45;&gt;Node2 -->
<g id="edge32_Node000021_Node000002" class="edge">
<title>Node21&#45;&gt;Node2</title>
<g id="a_edge32_Node000021_Node000002"><a xlink:title=" ">
<path fill="none" stroke="#63b8ff" d="M1172.32,-155.42C982.53,-140.1 490.22,-100.37 343,-88.49"/>
<polygon fill="#63b8ff" stroke="#63b8ff" points="343.25,-85 333,-87.68 342.69,-91.97 343.25,-85"/>
</a>
</g>
</g>
<!-- Node21&#45;&gt;Node6 -->
<g id="edge41_Node000021_Node000006" class="edge">
<title>Node21&#45;&gt;Node6</title>
<g id="a_edge41_Node000021_Node000006"><a xlink:title=" ">
<path fill="none" stroke="#63b8ff" d="M1164.07,-158.1C1013.21,-151.26 707.77,-134.04 668.82,-105.3 647.02,-89.22 637.65,-58.25 633.67,-36.98"/>
<polygon fill="#63b8ff" stroke="#63b8ff" points="637.09,-36.18 632.04,-26.86 630.18,-37.29 637.09,-36.18"/>
</a>
</g>
</g>
<!-- Node21&#45;&gt;Node9 -->
<g id="edge43_Node000021_Node000009" class="edge">
<title>Node21&#45;&gt;Node9</title>
<g id="a_edge43_Node000021_Node000009"><a xlink:title=" ">
<path fill="none" stroke="#63b8ff" d="M1189.67,-152.37C1102.92,-138.72 939.35,-113 841.52,-97.62"/>
<polygon fill="#63b8ff" stroke="#63b8ff" points="841.81,-94.12 831.38,-96.02 840.72,-101.03 841.81,-94.12"/>
</a>
</g>
</g>
<!-- Node21&#45;&gt;Node11 -->
<g id="edge39_Node000021_Node000011" class="edge">
<title>Node21&#45;&gt;Node11</title>
<g id="a_edge39_Node000021_Node000011"><a xlink:title=" ">
<path fill="none" stroke="#63b8ff" d="M1238.48,-149.15C1219.39,-124 1176.93,-68.77 1167.82,-62.87 1124.54,-34.84 1065.53,-22.97 1026.59,-17.98"/>
<polygon fill="#63b8ff" stroke="#63b8ff" points="1026.5,-14.44 1016.16,-16.75 1025.68,-21.4 1026.5,-14.44"/>
</a>
</g>
</g>
<!-- Node21&#45;&gt;Node13 -->
<g id="edge40_Node000021_Node000013" class="edge">
<title>Node21&#45;&gt;Node13</title>
<g id="a_edge40_Node000021_Node000013"><a xlink:title=" ">
<path fill="none" stroke="#63b8ff" d="M1259.59,-149.14C1269.17,-138.39 1282.3,-121.95 1289.82,-105.3 1299.73,-83.32 1304.55,-55.99 1306.84,-37.07"/>
<polygon fill="#63b8ff" stroke="#63b8ff" points="1310.33,-37.33 1307.91,-27.01 1303.37,-36.59 1310.33,-37.33"/>
</a>
</g>
</g>
<!-- Node21&#45;&gt;Node16 -->
<g id="edge34_Node000021_Node000016" class="edge">
<title>Node21&#45;&gt;Node16</title>
<g id="a_edge34_Node000021_Node000016"><a xlink:title=" ">
<path fill="none" stroke="#63b8ff" d="M1228.17,-149.4C1207.07,-136.39 1173.43,-115.66 1150.07,-101.27"/>
<polygon fill="#63b8ff" stroke="#63b8ff" points="1151.72,-98.17 1141.37,-95.9 1148.04,-104.13 1151.72,-98.17"/>
</a>
</g>
</g>
<!-- Node22 -->
<g id="Node000022" class="node">
<title>Node22</title>
<g id="a_Node000022"><a xlink:title=" ">
<ellipse fill="#e0e0e0" stroke="#999999" cx="1373.82" cy="-84.08" rx="37.45" ry="13.37"/>
<text text-anchor="middle" x="1373.82" y="-81.58" font-family="Helvetica,sans-Serif" font-size="10.00">cstddef</text>
</a>
</g>
</g>
<!-- Node21&#45;&gt;Node22 -->
<g id="edge33_Node000021_Node000022" class="edge">
<title>Node21&#45;&gt;Node22</title>
<g id="a_edge33_Node000021_Node000022"><a xlink:title=" ">
<path fill="none" stroke="#63b8ff" d="M1267.78,-149.4C1289.22,-136.39 1323.4,-115.66 1347.14,-101.27"/>
<polygon fill="#63b8ff" stroke="#63b8ff" points="1349.25,-104.08 1355.98,-95.9 1345.62,-98.09 1349.25,-104.08"/>
</a>
</g>
</g>
<!-- Node23 -->
<g id="Node000023" class="node">
<title>Node23</title>
<g id="a_Node000023"><a xlink:title=" ">
<ellipse fill="#e0e0e0" stroke="#999999" cx="1474.82" cy="-84.08" rx="45.92" ry="13.37"/>
<text text-anchor="middle" x="1474.82" y="-81.58" font-family="Helvetica,sans-Serif" font-size="10.00">functional</text>
</a>
</g>
</g>
<!-- Node21&#45;&gt;Node23 -->
<g id="edge35_Node000021_Node000023" class="edge">
<title>Node21&#45;&gt;Node23</title>
<g id="a_edge35_Node000021_Node000023"><a xlink:title=" ">
<path fill="none" stroke="#63b8ff" d="M1283.85,-150.15C1318.74,-139.06 1373.07,-121.52 1419.82,-105.3 1425.87,-103.2 1432.28,-100.9 1438.49,-98.64"/>
<polygon fill="#63b8ff" stroke="#63b8ff" points="1439.84,-101.88 1448.03,-95.15 1437.44,-95.3 1439.84,-101.88"/>
</a>
</g>
</g>
<!-- Node24 -->
<g id="Node000024" class="node">
<title>Node24</title>
<g id="a_Node000024"><a xlink:title=" ">
<ellipse fill="#e0e0e0" stroke="#999999" cx="1565.82" cy="-84.08" rx="26.74" ry="13.37"/>
<text text-anchor="middle" x="1565.82" y="-81.58" font-family="Helvetica,sans-Serif" font-size="10.00">map</text>
</a>
</g>
</g>
<!-- Node21&#45;&gt;Node24 -->
<g id="edge36_Node000021_Node000024" class="edge">
<title>Node21&#45;&gt;Node24</title>
<g id="a_edge36_Node000021_Node000024"><a xlink:title=" ">
<path fill="none" stroke="#63b8ff" d="M1316.41,-153.98C1374.55,-146.15 1459.46,-131.31 1529.82,-105.3 1533.64,-103.88 1537.54,-102.1 1541.3,-100.18"/>
<polygon fill="#63b8ff" stroke="#63b8ff" points="1543.14,-103.16 1550.21,-95.26 1539.76,-97.03 1543.14,-103.16"/>
</a>
</g>
</g>
<!-- Node25 -->
<g id="Node000025" class="node">
<title>Node25</title>
<g id="a_Node000025"><a xlink:title=" ">
<ellipse fill="#e0e0e0" stroke="#999999" cx="1649.82" cy="-84.08" rx="39.7" ry="13.37"/>
<text text-anchor="middle" x="1649.82" y="-81.58" font-family="Helvetica,sans-Serif" font-size="10.00">optional</text>
</a>
</g>
</g>
<!-- Node21&#45;&gt;Node25 -->
<g id="edge37_Node000021_Node000025" class="edge">
<title>Node21&#45;&gt;Node25</title>
<g id="a_edge37_Node000021_Node000025"><a xlink:title=" ">
<path fill="none" stroke="#63b8ff" d="M1321.48,-155.04C1393.87,-147.46 1506.97,-132.37 1601.82,-105.3 1607.36,-103.71 1613.12,-101.67 1618.64,-99.48"/>
<polygon fill="#63b8ff" stroke="#63b8ff" points="1620.35,-102.56 1628.23,-95.48 1617.65,-96.1 1620.35,-102.56"/>
</a>
</g>
</g>
<!-- Node26 -->
<g id="Node000026" class="node">
<title>Node26</title>
<g id="a_Node000026"><a xlink:title=" ">
<ellipse fill="#e0e0e0" stroke="#999999" cx="1729.82" cy="-84.08" rx="22.76" ry="13.37"/>
<text text-anchor="middle" x="1729.82" y="-81.58" font-family="Helvetica,sans-Serif" font-size="10.00">set</text>
</a>
</g>
</g>
<!-- Node21&#45;&gt;Node26 -->
<g id="edge38_Node000021_Node000026" class="edge">
<title>Node21&#45;&gt;Node26</title>
<g id="a_edge38_Node000021_Node000026"><a xlink:title=" ">
<path fill="none" stroke="#63b8ff" d="M1325.83,-156.04C1436.25,-147.58 1632.13,-129.71 1698.82,-105.3 1702.01,-104.13 1705.22,-102.57 1708.28,-100.85"/>
<polygon fill="#63b8ff" stroke="#63b8ff" points="1710.37,-103.67 1716.95,-95.36 1706.63,-97.76 1710.37,-103.67"/>
</a>
</g>
</g>
<!-- Node27 -->
<g id="Node000027" class="node">
<title>Node27</title>
<g id="a_Node000027"><a xlink:title=" ">
<ellipse fill="#e0e0e0" stroke="#999999" cx="1247.82" cy="-84.08" rx="33.47" ry="13.37"/>
<text text-anchor="middle" x="1247.82" y="-81.58" font-family="Helvetica,sans-Serif" font-size="10.00">vector</text>
</a>
</g>
</g>
<!-- Node21&#45;&gt;Node27 -->
<g id="edge42_Node000021_Node000027" class="edge">
<title>Node21&#45;&gt;Node27</title>
<g id="a_edge42_Node000021_Node000027"><a xlink:title=" ">
<path fill="none" stroke="#63b8ff" d="M1247.82,-148.89C1247.82,-137.83 1247.82,-121.47 1247.82,-108.08"/>
<polygon fill="#63b8ff" stroke="#63b8ff" points="1251.32,-107.72 1247.82,-97.72 1244.32,-107.72 1251.32,-107.72"/>
</a>
</g>
</g>
</g>
</svg>
