<?xml version="1.0" encoding="UTF-8" standalone="no"?>
<!DOCTYPE svg PUBLIC "-//W3C//DTD SVG 1.1//EN"
 "http://www.w3.org/Graphics/SVG/1.1/DTD/svg11.dtd">
<!-- Generated by graphviz version 2.43.0 (0)
 -->
<!-- Title: drake/solvers/solution_result.h Pages: 1 -->
<!--zoomable 463 -->
<svg id="main" version="1.1" xmlns="http://www.w3.org/2000/svg" xmlns:xlink="http://www.w3.org/1999/xlink" xml:space="preserve" onload="init(evt)">
<style type="text/css"><![CDATA[
.edge:hover path { stroke: red; }
.edge:hover polygon { stroke: red; fill: red; }
]]></style>
<script type="text/javascript"><![CDATA[
var edges = document.getElementsByTagName('g');
if (edges && edges.length) {
  for (var i=0;i<edges.length;i++) {
    if (edges[i].id.substr(0,4)=='edge') {
      edges[i].setAttribute('class','edge');
    }
  }
}
]]></script>
        <defs>
                <circle id="rim" cx="0" cy="0" r="7"/>
                <circle id="rim2" cx="0" cy="0" r="3.5"/>
                <g id="zoomPlus">
                        <use xlink:href="#rim" fill="#404040">
                                <set attributeName="fill" to="#808080" begin="zoomplus.mouseover" end="zoomplus.mouseout"/>
                        </use>
                        <path d="M-4,0h8M0,-4v8" fill="none" stroke="white" stroke-width="1.5" pointer-events="none"/>
                </g>
                <g id="zoomMin">
                        <use xlink:href="#rim" fill="#404040">
                                <set attributeName="fill" to="#808080" begin="zoomminus.mouseover" end="zoomminus.mouseout"/>
                        </use>
                        <path d="M-4,0h8" fill="none" stroke="white" stroke-width="1.5" pointer-events="none"/>
                </g>
                <g id="dirArrow">
                        <path fill="none" stroke="white" stroke-width="1.5" d="M0,-3.0v7 M-2.5,-0.5L0,-3.0L2.5,-0.5"/>
                </g>
               <g id="resetDef">
                       <use xlink:href="#rim2" fill="#404040">
                               <set attributeName="fill" to="#808080" begin="reset.mouseover" end="reset.mouseout"/>
                       </use>
               </g>
        </defs>

<script type="text/javascript">
var viewWidth = 2349;
var viewHeight = 463;
var sectionId = 'dynsection-1';
</script>
<script xlink:href="svgpan.js"/>
<svg id="graph" class="graph">
<g id="viewport">
<title>drake/solvers/solution_result.h</title>
<polygon fill="white" stroke="transparent" points="-4,4 -4,-459 2345,-459 2345,4 -4,4"/>
<!-- Node6 -->
<g id="node1" class="node">
<title>Node6</title>
<g id="a_node1"><a xlink:title=" ">
<polygon fill="#bfbfbf" stroke="black" points="1090,-424.5 1090,-454.5 1214,-454.5 1214,-424.5 1090,-424.5"/>
<text text-anchor="start" x="1098" y="-442.5" font-family="Helvetica,sans-Serif" font-size="10.00">drake/solvers/solution</text>
<text text-anchor="middle" x="1152" y="-431.5" font-family="Helvetica,sans-Serif" font-size="10.00">_result.h</text>
</a>
</g>
</g>
<!-- Node7 -->
<g id="node2" class="node">
<title>Node7</title>
<g id="a_node2"><a xlink:href="solver__base_8h.html" target="_top" xlink:title=" ">
<polygon fill="white" stroke="black" points="959.5,-212.5 959.5,-242.5 1074.5,-242.5 1074.5,-212.5 959.5,-212.5"/>
<text text-anchor="start" x="967.5" y="-230.5" font-family="Helvetica,sans-Serif" font-size="10.00">drake/solvers/solver</text>
<text text-anchor="middle" x="1017" y="-219.5" font-family="Helvetica,sans-Serif" font-size="10.00">_base.h</text>
</a>
</g>
</g>
<!-- Node6&#45;&gt;Node7 -->
<g id="edge1" class="edge">
<title>Node6&#45;&gt;Node7</title>
<path fill="none" stroke="midnightblue" d="M1137.49,-415.92C1109.53,-372.44 1048.94,-278.19 1026.03,-242.54"/>
<polygon fill="midnightblue" stroke="midnightblue" points="1134.58,-417.88 1142.93,-424.4 1140.47,-414.09 1134.58,-417.88"/>
</g>
<!-- Node27 -->
<g id="node22" class="node">
<title>Node27</title>
<g id="a_node22"><a xlink:href="mathematical__program__result_8h.html" target="_top" xlink:title=" ">
<polygon fill="white" stroke="black" points="1847.5,-357.5 1847.5,-387.5 2000.5,-387.5 2000.5,-357.5 1847.5,-357.5"/>
<text text-anchor="start" x="1855.5" y="-375.5" font-family="Helvetica,sans-Serif" font-size="10.00">drake/solvers/mathematical</text>
<text text-anchor="middle" x="1924" y="-364.5" font-family="Helvetica,sans-Serif" font-size="10.00">_program_result.h</text>
</a>
</g>
</g>
<!-- Node6&#45;&gt;Node27 -->
<g id="edge23" class="edge">
<title>Node6&#45;&gt;Node27</title>
<path fill="none" stroke="midnightblue" d="M1224.37,-432.41C1370.16,-420.13 1697.97,-392.53 1847.29,-379.96"/>
<polygon fill="midnightblue" stroke="midnightblue" points="1223.87,-428.94 1214.2,-433.26 1224.45,-435.91 1223.87,-428.94"/>
</g>
<!-- Node28 -->
<g id="node23" class="node">
<title>Node28</title>
<g id="a_node23"><a xlink:href="solver__interface_8h.html" target="_top" xlink:title=" ">
<polygon fill="white" stroke="black" points="1094.5,-285 1094.5,-315 1209.5,-315 1209.5,-285 1094.5,-285"/>
<text text-anchor="start" x="1102.5" y="-303" font-family="Helvetica,sans-Serif" font-size="10.00">drake/solvers/solver</text>
<text text-anchor="middle" x="1152" y="-292" font-family="Helvetica,sans-Serif" font-size="10.00">_interface.h</text>
</a>
</g>
</g>
<!-- Node6&#45;&gt;Node28 -->
<g id="edge43" class="edge">
<title>Node6&#45;&gt;Node28</title>
<path fill="none" stroke="midnightblue" d="M1152,-414.29C1152,-385.61 1152,-338.78 1152,-315.33"/>
<polygon fill="midnightblue" stroke="midnightblue" points="1148.5,-414.3 1152,-424.3 1155.5,-414.3 1148.5,-414.3"/>
</g>
<!-- Node8 -->
<g id="node3" class="node">
<title>Node8</title>
<g id="a_node3"><a xlink:href="moby__lcp__solver_8h.html" target="_top" xlink:title=" ">
<polygon fill="white" stroke="black" points="281.5,-140 281.5,-170 394.5,-170 394.5,-140 281.5,-140"/>
<text text-anchor="start" x="289.5" y="-158" font-family="Helvetica,sans-Serif" font-size="10.00">drake/solvers/moby</text>
<text text-anchor="middle" x="338" y="-147" font-family="Helvetica,sans-Serif" font-size="10.00">_lcp_solver.h</text>
</a>
</g>
</g>
<!-- Node7&#45;&gt;Node8 -->
<g id="edge2" class="edge">
<title>Node7&#45;&gt;Node8</title>
<path fill="none" stroke="midnightblue" d="M948.99,-225.69C835.05,-223.28 598.8,-213.71 403,-176 395.12,-174.48 386.83,-172.36 378.92,-170.06"/>
<polygon fill="midnightblue" stroke="midnightblue" points="949.23,-229.2 959.3,-225.9 949.37,-222.2 949.23,-229.2"/>
</g>
<!-- Node11 -->
<g id="node6" class="node">
<title>Node11</title>
<g id="a_node6"><a xlink:href="mosek__solver_8h.html" target="_top" xlink:title=" ">
<polygon fill="white" stroke="black" points="1667,-140 1667,-170 1785,-170 1785,-140 1667,-140"/>
<text text-anchor="start" x="1675" y="-158" font-family="Helvetica,sans-Serif" font-size="10.00">drake/solvers/mosek</text>
<text text-anchor="middle" x="1726" y="-147" font-family="Helvetica,sans-Serif" font-size="10.00">_solver.h</text>
</a>
</g>
</g>
<!-- Node7&#45;&gt;Node11 -->
<g id="edge6" class="edge">
<title>Node7&#45;&gt;Node11</title>
<path fill="none" stroke="midnightblue" d="M1085.11,-211.85C1338.43,-177.57 1409.15,-219.82 1658,-176 1666.36,-174.53 1675.16,-172.4 1683.54,-170.07"/>
<polygon fill="midnightblue" stroke="midnightblue" points="1084.28,-208.43 1074.86,-213.26 1085.24,-215.36 1084.28,-208.43"/>
</g>
<!-- Node15 -->
<g id="node10" class="node">
<title>Node15</title>
<g id="a_node10"><a xlink:href="clp__solver_8h.html" target="_top" xlink:title=" ">
<polygon fill="white" stroke="black" points="412.5,-145.5 412.5,-164.5 555.5,-164.5 555.5,-145.5 412.5,-145.5"/>
<text text-anchor="middle" x="484" y="-152.5" font-family="Helvetica,sans-Serif" font-size="10.00">drake/solvers/clp_solver.h</text>
</a>
</g>
</g>
<!-- Node7&#45;&gt;Node15 -->
<g id="edge11" class="edge">
<title>Node7&#45;&gt;Node15</title>
<path fill="none" stroke="midnightblue" d="M949.22,-221.79C860.29,-214.97 699.6,-200.39 564,-176 547.37,-173.01 529.08,-168.53 514.18,-164.56"/>
<polygon fill="midnightblue" stroke="midnightblue" points="949.2,-225.3 959.44,-222.57 949.73,-218.32 949.2,-225.3"/>
</g>
<!-- Node16 -->
<g id="node11" class="node">
<title>Node16</title>
<g id="a_node11"><a xlink:href="csdp__solver_8h.html" target="_top" xlink:title=" ">
<polygon fill="white" stroke="black" points="573.5,-140 573.5,-170 680.5,-170 680.5,-140 573.5,-140"/>
<text text-anchor="start" x="581.5" y="-158" font-family="Helvetica,sans-Serif" font-size="10.00">drake/solvers/csdp</text>
<text text-anchor="middle" x="627" y="-147" font-family="Helvetica,sans-Serif" font-size="10.00">_solver.h</text>
</a>
</g>
</g>
<!-- Node7&#45;&gt;Node16 -->
<g id="edge12" class="edge">
<title>Node7&#45;&gt;Node16</title>
<path fill="none" stroke="midnightblue" d="M949.54,-219.16C883.01,-211.21 778.7,-196.8 690,-176 682.85,-174.32 675.34,-172.24 668.09,-170.05"/>
<polygon fill="midnightblue" stroke="midnightblue" points="949.14,-222.64 959.48,-220.34 949.96,-215.69 949.14,-222.64"/>
</g>
<!-- Node17 -->
<g id="node12" class="node">
<title>Node17</title>
<g id="a_node12"><a xlink:href="equality__constrained__qp__solver_8h.html" target="_top" xlink:title=" ">
<polygon fill="white" stroke="black" points="699,-140 699,-170 839,-170 839,-140 699,-140"/>
<text text-anchor="start" x="707" y="-158" font-family="Helvetica,sans-Serif" font-size="10.00">drake/solvers/equality</text>
<text text-anchor="middle" x="769" y="-147" font-family="Helvetica,sans-Serif" font-size="10.00">_constrained_qp_solver.h</text>
</a>
</g>
</g>
<!-- Node7&#45;&gt;Node17 -->
<g id="edge13" class="edge">
<title>Node7&#45;&gt;Node17</title>
<path fill="none" stroke="midnightblue" d="M958.05,-209.74C915.54,-197.66 858.82,-181.53 818.62,-170.11"/>
<polygon fill="midnightblue" stroke="midnightblue" points="957.13,-213.12 967.71,-212.49 959.04,-206.39 957.13,-213.12"/>
</g>
<!-- Node18 -->
<g id="node13" class="node">
<title>Node18</title>
<g id="a_node13"><a xlink:href="gurobi__solver_8h.html" target="_top" xlink:title=" ">
<polygon fill="white" stroke="black" points="857,-140 857,-170 973,-170 973,-140 857,-140"/>
<text text-anchor="start" x="865" y="-158" font-family="Helvetica,sans-Serif" font-size="10.00">drake/solvers/gurobi</text>
<text text-anchor="middle" x="915" y="-147" font-family="Helvetica,sans-Serif" font-size="10.00">_solver.h</text>
</a>
</g>
</g>
<!-- Node7&#45;&gt;Node18 -->
<g id="edge14" class="edge">
<title>Node7&#45;&gt;Node18</title>
<path fill="none" stroke="midnightblue" d="M987.96,-206.43C971.12,-194.79 950.34,-180.42 935.26,-170"/>
<polygon fill="midnightblue" stroke="midnightblue" points="986.14,-209.43 996.36,-212.23 990.12,-203.67 986.14,-209.43"/>
</g>
<!-- Node19 -->
<g id="node14" class="node">
<title>Node19</title>
<g id="a_node14"><a xlink:href="ipopt__solver_8h.html" target="_top" xlink:title=" ">
<polygon fill="white" stroke="black" points="991,-140 991,-170 1101,-170 1101,-140 991,-140"/>
<text text-anchor="start" x="999" y="-158" font-family="Helvetica,sans-Serif" font-size="10.00">drake/solvers/ipopt</text>
<text text-anchor="middle" x="1046" y="-147" font-family="Helvetica,sans-Serif" font-size="10.00">_solver.h</text>
</a>
</g>
</g>
<!-- Node7&#45;&gt;Node19 -->
<g id="edge15" class="edge">
<title>Node7&#45;&gt;Node19</title>
<path fill="none" stroke="midnightblue" d="M1026.71,-202.9C1031.16,-192.08 1036.29,-179.61 1040.14,-170.25"/>
<polygon fill="midnightblue" stroke="midnightblue" points="1023.44,-201.65 1022.87,-212.23 1029.91,-204.32 1023.44,-201.65"/>
</g>
<!-- Node20 -->
<g id="node15" class="node">
<title>Node20</title>
<g id="a_node15"><a xlink:href="linear__system__solver_8h.html" target="_top" xlink:title=" ">
<polygon fill="white" stroke="black" points="1119.5,-140 1119.5,-170 1232.5,-170 1232.5,-140 1119.5,-140"/>
<text text-anchor="start" x="1127.5" y="-158" font-family="Helvetica,sans-Serif" font-size="10.00">drake/solvers/linear</text>
<text text-anchor="middle" x="1176" y="-147" font-family="Helvetica,sans-Serif" font-size="10.00">_system_solver.h</text>
</a>
</g>
</g>
<!-- Node7&#45;&gt;Node20 -->
<g id="edge16" class="edge">
<title>Node7&#45;&gt;Node20</title>
<path fill="none" stroke="midnightblue" d="M1057.95,-208.34C1084.83,-196.42 1119.47,-181.07 1144.26,-170.07"/>
<polygon fill="midnightblue" stroke="midnightblue" points="1056.52,-205.15 1048.79,-212.4 1059.35,-211.55 1056.52,-205.15"/>
</g>
<!-- Node21 -->
<g id="node16" class="node">
<title>Node21</title>
<g id="a_node16"><a xlink:href="nlopt__solver_8h.html" target="_top" xlink:title=" ">
<polygon fill="white" stroke="black" points="1251,-140 1251,-170 1361,-170 1361,-140 1251,-140"/>
<text text-anchor="start" x="1259" y="-158" font-family="Helvetica,sans-Serif" font-size="10.00">drake/solvers/nlopt</text>
<text text-anchor="middle" x="1306" y="-147" font-family="Helvetica,sans-Serif" font-size="10.00">_solver.h</text>
</a>
</g>
</g>
<!-- Node7&#45;&gt;Node21 -->
<g id="edge17" class="edge">
<title>Node7&#45;&gt;Node21</title>
<path fill="none" stroke="midnightblue" d="M1084.52,-211.55C1144.8,-198.16 1225.86,-180.03 1241,-176 1247.85,-174.18 1255.05,-172.11 1262.08,-170.02"/>
<polygon fill="midnightblue" stroke="midnightblue" points="1083.67,-208.16 1074.66,-213.74 1085.18,-214.99 1083.67,-208.16"/>
</g>
<!-- Node22 -->
<g id="node17" class="node">
<title>Node22</title>
<g id="a_node17"><a xlink:href="osqp__solver_8h.html" target="_top" xlink:title=" ">
<polygon fill="white" stroke="black" points="1379,-140 1379,-170 1487,-170 1487,-140 1379,-140"/>
<text text-anchor="start" x="1387" y="-158" font-family="Helvetica,sans-Serif" font-size="10.00">drake/solvers/osqp</text>
<text text-anchor="middle" x="1433" y="-147" font-family="Helvetica,sans-Serif" font-size="10.00">_solver.h</text>
</a>
</g>
</g>
<!-- Node7&#45;&gt;Node22 -->
<g id="edge18" class="edge">
<title>Node7&#45;&gt;Node22</title>
<path fill="none" stroke="midnightblue" d="M1084.64,-211.83C1211.51,-190.84 1247.62,-202.86 1370,-176 1377.4,-174.38 1385.17,-172.26 1392.63,-170.01"/>
<polygon fill="midnightblue" stroke="midnightblue" points="1083.81,-208.42 1074.53,-213.54 1084.98,-215.32 1083.81,-208.42"/>
</g>
<!-- Node23 -->
<g id="node18" class="node">
<title>Node23</title>
<g id="a_node18"><a xlink:href="scs__solver_8h.html" target="_top" xlink:title=" ">
<polygon fill="white" stroke="black" points="1505,-145.5 1505,-164.5 1649,-164.5 1649,-145.5 1505,-145.5"/>
<text text-anchor="middle" x="1577" y="-152.5" font-family="Helvetica,sans-Serif" font-size="10.00">drake/solvers/scs_solver.h</text>
</a>
</g>
</g>
<!-- Node7&#45;&gt;Node23 -->
<g id="edge19" class="edge">
<title>Node7&#45;&gt;Node23</title>
<path fill="none" stroke="midnightblue" d="M1084.43,-211.91C1266.91,-184.93 1317.43,-205.64 1496,-176 1513.15,-173.15 1532.02,-168.58 1547.23,-164.53"/>
<polygon fill="midnightblue" stroke="midnightblue" points="1083.88,-208.46 1074.51,-213.41 1084.92,-215.38 1083.88,-208.46"/>
</g>
<!-- Node24 -->
<g id="node19" class="node">
<title>Node24</title>
<g id="a_node19"><a xlink:href="snopt__solver_8h.html" target="_top" xlink:title=" ">
<polygon fill="white" stroke="black" points="0,-140 0,-170 112,-170 112,-140 0,-140"/>
<text text-anchor="start" x="8" y="-158" font-family="Helvetica,sans-Serif" font-size="10.00">drake/solvers/snopt</text>
<text text-anchor="middle" x="56" y="-147" font-family="Helvetica,sans-Serif" font-size="10.00">_solver.h</text>
</a>
</g>
</g>
<!-- Node7&#45;&gt;Node24 -->
<g id="edge20" class="edge">
<title>Node7&#45;&gt;Node24</title>
<path fill="none" stroke="midnightblue" d="M949.13,-224.8C768.66,-219.95 279.9,-204.49 121,-176 112.86,-174.54 104.32,-172.39 96.19,-170.02"/>
<polygon fill="midnightblue" stroke="midnightblue" points="949.19,-228.3 959.28,-225.07 949.38,-221.31 949.19,-228.3"/>
</g>
<!-- Node25 -->
<g id="node20" class="node">
<title>Node25</title>
<g id="a_node20"><a xlink:href="solve_8h.html" target="_top" xlink:title=" ">
<polygon fill="white" stroke="black" points="1977,-145.5 1977,-164.5 2097,-164.5 2097,-145.5 1977,-145.5"/>
<text text-anchor="middle" x="2037" y="-152.5" font-family="Helvetica,sans-Serif" font-size="10.00">drake/solvers/solve.h</text>
</a>
</g>
</g>
<!-- Node7&#45;&gt;Node25 -->
<g id="edge21" class="edge">
<title>Node7&#45;&gt;Node25</title>
<path fill="none" stroke="midnightblue" d="M1085,-211.89C1475.25,-162.89 1582.78,-238.72 1968,-176 1983.14,-173.53 1999.66,-168.82 2012.74,-164.59"/>
<polygon fill="midnightblue" stroke="midnightblue" points="1084.32,-208.45 1074.85,-213.19 1085.21,-215.4 1084.32,-208.45"/>
</g>
<!-- Node26 -->
<g id="node21" class="node">
<title>Node26</title>
<g id="a_node21"><a xlink:href="unrevised__lemke__solver_8h.html" target="_top" xlink:title=" ">
<polygon fill="white" stroke="black" points="130.5,-140 130.5,-170 263.5,-170 263.5,-140 130.5,-140"/>
<text text-anchor="start" x="138.5" y="-158" font-family="Helvetica,sans-Serif" font-size="10.00">drake/solvers/unrevised</text>
<text text-anchor="middle" x="197" y="-147" font-family="Helvetica,sans-Serif" font-size="10.00">_lemke_solver.h</text>
</a>
</g>
</g>
<!-- Node7&#45;&gt;Node26 -->
<g id="edge22" class="edge">
<title>Node7&#45;&gt;Node26</title>
<path fill="none" stroke="midnightblue" d="M948.74,-226.26C817,-224.83 518.87,-216.89 272,-176 262.96,-174.5 253.43,-172.39 244.31,-170.09"/>
<polygon fill="midnightblue" stroke="midnightblue" points="949.04,-229.76 959.08,-226.36 949.11,-222.76 949.04,-229.76"/>
</g>
<!-- Node9 -->
<g id="node4" class="node">
<title>Node9</title>
<g id="a_node4"><a xlink:href="constraint__solver_8h.html" target="_top" xlink:title=" ">
<polygon fill="white" stroke="black" points="213,-67.5 213,-97.5 361,-97.5 361,-67.5 213,-67.5"/>
<text text-anchor="start" x="221" y="-85.5" font-family="Helvetica,sans-Serif" font-size="10.00">drake/multibody/constraint</text>
<text text-anchor="middle" x="287" y="-74.5" font-family="Helvetica,sans-Serif" font-size="10.00">/constraint_solver.h</text>
</a>
</g>
</g>
<!-- Node8&#45;&gt;Node9 -->
<g id="edge3" class="edge">
<title>Node8&#45;&gt;Node9</title>
<path fill="none" stroke="midnightblue" d="M321.64,-131.39C313.65,-120.34 304.28,-107.39 297.31,-97.75"/>
<polygon fill="midnightblue" stroke="midnightblue" points="318.98,-133.68 327.68,-139.73 324.65,-129.58 318.98,-133.68"/>
</g>
<!-- Node10 -->
<g id="node5" class="node">
<title>Node10</title>
<g id="a_node5"><a xlink:href="rod2d_8h.html" target="_top" xlink:title=" ">
<polygon fill="white" stroke="black" points="275.5,-0.5 275.5,-30.5 400.5,-30.5 400.5,-0.5 275.5,-0.5"/>
<text text-anchor="start" x="283.5" y="-18.5" font-family="Helvetica,sans-Serif" font-size="10.00">drake/examples/rod2d</text>
<text text-anchor="middle" x="338" y="-7.5" font-family="Helvetica,sans-Serif" font-size="10.00">/rod2d.h</text>
</a>
</g>
</g>
<!-- Node8&#45;&gt;Node10 -->
<g id="edge5" class="edge">
<title>Node8&#45;&gt;Node10</title>
<path fill="none" stroke="midnightblue" d="M354.67,-131.1C360.76,-121.4 366.91,-109.65 370,-98 373.54,-84.68 373.84,-80.23 370,-67 366.12,-53.64 357.54,-40.43 350.24,-30.88"/>
<polygon fill="midnightblue" stroke="midnightblue" points="351.57,-129.45 348.96,-139.72 357.4,-133.32 351.57,-129.45"/>
</g>
<!-- Node9&#45;&gt;Node10 -->
<g id="edge4" class="edge">
<title>Node9&#45;&gt;Node10</title>
<path fill="none" stroke="midnightblue" d="M304.3,-59.45C311.79,-49.9 320.34,-39 326.96,-30.58"/>
<polygon fill="midnightblue" stroke="midnightblue" points="301.49,-57.37 298.07,-67.4 306.99,-61.69 301.49,-57.37"/>
</g>
<!-- Node12 -->
<g id="node7" class="node">
<title>Node12</title>
<g id="a_node7"><a xlink:href="cspace__free__structs_8h.html" target="_top" xlink:title=" ">
<polygon fill="white" stroke="black" points="1866,-67.5 1866,-97.5 2024,-97.5 2024,-67.5 1866,-67.5"/>
<text text-anchor="start" x="1874" y="-85.5" font-family="Helvetica,sans-Serif" font-size="10.00">drake/geometry/optimization</text>
<text text-anchor="middle" x="1945" y="-74.5" font-family="Helvetica,sans-Serif" font-size="10.00">/cspace_free_structs.h</text>
</a>
</g>
</g>
<!-- Node11&#45;&gt;Node12 -->
<g id="edge7" class="edge">
<title>Node11&#45;&gt;Node12</title>
<path fill="none" stroke="midnightblue" d="M1779.25,-136.86C1816.65,-124.82 1866.06,-108.91 1901.18,-97.61"/>
<polygon fill="midnightblue" stroke="midnightblue" points="1777.98,-133.59 1769.53,-139.99 1780.12,-140.25 1777.98,-133.59"/>
</g>
<!-- Node14 -->
<g id="node9" class="node">
<title>Node14</title>
<g id="a_node9"><a xlink:href="cspace__free__polytope_8h.html" target="_top" xlink:title=" ">
<polygon fill="white" stroke="black" points="1919,-0.5 1919,-30.5 2077,-30.5 2077,-0.5 1919,-0.5"/>
<text text-anchor="start" x="1927" y="-18.5" font-family="Helvetica,sans-Serif" font-size="10.00">drake/geometry/optimization</text>
<text text-anchor="middle" x="1998" y="-7.5" font-family="Helvetica,sans-Serif" font-size="10.00">/cspace_free_polytope.h</text>
</a>
</g>
</g>
<!-- Node11&#45;&gt;Node14 -->
<g id="edge10" class="edge">
<title>Node11&#45;&gt;Node14</title>
<path fill="none" stroke="midnightblue" d="M1752.32,-133.74C1777.98,-114.67 1818.63,-86.25 1857,-67 1886.75,-52.07 1922,-39.45 1949.81,-30.55"/>
<polygon fill="midnightblue" stroke="midnightblue" points="1750.12,-131.02 1744.22,-139.82 1754.32,-136.61 1750.12,-131.02"/>
</g>
<!-- Node13 -->
<g id="node8" class="node">
<title>Node13</title>
<g id="a_node8"><a xlink:href="cspace__free__internal_8h.html" target="_top" xlink:title=" ">
<polygon fill="white" stroke="black" points="1743,-0.5 1743,-30.5 1901,-30.5 1901,-0.5 1743,-0.5"/>
<text text-anchor="start" x="1751" y="-18.5" font-family="Helvetica,sans-Serif" font-size="10.00">drake/geometry/optimization</text>
<text text-anchor="middle" x="1822" y="-7.5" font-family="Helvetica,sans-Serif" font-size="10.00">/cspace_free_internal.h</text>
</a>
</g>
</g>
<!-- Node12&#45;&gt;Node13 -->
<g id="edge8" class="edge">
<title>Node12&#45;&gt;Node13</title>
<path fill="none" stroke="midnightblue" d="M1909.45,-62.71C1890.05,-52.46 1866.44,-39.98 1848.64,-30.58"/>
<polygon fill="midnightblue" stroke="midnightblue" points="1907.83,-65.82 1918.31,-67.4 1911.1,-59.63 1907.83,-65.82"/>
</g>
<!-- Node12&#45;&gt;Node14 -->
<g id="edge9" class="edge">
<title>Node12&#45;&gt;Node14</title>
<path fill="none" stroke="midnightblue" d="M1962.98,-59.45C1970.77,-49.9 1979.65,-39 1986.52,-30.58"/>
<polygon fill="midnightblue" stroke="midnightblue" points="1960.11,-57.43 1956.5,-67.4 1965.53,-61.86 1960.11,-57.43"/>
</g>
<!-- Node27&#45;&gt;Node11 -->
<g id="edge31" class="edge">
<title>Node27&#45;&gt;Node11</title>
<path fill="none" stroke="midnightblue" d="M1974.4,-352.75C1988.05,-345.08 2001.2,-334.71 2009,-321 2016.04,-308.64 2015,-221.2 2007,-212 1975.63,-175.96 1841.58,-186.67 1795,-176 1787.46,-174.27 1779.53,-172.21 1771.83,-170.07"/>
<polygon fill="midnightblue" stroke="midnightblue" points="1972.67,-349.7 1965.4,-357.4 1975.89,-355.91 1972.67,-349.7"/>
</g>
<!-- Node27&#45;&gt;Node12 -->
<g id="edge30" class="edge">
<title>Node27&#45;&gt;Node12</title>
<path fill="none" stroke="midnightblue" d="M2010.55,-361.92C2037.37,-354.73 2064.67,-342.32 2083,-321 2125.55,-271.53 2100.87,-241.05 2106,-176 2107.47,-157.39 2117.05,-149.05 2106,-134 2087.01,-108.15 2054.81,-95.17 2024.18,-88.79"/>
<polygon fill="midnightblue" stroke="midnightblue" points="2009.58,-358.56 2000.71,-364.35 2011.26,-365.36 2009.58,-358.56"/>
</g>
<!-- Node27&#45;&gt;Node14 -->
<g id="edge32" class="edge">
<title>Node27&#45;&gt;Node14</title>
<path fill="none" stroke="midnightblue" d="M2010.69,-361.73C2043.7,-354.6 2080.06,-342.29 2108,-321 2146.04,-292.01 2163,-276.33 2163,-228.5 2163,-228.5 2163,-228.5 2163,-154 2163,-90.05 2088.95,-50.07 2040.06,-30.65"/>
<polygon fill="midnightblue" stroke="midnightblue" points="2009.67,-358.36 2000.56,-363.78 2011.06,-365.23 2009.67,-358.36"/>
</g>
<!-- Node27&#45;&gt;Node25 -->
<g id="edge42" class="edge">
<title>Node27&#45;&gt;Node25</title>
<path fill="none" stroke="midnightblue" d="M2010.14,-358.04C2030.75,-350.56 2050.42,-338.96 2063,-321 2098.11,-270.89 2057.68,-191.29 2042.38,-164.86"/>
<polygon fill="midnightblue" stroke="midnightblue" points="2009.01,-354.73 2000.62,-361.2 2011.22,-361.37 2009.01,-354.73"/>
</g>
<!-- Node27&#45;&gt;Node28 -->
<g id="edge24" class="edge">
<title>Node27&#45;&gt;Node28</title>
<path fill="none" stroke="midnightblue" d="M1837.23,-371.36C1703.42,-369.78 1439.14,-361.24 1219,-321 1210.76,-319.49 1202.1,-317.35 1193.83,-315.01"/>
<polygon fill="midnightblue" stroke="midnightblue" points="1837.38,-374.86 1847.42,-371.47 1837.45,-367.86 1837.38,-374.86"/>
</g>
<!-- Node29 -->
<g id="node24" class="node">
<title>Node29</title>
<g id="a_node24"><a xlink:href="graph__of__convex__sets_8h.html" target="_top" xlink:title=" ">
<polygon fill="white" stroke="black" points="1640,-212.5 1640,-242.5 1798,-242.5 1798,-212.5 1640,-212.5"/>
<text text-anchor="start" x="1648" y="-230.5" font-family="Helvetica,sans-Serif" font-size="10.00">drake/geometry/optimization</text>
<text text-anchor="middle" x="1719" y="-219.5" font-family="Helvetica,sans-Serif" font-size="10.00">/graph_of_convex_sets.h</text>
</a>
</g>
</g>
<!-- Node27&#45;&gt;Node29 -->
<g id="edge33" class="edge">
<title>Node27&#45;&gt;Node29</title>
<path fill="none" stroke="midnightblue" d="M1962.9,-351.86C1974.41,-343.96 1985.63,-333.67 1992,-321 2000.39,-304.32 2003.94,-293.35 1992,-279 1988.84,-275.2 1877.69,-255.55 1798.21,-241.91"/>
<polygon fill="midnightblue" stroke="midnightblue" points="1960.68,-349.13 1954.12,-357.44 1964.43,-355.03 1960.68,-349.13"/>
</g>
<!-- Node33 -->
<g id="node28" class="node">
<title>Node33</title>
<g id="a_node28"><a xlink:href="global__inverse__kinematics_8h.html" target="_top" xlink:title=" ">
<polygon fill="white" stroke="black" points="2191,-279.5 2191,-320.5 2341,-320.5 2341,-279.5 2191,-279.5"/>
<text text-anchor="start" x="2199" y="-308.5" font-family="Helvetica,sans-Serif" font-size="10.00">drake/multibody/inverse</text>
<text text-anchor="start" x="2199" y="-297.5" font-family="Helvetica,sans-Serif" font-size="10.00">_kinematics/global_inverse</text>
<text text-anchor="middle" x="2266" y="-286.5" font-family="Helvetica,sans-Serif" font-size="10.00">_kinematics.h</text>
</a>
</g>
</g>
<!-- Node27&#45;&gt;Node33 -->
<g id="edge34" class="edge">
<title>Node27&#45;&gt;Node33</title>
<path fill="none" stroke="midnightblue" d="M2006.63,-355.53C2056.11,-345.83 2120.23,-333.04 2177,-321 2181.49,-320.05 2186.11,-319.05 2190.76,-318.04"/>
<polygon fill="midnightblue" stroke="midnightblue" points="2005.76,-352.13 1996.62,-357.49 2007.1,-359 2005.76,-352.13"/>
</g>
<!-- Node34 -->
<g id="node29" class="node">
<title>Node34</title>
<g id="a_node29"><a xlink:href="static__equilibrium__problem_8h.html" target="_top" xlink:title=" ">
<polygon fill="white" stroke="black" points="1228,-285 1228,-315 1390,-315 1390,-285 1228,-285"/>
<text text-anchor="start" x="1236" y="-303" font-family="Helvetica,sans-Serif" font-size="10.00">drake/multibody/optimization</text>
<text text-anchor="middle" x="1309" y="-292" font-family="Helvetica,sans-Serif" font-size="10.00">/static_equilibrium_problem.h</text>
</a>
</g>
</g>
<!-- Node27&#45;&gt;Node34 -->
<g id="edge35" class="edge">
<title>Node27&#45;&gt;Node34</title>
<path fill="none" stroke="midnightblue" d="M1836.93,-366.41C1732.45,-359.54 1552.16,-345.29 1399,-321 1388.72,-319.37 1377.86,-317.28 1367.38,-315.07"/>
<polygon fill="midnightblue" stroke="midnightblue" points="1836.91,-369.91 1847.11,-367.07 1837.36,-362.93 1836.91,-369.91"/>
</g>
<!-- Node35 -->
<g id="node30" class="node">
<title>Node35</title>
<g id="a_node30"><a xlink:href="multiple__shooting_8h.html" target="_top" xlink:title=" ">
<polygon fill="white" stroke="black" points="1408.5,-279.5 1408.5,-320.5 1547.5,-320.5 1547.5,-279.5 1408.5,-279.5"/>
<text text-anchor="start" x="1416.5" y="-308.5" font-family="Helvetica,sans-Serif" font-size="10.00">drake/planning/trajectory</text>
<text text-anchor="start" x="1416.5" y="-297.5" font-family="Helvetica,sans-Serif" font-size="10.00">_optimization/multiple</text>
<text text-anchor="middle" x="1478" y="-286.5" font-family="Helvetica,sans-Serif" font-size="10.00">_shooting.h</text>
</a>
</g>
</g>
<!-- Node27&#45;&gt;Node35 -->
<g id="edge36" class="edge">
<title>Node27&#45;&gt;Node35</title>
<path fill="none" stroke="midnightblue" d="M1837.04,-362.29C1762.39,-353.74 1652.11,-339.52 1557,-321 1553.94,-320.4 1550.83,-319.76 1547.69,-319.09"/>
<polygon fill="midnightblue" stroke="midnightblue" points="1837,-365.81 1847.33,-363.46 1837.79,-358.86 1837,-365.81"/>
</g>
<!-- Node38 -->
<g id="node33" class="node">
<title>Node38</title>
<g id="a_node33"><a xlink:href="kinematic__trajectory__optimization_8h.html" target="_top" xlink:title=" ">
<polygon fill="white" stroke="black" points="1565.5,-279.5 1565.5,-320.5 1710.5,-320.5 1710.5,-279.5 1565.5,-279.5"/>
<text text-anchor="start" x="1573.5" y="-308.5" font-family="Helvetica,sans-Serif" font-size="10.00">drake/planning/trajectory</text>
<text text-anchor="start" x="1573.5" y="-297.5" font-family="Helvetica,sans-Serif" font-size="10.00">_optimization/kinematic</text>
<text text-anchor="middle" x="1638" y="-286.5" font-family="Helvetica,sans-Serif" font-size="10.00">_trajectory_optimization.h</text>
</a>
</g>
</g>
<!-- Node27&#45;&gt;Node38 -->
<g id="edge39" class="edge">
<title>Node27&#45;&gt;Node38</title>
<path fill="none" stroke="midnightblue" d="M1857.41,-355.09C1813.39,-344.24 1755.7,-330.01 1710.52,-318.88"/>
<polygon fill="midnightblue" stroke="midnightblue" points="1856.61,-358.49 1867.15,-357.49 1858.28,-351.7 1856.61,-358.49"/>
</g>
<!-- Node39 -->
<g id="node34" class="node">
<title>Node39</title>
<g id="a_node34"><a xlink:href="branch__and__bound_8h.html" target="_top" xlink:title=" ">
<polygon fill="white" stroke="black" points="1729,-285 1729,-315 1847,-315 1847,-285 1729,-285"/>
<text text-anchor="start" x="1737" y="-303" font-family="Helvetica,sans-Serif" font-size="10.00">drake/solvers/branch</text>
<text text-anchor="middle" x="1788" y="-292" font-family="Helvetica,sans-Serif" font-size="10.00">_and_bound.h</text>
</a>
</g>
</g>
<!-- Node27&#45;&gt;Node39 -->
<g id="edge40" class="edge">
<title>Node27&#45;&gt;Node39</title>
<path fill="none" stroke="midnightblue" d="M1887.76,-352.72C1864.95,-340.89 1835.98,-325.87 1815.15,-315.07"/>
<polygon fill="midnightblue" stroke="midnightblue" points="1886.32,-355.91 1896.81,-357.4 1889.54,-349.69 1886.32,-355.91"/>
</g>
<!-- Node40 -->
<g id="node35" class="node">
<title>Node40</title>
<g id="a_node35"><a xlink:href="mosek__solver__internal_8h.html" target="_top" xlink:title=" ">
<polygon fill="white" stroke="black" points="1865,-285 1865,-315 1983,-315 1983,-285 1865,-285"/>
<text text-anchor="start" x="1873" y="-303" font-family="Helvetica,sans-Serif" font-size="10.00">drake/solvers/mosek</text>
<text text-anchor="middle" x="1924" y="-292" font-family="Helvetica,sans-Serif" font-size="10.00">_solver_internal.h</text>
</a>
</g>
</g>
<!-- Node27&#45;&gt;Node40 -->
<g id="edge41" class="edge">
<title>Node27&#45;&gt;Node40</title>
<path fill="none" stroke="midnightblue" d="M1924,-347.23C1924,-336.57 1924,-324.41 1924,-315.25"/>
<polygon fill="midnightblue" stroke="midnightblue" points="1920.5,-347.23 1924,-357.23 1927.5,-347.23 1920.5,-347.23"/>
</g>
<!-- Node28&#45;&gt;Node7 -->
<g id="edge25" class="edge">
<title>Node28&#45;&gt;Node7</title>
<path fill="none" stroke="midnightblue" d="M1116.03,-280.22C1093.38,-268.39 1064.63,-253.37 1043.95,-242.57"/>
<polygon fill="midnightblue" stroke="midnightblue" points="1114.52,-283.38 1125.01,-284.9 1117.76,-277.17 1114.52,-283.38"/>
</g>
<!-- Node28&#45;&gt;Node29 -->
<g id="edge26" class="edge">
<title>Node28&#45;&gt;Node29</title>
<path fill="none" stroke="midnightblue" d="M1204.5,-282.26C1209.37,-281.03 1214.26,-279.92 1219,-279 1389.46,-246.01 1435.44,-262.25 1608,-243 1618.33,-241.85 1629.2,-240.54 1639.91,-239.2"/>
<polygon fill="midnightblue" stroke="midnightblue" points="1203.33,-278.95 1194.58,-284.92 1205.14,-285.71 1203.33,-278.95"/>
</g>
<!-- Node31 -->
<g id="node26" class="node">
<title>Node31</title>
<g id="a_node26"><a xlink:href="toppra_8h.html" target="_top" xlink:title=" ">
<polygon fill="white" stroke="black" points="1229.5,-212.5 1229.5,-242.5 1390.5,-242.5 1390.5,-212.5 1229.5,-212.5"/>
<text text-anchor="start" x="1237.5" y="-230.5" font-family="Helvetica,sans-Serif" font-size="10.00">drake/multibody/optimization</text>
<text text-anchor="middle" x="1310" y="-219.5" font-family="Helvetica,sans-Serif" font-size="10.00">/toppra.h</text>
</a>
</g>
</g>
<!-- Node28&#45;&gt;Node31 -->
<g id="edge28" class="edge">
<title>Node28&#45;&gt;Node31</title>
<path fill="none" stroke="midnightblue" d="M1193.04,-280.69C1219.7,-268.79 1253.93,-253.52 1278.46,-242.57"/>
<polygon fill="midnightblue" stroke="midnightblue" points="1191.3,-277.63 1183.59,-284.9 1194.15,-284.02 1191.3,-277.63"/>
</g>
<!-- Node32 -->
<g id="node27" class="node">
<title>Node32</title>
<g id="a_node27"><a xlink:href="choose__best__solver_8h.html" target="_top" xlink:title=" ">
<polygon fill="white" stroke="black" points="1092.5,-212.5 1092.5,-242.5 1211.5,-242.5 1211.5,-212.5 1092.5,-212.5"/>
<text text-anchor="start" x="1100.5" y="-230.5" font-family="Helvetica,sans-Serif" font-size="10.00">drake/solvers/choose</text>
<text text-anchor="middle" x="1152" y="-219.5" font-family="Helvetica,sans-Serif" font-size="10.00">_best_solver.h</text>
</a>
</g>
</g>
<!-- Node28&#45;&gt;Node32 -->
<g id="edge29" class="edge">
<title>Node28&#45;&gt;Node32</title>
<path fill="none" stroke="midnightblue" d="M1152,-274.73C1152,-264.07 1152,-251.91 1152,-242.75"/>
<polygon fill="midnightblue" stroke="midnightblue" points="1148.5,-274.73 1152,-284.73 1155.5,-274.73 1148.5,-274.73"/>
</g>
<!-- Node30 -->
<g id="node25" class="node">
<title>Node30</title>
<g id="a_node25"><a xlink:href="gcs__trajectory__optimization_8h.html" target="_top" xlink:title=" ">
<polygon fill="white" stroke="black" points="1803.5,-134.5 1803.5,-175.5 1958.5,-175.5 1958.5,-134.5 1803.5,-134.5"/>
<text text-anchor="start" x="1811.5" y="-163.5" font-family="Helvetica,sans-Serif" font-size="10.00">drake/planning/trajectory</text>
<text text-anchor="start" x="1811.5" y="-152.5" font-family="Helvetica,sans-Serif" font-size="10.00">_optimization/gcs_trajectory</text>
<text text-anchor="middle" x="1881" y="-141.5" font-family="Helvetica,sans-Serif" font-size="10.00">_optimization.h</text>
</a>
</g>
</g>
<!-- Node29&#45;&gt;Node30 -->
<g id="edge27" class="edge">
<title>Node29&#45;&gt;Node30</title>
<path fill="none" stroke="midnightblue" d="M1760.59,-208.4C1783.7,-198.34 1812.47,-185.83 1836.08,-175.55"/>
<polygon fill="midnightblue" stroke="midnightblue" points="1759.17,-205.2 1751.39,-212.4 1761.96,-211.62 1759.17,-205.2"/>
</g>
<!-- Node36 -->
<g id="node31" class="node">
<title>Node36</title>
<g id="a_node31"><a xlink:href="direct__collocation_8h.html" target="_top" xlink:title=" ">
<polygon fill="white" stroke="black" points="1816,-212.5 1816,-242.5 1998,-242.5 1998,-212.5 1816,-212.5"/>
<text text-anchor="start" x="1824" y="-230.5" font-family="Helvetica,sans-Serif" font-size="10.00">drake/planning/trajectory</text>
<text text-anchor="middle" x="1907" y="-219.5" font-family="Helvetica,sans-Serif" font-size="10.00">_optimization/direct_collocation.h</text>
</a>
</g>
</g>
<!-- Node35&#45;&gt;Node36 -->
<g id="edge37" class="edge">
<title>Node35&#45;&gt;Node36</title>
<path fill="none" stroke="midnightblue" d="M1557.63,-278.98C1668.82,-257.29 1699.04,-258.6 1807,-243 1809.95,-242.57 1812.95,-242.14 1815.98,-241.7"/>
<polygon fill="midnightblue" stroke="midnightblue" points="1556.83,-275.57 1547.7,-280.93 1558.18,-282.43 1556.83,-275.57"/>
</g>
<!-- Node37 -->
<g id="node32" class="node">
<title>Node37</title>
<g id="a_node32"><a xlink:href="direct__transcription_8h.html" target="_top" xlink:title=" ">
<polygon fill="white" stroke="black" points="1409,-212.5 1409,-242.5 1599,-242.5 1599,-212.5 1409,-212.5"/>
<text text-anchor="start" x="1417" y="-230.5" font-family="Helvetica,sans-Serif" font-size="10.00">drake/planning/trajectory</text>
<text text-anchor="middle" x="1504" y="-219.5" font-family="Helvetica,sans-Serif" font-size="10.00">_optimization/direct_transcription.h</text>
</a>
</g>
</g>
<!-- Node35&#45;&gt;Node37 -->
<g id="edge38" class="edge">
<title>Node35&#45;&gt;Node37</title>
<path fill="none" stroke="midnightblue" d="M1488.71,-269.97C1492.15,-260.63 1495.81,-250.7 1498.69,-242.89"/>
<polygon fill="midnightblue" stroke="midnightblue" points="1485.42,-268.77 1485.24,-279.36 1491.99,-271.19 1485.42,-268.77"/>
</g>
</g>
</svg>
        <g id="navigator" transform="translate(0 0)" fill="#404254">
                <rect fill="#f2f5e9" fill-opacity="0.5" stroke="#606060" stroke-width=".5" x="0" y="0" width="60" height="60"/>
                <use id="zoomplus" xlink:href="#zoomPlus" x="17" y="9" onmousedown="handleZoom(evt,'in')"/>
                <use id="zoomminus" xlink:href="#zoomMin" x="42" y="9" onmousedown="handleZoom(evt,'out')"/>
                <use id="reset" xlink:href="#resetDef" x="30" y="36" onmousedown="handleReset()"/>
                <g id="arrowUp" xlink:href="#dirArrow" transform="translate(30 24)" onmousedown="handlePan(0,-1)">
                  <use xlink:href="#rim" fill="#404040">
                        <set attributeName="fill" to="#808080" begin="arrowUp.mouseover" end="arrowUp.mouseout"/>
                  </use>
                  <path fill="none" stroke="white" stroke-width="1.5" d="M0,-3.0v7 M-2.5,-0.5L0,-3.0L2.5,-0.5"/>
                </g>
                <g id="arrowRight" xlink:href="#dirArrow" transform="rotate(90) translate(36 -43)" onmousedown="handlePan(1,0)">
                  <use xlink:href="#rim" fill="#404040">
                        <set attributeName="fill" to="#808080" begin="arrowRight.mouseover" end="arrowRight.mouseout"/>
                  </use>
                  <path fill="none" stroke="white" stroke-width="1.5" d="M0,-3.0v7 M-2.5,-0.5L0,-3.0L2.5,-0.5"/>
                </g>
                <g id="arrowDown" xlink:href="#dirArrow" transform="rotate(180) translate(-30 -48)" onmousedown="handlePan(0,1)">
                  <use xlink:href="#rim" fill="#404040">
                        <set attributeName="fill" to="#808080" begin="arrowDown.mouseover" end="arrowDown.mouseout"/>
                  </use>
                  <path fill="none" stroke="white" stroke-width="1.5" d="M0,-3.0v7 M-2.5,-0.5L0,-3.0L2.5,-0.5"/>
                </g>
                <g id="arrowLeft" xlink:href="#dirArrow" transform="rotate(270) translate(-36 17)" onmousedown="handlePan(-1,0)">
                  <use xlink:href="#rim" fill="#404040">
                        <set attributeName="fill" to="#808080" begin="arrowLeft.mouseover" end="arrowLeft.mouseout"/>
                  </use>
                  <path fill="none" stroke="white" stroke-width="1.5" d="M0,-3.0v7 M-2.5,-0.5L0,-3.0L2.5,-0.5"/>
                </g>
        </g>
        <svg viewBox="0 0 15 15" width="100%" height="30px" preserveAspectRatio="xMaxYMin meet">
         <g id="arrow_out" transform="scale(0.3 0.3)">
          <a xlink:href="solution__result_8h__dep__incl_org.svg" target="_base">
           <rect id="button" ry="5" rx="5" y="6" x="6" height="38" width="38"
                fill="#f2f5e9" fill-opacity="0.5" stroke="#606060" stroke-width="1.0"/>
           <path id="arrow"
             d="M 11.500037,31.436501 C 11.940474,20.09759 22.043105,11.32322 32.158766,21.979434 L 37.068811,17.246167 C 37.068811,17.246167 37.088388,32 37.088388,32 L 22.160133,31.978069 C 22.160133,31.978069 26.997745,27.140456 26.997745,27.140456 C 18.528582,18.264221 13.291696,25.230495 11.500037,31.436501 z"
             style="fill:#404040;"/>
          </a>
         </g>
        </svg>
</svg>
