<?xml version="1.0" encoding="UTF-8" standalone="no"?>
<!DOCTYPE svg PUBLIC "-//W3C//DTD SVG 1.1//EN"
 "http://www.w3.org/Graphics/SVG/1.1/DTD/svg11.dtd">
<!-- Generated by graphviz version 2.43.0 (0)
 -->
<!-- Title: drake/solvers/solution_result.h Pages: 1 -->
<svg width="2406pt" height="452pt"
 viewBox="0.00 0.00 2405.50 452.00" xmlns="http://www.w3.org/2000/svg" xmlns:xlink="http://www.w3.org/1999/xlink">
<g id="graph0" class="graph" transform="scale(1 1) rotate(0) translate(4 448)">
<title>drake/solvers/solution_result.h</title>
<polygon fill="white" stroke="transparent" points="-4,4 -4,-448 2401.5,-448 2401.5,4 -4,4"/>
<!-- Node3 -->
<g id="node1" class="node">
<title>Node3</title>
<g id="a_node1"><a xlink:title=" ">
<polygon fill="#bfbfbf" stroke="black" points="1131.5,-413.5 1131.5,-443.5 1255.5,-443.5 1255.5,-413.5 1131.5,-413.5"/>
<text text-anchor="start" x="1139.5" y="-431.5" font-family="Helvetica,sans-Serif" font-size="10.00">drake/solvers/solution</text>
<text text-anchor="middle" x="1193.5" y="-420.5" font-family="Helvetica,sans-Serif" font-size="10.00">_result.h</text>
</a>
</g>
</g>
<!-- Node4 -->
<g id="node2" class="node">
<title>Node4</title>
<g id="a_node2"><a xlink:href="solver__base_8h.html" target="_top" xlink:title=" ">
<polygon fill="white" stroke="black" points="822,-201.5 822,-231.5 937,-231.5 937,-201.5 822,-201.5"/>
<text text-anchor="start" x="830" y="-219.5" font-family="Helvetica,sans-Serif" font-size="10.00">drake/solvers/solver</text>
<text text-anchor="middle" x="879.5" y="-208.5" font-family="Helvetica,sans-Serif" font-size="10.00">_base.h</text>
</a>
</g>
</g>
<!-- Node3&#45;&gt;Node4 -->
<g id="edge1" class="edge">
<title>Node3&#45;&gt;Node4</title>
<path fill="none" stroke="midnightblue" d="M1163.72,-407.59C1100.65,-365.4 954.92,-267.94 900.5,-231.54"/>
<polygon fill="midnightblue" stroke="midnightblue" points="1162.15,-410.75 1172.41,-413.4 1166.04,-404.93 1162.15,-410.75"/>
</g>
<!-- Node21 -->
<g id="node19" class="node">
<title>Node21</title>
<g id="a_node19"><a xlink:href="mathematical__program__result_8h.html" target="_top" xlink:title=" ">
<polygon fill="white" stroke="black" points="1681,-346.5 1681,-376.5 1834,-376.5 1834,-346.5 1681,-346.5"/>
<text text-anchor="start" x="1689" y="-364.5" font-family="Helvetica,sans-Serif" font-size="10.00">drake/solvers/mathematical</text>
<text text-anchor="middle" x="1757.5" y="-353.5" font-family="Helvetica,sans-Serif" font-size="10.00">_program_result.h</text>
</a>
</g>
</g>
<!-- Node3&#45;&gt;Node21 -->
<g id="edge19" class="edge">
<title>Node3&#45;&gt;Node21</title>
<path fill="none" stroke="midnightblue" d="M1265.78,-419.17C1372.52,-406.87 1571.43,-383.94 1680.71,-371.35"/>
<polygon fill="midnightblue" stroke="midnightblue" points="1265.28,-415.7 1255.74,-420.33 1266.08,-422.66 1265.28,-415.7"/>
</g>
<!-- Node22 -->
<g id="node20" class="node">
<title>Node22</title>
<g id="a_node20"><a xlink:href="solver__interface_8h.html" target="_top" xlink:title=" ">
<polygon fill="white" stroke="black" points="1136,-274 1136,-304 1251,-304 1251,-274 1136,-274"/>
<text text-anchor="start" x="1144" y="-292" font-family="Helvetica,sans-Serif" font-size="10.00">drake/solvers/solver</text>
<text text-anchor="middle" x="1193.5" y="-281" font-family="Helvetica,sans-Serif" font-size="10.00">_interface.h</text>
</a>
</g>
</g>
<!-- Node3&#45;&gt;Node22 -->
<g id="edge36" class="edge">
<title>Node3&#45;&gt;Node22</title>
<path fill="none" stroke="midnightblue" d="M1193.5,-403.29C1193.5,-374.61 1193.5,-327.78 1193.5,-304.33"/>
<polygon fill="midnightblue" stroke="midnightblue" points="1190,-403.3 1193.5,-413.3 1197,-403.3 1190,-403.3"/>
</g>
<!-- Node5 -->
<g id="node3" class="node">
<title>Node5</title>
<g id="a_node3"><a xlink:href="moby__lcp__solver_8h.html" target="_top" xlink:title=" ">
<polygon fill="white" stroke="black" points="829,-134.5 829,-164.5 942,-164.5 942,-134.5 829,-134.5"/>
<text text-anchor="start" x="837" y="-152.5" font-family="Helvetica,sans-Serif" font-size="10.00">drake/solvers/moby</text>
<text text-anchor="middle" x="885.5" y="-141.5" font-family="Helvetica,sans-Serif" font-size="10.00">_lcp_solver.h</text>
</a>
</g>
</g>
<!-- Node4&#45;&gt;Node5 -->
<g id="edge2" class="edge">
<title>Node4&#45;&gt;Node5</title>
<path fill="none" stroke="midnightblue" d="M881.72,-191.4C882.56,-182.37 883.48,-172.41 884.2,-164.58"/>
<polygon fill="midnightblue" stroke="midnightblue" points="878.24,-191.12 880.8,-201.4 885.21,-191.76 878.24,-191.12"/>
</g>
<!-- Node8 -->
<g id="node6" class="node">
<title>Node8</title>
<g id="a_node6"><a xlink:href="clp__solver_8h.html" target="_top" xlink:title=" ">
<polygon fill="white" stroke="black" points="960,-140 960,-159 1103,-159 1103,-140 960,-140"/>
<text text-anchor="middle" x="1031.5" y="-147" font-family="Helvetica,sans-Serif" font-size="10.00">drake/solvers/clp_solver.h</text>
</a>
</g>
</g>
<!-- Node4&#45;&gt;Node8 -->
<g id="edge6" class="edge">
<title>Node4&#45;&gt;Node8</title>
<path fill="none" stroke="midnightblue" d="M921.69,-197.46C951.06,-184.9 988.88,-168.72 1011.61,-159.01"/>
<polygon fill="midnightblue" stroke="midnightblue" points="920.3,-194.25 912.48,-201.4 923.05,-200.68 920.3,-194.25"/>
</g>
<!-- Node9 -->
<g id="node7" class="node">
<title>Node9</title>
<g id="a_node7"><a xlink:href="csdp__solver_8h.html" target="_top" xlink:title=" ">
<polygon fill="white" stroke="black" points="1121,-134.5 1121,-164.5 1228,-164.5 1228,-134.5 1121,-134.5"/>
<text text-anchor="start" x="1129" y="-152.5" font-family="Helvetica,sans-Serif" font-size="10.00">drake/solvers/csdp</text>
<text text-anchor="middle" x="1174.5" y="-141.5" font-family="Helvetica,sans-Serif" font-size="10.00">_solver.h</text>
</a>
</g>
</g>
<!-- Node4&#45;&gt;Node9 -->
<g id="edge7" class="edge">
<title>Node4&#45;&gt;Node9</title>
<path fill="none" stroke="midnightblue" d="M946.89,-200.7C1020.87,-184.6 1040.85,-180.79 1111.5,-165 1114.57,-164.31 1117.72,-163.61 1120.89,-162.89"/>
<polygon fill="midnightblue" stroke="midnightblue" points="946.12,-197.29 937.09,-202.84 947.61,-204.13 946.12,-197.29"/>
</g>
<!-- Node10 -->
<g id="node8" class="node">
<title>Node10</title>
<g id="a_node8"><a xlink:href="equality__constrained__qp__solver_8h.html" target="_top" xlink:title=" ">
<polygon fill="white" stroke="black" points="1246.5,-134.5 1246.5,-164.5 1386.5,-164.5 1386.5,-134.5 1246.5,-134.5"/>
<text text-anchor="start" x="1254.5" y="-152.5" font-family="Helvetica,sans-Serif" font-size="10.00">drake/solvers/equality</text>
<text text-anchor="middle" x="1316.5" y="-141.5" font-family="Helvetica,sans-Serif" font-size="10.00">_constrained_qp_solver.h</text>
</a>
</g>
</g>
<!-- Node4&#45;&gt;Node10 -->
<g id="edge8" class="edge">
<title>Node4&#45;&gt;Node10</title>
<path fill="none" stroke="midnightblue" d="M947.26,-200.79C1075.72,-179.26 1110.94,-184.13 1236.5,-165 1239.71,-164.51 1242.99,-163.99 1246.3,-163.45"/>
<polygon fill="midnightblue" stroke="midnightblue" points="946.3,-197.41 937.03,-202.53 947.48,-204.31 946.3,-197.41"/>
</g>
<!-- Node11 -->
<g id="node9" class="node">
<title>Node11</title>
<g id="a_node9"><a xlink:href="gurobi__solver_8h.html" target="_top" xlink:title=" ">
<polygon fill="white" stroke="black" points="1404.5,-134.5 1404.5,-164.5 1520.5,-164.5 1520.5,-134.5 1404.5,-134.5"/>
<text text-anchor="start" x="1412.5" y="-152.5" font-family="Helvetica,sans-Serif" font-size="10.00">drake/solvers/gurobi</text>
<text text-anchor="middle" x="1462.5" y="-141.5" font-family="Helvetica,sans-Serif" font-size="10.00">_solver.h</text>
</a>
</g>
</g>
<!-- Node4&#45;&gt;Node11 -->
<g id="edge9" class="edge">
<title>Node4&#45;&gt;Node11</title>
<path fill="none" stroke="midnightblue" d="M947.19,-200.88C1145.75,-172.15 1200.3,-193.8 1395.5,-165 1398.44,-164.57 1401.45,-164.08 1404.48,-163.55"/>
<polygon fill="midnightblue" stroke="midnightblue" points="946.39,-197.46 937.01,-202.38 947.41,-204.39 946.39,-197.46"/>
</g>
<!-- Node12 -->
<g id="node10" class="node">
<title>Node12</title>
<g id="a_node10"><a xlink:href="ipopt__solver_8h.html" target="_top" xlink:title=" ">
<polygon fill="white" stroke="black" points="1538.5,-134.5 1538.5,-164.5 1648.5,-164.5 1648.5,-134.5 1538.5,-134.5"/>
<text text-anchor="start" x="1546.5" y="-152.5" font-family="Helvetica,sans-Serif" font-size="10.00">drake/solvers/ipopt</text>
<text text-anchor="middle" x="1593.5" y="-141.5" font-family="Helvetica,sans-Serif" font-size="10.00">_solver.h</text>
</a>
</g>
</g>
<!-- Node4&#45;&gt;Node12 -->
<g id="edge10" class="edge">
<title>Node4&#45;&gt;Node12</title>
<path fill="none" stroke="midnightblue" d="M947.38,-200.87C1204.83,-165.92 1275.34,-201.38 1529.5,-165 1532.43,-164.58 1535.43,-164.1 1538.45,-163.57"/>
<polygon fill="midnightblue" stroke="midnightblue" points="946.78,-197.42 937.36,-202.26 947.74,-204.36 946.78,-197.42"/>
</g>
<!-- Node13 -->
<g id="node11" class="node">
<title>Node13</title>
<g id="a_node11"><a xlink:href="linear__system__solver_8h.html" target="_top" xlink:title=" ">
<polygon fill="white" stroke="black" points="0,-134.5 0,-164.5 113,-164.5 113,-134.5 0,-134.5"/>
<text text-anchor="start" x="8" y="-152.5" font-family="Helvetica,sans-Serif" font-size="10.00">drake/solvers/linear</text>
<text text-anchor="middle" x="56.5" y="-141.5" font-family="Helvetica,sans-Serif" font-size="10.00">_system_solver.h</text>
</a>
</g>
</g>
<!-- Node4&#45;&gt;Node13 -->
<g id="edge11" class="edge">
<title>Node4&#45;&gt;Node13</title>
<path fill="none" stroke="midnightblue" d="M811.71,-214.37C678.84,-211.42 375.09,-200.97 122.5,-165 119.48,-164.57 116.39,-164.08 113.28,-163.54"/>
<polygon fill="midnightblue" stroke="midnightblue" points="811.67,-217.87 821.74,-214.59 811.82,-210.87 811.67,-217.87"/>
</g>
<!-- Node14 -->
<g id="node12" class="node">
<title>Node14</title>
<g id="a_node12"><a xlink:href="mosek__solver_8h.html" target="_top" xlink:title=" ">
<polygon fill="white" stroke="black" points="1689.5,-134.5 1689.5,-164.5 1807.5,-164.5 1807.5,-134.5 1689.5,-134.5"/>
<text text-anchor="start" x="1697.5" y="-152.5" font-family="Helvetica,sans-Serif" font-size="10.00">drake/solvers/mosek</text>
<text text-anchor="middle" x="1748.5" y="-141.5" font-family="Helvetica,sans-Serif" font-size="10.00">_solver.h</text>
</a>
</g>
</g>
<!-- Node4&#45;&gt;Node14 -->
<g id="edge12" class="edge">
<title>Node4&#45;&gt;Node14</title>
<path fill="none" stroke="midnightblue" d="M947.65,-200.85C1261.34,-159.69 1345.76,-197.62 1657.5,-165 1667.84,-163.92 1678.8,-162.45 1689.39,-160.86"/>
<polygon fill="midnightblue" stroke="midnightblue" points="946.8,-197.43 937.35,-202.22 947.73,-204.37 946.8,-197.43"/>
</g>
<!-- Node15 -->
<g id="node13" class="node">
<title>Node15</title>
<g id="a_node13"><a xlink:href="nlopt__solver_8h.html" target="_top" xlink:title=" ">
<polygon fill="white" stroke="black" points="131.5,-134.5 131.5,-164.5 241.5,-164.5 241.5,-134.5 131.5,-134.5"/>
<text text-anchor="start" x="139.5" y="-152.5" font-family="Helvetica,sans-Serif" font-size="10.00">drake/solvers/nlopt</text>
<text text-anchor="middle" x="186.5" y="-141.5" font-family="Helvetica,sans-Serif" font-size="10.00">_solver.h</text>
</a>
</g>
</g>
<!-- Node4&#45;&gt;Node15 -->
<g id="edge13" class="edge">
<title>Node4&#45;&gt;Node15</title>
<path fill="none" stroke="midnightblue" d="M811.83,-213.23C696.19,-208.66 453.39,-195.97 250.5,-165 247.57,-164.55 244.58,-164.05 241.56,-163.5"/>
<polygon fill="midnightblue" stroke="midnightblue" points="811.82,-216.74 821.94,-213.63 812.09,-209.74 811.82,-216.74"/>
</g>
<!-- Node16 -->
<g id="node14" class="node">
<title>Node16</title>
<g id="a_node14"><a xlink:href="osqp__solver_8h.html" target="_top" xlink:title=" ">
<polygon fill="white" stroke="black" points="259.5,-134.5 259.5,-164.5 367.5,-164.5 367.5,-134.5 259.5,-134.5"/>
<text text-anchor="start" x="267.5" y="-152.5" font-family="Helvetica,sans-Serif" font-size="10.00">drake/solvers/osqp</text>
<text text-anchor="middle" x="313.5" y="-141.5" font-family="Helvetica,sans-Serif" font-size="10.00">_solver.h</text>
</a>
</g>
</g>
<!-- Node4&#45;&gt;Node16 -->
<g id="edge14" class="edge">
<title>Node4&#45;&gt;Node16</title>
<path fill="none" stroke="midnightblue" d="M811.61,-211.41C714.63,-204.96 531.08,-190.44 376.5,-165 373.62,-164.53 370.68,-164 367.71,-163.43"/>
<polygon fill="midnightblue" stroke="midnightblue" points="811.65,-214.92 821.86,-212.09 812.11,-207.94 811.65,-214.92"/>
</g>
<!-- Node17 -->
<g id="node15" class="node">
<title>Node17</title>
<g id="a_node15"><a xlink:href="scs__solver_8h.html" target="_top" xlink:title=" ">
<polygon fill="white" stroke="black" points="385.5,-140 385.5,-159 529.5,-159 529.5,-140 385.5,-140"/>
<text text-anchor="middle" x="457.5" y="-147" font-family="Helvetica,sans-Serif" font-size="10.00">drake/solvers/scs_solver.h</text>
</a>
</g>
</g>
<!-- Node4&#45;&gt;Node17 -->
<g id="edge15" class="edge">
<title>Node4&#45;&gt;Node17</title>
<path fill="none" stroke="midnightblue" d="M811.52,-206.05C742.63,-196.32 633.02,-180.46 538.5,-165 527.22,-163.16 515.08,-161.05 503.72,-159.02"/>
<polygon fill="midnightblue" stroke="midnightblue" points="811.41,-209.57 821.8,-207.49 812.38,-202.63 811.41,-209.57"/>
</g>
<!-- Node18 -->
<g id="node16" class="node">
<title>Node18</title>
<g id="a_node16"><a xlink:href="snopt__solver_8h.html" target="_top" xlink:title=" ">
<polygon fill="white" stroke="black" points="547.5,-134.5 547.5,-164.5 659.5,-164.5 659.5,-134.5 547.5,-134.5"/>
<text text-anchor="start" x="555.5" y="-152.5" font-family="Helvetica,sans-Serif" font-size="10.00">drake/solvers/snopt</text>
<text text-anchor="middle" x="603.5" y="-141.5" font-family="Helvetica,sans-Serif" font-size="10.00">_solver.h</text>
</a>
</g>
</g>
<!-- Node4&#45;&gt;Node18 -->
<g id="edge16" class="edge">
<title>Node4&#45;&gt;Node18</title>
<path fill="none" stroke="midnightblue" d="M812.22,-199.66C765.4,-188.63 703.69,-174.09 659.53,-163.7"/>
<polygon fill="midnightblue" stroke="midnightblue" points="811.44,-203.07 821.98,-201.95 813.05,-196.25 811.44,-203.07"/>
</g>
<!-- Node19 -->
<g id="node17" class="node">
<title>Node19</title>
<g id="a_node17"><a xlink:href="solve_8h.html" target="_top" xlink:title=" ">
<polygon fill="white" stroke="black" points="1837.5,-140 1837.5,-159 1957.5,-159 1957.5,-140 1837.5,-140"/>
<text text-anchor="middle" x="1897.5" y="-147" font-family="Helvetica,sans-Serif" font-size="10.00">drake/solvers/solve.h</text>
</a>
</g>
</g>
<!-- Node4&#45;&gt;Node19 -->
<g id="edge17" class="edge">
<title>Node4&#45;&gt;Node19</title>
<path fill="none" stroke="midnightblue" d="M947.34,-200.91C1331.49,-152.19 1434.66,-206.87 1816.5,-165 1829.42,-163.58 1843.39,-161.34 1856.03,-159.04"/>
<polygon fill="midnightblue" stroke="midnightblue" points="946.82,-197.45 937.35,-202.19 947.71,-204.39 946.82,-197.45"/>
</g>
<!-- Node20 -->
<g id="node18" class="node">
<title>Node20</title>
<g id="a_node18"><a xlink:href="unrevised__lemke__solver_8h.html" target="_top" xlink:title=" ">
<polygon fill="white" stroke="black" points="678,-134.5 678,-164.5 811,-164.5 811,-134.5 678,-134.5"/>
<text text-anchor="start" x="686" y="-152.5" font-family="Helvetica,sans-Serif" font-size="10.00">drake/solvers/unrevised</text>
<text text-anchor="middle" x="744.5" y="-141.5" font-family="Helvetica,sans-Serif" font-size="10.00">_lemke_solver.h</text>
</a>
</g>
</g>
<!-- Node4&#45;&gt;Node20 -->
<g id="edge18" class="edge">
<title>Node4&#45;&gt;Node20</title>
<path fill="none" stroke="midnightblue" d="M841.06,-196.99C819.66,-186.69 793.45,-174.07 773.74,-164.58"/>
<polygon fill="midnightblue" stroke="midnightblue" points="839.68,-200.21 850.21,-201.4 842.72,-193.9 839.68,-200.21"/>
</g>
<!-- Node6 -->
<g id="node4" class="node">
<title>Node6</title>
<g id="a_node4"><a xlink:href="constraint__solver_8h.html" target="_top" xlink:title=" ">
<polygon fill="white" stroke="black" points="862.5,-67.5 862.5,-97.5 1010.5,-97.5 1010.5,-67.5 862.5,-67.5"/>
<text text-anchor="start" x="870.5" y="-85.5" font-family="Helvetica,sans-Serif" font-size="10.00">drake/multibody/constraint</text>
<text text-anchor="middle" x="936.5" y="-74.5" font-family="Helvetica,sans-Serif" font-size="10.00">/constraint_solver.h</text>
</a>
</g>
</g>
<!-- Node5&#45;&gt;Node6 -->
<g id="edge3" class="edge">
<title>Node5&#45;&gt;Node6</title>
<path fill="none" stroke="midnightblue" d="M902.8,-126.45C910.29,-116.9 918.84,-106 925.46,-97.58"/>
<polygon fill="midnightblue" stroke="midnightblue" points="899.99,-124.37 896.57,-134.4 905.49,-128.69 899.99,-124.37"/>
</g>
<!-- Node7 -->
<g id="node5" class="node">
<title>Node7</title>
<g id="a_node5"><a xlink:href="rod2d_8h.html" target="_top" xlink:title=" ">
<polygon fill="white" stroke="black" points="823,-0.5 823,-30.5 948,-30.5 948,-0.5 823,-0.5"/>
<text text-anchor="start" x="831" y="-18.5" font-family="Helvetica,sans-Serif" font-size="10.00">drake/examples/rod2d</text>
<text text-anchor="middle" x="885.5" y="-7.5" font-family="Helvetica,sans-Serif" font-size="10.00">/rod2d.h</text>
</a>
</g>
</g>
<!-- Node5&#45;&gt;Node7 -->
<g id="edge5" class="edge">
<title>Node5&#45;&gt;Node7</title>
<path fill="none" stroke="midnightblue" d="M867.29,-125.8C861.73,-117.54 856.35,-107.81 853.5,-98 849.66,-84.77 849.66,-80.23 853.5,-67 857.38,-53.64 865.96,-40.43 873.26,-30.88"/>
<polygon fill="midnightblue" stroke="midnightblue" points="864.59,-128.05 873.26,-134.12 870.27,-123.96 864.59,-128.05"/>
</g>
<!-- Node6&#45;&gt;Node7 -->
<g id="edge4" class="edge">
<title>Node6&#45;&gt;Node7</title>
<path fill="none" stroke="midnightblue" d="M919.2,-59.45C911.71,-49.9 903.16,-39 896.54,-30.58"/>
<polygon fill="midnightblue" stroke="midnightblue" points="916.51,-61.69 925.43,-67.4 922.01,-57.37 916.51,-61.69"/>
</g>
<!-- Node21&#45;&gt;Node14 -->
<g id="edge29" class="edge">
<title>Node21&#45;&gt;Node14</title>
<path fill="none" stroke="midnightblue" d="M1800.77,-341.44C1813.93,-333.57 1827.11,-323.15 1835.5,-310 1861.7,-268.96 1871.85,-242.57 1846.5,-201 1836.04,-183.84 1817.67,-172.26 1799.65,-164.57"/>
<polygon fill="midnightblue" stroke="midnightblue" points="1798.76,-338.56 1791.73,-346.49 1802.17,-344.67 1798.76,-338.56"/>
</g>
<!-- Node21&#45;&gt;Node19 -->
<g id="edge31" class="edge">
<title>Node21&#45;&gt;Node19</title>
<path fill="none" stroke="midnightblue" d="M1815.75,-342.27C1831.98,-334.64 1848.23,-324.15 1859.5,-310 1896.92,-263.01 1898.47,-185.13 1897.86,-159.2"/>
<polygon fill="midnightblue" stroke="midnightblue" points="1813.99,-339.22 1806.24,-346.44 1816.8,-345.63 1813.99,-339.22"/>
</g>
<!-- Node21&#45;&gt;Node22 -->
<g id="edge20" class="edge">
<title>Node21&#45;&gt;Node22</title>
<path fill="none" stroke="midnightblue" d="M1670.76,-350.32C1586.58,-340.35 1455.22,-324.59 1341.5,-310 1311.67,-306.17 1278.48,-301.71 1251.11,-297.97"/>
<polygon fill="midnightblue" stroke="midnightblue" points="1670.45,-353.8 1680.79,-351.5 1671.27,-346.85 1670.45,-353.8"/>
</g>
<!-- Node23 -->
<g id="node21" class="node">
<title>Node23</title>
<g id="a_node21"><a xlink:href="graph__of__convex__sets_8h.html" target="_top" xlink:title=" ">
<polygon fill="white" stroke="black" points="1271.5,-201.5 1271.5,-231.5 1429.5,-231.5 1429.5,-201.5 1271.5,-201.5"/>
<text text-anchor="start" x="1279.5" y="-219.5" font-family="Helvetica,sans-Serif" font-size="10.00">drake/geometry/optimization</text>
<text text-anchor="middle" x="1350.5" y="-208.5" font-family="Helvetica,sans-Serif" font-size="10.00">/graph_of_convex_sets.h</text>
</a>
</g>
</g>
<!-- Node21&#45;&gt;Node23 -->
<g id="edge25" class="edge">
<title>Node21&#45;&gt;Node23</title>
<path fill="none" stroke="midnightblue" d="M1670.8,-355.57C1622.47,-349.7 1562.69,-337.05 1515.5,-310 1493.66,-297.48 1498.18,-282.36 1477.5,-268 1454.31,-251.9 1425.23,-239.85 1400.76,-231.57"/>
<polygon fill="midnightblue" stroke="midnightblue" points="1670.6,-359.07 1680.93,-356.72 1671.39,-352.11 1670.6,-359.07"/>
</g>
<!-- Node26 -->
<g id="node24" class="node">
<title>Node26</title>
<g id="a_node24"><a xlink:href="global__inverse__kinematics_8h.html" target="_top" xlink:title=" ">
<polygon fill="white" stroke="black" points="1931.5,-268.5 1931.5,-309.5 2081.5,-309.5 2081.5,-268.5 1931.5,-268.5"/>
<text text-anchor="start" x="1939.5" y="-297.5" font-family="Helvetica,sans-Serif" font-size="10.00">drake/multibody/inverse</text>
<text text-anchor="start" x="1939.5" y="-286.5" font-family="Helvetica,sans-Serif" font-size="10.00">_kinematics/global_inverse</text>
<text text-anchor="middle" x="2006.5" y="-275.5" font-family="Helvetica,sans-Serif" font-size="10.00">_kinematics.h</text>
</a>
</g>
</g>
<!-- Node21&#45;&gt;Node26 -->
<g id="edge26" class="edge">
<title>Node21&#45;&gt;Node26</title>
<path fill="none" stroke="midnightblue" d="M1816.91,-343.68C1853.09,-333.44 1899.47,-320.3 1937.3,-309.59"/>
<polygon fill="midnightblue" stroke="midnightblue" points="1815.66,-340.4 1806.99,-346.49 1817.57,-347.13 1815.66,-340.4"/>
</g>
<!-- Node27 -->
<g id="node25" class="node">
<title>Node27</title>
<g id="a_node25"><a xlink:href="static__equilibrium__problem_8h.html" target="_top" xlink:title=" ">
<polygon fill="white" stroke="black" points="2099.5,-274 2099.5,-304 2261.5,-304 2261.5,-274 2099.5,-274"/>
<text text-anchor="start" x="2107.5" y="-292" font-family="Helvetica,sans-Serif" font-size="10.00">drake/multibody/optimization</text>
<text text-anchor="middle" x="2180.5" y="-281" font-family="Helvetica,sans-Serif" font-size="10.00">/static_equilibrium_problem.h</text>
</a>
</g>
</g>
<!-- Node21&#45;&gt;Node27 -->
<g id="edge27" class="edge">
<title>Node21&#45;&gt;Node27</title>
<path fill="none" stroke="midnightblue" d="M1844.27,-348.99C1911.63,-339.66 2007.26,-325.54 2090.5,-310 2100.1,-308.21 2110.23,-306.13 2120.1,-304.02"/>
<polygon fill="midnightblue" stroke="midnightblue" points="1843.56,-345.56 1834.13,-350.39 1844.51,-352.49 1843.56,-345.56"/>
</g>
<!-- Node28 -->
<g id="node26" class="node">
<title>Node28</title>
<g id="a_node26"><a xlink:href="branch__and__bound_8h.html" target="_top" xlink:title=" ">
<polygon fill="white" stroke="black" points="2279.5,-274 2279.5,-304 2397.5,-304 2397.5,-274 2279.5,-274"/>
<text text-anchor="start" x="2287.5" y="-292" font-family="Helvetica,sans-Serif" font-size="10.00">drake/solvers/branch</text>
<text text-anchor="middle" x="2338.5" y="-281" font-family="Helvetica,sans-Serif" font-size="10.00">_and_bound.h</text>
</a>
</g>
</g>
<!-- Node21&#45;&gt;Node28 -->
<g id="edge28" class="edge">
<title>Node21&#45;&gt;Node28</title>
<path fill="none" stroke="midnightblue" d="M1844.2,-356.94C1946.79,-351.58 2122.36,-338.81 2270.5,-310 2278.59,-308.43 2287.11,-306.31 2295.27,-304.03"/>
<polygon fill="midnightblue" stroke="midnightblue" points="1844.01,-353.44 1834.2,-357.45 1844.37,-360.43 1844.01,-353.44"/>
</g>
<!-- Node29 -->
<g id="node27" class="node">
<title>Node29</title>
<g id="a_node27"><a xlink:href="mosek__solver__internal_8h.html" target="_top" xlink:title=" ">
<polygon fill="white" stroke="black" points="1350.5,-274 1350.5,-304 1468.5,-304 1468.5,-274 1350.5,-274"/>
<text text-anchor="start" x="1358.5" y="-292" font-family="Helvetica,sans-Serif" font-size="10.00">drake/solvers/mosek</text>
<text text-anchor="middle" x="1409.5" y="-281" font-family="Helvetica,sans-Serif" font-size="10.00">_solver_internal.h</text>
</a>
</g>
</g>
<!-- Node21&#45;&gt;Node29 -->
<g id="edge30" class="edge">
<title>Node21&#45;&gt;Node29</title>
<path fill="none" stroke="midnightblue" d="M1671.03,-346.58C1616.67,-337.34 1545.2,-324.32 1482.5,-310 1474.69,-308.22 1466.45,-306.15 1458.44,-304.03"/>
<polygon fill="midnightblue" stroke="midnightblue" points="1670.53,-350.04 1680.98,-348.26 1671.7,-343.14 1670.53,-350.04"/>
</g>
<!-- Node30 -->
<g id="node28" class="node">
<title>Node30</title>
<g id="a_node28"><a xlink:href="multiple__shooting_8h.html" target="_top" xlink:title=" ">
<polygon fill="white" stroke="black" points="1688.5,-268.5 1688.5,-309.5 1826.5,-309.5 1826.5,-268.5 1688.5,-268.5"/>
<text text-anchor="start" x="1696.5" y="-297.5" font-family="Helvetica,sans-Serif" font-size="10.00">drake/systems/trajectory</text>
<text text-anchor="start" x="1696.5" y="-286.5" font-family="Helvetica,sans-Serif" font-size="10.00">_optimization/multiple</text>
<text text-anchor="middle" x="1757.5" y="-275.5" font-family="Helvetica,sans-Serif" font-size="10.00">_shooting.h</text>
</a>
</g>
</g>
<!-- Node21&#45;&gt;Node30 -->
<g id="edge32" class="edge">
<title>Node21&#45;&gt;Node30</title>
<path fill="none" stroke="midnightblue" d="M1757.5,-335.98C1757.5,-327.35 1757.5,-317.76 1757.5,-309.59"/>
<polygon fill="midnightblue" stroke="midnightblue" points="1754,-336.23 1757.5,-346.23 1761,-336.23 1754,-336.23"/>
</g>
<!-- Node33 -->
<g id="node31" class="node">
<title>Node33</title>
<g id="a_node31"><a xlink:href="kinematic__trajectory__optimization_8h.html" target="_top" xlink:title=" ">
<polygon fill="white" stroke="black" points="1525,-268.5 1525,-309.5 1670,-309.5 1670,-268.5 1525,-268.5"/>
<text text-anchor="start" x="1533" y="-297.5" font-family="Helvetica,sans-Serif" font-size="10.00">drake/systems/trajectory</text>
<text text-anchor="start" x="1533" y="-286.5" font-family="Helvetica,sans-Serif" font-size="10.00">_optimization/kinematic</text>
<text text-anchor="middle" x="1597.5" y="-275.5" font-family="Helvetica,sans-Serif" font-size="10.00">_trajectory_optimization.h</text>
</a>
</g>
</g>
<!-- Node21&#45;&gt;Node33 -->
<g id="edge35" class="edge">
<title>Node21&#45;&gt;Node33</title>
<path fill="none" stroke="midnightblue" d="M1716.11,-342.26C1693.34,-332.23 1665.08,-319.78 1641.86,-309.55"/>
<polygon fill="midnightblue" stroke="midnightblue" points="1714.94,-345.57 1725.51,-346.4 1717.77,-339.17 1714.94,-345.57"/>
</g>
<!-- Node22&#45;&gt;Node4 -->
<g id="edge21" class="edge">
<title>Node22&#45;&gt;Node4</title>
<path fill="none" stroke="midnightblue" d="M1126.04,-272.85C1069.82,-260.23 990.59,-242.44 937.26,-230.47"/>
<polygon fill="midnightblue" stroke="midnightblue" points="1125.38,-276.29 1135.91,-275.07 1126.92,-269.46 1125.38,-276.29"/>
</g>
<!-- Node22&#45;&gt;Node23 -->
<g id="edge22" class="edge">
<title>Node22&#45;&gt;Node23</title>
<path fill="none" stroke="midnightblue" d="M1234.28,-269.69C1260.78,-257.79 1294.79,-242.52 1319.16,-231.57"/>
<polygon fill="midnightblue" stroke="midnightblue" points="1232.58,-266.61 1224.89,-273.9 1235.45,-273 1232.58,-266.61"/>
</g>
<!-- Node24 -->
<g id="node22" class="node">
<title>Node24</title>
<g id="a_node22"><a xlink:href="toppra_8h.html" target="_top" xlink:title=" ">
<polygon fill="white" stroke="black" points="955,-201.5 955,-231.5 1116,-231.5 1116,-201.5 955,-201.5"/>
<text text-anchor="start" x="963" y="-219.5" font-family="Helvetica,sans-Serif" font-size="10.00">drake/multibody/optimization</text>
<text text-anchor="middle" x="1035.5" y="-208.5" font-family="Helvetica,sans-Serif" font-size="10.00">/toppra.h</text>
</a>
</g>
</g>
<!-- Node22&#45;&gt;Node24 -->
<g id="edge23" class="edge">
<title>Node22&#45;&gt;Node24</title>
<path fill="none" stroke="midnightblue" d="M1152.46,-269.69C1125.8,-257.79 1091.57,-242.52 1067.04,-231.57"/>
<polygon fill="midnightblue" stroke="midnightblue" points="1151.35,-273.02 1161.91,-273.9 1154.2,-266.63 1151.35,-273.02"/>
</g>
<!-- Node25 -->
<g id="node23" class="node">
<title>Node25</title>
<g id="a_node23"><a xlink:href="choose__best__solver_8h.html" target="_top" xlink:title=" ">
<polygon fill="white" stroke="black" points="1134,-201.5 1134,-231.5 1253,-231.5 1253,-201.5 1134,-201.5"/>
<text text-anchor="start" x="1142" y="-219.5" font-family="Helvetica,sans-Serif" font-size="10.00">drake/solvers/choose</text>
<text text-anchor="middle" x="1193.5" y="-208.5" font-family="Helvetica,sans-Serif" font-size="10.00">_best_solver.h</text>
</a>
</g>
</g>
<!-- Node22&#45;&gt;Node25 -->
<g id="edge24" class="edge">
<title>Node22&#45;&gt;Node25</title>
<path fill="none" stroke="midnightblue" d="M1193.5,-263.73C1193.5,-253.07 1193.5,-240.91 1193.5,-231.75"/>
<polygon fill="midnightblue" stroke="midnightblue" points="1190,-263.73 1193.5,-273.73 1197,-263.73 1190,-263.73"/>
</g>
<!-- Node31 -->
<g id="node29" class="node">
<title>Node31</title>
<g id="a_node29"><a xlink:href="direct__collocation_8h.html" target="_top" xlink:title=" ">
<polygon fill="white" stroke="black" points="1655.5,-201.5 1655.5,-231.5 1837.5,-231.5 1837.5,-201.5 1655.5,-201.5"/>
<text text-anchor="start" x="1663.5" y="-219.5" font-family="Helvetica,sans-Serif" font-size="10.00">drake/systems/trajectory</text>
<text text-anchor="middle" x="1746.5" y="-208.5" font-family="Helvetica,sans-Serif" font-size="10.00">_optimization/direct_collocation.h</text>
</a>
</g>
</g>
<!-- Node30&#45;&gt;Node31 -->
<g id="edge33" class="edge">
<title>Node30&#45;&gt;Node31</title>
<path fill="none" stroke="midnightblue" d="M1752.88,-258.38C1751.45,-249.21 1749.94,-239.53 1748.75,-231.89"/>
<polygon fill="midnightblue" stroke="midnightblue" points="1749.44,-259.02 1754.44,-268.36 1756.35,-257.94 1749.44,-259.02"/>
</g>
<!-- Node32 -->
<g id="node30" class="node">
<title>Node32</title>
<g id="a_node30"><a xlink:href="direct__transcription_8h.html" target="_top" xlink:title=" ">
<polygon fill="white" stroke="black" points="1447.5,-201.5 1447.5,-231.5 1637.5,-231.5 1637.5,-201.5 1447.5,-201.5"/>
<text text-anchor="start" x="1455.5" y="-219.5" font-family="Helvetica,sans-Serif" font-size="10.00">drake/systems/trajectory</text>
<text text-anchor="middle" x="1542.5" y="-208.5" font-family="Helvetica,sans-Serif" font-size="10.00">_optimization/direct_transcription.h</text>
</a>
</g>
</g>
<!-- Node30&#45;&gt;Node32 -->
<g id="edge34" class="edge">
<title>Node30&#45;&gt;Node32</title>
<path fill="none" stroke="midnightblue" d="M1688.08,-265.24C1654.33,-254.17 1614.83,-241.22 1585.49,-231.6"/>
<polygon fill="midnightblue" stroke="midnightblue" points="1687.3,-268.67 1697.9,-268.46 1689.48,-262.01 1687.3,-268.67"/>
</g>
</g>
</svg>
