<?xml version="1.0" encoding="UTF-8" standalone="no"?>
<!DOCTYPE svg PUBLIC "-//W3C//DTD SVG 1.1//EN"
 "http://www.w3.org/Graphics/SVG/1.1/DTD/svg11.dtd">
<!-- Generated by graphviz version 2.43.0 (0)
 -->
<!-- Title: drake/bindings/pydrake/common/sorted_pair_pybind.h Pages: 1 -->
<!--zoomable 363 -->
<svg id="main" version="1.1" xmlns="http://www.w3.org/2000/svg" xmlns:xlink="http://www.w3.org/1999/xlink" xml:space="preserve" onload="init(evt)">
<style type="text/css"><![CDATA[
.edge:hover path { stroke: red; }
.edge:hover polygon { stroke: red; fill: red; }
]]></style>
<script type="text/javascript"><![CDATA[
var edges = document.getElementsByTagName('g');
if (edges && edges.length) {
  for (var i=0;i<edges.length;i++) {
    if (edges[i].id.substr(0,4)=='edge') {
      edges[i].setAttribute('class','edge');
    }
  }
}
]]></script>
        <defs>
                <circle id="rim" cx="0" cy="0" r="7"/>
                <circle id="rim2" cx="0" cy="0" r="3.5"/>
                <g id="zoomPlus">
                        <use xlink:href="#rim" fill="#404040">
                                <set attributeName="fill" to="#808080" begin="zoomplus.mouseover" end="zoomplus.mouseout"/>
                        </use>
                        <path d="M-4,0h8M0,-4v8" fill="none" stroke="white" stroke-width="1.5" pointer-events="none"/>
                </g>
                <g id="zoomMin">
                        <use xlink:href="#rim" fill="#404040">
                                <set attributeName="fill" to="#808080" begin="zoomminus.mouseover" end="zoomminus.mouseout"/>
                        </use>
                        <path d="M-4,0h8" fill="none" stroke="white" stroke-width="1.5" pointer-events="none"/>
                </g>
                <g id="dirArrow">
                        <path fill="none" stroke="white" stroke-width="1.5" d="M0,-3.0v7 M-2.5,-0.5L0,-3.0L2.5,-0.5"/>
                </g>
               <g id="resetDef">
                       <use xlink:href="#rim2" fill="#404040">
                               <set attributeName="fill" to="#808080" begin="reset.mouseover" end="reset.mouseout"/>
                       </use>
               </g>
        </defs>

<script type="text/javascript">
var viewWidth = 1545;
var viewHeight = 363;
var sectionId = 'dynsection-0';
</script>
<script xlink:href="svgpan.js"/>
<svg id="graph" class="graph">
<g id="viewport">
<title>drake/bindings/pydrake/common/sorted_pair_pybind.h</title>
<polygon fill="white" stroke="transparent" points="-4,4 -4,-359 1540.65,-359 1540.65,4 -4,4"/>
<!-- Node0 -->
<g id="node1" class="node">
<title>Node0</title>
<g id="a_node1"><a xlink:title=" ">
<polygon fill="#bfbfbf" stroke="black" points="821,-324.5 821,-354.5 988,-354.5 988,-324.5 821,-324.5"/>
<text text-anchor="start" x="829" y="-342.5" font-family="Helvetica,sans-Serif" font-size="10.00">drake/bindings/pydrake</text>
<text text-anchor="middle" x="904.5" y="-331.5" font-family="Helvetica,sans-Serif" font-size="10.00">/common/sorted_pair_pybind.h</text>
</a>
</g>
</g>
<!-- Node1 -->
<g id="node2" class="node">
<title>Node1</title>
<g id="a_node2"><a xlink:href="pydrake__pybind_8h.html" target="_top" xlink:title=" ">
<polygon fill="white" stroke="black" points="515.5,-257.5 515.5,-287.5 645.5,-287.5 645.5,-257.5 515.5,-257.5"/>
<text text-anchor="start" x="523.5" y="-275.5" font-family="Helvetica,sans-Serif" font-size="10.00">drake/bindings/pydrake</text>
<text text-anchor="middle" x="580.5" y="-264.5" font-family="Helvetica,sans-Serif" font-size="10.00">/pydrake_pybind.h</text>
</a>
</g>
</g>
<!-- Node0&#45;&gt;Node1 -->
<g id="edge1" class="edge">
<title>Node0&#45;&gt;Node1</title>
<path fill="none" stroke="midnightblue" d="M834.6,-324.48C781.79,-313.88 709.45,-299.37 655.45,-288.54"/>
<polygon fill="midnightblue" stroke="midnightblue" points="656.08,-285.09 645.59,-286.56 654.71,-291.96 656.08,-285.09"/>
</g>
<!-- Node10 -->
<g id="node11" class="node">
<title>Node10</title>
<g id="a_node11"><a xlink:href="sorted__pair_8h.html" target="_top" xlink:title="Provides drake::MakeSortedPair and drake::SortedPair for storing two values of a certain type in sort...">
<polygon fill="white" stroke="black" points="1200,-257.5 1200,-287.5 1323,-287.5 1323,-257.5 1200,-257.5"/>
<text text-anchor="start" x="1208" y="-275.5" font-family="Helvetica,sans-Serif" font-size="10.00">drake/common/sorted</text>
<text text-anchor="middle" x="1261.5" y="-264.5" font-family="Helvetica,sans-Serif" font-size="10.00">_pair.h</text>
</a>
</g>
</g>
<!-- Node0&#45;&gt;Node10 -->
<g id="edge10" class="edge">
<title>Node0&#45;&gt;Node10</title>
<path fill="none" stroke="midnightblue" d="M981.52,-324.48C1043.24,-313.24 1129.19,-297.59 1189.53,-286.6"/>
<polygon fill="midnightblue" stroke="midnightblue" points="1190.52,-289.98 1199.73,-284.75 1189.27,-283.09 1190.52,-289.98"/>
</g>
<!-- Node2 -->
<g id="node3" class="node">
<title>Node2</title>
<g id="a_node3"><a xlink:title=" ">
<polygon fill="white" stroke="#bfbfbf" points="1201,-129 1201,-148 1246,-148 1246,-129 1201,-129"/>
<text text-anchor="middle" x="1223.5" y="-136" font-family="Helvetica,sans-Serif" font-size="10.00">utility</text>
</a>
</g>
</g>
<!-- Node1&#45;&gt;Node2 -->
<g id="edge2" class="edge">
<title>Node1&#45;&gt;Node2</title>
<path fill="none" stroke="midnightblue" d="M645.61,-271.62C738.4,-270.22 913.19,-261.74 1055.5,-221 1110.58,-205.23 1169.67,-172.4 1200.99,-153.57"/>
<polygon fill="midnightblue" stroke="midnightblue" points="1203.06,-156.41 1209.78,-148.21 1199.42,-150.43 1203.06,-156.41"/>
</g>
<!-- Node3 -->
<g id="node4" class="node">
<title>Node3</title>
<g id="a_node4"><a xlink:title=" ">
<polygon fill="white" stroke="#bfbfbf" points="400,-196 400,-215 501,-215 501,-196 400,-196"/>
<text text-anchor="middle" x="450.5" y="-203" font-family="Helvetica,sans-Serif" font-size="10.00">pybind11/eigen.h</text>
</a>
</g>
</g>
<!-- Node1&#45;&gt;Node3 -->
<g id="edge3" class="edge">
<title>Node1&#45;&gt;Node3</title>
<path fill="none" stroke="midnightblue" d="M552.29,-257.4C529.78,-246.14 498.5,-230.5 476.58,-219.54"/>
<polygon fill="midnightblue" stroke="midnightblue" points="478.02,-216.35 467.51,-215.01 474.89,-222.61 478.02,-216.35"/>
</g>
<!-- Node4 -->
<g id="node5" class="node">
<title>Node4</title>
<g id="a_node5"><a xlink:title=" ">
<polygon fill="white" stroke="#bfbfbf" points="519.5,-196 519.5,-215 641.5,-215 641.5,-196 519.5,-196"/>
<text text-anchor="middle" x="580.5" y="-203" font-family="Helvetica,sans-Serif" font-size="10.00">pybind11/functional.h</text>
</a>
</g>
</g>
<!-- Node1&#45;&gt;Node4 -->
<g id="edge4" class="edge">
<title>Node1&#45;&gt;Node4</title>
<path fill="none" stroke="midnightblue" d="M580.5,-257.4C580.5,-248.06 580.5,-235.71 580.5,-225.52"/>
<polygon fill="midnightblue" stroke="midnightblue" points="584,-225.19 580.5,-215.19 577,-225.19 584,-225.19"/>
</g>
<!-- Node5 -->
<g id="node6" class="node">
<title>Node5</title>
<g id="a_node6"><a xlink:title=" ">
<polygon fill="white" stroke="#bfbfbf" points="659.5,-196 659.5,-215 765.5,-215 765.5,-196 659.5,-196"/>
<text text-anchor="middle" x="712.5" y="-203" font-family="Helvetica,sans-Serif" font-size="10.00">pybind11/numpy.h</text>
</a>
</g>
</g>
<!-- Node1&#45;&gt;Node5 -->
<g id="edge5" class="edge">
<title>Node1&#45;&gt;Node5</title>
<path fill="none" stroke="midnightblue" d="M609.14,-257.4C632,-246.14 663.76,-230.5 686.02,-219.54"/>
<polygon fill="midnightblue" stroke="midnightblue" points="687.8,-222.56 695.22,-215.01 684.71,-216.28 687.8,-222.56"/>
</g>
<!-- Node6 -->
<g id="node7" class="node">
<title>Node6</title>
<g id="a_node7"><a xlink:title=" ">
<polygon fill="white" stroke="#bfbfbf" points="783.5,-196 783.5,-215 903.5,-215 903.5,-196 783.5,-196"/>
<text text-anchor="middle" x="843.5" y="-203" font-family="Helvetica,sans-Serif" font-size="10.00">pybind11/operators.h</text>
</a>
</g>
</g>
<!-- Node1&#45;&gt;Node6 -->
<g id="edge6" class="edge">
<title>Node1&#45;&gt;Node6</title>
<path fill="none" stroke="midnightblue" d="M637.24,-257.48C685.72,-245.5 754.48,-228.5 799.04,-217.49"/>
<polygon fill="midnightblue" stroke="midnightblue" points="800.12,-220.83 808.99,-215.03 798.44,-214.03 800.12,-220.83"/>
</g>
<!-- Node7 -->
<g id="node8" class="node">
<title>Node7</title>
<g id="a_node8"><a xlink:title=" ">
<polygon fill="white" stroke="#bfbfbf" points="0,-196 0,-215 119,-215 119,-196 0,-196"/>
<text text-anchor="middle" x="59.5" y="-203" font-family="Helvetica,sans-Serif" font-size="10.00">pybind11/pybind11.h</text>
</a>
</g>
</g>
<!-- Node1&#45;&gt;Node7 -->
<g id="edge7" class="edge">
<title>Node1&#45;&gt;Node7</title>
<path fill="none" stroke="midnightblue" d="M515.49,-266.21C427.44,-258.59 265.52,-243 128.5,-221 121.6,-219.89 114.34,-218.56 107.23,-217.15"/>
<polygon fill="midnightblue" stroke="midnightblue" points="107.48,-213.63 96.98,-215.06 106.08,-220.49 107.48,-213.63"/>
</g>
<!-- Node8 -->
<g id="node9" class="node">
<title>Node8</title>
<g id="a_node9"><a xlink:title=" ">
<polygon fill="white" stroke="#bfbfbf" points="137.5,-196 137.5,-215 223.5,-215 223.5,-196 137.5,-196"/>
<text text-anchor="middle" x="180.5" y="-203" font-family="Helvetica,sans-Serif" font-size="10.00">pybind11/stl.h</text>
</a>
</g>
</g>
<!-- Node1&#45;&gt;Node8 -->
<g id="edge8" class="edge">
<title>Node1&#45;&gt;Node8</title>
<path fill="none" stroke="midnightblue" d="M515.28,-264.56C445.03,-256.5 330.16,-241.61 232.5,-221 227.99,-220.05 223.3,-218.93 218.66,-217.74"/>
<polygon fill="midnightblue" stroke="midnightblue" points="219.24,-214.27 208.68,-215.06 217.43,-221.03 219.24,-214.27"/>
</g>
<!-- Node9 -->
<g id="node10" class="node">
<title>Node9</title>
<g id="a_node10"><a xlink:title=" ">
<polygon fill="white" stroke="#bfbfbf" points="241.5,-196 241.5,-215 381.5,-215 381.5,-196 241.5,-196"/>
<text text-anchor="middle" x="311.5" y="-203" font-family="Helvetica,sans-Serif" font-size="10.00">pybind11/stl/filesystem.h</text>
</a>
</g>
</g>
<!-- Node1&#45;&gt;Node9 -->
<g id="edge9" class="edge">
<title>Node1&#45;&gt;Node9</title>
<path fill="none" stroke="midnightblue" d="M522.46,-257.48C472.78,-245.47 402.25,-228.43 356.69,-217.42"/>
<polygon fill="midnightblue" stroke="midnightblue" points="357.34,-213.98 346.8,-215.03 355.69,-220.78 357.34,-213.98"/>
</g>
<!-- Node10&#45;&gt;Node2 -->
<g id="edge14" class="edge">
<title>Node10&#45;&gt;Node2</title>
<path fill="none" stroke="midnightblue" d="M1257.43,-257.37C1250.53,-233.4 1236.53,-184.75 1228.84,-158.06"/>
<polygon fill="midnightblue" stroke="midnightblue" points="1232.1,-156.74 1225.97,-148.1 1225.38,-158.68 1232.1,-156.74"/>
</g>
<!-- Node11 -->
<g id="node12" class="node">
<title>Node11</title>
<g id="a_node12"><a xlink:title=" ">
<polygon fill="white" stroke="#bfbfbf" points="1289.5,-196 1289.5,-215 1353.5,-215 1353.5,-196 1289.5,-196"/>
<text text-anchor="middle" x="1321.5" y="-203" font-family="Helvetica,sans-Serif" font-size="10.00">algorithm</text>
</a>
</g>
</g>
<!-- Node10&#45;&gt;Node11 -->
<g id="edge11" class="edge">
<title>Node10&#45;&gt;Node11</title>
<path fill="none" stroke="midnightblue" d="M1274.52,-257.4C1283.97,-247.16 1296.77,-233.3 1306.62,-222.62"/>
<polygon fill="midnightblue" stroke="midnightblue" points="1309.26,-224.92 1313.47,-215.19 1304.12,-220.17 1309.26,-224.92"/>
</g>
<!-- Node12 -->
<g id="node13" class="node">
<title>Node12</title>
<g id="a_node13"><a xlink:title=" ">
<polygon fill="white" stroke="#bfbfbf" points="1264,-129 1264,-148 1317,-148 1317,-129 1264,-129"/>
<text text-anchor="middle" x="1290.5" y="-136" font-family="Helvetica,sans-Serif" font-size="10.00">cstddef</text>
</a>
</g>
</g>
<!-- Node10&#45;&gt;Node12 -->
<g id="edge12" class="edge">
<title>Node10&#45;&gt;Node12</title>
<path fill="none" stroke="midnightblue" d="M1264.6,-257.37C1269.87,-233.4 1280.56,-184.75 1286.42,-158.06"/>
<polygon fill="midnightblue" stroke="midnightblue" points="1289.88,-158.62 1288.61,-148.1 1283.05,-157.11 1289.88,-158.62"/>
</g>
<!-- Node13 -->
<g id="node14" class="node">
<title>Node13</title>
<g id="a_node14"><a xlink:title=" ">
<polygon fill="white" stroke="#bfbfbf" points="864,-0.5 864,-19.5 933,-19.5 933,-0.5 864,-0.5"/>
<text text-anchor="middle" x="898.5" y="-7.5" font-family="Helvetica,sans-Serif" font-size="10.00">type_traits</text>
</a>
</g>
</g>
<!-- Node10&#45;&gt;Node13 -->
<g id="edge13" class="edge">
<title>Node10&#45;&gt;Node13</title>
<path fill="none" stroke="midnightblue" d="M1323.04,-266.45C1386.97,-259.92 1481.17,-246.26 1506.5,-221 1537.65,-189.93 1548.21,-157.18 1520.5,-123 1447.67,-33.17 1073.07,-15.34 943.03,-11.84"/>
<polygon fill="midnightblue" stroke="midnightblue" points="943.1,-8.34 933.01,-11.59 942.92,-15.34 943.1,-8.34"/>
</g>
<!-- Node14 -->
<g id="node15" class="node">
<title>Node14</title>
<g id="a_node15"><a xlink:href="hash_8h.html" target="_top" xlink:title=" ">
<polygon fill="white" stroke="black" points="922,-196 922,-215 1047,-215 1047,-196 922,-196"/>
<text text-anchor="middle" x="984.5" y="-203" font-family="Helvetica,sans-Serif" font-size="10.00">drake/common/hash.h</text>
</a>
</g>
</g>
<!-- Node10&#45;&gt;Node14 -->
<g id="edge15" class="edge">
<title>Node10&#45;&gt;Node14</title>
<path fill="none" stroke="midnightblue" d="M1201.74,-257.48C1150.47,-245.45 1077.65,-228.36 1030.73,-217.35"/>
<polygon fill="midnightblue" stroke="midnightblue" points="1031.38,-213.91 1020.85,-215.03 1029.78,-220.72 1031.38,-213.91"/>
</g>
<!-- Node25 -->
<g id="node26" class="node">
<title>Node25</title>
<g id="a_node26"><a xlink:href="is__less__than__comparable_8h.html" target="_top" xlink:title=" ">
<polygon fill="white" stroke="black" points="1372,-190.5 1372,-220.5 1497,-220.5 1497,-190.5 1372,-190.5"/>
<text text-anchor="start" x="1380" y="-208.5" font-family="Helvetica,sans-Serif" font-size="10.00">drake/common/is_less</text>
<text text-anchor="middle" x="1434.5" y="-197.5" font-family="Helvetica,sans-Serif" font-size="10.00">_than_comparable.h</text>
</a>
</g>
</g>
<!-- Node10&#45;&gt;Node25 -->
<g id="edge32" class="edge">
<title>Node10&#45;&gt;Node25</title>
<path fill="none" stroke="midnightblue" d="M1299.04,-257.4C1325,-247.64 1359.72,-234.59 1387.52,-224.15"/>
<polygon fill="midnightblue" stroke="midnightblue" points="1388.9,-227.37 1397.03,-220.58 1386.44,-220.82 1388.9,-227.37"/>
</g>
<!-- Node14&#45;&gt;Node2 -->
<g id="edge25" class="edge">
<title>Node14&#45;&gt;Node2</title>
<path fill="none" stroke="midnightblue" d="M1030.02,-195.94C1072.43,-187.37 1137.13,-172.77 1191.5,-154 1193.16,-153.43 1194.86,-152.8 1196.56,-152.13"/>
<polygon fill="midnightblue" stroke="midnightblue" points="1198.29,-155.2 1206.13,-148.08 1195.56,-148.75 1198.29,-155.2"/>
</g>
<!-- Node14&#45;&gt;Node12 -->
<g id="edge17" class="edge">
<title>Node14&#45;&gt;Node12</title>
<path fill="none" stroke="midnightblue" d="M1047.25,-196.36C1102.51,-188.35 1184.8,-174.34 1254.5,-154 1256.93,-153.29 1259.43,-152.48 1261.92,-151.6"/>
<polygon fill="midnightblue" stroke="midnightblue" points="1263.2,-154.86 1271.32,-148.04 1260.73,-148.31 1263.2,-154.86"/>
</g>
<!-- Node14&#45;&gt;Node13 -->
<g id="edge24" class="edge">
<title>Node14&#45;&gt;Node13</title>
<path fill="none" stroke="midnightblue" d="M966.15,-195.9C950.47,-187.52 928.74,-173.25 917.5,-154 894.52,-114.65 894.61,-59.01 896.58,-30.1"/>
<polygon fill="midnightblue" stroke="midnightblue" points="900.1,-30.05 897.45,-19.79 893.12,-29.46 900.1,-30.05"/>
</g>
<!-- Node15 -->
<g id="node16" class="node">
<title>Node15</title>
<g id="a_node16"><a xlink:title=" ">
<polygon fill="white" stroke="#bfbfbf" points="927,-129 927,-148 974,-148 974,-129 927,-129"/>
<text text-anchor="middle" x="950.5" y="-136" font-family="Helvetica,sans-Serif" font-size="10.00">cmath</text>
</a>
</g>
</g>
<!-- Node14&#45;&gt;Node15 -->
<g id="edge16" class="edge">
<title>Node14&#45;&gt;Node15</title>
<path fill="none" stroke="midnightblue" d="M979.91,-195.73C974.77,-185.89 966.28,-169.66 959.74,-157.16"/>
<polygon fill="midnightblue" stroke="midnightblue" points="962.75,-155.37 955.01,-148.13 956.55,-158.61 962.75,-155.37"/>
</g>
<!-- Node16 -->
<g id="node17" class="node">
<title>Node16</title>
<g id="a_node17"><a xlink:title=" ">
<polygon fill="white" stroke="#bfbfbf" points="992.5,-129 992.5,-148 1042.5,-148 1042.5,-129 992.5,-129"/>
<text text-anchor="middle" x="1017.5" y="-136" font-family="Helvetica,sans-Serif" font-size="10.00">cstdint</text>
</a>
</g>
</g>
<!-- Node14&#45;&gt;Node16 -->
<g id="edge18" class="edge">
<title>Node14&#45;&gt;Node16</title>
<path fill="none" stroke="midnightblue" d="M988.95,-195.73C993.95,-185.89 1002.19,-169.66 1008.53,-157.16"/>
<polygon fill="midnightblue" stroke="midnightblue" points="1011.71,-158.63 1013.12,-148.13 1005.47,-155.46 1011.71,-158.63"/>
</g>
<!-- Node17 -->
<g id="node18" class="node">
<title>Node17</title>
<g id="a_node18"><a xlink:title=" ">
<polygon fill="white" stroke="#bfbfbf" points="1061,-129 1061,-148 1126,-148 1126,-129 1061,-129"/>
<text text-anchor="middle" x="1093.5" y="-136" font-family="Helvetica,sans-Serif" font-size="10.00">functional</text>
</a>
</g>
</g>
<!-- Node14&#45;&gt;Node17 -->
<g id="edge19" class="edge">
<title>Node14&#45;&gt;Node17</title>
<path fill="none" stroke="midnightblue" d="M999.2,-195.73C1017.42,-184.87 1048.7,-166.22 1070.2,-153.39"/>
<polygon fill="midnightblue" stroke="midnightblue" points="1072.24,-156.26 1079.03,-148.13 1068.65,-150.24 1072.24,-156.26"/>
</g>
<!-- Node18 -->
<g id="node19" class="node">
<title>Node18</title>
<g id="a_node19"><a xlink:title=" ">
<polygon fill="white" stroke="#bfbfbf" points="1144.5,-129 1144.5,-148 1182.5,-148 1182.5,-129 1144.5,-129"/>
<text text-anchor="middle" x="1163.5" y="-136" font-family="Helvetica,sans-Serif" font-size="10.00">map</text>
</a>
</g>
</g>
<!-- Node14&#45;&gt;Node18 -->
<g id="edge20" class="edge">
<title>Node14&#45;&gt;Node18</title>
<path fill="none" stroke="midnightblue" d="M1013.7,-195.99C1044.25,-186.78 1093.4,-171.1 1134.5,-154 1135.7,-153.5 1136.92,-152.97 1138.14,-152.43"/>
<polygon fill="midnightblue" stroke="midnightblue" points="1139.89,-155.48 1147.43,-148.03 1136.89,-149.15 1139.89,-155.48"/>
</g>
<!-- Node19 -->
<g id="node20" class="node">
<title>Node19</title>
<g id="a_node20"><a xlink:title=" ">
<polygon fill="white" stroke="#bfbfbf" points="460.5,-129 460.5,-148 516.5,-148 516.5,-129 460.5,-129"/>
<text text-anchor="middle" x="488.5" y="-136" font-family="Helvetica,sans-Serif" font-size="10.00">optional</text>
</a>
</g>
</g>
<!-- Node14&#45;&gt;Node19 -->
<g id="edge21" class="edge">
<title>Node14&#45;&gt;Node19</title>
<path fill="none" stroke="midnightblue" d="M946.14,-195.99C935.31,-193.8 923.48,-191.61 912.5,-190 741.59,-164.91 693.57,-193.91 525.5,-154 522.67,-153.33 519.76,-152.48 516.89,-151.54"/>
<polygon fill="midnightblue" stroke="midnightblue" points="517.97,-148.21 507.38,-148.07 515.57,-154.79 517.97,-148.21"/>
</g>
<!-- Node20 -->
<g id="node21" class="node">
<title>Node20</title>
<g id="a_node21"><a xlink:title=" ">
<polygon fill="white" stroke="#bfbfbf" points="534.5,-129 534.5,-148 566.5,-148 566.5,-129 534.5,-129"/>
<text text-anchor="middle" x="550.5" y="-136" font-family="Helvetica,sans-Serif" font-size="10.00">set</text>
</a>
</g>
</g>
<!-- Node14&#45;&gt;Node20 -->
<g id="edge22" class="edge">
<title>Node14&#45;&gt;Node20</title>
<path fill="none" stroke="midnightblue" d="M945.38,-195.94C934.75,-193.8 923.21,-191.65 912.5,-190 763.62,-167.11 718.67,-200.81 575.5,-154 574.43,-153.65 573.35,-153.25 572.28,-152.81"/>
<polygon fill="midnightblue" stroke="midnightblue" points="573.49,-149.5 562.99,-148.11 570.33,-155.75 573.49,-149.5"/>
</g>
<!-- Node21 -->
<g id="node22" class="node">
<title>Node21</title>
<g id="a_node22"><a xlink:title=" ">
<polygon fill="white" stroke="#bfbfbf" points="584.5,-129 584.5,-148 628.5,-148 628.5,-129 584.5,-129"/>
<text text-anchor="middle" x="606.5" y="-136" font-family="Helvetica,sans-Serif" font-size="10.00">string</text>
</a>
</g>
</g>
<!-- Node14&#45;&gt;Node21 -->
<g id="edge23" class="edge">
<title>Node14&#45;&gt;Node21</title>
<path fill="none" stroke="midnightblue" d="M944.6,-195.96C934.18,-193.87 922.94,-191.73 912.5,-190 790.9,-169.82 755.83,-188.52 637.5,-154 635.62,-153.45 633.71,-152.8 631.8,-152.09"/>
<polygon fill="midnightblue" stroke="midnightblue" points="633.12,-148.84 622.54,-148.15 630.37,-155.28 633.12,-148.84"/>
</g>
<!-- Node22 -->
<g id="node23" class="node">
<title>Node22</title>
<g id="a_node23"><a xlink:title=" ">
<polygon fill="white" stroke="#bfbfbf" points="647,-129 647,-148 694,-148 694,-129 647,-129"/>
<text text-anchor="middle" x="670.5" y="-136" font-family="Helvetica,sans-Serif" font-size="10.00">vector</text>
</a>
</g>
</g>
<!-- Node14&#45;&gt;Node22 -->
<g id="edge26" class="edge">
<title>Node14&#45;&gt;Node22</title>
<path fill="none" stroke="midnightblue" d="M943.03,-195.97C933.04,-193.97 922.4,-191.87 912.5,-190 822.03,-172.91 797.24,-178.52 708.5,-154 705.85,-153.27 703.12,-152.42 700.41,-151.51"/>
<polygon fill="midnightblue" stroke="midnightblue" points="701.37,-148.14 690.77,-148.05 699,-154.73 701.37,-148.14"/>
</g>
<!-- Node23 -->
<g id="node24" class="node">
<title>Node23</title>
<g id="a_node24"><a xlink:href="drake__assert_8h.html" target="_top" xlink:title="Provides Drake&#39;s assertion implementation.">
<polygon fill="white" stroke="black" points="713,-56.5 713,-86.5 832,-86.5 832,-56.5 713,-56.5"/>
<text text-anchor="start" x="721" y="-74.5" font-family="Helvetica,sans-Serif" font-size="10.00">drake/common/drake</text>
<text text-anchor="middle" x="772.5" y="-63.5" font-family="Helvetica,sans-Serif" font-size="10.00">_assert.h</text>
</a>
</g>
</g>
<!-- Node14&#45;&gt;Node23 -->
<g id="edge27" class="edge">
<title>Node14&#45;&gt;Node23</title>
<path fill="none" stroke="midnightblue" d="M942.62,-195.97C873.32,-181.83 742.3,-154.98 741.5,-154 727.38,-136.64 739.9,-112.16 753,-94.56"/>
<polygon fill="midnightblue" stroke="midnightblue" points="755.9,-96.55 759.37,-86.54 750.41,-92.2 755.9,-96.55"/>
</g>
<!-- Node24 -->
<g id="node25" class="node">
<title>Node24</title>
<g id="a_node25"><a xlink:href="drake__throw_8h.html" target="_top" xlink:title="Provides a convenient wrapper to throw an exception when a condition is unmet.">
<polygon fill="white" stroke="black" points="751,-123.5 751,-153.5 870,-153.5 870,-123.5 751,-123.5"/>
<text text-anchor="start" x="759" y="-141.5" font-family="Helvetica,sans-Serif" font-size="10.00">drake/common/drake</text>
<text text-anchor="middle" x="810.5" y="-130.5" font-family="Helvetica,sans-Serif" font-size="10.00">_throw.h</text>
</a>
</g>
</g>
<!-- Node14&#45;&gt;Node24 -->
<g id="edge29" class="edge">
<title>Node14&#45;&gt;Node24</title>
<path fill="none" stroke="midnightblue" d="M961.39,-195.87C935.06,-186.03 891.31,-169.69 857.69,-157.13"/>
<polygon fill="midnightblue" stroke="midnightblue" points="858.64,-153.75 848.05,-153.53 856.19,-160.31 858.64,-153.75"/>
</g>
<!-- Node23&#45;&gt;Node13 -->
<g id="edge28" class="edge">
<title>Node23&#45;&gt;Node13</title>
<path fill="none" stroke="midnightblue" d="M802.36,-56.4C823.12,-46.59 850.6,-33.62 870.86,-24.05"/>
<polygon fill="midnightblue" stroke="midnightblue" points="872.62,-27.09 880.17,-19.66 869.63,-20.76 872.62,-27.09"/>
</g>
<!-- Node24&#45;&gt;Node13 -->
<g id="edge30" class="edge">
<title>Node24&#45;&gt;Node13</title>
<path fill="none" stroke="midnightblue" d="M820.25,-123.48C836.51,-100.1 869.11,-53.25 886.66,-28.02"/>
<polygon fill="midnightblue" stroke="midnightblue" points="889.55,-30 892.39,-19.79 883.8,-26 889.55,-30"/>
</g>
<!-- Node24&#45;&gt;Node23 -->
<g id="edge31" class="edge">
<title>Node24&#45;&gt;Node23</title>
<path fill="none" stroke="midnightblue" d="M802.25,-123.4C797.47,-115.22 791.34,-104.73 785.88,-95.39"/>
<polygon fill="midnightblue" stroke="midnightblue" points="788.8,-93.44 780.73,-86.58 782.75,-96.98 788.8,-93.44"/>
</g>
<!-- Node25&#45;&gt;Node13 -->
<g id="edge33" class="edge">
<title>Node25&#45;&gt;Node13</title>
<path fill="none" stroke="midnightblue" d="M1415.06,-190.49C1401.18,-180.43 1382.1,-166.5 1365.5,-154 1347.53,-140.47 1345.67,-132.94 1325.5,-123 1195.07,-58.72 1023.43,-28.2 943.31,-16.71"/>
<polygon fill="midnightblue" stroke="midnightblue" points="943.47,-13.2 933.08,-15.27 942.5,-20.13 943.47,-13.2"/>
</g>
<!-- Node26 -->
<g id="node27" class="node">
<title>Node26</title>
<g id="a_node27"><a xlink:href="unused_8h.html" target="_top" xlink:title=" ">
<polygon fill="white" stroke="black" points="1374,-129 1374,-148 1511,-148 1511,-129 1374,-129"/>
<text text-anchor="middle" x="1442.5" y="-136" font-family="Helvetica,sans-Serif" font-size="10.00">drake/common/unused.h</text>
</a>
</g>
</g>
<!-- Node25&#45;&gt;Node26 -->
<g id="edge34" class="edge">
<title>Node25&#45;&gt;Node26</title>
<path fill="none" stroke="midnightblue" d="M1436.24,-190.4C1437.4,-180.96 1438.94,-168.45 1440.2,-158.19"/>
<polygon fill="midnightblue" stroke="midnightblue" points="1443.68,-158.55 1441.43,-148.19 1436.73,-157.69 1443.68,-158.55"/>
</g>
</g>
</svg>
        <g id="navigator" transform="translate(0 0)" fill="#404254">
                <rect fill="#f2f5e9" fill-opacity="0.5" stroke="#606060" stroke-width=".5" x="0" y="0" width="60" height="60"/>
                <use id="zoomplus" xlink:href="#zoomPlus" x="17" y="9" onmousedown="handleZoom(evt,'in')"/>
                <use id="zoomminus" xlink:href="#zoomMin" x="42" y="9" onmousedown="handleZoom(evt,'out')"/>
                <use id="reset" xlink:href="#resetDef" x="30" y="36" onmousedown="handleReset()"/>
                <g id="arrowUp" xlink:href="#dirArrow" transform="translate(30 24)" onmousedown="handlePan(0,-1)">
                  <use xlink:href="#rim" fill="#404040">
                        <set attributeName="fill" to="#808080" begin="arrowUp.mouseover" end="arrowUp.mouseout"/>
                  </use>
                  <path fill="none" stroke="white" stroke-width="1.5" d="M0,-3.0v7 M-2.5,-0.5L0,-3.0L2.5,-0.5"/>
                </g>
                <g id="arrowRight" xlink:href="#dirArrow" transform="rotate(90) translate(36 -43)" onmousedown="handlePan(1,0)">
                  <use xlink:href="#rim" fill="#404040">
                        <set attributeName="fill" to="#808080" begin="arrowRight.mouseover" end="arrowRight.mouseout"/>
                  </use>
                  <path fill="none" stroke="white" stroke-width="1.5" d="M0,-3.0v7 M-2.5,-0.5L0,-3.0L2.5,-0.5"/>
                </g>
                <g id="arrowDown" xlink:href="#dirArrow" transform="rotate(180) translate(-30 -48)" onmousedown="handlePan(0,1)">
                  <use xlink:href="#rim" fill="#404040">
                        <set attributeName="fill" to="#808080" begin="arrowDown.mouseover" end="arrowDown.mouseout"/>
                  </use>
                  <path fill="none" stroke="white" stroke-width="1.5" d="M0,-3.0v7 M-2.5,-0.5L0,-3.0L2.5,-0.5"/>
                </g>
                <g id="arrowLeft" xlink:href="#dirArrow" transform="rotate(270) translate(-36 17)" onmousedown="handlePan(-1,0)">
                  <use xlink:href="#rim" fill="#404040">
                        <set attributeName="fill" to="#808080" begin="arrowLeft.mouseover" end="arrowLeft.mouseout"/>
                  </use>
                  <path fill="none" stroke="white" stroke-width="1.5" d="M0,-3.0v7 M-2.5,-0.5L0,-3.0L2.5,-0.5"/>
                </g>
        </g>
        <svg viewBox="0 0 15 15" width="100%" height="30px" preserveAspectRatio="xMaxYMin meet">
         <g id="arrow_out" transform="scale(0.3 0.3)">
          <a xlink:href="sorted__pair__pybind_8h__incl_org.svg" target="_base">
           <rect id="button" ry="5" rx="5" y="6" x="6" height="38" width="38"
                fill="#f2f5e9" fill-opacity="0.5" stroke="#606060" stroke-width="1.0"/>
           <path id="arrow"
             d="M 11.500037,31.436501 C 11.940474,20.09759 22.043105,11.32322 32.158766,21.979434 L 37.068811,17.246167 C 37.068811,17.246167 37.088388,32 37.088388,32 L 22.160133,31.978069 C 22.160133,31.978069 26.997745,27.140456 26.997745,27.140456 C 18.528582,18.264221 13.291696,25.230495 11.500037,31.436501 z"
             style="fill:#404040;"/>
          </a>
         </g>
        </svg>
</svg>
