<?xml version="1.0" encoding="UTF-8" standalone="no"?>
<!DOCTYPE svg PUBLIC "-//W3C//DTD SVG 1.1//EN"
 "http://www.w3.org/Graphics/SVG/1.1/DTD/svg11.dtd">
<!-- Generated by graphviz version 2.43.0 (0)
 -->
<!-- Title: drake/geometry/proximity/sorted_triplet.h Pages: 1 -->
<!--zoomable 521 -->

<svg id="main" version="1.1" xmlns="http://www.w3.org/2000/svg" xmlns:xlink="http://www.w3.org/1999/xlink" xml:space="preserve" onload="init(evt)">

<style type="text/css"><![CDATA[
.node, .edge {opacity: 0.7;}
.node.selected, .edge.selected {opacity: 1;}
.edge:hover path { stroke: red; }
.edge:hover polygon { stroke: red; fill: red; }
]]></style>

<defs>
  <circle id="rim" cx="0" cy="0" r="7"/>
  <circle id="rim2" cx="0" cy="0" r="3.5"/>
  <g id="zoomPlus">
    <use xlink:href="#rim" fill="#404040"><set attributeName="fill" to="#808080" begin="zoomplus.mouseover" end="zoomplus.mouseout"/></use>
    <path d="M-4,0h8M0,-4v8" fill="none" stroke="white" stroke-width="1.5" pointer-events="none"/>
  </g>
  <g id="zoomMin">
    <use xlink:href="#rim" fill="#404040"><set attributeName="fill" to="#808080" begin="zoomminus.mouseover" end="zoomminus.mouseout"/></use>
    <path d="M-4,0h8" fill="none" stroke="white" stroke-width="1.5" pointer-events="none"/>
  </g>
  <g id="arrowUp" transform="translate(30 24)">
    <use xlink:href="#rim"/>
    <path pointer-events="none" fill="none" stroke="white" stroke-width="1.5" d="M0,-3.0v7 M-2.5,-0.5L0,-3.0L2.5,-0.5"/>
  </g>
  <g id="arrowRight" transform="rotate(90) translate(36 -43)">
    <use xlink:href="#rim"/>
    <path pointer-events="none" fill="none" stroke="white" stroke-width="1.5" d="M0,-3.0v7 M-2.5,-0.5L0,-3.0L2.5,-0.5"/>
  </g>
  <g id="arrowDown" transform="rotate(180) translate(-30 -48)">
    <use xlink:href="#rim"/>
    <path pointer-events="none" fill="none" stroke="white" stroke-width="1.5" d="M0,-3.0v7 M-2.5,-0.5L0,-3.0L2.5,-0.5"/>
  </g>
  <g id="arrowLeft" transform="rotate(270) translate(-36 17)">
    <use xlink:href="#rim"/>
    <path pointer-events="none" fill="none" stroke="white" stroke-width="1.5" d="M0,-3.0v7 M-2.5,-0.5L0,-3.0L2.5,-0.5"/>
  </g>
  <g id="resetDef">
    <use xlink:href="#rim2" fill="#404040"><set attributeName="fill" to="#808080" begin="reset.mouseover" end="reset.mouseout"/></use>
  </g>
</defs>
<script type="application/ecmascript">
var viewWidth = 954;
var viewHeight = 521;
var sectionId = 'dynsection-1';
</script>
<script type="application/ecmascript" xlink:href="svg.min.js"/>
<svg id="graph" class="graph">
<g id="viewport">
<title>drake/geometry/proximity/sorted_triplet.h</title>
<!-- Node1 -->
<g id="Node000001" class="node">
<title>Node1</title>
<g id="a_Node000001"><a xlink:title=" ">
<ellipse fill="#999999" stroke="#666666" cx="323.82" cy="-491.77" rx="101.65" ry="21.43"/>
<text text-anchor="start" x="259.82" y="-494.77" font-family="Helvetica,sans-Serif" font-size="10.00">drake/geometry/proximity</text>
<text text-anchor="middle" x="323.82" y="-483.77" font-family="Helvetica,sans-Serif" font-size="10.00">/sorted_triplet.h</text>
</a>
</g>
</g>
<!-- Node2 -->
<g id="Node000002" class="node">
<title>Node2</title>
<g id="a_Node000002"><a xlink:href="detect__zero__simplex_8h.html" target="_top" xlink:title=" ">
<ellipse fill="white" stroke="#666666" cx="101.82" cy="-413.35" rx="101.65" ry="21.43"/>
<text text-anchor="start" x="37.82" y="-416.35" font-family="Helvetica,sans-Serif" font-size="10.00">drake/geometry/proximity</text>
<text text-anchor="middle" x="101.82" y="-405.35" font-family="Helvetica,sans-Serif" font-size="10.00">/detect_zero_simplex.h</text>
</a>
</g>
</g>
<!-- Node1&#45;&gt;Node2 -->
<g id="edge1_Node000001_Node000002" class="edge">
<title>Node1&#45;&gt;Node2</title>
<g id="a_edge1_Node000001_Node000002"><a xlink:title=" ">
<path fill="none" stroke="#63b8ff" d="M263.61,-470.04C228.87,-458.08 185.66,-443.21 152.64,-431.84"/>
<polygon fill="#63b8ff" stroke="#63b8ff" points="262.58,-473.39 273.17,-473.33 264.85,-466.77 262.58,-473.39"/>
</a>
</g>
</g>
<!-- Node3 -->
<g id="Node000003" class="node">
<title>Node3</title>
<g id="a_Node000003"><a xlink:href="volume__mesh__refiner_8h.html" target="_top" xlink:title=" ">
<ellipse fill="white" stroke="#666666" cx="323.82" cy="-413.35" rx="101.65" ry="21.43"/>
<text text-anchor="start" x="259.82" y="-416.35" font-family="Helvetica,sans-Serif" font-size="10.00">drake/geometry/proximity</text>
<text text-anchor="middle" x="323.82" y="-405.35" font-family="Helvetica,sans-Serif" font-size="10.00">/volume_mesh_refiner.h</text>
</a>
</g>
</g>
<!-- Node1&#45;&gt;Node3 -->
<g id="edge2_Node000001_Node000003" class="edge">
<title>Node1&#45;&gt;Node3</title>
<g id="a_edge2_Node000001_Node000003"><a xlink:title=" ">
<path fill="none" stroke="#63b8ff" d="M323.82,-460.19C323.82,-451.59 323.82,-442.45 323.82,-434.62"/>
<polygon fill="#63b8ff" stroke="#63b8ff" points="320.32,-460.29 323.82,-470.29 327.32,-460.29 320.32,-460.29"/>
</a>
</g>
</g>
<!-- Node4 -->
<g id="Node000004" class="node">
<title>Node4</title>
<g id="a_Node000004"><a xlink:href="volume__mesh__topology_8h.html" target="_top" xlink:title=" ">
<ellipse fill="white" stroke="#666666" cx="545.82" cy="-413.35" rx="101.65" ry="21.43"/>
<text text-anchor="start" x="481.82" y="-416.35" font-family="Helvetica,sans-Serif" font-size="10.00">drake/geometry/proximity</text>
<text text-anchor="middle" x="545.82" y="-405.35" font-family="Helvetica,sans-Serif" font-size="10.00">/volume_mesh_topology.h</text>
</a>
</g>
</g>
<!-- Node1&#45;&gt;Node4 -->
<g id="edge3_Node000001_Node000004" class="edge">
<title>Node1&#45;&gt;Node4</title>
<g id="a_edge3_Node000001_Node000004"><a xlink:title=" ">
<path fill="none" stroke="#63b8ff" d="M384.04,-470.04C418.78,-458.08 461.98,-443.21 495,-431.84"/>
<polygon fill="#63b8ff" stroke="#63b8ff" points="382.79,-466.77 374.48,-473.33 385.07,-473.39 382.79,-466.77"/>
</a>
</g>
</g>
<!-- Node5 -->
<g id="Node000005" class="node">
<title>Node5</title>
<g id="a_Node000005"><a xlink:href="field__intersection_8h.html" target="_top" xlink:title=" ">
<ellipse fill="white" stroke="#666666" cx="404.82" cy="-256.49" rx="101.65" ry="21.43"/>
<text text-anchor="start" x="340.82" y="-259.49" font-family="Helvetica,sans-Serif" font-size="10.00">drake/geometry/proximity</text>
<text text-anchor="middle" x="404.82" y="-248.49" font-family="Helvetica,sans-Serif" font-size="10.00">/field_intersection.h</text>
</a>
</g>
</g>
<!-- Node4&#45;&gt;Node5 -->
<g id="edge4_Node000004_Node000005" class="edge">
<title>Node4&#45;&gt;Node5</title>
<g id="a_edge4_Node000004_Node000005"><a xlink:title=" ">
<path fill="none" stroke="#63b8ff" d="M520.61,-384.65C492.66,-353.96 448.26,-305.2 423.35,-277.83"/>
<polygon fill="#63b8ff" stroke="#63b8ff" points="518.36,-387.38 527.68,-392.42 523.53,-382.67 518.36,-387.38"/>
</a>
</g>
</g>
<!-- Node6 -->
<g id="Node000006" class="node">
<title>Node6</title>
<g id="a_Node000006"><a xlink:href="hydroelastic__internal_8h.html" target="_top" xlink:title=" ">
<ellipse fill="white" stroke="#666666" cx="625.82" cy="-334.92" rx="101.65" ry="21.43"/>
<text text-anchor="start" x="561.82" y="-337.92" font-family="Helvetica,sans-Serif" font-size="10.00">drake/geometry/proximity</text>
<text text-anchor="middle" x="625.82" y="-326.92" font-family="Helvetica,sans-Serif" font-size="10.00">/hydroelastic_internal.h</text>
</a>
</g>
</g>
<!-- Node4&#45;&gt;Node6 -->
<g id="edge5_Node000004_Node000006" class="edge">
<title>Node4&#45;&gt;Node6</title>
<g id="a_edge5_Node000004_Node000006"><a xlink:title=" ">
<path fill="none" stroke="#63b8ff" d="M574.31,-385.13C584.42,-375.48 595.59,-364.8 604.94,-355.86"/>
<polygon fill="#63b8ff" stroke="#63b8ff" points="571.66,-382.83 566.84,-392.27 576.49,-387.89 571.66,-382.83"/>
</a>
</g>
</g>
<!-- Node6&#45;&gt;Node5 -->
<g id="edge12_Node000006_Node000005" class="edge">
<title>Node6&#45;&gt;Node5</title>
<g id="a_edge12_Node000006_Node000005"><a xlink:title=" ">
<path fill="none" stroke="#63b8ff" d="M565.88,-313.19C531.3,-301.23 488.29,-286.36 455.41,-274.99"/>
<polygon fill="#63b8ff" stroke="#63b8ff" points="564.8,-316.52 575.4,-316.48 567.09,-309.9 564.8,-316.52"/>
</a>
</g>
</g>
<!-- Node7 -->
<g id="Node000007" class="node">
<title>Node7</title>
<g id="a_Node000007"><a xlink:href="deformable__contact__geometries_8h.html" target="_top" xlink:title=" ">
<ellipse fill="white" stroke="#666666" cx="656.82" cy="-256.49" rx="132.46" ry="21.43"/>
<text text-anchor="start" x="571.32" y="-259.49" font-family="Helvetica,sans-Serif" font-size="10.00">drake/geometry/proximity</text>
<text text-anchor="middle" x="656.82" y="-248.49" font-family="Helvetica,sans-Serif" font-size="10.00">/deformable_contact_geometries.h</text>
</a>
</g>
</g>
<!-- Node6&#45;&gt;Node7 -->
<g id="edge6_Node000006_Node000007" class="edge">
<title>Node6&#45;&gt;Node7</title>
<g id="a_edge6_Node000006_Node000007"><a xlink:title=" ">
<path fill="none" stroke="#63b8ff" d="M638,-303.9C641.55,-295.14 645.35,-285.77 648.6,-277.76"/>
<polygon fill="#63b8ff" stroke="#63b8ff" points="634.65,-302.86 634.13,-313.44 641.13,-305.49 634.65,-302.86"/>
</a>
</g>
</g>
<!-- Node9 -->
<g id="Node000009" class="node">
<title>Node9</title>
<g id="a_Node000009"><a xlink:href="proximity__engine_8h.html" target="_top" xlink:title=" ">
<ellipse fill="white" stroke="#666666" cx="606.82" cy="-99.64" rx="101.65" ry="21.43"/>
<text text-anchor="start" x="542.82" y="-102.64" font-family="Helvetica,sans-Serif" font-size="10.00">drake/geometry/proximity</text>
<text text-anchor="middle" x="606.82" y="-91.64" font-family="Helvetica,sans-Serif" font-size="10.00">_engine.h</text>
</a>
</g>
</g>
<!-- Node6&#45;&gt;Node9 -->
<g id="edge13_Node000006_Node000009" class="edge">
<title>Node6&#45;&gt;Node9</title>
<g id="a_edge13_Node000006_Node000009"><a xlink:title=" ">
<path fill="none" stroke="#63b8ff" d="M710.71,-318.25C823.34,-293.81 1000.23,-240.57 929.82,-156.85 901.61,-123.31 790.46,-109.78 706.36,-104.33"/>
<polygon fill="#63b8ff" stroke="#63b8ff" points="709.74,-314.87 700.69,-320.38 711.2,-321.72 709.74,-314.87"/>
</a>
</g>
</g>
<!-- Node8 -->
<g id="Node000008" class="node">
<title>Node8</title>
<g id="a_Node000008"><a xlink:href="deformable__contact__internal_8h.html" target="_top" xlink:title=" ">
<ellipse fill="white" stroke="#666666" cx="264.82" cy="-178.07" rx="119.5" ry="21.43"/>
<text text-anchor="start" x="188.32" y="-181.07" font-family="Helvetica,sans-Serif" font-size="10.00">drake/geometry/proximity</text>
<text text-anchor="middle" x="264.82" y="-170.07" font-family="Helvetica,sans-Serif" font-size="10.00">/deformable_contact_internal.h</text>
</a>
</g>
</g>
<!-- Node7&#45;&gt;Node8 -->
<g id="edge7_Node000007_Node000008" class="edge">
<title>Node7&#45;&gt;Node8</title>
<g id="a_edge7_Node000007_Node000008"><a xlink:title=" ">
<path fill="none" stroke="#63b8ff" d="M565.38,-237.66C497.78,-224.48 406.72,-206.73 342.6,-194.23"/>
<polygon fill="#63b8ff" stroke="#63b8ff" points="565.12,-241.18 575.6,-239.66 566.46,-234.31 565.12,-241.18"/>
</a>
</g>
</g>
<!-- Node11 -->
<g id="Node000011" class="node">
<title>Node11</title>
<g id="a_Node000011"><a xlink:href="deformable__field__intersection_8h.html" target="_top" xlink:title=" ">
<ellipse fill="white" stroke="#666666" cx="525.82" cy="-178.07" rx="123.07" ry="21.43"/>
<text text-anchor="start" x="446.82" y="-181.07" font-family="Helvetica,sans-Serif" font-size="10.00">drake/geometry/proximity</text>
<text text-anchor="middle" x="525.82" y="-170.07" font-family="Helvetica,sans-Serif" font-size="10.00">/deformable_field_intersection.h</text>
</a>
</g>
</g>
<!-- Node7&#45;&gt;Node11 -->
<g id="edge10_Node000007_Node000011" class="edge">
<title>Node7&#45;&gt;Node11</title>
<g id="a_edge10_Node000007_Node000011"><a xlink:title=" ">
<path fill="none" stroke="#63b8ff" d="M614.08,-230.56C596.35,-220.21 576.08,-208.39 559.44,-198.68"/>
<polygon fill="#63b8ff" stroke="#63b8ff" points="612.69,-233.79 623.09,-235.81 616.21,-227.75 612.69,-233.79"/>
</a>
</g>
</g>
<!-- Node12 -->
<g id="Node000012" class="node">
<title>Node12</title>
<g id="a_Node000012"><a xlink:href="deformable__mesh__intersection_8h.html" target="_top" xlink:title=" ">
<ellipse fill="white" stroke="#666666" cx="793.82" cy="-178.07" rx="127.06" ry="21.43"/>
<text text-anchor="start" x="711.82" y="-181.07" font-family="Helvetica,sans-Serif" font-size="10.00">drake/geometry/proximity</text>
<text text-anchor="middle" x="793.82" y="-170.07" font-family="Helvetica,sans-Serif" font-size="10.00">/deformable_mesh_intersection.h</text>
</a>
</g>
</g>
<!-- Node7&#45;&gt;Node12 -->
<g id="edge11_Node000007_Node000012" class="edge">
<title>Node7&#45;&gt;Node12</title>
<g id="a_edge11_Node000007_Node000012"><a xlink:title=" ">
<path fill="none" stroke="#63b8ff" d="M700.73,-231C719.57,-220.49 741.26,-208.39 758.96,-198.51"/>
<polygon fill="#63b8ff" stroke="#63b8ff" points="698.78,-228.08 691.75,-236.01 702.19,-234.19 698.78,-228.08"/>
</a>
</g>
</g>
<!-- Node8&#45;&gt;Node9 -->
<g id="edge8_Node000008_Node000009" class="edge">
<title>Node8&#45;&gt;Node9</title>
<g id="a_edge8_Node000008_Node000009"><a xlink:title=" ">
<path fill="none" stroke="#63b8ff" d="M346.55,-158.8C405.54,-145.62 484.22,-128.04 539.58,-115.67"/>
<polygon fill="#63b8ff" stroke="#63b8ff" points="345.51,-155.45 336.52,-161.04 347.04,-162.28 345.51,-155.45"/>
</a>
</g>
</g>
<!-- Node10 -->
<g id="Node000010" class="node">
<title>Node10</title>
<g id="a_Node000010"><a xlink:href="geometry__state_8h.html" target="_top" xlink:title=" ">
<ellipse fill="white" stroke="#666666" cx="606.82" cy="-21.21" rx="101.65" ry="21.43"/>
<text text-anchor="start" x="542.82" y="-24.21" font-family="Helvetica,sans-Serif" font-size="10.00">drake/geometry/geometry</text>
<text text-anchor="middle" x="606.82" y="-13.21" font-family="Helvetica,sans-Serif" font-size="10.00">_state.h</text>
</a>
</g>
</g>
<!-- Node9&#45;&gt;Node10 -->
<g id="edge9_Node000009_Node000010" class="edge">
<title>Node9&#45;&gt;Node10</title>
<g id="a_edge9_Node000009_Node000010"><a xlink:title=" ">
<path fill="none" stroke="#63b8ff" d="M606.82,-68.06C606.82,-59.46 606.82,-50.32 606.82,-42.49"/>
<polygon fill="#63b8ff" stroke="#63b8ff" points="603.32,-68.16 606.82,-78.16 610.32,-68.16 603.32,-68.16"/>
</a>
</g>
</g>
</g>
</svg>

<g id="navigator" transform="translate(0 0)" fill="#404254">
  <rect fill="#f2f5e9" fill-opacity="0.5" stroke="#606060" stroke-width=".5" x="0" y="0" width="60" height="60"/>
  <use id="zoomplus" xlink:href="#zoomPlus" x="17" y="9" onmousedown="handleZoom(evt,'in')"/>
  <use id="zoomminus" xlink:href="#zoomMin" x="42" y="9" onmousedown="handleZoom(evt,'out')"/>
  <use id="reset" xlink:href="#resetDef" x="30" y="36" onmousedown="handleReset()"/>
   <use id="arrowup" xlink:href="#arrowUp" x="0" y="0" onmousedown="handlePan(0,-1)"/>
  <use id="arrowright" xlink:href="#arrowRight" x="0" y="0" onmousedown="handlePan(1,0)"/>
  <use id="arrowdown" xlink:href="#arrowDown" x="0" y="0" onmousedown="handlePan(0,1)"/>
  <use id="arrowleft" xlink:href="#arrowLeft" x="0" y="0" onmousedown="handlePan(-1,0)"/>
</g>
<svg viewBox="0 0 15 15" width="100%" height="30px" preserveAspectRatio="xMaxYMin meet">
 <g id="arrow_out" transform="scale(0.3 0.3)">
  <a xlink:href="sorted__triplet_8h__dep__incl_org.svg" target="_base">
   <rect id="button" ry="5" rx="5" y="6" x="6" height="38" width="38"
        fill="#f2f5e9" fill-opacity="0.5" stroke="#606060" stroke-width="1.0"/>
   <path id="arrow"
     d="M 11.500037,31.436501 C 11.940474,20.09759 22.043105,11.32322 32.158766,21.979434 L 37.068811,17.246167 C 37.068811,17.246167 37.088388,32 37.088388,32 L 22.160133,31.978069 C 22.160133,31.978069 26.997745,27.140456 26.997745,27.140456 C 18.528582,18.264221 13.291696,25.230495 11.500037,31.436501 z"
     style="fill:#404040;"/>
  </a>
 </g>
</svg>

<style type='text/css'>
<![CDATA[
[data-mouse-over-selected='false'] { opacity: 0.7; }
[data-mouse-over-selected='true']  { opacity: 1.0; }
]]>
</style>
<script type="application/ecmascript"><![CDATA[
document.addEventListener('DOMContentLoaded', (event) => {
  highlightEdges();
  highlightAdjacentNodes();
});
]]></script>
</svg>
