<?xml version="1.0" encoding="UTF-8" standalone="no"?>
<!DOCTYPE svg PUBLIC "-//W3C//DTD SVG 1.1//EN"
 "http://www.w3.org/Graphics/SVG/1.1/DTD/svg11.dtd">
<!-- Generated by graphviz version 2.43.0 (0)
 -->
<!-- Title: drake/bindings/pydrake/common/sorted_pair_pybind.h Pages: 1 -->
<svg width="1152pt" height="363pt"
 viewBox="0.00 0.00 1152.00 363.00" xmlns="http://www.w3.org/2000/svg" xmlns:xlink="http://www.w3.org/1999/xlink">
<g id="graph0" class="graph" transform="scale(1 1) rotate(0) translate(4 359)">
<title>drake/bindings/pydrake/common/sorted_pair_pybind.h</title>
<polygon fill="white" stroke="transparent" points="-4,4 -4,-359 1148,-359 1148,4 -4,4"/>
<!-- Node0 -->
<g id="node1" class="node">
<title>Node0</title>
<g id="a_node1"><a xlink:title=" ">
<polygon fill="#bfbfbf" stroke="black" points="67,-324.5 67,-354.5 234,-354.5 234,-324.5 67,-324.5"/>
<text text-anchor="start" x="75" y="-342.5" font-family="Helvetica,sans-Serif" font-size="10.00">drake/bindings/pydrake</text>
<text text-anchor="middle" x="150.5" y="-331.5" font-family="Helvetica,sans-Serif" font-size="10.00">/common/sorted_pair_pybind.h</text>
</a>
</g>
</g>
<!-- Node1 -->
<g id="node2" class="node">
<title>Node1</title>
<g id="a_node2"><a xlink:title=" ">
<polygon fill="white" stroke="#bfbfbf" points="0,-196 0,-215 119,-215 119,-196 0,-196"/>
<text text-anchor="middle" x="59.5" y="-203" font-family="Helvetica,sans-Serif" font-size="10.00">pybind11/pybind11.h</text>
</a>
</g>
</g>
<!-- Node0&#45;&gt;Node1 -->
<g id="edge1" class="edge">
<title>Node0&#45;&gt;Node1</title>
<path fill="none" stroke="midnightblue" d="M119.56,-324.45C104.34,-315.99 87.04,-303.78 76.5,-288 63.92,-269.17 60.37,-242.86 59.51,-225.28"/>
<polygon fill="midnightblue" stroke="midnightblue" points="63.01,-225.07 59.27,-215.15 56.01,-225.24 63.01,-225.07"/>
</g>
<!-- Node2 -->
<g id="node3" class="node">
<title>Node2</title>
<g id="a_node3"><a xlink:href="pydrake__pybind_8h.html" target="_top" xlink:title=" ">
<polygon fill="white" stroke="black" points="85.5,-257.5 85.5,-287.5 215.5,-287.5 215.5,-257.5 85.5,-257.5"/>
<text text-anchor="start" x="93.5" y="-275.5" font-family="Helvetica,sans-Serif" font-size="10.00">drake/bindings/pydrake</text>
<text text-anchor="middle" x="150.5" y="-264.5" font-family="Helvetica,sans-Serif" font-size="10.00">/pydrake_pybind.h</text>
</a>
</g>
</g>
<!-- Node0&#45;&gt;Node2 -->
<g id="edge2" class="edge">
<title>Node0&#45;&gt;Node2</title>
<path fill="none" stroke="midnightblue" d="M150.5,-324.4C150.5,-316.64 150.5,-306.81 150.5,-297.86"/>
<polygon fill="midnightblue" stroke="midnightblue" points="154,-297.58 150.5,-287.58 147,-297.58 154,-297.58"/>
</g>
<!-- Node4 -->
<g id="node5" class="node">
<title>Node4</title>
<g id="a_node5"><a xlink:href="sorted__pair_8h.html" target="_top" xlink:title="Provides drake::MakeSortedPair and drake::SortedPair for storing two values of a certain type in sort...">
<polygon fill="white" stroke="black" points="292,-257.5 292,-287.5 415,-287.5 415,-257.5 292,-257.5"/>
<text text-anchor="start" x="300" y="-275.5" font-family="Helvetica,sans-Serif" font-size="10.00">drake/common/sorted</text>
<text text-anchor="middle" x="353.5" y="-264.5" font-family="Helvetica,sans-Serif" font-size="10.00">_pair.h</text>
</a>
</g>
</g>
<!-- Node0&#45;&gt;Node4 -->
<g id="edge5" class="edge">
<title>Node0&#45;&gt;Node4</title>
<path fill="none" stroke="midnightblue" d="M194.55,-324.4C225.41,-314.52 266.83,-301.25 299.65,-290.74"/>
<polygon fill="midnightblue" stroke="midnightblue" points="301.08,-293.96 309.54,-287.58 298.95,-287.29 301.08,-293.96"/>
</g>
<!-- Node2&#45;&gt;Node1 -->
<g id="edge4" class="edge">
<title>Node2&#45;&gt;Node1</title>
<path fill="none" stroke="midnightblue" d="M130.75,-257.4C115.64,-246.6 94.86,-231.76 79.64,-220.89"/>
<polygon fill="midnightblue" stroke="midnightblue" points="81.58,-217.97 71.41,-215.01 77.51,-223.67 81.58,-217.97"/>
</g>
<!-- Node3 -->
<g id="node4" class="node">
<title>Node3</title>
<g id="a_node4"><a xlink:title=" ">
<polygon fill="white" stroke="#bfbfbf" points="126,-129 126,-148 171,-148 171,-129 126,-129"/>
<text text-anchor="middle" x="148.5" y="-136" font-family="Helvetica,sans-Serif" font-size="10.00">utility</text>
</a>
</g>
</g>
<!-- Node2&#45;&gt;Node3 -->
<g id="edge3" class="edge">
<title>Node2&#45;&gt;Node3</title>
<path fill="none" stroke="midnightblue" d="M150.29,-257.37C149.92,-233.5 149.19,-185.18 148.79,-158.41"/>
<polygon fill="midnightblue" stroke="midnightblue" points="152.28,-158.04 148.63,-148.1 145.28,-158.15 152.28,-158.04"/>
</g>
<!-- Node4&#45;&gt;Node3 -->
<g id="edge10" class="edge">
<title>Node4&#45;&gt;Node3</title>
<path fill="none" stroke="midnightblue" d="M291.71,-259.69C263.42,-252.07 230.67,-239.92 205.5,-221 183.03,-204.1 166.08,-175.73 156.72,-157.31"/>
<polygon fill="midnightblue" stroke="midnightblue" points="159.83,-155.71 152.32,-148.24 153.54,-158.76 159.83,-155.71"/>
</g>
<!-- Node5 -->
<g id="node6" class="node">
<title>Node5</title>
<g id="a_node6"><a xlink:title=" ">
<polygon fill="white" stroke="#bfbfbf" points="214.5,-196 214.5,-215 278.5,-215 278.5,-196 214.5,-196"/>
<text text-anchor="middle" x="246.5" y="-203" font-family="Helvetica,sans-Serif" font-size="10.00">algorithm</text>
</a>
</g>
</g>
<!-- Node4&#45;&gt;Node5 -->
<g id="edge6" class="edge">
<title>Node4&#45;&gt;Node5</title>
<path fill="none" stroke="midnightblue" d="M330.28,-257.4C312.17,-246.39 287.16,-231.2 269.19,-220.28"/>
<polygon fill="midnightblue" stroke="midnightblue" points="270.87,-217.21 260.5,-215.01 267.23,-223.19 270.87,-217.21"/>
</g>
<!-- Node6 -->
<g id="node7" class="node">
<title>Node6</title>
<g id="a_node7"><a xlink:title=" ">
<polygon fill="white" stroke="#bfbfbf" points="189,-129 189,-148 242,-148 242,-129 189,-129"/>
<text text-anchor="middle" x="215.5" y="-136" font-family="Helvetica,sans-Serif" font-size="10.00">cstddef</text>
</a>
</g>
</g>
<!-- Node4&#45;&gt;Node6 -->
<g id="edge7" class="edge">
<title>Node4&#45;&gt;Node6</title>
<path fill="none" stroke="midnightblue" d="M360.42,-257.33C367.89,-239.79 376.9,-209.8 362.5,-190 332,-148.05 300.25,-171.7 251.5,-154 249.6,-153.31 247.65,-152.58 245.69,-151.84"/>
<polygon fill="midnightblue" stroke="midnightblue" points="246.55,-148.42 235.97,-148.03 244,-154.93 246.55,-148.42"/>
</g>
<!-- Node7 -->
<g id="node8" class="node">
<title>Node7</title>
<g id="a_node8"><a xlink:title=" ">
<polygon fill="white" stroke="#bfbfbf" points="297,-196 297,-215 354,-215 354,-196 297,-196"/>
<text text-anchor="middle" x="325.5" y="-203" font-family="Helvetica,sans-Serif" font-size="10.00">ostream</text>
</a>
</g>
</g>
<!-- Node4&#45;&gt;Node7 -->
<g id="edge8" class="edge">
<title>Node4&#45;&gt;Node7</title>
<path fill="none" stroke="midnightblue" d="M347.42,-257.4C343.27,-247.76 337.74,-234.91 333.27,-224.54"/>
<polygon fill="midnightblue" stroke="midnightblue" points="336.42,-222.99 329.25,-215.19 329.99,-225.76 336.42,-222.99"/>
</g>
<!-- Node8 -->
<g id="node9" class="node">
<title>Node8</title>
<g id="a_node9"><a xlink:title=" ">
<polygon fill="white" stroke="#bfbfbf" points="609,-0.5 609,-19.5 678,-19.5 678,-0.5 609,-0.5"/>
<text text-anchor="middle" x="643.5" y="-7.5" font-family="Helvetica,sans-Serif" font-size="10.00">type_traits</text>
</a>
</g>
</g>
<!-- Node4&#45;&gt;Node8 -->
<g id="edge9" class="edge">
<title>Node4&#45;&gt;Node8</title>
<path fill="none" stroke="midnightblue" d="M415.02,-268.24C548.55,-259.74 858.07,-231.89 921.5,-154 989.8,-70.13 783.31,-30.18 688.45,-16.6"/>
<polygon fill="midnightblue" stroke="midnightblue" points="688.66,-13.09 678.28,-15.18 687.7,-20.03 688.66,-13.09"/>
</g>
<!-- Node9 -->
<g id="node10" class="node">
<title>Node9</title>
<g id="a_node10"><a xlink:href="hash_8h.html" target="_top" xlink:title=" ">
<polygon fill="white" stroke="black" points="411,-196 411,-215 536,-215 536,-196 411,-196"/>
<text text-anchor="middle" x="473.5" y="-203" font-family="Helvetica,sans-Serif" font-size="10.00">drake/common/hash.h</text>
</a>
</g>
</g>
<!-- Node4&#45;&gt;Node9 -->
<g id="edge11" class="edge">
<title>Node4&#45;&gt;Node9</title>
<path fill="none" stroke="midnightblue" d="M379.54,-257.4C400.13,-246.24 428.67,-230.78 448.88,-219.83"/>
<polygon fill="midnightblue" stroke="midnightblue" points="450.67,-222.85 457.79,-215.01 447.33,-216.69 450.67,-222.85"/>
</g>
<!-- Node19 -->
<g id="node20" class="node">
<title>Node19</title>
<g id="a_node20"><a xlink:href="is__less__than__comparable_8h.html" target="_top" xlink:title=" ">
<polygon fill="white" stroke="black" points="969,-190.5 969,-220.5 1094,-220.5 1094,-190.5 969,-190.5"/>
<text text-anchor="start" x="977" y="-208.5" font-family="Helvetica,sans-Serif" font-size="10.00">drake/common/is_less</text>
<text text-anchor="middle" x="1031.5" y="-197.5" font-family="Helvetica,sans-Serif" font-size="10.00">_than_comparable.h</text>
</a>
</g>
</g>
<!-- Node4&#45;&gt;Node19 -->
<g id="edge27" class="edge">
<title>Node4&#45;&gt;Node19</title>
<path fill="none" stroke="midnightblue" d="M415.16,-268.41C524.27,-262.47 758.4,-247.63 954.5,-221 955.97,-220.8 957.46,-220.59 958.96,-220.37"/>
<polygon fill="midnightblue" stroke="midnightblue" points="959.62,-223.81 968.97,-218.83 958.56,-216.89 959.62,-223.81"/>
</g>
<!-- Node9&#45;&gt;Node3 -->
<g id="edge20" class="edge">
<title>Node9&#45;&gt;Node3</title>
<path fill="none" stroke="midnightblue" d="M412.4,-195.97C339.42,-185.43 221.88,-167.29 179.5,-154 177.63,-153.41 175.73,-152.74 173.83,-152"/>
<polygon fill="midnightblue" stroke="midnightblue" points="175.15,-148.76 164.58,-148.02 172.38,-155.19 175.15,-148.76"/>
</g>
<!-- Node9&#45;&gt;Node6 -->
<g id="edge13" class="edge">
<title>Node9&#45;&gt;Node6</title>
<path fill="none" stroke="midnightblue" d="M432.2,-195.93C377.7,-184.48 284.79,-164.42 251.5,-154 249.22,-153.29 246.88,-152.49 244.55,-151.66"/>
<polygon fill="midnightblue" stroke="midnightblue" points="245.69,-148.35 235.1,-148.05 243.2,-154.89 245.69,-148.35"/>
</g>
<!-- Node9&#45;&gt;Node8 -->
<g id="edge19" class="edge">
<title>Node9&#45;&gt;Node8</title>
<path fill="none" stroke="midnightblue" d="M471.26,-195.9C465.33,-171 451.93,-97.93 486.5,-56 513.42,-23.34 562.33,-13.47 598.42,-10.91"/>
<polygon fill="midnightblue" stroke="midnightblue" points="598.91,-14.39 608.71,-10.36 598.53,-7.4 598.91,-14.39"/>
</g>
<!-- Node10 -->
<g id="node11" class="node">
<title>Node10</title>
<g id="a_node11"><a xlink:title=" ">
<polygon fill="white" stroke="#bfbfbf" points="652,-129 652,-148 699,-148 699,-129 652,-129"/>
<text text-anchor="middle" x="675.5" y="-136" font-family="Helvetica,sans-Serif" font-size="10.00">cmath</text>
</a>
</g>
</g>
<!-- Node9&#45;&gt;Node10 -->
<g id="edge12" class="edge">
<title>Node9&#45;&gt;Node10</title>
<path fill="none" stroke="midnightblue" d="M506.29,-196C540.63,-186.79 595.94,-171.11 642.5,-154 644.16,-153.39 645.85,-152.74 647.55,-152.07"/>
<polygon fill="midnightblue" stroke="midnightblue" points="649.29,-155.13 657.16,-148.04 646.59,-148.67 649.29,-155.13"/>
</g>
<!-- Node11 -->
<g id="node12" class="node">
<title>Node11</title>
<g id="a_node12"><a xlink:title=" ">
<polygon fill="white" stroke="#bfbfbf" points="717,-129 717,-148 782,-148 782,-129 717,-129"/>
<text text-anchor="middle" x="749.5" y="-136" font-family="Helvetica,sans-Serif" font-size="10.00">functional</text>
</a>
</g>
</g>
<!-- Node9&#45;&gt;Node11 -->
<g id="edge14" class="edge">
<title>Node9&#45;&gt;Node11</title>
<path fill="none" stroke="midnightblue" d="M520.97,-195.99C568.53,-187.05 643.66,-171.84 707.5,-154 710.45,-153.18 713.5,-152.26 716.54,-151.3"/>
<polygon fill="midnightblue" stroke="midnightblue" points="717.71,-154.59 726.11,-148.13 715.52,-147.95 717.71,-154.59"/>
</g>
<!-- Node12 -->
<g id="node13" class="node">
<title>Node12</title>
<g id="a_node13"><a xlink:title=" ">
<polygon fill="white" stroke="#bfbfbf" points="800.5,-129 800.5,-148 838.5,-148 838.5,-129 800.5,-129"/>
<text text-anchor="middle" x="819.5" y="-136" font-family="Helvetica,sans-Serif" font-size="10.00">map</text>
</a>
</g>
</g>
<!-- Node9&#45;&gt;Node12 -->
<g id="edge15" class="edge">
<title>Node9&#45;&gt;Node12</title>
<path fill="none" stroke="midnightblue" d="M536.17,-200.19C601.08,-194.42 704.81,-181.53 790.5,-154 792.12,-153.48 793.76,-152.88 795.4,-152.23"/>
<polygon fill="midnightblue" stroke="midnightblue" points="796.86,-155.41 804.52,-148.08 793.97,-149.03 796.86,-155.41"/>
</g>
<!-- Node13 -->
<g id="node14" class="node">
<title>Node13</title>
<g id="a_node14"><a xlink:title=" ">
<polygon fill="white" stroke="#bfbfbf" points="856.5,-129 856.5,-148 912.5,-148 912.5,-129 856.5,-129"/>
<text text-anchor="middle" x="884.5" y="-136" font-family="Helvetica,sans-Serif" font-size="10.00">optional</text>
</a>
</g>
</g>
<!-- Node9&#45;&gt;Node13 -->
<g id="edge16" class="edge">
<title>Node9&#45;&gt;Node13</title>
<path fill="none" stroke="midnightblue" d="M536.26,-200.63C611.28,-194.95 740.16,-181.85 847.5,-154 850.16,-153.31 852.89,-152.48 855.61,-151.58"/>
<polygon fill="midnightblue" stroke="midnightblue" points="857.01,-154.79 865.2,-148.07 854.61,-148.22 857.01,-154.79"/>
</g>
<!-- Node14 -->
<g id="node15" class="node">
<title>Node14</title>
<g id="a_node15"><a xlink:title=" ">
<polygon fill="white" stroke="#bfbfbf" points="260.5,-129 260.5,-148 292.5,-148 292.5,-129 260.5,-129"/>
<text text-anchor="middle" x="276.5" y="-136" font-family="Helvetica,sans-Serif" font-size="10.00">set</text>
</a>
</g>
</g>
<!-- Node9&#45;&gt;Node14 -->
<g id="edge17" class="edge">
<title>Node9&#45;&gt;Node14</title>
<path fill="none" stroke="midnightblue" d="M434.66,-195.93C399.18,-187.44 345.68,-172.97 301.5,-154 300.65,-153.64 299.8,-153.25 298.94,-152.85"/>
<polygon fill="midnightblue" stroke="midnightblue" points="300.42,-149.67 289.95,-148.09 297.15,-155.86 300.42,-149.67"/>
</g>
<!-- Node15 -->
<g id="node16" class="node">
<title>Node15</title>
<g id="a_node16"><a xlink:title=" ">
<polygon fill="white" stroke="#bfbfbf" points="310.5,-129 310.5,-148 354.5,-148 354.5,-129 310.5,-129"/>
<text text-anchor="middle" x="332.5" y="-136" font-family="Helvetica,sans-Serif" font-size="10.00">string</text>
</a>
</g>
</g>
<!-- Node9&#45;&gt;Node15 -->
<g id="edge18" class="edge">
<title>Node9&#45;&gt;Node15</title>
<path fill="none" stroke="midnightblue" d="M454.8,-195.96C432.89,-185.95 395.53,-168.84 363.5,-154 362.35,-153.47 361.17,-152.92 359.98,-152.37"/>
<polygon fill="midnightblue" stroke="midnightblue" points="361.39,-149.16 350.85,-148.11 358.43,-155.51 361.39,-149.16"/>
</g>
<!-- Node16 -->
<g id="node17" class="node">
<title>Node16</title>
<g id="a_node17"><a xlink:title=" ">
<polygon fill="white" stroke="#bfbfbf" points="373,-129 373,-148 420,-148 420,-129 373,-129"/>
<text text-anchor="middle" x="396.5" y="-136" font-family="Helvetica,sans-Serif" font-size="10.00">vector</text>
</a>
</g>
</g>
<!-- Node9&#45;&gt;Node16 -->
<g id="edge21" class="edge">
<title>Node9&#45;&gt;Node16</title>
<path fill="none" stroke="midnightblue" d="M463.12,-195.73C450.65,-185.21 429.53,-167.38 414.41,-154.62"/>
<polygon fill="midnightblue" stroke="midnightblue" points="416.62,-151.9 406.72,-148.13 412.1,-157.25 416.62,-151.9"/>
</g>
<!-- Node17 -->
<g id="node18" class="node">
<title>Node17</title>
<g id="a_node18"><a xlink:href="drake__assert_8h.html" target="_top" xlink:title="Provides Drake&#39;s assertion implementation.">
<polygon fill="white" stroke="black" points="496,-56.5 496,-86.5 615,-86.5 615,-56.5 496,-56.5"/>
<text text-anchor="start" x="504" y="-74.5" font-family="Helvetica,sans-Serif" font-size="10.00">drake/common/drake</text>
<text text-anchor="middle" x="555.5" y="-63.5" font-family="Helvetica,sans-Serif" font-size="10.00">_assert.h</text>
</a>
</g>
</g>
<!-- Node9&#45;&gt;Node17 -->
<g id="edge22" class="edge">
<title>Node9&#45;&gt;Node17</title>
<path fill="none" stroke="midnightblue" d="M475.64,-195.87C479.75,-180.37 489.74,-147.2 505.5,-123 512.48,-112.29 522,-101.97 530.87,-93.49"/>
<polygon fill="midnightblue" stroke="midnightblue" points="533.42,-95.89 538.4,-86.54 528.68,-90.74 533.42,-95.89"/>
</g>
<!-- Node18 -->
<g id="node19" class="node">
<title>Node18</title>
<g id="a_node19"><a xlink:href="drake__throw_8h.html" target="_top" xlink:title="Provides a convenient wrapper to throw an exception when a condition is unmet.">
<polygon fill="white" stroke="black" points="515,-123.5 515,-153.5 634,-153.5 634,-123.5 515,-123.5"/>
<text text-anchor="start" x="523" y="-141.5" font-family="Helvetica,sans-Serif" font-size="10.00">drake/common/drake</text>
<text text-anchor="middle" x="574.5" y="-130.5" font-family="Helvetica,sans-Serif" font-size="10.00">_throw.h</text>
</a>
</g>
</g>
<!-- Node9&#45;&gt;Node18 -->
<g id="edge24" class="edge">
<title>Node9&#45;&gt;Node18</title>
<path fill="none" stroke="midnightblue" d="M487.12,-195.73C501.62,-186.4 525.05,-171.32 544,-159.13"/>
<polygon fill="midnightblue" stroke="midnightblue" points="546.09,-161.94 552.61,-153.59 542.3,-156.06 546.09,-161.94"/>
</g>
<!-- Node17&#45;&gt;Node8 -->
<g id="edge23" class="edge">
<title>Node17&#45;&gt;Node8</title>
<path fill="none" stroke="midnightblue" d="M576.35,-56.4C590.2,-47.04 608.31,-34.79 622.24,-25.38"/>
<polygon fill="midnightblue" stroke="midnightblue" points="624.37,-28.16 630.7,-19.66 620.45,-22.36 624.37,-28.16"/>
</g>
<!-- Node18&#45;&gt;Node8 -->
<g id="edge25" class="edge">
<title>Node18&#45;&gt;Node8</title>
<path fill="none" stroke="midnightblue" d="M592.27,-123.32C602.79,-114.03 615.57,-101.04 623.5,-87 633.64,-69.02 638.78,-45.75 641.29,-29.72"/>
<polygon fill="midnightblue" stroke="midnightblue" points="644.8,-29.89 642.68,-19.51 637.86,-28.94 644.8,-29.89"/>
</g>
<!-- Node18&#45;&gt;Node17 -->
<g id="edge26" class="edge">
<title>Node18&#45;&gt;Node17</title>
<path fill="none" stroke="midnightblue" d="M570.38,-123.4C568.06,-115.47 565.11,-105.38 562.45,-96.27"/>
<polygon fill="midnightblue" stroke="midnightblue" points="565.78,-95.19 559.61,-86.58 559.06,-97.16 565.78,-95.19"/>
</g>
<!-- Node19&#45;&gt;Node8 -->
<g id="edge28" class="edge">
<title>Node19&#45;&gt;Node8</title>
<path fill="none" stroke="midnightblue" d="M1020.97,-190.35C1013.86,-180.46 1004.53,-166.78 997.5,-154 974.57,-112.33 992.35,-84.8 954.5,-56 913.55,-24.84 764.1,-15.17 688.27,-12.24"/>
<polygon fill="midnightblue" stroke="midnightblue" points="688.2,-8.73 678.08,-11.86 687.95,-15.73 688.2,-8.73"/>
</g>
<!-- Node20 -->
<g id="node21" class="node">
<title>Node20</title>
<g id="a_node21"><a xlink:href="unused_8h.html" target="_top" xlink:title=" ">
<polygon fill="white" stroke="black" points="1007,-129 1007,-148 1144,-148 1144,-129 1007,-129"/>
<text text-anchor="middle" x="1075.5" y="-136" font-family="Helvetica,sans-Serif" font-size="10.00">drake/common/unused.h</text>
</a>
</g>
</g>
<!-- Node19&#45;&gt;Node20 -->
<g id="edge29" class="edge">
<title>Node19&#45;&gt;Node20</title>
<path fill="none" stroke="midnightblue" d="M1041.05,-190.4C1047.77,-180.46 1056.81,-167.11 1063.94,-156.57"/>
<polygon fill="midnightblue" stroke="midnightblue" points="1066.91,-158.44 1069.61,-148.19 1061.11,-154.51 1066.91,-158.44"/>
</g>
</g>
</svg>
