<?xml version="1.0" encoding="UTF-8" standalone="no"?>
<!DOCTYPE svg PUBLIC "-//W3C//DTD SVG 1.1//EN"
 "http://www.w3.org/Graphics/SVG/1.1/DTD/svg11.dtd">
<!-- Generated by graphviz version 2.40.1 (20161225.0304)
 -->
<!-- Title: drake/systems/analysis/test_utilities/spring_mass_system.h Pages: 1 -->
<svg width="543pt" height="284pt"
 viewBox="0.00 0.00 542.50 284.00" xmlns="http://www.w3.org/2000/svg" xmlns:xlink="http://www.w3.org/1999/xlink">
<g id="graph0" class="graph" transform="scale(1 1) rotate(0) translate(4 280)">
<title>drake/systems/analysis/test_utilities/spring_mass_system.h</title>
<polygon fill="#ffffff" stroke="transparent" points="-4,4 -4,-280 538.5,-280 538.5,4 -4,4"/>
<!-- Node120 -->
<g id="node1" class="node">
<title>Node120</title>
<g id="a_node1"><a xlink:title=" ">
<polygon fill="#bfbfbf" stroke="#000000" points="206,-234.5 206,-275.5 338,-275.5 338,-234.5 206,-234.5"/>
<text text-anchor="start" x="214" y="-263.5" font-family="Helvetica,sans-Serif" font-size="10.00" fill="#000000">drake/systems/analysis</text>
<text text-anchor="start" x="214" y="-252.5" font-family="Helvetica,sans-Serif" font-size="10.00" fill="#000000">/test_utilities/spring</text>
<text text-anchor="middle" x="272" y="-241.5" font-family="Helvetica,sans-Serif" font-size="10.00" fill="#000000">_mass_system.h</text>
</a>
</g>
</g>
<!-- Node121 -->
<g id="node2" class="node">
<title>Node121</title>
<g id="a_node2"><a xlink:href="controlled__spring__mass__system_8h.html" target="_top" xlink:title=" ">
<polygon fill="#ffffff" stroke="#000000" points="0,-156.5 0,-197.5 134,-197.5 134,-156.5 0,-156.5"/>
<text text-anchor="start" x="8" y="-185.5" font-family="Helvetica,sans-Serif" font-size="10.00" fill="#000000">drake/systems/analysis</text>
<text text-anchor="start" x="8" y="-174.5" font-family="Helvetica,sans-Serif" font-size="10.00" fill="#000000">/test_utilities/controlled</text>
<text text-anchor="middle" x="67" y="-163.5" font-family="Helvetica,sans-Serif" font-size="10.00" fill="#000000">_spring_mass_system.h</text>
</a>
</g>
</g>
<!-- Node120&#45;&gt;Node121 -->
<g id="edge1" class="edge">
<title>Node120&#45;&gt;Node121</title>
<path fill="none" stroke="#191970" d="M208.1911,-230.7215C180.2487,-220.0897 147.8101,-207.7473 121.0771,-197.5757"/>
<polygon fill="#191970" stroke="#191970" points="207.2795,-234.1194 217.8705,-234.4044 209.7689,-227.577 207.2795,-234.1194"/>
</g>
<!-- Node122 -->
<g id="node3" class="node">
<title>Node122</title>
<g id="a_node3"><a xlink:href="spring__mass__damper__system_8h.html" target="_top" xlink:title=" ">
<polygon fill="#ffffff" stroke="#000000" points="152.5,-156.5 152.5,-197.5 293.5,-197.5 293.5,-156.5 152.5,-156.5"/>
<text text-anchor="start" x="160.5" y="-185.5" font-family="Helvetica,sans-Serif" font-size="10.00" fill="#000000">drake/systems/analysis</text>
<text text-anchor="start" x="160.5" y="-174.5" font-family="Helvetica,sans-Serif" font-size="10.00" fill="#000000">/test_utilities/spring</text>
<text text-anchor="middle" x="223" y="-163.5" font-family="Helvetica,sans-Serif" font-size="10.00" fill="#000000">_mass_damper_system.h</text>
</a>
</g>
</g>
<!-- Node120&#45;&gt;Node122 -->
<g id="edge2" class="edge">
<title>Node120&#45;&gt;Node122</title>
<path fill="none" stroke="#191970" d="M253.4793,-225.5181C247.6559,-216.2482 241.3525,-206.2141 235.9974,-197.6898"/>
<polygon fill="#191970" stroke="#191970" points="250.5856,-227.4915 258.8689,-234.0974 256.5131,-223.7678 250.5856,-227.4915"/>
</g>
<!-- Node124 -->
<g id="node5" class="node">
<title>Node124</title>
<g id="a_node5"><a xlink:href="implicit__integrator__test_8h.html" target="_top" xlink:title=" ">
<polygon fill="#ffffff" stroke="#000000" points="218,-.5 218,-41.5 350,-41.5 350,-.5 218,-.5"/>
<text text-anchor="start" x="226" y="-29.5" font-family="Helvetica,sans-Serif" font-size="10.00" fill="#000000">drake/systems/analysis</text>
<text text-anchor="start" x="226" y="-18.5" font-family="Helvetica,sans-Serif" font-size="10.00" fill="#000000">/test_utilities/implicit</text>
<text text-anchor="middle" x="284" y="-7.5" font-family="Helvetica,sans-Serif" font-size="10.00" fill="#000000">_integrator_test.h</text>
</a>
</g>
</g>
<!-- Node120&#45;&gt;Node124 -->
<g id="edge8" class="edge">
<title>Node120&#45;&gt;Node124</title>
<path fill="none" stroke="#191970" d="M291.5899,-225.591C296.2646,-217.0473 300.5939,-207.4603 303,-198 317.0933,-142.5886 300.895,-74.8289 290.8259,-41.5057"/>
<polygon fill="#191970" stroke="#191970" points="288.4689,-223.9952 286.4564,-234.3972 294.5164,-227.5206 288.4689,-223.9952"/>
</g>
<!-- Node125 -->
<g id="node6" class="node">
<title>Node125</title>
<g id="a_node6"><a xlink:href="my__spring__mass__system_8h.html" target="_top" xlink:title=" ">
<polygon fill="#ffffff" stroke="#000000" points="363,-156.5 363,-197.5 497,-197.5 497,-156.5 363,-156.5"/>
<text text-anchor="start" x="371" y="-185.5" font-family="Helvetica,sans-Serif" font-size="10.00" fill="#000000">drake/systems/analysis</text>
<text text-anchor="start" x="371" y="-174.5" font-family="Helvetica,sans-Serif" font-size="10.00" fill="#000000">/test_utilities/my_spring</text>
<text text-anchor="middle" x="430" y="-163.5" font-family="Helvetica,sans-Serif" font-size="10.00" fill="#000000">_mass_system.h</text>
</a>
</g>
</g>
<!-- Node120&#45;&gt;Node125 -->
<g id="edge6" class="edge">
<title>Node120&#45;&gt;Node125</title>
<path fill="none" stroke="#191970" d="M323.0835,-229.7816C344.2156,-219.3493 368.406,-207.4072 388.426,-197.5239"/>
<polygon fill="#191970" stroke="#191970" points="321.3438,-226.7371 313.9263,-234.3022 324.4425,-233.0139 321.3438,-226.7371"/>
</g>
<!-- Node123 -->
<g id="node4" class="node">
<title>Node123</title>
<g id="a_node4"><a xlink:href="discontinuous__spring__mass__damper__system_8h.html" target="_top" xlink:title=" ">
<polygon fill="#ffffff" stroke="#000000" points="80,-78.5 80,-119.5 256,-119.5 256,-78.5 80,-78.5"/>
<text text-anchor="start" x="88" y="-107.5" font-family="Helvetica,sans-Serif" font-size="10.00" fill="#000000">drake/systems/analysis</text>
<text text-anchor="start" x="88" y="-96.5" font-family="Helvetica,sans-Serif" font-size="10.00" fill="#000000">/test_utilities/discontinuous</text>
<text text-anchor="middle" x="168" y="-85.5" font-family="Helvetica,sans-Serif" font-size="10.00" fill="#000000">_spring_mass_damper_system.h</text>
</a>
</g>
</g>
<!-- Node122&#45;&gt;Node123 -->
<g id="edge3" class="edge">
<title>Node122&#45;&gt;Node123</title>
<path fill="none" stroke="#191970" d="M202.4135,-147.8046C195.821,-138.4552 188.6617,-128.302 182.589,-119.6898"/>
<polygon fill="#191970" stroke="#191970" points="199.6378,-149.9418 208.261,-156.0974 205.3587,-145.9079 199.6378,-149.9418"/>
</g>
<!-- Node122&#45;&gt;Node124 -->
<g id="edge5" class="edge">
<title>Node122&#45;&gt;Node124</title>
<path fill="none" stroke="#191970" d="M247.7773,-148.5751C254.2522,-139.8913 260.6325,-129.9853 265,-120 276.2214,-94.3449 280.8379,-62.0868 282.7223,-41.501"/>
<polygon fill="#191970" stroke="#191970" points="244.9947,-146.4518 241.6031,-156.4891 250.5138,-150.7577 244.9947,-146.4518"/>
</g>
<!-- Node123&#45;&gt;Node124 -->
<g id="edge4" class="edge">
<title>Node123&#45;&gt;Node124</title>
<path fill="none" stroke="#191970" d="M207.3934,-72.5113C222.4476,-62.3887 239.3723,-51.0083 253.4773,-41.5239"/>
<polygon fill="#191970" stroke="#191970" points="205.1268,-69.8177 198.7813,-78.3022 209.0328,-75.6267 205.1268,-69.8177"/>
</g>
<!-- Node126 -->
<g id="node7" class="node">
<title>Node126</title>
<g id="a_node7"><a xlink:href="explicit__error__controlled__integrator__test_8h.html" target="_top" xlink:title=" ">
<polygon fill="#ffffff" stroke="#000000" points="349.5,-78.5 349.5,-119.5 534.5,-119.5 534.5,-78.5 349.5,-78.5"/>
<text text-anchor="start" x="357.5" y="-107.5" font-family="Helvetica,sans-Serif" font-size="10.00" fill="#000000">drake/systems/analysis</text>
<text text-anchor="start" x="357.5" y="-96.5" font-family="Helvetica,sans-Serif" font-size="10.00" fill="#000000">/test_utilities/explicit</text>
<text text-anchor="middle" x="442" y="-85.5" font-family="Helvetica,sans-Serif" font-size="10.00" fill="#000000">_error_controlled_integrator_test.h</text>
</a>
</g>
</g>
<!-- Node125&#45;&gt;Node126 -->
<g id="edge7" class="edge">
<title>Node125&#45;&gt;Node126</title>
<path fill="none" stroke="#191970" d="M434.7571,-146.0789C436.1203,-137.2178 437.5731,-127.7747 438.817,-119.6898"/>
<polygon fill="#191970" stroke="#191970" points="431.2771,-145.6815 433.2158,-156.0974 438.1957,-146.7459 431.2771,-145.6815"/>
</g>
</g>
</svg>
