<?xml version="1.0" encoding="UTF-8" standalone="no"?>
<!DOCTYPE svg PUBLIC "-//W3C//DTD SVG 1.1//EN"
 "http://www.w3.org/Graphics/SVG/1.1/DTD/svg11.dtd">
<!-- Generated by graphviz version 2.43.0 (0)
 -->
<!-- Title: drake/systems/controllers/state_feedback_controller_interface.h Pages: 1 -->
<svg width="627pt" height="206pt"
 viewBox="0.00 0.00 627.00 206.00" xmlns="http://www.w3.org/2000/svg" xmlns:xlink="http://www.w3.org/1999/xlink">
<g id="graph0" class="graph" transform="scale(1 1) rotate(0) translate(4 202)">
<title>drake/systems/controllers/state_feedback_controller_interface.h</title>
<polygon fill="white" stroke="transparent" points="-4,4 -4,-202 623,-202 623,4 -4,4"/>
<!-- Node92 -->
<g id="node1" class="node">
<title>Node92</title>
<g id="a_node1"><a xlink:title=" ">
<polygon fill="#bfbfbf" stroke="black" points="226.5,-156.5 226.5,-197.5 372.5,-197.5 372.5,-156.5 226.5,-156.5"/>
<text text-anchor="start" x="234.5" y="-185.5" font-family="Helvetica,sans-Serif" font-size="10.00">drake/systems/controllers</text>
<text text-anchor="start" x="234.5" y="-174.5" font-family="Helvetica,sans-Serif" font-size="10.00">/state_feedback_controller</text>
<text text-anchor="middle" x="299.5" y="-163.5" font-family="Helvetica,sans-Serif" font-size="10.00">_interface.h</text>
</a>
</g>
</g>
<!-- Node93 -->
<g id="node2" class="node">
<title>Node93</title>
<g id="a_node2"><a xlink:href="kuka__torque__controller_8h.html" target="_top" xlink:title=" ">
<polygon fill="white" stroke="black" points="0,-78.5 0,-119.5 131,-119.5 131,-78.5 0,-78.5"/>
<text text-anchor="start" x="8" y="-107.5" font-family="Helvetica,sans-Serif" font-size="10.00">drake/examples/kuka</text>
<text text-anchor="start" x="8" y="-96.5" font-family="Helvetica,sans-Serif" font-size="10.00">_iiwa_arm/kuka_torque</text>
<text text-anchor="middle" x="65.5" y="-85.5" font-family="Helvetica,sans-Serif" font-size="10.00">_controller.h</text>
</a>
</g>
</g>
<!-- Node92&#45;&gt;Node93 -->
<g id="edge1" class="edge">
<title>Node92&#45;&gt;Node93</title>
<path fill="none" stroke="midnightblue" d="M229.62,-153.3C196.5,-142.55 157.32,-129.82 125.56,-119.51"/>
<polygon fill="midnightblue" stroke="midnightblue" points="228.65,-156.67 239.24,-156.43 230.81,-150.01 228.65,-156.67"/>
</g>
<!-- Node94 -->
<g id="node3" class="node">
<title>Node94</title>
<g id="a_node3"><a xlink:href="schunk__wsg__plain__controller_8h.html" target="_top" xlink:title=" ">
<polygon fill="white" stroke="black" points="149,-78.5 149,-119.5 290,-119.5 290,-78.5 149,-78.5"/>
<text text-anchor="start" x="157" y="-107.5" font-family="Helvetica,sans-Serif" font-size="10.00">drake/manipulation</text>
<text text-anchor="start" x="157" y="-96.5" font-family="Helvetica,sans-Serif" font-size="10.00">/schunk_wsg/schunk_wsg</text>
<text text-anchor="middle" x="219.5" y="-85.5" font-family="Helvetica,sans-Serif" font-size="10.00">_plain_controller.h</text>
</a>
</g>
</g>
<!-- Node92&#45;&gt;Node94 -->
<g id="edge2" class="edge">
<title>Node92&#45;&gt;Node94</title>
<path fill="none" stroke="midnightblue" d="M271.6,-149.49C261.22,-139.63 249.63,-128.63 240.03,-119.51"/>
<polygon fill="midnightblue" stroke="midnightblue" points="269.24,-152.08 278.9,-156.43 274.06,-147 269.24,-152.08"/>
</g>
<!-- Node95 -->
<g id="node4" class="node">
<title>Node95</title>
<g id="a_node4"><a xlink:href="pid__controller_8h.html" target="_top" xlink:title=" ">
<polygon fill="white" stroke="black" points="308,-84 308,-114 451,-114 451,-84 308,-84"/>
<text text-anchor="start" x="316" y="-102" font-family="Helvetica,sans-Serif" font-size="10.00">drake/systems/controllers</text>
<text text-anchor="middle" x="379.5" y="-91" font-family="Helvetica,sans-Serif" font-size="10.00">/pid_controller.h</text>
</a>
</g>
</g>
<!-- Node92&#45;&gt;Node95 -->
<g id="edge3" class="edge">
<title>Node92&#45;&gt;Node95</title>
<path fill="none" stroke="midnightblue" d="M327.58,-149.32C340.02,-137.51 354.15,-124.08 364.53,-114.23"/>
<polygon fill="midnightblue" stroke="midnightblue" points="324.94,-147 320.1,-156.43 329.76,-152.08 324.94,-147"/>
</g>
<!-- Node97 -->
<g id="node6" class="node">
<title>Node97</title>
<g id="a_node6"><a xlink:href="inverse__dynamics__controller_8h.html" target="_top" xlink:title=" ">
<polygon fill="white" stroke="black" points="450,-6 450,-36 619,-36 619,-6 450,-6"/>
<text text-anchor="start" x="458" y="-24" font-family="Helvetica,sans-Serif" font-size="10.00">drake/systems/controllers</text>
<text text-anchor="middle" x="534.5" y="-13" font-family="Helvetica,sans-Serif" font-size="10.00">/inverse_dynamics_controller.h</text>
</a>
</g>
</g>
<!-- Node92&#45;&gt;Node97 -->
<g id="edge7" class="edge">
<title>Node92&#45;&gt;Node97</title>
<path fill="none" stroke="midnightblue" d="M382.49,-157.37C409.04,-148.83 437.49,-136.76 460.5,-120 491.87,-97.16 516.04,-57.26 527.39,-36.11"/>
<polygon fill="midnightblue" stroke="midnightblue" points="381.33,-154.06 372.81,-160.36 383.39,-160.75 381.33,-154.06"/>
</g>
<!-- Node96 -->
<g id="node5" class="node">
<title>Node96</title>
<g id="a_node5"><a xlink:href="controlled__spring__mass__system_8h.html" target="_top" xlink:title=" ">
<polygon fill="white" stroke="black" points="136.5,-0.5 136.5,-41.5 270.5,-41.5 270.5,-0.5 136.5,-0.5"/>
<text text-anchor="start" x="144.5" y="-29.5" font-family="Helvetica,sans-Serif" font-size="10.00">drake/systems/analysis</text>
<text text-anchor="start" x="144.5" y="-18.5" font-family="Helvetica,sans-Serif" font-size="10.00">/test_utilities/controlled</text>
<text text-anchor="middle" x="203.5" y="-7.5" font-family="Helvetica,sans-Serif" font-size="10.00">_spring_mass_system.h</text>
</a>
</g>
</g>
<!-- Node95&#45;&gt;Node96 -->
<g id="edge4" class="edge">
<title>Node95&#45;&gt;Node96</title>
<path fill="none" stroke="midnightblue" d="M337.36,-79.81C310.7,-68.29 276.23,-53.41 248.95,-41.63"/>
<polygon fill="midnightblue" stroke="midnightblue" points="336.24,-83.13 346.81,-83.88 339.02,-76.71 336.24,-83.13"/>
</g>
<!-- Node95&#45;&gt;Node97 -->
<g id="edge5" class="edge">
<title>Node95&#45;&gt;Node97</title>
<path fill="none" stroke="midnightblue" d="M417.54,-79.35C444.82,-65.97 481.01,-48.23 505.86,-36.04"/>
<polygon fill="midnightblue" stroke="midnightblue" points="415.73,-76.34 408.29,-83.88 418.81,-82.62 415.73,-76.34"/>
</g>
<!-- Node98 -->
<g id="node7" class="node">
<title>Node98</title>
<g id="a_node7"><a xlink:href="pid__controlled__system_8h.html" target="_top" xlink:title=" ">
<polygon fill="white" stroke="black" points="289,-6 289,-36 432,-36 432,-6 289,-6"/>
<text text-anchor="start" x="297" y="-24" font-family="Helvetica,sans-Serif" font-size="10.00">drake/systems/controllers</text>
<text text-anchor="middle" x="360.5" y="-13" font-family="Helvetica,sans-Serif" font-size="10.00">/pid_controlled_system.h</text>
</a>
</g>
</g>
<!-- Node95&#45;&gt;Node98 -->
<g id="edge6" class="edge">
<title>Node95&#45;&gt;Node98</title>
<path fill="none" stroke="midnightblue" d="M373.49,-73.96C370.39,-61.55 366.71,-46.83 364.06,-36.23"/>
<polygon fill="midnightblue" stroke="midnightblue" points="370.11,-74.85 375.93,-83.7 376.9,-73.15 370.11,-74.85"/>
</g>
</g>
</svg>
