<?xml version="1.0" encoding="UTF-8" standalone="no"?>
<!DOCTYPE svg PUBLIC "-//W3C//DTD SVG 1.1//EN"
 "http://www.w3.org/Graphics/SVG/1.1/DTD/svg11.dtd">
<!-- Generated by graphviz version 2.43.0 (0)
 -->
<!-- Title: drake/common/string_unordered_set.h Pages: 1 -->
<!--zoomable 441 -->
<svg id="main" version="1.1" xmlns="http://www.w3.org/2000/svg" xmlns:xlink="http://www.w3.org/1999/xlink" xml:space="preserve" onload="init(evt)">
<style type="text/css"><![CDATA[
.edge:hover path { stroke: red; }
.edge:hover polygon { stroke: red; fill: red; }
]]></style>
<script type="text/javascript"><![CDATA[
var edges = document.getElementsByTagName('g');
if (edges && edges.length) {
  for (var i=0;i<edges.length;i++) {
    if (edges[i].id.substr(0,4)=='edge') {
      edges[i].setAttribute('class','edge');
    }
  }
}
]]></script>
        <defs>
                <circle id="rim" cx="0" cy="0" r="7"/>
                <circle id="rim2" cx="0" cy="0" r="3.5"/>
                <g id="zoomPlus">
                        <use xlink:href="#rim" fill="#404040">
                                <set attributeName="fill" to="#808080" begin="zoomplus.mouseover" end="zoomplus.mouseout"/>
                        </use>
                        <path d="M-4,0h8M0,-4v8" fill="none" stroke="white" stroke-width="1.5" pointer-events="none"/>
                </g>
                <g id="zoomMin">
                        <use xlink:href="#rim" fill="#404040">
                                <set attributeName="fill" to="#808080" begin="zoomminus.mouseover" end="zoomminus.mouseout"/>
                        </use>
                        <path d="M-4,0h8" fill="none" stroke="white" stroke-width="1.5" pointer-events="none"/>
                </g>
                <g id="dirArrow">
                        <path fill="none" stroke="white" stroke-width="1.5" d="M0,-3.0v7 M-2.5,-0.5L0,-3.0L2.5,-0.5"/>
                </g>
               <g id="resetDef">
                       <use xlink:href="#rim2" fill="#404040">
                               <set attributeName="fill" to="#808080" begin="reset.mouseover" end="reset.mouseout"/>
                       </use>
               </g>
        </defs>

<script type="text/javascript">
var viewWidth = 2382;
var viewHeight = 441;
var sectionId = 'dynsection-1';
</script>
<script xlink:href="svgpan.js"/>
<svg id="graph" class="graph">
<g id="viewport">
<title>drake/common/string_unordered_set.h</title>
<polygon fill="white" stroke="transparent" points="-4,4 -4,-437 2378,-437 2378,4 -4,4"/>
<!-- Node6 -->
<g id="node1" class="node">
<title>Node6</title>
<g id="a_node1"><a xlink:title=" ">
<polygon fill="#bfbfbf" stroke="black" points="1109.5,-402.5 1109.5,-432.5 1229.5,-432.5 1229.5,-402.5 1109.5,-402.5"/>
<text text-anchor="start" x="1117.5" y="-420.5" font-family="Helvetica,sans-Serif" font-size="10.00">drake/common/string</text>
<text text-anchor="middle" x="1169.5" y="-409.5" font-family="Helvetica,sans-Serif" font-size="10.00">_unordered_set.h</text>
</a>
</g>
</g>
<!-- Node7 -->
<g id="node2" class="node">
<title>Node7</title>
<g id="a_node2"><a xlink:href="yaml__read__archive_8h.html" target="_top" xlink:title=" ">
<polygon fill="white" stroke="black" points="1021,-335.5 1021,-365.5 1166,-365.5 1166,-335.5 1021,-335.5"/>
<text text-anchor="start" x="1029" y="-353.5" font-family="Helvetica,sans-Serif" font-size="10.00">drake/common/yaml/yaml</text>
<text text-anchor="middle" x="1093.5" y="-342.5" font-family="Helvetica,sans-Serif" font-size="10.00">_read_archive.h</text>
</a>
</g>
</g>
<!-- Node6&#45;&gt;Node7 -->
<g id="edge1" class="edge">
<title>Node6&#45;&gt;Node7</title>
<path fill="none" stroke="midnightblue" d="M1145.39,-395.88C1133.84,-386.01 1120.31,-374.43 1109.96,-365.58"/>
<polygon fill="midnightblue" stroke="midnightblue" points="1143.13,-398.56 1153.01,-402.4 1147.68,-393.24 1143.13,-398.56"/>
</g>
<!-- Node9 -->
<g id="node4" class="node">
<title>Node9</title>
<g id="a_node4"><a xlink:href="specific__options_8h.html" target="_top" xlink:title=" ">
<polygon fill="white" stroke="black" points="1187.5,-335.5 1187.5,-365.5 1309.5,-365.5 1309.5,-335.5 1187.5,-335.5"/>
<text text-anchor="start" x="1195.5" y="-353.5" font-family="Helvetica,sans-Serif" font-size="10.00">drake/solvers/specific</text>
<text text-anchor="middle" x="1248.5" y="-342.5" font-family="Helvetica,sans-Serif" font-size="10.00">_options.h</text>
</a>
</g>
</g>
<!-- Node6&#45;&gt;Node9 -->
<g id="edge3" class="edge">
<title>Node6&#45;&gt;Node9</title>
<path fill="none" stroke="midnightblue" d="M1194.56,-395.88C1206.56,-386.01 1220.63,-374.43 1231.39,-365.58"/>
<polygon fill="midnightblue" stroke="midnightblue" points="1192.14,-393.34 1186.64,-402.4 1196.59,-398.75 1192.14,-393.34"/>
</g>
<!-- Node8 -->
<g id="node3" class="node">
<title>Node8</title>
<g id="a_node3"><a xlink:href="yaml__io_8h.html" target="_top" xlink:title=" ">
<polygon fill="white" stroke="black" points="1005.5,-274 1005.5,-293 1173.5,-293 1173.5,-274 1005.5,-274"/>
<text text-anchor="middle" x="1089.5" y="-281" font-family="Helvetica,sans-Serif" font-size="10.00">drake/common/yaml/yaml_io.h</text>
</a>
</g>
</g>
<!-- Node7&#45;&gt;Node8 -->
<g id="edge2" class="edge">
<title>Node7&#45;&gt;Node8</title>
<path fill="none" stroke="midnightblue" d="M1092.01,-325.25C1091.32,-314.02 1090.54,-301.38 1090.04,-293.19"/>
<polygon fill="midnightblue" stroke="midnightblue" points="1088.52,-325.63 1092.63,-335.4 1095.51,-325.2 1088.52,-325.63"/>
</g>
<!-- Node10 -->
<g id="node5" class="node">
<title>Node10</title>
<g id="a_node5"><a xlink:href="solver__base_8h.html" target="_top" xlink:title=" ">
<polygon fill="white" stroke="black" points="1191,-268.5 1191,-298.5 1306,-298.5 1306,-268.5 1191,-268.5"/>
<text text-anchor="start" x="1199" y="-286.5" font-family="Helvetica,sans-Serif" font-size="10.00">drake/solvers/solver</text>
<text text-anchor="middle" x="1248.5" y="-275.5" font-family="Helvetica,sans-Serif" font-size="10.00">_base.h</text>
</a>
</g>
</g>
<!-- Node9&#45;&gt;Node10 -->
<g id="edge4" class="edge">
<title>Node9&#45;&gt;Node10</title>
<path fill="none" stroke="midnightblue" d="M1248.5,-325.11C1248.5,-316.15 1248.5,-306.32 1248.5,-298.58"/>
<polygon fill="midnightblue" stroke="midnightblue" points="1245,-325.4 1248.5,-335.4 1252,-325.4 1245,-325.4"/>
</g>
<!-- Node34 -->
<g id="node29" class="node">
<title>Node34</title>
<g id="a_node29"><a xlink:href="mosek__solver__internal_8h.html" target="_top" xlink:title=" ">
<polygon fill="white" stroke="black" points="1324.5,-268.5 1324.5,-298.5 1442.5,-298.5 1442.5,-268.5 1324.5,-268.5"/>
<text text-anchor="start" x="1332.5" y="-286.5" font-family="Helvetica,sans-Serif" font-size="10.00">drake/solvers/mosek</text>
<text text-anchor="middle" x="1383.5" y="-275.5" font-family="Helvetica,sans-Serif" font-size="10.00">_solver_internal.h</text>
</a>
</g>
</g>
<!-- Node9&#45;&gt;Node34 -->
<g id="edge32" class="edge">
<title>Node9&#45;&gt;Node34</title>
<path fill="none" stroke="midnightblue" d="M1286.94,-330.99C1308.34,-320.69 1334.55,-308.07 1354.26,-298.58"/>
<polygon fill="midnightblue" stroke="midnightblue" points="1285.28,-327.9 1277.79,-335.4 1288.32,-334.21 1285.28,-327.9"/>
</g>
<!-- Node11 -->
<g id="node6" class="node">
<title>Node11</title>
<g id="a_node6"><a xlink:href="moby__lcp__solver_8h.html" target="_top" xlink:title=" ">
<polygon fill="white" stroke="black" points="97,-201.5 97,-231.5 210,-231.5 210,-201.5 97,-201.5"/>
<text text-anchor="start" x="105" y="-219.5" font-family="Helvetica,sans-Serif" font-size="10.00">drake/solvers/moby</text>
<text text-anchor="middle" x="153.5" y="-208.5" font-family="Helvetica,sans-Serif" font-size="10.00">_lcp_solver.h</text>
</a>
</g>
</g>
<!-- Node10&#45;&gt;Node11 -->
<g id="edge5" class="edge">
<title>Node10&#45;&gt;Node11</title>
<path fill="none" stroke="midnightblue" d="M1180.71,-267.92C774.89,-216.71 666.92,-266.74 262.5,-232 245.48,-230.54 227.03,-228.33 210.24,-226.07"/>
<polygon fill="midnightblue" stroke="midnightblue" points="1180.29,-271.39 1190.65,-269.18 1181.18,-264.45 1180.29,-271.39"/>
</g>
<!-- Node14 -->
<g id="node9" class="node">
<title>Node14</title>
<g id="a_node9"><a xlink:href="mosek__solver_8h.html" target="_top" xlink:title=" ">
<polygon fill="white" stroke="black" points="271.5,-201.5 271.5,-231.5 389.5,-231.5 389.5,-201.5 271.5,-201.5"/>
<text text-anchor="start" x="279.5" y="-219.5" font-family="Helvetica,sans-Serif" font-size="10.00">drake/solvers/mosek</text>
<text text-anchor="middle" x="330.5" y="-208.5" font-family="Helvetica,sans-Serif" font-size="10.00">_solver.h</text>
</a>
</g>
</g>
<!-- Node10&#45;&gt;Node14 -->
<g id="edge9" class="edge">
<title>Node10&#45;&gt;Node14</title>
<path fill="none" stroke="midnightblue" d="M1180.61,-267.9C834.9,-223.43 741.16,-276.1 398.5,-232 395.63,-231.63 392.69,-231.2 389.74,-230.73"/>
<polygon fill="midnightblue" stroke="midnightblue" points="1180.28,-271.38 1190.65,-269.21 1181.19,-264.44 1180.28,-271.38"/>
</g>
<!-- Node20 -->
<g id="node15" class="node">
<title>Node20</title>
<g id="a_node15"><a xlink:href="clarabel__solver_8h.html" target="_top" xlink:title=" ">
<polygon fill="white" stroke="black" points="407.5,-201.5 407.5,-231.5 531.5,-231.5 531.5,-201.5 407.5,-201.5"/>
<text text-anchor="start" x="415.5" y="-219.5" font-family="Helvetica,sans-Serif" font-size="10.00">drake/solvers/clarabel</text>
<text text-anchor="middle" x="469.5" y="-208.5" font-family="Helvetica,sans-Serif" font-size="10.00">_solver.h</text>
</a>
</g>
</g>
<!-- Node10&#45;&gt;Node20 -->
<g id="edge18" class="edge">
<title>Node10&#45;&gt;Node20</title>
<path fill="none" stroke="midnightblue" d="M1180.51,-267.87C898.01,-230.17 821.21,-267.83 541.5,-232 538.34,-231.59 535.11,-231.13 531.85,-230.62"/>
<polygon fill="midnightblue" stroke="midnightblue" points="1180.27,-271.37 1190.65,-269.24 1181.21,-264.43 1180.27,-271.37"/>
</g>
<!-- Node21 -->
<g id="node16" class="node">
<title>Node21</title>
<g id="a_node16"><a xlink:href="clp__solver_8h.html" target="_top" xlink:title=" ">
<polygon fill="white" stroke="black" points="550,-207 550,-226 693,-226 693,-207 550,-207"/>
<text text-anchor="middle" x="621.5" y="-214" font-family="Helvetica,sans-Serif" font-size="10.00">drake/solvers/clp_solver.h</text>
</a>
</g>
</g>
<!-- Node10&#45;&gt;Node21 -->
<g id="edge19" class="edge">
<title>Node10&#45;&gt;Node21</title>
<path fill="none" stroke="midnightblue" d="M1180.79,-267.89C969.04,-237.64 911.42,-258.46 702.5,-232 690.17,-230.44 676.87,-228.26 664.67,-226.07"/>
<polygon fill="midnightblue" stroke="midnightblue" points="1180.6,-271.39 1191,-269.36 1181.6,-264.47 1180.6,-271.39"/>
</g>
<!-- Node22 -->
<g id="node17" class="node">
<title>Node22</title>
<g id="a_node17"><a xlink:href="csdp__solver_8h.html" target="_top" xlink:title=" ">
<polygon fill="white" stroke="black" points="711,-201.5 711,-231.5 818,-231.5 818,-201.5 711,-201.5"/>
<text text-anchor="start" x="719" y="-219.5" font-family="Helvetica,sans-Serif" font-size="10.00">drake/solvers/csdp</text>
<text text-anchor="middle" x="764.5" y="-208.5" font-family="Helvetica,sans-Serif" font-size="10.00">_solver.h</text>
</a>
</g>
</g>
<!-- Node10&#45;&gt;Node22 -->
<g id="edge20" class="edge">
<title>Node10&#45;&gt;Node22</title>
<path fill="none" stroke="midnightblue" d="M1180.98,-267.87C1024.14,-243.54 980.76,-257.31 827.5,-232 824.4,-231.49 821.22,-230.91 818.03,-230.3"/>
<polygon fill="midnightblue" stroke="midnightblue" points="1180.56,-271.35 1190.98,-269.45 1181.65,-264.44 1180.56,-271.35"/>
</g>
<!-- Node23 -->
<g id="node18" class="node">
<title>Node23</title>
<g id="a_node18"><a xlink:href="equality__constrained__qp__solver_8h.html" target="_top" xlink:title=" ">
<polygon fill="white" stroke="black" points="836.5,-201.5 836.5,-231.5 976.5,-231.5 976.5,-201.5 836.5,-201.5"/>
<text text-anchor="start" x="844.5" y="-219.5" font-family="Helvetica,sans-Serif" font-size="10.00">drake/solvers/equality</text>
<text text-anchor="middle" x="906.5" y="-208.5" font-family="Helvetica,sans-Serif" font-size="10.00">_constrained_qp_solver.h</text>
</a>
</g>
</g>
<!-- Node10&#45;&gt;Node23 -->
<g id="edge21" class="edge">
<title>Node10&#45;&gt;Node23</title>
<path fill="none" stroke="midnightblue" d="M1181.11,-267.75C1093.6,-250.26 1069.97,-247.47 985.5,-232 982.62,-231.47 979.68,-230.93 976.71,-230.39"/>
<polygon fill="midnightblue" stroke="midnightblue" points="1180.44,-271.19 1190.93,-269.73 1181.82,-264.33 1180.44,-271.19"/>
</g>
<!-- Node24 -->
<g id="node19" class="node">
<title>Node24</title>
<g id="a_node19"><a xlink:href="gurobi__solver_8h.html" target="_top" xlink:title=" ">
<polygon fill="white" stroke="black" points="994.5,-201.5 994.5,-231.5 1110.5,-231.5 1110.5,-201.5 994.5,-201.5"/>
<text text-anchor="start" x="1002.5" y="-219.5" font-family="Helvetica,sans-Serif" font-size="10.00">drake/solvers/gurobi</text>
<text text-anchor="middle" x="1052.5" y="-208.5" font-family="Helvetica,sans-Serif" font-size="10.00">_solver.h</text>
</a>
</g>
</g>
<!-- Node10&#45;&gt;Node24 -->
<g id="edge22" class="edge">
<title>Node10&#45;&gt;Node24</title>
<path fill="none" stroke="midnightblue" d="M1196.42,-265.23C1164.71,-254.71 1124.72,-241.45 1094.95,-231.58"/>
<polygon fill="midnightblue" stroke="midnightblue" points="1195.38,-268.57 1205.97,-268.4 1197.58,-261.93 1195.38,-268.57"/>
</g>
<!-- Node25 -->
<g id="node20" class="node">
<title>Node25</title>
<g id="a_node20"><a xlink:href="ipopt__solver_8h.html" target="_top" xlink:title=" ">
<polygon fill="white" stroke="black" points="1128.5,-201.5 1128.5,-231.5 1238.5,-231.5 1238.5,-201.5 1128.5,-201.5"/>
<text text-anchor="start" x="1136.5" y="-219.5" font-family="Helvetica,sans-Serif" font-size="10.00">drake/solvers/ipopt</text>
<text text-anchor="middle" x="1183.5" y="-208.5" font-family="Helvetica,sans-Serif" font-size="10.00">_solver.h</text>
</a>
</g>
</g>
<!-- Node10&#45;&gt;Node25 -->
<g id="edge23" class="edge">
<title>Node10&#45;&gt;Node25</title>
<path fill="none" stroke="midnightblue" d="M1227.31,-261.31C1217.56,-251.56 1206.26,-240.26 1197.58,-231.58"/>
<polygon fill="midnightblue" stroke="midnightblue" points="1224.85,-263.8 1234.4,-268.4 1229.8,-258.85 1224.85,-263.8"/>
</g>
<!-- Node26 -->
<g id="node21" class="node">
<title>Node26</title>
<g id="a_node21"><a xlink:href="linear__system__solver_8h.html" target="_top" xlink:title=" ">
<polygon fill="white" stroke="black" points="1257,-201.5 1257,-231.5 1370,-231.5 1370,-201.5 1257,-201.5"/>
<text text-anchor="start" x="1265" y="-219.5" font-family="Helvetica,sans-Serif" font-size="10.00">drake/solvers/linear</text>
<text text-anchor="middle" x="1313.5" y="-208.5" font-family="Helvetica,sans-Serif" font-size="10.00">_system_solver.h</text>
</a>
</g>
</g>
<!-- Node10&#45;&gt;Node26 -->
<g id="edge24" class="edge">
<title>Node10&#45;&gt;Node26</title>
<path fill="none" stroke="midnightblue" d="M1269.69,-261.31C1279.44,-251.56 1290.74,-240.26 1299.42,-231.58"/>
<polygon fill="midnightblue" stroke="midnightblue" points="1267.2,-258.85 1262.6,-268.4 1272.15,-263.8 1267.2,-258.85"/>
</g>
<!-- Node27 -->
<g id="node22" class="node">
<title>Node27</title>
<g id="a_node22"><a xlink:href="nlopt__solver_8h.html" target="_top" xlink:title=" ">
<polygon fill="white" stroke="black" points="1388.5,-201.5 1388.5,-231.5 1498.5,-231.5 1498.5,-201.5 1388.5,-201.5"/>
<text text-anchor="start" x="1396.5" y="-219.5" font-family="Helvetica,sans-Serif" font-size="10.00">drake/solvers/nlopt</text>
<text text-anchor="middle" x="1443.5" y="-208.5" font-family="Helvetica,sans-Serif" font-size="10.00">_solver.h</text>
</a>
</g>
</g>
<!-- Node10&#45;&gt;Node27 -->
<g id="edge25" class="edge">
<title>Node10&#45;&gt;Node27</title>
<path fill="none" stroke="midnightblue" d="M1300.32,-265.23C1331.86,-254.71 1371.65,-241.45 1401.27,-231.58"/>
<polygon fill="midnightblue" stroke="midnightblue" points="1299.19,-261.91 1290.81,-268.4 1301.41,-268.55 1299.19,-261.91"/>
</g>
<!-- Node28 -->
<g id="node23" class="node">
<title>Node28</title>
<g id="a_node23"><a xlink:href="osqp__solver_8h.html" target="_top" xlink:title=" ">
<polygon fill="white" stroke="black" points="1516.5,-201.5 1516.5,-231.5 1624.5,-231.5 1624.5,-201.5 1516.5,-201.5"/>
<text text-anchor="start" x="1524.5" y="-219.5" font-family="Helvetica,sans-Serif" font-size="10.00">drake/solvers/osqp</text>
<text text-anchor="middle" x="1570.5" y="-208.5" font-family="Helvetica,sans-Serif" font-size="10.00">_solver.h</text>
</a>
</g>
</g>
<!-- Node10&#45;&gt;Node28 -->
<g id="edge26" class="edge">
<title>Node10&#45;&gt;Node28</title>
<path fill="none" stroke="midnightblue" d="M1316.18,-267.9C1402.27,-250.72 1425.58,-249.1 1507.5,-232 1510.36,-231.4 1513.28,-230.78 1516.23,-230.14"/>
<polygon fill="midnightblue" stroke="midnightblue" points="1315.34,-264.5 1306.22,-269.9 1316.72,-271.36 1315.34,-264.5"/>
</g>
<!-- Node29 -->
<g id="node24" class="node">
<title>Node29</title>
<g id="a_node24"><a xlink:href="projected__gradient__descent__solver_8h.html" target="_top" xlink:title=" ">
<polygon fill="white" stroke="black" points="1643,-201.5 1643,-231.5 1792,-231.5 1792,-201.5 1643,-201.5"/>
<text text-anchor="start" x="1651" y="-219.5" font-family="Helvetica,sans-Serif" font-size="10.00">drake/solvers/projected</text>
<text text-anchor="middle" x="1717.5" y="-208.5" font-family="Helvetica,sans-Serif" font-size="10.00">_gradient_descent_solver.h</text>
</a>
</g>
</g>
<!-- Node10&#45;&gt;Node29 -->
<g id="edge27" class="edge">
<title>Node10&#45;&gt;Node29</title>
<path fill="none" stroke="midnightblue" d="M1316.09,-268.02C1457.56,-245.24 1495.85,-251.65 1633.5,-232 1636.58,-231.56 1639.71,-231.1 1642.88,-230.61"/>
<polygon fill="midnightblue" stroke="midnightblue" points="1315.48,-264.57 1306.17,-269.63 1316.61,-271.48 1315.48,-264.57"/>
</g>
<!-- Node30 -->
<g id="node25" class="node">
<title>Node30</title>
<g id="a_node25"><a xlink:href="scs__solver_8h.html" target="_top" xlink:title=" ">
<polygon fill="white" stroke="black" points="1810.5,-207 1810.5,-226 1954.5,-226 1954.5,-207 1810.5,-207"/>
<text text-anchor="middle" x="1882.5" y="-214" font-family="Helvetica,sans-Serif" font-size="10.00">drake/solvers/scs_solver.h</text>
</a>
</g>
</g>
<!-- Node10&#45;&gt;Node30 -->
<g id="edge28" class="edge">
<title>Node10&#45;&gt;Node30</title>
<path fill="none" stroke="midnightblue" d="M1316.2,-268.05C1531.62,-237.68 1589.87,-258.71 1801.5,-232 1813.97,-230.43 1827.44,-228.22 1839.75,-226"/>
<polygon fill="midnightblue" stroke="midnightblue" points="1315.55,-264.61 1306.15,-269.49 1316.55,-271.54 1315.55,-264.61"/>
</g>
<!-- Node31 -->
<g id="node26" class="node">
<title>Node31</title>
<g id="a_node26"><a xlink:href="snopt__solver_8h.html" target="_top" xlink:title=" ">
<polygon fill="white" stroke="black" points="1972.5,-201.5 1972.5,-231.5 2084.5,-231.5 2084.5,-201.5 1972.5,-201.5"/>
<text text-anchor="start" x="1980.5" y="-219.5" font-family="Helvetica,sans-Serif" font-size="10.00">drake/solvers/snopt</text>
<text text-anchor="middle" x="2028.5" y="-208.5" font-family="Helvetica,sans-Serif" font-size="10.00">_solver.h</text>
</a>
</g>
</g>
<!-- Node10&#45;&gt;Node31 -->
<g id="edge29" class="edge">
<title>Node10&#45;&gt;Node31</title>
<path fill="none" stroke="midnightblue" d="M1316.43,-268.05C1603.17,-230.35 1681.13,-271.07 1963.5,-232 1966.36,-231.6 1969.29,-231.15 1972.23,-230.64"/>
<polygon fill="midnightblue" stroke="midnightblue" points="1315.59,-264.63 1306.14,-269.42 1316.52,-271.57 1315.59,-264.63"/>
</g>
<!-- Node32 -->
<g id="node27" class="node">
<title>Node32</title>
<g id="a_node27"><a xlink:href="solve_8h.html" target="_top" xlink:title=" ">
<polygon fill="white" stroke="black" points="2102.5,-207 2102.5,-226 2222.5,-226 2222.5,-207 2102.5,-207"/>
<text text-anchor="middle" x="2162.5" y="-214" font-family="Helvetica,sans-Serif" font-size="10.00">drake/solvers/solve.h</text>
</a>
</g>
</g>
<!-- Node10&#45;&gt;Node32 -->
<g id="edge30" class="edge">
<title>Node10&#45;&gt;Node32</title>
<path fill="none" stroke="midnightblue" d="M1316.14,-268.1C1660.5,-224.23 1753.4,-275.32 2093.5,-232 2104.55,-230.59 2116.46,-228.35 2127.23,-226.05"/>
<polygon fill="midnightblue" stroke="midnightblue" points="1315.61,-264.64 1306.14,-269.39 1316.5,-271.58 1315.61,-264.64"/>
</g>
<!-- Node33 -->
<g id="node28" class="node">
<title>Node33</title>
<g id="a_node28"><a xlink:href="unrevised__lemke__solver_8h.html" target="_top" xlink:title=" ">
<polygon fill="white" stroke="black" points="2241,-201.5 2241,-231.5 2374,-231.5 2374,-201.5 2241,-201.5"/>
<text text-anchor="start" x="2249" y="-219.5" font-family="Helvetica,sans-Serif" font-size="10.00">drake/solvers/unrevised</text>
<text text-anchor="middle" x="2307.5" y="-208.5" font-family="Helvetica,sans-Serif" font-size="10.00">_lemke_solver.h</text>
</a>
</g>
</g>
<!-- Node10&#45;&gt;Node33 -->
<g id="edge31" class="edge">
<title>Node10&#45;&gt;Node33</title>
<path fill="none" stroke="midnightblue" d="M1316.07,-268.11C1721.43,-217.7 1829.98,-277.93 2231.5,-232 2234.57,-231.65 2237.7,-231.24 2240.86,-230.8"/>
<polygon fill="midnightblue" stroke="midnightblue" points="1315.62,-264.64 1306.13,-269.36 1316.49,-271.59 1315.62,-264.64"/>
</g>
<!-- Node12 -->
<g id="node7" class="node">
<title>Node12</title>
<g id="a_node7"><a xlink:href="constraint__solver_8h.html" target="_top" xlink:title=" ">
<polygon fill="white" stroke="black" points="0,-134.5 0,-164.5 125,-164.5 125,-134.5 0,-134.5"/>
<text text-anchor="start" x="8" y="-152.5" font-family="Helvetica,sans-Serif" font-size="10.00">drake/examples/rod2d</text>
<text text-anchor="middle" x="62.5" y="-141.5" font-family="Helvetica,sans-Serif" font-size="10.00">/constraint_solver.h</text>
</a>
</g>
</g>
<!-- Node11&#45;&gt;Node12 -->
<g id="edge6" class="edge">
<title>Node11&#45;&gt;Node12</title>
<path fill="none" stroke="midnightblue" d="M125.43,-195.45C111.43,-185.45 94.84,-173.6 82.21,-164.58"/>
<polygon fill="midnightblue" stroke="midnightblue" points="123.58,-198.43 133.75,-201.4 127.65,-192.74 123.58,-198.43"/>
</g>
<!-- Node13 -->
<g id="node8" class="node">
<title>Node13</title>
<g id="a_node8"><a xlink:href="rod2d_8h.html" target="_top" xlink:title=" ">
<polygon fill="white" stroke="black" points="0,-67.5 0,-97.5 125,-97.5 125,-67.5 0,-67.5"/>
<text text-anchor="start" x="8" y="-85.5" font-family="Helvetica,sans-Serif" font-size="10.00">drake/examples/rod2d</text>
<text text-anchor="middle" x="62.5" y="-74.5" font-family="Helvetica,sans-Serif" font-size="10.00">/rod2d.h</text>
</a>
</g>
</g>
<!-- Node11&#45;&gt;Node13 -->
<g id="edge8" class="edge">
<title>Node11&#45;&gt;Node13</title>
<path fill="none" stroke="midnightblue" d="M151.97,-190.96C149.89,-173.75 144.98,-150.91 133.5,-134 122.96,-118.48 105.97,-106.15 91.26,-97.56"/>
<polygon fill="midnightblue" stroke="midnightblue" points="148.53,-191.71 152.98,-201.33 155.5,-191.04 148.53,-191.71"/>
</g>
<!-- Node12&#45;&gt;Node13 -->
<g id="edge7" class="edge">
<title>Node12&#45;&gt;Node13</title>
<path fill="none" stroke="midnightblue" d="M62.5,-124.11C62.5,-115.15 62.5,-105.32 62.5,-97.58"/>
<polygon fill="midnightblue" stroke="midnightblue" points="59,-124.4 62.5,-134.4 66,-124.4 59,-124.4"/>
</g>
<!-- Node15 -->
<g id="node10" class="node">
<title>Node15</title>
<g id="a_node10"><a xlink:href="cspace__free__structs_8h.html" target="_top" xlink:title=" ">
<polygon fill="white" stroke="black" points="251.5,-134.5 251.5,-164.5 409.5,-164.5 409.5,-134.5 251.5,-134.5"/>
<text text-anchor="start" x="259.5" y="-152.5" font-family="Helvetica,sans-Serif" font-size="10.00">drake/geometry/optimization</text>
<text text-anchor="middle" x="330.5" y="-141.5" font-family="Helvetica,sans-Serif" font-size="10.00">/cspace_free_structs.h</text>
</a>
</g>
</g>
<!-- Node14&#45;&gt;Node15 -->
<g id="edge10" class="edge">
<title>Node14&#45;&gt;Node15</title>
<path fill="none" stroke="midnightblue" d="M330.5,-191.11C330.5,-182.15 330.5,-172.32 330.5,-164.58"/>
<polygon fill="midnightblue" stroke="midnightblue" points="327,-191.4 330.5,-201.4 334,-191.4 327,-191.4"/>
</g>
<!-- Node18 -->
<g id="node13" class="node">
<title>Node18</title>
<g id="a_node13"><a xlink:href="cspace__free__polytope_8h.html" target="_top" xlink:title=" ">
<polygon fill="white" stroke="black" points="294.5,-0.5 294.5,-30.5 452.5,-30.5 452.5,-0.5 294.5,-0.5"/>
<text text-anchor="start" x="302.5" y="-18.5" font-family="Helvetica,sans-Serif" font-size="10.00">drake/geometry/optimization</text>
<text text-anchor="middle" x="373.5" y="-7.5" font-family="Helvetica,sans-Serif" font-size="10.00">/cspace_free_polytope.h</text>
</a>
</g>
</g>
<!-- Node14&#45;&gt;Node18 -->
<g id="edge17" class="edge">
<title>Node14&#45;&gt;Node18</title>
<path fill="none" stroke="midnightblue" d="M380.24,-198.04C443.51,-174.7 547.18,-132.29 568.5,-98 598.81,-49.23 519.19,-29.63 452.71,-21.76"/>
<polygon fill="midnightblue" stroke="midnightblue" points="379.02,-194.76 370.83,-201.48 381.42,-201.33 379.02,-194.76"/>
</g>
<!-- Node16 -->
<g id="node11" class="node">
<title>Node16</title>
<g id="a_node11"><a xlink:href="cspace__free__polytope__base_8h.html" target="_top" xlink:title=" ">
<polygon fill="white" stroke="black" points="181.5,-67.5 181.5,-97.5 345.5,-97.5 345.5,-67.5 181.5,-67.5"/>
<text text-anchor="start" x="189.5" y="-85.5" font-family="Helvetica,sans-Serif" font-size="10.00">drake/geometry/optimization</text>
<text text-anchor="middle" x="263.5" y="-74.5" font-family="Helvetica,sans-Serif" font-size="10.00">/cspace_free_polytope_base.h</text>
</a>
</g>
</g>
<!-- Node15&#45;&gt;Node16 -->
<g id="edge11" class="edge">
<title>Node15&#45;&gt;Node16</title>
<path fill="none" stroke="midnightblue" d="M308.66,-127.31C298.61,-117.56 286.96,-106.26 278.01,-97.58"/>
<polygon fill="midnightblue" stroke="midnightblue" points="306.35,-129.94 315.96,-134.4 311.22,-124.92 306.35,-129.94"/>
</g>
<!-- Node17 -->
<g id="node12" class="node">
<title>Node17</title>
<g id="a_node12"><a xlink:href="cspace__free__box_8h.html" target="_top" xlink:title=" ">
<polygon fill="white" stroke="black" points="96.5,-0.5 96.5,-30.5 254.5,-30.5 254.5,-0.5 96.5,-0.5"/>
<text text-anchor="start" x="104.5" y="-18.5" font-family="Helvetica,sans-Serif" font-size="10.00">drake/geometry/optimization</text>
<text text-anchor="middle" x="175.5" y="-7.5" font-family="Helvetica,sans-Serif" font-size="10.00">/cspace_free_box.h</text>
</a>
</g>
</g>
<!-- Node15&#45;&gt;Node17 -->
<g id="edge14" class="edge">
<title>Node15&#45;&gt;Node17</title>
<path fill="none" stroke="midnightblue" d="M241.38,-140.09C214.96,-132.94 188.76,-120.27 172.5,-98 158.14,-78.33 164.43,-48.3 170.1,-30.71"/>
<polygon fill="midnightblue" stroke="midnightblue" points="240.57,-143.49 251.11,-142.47 242.24,-136.69 240.57,-143.49"/>
</g>
<!-- Node15&#45;&gt;Node18 -->
<g id="edge16" class="edge">
<title>Node15&#45;&gt;Node18</title>
<path fill="none" stroke="midnightblue" d="M342.91,-125.1C347,-116.72 351.32,-107.09 354.5,-98 362.56,-74.96 368.22,-47.06 371.16,-30.6"/>
<polygon fill="midnightblue" stroke="midnightblue" points="339.66,-123.76 338.28,-134.26 345.91,-126.91 339.66,-123.76"/>
</g>
<!-- Node19 -->
<g id="node14" class="node">
<title>Node19</title>
<g id="a_node14"><a xlink:href="cspace__free__internal_8h.html" target="_top" xlink:title=" ">
<polygon fill="white" stroke="black" points="401.5,-67.5 401.5,-97.5 559.5,-97.5 559.5,-67.5 401.5,-67.5"/>
<text text-anchor="start" x="409.5" y="-85.5" font-family="Helvetica,sans-Serif" font-size="10.00">drake/geometry/optimization</text>
<text text-anchor="middle" x="480.5" y="-74.5" font-family="Helvetica,sans-Serif" font-size="10.00">/cspace_free_internal.h</text>
</a>
</g>
</g>
<!-- Node15&#45;&gt;Node19 -->
<g id="edge15" class="edge">
<title>Node15&#45;&gt;Node19</title>
<path fill="none" stroke="midnightblue" d="M372.25,-130.41C396.2,-120.03 425.82,-107.2 448.02,-97.58"/>
<polygon fill="midnightblue" stroke="midnightblue" points="370.83,-127.21 363.05,-134.4 373.61,-133.63 370.83,-127.21"/>
</g>
<!-- Node16&#45;&gt;Node17 -->
<g id="edge12" class="edge">
<title>Node16&#45;&gt;Node17</title>
<path fill="none" stroke="midnightblue" d="M236.36,-61.45C222.82,-51.45 206.77,-39.6 194.56,-30.58"/>
<polygon fill="midnightblue" stroke="midnightblue" points="234.28,-64.27 244.41,-67.4 238.44,-58.64 234.28,-64.27"/>
</g>
<!-- Node16&#45;&gt;Node18 -->
<g id="edge13" class="edge">
<title>Node16&#45;&gt;Node18</title>
<path fill="none" stroke="midnightblue" d="M296,-62.3C313.21,-52.12 333.98,-39.85 349.68,-30.58"/>
<polygon fill="midnightblue" stroke="midnightblue" points="294.2,-59.3 287.37,-67.4 297.76,-65.32 294.2,-59.3"/>
</g>
</g>
</svg>
        <g id="navigator" transform="translate(0 0)" fill="#404254">
                <rect fill="#f2f5e9" fill-opacity="0.5" stroke="#606060" stroke-width=".5" x="0" y="0" width="60" height="60"/>
                <use id="zoomplus" xlink:href="#zoomPlus" x="17" y="9" onmousedown="handleZoom(evt,'in')"/>
                <use id="zoomminus" xlink:href="#zoomMin" x="42" y="9" onmousedown="handleZoom(evt,'out')"/>
                <use id="reset" xlink:href="#resetDef" x="30" y="36" onmousedown="handleReset()"/>
                <g id="arrowUp" xlink:href="#dirArrow" transform="translate(30 24)" onmousedown="handlePan(0,-1)">
                  <use xlink:href="#rim" fill="#404040">
                        <set attributeName="fill" to="#808080" begin="arrowUp.mouseover" end="arrowUp.mouseout"/>
                  </use>
                  <path fill="none" stroke="white" stroke-width="1.5" d="M0,-3.0v7 M-2.5,-0.5L0,-3.0L2.5,-0.5"/>
                </g>
                <g id="arrowRight" xlink:href="#dirArrow" transform="rotate(90) translate(36 -43)" onmousedown="handlePan(1,0)">
                  <use xlink:href="#rim" fill="#404040">
                        <set attributeName="fill" to="#808080" begin="arrowRight.mouseover" end="arrowRight.mouseout"/>
                  </use>
                  <path fill="none" stroke="white" stroke-width="1.5" d="M0,-3.0v7 M-2.5,-0.5L0,-3.0L2.5,-0.5"/>
                </g>
                <g id="arrowDown" xlink:href="#dirArrow" transform="rotate(180) translate(-30 -48)" onmousedown="handlePan(0,1)">
                  <use xlink:href="#rim" fill="#404040">
                        <set attributeName="fill" to="#808080" begin="arrowDown.mouseover" end="arrowDown.mouseout"/>
                  </use>
                  <path fill="none" stroke="white" stroke-width="1.5" d="M0,-3.0v7 M-2.5,-0.5L0,-3.0L2.5,-0.5"/>
                </g>
                <g id="arrowLeft" xlink:href="#dirArrow" transform="rotate(270) translate(-36 17)" onmousedown="handlePan(-1,0)">
                  <use xlink:href="#rim" fill="#404040">
                        <set attributeName="fill" to="#808080" begin="arrowLeft.mouseover" end="arrowLeft.mouseout"/>
                  </use>
                  <path fill="none" stroke="white" stroke-width="1.5" d="M0,-3.0v7 M-2.5,-0.5L0,-3.0L2.5,-0.5"/>
                </g>
        </g>
        <svg viewBox="0 0 15 15" width="100%" height="30px" preserveAspectRatio="xMaxYMin meet">
         <g id="arrow_out" transform="scale(0.3 0.3)">
          <a xlink:href="string__unordered__set_8h__dep__incl_org.svg" target="_base">
           <rect id="button" ry="5" rx="5" y="6" x="6" height="38" width="38"
                fill="#f2f5e9" fill-opacity="0.5" stroke="#606060" stroke-width="1.0"/>
           <path id="arrow"
             d="M 11.500037,31.436501 C 11.940474,20.09759 22.043105,11.32322 32.158766,21.979434 L 37.068811,17.246167 C 37.068811,17.246167 37.088388,32 37.088388,32 L 22.160133,31.978069 C 22.160133,31.978069 26.997745,27.140456 26.997745,27.140456 C 18.528582,18.264221 13.291696,25.230495 11.500037,31.436501 z"
             style="fill:#404040;"/>
          </a>
         </g>
        </svg>
</svg>
