<?xml version="1.0" encoding="UTF-8" standalone="no"?>
<!DOCTYPE svg PUBLIC "-//W3C//DTD SVG 1.1//EN"
 "http://www.w3.org/Graphics/SVG/1.1/DTD/svg11.dtd">
<!-- Generated by graphviz version 2.43.0 (0)
 -->
<!-- Title: drake/common/string_unordered_set.h Pages: 1 -->
<svg width="354pt" height="162pt"
 viewBox="0.00 0.00 353.50 162.00" xmlns="http://www.w3.org/2000/svg" xmlns:xlink="http://www.w3.org/1999/xlink">
<g id="graph0" class="graph" transform="scale(1 1) rotate(0) translate(4 158)">
<title>drake/common/string_unordered_set.h</title>
<polygon fill="white" stroke="transparent" points="-4,4 -4,-158 349.5,-158 349.5,4 -4,4"/>
<!-- Node0 -->
<g id="node1" class="node">
<title>Node0</title>
<g id="a_node1"><a xlink:title=" ">
<polygon fill="#bfbfbf" stroke="black" points="68.5,-123.5 68.5,-153.5 188.5,-153.5 188.5,-123.5 68.5,-123.5"/>
<text text-anchor="start" x="76.5" y="-141.5" font-family="Helvetica,sans-Serif" font-size="10.00">drake/common/string</text>
<text text-anchor="middle" x="128.5" y="-130.5" font-family="Helvetica,sans-Serif" font-size="10.00">_unordered_set.h</text>
</a>
</g>
</g>
<!-- Node1 -->
<g id="node2" class="node">
<title>Node1</title>
<g id="a_node2"><a xlink:title=" ">
<polygon fill="white" stroke="#bfbfbf" points="0,-62 0,-81 65,-81 65,-62 0,-62"/>
<text text-anchor="middle" x="32.5" y="-69" font-family="Helvetica,sans-Serif" font-size="10.00">functional</text>
</a>
</g>
</g>
<!-- Node0&#45;&gt;Node1 -->
<g id="edge1" class="edge">
<title>Node0&#45;&gt;Node1</title>
<path fill="none" stroke="midnightblue" d="M107.67,-123.4C91.72,-112.6 69.8,-97.76 53.75,-86.89"/>
<polygon fill="midnightblue" stroke="midnightblue" points="55.31,-83.72 45.06,-81.01 51.38,-89.51 55.31,-83.72"/>
</g>
<!-- Node2 -->
<g id="node3" class="node">
<title>Node2</title>
<g id="a_node3"><a xlink:title=" ">
<polygon fill="white" stroke="#bfbfbf" points="129.5,-0.5 129.5,-19.5 173.5,-19.5 173.5,-0.5 129.5,-0.5"/>
<text text-anchor="middle" x="151.5" y="-7.5" font-family="Helvetica,sans-Serif" font-size="10.00">string</text>
</a>
</g>
</g>
<!-- Node0&#45;&gt;Node2 -->
<g id="edge2" class="edge">
<title>Node0&#45;&gt;Node2</title>
<path fill="none" stroke="midnightblue" d="M121.13,-123.28C113.57,-106.7 104.03,-78.7 112.5,-56 116.67,-44.81 125.02,-34.56 132.92,-26.68"/>
<polygon fill="midnightblue" stroke="midnightblue" points="135.56,-29 140.51,-19.63 130.8,-23.87 135.56,-29"/>
</g>
<!-- Node3 -->
<g id="node4" class="node">
<title>Node3</title>
<g id="a_node4"><a xlink:title=" ">
<polygon fill="white" stroke="#bfbfbf" points="121.5,-62 121.5,-81 207.5,-81 207.5,-62 121.5,-62"/>
<text text-anchor="middle" x="164.5" y="-69" font-family="Helvetica,sans-Serif" font-size="10.00">unordered_set</text>
</a>
</g>
</g>
<!-- Node0&#45;&gt;Node3 -->
<g id="edge3" class="edge">
<title>Node0&#45;&gt;Node3</title>
<path fill="none" stroke="midnightblue" d="M136.31,-123.4C141.7,-113.66 148.91,-100.65 154.69,-90.21"/>
<polygon fill="midnightblue" stroke="midnightblue" points="157.9,-91.64 159.68,-81.19 151.78,-88.25 157.9,-91.64"/>
</g>
<!-- Node4 -->
<g id="node5" class="node">
<title>Node4</title>
<g id="a_node5"><a xlink:href="string__hash_8h.html" target="_top" xlink:title=" ">
<polygon fill="white" stroke="black" points="225.5,-56.5 225.5,-86.5 345.5,-86.5 345.5,-56.5 225.5,-56.5"/>
<text text-anchor="start" x="233.5" y="-74.5" font-family="Helvetica,sans-Serif" font-size="10.00">drake/common/string</text>
<text text-anchor="middle" x="285.5" y="-63.5" font-family="Helvetica,sans-Serif" font-size="10.00">_hash.h</text>
</a>
</g>
</g>
<!-- Node0&#45;&gt;Node4 -->
<g id="edge4" class="edge">
<title>Node0&#45;&gt;Node4</title>
<path fill="none" stroke="midnightblue" d="M162.57,-123.4C185.92,-113.73 217.09,-100.82 242.2,-90.43"/>
<polygon fill="midnightblue" stroke="midnightblue" points="243.6,-93.64 251.5,-86.58 240.92,-87.17 243.6,-93.64"/>
</g>
<!-- Node4&#45;&gt;Node2 -->
<g id="edge5" class="edge">
<title>Node4&#45;&gt;Node2</title>
<path fill="none" stroke="midnightblue" d="M253.74,-56.4C231.46,-46.51 201.91,-33.38 180.31,-23.79"/>
<polygon fill="midnightblue" stroke="midnightblue" points="181.56,-20.52 171,-19.66 178.72,-26.91 181.56,-20.52"/>
</g>
<!-- Node5 -->
<g id="node6" class="node">
<title>Node5</title>
<g id="a_node6"><a xlink:title=" ">
<polygon fill="white" stroke="#bfbfbf" points="249,-0.5 249,-19.5 322,-19.5 322,-0.5 249,-0.5"/>
<text text-anchor="middle" x="285.5" y="-7.5" font-family="Helvetica,sans-Serif" font-size="10.00">string_view</text>
</a>
</g>
</g>
<!-- Node4&#45;&gt;Node5 -->
<g id="edge6" class="edge">
<title>Node4&#45;&gt;Node5</title>
<path fill="none" stroke="midnightblue" d="M285.5,-56.4C285.5,-48.47 285.5,-38.46 285.5,-29.86"/>
<polygon fill="midnightblue" stroke="midnightblue" points="289,-29.66 285.5,-19.66 282,-29.66 289,-29.66"/>
</g>
</g>
</svg>
