<?xml version="1.0" encoding="UTF-8" standalone="no"?>
<!DOCTYPE svg PUBLIC "-//W3C//DTD SVG 1.1//EN"
 "http://www.w3.org/Graphics/SVG/1.1/DTD/svg11.dtd">
<!-- Generated by graphviz version 2.43.0 (0)
 -->
<!-- Title: drake/multibody/fem/tet_subdivision_quadrature.h Pages: 1 -->
<!--zoomable 411 -->

<svg id="main" version="1.1" xmlns="http://www.w3.org/2000/svg" xmlns:xlink="http://www.w3.org/1999/xlink" xml:space="preserve" onload="init(evt)">

<style type="text/css"><![CDATA[
.node, .edge {opacity: 0.7;}
.node.selected, .edge.selected {opacity: 1;}
.edge:hover path { stroke: red; }
.edge:hover polygon { stroke: red; fill: red; }
]]></style>

<defs>
  <circle id="rim" cx="0" cy="0" r="7"/>
  <circle id="rim2" cx="0" cy="0" r="3.5"/>
  <g id="zoomPlus">
    <use xlink:href="#rim" fill="#404040"><set attributeName="fill" to="#808080" begin="zoomplus.mouseover" end="zoomplus.mouseout"/></use>
    <path d="M-4,0h8M0,-4v8" fill="none" stroke="white" stroke-width="1.5" pointer-events="none"/>
  </g>
  <g id="zoomMin">
    <use xlink:href="#rim" fill="#404040"><set attributeName="fill" to="#808080" begin="zoomminus.mouseover" end="zoomminus.mouseout"/></use>
    <path d="M-4,0h8" fill="none" stroke="white" stroke-width="1.5" pointer-events="none"/>
  </g>
  <g id="arrowUp" transform="translate(30 24)">
    <use xlink:href="#rim"/>
    <path pointer-events="none" fill="none" stroke="white" stroke-width="1.5" d="M0,-3.0v7 M-2.5,-0.5L0,-3.0L2.5,-0.5"/>
  </g>
  <g id="arrowRight" transform="rotate(90) translate(36 -43)">
    <use xlink:href="#rim"/>
    <path pointer-events="none" fill="none" stroke="white" stroke-width="1.5" d="M0,-3.0v7 M-2.5,-0.5L0,-3.0L2.5,-0.5"/>
  </g>
  <g id="arrowDown" transform="rotate(180) translate(-30 -48)">
    <use xlink:href="#rim"/>
    <path pointer-events="none" fill="none" stroke="white" stroke-width="1.5" d="M0,-3.0v7 M-2.5,-0.5L0,-3.0L2.5,-0.5"/>
  </g>
  <g id="arrowLeft" transform="rotate(270) translate(-36 17)">
    <use xlink:href="#rim"/>
    <path pointer-events="none" fill="none" stroke="white" stroke-width="1.5" d="M0,-3.0v7 M-2.5,-0.5L0,-3.0L2.5,-0.5"/>
  </g>
  <g id="resetDef">
    <use xlink:href="#rim2" fill="#404040"><set attributeName="fill" to="#808080" begin="reset.mouseover" end="reset.mouseout"/></use>
  </g>
</defs>
<script type="application/ecmascript">
var viewWidth = 1216;
var viewHeight = 411;
var sectionId = 'dynsection-0';
</script>
<script type="application/ecmascript" xlink:href="svg.min.js"/>
<svg id="graph" class="graph">
<g id="viewport">
<title>drake/multibody/fem/tet_subdivision_quadrature.h</title>
<!-- Node1 -->
<g id="Node000001" class="node">
<title>Node1</title>
<g id="a_Node000001"><a xlink:title=" ">
<ellipse fill="#999999" stroke="#666666" cx="141.7" cy="-382.23" rx="113.69" ry="21.43"/>
<text text-anchor="start" x="69.2" y="-385.23" font-family="Helvetica,sans-Serif" font-size="10.00">drake/multibody/fem</text>
<text text-anchor="middle" x="141.7" y="-374.23" font-family="Helvetica,sans-Serif" font-size="10.00">/tet_subdivision_quadrature.h</text>
</a>
</g>
</g>
<!-- Node2 -->
<g id="Node000002" class="node">
<title>Node2</title>
<g id="a_Node000002"><a xlink:title=" ">
<ellipse fill="#e0e0e0" stroke="#999999" cx="29.7" cy="-76.31" rx="29.9" ry="13.37"/>
<text text-anchor="middle" x="29.7" y="-73.81" font-family="Helvetica,sans-Serif" font-size="10.00">array</text>
</a>
</g>
</g>
<!-- Node1&#45;&gt;Node2 -->
<g id="edge1_Node000001_Node000002" class="edge">
<title>Node1&#45;&gt;Node2</title>
<g id="a_edge1_Node000001_Node000002"><a xlink:title=" ">
<path fill="none" stroke="#63b8ff" d="M81.2,-364.25C62.02,-355.71 42.91,-343.18 31.7,-325.02 -12.65,-253.2 9.83,-145.9 22.73,-99.74"/>
<polygon fill="#63b8ff" stroke="#63b8ff" points="26.17,-100.45 25.61,-89.87 19.45,-98.49 26.17,-100.45"/>
</a>
</g>
</g>
<!-- Node3 -->
<g id="Node000003" class="node">
<title>Node3</title>
<g id="a_Node000003"><a xlink:title=" ">
<ellipse fill="#e0e0e0" stroke="#999999" cx="126.7" cy="-76.31" rx="31.64" ry="13.37"/>
<text text-anchor="middle" x="126.7" y="-73.81" font-family="Helvetica,sans-Serif" font-size="10.00">utility</text>
</a>
</g>
</g>
<!-- Node1&#45;&gt;Node3 -->
<g id="edge2_Node000001_Node000003" class="edge">
<title>Node1&#45;&gt;Node3</title>
<g id="a_edge2_Node000001_Node000003"><a xlink:title=" ">
<path fill="none" stroke="#63b8ff" d="M91.98,-363.13C75.16,-354.35 58.25,-341.94 48.7,-325.02 4.57,-246.78 76.36,-140.3 110.38,-96.91"/>
<polygon fill="#63b8ff" stroke="#63b8ff" points="113.11,-99.1 116.63,-89.1 107.65,-94.72 113.11,-99.1"/>
</a>
</g>
</g>
<!-- Node4 -->
<g id="Node000004" class="node">
<title>Node4</title>
<g id="a_Node000004"><a xlink:title=" ">
<ellipse fill="#e0e0e0" stroke="#999999" cx="314.7" cy="-303.81" rx="33.47" ry="13.37"/>
<text text-anchor="middle" x="314.7" y="-301.31" font-family="Helvetica,sans-Serif" font-size="10.00">vector</text>
</a>
</g>
</g>
<!-- Node1&#45;&gt;Node4 -->
<g id="edge3_Node000001_Node000004" class="edge">
<title>Node1&#45;&gt;Node4</title>
<g id="a_edge3_Node000001_Node000004"><a xlink:title=" ">
<path fill="none" stroke="#63b8ff" d="M184.02,-362.54C214.98,-348.86 256.26,-330.62 284.07,-318.34"/>
<polygon fill="#63b8ff" stroke="#63b8ff" points="285.58,-321.5 293.31,-314.25 282.75,-315.09 285.58,-321.5"/>
</a>
</g>
</g>
<!-- Node5 -->
<g id="Node000005" class="node">
<title>Node5</title>
<g id="a_Node000005"><a xlink:href="eigen__types_8h.html" target="_top" xlink:title="This file contains abbreviated definitions for certain specializations of Eigen::Matrix that are comm...">
<ellipse fill="white" stroke="#666666" cx="318.7" cy="-225.38" rx="84.29" ry="21.43"/>
<text text-anchor="start" x="267.2" y="-228.38" font-family="Helvetica,sans-Serif" font-size="10.00">drake/common/eigen</text>
<text text-anchor="middle" x="318.7" y="-217.38" font-family="Helvetica,sans-Serif" font-size="10.00">_types.h</text>
</a>
</g>
</g>
<!-- Node1&#45;&gt;Node5 -->
<g id="edge4_Node000001_Node000005" class="edge">
<title>Node1&#45;&gt;Node5</title>
<g id="a_edge4_Node000001_Node000005"><a xlink:title=" ">
<path fill="none" stroke="#63b8ff" d="M179.3,-362.16C197.01,-352.29 217.88,-339.32 234.7,-325.02 241.61,-319.14 273.16,-281.51 295.56,-254.47"/>
<polygon fill="#63b8ff" stroke="#63b8ff" points="298.5,-256.4 302.18,-246.47 293.11,-251.94 298.5,-256.4"/>
</a>
</g>
</g>
<!-- Node19 -->
<g id="Node000019" class="node">
<title>Node19</title>
<g id="a_Node000019"><a xlink:href="quadrature_8h.html" target="_top" xlink:title=" ">
<ellipse fill="white" stroke="#666666" cx="141.7" cy="-303.81" rx="84.29" ry="21.43"/>
<text text-anchor="start" x="90.2" y="-306.81" font-family="Helvetica,sans-Serif" font-size="10.00">drake/multibody/fem</text>
<text text-anchor="middle" x="141.7" y="-295.81" font-family="Helvetica,sans-Serif" font-size="10.00">/quadrature.h</text>
</a>
</g>
</g>
<!-- Node1&#45;&gt;Node19 -->
<g id="edge25_Node000001_Node000019" class="edge">
<title>Node1&#45;&gt;Node19</title>
<g id="a_edge25_Node000001_Node000019"><a xlink:title=" ">
<path fill="none" stroke="#63b8ff" d="M141.7,-360.75C141.7,-352.89 141.7,-343.75 141.7,-335.16"/>
<polygon fill="#63b8ff" stroke="#63b8ff" points="145.2,-335.08 141.7,-325.08 138.2,-335.08 145.2,-335.08"/>
</a>
</g>
</g>
<!-- Node5&#45;&gt;Node3 -->
<g id="edge6_Node000005_Node000003" class="edge">
<title>Node5&#45;&gt;Node3</title>
<g id="a_edge6_Node000005_Node000003"><a xlink:title=" ">
<path fill="none" stroke="#63b8ff" d="M250.1,-212.87C220.07,-204.77 186.37,-191.11 162.7,-168.17 143.8,-149.85 134.58,-120.37 130.26,-99.98"/>
<polygon fill="#63b8ff" stroke="#63b8ff" points="133.67,-99.16 128.37,-89.99 126.79,-100.46 133.67,-99.16"/>
</a>
</g>
</g>
<!-- Node6 -->
<g id="Node000006" class="node">
<title>Node6</title>
<g id="a_Node000006"><a xlink:title=" ">
<ellipse fill="#e0e0e0" stroke="#999999" cx="208.7" cy="-146.95" rx="37.45" ry="13.37"/>
<text text-anchor="middle" x="208.7" y="-144.45" font-family="Helvetica,sans-Serif" font-size="10.00">iterator</text>
</a>
</g>
</g>
<!-- Node5&#45;&gt;Node6 -->
<g id="edge5_Node000005_Node000006" class="edge">
<title>Node5&#45;&gt;Node6</title>
<g id="a_edge5_Node000005_Node000006"><a xlink:title=" ">
<path fill="none" stroke="#63b8ff" d="M291.22,-205.29C273.45,-192.94 250.51,-177 233.33,-165.07"/>
<polygon fill="#63b8ff" stroke="#63b8ff" points="235.14,-162.06 224.93,-159.23 231.14,-167.81 235.14,-162.06"/>
</a>
</g>
</g>
<!-- Node7 -->
<g id="Node000007" class="node">
<title>Node7</title>
<g id="a_Node000007"><a xlink:title=" ">
<ellipse fill="#e0e0e0" stroke="#999999" cx="318.7" cy="-146.95" rx="54.39" ry="13.37"/>
<text text-anchor="middle" x="318.7" y="-144.45" font-family="Helvetica,sans-Serif" font-size="10.00">Eigen/Dense</text>
</a>
</g>
</g>
<!-- Node5&#45;&gt;Node7 -->
<g id="edge7_Node000005_Node000007" class="edge">
<title>Node5&#45;&gt;Node7</title>
<g id="a_edge7_Node000005_Node000007"><a xlink:title=" ">
<path fill="none" stroke="#63b8ff" d="M318.7,-203.9C318.7,-193.66 318.7,-181.24 318.7,-170.7"/>
<polygon fill="#63b8ff" stroke="#63b8ff" points="322.2,-170.58 318.7,-160.58 315.2,-170.58 322.2,-170.58"/>
</a>
</g>
</g>
<!-- Node8 -->
<g id="Node000008" class="node">
<title>Node8</title>
<g id="a_Node000008"><a xlink:href="constants_8h.html" target="_top" xlink:title=" ">
<ellipse fill="white" stroke="#666666" cx="683.7" cy="-146.95" rx="105.22" ry="13.37"/>
<text text-anchor="middle" x="683.7" y="-144.45" font-family="Helvetica,sans-Serif" font-size="10.00">drake/common/constants.h</text>
</a>
</g>
</g>
<!-- Node5&#45;&gt;Node8 -->
<g id="edge8_Node000005_Node000008" class="edge">
<title>Node5&#45;&gt;Node8</title>
<g id="a_edge8_Node000005_Node000008"><a xlink:title=" ">
<path fill="none" stroke="#63b8ff" d="M381.44,-211.24C448.91,-197.11 555.47,-174.8 622.38,-160.79"/>
<polygon fill="#63b8ff" stroke="#63b8ff" points="623.29,-164.18 632.36,-158.7 621.86,-157.33 623.29,-164.18"/>
</a>
</g>
</g>
<!-- Node9 -->
<g id="Node000009" class="node">
<title>Node9</title>
<g id="a_Node000009"><a xlink:href="drake__assert_8h.html" target="_top" xlink:title="Provides Drake&#39;s assertion mechanics.">
<ellipse fill="white" stroke="#666666" cx="475.7" cy="-146.95" rx="84.29" ry="21.43"/>
<text text-anchor="start" x="424.2" y="-149.95" font-family="Helvetica,sans-Serif" font-size="10.00">drake/common/drake</text>
<text text-anchor="middle" x="475.7" y="-138.95" font-family="Helvetica,sans-Serif" font-size="10.00">_assert.h</text>
</a>
</g>
</g>
<!-- Node5&#45;&gt;Node9 -->
<g id="edge9_Node000005_Node000009" class="edge">
<title>Node5&#45;&gt;Node9</title>
<g id="a_edge9_Node000005_Node000009"><a xlink:title=" ">
<path fill="none" stroke="#63b8ff" d="M355.91,-206.27C377.92,-195.55 405.99,-181.89 429.42,-170.48"/>
<polygon fill="#63b8ff" stroke="#63b8ff" points="431.03,-173.59 438.49,-166.07 427.96,-167.3 431.03,-173.59"/>
</a>
</g>
</g>
<!-- Node13 -->
<g id="Node000013" class="node">
<title>Node13</title>
<g id="a_Node000013"><a xlink:href="drake__copyable_8h.html" target="_top" xlink:title="Provides careful macros to selectively enable or disable the special member functions for copy&#45;constr...">
<ellipse fill="white" stroke="#666666" cx="891.7" cy="-146.95" rx="84.29" ry="21.43"/>
<text text-anchor="start" x="840.2" y="-149.95" font-family="Helvetica,sans-Serif" font-size="10.00">drake/common/drake</text>
<text text-anchor="middle" x="891.7" y="-138.95" font-family="Helvetica,sans-Serif" font-size="10.00">_copyable.h</text>
</a>
</g>
</g>
<!-- Node5&#45;&gt;Node13 -->
<g id="edge15_Node000005_Node000013" class="edge">
<title>Node5&#45;&gt;Node13</title>
<g id="a_edge15_Node000005_Node000013"><a xlink:title=" ">
<path fill="none" stroke="#63b8ff" d="M397.01,-217.49C492.12,-208.6 657.27,-191.45 797.7,-168.17 805.4,-166.89 813.42,-165.41 821.39,-163.83"/>
<polygon fill="#63b8ff" stroke="#63b8ff" points="822.33,-167.21 831.43,-161.8 820.94,-160.35 822.33,-167.21"/>
</a>
</g>
</g>
<!-- Node14 -->
<g id="Node000014" class="node">
<title>Node14</title>
<g id="a_Node000014"><a xlink:href="fmt__eigen_8h.html" target="_top" xlink:title=" ">
<ellipse fill="white" stroke="#666666" cx="1100.7" cy="-146.95" rx="106.55" ry="13.37"/>
<text text-anchor="middle" x="1100.7" y="-144.45" font-family="Helvetica,sans-Serif" font-size="10.00">drake/common/fmt_eigen.h</text>
</a>
</g>
</g>
<!-- Node5&#45;&gt;Node14 -->
<g id="edge16_Node000005_Node000014" class="edge">
<title>Node5&#45;&gt;Node14</title>
<g id="a_edge16_Node000005_Node000014"><a xlink:title=" ">
<path fill="none" stroke="#63b8ff" d="M399.93,-219.84C525.63,-212.3 774.67,-195.27 984.7,-168.17 1001.32,-166.02 1019.19,-163.18 1035.81,-160.3"/>
<polygon fill="#63b8ff" stroke="#63b8ff" points="1036.73,-163.69 1045.97,-158.51 1035.52,-156.8 1036.73,-163.69"/>
</a>
</g>
</g>
<!-- Node9&#45;&gt;Node2 -->
<g id="edge10_Node000009_Node000002" class="edge">
<title>Node9&#45;&gt;Node2</title>
<g id="a_edge10_Node000009_Node000002"><a xlink:title=" ">
<path fill="none" stroke="#63b8ff" d="M415.43,-132.15C404.25,-129.83 392.65,-127.58 381.7,-125.74 251,-103.79 216.32,-112.13 85.7,-89.74 78.91,-88.58 71.69,-87.13 64.78,-85.65"/>
<polygon fill="#63b8ff" stroke="#63b8ff" points="65.48,-82.22 54.96,-83.46 63.97,-89.05 65.48,-82.22"/>
</a>
</g>
</g>
<!-- Node9&#45;&gt;Node3 -->
<g id="edge14_Node000009_Node000003" class="edge">
<title>Node9&#45;&gt;Node3</title>
<g id="a_edge14_Node000009_Node000003"><a xlink:title=" ">
<path fill="none" stroke="#63b8ff" d="M414.06,-132.48C403.28,-130.18 392.17,-127.86 381.7,-125.74 305,-110.21 215.03,-93.46 165.08,-84.3"/>
<polygon fill="#63b8ff" stroke="#63b8ff" points="165.51,-80.82 155.04,-82.46 164.25,-87.7 165.51,-80.82"/>
</a>
</g>
</g>
<!-- Node10 -->
<g id="Node000010" class="node">
<title>Node10</title>
<g id="a_Node000010"><a xlink:title=" ">
<ellipse fill="#e0e0e0" stroke="#999999" cx="816.7" cy="-13.44" rx="31.23" ry="13.37"/>
<text text-anchor="middle" x="816.7" y="-10.94" font-family="Helvetica,sans-Serif" font-size="10.00">string</text>
</a>
</g>
</g>
<!-- Node9&#45;&gt;Node10 -->
<g id="edge11_Node000009_Node000010" class="edge">
<title>Node9&#45;&gt;Node10</title>
<g id="a_edge11_Node000009_Node000010"><a xlink:title=" ">
<path fill="none" stroke="#63b8ff" d="M483.96,-125.66C492.96,-106.28 509.27,-77.86 532.7,-62.87 572.37,-37.49 707.38,-23.24 775.98,-17.48"/>
<polygon fill="#63b8ff" stroke="#63b8ff" points="776.31,-20.96 785.99,-16.66 775.74,-13.99 776.31,-20.96"/>
</a>
</g>
</g>
<!-- Node11 -->
<g id="Node000011" class="node">
<title>Node11</title>
<g id="a_Node000011"><a xlink:title=" ">
<ellipse fill="#e0e0e0" stroke="#999999" cx="570.7" cy="-76.31" rx="28.98" ry="13.37"/>
<text text-anchor="middle" x="570.7" y="-73.81" font-family="Helvetica,sans-Serif" font-size="10.00">tuple</text>
</a>
</g>
</g>
<!-- Node9&#45;&gt;Node11 -->
<g id="edge12_Node000009_Node000011" class="edge">
<title>Node9&#45;&gt;Node11</title>
<g id="a_edge12_Node000009_Node000011"><a xlink:title=" ">
<path fill="none" stroke="#63b8ff" d="M502.41,-126.65C516.64,-116.37 533.96,-103.85 547.6,-93.99"/>
<polygon fill="#63b8ff" stroke="#63b8ff" points="549.91,-96.65 555.96,-87.95 545.81,-90.97 549.91,-96.65"/>
</a>
</g>
</g>
<!-- Node12 -->
<g id="Node000012" class="node">
<title>Node12</title>
<g id="a_Node000012"><a xlink:title=" ">
<ellipse fill="#e0e0e0" stroke="#999999" cx="625.7" cy="-13.44" rx="48.58" ry="13.37"/>
<text text-anchor="middle" x="625.7" y="-10.94" font-family="Helvetica,sans-Serif" font-size="10.00">type_traits</text>
</a>
</g>
</g>
<!-- Node9&#45;&gt;Node12 -->
<g id="edge13_Node000009_Node000012" class="edge">
<title>Node9&#45;&gt;Node12</title>
<g id="a_edge13_Node000009_Node000012"><a xlink:title=" ">
<path fill="none" stroke="#63b8ff" d="M476.57,-125.72C478.41,-107.2 483.86,-80.13 499.7,-62.87 519.07,-41.76 548.68,-29.76 574.33,-22.99"/>
<polygon fill="#63b8ff" stroke="#63b8ff" points="575.42,-26.33 584.3,-20.57 573.76,-19.53 575.42,-26.33"/>
</a>
</g>
</g>
<!-- Node14&#45;&gt;Node10 -->
<g id="edge17_Node000014_Node000010" class="edge">
<title>Node14&#45;&gt;Node10</title>
<g id="a_edge17_Node000014_Node000010"><a xlink:title=" ">
<path fill="none" stroke="#63b8ff" d="M1043.99,-135.5C968.41,-121.34 843.24,-97 835.7,-89.74 821.67,-76.24 817.42,-54.02 816.39,-37.2"/>
<polygon fill="#63b8ff" stroke="#63b8ff" points="819.88,-36.98 816.1,-27.08 812.88,-37.18 819.88,-36.98"/>
</a>
</g>
</g>
<!-- Node15 -->
<g id="Node000015" class="node">
<title>Node15</title>
<g id="a_Node000015"><a xlink:title=" ">
<ellipse fill="#e0e0e0" stroke="#999999" cx="1156.7" cy="-13.44" rx="51.74" ry="13.37"/>
<text text-anchor="middle" x="1156.7" y="-10.94" font-family="Helvetica,sans-Serif" font-size="10.00">string_view</text>
</a>
</g>
</g>
<!-- Node14&#45;&gt;Node15 -->
<g id="edge18_Node000014_Node000015" class="edge">
<title>Node14&#45;&gt;Node15</title>
<g id="a_edge18_Node000014_Node000015"><a xlink:title=" ">
<path fill="none" stroke="#63b8ff" d="M1110.84,-133.27C1119.15,-122.32 1130.64,-105.78 1137.7,-89.74 1145.13,-72.86 1150.04,-52.52 1153.01,-37.23"/>
<polygon fill="#63b8ff" stroke="#63b8ff" points="1156.5,-37.58 1154.83,-27.12 1149.61,-36.34 1156.5,-37.58"/>
</a>
</g>
</g>
<!-- Node16 -->
<g id="Node000016" class="node">
<title>Node16</title>
<g id="a_Node000016"><a xlink:title=" ">
<ellipse fill="#e0e0e0" stroke="#999999" cx="893.7" cy="-76.31" rx="48.58" ry="13.37"/>
<text text-anchor="middle" x="893.7" y="-73.81" font-family="Helvetica,sans-Serif" font-size="10.00">Eigen/Core</text>
</a>
</g>
</g>
<!-- Node14&#45;&gt;Node16 -->
<g id="edge19_Node000014_Node000016" class="edge">
<title>Node14&#45;&gt;Node16</title>
<g id="a_edge19_Node000014_Node000016"><a xlink:title=" ">
<path fill="none" stroke="#63b8ff" d="M1065.11,-134.15C1028.29,-121.94 970.94,-102.92 932.85,-90.29"/>
<polygon fill="#63b8ff" stroke="#63b8ff" points="933.73,-86.89 923.13,-87.07 931.52,-93.54 933.73,-86.89"/>
</a>
</g>
</g>
<!-- Node17 -->
<g id="Node000017" class="node">
<title>Node17</title>
<g id="a_Node000017"><a xlink:href="fmt_8h.html" target="_top" xlink:title=" ">
<ellipse fill="white" stroke="#666666" cx="1044.7" cy="-76.31" rx="84.29" ry="13.37"/>
<text text-anchor="middle" x="1044.7" y="-73.81" font-family="Helvetica,sans-Serif" font-size="10.00">drake/common/fmt.h</text>
</a>
</g>
</g>
<!-- Node14&#45;&gt;Node17 -->
<g id="edge20_Node000014_Node000017" class="edge">
<title>Node14&#45;&gt;Node17</title>
<g id="a_edge20_Node000014_Node000017"><a xlink:title=" ">
<path fill="none" stroke="#63b8ff" d="M1090.43,-133.36C1082.3,-123.4 1070.78,-109.27 1061.34,-97.7"/>
<polygon fill="#63b8ff" stroke="#63b8ff" points="1063.94,-95.35 1054.9,-89.82 1058.51,-99.78 1063.94,-95.35"/>
</a>
</g>
</g>
<!-- Node17&#45;&gt;Node10 -->
<g id="edge21_Node000017_Node000010" class="edge">
<title>Node17&#45;&gt;Node10</title>
<g id="a_edge21_Node000017_Node000010"><a xlink:title=" ">
<path fill="none" stroke="#63b8ff" d="M1004.2,-64.49C961.02,-52.97 893.33,-34.89 852.18,-23.91"/>
<polygon fill="#63b8ff" stroke="#63b8ff" points="852.88,-20.47 842.32,-21.27 851.08,-27.24 852.88,-20.47"/>
</a>
</g>
</g>
<!-- Node17&#45;&gt;Node12 -->
<g id="edge23_Node000017_Node000012" class="edge">
<title>Node17&#45;&gt;Node12</title>
<g id="a_edge23_Node000017_Node000012"><a xlink:title=" ">
<path fill="none" stroke="#63b8ff" d="M985.55,-66.71C903.3,-54.76 755.69,-33.32 677.53,-21.97"/>
<polygon fill="#63b8ff" stroke="#63b8ff" points="677.84,-18.47 667.44,-20.5 676.83,-25.4 677.84,-18.47"/>
</a>
</g>
</g>
<!-- Node17&#45;&gt;Node15 -->
<g id="edge22_Node000017_Node000015" class="edge">
<title>Node17&#45;&gt;Node15</title>
<g id="a_edge22_Node000017_Node000015"><a xlink:title=" ">
<path fill="none" stroke="#63b8ff" d="M1066.83,-63.28C1084.03,-53.93 1108.06,-40.87 1126.95,-30.6"/>
<polygon fill="#63b8ff" stroke="#63b8ff" points="1128.64,-33.67 1135.75,-25.82 1125.3,-27.52 1128.64,-33.67"/>
</a>
</g>
</g>
<!-- Node18 -->
<g id="Node000018" class="node">
<title>Node18</title>
<g id="a_Node000018"><a xlink:title=" ">
<ellipse fill="#e0e0e0" stroke="#999999" cx="1031.7" cy="-13.44" rx="55.72" ry="13.37"/>
<text text-anchor="middle" x="1031.7" y="-10.94" font-family="Helvetica,sans-Serif" font-size="10.00">fmt/format.h</text>
</a>
</g>
</g>
<!-- Node17&#45;&gt;Node18 -->
<g id="edge24_Node000017_Node000018" class="edge">
<title>Node17&#45;&gt;Node18</title>
<g id="a_edge24_Node000017_Node000018"><a xlink:title=" ">
<path fill="none" stroke="#63b8ff" d="M1042,-62.69C1040.42,-55.27 1038.37,-45.65 1036.51,-36.96"/>
<polygon fill="#63b8ff" stroke="#63b8ff" points="1039.9,-36.08 1034.39,-27.03 1033.05,-37.54 1039.9,-36.08"/>
</a>
</g>
</g>
<!-- Node19&#45;&gt;Node2 -->
<g id="edge26_Node000019_Node000002" class="edge">
<title>Node19&#45;&gt;Node2</title>
<g id="a_edge26_Node000019_Node000002"><a xlink:title=" ">
<path fill="none" stroke="#63b8ff" d="M131.56,-282.4C110.43,-239.85 61.85,-142.04 40.31,-98.68"/>
<polygon fill="#63b8ff" stroke="#63b8ff" points="43.38,-96.98 35.8,-89.58 37.11,-100.1 43.38,-96.98"/>
</a>
</g>
</g>
<!-- Node19&#45;&gt;Node3 -->
<g id="edge27_Node000019_Node000003" class="edge">
<title>Node19&#45;&gt;Node3</title>
<g id="a_edge27_Node000019_Node000003"><a xlink:title=" ">
<path fill="none" stroke="#63b8ff" d="M140.34,-282.4C137.54,-240.31 131.14,-144.14 128.21,-100.09"/>
<polygon fill="#63b8ff" stroke="#63b8ff" points="131.69,-99.59 127.53,-89.85 124.7,-100.06 131.69,-99.59"/>
</a>
</g>
</g>
<!-- Node19&#45;&gt;Node5 -->
<g id="edge28_Node000019_Node000005" class="edge">
<title>Node19&#45;&gt;Node5</title>
<g id="a_edge28_Node000019_Node000005"><a xlink:title=" ">
<path fill="none" stroke="#63b8ff" d="M182.75,-285.08C208.33,-274.04 241.42,-259.75 268.54,-248.04"/>
<polygon fill="#63b8ff" stroke="#63b8ff" points="270.08,-251.19 277.87,-244.01 267.3,-244.76 270.08,-251.19"/>
</a>
</g>
</g>
</g>
</svg>

<g id="navigator" transform="translate(0 0)" fill="#404254">
  <rect fill="#f2f5e9" fill-opacity="0.5" stroke="#606060" stroke-width=".5" x="0" y="0" width="60" height="60"/>
  <use id="zoomplus" xlink:href="#zoomPlus" x="17" y="9" onmousedown="handleZoom(evt,'in')"/>
  <use id="zoomminus" xlink:href="#zoomMin" x="42" y="9" onmousedown="handleZoom(evt,'out')"/>
  <use id="reset" xlink:href="#resetDef" x="30" y="36" onmousedown="handleReset()"/>
   <use id="arrowup" xlink:href="#arrowUp" x="0" y="0" onmousedown="handlePan(0,-1)"/>
  <use id="arrowright" xlink:href="#arrowRight" x="0" y="0" onmousedown="handlePan(1,0)"/>
  <use id="arrowdown" xlink:href="#arrowDown" x="0" y="0" onmousedown="handlePan(0,1)"/>
  <use id="arrowleft" xlink:href="#arrowLeft" x="0" y="0" onmousedown="handlePan(-1,0)"/>
</g>
<svg viewBox="0 0 15 15" width="100%" height="30px" preserveAspectRatio="xMaxYMin meet">
 <g id="arrow_out" transform="scale(0.3 0.3)">
  <a xlink:href="tet__subdivision__quadrature_8h__incl_org.svg" target="_base">
   <rect id="button" ry="5" rx="5" y="6" x="6" height="38" width="38"
        fill="#f2f5e9" fill-opacity="0.5" stroke="#606060" stroke-width="1.0"/>
   <path id="arrow"
     d="M 11.500037,31.436501 C 11.940474,20.09759 22.043105,11.32322 32.158766,21.979434 L 37.068811,17.246167 C 37.068811,17.246167 37.088388,32 37.088388,32 L 22.160133,31.978069 C 22.160133,31.978069 26.997745,27.140456 26.997745,27.140456 C 18.528582,18.264221 13.291696,25.230495 11.500037,31.436501 z"
     style="fill:#404040;"/>
  </a>
 </g>
</svg>

<style type='text/css'>
<![CDATA[
[data-mouse-over-selected='false'] { opacity: 0.7; }
[data-mouse-over-selected='true']  { opacity: 1.0; }
]]>
</style>
<script type="application/ecmascript"><![CDATA[
document.addEventListener('DOMContentLoaded', (event) => {
  highlightEdges();
  highlightAdjacentNodes();
});
]]></script>
</svg>
