<?xml version="1.0" encoding="UTF-8" standalone="no"?>
<!DOCTYPE svg PUBLIC "-//W3C//DTD SVG 1.1//EN"
 "http://www.w3.org/Graphics/SVG/1.1/DTD/svg11.dtd">
<!-- Generated by graphviz version 2.43.0 (0)
 -->
<!-- Title: drake/common/schema/transform.h Pages: 1 -->
<svg width="324pt" height="173pt"
 viewBox="0.00 0.00 324.00 173.00" xmlns="http://www.w3.org/2000/svg" xmlns:xlink="http://www.w3.org/1999/xlink">
<g id="graph0" class="graph" transform="scale(1 1) rotate(0) translate(4 169)">
<title>drake/common/schema/transform.h</title>
<polygon fill="white" stroke="transparent" points="-4,4 -4,-169 320,-169 320,4 -4,4"/>
<!-- Node67 -->
<g id="node1" class="node">
<title>Node67</title>
<g id="a_node1"><a xlink:title=" ">
<polygon fill="#bfbfbf" stroke="black" points="89,-134.5 89,-164.5 220,-164.5 220,-134.5 89,-134.5"/>
<text text-anchor="start" x="97" y="-152.5" font-family="Helvetica,sans-Serif" font-size="10.00">drake/common/schema</text>
<text text-anchor="middle" x="154.5" y="-141.5" font-family="Helvetica,sans-Serif" font-size="10.00">/transform.h</text>
</a>
</g>
</g>
<!-- Node68 -->
<g id="node2" class="node">
<title>Node68</title>
<g id="a_node2"><a xlink:href="model__directives_8h.html" target="_top" xlink:title="Defines the YAML schema for the model directives language, which is used to assemble multiple SDF and...">
<polygon fill="white" stroke="black" points="87,-67.5 87,-97.5 222,-97.5 222,-67.5 87,-67.5"/>
<text text-anchor="start" x="95" y="-85.5" font-family="Helvetica,sans-Serif" font-size="10.00">drake/multibody/parsing</text>
<text text-anchor="middle" x="154.5" y="-74.5" font-family="Helvetica,sans-Serif" font-size="10.00">/model_directives.h</text>
</a>
</g>
</g>
<!-- Node67&#45;&gt;Node68 -->
<g id="edge1" class="edge">
<title>Node67&#45;&gt;Node68</title>
<path fill="none" stroke="midnightblue" d="M154.5,-124.11C154.5,-115.15 154.5,-105.32 154.5,-97.58"/>
<polygon fill="midnightblue" stroke="midnightblue" points="151,-124.4 154.5,-134.4 158,-124.4 151,-124.4"/>
</g>
<!-- Node69 -->
<g id="node3" class="node">
<title>Node69</title>
<g id="a_node3"><a xlink:href="scenario_8h.html" target="_top" xlink:title=" ">
<polygon fill="white" stroke="black" points="0,-0.5 0,-30.5 143,-30.5 143,-0.5 0,-0.5"/>
<text text-anchor="start" x="8" y="-18.5" font-family="Helvetica,sans-Serif" font-size="10.00">drake/examples/hardware</text>
<text text-anchor="middle" x="71.5" y="-7.5" font-family="Helvetica,sans-Serif" font-size="10.00">_sim/scenario.h</text>
</a>
</g>
</g>
<!-- Node68&#45;&gt;Node69 -->
<g id="edge2" class="edge">
<title>Node68&#45;&gt;Node69</title>
<path fill="none" stroke="midnightblue" d="M128.54,-61.17C115.85,-51.23 100.89,-39.51 89.47,-30.58"/>
<polygon fill="midnightblue" stroke="midnightblue" points="126.46,-63.99 136.49,-67.4 130.78,-58.47 126.46,-63.99"/>
</g>
<!-- Node70 -->
<g id="node4" class="node">
<title>Node70</title>
<g id="a_node4"><a xlink:href="process__model__directives_8h.html" target="_top" xlink:title=" ">
<polygon fill="white" stroke="black" points="161,-0.5 161,-30.5 316,-30.5 316,-0.5 161,-0.5"/>
<text text-anchor="start" x="169" y="-18.5" font-family="Helvetica,sans-Serif" font-size="10.00">drake/multibody/parsing</text>
<text text-anchor="middle" x="238.5" y="-7.5" font-family="Helvetica,sans-Serif" font-size="10.00">/process_model_directives.h</text>
</a>
</g>
</g>
<!-- Node68&#45;&gt;Node70 -->
<g id="edge3" class="edge">
<title>Node68&#45;&gt;Node70</title>
<path fill="none" stroke="midnightblue" d="M180.78,-61.17C193.62,-51.23 208.76,-39.51 220.31,-30.58"/>
<polygon fill="midnightblue" stroke="midnightblue" points="178.49,-58.51 172.73,-67.4 182.78,-64.04 178.49,-58.51"/>
</g>
</g>
</svg>
