<?xml version="1.0" encoding="UTF-8" standalone="no"?>
<!DOCTYPE svg PUBLIC "-//W3C//DTD SVG 1.1//EN"
 "http://www.w3.org/Graphics/SVG/1.1/DTD/svg11.dtd">
<!-- Generated by graphviz version 2.43.0 (0)
 -->
<!-- Title: drake/bindings/pydrake/common/type_pack.h Pages: 1 -->
<svg width="457pt" height="329pt"
 viewBox="0.00 0.00 457.00 329.00" xmlns="http://www.w3.org/2000/svg" xmlns:xlink="http://www.w3.org/1999/xlink">
<g id="graph0" class="graph" transform="scale(1 1) rotate(0) translate(4 325)">
<title>drake/bindings/pydrake/common/type_pack.h</title>
<polygon fill="white" stroke="transparent" points="-4,4 -4,-325 453,-325 453,4 -4,4"/>
<!-- Node6 -->
<g id="node1" class="node">
<title>Node6</title>
<g id="a_node1"><a xlink:title="Basic meta&#45;programming utilities for types, focused on template parameter packs.">
<polygon fill="#bfbfbf" stroke="black" points="220,-290.5 220,-320.5 350,-320.5 350,-290.5 220,-290.5"/>
<text text-anchor="start" x="228" y="-308.5" font-family="Helvetica,sans-Serif" font-size="10.00">drake/bindings/pydrake</text>
<text text-anchor="middle" x="285" y="-297.5" font-family="Helvetica,sans-Serif" font-size="10.00">/common/type_pack.h</text>
</a>
</g>
</g>
<!-- Node7 -->
<g id="node2" class="node">
<title>Node7</title>
<g id="a_node2"><a xlink:href="cpp__param__pybind_8h.html" target="_top" xlink:title="Provides a mechanism to map C++ types to canonical Python types.">
<polygon fill="white" stroke="black" points="142.5,-223.5 142.5,-253.5 309.5,-253.5 309.5,-223.5 142.5,-223.5"/>
<text text-anchor="start" x="150.5" y="-241.5" font-family="Helvetica,sans-Serif" font-size="10.00">drake/bindings/pydrake</text>
<text text-anchor="middle" x="226" y="-230.5" font-family="Helvetica,sans-Serif" font-size="10.00">/common/cpp_param_pybind.h</text>
</a>
</g>
</g>
<!-- Node6&#45;&gt;Node7 -->
<g id="edge1" class="edge">
<title>Node6&#45;&gt;Node7</title>
<path fill="none" stroke="midnightblue" d="M265.25,-282.74C256.52,-273.12 246.5,-262.09 238.78,-253.58"/>
<polygon fill="midnightblue" stroke="midnightblue" points="262.89,-285.34 272.2,-290.4 268.07,-280.64 262.89,-285.34"/>
</g>
<!-- Node9 -->
<g id="node4" class="node">
<title>Node9</title>
<g id="a_node4"><a xlink:href="default__scalars__pybind_8h.html" target="_top" xlink:title="Helpers for defining scalars and values.">
<polygon fill="white" stroke="black" points="309,-78.5 309,-119.5 449,-119.5 449,-78.5 309,-78.5"/>
<text text-anchor="start" x="317" y="-107.5" font-family="Helvetica,sans-Serif" font-size="10.00">drake/bindings/pydrake</text>
<text text-anchor="start" x="317" y="-96.5" font-family="Helvetica,sans-Serif" font-size="10.00">/common/default_scalars</text>
<text text-anchor="middle" x="379" y="-85.5" font-family="Helvetica,sans-Serif" font-size="10.00">_pybind.h</text>
</a>
</g>
</g>
<!-- Node6&#45;&gt;Node9 -->
<g id="edge8" class="edge">
<title>Node6&#45;&gt;Node9</title>
<path fill="none" stroke="midnightblue" d="M301.61,-282.14C307.54,-273.59 313.98,-263.59 319,-254 343.21,-207.73 363.32,-149.41 372.93,-119.57"/>
<polygon fill="midnightblue" stroke="midnightblue" points="298.65,-280.26 295.7,-290.44 304.35,-284.32 298.65,-280.26"/>
</g>
<!-- Node8 -->
<g id="node3" class="node">
<title>Node8</title>
<g id="a_node3"><a xlink:href="cpp__template__pybind_8h.html" target="_top" xlink:title=" ">
<polygon fill="white" stroke="black" points="136.5,-156.5 136.5,-186.5 315.5,-186.5 315.5,-156.5 136.5,-156.5"/>
<text text-anchor="start" x="144.5" y="-174.5" font-family="Helvetica,sans-Serif" font-size="10.00">drake/bindings/pydrake</text>
<text text-anchor="middle" x="226" y="-163.5" font-family="Helvetica,sans-Serif" font-size="10.00">/common/cpp_template_pybind.h</text>
</a>
</g>
</g>
<!-- Node7&#45;&gt;Node8 -->
<g id="edge2" class="edge">
<title>Node7&#45;&gt;Node8</title>
<path fill="none" stroke="midnightblue" d="M226,-213.11C226,-204.15 226,-194.32 226,-186.58"/>
<polygon fill="midnightblue" stroke="midnightblue" points="222.5,-213.4 226,-223.4 229.5,-213.4 222.5,-213.4"/>
</g>
<!-- Node10 -->
<g id="node5" class="node">
<title>Node10</title>
<g id="a_node5"><a xlink:href="value__pybind_8h.html" target="_top" xlink:title="Helpers for defining instantiations of drake::Value&lt;&gt;.">
<polygon fill="white" stroke="black" points="3,-84 3,-114 143,-114 143,-84 3,-84"/>
<text text-anchor="start" x="11" y="-102" font-family="Helvetica,sans-Serif" font-size="10.00">drake/bindings/pydrake</text>
<text text-anchor="middle" x="73" y="-91" font-family="Helvetica,sans-Serif" font-size="10.00">/common/value_pybind.h</text>
</a>
</g>
</g>
<!-- Node7&#45;&gt;Node10 -->
<g id="edge7" class="edge">
<title>Node7&#45;&gt;Node10</title>
<path fill="none" stroke="midnightblue" d="M177.4,-219.15C160.18,-211.06 141.5,-200.33 127,-187 104.1,-165.94 87.27,-133.02 78.92,-114.29"/>
<polygon fill="midnightblue" stroke="midnightblue" points="176.22,-222.46 186.78,-223.36 179.1,-216.07 176.22,-222.46"/>
</g>
<!-- Node8&#45;&gt;Node9 -->
<g id="edge3" class="edge">
<title>Node8&#45;&gt;Node9</title>
<path fill="none" stroke="midnightblue" d="M265.87,-152.13C287.59,-142.12 314.47,-129.73 336.58,-119.55"/>
<polygon fill="midnightblue" stroke="midnightblue" points="264.21,-149.04 256.59,-156.4 267.14,-155.4 264.21,-149.04"/>
</g>
<!-- Node8&#45;&gt;Node10 -->
<g id="edge4" class="edge">
<title>Node8&#45;&gt;Node10</title>
<path fill="none" stroke="midnightblue" d="M186.26,-152.19C160.44,-140.29 127.29,-125.02 103.54,-114.07"/>
<polygon fill="midnightblue" stroke="midnightblue" points="184.86,-155.4 195.41,-156.4 187.79,-149.04 184.86,-155.4"/>
</g>
<!-- Node12 -->
<g id="node7" class="node">
<title>Node12</title>
<g id="a_node7"><a xlink:href="lcm__pybind_8h.html" target="_top" xlink:title="Helpers for defining C++ LCM type serializers.">
<polygon fill="white" stroke="black" points="161,-84 161,-114 291,-114 291,-84 161,-84"/>
<text text-anchor="start" x="169" y="-102" font-family="Helvetica,sans-Serif" font-size="10.00">drake/bindings/pydrake</text>
<text text-anchor="middle" x="226" y="-91" font-family="Helvetica,sans-Serif" font-size="10.00">/systems/lcm_pybind.h</text>
</a>
</g>
</g>
<!-- Node8&#45;&gt;Node12 -->
<g id="edge6" class="edge">
<title>Node8&#45;&gt;Node12</title>
<path fill="none" stroke="midnightblue" d="M226,-146.23C226,-135.57 226,-123.41 226,-114.25"/>
<polygon fill="midnightblue" stroke="midnightblue" points="222.5,-146.23 226,-156.23 229.5,-146.23 222.5,-146.23"/>
</g>
<!-- Node11 -->
<g id="node6" class="node">
<title>Node11</title>
<g id="a_node6"><a xlink:href="type__safe__index__pybind_8h.html" target="_top" xlink:title=" ">
<polygon fill="white" stroke="black" points="0,-0.5 0,-41.5 146,-41.5 146,-0.5 0,-0.5"/>
<text text-anchor="start" x="8" y="-29.5" font-family="Helvetica,sans-Serif" font-size="10.00">drake/bindings/pydrake</text>
<text text-anchor="start" x="8" y="-18.5" font-family="Helvetica,sans-Serif" font-size="10.00">/common/type_safe_index</text>
<text text-anchor="middle" x="73" y="-7.5" font-family="Helvetica,sans-Serif" font-size="10.00">_pybind.h</text>
</a>
</g>
</g>
<!-- Node10&#45;&gt;Node11 -->
<g id="edge5" class="edge">
<title>Node10&#45;&gt;Node11</title>
<path fill="none" stroke="midnightblue" d="M73,-73.66C73,-63.33 73,-51.44 73,-41.68"/>
<polygon fill="midnightblue" stroke="midnightblue" points="69.5,-73.7 73,-83.7 76.5,-73.71 69.5,-73.7"/>
</g>
</g>
</svg>
