<?xml version="1.0" encoding="UTF-8" standalone="no"?>
<!DOCTYPE svg PUBLIC "-//W3C//DTD SVG 1.1//EN"
 "http://www.w3.org/Graphics/SVG/1.1/DTD/svg11.dtd">
<!-- Generated by graphviz version 2.43.0 (0)
 -->
<!-- Title: drake/visualization/visualization_config.h Pages: 1 -->
<!--zoomable 341 -->
<svg id="main" version="1.1" xmlns="http://www.w3.org/2000/svg" xmlns:xlink="http://www.w3.org/1999/xlink" xml:space="preserve" onload="init(evt)">
<style type="text/css"><![CDATA[
.edge:hover path { stroke: red; }
.edge:hover polygon { stroke: red; fill: red; }
]]></style>
<script type="text/javascript"><![CDATA[
var edges = document.getElementsByTagName('g');
if (edges && edges.length) {
  for (var i=0;i<edges.length;i++) {
    if (edges[i].id.substr(0,4)=='edge') {
      edges[i].setAttribute('class','edge');
    }
  }
}
]]></script>
        <defs>
                <circle id="rim" cx="0" cy="0" r="7"/>
                <circle id="rim2" cx="0" cy="0" r="3.5"/>
                <g id="zoomPlus">
                        <use xlink:href="#rim" fill="#404040">
                                <set attributeName="fill" to="#808080" begin="zoomplus.mouseover" end="zoomplus.mouseout"/>
                        </use>
                        <path d="M-4,0h8M0,-4v8" fill="none" stroke="white" stroke-width="1.5" pointer-events="none"/>
                </g>
                <g id="zoomMin">
                        <use xlink:href="#rim" fill="#404040">
                                <set attributeName="fill" to="#808080" begin="zoomminus.mouseover" end="zoomminus.mouseout"/>
                        </use>
                        <path d="M-4,0h8" fill="none" stroke="white" stroke-width="1.5" pointer-events="none"/>
                </g>
                <g id="dirArrow">
                        <path fill="none" stroke="white" stroke-width="1.5" d="M0,-3.0v7 M-2.5,-0.5L0,-3.0L2.5,-0.5"/>
                </g>
               <g id="resetDef">
                       <use xlink:href="#rim2" fill="#404040">
                               <set attributeName="fill" to="#808080" begin="reset.mouseover" end="reset.mouseout"/>
                       </use>
               </g>
        </defs>

<script type="text/javascript">
var viewWidth = 787;
var viewHeight = 341;
var sectionId = 'dynsection-0';
</script>
<script xlink:href="svgpan.js"/>
<svg id="graph" class="graph">
<g id="viewport">
<title>drake/visualization/visualization_config.h</title>
<polygon fill="white" stroke="transparent" points="-4,4 -4,-337 782.5,-337 782.5,4 -4,4"/>
<!-- Node0 -->
<g id="node1" class="node">
<title>Node0</title>
<g id="a_node1"><a xlink:title=" ">
<polygon fill="#bfbfbf" stroke="black" points="248.5,-302.5 248.5,-332.5 373.5,-332.5 373.5,-302.5 248.5,-302.5"/>
<text text-anchor="start" x="256.5" y="-320.5" font-family="Helvetica,sans-Serif" font-size="10.00">drake/visualization</text>
<text text-anchor="middle" x="311" y="-309.5" font-family="Helvetica,sans-Serif" font-size="10.00">/visualization_config.h</text>
</a>
</g>
</g>
<!-- Node1 -->
<g id="node2" class="node">
<title>Node1</title>
<g id="a_node2"><a xlink:title=" ">
<polygon fill="white" stroke="#bfbfbf" points="294,-0.5 294,-19.5 338,-19.5 338,-0.5 294,-0.5"/>
<text text-anchor="middle" x="316" y="-7.5" font-family="Helvetica,sans-Serif" font-size="10.00">string</text>
</a>
</g>
</g>
<!-- Node0&#45;&gt;Node1 -->
<g id="edge1" class="edge">
<title>Node0&#45;&gt;Node1</title>
<path fill="none" stroke="midnightblue" d="M248.44,-305.3C157.62,-287.24 0,-248.29 0,-195.5 0,-195.5 0,-195.5 0,-126.5 0,-66.55 203.2,-28.48 283.71,-15.74"/>
<polygon fill="midnightblue" stroke="midnightblue" points="284.43,-19.17 293.78,-14.18 283.36,-12.26 284.43,-19.17"/>
</g>
<!-- Node2 -->
<g id="node3" class="node">
<title>Node2</title>
<g id="a_node3"><a xlink:title=" ">
<polygon fill="white" stroke="#bfbfbf" points="28.5,-118 28.5,-137 105.5,-137 105.5,-118 28.5,-118"/>
<text text-anchor="middle" x="67" y="-125" font-family="Helvetica,sans-Serif" font-size="10.00">Eigen/Dense</text>
</a>
</g>
</g>
<!-- Node0&#45;&gt;Node2 -->
<g id="edge2" class="edge">
<title>Node0&#45;&gt;Node2</title>
<path fill="none" stroke="midnightblue" d="M292.66,-302.37C247.68,-267.71 132.22,-178.75 86.28,-143.35"/>
<polygon fill="midnightblue" stroke="midnightblue" points="88.36,-140.54 78.3,-137.21 84.08,-146.08 88.36,-140.54"/>
</g>
<!-- Node3 -->
<g id="node4" class="node">
<title>Node3</title>
<g id="a_node4"><a xlink:href="name__value_8h.html" target="_top" xlink:title=" ">
<polygon fill="white" stroke="black" points="604.5,-185 604.5,-204 765.5,-204 765.5,-185 604.5,-185"/>
<text text-anchor="middle" x="685" y="-192" font-family="Helvetica,sans-Serif" font-size="10.00">drake/common/name_value.h</text>
</a>
</g>
</g>
<!-- Node0&#45;&gt;Node3 -->
<g id="edge3" class="edge">
<title>Node0&#45;&gt;Node3</title>
<path fill="none" stroke="midnightblue" d="M373.55,-308.71C423.69,-301.25 495.28,-287.84 555,-266 595.41,-251.23 638.63,-225.58 663.65,-209.63"/>
<polygon fill="midnightblue" stroke="midnightblue" points="665.81,-212.4 672.31,-204.04 662.01,-206.52 665.81,-212.4"/>
</g>
<!-- Node7 -->
<g id="node8" class="node">
<title>Node7</title>
<g id="a_node8"><a xlink:href="rgba_8h.html" target="_top" xlink:title=" ">
<polygon fill="white" stroke="black" points="418,-246.5 418,-265.5 546,-265.5 546,-246.5 418,-246.5"/>
<text text-anchor="middle" x="482" y="-253.5" font-family="Helvetica,sans-Serif" font-size="10.00">drake/geometry/rgba.h</text>
</a>
</g>
</g>
<!-- Node0&#45;&gt;Node7 -->
<g id="edge7" class="edge">
<title>Node0&#45;&gt;Node7</title>
<path fill="none" stroke="midnightblue" d="M351.52,-302.4C380.73,-292.24 419.72,-278.67 447.45,-269.02"/>
<polygon fill="midnightblue" stroke="midnightblue" points="448.82,-272.25 457.12,-265.66 446.52,-265.64 448.82,-272.25"/>
</g>
<!-- Node4 -->
<g id="node5" class="node">
<title>Node4</title>
<g id="a_node5"><a xlink:href="drake__assert_8h.html" target="_top" xlink:title="Provides Drake&#39;s assertion implementation.">
<polygon fill="white" stroke="black" points="659.5,-112.5 659.5,-142.5 778.5,-142.5 778.5,-112.5 659.5,-112.5"/>
<text text-anchor="start" x="667.5" y="-130.5" font-family="Helvetica,sans-Serif" font-size="10.00">drake/common/drake</text>
<text text-anchor="middle" x="719" y="-119.5" font-family="Helvetica,sans-Serif" font-size="10.00">_assert.h</text>
</a>
</g>
</g>
<!-- Node3&#45;&gt;Node4 -->
<g id="edge4" class="edge">
<title>Node3&#45;&gt;Node4</title>
<path fill="none" stroke="midnightblue" d="M689.59,-184.73C694,-176.29 700.88,-163.14 706.88,-151.68"/>
<polygon fill="midnightblue" stroke="midnightblue" points="710.1,-153.07 711.63,-142.59 703.89,-149.83 710.1,-153.07"/>
</g>
<!-- Node6 -->
<g id="node7" class="node">
<title>Node6</title>
<g id="a_node7"><a xlink:href="drake__copyable_8h.html" target="_top" xlink:title="Provides careful macros to selectively enable or disable the special member functions for copy&#45;constr...">
<polygon fill="white" stroke="black" points="522.5,-112.5 522.5,-142.5 641.5,-142.5 641.5,-112.5 522.5,-112.5"/>
<text text-anchor="start" x="530.5" y="-130.5" font-family="Helvetica,sans-Serif" font-size="10.00">drake/common/drake</text>
<text text-anchor="middle" x="582" y="-119.5" font-family="Helvetica,sans-Serif" font-size="10.00">_copyable.h</text>
</a>
</g>
</g>
<!-- Node3&#45;&gt;Node6 -->
<g id="edge6" class="edge">
<title>Node3&#45;&gt;Node6</title>
<path fill="none" stroke="midnightblue" d="M671.11,-184.73C656.25,-175.36 632.21,-160.19 612.85,-147.97"/>
<polygon fill="midnightblue" stroke="midnightblue" points="614.65,-144.97 604.33,-142.59 610.91,-150.89 614.65,-144.97"/>
</g>
<!-- Node5 -->
<g id="node6" class="node">
<title>Node5</title>
<g id="a_node6"><a xlink:title=" ">
<polygon fill="white" stroke="#bfbfbf" points="619.5,-0.5 619.5,-19.5 688.5,-19.5 688.5,-0.5 619.5,-0.5"/>
<text text-anchor="middle" x="654" y="-7.5" font-family="Helvetica,sans-Serif" font-size="10.00">type_traits</text>
</a>
</g>
</g>
<!-- Node4&#45;&gt;Node5 -->
<g id="edge5" class="edge">
<title>Node4&#45;&gt;Node5</title>
<path fill="none" stroke="midnightblue" d="M711.03,-112.34C699.16,-91.24 676.85,-51.6 663.93,-28.65"/>
<polygon fill="midnightblue" stroke="midnightblue" points="666.83,-26.67 658.88,-19.67 660.73,-30.1 666.83,-26.67"/>
</g>
<!-- Node7&#45;&gt;Node3 -->
<g id="edge27" class="edge">
<title>Node7&#45;&gt;Node3</title>
<path fill="none" stroke="midnightblue" d="M511.08,-246.48C546.58,-236.07 606.75,-218.44 646.17,-206.88"/>
<polygon fill="midnightblue" stroke="midnightblue" points="647.36,-210.18 655.97,-204.01 645.39,-203.46 647.36,-210.18"/>
</g>
<!-- Node7&#45;&gt;Node4 -->
<g id="edge10" class="edge">
<title>Node7&#45;&gt;Node4</title>
<path fill="none" stroke="midnightblue" d="M493.18,-246.45C513.09,-231.47 556.31,-200.11 596,-179 619.45,-166.53 646.67,-155.07 669.53,-146.22"/>
<polygon fill="midnightblue" stroke="midnightblue" points="670.94,-149.43 679.04,-142.6 668.45,-142.89 670.94,-149.43"/>
</g>
<!-- Node7&#45;&gt;Node6 -->
<g id="edge11" class="edge">
<title>Node7&#45;&gt;Node6</title>
<path fill="none" stroke="midnightblue" d="M489.17,-246.44C496.68,-237.43 508.79,-222.81 519,-210 534.86,-190.11 552.54,-167.17 565.12,-150.71"/>
<polygon fill="midnightblue" stroke="midnightblue" points="567.92,-152.81 571.2,-142.74 562.35,-148.56 567.92,-152.81"/>
</g>
<!-- Node8 -->
<g id="node9" class="node">
<title>Node8</title>
<g id="a_node9"><a xlink:title=" ">
<polygon fill="white" stroke="#bfbfbf" points="372,-185 372,-204 436,-204 436,-185 372,-185"/>
<text text-anchor="middle" x="404" y="-192" font-family="Helvetica,sans-Serif" font-size="10.00">algorithm</text>
</a>
</g>
</g>
<!-- Node7&#45;&gt;Node8 -->
<g id="edge8" class="edge">
<title>Node7&#45;&gt;Node8</title>
<path fill="none" stroke="midnightblue" d="M470.82,-246.48C458.43,-237.02 438.21,-221.6 423.25,-210.19"/>
<polygon fill="midnightblue" stroke="midnightblue" points="425.23,-207.29 415.15,-204.01 420.98,-212.86 425.23,-207.29"/>
</g>
<!-- Node9 -->
<g id="node10" class="node">
<title>Node9</title>
<g id="a_node10"><a xlink:title=" ">
<polygon fill="white" stroke="#bfbfbf" points="454,-185 454,-204 510,-204 510,-185 454,-185"/>
<text text-anchor="middle" x="482" y="-192" font-family="Helvetica,sans-Serif" font-size="10.00">optional</text>
</a>
</g>
</g>
<!-- Node7&#45;&gt;Node9 -->
<g id="edge9" class="edge">
<title>Node7&#45;&gt;Node9</title>
<path fill="none" stroke="midnightblue" d="M482,-246.48C482,-238.08 482,-224.98 482,-214.16"/>
<polygon fill="midnightblue" stroke="midnightblue" points="485.5,-214.01 482,-204.01 478.5,-214.01 485.5,-214.01"/>
</g>
<!-- Node10 -->
<g id="node11" class="node">
<title>Node10</title>
<g id="a_node11"><a xlink:href="eigen__types_8h.html" target="_top" xlink:title="This file contains abbreviated definitions for certain specializations of Eigen::Matrix that are comm...">
<polygon fill="white" stroke="black" points="234.5,-179.5 234.5,-209.5 353.5,-209.5 353.5,-179.5 234.5,-179.5"/>
<text text-anchor="start" x="242.5" y="-197.5" font-family="Helvetica,sans-Serif" font-size="10.00">drake/common/eigen</text>
<text text-anchor="middle" x="294" y="-186.5" font-family="Helvetica,sans-Serif" font-size="10.00">_types.h</text>
</a>
</g>
</g>
<!-- Node7&#45;&gt;Node10 -->
<g id="edge12" class="edge">
<title>Node7&#45;&gt;Node10</title>
<path fill="none" stroke="midnightblue" d="M455.06,-246.48C427.22,-237.66 383,-223.67 347.93,-212.57"/>
<polygon fill="midnightblue" stroke="midnightblue" points="348.9,-209.2 338.31,-209.52 346.79,-215.88 348.9,-209.2"/>
</g>
<!-- Node10&#45;&gt;Node2 -->
<g id="edge14" class="edge">
<title>Node10&#45;&gt;Node2</title>
<path fill="none" stroke="midnightblue" d="M242.69,-179.48C206.62,-169.54 157.28,-155.74 114,-143 110.81,-142.06 107.49,-141.07 104.17,-140.07"/>
<polygon fill="midnightblue" stroke="midnightblue" points="104.89,-136.62 94.3,-137.05 102.85,-143.32 104.89,-136.62"/>
</g>
<!-- Node10&#45;&gt;Node4 -->
<g id="edge16" class="edge">
<title>Node10&#45;&gt;Node4</title>
<path fill="none" stroke="midnightblue" d="M353.78,-180.62C356.89,-180.05 359.98,-179.5 363,-179 487,-158.26 522.04,-164.15 649.22,-143.21"/>
<polygon fill="midnightblue" stroke="midnightblue" points="650.06,-146.62 659.35,-141.52 648.91,-139.72 650.06,-146.62"/>
</g>
<!-- Node10&#45;&gt;Node6 -->
<g id="edge17" class="edge">
<title>Node10&#45;&gt;Node6</title>
<path fill="none" stroke="midnightblue" d="M353.67,-180.03C399.92,-169.6 464.07,-155.12 512.61,-144.16"/>
<polygon fill="midnightblue" stroke="midnightblue" points="513.42,-147.57 522.4,-141.95 511.88,-140.74 513.42,-147.57"/>
</g>
<!-- Node11 -->
<g id="node12" class="node">
<title>Node11</title>
<g id="a_node12"><a xlink:title=" ">
<polygon fill="white" stroke="#bfbfbf" points="123.5,-118 123.5,-137 168.5,-137 168.5,-118 123.5,-118"/>
<text text-anchor="middle" x="146" y="-125" font-family="Helvetica,sans-Serif" font-size="10.00">utility</text>
</a>
</g>
</g>
<!-- Node10&#45;&gt;Node11 -->
<g id="edge13" class="edge">
<title>Node10&#45;&gt;Node11</title>
<path fill="none" stroke="midnightblue" d="M260.6,-179.4C237.13,-169.41 205.05,-155.61 177,-143 175.81,-142.47 174.6,-141.92 173.37,-141.36"/>
<polygon fill="midnightblue" stroke="midnightblue" points="174.54,-138.04 163.99,-137.03 171.6,-144.4 174.54,-138.04"/>
</g>
<!-- Node12 -->
<g id="node13" class="node">
<title>Node12</title>
<g id="a_node13"><a xlink:href="constants_8h.html" target="_top" xlink:title=" ">
<polygon fill="white" stroke="black" points="186.5,-118 186.5,-137 335.5,-137 335.5,-118 186.5,-118"/>
<text text-anchor="middle" x="261" y="-125" font-family="Helvetica,sans-Serif" font-size="10.00">drake/common/constants.h</text>
</a>
</g>
</g>
<!-- Node10&#45;&gt;Node12 -->
<g id="edge15" class="edge">
<title>Node10&#45;&gt;Node12</title>
<path fill="none" stroke="midnightblue" d="M286.84,-179.4C281.9,-169.66 275.29,-156.65 269.99,-146.21"/>
<polygon fill="midnightblue" stroke="midnightblue" points="273.06,-144.53 265.41,-137.19 266.82,-147.7 273.06,-144.53"/>
</g>
<!-- Node13 -->
<g id="node14" class="node">
<title>Node13</title>
<g id="a_node14"><a xlink:href="fmt__eigen_8h.html" target="_top" xlink:title=" ">
<polygon fill="white" stroke="black" points="353.5,-118 353.5,-137 504.5,-137 504.5,-118 353.5,-118"/>
<text text-anchor="middle" x="429" y="-125" font-family="Helvetica,sans-Serif" font-size="10.00">drake/common/fmt_eigen.h</text>
</a>
</g>
</g>
<!-- Node10&#45;&gt;Node13 -->
<g id="edge18" class="edge">
<title>Node10&#45;&gt;Node13</title>
<path fill="none" stroke="midnightblue" d="M323.29,-179.4C346.77,-168.09 379.44,-152.36 402.23,-141.39"/>
<polygon fill="midnightblue" stroke="midnightblue" points="403.84,-144.5 411.33,-137.01 400.8,-138.19 403.84,-144.5"/>
</g>
<!-- Node13&#45;&gt;Node1 -->
<g id="edge19" class="edge">
<title>Node13&#45;&gt;Node1</title>
<path fill="none" stroke="midnightblue" d="M400.41,-117.86C379.44,-110.11 351.8,-96.72 335,-76 324.25,-62.74 319.58,-43.61 317.56,-29.54"/>
<polygon fill="midnightblue" stroke="midnightblue" points="321.03,-29.09 316.43,-19.54 314.07,-29.87 321.03,-29.09"/>
</g>
<!-- Node14 -->
<g id="node15" class="node">
<title>Node14</title>
<g id="a_node15"><a xlink:title=" ">
<polygon fill="white" stroke="#bfbfbf" points="405.5,-0.5 405.5,-19.5 478.5,-19.5 478.5,-0.5 405.5,-0.5"/>
<text text-anchor="middle" x="442" y="-7.5" font-family="Helvetica,sans-Serif" font-size="10.00">string_view</text>
</a>
</g>
</g>
<!-- Node13&#45;&gt;Node14 -->
<g id="edge20" class="edge">
<title>Node13&#45;&gt;Node14</title>
<path fill="none" stroke="midnightblue" d="M429.98,-117.82C432.07,-99.26 437.01,-55.34 439.86,-29.97"/>
<polygon fill="midnightblue" stroke="midnightblue" points="443.37,-30.11 441.01,-19.78 436.41,-29.33 443.37,-30.11"/>
</g>
<!-- Node15 -->
<g id="node16" class="node">
<title>Node15</title>
<g id="a_node16"><a xlink:title=" ">
<polygon fill="white" stroke="#bfbfbf" points="344.5,-56.5 344.5,-75.5 413.5,-75.5 413.5,-56.5 344.5,-56.5"/>
<text text-anchor="middle" x="379" y="-63.5" font-family="Helvetica,sans-Serif" font-size="10.00">Eigen/Core</text>
</a>
</g>
</g>
<!-- Node13&#45;&gt;Node15 -->
<g id="edge21" class="edge">
<title>Node13&#45;&gt;Node15</title>
<path fill="none" stroke="midnightblue" d="M421.84,-117.98C414.26,-108.96 402.13,-94.52 392.71,-83.31"/>
<polygon fill="midnightblue" stroke="midnightblue" points="395.26,-80.91 386.15,-75.51 389.9,-85.42 395.26,-80.91"/>
</g>
<!-- Node16 -->
<g id="node17" class="node">
<title>Node16</title>
<g id="a_node17"><a xlink:href="fmt_8h.html" target="_top" xlink:title=" ">
<polygon fill="white" stroke="black" points="470.5,-56.5 470.5,-75.5 589.5,-75.5 589.5,-56.5 470.5,-56.5"/>
<text text-anchor="middle" x="530" y="-63.5" font-family="Helvetica,sans-Serif" font-size="10.00">drake/common/fmt.h</text>
</a>
</g>
</g>
<!-- Node13&#45;&gt;Node16 -->
<g id="edge22" class="edge">
<title>Node13&#45;&gt;Node16</title>
<path fill="none" stroke="midnightblue" d="M443.47,-117.98C459.97,-108.25 487.18,-92.23 506.68,-80.74"/>
<polygon fill="midnightblue" stroke="midnightblue" points="508.72,-83.6 515.56,-75.51 505.16,-77.57 508.72,-83.6"/>
</g>
<!-- Node16&#45;&gt;Node1 -->
<g id="edge23" class="edge">
<title>Node16&#45;&gt;Node1</title>
<path fill="none" stroke="midnightblue" d="M496.09,-56.44C455.43,-46.18 387.81,-29.12 348.01,-19.08"/>
<polygon fill="midnightblue" stroke="midnightblue" points="348.84,-15.68 338.29,-16.62 347.13,-22.46 348.84,-15.68"/>
</g>
<!-- Node16&#45;&gt;Node5 -->
<g id="edge25" class="edge">
<title>Node16&#45;&gt;Node5</title>
<path fill="none" stroke="midnightblue" d="M549.65,-56.44C569.96,-47.6 601.9,-33.69 625.1,-23.59"/>
<polygon fill="midnightblue" stroke="midnightblue" points="626.67,-26.72 634.44,-19.52 623.88,-20.3 626.67,-26.72"/>
</g>
<!-- Node16&#45;&gt;Node14 -->
<g id="edge24" class="edge">
<title>Node16&#45;&gt;Node14</title>
<path fill="none" stroke="midnightblue" d="M515.86,-56.32C502.13,-47.9 481.06,-34.97 464.94,-25.07"/>
<polygon fill="midnightblue" stroke="midnightblue" points="466.46,-21.9 456.1,-19.65 462.8,-27.87 466.46,-21.9"/>
</g>
<!-- Node17 -->
<g id="node18" class="node">
<title>Node17</title>
<g id="a_node18"><a xlink:title=" ">
<polygon fill="white" stroke="#bfbfbf" points="496.5,-0.5 496.5,-19.5 575.5,-19.5 575.5,-0.5 496.5,-0.5"/>
<text text-anchor="middle" x="536" y="-7.5" font-family="Helvetica,sans-Serif" font-size="10.00">fmt/format.h</text>
</a>
</g>
</g>
<!-- Node16&#45;&gt;Node17 -->
<g id="edge26" class="edge">
<title>Node16&#45;&gt;Node17</title>
<path fill="none" stroke="midnightblue" d="M530.99,-56.08C531.79,-48.93 532.93,-38.64 533.92,-29.69"/>
<polygon fill="midnightblue" stroke="midnightblue" points="537.4,-30.08 535.03,-19.75 530.44,-29.3 537.4,-30.08"/>
</g>
</g>
</svg>
        <g id="navigator" transform="translate(0 0)" fill="#404254">
                <rect fill="#f2f5e9" fill-opacity="0.5" stroke="#606060" stroke-width=".5" x="0" y="0" width="60" height="60"/>
                <use id="zoomplus" xlink:href="#zoomPlus" x="17" y="9" onmousedown="handleZoom(evt,'in')"/>
                <use id="zoomminus" xlink:href="#zoomMin" x="42" y="9" onmousedown="handleZoom(evt,'out')"/>
                <use id="reset" xlink:href="#resetDef" x="30" y="36" onmousedown="handleReset()"/>
                <g id="arrowUp" xlink:href="#dirArrow" transform="translate(30 24)" onmousedown="handlePan(0,-1)">
                  <use xlink:href="#rim" fill="#404040">
                        <set attributeName="fill" to="#808080" begin="arrowUp.mouseover" end="arrowUp.mouseout"/>
                  </use>
                  <path fill="none" stroke="white" stroke-width="1.5" d="M0,-3.0v7 M-2.5,-0.5L0,-3.0L2.5,-0.5"/>
                </g>
                <g id="arrowRight" xlink:href="#dirArrow" transform="rotate(90) translate(36 -43)" onmousedown="handlePan(1,0)">
                  <use xlink:href="#rim" fill="#404040">
                        <set attributeName="fill" to="#808080" begin="arrowRight.mouseover" end="arrowRight.mouseout"/>
                  </use>
                  <path fill="none" stroke="white" stroke-width="1.5" d="M0,-3.0v7 M-2.5,-0.5L0,-3.0L2.5,-0.5"/>
                </g>
                <g id="arrowDown" xlink:href="#dirArrow" transform="rotate(180) translate(-30 -48)" onmousedown="handlePan(0,1)">
                  <use xlink:href="#rim" fill="#404040">
                        <set attributeName="fill" to="#808080" begin="arrowDown.mouseover" end="arrowDown.mouseout"/>
                  </use>
                  <path fill="none" stroke="white" stroke-width="1.5" d="M0,-3.0v7 M-2.5,-0.5L0,-3.0L2.5,-0.5"/>
                </g>
                <g id="arrowLeft" xlink:href="#dirArrow" transform="rotate(270) translate(-36 17)" onmousedown="handlePan(-1,0)">
                  <use xlink:href="#rim" fill="#404040">
                        <set attributeName="fill" to="#808080" begin="arrowLeft.mouseover" end="arrowLeft.mouseout"/>
                  </use>
                  <path fill="none" stroke="white" stroke-width="1.5" d="M0,-3.0v7 M-2.5,-0.5L0,-3.0L2.5,-0.5"/>
                </g>
        </g>
        <svg viewBox="0 0 15 15" width="100%" height="30px" preserveAspectRatio="xMaxYMin meet">
         <g id="arrow_out" transform="scale(0.3 0.3)">
          <a xlink:href="visualization__config_8h__incl_org.svg" target="_base">
           <rect id="button" ry="5" rx="5" y="6" x="6" height="38" width="38"
                fill="#f2f5e9" fill-opacity="0.5" stroke="#606060" stroke-width="1.0"/>
           <path id="arrow"
             d="M 11.500037,31.436501 C 11.940474,20.09759 22.043105,11.32322 32.158766,21.979434 L 37.068811,17.246167 C 37.068811,17.246167 37.088388,32 37.088388,32 L 22.160133,31.978069 C 22.160133,31.978069 26.997745,27.140456 26.997745,27.140456 C 18.528582,18.264221 13.291696,25.230495 11.500037,31.436501 z"
             style="fill:#404040;"/>
          </a>
         </g>
        </svg>
</svg>
