<?xml version="1.0" encoding="UTF-8" standalone="no"?>
<!DOCTYPE svg PUBLIC "-//W3C//DTD SVG 1.1//EN"
 "http://www.w3.org/Graphics/SVG/1.1/DTD/svg11.dtd">
<!-- Generated by graphviz version 2.43.0 (0)
 -->
<!-- Title: drake/geometry/proximity/volume_mesh_topology.h Pages: 1 -->
<!--zoomable 374 -->
<svg id="main" version="1.1" xmlns="http://www.w3.org/2000/svg" xmlns:xlink="http://www.w3.org/1999/xlink" xml:space="preserve" onload="init(evt)">
<style type="text/css"><![CDATA[
.edge:hover path { stroke: red; }
.edge:hover polygon { stroke: red; fill: red; }
]]></style>
<script type="text/javascript"><![CDATA[
var edges = document.getElementsByTagName('g');
if (edges && edges.length) {
  for (var i=0;i<edges.length;i++) {
    if (edges[i].id.substr(0,4)=='edge') {
      edges[i].setAttribute('class','edge');
    }
  }
}
]]></script>
        <defs>
                <circle id="rim" cx="0" cy="0" r="7"/>
                <circle id="rim2" cx="0" cy="0" r="3.5"/>
                <g id="zoomPlus">
                        <use xlink:href="#rim" fill="#404040">
                                <set attributeName="fill" to="#808080" begin="zoomplus.mouseover" end="zoomplus.mouseout"/>
                        </use>
                        <path d="M-4,0h8M0,-4v8" fill="none" stroke="white" stroke-width="1.5" pointer-events="none"/>
                </g>
                <g id="zoomMin">
                        <use xlink:href="#rim" fill="#404040">
                                <set attributeName="fill" to="#808080" begin="zoomminus.mouseover" end="zoomminus.mouseout"/>
                        </use>
                        <path d="M-4,0h8" fill="none" stroke="white" stroke-width="1.5" pointer-events="none"/>
                </g>
                <g id="dirArrow">
                        <path fill="none" stroke="white" stroke-width="1.5" d="M0,-3.0v7 M-2.5,-0.5L0,-3.0L2.5,-0.5"/>
                </g>
               <g id="resetDef">
                       <use xlink:href="#rim2" fill="#404040">
                               <set attributeName="fill" to="#808080" begin="reset.mouseover" end="reset.mouseout"/>
                       </use>
               </g>
        </defs>

<script type="text/javascript">
var viewWidth = 930;
var viewHeight = 374;
var sectionId = 'dynsection-1';
</script>
<script xlink:href="svgpan.js"/>
<svg id="graph" class="graph">
<g id="viewport">
<title>drake/geometry/proximity/volume_mesh_topology.h</title>
<polygon fill="white" stroke="transparent" points="-4,4 -4,-370 925.5,-370 925.5,4 -4,4"/>
<!-- Node80 -->
<g id="node1" class="node">
<title>Node80</title>
<g id="a_node1"><a xlink:title=" ">
<polygon fill="#bfbfbf" stroke="black" points="665.5,-335.5 665.5,-365.5 809.5,-365.5 809.5,-335.5 665.5,-335.5"/>
<text text-anchor="start" x="673.5" y="-353.5" font-family="Helvetica,sans-Serif" font-size="10.00">drake/geometry/proximity</text>
<text text-anchor="middle" x="737.5" y="-342.5" font-family="Helvetica,sans-Serif" font-size="10.00">/volume_mesh_topology.h</text>
</a>
</g>
</g>
<!-- Node81 -->
<g id="node2" class="node">
<title>Node81</title>
<g id="a_node2"><a xlink:href="hydroelastic__internal_8h.html" target="_top" xlink:title=" ">
<polygon fill="white" stroke="black" points="615.5,-268.5 615.5,-298.5 759.5,-298.5 759.5,-268.5 615.5,-268.5"/>
<text text-anchor="start" x="623.5" y="-286.5" font-family="Helvetica,sans-Serif" font-size="10.00">drake/geometry/proximity</text>
<text text-anchor="middle" x="687.5" y="-275.5" font-family="Helvetica,sans-Serif" font-size="10.00">/hydroelastic_internal.h</text>
</a>
</g>
</g>
<!-- Node80&#45;&gt;Node81 -->
<g id="edge1" class="edge">
<title>Node80&#45;&gt;Node81</title>
<path fill="none" stroke="midnightblue" d="M720.54,-327.45C713.19,-317.9 704.81,-307 698.33,-298.58"/>
<polygon fill="midnightblue" stroke="midnightblue" points="717.78,-329.6 726.65,-335.4 723.33,-325.34 717.78,-329.6"/>
</g>
<!-- Node88 -->
<g id="node9" class="node">
<title>Node88</title>
<g id="a_node9"><a xlink:href="field__intersection_8h.html" target="_top" xlink:title=" ">
<polygon fill="white" stroke="black" points="777.5,-201.5 777.5,-231.5 921.5,-231.5 921.5,-201.5 777.5,-201.5"/>
<text text-anchor="start" x="785.5" y="-219.5" font-family="Helvetica,sans-Serif" font-size="10.00">drake/geometry/proximity</text>
<text text-anchor="middle" x="849.5" y="-208.5" font-family="Helvetica,sans-Serif" font-size="10.00">/field_intersection.h</text>
</a>
</g>
</g>
<!-- Node80&#45;&gt;Node88 -->
<g id="edge11" class="edge">
<title>Node80&#45;&gt;Node88</title>
<path fill="none" stroke="midnightblue" d="M756.13,-327.54C779.29,-300.25 818.12,-254.48 837.6,-231.52"/>
<polygon fill="midnightblue" stroke="midnightblue" points="753.29,-325.48 749.49,-335.37 758.62,-330.01 753.29,-325.48"/>
</g>
<!-- Node82 -->
<g id="node3" class="node">
<title>Node82</title>
<g id="a_node3"><a xlink:href="deformable__contact__geometries_8h.html" target="_top" xlink:title=" ">
<polygon fill="white" stroke="black" points="277,-201.5 277,-231.5 464,-231.5 464,-201.5 277,-201.5"/>
<text text-anchor="start" x="285" y="-219.5" font-family="Helvetica,sans-Serif" font-size="10.00">drake/geometry/proximity</text>
<text text-anchor="middle" x="370.5" y="-208.5" font-family="Helvetica,sans-Serif" font-size="10.00">/deformable_contact_geometries.h</text>
</a>
</g>
</g>
<!-- Node81&#45;&gt;Node82 -->
<g id="edge2" class="edge">
<title>Node81&#45;&gt;Node82</title>
<path fill="none" stroke="midnightblue" d="M609.22,-266.45C557.04,-255.75 489.09,-241.82 439.04,-231.55"/>
<polygon fill="midnightblue" stroke="midnightblue" points="608.61,-269.9 619.11,-268.48 610.01,-263.04 608.61,-269.9"/>
</g>
<!-- Node84 -->
<g id="node5" class="node">
<title>Node84</title>
<g id="a_node5"><a xlink:href="proximity__engine_8h.html" target="_top" xlink:title=" ">
<polygon fill="white" stroke="black" points="263.5,-67.5 263.5,-97.5 407.5,-97.5 407.5,-67.5 263.5,-67.5"/>
<text text-anchor="start" x="271.5" y="-85.5" font-family="Helvetica,sans-Serif" font-size="10.00">drake/geometry/proximity</text>
<text text-anchor="middle" x="335.5" y="-74.5" font-family="Helvetica,sans-Serif" font-size="10.00">_engine.h</text>
</a>
</g>
</g>
<!-- Node81&#45;&gt;Node84 -->
<g id="edge8" class="edge">
<title>Node81&#45;&gt;Node84</title>
<path fill="none" stroke="midnightblue" d="M646.07,-263.53C632,-255.45 617.16,-244.88 606.5,-232 576.71,-196.02 604.01,-164.35 568.5,-134 544.59,-113.56 466.93,-99.59 407.78,-91.61"/>
<polygon fill="midnightblue" stroke="midnightblue" points="644.7,-266.77 655.15,-268.48 648.05,-260.62 644.7,-266.77"/>
</g>
<!-- Node81&#45;&gt;Node88 -->
<g id="edge9" class="edge">
<title>Node81&#45;&gt;Node88</title>
<path fill="none" stroke="midnightblue" d="M732.25,-264.54C758.17,-254.14 790.34,-241.24 814.42,-231.58"/>
<polygon fill="midnightblue" stroke="midnightblue" points="730.63,-261.42 722.65,-268.4 733.24,-267.92 730.63,-261.42"/>
</g>
<!-- Node89 -->
<g id="node10" class="node">
<title>Node89</title>
<g id="a_node10"><a xlink:href="hydroelastic__calculator_8h.html" target="_top" xlink:title=" ">
<polygon fill="white" stroke="black" points="615.5,-201.5 615.5,-231.5 759.5,-231.5 759.5,-201.5 615.5,-201.5"/>
<text text-anchor="start" x="623.5" y="-219.5" font-family="Helvetica,sans-Serif" font-size="10.00">drake/geometry/proximity</text>
<text text-anchor="middle" x="687.5" y="-208.5" font-family="Helvetica,sans-Serif" font-size="10.00">/hydroelastic_calculator.h</text>
</a>
</g>
</g>
<!-- Node81&#45;&gt;Node89 -->
<g id="edge10" class="edge">
<title>Node81&#45;&gt;Node89</title>
<path fill="none" stroke="midnightblue" d="M687.5,-258.11C687.5,-249.15 687.5,-239.32 687.5,-231.58"/>
<polygon fill="midnightblue" stroke="midnightblue" points="684,-258.4 687.5,-268.4 691,-258.4 684,-258.4"/>
</g>
<!-- Node83 -->
<g id="node4" class="node">
<title>Node83</title>
<g id="a_node4"><a xlink:href="deformable__contact__internal_8h.html" target="_top" xlink:title=" ">
<polygon fill="white" stroke="black" points="0,-134.5 0,-164.5 169,-164.5 169,-134.5 0,-134.5"/>
<text text-anchor="start" x="8" y="-152.5" font-family="Helvetica,sans-Serif" font-size="10.00">drake/geometry/proximity</text>
<text text-anchor="middle" x="84.5" y="-141.5" font-family="Helvetica,sans-Serif" font-size="10.00">/deformable_contact_internal.h</text>
</a>
</g>
</g>
<!-- Node82&#45;&gt;Node83 -->
<g id="edge3" class="edge">
<title>Node82&#45;&gt;Node83</title>
<path fill="none" stroke="midnightblue" d="M299.01,-199.25C252.13,-188.6 191.44,-174.81 146.59,-164.61"/>
<polygon fill="midnightblue" stroke="midnightblue" points="298.27,-202.67 308.79,-201.48 299.82,-195.85 298.27,-202.67"/>
</g>
<!-- Node86 -->
<g id="node7" class="node">
<title>Node86</title>
<g id="a_node7"><a xlink:href="deformable__field__intersection_8h.html" target="_top" xlink:title=" ">
<polygon fill="white" stroke="black" points="187.5,-134.5 187.5,-164.5 361.5,-164.5 361.5,-134.5 187.5,-134.5"/>
<text text-anchor="start" x="195.5" y="-152.5" font-family="Helvetica,sans-Serif" font-size="10.00">drake/geometry/proximity</text>
<text text-anchor="middle" x="274.5" y="-141.5" font-family="Helvetica,sans-Serif" font-size="10.00">/deformable_field_intersection.h</text>
</a>
</g>
</g>
<!-- Node82&#45;&gt;Node86 -->
<g id="edge6" class="edge">
<title>Node82&#45;&gt;Node86</title>
<path fill="none" stroke="midnightblue" d="M341.31,-195.73C326.45,-185.68 308.74,-173.68 295.29,-164.58"/>
<polygon fill="midnightblue" stroke="midnightblue" points="339.43,-198.69 349.67,-201.4 343.35,-192.89 339.43,-198.69"/>
</g>
<!-- Node87 -->
<g id="node8" class="node">
<title>Node87</title>
<g id="a_node8"><a xlink:href="deformable__mesh__intersection_8h.html" target="_top" xlink:title=" ">
<polygon fill="white" stroke="black" points="379.5,-134.5 379.5,-164.5 559.5,-164.5 559.5,-134.5 379.5,-134.5"/>
<text text-anchor="start" x="387.5" y="-152.5" font-family="Helvetica,sans-Serif" font-size="10.00">drake/geometry/proximity</text>
<text text-anchor="middle" x="469.5" y="-141.5" font-family="Helvetica,sans-Serif" font-size="10.00">/deformable_mesh_intersection.h</text>
</a>
</g>
</g>
<!-- Node82&#45;&gt;Node87 -->
<g id="edge7" class="edge">
<title>Node82&#45;&gt;Node87</title>
<path fill="none" stroke="midnightblue" d="M400.61,-195.73C415.92,-185.68 434.19,-173.68 448.06,-164.58"/>
<polygon fill="midnightblue" stroke="midnightblue" points="398.42,-192.98 391.98,-201.4 402.26,-198.83 398.42,-192.98"/>
</g>
<!-- Node83&#45;&gt;Node84 -->
<g id="edge4" class="edge">
<title>Node83&#45;&gt;Node84</title>
<path fill="none" stroke="midnightblue" d="M148.54,-131.92C189.5,-121.31 242.06,-107.7 281.01,-97.61"/>
<polygon fill="midnightblue" stroke="midnightblue" points="147.46,-128.58 138.65,-134.48 149.21,-135.36 147.46,-128.58"/>
</g>
<!-- Node85 -->
<g id="node6" class="node">
<title>Node85</title>
<g id="a_node6"><a xlink:href="geometry__state_8h.html" target="_top" xlink:title=" ">
<polygon fill="white" stroke="black" points="263.5,-0.5 263.5,-30.5 407.5,-30.5 407.5,-0.5 263.5,-0.5"/>
<text text-anchor="start" x="271.5" y="-18.5" font-family="Helvetica,sans-Serif" font-size="10.00">drake/geometry/geometry</text>
<text text-anchor="middle" x="335.5" y="-7.5" font-family="Helvetica,sans-Serif" font-size="10.00">_state.h</text>
</a>
</g>
</g>
<!-- Node84&#45;&gt;Node85 -->
<g id="edge5" class="edge">
<title>Node84&#45;&gt;Node85</title>
<path fill="none" stroke="midnightblue" d="M335.5,-57.11C335.5,-48.15 335.5,-38.32 335.5,-30.58"/>
<polygon fill="midnightblue" stroke="midnightblue" points="332,-57.4 335.5,-67.4 339,-57.4 332,-57.4"/>
</g>
</g>
</svg>
        <g id="navigator" transform="translate(0 0)" fill="#404254">
                <rect fill="#f2f5e9" fill-opacity="0.5" stroke="#606060" stroke-width=".5" x="0" y="0" width="60" height="60"/>
                <use id="zoomplus" xlink:href="#zoomPlus" x="17" y="9" onmousedown="handleZoom(evt,'in')"/>
                <use id="zoomminus" xlink:href="#zoomMin" x="42" y="9" onmousedown="handleZoom(evt,'out')"/>
                <use id="reset" xlink:href="#resetDef" x="30" y="36" onmousedown="handleReset()"/>
                <g id="arrowUp" xlink:href="#dirArrow" transform="translate(30 24)" onmousedown="handlePan(0,-1)">
                  <use xlink:href="#rim" fill="#404040">
                        <set attributeName="fill" to="#808080" begin="arrowUp.mouseover" end="arrowUp.mouseout"/>
                  </use>
                  <path fill="none" stroke="white" stroke-width="1.5" d="M0,-3.0v7 M-2.5,-0.5L0,-3.0L2.5,-0.5"/>
                </g>
                <g id="arrowRight" xlink:href="#dirArrow" transform="rotate(90) translate(36 -43)" onmousedown="handlePan(1,0)">
                  <use xlink:href="#rim" fill="#404040">
                        <set attributeName="fill" to="#808080" begin="arrowRight.mouseover" end="arrowRight.mouseout"/>
                  </use>
                  <path fill="none" stroke="white" stroke-width="1.5" d="M0,-3.0v7 M-2.5,-0.5L0,-3.0L2.5,-0.5"/>
                </g>
                <g id="arrowDown" xlink:href="#dirArrow" transform="rotate(180) translate(-30 -48)" onmousedown="handlePan(0,1)">
                  <use xlink:href="#rim" fill="#404040">
                        <set attributeName="fill" to="#808080" begin="arrowDown.mouseover" end="arrowDown.mouseout"/>
                  </use>
                  <path fill="none" stroke="white" stroke-width="1.5" d="M0,-3.0v7 M-2.5,-0.5L0,-3.0L2.5,-0.5"/>
                </g>
                <g id="arrowLeft" xlink:href="#dirArrow" transform="rotate(270) translate(-36 17)" onmousedown="handlePan(-1,0)">
                  <use xlink:href="#rim" fill="#404040">
                        <set attributeName="fill" to="#808080" begin="arrowLeft.mouseover" end="arrowLeft.mouseout"/>
                  </use>
                  <path fill="none" stroke="white" stroke-width="1.5" d="M0,-3.0v7 M-2.5,-0.5L0,-3.0L2.5,-0.5"/>
                </g>
        </g>
        <svg viewBox="0 0 15 15" width="100%" height="30px" preserveAspectRatio="xMaxYMin meet">
         <g id="arrow_out" transform="scale(0.3 0.3)">
          <a xlink:href="volume__mesh__topology_8h__dep__incl_org.svg" target="_base">
           <rect id="button" ry="5" rx="5" y="6" x="6" height="38" width="38"
                fill="#f2f5e9" fill-opacity="0.5" stroke="#606060" stroke-width="1.0"/>
           <path id="arrow"
             d="M 11.500037,31.436501 C 11.940474,20.09759 22.043105,11.32322 32.158766,21.979434 L 37.068811,17.246167 C 37.068811,17.246167 37.088388,32 37.088388,32 L 22.160133,31.978069 C 22.160133,31.978069 26.997745,27.140456 26.997745,27.140456 C 18.528582,18.264221 13.291696,25.230495 11.500037,31.436501 z"
             style="fill:#404040;"/>
          </a>
         </g>
        </svg>
</svg>
