<?xml version="1.0" encoding="UTF-8" standalone="no"?>
<!DOCTYPE svg PUBLIC "-//W3C//DTD SVG 1.1//EN"
 "http://www.w3.org/Graphics/SVG/1.1/DTD/svg11.dtd">
<!-- Generated by graphviz version 2.43.0 (0)
 -->
<!-- Title: drake/common/yaml/yaml_io_options.h Pages: 1 -->
<svg width="609pt" height="239pt"
 viewBox="0.00 0.00 609.17 239.04" xmlns="http://www.w3.org/2000/svg" xmlns:xlink="http://www.w3.org/1999/xlink">
<g id="graph0" class="graph" transform="scale(1 1) rotate(0) translate(4 235.04)">
<title>drake/common/yaml/yaml_io_options.h</title>
<!-- Node1 -->
<g id="Node000001" class="node">
<title>Node1</title>
<g id="a_Node000001"><a xlink:title=" ">
<ellipse fill="#999999" stroke="#666666" cx="127.31" cy="-209.82" rx="102.56" ry="21.43"/>
<text text-anchor="start" x="62.81" y="-212.82" font-family="Helvetica,sans-Serif" font-size="10.00">drake/common/yaml/yaml</text>
<text text-anchor="middle" x="127.31" y="-201.82" font-family="Helvetica,sans-Serif" font-size="10.00">_io_options.h</text>
</a>
</g>
</g>
<!-- Node2 -->
<g id="Node000002" class="node">
<title>Node2</title>
<g id="a_Node000002"><a xlink:title=" ">
<ellipse fill="#e0e0e0" stroke="#999999" cx="40.31" cy="-139.18" rx="40.11" ry="13.37"/>
<text text-anchor="middle" x="40.31" y="-136.68" font-family="Helvetica,sans-Serif" font-size="10.00">ostream</text>
</a>
</g>
</g>
<!-- Node1&#45;&gt;Node2 -->
<g id="edge1_Node000001_Node000002" class="edge">
<title>Node1&#45;&gt;Node2</title>
<g id="a_edge1_Node000001_Node000002"><a xlink:title=" ">
<path fill="none" stroke="#63b8ff" d="M102.14,-188.97C89.86,-179.28 75.2,-167.71 63.24,-158.27"/>
<polygon fill="#63b8ff" stroke="#63b8ff" points="65.09,-155.28 55.08,-151.83 60.76,-160.77 65.09,-155.28"/>
</a>
</g>
</g>
<!-- Node3 -->
<g id="Node000003" class="node">
<title>Node3</title>
<g id="a_Node000003"><a xlink:href="fmt__ostream_8h.html" target="_top" xlink:title=" ">
<ellipse fill="white" stroke="#666666" cx="214.31" cy="-139.18" rx="115.93" ry="13.37"/>
<text text-anchor="middle" x="214.31" y="-136.68" font-family="Helvetica,sans-Serif" font-size="10.00">drake/common/fmt_ostream.h</text>
</a>
</g>
</g>
<!-- Node1&#45;&gt;Node3 -->
<g id="edge2_Node000001_Node000003" class="edge">
<title>Node1&#45;&gt;Node3</title>
<g id="a_edge2_Node000001_Node000003"><a xlink:title=" ">
<path fill="none" stroke="#63b8ff" d="M152.47,-188.97C164.42,-179.54 178.64,-168.32 190.42,-159.02"/>
<polygon fill="#63b8ff" stroke="#63b8ff" points="192.82,-161.58 198.51,-152.64 188.49,-156.09 192.82,-161.58"/>
</a>
</g>
</g>
<!-- Node4 -->
<g id="Node000004" class="node">
<title>Node4</title>
<g id="a_Node000004"><a xlink:title=" ">
<ellipse fill="#e0e0e0" stroke="#999999" cx="102.31" cy="-76.31" rx="39.7" ry="13.37"/>
<text text-anchor="middle" x="102.31" y="-73.81" font-family="Helvetica,sans-Serif" font-size="10.00">sstream</text>
</a>
</g>
</g>
<!-- Node3&#45;&gt;Node4 -->
<g id="edge3_Node000003_Node000004" class="edge">
<title>Node3&#45;&gt;Node4</title>
<g id="a_edge3_Node000003_Node000004"><a xlink:title=" ">
<path fill="none" stroke="#63b8ff" d="M191.64,-125.86C174.14,-116.35 149.82,-103.13 130.97,-92.88"/>
<polygon fill="#63b8ff" stroke="#63b8ff" points="132.4,-89.68 121.94,-87.98 129.06,-95.83 132.4,-89.68"/>
</a>
</g>
</g>
<!-- Node5 -->
<g id="Node000005" class="node">
<title>Node5</title>
<g id="a_Node000005"><a xlink:title=" ">
<ellipse fill="#e0e0e0" stroke="#999999" cx="197.31" cy="-13.44" rx="51.74" ry="13.37"/>
<text text-anchor="middle" x="197.31" y="-10.94" font-family="Helvetica,sans-Serif" font-size="10.00">string_view</text>
</a>
</g>
</g>
<!-- Node3&#45;&gt;Node5 -->
<g id="edge4_Node000003_Node000005" class="edge">
<title>Node3&#45;&gt;Node5</title>
<g id="a_edge4_Node000003_Node000005"><a xlink:title=" ">
<path fill="none" stroke="#63b8ff" d="M205.73,-125.68C199.82,-116.27 192.48,-102.8 189.31,-89.74 185.06,-72.26 187.64,-51.96 190.96,-36.84"/>
<polygon fill="#63b8ff" stroke="#63b8ff" points="194.42,-37.41 193.42,-26.87 187.62,-35.74 194.42,-37.41"/>
</a>
</g>
</g>
<!-- Node6 -->
<g id="Node000006" class="node">
<title>Node6</title>
<g id="a_Node000006"><a xlink:title=" ">
<ellipse fill="#e0e0e0" stroke="#999999" cx="259.31" cy="-76.31" rx="60.62" ry="13.37"/>
<text text-anchor="middle" x="259.31" y="-73.81" font-family="Helvetica,sans-Serif" font-size="10.00">fmt/ostream.h</text>
</a>
</g>
</g>
<!-- Node3&#45;&gt;Node6 -->
<g id="edge5_Node000003_Node000006" class="edge">
<title>Node3&#45;&gt;Node6</title>
<g id="a_edge5_Node000003_Node000006"><a xlink:title=" ">
<path fill="none" stroke="#63b8ff" d="M223.63,-125.56C229.48,-117.65 237.17,-107.25 243.91,-98.13"/>
<polygon fill="#63b8ff" stroke="#63b8ff" points="246.86,-100.02 249.99,-89.9 241.23,-95.86 246.86,-100.02"/>
</a>
</g>
</g>
<!-- Node7 -->
<g id="Node000007" class="node">
<title>Node7</title>
<g id="a_Node000007"><a xlink:href="fmt_8h.html" target="_top" xlink:title=" ">
<ellipse fill="white" stroke="#666666" cx="422.31" cy="-76.31" rx="84.29" ry="13.37"/>
<text text-anchor="middle" x="422.31" y="-73.81" font-family="Helvetica,sans-Serif" font-size="10.00">drake/common/fmt.h</text>
</a>
</g>
</g>
<!-- Node3&#45;&gt;Node7 -->
<g id="edge6_Node000003_Node000007" class="edge">
<title>Node3&#45;&gt;Node7</title>
<g id="a_edge6_Node000003_Node000007"><a xlink:title=" ">
<path fill="none" stroke="#63b8ff" d="M254.41,-126.44C288.72,-116.4 338.19,-101.92 374.54,-91.28"/>
<polygon fill="#63b8ff" stroke="#63b8ff" points="375.81,-94.56 384.43,-88.39 373.85,-87.84 375.81,-94.56"/>
</a>
</g>
</g>
<!-- Node7&#45;&gt;Node5 -->
<g id="edge8_Node000007_Node000005" class="edge">
<title>Node7&#45;&gt;Node5</title>
<g id="a_edge8_Node000007_Node000005"><a xlink:title=" ">
<path fill="none" stroke="#63b8ff" d="M382.08,-64.42C342.38,-53.68 281.85,-37.31 240.99,-26.25"/>
<polygon fill="#63b8ff" stroke="#63b8ff" points="241.87,-22.87 231.3,-23.63 240.04,-29.62 241.87,-22.87"/>
</a>
</g>
</g>
<!-- Node8 -->
<g id="Node000008" class="node">
<title>Node8</title>
<g id="a_Node000008"><a xlink:title=" ">
<ellipse fill="#e0e0e0" stroke="#999999" cx="324.31" cy="-13.44" rx="31.23" ry="13.37"/>
<text text-anchor="middle" x="324.31" y="-10.94" font-family="Helvetica,sans-Serif" font-size="10.00">string</text>
</a>
</g>
</g>
<!-- Node7&#45;&gt;Node8 -->
<g id="edge7_Node000007_Node000008" class="edge">
<title>Node7&#45;&gt;Node8</title>
<g id="a_edge7_Node000007_Node000008"><a xlink:title=" ">
<path fill="none" stroke="#63b8ff" d="M402.47,-62.99C387.28,-53.55 366.2,-40.46 349.76,-30.24"/>
<polygon fill="#63b8ff" stroke="#63b8ff" points="351.51,-27.21 341.17,-24.91 347.82,-33.16 351.51,-27.21"/>
</a>
</g>
</g>
<!-- Node9 -->
<g id="Node000009" class="node">
<title>Node9</title>
<g id="a_Node000009"><a xlink:title=" ">
<ellipse fill="#e0e0e0" stroke="#999999" cx="422.31" cy="-13.44" rx="48.58" ry="13.37"/>
<text text-anchor="middle" x="422.31" y="-10.94" font-family="Helvetica,sans-Serif" font-size="10.00">type_traits</text>
</a>
</g>
</g>
<!-- Node7&#45;&gt;Node9 -->
<g id="edge9_Node000007_Node000009" class="edge">
<title>Node7&#45;&gt;Node9</title>
<g id="a_edge9_Node000007_Node000009"><a xlink:title=" ">
<path fill="none" stroke="#63b8ff" d="M422.31,-62.69C422.31,-55.35 422.31,-45.86 422.31,-37.25"/>
<polygon fill="#63b8ff" stroke="#63b8ff" points="425.81,-37.03 422.31,-27.03 418.81,-37.03 425.81,-37.03"/>
</a>
</g>
</g>
<!-- Node10 -->
<g id="Node000010" class="node">
<title>Node10</title>
<g id="a_Node000010"><a xlink:title=" ">
<ellipse fill="#e0e0e0" stroke="#999999" cx="545.31" cy="-13.44" rx="55.72" ry="13.37"/>
<text text-anchor="middle" x="545.31" y="-10.94" font-family="Helvetica,sans-Serif" font-size="10.00">fmt/format.h</text>
</a>
</g>
</g>
<!-- Node7&#45;&gt;Node10 -->
<g id="edge10_Node000007_Node000010" class="edge">
<title>Node7&#45;&gt;Node10</title>
<g id="a_edge10_Node000007_Node000010"><a xlink:title=" ">
<path fill="none" stroke="#63b8ff" d="M446.31,-63.42C465.35,-54 492.14,-40.75 513.05,-30.4"/>
<polygon fill="#63b8ff" stroke="#63b8ff" points="514.78,-33.45 522.19,-25.87 511.68,-27.17 514.78,-33.45"/>
</a>
</g>
</g>
</g>
</svg>
