<?xml version="1.0" encoding="UTF-8" standalone="no"?>
<!DOCTYPE svg PUBLIC "-//W3C//DTD SVG 1.1//EN"
 "http://www.w3.org/Graphics/SVG/1.1/DTD/svg11.dtd">
<!-- Generated by graphviz version 2.40.1 (20161225.0304)
 -->
<!-- Title: drake/common/yaml/yaml_write_archive.h Pages: 1 -->
<svg width="1618pt" height="240pt"
 viewBox="0.00 0.00 1617.50 240.00" xmlns="http://www.w3.org/2000/svg" xmlns:xlink="http://www.w3.org/1999/xlink">
<g id="graph0" class="graph" transform="scale(1 1) rotate(0) translate(4 236)">
<title>drake/common/yaml/yaml_write_archive.h</title>
<polygon fill="#ffffff" stroke="transparent" points="-4,4 -4,-236 1613.5,-236 1613.5,4 -4,4"/>
<!-- Node0 -->
<g id="node1" class="node">
<title>Node0</title>
<g id="a_node1"><a xlink:title=" ">
<polygon fill="#bfbfbf" stroke="#000000" points="833,-201.5 833,-231.5 979,-231.5 979,-201.5 833,-201.5"/>
<text text-anchor="start" x="841" y="-219.5" font-family="Helvetica,sans-Serif" font-size="10.00" fill="#000000">drake/common/yaml/yaml</text>
<text text-anchor="middle" x="906" y="-208.5" font-family="Helvetica,sans-Serif" font-size="10.00" fill="#000000">_write_archive.h</text>
</a>
</g>
</g>
<!-- Node1 -->
<g id="node2" class="node">
<title>Node1</title>
<g id="a_node2"><a xlink:title=" ">
<polygon fill="#ffffff" stroke="#bfbfbf" points="0,-140 0,-159 42,-159 42,-140 0,-140"/>
<text text-anchor="middle" x="21" y="-147" font-family="Helvetica,sans-Serif" font-size="10.00" fill="#000000">array</text>
</a>
</g>
</g>
<!-- Node0&#45;&gt;Node1 -->
<g id="edge1" class="edge">
<title>Node0&#45;&gt;Node1</title>
<path fill="none" stroke="#191970" d="M832.8441,-215.3961C654.7277,-212.1738 202.4312,-200.6334 56,-165 53.6573,-164.4299 51.2756,-163.7101 48.913,-162.8944"/>
<polygon fill="#191970" stroke="#191970" points="50.0435,-159.5775 39.4577,-159.1398 47.4601,-166.0834 50.0435,-159.5775"/>
</g>
<!-- Node2 -->
<g id="node3" class="node">
<title>Node2</title>
<g id="a_node3"><a xlink:title=" ">
<polygon fill="#ffffff" stroke="#bfbfbf" points="556,-73 556,-92 594,-92 594,-73 556,-73"/>
<text text-anchor="middle" x="575" y="-80" font-family="Helvetica,sans-Serif" font-size="10.00" fill="#000000">map</text>
</a>
</g>
</g>
<!-- Node0&#45;&gt;Node2 -->
<g id="edge2" class="edge">
<title>Node0&#45;&gt;Node2</title>
<path fill="none" stroke="#191970" d="M832.8278,-207.901C766.1897,-199.0594 673.5286,-183.9284 642,-165 616.1521,-149.482 596.0054,-120.1646 584.812,-100.9846"/>
<polygon fill="#191970" stroke="#191970" points="587.8595,-99.2632 579.921,-92.2467 581.7513,-102.6823 587.8595,-99.2632"/>
</g>
<!-- Node3 -->
<g id="node4" class="node">
<title>Node3</title>
<g id="a_node4"><a xlink:title=" ">
<polygon fill="#ffffff" stroke="#bfbfbf" points="1175,-140 1175,-159 1231,-159 1231,-140 1175,-140"/>
<text text-anchor="middle" x="1203" y="-147" font-family="Helvetica,sans-Serif" font-size="10.00" fill="#000000">optional</text>
</a>
</g>
</g>
<!-- Node0&#45;&gt;Node3 -->
<g id="edge3" class="edge">
<title>Node0&#45;&gt;Node3</title>
<path fill="none" stroke="#191970" d="M979.2589,-204.797C1030.6166,-195.8433 1100.6041,-182.1327 1161,-165 1163.6428,-164.2503 1166.3564,-163.4122 1169.0709,-162.5243"/>
<polygon fill="#191970" stroke="#191970" points="1170.4771,-165.7413 1178.7802,-159.1604 1168.1855,-159.1271 1170.4771,-165.7413"/>
</g>
<!-- Node4 -->
<g id="node5" class="node">
<title>Node4</title>
<g id="a_node5"><a xlink:title=" ">
<polygon fill="#ffffff" stroke="#bfbfbf" points="1249.5,-140 1249.5,-159 1314.5,-159 1314.5,-140 1249.5,-140"/>
<text text-anchor="middle" x="1282" y="-147" font-family="Helvetica,sans-Serif" font-size="10.00" fill="#000000">stdexcept</text>
</a>
</g>
</g>
<!-- Node0&#45;&gt;Node4 -->
<g id="edge4" class="edge">
<title>Node0&#45;&gt;Node4</title>
<path fill="none" stroke="#191970" d="M979.173,-209.4901C1047.4191,-201.9503 1151.6764,-187.8601 1240,-165 1242.9886,-164.2265 1246.0609,-163.3199 1249.1189,-162.3401"/>
<polygon fill="#191970" stroke="#191970" points="1250.4026,-165.5998 1258.7182,-159.0346 1248.1235,-158.9812 1250.4026,-165.5998"/>
</g>
<!-- Node5 -->
<g id="node6" class="node">
<title>Node5</title>
<g id="a_node6"><a xlink:title=" ">
<polygon fill="#ffffff" stroke="#bfbfbf" points="428,-73 428,-92 472,-92 472,-73 428,-73"/>
<text text-anchor="middle" x="450" y="-80" font-family="Helvetica,sans-Serif" font-size="10.00" fill="#000000">string</text>
</a>
</g>
</g>
<!-- Node0&#45;&gt;Node5 -->
<g id="edge5" class="edge">
<title>Node0&#45;&gt;Node5</title>
<path fill="none" stroke="#191970" d="M832.8293,-210.0822C745.5408,-201.6675 605.3389,-185.5323 557,-165 520.5668,-149.5247 485.6723,-118.6037 466.1187,-99.3243"/>
<polygon fill="#191970" stroke="#191970" points="468.4722,-96.7269 458.9463,-92.0892 463.501,-101.6551 468.4722,-96.7269"/>
</g>
<!-- Node6 -->
<g id="node7" class="node">
<title>Node6</title>
<g id="a_node7"><a xlink:title=" ">
<polygon fill="#ffffff" stroke="#bfbfbf" points="900.5,-6 900.5,-25 969.5,-25 969.5,-6 900.5,-6"/>
<text text-anchor="middle" x="935" y="-13" font-family="Helvetica,sans-Serif" font-size="10.00" fill="#000000">type_traits</text>
</a>
</g>
</g>
<!-- Node0&#45;&gt;Node6 -->
<g id="edge6" class="edge">
<title>Node0&#45;&gt;Node6</title>
<path fill="none" stroke="#191970" d="M908.1797,-201.3923C913.346,-165.5844 926.3354,-75.5545 932.1309,-35.386"/>
<polygon fill="#191970" stroke="#191970" points="935.6284,-35.6535 933.5924,-25.2562 928.7002,-34.6539 935.6284,-35.6535"/>
</g>
<!-- Node7 -->
<g id="node8" class="node">
<title>Node7</title>
<g id="a_node8"><a xlink:title=" ">
<polygon fill="#ffffff" stroke="#bfbfbf" points="1332.5,-140 1332.5,-159 1425.5,-159 1425.5,-140 1332.5,-140"/>
<text text-anchor="middle" x="1379" y="-147" font-family="Helvetica,sans-Serif" font-size="10.00" fill="#000000">unordered_map</text>
</a>
</g>
</g>
<!-- Node0&#45;&gt;Node7 -->
<g id="edge7" class="edge">
<title>Node0&#45;&gt;Node7</title>
<path fill="none" stroke="#191970" d="M979.0315,-210.8916C1062.8859,-203.6704 1204.2938,-189.0963 1324,-165 1328.7351,-164.0468 1333.6585,-162.8956 1338.5272,-161.6561"/>
<polygon fill="#191970" stroke="#191970" points="1339.6113,-164.9892 1348.3666,-159.023 1337.8017,-158.2272 1339.6113,-164.9892"/>
</g>
<!-- Node8 -->
<g id="node9" class="node">
<title>Node8</title>
<g id="a_node9"><a xlink:title=" ">
<polygon fill="#ffffff" stroke="#bfbfbf" points="252.5,-6 252.5,-25 297.5,-25 297.5,-6 252.5,-6"/>
<text text-anchor="middle" x="275" y="-13" font-family="Helvetica,sans-Serif" font-size="10.00" fill="#000000">utility</text>
</a>
</g>
</g>
<!-- Node0&#45;&gt;Node8 -->
<g id="edge8" class="edge">
<title>Node0&#45;&gt;Node8</title>
<path fill="none" stroke="#191970" d="M832.8401,-213.0942C689.2754,-205.9965 375.4602,-188.3242 270,-165 186.245,-146.4763 138.0088,-168.4 89,-98 49.6016,-41.4051 178.4373,-23.1511 241.849,-17.673"/>
<polygon fill="#191970" stroke="#191970" points="242.4645,-21.1349 252.1522,-16.8455 241.9041,-14.1574 242.4645,-21.1349"/>
</g>
<!-- Node9 -->
<g id="node10" class="node">
<title>Node9</title>
<g id="a_node10"><a xlink:title=" ">
<polygon fill="#ffffff" stroke="#bfbfbf" points="855.5,-73 855.5,-92 906.5,-92 906.5,-73 855.5,-73"/>
<text text-anchor="middle" x="881" y="-80" font-family="Helvetica,sans-Serif" font-size="10.00" fill="#000000">variant</text>
</a>
</g>
</g>
<!-- Node0&#45;&gt;Node9 -->
<g id="edge9" class="edge">
<title>Node0&#45;&gt;Node9</title>
<path fill="none" stroke="#191970" d="M903.1808,-201.389C898.6443,-177.0735 889.7247,-129.2644 884.6884,-102.2698"/>
<polygon fill="#191970" stroke="#191970" points="888.0666,-101.2926 882.7918,-92.1042 881.1853,-102.5765 888.0666,-101.2926"/>
</g>
<!-- Node10 -->
<g id="node11" class="node">
<title>Node10</title>
<g id="a_node11"><a xlink:title=" ">
<polygon fill="#ffffff" stroke="#bfbfbf" points="490.5,-73 490.5,-92 537.5,-92 537.5,-73 490.5,-73"/>
<text text-anchor="middle" x="514" y="-80" font-family="Helvetica,sans-Serif" font-size="10.00" fill="#000000">vector</text>
</a>
</g>
</g>
<!-- Node0&#45;&gt;Node10 -->
<g id="edge10" class="edge">
<title>Node0&#45;&gt;Node10</title>
<path fill="none" stroke="#191970" d="M832.8943,-208.8401C756.7824,-200.0195 643.2877,-184.2418 604,-165 572.3052,-149.477 543.7677,-119.2479 527.6877,-100.0084"/>
<polygon fill="#191970" stroke="#191970" points="530.2316,-97.589 521.2096,-92.0343 524.7985,-102.0028 530.2316,-97.589"/>
</g>
<!-- Node11 -->
<g id="node12" class="node">
<title>Node11</title>
<g id="a_node12"><a xlink:title=" ">
<polygon fill="#ffffff" stroke="#bfbfbf" points="1443.5,-140 1443.5,-159 1512.5,-159 1512.5,-140 1443.5,-140"/>
<text text-anchor="middle" x="1478" y="-147" font-family="Helvetica,sans-Serif" font-size="10.00" fill="#000000">Eigen/Core</text>
</a>
</g>
</g>
<!-- Node0&#45;&gt;Node11 -->
<g id="edge11" class="edge">
<title>Node0&#45;&gt;Node11</title>
<path fill="none" stroke="#191970" d="M979.2426,-211.632C1103.4454,-202.9982 1350.1562,-184.1071 1435,-165 1438.2515,-164.2678 1441.5935,-163.3586 1444.9087,-162.3502"/>
<polygon fill="#191970" stroke="#191970" points="1446.2745,-165.5845 1454.6573,-159.1054 1444.0637,-158.9428 1446.2745,-165.5845"/>
</g>
<!-- Node12 -->
<g id="node13" class="node">
<title>Node12</title>
<g id="a_node13"><a xlink:title=" ">
<polygon fill="#ffffff" stroke="#bfbfbf" points="1530.5,-140 1530.5,-159 1609.5,-159 1609.5,-140 1530.5,-140"/>
<text text-anchor="middle" x="1570" y="-147" font-family="Helvetica,sans-Serif" font-size="10.00" fill="#000000">fmt/format.h</text>
</a>
</g>
</g>
<!-- Node0&#45;&gt;Node12 -->
<g id="edge12" class="edge">
<title>Node0&#45;&gt;Node12</title>
<path fill="none" stroke="#191970" d="M979.2034,-212.4865C1119.1931,-204.4634 1419.9991,-185.4514 1522,-165 1526.1053,-164.1769 1530.3514,-163.1206 1534.5426,-161.9469"/>
<polygon fill="#191970" stroke="#191970" points="1535.5702,-165.2927 1544.1302,-159.0497 1533.5453,-158.592 1535.5702,-165.2927"/>
</g>
<!-- Node13 -->
<g id="node14" class="node">
<title>Node13</title>
<g id="a_node14"><a xlink:href="drake__copyable_8h.html" target="_top" xlink:title="Provides careful macros to selectively enable or disable the special member functions for copy&#45;constr...">
<polygon fill="#ffffff" stroke="#000000" points="1019.5,-.5 1019.5,-30.5 1140.5,-30.5 1140.5,-.5 1019.5,-.5"/>
<text text-anchor="start" x="1027.5" y="-18.5" font-family="Helvetica,sans-Serif" font-size="10.00" fill="#000000">drake/common/drake</text>
<text text-anchor="middle" x="1080" y="-7.5" font-family="Helvetica,sans-Serif" font-size="10.00" fill="#000000">_copyable.h</text>
</a>
</g>
</g>
<!-- Node0&#45;&gt;Node13 -->
<g id="edge13" class="edge">
<title>Node0&#45;&gt;Node13</title>
<path fill="none" stroke="#191970" d="M979.1698,-209.2729C1036.495,-201.9208 1109.5399,-188.2328 1128,-165 1157.917,-127.3484 1123.8069,-70.5946 1099.7071,-38.946"/>
<polygon fill="#191970" stroke="#191970" points="1102.1708,-36.4169 1093.2367,-30.7219 1096.6693,-40.7453 1102.1708,-36.4169"/>
</g>
<!-- Node14 -->
<g id="node15" class="node">
<title>Node14</title>
<g id="a_node15"><a xlink:href="name__value_8h.html" target="_top" xlink:title=" ">
<polygon fill="#ffffff" stroke="#000000" points="957,-140 957,-159 1119,-159 1119,-140 957,-140"/>
<text text-anchor="middle" x="1038" y="-147" font-family="Helvetica,sans-Serif" font-size="10.00" fill="#000000">drake/common/name_value.h</text>
</a>
</g>
</g>
<!-- Node0&#45;&gt;Node14 -->
<g id="edge14" class="edge">
<title>Node0&#45;&gt;Node14</title>
<path fill="none" stroke="#191970" d="M935.6234,-201.4639C957.8711,-190.1715 988.1384,-174.8086 1009.9861,-163.7192"/>
<polygon fill="#191970" stroke="#191970" points="1011.7459,-166.7511 1019.0788,-159.1039 1008.5776,-160.5091 1011.7459,-166.7511"/>
</g>
<!-- Node16 -->
<g id="node17" class="node">
<title>Node16</title>
<g id="a_node17"><a xlink:href="nice__type__name_8h.html" target="_top" xlink:title=" ">
<polygon fill="#ffffff" stroke="#000000" points="279,-134.5 279,-164.5 419,-164.5 419,-134.5 279,-134.5"/>
<text text-anchor="start" x="287" y="-152.5" font-family="Helvetica,sans-Serif" font-size="10.00" fill="#000000">drake/common/nice_type</text>
<text text-anchor="middle" x="349" y="-141.5" font-family="Helvetica,sans-Serif" font-size="10.00" fill="#000000">_name.h</text>
</a>
</g>
</g>
<!-- Node0&#45;&gt;Node16 -->
<g id="edge18" class="edge">
<title>Node0&#45;&gt;Node16</title>
<path fill="none" stroke="#191970" d="M832.6712,-209.1848C742.3063,-199.9516 584.1271,-183.0782 449,-165 442.6578,-164.1515 436.096,-163.2307 429.5056,-162.2753"/>
<polygon fill="#191970" stroke="#191970" points="429.5563,-158.7451 419.1531,-160.751 428.5365,-165.6704 429.5563,-158.7451"/>
</g>
<!-- Node21 -->
<g id="node22" class="node">
<title>Node21</title>
<g id="a_node22"><a xlink:href="yaml__node_8h.html" target="_top" xlink:title=" ">
<polygon fill="#ffffff" stroke="#000000" points="651,-134.5 651,-164.5 797,-164.5 797,-134.5 651,-134.5"/>
<text text-anchor="start" x="659" y="-152.5" font-family="Helvetica,sans-Serif" font-size="10.00" fill="#000000">drake/common/yaml/yaml</text>
<text text-anchor="middle" x="724" y="-141.5" font-family="Helvetica,sans-Serif" font-size="10.00" fill="#000000">_node.h</text>
</a>
</g>
</g>
<!-- Node0&#45;&gt;Node21 -->
<g id="edge29" class="edge">
<title>Node0&#45;&gt;Node21</title>
<path fill="none" stroke="#191970" d="M865.1556,-201.4639C838.3201,-191.5849 803.0218,-178.5905 774.4371,-168.0675"/>
<polygon fill="#191970" stroke="#191970" points="775.616,-164.7719 765.0225,-164.6017 773.1977,-171.3409 775.616,-164.7719"/>
</g>
<!-- Node14&#45;&gt;Node13 -->
<g id="edge17" class="edge">
<title>Node14&#45;&gt;Node13</title>
<path fill="none" stroke="#191970" d="M1054.4887,-139.8327C1067.9409,-130.8989 1085.9837,-116.2628 1094,-98 1102.0268,-79.7131 1097.3961,-57.2765 1091.3871,-40.4201"/>
<polygon fill="#191970" stroke="#191970" points="1094.4919,-38.7524 1087.5684,-30.7326 1087.9796,-41.3195 1094.4919,-38.7524"/>
</g>
<!-- Node15 -->
<g id="node16" class="node">
<title>Node15</title>
<g id="a_node16"><a xlink:href="drake__assert_8h.html" target="_top" xlink:title="Provides Drake&#39;s assertion implementation.">
<polygon fill="#ffffff" stroke="#000000" points="963.5,-67.5 963.5,-97.5 1084.5,-97.5 1084.5,-67.5 963.5,-67.5"/>
<text text-anchor="start" x="971.5" y="-85.5" font-family="Helvetica,sans-Serif" font-size="10.00" fill="#000000">drake/common/drake</text>
<text text-anchor="middle" x="1024" y="-74.5" font-family="Helvetica,sans-Serif" font-size="10.00" fill="#000000">_assert.h</text>
</a>
</g>
</g>
<!-- Node14&#45;&gt;Node15 -->
<g id="edge15" class="edge">
<title>Node14&#45;&gt;Node15</title>
<path fill="none" stroke="#191970" d="M1035.9941,-139.9005C1034.2228,-131.4234 1031.5612,-118.6856 1029.1949,-107.3614"/>
<polygon fill="#191970" stroke="#191970" points="1032.6103,-106.5944 1027.1389,-97.5218 1025.7583,-108.0263 1032.6103,-106.5944"/>
</g>
<!-- Node15&#45;&gt;Node6 -->
<g id="edge16" class="edge">
<title>Node15&#45;&gt;Node6</title>
<path fill="none" stroke="#191970" d="M1003.8045,-67.2967C989.534,-56.5537 970.4532,-42.1895 956.0052,-31.3129"/>
<polygon fill="#191970" stroke="#191970" points="957.7867,-28.2731 947.6924,-25.055 953.5766,-33.8656 957.7867,-28.2731"/>
</g>
<!-- Node16&#45;&gt;Node5 -->
<g id="edge20" class="edge">
<title>Node16&#45;&gt;Node5</title>
<path fill="none" stroke="#191970" d="M371.6664,-134.4639C388.1549,-123.526 410.4004,-108.769 426.9722,-97.7759"/>
<polygon fill="#191970" stroke="#191970" points="429.1241,-100.5485 435.5224,-92.1039 425.2545,-94.7153 429.1241,-100.5485"/>
</g>
<!-- Node16&#45;&gt;Node8 -->
<g id="edge22" class="edge">
<title>Node16&#45;&gt;Node8</title>
<path fill="none" stroke="#191970" d="M317.2448,-134.4144C302.9475,-125.855 287.4175,-113.6876 279,-98 268.5997,-78.617 269.2271,-52.841 271.4007,-35.2931"/>
<polygon fill="#191970" stroke="#191970" points="274.9076,-35.5124 272.952,-25.0997 267.9872,-34.4592 274.9076,-35.5124"/>
</g>
<!-- Node16&#45;&gt;Node10 -->
<g id="edge23" class="edge">
<title>Node16&#45;&gt;Node10</title>
<path fill="none" stroke="#191970" d="M389.7258,-134.4197C415.9645,-124.5053 450.711,-111.0046 481,-98 482.345,-97.4225 483.7163,-96.8229 485.0981,-96.2098"/>
<polygon fill="#191970" stroke="#191970" points="486.5551,-99.3922 494.2042,-92.0613 483.653,-93.0221 486.5551,-99.3922"/>
</g>
<!-- Node17 -->
<g id="node18" class="node">
<title>Node17</title>
<g id="a_node18"><a xlink:title=" ">
<polygon fill="#ffffff" stroke="#bfbfbf" points="98,-73 98,-92 156,-92 156,-73 98,-73"/>
<text text-anchor="middle" x="127" y="-80" font-family="Helvetica,sans-Serif" font-size="10.00" fill="#000000">memory</text>
</a>
</g>
</g>
<!-- Node16&#45;&gt;Node17 -->
<g id="edge19" class="edge">
<title>Node16&#45;&gt;Node17</title>
<path fill="none" stroke="#191970" d="M288.3859,-134.4025C252.2468,-124.9396 205.6386,-111.9243 165,-98 163.079,-97.3418 161.1148,-96.6381 159.1408,-95.907"/>
<polygon fill="#191970" stroke="#191970" points="159.9326,-92.4603 149.3436,-92.1096 157.4027,-98.9872 159.9326,-92.4603"/>
</g>
<!-- Node18 -->
<g id="node19" class="node">
<title>Node18</title>
<g id="a_node19"><a xlink:title=" ">
<polygon fill="#ffffff" stroke="#bfbfbf" points="174.5,-73 174.5,-92 231.5,-92 231.5,-73 174.5,-73"/>
<text text-anchor="middle" x="203" y="-80" font-family="Helvetica,sans-Serif" font-size="10.00" fill="#000000">typeinfo</text>
</a>
</g>
</g>
<!-- Node16&#45;&gt;Node18 -->
<g id="edge21" class="edge">
<title>Node16&#45;&gt;Node18</title>
<path fill="none" stroke="#191970" d="M316.2348,-134.4639C291.4068,-123.0702 257.5488,-107.5327 233.3372,-96.4219"/>
<polygon fill="#191970" stroke="#191970" points="234.4764,-93.0938 223.9279,-92.1039 231.5568,-99.4559 234.4764,-93.0938"/>
</g>
<!-- Node19 -->
<g id="node20" class="node">
<title>Node19</title>
<g id="a_node20"><a xlink:href="never__destroyed_8h.html" target="_top" xlink:title=" ">
<polygon fill="#ffffff" stroke="#000000" points="288.5,-67.5 288.5,-97.5 409.5,-97.5 409.5,-67.5 288.5,-67.5"/>
<text text-anchor="start" x="296.5" y="-85.5" font-family="Helvetica,sans-Serif" font-size="10.00" fill="#000000">drake/common/never</text>
<text text-anchor="middle" x="349" y="-74.5" font-family="Helvetica,sans-Serif" font-size="10.00" fill="#000000">_destroyed.h</text>
</a>
</g>
</g>
<!-- Node16&#45;&gt;Node19 -->
<g id="edge24" class="edge">
<title>Node16&#45;&gt;Node19</title>
<path fill="none" stroke="#191970" d="M349,-134.2967C349,-126.5013 349,-116.7991 349,-107.9064"/>
<polygon fill="#191970" stroke="#191970" points="352.5001,-107.6431 349,-97.6432 345.5001,-107.6432 352.5001,-107.6431"/>
</g>
<!-- Node19&#45;&gt;Node6 -->
<g id="edge26" class="edge">
<title>Node19&#45;&gt;Node6</title>
<path fill="none" stroke="#191970" d="M409.6221,-68.6158C412.7872,-68.0353 415.9273,-67.4918 419,-67 592.1606,-39.2873 800.5485,-23.9311 890.3039,-18.1719"/>
<polygon fill="#191970" stroke="#191970" points="890.6389,-21.6578 900.3977,-17.5328 890.1965,-14.6718 890.6389,-21.6578"/>
</g>
<!-- Node19&#45;&gt;Node8 -->
<g id="edge27" class="edge">
<title>Node19&#45;&gt;Node8</title>
<path fill="none" stroke="#191970" d="M332.2083,-67.2967C320.5668,-56.7564 305.0752,-42.7303 293.1491,-31.9323"/>
<polygon fill="#191970" stroke="#191970" points="295.3154,-29.1722 285.5533,-25.055 290.6171,-34.3613 295.3154,-29.1722"/>
</g>
<!-- Node19&#45;&gt;Node13 -->
<g id="edge28" class="edge">
<title>Node19&#45;&gt;Node13</title>
<path fill="none" stroke="#191970" d="M409.6021,-68.4832C412.7724,-67.9373 415.9191,-67.4375 419,-67 665.9256,-31.9371 731.0568,-57.942 979,-31 988.8542,-29.9292 999.2183,-28.5875 1009.4002,-27.144"/>
<polygon fill="#191970" stroke="#191970" points="1010.105,-30.5784 1019.4958,-25.673 1009.0956,-23.6515 1010.105,-30.5784"/>
</g>
<!-- Node20 -->
<g id="node21" class="node">
<title>Node20</title>
<g id="a_node21"><a xlink:title=" ">
<polygon fill="#ffffff" stroke="#bfbfbf" points="330.5,-6 330.5,-25 367.5,-25 367.5,-6 330.5,-6"/>
<text text-anchor="middle" x="349" y="-13" font-family="Helvetica,sans-Serif" font-size="10.00" fill="#000000">new</text>
</a>
</g>
</g>
<!-- Node19&#45;&gt;Node20 -->
<g id="edge25" class="edge">
<title>Node19&#45;&gt;Node20</title>
<path fill="none" stroke="#191970" d="M349,-67.2967C349,-57.7699 349,-45.3954 349,-35.1306"/>
<polygon fill="#191970" stroke="#191970" points="352.5001,-35.0549 349,-25.055 345.5001,-35.055 352.5001,-35.0549"/>
</g>
<!-- Node21&#45;&gt;Node2 -->
<g id="edge30" class="edge">
<title>Node21&#45;&gt;Node2</title>
<path fill="none" stroke="#191970" d="M685.942,-134.4804C661.8823,-124.6968 630.2888,-111.3165 603,-98 602.3072,-97.6619 601.6072,-97.3149 600.9029,-96.961"/>
<polygon fill="#191970" stroke="#191970" points="602.2096,-93.6935 591.7309,-92.1292 598.947,-99.8867 602.2096,-93.6935"/>
</g>
<!-- Node21&#45;&gt;Node5 -->
<g id="edge32" class="edge">
<title>Node21&#45;&gt;Node5</title>
<path fill="none" stroke="#191970" d="M650.9098,-139.0074C601.9647,-130.7742 536.5686,-117.4222 481,-98 479.5799,-97.5037 478.1416,-96.9564 476.7021,-96.373"/>
<polygon fill="#191970" stroke="#191970" points="477.9205,-93.0828 467.3665,-92.1529 475.037,-99.4614 477.9205,-93.0828"/>
</g>
<!-- Node21&#45;&gt;Node8 -->
<g id="edge34" class="edge">
<title>Node21&#45;&gt;Node8</title>
<path fill="none" stroke="#191970" d="M742.8401,-134.4476C762.7293,-116.7958 788.7974,-87.3649 770,-67 736.0537,-30.223 370.0263,-41.0662 321,-31 316.5139,-30.0789 311.8595,-28.8504 307.3104,-27.4865"/>
<polygon fill="#191970" stroke="#191970" points="308.2182,-24.1016 297.6263,-24.3512 306.062,-30.7612 308.2182,-24.1016"/>
</g>
<!-- Node21&#45;&gt;Node9 -->
<g id="edge35" class="edge">
<title>Node21&#45;&gt;Node9</title>
<path fill="none" stroke="#191970" d="M759.2339,-134.4639C786.1698,-122.969 822.9894,-107.2561 849.0689,-96.1266"/>
<polygon fill="#191970" stroke="#191970" points="850.6716,-99.2482 858.4953,-92.1039 847.924,-92.8099 850.6716,-99.2482"/>
</g>
<!-- Node21&#45;&gt;Node10 -->
<g id="edge36" class="edge">
<title>Node21&#45;&gt;Node10</title>
<path fill="none" stroke="#191970" d="M663.8349,-134.4968C629.2266,-125.2483 585.1725,-112.4174 547,-98 545.4123,-97.4003 543.7952,-96.7563 542.1723,-96.0837"/>
<polygon fill="#191970" stroke="#191970" points="543.5395,-92.8615 532.9774,-92.03 540.7157,-99.2666 543.5395,-92.8615"/>
</g>
<!-- Node21&#45;&gt;Node13 -->
<g id="edge37" class="edge">
<title>Node21&#45;&gt;Node13</title>
<path fill="none" stroke="#191970" d="M747.6527,-134.3967C763.4255,-124.2478 784.5695,-110.494 803,-98 822.8008,-84.577 825.1152,-76.6592 847,-67 875.6476,-54.3559 951.7117,-38.6862 1009.2017,-27.9734"/>
<polygon fill="#191970" stroke="#191970" points="1010.1446,-31.3585 1019.3419,-26.0991 1008.8722,-24.4751 1010.1446,-31.3585"/>
</g>
<!-- Node22 -->
<g id="node23" class="node">
<title>Node22</title>
<g id="a_node23"><a xlink:title=" ">
<polygon fill="#ffffff" stroke="#bfbfbf" points="612.5,-73 612.5,-92 669.5,-92 669.5,-73 612.5,-73"/>
<text text-anchor="middle" x="641" y="-80" font-family="Helvetica,sans-Serif" font-size="10.00" fill="#000000">ostream</text>
</a>
</g>
</g>
<!-- Node21&#45;&gt;Node22 -->
<g id="edge31" class="edge">
<title>Node21&#45;&gt;Node22</title>
<path fill="none" stroke="#191970" d="M705.166,-134.2967C691.9831,-123.6551 674.3985,-109.4602 660.9716,-98.6217"/>
<polygon fill="#191970" stroke="#191970" points="662.8164,-95.6128 652.8368,-92.055 658.4195,-101.0596 662.8164,-95.6128"/>
</g>
<!-- Node23 -->
<g id="node24" class="node">
<title>Node23</title>
<g id="a_node24"><a xlink:title=" ">
<polygon fill="#ffffff" stroke="#bfbfbf" points="687.5,-73 687.5,-92 760.5,-92 760.5,-73 687.5,-73"/>
<text text-anchor="middle" x="724" y="-80" font-family="Helvetica,sans-Serif" font-size="10.00" fill="#000000">string_view</text>
</a>
</g>
</g>
<!-- Node21&#45;&gt;Node23 -->
<g id="edge33" class="edge">
<title>Node21&#45;&gt;Node23</title>
<path fill="none" stroke="#191970" d="M724,-134.2967C724,-124.7699 724,-112.3954 724,-102.1306"/>
<polygon fill="#191970" stroke="#191970" points="727.5001,-102.0549 724,-92.055 720.5001,-102.055 727.5001,-102.0549"/>
</g>
</g>
</svg>
