<?xml version="1.0" encoding="UTF-8" standalone="no"?>
<!DOCTYPE svg PUBLIC "-//W3C//DTD SVG 1.1//EN"
 "http://www.w3.org/Graphics/SVG/1.1/DTD/svg11.dtd">
<!-- Generated by graphviz version 2.43.0 (0)
 -->
<!-- Title: drake/common/yaml/yaml_read_archive.h Pages: 1 -->
<!--zoomable 240 -->
<svg id="main" version="1.1" xmlns="http://www.w3.org/2000/svg" xmlns:xlink="http://www.w3.org/1999/xlink" xml:space="preserve" onload="init(evt)">
<style type="text/css"><![CDATA[
.edge:hover path { stroke: red; }
.edge:hover polygon { stroke: red; fill: red; }
]]></style>
<script type="text/javascript"><![CDATA[
var edges = document.getElementsByTagName('g');
if (edges && edges.length) {
  for (var i=0;i<edges.length;i++) {
    if (edges[i].id.substr(0,4)=='edge') {
      edges[i].setAttribute('class','edge');
    }
  }
}
]]></script>
        <defs>
                <circle id="rim" cx="0" cy="0" r="7"/>
                <circle id="rim2" cx="0" cy="0" r="3.5"/>
                <g id="zoomPlus">
                        <use xlink:href="#rim" fill="#404040">
                                <set attributeName="fill" to="#808080" begin="zoomplus.mouseover" end="zoomplus.mouseout"/>
                        </use>
                        <path d="M-4,0h8M0,-4v8" fill="none" stroke="white" stroke-width="1.5" pointer-events="none"/>
                </g>
                <g id="zoomMin">
                        <use xlink:href="#rim" fill="#404040">
                                <set attributeName="fill" to="#808080" begin="zoomminus.mouseover" end="zoomminus.mouseout"/>
                        </use>
                        <path d="M-4,0h8" fill="none" stroke="white" stroke-width="1.5" pointer-events="none"/>
                </g>
                <g id="dirArrow">
                        <path fill="none" stroke="white" stroke-width="1.5" d="M0,-3.0v7 M-2.5,-0.5L0,-3.0L2.5,-0.5"/>
                </g>
               <g id="resetDef">
                       <use xlink:href="#rim2" fill="#404040">
                               <set attributeName="fill" to="#808080" begin="reset.mouseover" end="reset.mouseout"/>
                       </use>
               </g>
        </defs>

<script type="text/javascript">
var viewWidth = 1984;
var viewHeight = 240;
var sectionId = 'dynsection-0';
</script>
<script xlink:href="svgpan.js"/>
<svg id="graph" class="graph">
<g id="viewport">
<title>drake/common/yaml/yaml_read_archive.h</title>
<polygon fill="white" stroke="transparent" points="-4,4 -4,-236 1979.5,-236 1979.5,4 -4,4"/>
<!-- Node0 -->
<g id="node1" class="node">
<title>Node0</title>
<g id="a_node1"><a xlink:title=" ">
<polygon fill="#bfbfbf" stroke="black" points="711.5,-201.5 711.5,-231.5 856.5,-231.5 856.5,-201.5 711.5,-201.5"/>
<text text-anchor="start" x="719.5" y="-219.5" font-family="Helvetica,sans-Serif" font-size="10.00">drake/common/yaml/yaml</text>
<text text-anchor="middle" x="784" y="-208.5" font-family="Helvetica,sans-Serif" font-size="10.00">_read_archive.h</text>
</a>
</g>
</g>
<!-- Node1 -->
<g id="node2" class="node">
<title>Node1</title>
<g id="a_node2"><a xlink:title=" ">
<polygon fill="white" stroke="#bfbfbf" points="0,-140 0,-159 64,-159 64,-140 0,-140"/>
<text text-anchor="middle" x="32" y="-147" font-family="Helvetica,sans-Serif" font-size="10.00">algorithm</text>
</a>
</g>
</g>
<!-- Node0&#45;&gt;Node1 -->
<g id="edge1" class="edge">
<title>Node0&#45;&gt;Node1</title>
<path fill="none" stroke="midnightblue" d="M711.29,-212.82C555.4,-206.66 193.39,-190.08 73,-165 69.57,-164.29 66.04,-163.35 62.55,-162.31"/>
<polygon fill="midnightblue" stroke="midnightblue" points="63.56,-158.96 52.97,-159.14 61.36,-165.6 63.56,-158.96"/>
</g>
<!-- Node2 -->
<g id="node3" class="node">
<title>Node2</title>
<g id="a_node3"><a xlink:title=" ">
<polygon fill="white" stroke="#bfbfbf" points="82,-140 82,-159 124,-159 124,-140 82,-140"/>
<text text-anchor="middle" x="103" y="-147" font-family="Helvetica,sans-Serif" font-size="10.00">array</text>
</a>
</g>
</g>
<!-- Node0&#45;&gt;Node2 -->
<g id="edge2" class="edge">
<title>Node0&#45;&gt;Node2</title>
<path fill="none" stroke="midnightblue" d="M711.44,-213.26C565.29,-208.2 240.32,-193.99 133,-165 131.07,-164.48 129.12,-163.84 127.19,-163.11"/>
<polygon fill="midnightblue" stroke="midnightblue" points="128.4,-159.82 117.84,-159.02 125.59,-166.24 128.4,-159.82"/>
</g>
<!-- Node3 -->
<g id="node4" class="node">
<title>Node3</title>
<g id="a_node4"><a xlink:title=" ">
<polygon fill="white" stroke="#bfbfbf" points="142,-140 142,-159 192,-159 192,-140 142,-140"/>
<text text-anchor="middle" x="167" y="-147" font-family="Helvetica,sans-Serif" font-size="10.00">cstdint</text>
</a>
</g>
</g>
<!-- Node0&#45;&gt;Node3 -->
<g id="edge3" class="edge">
<title>Node0&#45;&gt;Node3</title>
<path fill="none" stroke="midnightblue" d="M711.41,-215.37C600.94,-213.79 384.6,-205.23 206,-165 202.93,-164.31 199.77,-163.43 196.65,-162.45"/>
<polygon fill="midnightblue" stroke="midnightblue" points="197.52,-159.05 186.93,-159.08 195.23,-165.67 197.52,-159.05"/>
</g>
<!-- Node4 -->
<g id="node5" class="node">
<title>Node4</title>
<g id="a_node5"><a xlink:title=" ">
<polygon fill="white" stroke="#bfbfbf" points="232,-73 232,-92 270,-92 270,-73 232,-73"/>
<text text-anchor="middle" x="251" y="-80" font-family="Helvetica,sans-Serif" font-size="10.00">map</text>
</a>
</g>
</g>
<!-- Node0&#45;&gt;Node4 -->
<g id="edge4" class="edge">
<title>Node0&#45;&gt;Node4</title>
<path fill="none" stroke="midnightblue" d="M711.1,-210.9C608.98,-203.74 429,-188.28 368,-165 328.19,-149.8 289.01,-118.19 267.62,-99.11"/>
<polygon fill="midnightblue" stroke="midnightblue" points="269.83,-96.39 260.08,-92.24 265.12,-101.57 269.83,-96.39"/>
</g>
<!-- Node5 -->
<g id="node6" class="node">
<title>Node5</title>
<g id="a_node6"><a xlink:title=" ">
<polygon fill="white" stroke="#bfbfbf" points="1227,-140 1227,-159 1283,-159 1283,-140 1227,-140"/>
<text text-anchor="middle" x="1255" y="-147" font-family="Helvetica,sans-Serif" font-size="10.00">optional</text>
</a>
</g>
</g>
<!-- Node0&#45;&gt;Node5 -->
<g id="edge5" class="edge">
<title>Node0&#45;&gt;Node5</title>
<path fill="none" stroke="midnightblue" d="M856.82,-212.75C943.88,-208.15 1093.44,-196.1 1218,-165 1220.67,-164.33 1223.4,-163.52 1226.12,-162.63"/>
<polygon fill="midnightblue" stroke="midnightblue" points="1227.52,-165.84 1235.72,-159.14 1225.13,-159.27 1227.52,-165.84"/>
</g>
<!-- Node6 -->
<g id="node7" class="node">
<title>Node6</title>
<g id="a_node7"><a xlink:title=" ">
<polygon fill="white" stroke="#bfbfbf" points="288.5,-73 288.5,-92 345.5,-92 345.5,-73 288.5,-73"/>
<text text-anchor="middle" x="317" y="-80" font-family="Helvetica,sans-Serif" font-size="10.00">ostream</text>
</a>
</g>
</g>
<!-- Node0&#45;&gt;Node6 -->
<g id="edge6" class="edge">
<title>Node0&#45;&gt;Node6</title>
<path fill="none" stroke="midnightblue" d="M711.42,-209.9C620.91,-202.14 471.88,-186.6 421,-165 384.97,-149.71 350.77,-118.59 331.96,-99.54"/>
<polygon fill="midnightblue" stroke="midnightblue" points="334.35,-96.97 324.89,-92.2 329.31,-101.83 334.35,-96.97"/>
</g>
<!-- Node7 -->
<g id="node8" class="node">
<title>Node7</title>
<g id="a_node8"><a xlink:title=" ">
<polygon fill="white" stroke="#bfbfbf" points="601,-73 601,-92 645,-92 645,-73 601,-73"/>
<text text-anchor="middle" x="623" y="-80" font-family="Helvetica,sans-Serif" font-size="10.00">string</text>
</a>
</g>
</g>
<!-- Node0&#45;&gt;Node7 -->
<g id="edge7" class="edge">
<title>Node0&#45;&gt;Node7</title>
<path fill="none" stroke="midnightblue" d="M749.02,-201.36C729.83,-192.59 706.29,-180.12 688,-165 665.4,-146.32 645.38,-118.64 633.72,-100.84"/>
<polygon fill="midnightblue" stroke="midnightblue" points="636.46,-98.63 628.14,-92.08 630.56,-102.4 636.46,-98.63"/>
</g>
<!-- Node8 -->
<g id="node9" class="node">
<title>Node8</title>
<g id="a_node9"><a xlink:title=" ">
<polygon fill="white" stroke="#bfbfbf" points="1301.5,-140 1301.5,-159 1394.5,-159 1394.5,-140 1301.5,-140"/>
<text text-anchor="middle" x="1348" y="-147" font-family="Helvetica,sans-Serif" font-size="10.00">unordered_map</text>
</a>
</g>
</g>
<!-- Node0&#45;&gt;Node8 -->
<g id="edge8" class="edge">
<title>Node0&#45;&gt;Node8</title>
<path fill="none" stroke="midnightblue" d="M856.83,-211.8C955.91,-205.96 1138.43,-192.35 1292,-165 1297.44,-164.03 1303.12,-162.81 1308.7,-161.49"/>
<polygon fill="midnightblue" stroke="midnightblue" points="1309.69,-164.85 1318.54,-159.04 1307.99,-158.06 1309.69,-164.85"/>
</g>
<!-- Node9 -->
<g id="node10" class="node">
<title>Node9</title>
<g id="a_node10"><a xlink:title=" ">
<polygon fill="white" stroke="#bfbfbf" points="1413,-140 1413,-159 1499,-159 1499,-140 1413,-140"/>
<text text-anchor="middle" x="1456" y="-147" font-family="Helvetica,sans-Serif" font-size="10.00">unordered_set</text>
</a>
</g>
</g>
<!-- Node0&#45;&gt;Node9 -->
<g id="edge9" class="edge">
<title>Node0&#45;&gt;Node9</title>
<path fill="none" stroke="midnightblue" d="M856.65,-214.06C973.03,-210.76 1208.11,-199.96 1404,-165 1409.06,-164.1 1414.34,-162.92 1419.51,-161.62"/>
<polygon fill="midnightblue" stroke="midnightblue" points="1420.48,-164.98 1429.24,-159.01 1418.67,-158.22 1420.48,-164.98"/>
</g>
<!-- Node10 -->
<g id="node11" class="node">
<title>Node10</title>
<g id="a_node11"><a xlink:title=" ">
<polygon fill="white" stroke="#bfbfbf" points="579.5,-6 579.5,-25 624.5,-25 624.5,-6 579.5,-6"/>
<text text-anchor="middle" x="602" y="-13" font-family="Helvetica,sans-Serif" font-size="10.00">utility</text>
</a>
</g>
</g>
<!-- Node0&#45;&gt;Node10 -->
<g id="edge10" class="edge">
<title>Node0&#45;&gt;Node10</title>
<path fill="none" stroke="midnightblue" d="M711.24,-212.57C596.95,-207.17 381.06,-193.48 310,-165 264.7,-146.84 244.55,-141.79 223,-98 216.92,-85.64 213.92,-77.37 223,-67 245.72,-41.05 481.34,-23.95 569.21,-18.43"/>
<polygon fill="midnightblue" stroke="midnightblue" points="569.64,-21.91 579.41,-17.81 569.21,-14.93 569.64,-21.91"/>
</g>
<!-- Node11 -->
<g id="node12" class="node">
<title>Node11</title>
<g id="a_node12"><a xlink:title=" ">
<polygon fill="white" stroke="#bfbfbf" points="531.5,-73 531.5,-92 582.5,-92 582.5,-73 531.5,-73"/>
<text text-anchor="middle" x="557" y="-80" font-family="Helvetica,sans-Serif" font-size="10.00">variant</text>
</a>
</g>
</g>
<!-- Node0&#45;&gt;Node11 -->
<g id="edge11" class="edge">
<title>Node0&#45;&gt;Node11</title>
<path fill="none" stroke="midnightblue" d="M737.17,-201.48C711.65,-192.82 680.04,-180.42 654,-165 622.49,-146.34 590.93,-117.48 572.72,-99.58"/>
<polygon fill="midnightblue" stroke="midnightblue" points="574.89,-96.79 565.34,-92.2 569.94,-101.74 574.89,-96.79"/>
</g>
<!-- Node12 -->
<g id="node13" class="node">
<title>Node12</title>
<g id="a_node13"><a xlink:title=" ">
<polygon fill="white" stroke="#bfbfbf" points="663.5,-73 663.5,-92 710.5,-92 710.5,-73 663.5,-73"/>
<text text-anchor="middle" x="687" y="-80" font-family="Helvetica,sans-Serif" font-size="10.00">vector</text>
</a>
</g>
</g>
<!-- Node0&#45;&gt;Node12 -->
<g id="edge12" class="edge">
<title>Node0&#45;&gt;Node12</title>
<path fill="none" stroke="midnightblue" d="M750.27,-201.44C734.24,-193.11 716.19,-181.01 705,-165 692,-146.39 688.17,-120.03 687.16,-102.38"/>
<polygon fill="midnightblue" stroke="midnightblue" points="690.65,-102.09 686.83,-92.21 683.65,-102.31 690.65,-102.09"/>
</g>
<!-- Node13 -->
<g id="node14" class="node">
<title>Node13</title>
<g id="a_node14"><a xlink:title=" ">
<polygon fill="white" stroke="#bfbfbf" points="1517.5,-140 1517.5,-159 1586.5,-159 1586.5,-140 1517.5,-140"/>
<text text-anchor="middle" x="1552" y="-147" font-family="Helvetica,sans-Serif" font-size="10.00">Eigen/Core</text>
</a>
</g>
</g>
<!-- Node0&#45;&gt;Node13 -->
<g id="edge13" class="edge">
<title>Node0&#45;&gt;Node13</title>
<path fill="none" stroke="midnightblue" d="M856.71,-216.36C988.07,-216.61 1273.09,-211.15 1508,-165 1511.88,-164.24 1515.9,-163.23 1519.86,-162.1"/>
<polygon fill="midnightblue" stroke="midnightblue" points="1520.94,-165.43 1529.45,-159.12 1518.86,-158.75 1520.94,-165.43"/>
</g>
<!-- Node14 -->
<g id="node15" class="node">
<title>Node14</title>
<g id="a_node15"><a xlink:title=" ">
<polygon fill="white" stroke="#bfbfbf" points="1604.5,-140 1604.5,-159 1683.5,-159 1683.5,-140 1604.5,-140"/>
<text text-anchor="middle" x="1644" y="-147" font-family="Helvetica,sans-Serif" font-size="10.00">fmt/format.h</text>
</a>
</g>
</g>
<!-- Node0&#45;&gt;Node14 -->
<g id="edge14" class="edge">
<title>Node0&#45;&gt;Node14</title>
<path fill="none" stroke="midnightblue" d="M856.81,-213.13C1028.57,-207.19 1455.16,-190.3 1596,-165 1600.46,-164.2 1605.09,-163.12 1609.63,-161.92"/>
<polygon fill="midnightblue" stroke="midnightblue" points="1610.7,-165.26 1619.35,-159.14 1608.78,-158.53 1610.7,-165.26"/>
</g>
<!-- Node15 -->
<g id="node16" class="node">
<title>Node15</title>
<g id="a_node16"><a xlink:href="drake__copyable_8h.html" target="_top" xlink:title="Provides careful macros to selectively enable or disable the special member functions for copy&#45;constr...">
<polygon fill="white" stroke="black" points="935.5,-0.5 935.5,-30.5 1054.5,-30.5 1054.5,-0.5 935.5,-0.5"/>
<text text-anchor="start" x="943.5" y="-18.5" font-family="Helvetica,sans-Serif" font-size="10.00">drake/common/drake</text>
<text text-anchor="middle" x="995" y="-7.5" font-family="Helvetica,sans-Serif" font-size="10.00">_copyable.h</text>
</a>
</g>
</g>
<!-- Node0&#45;&gt;Node15 -->
<g id="edge15" class="edge">
<title>Node0&#45;&gt;Node15</title>
<path fill="none" stroke="midnightblue" d="M807.58,-201.31C823.5,-191.51 844.85,-177.96 863,-165 881.02,-152.13 882.13,-143.76 902,-134 961.98,-104.53 1006.79,-150.61 1048,-98 1063.53,-78.18 1042.96,-53.78 1023.09,-36.87"/>
<polygon fill="midnightblue" stroke="midnightblue" points="1025.27,-34.13 1015.3,-30.56 1020.87,-39.57 1025.27,-34.13"/>
</g>
<!-- Node16 -->
<g id="node17" class="node">
<title>Node16</title>
<g id="a_node17"><a xlink:href="drake__deprecated_8h.html" target="_top" xlink:title="Provides a portable macro for use in generating compile&#45;time warnings for use of code that is permitt...">
<polygon fill="white" stroke="black" points="1701.5,-134.5 1701.5,-164.5 1820.5,-164.5 1820.5,-134.5 1701.5,-134.5"/>
<text text-anchor="start" x="1709.5" y="-152.5" font-family="Helvetica,sans-Serif" font-size="10.00">drake/common/drake</text>
<text text-anchor="middle" x="1761" y="-141.5" font-family="Helvetica,sans-Serif" font-size="10.00">_deprecated.h</text>
</a>
</g>
</g>
<!-- Node0&#45;&gt;Node16 -->
<g id="edge16" class="edge">
<title>Node0&#45;&gt;Node16</title>
<path fill="none" stroke="midnightblue" d="M856.53,-215.27C1009.38,-213.95 1375.8,-206.47 1691.13,-165.12"/>
<polygon fill="midnightblue" stroke="midnightblue" points="1691.93,-168.54 1701.39,-163.76 1691.01,-161.6 1691.93,-168.54"/>
</g>
<!-- Node17 -->
<g id="node18" class="node">
<title>Node17</title>
<g id="a_node18"><a xlink:href="drake__throw_8h.html" target="_top" xlink:title="Provides a convenient wrapper to throw an exception when a condition is unmet.">
<polygon fill="white" stroke="black" points="1089.5,-134.5 1089.5,-164.5 1208.5,-164.5 1208.5,-134.5 1089.5,-134.5"/>
<text text-anchor="start" x="1097.5" y="-152.5" font-family="Helvetica,sans-Serif" font-size="10.00">drake/common/drake</text>
<text text-anchor="middle" x="1149" y="-141.5" font-family="Helvetica,sans-Serif" font-size="10.00">_throw.h</text>
</a>
</g>
</g>
<!-- Node0&#45;&gt;Node17 -->
<g id="edge17" class="edge">
<title>Node0&#45;&gt;Node17</title>
<path fill="none" stroke="midnightblue" d="M856.78,-203.99C914.64,-194.64 997.91,-180.75 1079.4,-165.27"/>
<polygon fill="midnightblue" stroke="midnightblue" points="1080.16,-168.69 1089.32,-163.37 1078.85,-161.81 1080.16,-168.69"/>
</g>
<!-- Node20 -->
<g id="node21" class="node">
<title>Node20</title>
<g id="a_node21"><a xlink:href="name__value_8h.html" target="_top" xlink:title=" ">
<polygon fill="white" stroke="black" points="910.5,-140 910.5,-159 1071.5,-159 1071.5,-140 910.5,-140"/>
<text text-anchor="middle" x="991" y="-147" font-family="Helvetica,sans-Serif" font-size="10.00">drake/common/name_value.h</text>
</a>
</g>
</g>
<!-- Node0&#45;&gt;Node20 -->
<g id="edge21" class="edge">
<title>Node0&#45;&gt;Node20</title>
<path fill="none" stroke="midnightblue" d="M828.66,-201.48C866.09,-189.72 918.89,-173.14 953.99,-162.12"/>
<polygon fill="midnightblue" stroke="midnightblue" points="955.35,-165.36 963.84,-159.03 953.25,-158.69 955.35,-165.36"/>
</g>
<!-- Node21 -->
<g id="node22" class="node">
<title>Node21</title>
<g id="a_node22"><a xlink:href="nice__type__name_8h.html" target="_top" xlink:title=" ">
<polygon fill="white" stroke="black" points="714,-134.5 714,-164.5 854,-164.5 854,-134.5 714,-134.5"/>
<text text-anchor="start" x="722" y="-152.5" font-family="Helvetica,sans-Serif" font-size="10.00">drake/common/nice_type</text>
<text text-anchor="middle" x="784" y="-141.5" font-family="Helvetica,sans-Serif" font-size="10.00">_name.h</text>
</a>
</g>
</g>
<!-- Node0&#45;&gt;Node21 -->
<g id="edge24" class="edge">
<title>Node0&#45;&gt;Node21</title>
<path fill="none" stroke="midnightblue" d="M784,-201.4C784,-193.64 784,-183.81 784,-174.86"/>
<polygon fill="midnightblue" stroke="midnightblue" points="787.5,-174.58 784,-164.58 780.5,-174.58 787.5,-174.58"/>
</g>
<!-- Node26 -->
<g id="node27" class="node">
<title>Node26</title>
<g id="a_node27"><a xlink:href="unused_8h.html" target="_top" xlink:title=" ">
<polygon fill="white" stroke="black" points="1838.5,-140 1838.5,-159 1975.5,-159 1975.5,-140 1838.5,-140"/>
<text text-anchor="middle" x="1907" y="-147" font-family="Helvetica,sans-Serif" font-size="10.00">drake/common/unused.h</text>
</a>
</g>
</g>
<!-- Node0&#45;&gt;Node26 -->
<g id="edge35" class="edge">
<title>Node0&#45;&gt;Node26</title>
<path fill="none" stroke="midnightblue" d="M856.57,-215.43C1027.05,-214.52 1466.17,-207.83 1830,-165 1838.93,-163.95 1848.39,-162.47 1857.5,-160.86"/>
<polygon fill="midnightblue" stroke="midnightblue" points="1858.39,-164.26 1867.59,-159 1857.12,-157.37 1858.39,-164.26"/>
</g>
<!-- Node27 -->
<g id="node28" class="node">
<title>Node27</title>
<g id="a_node28"><a xlink:href="yaml__node_8h.html" target="_top" xlink:title=" ">
<polygon fill="white" stroke="black" points="430.5,-134.5 430.5,-164.5 575.5,-164.5 575.5,-134.5 430.5,-134.5"/>
<text text-anchor="start" x="438.5" y="-152.5" font-family="Helvetica,sans-Serif" font-size="10.00">drake/common/yaml/yaml</text>
<text text-anchor="middle" x="503" y="-141.5" font-family="Helvetica,sans-Serif" font-size="10.00">_node.h</text>
</a>
</g>
</g>
<!-- Node0&#45;&gt;Node27 -->
<g id="edge36" class="edge">
<title>Node0&#45;&gt;Node27</title>
<path fill="none" stroke="midnightblue" d="M723.37,-201.48C679.48,-191.32 620.02,-177.57 573.92,-166.91"/>
<polygon fill="midnightblue" stroke="midnightblue" points="574.53,-163.45 564,-164.61 572.96,-170.27 574.53,-163.45"/>
</g>
<!-- Node18 -->
<g id="node19" class="node">
<title>Node18</title>
<g id="a_node19"><a xlink:title=" ">
<polygon fill="white" stroke="#bfbfbf" points="1158.5,-6 1158.5,-25 1227.5,-25 1227.5,-6 1158.5,-6"/>
<text text-anchor="middle" x="1193" y="-13" font-family="Helvetica,sans-Serif" font-size="10.00">type_traits</text>
</a>
</g>
</g>
<!-- Node17&#45;&gt;Node18 -->
<g id="edge18" class="edge">
<title>Node17&#45;&gt;Node18</title>
<path fill="none" stroke="midnightblue" d="M1208.64,-135.95C1229.11,-128.49 1249.9,-116.66 1262,-98 1269.5,-86.44 1268.23,-79.29 1262,-67 1253.66,-50.56 1237.16,-38.18 1222.4,-29.8"/>
<polygon fill="midnightblue" stroke="midnightblue" points="1223.99,-26.68 1213.51,-25.09 1220.71,-32.86 1223.99,-26.68"/>
</g>
<!-- Node19 -->
<g id="node20" class="node">
<title>Node19</title>
<g id="a_node20"><a xlink:href="drake__assert_8h.html" target="_top" xlink:title="Provides Drake&#39;s assertion implementation.">
<polygon fill="white" stroke="black" points="1133.5,-67.5 1133.5,-97.5 1252.5,-97.5 1252.5,-67.5 1133.5,-67.5"/>
<text text-anchor="start" x="1141.5" y="-85.5" font-family="Helvetica,sans-Serif" font-size="10.00">drake/common/drake</text>
<text text-anchor="middle" x="1193" y="-74.5" font-family="Helvetica,sans-Serif" font-size="10.00">_assert.h</text>
</a>
</g>
</g>
<!-- Node17&#45;&gt;Node19 -->
<g id="edge19" class="edge">
<title>Node17&#45;&gt;Node19</title>
<path fill="none" stroke="midnightblue" d="M1158.55,-134.4C1164.14,-126.13 1171.33,-115.51 1177.7,-106.1"/>
<polygon fill="midnightblue" stroke="midnightblue" points="1180.76,-107.82 1183.47,-97.58 1174.97,-103.9 1180.76,-107.82"/>
</g>
<!-- Node19&#45;&gt;Node18 -->
<g id="edge20" class="edge">
<title>Node19&#45;&gt;Node18</title>
<path fill="none" stroke="midnightblue" d="M1193,-67.4C1193,-58.06 1193,-45.71 1193,-35.52"/>
<polygon fill="midnightblue" stroke="midnightblue" points="1196.5,-35.19 1193,-25.19 1189.5,-35.19 1196.5,-35.19"/>
</g>
<!-- Node20&#45;&gt;Node15 -->
<g id="edge23" class="edge">
<title>Node20&#45;&gt;Node15</title>
<path fill="none" stroke="midnightblue" d="M1022.33,-139.96C1042.96,-132.53 1068.42,-119.49 1081,-98 1087.96,-86.11 1087.84,-78.96 1081,-67 1073.17,-53.32 1060.03,-42.98 1046.35,-35.34"/>
<polygon fill="midnightblue" stroke="midnightblue" points="1047.82,-32.16 1037.33,-30.7 1044.62,-38.39 1047.82,-32.16"/>
</g>
<!-- Node20&#45;&gt;Node19 -->
<g id="edge22" class="edge">
<title>Node20&#45;&gt;Node19</title>
<path fill="none" stroke="midnightblue" d="M1017.82,-139.87C1048.79,-129.9 1100.49,-113.27 1139.72,-100.64"/>
<polygon fill="midnightblue" stroke="midnightblue" points="1140.96,-103.92 1149.41,-97.53 1138.81,-97.26 1140.96,-103.92"/>
</g>
<!-- Node21&#45;&gt;Node7 -->
<g id="edge26" class="edge">
<title>Node21&#45;&gt;Node7</title>
<path fill="none" stroke="midnightblue" d="M746.53,-134.43C720.68,-124.57 685.58,-110.9 655,-98 653.63,-97.42 652.23,-96.82 650.82,-96.21"/>
<polygon fill="midnightblue" stroke="midnightblue" points="652.1,-92.95 641.54,-92.1 649.27,-99.35 652.1,-92.95"/>
</g>
<!-- Node21&#45;&gt;Node10 -->
<g id="edge28" class="edge">
<title>Node21&#45;&gt;Node10</title>
<path fill="none" stroke="midnightblue" d="M775.97,-134.33C765.24,-116.51 744.69,-85.95 720,-67 694.21,-47.2 659.49,-33.57 634.4,-25.5"/>
<polygon fill="midnightblue" stroke="midnightblue" points="635.21,-22.09 624.62,-22.48 633.14,-28.78 635.21,-22.09"/>
</g>
<!-- Node21&#45;&gt;Node12 -->
<g id="edge29" class="edge">
<title>Node21&#45;&gt;Node12</title>
<path fill="none" stroke="midnightblue" d="M762.95,-134.4C746.69,-123.5 724.28,-108.48 708.02,-97.58"/>
<polygon fill="midnightblue" stroke="midnightblue" points="709.95,-94.67 699.7,-92.01 706.05,-100.48 709.95,-94.67"/>
</g>
<!-- Node22 -->
<g id="node23" class="node">
<title>Node22</title>
<g id="a_node23"><a xlink:title=" ">
<polygon fill="white" stroke="#bfbfbf" points="905,-73 905,-92 963,-92 963,-73 905,-73"/>
<text text-anchor="middle" x="934" y="-80" font-family="Helvetica,sans-Serif" font-size="10.00">memory</text>
</a>
</g>
</g>
<!-- Node21&#45;&gt;Node22 -->
<g id="edge25" class="edge">
<title>Node21&#45;&gt;Node22</title>
<path fill="none" stroke="midnightblue" d="M816.55,-134.4C842.87,-122.99 879.59,-107.08 904.93,-96.1"/>
<polygon fill="midnightblue" stroke="midnightblue" points="906.58,-99.19 914.37,-92.01 903.8,-92.77 906.58,-99.19"/>
</g>
<!-- Node23 -->
<g id="node24" class="node">
<title>Node23</title>
<g id="a_node24"><a xlink:title=" ">
<polygon fill="white" stroke="#bfbfbf" points="981.5,-73 981.5,-92 1038.5,-92 1038.5,-73 981.5,-73"/>
<text text-anchor="middle" x="1010" y="-80" font-family="Helvetica,sans-Serif" font-size="10.00">typeinfo</text>
</a>
</g>
</g>
<!-- Node21&#45;&gt;Node23 -->
<g id="edge27" class="edge">
<title>Node21&#45;&gt;Node23</title>
<path fill="none" stroke="midnightblue" d="M842.46,-134.43C879.8,-125.05 929.08,-111.91 972,-98 974.41,-97.22 976.89,-96.37 979.37,-95.49"/>
<polygon fill="midnightblue" stroke="midnightblue" points="980.65,-98.75 988.83,-92.02 978.24,-92.18 980.65,-98.75"/>
</g>
<!-- Node24 -->
<g id="node25" class="node">
<title>Node24</title>
<g id="a_node25"><a xlink:href="never__destroyed_8h.html" target="_top" xlink:title=" ">
<polygon fill="white" stroke="black" points="767,-67.5 767,-97.5 887,-97.5 887,-67.5 767,-67.5"/>
<text text-anchor="start" x="775" y="-85.5" font-family="Helvetica,sans-Serif" font-size="10.00">drake/common/never</text>
<text text-anchor="middle" x="827" y="-74.5" font-family="Helvetica,sans-Serif" font-size="10.00">_destroyed.h</text>
</a>
</g>
</g>
<!-- Node21&#45;&gt;Node24 -->
<g id="edge30" class="edge">
<title>Node21&#45;&gt;Node24</title>
<path fill="none" stroke="midnightblue" d="M793.33,-134.4C798.8,-126.13 805.83,-115.51 812.05,-106.1"/>
<polygon fill="midnightblue" stroke="midnightblue" points="815.09,-107.85 817.69,-97.58 809.25,-103.99 815.09,-107.85"/>
</g>
<!-- Node24&#45;&gt;Node10 -->
<g id="edge33" class="edge">
<title>Node24&#45;&gt;Node10</title>
<path fill="none" stroke="midnightblue" d="M778.46,-67.48C735,-54.92 672.48,-36.86 634.7,-25.95"/>
<polygon fill="midnightblue" stroke="midnightblue" points="635.32,-22.48 624.74,-23.07 633.38,-29.21 635.32,-22.48"/>
</g>
<!-- Node24&#45;&gt;Node15 -->
<g id="edge34" class="edge">
<title>Node24&#45;&gt;Node15</title>
<path fill="none" stroke="midnightblue" d="M863.45,-67.4C888.55,-57.69 922.09,-44.71 949.02,-34.29"/>
<polygon fill="midnightblue" stroke="midnightblue" points="950.55,-37.45 958.62,-30.58 948.03,-30.92 950.55,-37.45"/>
</g>
<!-- Node24&#45;&gt;Node18 -->
<g id="edge32" class="edge">
<title>Node24&#45;&gt;Node18</title>
<path fill="none" stroke="midnightblue" d="M887.18,-68.71C890.16,-68.12 893.11,-67.55 896,-67 985.19,-50.05 1089.97,-32.87 1148.2,-23.56"/>
<polygon fill="midnightblue" stroke="midnightblue" points="1148.85,-27 1158.17,-21.97 1147.75,-20.09 1148.85,-27"/>
</g>
<!-- Node25 -->
<g id="node26" class="node">
<title>Node25</title>
<g id="a_node26"><a xlink:title=" ">
<polygon fill="white" stroke="#bfbfbf" points="808.5,-6 808.5,-25 845.5,-25 845.5,-6 808.5,-6"/>
<text text-anchor="middle" x="827" y="-13" font-family="Helvetica,sans-Serif" font-size="10.00">new</text>
</a>
</g>
</g>
<!-- Node24&#45;&gt;Node25 -->
<g id="edge31" class="edge">
<title>Node24&#45;&gt;Node25</title>
<path fill="none" stroke="midnightblue" d="M827,-67.4C827,-58.06 827,-45.71 827,-35.52"/>
<polygon fill="midnightblue" stroke="midnightblue" points="830.5,-35.19 827,-25.19 823.5,-35.19 830.5,-35.19"/>
</g>
<!-- Node27&#45;&gt;Node4 -->
<g id="edge37" class="edge">
<title>Node27&#45;&gt;Node4</title>
<path fill="none" stroke="midnightblue" d="M430.28,-136.99C385.79,-128.75 328.15,-115.93 279,-98 277.76,-97.55 276.5,-97.05 275.24,-96.52"/>
<polygon fill="midnightblue" stroke="midnightblue" points="276.33,-93.16 265.79,-92.06 273.34,-99.49 276.33,-93.16"/>
</g>
<!-- Node27&#45;&gt;Node6 -->
<g id="edge38" class="edge">
<title>Node27&#45;&gt;Node6</title>
<path fill="none" stroke="midnightblue" d="M459.78,-134.44C429.94,-124.59 389.41,-110.93 354,-98 352.1,-97.31 350.16,-96.58 348.2,-95.85"/>
<polygon fill="midnightblue" stroke="midnightblue" points="349.05,-92.42 338.46,-92.1 346.54,-98.96 349.05,-92.42"/>
</g>
<!-- Node27&#45;&gt;Node7 -->
<g id="edge39" class="edge">
<title>Node27&#45;&gt;Node7</title>
<path fill="none" stroke="midnightblue" d="M529.04,-134.4C549.63,-123.24 578.17,-107.78 598.38,-96.83"/>
<polygon fill="midnightblue" stroke="midnightblue" points="600.17,-99.85 607.29,-92.01 596.83,-93.69 600.17,-99.85"/>
</g>
<!-- Node27&#45;&gt;Node10 -->
<g id="edge41" class="edge">
<title>Node27&#45;&gt;Node10</title>
<path fill="none" stroke="midnightblue" d="M494.98,-134.32C486.38,-117.04 475.64,-87.6 489,-67 506.55,-39.94 542.35,-27.25 568.98,-21.39"/>
<polygon fill="midnightblue" stroke="midnightblue" points="569.91,-24.77 579.04,-19.39 568.55,-17.9 569.91,-24.77"/>
</g>
<!-- Node27&#45;&gt;Node11 -->
<g id="edge42" class="edge">
<title>Node27&#45;&gt;Node11</title>
<path fill="none" stroke="midnightblue" d="M514.72,-134.4C523.14,-124.26 534.51,-110.57 543.34,-99.94"/>
<polygon fill="midnightblue" stroke="midnightblue" points="546.08,-102.12 549.78,-92.19 540.69,-97.65 546.08,-102.12"/>
</g>
<!-- Node27&#45;&gt;Node12 -->
<g id="edge43" class="edge">
<title>Node27&#45;&gt;Node12</title>
<path fill="none" stroke="midnightblue" d="M548.65,-134.43C578.8,-124.85 619.06,-111.49 654,-98 655.61,-97.38 657.25,-96.73 658.9,-96.05"/>
<polygon fill="midnightblue" stroke="midnightblue" points="660.43,-99.2 668.28,-92.08 657.7,-92.76 660.43,-99.2"/>
</g>
<!-- Node27&#45;&gt;Node15 -->
<g id="edge44" class="edge">
<title>Node27&#45;&gt;Node15</title>
<path fill="none" stroke="midnightblue" d="M501.78,-134.24C501.07,-115.74 502.95,-83.84 522,-67 522.94,-66.17 793.94,-37.61 925.27,-23.82"/>
<polygon fill="midnightblue" stroke="midnightblue" points="925.66,-27.29 935.24,-22.77 924.93,-20.33 925.66,-27.29"/>
</g>
<!-- Node28 -->
<g id="node29" class="node">
<title>Node28</title>
<g id="a_node29"><a xlink:title=" ">
<polygon fill="white" stroke="#bfbfbf" points="363.5,-73 363.5,-92 436.5,-92 436.5,-73 363.5,-73"/>
<text text-anchor="middle" x="400" y="-80" font-family="Helvetica,sans-Serif" font-size="10.00">string_view</text>
</a>
</g>
</g>
<!-- Node27&#45;&gt;Node28 -->
<g id="edge40" class="edge">
<title>Node27&#45;&gt;Node28</title>
<path fill="none" stroke="midnightblue" d="M480.65,-134.4C463.38,-123.5 439.58,-108.48 422.32,-97.58"/>
<polygon fill="midnightblue" stroke="midnightblue" points="423.81,-94.38 413.48,-92.01 420.07,-100.3 423.81,-94.38"/>
</g>
</g>
</svg>
        <g id="navigator" transform="translate(0 0)" fill="#404254">
                <rect fill="#f2f5e9" fill-opacity="0.5" stroke="#606060" stroke-width=".5" x="0" y="0" width="60" height="60"/>
                <use id="zoomplus" xlink:href="#zoomPlus" x="17" y="9" onmousedown="handleZoom(evt,'in')"/>
                <use id="zoomminus" xlink:href="#zoomMin" x="42" y="9" onmousedown="handleZoom(evt,'out')"/>
                <use id="reset" xlink:href="#resetDef" x="30" y="36" onmousedown="handleReset()"/>
                <g id="arrowUp" xlink:href="#dirArrow" transform="translate(30 24)" onmousedown="handlePan(0,-1)">
                  <use xlink:href="#rim" fill="#404040">
                        <set attributeName="fill" to="#808080" begin="arrowUp.mouseover" end="arrowUp.mouseout"/>
                  </use>
                  <path fill="none" stroke="white" stroke-width="1.5" d="M0,-3.0v7 M-2.5,-0.5L0,-3.0L2.5,-0.5"/>
                </g>
                <g id="arrowRight" xlink:href="#dirArrow" transform="rotate(90) translate(36 -43)" onmousedown="handlePan(1,0)">
                  <use xlink:href="#rim" fill="#404040">
                        <set attributeName="fill" to="#808080" begin="arrowRight.mouseover" end="arrowRight.mouseout"/>
                  </use>
                  <path fill="none" stroke="white" stroke-width="1.5" d="M0,-3.0v7 M-2.5,-0.5L0,-3.0L2.5,-0.5"/>
                </g>
                <g id="arrowDown" xlink:href="#dirArrow" transform="rotate(180) translate(-30 -48)" onmousedown="handlePan(0,1)">
                  <use xlink:href="#rim" fill="#404040">
                        <set attributeName="fill" to="#808080" begin="arrowDown.mouseover" end="arrowDown.mouseout"/>
                  </use>
                  <path fill="none" stroke="white" stroke-width="1.5" d="M0,-3.0v7 M-2.5,-0.5L0,-3.0L2.5,-0.5"/>
                </g>
                <g id="arrowLeft" xlink:href="#dirArrow" transform="rotate(270) translate(-36 17)" onmousedown="handlePan(-1,0)">
                  <use xlink:href="#rim" fill="#404040">
                        <set attributeName="fill" to="#808080" begin="arrowLeft.mouseover" end="arrowLeft.mouseout"/>
                  </use>
                  <path fill="none" stroke="white" stroke-width="1.5" d="M0,-3.0v7 M-2.5,-0.5L0,-3.0L2.5,-0.5"/>
                </g>
        </g>
        <svg viewBox="0 0 15 15" width="100%" height="30px" preserveAspectRatio="xMaxYMin meet">
         <g id="arrow_out" transform="scale(0.3 0.3)">
          <a xlink:href="yaml__read__archive_8h__incl_org.svg" target="_base">
           <rect id="button" ry="5" rx="5" y="6" x="6" height="38" width="38"
                fill="#f2f5e9" fill-opacity="0.5" stroke="#606060" stroke-width="1.0"/>
           <path id="arrow"
             d="M 11.500037,31.436501 C 11.940474,20.09759 22.043105,11.32322 32.158766,21.979434 L 37.068811,17.246167 C 37.068811,17.246167 37.088388,32 37.088388,32 L 22.160133,31.978069 C 22.160133,31.978069 26.997745,27.140456 26.997745,27.140456 C 18.528582,18.264221 13.291696,25.230495 11.500037,31.436501 z"
             style="fill:#404040;"/>
          </a>
         </g>
        </svg>
</svg>
