<?xml version="1.0" encoding="UTF-8" standalone="no"?>
<!DOCTYPE svg PUBLIC "-//W3C//DTD SVG 1.1//EN"
 "http://www.w3.org/Graphics/SVG/1.1/DTD/svg11.dtd">
<!-- Generated by graphviz version 2.43.0 (0)
 -->
<!-- Title: drake/common/yaml/yaml_write_archive.h Pages: 1 -->
<svg width="1725pt" height="296pt"
 viewBox="0.00 0.00 1724.50 296.00" xmlns="http://www.w3.org/2000/svg" xmlns:xlink="http://www.w3.org/1999/xlink">
<g id="graph0" class="graph" transform="scale(1 1) rotate(0) translate(4 292)">
<title>drake/common/yaml/yaml_write_archive.h</title>
<polygon fill="white" stroke="transparent" points="-4,4 -4,-292 1720.5,-292 1720.5,4 -4,4"/>
<!-- Node0 -->
<g id="node1" class="node">
<title>Node0</title>
<g id="a_node1"><a xlink:title=" ">
<polygon fill="#bfbfbf" stroke="black" points="771.5,-257.5 771.5,-287.5 916.5,-287.5 916.5,-257.5 771.5,-257.5"/>
<text text-anchor="start" x="779.5" y="-275.5" font-family="Helvetica,sans-Serif" font-size="10.00">drake/common/yaml/yaml</text>
<text text-anchor="middle" x="844" y="-264.5" font-family="Helvetica,sans-Serif" font-size="10.00">_write_archive.h</text>
</a>
</g>
</g>
<!-- Node1 -->
<g id="node2" class="node">
<title>Node1</title>
<g id="a_node2"><a xlink:title=" ">
<polygon fill="white" stroke="#bfbfbf" points="0,-196 0,-215 42,-215 42,-196 0,-196"/>
<text text-anchor="middle" x="21" y="-203" font-family="Helvetica,sans-Serif" font-size="10.00">array</text>
</a>
</g>
</g>
<!-- Node0&#45;&gt;Node1 -->
<g id="edge1" class="edge">
<title>Node0&#45;&gt;Node1</title>
<path fill="none" stroke="midnightblue" d="M771.34,-270.44C602.1,-267.39 185.84,-256.43 51,-221 49.07,-220.49 47.11,-219.86 45.18,-219.14"/>
<polygon fill="midnightblue" stroke="midnightblue" points="46.39,-215.85 35.82,-215.06 43.59,-222.27 46.39,-215.85"/>
</g>
<!-- Node2 -->
<g id="node3" class="node">
<title>Node2</title>
<g id="a_node3"><a xlink:title=" ">
<polygon fill="white" stroke="#bfbfbf" points="60.5,-196 60.5,-215 107.5,-215 107.5,-196 60.5,-196"/>
<text text-anchor="middle" x="84" y="-203" font-family="Helvetica,sans-Serif" font-size="10.00">cmath</text>
</a>
</g>
</g>
<!-- Node0&#45;&gt;Node2 -->
<g id="edge2" class="edge">
<title>Node0&#45;&gt;Node2</title>
<path fill="none" stroke="midnightblue" d="M771.31,-269.13C613.57,-263.55 244.24,-247.97 122,-221 118.93,-220.32 115.77,-219.44 112.66,-218.45"/>
<polygon fill="midnightblue" stroke="midnightblue" points="113.59,-215.06 102.99,-215 111.24,-221.66 113.59,-215.06"/>
</g>
<!-- Node3 -->
<g id="node4" class="node">
<title>Node3</title>
<g id="a_node4"><a xlink:title=" ">
<polygon fill="white" stroke="#bfbfbf" points="886,-129 886,-148 924,-148 924,-129 886,-129"/>
<text text-anchor="middle" x="905" y="-136" font-family="Helvetica,sans-Serif" font-size="10.00">map</text>
</a>
</g>
</g>
<!-- Node0&#45;&gt;Node3 -->
<g id="edge3" class="edge">
<title>Node0&#45;&gt;Node3</title>
<path fill="none" stroke="midnightblue" d="M850.53,-257.37C861.71,-233.18 884.49,-183.88 896.75,-157.35"/>
<polygon fill="midnightblue" stroke="midnightblue" points="900.01,-158.64 901.03,-148.1 893.65,-155.71 900.01,-158.64"/>
</g>
<!-- Node4 -->
<g id="node5" class="node">
<title>Node4</title>
<g id="a_node5"><a xlink:title=" ">
<polygon fill="white" stroke="#bfbfbf" points="942,-129 942,-148 998,-148 998,-129 942,-129"/>
<text text-anchor="middle" x="970" y="-136" font-family="Helvetica,sans-Serif" font-size="10.00">optional</text>
</a>
</g>
</g>
<!-- Node0&#45;&gt;Node4 -->
<g id="edge4" class="edge">
<title>Node0&#45;&gt;Node4</title>
<path fill="none" stroke="midnightblue" d="M857.48,-257.37C881.09,-232.65 929.73,-181.68 954.61,-155.62"/>
<polygon fill="midnightblue" stroke="midnightblue" points="957.42,-157.75 961.79,-148.1 952.36,-152.91 957.42,-157.75"/>
</g>
<!-- Node5 -->
<g id="node6" class="node">
<title>Node5</title>
<g id="a_node6"><a xlink:title=" ">
<polygon fill="white" stroke="#bfbfbf" points="1453.5,-196 1453.5,-215 1518.5,-215 1518.5,-196 1453.5,-196"/>
<text text-anchor="middle" x="1486" y="-203" font-family="Helvetica,sans-Serif" font-size="10.00">stdexcept</text>
</a>
</g>
</g>
<!-- Node0&#45;&gt;Node5 -->
<g id="edge5" class="edge">
<title>Node0&#45;&gt;Node5</title>
<path fill="none" stroke="midnightblue" d="M916.59,-270.34C1029.36,-267.42 1253.02,-257.14 1439,-221 1443.24,-220.18 1447.65,-219.11 1451.98,-217.93"/>
<polygon fill="midnightblue" stroke="midnightblue" points="1453.25,-221.21 1461.86,-215.03 1451.28,-214.49 1453.25,-221.21"/>
</g>
<!-- Node6 -->
<g id="node7" class="node">
<title>Node6</title>
<g id="a_node7"><a xlink:title=" ">
<polygon fill="white" stroke="#bfbfbf" points="686,-0.5 686,-19.5 730,-19.5 730,-0.5 686,-0.5"/>
<text text-anchor="middle" x="708" y="-7.5" font-family="Helvetica,sans-Serif" font-size="10.00">string</text>
</a>
</g>
</g>
<!-- Node0&#45;&gt;Node6 -->
<g id="edge6" class="edge">
<title>Node0&#45;&gt;Node6</title>
<path fill="none" stroke="midnightblue" d="M771.37,-269.33C621.72,-264.29 289.42,-249.95 247,-221 219.58,-202.29 221.53,-186.33 214,-154 203.47,-108.81 211.39,-81.73 250,-56 285.29,-32.48 577.01,-17.02 675.59,-12.43"/>
<polygon fill="midnightblue" stroke="midnightblue" points="676.01,-15.92 685.84,-11.96 675.69,-8.92 676.01,-15.92"/>
</g>
<!-- Node7 -->
<g id="node8" class="node">
<title>Node7</title>
<g id="a_node8"><a xlink:title=" ">
<polygon fill="white" stroke="#bfbfbf" points="543.5,-62 543.5,-81 612.5,-81 612.5,-62 543.5,-62"/>
<text text-anchor="middle" x="578" y="-69" font-family="Helvetica,sans-Serif" font-size="10.00">type_traits</text>
</a>
</g>
</g>
<!-- Node0&#45;&gt;Node7 -->
<g id="edge7" class="edge">
<title>Node0&#45;&gt;Node7</title>
<path fill="none" stroke="midnightblue" d="M771.32,-265.89C707.14,-259.34 620.26,-246.06 597,-221 563.93,-185.37 569.04,-122.54 574.19,-91.27"/>
<polygon fill="midnightblue" stroke="midnightblue" points="577.66,-91.75 576.02,-81.29 570.78,-90.49 577.66,-91.75"/>
</g>
<!-- Node8 -->
<g id="node9" class="node">
<title>Node8</title>
<g id="a_node9"><a xlink:title=" ">
<polygon fill="white" stroke="#bfbfbf" points="1536.5,-196 1536.5,-215 1629.5,-215 1629.5,-196 1536.5,-196"/>
<text text-anchor="middle" x="1583" y="-203" font-family="Helvetica,sans-Serif" font-size="10.00">unordered_map</text>
</a>
</g>
</g>
<!-- Node0&#45;&gt;Node8 -->
<g id="edge8" class="edge">
<title>Node0&#45;&gt;Node8</title>
<path fill="none" stroke="midnightblue" d="M916.66,-270.52C1042.17,-267.84 1307.36,-257.91 1528,-221 1533.48,-220.08 1539.2,-218.87 1544.81,-217.53"/>
<polygon fill="midnightblue" stroke="midnightblue" points="1545.84,-220.88 1554.67,-215.03 1544.12,-214.1 1545.84,-220.88"/>
</g>
<!-- Node9 -->
<g id="node10" class="node">
<title>Node9</title>
<g id="a_node10"><a xlink:title=" ">
<polygon fill="white" stroke="#bfbfbf" points="259.5,-62 259.5,-81 304.5,-81 304.5,-62 259.5,-62"/>
<text text-anchor="middle" x="282" y="-69" font-family="Helvetica,sans-Serif" font-size="10.00">utility</text>
</a>
</g>
</g>
<!-- Node0&#45;&gt;Node9 -->
<g id="edge9" class="edge">
<title>Node0&#45;&gt;Node9</title>
<path fill="none" stroke="midnightblue" d="M771.27,-268.8C648.04,-263.49 403.71,-249.66 323,-221 272.24,-202.98 247.47,-201.46 222,-154 215.48,-141.86 216.19,-135.49 222,-123 229.19,-107.55 243.68,-95.14 256.63,-86.49"/>
<polygon fill="midnightblue" stroke="midnightblue" points="258.61,-89.38 265.23,-81.11 254.89,-83.44 258.61,-89.38"/>
</g>
<!-- Node10 -->
<g id="node11" class="node">
<title>Node10</title>
<g id="a_node11"><a xlink:title=" ">
<polygon fill="white" stroke="#bfbfbf" points="1425.5,-129 1425.5,-148 1476.5,-148 1476.5,-129 1425.5,-129"/>
<text text-anchor="middle" x="1451" y="-136" font-family="Helvetica,sans-Serif" font-size="10.00">variant</text>
</a>
</g>
</g>
<!-- Node0&#45;&gt;Node10 -->
<g id="edge10" class="edge">
<title>Node0&#45;&gt;Node10</title>
<path fill="none" stroke="midnightblue" d="M916.92,-262.27C1027.23,-247.04 1242.18,-212.38 1417,-154 1418.92,-153.36 1420.88,-152.66 1422.84,-151.92"/>
<polygon fill="midnightblue" stroke="midnightblue" points="1424.53,-155.01 1432.5,-148.03 1421.92,-148.52 1424.53,-155.01"/>
</g>
<!-- Node11 -->
<g id="node12" class="node">
<title>Node11</title>
<g id="a_node12"><a xlink:title=" ">
<polygon fill="white" stroke="#bfbfbf" points="820.5,-129 820.5,-148 867.5,-148 867.5,-129 820.5,-129"/>
<text text-anchor="middle" x="844" y="-136" font-family="Helvetica,sans-Serif" font-size="10.00">vector</text>
</a>
</g>
</g>
<!-- Node0&#45;&gt;Node11 -->
<g id="edge11" class="edge">
<title>Node0&#45;&gt;Node11</title>
<path fill="none" stroke="midnightblue" d="M844,-257.37C844,-233.5 844,-185.18 844,-158.41"/>
<polygon fill="midnightblue" stroke="midnightblue" points="847.5,-158.1 844,-148.1 840.5,-158.1 847.5,-158.1"/>
</g>
<!-- Node12 -->
<g id="node13" class="node">
<title>Node12</title>
<g id="a_node13"><a xlink:title=" ">
<polygon fill="white" stroke="#bfbfbf" points="1647.5,-196 1647.5,-215 1716.5,-215 1716.5,-196 1647.5,-196"/>
<text text-anchor="middle" x="1682" y="-203" font-family="Helvetica,sans-Serif" font-size="10.00">Eigen/Core</text>
</a>
</g>
</g>
<!-- Node0&#45;&gt;Node12 -->
<g id="edge12" class="edge">
<title>Node0&#45;&gt;Node12</title>
<path fill="none" stroke="midnightblue" d="M916.59,-269.32C1085.68,-263.84 1501.86,-247.99 1639,-221 1642.89,-220.23 1646.91,-219.21 1650.86,-218.06"/>
<polygon fill="midnightblue" stroke="midnightblue" points="1651.96,-221.38 1660.42,-215 1649.83,-214.71 1651.96,-221.38"/>
</g>
<!-- Node13 -->
<g id="node14" class="node">
<title>Node13</title>
<g id="a_node14"><a xlink:title=" ">
<polygon fill="white" stroke="#bfbfbf" points="1418.5,-0.5 1418.5,-19.5 1497.5,-19.5 1497.5,-0.5 1418.5,-0.5"/>
<text text-anchor="middle" x="1458" y="-7.5" font-family="Helvetica,sans-Serif" font-size="10.00">fmt/format.h</text>
</a>
</g>
</g>
<!-- Node0&#45;&gt;Node13 -->
<g id="edge13" class="edge">
<title>Node0&#45;&gt;Node13</title>
<path fill="none" stroke="midnightblue" d="M916.56,-269.88C1069.74,-264.73 1417.67,-243.23 1486,-154 1514.74,-116.46 1486.6,-57.53 1469.31,-28.44"/>
<polygon fill="midnightblue" stroke="midnightblue" points="1472.2,-26.45 1463.96,-19.79 1466.24,-30.14 1472.2,-26.45"/>
</g>
<!-- Node14 -->
<g id="node15" class="node">
<title>Node14</title>
<g id="a_node15"><a xlink:href="drake__copyable_8h.html" target="_top" xlink:title="Provides careful macros to selectively enable or disable the special member functions for copy&#45;constr...">
<polygon fill="white" stroke="black" points="713.5,-56.5 713.5,-86.5 832.5,-86.5 832.5,-56.5 713.5,-56.5"/>
<text text-anchor="start" x="721.5" y="-74.5" font-family="Helvetica,sans-Serif" font-size="10.00">drake/common/drake</text>
<text text-anchor="middle" x="773" y="-63.5" font-family="Helvetica,sans-Serif" font-size="10.00">_copyable.h</text>
</a>
</g>
</g>
<!-- Node0&#45;&gt;Node14 -->
<g id="edge14" class="edge">
<title>Node0&#45;&gt;Node14</title>
<path fill="none" stroke="midnightblue" d="M838.89,-257.19C826.82,-223.34 796.4,-138.08 781.49,-96.31"/>
<polygon fill="midnightblue" stroke="midnightblue" points="784.72,-94.92 778.06,-86.68 778.12,-97.28 784.72,-94.92"/>
</g>
<!-- Node15 -->
<g id="node16" class="node">
<title>Node15</title>
<g id="a_node16"><a xlink:href="name__value_8h.html" target="_top" xlink:title=" ">
<polygon fill="white" stroke="black" points="606.5,-196 606.5,-215 767.5,-215 767.5,-196 606.5,-196"/>
<text text-anchor="middle" x="687" y="-203" font-family="Helvetica,sans-Serif" font-size="10.00">drake/common/name_value.h</text>
</a>
</g>
</g>
<!-- Node0&#45;&gt;Node15 -->
<g id="edge15" class="edge">
<title>Node0&#45;&gt;Node15</title>
<path fill="none" stroke="midnightblue" d="M809.93,-257.4C782.26,-245.94 743.61,-229.94 717.08,-218.95"/>
<polygon fill="midnightblue" stroke="midnightblue" points="718.13,-215.6 707.55,-215.01 715.45,-222.07 718.13,-215.6"/>
</g>
<!-- Node17 -->
<g id="node18" class="node">
<title>Node17</title>
<g id="a_node18"><a xlink:href="nice__type__name_8h.html" target="_top" xlink:title=" ">
<polygon fill="white" stroke="black" points="332,-190.5 332,-220.5 472,-220.5 472,-190.5 332,-190.5"/>
<text text-anchor="start" x="340" y="-208.5" font-family="Helvetica,sans-Serif" font-size="10.00">drake/common/nice_type</text>
<text text-anchor="middle" x="402" y="-197.5" font-family="Helvetica,sans-Serif" font-size="10.00">_name.h</text>
</a>
</g>
</g>
<!-- Node0&#45;&gt;Node17 -->
<g id="edge19" class="edge">
<title>Node0&#45;&gt;Node17</title>
<path fill="none" stroke="midnightblue" d="M771.01,-260.77C691.45,-249.07 564.53,-230.4 482.23,-218.3"/>
<polygon fill="midnightblue" stroke="midnightblue" points="482.58,-214.81 472.17,-216.82 481.56,-221.74 482.58,-214.81"/>
</g>
<!-- Node22 -->
<g id="node23" class="node">
<title>Node22</title>
<g id="a_node23"><a xlink:href="yaml__node_8h.html" target="_top" xlink:title=" ">
<polygon fill="white" stroke="black" points="991.5,-190.5 991.5,-220.5 1136.5,-220.5 1136.5,-190.5 991.5,-190.5"/>
<text text-anchor="start" x="999.5" y="-208.5" font-family="Helvetica,sans-Serif" font-size="10.00">drake/common/yaml/yaml</text>
<text text-anchor="middle" x="1064" y="-197.5" font-family="Helvetica,sans-Serif" font-size="10.00">_node.h</text>
</a>
</g>
</g>
<!-- Node0&#45;&gt;Node22 -->
<g id="edge30" class="edge">
<title>Node0&#45;&gt;Node22</title>
<path fill="none" stroke="midnightblue" d="M891.47,-257.48C925.18,-247.51 970.63,-234.09 1006.42,-223.51"/>
<polygon fill="midnightblue" stroke="midnightblue" points="1007.64,-226.8 1016.24,-220.61 1005.66,-220.09 1007.64,-226.8"/>
</g>
<!-- Node15&#45;&gt;Node14 -->
<g id="edge18" class="edge">
<title>Node15&#45;&gt;Node14</title>
<path fill="none" stroke="midnightblue" d="M696.56,-195.91C706.76,-186.39 722.94,-170.23 734,-154 746.36,-135.86 756.86,-113.19 763.84,-96.37"/>
<polygon fill="midnightblue" stroke="midnightblue" points="767.23,-97.33 767.72,-86.75 760.74,-94.72 767.23,-97.33"/>
</g>
<!-- Node16 -->
<g id="node17" class="node">
<title>Node16</title>
<g id="a_node17"><a xlink:href="drake__assert_8h.html" target="_top" xlink:title="Provides Drake&#39;s assertion implementation.">
<polygon fill="white" stroke="black" points="606.5,-123.5 606.5,-153.5 725.5,-153.5 725.5,-123.5 606.5,-123.5"/>
<text text-anchor="start" x="614.5" y="-141.5" font-family="Helvetica,sans-Serif" font-size="10.00">drake/common/drake</text>
<text text-anchor="middle" x="666" y="-130.5" font-family="Helvetica,sans-Serif" font-size="10.00">_assert.h</text>
</a>
</g>
</g>
<!-- Node15&#45;&gt;Node16 -->
<g id="edge16" class="edge">
<title>Node15&#45;&gt;Node16</title>
<path fill="none" stroke="midnightblue" d="M684.17,-195.73C681.49,-187.46 677.36,-174.66 673.71,-163.37"/>
<polygon fill="midnightblue" stroke="midnightblue" points="676.96,-162.03 670.55,-153.59 670.3,-164.18 676.96,-162.03"/>
</g>
<!-- Node16&#45;&gt;Node7 -->
<g id="edge17" class="edge">
<title>Node16&#45;&gt;Node7</title>
<path fill="none" stroke="midnightblue" d="M646.91,-123.4C632.42,-112.7 612.57,-98.03 597.89,-87.19"/>
<polygon fill="midnightblue" stroke="midnightblue" points="599.64,-84.13 589.52,-81.01 595.48,-89.76 599.64,-84.13"/>
</g>
<!-- Node17&#45;&gt;Node6 -->
<g id="edge21" class="edge">
<title>Node17&#45;&gt;Node6</title>
<path fill="none" stroke="midnightblue" d="M402.81,-190.35C405.43,-159.67 416.37,-87.3 462,-56 496.29,-32.47 617.03,-18.96 675.62,-13.65"/>
<polygon fill="midnightblue" stroke="midnightblue" points="676.15,-17.11 685.8,-12.75 675.53,-10.14 676.15,-17.11"/>
</g>
<!-- Node17&#45;&gt;Node9 -->
<g id="edge23" class="edge">
<title>Node17&#45;&gt;Node9</title>
<path fill="none" stroke="midnightblue" d="M331.89,-192.54C290.38,-183.87 243.51,-170.74 231,-154 214.4,-131.79 240.82,-104.09 261.41,-87.37"/>
<polygon fill="midnightblue" stroke="midnightblue" points="263.71,-90.02 269.47,-81.13 259.42,-84.49 263.71,-90.02"/>
</g>
<!-- Node17&#45;&gt;Node11 -->
<g id="edge24" class="edge">
<title>Node17&#45;&gt;Node11</title>
<path fill="none" stroke="midnightblue" d="M472.04,-194.2C568.36,-180.04 737.96,-155.09 810.05,-144.49"/>
<polygon fill="midnightblue" stroke="midnightblue" points="810.97,-147.9 820.35,-142.98 809.95,-140.97 810.97,-147.9"/>
</g>
<!-- Node18 -->
<g id="node19" class="node">
<title>Node18</title>
<g id="a_node19"><a xlink:title=" ">
<polygon fill="white" stroke="#bfbfbf" points="240,-129 240,-148 298,-148 298,-129 240,-129"/>
<text text-anchor="middle" x="269" y="-136" font-family="Helvetica,sans-Serif" font-size="10.00">memory</text>
</a>
</g>
</g>
<!-- Node17&#45;&gt;Node18 -->
<g id="edge20" class="edge">
<title>Node17&#45;&gt;Node18</title>
<path fill="none" stroke="midnightblue" d="M373.14,-190.4C350.11,-179.14 318.11,-163.5 295.68,-152.54"/>
<polygon fill="midnightblue" stroke="midnightblue" points="296.93,-149.25 286.41,-148.01 293.85,-155.54 296.93,-149.25"/>
</g>
<!-- Node19 -->
<g id="node20" class="node">
<title>Node19</title>
<g id="a_node20"><a xlink:title=" ">
<polygon fill="white" stroke="#bfbfbf" points="316.5,-129 316.5,-148 373.5,-148 373.5,-129 316.5,-129"/>
<text text-anchor="middle" x="345" y="-136" font-family="Helvetica,sans-Serif" font-size="10.00">typeinfo</text>
</a>
</g>
</g>
<!-- Node17&#45;&gt;Node19 -->
<g id="edge22" class="edge">
<title>Node17&#45;&gt;Node19</title>
<path fill="none" stroke="midnightblue" d="M389.63,-190.4C380.74,-180.26 368.74,-166.57 359.41,-155.94"/>
<polygon fill="midnightblue" stroke="midnightblue" points="361.85,-153.41 352.62,-148.19 356.59,-158.02 361.85,-153.41"/>
</g>
<!-- Node20 -->
<g id="node21" class="node">
<title>Node20</title>
<g id="a_node21"><a xlink:href="never__destroyed_8h.html" target="_top" xlink:title=" ">
<polygon fill="white" stroke="black" points="430,-123.5 430,-153.5 550,-153.5 550,-123.5 430,-123.5"/>
<text text-anchor="start" x="438" y="-141.5" font-family="Helvetica,sans-Serif" font-size="10.00">drake/common/never</text>
<text text-anchor="middle" x="490" y="-130.5" font-family="Helvetica,sans-Serif" font-size="10.00">_destroyed.h</text>
</a>
</g>
</g>
<!-- Node17&#45;&gt;Node20 -->
<g id="edge25" class="edge">
<title>Node17&#45;&gt;Node20</title>
<path fill="none" stroke="midnightblue" d="M421.09,-190.4C433.32,-181.37 449.37,-169.51 462.9,-159.52"/>
<polygon fill="midnightblue" stroke="midnightblue" points="464.98,-162.33 470.94,-153.58 460.82,-156.7 464.98,-162.33"/>
</g>
<!-- Node20&#45;&gt;Node7 -->
<g id="edge27" class="edge">
<title>Node20&#45;&gt;Node7</title>
<path fill="none" stroke="midnightblue" d="M509.09,-123.4C523.58,-112.7 543.43,-98.03 558.11,-87.19"/>
<polygon fill="midnightblue" stroke="midnightblue" points="560.52,-89.76 566.48,-81.01 556.36,-84.13 560.52,-89.76"/>
</g>
<!-- Node20&#45;&gt;Node9 -->
<g id="edge28" class="edge">
<title>Node20&#45;&gt;Node9</title>
<path fill="none" stroke="midnightblue" d="M445.12,-123.48C405.77,-111.18 349.52,-93.6 314.41,-82.63"/>
<polygon fill="midnightblue" stroke="midnightblue" points="315.26,-79.23 304.67,-79.58 313.17,-85.91 315.26,-79.23"/>
</g>
<!-- Node20&#45;&gt;Node14 -->
<g id="edge29" class="edge">
<title>Node20&#45;&gt;Node14</title>
<path fill="none" stroke="midnightblue" d="M550.02,-123.72C594.85,-113.42 656.25,-99.32 703.27,-88.52"/>
<polygon fill="midnightblue" stroke="midnightblue" points="704.11,-91.91 713.07,-86.26 702.54,-85.09 704.11,-91.91"/>
</g>
<!-- Node21 -->
<g id="node22" class="node">
<title>Node21</title>
<g id="a_node22"><a xlink:title=" ">
<polygon fill="white" stroke="#bfbfbf" points="471.5,-62 471.5,-81 508.5,-81 508.5,-62 471.5,-62"/>
<text text-anchor="middle" x="490" y="-69" font-family="Helvetica,sans-Serif" font-size="10.00">new</text>
</a>
</g>
</g>
<!-- Node20&#45;&gt;Node21 -->
<g id="edge26" class="edge">
<title>Node20&#45;&gt;Node21</title>
<path fill="none" stroke="midnightblue" d="M490,-123.4C490,-114.06 490,-101.71 490,-91.52"/>
<polygon fill="midnightblue" stroke="midnightblue" points="493.5,-91.19 490,-81.19 486.5,-91.19 493.5,-91.19"/>
</g>
<!-- Node22&#45;&gt;Node3 -->
<g id="edge31" class="edge">
<title>Node22&#45;&gt;Node3</title>
<path fill="none" stroke="midnightblue" d="M1024.27,-190.48C998.05,-180.91 963.12,-167.55 933,-154 932,-153.55 930.99,-153.08 929.97,-152.6"/>
<polygon fill="midnightblue" stroke="midnightblue" points="931.36,-149.39 920.84,-148.09 928.25,-155.66 931.36,-149.39"/>
</g>
<!-- Node22&#45;&gt;Node4 -->
<g id="edge32" class="edge">
<title>Node22&#45;&gt;Node4</title>
<path fill="none" stroke="midnightblue" d="M1043.6,-190.4C1027.99,-179.6 1006.52,-164.76 990.81,-153.89"/>
<polygon fill="midnightblue" stroke="midnightblue" points="992.52,-150.82 982.3,-148.01 988.54,-156.57 992.52,-150.82"/>
</g>
<!-- Node22&#45;&gt;Node6 -->
<g id="edge34" class="edge">
<title>Node22&#45;&gt;Node6</title>
<path fill="none" stroke="midnightblue" d="M1068.65,-190.27C1073.45,-172.67 1078.4,-142.62 1064,-123 1024.75,-69.51 820.45,-29.92 740.31,-16.23"/>
<polygon fill="midnightblue" stroke="midnightblue" points="740.73,-12.75 730.29,-14.54 739.57,-19.65 740.73,-12.75"/>
</g>
<!-- Node22&#45;&gt;Node9 -->
<g id="edge36" class="edge">
<title>Node22&#45;&gt;Node9</title>
<path fill="none" stroke="midnightblue" d="M1058.67,-190.29C1050.68,-171.22 1033.62,-138.01 1007,-123 954.13,-93.2 522.53,-91.44 462,-87 410.71,-83.24 351.25,-78.35 315.14,-75.31"/>
<polygon fill="midnightblue" stroke="midnightblue" points="314.98,-71.79 304.72,-74.44 314.39,-78.76 314.98,-71.79"/>
</g>
<!-- Node22&#45;&gt;Node10 -->
<g id="edge37" class="edge">
<title>Node22&#45;&gt;Node10</title>
<path fill="none" stroke="midnightblue" d="M1136.8,-199.66C1208.99,-193.56 1322.2,-180.5 1417,-154 1419.29,-153.36 1421.64,-152.6 1423.97,-151.77"/>
<polygon fill="midnightblue" stroke="midnightblue" points="1425.3,-155 1433.32,-148.07 1422.73,-148.49 1425.3,-155"/>
</g>
<!-- Node22&#45;&gt;Node11 -->
<g id="edge38" class="edge">
<title>Node22&#45;&gt;Node11</title>
<path fill="none" stroke="midnightblue" d="M1002.66,-190.4C965.81,-181.33 918.23,-168.53 877,-154 875.34,-153.41 873.64,-152.78 871.94,-152.12"/>
<polygon fill="midnightblue" stroke="midnightblue" points="872.88,-148.72 862.3,-148.13 870.2,-155.19 872.88,-148.72"/>
</g>
<!-- Node22&#45;&gt;Node14 -->
<g id="edge39" class="edge">
<title>Node22&#45;&gt;Node14</title>
<path fill="none" stroke="midnightblue" d="M1064.06,-190.39C1063.33,-172.05 1059.14,-140.32 1040,-123 1011.62,-97.31 911.94,-83.9 842.76,-77.52"/>
<polygon fill="midnightblue" stroke="midnightblue" points="843.05,-74.03 832.78,-76.63 842.43,-81.01 843.05,-74.03"/>
</g>
<!-- Node23 -->
<g id="node24" class="node">
<title>Node23</title>
<g id="a_node24"><a xlink:title=" ">
<polygon fill="white" stroke="#bfbfbf" points="1350.5,-129 1350.5,-148 1407.5,-148 1407.5,-129 1350.5,-129"/>
<text text-anchor="middle" x="1379" y="-136" font-family="Helvetica,sans-Serif" font-size="10.00">ostream</text>
</a>
</g>
</g>
<!-- Node22&#45;&gt;Node23 -->
<g id="edge33" class="edge">
<title>Node22&#45;&gt;Node23</title>
<path fill="none" stroke="midnightblue" d="M1136.77,-193.86C1191.91,-185.11 1269.3,-171.35 1336,-154 1339.2,-153.17 1342.51,-152.22 1345.81,-151.21"/>
<polygon fill="midnightblue" stroke="midnightblue" points="1347.08,-154.48 1355.52,-148.09 1344.93,-147.82 1347.08,-154.48"/>
</g>
<!-- Node24 -->
<g id="node25" class="node">
<title>Node24</title>
<g id="a_node25"><a xlink:title=" ">
<polygon fill="white" stroke="#bfbfbf" points="1281.5,-0.5 1281.5,-19.5 1354.5,-19.5 1354.5,-0.5 1281.5,-0.5"/>
<text text-anchor="middle" x="1318" y="-7.5" font-family="Helvetica,sans-Serif" font-size="10.00">string_view</text>
</a>
</g>
</g>
<!-- Node22&#45;&gt;Node24 -->
<g id="edge35" class="edge">
<title>Node22&#45;&gt;Node24</title>
<path fill="none" stroke="midnightblue" d="M1136.73,-192.93C1195.83,-182.83 1273.99,-167.68 1303,-154 1303.34,-153.84 1386.84,-87.34 1387,-87 1392.98,-74.59 1393.56,-68.11 1387,-56 1379.25,-41.7 1364.77,-31.22 1351.06,-23.99"/>
<polygon fill="midnightblue" stroke="midnightblue" points="1352.31,-20.71 1341.79,-19.5 1349.26,-27.01 1352.31,-20.71"/>
</g>
<!-- Node25 -->
<g id="node26" class="node">
<title>Node25</title>
<g id="a_node26"><a xlink:href="fmt__ostream_8h.html" target="_top" xlink:title=" ">
<polygon fill="white" stroke="black" points="1130,-129 1130,-148 1294,-148 1294,-129 1130,-129"/>
<text text-anchor="middle" x="1212" y="-136" font-family="Helvetica,sans-Serif" font-size="10.00">drake/common/fmt_ostream.h</text>
</a>
</g>
</g>
<!-- Node22&#45;&gt;Node25 -->
<g id="edge40" class="edge">
<title>Node22&#45;&gt;Node25</title>
<path fill="none" stroke="midnightblue" d="M1096.11,-190.4C1122.08,-178.99 1158.31,-163.08 1183.32,-152.1"/>
<polygon fill="midnightblue" stroke="midnightblue" points="1184.88,-155.23 1192.63,-148.01 1182.07,-148.82 1184.88,-155.23"/>
</g>
<!-- Node25&#45;&gt;Node24 -->
<g id="edge42" class="edge">
<title>Node25&#45;&gt;Node24</title>
<path fill="none" stroke="midnightblue" d="M1202.41,-128.79C1186.38,-113.17 1157.54,-79.8 1175,-56 1196.81,-26.27 1238.27,-15.66 1270.96,-12.12"/>
<polygon fill="midnightblue" stroke="midnightblue" points="1271.58,-15.58 1281.23,-11.2 1270.96,-8.61 1271.58,-15.58"/>
</g>
<!-- Node26 -->
<g id="node27" class="node">
<title>Node26</title>
<g id="a_node27"><a xlink:title=" ">
<polygon fill="white" stroke="#bfbfbf" points="1184,-62 1184,-81 1240,-81 1240,-62 1184,-62"/>
<text text-anchor="middle" x="1212" y="-69" font-family="Helvetica,sans-Serif" font-size="10.00">sstream</text>
</a>
</g>
</g>
<!-- Node25&#45;&gt;Node26 -->
<g id="edge41" class="edge">
<title>Node25&#45;&gt;Node26</title>
<path fill="none" stroke="midnightblue" d="M1212,-128.73C1212,-119.18 1212,-103.62 1212,-91.28"/>
<polygon fill="midnightblue" stroke="midnightblue" points="1215.5,-91.13 1212,-81.13 1208.5,-91.13 1215.5,-91.13"/>
</g>
<!-- Node27 -->
<g id="node28" class="node">
<title>Node27</title>
<g id="a_node28"><a xlink:title=" ">
<polygon fill="white" stroke="#bfbfbf" points="1042,-62 1042,-81 1128,-81 1128,-62 1042,-62"/>
<text text-anchor="middle" x="1085" y="-69" font-family="Helvetica,sans-Serif" font-size="10.00">fmt/ostream.h</text>
</a>
</g>
</g>
<!-- Node25&#45;&gt;Node27 -->
<g id="edge43" class="edge">
<title>Node25&#45;&gt;Node27</title>
<path fill="none" stroke="midnightblue" d="M1195.14,-128.87C1173.6,-117.84 1136.1,-98.66 1110.92,-85.77"/>
<polygon fill="midnightblue" stroke="midnightblue" points="1112.43,-82.61 1101.93,-81.17 1109.24,-88.84 1112.43,-82.61"/>
</g>
<!-- Node28 -->
<g id="node29" class="node">
<title>Node28</title>
<g id="a_node29"><a xlink:href="fmt_8h.html" target="_top" xlink:title=" ">
<polygon fill="white" stroke="black" points="1258.5,-62 1258.5,-81 1377.5,-81 1377.5,-62 1258.5,-62"/>
<text text-anchor="middle" x="1318" y="-69" font-family="Helvetica,sans-Serif" font-size="10.00">drake/common/fmt.h</text>
</a>
</g>
</g>
<!-- Node25&#45;&gt;Node28 -->
<g id="edge44" class="edge">
<title>Node25&#45;&gt;Node28</title>
<path fill="none" stroke="midnightblue" d="M1226.3,-128.73C1244.02,-117.87 1274.43,-99.22 1295.34,-86.39"/>
<polygon fill="midnightblue" stroke="midnightblue" points="1297.24,-89.34 1303.93,-81.13 1293.58,-83.37 1297.24,-89.34"/>
</g>
<!-- Node28&#45;&gt;Node6 -->
<g id="edge45" class="edge">
<title>Node28&#45;&gt;Node6</title>
<path fill="none" stroke="midnightblue" d="M1281.63,-61.97C1271.14,-59.76 1259.66,-57.56 1249,-56 1057.14,-27.97 824.25,-15.93 740.19,-12.28"/>
<polygon fill="midnightblue" stroke="midnightblue" points="740.15,-8.78 730.01,-11.85 739.86,-15.77 740.15,-8.78"/>
</g>
<!-- Node28&#45;&gt;Node13 -->
<g id="edge47" class="edge">
<title>Node28&#45;&gt;Node13</title>
<path fill="none" stroke="midnightblue" d="M1338.06,-61.98C1361.76,-51.9 1401.41,-35.05 1428.58,-23.5"/>
<polygon fill="midnightblue" stroke="midnightblue" points="1430.14,-26.64 1437.98,-19.51 1427.41,-20.2 1430.14,-26.64"/>
</g>
<!-- Node28&#45;&gt;Node24 -->
<g id="edge46" class="edge">
<title>Node28&#45;&gt;Node24</title>
<path fill="none" stroke="midnightblue" d="M1318,-61.98C1318,-53.58 1318,-40.48 1318,-29.66"/>
<polygon fill="midnightblue" stroke="midnightblue" points="1321.5,-29.51 1318,-19.51 1314.5,-29.51 1321.5,-29.51"/>
</g>
</g>
</svg>
