<?xml version="1.0" encoding="UTF-8" standalone="no"?>
<!DOCTYPE svg PUBLIC "-//W3C//DTD SVG 1.1//EN"
 "http://www.w3.org/Graphics/SVG/1.1/DTD/svg11.dtd">
<!-- Generated by graphviz version 2.43.0 (0)
 -->
<!-- Title: drake/common/yaml/yaml_io.h Pages: 1 -->
<!--zoomable 296 -->
<svg id="main" version="1.1" xmlns="http://www.w3.org/2000/svg" xmlns:xlink="http://www.w3.org/1999/xlink" xml:space="preserve" onload="init(evt)">
<style type="text/css"><![CDATA[
.edge:hover path { stroke: red; }
.edge:hover polygon { stroke: red; fill: red; }
]]></style>
<script type="text/javascript"><![CDATA[
var edges = document.getElementsByTagName('g');
if (edges && edges.length) {
  for (var i=0;i<edges.length;i++) {
    if (edges[i].id.substr(0,4)=='edge') {
      edges[i].setAttribute('class','edge');
    }
  }
}
]]></script>
        <defs>
                <circle id="rim" cx="0" cy="0" r="7"/>
                <circle id="rim2" cx="0" cy="0" r="3.5"/>
                <g id="zoomPlus">
                        <use xlink:href="#rim" fill="#404040">
                                <set attributeName="fill" to="#808080" begin="zoomplus.mouseover" end="zoomplus.mouseout"/>
                        </use>
                        <path d="M-4,0h8M0,-4v8" fill="none" stroke="white" stroke-width="1.5" pointer-events="none"/>
                </g>
                <g id="zoomMin">
                        <use xlink:href="#rim" fill="#404040">
                                <set attributeName="fill" to="#808080" begin="zoomminus.mouseover" end="zoomminus.mouseout"/>
                        </use>
                        <path d="M-4,0h8" fill="none" stroke="white" stroke-width="1.5" pointer-events="none"/>
                </g>
                <g id="dirArrow">
                        <path fill="none" stroke="white" stroke-width="1.5" d="M0,-3.0v7 M-2.5,-0.5L0,-3.0L2.5,-0.5"/>
                </g>
               <g id="resetDef">
                       <use xlink:href="#rim2" fill="#404040">
                               <set attributeName="fill" to="#808080" begin="reset.mouseover" end="reset.mouseout"/>
                       </use>
               </g>
        </defs>

<script type="text/javascript">
var viewWidth = 2427;
var viewHeight = 296;
var sectionId = 'dynsection-0';
</script>
<script xlink:href="svgpan.js"/>
<svg id="graph" class="graph">
<g id="viewport">
<title>drake/common/yaml/yaml_io.h</title>
<polygon fill="white" stroke="transparent" points="-4,4 -4,-292 2423.18,-292 2423.18,4 -4,4"/>
<!-- Node0 -->
<g id="node1" class="node">
<title>Node0</title>
<g id="a_node1"><a xlink:title=" ">
<polygon fill="#bfbfbf" stroke="black" points="324.68,-268.5 324.68,-287.5 492.68,-287.5 492.68,-268.5 324.68,-268.5"/>
<text text-anchor="middle" x="408.68" y="-275.5" font-family="Helvetica,sans-Serif" font-size="10.00">drake/common/yaml/yaml_io.h</text>
</a>
</g>
</g>
<!-- Node1 -->
<g id="node2" class="node">
<title>Node1</title>
<g id="a_node2"><a xlink:title=" ">
<polygon fill="white" stroke="#bfbfbf" points="43.68,-140 43.68,-159 99.68,-159 99.68,-140 43.68,-140"/>
<text text-anchor="middle" x="71.68" y="-147" font-family="Helvetica,sans-Serif" font-size="10.00">optional</text>
</a>
</g>
</g>
<!-- Node0&#45;&gt;Node1 -->
<g id="edge1" class="edge">
<title>Node0&#45;&gt;Node1</title>
<path fill="none" stroke="midnightblue" d="M385.78,-268.4C327.3,-246.45 172.29,-188.27 104.36,-162.77"/>
<polygon fill="midnightblue" stroke="midnightblue" points="105.2,-159.34 94.61,-159.11 102.74,-165.9 105.2,-159.34"/>
</g>
<!-- Node2 -->
<g id="node3" class="node">
<title>Node2</title>
<g id="a_node3"><a xlink:title=" ">
<polygon fill="white" stroke="#bfbfbf" points="476.68,-73 476.68,-92 520.68,-92 520.68,-73 476.68,-73"/>
<text text-anchor="middle" x="498.68" y="-80" font-family="Helvetica,sans-Serif" font-size="10.00">string</text>
</a>
</g>
</g>
<!-- Node0&#45;&gt;Node2 -->
<g id="edge2" class="edge">
<title>Node0&#45;&gt;Node2</title>
<path fill="none" stroke="midnightblue" d="M324.53,-272.43C189.04,-262.16 -53.76,-230.1 34.68,-134 67.37,-98.48 421.03,-110.42 467.68,-98 469.62,-97.48 471.58,-96.85 473.54,-96.14"/>
<polygon fill="midnightblue" stroke="midnightblue" points="475.15,-99.26 483,-92.15 472.42,-92.81 475.15,-99.26"/>
</g>
<!-- Node3 -->
<g id="node4" class="node">
<title>Node3</title>
<g id="a_node4"><a xlink:title=" ">
<polygon fill="white" stroke="#bfbfbf" points="189.18,-6 189.18,-25 234.18,-25 234.18,-6 189.18,-6"/>
<text text-anchor="middle" x="211.68" y="-13" font-family="Helvetica,sans-Serif" font-size="10.00">utility</text>
</a>
</g>
</g>
<!-- Node0&#45;&gt;Node3 -->
<g id="edge3" class="edge">
<title>Node0&#45;&gt;Node3</title>
<path fill="none" stroke="midnightblue" d="M324.35,-272.26C218.75,-265.54 49,-251.8 27.68,-232 -4.52,-202.1 -7.02,-172.21 14.68,-134 50.06,-71.71 132.99,-38.94 179.18,-24.96"/>
<polygon fill="midnightblue" stroke="midnightblue" points="180.37,-28.26 188.99,-22.11 178.41,-21.54 180.37,-28.26"/>
</g>
<!-- Node4 -->
<g id="node5" class="node">
<title>Node4</title>
<g id="a_node5"><a xlink:href="yaml__io__options_8h.html" target="_top" xlink:title=" ">
<polygon fill="white" stroke="black" points="2137.18,-134.5 2137.18,-164.5 2282.18,-164.5 2282.18,-134.5 2137.18,-134.5"/>
<text text-anchor="start" x="2145.18" y="-152.5" font-family="Helvetica,sans-Serif" font-size="10.00">drake/common/yaml/yaml</text>
<text text-anchor="middle" x="2209.68" y="-141.5" font-family="Helvetica,sans-Serif" font-size="10.00">_io_options.h</text>
</a>
</g>
</g>
<!-- Node0&#45;&gt;Node4 -->
<g id="edge4" class="edge">
<title>Node0&#45;&gt;Node4</title>
<path fill="none" stroke="midnightblue" d="M492.74,-276.29C686.7,-274.1 1180.43,-265.41 1591.68,-232 1828.13,-212.79 1889.23,-201.41 2126.87,-165.24"/>
<polygon fill="midnightblue" stroke="midnightblue" points="2127.49,-168.69 2136.85,-163.72 2126.44,-161.77 2127.49,-168.69"/>
</g>
<!-- Node6 -->
<g id="node7" class="node">
<title>Node6</title>
<g id="a_node7"><a xlink:href="yaml__read__archive_8h.html" target="_top" xlink:title=" ">
<polygon fill="white" stroke="black" points="1437.18,-201.5 1437.18,-231.5 1582.18,-231.5 1582.18,-201.5 1437.18,-201.5"/>
<text text-anchor="start" x="1445.18" y="-219.5" font-family="Helvetica,sans-Serif" font-size="10.00">drake/common/yaml/yaml</text>
<text text-anchor="middle" x="1509.68" y="-208.5" font-family="Helvetica,sans-Serif" font-size="10.00">_read_archive.h</text>
</a>
</g>
</g>
<!-- Node0&#45;&gt;Node6 -->
<g id="edge6" class="edge">
<title>Node0&#45;&gt;Node6</title>
<path fill="none" stroke="midnightblue" d="M492.79,-272.45C698.06,-261.36 1222.76,-233.01 1426.78,-221.98"/>
<polygon fill="midnightblue" stroke="midnightblue" points="1427.03,-225.47 1436.83,-221.44 1426.66,-218.48 1427.03,-225.47"/>
</g>
<!-- Node31 -->
<g id="node32" class="node">
<title>Node31</title>
<g id="a_node32"><a xlink:href="yaml__write__archive_8h.html" target="_top" xlink:title=" ">
<polygon fill="white" stroke="black" points="499.18,-201.5 499.18,-231.5 644.18,-231.5 644.18,-201.5 499.18,-201.5"/>
<text text-anchor="start" x="507.18" y="-219.5" font-family="Helvetica,sans-Serif" font-size="10.00">drake/common/yaml/yaml</text>
<text text-anchor="middle" x="571.68" y="-208.5" font-family="Helvetica,sans-Serif" font-size="10.00">_write_archive.h</text>
</a>
</g>
</g>
<!-- Node0&#45;&gt;Node31 -->
<g id="edge52" class="edge">
<title>Node0&#45;&gt;Node31</title>
<path fill="none" stroke="midnightblue" d="M432.03,-268.48C455.86,-259.78 493.53,-246.03 523.74,-235"/>
<polygon fill="midnightblue" stroke="midnightblue" points="525.07,-238.24 533.26,-231.52 522.67,-231.66 525.07,-238.24"/>
</g>
<!-- Node5 -->
<g id="node6" class="node">
<title>Node5</title>
<g id="a_node6"><a xlink:title=" ">
<polygon fill="white" stroke="#bfbfbf" points="1764.18,-73 1764.18,-92 1821.18,-92 1821.18,-73 1764.18,-73"/>
<text text-anchor="middle" x="1792.68" y="-80" font-family="Helvetica,sans-Serif" font-size="10.00">ostream</text>
</a>
</g>
</g>
<!-- Node4&#45;&gt;Node5 -->
<g id="edge5" class="edge">
<title>Node4&#45;&gt;Node5</title>
<path fill="none" stroke="midnightblue" d="M2136.84,-135.32C2134.09,-134.87 2131.36,-134.43 2128.68,-134 2013.9,-115.76 1984.37,-116.76 1869.68,-98 1857.2,-95.96 1843.63,-93.49 1831.4,-91.17"/>
<polygon fill="midnightblue" stroke="midnightblue" points="1831.99,-87.72 1821.51,-89.27 1830.67,-94.59 1831.99,-87.72"/>
</g>
<!-- Node6&#45;&gt;Node1 -->
<g id="edge11" class="edge">
<title>Node6&#45;&gt;Node1</title>
<path fill="none" stroke="midnightblue" d="M1437.07,-214.98C1237.16,-213.07 661.94,-204.29 185.68,-165 160.28,-162.9 131.83,-159.29 109.71,-156.19"/>
<polygon fill="midnightblue" stroke="midnightblue" points="110.11,-152.71 99.72,-154.77 109.12,-159.64 110.11,-152.71"/>
</g>
<!-- Node6&#45;&gt;Node2 -->
<g id="edge13" class="edge">
<title>Node6&#45;&gt;Node2</title>
<path fill="none" stroke="midnightblue" d="M1504.41,-201.19C1496.48,-182 1479.5,-148.65 1452.68,-134 1362.7,-84.87 630.45,-121.6 530.68,-98 528.46,-97.48 526.21,-96.79 523.98,-96.02"/>
<polygon fill="midnightblue" stroke="midnightblue" points="525.11,-92.7 514.53,-92.14 522.45,-99.17 525.11,-92.7"/>
</g>
<!-- Node6&#45;&gt;Node3 -->
<g id="edge16" class="edge">
<title>Node6&#45;&gt;Node3</title>
<path fill="none" stroke="midnightblue" d="M1523.37,-201.24C1538.65,-183.6 1559.07,-153.52 1541.68,-134 1480.12,-64.88 300.63,-38.73 257.68,-31 253.2,-30.19 248.55,-29.08 244,-27.82"/>
<polygon fill="midnightblue" stroke="midnightblue" points="244.91,-24.43 234.32,-24.9 242.88,-31.13 244.91,-24.43"/>
</g>
<!-- Node6&#45;&gt;Node4 -->
<g id="edge42" class="edge">
<title>Node6&#45;&gt;Node4</title>
<path fill="none" stroke="midnightblue" d="M1582.34,-211.83C1696.37,-205.58 1924.44,-191.05 2126.94,-165.15"/>
<polygon fill="midnightblue" stroke="midnightblue" points="2127.4,-168.62 2136.87,-163.87 2126.51,-161.68 2127.4,-168.62"/>
</g>
<!-- Node6&#45;&gt;Node5 -->
<g id="edge12" class="edge">
<title>Node6&#45;&gt;Node5</title>
<path fill="none" stroke="midnightblue" d="M1582.24,-212.21C1655.36,-207.23 1761.09,-194.94 1787.68,-165 1802.72,-148.07 1800.93,-120.53 1797.47,-102.22"/>
<polygon fill="midnightblue" stroke="midnightblue" points="1800.88,-101.42 1795.29,-92.42 1794.04,-102.94 1800.88,-101.42"/>
</g>
<!-- Node7 -->
<g id="node8" class="node">
<title>Node7</title>
<g id="a_node8"><a xlink:title=" ">
<polygon fill="white" stroke="#bfbfbf" points="1613.68,-140 1613.68,-159 1677.68,-159 1677.68,-140 1613.68,-140"/>
<text text-anchor="middle" x="1645.68" y="-147" font-family="Helvetica,sans-Serif" font-size="10.00">algorithm</text>
</a>
</g>
</g>
<!-- Node6&#45;&gt;Node7 -->
<g id="edge7" class="edge">
<title>Node6&#45;&gt;Node7</title>
<path fill="none" stroke="midnightblue" d="M1539.19,-201.4C1562.84,-190.09 1595.76,-174.36 1618.71,-163.39"/>
<polygon fill="midnightblue" stroke="midnightblue" points="1620.37,-166.48 1627.88,-159.01 1617.35,-160.16 1620.37,-166.48"/>
</g>
<!-- Node8 -->
<g id="node9" class="node">
<title>Node8</title>
<g id="a_node9"><a xlink:title=" ">
<polygon fill="white" stroke="#bfbfbf" points="1202.68,-140 1202.68,-159 1244.68,-159 1244.68,-140 1202.68,-140"/>
<text text-anchor="middle" x="1223.68" y="-147" font-family="Helvetica,sans-Serif" font-size="10.00">array</text>
</a>
</g>
</g>
<!-- Node6&#45;&gt;Node8 -->
<g id="edge8" class="edge">
<title>Node6&#45;&gt;Node8</title>
<path fill="none" stroke="midnightblue" d="M1437.04,-205.9C1385.36,-197.93 1314.72,-184.67 1254.68,-165 1253.01,-164.45 1251.31,-163.84 1249.62,-163.18"/>
<polygon fill="midnightblue" stroke="midnightblue" points="1250.68,-159.83 1240.11,-159.09 1247.91,-166.26 1250.68,-159.83"/>
</g>
<!-- Node9 -->
<g id="node10" class="node">
<title>Node9</title>
<g id="a_node10"><a xlink:title=" ">
<polygon fill="white" stroke="#bfbfbf" points="1695.68,-140 1695.68,-159 1745.68,-159 1745.68,-140 1695.68,-140"/>
<text text-anchor="middle" x="1720.68" y="-147" font-family="Helvetica,sans-Serif" font-size="10.00">cstdint</text>
</a>
</g>
</g>
<!-- Node6&#45;&gt;Node9 -->
<g id="edge9" class="edge">
<title>Node6&#45;&gt;Node9</title>
<path fill="none" stroke="midnightblue" d="M1565.65,-201.45C1600.76,-192.17 1646.77,-179.14 1686.68,-165 1688.54,-164.34 1690.44,-163.63 1692.35,-162.89"/>
<polygon fill="midnightblue" stroke="midnightblue" points="1693.84,-166.07 1701.78,-159.05 1691.2,-159.58 1693.84,-166.07"/>
</g>
<!-- Node10 -->
<g id="node11" class="node">
<title>Node10</title>
<g id="a_node11"><a xlink:title=" ">
<polygon fill="white" stroke="#bfbfbf" points="847.68,-73 847.68,-92 885.68,-92 885.68,-73 847.68,-73"/>
<text text-anchor="middle" x="866.68" y="-80" font-family="Helvetica,sans-Serif" font-size="10.00">map</text>
</a>
</g>
</g>
<!-- Node6&#45;&gt;Node10 -->
<g id="edge10" class="edge">
<title>Node6&#45;&gt;Node10</title>
<path fill="none" stroke="midnightblue" d="M1518.35,-201.36C1528.2,-183.29 1540.83,-152.16 1523.68,-134 1475.69,-83.18 963.21,-116 895.68,-98 893.96,-97.54 892.22,-96.98 890.5,-96.33"/>
<polygon fill="midnightblue" stroke="midnightblue" points="891.53,-92.96 880.97,-92.09 888.68,-99.36 891.53,-92.96"/>
</g>
<!-- Node11 -->
<g id="node12" class="node">
<title>Node11</title>
<g id="a_node12"><a xlink:title=" ">
<polygon fill="white" stroke="#bfbfbf" points="1263.18,-140 1263.18,-159 1356.18,-159 1356.18,-140 1263.18,-140"/>
<text text-anchor="middle" x="1309.68" y="-147" font-family="Helvetica,sans-Serif" font-size="10.00">unordered_map</text>
</a>
</g>
</g>
<!-- Node6&#45;&gt;Node11 -->
<g id="edge14" class="edge">
<title>Node6&#45;&gt;Node11</title>
<path fill="none" stroke="midnightblue" d="M1466.28,-201.4C1430.26,-189.69 1379.62,-173.23 1345.78,-162.23"/>
<polygon fill="midnightblue" stroke="midnightblue" points="1346.45,-158.77 1335.85,-159.01 1344.28,-165.43 1346.45,-158.77"/>
</g>
<!-- Node12 -->
<g id="node13" class="node">
<title>Node12</title>
<g id="a_node13"><a xlink:title=" ">
<polygon fill="white" stroke="#bfbfbf" points="1877.68,-140 1877.68,-159 1963.68,-159 1963.68,-140 1877.68,-140"/>
<text text-anchor="middle" x="1920.68" y="-147" font-family="Helvetica,sans-Serif" font-size="10.00">unordered_set</text>
</a>
</g>
</g>
<!-- Node6&#45;&gt;Node12 -->
<g id="edge15" class="edge">
<title>Node6&#45;&gt;Node12</title>
<path fill="none" stroke="midnightblue" d="M1582.27,-207.46C1654.1,-198.96 1767,-184.13 1863.68,-165 1868.87,-163.97 1874.29,-162.77 1879.64,-161.5"/>
<polygon fill="midnightblue" stroke="midnightblue" points="1880.88,-164.8 1889.76,-159.01 1879.21,-158 1880.88,-164.8"/>
</g>
<!-- Node13 -->
<g id="node14" class="node">
<title>Node13</title>
<g id="a_node14"><a xlink:title=" ">
<polygon fill="white" stroke="#bfbfbf" points="904.18,-73 904.18,-92 955.18,-92 955.18,-73 904.18,-73"/>
<text text-anchor="middle" x="929.68" y="-80" font-family="Helvetica,sans-Serif" font-size="10.00">variant</text>
</a>
</g>
</g>
<!-- Node6&#45;&gt;Node13 -->
<g id="edge17" class="edge">
<title>Node6&#45;&gt;Node13</title>
<path fill="none" stroke="midnightblue" d="M1582.34,-213.43C1672.66,-208.44 1808.74,-191.47 1754.68,-134 1727.26,-104.85 1120.81,-88.15 965.6,-84.34"/>
<polygon fill="midnightblue" stroke="midnightblue" points="965.3,-80.83 955.22,-84.09 965.13,-87.83 965.3,-80.83"/>
</g>
<!-- Node14 -->
<g id="node15" class="node">
<title>Node14</title>
<g id="a_node15"><a xlink:title=" ">
<polygon fill="white" stroke="#bfbfbf" points="614.18,-73 614.18,-92 661.18,-92 661.18,-73 614.18,-73"/>
<text text-anchor="middle" x="637.68" y="-80" font-family="Helvetica,sans-Serif" font-size="10.00">vector</text>
</a>
</g>
</g>
<!-- Node6&#45;&gt;Node14 -->
<g id="edge18" class="edge">
<title>Node6&#45;&gt;Node14</title>
<path fill="none" stroke="midnightblue" d="M1510.1,-201.29C1509.79,-182.54 1506.1,-150.03 1485.68,-134 1417.78,-80.71 795.35,-108.55 709.68,-98 697.05,-96.44 683.33,-93.9 671.29,-91.37"/>
<polygon fill="midnightblue" stroke="midnightblue" points="671.72,-87.88 661.2,-89.18 670.23,-94.72 671.72,-87.88"/>
</g>
<!-- Node15 -->
<g id="node16" class="node">
<title>Node15</title>
<g id="a_node16"><a xlink:title=" ">
<polygon fill="white" stroke="#bfbfbf" points="1374.18,-140 1374.18,-159 1443.18,-159 1443.18,-140 1374.18,-140"/>
<text text-anchor="middle" x="1408.68" y="-147" font-family="Helvetica,sans-Serif" font-size="10.00">Eigen/Core</text>
</a>
</g>
</g>
<!-- Node6&#45;&gt;Node15 -->
<g id="edge19" class="edge">
<title>Node6&#45;&gt;Node15</title>
<path fill="none" stroke="midnightblue" d="M1487.76,-201.4C1470.83,-190.5 1447.49,-175.48 1430.56,-164.58"/>
<polygon fill="midnightblue" stroke="midnightblue" points="1432.2,-161.48 1421.9,-159.01 1428.41,-167.36 1432.2,-161.48"/>
</g>
<!-- Node16 -->
<g id="node17" class="node">
<title>Node16</title>
<g id="a_node17"><a xlink:title=" ">
<polygon fill="white" stroke="#bfbfbf" points="1106.18,-140 1106.18,-159 1185.18,-159 1185.18,-140 1106.18,-140"/>
<text text-anchor="middle" x="1145.68" y="-147" font-family="Helvetica,sans-Serif" font-size="10.00">fmt/format.h</text>
</a>
</g>
</g>
<!-- Node6&#45;&gt;Node16 -->
<g id="edge20" class="edge">
<title>Node6&#45;&gt;Node16</title>
<path fill="none" stroke="midnightblue" d="M1436.98,-206.72C1372.58,-198.27 1276.25,-183.98 1193.68,-165 1189.74,-164.09 1185.64,-163.04 1181.58,-161.92"/>
<polygon fill="midnightblue" stroke="midnightblue" points="1182.24,-158.47 1171.67,-159.05 1180.3,-165.19 1182.24,-158.47"/>
</g>
<!-- Node17 -->
<g id="node18" class="node">
<title>Node17</title>
<g id="a_node18"><a xlink:href="drake__copyable_8h.html" target="_top" xlink:title="Provides careful macros to selectively enable or disable the special member functions for copy&#45;constr...">
<polygon fill="white" stroke="black" points="760.18,-0.5 760.18,-30.5 879.18,-30.5 879.18,-0.5 760.18,-0.5"/>
<text text-anchor="start" x="768.18" y="-18.5" font-family="Helvetica,sans-Serif" font-size="10.00">drake/common/drake</text>
<text text-anchor="middle" x="819.68" y="-7.5" font-family="Helvetica,sans-Serif" font-size="10.00">_copyable.h</text>
</a>
</g>
</g>
<!-- Node6&#45;&gt;Node17 -->
<g id="edge21" class="edge">
<title>Node6&#45;&gt;Node17</title>
<path fill="none" stroke="midnightblue" d="M1582.33,-201.94C1584.13,-201.62 1585.92,-201.31 1587.68,-201 1684.84,-183.99 1730.91,-228.16 1806.68,-165 1841.12,-136.29 1861.59,-99.49 1830.68,-67 1814.44,-49.93 1115.93,-26.02 889.64,-18.71"/>
<polygon fill="midnightblue" stroke="midnightblue" points="889.65,-15.21 879.54,-18.38 889.42,-22.21 889.65,-15.21"/>
</g>
<!-- Node18 -->
<g id="node19" class="node">
<title>Node18</title>
<g id="a_node19"><a xlink:href="drake__deprecated_8h.html" target="_top" xlink:title="Provides a portable macro for use in generating compile&#45;time warnings for use of code that is permitt...">
<polygon fill="white" stroke="black" points="790.18,-134.5 790.18,-164.5 909.18,-164.5 909.18,-134.5 790.18,-134.5"/>
<text text-anchor="start" x="798.18" y="-152.5" font-family="Helvetica,sans-Serif" font-size="10.00">drake/common/drake</text>
<text text-anchor="middle" x="849.68" y="-141.5" font-family="Helvetica,sans-Serif" font-size="10.00">_deprecated.h</text>
</a>
</g>
</g>
<!-- Node6&#45;&gt;Node18 -->
<g id="edge22" class="edge">
<title>Node6&#45;&gt;Node18</title>
<path fill="none" stroke="midnightblue" d="M1437.02,-212.15C1327.1,-206.45 1111.87,-192.81 919.45,-164.99"/>
<polygon fill="midnightblue" stroke="midnightblue" points="919.84,-161.51 909.44,-163.52 918.83,-168.43 919.84,-161.51"/>
</g>
<!-- Node19 -->
<g id="node20" class="node">
<title>Node19</title>
<g id="a_node20"><a xlink:href="drake__throw_8h.html" target="_top" xlink:title="Provides a convenient wrapper to throw an exception when a condition is unmet.">
<polygon fill="white" stroke="black" points="2300.18,-134.5 2300.18,-164.5 2419.18,-164.5 2419.18,-134.5 2300.18,-134.5"/>
<text text-anchor="start" x="2308.18" y="-152.5" font-family="Helvetica,sans-Serif" font-size="10.00">drake/common/drake</text>
<text text-anchor="middle" x="2359.68" y="-141.5" font-family="Helvetica,sans-Serif" font-size="10.00">_throw.h</text>
</a>
</g>
</g>
<!-- Node6&#45;&gt;Node19 -->
<g id="edge23" class="edge">
<title>Node6&#45;&gt;Node19</title>
<path fill="none" stroke="midnightblue" d="M1582.27,-214.34C1719.05,-211.37 2024.37,-201.11 2289.84,-165.13"/>
<polygon fill="midnightblue" stroke="midnightblue" points="2290.63,-168.55 2300.06,-163.73 2289.68,-161.62 2290.63,-168.55"/>
</g>
<!-- Node22 -->
<g id="node23" class="node">
<title>Node22</title>
<g id="a_node23"><a xlink:href="name__value_8h.html" target="_top" xlink:title=" ">
<polygon fill="white" stroke="black" points="927.18,-140 927.18,-159 1088.18,-159 1088.18,-140 927.18,-140"/>
<text text-anchor="middle" x="1007.68" y="-147" font-family="Helvetica,sans-Serif" font-size="10.00">drake/common/name_value.h</text>
</a>
</g>
</g>
<!-- Node6&#45;&gt;Node22 -->
<g id="edge27" class="edge">
<title>Node6&#45;&gt;Node22</title>
<path fill="none" stroke="midnightblue" d="M1437.01,-207.43C1354.61,-198.09 1216.3,-181.82 1097.68,-165 1088.26,-163.66 1078.3,-162.16 1068.57,-160.63"/>
<polygon fill="midnightblue" stroke="midnightblue" points="1068.98,-157.15 1058.56,-159.04 1067.88,-164.06 1068.98,-157.15"/>
</g>
<!-- Node23 -->
<g id="node24" class="node">
<title>Node23</title>
<g id="a_node24"><a xlink:href="nice__type__name_8h.html" target="_top" xlink:title=" ">
<polygon fill="white" stroke="black" points="353.68,-134.5 353.68,-164.5 493.68,-164.5 493.68,-134.5 353.68,-134.5"/>
<text text-anchor="start" x="361.68" y="-152.5" font-family="Helvetica,sans-Serif" font-size="10.00">drake/common/nice_type</text>
<text text-anchor="middle" x="423.68" y="-141.5" font-family="Helvetica,sans-Serif" font-size="10.00">_name.h</text>
</a>
</g>
</g>
<!-- Node6&#45;&gt;Node23 -->
<g id="edge30" class="edge">
<title>Node6&#45;&gt;Node23</title>
<path fill="none" stroke="midnightblue" d="M1437,-213.45C1275.67,-208.52 875.5,-194.18 541.68,-165 529.43,-163.93 516.49,-162.57 503.85,-161.12"/>
<polygon fill="midnightblue" stroke="midnightblue" points="504.13,-157.63 493.79,-159.94 503.31,-164.58 504.13,-157.63"/>
</g>
<!-- Node28 -->
<g id="node29" class="node">
<title>Node28</title>
<g id="a_node29"><a xlink:href="unused_8h.html" target="_top" xlink:title=" ">
<polygon fill="white" stroke="black" points="1982.18,-140 1982.18,-159 2119.18,-159 2119.18,-140 1982.18,-140"/>
<text text-anchor="middle" x="2050.68" y="-147" font-family="Helvetica,sans-Serif" font-size="10.00">drake/common/unused.h</text>
</a>
</g>
</g>
<!-- Node6&#45;&gt;Node28 -->
<g id="edge41" class="edge">
<title>Node6&#45;&gt;Node28</title>
<path fill="none" stroke="midnightblue" d="M1582.47,-209.27C1673.85,-201.05 1835.29,-185.23 1972.68,-165 1980.82,-163.8 1989.4,-162.37 1997.78,-160.89"/>
<polygon fill="midnightblue" stroke="midnightblue" points="1998.65,-164.29 2007.86,-159.06 1997.4,-157.4 1998.65,-164.29"/>
</g>
<!-- Node29 -->
<g id="node30" class="node">
<title>Node29</title>
<g id="a_node30"><a xlink:href="yaml__node_8h.html" target="_top" xlink:title=" ">
<polygon fill="white" stroke="black" points="550.18,-134.5 550.18,-164.5 695.18,-164.5 695.18,-134.5 550.18,-134.5"/>
<text text-anchor="start" x="558.18" y="-152.5" font-family="Helvetica,sans-Serif" font-size="10.00">drake/common/yaml/yaml</text>
<text text-anchor="middle" x="622.68" y="-141.5" font-family="Helvetica,sans-Serif" font-size="10.00">_node.h</text>
</a>
</g>
</g>
<!-- Node6&#45;&gt;Node29 -->
<g id="edge43" class="edge">
<title>Node6&#45;&gt;Node29</title>
<path fill="none" stroke="midnightblue" d="M1437.05,-210.99C1306.04,-202.72 1021.47,-184.25 781.68,-165 756.91,-163.01 729.99,-160.64 705.46,-158.39"/>
<polygon fill="midnightblue" stroke="midnightblue" points="705.75,-154.9 695.47,-157.47 705.11,-161.87 705.75,-154.9"/>
</g>
<!-- Node20 -->
<g id="node21" class="node">
<title>Node20</title>
<g id="a_node21"><a xlink:title=" ">
<polygon fill="white" stroke="#bfbfbf" points="1403.18,-6 1403.18,-25 1472.18,-25 1472.18,-6 1403.18,-6"/>
<text text-anchor="middle" x="1437.68" y="-13" font-family="Helvetica,sans-Serif" font-size="10.00">type_traits</text>
</a>
</g>
</g>
<!-- Node19&#45;&gt;Node20 -->
<g id="edge24" class="edge">
<title>Node19&#45;&gt;Node20</title>
<path fill="none" stroke="midnightblue" d="M2308.96,-134.46C2240.78,-116.12 2115.54,-84.31 2006.68,-67 1812.92,-36.19 1578.82,-22.84 1482.45,-18.36"/>
<polygon fill="midnightblue" stroke="midnightblue" points="1482.35,-14.86 1472.2,-17.9 1482.03,-21.85 1482.35,-14.86"/>
</g>
<!-- Node21 -->
<g id="node22" class="node">
<title>Node21</title>
<g id="a_node22"><a xlink:href="drake__assert_8h.html" target="_top" xlink:title="Provides Drake&#39;s assertion implementation.">
<polygon fill="white" stroke="black" points="1878.18,-67.5 1878.18,-97.5 1997.18,-97.5 1997.18,-67.5 1878.18,-67.5"/>
<text text-anchor="start" x="1886.18" y="-85.5" font-family="Helvetica,sans-Serif" font-size="10.00">drake/common/drake</text>
<text text-anchor="middle" x="1937.68" y="-74.5" font-family="Helvetica,sans-Serif" font-size="10.00">_assert.h</text>
</a>
</g>
</g>
<!-- Node19&#45;&gt;Node21 -->
<g id="edge25" class="edge">
<title>Node19&#45;&gt;Node21</title>
<path fill="none" stroke="midnightblue" d="M2300.02,-135.54C2297.2,-135 2294.41,-134.49 2291.68,-134 2193.52,-116.55 2079.19,-101.12 2007.62,-92.04"/>
<polygon fill="midnightblue" stroke="midnightblue" points="2007.74,-88.53 1997.38,-90.75 2006.86,-95.48 2007.74,-88.53"/>
</g>
<!-- Node21&#45;&gt;Node20 -->
<g id="edge26" class="edge">
<title>Node21&#45;&gt;Node20</title>
<path fill="none" stroke="midnightblue" d="M1877.97,-69.4C1873.15,-68.54 1868.34,-67.73 1863.68,-67 1725.42,-45.29 1560.61,-28.24 1482.71,-20.71"/>
<polygon fill="midnightblue" stroke="midnightblue" points="1482.6,-17.18 1472.31,-19.71 1481.93,-24.15 1482.6,-17.18"/>
</g>
<!-- Node22&#45;&gt;Node17 -->
<g id="edge29" class="edge">
<title>Node22&#45;&gt;Node17</title>
<path fill="none" stroke="midnightblue" d="M1005.4,-139.78C1000.64,-123.23 988.09,-87.13 964.68,-67 943.44,-48.74 915.21,-36.96 889.3,-29.42"/>
<polygon fill="midnightblue" stroke="midnightblue" points="890.08,-26 879.51,-26.73 888.23,-32.75 890.08,-26"/>
</g>
<!-- Node22&#45;&gt;Node21 -->
<g id="edge28" class="edge">
<title>Node22&#45;&gt;Node21</title>
<path fill="none" stroke="midnightblue" d="M1054.26,-139.99C1068.18,-137.72 1083.51,-135.48 1097.68,-134 1422.07,-100.01 1505.88,-127.93 1830.68,-98 1842.71,-96.89 1855.47,-95.42 1867.82,-93.84"/>
<polygon fill="midnightblue" stroke="midnightblue" points="1868.62,-97.27 1878.08,-92.5 1867.71,-90.33 1868.62,-97.27"/>
</g>
<!-- Node23&#45;&gt;Node2 -->
<g id="edge32" class="edge">
<title>Node23&#45;&gt;Node2</title>
<path fill="none" stroke="midnightblue" d="M439.95,-134.4C451.99,-123.96 468.39,-109.75 480.8,-99"/>
<polygon fill="midnightblue" stroke="midnightblue" points="483.38,-101.39 488.65,-92.19 478.8,-96.1 483.38,-101.39"/>
</g>
<!-- Node23&#45;&gt;Node3 -->
<g id="edge34" class="edge">
<title>Node23&#45;&gt;Node3</title>
<path fill="none" stroke="midnightblue" d="M353.48,-140.47C300.21,-132.81 233.23,-119.23 215.68,-98 201.33,-80.64 203.26,-53.41 206.79,-35.26"/>
<polygon fill="midnightblue" stroke="midnightblue" points="210.24,-35.83 209.05,-25.3 203.42,-34.28 210.24,-35.83"/>
</g>
<!-- Node23&#45;&gt;Node14 -->
<g id="edge35" class="edge">
<title>Node23&#45;&gt;Node14</title>
<path fill="none" stroke="midnightblue" d="M483.42,-134.41C519.3,-125.33 565.61,-112.54 605.68,-98 607.3,-97.41 608.94,-96.78 610.6,-96.12"/>
<polygon fill="midnightblue" stroke="midnightblue" points="612.12,-99.27 619.94,-92.13 609.37,-92.84 612.12,-99.27"/>
</g>
<!-- Node24 -->
<g id="node25" class="node">
<title>Node24</title>
<g id="a_node25"><a xlink:title=" ">
<polygon fill="white" stroke="#bfbfbf" points="400.68,-73 400.68,-92 458.68,-92 458.68,-73 400.68,-73"/>
<text text-anchor="middle" x="429.68" y="-80" font-family="Helvetica,sans-Serif" font-size="10.00">memory</text>
</a>
</g>
</g>
<!-- Node23&#45;&gt;Node24 -->
<g id="edge31" class="edge">
<title>Node23&#45;&gt;Node24</title>
<path fill="none" stroke="midnightblue" d="M424.98,-134.4C425.85,-124.96 427.01,-112.45 427.95,-102.19"/>
<polygon fill="midnightblue" stroke="midnightblue" points="431.44,-102.47 428.88,-92.19 424.47,-101.83 431.44,-102.47"/>
</g>
<!-- Node25 -->
<g id="node26" class="node">
<title>Node25</title>
<g id="a_node26"><a xlink:title=" ">
<polygon fill="white" stroke="#bfbfbf" points="539.18,-73 539.18,-92 596.18,-92 596.18,-73 539.18,-73"/>
<text text-anchor="middle" x="567.68" y="-80" font-family="Helvetica,sans-Serif" font-size="10.00">typeinfo</text>
</a>
</g>
</g>
<!-- Node23&#45;&gt;Node25 -->
<g id="edge33" class="edge">
<title>Node23&#45;&gt;Node25</title>
<path fill="none" stroke="midnightblue" d="M454.93,-134.4C480.08,-123.04 515.13,-107.22 539.45,-96.24"/>
<polygon fill="midnightblue" stroke="midnightblue" points="541.16,-99.31 548.83,-92.01 538.28,-92.93 541.16,-99.31"/>
</g>
<!-- Node26 -->
<g id="node27" class="node">
<title>Node26</title>
<g id="a_node27"><a xlink:href="never__destroyed_8h.html" target="_top" xlink:title=" ">
<polygon fill="white" stroke="black" points="224.68,-67.5 224.68,-97.5 344.68,-97.5 344.68,-67.5 224.68,-67.5"/>
<text text-anchor="start" x="232.68" y="-85.5" font-family="Helvetica,sans-Serif" font-size="10.00">drake/common/never</text>
<text text-anchor="middle" x="284.68" y="-74.5" font-family="Helvetica,sans-Serif" font-size="10.00">_destroyed.h</text>
</a>
</g>
</g>
<!-- Node23&#45;&gt;Node26 -->
<g id="edge36" class="edge">
<title>Node23&#45;&gt;Node26</title>
<path fill="none" stroke="midnightblue" d="M393.52,-134.4C373.12,-124.86 345.97,-112.16 323.9,-101.84"/>
<polygon fill="midnightblue" stroke="midnightblue" points="325.32,-98.64 314.78,-97.58 322.36,-104.98 325.32,-98.64"/>
</g>
<!-- Node26&#45;&gt;Node3 -->
<g id="edge39" class="edge">
<title>Node26&#45;&gt;Node3</title>
<path fill="none" stroke="midnightblue" d="M268.84,-67.4C257.12,-56.96 241.16,-42.75 229.08,-32"/>
<polygon fill="midnightblue" stroke="midnightblue" points="231.24,-29.23 221.44,-25.19 226.59,-34.46 231.24,-29.23"/>
</g>
<!-- Node26&#45;&gt;Node17 -->
<g id="edge40" class="edge">
<title>Node26&#45;&gt;Node17</title>
<path fill="none" stroke="midnightblue" d="M344.78,-69.28C349.48,-68.46 354.15,-67.69 358.68,-67 496.82,-45.94 659.55,-30.22 750.03,-22.29"/>
<polygon fill="midnightblue" stroke="midnightblue" points="750.5,-25.76 760.16,-21.4 749.89,-18.78 750.5,-25.76"/>
</g>
<!-- Node26&#45;&gt;Node20 -->
<g id="edge38" class="edge">
<title>Node26&#45;&gt;Node20</title>
<path fill="none" stroke="midnightblue" d="M344.74,-68.97C349.44,-68.22 354.13,-67.55 358.68,-67 563.93,-42.22 1216,-22.67 1392.99,-17.72"/>
<polygon fill="midnightblue" stroke="midnightblue" points="1393.09,-21.21 1402.99,-17.44 1392.9,-14.22 1393.09,-21.21"/>
</g>
<!-- Node27 -->
<g id="node28" class="node">
<title>Node27</title>
<g id="a_node28"><a xlink:title=" ">
<polygon fill="white" stroke="#bfbfbf" points="266.18,-6 266.18,-25 303.18,-25 303.18,-6 266.18,-6"/>
<text text-anchor="middle" x="284.68" y="-13" font-family="Helvetica,sans-Serif" font-size="10.00">new</text>
</a>
</g>
</g>
<!-- Node26&#45;&gt;Node27 -->
<g id="edge37" class="edge">
<title>Node26&#45;&gt;Node27</title>
<path fill="none" stroke="midnightblue" d="M284.68,-67.4C284.68,-58.06 284.68,-45.71 284.68,-35.52"/>
<polygon fill="midnightblue" stroke="midnightblue" points="288.18,-35.19 284.68,-25.19 281.18,-35.19 288.18,-35.19"/>
</g>
<!-- Node29&#45;&gt;Node2 -->
<g id="edge46" class="edge">
<title>Node29&#45;&gt;Node2</title>
<path fill="none" stroke="midnightblue" d="M595.77,-134.4C574.4,-123.19 544.73,-107.64 523.83,-96.69"/>
<polygon fill="midnightblue" stroke="midnightblue" points="525.39,-93.55 514.91,-92.01 522.14,-99.75 525.39,-93.55"/>
</g>
<!-- Node29&#45;&gt;Node3 -->
<g id="edge48" class="edge">
<title>Node29&#45;&gt;Node3</title>
<path fill="none" stroke="midnightblue" d="M641.32,-134.36C661.86,-117.11 689.65,-87.7 670.68,-67 639.55,-33.04 302.86,-39.98 257.68,-31 253.22,-30.11 248.58,-28.95 244.03,-27.67"/>
<polygon fill="midnightblue" stroke="midnightblue" points="244.94,-24.28 234.35,-24.73 242.91,-30.98 244.94,-24.28"/>
</g>
<!-- Node29&#45;&gt;Node5 -->
<g id="edge45" class="edge">
<title>Node29&#45;&gt;Node5</title>
<path fill="none" stroke="midnightblue" d="M695.45,-141.23C722.51,-138.7 753.48,-135.99 781.68,-134 1160.17,-107.3 1619.34,-89.72 1753.9,-84.86"/>
<polygon fill="midnightblue" stroke="midnightblue" points="1754.24,-88.35 1764.11,-84.5 1753.99,-81.36 1754.24,-88.35"/>
</g>
<!-- Node29&#45;&gt;Node10 -->
<g id="edge44" class="edge">
<title>Node29&#45;&gt;Node10</title>
<path fill="none" stroke="midnightblue" d="M695.36,-134.47C736.47,-125.7 788.52,-113.19 833.68,-98 835.55,-97.37 837.46,-96.68 839.37,-95.95"/>
<polygon fill="midnightblue" stroke="midnightblue" points="840.85,-99.12 848.75,-92.07 838.18,-92.65 840.85,-99.12"/>
</g>
<!-- Node29&#45;&gt;Node13 -->
<g id="edge49" class="edge">
<title>Node29&#45;&gt;Node13</title>
<path fill="none" stroke="midnightblue" d="M695.24,-139.25C750.6,-131.18 828.37,-117.66 894.68,-98 896.97,-97.32 899.31,-96.54 901.65,-95.71"/>
<polygon fill="midnightblue" stroke="midnightblue" points="902.99,-98.94 911.05,-92.06 900.46,-92.42 902.99,-98.94"/>
</g>
<!-- Node29&#45;&gt;Node14 -->
<g id="edge50" class="edge">
<title>Node29&#45;&gt;Node14</title>
<path fill="none" stroke="midnightblue" d="M625.93,-134.4C628.11,-124.96 631,-112.45 633.37,-102.19"/>
<polygon fill="midnightblue" stroke="midnightblue" points="636.83,-102.73 635.67,-92.19 630.01,-101.15 636.83,-102.73"/>
</g>
<!-- Node29&#45;&gt;Node17 -->
<g id="edge51" class="edge">
<title>Node29&#45;&gt;Node17</title>
<path fill="none" stroke="midnightblue" d="M695.31,-135.64C737.75,-126.68 785.83,-113.57 800.68,-98 815.2,-82.78 819.37,-58.71 820.26,-40.67"/>
<polygon fill="midnightblue" stroke="midnightblue" points="823.76,-40.66 820.45,-30.6 816.76,-40.53 823.76,-40.66"/>
</g>
<!-- Node30 -->
<g id="node31" class="node">
<title>Node30</title>
<g id="a_node31"><a xlink:title=" ">
<polygon fill="white" stroke="#bfbfbf" points="718.18,-73 718.18,-92 791.18,-92 791.18,-73 718.18,-73"/>
<text text-anchor="middle" x="754.68" y="-80" font-family="Helvetica,sans-Serif" font-size="10.00">string_view</text>
</a>
</g>
</g>
<!-- Node29&#45;&gt;Node30 -->
<g id="edge47" class="edge">
<title>Node29&#45;&gt;Node30</title>
<path fill="none" stroke="midnightblue" d="M651.32,-134.4C674.17,-123.14 705.94,-107.5 728.2,-96.54"/>
<polygon fill="midnightblue" stroke="midnightblue" points="729.98,-99.56 737.4,-92.01 726.89,-93.28 729.98,-99.56"/>
</g>
<!-- Node31&#45;&gt;Node1 -->
<g id="edge55" class="edge">
<title>Node31&#45;&gt;Node1</title>
<path fill="none" stroke="midnightblue" d="M499.07,-212.48C408.06,-207.56 247.73,-195.13 113.68,-165 110.26,-164.23 106.74,-163.28 103.25,-162.24"/>
<polygon fill="midnightblue" stroke="midnightblue" points="104.24,-158.88 93.65,-159.11 102.07,-165.53 104.24,-158.88"/>
</g>
<!-- Node31&#45;&gt;Node2 -->
<g id="edge57" class="edge">
<title>Node31&#45;&gt;Node2</title>
<path fill="none" stroke="midnightblue" d="M499.09,-211.1C393.02,-203.93 205.99,-188.14 185.68,-165 176.59,-154.64 176.57,-144.34 185.68,-134 227.43,-86.58 407,-115.59 467.68,-98 469.61,-97.44 471.56,-96.78 473.51,-96.05"/>
<polygon fill="midnightblue" stroke="midnightblue" points="475.14,-99.16 482.96,-92.01 472.39,-92.72 475.14,-99.16"/>
</g>
<!-- Node31&#45;&gt;Node3 -->
<g id="edge60" class="edge">
<title>Node31&#45;&gt;Node3</title>
<path fill="none" stroke="midnightblue" d="M498.82,-211.37C390.06,-204.45 195.72,-188.89 174.68,-165 141.26,-127.06 177.98,-63.46 199.02,-33.32"/>
<polygon fill="midnightblue" stroke="midnightblue" points="201.93,-35.26 204.95,-25.11 196.26,-31.16 201.93,-35.26"/>
</g>
<!-- Node31&#45;&gt;Node8 -->
<g id="edge53" class="edge">
<title>Node31&#45;&gt;Node8</title>
<path fill="none" stroke="midnightblue" d="M644.4,-213.08C785.83,-207.8 1092.97,-193.4 1194.68,-165 1196.39,-164.52 1198.13,-163.94 1199.85,-163.29"/>
<polygon fill="midnightblue" stroke="midnightblue" points="1201.68,-166.3 1209.36,-159.01 1198.81,-159.92 1201.68,-166.3"/>
</g>
<!-- Node31&#45;&gt;Node10 -->
<g id="edge54" class="edge">
<title>Node31&#45;&gt;Node10</title>
<path fill="none" stroke="midnightblue" d="M617.3,-201.49C643.59,-192.61 676.84,-179.98 704.68,-165 725.43,-153.83 727.15,-145.56 747.68,-134 777.24,-117.35 813.38,-102.75 838.03,-93.59"/>
<polygon fill="midnightblue" stroke="midnightblue" points="839.32,-96.85 847.51,-90.12 836.92,-90.27 839.32,-96.85"/>
</g>
<!-- Node31&#45;&gt;Node11 -->
<g id="edge59" class="edge">
<title>Node31&#45;&gt;Node11</title>
<path fill="none" stroke="midnightblue" d="M644.36,-214.39C769.58,-211.53 1033.75,-201.31 1253.68,-165 1259.25,-164.08 1265.08,-162.86 1270.78,-161.53"/>
<polygon fill="midnightblue" stroke="midnightblue" points="1271.97,-164.84 1280.83,-159.03 1270.28,-158.05 1271.97,-164.84"/>
</g>
<!-- Node31&#45;&gt;Node13 -->
<g id="edge61" class="edge">
<title>Node31&#45;&gt;Node13</title>
<path fill="none" stroke="midnightblue" d="M637.08,-201.42C669.01,-193.17 707.4,-181.15 739.68,-165 760.43,-154.62 761.02,-144.55 781.68,-134 828.62,-110.03 845.18,-116.1 894.68,-98 896.53,-97.32 898.43,-96.6 900.34,-95.86"/>
<polygon fill="midnightblue" stroke="midnightblue" points="901.82,-99.04 909.8,-92.07 899.22,-92.54 901.82,-99.04"/>
</g>
<!-- Node31&#45;&gt;Node14 -->
<g id="edge62" class="edge">
<title>Node31&#45;&gt;Node14</title>
<path fill="none" stroke="midnightblue" d="M559.08,-201.22C545.8,-184.34 528.51,-155.81 541.68,-134 545.6,-127.5 582.65,-109.16 609.55,-96.47"/>
<polygon fill="midnightblue" stroke="midnightblue" points="611.35,-99.5 618.92,-92.09 608.38,-93.16 611.35,-99.5"/>
</g>
<!-- Node31&#45;&gt;Node15 -->
<g id="edge63" class="edge">
<title>Node31&#45;&gt;Node15</title>
<path fill="none" stroke="midnightblue" d="M644.49,-213.3C813.57,-207.81 1228.8,-191.95 1365.68,-165 1369.57,-164.23 1373.59,-163.21 1377.54,-162.06"/>
<polygon fill="midnightblue" stroke="midnightblue" points="1378.64,-165.38 1387.1,-159 1376.51,-158.71 1378.64,-165.38"/>
</g>
<!-- Node31&#45;&gt;Node16 -->
<g id="edge64" class="edge">
<title>Node31&#45;&gt;Node16</title>
<path fill="none" stroke="midnightblue" d="M644.23,-213.07C746.29,-208.62 937.69,-196.52 1097.68,-165 1101.91,-164.17 1106.29,-163.11 1110.62,-161.96"/>
<polygon fill="midnightblue" stroke="midnightblue" points="1111.86,-165.24 1120.51,-159.12 1109.93,-158.51 1111.86,-165.24"/>
</g>
<!-- Node31&#45;&gt;Node17 -->
<g id="edge65" class="edge">
<title>Node31&#45;&gt;Node17</title>
<path fill="none" stroke="midnightblue" d="M499.14,-209.86C445.57,-203.71 371.82,-191.01 311.68,-165 290.06,-155.65 287.98,-147.51 268.68,-134 245.35,-117.67 229.01,-123.16 215.68,-98 209.23,-85.82 206.35,-77.14 215.68,-67 251.24,-28.34 598.74,-19.27 749.97,-17.14"/>
<polygon fill="midnightblue" stroke="midnightblue" points="750.12,-20.64 760.07,-17.01 750.03,-13.64 750.12,-20.64"/>
</g>
<!-- Node31&#45;&gt;Node18 -->
<g id="edge66" class="edge">
<title>Node31&#45;&gt;Node18</title>
<path fill="none" stroke="midnightblue" d="M631.66,-201.48C675.23,-191.29 734.31,-177.47 779.98,-166.8"/>
<polygon fill="midnightblue" stroke="midnightblue" points="780.87,-170.18 789.81,-164.5 779.27,-163.37 780.87,-170.18"/>
</g>
<!-- Node31&#45;&gt;Node20 -->
<g id="edge58" class="edge">
<title>Node31&#45;&gt;Node20</title>
<path fill="none" stroke="midnightblue" d="M498.94,-209.09C440.05,-202.21 363.84,-188.9 344.68,-165 314.46,-127.32 382.48,-72.07 391.68,-67 436.12,-42.51 1198.66,-22.33 1392.93,-17.56"/>
<polygon fill="midnightblue" stroke="midnightblue" points="1393.16,-21.06 1403.07,-17.32 1392.99,-14.06 1393.16,-21.06"/>
</g>
<!-- Node31&#45;&gt;Node22 -->
<g id="edge67" class="edge">
<title>Node31&#45;&gt;Node22</title>
<path fill="none" stroke="midnightblue" d="M644.51,-205.27C714.76,-195.31 824.07,-179.59 918.68,-165 927.66,-163.62 937.13,-162.11 946.43,-160.62"/>
<polygon fill="midnightblue" stroke="midnightblue" points="947.09,-164.06 956.4,-159.01 945.97,-157.15 947.09,-164.06"/>
</g>
<!-- Node31&#45;&gt;Node23 -->
<g id="edge68" class="edge">
<title>Node31&#45;&gt;Node23</title>
<path fill="none" stroke="midnightblue" d="M539.57,-201.4C517.75,-191.81 488.69,-179.05 465.12,-168.7"/>
<polygon fill="midnightblue" stroke="midnightblue" points="466.29,-165.39 455.73,-164.58 463.48,-171.8 466.29,-165.39"/>
</g>
<!-- Node31&#45;&gt;Node29 -->
<g id="edge69" class="edge">
<title>Node31&#45;&gt;Node29</title>
<path fill="none" stroke="midnightblue" d="M582.75,-201.4C589.36,-192.96 597.91,-182.07 605.4,-172.52"/>
<polygon fill="midnightblue" stroke="midnightblue" points="608.22,-174.6 611.63,-164.58 602.71,-170.28 608.22,-174.6"/>
</g>
<!-- Node32 -->
<g id="node33" class="node">
<title>Node32</title>
<g id="a_node33"><a xlink:title=" ">
<polygon fill="white" stroke="#bfbfbf" points="194.18,-140 194.18,-159 259.18,-159 259.18,-140 194.18,-140"/>
<text text-anchor="middle" x="226.68" y="-147" font-family="Helvetica,sans-Serif" font-size="10.00">stdexcept</text>
</a>
</g>
</g>
<!-- Node31&#45;&gt;Node32 -->
<g id="edge56" class="edge">
<title>Node31&#45;&gt;Node32</title>
<path fill="none" stroke="midnightblue" d="M498.88,-205.89C438.21,-197.23 349.74,-183.1 273.68,-165 269.86,-164.09 265.9,-163.04 261.97,-161.93"/>
<polygon fill="midnightblue" stroke="midnightblue" points="262.95,-158.57 252.37,-159.09 260.97,-165.28 262.95,-158.57"/>
</g>
</g>
</svg>
        <g id="navigator" transform="translate(0 0)" fill="#404254">
                <rect fill="#f2f5e9" fill-opacity="0.5" stroke="#606060" stroke-width=".5" x="0" y="0" width="60" height="60"/>
                <use id="zoomplus" xlink:href="#zoomPlus" x="17" y="9" onmousedown="handleZoom(evt,'in')"/>
                <use id="zoomminus" xlink:href="#zoomMin" x="42" y="9" onmousedown="handleZoom(evt,'out')"/>
                <use id="reset" xlink:href="#resetDef" x="30" y="36" onmousedown="handleReset()"/>
                <g id="arrowUp" xlink:href="#dirArrow" transform="translate(30 24)" onmousedown="handlePan(0,-1)">
                  <use xlink:href="#rim" fill="#404040">
                        <set attributeName="fill" to="#808080" begin="arrowUp.mouseover" end="arrowUp.mouseout"/>
                  </use>
                  <path fill="none" stroke="white" stroke-width="1.5" d="M0,-3.0v7 M-2.5,-0.5L0,-3.0L2.5,-0.5"/>
                </g>
                <g id="arrowRight" xlink:href="#dirArrow" transform="rotate(90) translate(36 -43)" onmousedown="handlePan(1,0)">
                  <use xlink:href="#rim" fill="#404040">
                        <set attributeName="fill" to="#808080" begin="arrowRight.mouseover" end="arrowRight.mouseout"/>
                  </use>
                  <path fill="none" stroke="white" stroke-width="1.5" d="M0,-3.0v7 M-2.5,-0.5L0,-3.0L2.5,-0.5"/>
                </g>
                <g id="arrowDown" xlink:href="#dirArrow" transform="rotate(180) translate(-30 -48)" onmousedown="handlePan(0,1)">
                  <use xlink:href="#rim" fill="#404040">
                        <set attributeName="fill" to="#808080" begin="arrowDown.mouseover" end="arrowDown.mouseout"/>
                  </use>
                  <path fill="none" stroke="white" stroke-width="1.5" d="M0,-3.0v7 M-2.5,-0.5L0,-3.0L2.5,-0.5"/>
                </g>
                <g id="arrowLeft" xlink:href="#dirArrow" transform="rotate(270) translate(-36 17)" onmousedown="handlePan(-1,0)">
                  <use xlink:href="#rim" fill="#404040">
                        <set attributeName="fill" to="#808080" begin="arrowLeft.mouseover" end="arrowLeft.mouseout"/>
                  </use>
                  <path fill="none" stroke="white" stroke-width="1.5" d="M0,-3.0v7 M-2.5,-0.5L0,-3.0L2.5,-0.5"/>
                </g>
        </g>
        <svg viewBox="0 0 15 15" width="100%" height="30px" preserveAspectRatio="xMaxYMin meet">
         <g id="arrow_out" transform="scale(0.3 0.3)">
          <a xlink:href="yaml__io_8h__incl_org.svg" target="_base">
           <rect id="button" ry="5" rx="5" y="6" x="6" height="38" width="38"
                fill="#f2f5e9" fill-opacity="0.5" stroke="#606060" stroke-width="1.0"/>
           <path id="arrow"
             d="M 11.500037,31.436501 C 11.940474,20.09759 22.043105,11.32322 32.158766,21.979434 L 37.068811,17.246167 C 37.068811,17.246167 37.088388,32 37.088388,32 L 22.160133,31.978069 C 22.160133,31.978069 26.997745,27.140456 26.997745,27.140456 C 18.528582,18.264221 13.291696,25.230495 11.500037,31.436501 z"
             style="fill:#404040;"/>
          </a>
         </g>
        </svg>
</svg>
